<?xml version="1.0" encoding="UTF-8"?> <svg xmlns="http://www.w3.org/2000/svg" width="127" height="43" viewBox="0 0 127 43" fill="none"> <path d="M87.2323 21.5H64.1414V41.7353H87.2323V21.5Z" fill="#DAB68C" stroke="black" stroke-width="2"></path> <path d="M63.292 21.0338L86.8541 42.3274" stroke="black"></path> <path d="M88.137 20.7015L64.5749 41.9949" stroke="black"></path> <path d="M54.926 29.0882H34.6364V41.7353H54.926V29.0882Z" fill="#DAB68C" stroke="black" stroke-width="2"></path> <path d="M34.6364 32.6715H54.926" stroke="black"></path> <path d="M25.6566 13.9118H1.28282V41.7353H25.6566V13.9118Z" fill="#DAB68C" stroke="black" stroke-width="2"></path> <path d="M1.86316 18.3898H25.6566" stroke="black"></path> <path d="M13.5308 18.4543V41.7353" stroke="black"></path> <path d="M125.717 1.67769H96.8666V39.1543H125.717V1.67769Z" fill="#DAB68C" stroke="black" stroke-width="2"></path> <path d="M108.006 12.0276V32.0306" stroke="black"></path> <path d="M96.2978 31.6498H126.286" stroke="black"></path> <path d="M96.8928 12.6858H126.167" stroke="black"></path> <path d="M101.68 40.8616H96.0328V42.5574H101.68V40.8616Z" fill="#DAB68C" stroke="black" stroke-width="0.7"></path> <path d="M126.551 40.8616H120.904V42.5574H126.551V40.8616Z" fill="#DAB68C" stroke="black" stroke-width="0.7"></path> <path d="M36.1296 23.0126H35.3291V24.0294H33.8436V23.0126H30.9957V22.0337L33.4125 18.7176H34.9904L32.7968 21.8212H33.8898V20.9182H35.3291V21.8212H36.1296V23.0126ZM41.5114 19.8483C41.8911 19.8483 42.2349 19.9368 42.5428 20.1139C42.8558 20.2859 43.1021 20.5338 43.2817 20.8575C43.4665 21.1762 43.5588 21.5481 43.5588 21.973C43.5588 22.3979 43.4665 22.7723 43.2817 23.0961C43.1021 23.4148 42.8558 23.6626 42.5428 23.8397C42.2349 24.0117 41.8911 24.0977 41.5114 24.0977C41.024 24.0977 40.6365 23.9535 40.3492 23.6652V25.5015H38.8868V19.9166H40.2799V20.3264C40.5519 20.0076 40.9624 19.8483 41.5114 19.8483ZM41.2035 22.9519C41.4601 22.9519 41.6705 22.8659 41.8347 22.6939C41.9989 22.5168 42.081 22.2765 42.081 21.973C42.081 21.6695 41.9989 21.4317 41.8347 21.2597C41.6705 21.0826 41.4601 20.9941 41.2035 20.9941C40.947 20.9941 40.7366 21.0826 40.5724 21.2597C40.4082 21.4317 40.3261 21.6695 40.3261 21.973C40.3261 22.2765 40.4082 22.5168 40.5724 22.6939C40.7366 22.8659 40.947 22.9519 41.2035 22.9519ZM45.9263 19.8483C46.619 19.8483 47.1475 20.0051 47.5119 20.3188C47.8762 20.6274 48.0583 21.1029 48.0583 21.7454V24.0294H46.696V23.4982C46.4856 23.8979 46.0751 24.0977 45.4645 24.0977C45.1412 24.0977 44.8615 24.0421 44.6255 23.9308C44.3895 23.8195 44.2099 23.6702 44.0867 23.4831C43.9687 23.2908 43.9097 23.0733 43.9097 22.8305C43.9097 22.4409 44.0611 22.1399 44.3638 21.9275C44.6665 21.7099 45.1335 21.6012 45.7646 21.6012H46.5959C46.5703 21.1661 46.2752 20.9486 45.7108 20.9486C45.5106 20.9486 45.308 20.9815 45.1027 21.0472C44.8975 21.1079 44.723 21.1939 44.5793 21.3052L44.0867 20.3264C44.3176 20.1746 44.5973 20.0582 44.9257 19.9773C45.2592 19.8913 45.5927 19.8483 45.9263 19.8483ZM45.8724 23.1871C46.0417 23.1871 46.1905 23.1466 46.3188 23.0657C46.4471 22.9848 46.5395 22.8659 46.5959 22.7091V22.3524H45.9648C45.5389 22.3524 45.3259 22.4915 45.3259 22.7698C45.3259 22.8962 45.3747 22.9974 45.4722 23.0733C45.5697 23.1492 45.7031 23.1871 45.8724 23.1871ZM51.1737 24.0977C50.7119 24.0977 50.2988 24.0066 49.9345 23.8245C49.5702 23.6424 49.2854 23.3895 49.0801 23.0657C48.88 22.7419 48.7799 22.3752 48.7799 21.9654C48.7799 21.5556 48.88 21.1914 49.0801 20.8727C49.2854 20.5489 49.5702 20.2985 49.9345 20.1215C50.2988 19.9394 50.7119 19.8483 51.1737 19.8483C51.6458 19.8483 52.0537 19.9495 52.3975 20.1518C52.7413 20.3491 52.985 20.6248 53.1287 20.9789L51.9973 21.5481C51.8074 21.1788 51.5303 20.9941 51.166 20.9941C50.9043 20.9941 50.6862 21.0801 50.5118 21.2521C50.3424 21.4241 50.2578 21.6619 50.2578 21.9654C50.2578 22.274 50.3424 22.5168 50.5118 22.6939C50.6862 22.8659 50.9043 22.9519 51.166 22.9519C51.5303 22.9519 51.8074 22.7672 51.9973 22.3979L53.1287 22.9671C52.985 23.3212 52.7413 23.5994 52.3975 23.8018C52.0537 23.9991 51.6458 24.0977 51.1737 24.0977ZM55.5578 22.5876L55.1267 23.0202V24.0294H53.6643V18.3989H55.1267V21.3508L56.6199 19.9166H58.3518L56.6199 21.6771L58.498 24.0294H56.7277L55.5578 22.5876Z" fill="black"></path> <path d="M118.452 1.70349V13.3181" stroke="black"></path> </svg> 