<?xml version="1.0" encoding="UTF-8"?> <svg xmlns="http://www.w3.org/2000/svg" width="516" height="564" viewBox="0 0 516 564" fill="none"> <g clip-path="url(#clip0_152_5660)"> <path d="M344.705 444L155.435 334.588V0L344.705 109.412V444Z" fill="#778DFD"></path> <path d="M277.385 482.824L88.1147 373.412V38.8235L277.385 147.882V482.824Z" fill="#FF9D27"></path> <path d="M277.385 147.882L344.705 109.412V444L277.385 482.824V147.882Z" fill="#FFE25B"></path> <path d="M291.483 161.294V183.529L334.131 158.824V136.588L291.483 161.294Z" fill="#302F2E"></path> <path d="M291.483 374.471L334.131 349.765V158.824L291.483 183.529V374.471Z" fill="#FAFAFA"></path> <path d="M306.287 182.471L301 185.294V359.647L306.287 356.471V182.471Z" fill="#302F2E"></path> <path d="M327.082 117.882L152.967 17.2941L102.565 46.2353L277.385 146.118L327.082 117.882Z" fill="#FAFAFA"></path> <path d="M155.434 0L152.967 1.41176L338.713 109.059L278.09 144L91.9918 36.3529L88.1147 38.8235L277.385 147.882L344.705 109.412L155.434 0Z" fill="#FFAC06"></path> <path d="M152.967 1.41176V17.2941L325.32 117.176L338.713 109.059L152.967 1.41176Z" fill="#FF9D27"></path> <path d="M207.951 94.9412C182.574 75.8823 154.377 58.5882 125.828 44.8235C125.476 44.8235 125.476 45.1765 125.476 45.1765C152.967 61.7647 180.459 78.3529 207.599 95.6471C207.951 96 208.303 94.9412 207.951 94.9412Z" fill="#E0D7DC"></path> <path d="M273.861 98.4706C248.484 79.4118 220.287 62.1176 191.738 48.3529C191.385 48.3529 191.385 48.7059 191.385 48.7059C218.877 65.2941 246.369 81.8824 273.508 99.1765C273.861 99.5294 274.213 98.8235 273.861 98.4706Z" fill="#E0D7DC"></path> <path d="M297.828 121.765C288.664 115.059 278.443 109.765 268.574 104.118C258.705 98.4706 249.189 92.4706 238.967 86.8235C238.262 86.4706 237.91 87.5294 238.262 87.8824C256.238 100.941 276.68 114.353 297.475 122.471C297.828 122.118 298.18 121.765 297.828 121.765Z" fill="#E0D7DC"></path> <path d="M298.885 409.765C298.885 421.765 306.287 427.059 315.098 422.118C323.91 416.823 331.311 403.059 331.311 391.059C331.311 379.059 323.91 373.765 315.098 378.706C305.934 384 298.885 397.765 298.885 409.765Z" fill="#FAFAFA"></path> <path d="M324.967 382.235C326.377 384.353 327.082 387.176 327.082 390.706C327.082 400.588 321.09 412.235 313.689 416.471C310.164 418.588 306.64 418.588 304.172 416.823C306.64 420.353 310.869 421.412 315.451 418.588C322.853 414.353 328.844 402.706 328.844 392.823C329.197 387.529 327.435 384 324.967 382.235Z" fill="#E0D7DC"></path> <path d="M313.689 416.471C321.09 412.235 327.082 400.588 327.082 390.706C327.082 387.176 326.377 384.353 324.967 382.235C322.5 380.471 319.328 380.471 315.451 382.588C308.049 386.823 302.058 398.471 302.058 408.353C302.058 411.882 302.763 414.706 304.172 416.823C306.64 418.588 310.164 418.588 313.689 416.471Z" fill="#FF9D27"></path> <path d="M326.377 172.588V176.118L316.508 181.765V187.765L314.394 189.176V179.647L326.377 172.588Z" fill="#302F2E"></path> <path d="M316.861 189.529C318.623 188.471 319.68 189.882 320.033 194.118C320.738 193.412 321.443 192.706 321.443 191.647C321.443 190.588 321.09 189.882 320.738 189.176L322.5 187.059C323.205 188.118 323.557 189.529 323.557 191.294C323.557 194.118 322.148 196.588 319.328 198.353L314.041 201.529V198.706L315.098 198C314.393 197.294 314.041 196.588 314.041 195.176C314.041 192.353 315.098 190.235 316.861 189.529ZM316.861 195.882L318.623 194.824C318.271 192.706 317.918 192 317.213 192.353C316.508 192.706 316.508 193.412 316.508 194.118C316.156 195.176 316.508 195.529 316.861 195.882Z" fill="#302F2E"></path> <path d="M315.451 201.882L317.213 202.588C316.508 204 316.156 205.059 316.156 206.118C316.156 207.176 316.508 207.529 316.861 207.176C317.566 206.824 317.566 205.412 318.271 204C318.623 202.235 319.328 200.118 321.09 199.412C322.852 198.353 323.91 199.412 323.91 202.235C323.91 204 323.205 205.765 322.852 206.824L320.738 206.118C321.09 205.059 321.443 204 321.443 203.294C321.443 202.588 321.09 202.235 320.738 202.588C320.033 202.941 320.033 204 319.68 205.412C319.328 207.176 318.623 209.294 316.861 210C315.098 211.059 314.041 210 314.041 206.824C314.041 205.412 314.393 203.647 315.451 201.882Z" fill="#302F2E"></path> <path d="M317.565 211.765L321.09 209.647V208.235L323.205 207.176V208.941L325.672 207.882V210.706L323.557 211.765V214.588L321.443 215.647V212.824L317.918 214.941C316.861 215.647 316.508 216.353 316.508 217.412C316.508 217.765 316.508 218.118 316.861 218.471L314.746 220.235C314.746 219.882 314.393 218.824 314.393 217.765C314.041 214.941 315.451 213.176 317.565 211.765Z" fill="#302F2E"></path> <path d="M323.558 221.647V224.471L322.5 225.529C323.205 225.882 323.91 226.588 323.91 228.353C323.91 230.118 323.205 231.176 322.5 232.235C323.205 232.941 323.91 233.294 323.91 235.059C323.91 237.529 322.5 239.294 320.385 240.706L314.746 243.882V240.353L320.033 237.176C321.443 236.471 321.795 235.765 321.795 234.706C321.795 234 321.443 233.647 321.09 233.294L315.099 236.824V233.294L320.385 230.118C321.795 229.412 322.148 228.706 322.148 227.647C322.148 226.941 321.795 226.588 321.443 226.235L315.451 229.765V226.235L323.558 221.647Z" fill="#302F2E"></path> <path d="M318.975 243.176C322.148 241.412 323.91 243.176 323.91 246C323.91 248.824 322.148 252.706 318.975 254.471C315.803 256.235 314.041 254.471 314.041 251.647C314.041 248.824 315.803 244.941 318.975 243.176ZM318.975 250.941C320.385 249.882 321.443 248.824 321.443 247.412C321.443 246 320.385 246 318.975 246.706C317.566 247.765 316.508 248.824 316.508 250.235C316.156 251.647 317.213 252 318.975 250.941Z" fill="#302F2E"></path> <path d="M323.557 254.118V256.941L322.148 257.647C322.853 258.353 323.557 259.059 323.557 260.471C323.557 262.941 322.148 264.706 320.033 266.118L314.394 269.294V265.765L319.68 262.588C321.09 261.882 321.443 261.176 321.443 260.118C321.443 259.412 321.09 259.059 320.738 258.353L314.746 261.882V258.353L323.557 254.118Z" fill="#302F2E"></path> <path d="M317.565 271.059L321.09 268.941V267.529L323.205 266.471V268.235L325.672 267.176V270L323.205 271.412V274.235L321.443 275.294V272.471L317.918 274.588C316.861 275.294 316.508 276 316.508 277.059C316.508 277.412 316.508 277.765 316.861 278.118L314.746 279.882C314.746 279.529 314.393 278.471 314.393 277.412C314.041 274.235 315.451 272.471 317.565 271.059Z" fill="#302F2E"></path> <path d="M327.082 273.882V277.412L323.91 279.176L322.148 279.882C322.853 280.235 323.558 281.294 323.558 282.706C323.558 285.176 322.148 286.941 320.033 288.353L314.394 291.529V288L319.68 284.824C321.09 284.118 321.443 283.412 321.443 282.353C321.443 281.647 321.09 281.294 320.738 280.588L314.746 284.118V280.588L327.082 273.882Z" fill="#302F2E"></path> <path d="M317.566 297.882L321.09 295.765V294.353L323.205 293.294V295.059L325.672 294V296.471L323.205 297.882V300.706L321.09 301.765V298.941L317.566 301.059C316.508 301.765 316.156 302.471 316.156 303.529C316.156 303.882 316.156 304.235 316.508 304.588L314.393 306.353C314.393 306 314.041 304.941 314.041 303.882C314.041 301.059 315.451 298.941 317.566 297.882Z" fill="#302F2E"></path> <path d="M316.861 305.647C318.623 304.588 319.68 306 320.033 310.235C320.738 309.529 321.443 308.824 321.443 307.765C321.443 306.706 321.09 306 320.738 305.294L322.5 303.177C323.205 304.235 323.557 305.647 323.557 307.412C323.557 310.235 322.148 312.706 319.328 314.471L314.041 317.647V314.118L315.098 313.412C314.393 312.706 314.041 312 314.041 310.588C314.041 308.471 315.098 306.706 316.861 305.647ZM316.861 312L318.623 310.941C318.271 308.824 317.918 308.118 317.213 308.471C316.508 308.824 316.508 309.529 316.508 310.235C316.156 311.294 316.508 311.647 316.861 312Z" fill="#302F2E"></path> <path d="M318.975 319.412L323.205 313.412V316.941L321.795 318.706C321.443 319.412 320.738 320.118 320.385 320.471C320.738 320.471 321.443 320.471 321.795 320.471H323.205V324L318.623 323.294L314.041 329.294V325.765L315.451 323.647C315.803 322.941 316.508 322.235 316.861 321.529C316.508 321.529 315.803 321.529 315.451 321.529H314.041V318L318.975 319.412Z" fill="#302F2E"></path> <path d="M318.976 327.882C321.795 326.118 323.91 327.882 323.91 330.706C323.91 333.882 322.148 336.706 319.681 338.118C319.328 338.471 318.623 338.471 318.623 338.824V332.118C317.213 333.176 316.861 334.588 316.861 336.353C316.861 337.059 317.213 337.765 317.566 338.471L315.803 340.588C315.099 339.882 314.746 338.471 314.746 337.059C314.041 333.176 315.803 329.647 318.976 327.882ZM319.681 334.588C320.738 333.882 321.443 333.176 321.443 331.765C321.443 330.706 320.738 330 319.681 330.706V334.588Z" fill="#302F2E"></path> <path d="M315.451 341.294L317.213 342C316.508 343.412 316.156 344.471 316.156 345.529C316.156 346.588 316.508 346.941 316.861 346.588C317.566 346.235 317.566 344.824 318.271 343.412C318.623 341.647 319.328 339.529 321.09 338.824C322.852 337.765 323.91 338.824 323.91 341.647C323.91 343.412 323.205 345.176 322.852 346.235L320.738 345.882C321.09 344.824 321.443 343.765 321.443 343.059C321.443 342.353 321.09 342 320.738 342.353C320.033 342.706 320.033 343.765 319.68 345.176C319.328 346.941 318.623 349.059 316.861 349.765C315.098 350.824 314.041 349.765 314.041 346.588C314.041 345.176 314.393 343.059 315.451 341.294Z" fill="#302F2E"></path> <path d="M185.393 71.6471L167.771 61.4118C167.771 61.4118 167.771 39.5294 167.771 32.4706C167.771 14.8235 173.762 5.64706 173.762 5.64706L191.385 15.8824C191.385 15.8824 185.393 28.2353 185.393 50.8235C185.393 56.1177 185.393 71.6471 185.393 71.6471Z" fill="#8DA3FF"></path> <path d="M277.033 129.529L262.582 121.059V69.5294L277.033 77.6471V129.529Z" fill="#B6C9F2"></path> <path d="M299.943 111.529L285.492 103.059C285.492 103.059 285.492 78.7059 285.492 70.9412C285.492 66 287.606 56.8235 287.606 56.8235L302.057 65.2941C302.057 65.2941 299.943 73.7647 299.943 78.3529C299.943 86.4706 299.943 111.529 299.943 111.529Z" fill="#FFB83B"></path> <path d="M256.238 494.471L67.3198 385.059V50.4706L256.238 159.882V494.471Z" fill="#778DFD"></path> <path d="M189.27 533.294L0 423.882V88.9412L189.27 198.353V533.294Z" fill="#8DA3FF"></path> <path d="M189.271 198.353L256.238 159.882V494.471L189.271 533.294V198.353Z" fill="#778DFD"></path> <path d="M203.017 211.765V233.647L246.017 209.294V187.059L203.017 211.765Z" fill="#302F2E"></path> <path d="M203.017 424.588L246.017 400.235V209.294L203.017 233.647V424.588Z" fill="#FAFAFA"></path> <path d="M217.82 232.588L212.533 235.765V410.118L217.82 406.941V232.588Z" fill="#302F2E"></path> <path d="M238.615 168.353L64.4999 67.7647L14.4507 96.3529L189.27 196.588L238.615 168.353Z" fill="#FAFAFA"></path> <path d="M67.3197 50.4706L64.5 51.8823L250.598 159.529L189.975 194.471L3.87705 86.8235L0 88.9412L189.27 198.353L256.238 159.882L67.3197 50.4706Z" fill="#A6BBFF"></path> <path d="M64.5 51.8824V67.7647L236.852 167.294L250.598 159.529L64.5 51.8824Z" fill="#778DFD"></path> <path d="M119.836 145.059C94.1067 126 66.2624 109.059 37.3608 95.2941C37.0083 95.2941 37.0083 95.647 37.0083 95.647C64.5001 112.235 91.9919 128.824 119.131 146.118C119.836 146.118 120.189 145.412 119.836 145.059Z" fill="#E0D7DC"></path> <path d="M185.746 148.941C160.369 129.882 132.172 112.588 103.623 98.8235C103.271 98.8235 103.271 99.1765 103.271 99.1765C130.762 115.765 158.254 132.353 185.393 149.647C185.746 150 186.098 149.294 185.746 148.941Z" fill="#E0D7DC"></path> <path d="M209.361 172.235C200.197 165.529 189.975 160.235 180.106 154.588C170.238 148.941 160.721 142.941 150.5 137.294C149.795 136.941 149.443 138 149.795 138.353C167.77 151.412 188.213 164.824 209.008 172.941C209.713 172.588 209.713 172.235 209.361 172.235Z" fill="#E0D7DC"></path> <path d="M239.559 456.471C244.895 443.916 243.413 431.262 236.248 428.209C229.083 425.155 218.949 432.859 213.613 445.414C208.277 457.97 209.76 470.624 216.924 473.677C224.089 476.731 234.223 469.027 239.559 456.471Z" fill="#FAFAFA"></path> <path d="M236.852 432.706C238.262 434.824 238.967 437.647 238.967 441.176C238.967 451.059 232.975 462.706 225.574 466.941C222.049 469.059 218.524 469.059 216.057 467.294C218.524 470.823 222.754 471.882 227.336 469.059C234.737 464.823 240.729 453.176 240.729 443.294C240.729 438 239.319 434.471 236.852 432.706Z" fill="#E0D7DC"></path> <path d="M225.574 466.941C232.975 462.706 238.967 451.059 238.967 441.176C238.967 437.647 238.262 434.824 236.852 432.706C234.385 430.941 231.213 430.941 227.336 433.059C219.934 437.294 213.942 448.941 213.942 458.824C213.942 462.353 214.647 465.176 216.057 467.294C218.524 468.706 221.696 469.059 225.574 466.941Z" fill="#5E79E6"></path> <path d="M235.795 227.294V223.059L237.91 221.647V233.294L235.795 234.706V230.471L225.926 236.471V232.941L235.795 227.294Z" fill="#302F2E"></path> <path d="M238.967 235.059V238.588L235.795 240.353L234.033 241.059C234.738 241.412 235.443 242.471 235.443 243.882C235.443 246.353 234.033 248.118 231.918 249.529L226.279 252.706V249.176L231.566 246C232.976 245.294 233.328 244.588 233.328 243.529C233.328 242.824 232.976 242.471 232.623 241.765L226.631 245.294V241.765L238.967 235.059Z" fill="#302F2E"></path> <path d="M235.09 250.588V254.118L225.926 259.412V255.882L235.09 250.588ZM237.91 248.824C238.615 248.471 239.32 248.824 239.32 249.882C239.32 250.941 238.615 252 237.91 252.706C237.205 253.059 236.5 252.706 236.5 251.647C236.5 250.235 237.205 249.176 237.91 248.824Z" fill="#302F2E"></path> <path d="M226.984 260.471L228.746 261.176C228.041 262.588 227.689 263.647 227.689 264.706C227.689 265.765 228.041 266.118 228.393 265.765C229.098 265.412 229.098 264 229.803 262.588C230.156 260.824 230.861 258.706 232.623 258C234.385 256.941 235.443 258 235.443 260.824C235.443 262.588 234.738 264.353 234.385 265.412L232.623 265.059C232.975 264 233.328 262.941 233.328 262.235C233.328 261.529 232.975 261.176 232.623 261.529C231.918 261.882 231.918 262.941 231.566 264.353C231.213 266.118 230.508 268.235 228.746 268.941C226.984 270 225.926 268.941 225.926 265.765C225.926 264.353 226.279 262.235 226.984 260.471Z" fill="#302F2E"></path> <path d="M235.09 271.765V274.588L234.033 275.647C234.738 276 235.443 276.706 235.443 278.471C235.443 280.235 234.738 281.294 234.033 282.353C234.738 283.059 235.443 283.412 235.443 285.176C235.443 287.647 234.033 289.412 231.918 290.824L226.279 294V290.471L231.566 287.294C232.976 286.588 233.328 285.882 233.328 284.824C233.328 284.118 232.976 283.765 232.623 283.412L226.631 286.941V283.412L231.918 280.235C233.328 279.529 233.68 278.823 233.68 277.765C233.68 277.059 233.328 276.706 232.976 276.353L226.984 279.882V276.353L235.09 271.765Z" fill="#302F2E"></path> <path d="M230.508 293.647C233.68 291.882 235.443 293.647 235.443 296.471C235.443 299.294 233.68 303.176 230.508 304.941C227.336 306.706 225.574 304.941 225.574 302.118C225.926 298.941 227.688 295.412 230.508 293.647ZM230.508 301.412C231.918 300.353 232.975 299.294 232.975 297.882C232.975 296.471 231.918 296.471 230.508 297.176C229.098 298.235 228.041 299.294 228.041 300.706C228.041 302.118 229.098 302.118 230.508 301.412Z" fill="#302F2E"></path> <path d="M235.09 304.588V307.059L234.033 308.118C234.738 308.824 235.443 309.529 235.443 310.941C235.443 313.412 234.033 315.176 231.918 316.588L226.279 319.765V316.235L231.566 313.059C232.976 312.353 233.328 311.647 233.328 310.588C233.328 309.882 232.976 309.529 232.623 308.824L226.631 312.353V308.824L235.09 304.588Z" fill="#302F2E"></path> <path d="M229.451 321.529L232.975 319.412V317.647L235.09 316.588V318.353L237.557 317.294V320.118L235.09 321.529V324.353L232.975 325.412V322.588L229.451 324.706C228.393 325.412 228.041 326.118 228.041 327.176C228.041 327.529 228.041 327.882 228.394 328.235L226.279 330C226.279 329.647 225.926 328.588 225.926 327.529C225.926 324.706 227.336 322.588 229.451 321.529Z" fill="#302F2E"></path> <path d="M238.967 324.353V327.882L235.795 329.647L234.033 330.353C234.738 330.706 235.443 331.765 235.443 333.176C235.443 335.647 234.033 337.412 231.918 338.823L226.279 342V338.471L231.566 335.294C232.976 334.588 233.328 333.882 233.328 332.824C233.328 332.118 232.976 331.765 232.623 331.059L226.631 334.588V331.059L238.967 324.353Z" fill="#302F2E"></path> <path d="M229.451 348L232.975 345.882V344.471L235.09 343.412V345.176L237.557 344.118V346.941L235.09 348.353V351.176L232.975 352.235V349.412L229.451 351.529C228.393 352.235 228.041 352.941 228.041 354C228.041 354.353 228.041 354.706 228.394 355.059L226.279 356.823C226.279 356.471 225.926 355.412 225.926 354.353C225.926 351.176 227.336 349.412 229.451 348Z" fill="#302F2E"></path> <path d="M228.393 356.118C230.156 355.059 231.213 356.471 231.566 360.706C232.27 360 232.975 359.294 232.975 358.235C232.975 357.176 232.623 356.471 232.27 355.765L234.033 353.647C234.738 354.706 235.09 356.118 235.09 357.882C235.09 360.706 233.68 363.176 230.861 364.941L225.574 368.118V365.294L226.631 364.588C225.926 363.882 225.574 363.176 225.574 361.765C225.926 358.941 226.984 356.824 228.393 356.118ZM228.746 362.471L230.508 361.412C230.156 359.294 229.803 358.588 229.098 358.941C228.393 359.294 228.393 360 228.393 360.706C228.041 361.765 228.041 362.118 228.746 362.471Z" fill="#302F2E"></path> <path d="M230.861 369.882L235.09 363.882V367.412L233.68 369.176C233.328 369.882 232.623 370.588 232.271 370.941C232.623 370.941 233.328 370.941 233.68 370.941H235.09V374.471L230.508 373.765L225.926 379.765V376.235L227.336 374.118C227.689 373.412 228.393 372.706 228.746 372C228.393 372 227.689 372 227.336 372H225.926V368.471L230.861 369.882Z" fill="#302F2E"></path> <path d="M230.508 378C233.328 376.235 235.443 378 235.443 380.471C235.443 383.647 233.68 386.471 231.213 387.882C230.861 388.235 230.156 388.235 230.156 388.588V381.882C228.746 382.941 228.393 384.353 228.393 386.118C228.393 386.824 228.746 387.529 229.098 388.235L227.336 390.353C226.631 389.647 226.279 388.235 226.279 386.824C225.926 383.294 227.688 379.765 230.508 378ZM231.565 385.059C232.623 384.353 233.328 383.647 233.328 382.235C233.328 381.176 232.623 380.471 231.565 381.176V385.059Z" fill="#302F2E"></path> <path d="M226.984 391.765L228.746 392.471C228.041 393.882 227.689 394.941 227.689 396C227.689 397.059 228.041 397.412 228.393 397.059C229.098 396.706 229.098 395.294 229.803 393.882C230.156 392.118 230.861 390.353 232.623 389.294C234.385 388.235 235.443 389.294 235.443 392.118C235.443 393.882 234.738 395.647 234.385 396.706L232.623 396C232.975 394.941 233.328 393.882 233.328 393.176C233.328 392.471 232.975 392.118 232.623 392.471C231.918 392.824 231.918 393.882 231.566 395.294C231.213 397.059 230.508 399.176 228.746 399.882C226.984 400.941 225.926 399.882 225.926 396.706C225.926 395.294 226.279 393.529 226.984 391.765Z" fill="#302F2E"></path> <path d="M215.352 165.529L197.729 155.294C197.729 155.294 197.729 133.412 197.729 126.353C197.729 108.706 203.721 99.5294 203.721 99.5294L221.344 109.765C221.344 109.765 215.352 122.118 215.352 144.706C215.352 150 215.352 165.529 215.352 165.529Z" fill="#FFE25B"></path> <path d="M93.049 102.706L78.5981 94.2353V42.7059L93.049 51.1765V102.706Z" fill="#B6C9F2"></path> <path d="M126.18 139.765L111.729 131.294C111.729 131.294 111.729 106.941 111.729 99.1765C111.729 94.2353 113.844 85.0588 113.844 85.0588L128.295 93.5294C128.295 93.5294 126.18 102 126.18 106.588C126.18 114.706 126.18 139.765 126.18 139.765Z" fill="#FFB83B"></path> <path d="M430.705 284.471C430.352 282.706 429.647 280.941 428.942 278.823C424.36 281.294 419.778 283.765 419.778 283.765C417.664 283.765 416.254 282.353 413.787 282.706C408.852 283.059 408.5 283.059 407.09 283.765C405.68 284.118 406.033 286.235 407.442 286.588C408.5 286.588 410.967 285.529 412.729 287.647C413.434 288.353 410.262 289.765 406.738 291.176C403.213 292.588 398.631 293.294 397.221 294C395.811 295.059 398.631 299.647 405.68 300C412.729 300 416.606 298.588 419.426 296.471C421.541 295.059 422.598 292.235 424.713 290.471C425.77 290.118 428.59 289.412 431.41 288.706C431.057 286.941 431.057 285.529 430.705 284.471Z" fill="#FFC9B6"></path> <path d="M465.598 218.471C465.598 218.471 459.606 221.647 456.434 225.882C453.262 230.118 451.5 241.765 451.147 244.588C450.795 247.412 446.565 267.529 446.565 267.529C446.565 267.529 440.221 271.765 436.696 273.529C433.172 274.941 421.893 281.294 421.893 281.294C421.893 281.294 423.655 285.176 424.713 287.647C425.77 290.118 426.123 292.235 426.123 292.235C426.123 292.235 455.377 287.294 458.901 283.412C462.426 279.882 476.172 226.235 476.172 226.235L465.598 218.471Z" fill="#E0D7DC"></path> <path d="M455.729 284.823C455.729 284.823 446.213 309.529 444.45 319.412C443.041 329.294 439.868 344.471 438.106 357.176C436.344 369.882 436.344 381.882 437.049 394.235C437.401 399.176 439.164 411.882 438.106 418.941C439.164 423.529 449.737 423.882 451.147 418.941C451.852 415.765 459.959 386.824 461.016 378C461.721 368.824 459.606 362.471 459.606 362.471C459.606 362.471 472.647 334.235 477.582 322.941C482.164 311.647 478.991 297.882 478.991 297.882L455.729 284.823Z" fill="#1F1B1A"></path> <path d="M451.147 417.882C451.147 417.882 451.5 420.706 452.557 423.882C453.615 427.059 452.205 431.294 452.205 431.294C452.205 431.294 451.5 433.059 448.68 433.765C445.86 434.118 443.746 433.765 443.746 433.765C443.746 433.765 441.278 436.941 437.754 439.412C434.229 441.882 426.828 443.647 424.713 443.294C421.541 442.941 419.426 440.118 419.779 438.353C420.131 436.588 424.008 432 427.18 429.882C429.295 428.471 433.877 424.235 435.639 422.471C438.106 420 439.869 417.176 439.869 417.176L451.147 417.882Z" fill="#1F1B1A"></path> <path d="M500.844 443.294C500.844 443.294 502.606 450 502.254 453.882C501.901 457.765 501.197 458.471 499.787 459.882C498.729 461.294 497.319 460.588 497.319 460.588C497.319 460.588 496.615 468.353 493.09 471.882C489.213 475.059 482.516 475.412 479.344 474.353C476.172 473.294 478.287 467.647 481.459 462C484.631 456.353 488.508 450.353 489.213 445.412C496.967 444 500.844 443.294 500.844 443.294Z" fill="#1F1B1A"></path> <path d="M490.27 295.059C490.27 295.059 494.852 301.765 498.729 313.412C501.549 321.882 500.844 341.647 500.844 341.647C500.844 341.647 501.549 361.412 500.139 368.118C498.729 374.824 499.082 376.235 499.082 376.235C499.082 376.235 504.369 392.471 503.664 411.529C502.959 430.588 501.196 444.353 501.196 444.353C501.196 444.353 500.139 447.882 495.205 448.588C490.623 448.941 487.451 445.765 487.451 445.765C487.451 445.765 479.344 405.176 476.172 395.647C473 386.471 471.942 375.529 471.942 375.529L465.598 330C465.598 330 453.262 321.882 459.606 301.765C464.188 289.765 490.27 295.059 490.27 295.059Z" fill="#302F2E"></path> <path d="M506.484 243.176C500.492 231.176 482.164 222.353 468.77 224.118C462.426 229.059 459.607 232.588 457.139 238.588C455.025 244.235 454.32 250.588 455.025 256.235C457.139 273.529 452.91 290.118 451.5 296.824C458.549 304.235 467.713 308.824 477.934 310.588C483.574 311.647 487.451 309.529 493.09 307.412C493.795 307.059 494.148 306.706 494.5 305.647C496.262 291.882 501.197 280.235 505.779 267.176C508.246 260.471 509.656 250.235 506.484 243.176Z" fill="#EFE8EB"></path> <path d="M472.647 216.706C472.647 216.706 474.057 225.176 470.885 228C467.713 230.823 467.713 236.823 474.057 238.941C481.459 241.412 486.746 236.118 491.327 232.235C489.213 228 488.508 228 488.508 216C488.155 206.471 472.647 216.706 472.647 216.706Z" fill="#F9BBA7"></path> <path d="M513.532 251.647C510.36 241.765 502.606 237.529 502.606 237.529C502.606 237.529 491.328 243.882 492.385 266.118C494.147 274.588 495.205 285.882 493.442 291.529C490.623 293.294 473.705 303.882 469.475 309.176C476.524 311.647 476.524 320.118 476.524 320.118C476.524 320.118 489.918 318.353 498.377 313.059C501.901 310.941 506.131 307.412 508.951 303.176C511.065 300 512.828 296.824 513.885 292.588C517.057 284.824 516.705 260.824 513.532 251.647Z" fill="#E0D7DC"></path> <path d="M488.508 224.118C488.508 224.118 487.098 229.059 483.221 232.235C478.639 235.765 469.828 236.471 469.828 238.588C472.295 238.588 473 238.588 473 240.706C473 244.235 474.057 244.941 474.057 244.941C474.057 244.941 480.401 243.176 484.983 241.412C490.623 238.941 493.09 231.176 493.09 231.176C493.09 231.176 491.68 223.765 488.508 224.118Z" fill="#E0D7DC"></path> <path d="M469.828 224.118C469.828 224.118 466.303 228 464.541 230.118C463.131 231.882 463.836 235.412 463.131 236.824C462.426 238.235 462.074 239.294 462.074 239.294C462.074 239.294 465.246 238.588 465.951 236.824C466.656 235.059 469.828 238.235 469.828 238.235L472.295 236.471C472.295 236.471 468.77 234.353 469.828 231.882C470.885 229.412 473 226.235 473 226.235L469.828 224.118Z" fill="#E0D7DC"></path> <path d="M486.041 195.882C481.459 190.941 469.123 188.824 464.893 196.235C461.721 201.882 461.369 211.765 462.426 216.353C464.188 225.882 472.295 231.882 481.459 224.471C489.918 217.412 493.795 204.706 486.041 195.882Z" fill="#FFC9B6"></path> <path d="M499.787 198C498.729 195.176 494.147 192 490.975 192.353C490.975 191.647 490.975 190.941 490.623 190.235C489.918 188.824 487.803 188.824 486.041 188.824C486.041 187.412 485.336 185.647 484.278 184.941C482.869 183.882 480.754 184.235 479.344 185.294C479.344 183.882 478.639 182.471 477.582 181.765C475.115 179.647 471.59 180.706 469.123 182.471C463.483 185.647 459.959 192.353 460.311 198.706C460.664 204 461.721 206.118 469.475 204C472.647 209.647 481.459 210.353 483.926 208.941C483.926 212.824 487.803 223.412 488.156 222C489.565 214.941 502.959 205.765 499.787 198Z" fill="#1F1B1A"></path> <path d="M481.106 213.176C481.106 213.176 483.926 209.294 486.041 212.118C488.508 215.294 483.574 218.118 483.574 218.118L481.106 213.176Z" fill="#FFC9B6"></path> <path d="M416.254 272.118L400.393 280.941C400.393 280.941 409.909 294.353 431.409 312.706C452.909 331.059 460.311 333.882 460.311 333.882L476.524 325.412C476.524 325.412 468.77 322.588 447.27 304.235C425.77 285.529 416.254 272.118 416.254 272.118Z" fill="#FFE25B"></path> <path d="M469.828 309.529C468.065 309.882 461.369 310.941 458.549 311.647C455.377 312.353 451.147 313.412 446.918 318.706C444.451 321.882 449.385 329.647 457.492 326.824C465.951 324 474.41 322.941 477.229 320.471C479.696 318.353 475.467 308.824 469.828 309.529Z" fill="#FFC9B6"></path> <path d="M328.139 332.823C327.434 332.118 326.729 331.765 326.729 331.765L309.459 341.647C309.459 341.647 327.434 358.588 339.418 381.882C346.82 396 353.516 431.647 353.516 431.647L370.787 421.765C370.787 421.765 370.787 421.059 370.787 420C369.377 412.941 363.738 384 357.041 371.647C346.82 352.235 332.369 337.059 328.139 332.823Z" fill="#8DA3FF"></path> <path d="M363.738 372.353C363.738 370.588 357.746 362.471 354.221 361.765C352.107 361.412 349.639 361.412 346.82 360.706C344.353 360.353 344.352 361.765 346.115 363.176C348.23 365.294 352.812 366 352.812 366C352.812 366 351.402 368.118 354.574 372.706C357.746 377.294 363.738 373.765 363.738 372.353Z" fill="#FFC9B6"></path> <path d="M405.68 435.529C419.074 421.412 406.385 406.588 400.041 402C396.516 406.235 376.426 414.353 376.426 415.059C373.959 425.294 376.074 436.235 379.246 446.118C381.008 452.471 382.77 463.059 387.352 480C385.238 488.471 387.705 501.529 388.41 511.059C389.115 517.765 391.582 535.412 391.934 536.823C390.877 536.471 388.762 534.706 385.942 533.647C383.475 532.941 380.303 532.588 378.541 533.294C373.959 535.059 372.549 536.823 373.959 539.647C375.721 543.882 381.361 545.294 385.59 546C391.582 547.412 395.106 556.941 401.803 550.235C403.565 548.471 402.156 543.882 401.451 541.412C401.451 539.647 401.098 524.823 402.861 513.882C404.975 500.471 406.385 485.294 398.279 477.176C407.09 454.941 406.738 442.588 405.68 435.529Z" fill="#F9BBA7"></path> <path d="M401.451 541.059C401.451 541.059 397.574 542.471 395.107 543.176C392.639 543.882 386.648 544.235 382.066 540C380.303 538.235 378.893 536.118 379.598 535.059C380.656 532.941 385.59 534 385.59 534C385.59 534 377.131 528 372.197 531.882C370.082 533.647 369.377 537.176 373.254 541.059C375.369 543.529 382.066 547.412 387.705 550.588C391.23 552.706 397.221 556.588 401.451 552.353C405.68 548.471 401.451 541.059 401.451 541.059Z" fill="#B6C9F2"></path> <path d="M391.582 445.765C404.975 431.647 392.286 416.824 385.942 412.235C382.418 416.471 362.327 424.588 362.327 425.294C359.86 435.529 361.975 446.471 365.147 456.353C366.909 462.706 368.672 473.294 373.254 490.235C371.139 498.706 373.606 511.765 374.311 521.294C375.016 528 377.483 545.647 377.836 547.059C376.778 546.706 374.664 544.941 371.844 543.882C369.377 543.176 366.204 542.824 364.442 543.529C359.86 545.294 358.45 547.059 359.86 549.882C361.623 554.118 367.262 555.529 371.491 556.235C377.483 557.647 381.008 567.176 387.705 560.471C389.467 558.706 388.057 554.118 387.352 551.647C387.352 549.882 387 535.059 388.762 524.118C390.877 510.706 392.286 495.529 384.18 487.412C393.344 464.824 392.991 452.471 391.582 445.765Z" fill="#FFC9B6"></path> <path d="M387.352 551.294C387.352 551.294 383.475 552.706 381.008 553.412C378.541 554.118 372.549 554.471 367.967 550.235C366.205 548.471 364.795 546.353 365.5 545.294C366.557 543.176 371.492 544.235 371.492 544.235C371.492 544.235 363.033 538.235 358.098 542.118C355.983 543.882 355.278 547.412 359.156 551.294C361.27 553.765 367.967 557.647 373.606 560.824C377.131 562.941 383.123 566.824 387.352 562.588C391.582 558.353 387.352 551.294 387.352 551.294Z" fill="#B6C9F2"></path> <path d="M406.738 341.294C400.746 339.176 393.697 342.706 393.344 348.706C390.172 354.353 393.344 362.471 398.279 366C404.271 370.235 413.435 366 415.197 359.294C417.312 352.588 413.787 343.765 406.738 341.294Z" fill="#E0D7DC"></path> <path d="M406.033 351.529C406.033 351.176 405.328 350.471 404.975 350.471C397.926 348.706 396.516 344.824 395.106 338.471C395.106 337.412 393.697 337.059 392.992 337.765C389.467 339.882 385.59 341.647 381.361 342.706C385.238 354.353 378.188 356.824 375.016 361.412C374.311 362.471 382.418 368.471 386.647 367.765C390.524 367.412 394.049 366 397.221 363.882C401.098 362.118 407.09 356.118 406.033 351.529Z" fill="#FFC9B6"></path> <path d="M396.164 324.706C395.459 318.706 390.525 310.588 383.828 311.294C377.131 311.647 372.197 321.882 371.844 326.823C370.787 334.941 371.492 350.118 384.533 345.176C394.402 341.294 397.221 333.529 396.164 324.706Z" fill="#FFC9B6"></path> <path d="M381.008 328.941C381.008 328.941 385.943 325.412 387 330.353C387.705 335.294 383.123 337.059 383.123 337.059L381.008 328.941Z" fill="#FFC9B6"></path> <path d="M409.91 375.529C414.492 361.765 411.672 352.941 407.795 348.353C406.033 346.588 402.508 342.706 398.279 346.588C399.688 352.941 388.762 354.706 381.008 354.706C375.016 358.941 369.729 362.118 366.557 368.118C363.033 374.471 361.27 380.824 369.024 385.412C366.557 392.471 370.434 399.529 368.319 417.176C375.369 422.824 389.115 422.824 396.516 418.235C402.508 414.706 405.68 410.824 405.328 406.235C403.213 402 400.393 400.941 400.746 396C401.098 389.294 408.147 381.529 409.91 375.529Z" fill="#B6C9F2"></path> <path d="M367.615 363.882C364.443 365.647 360.566 368.471 358.098 371.294C354.926 374.824 351.402 378.353 348.582 382.235C344.352 376.941 338.008 374.471 332.721 370.588C330.959 369.529 328.844 367.059 327.787 364.941C326.025 362.118 327.787 362.824 328.492 359.647C329.197 356.118 330.254 353.647 329.902 352.941C328.139 351.529 326.025 354.353 324.615 357.882C323.205 356.118 321.443 352.588 318.271 350.471C314.746 356.118 319.68 365.294 323.557 370.941C328.492 378 336.951 386.118 342.238 392.824C345.057 396.353 346.467 398.118 349.639 396.706C353.869 394.588 356.336 394.235 364.443 388.588C370.434 384.353 374.311 382.941 378.189 376.235C382.77 369.176 371.139 361.765 367.615 363.882Z" fill="#FFC9B6"></path> <path d="M376.426 357.882C367.615 354.706 359.156 365.294 357.041 372.706C354.222 374.824 362.328 387.882 366.205 387.882C373.959 391.765 382.066 388.588 386.295 380.824C390.172 373.059 384.181 360.706 376.426 357.882Z" fill="#E0D7DC"></path> <path d="M356.689 372.706L353.869 375.529C353.869 375.529 352.459 378 355.279 382.941C358.099 387.882 363.033 389.294 363.033 389.294L365.5 387.529C365.5 387.529 360.918 384.706 358.451 380.824C356.336 377.294 356.689 372.706 356.689 372.706Z" fill="white"></path> <path d="M409.91 339.176C409.557 338.824 408.852 338.824 408.5 338.471C409.91 337.059 410.967 335.294 409.557 333.882C408.852 332.824 407.09 332.471 406.033 331.765C405.328 331.412 404.975 331.059 404.27 331.059C406.033 330.353 407.09 329.294 406.738 327.529C406.385 326.471 405.328 326.118 404.623 325.059C403.566 323.647 403.213 322.235 402.861 320.824C402.156 318.353 402.156 315.882 401.098 313.412C399.689 309.176 395.459 307.765 390.877 306.706C385.943 305.647 379.951 305.294 376.426 305.294C371.492 305.294 370.434 302.471 367.615 304.235C365.852 305.294 366.205 307.412 367.262 309.882C366.205 309.882 363.385 309.882 363.385 313.412C363.385 315.882 365.5 317.647 367.615 318.706C364.443 321.176 364.795 324.353 366.91 327.529C369.025 330.353 375.369 332.824 379.598 331.059C379.598 337.765 377.484 342.353 375.369 344.471C373.607 346.235 369.73 348.353 371.492 351.176C372.902 354 377.484 352.941 379.951 352.235C380.656 351.882 381.008 351.882 381.713 351.529C381.008 352.588 380.656 353.647 379.598 354.353C378.893 355.059 379.246 356.118 380.303 356.471C384.18 357.882 388.41 356.118 391.934 353.294C391.582 354.706 391.23 356.118 390.877 357.529C390.525 361.059 392.639 362.824 395.811 361.412C400.746 359.294 402.861 352.941 402.508 346.941C402.861 346.941 403.566 346.941 403.918 346.941C406.033 346.588 409.557 345.529 410.967 343.765C412.025 341.647 411.32 339.882 409.91 339.176Z" fill="#1F1B1A"></path> <path d="M366.91 410.471C363.385 414.706 359.861 421.059 353.517 431.294C348.582 439.059 339.066 461.647 339.066 461.647C339.066 461.647 336.599 470.118 343.648 474.353C350.697 478.588 351.402 479.647 353.869 486.353C356.336 492.353 365.148 494.471 371.492 488.824C379.246 481.412 388.763 495.176 399.336 492.353C405.328 490.588 409.558 480 412.025 478.588C419.426 474.706 421.894 481.412 429.295 475.412C436.697 469.412 440.926 462 440.926 462C440.926 462 420.484 418.941 412.025 411.529C403.566 404.118 399.336 399.529 399.336 399.529C399.336 399.529 373.254 402.353 366.91 410.471Z" fill="#B6C9F2"></path> <path d="M372.197 426.353C362.328 439.059 359.156 458.471 356.336 473.647C355.983 474.706 357.746 475.412 358.098 474C363.738 458.471 367.967 442.235 372.549 426.353C372.901 426.353 372.549 426.353 372.197 426.353Z" fill="#8CA3D8"></path> <path d="M376.779 438C376.779 437.647 376.426 437.647 376.426 438C373.607 451.059 370.787 465.177 370.787 478.588C370.787 479.647 372.197 479.647 372.549 478.941C376.074 465.882 376.779 451.059 376.779 438Z" fill="#8CA3D8"></path> <path d="M395.106 431.294C395.106 430.941 394.402 430.941 394.754 431.294C398.631 445.412 398.983 459.882 402.508 474C402.861 475.412 404.27 474.706 404.623 473.647C405.68 459.882 400.393 444.353 395.106 431.294Z" fill="#8CA3D8"></path> <path d="M410.615 430.235C410.262 429.882 409.558 430.235 409.91 430.941C413.082 435.529 416.254 440.118 418.369 445.412C420.131 450.353 420.836 455.294 422.246 460.235C422.599 461.647 424.713 461.294 424.713 459.882C425.418 448.941 418.722 436.941 410.615 430.235Z" fill="#8CA3D8"></path> <path d="M368.672 403.765L366.91 410.471C366.91 410.471 378.541 418.588 390.877 415.059C403.565 411.176 406.033 405.882 406.033 405.882L401.098 399.882C401.451 399.882 388.057 412.235 368.672 403.765Z" fill="#8CA3D8"></path> </g> <defs> <clipPath id="clip0_152_5660"> <rect width="129" height="141" fill="white" transform="scale(4)"></rect> </clipPath> </defs> </svg> 