<?xml version="1.0" encoding="UTF-8"?> <svg xmlns="http://www.w3.org/2000/svg" width="500" height="584" viewBox="0 0 500 584" fill="none"> <g clip-path="url(#clip0_152_5790)"> <path d="M278.864 416.617L209.224 383.509L85.8276 441.142V454.938L143.555 488.353C158.522 496.937 181.429 497.856 194.563 490.499L270.617 446.354C273.977 444.208 276.42 441.755 277.947 439.303C284.362 427.347 278.864 416.617 278.864 416.617Z" fill="#1F1B1A"></path> <path d="M209.224 369.713L266.952 403.129C281.918 411.712 283.751 425.201 270.617 432.559L194.563 476.703C181.429 484.367 158.522 483.141 143.555 474.557L85.8276 441.142L209.224 369.713Z" fill="#302F2E"></path> <path d="M208.308 327.408C208.613 324.649 145.999 332.313 133.476 346.721C121.258 360.823 122.48 420.909 122.48 420.909C122.48 420.909 161.271 450.033 199.145 423.668C217.166 411.099 212.889 400.063 211.362 391.479C208.308 375.538 207.086 343.349 208.308 327.408Z" fill="#232221"></path> <path d="M151.191 380.443C151.191 380.443 161.271 387.187 171.045 386.268C180.513 385.348 172.266 370.327 172.266 370.327L151.191 380.443Z" fill="#1F1B1A"></path> <path d="M320.403 269.161L0 454.631V185.776L320.403 0V269.161Z" fill="#353433"></path> <path d="M337.813 279.278L17.4099 464.748V195.893L337.813 10.1165V279.278Z" fill="#3F3E3C"></path> <path d="M328.65 243.103L26.573 418.15V202.331L328.65 27.284V243.103Z" fill="#778DFD"></path> <path d="M143.25 143.777L33.5981 207.542V406.194L143.25 342.736V143.777Z" fill="#8DA3FF"></path> <path d="M137.141 155.733L42.1504 210.914V242.49L137.141 187.616V155.733Z" fill="white"></path> <path d="M108.43 213.673L42.1504 251.994V257.818L108.43 219.498V213.673Z" fill="#5E79E6"></path> <path d="M117.288 208.462V214.287L137.141 202.637V197.119L117.288 208.462Z" fill="#778DFD"></path> <path d="M108.43 224.403L42.1504 262.723V268.548L108.43 230.228V224.403Z" fill="#5E79E6"></path> <path d="M117.288 219.192V225.016L137.141 213.673V207.849L117.288 219.192Z" fill="#778DFD"></path> <path d="M108.43 235.439L42.1504 273.76V279.584L108.43 240.957V235.439Z" fill="#5E79E6"></path> <path d="M117.288 230.228V235.746L137.141 224.403V218.578L117.288 230.228Z" fill="#778DFD"></path> <path d="M108.43 246.169L42.1504 284.489V290.314L108.43 251.994V246.169Z" fill="#5E79E6"></path> <path d="M117.288 240.957V246.782L137.141 235.133V229.615L117.288 240.957Z" fill="#778DFD"></path> <path d="M108.43 265.482L42.1504 304.109V309.627L108.43 271.307V265.482Z" fill="#5E79E6"></path> <path d="M117.288 260.271V266.096L137.141 254.753V248.928L117.288 260.271Z" fill="#778DFD"></path> <path d="M108.43 276.519L42.1504 314.839V320.664L108.43 282.037V276.519Z" fill="#5E79E6"></path> <path d="M117.288 271.307V276.825L137.141 265.482V259.658L117.288 271.307Z" fill="#778DFD"></path> <path d="M108.43 286.942L42.1504 325.262V331.087L108.43 292.46V286.942Z" fill="#5E79E6"></path> <path d="M117.288 281.73V287.248L137.141 275.905V270.081L117.288 281.73Z" fill="#778DFD"></path> <path d="M108.43 297.671L42.1504 335.992V341.816L108.43 303.496V297.671Z" fill="#5E79E6"></path> <path d="M80.9409 335.072V340.897L137.141 308.401V302.576L80.9409 335.072Z" fill="#5E79E6"></path> <path d="M96.5181 337.218V343.043L137.141 319.437V313.613L96.5181 337.218Z" fill="#5E79E6"></path> <path d="M153.635 137.953V336.605L320.403 240.038V41.3858L153.635 137.953Z" fill="#8DA3FF"></path> <path d="M307.88 107.297L168.906 187.616V220.418L307.88 139.792V107.297Z" fill="#2C2B29"></path> <path d="M259.01 142.858L174.404 191.601V211.528L259.01 162.478V142.858Z" fill="#494847"></path> <path d="M201.27 374.139C215.408 362.341 222.497 347.5 217.105 340.991C211.713 334.482 195.881 338.769 181.743 350.568C167.605 362.366 160.516 377.207 165.908 383.716C171.3 390.225 187.132 385.937 201.27 374.139Z" fill="#3F3E3C"></path> <path d="M208.613 351.933C208.613 357.757 201.588 366.648 193.036 371.553C184.484 376.458 177.459 375.845 177.459 370.02C177.459 364.195 184.484 355.305 193.036 350.4C201.588 345.495 208.613 346.108 208.613 351.933Z" fill="white"></path> <path d="M17.4099 195.893L0 185.776V454.631L17.4099 464.748V195.893Z" fill="#1F1B1A"></path> <path d="M337.813 10.1165L320.403 0L0 185.776L17.4099 195.893L337.813 10.1165Z" fill="#353433"></path> <path d="M144.166 120.785C102.321 144.697 58.9492 171.675 16.799 195.28C16.4935 195.586 16.1881 254.753 16.799 267.015C16.799 268.241 18.0207 268.241 18.0207 267.015C18.937 255.059 19.5479 207.849 18.6316 196.506C55.8949 175.66 105.07 147.456 145.082 122.012C145.693 121.705 145.082 120.479 144.166 120.785Z" fill="white"></path> <path d="M18.0209 289.394C18.0209 289.088 17.7154 289.394 17.7154 289.394C16.4937 301.657 15.5774 351.32 16.7991 363.582C16.7991 364.502 18.0209 364.502 18.3263 363.582C19.2426 350.707 19.548 300.737 18.0209 289.394Z" fill="white"></path> <path d="M245.571 63.1517C233.659 69.5895 221.442 77.2535 209.835 83.6913C201.283 88.5963 189.982 94.7276 182.346 99.6326C180.513 100.859 181.124 101.472 182.957 100.859C192.12 97.1801 201.588 91.0488 210.446 86.1438C221.442 80.0126 233.659 72.6551 245.571 64.378C246.487 63.7648 246.182 62.8452 245.571 63.1517Z" fill="white"></path> <path d="M31.4601 434.091C29.9329 432.252 29.322 429.799 28.1003 427.654C27.7948 427.347 27.1839 427.347 27.1839 427.654C26.8785 430.106 28.1003 432.865 29.322 435.011C30.5438 436.85 32.6818 439.916 35.1253 439.609C35.4307 439.609 35.7362 439.303 35.7362 438.69C35.1253 437.157 32.6818 435.624 31.4601 434.091Z" fill="#1F1B1A"></path> <path d="M53.1461 431.026C49.1754 428.88 41.5395 430.106 38.4852 433.172C38.1797 433.478 38.4852 433.785 38.7906 433.785C41.2341 434.091 43.6776 433.478 46.1211 433.172C48.2591 433.172 50.7026 433.478 52.8407 433.172C54.0624 432.865 54.0624 431.639 53.1461 431.026Z" fill="#1F1B1A"></path> <path d="M207.086 330.78C206.475 330.78 206.475 331.7 207.086 331.7C208.614 332.926 210.446 333.539 212.279 334.765C213.806 335.992 215.333 337.524 216.86 338.444C217.777 338.751 218.693 338.138 218.387 337.218C217.166 333.233 211.057 330.167 207.086 330.78Z" fill="#1F1B1A"></path> <path d="M171.045 351.933C164.936 354.385 158.827 364.502 161.576 370.94C161.882 371.553 162.798 371.859 163.103 371.246C164.631 368.181 164.631 364.808 165.852 361.743C167.38 358.371 169.518 355.612 171.35 352.546C171.35 352.239 171.045 351.933 171.045 351.933Z" fill="#1F1B1A"></path> <path d="M152.719 374.005C150.58 375.231 149.053 377.377 146.61 378.297C144.472 378.91 142.334 378.604 140.501 379.523C140.196 379.523 140.196 379.83 140.501 380.136C143.861 384.428 153.635 380.136 154.551 375.538C154.551 374.312 153.635 373.392 152.719 374.005Z" fill="#1F1B1A"></path> <path d="M155.773 366.954C154.246 365.728 151.802 366.035 149.664 365.421C147.832 365.115 145.693 363.582 143.861 364.195C143.555 364.195 143.25 364.808 143.25 365.115C143.861 367.261 146.915 368.181 148.748 368.794C150.886 369.407 153.635 370.02 155.467 368.487C156.078 367.874 156.078 367.261 155.773 366.954Z" fill="#1F1B1A"></path> <path d="M302.993 285.102C300.855 287.248 298.717 290.007 296.274 291.847C293.83 293.686 290.47 294.606 288.332 296.752C288.027 297.058 288.332 297.365 288.638 297.365C291.692 298.285 295.663 295.832 298.106 293.993C301.161 291.847 303.299 289.394 304.215 285.715C304.52 285.102 303.604 284.489 302.993 285.102Z" fill="#1F1B1A"></path> <path d="M322.541 260.884C321.32 263.03 320.403 265.176 319.181 267.322C317.96 269.468 315.822 271.001 314.905 273.146C314.6 274.066 315.211 274.986 316.127 274.679C320.709 273.146 324.374 265.789 323.763 261.191C323.763 260.577 323.152 260.271 322.541 260.884Z" fill="#1F1B1A"></path> <path d="M332.315 272.227C331.399 270.694 328.345 271.92 327.123 272.227C324.985 273.146 322.847 274.066 321.32 275.905C320.709 276.825 321.625 277.438 322.541 277.438C324.069 277.438 333.537 274.066 332.315 272.227Z" fill="#1F1B1A"></path> <path d="M166.463 470.572C163.409 470.266 160.354 470.266 157.3 469.346C154.551 468.733 152.413 466.894 149.664 466.28C149.359 466.28 149.053 466.587 149.053 466.894C151.497 473.025 161.271 474.558 166.769 471.798C167.685 471.798 167.074 470.572 166.463 470.572Z" fill="#1F1B1A"></path> <path d="M181.43 468.426C177.764 465.054 171.045 464.441 166.463 465.667C166.158 465.667 166.158 466.28 166.463 466.28C168.907 466.893 171.045 467.2 173.488 467.813C175.932 468.426 178.07 469.653 180.208 470.266C181.43 470.572 182.346 469.346 181.43 468.426Z" fill="#1F1B1A"></path> <path d="M265.425 414.165C264.203 412.019 261.454 410.18 259.316 408.953C257.178 407.727 254.734 406.501 251.985 406.501C251.68 406.501 251.375 407.114 251.68 407.421C253.207 409.26 255.651 410.486 257.483 411.712C259.621 413.245 261.454 415.085 263.592 416.004C265.119 416.617 265.73 415.085 265.425 414.165Z" fill="#1F1B1A"></path> <path d="M269.701 416.617C269.395 416.004 268.785 416.311 268.479 416.617C267.563 418.457 267.563 420.296 266.036 422.135C265.425 422.749 264.508 423.668 263.898 424.281C262.981 424.894 262.065 425.201 261.149 425.814C260.232 426.427 260.843 427.654 261.759 427.96C266.646 428.573 272.144 420.909 269.701 416.617Z" fill="#1F1B1A"></path> <path d="M180.513 196.506L250.764 155.733C250.764 155.733 256.567 259.658 257.178 284.796C257.789 309.627 244.655 350.093 230.91 353.159C217.166 356.225 209.224 340.59 206.17 335.072C203.116 329.554 199.756 295.832 199.756 284.796C199.756 273.76 199.145 245.556 198.534 235.439C197.923 225.016 196.396 215.513 191.203 209.688C186.316 203.557 180.513 196.506 180.513 196.506Z" fill="#FAFAFA"></path> <path d="M337.508 68.3633L245.877 121.705C244.044 148.376 244.044 185.163 243.739 194.36C243.433 206.623 248.32 274.986 247.404 290.007C246.488 305.029 243.433 330.473 240.99 337.524C238.546 344.882 233.048 354.079 233.048 354.079L320.403 304.109L323.152 302.576C334.453 296.139 338.729 267.628 338.729 201.104C338.729 188.229 338.119 173.207 337.813 157.266C336.897 128.449 335.675 95.3407 337.508 68.3633Z" fill="#FAFAFA"></path> <path d="M346.671 26.0577C345.449 26.0577 343.922 26.3643 342.7 26.3643C340.868 30.043 339.646 33.1087 339.646 33.1087C339.646 33.1087 269.395 63.4583 263.592 68.0567C257.789 72.6551 252.902 79.3995 248.32 100.859C247.709 103.924 247.098 107.91 246.793 112.508C246.488 115.267 246.182 118.333 245.877 121.705L337.813 68.3632C339.035 50.2761 341.478 35.2546 346.671 26.0577Z" fill="#EFE8EB"></path> <path d="M372.022 17.474C364.386 12.8756 357.361 12.2625 351.863 15.3281H351.558L261.454 67.137L281.918 68.9764L368.662 19.3134C369.273 19.6199 369.884 19.9265 370.495 20.2331L372.022 17.474Z" fill="#EFE8EB"></path> <path d="M227.55 355.918C225.107 355.918 222.358 354.998 219.609 353.466C197.618 340.59 197.618 301.044 197.618 246.169C197.618 210.914 180.513 200.798 180.513 200.798V196.813C182.04 197.426 182.957 198.345 183.873 199.265C188.76 202.944 200.977 215.513 200.977 246.476C200.977 300.124 200.977 339.057 221.442 350.707C225.412 352.852 228.467 353.159 230.91 351.626C243.128 344.575 244.96 297.978 244.96 253.22C244.96 240.344 244.349 225.323 244.044 209.688C242.211 148.989 239.768 80.3192 261.454 67.4436C266.952 64.0714 273.977 64.6845 281.918 69.2829L280.086 72.3486C273.061 68.3633 267.563 67.7501 262.981 70.5092C243.433 82.4651 245.571 152.974 247.404 209.688C248.015 225.629 248.32 240.651 248.32 253.527C248.32 320.05 244.044 348.561 232.743 354.998C231.216 355.305 229.383 355.918 227.55 355.918Z" fill="#E0D7DC"></path> <path d="M370.495 20.2331L372.022 17.474L281.918 68.9764L280.086 72.042L370.495 20.2331Z" fill="#CCBABA"></path> <path d="M266.952 289.394C266.952 291.54 266.646 293.38 266.646 295.525L323.763 262.11C324.068 260.271 324.068 258.125 324.068 255.979L266.952 289.394Z" fill="#CCBABA"></path> <path d="M266.035 130.289C266.035 132.128 266.035 134.274 266.035 136.113L323.458 102.698C323.458 100.859 323.458 98.7128 323.458 96.8735L266.035 130.289Z" fill="#CCBABA"></path> <path d="M265.73 150.522C265.73 152.361 265.73 154.201 265.73 156.346L323.458 122.625C323.458 120.785 323.458 118.946 323.458 116.8L265.73 150.522Z" fill="#CCBABA"></path> <path d="M266.035 170.142C266.035 171.981 266.035 173.82 266.035 175.966L323.763 142.551C323.763 140.712 323.763 138.872 323.763 137.033L266.035 170.142Z" fill="#CCBABA"></path> <path d="M266.646 189.762C266.646 191.601 266.646 193.44 266.952 195.28L324.679 161.865C324.679 160.025 324.679 158.186 324.374 156.04L266.646 189.762Z" fill="#CCBABA"></path> <path d="M267.257 209.382C267.257 211.221 267.257 213.06 267.563 214.9L325.29 181.484C325.29 179.645 325.29 177.806 324.985 175.966L267.257 209.382Z" fill="#CCBABA"></path> <path d="M267.868 229.002C267.868 230.841 267.868 232.987 267.868 234.826L325.595 201.411C325.595 199.572 325.595 197.732 325.595 195.893L267.868 229.002Z" fill="#CCBABA"></path> <path d="M267.868 248.928C267.868 250.767 267.868 252.913 267.868 254.753L325.29 221.338C325.29 219.498 325.29 217.659 325.29 215.513L267.868 248.928Z" fill="#CCBABA"></path> <path d="M267.563 268.855C267.563 270.694 267.563 272.84 267.257 274.679L324.679 241.264C324.679 239.425 324.679 237.279 324.985 235.439L267.563 268.855Z" fill="#CCBABA"></path> <path d="M265.119 310.24C264.814 312.386 264.508 314.532 264.203 316.678L321.32 283.57C321.625 281.424 321.93 279.584 322.236 277.132L265.119 310.24Z" fill="#CCBABA"></path> <path d="M320.709 298.284L315.211 301.35L306.964 305.949L302.688 308.401L259.621 333.539C257.483 338.444 255.04 341.816 252.291 343.656C255.345 341.816 313.378 308.401 313.378 308.401C316.127 306.562 318.876 303.496 320.709 298.284Z" fill="#CCBABA"></path> <path d="M346.671 326.795C346.365 325.262 345.755 323.729 345.144 321.89C341.173 324.036 337.202 326.182 337.202 326.182C335.37 326.182 334.148 324.955 332.01 325.262C327.734 325.569 327.428 325.569 326.207 326.182C324.985 326.488 325.29 328.328 326.512 328.634C327.428 328.634 329.566 327.714 331.094 329.554C331.704 330.167 328.955 331.393 325.901 332.619C322.847 333.846 318.876 334.459 317.654 335.072C316.433 335.992 318.876 339.977 324.985 340.283C331.094 340.283 334.453 339.057 336.897 337.218C338.729 335.992 339.646 333.539 341.478 332.006C342.395 331.7 344.838 331.087 347.282 330.473C347.282 328.941 346.976 327.714 346.671 326.795Z" fill="#FFC9B6"></path> <path d="M377.214 269.468C377.214 269.468 372.022 272.227 369.273 275.906C366.524 279.584 364.997 289.701 364.692 292.153C364.386 294.606 360.721 312.08 360.721 312.08C360.721 312.08 355.223 315.759 352.169 317.291C349.114 318.518 339.34 324.036 339.34 324.036C339.34 324.036 340.868 327.408 341.784 329.554C342.7 331.7 343.006 333.539 343.006 333.539C343.006 333.539 368.357 329.247 371.411 325.875C374.466 322.809 386.378 276.212 386.378 276.212L377.214 269.468Z" fill="#E0D7DC"></path> <path d="M368.662 327.101C368.662 327.101 360.416 348.561 358.888 357.144C357.667 365.728 354.918 378.91 353.39 389.946C351.863 400.983 351.863 411.406 352.474 422.135C352.78 426.427 354.307 437.464 353.39 443.595C354.307 447.58 363.47 447.887 364.692 443.595C365.303 440.836 372.328 415.698 373.244 408.034C373.855 400.063 372.022 394.545 372.022 394.545C372.022 394.545 383.323 370.02 387.599 360.21C391.57 350.4 388.821 338.444 388.821 338.444L368.662 327.101Z" fill="#1F1B1A"></path> <path d="M364.692 442.675C364.692 442.675 364.997 445.128 365.913 447.887C366.83 450.646 365.608 454.324 365.608 454.324C365.608 454.324 364.997 455.857 362.554 456.47C360.11 456.777 358.278 456.47 358.278 456.47C358.278 456.47 356.139 459.229 353.085 461.375C350.031 463.521 343.617 465.054 341.784 464.748C339.035 464.441 337.202 461.988 337.508 460.456C337.813 458.923 341.173 454.938 343.922 453.098C345.755 451.872 349.725 448.193 351.252 446.66C353.391 444.514 354.918 442.062 354.918 442.062L364.692 442.675Z" fill="#1F1B1A"></path> <path d="M407.758 464.748C407.758 464.748 409.285 470.572 408.98 473.944C408.674 477.317 408.063 477.93 406.842 479.156C405.925 480.382 404.704 479.769 404.704 479.769C404.704 479.769 404.093 486.513 401.038 489.579C397.679 492.338 391.875 492.645 389.126 491.725C386.377 490.805 388.21 485.9 390.959 480.995C393.708 476.09 397.068 470.879 397.679 466.587C404.398 465.361 407.758 464.748 407.758 464.748Z" fill="#1F1B1A"></path> <path d="M398.595 335.992C398.595 335.992 402.566 341.816 405.925 351.933C408.369 359.29 407.758 376.458 407.758 376.458C407.758 376.458 408.369 393.625 407.147 399.45C405.926 405.275 406.231 406.501 406.231 406.501C406.231 406.501 410.812 420.603 410.202 437.157C409.591 453.711 408.064 465.667 408.064 465.667C408.064 465.667 407.147 468.733 402.871 469.346C398.9 469.653 396.152 466.893 396.152 466.893C396.152 466.893 389.126 431.639 386.378 423.362C383.629 415.085 382.712 405.888 382.712 405.888L377.214 366.341C377.214 366.341 366.524 359.29 372.022 341.816C375.687 331.393 398.595 335.992 398.595 335.992Z" fill="#302F2E"></path> <path d="M410.813 290.927C405.62 280.504 391.265 272.84 379.963 274.373C374.466 278.665 372.022 281.73 369.884 286.942C368.051 291.54 367.441 297.365 368.051 302.27C369.884 317.291 366.219 331.7 364.997 337.524C371.106 343.962 379.047 347.948 387.905 349.48C392.792 350.4 396.152 348.561 401.039 346.721C401.649 346.415 401.955 346.108 402.26 345.188C403.788 333.233 408.064 323.116 412.034 311.773C413.867 305.949 413.867 297.058 410.813 290.927Z" fill="#EFE8EB"></path> <path d="M424.252 335.378L412.34 356.531L382.102 339.364L393.708 317.904L396.152 319.131L424.252 335.378Z" fill="#778DFD"></path> <path d="M426.39 336.605L414.783 357.758L384.24 340.59L396.152 319.131L426.39 336.605Z" fill="#8DA3FF"></path> <path d="M394.319 318.211L382.712 339.057L383.934 339.67L395.541 318.824L394.319 318.211Z" fill="white"></path> <path d="M394.319 319.131L390.654 325.875L386.072 323.423L389.737 316.678L394.319 319.131Z" fill="#E0D7DC"></path> <path d="M392.181 324.036L381.491 324.649L386.072 335.378L392.181 324.036Z" fill="white"></path> <path d="M383.018 267.935C383.018 267.935 384.24 275.292 381.491 277.745C378.742 280.197 378.742 285.409 384.24 287.248C390.654 289.394 395.235 284.796 399.206 281.424C397.373 277.745 396.763 277.745 396.763 267.322C396.457 258.738 383.018 267.935 383.018 267.935Z" fill="#F9BBA7"></path> <path d="M400.122 345.188C400.122 345.188 396.762 345.188 394.624 346.415C393.403 345.495 390.959 344.269 390.959 344.269C390.959 344.269 389.126 349.48 392.486 352.853C395.846 356.531 399.817 354.385 402.566 352.239C404.704 350.093 400.122 345.188 400.122 345.188Z" fill="#FFC9B6"></path> <path d="M406.842 285.409C406.842 285.409 412.645 287.555 416.921 295.525C420.892 303.189 426.084 318.211 427.611 324.649C429.444 332.926 429.139 335.992 427.917 338.138C425.473 342.123 421.808 344.882 417.532 347.948C410.202 352.546 403.177 353.772 403.177 353.772C403.177 353.772 397.984 352.853 397.984 344.269C399.206 343.043 401.649 343.043 405.315 339.67C410.202 335.378 413.867 331.393 413.867 331.393C413.867 331.393 408.064 323.116 402.566 314.226C394.624 296.445 406.842 285.409 406.842 285.409Z" fill="#E0D7DC"></path> <path d="M396.762 274.066C396.762 274.066 395.541 278.358 392.181 281.117C388.21 284.183 380.574 284.796 380.574 286.635C382.712 286.635 383.323 286.635 383.323 288.475C383.323 291.54 384.239 292.153 384.239 292.153C384.239 292.153 389.737 290.62 393.708 289.088C398.595 286.942 400.733 280.197 400.733 280.197C400.733 280.197 399.817 274.066 396.762 274.066Z" fill="#E0D7DC"></path> <path d="M380.574 274.373C380.574 274.373 377.52 277.745 375.993 279.584C374.771 281.117 375.382 284.183 374.771 285.409C374.16 286.635 373.855 287.555 373.855 287.555C373.855 287.555 376.604 286.942 377.215 285.409C377.825 283.876 380.574 286.635 380.574 286.635L382.712 285.102C382.712 285.102 379.658 283.263 380.574 281.117C381.491 278.971 383.323 276.212 383.323 276.212L380.574 274.373Z" fill="#E0D7DC"></path> <path d="M394.624 249.848C390.654 245.556 379.963 243.717 376.298 250.154C373.549 255.059 373.244 263.643 374.16 267.628C375.687 275.905 382.712 281.117 390.654 274.679C398.29 268.548 401.649 257.512 394.624 249.848Z" fill="#FFC9B6"></path> <path d="M403.482 257.818C404.093 253.526 401.955 250.461 397.984 250.461C398.29 247.089 396.457 244.023 393.403 242.49C388.516 240.038 382.407 241.877 377.52 243.103C375.993 242.49 372.327 240.344 372.022 242.184C371.717 243.41 372.327 244.943 373.244 245.862C371.717 245.556 368.968 244.33 367.746 245.249C364.692 247.702 369.884 251.687 372.633 252.913C374.466 253.833 376.909 254.446 379.047 254.446C378.742 254.753 378.742 255.059 378.436 255.366C378.131 255.979 378.436 256.592 378.742 256.899C380.88 258.125 384.545 258.738 386.683 257.512C386.683 259.658 387.294 261.804 389.126 263.03C389.737 263.643 391.57 264.256 392.792 264.256C393.097 266.096 394.93 269.468 396.457 270.387C398.595 268.241 403.177 261.191 403.482 257.818Z" fill="#1F1B1A"></path> <path d="M390.654 264.869C390.654 264.869 393.097 261.497 394.93 263.95C397.068 266.709 392.792 269.161 392.792 269.161L390.654 264.869Z" fill="#FFC9B6"></path> <path d="M421.808 402.209C417.532 387.187 402.26 376.764 394.624 377.684C390.653 379.523 374.16 389.333 369.884 392.399C377.52 391.479 392.792 401.902 397.068 416.924C401.344 431.945 399.817 449.726 397.984 456.47C404.398 453.098 420.586 444.514 422.724 441.755C424.557 435.011 426.084 417.23 421.808 402.209Z" fill="#EFE8EB"></path> <path d="M397.678 379.83C392.791 381.976 386.072 386.268 380.879 389.946C380.574 390.253 380.879 390.866 381.185 390.56C386.683 387.187 390.959 384.735 397.678 380.443C398.289 380.443 397.984 379.83 397.678 379.83Z" fill="#CCBABA"></path> <path d="M402.871 382.282C397.984 384.428 391.264 388.72 386.072 392.399C385.766 392.706 386.072 393.319 386.377 393.012C391.875 389.64 396.151 387.187 402.871 382.896C403.787 382.896 403.482 382.282 402.871 382.282Z" fill="#CCBABA"></path> <path d="M407.452 386.268C402.565 388.414 395.846 392.706 390.653 396.384C390.348 396.691 390.653 397.304 390.959 396.997C396.457 393.625 400.733 391.173 407.452 386.881C408.063 386.574 407.758 385.961 407.452 386.268Z" fill="#CCBABA"></path> <path d="M416.615 399.45C411.728 401.596 405.009 405.888 399.816 409.566C399.511 409.873 399.816 410.486 400.122 410.18C405.62 406.807 409.896 404.355 416.615 400.063C417.226 399.756 416.921 399.143 416.615 399.45Z" fill="#CCBABA"></path> <path d="M410.812 389.946C405.925 392.092 399.206 396.384 394.013 400.063C393.708 400.37 394.013 400.983 394.319 400.676C399.817 397.304 404.093 394.851 410.812 390.56C411.729 390.253 411.118 389.64 410.812 389.946Z" fill="#CCBABA"></path> <path d="M413.866 394.238C408.979 396.384 402.26 400.676 397.067 404.355C396.762 404.661 397.067 405.275 397.373 404.968C402.871 401.596 407.147 399.143 413.866 394.852C414.477 394.852 414.172 394.238 413.866 394.238Z" fill="#CCBABA"></path> <path d="M421.502 408.953C416.615 411.099 409.896 415.391 404.703 419.07C404.398 419.376 404.703 419.989 405.009 419.683C410.507 416.311 414.783 413.858 421.502 409.566C422.419 409.566 422.113 408.953 421.502 408.953Z" fill="#CCBABA"></path> <path d="M418.754 404.048C413.867 406.194 407.147 410.486 401.955 414.165C401.649 414.471 401.955 415.085 402.26 414.778C407.758 411.406 412.034 408.953 418.754 404.661C419.67 404.661 419.365 404.048 418.754 404.048Z" fill="#CCBABA"></path> <path d="M420.892 437.464C416.005 439.609 409.285 443.901 404.093 447.58C403.787 447.887 404.093 448.5 404.398 448.193C409.896 444.821 414.172 442.369 420.892 438.077C421.502 438.077 421.197 437.464 420.892 437.464Z" fill="#CCBABA"></path> <path d="M420.892 431.332C416.005 433.478 409.285 437.77 404.093 441.449C403.787 441.755 404.093 442.369 404.398 442.062C409.896 438.69 414.172 436.237 420.892 431.945C421.502 431.639 421.197 431.026 420.892 431.332Z" fill="#CCBABA"></path> <path d="M430.36 405.275C430.36 403.742 425.168 396.691 422.113 396.078C420.281 395.771 418.143 395.771 415.699 395.158C413.561 394.851 413.561 396.078 415.088 397.304C416.921 399.143 420.892 399.756 420.892 399.756C420.892 399.756 419.67 401.596 422.419 405.581C425.168 409.873 430.36 406.807 430.36 405.275Z" fill="#FFC9B6"></path> <path d="M456.017 553.65C456.323 548.745 456.628 543.227 457.85 537.096C459.988 526.673 462.126 511.345 455.406 504.601C463.042 484.981 460.293 473.944 459.377 468.12C470.983 455.857 459.988 442.982 454.49 438.996C451.436 442.675 434.026 449.726 434.026 450.339C431.888 459.229 433.72 468.733 436.469 477.317C437.996 482.835 439.524 492.032 443.494 506.746C441.662 514.104 443.8 525.447 444.411 533.724C445.021 539.549 444.716 546.293 445.938 552.424C447.159 553.957 450.214 555.796 456.017 553.65Z" fill="#1F1B1A"></path> <path d="M435.858 553.037C431.888 554.57 430.666 556.103 431.888 558.555C433.415 562.234 437.385 564.687 441.051 565.3C446.243 566.526 450.214 573.884 456.017 567.752C457.544 566.219 456.323 562.234 455.712 560.088C455.712 558.555 456.017 555.183 456.322 553.65C450.825 555.796 447.465 553.957 445.938 552.118C446.243 553.344 446.549 554.877 446.854 556.103C444.411 555.49 438.302 551.811 435.858 553.037Z" fill="#FFB9A4"></path> <path d="M455.406 559.475C455.406 559.475 452.046 560.701 449.908 561.314C447.77 561.928 442.578 562.234 438.607 558.555C435.553 555.49 440.134 553.65 440.134 553.65C440.134 553.65 435.858 548.745 430.971 550.891C428.833 551.811 427.306 557.023 428.528 559.169C430.055 561.621 432.804 564.074 434.942 564.687C437.08 565.3 441.661 566.833 443.189 567.752C446.243 569.592 451.435 572.964 455.101 569.285C459.071 565.913 455.406 559.475 455.406 559.475Z" fill="#302F2E"></path> <path d="M459.377 386.268C454.184 384.428 448.076 387.494 447.77 392.706C445.021 397.611 447.77 404.661 452.046 407.727C457.239 411.406 465.18 407.727 466.707 401.902C468.54 396.078 465.485 388.414 459.377 386.268Z" fill="#E0D7DC"></path> <path d="M441.356 478.543C456.628 474.864 454.795 454.018 449.297 450.339C448.686 450.033 427.611 448.5 426.084 452.485C420.892 464.441 416.005 472.412 411.423 484.674C410.812 486.513 408.369 492.951 405.314 502.148C403.787 504.601 402.871 506.133 404.398 509.812C407.452 517.476 410.812 528.206 413.561 534.95C414.783 538.322 418.754 548.132 421.808 555.796C423.946 554.877 426.695 553.344 430.666 551.504C430.055 547.826 430.055 543.227 430.055 538.629C430.055 527.286 428.222 516.25 420.892 507.053C423.335 505.214 439.523 489.886 441.356 478.543Z" fill="#302F2E"></path> <path d="M423.335 560.701C423.641 561.315 421.808 569.285 420.892 571.431C420.281 573.27 420.281 574.19 418.448 574.803C415.088 575.11 414.783 575.723 413.867 577.256C413.256 578.789 418.143 581.854 421.503 581.548C422.419 581.548 426.39 581.241 427.917 579.095C429.749 576.029 427.611 573.27 428.833 569.592C430.055 565.606 435.553 565.606 433.72 561.315C433.109 560.088 431.887 557.329 431.276 556.41C430.971 555.796 430.36 553.344 429.749 550.278C426.084 552.118 422.419 553.344 420.586 554.264C421.808 556.716 422.724 558.862 423.335 560.701Z" fill="#FFC9B6"></path> <path d="M458.766 395.158C458.766 394.851 458.155 394.238 457.85 394.238C451.741 392.706 450.519 389.333 449.297 383.815C449.297 382.896 448.076 382.589 447.465 383.202C444.41 385.042 441.051 386.574 437.385 387.494C440.745 397.611 434.636 399.756 431.887 403.742C431.277 404.661 438.302 409.873 441.967 409.26C445.327 408.953 448.381 407.727 451.13 405.888C454.49 404.048 459.682 399.143 458.766 395.158Z" fill="#FFC9B6"></path> <path d="M450.214 371.859C449.603 366.648 445.327 359.597 439.523 360.21C433.72 360.517 429.444 369.407 429.139 373.699C428.222 380.75 428.833 393.932 440.134 389.64C448.686 386.268 451.13 379.523 450.214 371.859Z" fill="#FFC9B6"></path> <path d="M459.377 361.436C456.628 355.612 449.908 351.013 443.799 353.466C441.356 351.013 437.385 350.093 434.025 350.4C433.109 350.4 431.277 350.707 430.971 351.933C428.222 351.013 425.779 351.013 424.862 354.079C423.946 357.144 426.084 359.903 428.833 361.436C427.306 361.743 425.779 362.049 425.168 362.969C423.335 365.115 424.557 368.487 426.39 369.713C429.138 372.166 433.72 374.312 437.691 372.166C437.385 378.604 444.716 385.042 448.381 386.574C450.519 382.282 455.101 381.976 458.155 375.845C459.988 373.086 461.209 365.115 459.377 361.436Z" fill="#FFE25B"></path> <path d="M437.08 375.538C437.08 375.538 441.356 372.472 442.272 376.764C442.883 381.056 438.912 382.589 438.912 382.589L437.08 375.538Z" fill="#FFC9B6"></path> <path d="M457.239 355.612C453.574 354.079 451.13 353.772 448.076 356.225C444.716 358.677 445.938 368.794 451.13 370.02C454.49 370.94 458.766 370.02 460.599 366.954C463.042 362.969 462.737 358.064 457.239 355.612Z" fill="#1F1B1A"></path> <path d="M492.975 376.458C494.807 374.005 495.113 370.633 492.669 368.181C491.142 366.648 489.004 366.341 487.171 366.648C487.477 363.582 486.255 359.597 484.728 357.757C480.757 352.853 474.343 352.239 468.845 354.385C468.54 351.933 467.318 349.787 464.875 348.867C463.042 348.254 460.904 348.867 459.682 350.093C458.155 347.334 454.49 345.802 451.741 348.254C448.992 350.707 449.603 354.692 452.352 356.225C451.435 356.838 450.824 358.064 450.824 359.29C450.519 362.049 452.352 364.195 454.49 365.115C451.13 368.181 452.962 374.312 457.544 376.151C460.598 377.377 464.264 377.071 467.318 375.538C467.318 377.071 467.318 378.604 468.234 380.136C468.845 381.056 469.762 381.669 470.678 382.282C467.929 385.961 470.067 390.253 474.954 390.866C474.649 394.851 473.732 396.384 476.176 400.063C478.925 404.355 487.477 404.968 491.448 400.983C493.28 398.837 493.891 396.384 493.28 393.932C493.586 393.932 493.891 393.625 494.502 393.625C496.945 392.705 499.083 390.253 500 387.801C500.916 382.282 497.251 378.297 492.975 376.458Z" fill="#FF9D27"></path> <path d="M462.126 416.004C466.097 404.048 463.653 396.384 460.293 392.399C458.766 390.866 455.712 387.494 452.046 390.866C453.268 396.384 443.8 397.917 437.08 397.917C431.888 401.596 427.306 404.355 424.557 409.566C421.503 415.085 419.976 420.603 426.695 424.588C424.557 430.719 427.917 436.85 426.084 452.179C432.193 457.084 444.105 457.084 450.519 453.098C455.712 450.033 458.461 446.66 458.155 442.675C456.323 438.996 453.879 438.077 454.184 433.785C454.49 427.654 460.599 421.216 462.126 416.004Z" fill="#EFE8EB"></path> <path d="M426.695 577.869C427 575.11 427 568.979 428.528 566.833C429.749 564.993 432.498 562.234 435.247 561.314C433.415 558.249 431.277 556.716 431.277 556.716C431.277 556.716 425.779 560.701 425.168 565.606C424.557 570.818 424.557 577.256 420.892 577.562C417.227 577.869 419.059 574.803 419.059 574.803C419.059 574.803 413.256 572.044 412.34 577.562C412.034 579.708 412.95 581.241 416.31 582.774C418.143 583.694 419.975 584 422.113 584C424.862 583.08 426.39 580.628 426.695 577.869Z" fill="#302F2E"></path> <path d="M430.666 570.818C430.971 567.752 438.607 566.22 435.553 561.315C435.553 561.315 435.553 561.314 435.553 561.008C432.498 562.234 429.749 564.687 428.833 566.526C427.306 568.672 427.306 574.803 427.001 577.562C426.695 580.321 424.862 582.774 422.724 583.693C424.557 583.693 426.695 582.774 428.222 581.548C431.277 578.789 430.36 573.884 430.666 570.818Z" fill="#1F1B1A"></path> <path d="M425.473 405.888C422.724 407.42 419.365 409.873 417.226 412.325C414.478 415.391 411.423 418.457 408.98 421.829C405.314 417.23 399.817 415.085 395.235 411.712C393.708 410.793 391.875 408.647 390.959 406.807C389.432 404.355 390.959 404.968 391.57 402.209C392.181 399.143 393.097 396.997 392.792 396.384C391.264 395.158 389.126 397.61 387.905 400.676C386.683 399.143 383.934 397.917 381.49 396.078C378.436 400.983 384.239 407.114 387.599 412.019C391.875 418.15 399.206 425.201 403.787 431.026C406.231 434.091 407.453 435.624 410.201 434.398C413.867 432.559 416.005 432.252 423.03 427.347C428.222 423.668 431.582 422.442 434.942 416.617C438.607 410.18 428.528 404.048 425.473 405.888Z" fill="#FFC9B6"></path> <path d="M433.109 400.37C425.473 397.611 418.143 406.807 416.31 413.245C413.867 415.085 420.892 426.427 424.252 426.427C430.971 429.8 437.996 427.04 441.661 420.296C445.021 413.552 439.829 403.129 433.109 400.37Z" fill="#E0D7DC"></path> <path d="M416.005 413.552L413.561 416.004C413.561 416.004 412.34 418.15 414.783 422.442C417.227 426.734 421.503 427.96 421.503 427.96L423.641 426.427C423.641 426.427 419.67 423.975 417.532 420.603C415.699 417.537 416.005 413.552 416.005 413.552Z" fill="white"></path> </g> <defs> <clipPath id="clip0_152_5790"> <rect width="125" height="146" fill="white" transform="scale(4)"></rect> </clipPath> </defs> </svg> 