<?xml version="1.0" encoding="UTF-8"?> <svg xmlns="http://www.w3.org/2000/svg" width="636" height="512" viewBox="0 0 636 512" fill="none"> <path d="M636 371.641L405.048 505.379L0 271.007L230.952 137.71L636 371.641Z" fill="#FAFAFA"></path> <path d="M0 271.007V277.628L405.048 512V505.379L0 271.007Z" fill="#EFE8EB"></path> <path d="M636 371.641V378.262L405.048 512V505.379L636 371.641Z" fill="#E0D7DC"></path> <path d="M264.89 176.993L72.2827 288.221L39.2266 269.241L230.952 158.014L264.89 176.993Z" fill="#8DA3FF"></path> <path d="M302.353 319.117C293.538 323.531 286.927 327.945 271.06 336.772C255.634 345.6 233.597 357.959 219.052 366.786C216.848 368.11 211.559 372.524 215.526 374.731C222.137 378.703 227.426 376.497 232.274 373.848C248.141 364.579 293.098 338.097 312.931 326.179C320.865 321.324 308.965 316.028 302.353 319.117Z" fill="#FFE25B"></path> <path d="M293.538 193.324L286.927 190.234L252.99 209.655L259.16 213.186L293.538 193.324Z" fill="#8DA3FF"></path> <path d="M95.2017 301.021L101.372 304.552L253.43 216.276L247.701 213.186L95.2017 301.021Z" fill="#8DA3FF"></path> <path d="M307.202 201.269L300.59 198.179L266.653 217.6L272.823 221.131L307.202 201.269Z" fill="#8DA3FF"></path> <path d="M108.865 308.965L115.035 312.497L267.534 224.221L261.364 220.69L108.865 308.965Z" fill="#8DA3FF"></path> <path d="M122.528 316.91L128.699 320L280.757 232.165L274.586 228.634L122.528 316.91Z" fill="#8DA3FF"></path> <path d="M320.865 209.214L314.254 205.683L280.316 225.545L286.486 229.076L320.865 209.214Z" fill="#8DA3FF"></path> <path d="M136.191 324.855L142.362 327.945L294.42 240.11L288.249 236.579L136.191 324.855Z" fill="#8DA3FF"></path> <path d="M334.528 217.159L327.917 213.628L293.979 233.49L300.15 237.021L334.528 217.159Z" fill="#8DA3FF"></path> <path d="M348.191 224.662L341.58 221.572L307.642 240.993L313.372 244.524L348.191 224.662Z" fill="#8DA3FF"></path> <path d="M149.854 332.359L156.025 335.89L308.083 248.055L301.913 244.524L149.854 332.359Z" fill="#8DA3FF"></path> <path d="M361.854 232.607L355.243 229.517L321.306 248.938L327.035 252.469L361.854 232.607Z" fill="#8DA3FF"></path> <path d="M163.518 340.303L169.688 343.834L321.746 256L315.576 252.469L163.518 340.303Z" fill="#8DA3FF"></path> <path d="M177.181 347.807L183.351 351.338L334.969 263.503L329.239 259.972L177.181 347.807Z" fill="#8DA3FF"></path> <path d="M375.518 240.552L368.906 237.021L334.528 256.883L340.699 260.414L375.518 240.552Z" fill="#8DA3FF"></path> <path d="M189.963 356.193L196.574 359.283L348.632 271.448L342.462 267.917L189.963 356.193Z" fill="#8DA3FF"></path> <path d="M388.299 248.497L382.129 244.966L348.191 264.828L354.362 268.359L388.299 248.497Z" fill="#8DA3FF"></path> <path d="M401.962 256L395.792 252.91L361.414 272.331L367.584 275.862L401.962 256Z" fill="#8DA3FF"></path> <path d="M203.626 363.697L210.237 367.228L362.295 279.393L356.125 275.862L203.626 363.697Z" fill="#8DA3FF"></path> <path d="M311.168 324.414L375.958 286.897L369.788 283.365L306.32 320C308.083 321.765 309.846 323.09 311.168 324.414Z" fill="#8DA3FF"></path> <path d="M305.439 320.883L217.289 371.641L223.46 375.172L309.405 325.297C308.524 323.972 306.761 322.207 305.439 320.883Z" fill="#FF9D27"></path> <path d="M415.626 263.945L409.455 260.855L375.518 280.276L381.247 283.807L415.626 263.945Z" fill="#8DA3FF"></path> <path d="M429.289 271.89L423.119 268.359L388.74 288.221L394.911 291.752L429.289 271.89Z" fill="#8DA3FF"></path> <path d="M230.952 379.586L237.563 382.676L389.181 294.841L383.451 291.31L230.952 379.586Z" fill="#8DA3FF"></path> <path d="M442.071 279.834L435.9 276.745L402.403 296.166L408.133 299.255L442.071 279.834Z" fill="#8DA3FF"></path> <path d="M243.734 387.531L250.345 391.062L402.844 302.786L396.674 299.255L243.734 387.531Z" fill="#8DA3FF"></path> <path d="M577.821 358.4L571.651 354.869L537.713 374.29L543.884 377.821L577.821 358.4Z" fill="#8DA3FF"></path> <path d="M379.925 465.655L386.096 469.186L538.595 380.91L532.424 377.821L379.925 465.655Z" fill="#8DA3FF"></path> <path d="M393.588 473.6L399.759 476.69L551.817 388.855L545.647 385.324L393.588 473.6Z" fill="#8DA3FF"></path> <path d="M591.484 365.903L585.314 362.372L551.376 382.234L557.547 385.766L591.484 365.903Z" fill="#8DA3FF"></path> <path d="M385.655 442.703L377.281 447.117L312.05 409.6L320.424 404.745L385.655 442.703Z" fill="#FFCC3E"></path> <path d="M403.285 432.552L394.91 436.966L347.31 409.6L355.684 404.745L403.285 432.552Z" fill="#FFCC3E"></path> <path d="M421.355 421.959L413.422 426.814L377.721 406.069L385.655 401.214L421.355 421.959Z" fill="#FFCC3E"></path> <path d="M438.545 412.248L430.17 416.662L374.195 384.441L382.129 379.586L438.545 412.248Z" fill="#FFCC3E"></path> <path d="M455.734 402.097L447.8 406.51L423.559 392.828L431.493 387.972L455.734 402.097Z" fill="#FFCC3E"></path> <path d="M474.245 391.503L465.871 395.917L418.27 368.552L426.204 363.697L474.245 391.503Z" fill="#FFCC3E"></path> <path d="M490.994 381.793L483.06 386.207L447.36 365.462L455.293 361.048L490.994 381.793Z" fill="#FFCC3E"></path> <path d="M508.183 371.641L499.809 376.497L421.355 331.034L429.73 326.179L508.183 371.641Z" fill="#FFCC3E"></path> <path d="M525.813 361.49L517.439 366.345L461.023 333.683L468.956 328.828L525.813 361.49Z" fill="#FFCC3E"></path> <path d="M543.883 350.897L535.509 355.752L511.268 341.628L519.642 337.214L543.883 350.897Z" fill="#FFCC3E"></path> <path d="M555.343 344.717L364.058 455.062L366.262 456.386L557.547 346.041L555.343 344.717Z" fill="#302F2E"></path> <path d="M299.268 379.586L293.098 376.497L259.16 395.917L265.331 399.448L299.268 379.586Z" fill="#FFE25B"></path> <path d="M313.372 387.972L307.202 384.441L273.264 404.303L279.434 407.834L313.372 387.972Z" fill="#FFE25B"></path> <path d="M457.938 294.841C457.938 294.841 460.141 302.345 459.701 306.759C459.26 311.172 458.378 312.055 457.056 313.821C455.734 315.145 453.971 314.703 453.971 314.703C453.971 314.703 453.53 323.972 449.123 327.503C444.715 331.034 437.223 331.476 433.697 330.152C430.171 328.828 432.374 322.207 435.9 316.028C439.426 309.848 443.834 302.786 445.156 297.048C453.53 295.724 457.938 294.841 457.938 294.841Z" fill="#1F1B1A"></path> <path d="M394.029 235.697C391.825 222.014 388.74 222.897 389.181 210.097C389.181 203.917 391.385 189.352 396.233 159.338C398.437 143.89 402.403 141.241 407.252 131.531C407.692 130.648 423.559 138.593 430.611 142.566C431.052 143.007 437.663 159.338 434.578 172.579C433.696 177.434 417.389 210.979 411.659 217.6C425.763 231.283 422.237 244.083 417.83 278.51C414.304 283.366 407.692 282.924 401.081 278.952C401.081 271.448 395.351 244.966 394.029 235.697Z" fill="#1F1B1A"></path> <path d="M421.356 171.697C412.541 161.103 414.304 152.717 418.711 139.917C419.152 139.034 455.734 134.179 456.175 135.062C469.838 159.338 462.345 199.503 452.208 223.338C457.056 234.814 460.582 235.697 464.108 251.145C467.193 264.386 458.378 278.952 457.497 295.283C452.649 298.814 445.156 300.138 442.952 293.959C434.137 273.214 427.526 252.91 433.697 230.841C430.611 223.779 422.237 188.91 421.356 171.697Z" fill="#302F2E"></path> <path d="M352.599 99.3104C358.329 92.6897 374.636 83.8621 379.485 82.9793C379.485 82.9793 384.774 74.1517 386.977 68.8552C388.74 64.8828 390.503 54.2897 394.029 48.1104C397.996 41.0483 402.844 38.8414 409.015 36.6345C410.778 36.1931 412.541 36.1931 413.863 37.5173C415.626 39.7241 415.185 43.2552 415.185 45.9035C415.185 50.3172 415.185 54.2897 415.185 58.7035C415.185 64 407.252 76.3586 405.489 78.5655C403.726 81.2138 399.759 90.9241 398.437 94.0138C397.555 95.7793 395.792 98.869 389.622 101.076C387.418 101.959 367.144 112.552 356.566 114.317C357.006 112.11 353.48 104.607 352.599 99.3104Z" fill="#302F2E"></path> <path d="M414.304 43.2552C423.119 39.7242 433.696 44.1379 433.256 43.6966C432.815 43.2552 445.597 50.7586 445.597 50.7586C454.412 54.2897 463.667 56.4966 468.956 68.8552C471.601 74.5931 462.345 87.3931 458.378 104.607C456.615 112.11 456.615 123.145 459.26 128.441C461.464 131.972 465.43 137.269 452.649 141.241C449.123 142.566 431.493 149.186 421.356 147.421C416.507 146.538 394.029 134.179 401.081 129.324C402.844 128 404.166 125.352 403.285 123.145C402.403 121.379 400.2 117.848 401.081 113.876C403.285 104.607 401.522 100.635 400.2 93.5724C393.588 86.9517 399.318 76.3586 403.285 65.3242C406.37 57.8207 405.048 47.2276 414.304 43.2552Z" fill="#EFE8EB"></path> <path d="M416.507 41.4897C416.507 41.4897 416.507 41.0483 416.507 41.4897C421.796 41.931 428.848 38.8414 433.256 35.7517C435.9 41.931 436.341 44.1379 439.867 49.8759C437.663 49.8759 434.137 55.6138 430.611 61.3517C429.289 64 423.119 70.1793 419.593 68.8552C413.863 66.6483 416.507 61.7931 416.507 55.6138C416.507 50.7586 416.507 45.9035 416.507 41.4897Z" fill="#FFB9A4"></path> <path d="M412.1 88.7173C412.981 83.4207 414.744 78.5655 415.626 75.4759C416.067 74.5931 413.863 68.8552 413.863 68.8552L419.593 66.6483L423.119 70.6207C423.119 70.6207 421.356 75.0345 419.152 76.3586C419.152 82.0966 419.593 92.6897 419.593 102.4C419.593 117.848 419.593 128.883 419.593 128.883C419.593 128.883 416.067 134.179 412.1 136.386C409.455 131.972 408.574 125.793 408.574 125.793C408.574 125.793 410.337 97.5448 412.1 88.7173Z" fill="#FF9D27"></path> <path d="M444.275 50.3173C444.275 50.3173 434.578 54.2897 430.611 57.8207C425.322 62.2345 422.678 63.5586 420.033 65.7655C419.593 65.3242 419.152 52.9655 419.152 52.9655L414.744 53.4069C414.744 53.4069 412.1 56.0552 411.218 60.469C410.337 65.3242 412.1 71.0621 412.1 71.0621L419.593 66.6483L424.441 75.4759C424.441 75.4759 434.137 67.0897 438.986 61.7931C443.834 56.4966 444.275 50.3173 444.275 50.3173Z" fill="white"></path> <path d="M415.626 43.2552C415.626 43.2552 407.252 42.8138 402.844 52.0828C398.877 61.3517 395.792 73.7103 395.351 88.2759C395.351 98.869 397.555 112.552 395.792 120.055C394.47 126.676 385.655 150.51 385.655 150.51C385.655 150.51 386.096 160.221 389.622 164.193C393.589 169.048 397.996 168.607 397.996 168.607C397.996 168.607 403.285 139.034 403.726 134.179C404.166 129.324 405.929 105.048 405.489 97.5448C405.489 90.4828 409.896 66.2069 411.218 60.9103C412.981 55.6138 422.678 44.5793 422.678 44.5793L415.626 43.2552Z" fill="#3F3E3C"></path> <path d="M417.389 51.2C417.389 51.2 414.304 54.731 412.1 60.469C409.896 66.2069 409.015 78.5655 408.133 85.6276C407.252 92.6897 405.929 100.193 405.929 100.193C405.929 100.193 403.285 92.2483 402.844 86.9517C402.403 81.6552 401.522 77.6828 401.522 77.6828L405.048 74.5931L401.963 66.2069C401.963 66.2069 411.218 46.3448 414.744 45.0207C418.711 44.1379 417.389 51.2 417.389 51.2Z" fill="#302F2E"></path> <path d="M440.308 47.669C440.308 47.669 429.289 61.7931 426.204 81.6552C423.119 101.517 424.882 121.821 426.204 135.945C427.526 153.6 428.848 179.2 428.848 179.2C428.848 179.2 446.478 182.29 456.616 180.083C467.194 177.876 471.16 167.283 471.16 167.283C471.16 167.283 471.16 145.655 462.345 119.172C459.26 110.345 461.464 91.8069 464.99 80.7724C467.194 74.1517 464.108 61.3517 458.819 55.6138C454.412 52.0828 445.597 50.3173 440.308 47.669Z" fill="#3F3E3C"></path> <path d="M436.782 44.5793C436.782 44.5793 442.952 45.0207 445.156 49.8759C443.834 52.5241 441.63 55.6138 440.308 61.7931C438.986 67.9724 439.426 74.5931 439.426 74.5931L432.374 77.6828L436.341 84.7448L424 100.634C424 100.634 422.237 79.8897 427.085 64.8828C432.374 49.8759 436.782 44.5793 436.782 44.5793Z" fill="#302F2E"></path> <path d="M405.489 19.4207C410.337 13.6828 420.915 11.9173 427.526 16.331C429.289 16.7724 430.611 17.6552 431.934 18.5379C436.341 22.5104 435.9 29.5724 434.578 34.4276C432.815 42.3724 421.796 60.0276 411.659 53.4069C406.37 49.8759 402.844 41.0483 401.963 34.869C401.081 29.131 401.963 23.3931 405.489 19.4207Z" fill="#FFC9B6"></path> <path d="M398.877 7.94483C402.403 3.53104 410.778 -2.20689 416.507 0.882761C418.27 1.76552 419.593 4.4138 419.593 6.17931C424.882 5.29655 435.019 8.82759 437.663 13.6828C441.63 21.6276 438.985 35.3103 435.46 39.7241C431.493 36.1931 425.763 29.131 424 22.5103C417.83 25.6 409.015 26.0414 402.844 22.5103C397.114 18.9793 394.911 12.8 398.877 7.94483Z" fill="#1F1B1A"></path> <path d="M425.322 30.4552C425.322 30.4552 428.408 25.1586 431.052 29.131C435.459 34.869 428.848 37.5172 428.848 37.5172L425.322 30.4552Z" fill="#FFC9B6"></path> <path d="M416.508 274.979C416.508 274.979 416.948 278.069 417.83 281.6C418.711 285.131 417.389 289.545 417.389 289.545C417.389 289.545 416.508 291.752 413.422 292.193C410.337 292.635 408.133 292.193 408.133 292.193C408.133 292.193 405.489 295.724 401.963 298.372C397.996 301.021 390.063 303.228 387.418 302.786C383.892 302.345 381.688 299.255 382.129 297.49C382.57 295.724 386.537 290.428 390.063 288.221C392.266 286.897 397.555 282.041 399.318 280.276C401.963 277.628 403.726 274.538 403.726 274.538L416.508 274.979Z" fill="#1F1B1A"></path> <path d="M367.143 287.779L305.879 252.469L379.044 48.5517L440.308 84.3035L367.143 287.779Z" fill="#1F1B1A"></path> <path d="M422.237 89.6L440.308 84.3035L367.143 287.779L349.073 293.517L422.237 89.6Z" fill="#1F1B1A"></path> <path d="M379.044 48.5517L361.414 54.2897L422.237 89.6L440.308 84.3035L379.044 48.5517Z" fill="#353433"></path> <path d="M382.57 39.7242L364.499 45.0207L425.763 80.3311L443.834 75.0345L382.57 39.7242Z" fill="#FFE25B"></path> <path d="M422.237 89.6L361.414 54.2897L364.499 45.0207L425.763 80.331L422.237 89.6Z" fill="#FF9D27"></path> <path d="M443.834 75.0345L425.763 80.331L422.237 89.6L440.308 84.3035L443.834 75.0345Z" fill="#D66F29"></path> <path d="M321.306 311.172C317.78 310.29 301.472 304.552 299.709 307.2C297.946 313.379 296.624 316.469 295.302 320.883C293.539 327.062 305.439 329.269 311.169 327.062C318.221 324.414 319.102 320.441 323.069 314.262C323.069 313.379 322.187 311.614 321.306 311.172Z" fill="#FF9D27"></path> <path d="M302.794 284.69C302.794 291.31 301.031 300.138 299.709 307.641C301.472 313.821 314.254 318.676 321.306 316.028C327.476 307.641 332.324 299.255 338.054 293.076C338.495 292.635 302.794 283.807 302.794 284.69Z" fill="#3F3E3D"></path> <path d="M331.002 297.49L349.073 293.076L287.809 257.766C287.809 257.766 297.505 281.159 302.794 287.338C305.879 290.428 312.05 294.841 316.898 296.607C320.424 297.931 326.595 298.814 331.002 297.49Z" fill="#494847"></path> <path d="M349.073 293.517C349.073 293.517 330.561 289.103 313.813 278.069C296.624 267.476 288.25 258.207 288.25 258.207L361.414 54.2897L422.678 89.6L349.073 293.517Z" fill="#302F2E"></path> <path d="M393.148 93.5724L334.528 258.207L330.121 256L388.74 91.3655L393.148 93.5724Z" fill="#FF9D27"></path> <path d="M402.403 99.3104L344.225 263.945L339.817 261.738L398.437 97.1035L402.403 99.3104Z" fill="#FF9D27"></path> <path d="M369.347 115.641L328.798 228.634L315.576 221.131L356.125 107.697L369.347 115.641Z" fill="#FF9D27"></path> <path d="M457.938 56.0552C465.871 58.7035 470.719 60.9103 474.686 75.0345C478.212 88.2759 473.364 93.131 474.686 101.959C476.008 110.786 474.686 112.552 474.245 119.614C473.805 126.676 472.042 127.117 468.956 128.883C466.753 130.207 469.397 132.855 451.767 137.71C440.748 140.8 433.696 138.593 433.696 138.593L430.17 124.469C430.17 124.469 427.967 124.028 436.341 118.731C446.037 112.11 452.208 112.11 452.208 112.11C452.208 112.11 450.886 101.517 447.8 91.8069C445.156 81.6552 451.767 57.3793 457.938 56.0552Z" fill="#302F2E"></path> <path d="M430.17 124.028C430.17 124.028 434.578 123.145 435.9 129.324C436.782 133.738 435.459 136.828 433.696 138.152C431.493 137.71 427.967 138.152 425.322 139.476C419.592 142.566 412.541 148.745 407.692 150.069C400.64 152.276 399.318 147.862 399.759 143.89C399.759 139.917 403.726 137.269 406.811 135.503C410.337 133.297 412.541 131.972 411.659 131.09C410.778 130.648 407.252 131.531 404.607 130.207C401.963 128.441 403.726 126.676 408.133 127.117C410.337 127.117 411.659 125.793 416.067 126.234C419.592 126.234 420.033 128 421.355 127.559C424.441 126.234 427.967 125.352 430.17 124.028Z" fill="#FFC9B6"></path> <path d="M349.514 84.3035C349.514 84.3035 343.784 88.2759 342.021 94.4552C341.139 97.9862 340.258 104.166 346.869 104.607C352.158 105.048 355.243 100.193 353.04 94.4552C351.717 90.0414 349.514 84.3035 349.514 84.3035Z" fill="#FFC9B6"></path> <path d="M66.1122 376.938C67.4345 372.524 72.7235 360.166 74.4865 355.31C75.368 352.662 85.5052 351.338 85.5052 351.779C85.5052 353.103 85.5052 357.517 85.5052 358.841C85.5052 360.607 85.5052 364.579 82.8607 366.786C82.8607 370.317 81.5384 374.731 79.3347 380.469C76.6902 386.648 72.2827 389.297 68.7567 388.414C64.3492 387.09 63.9085 383.559 66.1122 376.938Z" fill="#1F1B1A"></path> <path d="M139.277 325.297C141.48 327.945 144.125 330.593 146.769 333.241C149.854 336.772 153.821 340.303 157.347 343.393C161.755 347.366 161.755 351.779 155.143 351.338C143.684 350.897 141.039 346.041 135.751 342.069C134.869 341.628 133.988 342.952 130.902 341.628C127.376 340.303 126.936 339.421 126.936 335.89C126.936 333.683 127.376 328.828 128.258 326.179C127.376 325.738 136.191 321.765 139.277 325.297Z" fill="#1F1B1A"></path> <path d="M141.48 273.214C140.599 270.124 139.717 256.883 141.921 245.848C144.565 230.4 141.48 206.566 135.75 195.09C133.988 191.559 129.139 184.938 125.613 182.29C115.917 190.235 81.9792 188.91 81.9792 189.352C75.368 196.855 74.0457 200.828 72.2827 205.683C64.79 222.897 68.316 240.11 71.842 251.145C74.4865 258.207 80.657 271.007 79.3347 280.276C78.0125 288.662 74.0457 299.255 72.7235 307.641C70.079 323.09 74.9272 338.979 74.9272 355.31C79.3347 358.841 82.8607 357.959 85.9459 355.31C85.9459 355.31 97.8461 324.855 98.2869 310.731C98.7276 304.11 94.7609 285.572 95.6424 281.6C97.4054 270.566 100.05 268.359 103.135 255.559C106.661 241.435 108.424 230.841 108.424 230.841C111.509 251.586 119.443 259.972 119.443 270.124C119.443 274.097 116.798 285.572 120.324 295.283C124.291 307.2 124.291 317.352 127.817 328.386C130.902 331.917 138.395 330.593 139.276 327.062C139.276 314.262 147.21 289.103 141.48 273.214Z" fill="#B6C9F2"></path> <path d="M87.268 122.262C89.9125 124.469 92.1163 126.234 95.6423 127.117C99.1683 128 107.102 140.359 109.746 136.828C110.628 135.503 111.509 126.234 111.95 124.469C111.068 124.028 108.424 117.848 108.424 116.966C107.983 115.2 106.661 113.876 106.661 112.11C107.102 109.903 107.542 107.697 107.542 105.49C104.457 103.724 101.372 101.076 97.4053 100.193C95.2015 99.7517 92.557 94.0138 90.3533 92.6897C91.6755 97.5448 89.9125 104.607 89.4718 107.697C88.5903 111.228 88.1495 112.552 85.9458 115.641C86.8273 116.083 86.3865 121.379 87.268 122.262Z" fill="#FFB9A4"></path> <path d="M130.902 188.028C127.817 181.407 121.647 178.317 119.443 170.814C117.239 163.31 119.884 155.366 121.647 148.303C122.087 147.421 121.206 146.979 120.324 146.538C107.102 146.097 95.2016 151.393 82.4199 154.483C81.9791 154.483 81.9791 154.041 81.5384 154.041C81.0976 153.6 80.6569 154.483 81.0976 154.483C84.6236 159.338 87.7089 163.752 88.5904 169.49C88.1496 177.435 75.8087 194.207 75.3679 197.738C81.0976 203.917 96.9646 208.772 110.628 203.917C120.324 202.152 130.902 194.648 130.902 188.028Z" fill="white"></path> <path d="M136.632 133.738C134.428 128.883 129.58 116.966 124.732 110.345C119.884 103.283 107.102 105.49 107.102 105.49L114.154 136.828C114.154 136.828 122.528 145.214 128.258 152.717C132.224 146.538 135.31 140.8 136.632 133.738Z" fill="#B6C9F2"></path> <path d="M109.746 123.145C109.746 123.145 104.017 127.559 95.2016 125.793C86.3866 124.028 100.491 150.51 107.543 146.538C115.035 143.007 109.746 123.145 109.746 123.145Z" fill="white"></path> <path d="M123.41 124.469C120.765 119.172 116.798 114.317 112.832 109.903C112.391 109.462 105.78 112.552 104.017 110.345C104.017 112.552 105.78 116.083 107.543 120.497C108.865 123.586 111.95 134.621 110.187 142.124C102.694 133.297 88.1497 116.966 86.3867 115.641C83.7422 118.29 77.5717 120.938 74.4865 123.145C73.1642 124.028 72.2827 126.676 72.2827 127.559C72.2827 130.207 73.605 145.655 76.6902 150.952C79.3347 154.483 85.0644 159.338 86.8274 165.959C89.0312 174.345 79.3347 188.469 73.605 199.062C79.3347 203.476 90.3534 212.303 102.254 212.303C106.22 212.303 110.187 211.862 113.713 210.538C113.713 206.124 114.154 197.738 115.476 195.531C117.68 199.503 120.765 203.476 122.969 207.448C132.665 203.034 139.717 196.855 141.48 195.09C137.513 187.586 129.58 178.759 126.495 165.959C124.291 157.131 129.58 143.89 130.021 140.359C129.58 133.738 125.173 128 123.41 124.469Z" fill="#8CA3D8"></path> <path d="M107.102 108.138C111.069 112.552 115.917 119.614 115.917 119.614C115.917 119.614 113.713 123.586 111.509 125.793C115.476 127.559 118.561 130.648 118.561 130.648L110.187 142.124C110.187 142.124 107.983 124.91 106.22 117.848C104.457 110.786 103.576 108.138 103.576 108.138C103.576 108.138 106.22 107.697 107.102 108.138Z" fill="#B6C9F2"></path> <path d="M86.8273 112.993C86.8273 112.993 93.4385 118.29 97.846 122.703C106.22 131.531 110.187 142.124 110.187 142.124L93.8793 135.945C93.8793 135.945 94.32 131.972 96.9645 129.324C92.1163 129.324 80.6568 123.586 81.0976 119.614C81.5383 115.2 86.8273 112.993 86.8273 112.993Z" fill="#B6C9F2"></path> <path d="M125.613 88.7172C124.291 87.3931 120.765 86.5103 119.443 88.7172C115.476 91.3655 110.187 94.8965 108.424 98.869C106.661 102.841 108.865 107.697 112.391 109.462C119.002 112.552 124.291 105.49 123.41 100.634H123.85C126.054 99.7517 128.258 97.9862 128.258 95.7793C129.139 93.131 127.817 90.4828 125.613 88.7172Z" fill="#1F1B1A"></path> <path d="M121.647 85.6276C121.206 80.3311 120.324 73.7104 116.358 69.738C112.391 66.2069 105.339 65.7655 100.05 66.2069C92.1164 66.6483 86.3867 75.9173 87.7089 86.069C89.0312 95.7793 95.2017 110.345 106.22 112.11C118.121 114.759 122.087 93.5724 121.647 85.6276Z" fill="#FFC9B6"></path> <path d="M97.8461 89.1586C97.8461 89.1586 94.3201 83.4207 92.1163 86.9517C89.4718 90.4828 92.1163 97.5448 95.2016 97.1034C97.8461 97.5448 97.8461 89.1586 97.8461 89.1586Z" fill="#FFC9B6"></path> <path d="M99.609 180.966L101.813 187.145C101.813 187.145 97.4053 189.352 94.3201 190.676C89.0311 192.883 84.1828 193.324 84.1828 193.324L82.8606 188.469C83.3013 188.028 92.5571 184.938 99.609 180.966Z" fill="#B6C9F2"></path> <path d="M121.206 65.3241C116.798 60.469 109.746 58.2621 104.898 61.7931C99.1683 55.6138 87.2681 57.3793 81.0976 64.4414C76.6901 69.7379 75.3679 76.3586 75.3679 82.9793C75.3679 86.5103 74.9271 92.6897 78.0124 95.3379C76.2494 95.3379 74.0456 97.1034 73.1641 98.4276C71.4012 100.634 70.9604 103.724 71.4012 106.372C72.2827 109.903 77.1309 113.876 80.6569 111.669C82.8606 115.641 86.8274 117.848 91.2348 115.2C93.8793 113.876 95.6423 110.786 96.0831 108.138C96.5238 106.372 96.9646 103.283 96.5238 101.076C97.8461 100.193 99.1683 97.9862 99.6091 96.6621C100.05 95.3379 100.491 91.8069 100.05 89.6C102.254 89.6 104.898 88.2759 106.22 86.9517C108.424 85.6276 110.187 83.8621 111.069 82.0966C113.272 84.7448 118.561 85.6276 122.528 85.1862C125.613 78.5655 126.495 71.0621 121.206 65.3241Z" fill="#1F1B1A"></path> <path d="M110.187 146.538C110.187 147.421 111.069 148.303 111.95 148.303C112.832 148.303 113.713 147.421 113.713 146.538C113.713 145.655 112.832 144.772 111.95 144.772C110.628 144.772 109.746 145.655 110.187 146.538Z" fill="white"></path> <path d="M109.746 166.4C109.746 167.283 110.628 168.165 111.509 168.165C112.391 168.165 113.272 167.283 113.272 166.4C113.272 165.517 112.391 164.634 111.509 164.634C110.628 164.634 109.746 165.517 109.746 166.4Z" fill="white"></path> <path d="M112.391 187.145C112.391 188.028 113.272 188.91 114.154 188.91C115.035 188.91 115.917 188.028 115.917 187.145C115.917 186.262 115.035 185.379 114.154 185.379C112.832 185.379 112.391 186.262 112.391 187.145Z" fill="white"></path> <path d="M128.698 175.669C128.698 175.669 126.054 175.669 122.969 174.786C123.85 177.434 124.732 180.524 124.732 180.524H131.343L128.698 175.669Z" fill="#B6C9F2"></path> <path d="M167.925 132.855L146.328 120.497C143.684 118.731 139.717 118.731 135.75 120.938L103.576 139.476C94.7607 144.331 87.7087 158.014 87.7087 169.49V242.317L109.746 255.117L120.765 233.931L151.177 205.683L156.906 148.745L167.925 132.855Z" fill="#FF9D27"></path> <path d="M110.187 255.117V182.29C110.187 170.814 117.239 157.131 126.054 152.276L158.229 133.738C167.044 128.883 174.096 134.179 174.096 145.655V218.483L110.187 255.117Z" fill="#FFE25B"></path> <path d="M164.399 223.779V159.338C164.399 152.717 161.754 143.89 161.754 143.89C161.754 143.89 166.603 149.186 167.043 157.131C167.484 164.193 167.043 209.214 167.043 222.014L164.399 223.779Z" fill="#D66F29"></path> <path d="M123.409 247.614V183.172C123.409 176.552 126.054 164.634 126.054 164.634C126.054 164.634 121.206 175.669 120.765 184.497C120.324 192 120.765 236.579 120.765 249.379L123.409 247.614Z" fill="#D66F29"></path> <path d="M173.655 148.745C173.655 148.745 177.181 151.834 177.181 157.131C177.181 160.662 176.299 165.517 169.688 166.4C167.484 166.841 165.281 163.752 168.366 158.455C171.01 154.041 173.655 148.745 173.655 148.745Z" fill="#FFC9B6"></path> <path d="M75.3679 123.145C75.3679 123.145 67.4344 125.793 65.6714 130.648C63.9084 135.062 66.1122 146.979 64.7899 154.041C63.4677 161.103 62.1455 169.49 59.501 174.786C56.8565 180.083 59.9417 181.848 62.1455 185.821C63.4677 187.586 70.0789 193.766 77.1309 196.855C84.1829 199.945 91.2349 200.386 91.2349 200.386C91.2349 200.386 90.3534 195.531 95.2016 192.883C94.7608 191.117 89.0311 186.703 85.5051 183.614C81.9791 180.524 74.9272 175.228 74.9272 175.228C74.9272 175.228 78.4531 171.255 81.9791 164.634C85.5051 158.455 87.2681 152.276 87.7089 147.421C88.5904 137.71 86.3866 128.441 75.3679 123.145Z" fill="#B6C9F2"></path> <path d="M93.8793 189.793C93.8793 189.793 101.813 188.91 105.78 187.145C110.187 185.379 111.069 184.497 111.509 185.379C111.95 186.703 110.628 188.028 109.746 188.469C107.543 190.676 106.661 191.559 106.661 191.559C106.661 191.559 107.102 195.531 108.865 196.855C115.917 203.034 117.239 203.476 115.035 208.331C112.391 214.069 101.372 206.566 97.8461 204.8C94.3201 203.035 89.4718 199.503 89.4718 199.503C89.4718 199.503 88.5903 192.883 93.8793 189.793Z" fill="#FFC9B6"></path> </svg> 