<svg width="237" height="237" viewBox="0 0 237 237" fill="none" xmlns="http://www.w3.org/2000/svg">
<path d="M120.518 0.208984C56.518 0.208984 4.61797 51.709 4.61797 115.209C4.61797 136.909 10.718 157.209 21.218 174.609L0.417969 236.209L64.618 215.809C81.218 224.909 100.318 230.109 120.618 230.109C184.618 230.109 236.518 178.609 236.518 115.109C236.418 51.709 184.518 0.208984 120.518 0.208984ZM178.118 158.809C175.418 165.609 163.018 171.709 157.618 172.009C152.218 172.309 152.018 176.209 122.418 163.409C92.818 150.509 75.018 119.209 73.618 117.209C72.218 115.209 62.118 100.809 62.718 86.409C63.318 72.009 71.218 65.109 74.018 62.309C76.818 59.509 80.018 59.009 82.018 58.909C84.318 58.909 85.918 58.809 87.618 58.909C89.318 59.009 91.918 58.509 94.218 64.509C96.418 70.509 101.818 85.109 102.518 86.609C103.218 88.109 103.618 89.809 102.518 91.809C101.418 93.709 100.918 94.909 99.418 96.609C97.918 98.309 96.118 100.309 94.818 101.609C93.318 103.009 91.618 104.509 93.318 107.509C94.918 110.509 100.518 120.309 109.018 128.409C119.918 138.809 129.318 142.309 132.218 143.809C135.118 145.409 136.818 145.209 138.618 143.309C140.418 141.409 146.318 135.009 148.418 132.109C150.518 129.209 152.418 129.809 155.118 130.909C157.818 132.009 172.018 139.609 174.918 141.209C177.818 142.809 179.718 143.609 180.418 144.809C181.118 146.209 180.918 152.109 178.118 158.809Z" fill="#00E676"/>
</svg>
