<?xml version="1.0" encoding="UTF-8"?> <svg xmlns="http://www.w3.org/2000/svg" width="35" height="43" viewBox="0 0 35 43" fill="none"> <path fill-rule="evenodd" clip-rule="evenodd" d="M0.214813 0.212833L0 0.425579V21.5V42.5744L0.214813 42.7872L0.429538 43H17.5H34.5705L34.7852 42.7872L35 42.5744V25.6446V8.71461L30.6022 4.3573L26.2043 0H13.3169H0.429538L0.214813 0.212833ZM25.2 2.08065V2.77419H14.2148H3.22954L3.01481 2.98703L2.8 3.19977V21.5V39.8002L3.01481 40.013L3.22954 40.2258H17.5H31.7705L31.9852 40.013L32.2 39.8002V24.7549V9.70968H32.9H33.6V25.6613V41.6129H17.5H1.4V21.5V1.3871H13.3H25.2V2.08065ZM29.6187 5.375L32.5928 8.32258H29.5963H26.6V5.375C26.6 3.75383 26.6101 2.42742 26.6224 2.42742C26.6347 2.42742 27.983 3.75383 29.6187 5.375ZM25.2 6.72265V9.2841L25.4148 9.49684L25.6295 9.70968H28.2148H30.8V24.2742V38.8387H17.5H4.2V21.5V4.16129H14.7H25.2V6.72265ZM9.0825 7.67091L9.05625 9.79334L8.77021 10.0767C8.52408 10.3203 8.42354 10.3599 8.05 10.3599C7.46839 10.3599 7.09065 10.0131 7.02284 9.41683L6.97725 9.01613H6.28863H5.6V9.34712C5.6 10.6625 6.73094 11.7903 8.05 11.7903C8.6954 11.7903 9.27281 11.5437 9.76194 11.0591C10.4472 10.3801 10.5 10.134 10.5 7.61325V5.54839H9.80438H9.10866L9.0825 7.67091ZM11.4148 5.76122L11.2 5.97397V8.88219V11.7903H11.9H12.6V10.75V9.70968H14.1352C16.2268 9.70968 16.1 9.84397 16.1 7.62903C16.1 5.9874 16.0982 5.97223 15.8852 5.76122L15.6705 5.54839H13.65H11.6295L11.4148 5.76122ZM17.0148 5.76122L16.8 5.97397V8.66935V11.3647L17.0148 11.5775L17.2295 11.7903H19.6H21.9705L22.1852 11.5775C22.3943 11.3704 22.4 11.3299 22.4 10.0565C22.4 8.78301 22.3943 8.74252 22.1852 8.53541C21.9783 8.33038 21.927 8.32258 20.7852 8.32258H19.6V9.01613V9.70968H20.3H21V10.0565V10.4032H19.6H18.2V8.66935V6.93548H20.3H22.4V6.24194V5.54839H19.8148H17.2295L17.0148 5.76122ZM14.7 7.62903V8.32258H13.65H12.6V7.62903V6.93548H13.65H14.7V7.62903ZM16.275 14.6185C13.6655 14.9477 11.4566 16.0189 9.61669 17.8477C7.96757 19.4869 6.99886 21.2474 6.51009 23.494C6.28591 24.5243 6.28591 26.7983 6.51009 27.8286C6.9993 30.0771 7.97002 31.8405 9.61669 33.4719C10.9885 34.8311 12.2436 35.6054 14.0297 36.1943C18.7617 37.7545 24.0075 35.9436 26.836 31.7732C27.988 30.0746 28.7 27.74 28.7 25.6613C28.7 24.6228 28.4698 23.2318 28.131 22.223C27.554 20.5054 26.769 19.2351 25.4709 17.9189C23.9048 16.3309 22.0651 15.3129 19.8625 14.8154C19.132 14.6504 16.9651 14.5315 16.275 14.6185ZM19.4687 16.1534C19.7575 16.2185 20.2201 16.3434 20.4969 16.4309L21 16.5901V19.2185C21 20.664 20.9804 21.8468 20.9565 21.8468C20.8482 21.8468 12.25 17.5494 12.25 17.4953C12.25 17.3843 13.9914 16.5684 14.6357 16.3775C15.7576 16.0452 16.5006 15.9546 17.7625 15.9963C18.4122 16.0177 19.18 16.0884 19.4687 16.1534ZM24.4275 18.8353C25.7767 20.1797 26.7802 22.0541 27.1113 23.8484L27.1846 24.2461L24.7923 25.4303L22.4 26.6145V21.9281V17.2416L23.076 17.702C23.4478 17.9552 24.056 18.4651 24.4275 18.8353ZM11.8786 22.9469C9.65256 24.0532 7.80841 24.9604 7.78059 24.963C7.68618 24.9718 7.87867 23.8015 8.09996 23.022C8.51909 21.5451 9.3324 20.1209 10.4034 18.9883L10.91 18.4525L13.418 19.6941L15.926 20.9356L11.8786 22.9469ZM19.2931 22.6043L21 23.4485V25.3781V27.3076L19.25 28.1754L17.5 29.0432L15.75 28.1754L14 27.3076V25.3781V23.4485L15.6844 22.6092C16.6108 22.1477 17.4177 21.7677 17.4775 21.765C17.5374 21.7623 18.3544 22.14 19.2931 22.6043ZM12.6 29.1342V34.081L11.9277 33.6206C10.5689 32.6901 9.38175 31.3027 8.66416 29.8065C8.2677 28.9798 7.89163 27.7503 7.81585 27.0329L7.76387 26.5405L10.1163 25.3687C11.4102 24.7242 12.4983 24.1948 12.5344 24.1922C12.5704 24.1896 12.6 26.4135 12.6 29.1342ZM27.2628 26.4184C27.0817 28.399 26.3569 30.1918 25.1071 31.7512L24.4993 32.5094L21.8309 31.1884C20.3633 30.4617 19.1625 29.8473 19.1625 29.8228C19.1625 29.7858 27.1866 25.7677 27.2902 25.7528C27.3088 25.7502 27.2966 26.0497 27.2628 26.4184ZM22.9162 33.7353C21.9787 34.3645 20.5606 34.9423 19.2937 35.2114C18.6211 35.3542 16.3782 35.3571 15.75 35.2159C15.4853 35.1563 14.9833 35.0246 14.6344 34.9233L14 34.7389V31.8037V28.8686L18.6506 31.1728L23.3012 33.4771L22.9162 33.7353Z" fill="white"></path> </svg> 