<?xml version="1.0" encoding="UTF-8"?> <svg xmlns="http://www.w3.org/2000/svg" width="49" height="49" viewBox="0 0 49 49" fill="none"> <path fill-rule="evenodd" clip-rule="evenodd" d="M15.2903 0.127994C14.4287 0.43585 13.8542 1.05894 13.6287 1.92981C13.5509 2.23019 13.4998 2.95082 13.4998 3.748V5.06854H16.0426H18.5852L18.5528 3.41572C18.5236 1.93077 18.4989 1.72256 18.3091 1.36593C17.7389 0.294905 16.3812 -0.26188 15.2903 0.127994ZM31.4349 0.135468C31.2771 0.220744 31.0456 0.384588 30.9204 0.499663C30.418 0.961686 30.4305 0.74016 30.4305 9.13763V16.9497H32.1045H33.7784V9.11521C33.7784 0.32959 33.8277 0.945589 33.0758 0.33601C32.6439 -0.0141964 31.8839 -0.107042 31.4349 0.135468ZM13.4998 7.60765V8.42208H16.0346H18.5695V7.60765V6.79322H16.0346H13.4998V7.60765ZM13.5232 18.1713L13.5476 26.1959L14.3846 26.2236L15.2216 26.2513V25.3852V24.5191H16.0825H16.9433V25.3814V26.2438H17.7564H18.5695V18.1953V10.1468H17.7564H16.9433V16.4706V22.7944H16.0825H15.2216V16.4706V10.1468H14.3601H13.4988L13.5232 18.1713ZM3.42115 11.9702C2.7532 12.1706 2.10391 12.8371 1.84631 13.5864C1.7628 13.8294 1.73439 17.5101 1.73439 28.0786V42.245H2.54621H3.35793L3.38318 28.5194L3.40834 14.7938L3.62863 14.4089C3.74982 14.1972 4.00483 13.9169 4.19538 13.7861L4.54183 13.5482L8.20777 13.52L11.8737 13.4918V12.6816V11.8714L7.7845 11.8797C5.53539 11.8842 3.5719 11.9249 3.42115 11.9702ZM20.2912 12.6859V13.5003H24.5H28.7088V12.6859V11.8714H24.5H20.2912V12.6859ZM35.5002 12.6791V13.4931L39.9792 13.5207L44.4581 13.5482L44.8045 13.7861C44.9951 13.9169 45.2502 14.1972 45.3714 14.4089L45.5917 14.7938L45.6168 28.5194L45.6421 42.245H46.4547H47.2674L47.2426 27.9445C47.2184 14.019 47.2129 13.6343 47.0325 13.2701C46.8131 12.827 46.3317 12.3245 45.901 12.0887C45.6182 11.9339 45.1589 11.9171 40.5459 11.8921L35.5002 11.865V12.6791ZM5.08228 28.735V42.245H11.3954H17.7086V42.6619C17.7086 43.2578 17.8778 43.6658 18.1925 43.8288C18.5995 44.0397 30.4005 44.0397 30.8075 43.8288C31.1222 43.6658 31.2914 43.2578 31.2914 42.6619V42.245H37.6046H43.9177V28.735V15.225H39.709H35.5002V18.1268V21.0286L36.7915 24.04C37.5017 25.6963 38.0828 27.0916 38.0828 27.1405C38.0828 27.1896 37.0266 28.7109 35.7357 30.5215L33.3884 33.8132H32.1045H30.8205L28.4733 30.5215C27.1823 28.7109 26.1261 27.1841 26.1261 27.1285C26.1261 27.0728 26.7072 25.6686 27.4174 24.0079L28.7088 20.9886V18.1067V15.225H24.5H20.2912V21.2349V27.2448L18.1735 30.9621L16.0558 34.6796L13.9651 31.0126L11.8744 27.3457L11.8741 21.2853L11.8737 15.225H8.47799H5.08228V28.735ZM10.1519 27.1424V35.7063L10.4315 35.8223C10.7647 35.9605 11.3593 36.535 11.5505 36.9033L11.6873 37.1668H16.9225H22.1576L22.2783 36.8936C22.4402 36.5273 23.0041 35.974 23.4335 35.7598C23.9139 35.5204 25.0861 35.5204 25.5665 35.7598C25.9959 35.974 26.5598 36.5273 26.7217 36.8936L26.8424 37.1668H32.1175H37.3925L37.4468 36.9501C37.5178 36.6668 38.2086 35.9716 38.5668 35.823L38.8481 35.7063V27.1424V18.5785H39.709H40.5698V27.1424V35.7063L40.8593 35.8264C41.262 35.9935 41.9458 36.784 42.0822 37.24C42.5938 38.9502 41.4162 40.5591 39.6611 40.548C38.735 40.5423 37.9012 40.0449 37.5014 39.2599L37.3137 38.8915H32.1116H26.9095L26.6632 39.3126C26.1768 40.1438 25.4711 40.5464 24.5 40.5464C23.5289 40.5464 22.8232 40.1438 22.3368 39.3126L22.0905 38.8915H16.8883H11.6863L11.4986 39.2599C11.0988 40.0449 10.265 40.5423 9.33887 40.548C7.58382 40.5591 6.40622 38.9502 6.91778 37.24C7.05418 36.784 7.73801 35.9935 8.14071 35.8264L8.43016 35.7063V27.1424V18.5785H9.29105H10.1519V27.1424ZM30.4305 19.4409V20.3032H32.1045H33.7784V19.4409V18.5785H32.1045H30.4305V19.4409ZM29.0519 24.4855C28.33 26.1825 28.0349 26.98 28.0953 27.0713C28.6919 27.9729 31.1658 31.4119 31.2197 31.4145C31.2592 31.4163 31.2914 30.7991 31.2914 30.0428V28.6678L30.8282 28.3793C29.8291 27.7572 29.3672 26.6421 29.6646 25.5697C29.8352 24.9548 30.2959 24.3489 30.8086 24.0658L31.2886 23.8005L31.2901 22.9142L31.2914 22.0279L30.6936 22.0298L30.0957 22.0317L29.0519 24.4855ZM32.9175 22.9266V23.8251L33.1997 23.9422C33.5848 24.102 34.1218 24.6414 34.3585 25.106C34.9502 26.2677 34.5002 27.7284 33.3409 28.4088L32.9175 28.6574V30.0589C32.9175 31.4284 32.9215 31.4561 33.0952 31.2714C33.3416 31.0093 36.1698 27.0212 36.1698 26.9359C36.1698 26.8978 35.7071 25.7787 35.1415 24.4492L34.1132 22.0317L33.5154 22.0298L32.9175 22.0279V22.9266ZM31.5445 25.6164C31.0039 26.1183 31.3622 27.0103 32.1045 27.0103C32.8441 27.0103 33.1905 26.1601 32.6654 25.634C32.3361 25.3041 31.8885 25.2971 31.5445 25.6164ZM14.1694 27.9222C14.1694 28.0768 16.0385 31.2124 16.0956 31.1535C16.2168 31.0284 17.8999 28.0485 17.8999 27.9589C17.8999 27.9108 17.0756 27.8727 16.0346 27.8727C15.0087 27.8727 14.1694 27.895 14.1694 27.9222ZM9.14756 37.2428C8.64194 37.3475 8.36531 37.8797 8.56618 38.3613C8.79288 38.9048 9.34365 39.0558 9.79686 38.6987C10.4627 38.174 9.97133 37.0721 9.14756 37.2428ZM39.3563 37.3115C38.8048 37.5437 38.7213 38.319 39.2065 38.7014C39.6564 39.0559 40.2079 38.903 40.4338 38.3613C40.723 37.6682 40.0548 37.0173 39.3563 37.3115ZM24.005 37.362C23.7692 37.4999 23.6137 38.0453 23.7259 38.341C24.113 39.361 25.602 38.8117 25.2604 37.775C25.202 37.5977 25.0744 37.41 24.9769 37.3576C24.7522 37.2372 24.2145 37.2397 24.005 37.362ZM0.0302266 45.5746C0.0558618 46.938 0.0887667 47.2367 0.248604 47.5596C0.488982 48.0452 1.01364 48.5707 1.49842 48.8115C1.87252 48.9973 2.19736 49 24.5 49C46.8026 49 47.1275 48.9973 47.5016 48.8115C47.9864 48.5707 48.511 48.0452 48.7514 47.5596C48.9112 47.2367 48.9441 46.938 48.9698 45.5746L49 43.9697H40.9304H32.8606L32.5304 44.4727C32.1389 45.0689 31.4142 45.5425 30.7547 45.633C30.1724 45.713 18.8276 45.713 18.2453 45.633C17.5858 45.5425 16.8611 45.0689 16.4696 44.4727L16.1394 43.9697H8.06964H0L0.0302266 45.5746ZM38.8481 46.5088V47.3232H37.9872H37.1263V46.5088V45.6944H37.9872H38.8481V46.5088ZM42.1959 46.5088V47.3232H41.3829H40.5698V46.5088V45.6944H41.3829H42.1959V46.5088ZM45.6395 46.5088V47.3232H44.7786H43.9177V46.5088V45.6944H44.7786H45.6395V46.5088Z" fill="#7994D1"></path> </svg> 