<?xml version="1.0" encoding="UTF-8"?> <svg xmlns="http://www.w3.org/2000/svg" width="252" height="260" viewBox="0 0 252 260" fill="none"> <path d="M140.91 260C166.248 260 186.788 239.292 186.788 213.748C186.788 188.204 166.248 167.497 140.91 167.497C115.573 167.497 95.0325 188.204 95.0325 213.748C95.0325 239.292 115.573 260 140.91 260Z" fill="#D2DEF5"></path> <path d="M39.3238 167.827C61.0417 167.827 78.6476 150.078 78.6476 128.183C78.6476 106.288 61.0417 88.5388 39.3238 88.5388C17.6059 88.5388 0 106.288 0 128.183C0 150.078 17.6059 167.827 39.3238 167.827Z" fill="#D2DEF5"></path> <path d="M186.46 132.147C222.657 132.147 252 102.565 252 66.0737C252 29.5822 222.657 0 186.46 0C150.264 0 120.921 29.5822 120.921 66.0737C120.921 102.565 150.264 132.147 186.46 132.147Z" fill="#D2DEF5"></path> <path d="M210.71 128.183H40.3069V233.901H210.71V128.183Z" fill="#FFE388"></path> <path d="M200.879 128.183H40.3069V223.99H194.325C197.93 223.99 200.879 221.017 200.879 217.383V128.183Z" fill="white"></path> <path d="M210.71 236.214H40.3071C38.9963 236.214 37.6855 235.223 37.6855 233.571V127.853C37.6855 126.532 38.6686 125.21 40.3071 125.21H210.71C212.021 125.21 213.332 126.202 213.332 127.853V233.571C213.004 235.223 212.021 236.214 210.71 236.214ZM42.601 231.259H208.089V130.496H42.601V231.259Z" fill="#21365F"></path> <path d="M230.372 236.214H20.645C19.3342 236.214 18.0234 235.223 18.0234 233.571C18.0234 232.249 19.0065 230.928 20.645 230.928H230.372C231.683 230.928 232.994 231.919 232.994 233.571C232.666 235.223 231.683 236.214 230.372 236.214Z" fill="#21365F"></path> <path d="M210.71 149.988H197.602C186.788 149.988 177.94 141.068 177.94 130.166V127.854H230.372V130.166C230.372 141.068 221.524 149.988 210.71 149.988Z" fill="#FFE388"></path> <path d="M197.602 149.988C186.788 149.988 177.94 141.068 177.94 130.166V127.854H217.264V130.166C217.264 141.068 208.416 149.988 197.602 149.988Z" fill="white"></path> <path d="M210.71 152.631H197.602C185.477 152.631 175.319 142.72 175.319 130.166V127.853C175.319 126.532 176.302 125.21 177.94 125.21H230.372C231.683 125.21 232.994 126.202 232.994 127.853V130.166C232.666 142.39 222.835 152.631 210.71 152.631ZM180.234 130.496C180.234 140.077 188.099 147.676 197.275 147.676H210.383C219.886 147.676 227.423 140.077 227.423 130.496H180.234Z" fill="#21365F"></path> <path d="M158.278 149.988H145.17C134.356 149.988 125.509 141.068 125.509 130.166V127.854H177.94V130.166C177.94 141.068 169.092 149.988 158.278 149.988Z" fill="#FFE388"></path> <path d="M145.17 149.988C134.356 149.988 125.509 141.068 125.509 130.166V127.854H164.832V130.166C164.832 141.068 155.984 149.988 145.17 149.988Z" fill="white"></path> <path d="M158.278 152.631H145.17C133.046 152.631 122.887 142.72 122.887 130.166V127.853C122.887 126.532 123.87 125.21 125.509 125.21H177.94C179.251 125.21 180.562 126.202 180.562 127.853V130.166C180.234 142.39 170.403 152.631 158.278 152.631ZM127.802 130.496C127.802 140.077 135.667 147.676 144.843 147.676H157.951C167.454 147.676 174.991 140.077 174.991 130.496H127.802Z" fill="#21365F"></path> <path d="M105.846 149.988H92.7386C81.9245 149.988 73.0767 141.068 73.0767 130.166V127.854H125.508V130.166C125.508 141.068 116.661 149.988 105.846 149.988Z" fill="#FFE388"></path> <path d="M92.7386 149.988C81.9245 149.988 73.0767 141.068 73.0767 130.166V127.854H112.4V130.166C112.4 141.068 103.553 149.988 92.7386 149.988Z" fill="white"></path> <path d="M105.846 152.631H92.7386C80.6137 152.631 70.4551 142.72 70.4551 130.166V127.853C70.4551 126.532 71.4382 125.21 73.0767 125.21H125.508C126.819 125.21 128.13 126.202 128.13 127.853V130.166C127.802 142.39 117.971 152.631 105.846 152.631ZM75.3706 130.496C75.3706 140.077 83.2353 147.676 92.4109 147.676H105.519C115.022 147.676 122.559 140.077 122.559 130.496H75.3706Z" fill="#21365F"></path> <path d="M53.4148 149.988H40.3069C29.4929 149.988 20.645 141.068 20.645 130.166V127.854H73.0767V130.166C73.0767 141.068 64.2289 149.988 53.4148 149.988Z" fill="#FFE388"></path> <path d="M40.3069 149.988C29.4929 149.988 20.645 141.068 20.645 130.166V127.854H59.9688V130.166C59.9688 141.068 51.121 149.988 40.3069 149.988Z" fill="white"></path> <path d="M53.415 152.631H40.3071C28.1823 152.631 18.3513 142.72 18.3513 130.166V127.853C18.3513 126.532 19.3344 125.21 20.9729 125.21H73.4046C74.7154 125.21 76.0262 126.202 76.0262 127.853V130.166C75.3708 142.39 65.5399 152.631 53.415 152.631ZM22.9391 130.496C22.9391 140.077 30.8039 147.676 39.9794 147.676H53.0873C62.5906 147.676 70.1276 140.077 70.1276 130.496H22.9391Z" fill="#21365F"></path> <path d="M53.4148 95.1465L20.645 128.183H73.0767L89.4617 95.1465H53.4148Z" fill="#FFE388"></path> <path d="M53.4148 95.1465L20.645 128.183H56.6918L76.3537 95.1465H53.4148Z" fill="white"></path> <path d="M73.0769 130.496H20.6452C19.6621 130.496 18.679 129.835 18.3513 128.844C18.0236 127.853 18.0236 126.862 19.0067 126.201L51.7765 93.1644C52.1042 92.834 52.7596 92.5037 53.415 92.5037H89.4618C90.4449 92.5037 91.1003 92.834 91.428 93.8251C91.7557 94.4859 91.7557 95.477 91.428 96.1377L75.0431 129.175C74.7154 129.835 73.7323 130.496 73.0769 130.496ZM26.5437 125.541H71.4384L85.2017 97.4592H54.0704L26.5437 125.541Z" fill="#21365F"></path> <path d="M197.602 95.1465H161.555L177.94 128.183H230.372L197.602 95.1465Z" fill="#FFE388"></path> <path d="M184.494 95.1465H161.555L177.94 128.183H213.987L184.494 95.1465Z" fill="white"></path> <path d="M230.372 130.496H177.94C176.957 130.496 176.302 129.835 175.646 129.175L159.261 96.1377C158.934 95.477 158.934 94.4859 159.261 93.8251C159.589 93.1644 160.572 92.5037 161.228 92.5037H197.274C197.93 92.5037 198.585 92.834 198.913 93.1644L231.683 126.201C232.338 126.862 232.666 127.853 232.338 128.844C232.01 129.835 231.355 130.496 230.372 130.496ZM179.251 125.541H224.146L196.291 97.4592H165.16L179.251 125.541Z" fill="#21365F"></path> <path d="M89.4618 95.1465L73.0769 128.183H125.509V95.1465H89.4618Z" fill="#FFE388"></path> <path d="M89.4618 95.1465L73.0769 128.183H109.124L112.401 95.1465H89.4618Z" fill="white"></path> <path d="M125.508 130.496H73.0767C72.0936 130.496 71.4382 130.166 71.1105 129.175C70.7828 128.514 70.7828 127.523 71.1105 126.862L87.4954 93.8251C87.8231 92.834 88.8062 92.5037 89.7893 92.5037H125.836C127.147 92.5037 128.458 93.4948 128.458 95.1466V128.183C127.802 129.505 126.819 130.496 125.508 130.496ZM77.0091 125.541H122.887V97.4592H90.7724L77.0091 125.541Z" fill="#21365F"></path> <path d="M161.555 95.1465H125.509V128.183H177.94L161.555 95.1465Z" fill="#FFE388"></path> <path d="M148.447 95.1465H125.509V128.183H161.555L148.447 95.1465Z" fill="white"></path> <path d="M177.94 130.496H125.509C124.198 130.496 122.887 129.504 122.887 127.853V94.8158C122.887 93.4943 123.87 92.1729 125.509 92.1729H161.555C162.538 92.1729 163.194 92.8336 163.849 93.4943L180.234 126.531C180.562 127.192 180.562 128.183 180.234 128.844C179.579 130.165 178.596 130.496 177.94 130.496ZM127.802 125.54H173.68L159.589 97.4587H127.802V125.54Z" fill="#21365F"></path> <path d="M197.602 22.1353H53.415V74.9942H197.602V22.1353Z" fill="#FFE388"></path> <path d="M187.771 22.1353H53.415V65.0832H181.217C184.822 65.0832 187.771 62.1099 187.771 58.4758V22.1353Z" fill="white"></path> <path d="M197.602 77.637H53.415C52.1042 77.637 50.7935 76.6459 50.7935 74.9941V22.1351C50.7935 20.8137 51.7765 19.4922 53.415 19.4922H197.602C198.913 19.8226 199.896 20.8137 199.896 22.1351V74.9941C199.896 76.6459 198.913 77.637 197.602 77.637ZM55.7089 72.6815H194.981V24.7781H55.7089V72.6815Z" fill="#21365F"></path> <path d="M174.663 74.9941H76.3538V94.8162H174.663V74.9941Z" fill="white"></path> <path d="M174.663 97.4596H76.3538C75.043 97.4596 73.7322 96.4685 73.7322 94.8166V74.9945C73.7322 73.673 74.7153 72.3516 76.3538 72.3516H174.663C175.974 72.3516 177.285 73.3427 177.285 74.9945V94.8166C176.957 96.4685 175.974 97.4596 174.663 97.4596ZM78.6477 92.504H172.042V77.6375H78.6477V92.504Z" fill="#21365F"></path> <path d="M204.156 24.7781H46.8608C45.5501 24.7781 44.2393 23.787 44.2393 22.1351C44.2393 20.8137 45.2224 19.4922 46.8608 19.4922H204.156C205.467 19.8226 206.45 20.8137 206.45 22.1351C206.45 23.787 205.467 24.7781 204.156 24.7781Z" fill="#21365F"></path> <path d="M141.893 42.9482H69.7998C68.489 42.9482 67.1782 41.9571 67.1782 40.3053C67.1782 38.9838 68.1613 37.6624 69.7998 37.6624H141.893C143.204 37.6624 144.515 38.6535 144.515 40.3053C144.187 41.9571 143.204 42.9482 141.893 42.9482Z" fill="#21365F"></path> <path d="M181.217 59.4668H135.34C134.029 59.4668 132.718 58.4757 132.718 56.8239C132.718 55.5024 133.701 54.1809 135.34 54.1809H181.217C182.528 54.1809 183.839 55.172 183.839 56.8239C183.511 58.4757 182.528 59.4668 181.217 59.4668Z" fill="#21365F"></path> <path d="M122.231 59.4668H89.4617C88.1509 59.4668 86.8401 58.4757 86.8401 56.8239C86.8401 55.5024 87.8232 54.1809 89.4617 54.1809H122.231C123.542 54.1809 124.853 55.172 124.853 56.8239C124.525 58.4757 123.542 59.4668 122.231 59.4668Z" fill="#21365F"></path> <path d="M191.048 167.828H125.509V214.08H191.048V167.828Z" fill="#FFE388"></path> <path d="M181.217 167.828H125.509V204.169H174.663C178.268 204.169 181.217 201.195 181.217 197.561V167.828Z" fill="white"></path> <path d="M191.048 216.392H125.509C124.198 216.392 122.887 215.401 122.887 213.749V167.497C122.887 166.176 123.87 164.854 125.509 164.854H191.048C192.359 164.854 193.67 165.845 193.67 167.497V213.749C193.342 215.401 192.359 216.392 191.048 216.392ZM127.802 211.436H188.427V170.14H127.802V211.436Z" fill="#21365F"></path> <path d="M197.602 216.391H118.955C117.644 216.391 116.333 215.4 116.333 213.748C116.333 212.097 117.316 211.105 118.955 211.105H197.602C198.913 211.105 200.224 212.097 200.224 213.748C200.224 215.4 198.913 216.391 197.602 216.391Z" fill="#21365F"></path> <path d="M105.847 167.828H59.9688V233.902H105.847V167.828Z" fill="#FFE388"></path> <path d="M96.0156 167.828H59.9688V220.687H89.4616C93.0663 220.687 96.0156 217.714 96.0156 214.08V167.828Z" fill="white"></path> <path d="M105.847 236.214H59.969C58.6582 236.214 57.3474 235.223 57.3474 233.571V167.497C57.3474 166.176 58.3305 164.854 59.969 164.854H105.847C107.158 164.854 108.468 165.845 108.468 167.497V233.571C108.141 235.223 107.158 236.214 105.847 236.214ZM62.2629 231.258H103.225V170.14H62.2629V231.258Z" fill="#21365F"></path> <path d="M112.401 170.14H53.415C52.1042 170.14 51.1211 169.149 51.1211 167.497C51.1211 165.845 52.1042 164.854 53.415 164.854H112.401C113.711 164.854 115.022 165.845 115.022 167.497C115.022 169.149 113.711 170.14 112.401 170.14Z" fill="#21365F"></path> <path d="M96.0158 207.472C97.8256 207.472 99.2927 205.993 99.2927 204.168C99.2927 202.344 97.8256 200.865 96.0158 200.865C94.2059 200.865 92.7388 202.344 92.7388 204.168C92.7388 205.993 94.2059 207.472 96.0158 207.472Z" fill="#21365F"></path> <path d="M230.372 93.1648H217.264C215.953 93.1648 214.643 92.1737 214.643 90.5219C214.643 88.87 215.626 87.8789 217.264 87.8789H230.372C231.683 87.8789 232.994 88.87 232.994 90.5219C232.994 92.1737 231.683 93.1648 230.372 93.1648Z" fill="#21365F"></path> <path d="M223.818 99.7716C222.507 99.7716 221.197 98.7805 221.197 97.1287V83.9139C221.197 82.5925 222.18 81.271 223.818 81.271C225.129 81.271 226.44 82.2621 226.44 83.9139V97.1287C226.112 98.7805 225.129 99.7716 223.818 99.7716Z" fill="#21365F"></path> <path d="M223.818 73.6726C225.266 73.6726 226.44 72.4893 226.44 71.0297C226.44 69.57 225.266 68.3867 223.818 68.3867C222.37 68.3867 221.197 69.57 221.197 71.0297C221.197 72.4893 222.37 73.6726 223.818 73.6726Z" fill="#21365F"></path> <path d="M223.818 63.7624C225.266 63.7624 226.439 62.5792 226.439 61.1195C226.439 59.6598 225.266 58.4766 223.818 58.4766C222.37 58.4766 221.196 59.6598 221.196 61.1195C221.196 62.5792 222.37 63.7624 223.818 63.7624Z" fill="#21365F"></path> <path d="M223.818 47.2432C225.266 47.2432 226.44 46.0599 226.44 44.6002C226.44 43.1406 225.266 41.9573 223.818 41.9573C222.37 41.9573 221.197 43.1406 221.197 44.6002C221.197 46.0599 222.37 47.2432 223.818 47.2432Z" fill="#21365F"></path> <path d="M223.818 27.4212C225.266 27.4212 226.44 26.2379 226.44 24.7782C226.44 23.3185 225.266 22.1353 223.818 22.1353C222.37 22.1353 221.197 23.3185 221.197 24.7782C221.197 26.2379 222.37 27.4212 223.818 27.4212Z" fill="#21365F"></path> <path d="M33.4253 47.9038H20.3174C19.0066 47.9038 17.6958 46.9127 17.6958 45.2609C17.6958 43.9394 18.6789 42.6179 20.3174 42.6179H33.4253C34.7361 42.6179 36.0469 43.609 36.0469 45.2609C36.0469 46.9127 35.0638 47.9038 33.4253 47.9038Z" fill="#21365F"></path> <path d="M26.8713 54.5116C25.5605 54.5116 24.2498 53.5205 24.2498 51.8687V38.6539C24.2498 37.3325 25.2329 36.011 26.8713 36.011C28.5098 36.3414 29.4929 37.3325 29.4929 38.6539V51.8687C29.4929 53.5205 28.5098 54.5116 26.8713 54.5116Z" fill="#21365F"></path> <path d="M27.199 68.0564C28.6468 68.0564 29.8206 66.8731 29.8206 65.4134C29.8206 63.9538 28.6468 62.7705 27.199 62.7705C25.7511 62.7705 24.5774 63.9538 24.5774 65.4134C24.5774 66.8731 25.7511 68.0564 27.199 68.0564Z" fill="#21365F"></path> <path d="M27.199 81.271C28.6468 81.271 29.8206 80.0877 29.8206 78.6281C29.8206 77.1684 28.6468 75.9851 27.199 75.9851C25.7511 75.9851 24.5774 77.1684 24.5774 78.6281C24.5774 80.0877 25.7511 81.271 27.199 81.271Z" fill="#21365F"></path> <path d="M27.199 101.093C28.6468 101.093 29.8206 99.9095 29.8206 98.4498C29.8206 96.9902 28.6468 95.8069 27.199 95.8069C25.7511 95.8069 24.5774 96.9902 24.5774 98.4498C24.5774 99.9095 25.7511 101.093 27.199 101.093Z" fill="#21365F"></path> </svg> 