<?xml version="1.0" encoding="UTF-8"?> <svg xmlns="http://www.w3.org/2000/svg" width="30" height="42" viewBox="0 0 30 42" fill="none"> <path fill-rule="evenodd" clip-rule="evenodd" d="M12.289 0.0861981C11.0155 0.251601 9.38007 0.812463 8.28712 1.45849C5.97267 2.82659 4.19435 5.04403 3.3762 7.58202C2.85749 9.19084 2.89088 8.43578 2.85984 19.253C2.84427 24.6793 2.86016 29.1189 2.8951 29.1189C2.93012 29.1189 4.22628 28.6913 5.77561 28.1686L8.59248 27.2182L8.5937 18.0565C8.59499 7.81166 8.56419 8.38327 9.17985 7.18114C9.57486 6.40992 10.396 5.52728 11.1215 5.09432C13.8433 3.46991 17.5752 4.64553 18.9995 7.57611C19.1547 7.89518 19.4706 8.56123 19.7016 9.05621C20.0473 9.79675 20.2171 10.0526 20.6605 10.5014C21.3836 11.2333 21.9645 11.5244 22.8187 11.583C23.7175 11.6446 24.3069 11.8865 24.8324 12.4095C25.4875 13.0615 25.6537 13.4789 25.6549 14.4738C25.6557 15.1651 25.6265 15.3545 25.4697 15.6768C25.1741 16.2841 24.691 16.7777 24.1077 17.0683C23.8183 17.2126 23.5993 17.3708 23.6211 17.4201C24.2375 18.8107 24.312 19.2962 24.3155 21.9455C24.3189 24.5328 24.2755 24.7547 23.6408 25.3981C22.915 26.134 21.9811 26.2631 21.0942 25.7504C20.301 25.292 20.031 24.7257 20.0257 23.5093L20.0221 22.6993L19.8397 22.8318C19.7394 22.9045 19.4086 23.1179 19.1045 23.3057L18.5517 23.6474L18.5776 24.8727C18.6021 26.0307 18.6136 26.1064 18.787 26.2483C18.9373 26.3714 26.8907 29.1189 27.0965 29.1189C27.1309 29.1189 27.1483 24.4024 27.1351 18.6376L27.1112 8.15633L26.9292 7.46773C26.0505 4.14416 23.1917 1.69724 19.9477 1.49213C19.2626 1.44881 19.0942 1.40311 18.307 1.04646C16.3382 0.154378 14.2856 -0.173147 12.289 0.0861981ZM12.7671 5.93324C11.3619 6.38498 10.3128 7.56167 10.0584 8.97137C10.0008 9.29028 9.97052 11.3962 9.97052 15.0791V20.7L10.4163 21.137C11.234 21.9386 12.6896 22.7603 13.7331 23.0094C14.3746 23.1626 15.6268 23.1599 16.2933 23.0038C16.948 22.8506 18.2649 22.1903 18.9832 21.6551C19.6294 21.1736 20.3125 20.36 20.6983 19.6121C21.1531 18.7307 21.332 18.0378 21.3894 16.9352L21.4407 15.9506L22.42 15.9096C23.3372 15.8712 23.4182 15.854 23.6968 15.6387C24.1853 15.2612 24.392 14.6863 24.242 14.1222C24.047 13.3895 23.5173 13.0393 22.599 13.0358C21.8919 13.0332 21.2017 12.7683 20.4087 12.1951C19.3846 11.455 18.8542 10.7326 18.1141 9.06966C17.8556 8.48903 17.4891 7.80075 17.2996 7.54026C16.7467 6.78002 15.8801 6.20005 14.9046 5.93726C14.3725 5.79384 13.2075 5.79171 12.7671 5.93324ZM22.3704 19.38C22.2616 19.7033 21.9988 20.2606 21.7864 20.6183L21.4001 21.2687V22.571C21.4001 23.9592 21.4785 24.3473 21.7933 24.5178C22.1368 24.7039 22.6186 24.559 22.7693 24.2243C22.8888 23.9587 22.8908 19.8406 22.7716 19.2782C22.7235 19.0508 22.6579 18.8484 22.626 18.8285C22.5942 18.8085 22.4791 19.0567 22.3704 19.38ZM12.8674 25.27C12.8271 26.1565 12.7957 26.3217 12.5911 26.7269C12.2407 27.4201 11.8982 27.635 10.279 28.1773C9.50742 28.4357 8.84628 28.6746 8.80972 28.7083C8.77317 28.7418 8.84612 29.4826 8.97185 30.3543L9.20044 31.9393L10.125 32.1229C11.8922 32.4738 13.3345 33.1403 14.69 34.2324L14.9916 34.4755L15.4276 34.1351C16.8309 33.0393 18.3723 32.3857 20.4274 32.015L20.7922 31.9492L21.0208 30.3593C21.1465 29.4848 21.2195 28.7418 21.1829 28.7083C21.1463 28.6746 20.4852 28.4357 19.7137 28.1773C18.0944 27.635 17.7519 27.4201 17.4016 26.7269C17.1969 26.3217 17.1655 26.1565 17.1252 25.27C17.0855 24.3972 17.0632 24.2767 16.95 24.3218C16.6198 24.4535 15.5701 24.6064 14.9963 24.6064C14.4225 24.6064 13.3728 24.4535 13.0427 24.3218C12.9294 24.2767 12.9071 24.3972 12.8674 25.27ZM6.55136 29.433C6.20896 29.5536 5.90733 29.6744 5.88107 29.7017C5.85472 29.7288 5.96902 30.5821 6.13503 31.5978L6.43674 33.4446L5.69438 34.7071C4.43234 36.8534 4.25547 37.3889 4.31586 38.8801C4.35939 39.9566 4.53813 40.6086 5.0189 41.4455L5.3138 41.959H14.9963H24.6788L24.9737 41.4455C25.4548 40.6081 25.6332 39.9567 25.6768 38.8783C25.7375 37.38 25.5557 36.8376 24.2511 34.6263L23.5555 33.4472L23.8578 31.5968C24.0241 30.5791 24.1319 29.7205 24.0974 29.6889C24.0131 29.6119 22.6946 29.1762 22.6579 29.2132C22.642 29.2293 22.5048 30.1189 22.353 31.1901C22.2012 32.2613 22.0569 33.1581 22.0324 33.1829C22.0079 33.2077 21.4533 33.3197 20.8 33.4318C18.3987 33.8436 17.1255 34.4554 15.6245 35.919L14.9963 36.5314L14.3681 35.919C13.5941 35.1643 13.1011 34.7999 12.2731 34.37C11.4103 33.9222 10.6432 33.687 9.19858 33.4273C8.53193 33.3075 7.97058 33.1933 7.95113 33.1737C7.91821 33.1403 7.38451 29.5297 7.37908 29.3035C7.37567 29.1632 7.27102 29.1796 6.55136 29.433ZM3.48563 30.4764C2.11634 30.9793 1.10875 31.8422 0.534355 33.0043C0.00924119 34.0665 0 34.1575 0 38.2842V42H1.82388C2.82701 42 3.64775 41.9866 3.64775 41.9703C3.64775 41.954 3.54116 41.7027 3.41081 41.4117C2.98694 40.4656 2.88497 39.9368 2.88334 38.6772C2.88116 36.972 3.10124 36.2799 4.2853 34.2691L4.94846 33.1429L4.7424 31.8898C4.46736 30.2171 4.4599 30.1848 4.35063 30.1896C4.29843 30.1918 3.90917 30.3209 3.48563 30.4764ZM25.5017 30.4111C25.4767 30.5352 25.3635 31.2006 25.2502 31.8898L25.0442 33.1429L25.7073 34.2691C26.0721 34.8886 26.4563 35.5912 26.5613 35.8306C27.0989 37.0572 27.2801 38.6067 27.0379 39.9078C26.9217 40.5316 26.8076 40.8724 26.3712 41.8974C26.337 41.9778 26.7255 42 28.1637 42H30L29.9738 38.0823C29.948 34.2178 29.9451 34.1577 29.7593 33.6498C29.3732 32.5939 28.5992 31.6214 27.6662 31.0198C27.3041 30.7863 25.8294 30.1855 25.6185 30.1855C25.5793 30.1855 25.5267 30.2871 25.5017 30.4111Z" fill="#7994D1"></path> </svg> 