<?xml version="1.0" encoding="UTF-8"?> <svg xmlns="http://www.w3.org/2000/svg" width="33" height="50" viewBox="0 0 33 50" fill="none"> <g clip-path="url(#clip0_120_98)"> <path d="M16.5055 29.6301C13.9794 29.6301 11.5101 28.87 9.4097 27.446C7.30934 26.0219 5.67231 23.9979 4.70562 21.6298C3.73893 19.2618 3.486 16.656 3.97882 14.1421C4.47163 11.6281 5.68805 9.31895 7.47426 7.5065C9.26047 5.69406 11.5362 4.45977 14.0138 3.95972C16.4913 3.45966 19.0594 3.71631 21.3932 4.6972C23.7269 5.67808 25.7217 7.33916 27.1251 9.47037C28.5285 11.6016 29.2776 14.1072 29.2776 16.6704C29.2718 20.1057 27.9243 23.3986 25.5303 25.8278C23.1364 28.2569 19.8911 29.6242 16.5055 29.6301ZM16.5055 4.99559C14.2294 4.9934 12.0038 5.67625 10.1102 6.95776C8.21669 8.23927 6.74026 10.0619 5.86774 12.195C4.99522 14.328 4.76581 16.6758 5.20853 18.9412C5.65125 21.2066 6.74621 23.2879 8.35489 24.9218C9.96357 26.5556 12.0137 27.6687 14.2459 28.12C16.4781 28.5714 18.7921 28.3408 20.8951 27.4575C22.9982 26.5742 24.7958 25.0778 26.0605 23.1577C27.3253 21.2375 28.0004 18.9799 28.0004 16.6704C27.9975 13.5768 26.7858 10.6107 24.6311 8.4222C22.4763 6.23371 19.5542 5.00145 16.5055 4.99559Z" fill="#FFB83B"></path> <path d="M16.5056 29.6301C12.4447 29.6301 9.26807 23.9367 9.26807 16.6704C9.26807 9.40409 12.4447 3.71069 16.5056 3.71069C20.5664 3.71069 23.7322 9.40409 23.7322 16.6704C23.7322 23.9367 20.5555 29.6301 16.5056 29.6301ZM16.5056 4.99559C13.2307 4.99559 10.5453 10.3456 10.5453 16.6704C10.5453 22.9951 13.2744 28.3452 16.5056 28.3452C19.7368 28.3452 22.4659 22.9951 22.4659 16.6704C22.4659 10.3456 19.7368 4.99559 16.5056 4.99559Z" fill="#FFB83B"></path> <path d="M16.5054 11.5528C13.157 11.6424 9.8397 10.8808 6.85538 9.33751C6.77071 9.28858 6.6988 9.21982 6.64563 9.13697C6.59246 9.05412 6.55958 8.95957 6.54973 8.86121C6.53396 8.76919 6.53851 8.67476 6.56305 8.58473C6.58759 8.49471 6.63151 8.41133 6.69164 8.34061C7.88909 6.87481 9.39036 5.69498 11.0885 4.88518C12.7867 4.07537 14.64 3.65552 16.5163 3.65552C18.3927 3.65552 20.2459 4.07537 21.9441 4.88518C23.6423 5.69498 25.1435 6.87481 26.341 8.34061C26.3992 8.41227 26.4412 8.49608 26.4638 8.58606C26.4864 8.67605 26.4892 8.77 26.472 8.86121C26.4573 8.95369 26.4222 9.04159 26.3693 9.11832C26.3163 9.19506 26.2469 9.25863 26.1663 9.30428C23.1823 10.8627 19.8605 11.6359 16.5054 11.5528ZM8.18717 8.60645C10.8096 9.76177 13.6471 10.3285 16.5054 10.2679C19.3602 10.3287 22.1942 9.76187 24.8127 8.60645C23.7402 7.46471 22.4505 6.5558 21.0216 5.93477C19.5927 5.31373 18.0544 4.99352 16.4999 4.99352C14.9455 4.99352 13.4072 5.31373 11.9783 5.93477C10.5494 6.5558 9.25966 7.46471 8.18717 8.60645Z" fill="#FFB83B"></path> <path d="M16.5054 29.63C14.6296 29.6328 12.7764 29.2153 11.078 28.4073C9.37971 27.5992 7.87818 26.4206 6.68071 24.9556C6.62249 24.8839 6.58056 24.8001 6.55791 24.7102C6.53527 24.6202 6.53247 24.5262 6.54972 24.435C6.56439 24.3425 6.59951 24.2546 6.65245 24.1779C6.70539 24.1012 6.77476 24.0376 6.85538 23.9919C9.83969 22.4486 13.157 21.6871 16.5054 21.7766C19.8502 21.688 23.1638 22.4495 26.1445 23.9919C26.2251 24.0376 26.2945 24.1012 26.3474 24.1779C26.4004 24.2546 26.4355 24.3425 26.4501 24.435C26.4674 24.5262 26.4646 24.6202 26.442 24.7102C26.4193 24.8001 26.3774 24.8839 26.3192 24.9556C25.1229 26.4192 23.6231 27.5969 21.9268 28.4049C20.2304 29.2129 18.3793 29.6312 16.5054 29.63ZM8.18716 24.7341C9.25966 25.8758 10.5494 26.7847 11.9783 27.4058C13.4072 28.0268 14.9455 28.347 16.4999 28.347C18.0544 28.347 19.5927 28.0268 21.0216 27.4058C22.4504 26.7847 23.7402 25.8758 24.8127 24.7341C22.1941 23.5786 19.3602 23.0118 16.5054 23.0726C13.6471 23.012 10.8096 23.5788 8.18716 24.7341Z" fill="#FFB83B"></path> <path d="M16.4726 29.6301C16.389 29.6316 16.3061 29.616 16.2286 29.5842C16.1511 29.5525 16.0807 29.5052 16.0216 29.4452C15.9625 29.3853 15.9159 29.3139 15.8846 29.2352C15.8533 29.1566 15.838 29.0724 15.8395 28.9876L15.905 4.35314C15.905 4.18275 15.9717 4.01934 16.0904 3.89886C16.2091 3.77838 16.3702 3.71069 16.5381 3.71069C16.706 3.71069 16.8671 3.77838 16.9858 3.89886C17.1045 4.01934 17.1712 4.18275 17.1712 4.35314L17.1057 28.9876C17.1057 29.158 17.039 29.3214 16.9203 29.4419C16.8016 29.5624 16.6405 29.6301 16.4726 29.6301Z" fill="#FFB83B"></path> <path d="M28.6444 17.3127H4.36654C4.19862 17.3127 4.03758 17.245 3.91884 17.1246C3.8001 17.0041 3.7334 16.8407 3.7334 16.6703C3.7334 16.4999 3.8001 16.3365 3.91884 16.216C4.03758 16.0955 4.19862 16.0278 4.36654 16.0278H28.6444C28.8123 16.0278 28.9734 16.0955 29.0921 16.216C29.2109 16.3365 29.2776 16.4999 29.2776 16.6703C29.2776 16.8407 29.2109 17.0041 29.0921 17.1246C28.9734 17.245 28.8123 17.3127 28.6444 17.3127Z" fill="#FFB83B"></path> <path d="M16.5054 50C16.3945 50.0007 16.2854 49.9713 16.1894 49.9148C16.0934 49.8584 16.0141 49.7769 15.9596 49.6788L2.34694 25.9526C0.875613 23.3872 0.0688888 20.4853 0.0020759 17.5179C-0.064737 14.5504 0.610541 11.6142 1.96487 8.98321C3.1847 6.513 5.00831 4.40138 7.26152 2.85002C9.51474 1.29867 12.1223 0.359384 14.8352 0.121889C15.9428 0.0221958 17.057 0.0221958 18.1647 0.121889C20.8781 0.357305 23.4866 1.29575 25.7401 2.84734C27.9937 4.39893 29.8169 6.51168 31.035 8.98321C32.3893 11.6142 33.0646 14.5504 32.9978 17.5179C32.931 20.4853 32.1243 23.3872 30.6529 25.9526C30.6122 26.0263 30.5574 26.0908 30.4916 26.1426C30.4259 26.1943 30.3506 26.2321 30.2702 26.2538C30.1898 26.2755 30.1059 26.2806 30.0235 26.2688C29.9411 26.2571 29.8619 26.2286 29.7905 26.1852C29.6455 26.0975 29.5401 25.9555 29.4973 25.7898C29.4544 25.624 29.4774 25.4478 29.5613 25.2991C30.9253 22.9212 31.6729 20.2311 31.7339 17.4804C31.795 14.7297 31.1677 12.0081 29.9106 9.57027C28.7936 7.28581 27.1166 5.33108 25.0406 3.89375C22.9645 2.45643 20.5592 1.58477 18.0555 1.36247C17.0244 1.26298 15.9864 1.26298 14.9553 1.36247C12.4507 1.58163 10.0441 2.45203 7.96751 3.88971C5.89096 5.32739 4.21461 7.28383 3.10017 9.57027C1.84308 12.0081 1.21575 14.7297 1.27684 17.4804C1.33793 20.2311 2.08544 22.9212 3.44949 25.2991L16.5491 48.0727L20.7409 40.6181C20.8317 40.4858 20.9682 40.393 21.1233 40.3581C21.2784 40.3232 21.4407 40.3487 21.5781 40.4296C21.7155 40.5104 21.818 40.6408 21.8651 40.7947C21.9122 40.9486 21.9006 41.1149 21.8326 41.2606L17.0075 49.6788C16.9561 49.7699 16.8834 49.8468 16.7959 49.9028C16.7083 49.9588 16.6086 49.9922 16.5054 50Z" fill="#4C6FBF"></path> <path d="M21.3306 41.5817C21.2187 41.5851 21.1083 41.5543 21.014 41.4931C20.9414 41.4518 20.8778 41.3961 20.8268 41.3294C20.7758 41.2627 20.7385 41.1863 20.7172 41.1047C20.6958 41.0231 20.6908 40.938 20.7024 40.8544C20.714 40.7708 20.742 40.6904 20.7847 40.618L21.7345 38.9455C21.8209 38.7983 21.9609 38.6914 22.1242 38.6479C22.2876 38.6044 22.4612 38.6277 22.6078 38.7129C22.7528 38.8006 22.8582 38.9426 22.901 39.1083C22.9439 39.2741 22.9209 39.4503 22.837 39.599L21.8327 41.2605C21.782 41.3522 21.7095 41.4297 21.6218 41.4858C21.5341 41.5419 21.434 41.5748 21.3306 41.5817Z" fill="#4C6FBF"></path> <path d="M24.5725 35.9215C24.4606 35.9249 24.3503 35.894 24.2559 35.8329C24.1834 35.7915 24.1197 35.7359 24.0687 35.6692C24.0178 35.6025 23.9805 35.5261 23.9591 35.4445C23.9377 35.3629 23.9327 35.2778 23.9443 35.1942C23.9559 35.1106 23.9839 35.0302 24.0267 34.9578L26.3191 31.0145C26.3614 30.9418 26.4174 30.8782 26.4839 30.8275C26.5504 30.7767 26.6261 30.7397 26.7067 30.7186C26.7873 30.6975 26.8712 30.6928 26.9536 30.7046C27.036 30.7164 27.1153 30.7445 27.187 30.7875C27.2586 30.8304 27.3213 30.8872 27.3713 30.9547C27.4214 31.0221 27.4578 31.0989 27.4786 31.1807C27.4994 31.2625 27.5041 31.3476 27.4924 31.4312C27.4808 31.5148 27.453 31.5953 27.4107 31.668L25.1074 35.6003C25.0547 35.6974 24.9773 35.7785 24.8832 35.835C24.7891 35.8915 24.6818 35.9214 24.5725 35.9215Z" fill="#4C6FBF"></path> <path d="M29.1465 27.9354C29.0346 27.9389 28.9242 27.908 28.8299 27.8468C28.7574 27.8055 28.6937 27.7498 28.6427 27.6831C28.5917 27.6164 28.5545 27.54 28.5331 27.4584C28.5117 27.3769 28.5067 27.2917 28.5183 27.2082C28.5299 27.1246 28.5579 27.0442 28.6007 26.9718L29.5613 25.2992C29.6036 25.2265 29.6596 25.1629 29.7261 25.1121C29.7926 25.0613 29.8683 25.0244 29.9489 25.0033C30.0295 24.9822 30.1134 24.9774 30.1958 24.9892C30.2782 25.001 30.3575 25.0292 30.4291 25.0721C30.5008 25.115 30.5635 25.1718 30.6135 25.2393C30.6635 25.3068 30.7 25.3836 30.7208 25.4654C30.7416 25.5472 30.7463 25.6323 30.7346 25.7159C30.723 25.7995 30.6952 25.88 30.6529 25.9527L29.7032 27.6142C29.6461 27.7124 29.5646 27.7937 29.467 27.85C29.3693 27.9064 29.2588 27.9358 29.1465 27.9354Z" fill="#4C6FBF"></path> <path d="M29.8015 49.9999H3.27487C3.18341 50.0173 3.08928 50.0141 2.99918 49.9905C2.90909 49.9668 2.82524 49.9233 2.7536 49.863C2.68197 49.8027 2.62432 49.7272 2.58475 49.6417C2.54517 49.5562 2.52466 49.463 2.52466 49.3685C2.52466 49.2741 2.54517 49.1808 2.58475 49.0953C2.62432 49.0099 2.68197 48.9343 2.7536 48.874C2.82524 48.8137 2.90909 48.7702 2.99918 48.7466C3.08928 48.7229 3.18341 48.7197 3.27487 48.7372H29.8015C29.8846 48.7372 29.967 48.7538 30.0438 48.7861C30.1206 48.8183 30.1904 48.8657 30.2492 48.9253C30.308 48.985 30.3546 49.0558 30.3864 49.1337C30.4183 49.2117 30.4346 49.2952 30.4346 49.3796C30.4346 49.464 30.4183 49.5475 30.3864 49.6255C30.3546 49.7034 30.308 49.7742 30.2492 49.8339C30.1904 49.8935 30.1206 49.9409 30.0438 49.9731C29.967 50.0054 29.8846 50.022 29.8015 50.022V49.9999Z" fill="#4C6FBF"></path> </g> <defs> <clipPath id="clip0_120_98"> <rect width="33" height="50" fill="white"></rect> </clipPath> </defs> </svg> 