<?xml version="1.0" encoding="UTF-8"?> <svg xmlns="http://www.w3.org/2000/svg" width="272" height="256" viewBox="0 0 272 256" fill="none"> <g clip-path="url(#clip0_156_11038)"> <path d="M48.758 197.881C75.6863 197.881 97.516 176.197 97.516 149.449C97.516 122.7 75.6863 101.016 48.758 101.016C21.8297 101.016 0 122.7 0 149.449C0 176.197 21.8297 197.881 48.758 197.881Z" fill="#D2DEF5"></path> <path d="M134.781 83.027C157.862 83.027 176.573 64.4408 176.573 41.5135C176.573 18.5862 157.862 0 134.781 0C111.699 0 92.9883 18.5862 92.9883 41.5135C92.9883 64.4408 111.699 83.027 134.781 83.027Z" fill="#D2DEF5"></path> <path d="M202.346 256C240.815 256 272 225.023 272 186.811C272 148.599 240.815 117.622 202.346 117.622C163.877 117.622 132.691 148.599 132.691 186.811C132.691 225.023 163.877 256 202.346 256Z" fill="#D2DEF5"></path> <path d="M209.66 238.357L78.013 203.762C74.182 202.724 72.0924 198.919 73.1372 195.46L95.0783 112.778C96.1231 108.973 99.9541 106.897 103.437 107.935L235.083 142.53C238.914 143.568 241.004 147.373 239.959 150.832L218.018 233.514C216.973 237.319 213.142 239.395 209.66 238.357Z" fill="#FFE388"></path> <path d="M204.087 224.173L74.5303 190.27L96.8196 106.205L229.859 141.146L208.267 221.751C207.918 223.481 205.829 224.519 204.087 224.173Z" fill="white"></path> <path d="M211.401 241.47C210.705 241.47 209.66 241.47 208.963 241.124L77.3166 206.53C72.0925 205.146 69.3064 199.957 70.3512 194.768L92.2923 112.087C93.6854 106.897 98.9094 104.13 104.134 105.168L235.78 139.762C238.218 140.454 240.308 141.838 241.701 144.259C243.094 146.335 243.442 149.103 242.746 151.524L220.804 234.205C220.108 236.627 218.715 238.703 216.277 240.087C214.536 240.778 213.142 241.47 211.401 241.47ZM101.696 110.357C99.606 110.357 97.8646 111.741 97.5163 113.47L75.5752 196.151C74.8787 198.573 76.2718 200.995 78.7097 201.341L210.356 235.935C211.401 236.281 212.794 235.935 213.491 235.589C214.536 234.897 215.232 234.205 215.58 232.822L237.521 150.141C237.87 149.103 237.521 147.719 237.173 147.027C236.477 145.989 235.78 145.297 234.387 144.951L102.74 110.357C102.392 110.357 102.044 110.357 101.696 110.357Z" fill="#21365F"></path> <path d="M109.357 149.449L129.905 154.984C131.647 155.33 133.736 154.292 134.084 152.562L137.219 141.146C137.567 139.416 136.522 137.341 134.781 136.995L114.233 131.459C112.492 131.114 110.402 132.151 110.054 133.881L106.919 145.297C106.571 147.027 107.616 149.103 109.357 149.449Z" fill="#FFE388"></path> <path d="M107.616 142.53L125.378 147.373C127.119 147.719 129.209 146.681 129.557 144.951L131.995 136.303L114.233 131.459C112.492 131.114 110.402 132.151 110.054 133.881L107.616 142.53Z" fill="white"></path> <path d="M130.95 157.751C130.602 157.751 129.905 157.751 129.557 157.405L109.009 151.87C107.268 151.524 106.223 150.487 105.178 149.103C104.481 147.719 104.133 145.989 104.481 144.605L107.616 133.189C108.312 130.076 111.795 128 114.929 129.038L135.478 134.573C137.219 134.919 138.264 135.957 139.308 137.341C140.005 138.724 140.353 140.454 140.005 141.838L136.871 153.254C136.174 155.676 133.736 157.751 130.95 157.751ZM113.536 133.881C113.188 133.881 113.188 133.881 113.188 133.881C113.188 133.881 112.84 134.227 112.84 134.573L109.705 145.989C109.705 146.335 109.705 146.681 109.705 146.681C109.705 146.681 110.054 147.027 110.402 147.027L130.95 152.562C131.298 152.562 131.298 152.562 131.647 152.562C131.647 152.562 131.995 152.216 131.995 151.87L135.129 140.454C135.129 140.108 135.129 139.762 135.129 139.762C135.129 139.762 134.781 139.416 134.433 139.416L113.536 133.881Z" fill="#21365F"></path> <path d="M178.664 208.26C178.315 208.26 178.315 208.26 177.967 208.26L137.219 197.536C135.826 197.19 135.13 195.806 135.478 194.422C135.826 193.038 137.219 192.346 138.612 192.692L179.36 203.417C180.753 203.763 181.45 205.146 181.101 206.53C180.753 207.568 179.708 208.26 178.664 208.26Z" fill="#21365F"></path> <path d="M123.288 193.73C122.94 193.73 122.94 193.73 122.592 193.73L103.785 188.887C102.392 188.541 101.696 187.157 102.044 185.773C102.392 184.389 103.785 183.697 105.178 184.043L123.985 188.887C125.378 189.233 126.075 190.616 125.726 192C125.726 193.038 124.681 193.73 123.288 193.73Z" fill="#21365F"></path> <path d="M116.671 172.973C116.323 172.973 116.323 172.973 115.974 172.973L100.65 168.822C99.2573 168.476 98.5608 167.092 98.9091 165.708C99.2573 164.324 100.65 163.632 102.044 163.978L117.367 168.13C118.761 168.476 119.457 169.86 119.109 171.243C119.109 172.281 118.064 172.973 116.671 172.973Z" fill="#21365F"></path> <path d="M147.667 180.93C147.319 180.93 147.319 180.93 146.971 180.93L131.647 176.778C130.254 176.433 129.557 175.049 129.906 173.665C130.254 172.281 131.647 171.589 133.04 171.935L148.364 176.087C149.757 176.433 150.454 177.816 150.105 179.2C149.757 180.238 148.712 180.93 147.667 180.93Z" fill="#21365F"></path> <path d="M178.315 188.887C177.967 188.887 177.967 188.887 177.618 188.887L162.294 184.735C160.901 184.389 160.205 183.006 160.553 181.622C160.901 180.238 162.294 179.546 163.688 179.892L179.011 184.043C180.405 184.389 181.101 185.773 180.753 187.157C180.405 188.195 179.36 188.887 178.315 188.887Z" fill="#21365F"></path> <path d="M208.963 197.189C208.615 197.189 208.615 197.189 208.266 197.189L192.942 193.038C191.549 192.692 190.853 191.308 191.201 189.924C191.549 188.541 192.942 187.849 194.335 188.195L209.659 192.346C211.053 192.692 211.749 194.076 211.401 195.459C211.053 196.497 210.008 197.189 208.963 197.189Z" fill="#21365F"></path> <path d="M197.818 162.941C196.425 167.784 199.56 172.973 204.435 174.357C209.311 175.741 214.535 172.628 215.928 167.784C217.321 162.941 214.187 157.752 209.311 156.368C204.435 154.984 199.211 158.098 197.818 162.941Z" fill="white"></path> <path d="M198.515 169.514C198.863 169.514 198.863 169.86 199.211 169.86C204.087 171.243 209.311 168.13 210.704 163.287C211.401 160.865 211.052 158.789 210.008 156.714C214.535 158.443 217.321 162.941 215.928 167.784C214.535 172.627 209.311 175.741 204.435 174.357C201.997 173.665 199.908 171.935 198.515 169.514Z" fill="#FFE388"></path> <path d="M206.873 177.47C205.829 177.47 204.784 177.47 203.739 177.124C200.604 176.432 198.167 174.357 196.425 171.589C194.684 168.822 194.336 165.708 195.032 162.595C196.773 156.368 203.391 152.562 209.66 154.292C215.928 156.022 219.759 162.595 218.018 168.822C217.322 171.935 215.232 174.357 212.446 176.087C211.053 176.778 208.963 177.47 206.873 177.47ZM206.873 158.789C203.739 158.789 201.301 160.865 200.256 163.632C199.908 165.362 199.908 167.092 200.953 168.822C201.998 170.205 203.391 171.589 205.132 171.935C206.873 172.281 208.615 172.281 210.356 171.243C211.749 170.205 213.142 168.822 213.491 167.092C213.839 165.362 213.839 163.632 212.794 161.903C211.749 160.519 210.356 159.135 208.615 158.789C208.266 158.789 207.57 158.789 206.873 158.789Z" fill="#21365F"></path> <path d="M182.843 159.135C181.45 163.978 184.584 169.168 189.46 170.551C194.336 171.935 199.56 168.822 200.953 163.978C202.346 159.135 199.211 153.946 194.336 152.562C189.112 151.178 184.236 154.292 182.843 159.135Z" fill="white"></path> <path d="M183.539 165.708C183.887 165.708 183.887 166.054 184.236 166.054C189.111 167.438 194.335 164.324 195.729 159.481C196.425 157.06 196.077 154.984 195.032 152.908C199.56 154.638 202.346 159.135 200.953 163.978C199.56 168.822 194.335 171.935 189.46 170.551C186.674 169.86 184.584 167.784 183.539 165.708Z" fill="#FFE388"></path> <path d="M191.898 173.319C190.853 173.319 189.808 173.319 188.763 172.973C185.629 172.281 183.191 170.205 181.45 167.438C179.708 164.67 179.36 161.557 180.057 158.443C180.753 155.33 182.843 152.908 185.629 151.178C188.415 149.449 191.55 149.103 194.684 149.795C200.953 151.524 204.784 158.097 203.042 164.324C201.998 169.86 197.122 173.319 191.898 173.319ZM191.898 154.638C190.853 154.638 189.46 154.984 188.415 155.676C187.022 156.714 185.629 158.097 185.281 159.827C184.932 161.557 184.932 163.287 185.977 165.016C187.022 166.4 188.415 167.784 190.156 168.13C191.898 168.476 193.639 168.476 195.38 167.438C196.774 166.4 198.167 165.016 198.515 163.287C199.56 159.827 197.47 156.022 193.639 154.984C192.943 154.984 192.246 154.638 191.898 154.638Z" fill="#21365F"></path> <path d="M20.5481 38.0536L202.694 17.2969C204.435 16.9509 206.177 18.3347 206.525 20.4104L217.67 117.275C218.018 119.005 216.625 120.735 214.535 121.081L32.3894 141.837C30.648 142.183 28.9066 140.8 28.5584 138.724L17.4137 41.859C17.0654 39.7834 18.4585 38.3996 20.5481 38.0536Z" fill="#FFE388"></path> <path d="M20.5481 38.0541L196.425 17.9893L206.873 108.627C207.222 110.357 205.829 112.087 203.739 112.433L27.8618 132.497L17.4137 41.8595C17.0654 39.7839 18.4585 38.4001 20.5481 38.0541Z" fill="white"></path> <path d="M32.0411 144.26C28.9067 144.26 26.4688 141.838 26.1205 138.724L14.9758 41.8595C14.6276 40.1298 15.3241 38.746 16.3689 37.3622C17.4137 35.9784 18.8068 35.2865 20.5482 35.2865L202.694 14.5298C205.829 14.1838 208.963 16.6055 209.311 19.719L220.456 116.584C220.804 120.043 218.366 122.811 215.232 123.157L33.086 143.914C32.3894 144.26 32.3894 144.26 32.0411 144.26ZM203.042 20.0649L20.8965 40.4757C20.5482 40.4757 20.1999 40.8217 20.1999 41.5136L31.3446 138.378C31.3446 138.724 31.6929 139.07 32.3894 139.07L214.535 118.314C214.884 118.314 215.232 117.968 215.232 117.276L204.087 20.7568C204.087 20.0649 203.739 20.0649 203.042 20.0649Z" fill="#21365F"></path> <path d="M49.1064 51.2L177.967 36.6703C179.012 44.2811 185.629 49.8162 193.291 48.7784L198.515 92.3676C190.853 93.4054 185.281 99.9784 186.325 107.589L57.4649 122.119C56.4201 114.508 49.8029 108.973 42.1409 110.011L37.2651 66.0757C44.5788 65.7297 49.8029 58.8108 49.1064 51.2Z" fill="#FFE388"></path> <path d="M187.719 86.8325L182.843 44.627C180.405 42.5514 179.012 39.7838 178.664 36.6703L48.0618 51.546C48.7583 58.8108 43.8825 65.0379 36.5688 66.0757L41.7929 111.049C44.9274 110.703 48.0618 111.741 50.848 113.47L178.315 98.9406C180.057 94.0973 183.191 89.6 187.719 86.8325Z" fill="white"></path> <path d="M57.1168 125.232C55.7237 125.232 54.6789 124.194 54.6789 122.81C53.9823 116.583 48.41 112.086 42.1411 112.778C40.748 112.778 39.3549 112.086 39.3549 110.356L34.1309 66.7672C34.1309 66.0753 34.1309 65.3834 34.8274 64.6915C35.1757 63.9996 35.8722 63.6537 36.5688 63.6537C42.8376 62.9618 47.3652 57.4267 46.6686 51.1996C46.6686 50.5077 46.6686 49.8159 47.3652 49.124C47.7134 48.4321 48.41 48.0861 49.1065 48.0861L177.967 33.5564C178.663 33.5564 179.36 33.5564 180.057 34.2483C180.753 34.5942 181.101 35.2861 181.101 35.978C181.45 39.0915 182.843 41.5132 185.281 43.5888C187.719 45.3186 190.505 46.3564 193.639 46.0105C194.336 46.0105 195.032 46.0104 195.729 46.7023C196.425 47.0483 196.774 47.7402 196.774 48.4321L201.649 92.3672C201.649 93.0591 201.649 93.751 200.953 94.4429C200.605 95.1348 199.908 95.4807 199.212 95.4807C196.077 95.8267 193.639 97.2104 191.55 99.6321C189.808 102.054 188.763 104.821 189.112 107.935C189.112 108.627 189.112 109.319 188.415 110.01C188.067 110.702 187.37 111.048 186.674 111.048L57.1168 125.232C57.465 124.886 57.465 125.232 57.1168 125.232ZM44.2307 107.589C51.1962 107.935 57.465 112.778 59.5547 119.697L183.539 105.513C183.539 102.054 184.932 98.9402 187.022 96.1726C189.112 93.405 192.246 91.3294 195.381 90.6375L190.853 51.5456C187.37 51.5456 184.236 50.1618 181.45 48.0861C178.663 46.0104 176.574 42.8969 175.877 39.7834L51.8927 53.9672C51.5444 60.8861 46.6686 67.1132 39.7032 69.1888L44.2307 107.589Z" fill="#21365F"></path> <path d="M83.2368 83.3731C83.9334 89.6001 79.4058 95.1352 73.1369 96.1731C66.8681 96.865 61.2957 92.3677 60.2509 86.1406C59.5544 79.9136 64.0819 74.3785 70.3508 73.3406C76.9679 72.6487 82.5403 77.146 83.2368 83.3731Z" fill="white"></path> <path d="M77.6649 74.7244C78.3614 80.9514 73.8339 86.4865 67.565 87.1784C65.1271 87.5244 62.6892 86.8325 60.5996 85.7946C61.2962 93.0595 68.6098 97.9027 75.9235 95.1352C80.1028 93.7514 82.889 89.946 83.2372 85.7946C83.9338 81.2973 81.4959 77.146 77.6649 74.7244Z" fill="#FFE388"></path> <path d="M71.7442 98.5947C68.6098 98.5947 65.4753 97.5568 63.0374 95.4812C60.2513 93.0595 58.1616 89.946 57.8134 86.1406C56.7686 78.5298 62.3409 71.6109 70.3511 70.5731C78.0131 69.8812 84.9785 75.0703 86.0234 83.0271C87.0682 90.6379 81.4958 97.5568 73.4856 98.5947C73.1373 98.5947 72.4408 98.5947 71.7442 98.5947ZM72.0925 75.7622C71.7442 75.7622 71.396 75.7622 71.0477 75.7622C68.6098 76.1082 66.5202 77.146 65.1271 78.8758C63.734 80.6055 63.0374 83.0271 63.3857 85.4487C63.734 87.8704 64.7788 89.946 66.5202 91.3298C68.2615 92.7136 70.6994 93.4055 73.1373 93.0595C78.0131 92.3676 81.4958 88.2163 80.7993 83.3731C80.1027 79.2217 76.2718 75.7622 72.0925 75.7622Z" fill="#21365F"></path> <path d="M174.833 72.9946C175.529 79.2217 171.002 84.7568 164.733 85.7946C158.464 86.4865 152.891 81.9892 151.847 75.7622C151.15 69.5352 155.678 64.0001 161.946 62.9622C168.215 62.2703 173.788 66.7676 174.833 72.9946Z" fill="white"></path> <path d="M168.912 64.3464C169.609 70.5735 165.081 76.1086 158.812 76.8005C156.374 77.1464 153.936 76.4545 151.847 75.4167C152.543 82.6816 159.857 87.5248 167.171 84.7572C171.35 83.3735 174.136 79.5681 174.484 75.4167C175.181 70.9194 172.743 66.7681 168.912 64.3464Z" fill="#FFE388"></path> <path d="M163.339 88.2162C156.374 88.2162 150.105 83.0271 149.409 75.7622C149.06 71.9568 150.105 68.4973 152.543 65.3838C154.981 62.6162 158.115 60.5406 161.946 60.1946C165.777 59.8487 169.26 60.8865 172.394 63.3081C175.181 65.7298 177.27 68.8433 177.619 72.6487C177.967 76.4541 176.922 79.9135 174.484 83.0271C172.046 85.7946 168.912 87.8703 165.081 88.2162C164.384 88.2162 163.688 88.2162 163.339 88.2162ZM163.339 65.3838C162.991 65.3838 162.643 65.3838 162.295 65.3838C159.857 65.7298 157.767 66.7676 156.374 68.4973C154.981 70.2271 154.284 72.6487 154.633 75.0703C155.329 79.9135 159.508 83.373 164.384 82.6811C166.822 82.3352 168.912 81.2973 170.305 79.5676C171.698 77.8379 172.394 75.4162 172.046 72.9946C171.698 70.573 170.653 68.4973 168.912 67.1135C167.17 66.0757 165.429 65.3838 163.339 65.3838Z" fill="#21365F"></path> <path d="M118.412 102.4C113.188 102.4 108.661 99.9785 106.223 95.4812C105.526 94.0974 105.875 92.7136 107.268 92.0217C108.661 91.3298 110.054 91.6758 110.75 93.0596C112.492 95.8271 115.975 97.5569 119.457 97.2109C121.895 96.865 123.985 95.8271 125.378 94.0974C126.771 92.3677 127.468 90.6379 127.119 88.5623C126.771 85.1028 124.681 81.2974 117.716 81.9893C113.188 82.3352 109.706 81.6433 106.919 79.5677C104.482 77.492 102.74 74.7244 102.392 70.919C102.044 67.4595 103.089 64.0001 105.526 61.2325C107.964 58.8109 111.447 57.0812 114.93 56.7352C120.85 56.0433 126.074 58.8109 128.861 63.3082C129.557 64.692 129.209 66.0758 127.816 66.7677C126.423 67.4595 125.03 67.1136 124.333 65.7298C122.592 62.9622 119.109 61.2325 115.626 61.5785C113.188 61.9244 111.099 62.9623 109.706 64.692C108.313 66.4217 107.616 68.1514 107.964 70.2271C108.313 71.9568 108.661 74.0325 110.402 75.4163C112.144 76.8001 114.233 77.146 117.368 76.8001C127.468 75.7623 131.995 81.9893 132.692 87.8704C133.04 91.3298 131.995 94.7893 129.557 97.5569C127.119 100.324 123.985 102.054 120.154 102.4C119.806 102.4 119.109 102.4 118.412 102.4Z" fill="#21365F"></path> <path d="M120.502 107.935C119.109 107.935 118.064 106.897 118.064 105.514L117.368 99.9784C117.368 98.5946 118.064 97.2108 119.806 97.2108C121.199 97.2108 122.592 97.9027 122.592 99.6324L123.288 105.168C123.288 106.551 122.243 107.935 120.502 107.935C120.85 107.935 120.85 107.935 120.502 107.935Z" fill="#21365F"></path> <path d="M115.278 61.9244C113.885 61.9244 112.84 60.8866 112.84 59.5028L112.144 53.9676C112.144 52.5839 112.84 51.2001 114.581 51.2001C115.975 51.2001 117.368 51.892 117.368 53.6217L118.064 59.1568C118.064 60.1947 117.019 61.5784 115.278 61.9244C115.626 61.9244 115.278 61.9244 115.278 61.9244Z" fill="#21365F"></path> <path d="M65.4753 230.4C44.9273 235.589 24.031 223.481 18.8069 203.416C13.5828 183.006 25.7723 162.249 45.9721 157.06C66.5201 151.87 87.4164 163.978 92.6405 184.043C98.2128 204.454 86.0233 225.211 65.4753 230.4Z" fill="white"></path> <path d="M68.9577 158.097C74.8783 162.941 79.0576 169.514 81.1472 177.47C86.3713 197.881 74.1818 218.638 53.982 223.827C45.9718 225.903 38.3098 225.211 30.9961 222.789C40.0512 230.746 52.9372 233.86 65.475 230.746C86.023 225.557 98.2125 204.454 92.6401 184.389C89.5057 171.589 80.1024 162.249 68.9577 158.097Z" fill="#FFE388"></path> <path d="M55.7236 234.551C37.6135 234.551 20.8964 222.443 16.0206 204.108C10.4483 182.314 23.3343 160.173 45.2754 154.292C67.2165 148.757 89.5059 161.557 95.4265 183.351C100.999 205.146 88.1128 227.287 66.1717 233.168C62.689 233.86 59.2063 234.551 55.7236 234.551ZM55.7236 158.097C52.5891 158.097 49.803 158.443 46.6685 159.135C27.5136 163.979 16.3689 183.697 21.2447 202.379C26.1205 221.406 45.6237 232.476 64.7786 227.633C83.9336 222.789 95.0783 203.07 90.2025 184.389C86.0232 168.822 71.3958 158.097 55.7236 158.097Z" fill="#21365F"></path> <path d="M82.1922 186.811C82.5405 188.541 81.4956 190.617 79.7543 190.963C78.0129 191.309 75.9233 190.271 75.575 188.541C75.2268 186.811 76.2716 184.736 78.0129 184.39C79.7543 183.698 81.8439 185.082 82.1922 186.811Z" fill="#21365F"></path> <path d="M35.8719 198.919C36.2201 200.649 35.1753 202.724 33.434 203.07C31.6926 203.416 29.603 202.378 29.2547 200.649C28.9064 198.919 29.9513 196.843 31.6926 196.497C33.434 195.805 35.5236 197.189 35.8719 198.919Z" fill="#21365F"></path> <path d="M57.8133 216.562C53.634 216.562 49.4548 214.832 47.0169 211.373C45.9721 210.335 46.3203 208.605 47.3651 207.568C48.41 206.53 50.1513 206.876 51.1961 207.914C53.2858 210.335 56.7685 211.719 60.2512 210.681C62.6891 209.989 64.4304 208.605 65.8235 206.876C66.8683 205.146 67.2166 203.07 66.8683 200.995C65.8235 197.535 63.3856 194.076 56.4202 195.805C46.6686 198.573 41.4445 193.038 39.7032 186.811C38.6584 183.351 39.3549 179.892 41.4445 176.778C43.5342 174.011 46.3203 171.589 49.803 170.897C55.3754 169.514 60.9477 171.243 64.4304 175.395C65.4753 176.433 65.127 178.162 64.0822 179.2C63.0374 180.238 61.296 179.892 60.2512 178.854C58.1616 176.433 54.6788 175.049 51.1961 176.087C48.7582 176.778 47.0169 178.162 45.6238 179.892C44.579 181.622 44.2307 183.697 44.579 185.773C45.6238 189.233 48.0617 192.692 55.0271 190.962C65.127 188.541 70.3511 193.73 71.7441 199.957C72.789 203.416 72.0924 206.876 70.0028 209.989C67.9132 212.757 65.127 215.178 61.6443 215.87C60.2512 216.216 59.2064 216.562 57.8133 216.562Z" fill="#21365F"></path> <path d="M50.4993 176.778C49.4545 176.778 48.4097 176.087 48.0614 174.703L46.6683 169.168C46.3201 167.784 47.0166 166.4 48.4097 166.054C49.8028 165.708 51.1959 166.4 51.5441 167.784L52.9372 173.319C53.2855 174.703 52.589 176.087 51.1959 176.432C50.8476 176.778 50.8476 176.778 50.4993 176.778Z" fill="#21365F"></path> <path d="M62.3406 221.405C61.2958 221.405 60.251 220.713 59.9027 219.329L58.5096 213.794C58.1614 212.41 58.8579 211.027 60.251 210.681C61.6441 210.335 63.0372 211.027 63.3855 212.41L64.7785 217.946C65.1268 219.329 64.4303 220.713 63.0372 221.059C62.6889 221.405 62.6889 221.405 62.3406 221.405Z" fill="#21365F"></path> <path d="M234.387 113.47C232.994 113.47 231.949 112.433 231.949 111.049L226.028 60.8866C226.028 59.5028 226.725 58.119 228.466 58.119C229.859 58.119 231.252 58.8109 231.252 60.5406L237.173 110.703C237.173 111.741 236.128 113.124 234.387 113.47C234.735 113.47 234.387 113.47 234.387 113.47Z" fill="#21365F"></path> <path d="M227.073 49.8162C225.68 49.8162 224.635 48.7784 224.635 47.3946L223.242 36.6703C223.242 35.2865 223.939 33.9027 225.68 33.9027C227.073 33.9027 228.466 34.5946 228.466 36.3243L229.859 47.0487C229.859 48.0865 228.815 49.4703 227.073 49.8162C227.421 49.8162 227.073 49.8162 227.073 49.8162Z" fill="#21365F"></path> </g> <defs> <clipPath id="clip0_156_11038"> <rect width="68" height="64" fill="white" transform="scale(4)"></rect> </clipPath> </defs> </svg> 