<?xml version="1.0" encoding="UTF-8"?> <svg xmlns="http://www.w3.org/2000/svg" width="192" height="196" viewBox="0 0 192 196" fill="none"> <g clip-path="url(#clip0_259_904)"> <path d="M171.028 25.5293H44.4099C38.8736 25.5549 33.5721 27.7286 29.662 31.5764C25.7518 35.4242 23.5501 40.6339 23.5371 46.0691V192.851C23.5371 193.686 23.875 194.487 24.4765 195.078C25.078 195.668 25.8939 196 26.7445 196H188.792C189.643 196 190.459 195.668 191.06 195.078C191.662 194.487 192 193.686 192 192.851V46.0691C191.987 40.6171 189.771 35.3929 185.84 31.5423C181.908 27.6917 176.582 25.5293 171.028 25.5293Z" fill="#074EA3"></path> <path d="M48.3081 31.7301C47.1826 31.7301 46.1032 31.2912 45.3074 30.5099C44.5116 29.7286 44.0645 28.6689 44.0645 27.564V4.16609C44.0645 3.06117 44.5116 2.00151 45.3074 1.22022C46.1032 0.438926 47.1826 0 48.3081 0C49.4336 0 50.513 0.438926 51.3088 1.22022C52.1046 2.00151 52.5517 3.06117 52.5517 4.16609V27.564C52.5389 28.665 52.0877 29.7174 51.2946 30.496C50.5016 31.2746 49.4296 31.7175 48.3081 31.7301Z" fill="#013177"></path> <path d="M168.167 31.7301C167.042 31.7301 165.963 31.2912 165.167 30.5099C164.371 29.7286 163.924 28.6689 163.924 27.564V4.16609C163.924 3.06117 164.371 2.00151 165.167 1.22022C165.963 0.438926 167.042 0 168.167 0C169.293 0 170.372 0.438926 171.168 1.22022C171.964 2.00151 172.411 3.06117 172.411 4.16609V27.564C172.398 28.665 171.947 29.7174 171.154 30.496C170.361 31.2746 169.289 31.7175 168.167 31.7301Z" fill="#013177"></path> <path d="M135.55 112.291H79.248V154.097H135.55V112.291Z" fill="white"></path> <path d="M79.1987 112.291H22.8965V154.097H79.1987V112.291Z" fill="#013177"></path> <path d="M135.896 70.4844H79.5938V112.291H135.896V70.4844Z" fill="#013177"></path> <path d="M135.896 154.145H79.5938V195.951H135.896V154.145Z" fill="#013177"></path> <path d="M191.753 112.291H135.451V154.097H191.753V112.291Z" fill="#013177"></path> <path d="M138.165 96.4983L119.217 77.8962C118.63 77.3133 117.831 76.9824 116.996 76.9758C116.146 76.9801 115.332 77.3104 114.726 77.8962L51.3184 140.145L22.6492 112C22.0496 111.423 21.2436 111.1 20.404 111.1C19.5645 111.1 18.7584 111.423 18.1588 112L0.937548 128.907C0.3408 129.501 0.00433495 130.301 0 131.135C0.0066575 131.955 0.343754 132.739 0.937548 133.315L50.7756 182.242C51.0705 182.539 51.4238 182.774 51.8141 182.932C52.2043 183.09 52.6233 183.169 53.0455 183.163C53.4602 183.168 53.8716 183.089 54.2537 182.93C54.6358 182.772 54.9804 182.538 55.266 182.242L138.165 100.907C138.753 100.318 139.082 99.5267 139.082 98.7025C139.082 97.8783 138.753 97.0869 138.165 96.4983Z" fill="#FBB040"></path> <path d="M52.1581 140.097H51.5166L22.65 112C22.0504 111.423 21.2444 111.1 20.4048 111.1C19.5653 111.1 18.7592 111.423 18.1596 112L0.938343 128.907C0.350661 129.495 0.0214844 130.286 0.0214844 131.111C0.0214844 131.935 0.350661 132.726 0.938343 133.315L50.5297 182C50.9564 182.463 51.5305 182.77 52.1581 182.872V140.097Z" fill="#F7941E"></path> <path d="M171.028 25.5293H44.4099C38.8736 25.5549 33.5721 27.7286 29.662 31.5764C25.7518 35.4242 23.5501 40.6339 23.5371 46.0691V68.1591C23.5371 68.5703 23.6204 68.9775 23.7821 69.3568C23.9439 69.7362 24.181 70.0801 24.4795 70.3686C24.778 70.6572 25.1319 70.8845 25.5208 71.0375C25.9097 71.1904 26.3257 71.2658 26.7445 71.2594H188.792C189.211 71.2658 189.627 71.1904 190.016 71.0375C190.405 70.8845 190.759 70.6572 191.057 70.3686C191.356 70.0801 191.593 69.7362 191.755 69.3568C191.916 68.9775 192 68.5703 192 68.1591V46.0691C191.987 40.6172 189.771 35.3929 185.84 31.5423C181.908 27.6917 176.582 25.5293 171.028 25.5293Z" fill="#F7941E"></path> </g> <defs> <clipPath id="clip0_259_904"> <rect width="48" height="49" fill="white" transform="scale(4)"></rect> </clipPath> </defs> </svg> 