<?xml version="1.0" encoding="UTF-8"?> <svg xmlns="http://www.w3.org/2000/svg" width="48" height="47" viewBox="0 0 48 47" fill="none"> <path fill-rule="evenodd" clip-rule="evenodd" d="M0 3.52476V7.04952H3.87097H7.74194V8.26624V9.48287L8.25832 9.72216C8.89171 10.0155 9.399 10.5149 9.74864 11.1894C9.97684 11.6295 10.0134 11.8154 10.0134 12.5325C10.0134 13.2496 9.97684 13.4354 9.74864 13.8755C9.399 14.55 8.89171 15.0494 8.25832 15.3428L7.74194 15.5821V17.9692V20.3565L8.39516 20.1034C9.60126 19.6359 9.9001 19.5661 10.5028 19.6107C11.5106 19.6853 12.3621 20.2596 12.8554 21.1975L13.1129 21.687V25.8482V30.0094L12.8847 30.45C12.3829 31.419 11.5215 32.0104 10.5018 32.0859C9.8999 32.1304 9.60106 32.0604 8.39197 31.5919L7.73555 31.3375L7.76294 38.0167L7.79032 44.6959L8.05113 45.1959C8.43784 45.9376 8.72942 46.2422 9.40635 46.6115C9.96319 46.9153 10.0875 46.9442 10.8387 46.9442C11.59 46.9442 11.7142 46.9153 12.2711 46.6115C12.9502 46.241 13.2435 45.9338 13.6224 45.1959C13.8414 44.7695 13.8793 44.5734 13.8793 43.8637C13.8793 43.1539 13.8414 42.9578 13.6224 42.5314C13.4811 42.2563 13.2565 41.9002 13.1233 41.7399C12.8022 41.3539 11.8711 40.8626 11.2984 40.777L10.8387 40.7083V39.9361V39.164H25.5484H40.2581V35.252V31.34L39.6048 31.5931C38.3993 32.0603 38.0997 32.1303 37.4982 32.0859C36.4785 32.0104 35.6171 31.419 35.1153 30.45L34.8871 30.0094V25.8482V21.687L35.1446 21.1975C35.6379 20.2596 36.4894 19.6853 37.4972 19.6107C38.0999 19.5661 38.3987 19.6359 39.6048 20.1034L40.2581 20.3565V17.9692V15.5821L39.7417 15.3428C39.1083 15.0494 38.601 14.55 38.2514 13.8755C38.0232 13.4354 37.9866 13.2496 37.9866 12.5325C37.9866 11.8154 38.0232 11.6295 38.2514 11.1894C38.601 10.5149 39.1083 10.0155 39.7417 9.72216L40.2581 9.48287V8.26624V7.04952H44.129H48V3.52476V0H24H0V3.52476ZM6.9 1.70353C6.72406 2.01479 4.68968 4.88698 4.64516 4.88698C4.60065 4.88698 2.56626 2.01479 2.39032 1.70353C2.325 1.58781 2.67484 1.56656 4.64516 1.56656C6.61548 1.56656 6.96532 1.58781 6.9 1.70353ZM14.6419 1.70353C14.466 2.01479 12.4316 4.88698 12.3871 4.88698C12.3426 4.88698 10.3082 2.01479 10.1323 1.70353C10.0669 1.58781 10.4168 1.56656 12.3871 1.56656C14.3574 1.56656 14.7073 1.58781 14.6419 1.70353ZM22.3839 1.70353C22.2079 2.01479 20.1735 4.88698 20.129 4.88698C20.0845 4.88698 18.0501 2.01479 17.8742 1.70353C17.8089 1.58781 18.1587 1.56656 20.129 1.56656C22.0994 1.56656 22.4492 1.58781 22.3839 1.70353ZM30.1258 1.70353C29.9499 2.01479 27.9155 4.88698 27.871 4.88698C27.8265 4.88698 25.7921 2.01479 25.6161 1.70353C25.5508 1.58781 25.9006 1.56656 27.871 1.56656C29.8413 1.56656 30.1911 1.58781 30.1258 1.70353ZM37.8677 1.70353C37.6918 2.01479 35.6574 4.88698 35.6129 4.88698C35.5684 4.88698 33.534 2.01479 33.3581 1.70353C33.2927 1.58781 33.6426 1.56656 35.6129 1.56656C37.5832 1.56656 37.9331 1.58781 37.8677 1.70353ZM45.6097 1.70353C45.4337 2.01479 43.3994 4.88698 43.3548 4.88698C43.3103 4.88698 41.2759 2.01479 41.1 1.70353C41.0347 1.58781 41.3845 1.56656 43.3548 1.56656C45.3252 1.56656 45.675 1.58781 45.6097 1.70353ZM9.70723 3.79832L10.8499 5.434L9.68303 5.46151C9.04123 5.47659 7.99103 5.47659 7.34923 5.46151L6.18232 5.434L7.32503 3.79832C7.95348 2.89862 8.48952 2.16254 8.51613 2.16254C8.54274 2.16254 9.07877 2.89862 9.70723 3.79832ZM17.4492 3.79832L18.5919 5.434L17.425 5.46151C16.7832 5.47659 15.733 5.47659 15.0912 5.46151L13.9243 5.434L15.067 3.79832C15.6954 2.89862 16.2315 2.16254 16.2581 2.16254C16.2847 2.16254 16.8207 2.89862 17.4492 3.79832ZM25.1911 3.79832L26.3338 5.434L25.1669 5.46151C24.5251 5.47659 23.4749 5.47659 22.8331 5.46151L21.6662 5.434L22.8089 3.79832C23.4374 2.89862 23.9734 2.16254 24 2.16254C24.0266 2.16254 24.5626 2.89862 25.1911 3.79832ZM32.933 3.79832L34.0757 5.434L32.9088 5.46151C32.267 5.47659 31.2168 5.47659 30.575 5.46151L29.4081 5.434L30.5508 3.79832C31.1793 2.89862 31.7153 2.16254 31.7419 2.16254C31.7685 2.16254 32.3046 2.89862 32.933 3.79832ZM40.675 3.79832L41.8177 5.434L40.6508 5.46151C40.009 5.47659 38.9588 5.47659 38.317 5.46151L37.1501 5.434L38.2928 3.79832C38.9212 2.89862 39.4573 2.16254 39.4839 2.16254C39.5105 2.16254 40.0465 2.89862 40.675 3.79832ZM2.29655 4.28356C2.66477 4.80855 2.99806 5.2933 3.03716 5.36057C3.09155 5.45427 2.92558 5.48296 2.32829 5.48296H1.54839V4.40595C1.54839 3.81359 1.5661 3.32894 1.58768 3.32894C1.60926 3.32894 1.92823 3.75857 2.29655 4.28356ZM46.4185 5.45123C46.3965 5.47346 46.0442 5.47865 45.6356 5.46279L44.8928 5.434L45.648 4.35758L46.4032 3.28106L46.4308 4.34593C46.446 4.93163 46.4405 5.42901 46.4185 5.45123ZM13.9355 9.09192V11.1343L14.2703 11.4935C14.8632 12.1295 14.8496 13.0015 14.2372 13.621C13.6095 14.2561 12.7131 14.2561 12.0854 13.621C11.473 13.0015 11.4594 12.1295 12.0523 11.4935L12.3871 11.1343V9.09192V7.04952H13.1613H13.9355V9.09192ZM35.6129 9.09192V11.1343L35.9477 11.4935C36.5406 12.1295 36.527 13.0015 35.9146 13.621C35.2869 14.2561 34.3905 14.2561 33.7628 13.621C33.1504 13.0015 33.1368 12.1295 33.7297 11.4935L34.0645 11.1343V9.09192V7.04952H34.8387H35.6129V9.09192ZM6.33387 11.1037C5.35752 11.5339 5.1269 12.8471 5.89181 13.621C6.51958 14.2561 7.4159 14.2561 8.04368 13.621C9.24474 12.4058 7.89348 10.4163 6.33387 11.1037ZM40.3984 11.1037C39.422 11.5339 39.1914 12.8471 39.9563 13.621C40.5841 14.2561 41.4804 14.2561 42.1082 13.621C43.3093 12.4058 41.958 10.4163 40.3984 11.1037ZM6.96919 22.3124L3.92226 23.4775L3.80768 23.2019C3.63629 22.7894 3.40239 22.7151 2.27613 22.7151C1.31487 22.7151 1.23406 22.7305 1.01177 22.9555L0.774194 23.1957V25.8482V28.5007L1.01177 28.741C1.23077 28.9626 1.32126 28.9813 2.17306 28.9813H3.09677V36.4225V43.8637H1.54839H0V44.6469V45.4302H3.22781H6.45552L6.32458 44.9193C6.25248 44.6383 6.19355 44.2858 6.19355 44.136V43.8637H5.41935H4.64516V36.1802V28.4967L5.39516 28.7782C5.80771 28.933 7.02832 29.3945 8.10765 29.8038C9.18706 30.213 10.1821 30.5479 10.3188 30.5479C10.6711 30.5479 11.1442 30.2933 11.371 29.9817C11.5569 29.7262 11.5645 29.5618 11.5645 25.8254V21.9351L11.2137 21.5801C10.5943 20.9535 10.4644 20.9759 6.96919 22.3124ZM37.2097 21.2424C37.1032 21.2873 36.8855 21.4637 36.7258 21.6344L36.4355 21.9447V25.853V29.7614L36.7829 30.1129C37.3897 30.7268 37.5111 30.7085 40.5968 29.5388L43.3064 28.5118L43.3319 34.1561L43.3574 39.8004L43.7006 40.0373C43.8895 40.1677 44.2373 40.4919 44.4735 40.7579L44.9032 41.2412V35.1113V28.9813H45.8269C46.6787 28.9813 46.7692 28.9626 46.9882 28.741L47.2258 28.5007V25.8482V23.1957L46.9882 22.9555C46.7659 22.7305 46.6851 22.7151 45.7239 22.7151C44.5976 22.7151 44.3637 22.7894 44.1923 23.2019L44.0777 23.4775L41.0308 22.3177C38.0874 21.1972 37.6256 21.0673 37.2097 21.2424ZM14.6593 41.217C15.2513 42.107 15.4252 42.7081 15.4252 43.8637C15.4252 45.0192 15.2513 45.6203 14.6593 46.5103L14.3335 47L28.0941 46.974L41.8548 46.9478L42.4646 46.6133C43.1442 46.2405 43.4374 45.933 43.816 45.1959C44.035 44.7695 44.0728 44.5734 44.0728 43.8637C44.0728 43.1539 44.035 42.9578 43.816 42.5314C43.4374 41.7943 43.1442 41.4868 42.4646 41.114L41.8548 40.7795L28.0941 40.7533L14.3335 40.7273L14.6593 41.217ZM45.631 44.4203C45.5932 44.7264 45.5239 45.0789 45.4771 45.2035L45.3919 45.4302H46.696H48V44.6469V43.8637H46.8498H45.6997L45.631 44.4203Z" fill="#7994D1"></path> </svg> 