<?xml version="1.0" encoding="UTF-8"?> <svg xmlns="http://www.w3.org/2000/svg" width="208" height="188" viewBox="0 0 208 188" fill="none"> <g clip-path="url(#clip0_259_922)"> <path d="M205.22 24.6804H48.4204C46.9089 24.6804 45.6836 25.9019 45.6836 27.4087V165.67C45.6836 167.177 46.9089 168.398 48.4204 168.398H205.22C206.732 168.398 207.957 167.177 207.957 165.67V27.4087C207.957 25.9019 206.732 24.6804 205.22 24.6804Z" fill="#074EA3"></path> <path d="M207.158 25.4361L181.895 0.755561C181.359 0.256921 180.649 -0.0140596 179.916 3.52495e-05H73.7263C73.0239 0.015196 72.3507 0.283609 71.8316 0.755561L46.3158 25.4361C45.9134 25.8065 45.6337 26.2905 45.5142 26.8234C45.3946 27.3563 45.4408 27.9128 45.6466 28.4189C45.8524 28.925 46.2081 29.3565 46.6661 29.656C47.1242 29.9554 47.6629 30.1086 48.2105 30.0951H205.263C205.805 30.1008 206.335 29.9436 206.786 29.6441C207.237 29.3446 207.586 28.9167 207.789 28.4162C207.993 27.9132 208.042 27.3609 207.93 26.8301C207.817 26.2993 207.548 25.8139 207.158 25.4361Z" fill="#013177"></path> <path d="M175.116 130.118C171.349 130.118 167.736 128.629 165.068 125.978C162.4 123.326 160.896 119.729 160.885 115.973V97.6306C160.896 96.9144 161.189 96.2311 161.701 95.7285C162.213 95.2259 162.903 94.9443 163.622 94.9443H186.611C187.33 94.9443 188.02 95.2259 188.532 95.7285C189.044 96.2311 189.337 96.9144 189.348 97.6306V115.973C189.337 119.729 187.832 123.326 185.165 125.978C182.497 128.629 178.884 130.118 175.116 130.118ZM166.316 100.359V115.973C166.327 118.292 167.26 120.513 168.909 122.149C170.558 123.785 172.79 124.704 175.116 124.704C177.439 124.704 179.667 123.784 181.309 122.147C182.952 120.509 183.874 118.289 183.874 115.973V100.359H166.316Z" fill="#F7941E"></path> <path d="M186.611 153.204H163.622C162.896 153.204 162.2 152.916 161.686 152.405C161.173 151.893 160.885 151.199 160.885 150.475C160.885 150.119 160.956 149.766 161.094 149.438C161.232 149.109 161.434 148.811 161.689 148.561C161.944 148.311 162.246 148.114 162.577 147.981C162.909 147.849 163.264 147.784 163.622 147.789H186.611C186.968 147.784 187.323 147.849 187.655 147.981C187.987 148.114 188.289 148.311 188.544 148.561C188.799 148.811 189.001 149.109 189.139 149.438C189.277 149.766 189.348 150.119 189.348 150.475C189.348 151.199 189.06 151.893 188.546 152.405C188.033 152.916 187.337 153.204 186.611 153.204Z" fill="#F7941E"></path> <path d="M175.115 153.204C174.389 153.204 173.693 152.916 173.18 152.405C172.667 151.893 172.378 151.199 172.378 150.476V127.432C172.33 127.048 172.365 126.659 172.479 126.289C172.594 125.919 172.786 125.578 173.043 125.288C173.3 124.998 173.615 124.766 173.969 124.607C174.323 124.448 174.706 124.366 175.094 124.366C175.482 124.366 175.866 124.448 176.22 124.607C176.573 124.766 176.889 124.998 177.146 125.288C177.403 125.578 177.595 125.919 177.709 126.289C177.824 126.659 177.858 127.048 177.81 127.432V150.476C177.81 151.192 177.528 151.88 177.023 152.39C176.519 152.901 175.834 153.193 175.115 153.204Z" fill="#F7941E"></path> <path d="M140.589 29.9272H112.631V168.566H140.589V29.9272Z" fill="#FBB040"></path> <path d="M80.3359 127.852L104.462 151.861L80.3359 127.852Z" fill="#F7941E"></path> <path d="M104.463 154.589C104.102 154.594 103.745 154.526 103.412 154.389C103.079 154.252 102.777 154.049 102.526 153.791L78.3995 129.741C77.8981 129.231 77.6172 128.545 77.6172 127.831C77.6172 127.117 77.8981 126.431 78.3995 125.921C78.9182 125.418 79.6131 125.137 80.3364 125.137C81.0597 125.137 81.7545 125.418 82.2732 125.921L106.357 149.972C106.616 150.219 106.822 150.515 106.962 150.843C107.103 151.172 107.175 151.525 107.175 151.882C107.175 152.239 107.103 152.592 106.962 152.92C106.822 153.248 106.616 153.545 106.357 153.791C106.114 154.047 105.82 154.25 105.494 154.387C105.168 154.525 104.817 154.593 104.463 154.589Z" fill="white"></path> <path d="M137.18 169.825L109.769 142.71C108.79 141.665 107.609 140.826 106.297 140.245C104.986 139.664 103.571 139.351 102.136 139.327C100.7 139.303 99.2752 139.566 97.9445 140.102C96.6139 140.639 95.4051 141.436 94.3902 142.448C93.3753 143.46 92.5751 144.665 92.0373 145.991C91.4994 147.318 91.2348 148.739 91.2594 150.169C91.2839 151.6 91.5971 153.011 92.1802 154.318C92.7633 155.625 93.6044 156.802 94.6533 157.779L122.106 184.894C123.096 185.88 124.271 186.661 125.564 187.194C126.858 187.727 128.243 188.001 129.643 188C132.48 187.995 135.202 186.88 137.222 184.894C139.219 182.889 140.337 180.176 140.329 177.351C140.321 174.526 139.188 171.819 137.18 169.825Z" fill="#013177"></path> <path d="M45.8533 67.3678C46.5533 67.346 47.2172 67.0534 47.7045 66.5519C48.1918 66.0505 48.4641 65.3796 48.4638 64.6815V50.3685C48.4635 50.0063 48.3887 49.6481 48.2438 49.3159C48.099 48.9838 47.8872 48.6849 47.6217 48.4377C47.3695 48.1841 47.067 47.9858 46.7334 47.8557C46.3999 47.7256 46.0427 47.6665 45.6848 47.6822C33.6602 47.9619 22.2095 52.8648 13.727 61.3656C7.29736 67.8499 2.90579 76.0637 1.0908 84.9998C-0.724191 93.9359 0.116298 103.206 3.50919 111.673C6.90209 120.14 12.6999 127.435 20.1916 132.665C27.6833 137.895 36.5432 140.832 45.6848 141.115C46.4035 141.116 47.0933 140.834 47.6054 140.331C48.1174 139.829 48.4106 139.145 48.4217 138.429V124.494C48.4224 123.792 48.1515 123.116 47.6652 122.608C47.179 122.1 46.5149 121.798 45.8112 121.766C38.5526 121.766 31.5913 118.891 26.4588 113.775C21.3262 108.658 18.4427 101.719 18.4427 94.4828C18.4427 87.2469 21.3262 80.3074 26.4588 75.1909C31.5913 70.0743 38.5526 67.1999 45.8112 67.1999L45.8533 67.3678Z" fill="#F7941E"></path> <path d="M80.2099 61.4494C75.7142 56.9162 70.3256 53.3601 64.3835 51.0051C58.4413 48.6501 52.0744 47.5472 45.6836 47.766V67.3676C49.2777 67.3676 52.8365 68.0733 56.157 69.4444C59.4775 70.8155 62.4946 72.8252 65.036 75.3586C67.5774 77.8921 69.5933 80.8997 70.9687 84.2098C72.3441 87.5199 73.052 91.0677 73.052 94.6505C73.052 98.2334 72.3441 101.781 70.9687 105.091C69.5933 108.401 67.5774 111.409 65.036 113.942C62.4946 116.476 59.4775 118.486 56.157 119.857C52.8365 121.228 49.2777 121.933 45.6836 121.933V141.577H47.031C53.1942 141.596 59.3001 140.397 64.9952 138.048C70.6904 135.699 75.8617 132.248 80.2099 127.894C84.5932 123.535 88.0708 118.356 90.4436 112.656C92.8163 106.955 94.0377 100.844 94.0377 94.6715C94.0377 88.4995 92.8163 82.3881 90.4436 76.6873C88.0708 70.9865 84.5932 65.8084 80.2099 61.4494Z" fill="#FBB040"></path> <path d="M134.82 0.0839844H118.441L112.631 29.9273H140.589L134.82 0.0839844Z" fill="#F7941E"></path> </g> <defs> <clipPath id="clip0_259_922"> <rect width="52" height="47" fill="white" transform="scale(4)"></rect> </clipPath> </defs> </svg> 