<?xml version="1.0" encoding="UTF-8"?> <svg xmlns="http://www.w3.org/2000/svg" width="42" height="59" viewBox="0 0 42 59" fill="none"> <g clip-path="url(#clip0_120_66)"> <path d="M40.3088 59.0513H1.69132C1.46484 59.0514 1.24064 59.006 1.03204 58.9176C0.823427 58.8293 0.634655 58.6998 0.476916 58.537C0.319178 58.3742 0.195688 58.1813 0.113772 57.9697C0.0318551 57.7582 -0.00681874 57.5323 4.43365e-05 57.3055V7.30439C4.43365e-05 6.85497 0.178232 6.42396 0.495407 6.10618C0.812583 5.7884 1.24277 5.60987 1.69132 5.60987H10.0836C10.1869 5.60948 10.289 5.63065 10.3836 5.67201C10.4782 5.71338 10.5632 5.77404 10.6331 5.85013C10.703 5.92621 10.7564 6.01606 10.7897 6.11394C10.823 6.21181 10.8357 6.31558 10.8268 6.41862V10.2698C10.8251 10.4226 10.8537 10.5742 10.9108 10.7159C10.968 10.8575 11.0527 10.9864 11.16 11.0951C11.2672 11.2037 11.3949 11.29 11.5356 11.3488C11.6764 11.4077 11.8274 11.438 11.9799 11.438H30.0202C30.1727 11.438 30.3237 11.4077 30.4645 11.3488C30.6052 11.29 30.7329 11.2037 30.8401 11.0951C30.9474 10.9864 31.0321 10.8575 31.0893 10.7159C31.1464 10.5742 31.175 10.4226 31.1733 10.2698V6.41862C31.1733 6.22115 31.2516 6.03176 31.391 5.89213C31.5303 5.7525 31.7194 5.67405 31.9165 5.67405H40.3088C40.7573 5.67405 41.1875 5.85258 41.5047 6.17037C41.8219 6.48815 42 6.91916 42 7.36857V57.4338C41.9803 57.8698 41.7934 58.2813 41.4783 58.5826C41.1632 58.8839 40.7443 59.0518 40.3088 59.0513ZM1.69132 7.09899C1.63695 7.09899 1.58481 7.12063 1.54636 7.15915C1.50792 7.19767 1.48632 7.24991 1.48632 7.30439V57.3697C1.48632 57.4241 1.50792 57.4764 1.54636 57.5149C1.58481 57.5534 1.63695 57.5751 1.69132 57.5751H40.3088C40.3631 57.5751 40.4153 57.5534 40.4537 57.5149C40.4922 57.4764 40.5138 57.4241 40.5138 57.3697V7.30439C40.5138 7.24991 40.4922 7.19767 40.4537 7.15915C40.4153 7.12063 40.3631 7.09899 40.3088 7.09899H32.6212V10.1928C32.6179 10.8865 32.3441 11.5515 31.8581 12.0456C31.3721 12.5397 30.7125 12.8238 30.0202 12.8372H11.9799C11.2809 12.8339 10.6115 12.5542 10.1173 12.059C9.62303 11.5638 9.34387 10.8931 9.3405 10.1928V7.09899H1.69132Z" fill="#4C6FBF"></path> <path d="M36.1318 53.159H5.86825C5.67115 53.159 5.48213 53.0805 5.34277 52.9409C5.2034 52.8013 5.12511 52.6119 5.12511 52.4144V10.6805C5.12341 10.5817 5.14137 10.4835 5.17796 10.3916C5.21454 10.2998 5.26901 10.2162 5.33819 10.1457C5.40736 10.0752 5.48986 10.0192 5.58087 9.981C5.67188 9.94278 5.76957 9.92311 5.86825 9.92312H10.1477C10.3129 9.92394 10.4732 9.97992 10.6032 10.0822C10.7331 10.1845 10.8253 10.3273 10.8652 10.488C10.9298 10.7358 11.0739 10.9555 11.2753 11.1132C11.4767 11.2709 11.7243 11.3579 11.9799 11.3609H30.0202C30.2758 11.3579 30.5234 11.2709 30.7248 11.1132C30.9262 10.9555 31.0703 10.7358 31.1349 10.488C31.1727 10.3262 31.2643 10.1821 31.3947 10.0795C31.5252 9.97679 31.6865 9.92166 31.8524 9.92312H36.1318C36.2305 9.92311 36.3282 9.94278 36.4192 9.981C36.5102 10.0192 36.5927 10.0752 36.6619 10.1457C36.7311 10.2162 36.7855 10.2998 36.8221 10.3916C36.8587 10.4835 36.8767 10.5817 36.875 10.6805V16.6884C36.875 16.8858 36.7967 17.0752 36.6573 17.2148C36.5179 17.3545 36.3289 17.4329 36.1318 17.4329C35.9347 17.4329 35.7457 17.3545 35.6063 17.2148C35.467 17.0752 35.3887 16.8858 35.3887 16.6884V11.4251H32.3521C32.1353 11.8564 31.8015 12.2176 31.389 12.4674C30.9765 12.7172 30.5021 12.8453 30.0202 12.8372H11.9799C11.4979 12.8375 11.0249 12.7062 10.6118 12.4574C10.1987 12.2086 9.86104 11.8517 9.63518 11.4251H6.61138V51.6699H35.3887V35.2895C35.3887 35.0921 35.467 34.9027 35.6063 34.763C35.7457 34.6234 35.9347 34.545 36.1318 34.545C36.3289 34.545 36.5179 34.6234 36.6573 34.763C36.7967 34.9027 36.875 35.0921 36.875 35.2895V52.4144C36.875 52.6119 36.7967 52.8013 36.6573 52.9409C36.5179 53.0805 36.3289 53.159 36.1318 53.159Z" fill="#4C6FBF"></path> <path d="M36.1318 36.0341C35.9347 36.0341 35.7457 35.9556 35.6063 35.816C35.467 35.6764 35.3887 35.487 35.3887 35.2895V33.0558C35.3887 32.8584 35.467 32.669 35.6063 32.5294C35.7457 32.3897 35.9347 32.3113 36.1318 32.3113C36.3289 32.3113 36.5179 32.3897 36.6573 32.5294C36.7966 32.669 36.8749 32.8584 36.8749 33.0558V35.2895C36.8749 35.3873 36.8557 35.4841 36.8184 35.5745C36.781 35.6648 36.7263 35.7469 36.6573 35.816C36.5883 35.8851 36.5064 35.94 36.4162 35.9774C36.326 36.0148 36.2294 36.0341 36.1318 36.0341Z" fill="#4C6FBF"></path> <path d="M36.1318 29.102C35.9347 29.102 35.7457 29.0235 35.6063 28.8839C35.467 28.7443 35.3887 28.5549 35.3887 28.3574V23.6718C35.3887 23.4743 35.467 23.285 35.6063 23.1453C35.7457 23.0057 35.9347 22.9272 36.1318 22.9272C36.3289 22.9272 36.5179 23.0057 36.6573 23.1453C36.7966 23.285 36.8749 23.4743 36.8749 23.6718V28.3574C36.8749 28.5549 36.7966 28.7443 36.6573 28.8839C36.5179 29.0235 36.3289 29.102 36.1318 29.102Z" fill="#4C6FBF"></path> <path d="M36.1318 19.718C35.9347 19.718 35.7457 19.6396 35.6063 19.4999C35.467 19.3603 35.3887 19.1709 35.3887 18.9734V16.6884C35.3887 16.4909 35.467 16.3016 35.6063 16.1619C35.7457 16.0223 35.9347 15.9438 36.1318 15.9438C36.3289 15.9438 36.5179 16.0223 36.6573 16.1619C36.7966 16.3016 36.8749 16.4909 36.8749 16.6884V18.9221C36.882 19.0241 36.868 19.1265 36.8338 19.2228C36.7996 19.3192 36.746 19.4074 36.6763 19.4821C36.6065 19.5568 36.5222 19.6162 36.4285 19.6568C36.3349 19.6974 36.2339 19.7182 36.1318 19.718Z" fill="#4C6FBF"></path> <path d="M31.673 19.3841H20.5003C20.3032 19.3841 20.1142 19.3057 19.9749 19.1661C19.8355 19.0264 19.7572 18.8371 19.7572 18.6396C19.7572 18.4421 19.8355 18.2527 19.9749 18.1131C20.1142 17.9735 20.3032 17.895 20.5003 17.895H31.6602C31.8573 17.895 32.0463 17.9735 32.1857 18.1131C32.325 18.2527 32.4033 18.4421 32.4033 18.6396C32.4033 18.8371 32.325 19.0264 32.1857 19.1661C32.0463 19.3057 31.8573 19.3841 31.6602 19.3841H31.673Z" fill="#4C6FBF"></path> <path d="M31.673 23.9029H20.5003C20.3032 23.9029 20.1142 23.8245 19.9749 23.6849C19.8355 23.5452 19.7572 23.3559 19.7572 23.1584C19.7572 22.9609 19.8355 22.7715 19.9749 22.6319C20.1142 22.4923 20.3032 22.4138 20.5003 22.4138H31.6602C31.8573 22.4138 32.0463 22.4923 32.1857 22.6319C32.325 22.7715 32.4033 22.9609 32.4033 23.1584C32.4033 23.3559 32.325 23.5452 32.1857 23.6849C32.0463 23.8245 31.8573 23.9029 31.6602 23.9029H31.673Z" fill="#4C6FBF"></path> <path d="M31.6729 29.6797H20.5003C20.3495 29.6296 20.2183 29.5332 20.1253 29.4041C20.0323 29.2751 19.9823 29.12 19.9823 28.9608C19.9823 28.8017 20.0323 28.6466 20.1253 28.5175C20.2183 28.3885 20.3495 28.292 20.5003 28.2419H31.6601C31.842 28.2658 32.0091 28.3552 32.1301 28.4934C32.2511 28.6315 32.3179 28.8091 32.3179 28.9929C32.3179 29.1768 32.2511 29.3543 32.1301 29.4925C32.0091 29.6307 31.842 29.72 31.6601 29.7439L31.6729 29.6797Z" fill="#4C6FBF"></path> <path d="M31.6729 34.1985H20.5003C20.3183 34.1746 20.1513 34.0853 20.0303 33.9471C19.9093 33.8089 19.8425 33.6313 19.8425 33.4475C19.8425 33.2637 19.9093 33.0861 20.0303 32.948C20.1513 32.8098 20.3183 32.7204 20.5003 32.6965H31.6601C31.842 32.7204 32.0091 32.8098 32.1301 32.948C32.2511 33.0861 32.3179 33.2637 32.3179 33.4475C32.3179 33.6313 32.2511 33.8089 32.1301 33.9471C32.0091 34.0853 31.842 34.1746 31.6601 34.1985H31.6729Z" fill="#4C6FBF"></path> <path d="M31.673 39.9623H20.5003C20.3913 39.9876 20.278 39.988 20.1689 39.9633C20.0598 39.9387 19.9576 39.8897 19.8701 39.8199C19.7825 39.7502 19.7117 39.6616 19.6631 39.5606C19.6145 39.4597 19.5892 39.3491 19.5892 39.237C19.5892 39.1249 19.6145 39.0143 19.6631 38.9133C19.7117 38.8124 19.7825 38.7238 19.8701 38.6541C19.9576 38.5843 20.0598 38.5353 20.1689 38.5107C20.278 38.486 20.3913 38.4864 20.5003 38.5117H31.6601C31.8572 38.5117 32.0462 38.5901 32.1856 38.7298C32.325 38.8694 32.4033 39.0588 32.4033 39.2562C32.4033 39.4537 32.325 39.6431 32.1856 39.7827C32.0462 39.9224 31.8572 40.0008 31.6601 40.0008L31.673 39.9623Z" fill="#4C6FBF"></path> <path d="M31.673 44.4811H20.5003C20.4027 44.4811 20.3061 44.4618 20.216 44.4244C20.1258 44.387 20.0439 44.3321 19.9749 44.263C19.9059 44.1938 19.8511 44.1118 19.8138 44.0214C19.7764 43.9311 19.7572 43.8343 19.7572 43.7365C19.7572 43.6387 19.7764 43.5419 19.8138 43.4516C19.8511 43.3612 19.9059 43.2792 19.9749 43.21C20.0439 43.1409 20.1258 43.086 20.216 43.0486C20.3061 43.0112 20.4027 42.9919 20.5003 42.9919H31.6602C31.8573 42.9919 32.0463 43.0704 32.1857 43.21C32.325 43.3496 32.4033 43.539 32.4033 43.7365C32.4033 43.934 32.325 44.1234 32.1857 44.263C32.0463 44.4026 31.8573 44.4811 31.6602 44.4811H31.673Z" fill="#4C6FBF"></path> <path d="M12.9792 23.1071C12.8658 23.1091 12.7535 23.0846 12.6512 23.0356C12.5489 22.9866 12.4594 22.9144 12.3898 22.8247L9.49415 19.1019C9.43357 19.0252 9.38867 18.9373 9.36201 18.8432C9.33534 18.7491 9.32744 18.6507 9.33874 18.5535C9.35004 18.4564 9.38033 18.3624 9.42788 18.277C9.47543 18.1915 9.53931 18.1163 9.61587 18.0556C9.69243 17.995 9.78016 17.95 9.87408 17.9233C9.96799 17.8965 10.0662 17.8886 10.1632 17.8999C10.2602 17.9113 10.354 17.9416 10.4392 17.9893C10.5245 18.0369 10.5995 18.1009 10.6601 18.1776L13.0048 21.1558L17.2843 16.252C17.3449 16.1682 17.4222 16.098 17.5114 16.0458C17.6006 15.9937 17.6997 15.9607 17.8023 15.9491C17.905 15.9374 18.0089 15.9473 18.1075 15.9782C18.206 16.009 18.2971 16.0601 18.3749 16.1282C18.4527 16.1962 18.5155 16.2798 18.5592 16.3735C18.603 16.4673 18.6267 16.5691 18.629 16.6726C18.6312 16.776 18.612 16.8788 18.5724 16.9744C18.5327 17.07 18.4737 17.1562 18.399 17.2276L13.5301 22.8118C13.4658 22.8988 13.383 22.9704 13.2878 23.0215C13.1925 23.0725 13.0871 23.1018 12.9792 23.1071Z" fill="#FFB83B"></path> <path d="M12.9792 34.1984C12.8654 34.1951 12.7537 34.167 12.6519 34.116C12.5501 34.065 12.4607 33.9924 12.3898 33.9031L9.49415 30.2188C9.37182 30.0639 9.31592 29.8667 9.33874 29.6704C9.36157 29.4742 9.46126 29.2952 9.61587 29.1726C9.77049 29.05 9.96736 28.994 10.1632 29.0169C10.359 29.0398 10.5378 29.1396 10.6601 29.2945L13.0048 32.2728L17.2843 27.369C17.3449 27.2852 17.4222 27.2149 17.5114 27.1628C17.6006 27.1106 17.6997 27.0777 17.8023 27.066C17.905 27.0544 18.0089 27.0643 18.1075 27.0951C18.2061 27.1259 18.2971 27.177 18.3749 27.2451C18.4527 27.3132 18.5155 27.3968 18.5592 27.4905C18.603 27.5842 18.6267 27.6861 18.629 27.7895C18.6312 27.893 18.612 27.9958 18.5724 28.0913C18.5328 28.1869 18.4737 28.2732 18.399 28.3446L13.5301 33.9416C13.4605 34.0197 13.3758 34.0827 13.2811 34.1268C13.1863 34.171 13.0836 34.1953 12.9792 34.1984Z" fill="#FFB83B"></path> <path d="M12.9792 45.3155C12.8654 45.3123 12.7537 45.2842 12.6519 45.2332C12.5501 45.1822 12.4607 45.1095 12.3898 45.0203L9.49415 41.336C9.37182 41.1811 9.31592 40.9838 9.33874 40.7876C9.36157 40.5914 9.46126 40.4123 9.61587 40.2897C9.69243 40.229 9.78017 40.1841 9.87408 40.1573C9.96799 40.1306 10.0662 40.1227 10.1632 40.134C10.359 40.1569 10.5378 40.2568 10.6601 40.4117L13.0048 43.3899L17.2843 38.5118C17.3449 38.428 17.4222 38.3578 17.5114 38.3056C17.6006 38.2534 17.6997 38.2205 17.8023 38.2088C17.905 38.1972 18.0089 38.2071 18.1075 38.2379C18.2061 38.2688 18.2971 38.3198 18.3749 38.3879C18.4527 38.456 18.5155 38.5396 18.5592 38.6333C18.603 38.7271 18.6267 38.8289 18.629 38.9324C18.6312 39.0358 18.612 39.1386 18.5724 39.2342C18.5328 39.3297 18.4737 39.416 18.399 39.4874L13.5301 45.0844C13.4583 45.1578 13.3726 45.2161 13.278 45.2558C13.1834 45.2955 13.0818 45.3158 12.9792 45.3155Z" fill="#FFB83B"></path> <path d="M24.8822 6.12344H17.1178C16.6998 6.15057 16.2808 6.09151 15.8865 5.94992C15.4923 5.80834 15.1312 5.58722 14.8256 5.30026C14.52 5.0133 14.2765 4.66659 14.11 4.28156C13.9435 3.89653 13.8575 3.48137 13.8575 3.06176C13.8575 2.64214 13.9435 2.22698 14.11 1.84195C14.2765 1.45692 14.52 1.11021 14.8256 0.823248C15.1312 0.536286 15.4923 0.315175 15.8865 0.173586C16.2808 0.0319981 16.6998 -0.0270574 17.1178 7.12005e-05H24.8822C25.3002 -0.0270574 25.7192 0.0319981 26.1135 0.173586C26.5077 0.315175 26.8688 0.536286 27.1744 0.823248C27.4799 1.11021 27.7235 1.45692 27.89 1.84195C28.0565 2.22698 28.1425 2.64214 28.1425 3.06176C28.1425 3.48137 28.0565 3.89653 27.89 4.28156C27.7235 4.66659 27.4799 5.0133 27.1744 5.30026C26.8688 5.58722 26.5077 5.80834 26.1135 5.94992C25.7192 6.09151 25.3002 6.15057 24.8822 6.12344ZM17.1178 1.48919C16.8997 1.46943 16.68 1.49541 16.4725 1.56546C16.265 1.63551 16.0744 1.7481 15.9128 1.89605C15.7512 2.044 15.6221 2.22406 15.5338 2.42477C15.4454 2.62547 15.3998 2.84241 15.3998 3.06176C15.3998 3.2811 15.4454 3.49804 15.5338 3.69874C15.6221 3.89945 15.7512 4.07951 15.9128 4.22746C16.0744 4.37541 16.265 4.488 16.4725 4.55805C16.68 4.6281 16.8997 4.65408 17.1178 4.63432H24.8822C25.1003 4.65408 25.32 4.6281 25.5275 4.55805C25.735 4.488 25.9256 4.37541 26.0872 4.22746C26.2488 4.07951 26.3779 3.89945 26.4662 3.69874C26.5545 3.49804 26.6002 3.2811 26.6002 3.06176C26.6002 2.84241 26.5545 2.62547 26.4662 2.42477C26.3779 2.22406 26.2488 2.044 26.0872 1.89605C25.9256 1.7481 25.735 1.63551 25.5275 1.56546C25.32 1.49541 25.1003 1.46943 24.8822 1.48919H17.1178Z" fill="#4C6FBF"></path> <path d="M30.0201 12.8372H11.9799C11.2809 12.8338 10.6115 12.5541 10.1172 12.0589C9.62298 11.5637 9.34382 10.893 9.34045 10.1927V4.96796C9.34045 4.2666 9.61853 3.59397 10.1135 3.09803C10.6085 2.6021 11.2799 2.32349 11.9799 2.32349H14.7987C14.9958 2.32349 15.1848 2.40193 15.3241 2.54156C15.4635 2.6812 15.5418 2.87058 15.5418 3.06805C15.5452 3.48459 15.7127 3.88292 16.0079 4.17627C16.3031 4.46961 16.702 4.6342 17.1178 4.63419H24.8822C25.298 4.6342 25.6969 4.46961 25.9921 4.17627C26.2873 3.88292 26.4548 3.48459 26.4582 3.06805C26.4582 2.87058 26.5365 2.6812 26.6759 2.54156C26.8152 2.40193 27.0043 2.32349 27.2013 2.32349H30.0201C30.7202 2.32349 31.3915 2.6021 31.8865 3.09803C32.3815 3.59397 32.6596 4.2666 32.6596 4.96796V10.1927C32.6562 10.893 32.377 11.5637 31.8828 12.0589C31.3885 12.5541 30.7191 12.8338 30.0201 12.8372ZM11.9799 3.85112C11.674 3.85112 11.3807 3.97284 11.1645 4.18951C10.9482 4.40618 10.8267 4.70005 10.8267 5.00647V10.1927C10.825 10.3455 10.8536 10.4971 10.9108 10.6388C10.968 10.7805 11.0527 10.9093 11.1599 11.018C11.2672 11.1266 11.3949 11.2129 11.5356 11.2718C11.6763 11.3306 11.8274 11.3609 11.9799 11.3609H30.0201C30.1727 11.3609 30.3237 11.3306 30.4644 11.2718C30.6052 11.2129 30.7328 11.1266 30.8401 11.018C30.9473 10.9093 31.032 10.7805 31.0892 10.6388C31.1464 10.4971 31.175 10.3455 31.1733 10.1927V4.96796C31.1733 4.66154 31.0518 4.36767 30.8355 4.151C30.6193 3.93433 30.326 3.81261 30.0201 3.81261H27.8548C27.6866 4.47424 27.3029 5.06075 26.7645 5.47928C26.2261 5.89781 25.5637 6.12445 24.8822 6.12331H17.1178C16.4327 6.13815 15.7624 5.92234 15.2142 5.51041C14.666 5.09847 14.2716 4.51422 14.094 3.85112H11.9799Z" fill="#4C6FBF"></path> <path d="M27.7522 9.51231H14.2477C14.0506 9.51231 13.8615 9.43387 13.7222 9.29424C13.5828 9.15461 13.5045 8.96522 13.5045 8.76775C13.5045 8.57028 13.5828 8.3809 13.7222 8.24127C13.8615 8.10164 14.0506 8.02319 14.2477 8.02319H27.7522C27.9493 8.02319 28.1383 8.10164 28.2777 8.24127C28.4171 8.3809 28.4954 8.57028 28.4954 8.76775C28.4954 8.96522 28.4171 9.15461 28.2777 9.29424C28.1383 9.43387 27.9493 9.51231 27.7522 9.51231Z" fill="#4C6FBF"></path> </g> <defs> <clipPath id="clip0_120_66"> <rect width="42" height="59" fill="white"></rect> </clipPath> </defs> </svg> 