<?xml version="1.0" encoding="UTF-8"?> <svg xmlns="http://www.w3.org/2000/svg" width="48" height="44" viewBox="0 0 48 44" fill="none"> <g clip-path="url(#clip0_120_164)"> <path d="M47.3812 24.2598H0.619034C0.536847 24.2598 0.455482 24.2435 0.379684 24.212C0.303886 24.1805 0.235175 24.1343 0.177559 24.0762C0.119944 24.0181 0.0745773 23.9492 0.0441076 23.8734C0.0136379 23.7977 -0.001325 23.7168 9.20086e-05 23.6353V20.8727C9.20086e-05 20.7099 0.0653018 20.5537 0.181376 20.4386C0.29745 20.3235 0.45488 20.2588 0.619034 20.2588H47.3812C47.5453 20.2588 47.7027 20.3235 47.8188 20.4386C47.9349 20.5537 48.0001 20.7099 48.0001 20.8727V23.6353C48.0015 23.7168 47.9865 23.7977 47.9561 23.8734C47.9256 23.9492 47.8802 24.0181 47.8226 24.0762C47.765 24.1343 47.6963 24.1805 47.6205 24.212C47.5447 24.2435 47.4633 24.2598 47.3812 24.2598ZM1.23798 23.0214H46.7622V21.4866H1.23798V23.0214Z" fill="#FFB83B"></path> <path d="M47.3812 4.00108H0.619034C0.536847 4.0011 0.455482 3.98487 0.379684 3.95336C0.303886 3.92185 0.235175 3.87568 0.177559 3.81755C0.119944 3.75942 0.0745773 3.69049 0.0441076 3.61478C0.0136379 3.53907 -0.001325 3.4581 9.20086e-05 3.37659V0.614025C9.20086e-05 0.451208 0.0653018 0.295059 0.181376 0.179929C0.29745 0.0648 0.45488 0.000120978 0.619034 0.000120978H47.3812C47.4642 -0.00272151 47.547 0.0110563 47.6246 0.0406327C47.7021 0.0702091 47.7729 0.114978 47.8327 0.17227C47.8924 0.229562 47.9399 0.298203 47.9724 0.3741C48.0048 0.449996 48.0215 0.531593 48.0214 0.614025V3.37659C48.0229 3.45991 48.0073 3.54266 47.9755 3.6198C47.9437 3.69694 47.8965 3.76685 47.8366 3.82528C47.7766 3.8837 47.7054 3.92942 47.6271 3.95965C47.5488 3.98987 47.4651 4.00397 47.3812 4.00108ZM1.23798 2.76269H46.7622V1.22793H1.23798V2.76269Z" fill="#FFB83B"></path> <path d="M47.3811 44H0.618942C0.45662 44 0.300786 43.9368 0.185014 43.8239C0.0692418 43.7111 0.00279864 43.5576 0 43.3967L0 40.6129C0 40.4501 0.0652097 40.294 0.181284 40.1788C0.297358 40.0637 0.454788 39.999 0.618942 39.999H47.3811C47.5452 39.999 47.7026 40.0637 47.8187 40.1788C47.9348 40.294 48 40.4501 48 40.6129V43.3967C47.9972 43.5576 47.9308 43.7111 47.815 43.8239C47.6992 43.9368 47.5434 44 47.3811 44ZM1.23788 42.7722H46.7621V41.2798H1.23788V42.7722Z" fill="#FFB83B"></path> <path d="M25.2592 21.4865H22.7408C22.5766 21.4865 22.4192 21.4219 22.3031 21.3067C22.187 21.1916 22.1218 21.0354 22.1218 20.8726V3.37636C22.1218 3.21354 22.187 3.05739 22.3031 2.94226C22.4192 2.82713 22.5766 2.76245 22.7408 2.76245H25.2592C25.4234 2.76245 25.5808 2.82713 25.6969 2.94226C25.813 3.05739 25.8782 3.21354 25.8782 3.37636V20.8726C25.8782 21.0354 25.813 21.1916 25.6969 21.3067C25.5808 21.4219 25.4234 21.4865 25.2592 21.4865ZM23.3597 20.2587H24.6403V4.00084H23.3597V20.2587Z" fill="#FFB83B"></path> <path d="M25.2593 41.2799H22.7409C22.6587 41.2799 22.5773 41.2637 22.5015 41.2322C22.4257 41.2007 22.357 41.1545 22.2994 41.0963C22.2418 41.0382 22.1964 40.9693 22.1659 40.8936C22.1355 40.8179 22.1205 40.7369 22.1219 40.6554V23.7201C22.1219 23.5573 22.1871 23.4011 22.3032 23.286C22.4193 23.1709 22.5767 23.1062 22.7409 23.1062H25.2593C25.4235 23.1062 25.5809 23.1709 25.697 23.286C25.813 23.4011 25.8783 23.5573 25.8783 23.7201V40.6554C25.8797 40.7369 25.8647 40.8179 25.8342 40.8936C25.8038 40.9693 25.7584 41.0382 25.7008 41.0963C25.6432 41.1545 25.5745 41.2007 25.4987 41.2322C25.4229 41.2637 25.3415 41.2799 25.2593 41.2799ZM23.3598 40.0415H24.6404V24.2599H23.3598V40.0415Z" fill="#FFB83B"></path> <path d="M12.0906 21.4865H4.26848C4.10433 21.4865 3.9469 21.4219 3.83082 21.3067C3.71475 21.1916 3.64954 21.0354 3.64954 20.8726V13.4634C3.64667 13.3811 3.66056 13.2989 3.69038 13.222C3.7202 13.1451 3.76534 13.0749 3.8231 13.0156C3.88086 12.9563 3.95007 12.9092 4.02659 12.877C4.1031 12.8449 4.18537 12.8283 4.26848 12.8284H12.112C12.2761 12.8284 12.4335 12.893 12.5496 13.0082C12.6657 13.1233 12.7309 13.2795 12.7309 13.4423V20.8515C12.7339 20.9357 12.7194 21.0196 12.6882 21.0979C12.6571 21.1763 12.6101 21.2475 12.55 21.3071C12.4899 21.3667 12.4182 21.4134 12.3391 21.4442C12.2601 21.4751 12.1755 21.4895 12.0906 21.4865ZM4.86608 20.2587H11.4717V14.0562H4.86608V20.2587Z" fill="#4C6FBF"></path> <path d="M19.9341 21.4866H12.0906C11.9265 21.4866 11.769 21.4219 11.653 21.3068C11.5369 21.1917 11.4717 21.0355 11.4717 20.8727V13.4635C11.4717 13.3007 11.5369 13.1445 11.653 13.0294C11.769 12.9143 11.9265 12.8496 12.0906 12.8496H19.9341C20.0983 12.8496 20.2557 12.9143 20.3718 13.0294C20.4878 13.1445 20.553 13.3007 20.553 13.4635V20.8727C20.553 21.0355 20.4878 21.1917 20.3718 21.3068C20.2557 21.4219 20.0983 21.4866 19.9341 21.4866ZM12.7096 20.2588H19.3152V14.0562H12.7096V20.2588Z" fill="#4C6FBF"></path> <path d="M12.0906 14.0564H4.26848C4.10433 14.0564 3.9469 13.9917 3.83082 13.8766C3.71475 13.7614 3.64954 13.6053 3.64954 13.4425V6.03327C3.64667 5.95088 3.66056 5.86877 3.69038 5.79183C3.7202 5.71489 3.76534 5.64469 3.8231 5.58542C3.88086 5.52615 3.95007 5.47903 4.02659 5.44686C4.1031 5.4147 4.18537 5.39814 4.26848 5.39819H12.112C12.1932 5.39819 12.2737 5.41407 12.3488 5.44492C12.4239 5.47578 12.4922 5.521 12.5496 5.578C12.6071 5.63501 12.6527 5.70268 12.6838 5.77717C12.7149 5.85165 12.7309 5.93148 12.7309 6.0121V13.4213C12.7339 13.5055 12.7194 13.5894 12.6882 13.6678C12.6571 13.7462 12.6101 13.8174 12.55 13.8769C12.4899 13.9365 12.4182 13.9832 12.3391 14.014C12.2601 14.0449 12.1755 14.0593 12.0906 14.0564ZM4.86608 12.8286H11.4717V6.626H4.86608V12.8286Z" fill="#4C6FBF"></path> <path d="M19.9341 14.0562H12.0906C11.9265 14.0562 11.769 13.9915 11.653 13.8764C11.5369 13.7613 11.4717 13.6051 11.4717 13.4423V6.03309C11.4717 5.87028 11.5369 5.71413 11.653 5.599C11.769 5.48387 11.9265 5.41919 12.0906 5.41919H19.9341C20.0983 5.41919 20.2557 5.48387 20.3718 5.599C20.4878 5.71413 20.553 5.87028 20.553 6.03309V13.4423C20.553 13.6051 20.4878 13.7613 20.3718 13.8764C20.2557 13.9915 20.0983 14.0562 19.9341 14.0562ZM12.7096 12.8284H19.3152V6.62583H12.7096V12.8284Z" fill="#4C6FBF"></path> <path d="M9.22004 16.66H7.30986C7.14571 16.66 6.98828 16.5953 6.8722 16.4802C6.75613 16.365 6.69092 16.2089 6.69092 16.0461V13.4423C6.69092 13.2795 6.75613 13.1233 6.8722 13.0082C6.98828 12.893 7.14571 12.8284 7.30986 12.8284H9.22004C9.3842 12.8284 9.54163 12.893 9.6577 13.0082C9.77377 13.1233 9.83898 13.2795 9.83898 13.4423V16.0461C9.83898 16.2089 9.77377 16.365 9.6577 16.4802C9.54163 16.5953 9.3842 16.66 9.22004 16.66ZM7.9288 15.4322H8.6011V14.0562H7.9288V15.4322Z" fill="#4C6FBF"></path> <path d="M16.9676 16.66H15.0574C14.8933 16.66 14.7358 16.5953 14.6198 16.4802C14.5037 16.365 14.4385 16.2089 14.4385 16.0461V13.4423C14.4385 13.2795 14.5037 13.1233 14.6198 13.0082C14.7358 12.893 14.8933 12.8284 15.0574 12.8284H16.9676C17.1318 12.8284 17.2892 12.893 17.4053 13.0082C17.5213 13.1233 17.5865 13.2795 17.5865 13.4423V16.0461C17.5865 16.2089 17.5213 16.365 17.4053 16.4802C17.2892 16.5953 17.1318 16.66 16.9676 16.66ZM15.6764 15.4322H16.3487V14.0562H15.6764V15.4322Z" fill="#4C6FBF"></path> <path d="M9.1241 9.2298H7.21391C7.04976 9.2298 6.89233 9.16512 6.77625 9.04999C6.66018 8.93487 6.59497 8.77872 6.59497 8.6159V6.0121C6.59497 5.93148 6.61098 5.85165 6.64208 5.77717C6.67319 5.70268 6.71878 5.63501 6.77625 5.578C6.83373 5.521 6.90196 5.47578 6.97705 5.44492C7.05215 5.41407 7.13263 5.39819 7.21391 5.39819H9.1241C9.20538 5.39819 9.28586 5.41407 9.36095 5.44492C9.43605 5.47578 9.50428 5.521 9.56175 5.578C9.61923 5.63501 9.66482 5.70268 9.69592 5.77717C9.72703 5.85165 9.74304 5.93148 9.74304 6.0121V8.6159C9.74304 8.77872 9.67783 8.93487 9.56175 9.04999C9.44568 9.16512 9.28825 9.2298 9.1241 9.2298ZM7.83285 8.00199H8.53717V6.626H7.83285V8.00199Z" fill="#4C6FBF"></path> <path d="M17.1917 9.22965H15.2815C15.1174 9.22965 14.96 9.16497 14.8439 9.04984C14.7278 8.93471 14.6626 8.77856 14.6626 8.61575V6.01194C14.6626 5.93133 14.6786 5.8515 14.7097 5.77701C14.7408 5.70253 14.7864 5.63486 14.8439 5.57785C14.9014 5.52084 14.9696 5.47562 15.0447 5.44477C15.1198 5.41392 15.2003 5.39804 15.2815 5.39804H17.1917C17.2739 5.39664 17.3555 5.41148 17.4319 5.4417C17.5082 5.47192 17.5777 5.51692 17.6363 5.57406C17.6949 5.63121 17.7415 5.69936 17.7732 5.77454C17.805 5.84972 17.8213 5.93043 17.8213 6.01194V8.61575C17.8213 8.69726 17.805 8.77797 17.7732 8.85315C17.7415 8.92833 17.6949 8.99648 17.6363 9.05363C17.5777 9.11077 17.5082 9.15577 17.4319 9.18599C17.3555 9.21621 17.2739 9.23106 17.1917 9.22965ZM15.9005 8.00184H16.5728V6.62585H15.9005V8.00184Z" fill="#4C6FBF"></path> <path d="M35.9094 21.4866H28.0552C27.8911 21.4866 27.7336 21.4219 27.6176 21.3068C27.5015 21.1917 27.4363 21.0355 27.4363 20.8727V13.4635C27.4363 13.3007 27.5015 13.1445 27.6176 13.0294C27.7336 12.9143 27.8911 12.8496 28.0552 12.8496H35.9094C36.0735 12.8496 36.231 12.9143 36.347 13.0294C36.4631 13.1445 36.5283 13.3007 36.5283 13.4635V20.8727C36.5283 21.0355 36.4631 21.1917 36.347 21.3068C36.231 21.4219 36.0735 21.4866 35.9094 21.4866ZM28.6742 20.2588H35.2904V14.0562H28.6742V20.2588Z" fill="#4C6FBF"></path> <path d="M43.7527 21.4866H35.9092C35.7451 21.4866 35.5876 21.4219 35.4716 21.3068C35.3555 21.1917 35.2903 21.0355 35.2903 20.8727V13.4635C35.2903 13.3007 35.3555 13.1445 35.4716 13.0294C35.5876 12.9143 35.7451 12.8496 35.9092 12.8496H43.7527C43.9169 12.8496 44.0743 12.9143 44.1904 13.0294C44.3064 13.1445 44.3717 13.3007 44.3717 13.4635V20.8727C44.3717 21.0355 44.3064 21.1917 44.1904 21.3068C44.0743 21.4219 43.9169 21.4866 43.7527 21.4866ZM36.5282 20.2588H43.1338V14.0562H36.5282V20.2588Z" fill="#4C6FBF"></path> <path d="M35.9094 14.0562H28.0552C27.8911 14.0562 27.7336 13.9915 27.6176 13.8764C27.5015 13.7613 27.4363 13.6051 27.4363 13.4423V6.03309C27.4363 5.87028 27.5015 5.71413 27.6176 5.599C27.7336 5.48387 27.8911 5.41919 28.0552 5.41919H35.9094C36.0735 5.41919 36.231 5.48387 36.347 5.599C36.4631 5.71413 36.5283 5.87028 36.5283 6.03309V13.4423C36.5283 13.6051 36.4631 13.7613 36.347 13.8764C36.231 13.9915 36.0735 14.0562 35.9094 14.0562ZM28.6742 12.8284H35.2904V6.62583H28.6742V12.8284Z" fill="#4C6FBF"></path> <path d="M43.7527 14.0562H35.9092C35.7451 14.0562 35.5876 13.9915 35.4716 13.8764C35.3555 13.7613 35.2903 13.6051 35.2903 13.4423V6.03309C35.2903 5.87028 35.3555 5.71413 35.4716 5.599C35.5876 5.48387 35.7451 5.41919 35.9092 5.41919H43.7527C43.9169 5.41919 44.0743 5.48387 44.1904 5.599C44.3064 5.71413 44.3717 5.87028 44.3717 6.03309V13.4423C44.3717 13.6051 44.3064 13.7613 44.1904 13.8764C44.0743 13.9915 43.9169 14.0562 43.7527 14.0562ZM36.5282 12.8284H43.1338V6.62583H36.5282V12.8284Z" fill="#4C6FBF"></path> <path d="M33.0813 16.66H31.1604C30.9963 16.66 30.8389 16.5953 30.7228 16.4802C30.6067 16.365 30.5415 16.2089 30.5415 16.0461V13.4423C30.5415 13.2795 30.6067 13.1233 30.7228 13.0082C30.8389 12.893 30.9963 12.8284 31.1604 12.8284H33.0813C33.2455 12.8284 33.4029 12.893 33.519 13.0082C33.635 13.1233 33.7002 13.2795 33.7002 13.4423V16.0461C33.7002 16.2089 33.635 16.365 33.519 16.4802C33.4029 16.5953 33.2455 16.66 33.0813 16.66ZM31.7794 15.4322H32.4624V14.0562H31.7794V15.4322Z" fill="#4C6FBF"></path> <path d="M40.7862 16.66H38.876C38.7119 16.66 38.5544 16.5953 38.4384 16.4802C38.3223 16.365 38.2571 16.2089 38.2571 16.0461V13.4423C38.2571 13.2795 38.3223 13.1233 38.4384 13.0082C38.5544 12.893 38.7119 12.8284 38.876 12.8284H40.7862C40.9504 12.8284 41.1078 12.893 41.2239 13.0082C41.3399 13.1233 41.4051 13.2795 41.4051 13.4423V16.0461C41.4051 16.2089 41.3399 16.365 41.2239 16.4802C41.1078 16.5953 40.9504 16.66 40.7862 16.66ZM39.4843 15.4322H40.1566V14.0562H39.4843V15.4322Z" fill="#4C6FBF"></path> <path d="M32.9426 9.2298H31.0218C30.8576 9.2298 30.7002 9.16512 30.5841 9.04999C30.468 8.93487 30.4028 8.77872 30.4028 8.6159V6.0121C30.4028 5.93148 30.4188 5.85165 30.4499 5.77717C30.4811 5.70268 30.5266 5.63501 30.5841 5.578C30.6416 5.521 30.7098 5.47578 30.7849 5.44492C30.86 5.41407 30.9405 5.39819 31.0218 5.39819H32.9426C33.0239 5.39819 33.1044 5.41407 33.1795 5.44492C33.2546 5.47578 33.3228 5.521 33.3803 5.578C33.4378 5.63501 33.4833 5.70268 33.5145 5.77717C33.5456 5.85165 33.5616 5.93148 33.5616 6.0121V8.6159C33.5616 8.77872 33.4964 8.93487 33.3803 9.04999C33.2642 9.16512 33.1068 9.2298 32.9426 9.2298ZM31.6407 8.00199H32.3237V6.626H31.6407V8.00199Z" fill="#4C6FBF"></path> <path d="M41.0103 9.2298H39.1001C38.936 9.2298 38.7786 9.16512 38.6625 9.04999C38.5464 8.93487 38.4812 8.77872 38.4812 8.6159V6.0121C38.4812 5.84928 38.5464 5.69313 38.6625 5.578C38.7786 5.46287 38.936 5.39819 39.1001 5.39819H41.0103C41.0916 5.39819 41.1721 5.41407 41.2472 5.44492C41.3223 5.47578 41.3905 5.521 41.448 5.578C41.5055 5.63501 41.551 5.70268 41.5822 5.77717C41.6133 5.85165 41.6293 5.93148 41.6293 6.0121V8.6159C41.6293 8.77872 41.5641 8.93487 41.448 9.04999C41.3319 9.16512 41.1745 9.2298 41.0103 9.2298ZM39.7191 8.00199H40.3914V6.626H39.7191V8.00199Z" fill="#4C6FBF"></path> <path d="M12.0906 41.2797H4.2685C4.18632 41.2797 4.10495 41.2635 4.02915 41.232C3.95336 41.2005 3.88464 41.1543 3.82703 41.0962C3.76941 41.038 3.72405 40.9691 3.69358 40.8934C3.66311 40.8177 3.64814 40.7367 3.64956 40.6552V33.246C3.64056 33.1602 3.6499 33.0735 3.67695 32.9915C3.704 32.9096 3.74816 32.8342 3.80655 32.7703C3.86495 32.7063 3.93627 32.6554 4.01587 32.6206C4.09546 32.5859 4.18154 32.5681 4.2685 32.5686H12.112C12.2761 32.5686 12.4336 32.6333 12.5496 32.7484C12.6657 32.8636 12.7309 33.0197 12.7309 33.1825V40.5917C12.7419 40.6801 12.7332 40.7699 12.7057 40.8547C12.6781 40.9394 12.6323 41.0173 12.5714 41.0827C12.5105 41.1482 12.4359 41.1997 12.3529 41.2337C12.2699 41.2677 12.1804 41.2834 12.0906 41.2797ZM4.8661 39.999H11.4717V33.807H4.8661V39.999Z" fill="#4C6FBF"></path> <path d="M19.9342 41.2797H12.0907C12.0085 41.2797 11.9272 41.2635 11.8514 41.2319C11.7756 41.2004 11.7069 41.1543 11.6492 41.0961C11.5916 41.038 11.5463 40.9691 11.5158 40.8934C11.4853 40.8176 11.4704 40.7367 11.4718 40.6552V33.246C11.4718 33.0832 11.537 32.927 11.6531 32.8119C11.7691 32.6968 11.9266 32.6321 12.0907 32.6321H19.9342C20.0984 32.6321 20.2558 32.6968 20.3719 32.8119C20.4879 32.927 20.5531 33.0832 20.5531 33.246V40.6552C20.5546 40.7367 20.5396 40.8176 20.5091 40.8934C20.4787 40.9691 20.4333 41.038 20.3757 41.0961C20.3181 41.1543 20.2493 41.2004 20.1736 41.2319C20.0978 41.2635 20.0164 41.2797 19.9342 41.2797ZM12.7097 40.0413H19.3153V33.807H12.7097V40.0413Z" fill="#4C6FBF"></path> <path d="M12.0906 33.8072H4.26848C4.18629 33.8072 4.10493 33.791 4.02913 33.7595C3.95333 33.7279 3.88462 33.6818 3.82701 33.6236C3.76939 33.5655 3.72402 33.4966 3.69355 33.4209C3.66308 33.3452 3.64812 33.2642 3.64954 33.1827V25.7735C3.64667 25.6911 3.66056 25.609 3.69038 25.5321C3.7202 25.4551 3.76534 25.3849 3.8231 25.3257C3.88086 25.2664 3.95007 25.2193 4.02659 25.1871C4.1031 25.1549 4.18537 25.1384 4.26848 25.1384H12.112C12.2761 25.1384 12.4335 25.2031 12.5496 25.3182C12.6657 25.4334 12.7309 25.5895 12.7309 25.7523V33.1615C12.7354 33.2466 12.722 33.3316 12.6916 33.4113C12.6611 33.4909 12.6143 33.5634 12.5541 33.6242C12.4939 33.6849 12.4215 33.7325 12.3418 33.764C12.262 33.7955 12.1764 33.8102 12.0906 33.8072ZM4.86608 32.5688H11.4717V26.3662H4.86608V32.5688Z" fill="#4C6FBF"></path> <path d="M19.9342 33.807H12.0907C12.0085 33.807 11.9272 33.7908 11.8514 33.7593C11.7756 33.7278 11.7069 33.6816 11.6492 33.6235C11.5916 33.5653 11.5463 33.4964 11.5158 33.4207C11.4853 33.345 11.4704 33.264 11.4718 33.1825V25.7733C11.4718 25.6105 11.537 25.4544 11.6531 25.3392C11.7691 25.2241 11.9266 25.1594 12.0907 25.1594H19.9342C20.0984 25.1594 20.2558 25.2241 20.3719 25.3392C20.4879 25.4544 20.5531 25.6105 20.5531 25.7733V33.1825C20.5546 33.264 20.5396 33.345 20.5091 33.4207C20.4787 33.4964 20.4333 33.5653 20.3757 33.6235C20.3181 33.6816 20.2493 33.7278 20.1736 33.7593C20.0978 33.7908 20.0164 33.807 19.9342 33.807ZM12.7097 32.5686H19.3153V26.3661H12.7097V32.5686Z" fill="#4C6FBF"></path> <path d="M9.22004 36.4002H7.30986C7.14571 36.4002 6.98828 36.3355 6.8722 36.2204C6.75613 36.1053 6.69092 35.9491 6.69092 35.7863V33.1825C6.69092 33.0197 6.75613 32.8635 6.8722 32.7484C6.98828 32.6333 7.14571 32.5686 7.30986 32.5686H9.22004C9.3842 32.5686 9.54163 32.6333 9.6577 32.7484C9.77377 32.8635 9.83898 33.0197 9.83898 33.1825V35.7863C9.83898 35.9491 9.77377 36.1053 9.6577 36.2204C9.54163 36.3355 9.3842 36.4002 9.22004 36.4002ZM7.9288 35.1724H8.6011V33.807H7.9288V35.1724Z" fill="#4C6FBF"></path> <path d="M16.9676 36.4002H15.0574C14.8933 36.4002 14.7358 36.3355 14.6198 36.2204C14.5037 36.1053 14.4385 35.9491 14.4385 35.7863V33.1825C14.4385 33.0197 14.5037 32.8635 14.6198 32.7484C14.7358 32.6333 14.8933 32.5686 15.0574 32.5686H16.9676C17.1318 32.5686 17.2892 32.6333 17.4053 32.7484C17.5213 32.8635 17.5865 33.0197 17.5865 33.1825V35.7863C17.5865 35.9491 17.5213 36.1053 17.4053 36.2204C17.2892 36.3355 17.1318 36.4002 16.9676 36.4002ZM15.6764 35.1724H16.3487V33.807H15.6764V35.1724Z" fill="#4C6FBF"></path> <path d="M9.1241 28.97H7.21391C7.04976 28.97 6.89233 28.9054 6.77625 28.7902C6.66018 28.6751 6.59497 28.519 6.59497 28.3561V25.7523C6.59497 25.5895 6.66018 25.4334 6.77625 25.3182C6.89233 25.2031 7.04976 25.1384 7.21391 25.1384H9.1241C9.28825 25.1384 9.44568 25.2031 9.56175 25.3182C9.67783 25.4334 9.74304 25.5895 9.74304 25.7523V28.3561C9.74304 28.519 9.67783 28.6751 9.56175 28.7902C9.44568 28.9054 9.28825 28.97 9.1241 28.97ZM7.83285 27.7422H8.53717V26.3662H7.83285V27.7422Z" fill="#4C6FBF"></path> <path d="M17.1917 28.9699H15.2815C15.1174 28.9699 14.96 28.9052 14.8439 28.7901C14.7278 28.6749 14.6626 28.5188 14.6626 28.356V25.7522C14.6626 25.5894 14.7278 25.4332 14.8439 25.3181C14.96 25.203 15.1174 25.1383 15.2815 25.1383H17.1917C17.2739 25.1369 17.3555 25.1517 17.4319 25.1819C17.5082 25.2122 17.5777 25.2572 17.6363 25.3143C17.6949 25.3714 17.7415 25.4396 17.7732 25.5148C17.805 25.59 17.8213 25.6707 17.8213 25.7522V28.356C17.8213 28.4375 17.805 28.5182 17.7732 28.5934C17.7415 28.6686 17.6949 28.7367 17.6363 28.7939C17.5777 28.851 17.5082 28.896 17.4319 28.9262C17.3555 28.9564 17.2739 28.9713 17.1917 28.9699ZM15.9005 27.7421H16.5728V26.3661H15.9005V27.7421Z" fill="#4C6FBF"></path> <path d="M35.9092 41.2797H28.0551C27.9729 41.2797 27.8915 41.2635 27.8157 41.2319C27.7399 41.2004 27.6712 41.1543 27.6136 41.0961C27.556 41.038 27.5106 40.9691 27.4801 40.8934C27.4497 40.8176 27.4347 40.7367 27.4361 40.6552V33.246C27.4361 33.0832 27.5013 32.927 27.6174 32.8119C27.7335 32.6968 27.8909 32.6321 28.0551 32.6321H35.9092C36.0734 32.6321 36.2308 32.6968 36.3469 32.8119C36.463 32.927 36.5282 33.0832 36.5282 33.246V40.6552C36.5296 40.7367 36.5146 40.8176 36.4842 40.8934C36.4537 40.9691 36.4083 41.038 36.3507 41.0961C36.2931 41.1543 36.2244 41.2004 36.1486 41.2319C36.0728 41.2635 35.9914 41.2797 35.9092 41.2797ZM28.674 40.0413H35.2903V33.807H28.674V40.0413Z" fill="#4C6FBF"></path> <path d="M43.7528 41.2797H35.9093C35.8271 41.2797 35.7458 41.2635 35.67 41.2319C35.5942 41.2004 35.5255 41.1543 35.4678 41.0961C35.4102 41.038 35.3649 40.9691 35.3344 40.8934C35.3039 40.8176 35.289 40.7367 35.2904 40.6552V33.246C35.2904 33.0832 35.3556 32.927 35.4717 32.8119C35.5877 32.6968 35.7452 32.6321 35.9093 32.6321H43.7528C43.917 32.6321 44.0744 32.6968 44.1905 32.8119C44.3065 32.927 44.3717 33.0832 44.3717 33.246V40.6552C44.3732 40.7367 44.3582 40.8176 44.3277 40.8934C44.2973 40.9691 44.2519 41.038 44.1943 41.0961C44.1367 41.1543 44.0679 41.2004 43.9922 41.2319C43.9164 41.2635 43.835 41.2797 43.7528 41.2797ZM36.5283 40.0413H43.1339V33.807H36.5283V40.0413Z" fill="#4C6FBF"></path> <path d="M35.9092 33.807H28.0551C27.9729 33.807 27.8915 33.7908 27.8157 33.7593C27.7399 33.7278 27.6712 33.6816 27.6136 33.6235C27.556 33.5653 27.5106 33.4964 27.4801 33.4207C27.4497 33.345 27.4347 33.264 27.4361 33.1825V25.7733C27.4361 25.6105 27.5013 25.4544 27.6174 25.3392C27.7335 25.2241 27.8909 25.1594 28.0551 25.1594H35.9092C36.0734 25.1594 36.2308 25.2241 36.3469 25.3392C36.463 25.4544 36.5282 25.6105 36.5282 25.7733V33.1825C36.5296 33.264 36.5146 33.345 36.4842 33.4207C36.4537 33.4964 36.4083 33.5653 36.3507 33.6235C36.2931 33.6816 36.2244 33.7278 36.1486 33.7593C36.0728 33.7908 35.9914 33.807 35.9092 33.807ZM28.674 32.5686H35.2903V26.3661H28.674V32.5686Z" fill="#4C6FBF"></path> <path d="M43.7528 33.807H35.9093C35.8271 33.807 35.7458 33.7908 35.67 33.7593C35.5942 33.7278 35.5255 33.6816 35.4678 33.6235C35.4102 33.5653 35.3649 33.4964 35.3344 33.4207C35.3039 33.345 35.289 33.264 35.2904 33.1825V25.7733C35.2904 25.6105 35.3556 25.4544 35.4717 25.3392C35.5877 25.2241 35.7452 25.1594 35.9093 25.1594H43.7528C43.917 25.1594 44.0744 25.2241 44.1905 25.3392C44.3065 25.4544 44.3717 25.6105 44.3717 25.7733V33.1825C44.3732 33.264 44.3582 33.345 44.3277 33.4207C44.2973 33.4964 44.2519 33.5653 44.1943 33.6235C44.1367 33.6816 44.0679 33.7278 43.9922 33.7593C43.9164 33.7908 43.835 33.807 43.7528 33.807ZM36.5283 32.5686H43.1339V26.3661H36.5283V32.5686Z" fill="#4C6FBF"></path> <path d="M33.0813 36.4002H31.1604C30.9963 36.4002 30.8389 36.3355 30.7228 36.2204C30.6067 36.1053 30.5415 35.9491 30.5415 35.7863V33.1825C30.5415 33.0197 30.6067 32.8635 30.7228 32.7484C30.8389 32.6333 30.9963 32.5686 31.1604 32.5686H33.0813C33.2455 32.5686 33.4029 32.6333 33.519 32.7484C33.635 32.8635 33.7002 33.0197 33.7002 33.1825V35.7863C33.7002 35.9491 33.635 36.1053 33.519 36.2204C33.4029 36.3355 33.2455 36.4002 33.0813 36.4002ZM31.7794 35.1724H32.4624V33.807H31.7794V35.1724Z" fill="#4C6FBF"></path> <path d="M40.7862 36.4002H38.876C38.7119 36.4002 38.5544 36.3355 38.4384 36.2204C38.3223 36.1053 38.2571 35.9491 38.2571 35.7863V33.1825C38.2571 33.0197 38.3223 32.8635 38.4384 32.7484C38.5544 32.6333 38.7119 32.5686 38.876 32.5686H40.7862C40.9504 32.5686 41.1078 32.6333 41.2239 32.7484C41.3399 32.8635 41.4051 33.0197 41.4051 33.1825V35.7863C41.4051 35.9491 41.3399 36.1053 41.2239 36.2204C41.1078 36.3355 40.9504 36.4002 40.7862 36.4002ZM39.4843 35.1724H40.1566V33.807H39.4843V35.1724Z" fill="#4C6FBF"></path> <path d="M32.9426 28.97H31.0218C30.8576 28.97 30.7002 28.9054 30.5841 28.7902C30.468 28.6751 30.4028 28.519 30.4028 28.3561V25.7523C30.4028 25.5895 30.468 25.4334 30.5841 25.3182C30.7002 25.2031 30.8576 25.1384 31.0218 25.1384H32.9426C33.1068 25.1384 33.2642 25.2031 33.3803 25.3182C33.4964 25.4334 33.5616 25.5895 33.5616 25.7523V28.3561C33.5616 28.519 33.4964 28.6751 33.3803 28.7902C33.2642 28.9054 33.1068 28.97 32.9426 28.97ZM31.6407 27.7422H32.3237V26.3662H31.6407V27.7422Z" fill="#4C6FBF"></path> <path d="M41.0103 28.97H39.1001C38.936 28.97 38.7786 28.9054 38.6625 28.7902C38.5464 28.6751 38.4812 28.519 38.4812 28.3561V25.7523C38.4812 25.5895 38.5464 25.4334 38.6625 25.3182C38.7786 25.2031 38.936 25.1384 39.1001 25.1384H41.0103C41.1745 25.1384 41.3319 25.2031 41.448 25.3182C41.5641 25.4334 41.6293 25.5895 41.6293 25.7523V28.3561C41.6293 28.519 41.5641 28.6751 41.448 28.7902C41.3319 28.9054 41.1745 28.97 41.0103 28.97ZM39.7191 27.7422H40.3914V26.3662H39.7191V27.7422Z" fill="#4C6FBF"></path> </g> <defs> <clipPath id="clip0_120_164"> <rect width="48" height="44" fill="white"></rect> </clipPath> </defs> </svg> 