<?xml version="1.0" encoding="UTF-8"?> <svg xmlns="http://www.w3.org/2000/svg" width="73" height="73" viewBox="0 0 73 73" fill="none"> <circle cx="36.5" cy="36.5" r="36.5" fill="#FFA808"></circle> <g clip-path="url(#clip0_508_2073)"> <path d="M29.2 24.4333C29.4276 24.2626 29.6866 24.1384 29.9623 24.0678C30.2379 23.9972 30.5247 23.9815 30.8064 24.0218C31.0881 24.062 31.3591 24.1573 31.6039 24.3023C31.8487 24.4473 32.0626 24.639 32.2333 24.8667C32.4041 25.0943 32.5283 25.3533 32.5989 25.6289C32.6695 25.9046 32.6851 26.1914 32.6449 26.4731C32.6047 26.7548 32.5093 27.0257 32.3644 27.2706C32.2194 27.5154 32.0276 27.7293 31.8 27.9C28.4113 30.4415 26.47 32.9137 25.3585 35.0717C26.8846 34.6788 28.4953 34.7712 29.9665 35.3359C31.4377 35.9006 32.6964 36.9097 33.5678 38.2228C34.4391 39.5359 34.8796 41.0878 34.8282 42.6629C34.7769 44.2379 34.2361 45.7578 33.281 47.0114C32.326 48.2649 31.0041 49.1897 29.4992 49.6574C27.9943 50.125 26.3811 50.1122 24.8838 49.6207C23.3865 49.1292 22.0796 48.1834 21.1446 46.9149C20.2096 45.6463 19.693 44.118 19.6667 42.5423C19.389 39.8815 19.7669 37.1932 20.7673 34.712C22.0608 31.449 24.5893 27.8913 29.2 24.4333ZM48.7 24.4333C48.9276 24.2626 49.1866 24.1384 49.4623 24.0678C49.7379 23.9972 50.0247 23.9815 50.3064 24.0218C50.5881 24.062 50.8591 24.1573 51.1039 24.3023C51.3487 24.4473 51.5626 24.639 51.7333 24.8667C51.9041 25.0943 52.0283 25.3533 52.0989 25.6289C52.1695 25.9046 52.1851 26.1914 52.1449 26.4731C52.1047 26.7548 52.0093 27.0257 51.8644 27.2706C51.7194 27.5154 51.5276 27.7293 51.3 27.9C47.9113 30.4415 45.97 32.9137 44.8585 35.0717C46.3846 34.6788 47.9953 34.7712 49.4665 35.3359C50.9377 35.9006 52.1964 36.9097 53.0678 38.2228C53.9391 39.5359 54.3796 41.0878 54.3282 42.6629C54.2769 44.2379 53.7361 45.7578 52.781 47.0114C51.826 48.2649 50.5041 49.1897 48.9992 49.6574C47.4943 50.125 45.8811 50.1122 44.3838 49.6207C42.8865 49.1292 41.5796 48.1834 40.6446 46.9149C39.7096 45.6463 39.193 44.118 39.1667 42.5423C38.889 39.8815 39.2669 37.1932 40.2673 34.712C41.563 31.449 44.0893 27.8913 48.7 24.4333Z" fill="white"></path> </g> <defs> <clipPath id="clip0_508_2073"> <rect width="52" height="52" fill="white" transform="translate(11 11)"></rect> </clipPath> </defs> </svg> 