<?xml version="1.0" encoding="UTF-8"?> <svg xmlns="http://www.w3.org/2000/svg" width="35" height="51" viewBox="0 0 35 51" fill="none"> <path fill-rule="evenodd" clip-rule="evenodd" d="M12.8671 0.0747832C11.378 0.331596 10.0538 1.03114 8.90174 2.16972C7.96683 3.09367 7.42161 3.96186 7.00079 5.19684C6.73229 5.98447 6.73188 5.99218 6.69481 10.1332L6.65775 14.2807L6.40257 14.6523C5.0455 16.6286 6.38248 19.4395 8.79982 19.6926L9.32734 19.7478L9.62343 20.6537C10.0374 21.9199 10.5361 22.7129 11.5917 23.7834C12.0928 24.2914 12.5027 24.7145 12.5027 24.7237C12.5027 24.7327 12.3504 24.7684 12.1643 24.8031C10.9623 25.0265 9.51828 26.1636 8.90955 27.3661C8.70987 27.7605 8.54652 28.1384 8.54652 28.2059C8.54652 28.2733 8.00546 28.5044 7.34415 28.7194C3.89425 29.8409 1.3121 32.5399 0.35054 36.0295L0.0669435 37.0584L0.0335242 44.0292L0 51H0.832882H1.66566L1.69866 44.0807L1.73156 37.1613L2.02255 36.2353C2.79609 33.7742 4.47778 31.8063 6.72459 30.7331C7.18267 30.5143 7.73321 30.2891 7.94788 30.2326L8.3383 30.1299V33.1569C8.3383 35.8185 8.31883 36.1839 8.17745 36.1839C8.08895 36.1839 7.90155 36.2976 7.761 36.4365L7.50541 36.689V41.9457V47.2024L7.761 47.4549C8.01285 47.7039 8.04252 47.7075 9.84321 47.7075H11.6698V49.3538V51H12.5027H13.3356V49.3538V47.7075H17.5H21.6644V49.3538V51H22.4973H23.3302V49.3538V47.7075H25.1568C26.9575 47.7075 26.9872 47.7039 27.239 47.4549L27.4946 47.2024V41.9457V36.689L27.239 36.4365C27.0984 36.2976 26.911 36.1839 26.8226 36.1839C26.6811 36.1839 26.6617 35.8177 26.6617 33.1486C26.6617 31.4792 26.6867 30.1134 26.7171 30.1134C26.7476 30.1134 27.1408 30.2537 27.5911 30.4253C30.1657 31.4066 32.1277 33.5225 32.9782 36.2353L33.2684 37.1613L33.3013 44.0807L33.3343 51H34.1671H35L34.9665 44.0292L34.9331 37.0584L34.6589 36.0687C33.9539 33.5233 32.4021 31.3689 30.2584 29.9593C29.2696 29.3091 28.611 29.0047 27.3541 28.6176C26.8588 28.4649 26.4535 28.2876 26.4534 28.2235C26.4534 28.1594 26.3127 27.8133 26.1408 27.4542C25.5645 26.2503 24.0392 25.0268 22.8357 24.8031C22.6495 24.7684 22.4973 24.727 22.4973 24.7108C22.4973 24.6947 22.8531 24.341 23.288 23.9248C24.2577 22.9971 24.9803 21.8657 25.3756 20.6566L25.6727 19.7478L26.1932 19.6921C28.2033 19.4767 29.5763 17.4841 29.0193 15.5905C28.9276 15.2789 28.737 14.8556 28.5958 14.6498L28.3388 14.2758L28.3072 10.3365L28.2754 6.39726L27.9459 5.70996C27.7648 5.33204 27.4195 4.81162 27.1788 4.55358C26.616 3.95003 25.5061 3.39432 24.6789 3.30182C24.2938 3.25881 24.0589 3.18432 24.0589 3.1053C24.0589 3.03533 23.8945 2.6532 23.6935 2.25615C23.2494 1.37891 22.6246 0.784517 21.6831 0.343737L20.9877 0.0180909L17.1877 0.00152562C15.0977 -0.00763157 13.1534 0.0253961 12.8671 0.0747832ZM20.7674 1.738C21.658 1.9981 22.4973 3.13102 22.4973 4.07308C22.4973 4.28329 22.5887 4.49061 22.7529 4.65276C22.9767 4.87408 23.101 4.90536 23.7559 4.90536C24.1669 4.90536 24.6961 4.96164 24.9318 5.03047C25.5037 5.19746 26.3661 6.0498 26.5351 6.61497C26.6222 6.90656 26.6617 8.008 26.6617 10.151V13.2634L26.4275 13.2014C26.2986 13.1673 26.1112 13.1387 26.011 13.138C25.8589 13.1367 25.8288 13.0393 25.8288 12.5475V11.9584L23.5098 9.66658C21.5169 7.69707 21.1468 7.37471 20.8782 7.37471C20.3773 7.37471 20.1435 7.61702 19.9094 8.37851C19.5154 9.66062 18.5485 10.7048 17.2918 11.2054C16.7503 11.4212 16.5251 11.4365 13.144 11.4876L9.56888 11.5418L9.37003 11.7847C9.22927 11.9565 9.17118 12.1896 9.17118 12.5821C9.17118 13.0411 9.13974 13.1367 8.98899 13.138C8.88873 13.1387 8.70143 13.1673 8.57254 13.2014L8.3383 13.2634V10.0807C8.3383 8.27171 8.38629 6.63452 8.44959 6.28758C8.7539 4.61799 10.0274 2.98368 11.6121 2.22868C12.0734 2.00901 12.6849 1.78574 12.9712 1.73254C13.7809 1.58222 20.2492 1.58675 20.7674 1.738ZM24.1613 15.7075C24.1592 19.2188 24.0882 19.7261 23.4133 21.0591C21.7255 24.3916 17.4474 25.6429 14.1685 23.7633C13.1272 23.1663 12.092 22.082 11.5761 21.0476C10.9208 19.7338 10.8408 19.1813 10.8387 15.9484L10.8369 13.1528L13.8822 13.117C16.879 13.0817 16.9396 13.0768 17.6958 12.8058C19.0156 12.3329 20.2131 11.3786 20.8859 10.2634L21.1959 9.74962L22.6795 11.2102L24.1631 12.6709L24.1613 15.7075ZM9.17118 16.429C9.17118 18.2453 9.18544 18.2128 8.51226 17.9349C7.21682 17.4 7.20214 15.4816 8.48926 14.9275C9.1819 14.6294 9.17118 14.6059 9.17118 16.429ZM26.7594 15.0732C27.2696 15.4456 27.4425 15.7888 27.4425 16.429C27.4425 16.8768 27.3875 17.1042 27.2279 17.3154C26.9288 17.7112 26.5645 17.9586 26.1672 18.0354L25.8288 18.101V16.429V14.7571L26.1672 14.8226C26.3533 14.8586 26.6197 14.9714 26.7594 15.0732ZM16.0256 26.1618C17.4093 26.4238 19.0055 26.2926 20.2849 25.8115L20.8315 25.606V27.0567C20.8315 28.4595 20.8224 28.5205 20.5549 28.9019C19.957 29.7547 18.6103 30.422 17.4874 30.422C16.4042 30.422 15.0293 29.735 14.4451 28.9019C14.1776 28.5205 14.1685 28.4595 14.1685 27.0567V25.606L14.7151 25.8115C15.0156 25.9245 15.6054 26.0821 16.0256 26.1618ZM12.2012 28.4062C12.0305 28.5812 11.8411 28.8547 11.7803 29.014C11.7104 29.1971 11.6698 30.5683 11.6698 32.7437V36.1839H10.831H9.99219L10.0242 32.4541L10.0561 28.7244L10.3424 28.1876C10.7159 27.4874 11.2604 26.9589 11.9195 26.6567L12.4507 26.4131L12.4812 27.2506C12.5106 28.0586 12.5007 28.0993 12.2012 28.4062ZM23.6677 26.9934C23.8821 27.1396 24.1993 27.4712 24.3727 27.7299C24.9615 28.6084 24.9959 28.8833 24.9959 32.7043V36.1839H24.1631H23.3302V32.7338C23.3302 29.0114 23.3113 28.8645 22.771 28.3721C22.5175 28.1411 22.4973 28.0592 22.4973 27.2646V26.4066L22.8877 26.5671C23.1025 26.6553 23.4534 26.8472 23.6677 26.9934ZM14.9871 31.4438C17.0429 32.4694 19.4747 32.1719 21.1115 30.6947L21.6644 30.1956V33.1898V36.1839H21.4372C21.2939 36.1839 20.8956 35.8804 20.3568 35.3607L19.5035 34.5376H17.5H15.4965L14.6432 35.3607C14.1044 35.8804 13.7061 36.1839 13.5628 36.1839H13.3356V33.186V30.1881L13.843 30.6571C14.122 30.9151 14.6369 31.2691 14.9871 31.4438ZM19.6405 37.007L20.4938 37.8301H21.4955H22.4973V39.2237C22.4973 40.5664 22.5067 40.6268 22.7529 40.87C22.999 41.1133 23.0601 41.1226 24.4186 41.1226H25.8288V43.5919V46.0613L21.9507 46.051C19.3684 46.0441 18.2076 46.0093 18.4768 45.9469C19.1226 45.7971 20.0679 45.2471 20.5284 44.7535C20.7621 44.5028 21.1017 43.9884 21.2828 43.6105C21.5808 42.9889 21.6124 42.8296 21.6124 41.9457C21.6124 41.0618 21.5808 40.9025 21.2828 40.2809C20.8243 39.3244 20.2341 38.7286 19.2865 38.2658C18.5432 37.9027 18.4448 37.8815 17.5 37.8815C16.5552 37.8815 16.4568 37.9027 15.7135 38.2658C14.7659 38.7286 14.1757 39.3244 13.7172 40.2809C13.4192 40.9025 13.3876 41.0618 13.3876 41.9457C13.3876 42.8296 13.4192 42.9889 13.7172 43.6105C13.8983 43.9884 14.2379 44.5028 14.4716 44.7535C14.9321 45.2471 15.8774 45.7971 16.5232 45.9469C16.8114 46.0138 16.2928 46.0436 14.7151 46.051L12.5027 46.0613V41.9457V37.8301H13.5056H14.5085L15.3536 37.0085L16.1986 36.187L17.4929 36.1854L18.7871 36.1839L19.6405 37.007ZM10.8369 41.9457V46.0613H10.0041H9.17118V41.9457V37.8301H10.0041H10.8369V41.9457ZM25.8288 38.6532V39.4763H24.9959H24.1631V38.6532V37.8301H24.9959H25.8288V38.6532ZM18.2688 39.6015C19.1635 39.8627 19.9986 40.9945 19.9986 41.9457C19.9986 43.2206 18.79 44.4151 17.5 44.4151C16.21 44.4151 15.0014 43.2206 15.0014 41.9457C15.0014 41.299 15.2396 40.7773 15.7786 40.2434C16.509 39.5201 17.2956 39.3173 18.2688 39.6015ZM5.00677 47.296V51H5.83965H6.67253V47.296V43.5919H5.83965H5.00677V47.296ZM28.3275 47.296V51H29.1604H29.9932V47.296V43.5919H29.1604H28.3275V47.296Z" fill="white"></path> </svg> 