<?xml version="1.0" encoding="UTF-8"?> <svg xmlns="http://www.w3.org/2000/svg" width="43" height="43" viewBox="0 0 43 43" fill="none"> <path fill-rule="evenodd" clip-rule="evenodd" d="M19.6779 0.0562249C17.1361 0.377439 14.7149 1.25751 12.6034 2.6277C8.52438 5.27478 5.84967 9.64044 5.2865 14.5702C5.23052 15.0607 5.19086 17.9678 5.1904 21.6186L5.18966 27.8321L5.64903 27.3695C5.97209 27.0441 6.41534 26.3563 7.14245 25.0517L8.17649 23.1966L8.16166 19.3008C8.1497 16.1562 8.17426 15.2499 8.28927 14.6003C8.76375 11.9201 10.3547 9.68867 12.7448 8.35085L13.3249 8.02611L14.7018 8.71557C19.6618 11.1992 24.2199 12.3399 30.0755 12.5627C31.9028 12.6323 32.0584 12.6523 32.5592 12.8817C32.8529 13.0164 33.2153 13.2134 33.3642 13.3196C33.7855 13.6199 34.2876 14.2844 34.5136 14.841L34.7193 15.3475L36.0539 14.0093L37.3886 12.6711L37.2181 11.9974C36.812 10.3929 35.8424 8.3426 34.772 6.8251C33.9746 5.69459 32.0821 3.80033 30.9526 3.00225C28.9383 1.57891 26.6961 0.649679 24.1412 0.179405C23.2418 0.0138354 20.5918 -0.0593493 19.6779 0.0562249ZM12.8351 10.0294C11.7697 10.7619 10.8187 11.8968 10.287 13.0704C9.73746 14.2836 9.70651 14.5123 9.6699 17.6312C9.63904 20.2595 9.6484 20.4847 9.77898 20.2516C9.90909 20.0193 9.96933 19.9967 10.4518 19.9981C11.9127 20.0025 13.4495 20.6528 14.5032 21.7123C15.6205 22.8357 16.1813 24.0509 16.2825 25.5682L16.3356 26.3629L14.2403 27.516C13.0879 28.1503 12.144 28.7069 12.1426 28.7532C12.1373 28.9296 14.1647 30.8417 14.8276 31.2855C19.5043 34.4165 25.6294 33.9201 29.6187 30.0868C31.4915 28.2872 32.5394 26.395 33.1265 23.7531C33.1831 23.4984 33.1331 23.5295 32.5343 24.1212L31.8803 24.7675L31.4364 24.3299C31.1923 24.0892 30.9673 23.8922 30.9366 23.8922C30.9058 23.8922 30.8545 24.031 30.8228 24.2005C30.7276 24.7082 30.2669 25.3359 29.7794 25.6218C29.3841 25.8537 29.2239 25.8875 28.3713 25.9191L27.4092 25.9548L27.4448 24.9918C27.4764 24.1384 27.5102 23.978 27.7419 23.5823C28.0275 23.0944 28.6546 22.6333 29.1619 22.5381C29.3312 22.5063 29.4698 22.455 29.4698 22.4242C29.4698 22.3934 29.2727 22.1678 29.0318 21.9229L28.5936 21.4777L30.9779 19.0901C33.2749 16.7897 33.3621 16.6892 33.3621 16.3427C33.3621 15.7581 33.1676 15.2757 32.7395 14.7993C32.1765 14.1725 31.8475 14.0884 29.7015 14.0225C26.2342 13.9162 22.7145 13.3204 19.5075 12.297C18.1087 11.8506 15.659 10.8603 14.4365 10.2468C13.8377 9.94635 13.3366 9.70286 13.323 9.70565C13.3095 9.70843 13.09 9.85415 12.8351 10.0294ZM36.283 15.9144L30.7212 21.479L31.301 22.0594L31.8809 22.6397L37.4405 17.0729C42.5511 11.9555 43 11.4813 43 11.1991C43 10.7774 42.5728 10.3498 42.1515 10.3498C41.8696 10.3498 41.3957 10.7991 36.283 15.9144ZM36.3113 20.3432L34.8586 21.8052L34.7993 22.4545C34.4978 25.7548 33.1706 28.6339 30.9103 30.8913C29.4473 32.3525 27.7249 33.4267 25.7629 34.1016C25.2787 34.2682 24.8722 34.4115 24.8594 34.42C24.8192 34.4469 25.0448 35.5299 25.1049 35.5988C25.1364 35.635 27.6431 36.003 30.6753 36.4168C35.1143 37.0225 36.342 37.2203 36.9763 37.4319C37.4095 37.5765 37.7747 37.6847 37.7876 37.6725C37.8006 37.6602 37.8006 33.4272 37.7876 28.2657L37.764 18.8812L36.3113 20.3432ZM10.7142 21.6883C10.6405 21.8036 9.90965 23.1084 9.09024 24.5878L7.60034 27.2776L8.32161 27.9995L9.04279 28.7214L11.8193 27.1795C13.3465 26.3314 14.6481 25.5877 14.7118 25.5268C14.8045 25.4381 14.8001 25.3094 14.6894 24.8844C14.2389 23.1533 12.9407 21.9415 11.1004 21.5342C10.9037 21.4908 10.8189 21.5246 10.7142 21.6883ZM3.31128 31.849C0.299054 34.8683 0 35.1957 0 35.4737C0 35.8934 0.427961 36.3216 0.847397 36.3216C1.12569 36.3216 1.45245 36.0223 4.491 32.9844L7.82897 29.6471L7.27673 29.0886C6.97304 28.7814 6.70161 28.53 6.67362 28.53C6.64554 28.53 5.13257 30.0236 3.31128 31.849ZM10.0415 29.8468C9.52357 30.1425 8.96114 30.6439 7.45828 32.1494L5.53708 34.0739L5.80361 34.5704C6.20998 35.3277 7.0798 36.1471 7.88689 36.5332C8.26379 36.7135 8.63874 36.882 8.7201 36.9076C8.8352 36.9438 8.87987 37.1361 8.92139 37.7741C9.0566 39.8502 10.2743 41.5927 12.175 42.4299C12.4237 42.5394 12.6385 42.629 12.6526 42.629C12.6667 42.629 12.5604 42.3472 12.4165 42.0029C11.9892 40.98 11.8621 40.1375 11.8621 38.3286V36.7103L12.3734 36.4215C13.0337 36.0485 13.5182 35.6059 13.9441 34.987C14.2655 34.52 14.7349 33.4118 14.7349 33.1201C14.7349 33.0475 14.4951 32.8347 14.202 32.6472C13.128 31.9602 11.6787 30.6366 11.0119 29.7338C10.8997 29.5819 10.7844 29.4601 10.7557 29.4633C10.7271 29.4663 10.4057 29.6389 10.0415 29.8468ZM19.3727 35.8757C19.1745 36.9054 19.1515 36.9629 18.9187 37.0101C18.7839 37.0374 17.5684 37.2072 16.2177 37.3873C14.867 37.5675 13.6681 37.7361 13.5533 37.7621C13.3521 37.8075 13.3448 37.8461 13.3448 38.8593C13.3448 40.16 13.5409 40.9861 14.1267 42.1536L14.5514 43H27.2466C39.7816 43 39.9418 42.9977 39.9418 42.8187C39.9418 42.5486 39.5462 41.5088 39.2526 41.0073C38.6964 40.0573 37.3659 39.0427 36.2812 38.7411C36.0774 38.6845 33.325 38.2848 30.1649 37.8531C27.0047 37.4213 24.2882 37.0451 24.1282 37.0171L23.8372 36.9663L23.6279 35.8786L23.4185 34.7911H21.5H19.5815L19.3727 35.8757ZM6.91753 38.7001C5.72484 38.9771 4.35041 39.9774 3.74739 41.0073C3.45381 41.5088 3.05819 42.5486 3.05819 42.8187C3.05819 42.9955 3.14762 43 6.61709 43H10.176L9.52895 42.3748C8.72557 41.5985 8.15267 40.6869 7.82341 39.6608C7.6843 39.2271 7.54557 38.8052 7.51527 38.7232C7.46588 38.5895 7.40397 38.5871 6.91753 38.7001Z" fill="#7994D1"></path> </svg> 