<?xml version="1.0" encoding="UTF-8"?> <svg xmlns="http://www.w3.org/2000/svg" width="221" height="150" viewBox="0 0 221 150" fill="none"> <g clip-path="url(#clip0_259_885)"> <path d="M211.805 73.4928L211.243 72.8502C204.608 65.2989 196.443 59.2452 187.289 55.0908C178.136 50.9364 168.203 48.7764 158.151 48.7542C157.814 48.7489 157.478 48.8101 157.164 48.9344C156.85 49.0587 156.564 49.2436 156.322 49.4785C156.079 49.7135 155.886 49.9939 155.752 50.3037C155.618 50.6135 155.546 50.9468 155.541 51.2843L154.898 103.01H14.3379C14.0003 103.01 13.6661 103.077 13.3543 103.206C13.0424 103.335 12.7591 103.525 12.5204 103.763C12.2817 104.002 12.0924 104.285 11.9633 104.597C11.8341 104.909 11.7676 105.243 11.7676 105.581V126.665C11.7675 127.35 12.037 128.008 12.5179 128.497C12.9988 128.985 13.6525 129.265 14.3379 129.275H218.391C219.083 129.275 219.747 129 220.237 128.511C220.727 128.021 221.002 127.357 221.002 126.665V97.8298C221.003 88.8681 217.733 80.2141 211.805 73.4928Z" fill="#F4970B"></path> <path d="M127.107 0H20.321C9.09802 0 0 9.09802 0 20.321V88.1915C0 99.4145 9.09802 108.513 20.321 108.513H127.107C138.33 108.513 147.428 99.4145 147.428 88.1915V20.321C147.428 9.09802 138.33 0 127.107 0Z" fill="#013177"></path> <path d="M200.44 130.279C200.44 133.456 199.497 136.562 197.732 139.204C195.967 141.846 193.458 143.905 190.523 145.12C187.588 146.336 184.358 146.654 181.242 146.035C178.125 145.415 175.263 143.885 173.017 141.638C170.77 139.392 169.24 136.529 168.62 133.413C168 130.297 168.318 127.067 169.534 124.132C170.75 121.197 172.809 118.688 175.451 116.923C178.093 115.157 181.198 114.215 184.376 114.215C188.636 114.215 192.722 115.908 195.734 118.92C198.747 121.933 200.44 126.019 200.44 130.279Z" fill="#013177"></path> <path d="M184.737 149.636C180.909 149.636 177.166 148.501 173.983 146.374C170.8 144.247 168.318 141.224 166.853 137.687C165.388 134.15 165.005 130.258 165.752 126.503C166.499 122.748 168.342 119.299 171.049 116.592C173.757 113.885 177.206 112.041 180.961 111.294C184.716 110.547 188.608 110.93 192.145 112.396C195.682 113.861 198.705 116.342 200.832 119.525C202.959 122.708 204.094 126.451 204.094 130.279C204.094 135.413 202.055 140.337 198.425 143.967C194.794 147.597 189.871 149.636 184.737 149.636ZM184.737 117.83C182.275 117.83 179.868 118.56 177.82 119.928C175.773 121.296 174.177 123.24 173.235 125.515C172.293 127.79 172.046 130.293 172.527 132.708C173.007 135.123 174.193 137.341 175.934 139.082C177.675 140.824 179.893 142.009 182.308 142.49C184.723 142.97 187.226 142.723 189.501 141.781C191.776 140.839 193.721 139.243 195.089 137.196C196.457 135.149 197.187 132.742 197.187 130.279C197.187 126.977 195.875 123.811 193.54 121.476C191.205 119.141 188.039 117.83 184.737 117.83Z" fill="#013177"></path> <path d="M127.146 0.3214H20.6416C15.3366 0.267672 10.2259 2.31557 6.4259 6.01776C2.62589 9.71995 0.445426 14.7755 0.360813 20.0802V57.429H147.427V20.0802C147.342 14.7755 145.162 9.71995 141.362 6.01776C137.562 2.31557 132.451 0.267672 127.146 0.3214Z" fill="#074EA3"></path> <path d="M121.405 55.2202L88.3529 26.7467C87.8522 26.3171 87.2389 26.0398 86.5856 25.9478C85.9323 25.8558 85.2663 25.9529 84.6665 26.2275C84.0666 26.502 83.5579 26.9427 83.2006 27.4973C82.8432 28.052 82.6523 28.6973 82.6502 29.3571V42.7705H28.1128C27.6578 42.7651 27.2063 42.8508 26.7848 43.0225C26.3633 43.1941 25.9804 43.4483 25.6587 43.7701C25.3369 44.0919 25.0827 44.4748 24.911 44.8963C24.7393 45.3177 24.6537 45.7693 24.6591 46.2243V67.7903C24.6537 68.2453 24.7393 68.6968 24.911 69.1183C25.0827 69.5398 25.3369 69.9227 25.6587 70.2444C25.9804 70.5662 26.3633 70.8204 26.7848 70.9921C27.2063 71.1638 27.6578 71.2494 28.1128 71.244H82.5297V84.6575C82.5297 85.3067 82.7149 85.9425 83.0634 86.4902C83.412 87.0379 83.9095 87.4749 84.4976 87.7498C84.9554 87.9912 85.4659 88.1154 85.9835 88.1113C86.7696 88.0968 87.5302 87.8292 88.1521 87.3482L121.324 60.5213C121.72 60.2096 122.04 59.8135 122.263 59.3618C122.485 58.9101 122.604 58.4143 122.609 57.9109C122.612 57.4025 122.505 56.8995 122.297 56.4355C122.09 55.9715 121.785 55.5572 121.405 55.2202Z" fill="#F4970B"></path> <path d="M219.796 88.352C218.322 82.7893 215.572 77.6466 211.764 73.3322L211.201 72.6896C202.153 62.4346 190.322 55.0265 177.146 51.3646C176.764 51.2457 176.358 51.2239 175.965 51.301C175.573 51.3781 175.205 51.5518 174.897 51.8064C174.581 52.0453 174.325 52.3552 174.151 52.7109C173.976 53.0666 173.888 53.4584 173.893 53.8545V89.1553C173.887 89.4961 173.95 89.8347 174.077 90.1512C174.203 90.4677 174.392 90.7558 174.631 90.9987C174.87 91.2416 175.155 91.4346 175.47 91.5662C175.784 91.6979 176.122 91.7657 176.463 91.7657H217.266C217.665 91.7563 218.058 91.6619 218.418 91.4888C218.778 91.3157 219.097 91.0678 219.354 90.7617C219.616 90.4252 219.793 90.0304 219.87 89.6109C219.947 89.1915 219.921 88.7596 219.796 88.352Z" fill="#013177"></path> <path d="M43.5336 110.922C39.7051 110.922 35.9626 112.057 32.7793 114.184C29.5961 116.311 27.115 119.335 25.6499 122.872C24.1848 126.409 23.8015 130.301 24.5484 134.056C25.2953 137.811 27.1389 141.26 29.846 143.967C32.5532 146.674 36.0023 148.518 39.7572 149.264C43.5121 150.011 47.4042 149.628 50.9413 148.163C54.4783 146.698 57.5015 144.217 59.6285 141.033C61.7555 137.85 62.8908 134.108 62.8908 130.279C62.8801 125.149 60.8373 120.231 57.2095 116.603C53.5816 112.976 48.6642 110.933 43.5336 110.922Z" fill="#013177"></path> <path d="M184.737 110.922C180.909 110.922 177.166 112.057 173.983 114.184C170.8 116.311 168.318 119.335 166.853 122.872C165.388 126.409 165.005 130.301 165.752 134.056C166.499 137.811 168.342 141.26 171.049 143.967C173.757 146.674 177.206 148.518 180.961 149.264C184.716 150.011 188.608 149.628 192.145 148.163C195.682 146.698 198.705 144.217 200.832 141.033C202.959 137.85 204.094 134.108 204.094 130.279C204.094 125.145 202.055 120.222 198.425 116.592C194.794 112.962 189.871 110.922 184.737 110.922Z" fill="#013177"></path> <path d="M24.8199 57.0273V67.7902C24.8145 68.2453 24.9001 68.6968 25.0718 69.1183C25.2435 69.5398 25.4977 69.9226 25.8195 70.2444C26.1412 70.5662 26.5241 70.8204 26.9456 70.9921C27.3671 71.1637 27.8186 71.2494 28.2736 71.244H82.5299V84.6575C82.5299 85.3067 82.715 85.9424 83.0636 86.4902C83.4121 87.0379 83.9096 87.4748 84.4977 87.7498C84.9556 87.9912 85.4661 88.1154 85.9837 88.1112C86.7698 88.0968 87.5303 87.8292 88.1523 87.3482L121.325 60.5213C121.72 60.2096 122.041 59.8134 122.263 59.3617C122.485 58.91 122.604 58.4143 122.61 57.9109C122.651 57.6178 122.651 57.3204 122.61 57.0273H24.8199Z" fill="#F7941E"></path> <path d="M43.5342 116.464C40.8239 116.464 38.1746 117.268 35.9217 118.775C33.6688 120.282 31.9135 122.423 30.8782 124.927C29.8429 127.432 29.5741 130.188 30.1057 132.845C30.6374 135.503 31.9457 137.943 33.8649 139.857C35.7842 141.77 38.2281 143.071 40.8872 143.595C43.5463 144.119 46.3011 143.842 48.8027 142.799C51.3044 141.757 53.4404 139.995 54.9403 137.738C56.4403 135.481 57.2367 132.829 57.2288 130.119C57.2288 128.322 56.8743 126.543 56.1855 124.884C55.4968 123.225 54.4875 121.718 53.2153 120.449C51.9431 119.181 50.4331 118.176 48.7718 117.492C47.1106 116.808 45.3307 116.459 43.5342 116.464Z" fill="#074EA3"></path> <path d="M184.736 116.464C182.025 116.464 179.376 117.268 177.123 118.775C174.87 120.282 173.115 122.423 172.08 124.927C171.044 127.432 170.776 130.188 171.307 132.845C171.839 135.503 173.147 137.943 175.066 139.857C176.986 141.77 179.43 143.071 182.089 143.595C184.748 144.119 187.503 143.842 190.004 142.799C192.506 141.757 194.642 139.995 196.142 137.738C197.642 135.481 198.438 132.829 198.43 130.119C198.43 128.322 198.076 126.543 197.387 124.884C196.698 123.225 195.689 121.718 194.417 120.449C193.145 119.181 191.635 118.176 189.973 117.492C188.312 116.808 186.532 116.459 184.736 116.464Z" fill="#074EA3"></path> </g> <defs> <clipPath id="clip0_259_885"> <rect width="55.03" height="37.26" fill="white" transform="scale(4.01601)"></rect> </clipPath> </defs> </svg> 