<?xml version="1.0" encoding="UTF-8"?> <svg xmlns="http://www.w3.org/2000/svg" width="28" height="28" viewBox="0 0 28 28" fill="none"> <path d="M14.2162 0.55127C6.90806 0.55127 0.983784 6.47554 0.983784 13.7837C0.983784 21.0919 6.90806 27.0161 14.2162 27.0161C21.5244 27.0161 27.4487 21.0919 27.4487 13.7837C27.4487 6.47554 21.5244 0.55127 14.2162 0.55127ZM19.3052 15.4805C19.3052 15.4805 20.4754 16.6356 20.7635 17.1718C20.7718 17.1828 20.7759 17.1938 20.7787 17.1993C20.8958 17.3964 20.9234 17.5494 20.8655 17.6638C20.769 17.8541 20.4382 17.9478 20.3252 17.9561H18.2576C18.1143 17.9561 17.8138 17.9188 17.4499 17.668C17.1701 17.4722 16.8944 17.1511 16.6256 16.8382C16.2245 16.3723 15.8772 15.9698 15.5271 15.9698C15.4826 15.9697 15.4384 15.9767 15.3961 15.9905C15.1315 16.0759 14.7924 16.4536 14.7924 17.4598C14.7924 17.7741 14.5443 17.9547 14.3692 17.9547H13.4223C13.0997 17.9547 11.4195 17.8417 9.93084 16.2717C8.10862 14.3488 6.46835 10.4921 6.45457 10.4563C6.35119 10.2068 6.56484 10.0731 6.79779 10.0731H8.88603C9.16446 10.0731 9.25543 10.2427 9.31884 10.3929C9.39327 10.5679 9.66619 11.264 10.1142 12.0469C10.8406 13.3233 11.2858 13.8416 11.6428 13.8416C11.7097 13.8408 11.7755 13.8238 11.8344 13.792C12.3003 13.5328 12.2134 11.8719 12.1928 11.5273C12.1928 11.4625 12.1914 10.7844 11.9529 10.4591C11.782 10.2234 11.4912 10.1338 11.3147 10.1007C11.3861 10.0021 11.4802 9.92224 11.589 9.86773C11.9088 9.70784 12.485 9.68441 13.057 9.68441H13.3754C13.9957 9.69268 14.1556 9.73265 14.3802 9.78916C14.8351 9.89806 14.8448 10.1917 14.8048 11.1965C14.7924 11.4818 14.78 11.8044 14.78 12.1848C14.78 12.2675 14.7758 12.3557 14.7758 12.4494C14.7621 12.9608 14.7455 13.5411 15.1067 13.7796C15.1538 13.8091 15.2082 13.8249 15.2638 13.8251C15.3892 13.8251 15.7669 13.8251 16.7897 12.0704C17.1051 11.5056 17.3792 10.9187 17.6098 10.3143C17.6305 10.2785 17.6911 10.1682 17.7628 10.1255C17.8157 10.0985 17.8743 10.0848 17.9337 10.0855H20.3886C20.656 10.0855 20.8393 10.1255 20.8738 10.2289C20.9344 10.3929 20.8628 10.8932 19.7421 12.4108L19.2418 13.0711C18.2259 14.4026 18.2259 14.4701 19.3052 15.4805Z" fill="#1F78E1"></path> </svg> 