<svg width="100" height="100" viewBox="0 0 100 100" fill="none" xmlns="http://www.w3.org/2000/svg">
<path d="M3.86126 1.42826C2.63626 1.97926 1.41126 3.60226 1.13626 5.04126C0.677255 7.55226 0.279255 7.09226 22.3863 29.2612L43.0853 49.9912L22.3553 70.7512C10.9653 82.1422 1.50326 91.7872 1.31926 92.1552C0.829255 93.1352 0.921255 95.2172 1.47226 96.4112C2.42126 98.4012 5.39126 99.5042 7.59626 98.6772C8.05526 98.4932 17.8233 89.0622 29.3053 77.7022L50.1573 57.0642L70.6743 77.6102C82.4633 89.3992 91.5872 98.3092 92.1382 98.5542C96.3022 100.361 100.497 95.8902 98.4762 91.8482C98.2002 91.2972 88.8002 81.6512 77.5633 70.4142L57.1703 49.9302L77.7473 29.5372C99.9153 7.49125 99.3343 8.16425 98.8443 5.47025C98.2933 2.50025 94.5883 0.724259 91.8323 2.10225C91.2813 2.37725 81.7273 11.7172 70.5823 22.8322L50.2813 43.1022L29.7043 22.5252C18.3743 11.2262 8.66826 1.76526 8.11726 1.48926C6.92326 0.907261 5.14726 0.877264 3.86126 1.42826Z" fill="#FACA2A"/>
</svg>
