<?xml version="1.0" encoding="UTF-8"?> <svg xmlns="http://www.w3.org/2000/svg" width="51" height="51" viewBox="0 0 51 51" fill="none"> <path fill-rule="evenodd" clip-rule="evenodd" d="M3.28711 4.53621V9.07252L4.10889 9.04354L4.93066 9.01465L4.95676 5.3552L4.98296 1.69585L8.64231 1.66965L12.3018 1.64355L12.3306 0.821777L12.3596 0H7.82332H3.28711V4.53621ZM38.6694 0.821777L38.6982 1.64355L42.3577 1.66965L46.017 1.69585L46.0432 5.3552L46.0693 9.01465L46.8911 9.04354L47.7129 9.07252V4.53621V0H43.1767H38.6404L38.6694 0.821777ZM23.8066 5.0738C20.3345 5.7123 17.3388 8.25792 16.2117 11.5277C15.6492 13.1596 15.6459 13.2183 15.6422 21.6736L15.6387 29.4517L15.0328 29.6201C12.9636 30.1955 11.5451 31.5947 10.879 33.7178C10.7465 34.1403 10.7169 35.1108 10.6841 40.1177L10.6455 46.0195H25.5H40.3545L40.3159 40.1177C40.2831 35.1108 40.2535 34.1403 40.121 33.7178C39.4549 31.5947 38.0364 30.1955 35.9672 29.6201L35.3613 29.4517L35.3578 21.6736C35.3541 13.2183 35.3508 13.1596 34.7883 11.5277C33.9592 9.12233 32.1056 7.0642 29.7493 5.93254C28.2804 5.227 27.5862 5.06783 25.7988 5.02679C24.9497 5.00736 24.0532 5.02848 23.8066 5.0738ZM26.8945 6.71696C30.5816 7.38723 33.2798 10.309 33.6634 14.0465C33.7832 15.2144 33.8004 16.4355 33.6969 16.4355C33.6579 16.4355 33.3553 16.3031 33.0245 16.1411C32.6936 15.9792 32.3444 15.8237 32.2485 15.7957C32.0991 15.7518 32.0742 15.6159 32.0742 14.8449V13.9453H31.2773H30.4805V14.2245C30.4805 14.7504 29.0298 15.9742 28.145 16.1946L27.8516 16.2677L28.2197 15.8185C28.4222 15.5713 28.587 15.3289 28.5858 15.2798C28.5847 15.2307 28.3013 15.005 27.9561 14.7782L27.3284 14.3661L26.7182 14.9834C26.1607 15.5474 25.428 16.0112 24.8112 16.1903C24.5883 16.2551 24.5974 16.2276 24.9357 15.8147C25.1365 15.5696 25.2999 15.3289 25.2987 15.2798C25.2976 15.2307 25.0174 15.0075 24.6761 14.7841L24.0557 14.3777L23.4331 15.0032C23.0403 15.3976 22.5796 15.7387 22.1852 15.9269C21.5392 16.2352 20.74 16.4604 20.5996 16.3737C20.5556 16.3465 20.5195 15.789 20.5195 15.1347V13.9453H19.7227H18.9258V14.8449C18.9258 15.6159 18.9009 15.7518 18.7515 15.7957C18.6555 15.8237 18.3064 15.9792 17.9755 16.1411C17.6447 16.3031 17.3421 16.4355 17.3031 16.4355C17.1997 16.4355 17.2168 15.2144 17.3366 14.0465C17.8288 9.25102 22.2372 5.87038 26.8945 6.71696ZM5.77734 11.5049V12.3516H6.57422H7.37109V11.5049V10.6582H6.57422H5.77734V11.5049ZM5.77734 14.475C5.77734 15.9175 4.94043 17.0329 3.73406 17.1983L3.28711 17.2595V18.069V18.8787L3.80418 19.0015C5.05478 19.2985 5.76748 20.2888 5.77495 21.7397L5.77734 22.2129H6.57422H7.37109V21.8193C7.37109 20.3583 8.12534 19.291 9.36617 18.9962L9.86133 18.8787V18.0555V17.2324L9.5874 17.2314C9.17024 17.2299 8.34338 16.8033 8.02433 16.4249C7.61673 15.9415 7.46024 15.5044 7.39739 14.6739L7.34231 13.9453H6.55988H5.77734V14.475ZM30.4559 19.5981C30.4049 22.4518 30.3732 22.6502 29.7831 23.8069C29.5017 24.3585 28.5897 25.2759 27.9527 25.6482C26.5103 26.4913 24.4897 26.4913 23.0473 25.6482C22.3837 25.2604 21.4909 24.3474 21.1924 23.7515C20.6371 22.6431 20.5807 22.3125 20.5748 20.13L20.5693 18.0969L21.25 17.9588C21.6244 17.8828 22.1527 17.7332 22.4241 17.6262C22.6955 17.5192 22.9382 17.4316 22.9636 17.4316C22.989 17.4316 23.0098 17.5885 23.0098 17.7803C23.0098 17.9966 23.058 18.1289 23.1369 18.1289C23.6838 18.1289 25.0368 17.8774 25.5706 17.6765C25.9283 17.5418 26.2381 17.4316 26.2589 17.4316C26.2798 17.4316 26.2969 17.5921 26.2969 17.7882V18.1447L26.9692 18.0779C27.339 18.0412 27.9098 17.9439 28.2376 17.8621C28.8058 17.7199 29.9258 17.2248 30.1269 17.0268C30.1789 16.9755 30.2849 16.9336 30.3625 16.9336C30.4819 16.9336 30.4962 17.344 30.4559 19.5981ZM0 18.0791V18.9338L0.821777 18.9049L1.64355 18.876V18.0791V17.2822L0.821777 17.2533L0 17.2244V18.0791ZM11.5547 18.0791V18.9258H12.3516H13.1484V18.0791V17.2324H12.3516H11.5547V18.0791ZM7.00443 17.7119L7.37538 18.092L6.97863 18.509L6.58179 18.9262L6.18524 18.5026L5.7887 18.0791L6.15187 17.7056C6.35159 17.5002 6.54165 17.332 6.57422 17.332C6.60679 17.332 6.80033 17.503 7.00443 17.7119ZM18.8871 21.9859C18.807 22.066 18.2782 21.7317 17.9597 21.3996C17.5217 20.9431 17.332 20.4361 17.332 19.7219C17.332 18.8435 17.7258 18.1965 18.627 17.5941L18.876 17.4277L18.9028 19.6855C18.9175 20.9274 18.9105 21.9626 18.8871 21.9859ZM32.8871 18.0058C33.4499 18.5143 33.668 18.9935 33.668 19.7219C33.668 20.4361 33.4783 20.9431 33.0403 21.3996C32.7585 21.6934 32.2832 22.0137 32.129 22.0137C32.0988 22.0137 32.0742 20.9811 32.0742 19.7192V17.4247L32.2822 17.5359C32.3967 17.5972 32.6689 17.8087 32.8871 18.0058ZM43.6289 21.3662V22.2129H44.4258H45.2227V21.3662V20.5195H44.4258H43.6289V21.3662ZM17.8424 23.3489C18.0822 23.4807 18.5333 23.6441 18.845 23.712C19.3256 23.8168 19.4301 23.8802 19.5332 24.129C19.7572 24.6698 20.3833 25.5453 20.9052 26.0479L21.4226 26.5459L21.3944 27.3418L21.3662 28.1377L19.374 28.6075C18.2783 28.8659 17.3482 29.0793 17.3071 29.0816C17.2661 29.0839 17.2324 27.7412 17.2324 26.0977C17.2324 24.4541 17.2716 23.1094 17.3195 23.1094C17.3674 23.1094 17.6027 23.2172 17.8424 23.3489ZM33.7676 26.0977C33.7676 27.7412 33.734 29.0839 33.6929 29.0816C33.6517 29.0793 32.7217 28.8659 31.626 28.6075L29.6338 28.1378L29.6045 27.3579L29.5753 26.5782L30.2534 25.8644C30.6284 25.4696 31.0849 24.8544 31.2751 24.4878C31.6174 23.8274 31.6209 23.8244 32.1832 23.705C32.4937 23.6392 32.9211 23.4824 33.1332 23.3567C33.3451 23.231 33.5746 23.1239 33.6431 23.1187C33.7401 23.1115 33.7676 23.7684 33.7676 26.0977ZM5.77734 24.6533V25.5H6.57422H7.37109V24.6533V23.8066H6.57422H5.77734V24.6533ZM43.6289 24.25C43.6289 25.757 42.8029 26.8927 41.5856 27.0596L41.1387 27.1208V27.9304V28.74L41.64 28.859C42.8561 29.1479 43.6289 30.2314 43.6289 31.6477V32.0742H44.4114H45.1939L45.2501 31.3302C45.35 30.011 46.0453 29.136 47.215 28.8582L47.7129 28.74V27.9168V27.0938H47.3957C47.2212 27.0938 46.8879 27.0015 46.6549 26.8888C45.7595 26.4552 45.2227 25.4987 45.2227 24.3364V23.8066H44.4258H43.6289V24.25ZM37.8516 27.9902V28.7871H38.6484H39.4453V27.9902V27.1934H38.6484H37.8516V27.9902ZM44.8583 27.5757L45.2315 27.958L44.8228 28.3667L44.414 28.7754L44.0112 28.3725L43.6085 27.9698L43.9875 27.5815C44.196 27.3681 44.3932 27.1934 44.4258 27.1934C44.4584 27.1934 44.6529 27.3654 44.8583 27.5757ZM49.3066 27.9902V28.7871H50.1533H51V27.9902V27.1934H50.1533H49.3066V27.9902ZM23.885 27.7577C24.9349 28.0703 26.6926 27.9688 27.8371 27.5296C27.9609 27.4821 27.9902 27.5566 27.9902 27.9176V28.3643L26.8198 29.2441C26.1761 29.7279 25.5822 30.1239 25.5 30.1239C25.4178 30.1239 24.824 29.7279 24.1802 29.2441L23.0098 28.3643V27.9176C23.0098 27.5566 23.0392 27.4821 23.1629 27.5296C23.247 27.5619 23.5721 27.6646 23.885 27.7577ZM22.9748 30.3973C23.4902 30.7899 23.8993 31.1487 23.8839 31.1948C23.8686 31.2409 23.4527 31.5211 22.9598 31.8175C22.3643 32.1755 22.0431 32.3174 22.0025 32.2402C21.9689 32.1763 21.8614 31.6153 21.7634 30.9937C21.6116 30.0306 21.6059 29.8502 21.7247 29.7749C21.9525 29.6307 21.9978 29.6533 22.9748 30.3973ZM29.4448 29.7818C29.5176 29.7827 29.4704 30.2111 29.3048 31.0532C29.1674 31.7517 29.0423 32.3392 29.0269 32.3586C29 32.3923 27.3784 31.4497 27.1183 31.2491C26.9374 31.1095 28.8594 29.664 29.1357 29.7317C29.2453 29.7585 29.3844 29.7811 29.4448 29.7818ZM20.3619 32.5723C20.5712 33.8871 20.7864 34.9629 20.84 34.9629C20.8936 34.9629 21.7579 34.4698 22.7607 33.8672C23.7636 33.2646 24.6109 32.7715 24.6436 32.7715C24.6763 32.7715 24.7031 35.3937 24.7031 38.5986V44.4258H21.3844H18.0659L17.9392 43.7891C17.8696 43.4389 17.6595 42.8673 17.4723 42.5191C16.5305 40.7667 16.3329 39.9915 16.5273 38.8099C16.6681 37.9539 16.9449 37.3241 17.6201 36.3236L18.1289 35.5695V34.6685V33.7676H17.2822H16.4355V34.4541C16.4355 35.1111 16.4128 35.1769 15.9066 35.9831C15.1865 37.1301 14.9206 37.9518 14.8666 39.1963C14.8099 40.5024 14.9969 41.2917 15.6805 42.6328C15.9738 43.2081 16.2599 43.8469 16.3166 44.0522L16.4195 44.4258H14.3821H12.3447L12.373 39.3208L12.4014 34.2158L12.6465 33.6242C12.9612 32.865 13.8398 31.9176 14.5711 31.5493C15.0304 31.3178 19.2566 30.2257 19.827 30.191C19.9524 30.1834 20.0524 30.6289 20.3619 32.5723ZM33.7055 30.7732C35.0538 31.0837 36.093 31.3799 36.4307 31.5502C37.1601 31.9175 38.0392 32.8659 38.3535 33.6242L38.5986 34.2158L38.627 39.3208L38.6553 44.4258H36.6179H34.5805L34.6834 44.0522C34.7401 43.8469 35.0262 43.2081 35.3195 42.6328C36.0031 41.2917 36.1901 40.5024 36.1334 39.1963C36.0794 37.9518 35.8135 37.1301 35.0934 35.9831C34.5872 35.1769 34.5645 35.1111 34.5645 34.4541V33.7676H33.7178H32.8711V34.6685V35.5695L33.3799 36.3236C34.044 37.3078 34.3271 37.9462 34.4715 38.7858C34.6731 39.9578 34.4677 40.77 33.5277 42.5191C33.3405 42.8673 33.1304 43.4389 33.0607 43.7891L32.9341 44.4258H29.6156H26.2969V38.5986C26.2969 35.3937 26.3237 32.7715 26.3564 32.7715C26.3891 32.7715 27.2448 33.2695 28.2578 33.8783C29.2708 34.4871 30.1339 34.9466 30.176 34.8993C30.2179 34.8521 30.4406 33.8498 30.6709 32.6719C31.1806 30.0649 31.1534 30.1614 31.3601 30.2224C31.4516 30.2494 32.507 30.4972 33.7055 30.7732ZM43.6289 34.5645V35.3613H44.4258H45.2227V34.5645V33.7676H44.4258H43.6289V34.5645ZM21.416 37.0049V37.8516H22.2129H23.0098V37.0049V36.1582H22.2129H21.416V37.0049ZM27.9902 37.0049V37.8516H28.7871H29.584V37.0049V36.1582H28.7871H27.9902V37.0049ZM3.28711 46.4638V51H7.82332H12.3596L12.3306 50.1782L12.3018 49.3564L8.64231 49.3303L4.98296 49.3042L4.95676 45.6448L4.93066 41.9854L4.10889 41.9565L3.28711 41.9275V46.4638ZM46.086 42.002C46.0494 42.0384 46.0195 43.6964 46.0195 45.6862V49.3042L42.3589 49.3303L38.6982 49.3564L38.6694 50.1782L38.6404 51H43.1767H47.7129V46.4678V41.9355H46.9326C46.5034 41.9355 46.1224 41.9654 46.086 42.002Z" fill="white"></path> </svg> 