<?xml version="1.0" encoding="UTF-8"?> <svg xmlns="http://www.w3.org/2000/svg" width="222" height="186" viewBox="0 0 222 186" fill="none"> <g clip-path="url(#clip0_259_853)"> <path d="M159.338 32.6682C159.085 32.0316 158.598 31.5159 157.977 31.227L111.617 11.6101C110.985 11.3422 110.272 11.335 109.635 11.59C108.998 11.8449 108.487 12.3414 108.214 12.9713L92.2001 50.6436C92.0712 50.9546 92.0049 51.2879 92.0049 51.6245C92.0049 51.9611 92.0712 52.2944 92.2001 52.6053C92.3269 52.9214 92.5165 53.2085 92.7573 53.4493C92.9981 53.6901 93.2852 53.8797 93.6013 54.0065L140.121 73.6634C140.449 73.8068 140.805 73.8752 141.162 73.8636C141.666 73.8643 142.158 73.7165 142.578 73.4388C142.999 73.1612 143.327 72.7658 143.524 72.3023L159.538 34.6299C159.636 34.3059 159.668 33.9657 159.634 33.629C159.6 33.2923 159.499 32.9657 159.338 32.6682Z" fill="#F7941E"></path> <path d="M143.363 70.3004C143.108 69.6742 142.62 69.1717 142.002 68.8991L59.4908 33.9491C59.1807 33.8172 58.8476 33.7479 58.5106 33.7449C58.1736 33.742 57.8393 33.8056 57.5269 33.932C57.2146 34.0585 56.9302 34.2453 56.6901 34.4818C56.4501 34.7183 56.259 34.9998 56.1279 35.3103L30.666 95.3619C30.5341 95.672 30.4648 96.0051 30.4618 96.3421C30.4589 96.6791 30.5225 97.0134 30.6489 97.3257C30.7754 97.6381 30.9622 97.9225 31.1987 98.1626C31.4352 98.4026 31.7167 98.5937 32.0272 98.7248L114.498 133.715C114.83 133.843 115.183 133.911 115.539 133.915C115.869 133.906 116.194 133.838 116.5 133.715C116.816 133.588 117.103 133.398 117.344 133.158C117.585 132.917 117.774 132.63 117.901 132.314L143.363 72.262C143.496 71.9522 143.565 71.6185 143.565 71.2812C143.565 70.9439 143.496 70.6102 143.363 70.3004Z" fill="#FFC570"></path> <path d="M117.218 13.9744L99.2357 56.4003L115.344 63.2277L133.326 20.8018L117.218 13.9744Z" fill="#FBB040"></path> <path d="M106.371 152.932L170.106 2.60233L106.371 152.932Z" fill="#013177"></path> <path d="M106.371 155.534C106.024 155.531 105.681 155.449 105.37 155.294C104.799 155.023 104.351 154.547 104.114 153.962C103.876 153.376 103.868 152.723 104.089 152.131L167.744 1.56137C167.878 1.25118 168.072 0.970438 168.314 0.735167C168.557 0.499896 168.843 0.314705 169.158 0.190168C169.472 0.0656303 169.807 0.00418506 170.145 0.00934048C170.483 0.0144959 170.817 0.086151 171.127 0.220215C171.437 0.354278 171.718 0.548125 171.953 0.790686C172.188 1.03325 172.373 1.31977 172.498 1.63391C172.623 1.94804 172.684 2.28362 172.679 2.6215C172.674 2.95938 172.602 3.29294 172.468 3.60312L108.773 153.932C108.571 154.404 108.237 154.806 107.81 155.09C107.384 155.374 106.884 155.529 106.371 155.534Z" fill="#013177"></path> <path d="M220.429 21.0981L171.106 0.200096C170.798 0.0620634 170.464 -0.00928533 170.126 -0.00928533C169.788 -0.00928533 169.453 0.0620634 169.145 0.200096C168.831 0.320408 168.545 0.503074 168.305 0.737039C168.064 0.971003 167.873 1.2514 167.744 1.56127L162.619 13.5716C162.488 13.887 162.42 14.2253 162.419 14.567C162.418 14.9087 162.485 15.2473 162.615 15.5633C162.745 15.8792 162.936 16.1665 163.177 16.4087C163.418 16.6508 163.705 16.8431 164.02 16.9745L213.303 37.8725C213.634 37.9292 213.972 37.9292 214.304 37.8725C214.621 37.9331 214.947 37.9331 215.264 37.8725C215.901 37.6195 216.417 37.1324 216.706 36.5113L221.79 24.501C222.058 23.8689 222.065 23.1566 221.81 22.5192C221.555 21.8819 221.059 21.3711 220.429 21.0981Z" fill="#074EA3"></path> <path d="M74.2366 40.2002L46.755 105.037L62.8629 111.865L90.3444 47.0277L74.2366 40.2002Z" fill="#F7941E"></path> <path d="M116.54 128.991L12.7304 84.9531C12.4194 84.8242 12.0861 84.7579 11.7495 84.7579C11.4129 84.7579 11.0796 84.8242 10.7687 84.9531C10.4526 85.08 10.1655 85.2695 9.92472 85.5103C9.6839 85.7511 9.49434 86.0382 9.36749 86.3543L0.199607 108.093C0.0615747 108.402 -0.00977403 108.736 -0.00977403 109.074C-0.00977403 109.412 0.0615747 109.746 0.199607 110.055C0.31992 110.368 0.502585 110.654 0.73655 110.895C0.970515 111.136 1.25091 111.327 1.56078 111.456L105.37 155.494C105.681 155.649 106.023 155.731 106.371 155.734C106.701 155.73 107.027 155.662 107.332 155.534C107.973 155.268 108.489 154.766 108.773 154.133L117.901 132.554C118.065 132.234 118.16 131.883 118.18 131.524C118.2 131.164 118.144 130.805 118.015 130.469C117.887 130.133 117.689 129.827 117.435 129.573C117.181 129.318 116.876 129.12 116.54 128.991Z" fill="#074EA3"></path> <path d="M119.262 122.505C111.193 119.086 102.095 119.013 93.9719 122.301C85.8484 125.59 79.3639 131.971 75.9449 140.04C72.526 148.11 72.4527 157.207 75.7412 165.331C79.0296 173.454 85.4105 179.939 93.48 183.358C97.5399 185.101 101.912 186.001 106.331 186C113.952 185.995 121.337 183.358 127.238 178.535C133.139 173.711 137.192 166.998 138.713 159.531C140.234 152.063 139.129 144.299 135.584 137.552C132.04 130.806 126.274 125.49 119.262 122.505Z" fill="#013177"></path> <path d="M110.975 142.122C108.108 140.907 104.876 140.879 101.989 142.047C99.102 143.214 96.7973 145.481 95.5815 148.348C94.3658 151.214 94.3387 154.447 95.5062 157.334C96.6736 160.22 98.9401 162.525 101.807 163.741C103.249 164.356 104.803 164.669 106.371 164.662C109.083 164.673 111.714 163.744 113.819 162.034C115.923 160.323 117.369 157.936 117.912 155.279C118.455 152.622 118.06 149.859 116.795 147.461C115.531 145.062 113.474 143.175 110.975 142.122Z" fill="#074EA3"></path> </g> <defs> <clipPath id="clip0_259_853"> <rect width="55.45" height="46.46" fill="white" transform="scale(4.00344)"></rect> </clipPath> </defs> </svg> 