<?xml version="1.0" encoding="UTF-8"?> <svg xmlns="http://www.w3.org/2000/svg" width="272" height="252" viewBox="0 0 272 252" fill="none"> <path d="M146.274 252C173.202 252 195.032 229.939 195.032 202.726C195.032 175.513 173.202 153.453 146.274 153.453C119.346 153.453 97.5161 175.513 97.5161 202.726C97.5161 229.939 119.346 252 146.274 252Z" fill="#D2DEF5"></path> <path d="M41.7926 188.648C64.874 188.648 83.5851 169.739 83.5851 146.413C83.5851 123.088 64.874 104.179 41.7926 104.179C18.7112 104.179 0 123.088 0 146.413C0 169.739 18.7112 188.648 41.7926 188.648Z" fill="#D2DEF5"></path> <path d="M202.346 140.782C240.815 140.782 272 109.267 272 70.3911C272 31.5152 240.815 0 202.346 0C163.877 0 132.691 31.5152 132.691 70.3911C132.691 109.267 163.877 140.782 202.346 140.782Z" fill="#D2DEF5"></path> <path d="M225.68 235.106C237.221 235.106 246.576 225.652 246.576 213.989C246.576 202.326 237.221 192.871 225.68 192.871C214.139 192.871 204.784 202.326 204.784 213.989C204.784 225.652 214.139 235.106 225.68 235.106Z" fill="white"></path> <path d="M238.914 197.447C239.611 199.207 239.611 201.318 239.611 203.43C239.611 215.045 230.207 224.547 218.714 224.547C213.838 224.547 209.311 222.788 205.48 219.972C207.918 228.771 215.928 235.106 225.68 235.106C237.173 235.106 246.576 225.603 246.576 213.989C246.576 207.302 243.442 201.318 238.914 197.447Z" fill="#FFE388"></path> <path d="M225.68 237.57C212.794 237.57 201.997 227.011 201.997 213.637C201.997 200.614 212.445 189.704 225.68 189.704C238.566 189.704 249.362 200.263 249.362 213.637C249.362 227.011 238.566 237.57 225.68 237.57ZM225.68 195.335C215.58 195.335 207.221 203.782 207.221 213.637C207.221 223.844 215.58 231.938 225.68 231.938C235.78 231.938 243.79 223.492 243.79 213.637C244.138 203.782 235.78 195.335 225.68 195.335Z" fill="#21365F"></path> <path d="M225.68 217.508C227.603 217.508 229.163 215.932 229.163 213.988C229.163 212.045 227.603 210.469 225.68 210.469C223.757 210.469 222.197 212.045 222.197 213.988C222.197 215.932 223.757 217.508 225.68 217.508Z" fill="#21365F"></path> <path d="M44.5787 51.7374C56.1194 51.7374 65.4749 42.2829 65.4749 30.6201C65.4749 18.9574 56.1194 9.50281 44.5787 9.50281C33.038 9.50281 23.6824 18.9574 23.6824 30.6201C23.6824 42.2829 33.038 51.7374 44.5787 51.7374Z" fill="white"></path> <path d="M57.813 14.4297C58.5095 16.1895 58.5095 18.3012 58.5095 20.4129C58.5095 32.0275 49.1062 41.5302 37.6132 41.5302C32.7374 41.5302 28.2099 39.7705 24.3789 36.9548C26.8168 45.7537 34.8271 52.0889 44.5787 52.0889C56.0716 52.0889 65.4749 42.5861 65.4749 30.9716C65.4749 24.2844 62.3405 18.3012 57.813 14.4297Z" fill="#FFE388"></path> <path d="M44.5787 54.553C31.6927 54.553 20.8962 43.9944 20.8962 30.6201C20.8962 17.2458 31.6927 7.03906 44.5787 7.03906C57.4647 7.03906 67.9129 17.5977 67.9129 30.972C67.9129 44.3463 57.4647 54.553 44.5787 54.553ZM44.5787 12.3184C34.4788 12.3184 26.1203 20.7653 26.1203 30.6201C26.1203 40.8268 34.4788 48.9217 44.5787 48.9217C54.6786 48.9217 62.6888 40.4748 62.6888 30.6201C63.0371 20.7653 54.6786 12.3184 44.5787 12.3184Z" fill="#21365F"></path> <path d="M44.5787 34.1396C46.5021 34.1396 48.0614 32.5638 48.0614 30.62C48.0614 28.6762 46.5021 27.1005 44.5787 27.1005C42.6552 27.1005 41.0959 28.6762 41.0959 30.62C41.0959 32.5638 42.6552 34.1396 44.5787 34.1396Z" fill="#21365F"></path> <path d="M215.232 51.0335H201.301C199.908 51.0335 198.515 49.9776 198.515 48.2179C198.515 46.81 199.559 45.4022 201.301 45.4022H215.232C216.625 45.4022 218.018 46.4581 218.018 48.2179C218.018 49.9776 216.625 51.0335 215.232 51.0335Z" fill="#21365F"></path> <path d="M208.266 58.0725C206.873 58.0725 205.48 57.0167 205.48 55.2569V41.1787C205.48 39.7709 206.525 38.363 208.266 38.363C209.659 38.363 211.052 39.4189 211.052 41.1787V55.2569C211.052 57.0167 209.659 58.0725 208.266 58.0725Z" fill="#21365F"></path> <path d="M58.5095 96.7877H44.5787C43.1856 96.7877 41.7925 95.7318 41.7925 93.972C41.7925 92.5642 42.8373 91.1564 44.5787 91.1564H58.5095C59.9026 91.1564 61.2957 92.2122 61.2957 93.972C61.2957 95.7318 59.9026 96.7877 58.5095 96.7877Z" fill="#21365F"></path> <path d="M51.5442 103.827C50.1511 103.827 48.7581 102.771 48.7581 101.011V86.933C48.7581 85.5251 49.8029 84.1173 51.5442 84.1173C52.9373 84.1173 54.3304 85.1732 54.3304 86.933V101.011C54.3304 102.771 52.9373 103.827 51.5442 103.827Z" fill="#21365F"></path> <path d="M232.645 142.541H218.714C217.321 142.541 215.928 141.486 215.928 139.726C215.928 138.318 216.973 136.91 218.714 136.91H232.645C234.038 136.91 235.431 137.966 235.431 139.726C235.431 141.486 234.038 142.541 232.645 142.541Z" fill="#21365F"></path> <path d="M225.68 149.581C224.287 149.581 222.894 148.525 222.894 146.765V132.687C222.894 131.279 223.938 129.871 225.68 129.871C227.073 129.871 228.466 130.927 228.466 132.687V146.765C228.466 148.525 227.073 149.581 225.68 149.581Z" fill="#21365F"></path> <path d="M82.8887 188.296H68.9578C67.5647 188.296 66.1716 187.24 66.1716 185.48C66.1716 184.073 67.2164 182.665 68.9578 182.665H82.8887C84.2817 182.665 85.6748 183.721 85.6748 185.48C85.6748 187.24 84.2817 188.296 82.8887 188.296Z" fill="#21365F"></path> <path d="M75.9231 195.335C74.53 195.335 73.137 194.279 73.137 192.52V178.441C73.137 177.034 74.1818 175.626 75.9231 175.626C77.3162 175.626 78.7093 176.682 78.7093 178.441V192.52C78.7093 194.279 77.3162 195.335 75.9231 195.335Z" fill="#21365F"></path> <path d="M223.938 79.1899H204.087C202.694 79.1899 201.301 78.134 201.301 76.3743C201.301 74.9664 202.346 73.5586 204.087 73.5586H223.938C235.083 73.5586 244.138 64.4078 244.138 53.1452C244.138 41.8826 235.083 32.7318 223.938 32.7318H65.4749C64.0818 32.7318 62.6887 31.6759 62.6887 29.9161C62.6887 28.1564 64.0818 28.1564 65.4749 28.1564H223.938C237.869 28.1564 249.362 39.7709 249.362 53.8491C249.362 67.5754 237.869 79.1899 223.938 79.1899Z" fill="#21365F"></path> <path d="M55.0268 124.944H46.6683C32.7375 124.944 21.5928 113.33 21.5928 99.6034C21.5928 85.5251 33.0857 74.2626 46.6683 74.2626H83.9334C85.3265 74.2626 86.7195 75.3184 86.7195 77.0782C86.7195 78.486 85.6747 79.8939 83.9334 79.8939H46.32C35.1754 79.8939 26.4686 89.0447 26.4686 99.9553C26.4686 111.218 35.5236 120.017 46.32 120.017H54.6786C56.0716 120.017 57.4647 121.073 57.4647 122.832C57.4647 123.888 56.4199 124.944 55.0268 124.944Z" fill="#21365F"></path> <path d="M223.939 170.699H197.818C196.425 170.699 195.032 169.643 195.032 167.883C195.032 166.475 196.077 165.067 197.818 165.067H223.939C235.083 165.067 244.138 155.917 244.138 144.654C244.138 133.391 235.083 124.241 223.939 124.241H201.301C199.908 124.241 198.515 123.185 198.515 121.425C198.515 120.017 199.56 118.609 201.301 118.609H223.939C237.869 118.609 249.362 130.224 249.362 144.302C249.362 159.084 237.869 170.699 223.939 170.699Z" fill="#21365F"></path> <path d="M135.129 216.452H46.3201C32.3892 216.452 20.8962 204.838 20.8962 190.76C20.8962 176.682 32.3892 165.067 46.3201 165.067H89.854C91.2471 165.067 92.6402 166.123 92.6402 167.883C92.6402 169.29 91.5953 170.698 89.854 170.698H46.3201C35.1754 170.698 26.1203 179.849 26.1203 191.112C26.1203 202.374 35.1754 211.525 46.3201 211.525H135.129C136.522 211.525 137.915 212.581 137.915 214.341C137.915 215.397 136.522 216.452 135.129 216.452Z" fill="#21365F"></path> <path d="M204.783 216.452H152.543C151.15 216.452 149.757 215.397 149.757 213.637C149.757 212.229 150.801 210.821 152.543 210.821H204.783C206.177 210.821 207.57 211.877 207.57 213.637C207.57 215.397 206.177 216.452 204.783 216.452Z" fill="#21365F"></path> <path d="M182.146 71.4469C156.374 45.4022 114.233 45.4022 88.4609 71.4469C62.6888 97.4915 62.6888 140.078 88.4609 166.123L135.478 213.637L182.494 166.123C207.918 140.078 207.918 97.8435 182.146 71.4469Z" fill="white"></path> <path d="M182.146 71.4469C166.822 55.9609 146.274 49.9777 126.423 52.4413C140.353 54.2011 153.936 60.5363 164.732 71.4469C190.505 97.4916 190.505 140.078 164.732 166.123L126.423 204.838L135.129 213.637L182.146 166.123C207.918 140.078 207.918 97.8436 182.146 71.4469Z" fill="#FFE388"></path> <path d="M135.129 216.452C134.433 216.452 133.736 216.101 133.388 215.749L86.3712 168.235C59.5543 141.134 59.5543 96.7877 86.3712 69.6871C113.188 42.5866 157.07 42.5866 183.887 69.6871C210.704 96.7877 210.704 141.134 183.887 168.235L136.871 215.749C136.522 216.101 135.826 216.452 135.129 216.452ZM135.129 54.553C118.76 54.553 102.392 60.8882 90.2022 73.5586C65.4749 98.5474 65.4749 139.374 90.2022 164.715L135.129 210.117L180.056 164.715C204.784 139.726 204.784 98.8994 180.056 73.5586C167.867 60.8882 151.498 54.553 135.129 54.553Z" fill="#21365F"></path> <path d="M135.129 83.7654L100.302 98.1955L135.129 112.978L169.957 98.1955L135.129 83.7654Z" fill="#FFE388"></path> <path d="M124.681 87.9893L100.302 98.196L124.681 108.403L147.667 98.8999C148.364 98.5479 148.364 97.844 147.667 97.4921L124.681 87.9893Z" fill="white"></path> <path d="M135.129 115.441C134.781 115.441 134.433 115.441 134.084 115.089L99.2572 100.307C98.2124 99.9552 97.5159 98.8994 97.5159 97.8435C97.5159 96.7876 98.2124 95.7318 99.2572 95.3798L134.084 80.5977C134.781 80.2458 135.477 80.2458 136.174 80.5977L171.001 95.3798C172.046 95.7318 172.742 96.7876 172.742 97.8435C172.742 98.8994 172.046 99.9552 171.001 100.307L136.174 115.089C135.826 115.441 135.477 115.441 135.129 115.441ZM107.267 98.1955L135.129 110.162L162.991 98.1955L135.129 86.229L107.267 98.1955Z" fill="#21365F"></path> <path d="M135.129 112.978V154.156L169.957 139.374V98.1954L135.129 112.978Z" fill="#FFE388"></path> <path d="M135.129 112.978V142.542L157.419 133.039C158.812 132.335 159.508 131.279 159.508 129.871V102.771L135.129 112.978Z" fill="white"></path> <path d="M135.129 156.62C134.781 156.62 134.085 156.62 133.736 156.268C133.04 155.916 132.691 154.86 132.691 154.156V112.978C132.691 111.922 133.388 110.866 134.433 110.514L169.26 95.7318C169.956 95.3798 171.001 95.3798 171.698 96.0837C172.394 96.4357 172.743 97.4916 172.743 98.1955V139.374C172.743 140.43 172.046 141.486 171.001 141.838L136.174 156.62C135.826 156.62 135.478 156.62 135.129 156.62ZM137.915 114.737V149.933L167.519 137.614V102.067L137.915 114.737Z" fill="#21365F"></path> <path d="M100.302 98.1954V139.374L135.129 154.156V112.978L100.302 98.1954Z" fill="#FFE388"></path> <path d="M100.302 98.1954V129.519L122.243 138.67C123.288 139.022 124.681 138.318 124.681 136.911V108.05L100.302 98.1954Z" fill="white"></path> <path d="M135.129 156.62C134.781 156.62 134.433 156.62 134.084 156.268L99.2572 141.486C98.2124 141.134 97.5159 140.078 97.5159 139.022V98.1955C97.5159 97.4916 97.8641 96.4358 98.5607 96.0838C99.2572 95.7318 100.302 95.3799 100.999 95.7318L135.826 110.514C136.871 110.866 137.567 111.922 137.567 112.978V154.156C137.567 155.212 137.219 155.916 136.522 156.268C136.174 156.62 135.826 156.62 135.129 156.62ZM103.088 137.615L132.691 149.933V114.737L103.088 102.067V137.615Z" fill="#21365F"></path> </svg> 