<?xml version="1.0" encoding="UTF-8"?> <svg xmlns="http://www.w3.org/2000/svg" width="64" height="67" viewBox="0 0 64 67" fill="none"> <path d="M12.1081 41.9622C18.7952 41.9622 24.2162 36.494 24.2162 29.7487C24.2162 23.0033 18.7952 17.5352 12.1081 17.5352C5.42098 17.5352 0 23.0033 0 29.7487C0 36.494 5.42098 41.9622 12.1081 41.9622Z" fill="#D2DEF5"></path> <path d="M38.0541 20.9375C43.7859 20.9375 48.4324 16.2505 48.4324 10.4688C48.4324 4.68702 43.7859 0 38.0541 0C32.3222 0 27.6757 4.68702 27.6757 10.4688C27.6757 16.2505 32.3222 20.9375 38.0541 20.9375Z" fill="#D2DEF5"></path> <path d="M46.7027 67.0001C56.2557 67.0001 64 59.1884 64 49.5522C64 39.9159 56.2557 32.1042 46.7027 32.1042C37.1497 32.1042 29.4054 39.9159 29.4054 49.5522C29.4054 59.1884 37.1497 67.0001 46.7027 67.0001Z" fill="#D2DEF5"></path> <path d="M60.5405 55.3971H34.7676C34.4216 55.3971 34.0757 55.1353 34.0757 54.6991C34.0757 54.3502 34.3351 54.0012 34.7676 54.0012H60.5405C60.8865 54.0012 61.2324 54.2629 61.2324 54.6991C61.2324 55.1353 60.8865 55.3971 60.5405 55.3971Z" fill="#21365F"></path> <path d="M30.4432 55.3971H15.3081C14.9622 55.3971 14.6162 55.1353 14.6162 54.6991C14.6162 54.3502 14.8757 54.0012 15.3081 54.0012H30.4432C30.7892 54.0012 31.1351 54.2629 31.1351 54.6991C31.0487 55.1353 30.7892 55.3971 30.4432 55.3971Z" fill="#21365F"></path> <path d="M43.4162 60.6314H23.0919C22.7459 60.6314 22.4 60.3697 22.4 59.9335C22.4 59.5845 22.6595 59.2356 23.0919 59.2356H43.4162C43.7622 59.2356 44.1081 59.4973 44.1081 59.9335C44.0216 60.3697 43.7622 60.6314 43.4162 60.6314Z" fill="#21365F"></path> <path d="M18.7676 60.6313H6.05406C5.70811 60.6313 5.36217 60.3696 5.36217 59.9334C5.44865 59.5845 5.70811 59.3228 6.05406 59.3228H18.7676C19.1135 59.3228 19.4595 59.5845 19.4595 60.0207C19.4595 60.3696 19.1135 60.6313 18.7676 60.6313Z" fill="#21365F"></path> <path d="M59.5027 27.5675L58.8108 26.8696H47.5676C46.0973 26.8696 44.973 25.7355 44.973 24.2524V11.1665H41.5135C40.5622 11.1665 39.7838 11.9517 39.7838 12.9113V46.0623H57.9459C59.4162 46.0623 60.5405 44.9282 60.5405 43.4451V30.0975C60.5405 29.0506 60.1946 28.1782 59.5027 27.5675Z" fill="#FFE388"></path> <path d="M56.0432 27.5675L55.3514 26.8696H47.5676C46.0973 26.8696 44.973 25.7355 44.973 24.2524V11.1665H41.5135C40.5622 11.1665 39.7838 11.9517 39.7838 12.9113V42.5728H55.3514C56.3027 42.5728 57.0811 41.7876 57.0811 40.828V30.0975C57.0811 29.0506 56.7351 28.1782 56.0432 27.5675Z" fill="white"></path> <path d="M57.946 46.673H39.7838C39.4378 46.673 39.0919 46.4113 39.0919 45.9751V12.8241C39.0919 11.5155 40.1297 10.3813 41.5135 10.3813H44.973C45.3189 10.3813 45.6649 10.6431 45.6649 11.0793V24.1652C45.6649 25.2121 46.5297 26.0845 47.5676 26.0845H58.8108C58.9838 26.0845 59.1568 26.1717 59.2432 26.259L59.9351 26.9569C60.7135 27.742 61.146 28.7889 61.146 29.923V43.2707C61.146 44.1431 60.8 44.9282 60.1946 45.6261C59.5892 46.3241 58.8108 46.673 57.946 46.673ZM40.4757 45.3644H57.946C58.4649 45.3644 58.9838 45.1899 59.3297 44.7537C59.6757 44.4048 59.9351 43.8814 59.9351 43.3579V30.0103C59.9351 29.2251 59.6757 28.5272 59.0703 28.0037L58.5514 27.4803H47.5676C45.7514 27.4803 44.2811 25.9972 44.2811 24.1652V11.7772H41.5135C40.9081 11.7772 40.4757 12.3006 40.4757 12.8241V45.3644Z" fill="#21365F"></path> <path d="M39.7838 35.5938H6.05406C5.53514 35.5938 5.18919 35.9427 5.18919 36.4661V43.4453C5.18919 44.9284 6.31352 46.0625 7.78379 46.0625H39.7838V35.5938Z" fill="#FFE388"></path> <path d="M36.3243 35.5938H6.05406C5.53514 35.5938 5.18919 35.9427 5.18919 36.4661V39.9557C5.18919 41.4388 6.31352 42.5729 7.78379 42.5729H34.5946C35.546 42.5729 36.3243 41.7878 36.3243 40.8281V35.5938Z" fill="white"></path> <path d="M39.7838 46.6731H7.78379C5.96757 46.6731 4.4973 45.19 4.4973 43.358V36.3788C4.58379 35.5937 5.18919 34.8958 6.05406 34.8958H39.7838C40.1297 34.8958 40.4757 35.1575 40.4757 35.5937V46.0624C40.4757 46.4114 40.1297 46.6731 39.7838 46.6731ZM6.05406 36.2043C5.96757 36.2043 5.88108 36.2916 5.88108 36.3788V43.358C5.88108 44.4921 6.74595 45.3645 7.78379 45.3645H39.0919V36.2043H6.05406Z" fill="#21365F"></path> <path d="M49.2973 30.9701H45.8378C45.4919 30.9701 45.146 30.7083 45.146 30.2721C45.146 29.9232 45.4054 29.5742 45.8378 29.5742H49.2973C49.6432 29.5742 49.9892 29.8359 49.9892 30.2721C49.9892 30.7083 49.6432 30.9701 49.2973 30.9701Z" fill="#21365F"></path> <path d="M52.5838 11.1665H44.973V24.2524C44.973 25.7355 46.0973 26.8696 47.5676 26.8696H58.8108L55.9568 13.8709C55.6108 12.3006 54.227 11.1665 52.5838 11.1665Z" fill="#FFE388"></path> <path d="M48.2595 11.1665H44.973V24.2524C44.973 25.7355 46.0973 26.8696 47.5676 26.8696H54.4865L51.6324 13.8709C51.2865 12.3006 49.9027 11.1665 48.2595 11.1665Z" fill="white"></path> <path d="M58.8108 27.4803H47.5676C45.7514 27.4803 44.2811 25.9972 44.2811 24.1652V11.0793C44.2811 10.7303 44.5405 10.3813 44.973 10.3813H52.5838C54.4865 10.3813 56.2162 11.6899 56.5622 13.6092L59.4162 26.6079C59.4162 26.7824 59.4162 27.0441 59.3297 27.1313C59.1568 27.3931 58.9838 27.4803 58.8108 27.4803ZM45.6649 11.7772V24.1652C45.6649 25.2121 46.5297 26.0845 47.5676 26.0845H58.0324L55.3514 13.9582C55.0919 12.6496 53.9676 11.7772 52.5838 11.7772H45.6649Z" fill="#21365F"></path> <path d="M60.5405 37.2512H57.0811C56.1297 37.2512 55.3513 36.4661 55.3513 35.5064V32.0168H60.5405V37.2512Z" fill="#FFE388"></path> <path d="M57.9459 35.5064H55.3513V32.0168H58.8108V34.634C58.8108 35.1575 58.4649 35.5064 57.9459 35.5064Z" fill="white"></path> <path d="M60.5405 37.9491H57.0811C55.7838 37.9491 54.7459 36.9022 54.7459 35.5063V32.0168C54.7459 31.6678 55.0054 31.3188 55.4378 31.3188H60.627C60.973 31.3188 61.3189 31.5806 61.3189 32.0168V37.2511C61.2324 37.6873 60.8865 37.9491 60.5405 37.9491ZM56.0432 32.7147V35.5063C56.0432 36.117 56.5622 36.5532 57.0811 36.5532H59.8486V32.6274H56.0432V32.7147Z" fill="#21365F"></path> <path d="M60.5405 40.5662H57.0811C56.7351 40.5662 56.4757 40.3045 56.4757 39.8683C56.4757 39.5194 56.7351 39.1704 57.0811 39.1704H60.5405C60.8865 39.1704 61.2324 39.4321 61.2324 39.8683C61.2324 40.3045 60.8865 40.5662 60.5405 40.5662Z" fill="#21365F"></path> <path d="M21.6216 51.2969C24.4875 51.2969 26.8108 48.9534 26.8108 46.0625C26.8108 43.1716 24.4875 40.8281 21.6216 40.8281C18.7557 40.8281 16.4324 43.1716 16.4324 46.0625C16.4324 48.9534 18.7557 51.2969 21.6216 51.2969Z" fill="white"></path> <path d="M24.3027 41.5259C24.8216 42.311 25.0811 43.2707 25.0811 44.2303C25.0811 47.1092 22.746 49.4647 19.8919 49.4647C18.9405 49.4647 17.9892 49.203 17.2108 48.6795C18.1622 50.1626 19.7189 51.2095 21.6216 51.2095C24.4757 51.2095 26.8108 48.854 26.8108 45.9751C26.8108 44.1431 25.773 42.4855 24.3027 41.5259Z" fill="#FFE388"></path> <path d="M21.6216 51.9076C18.4216 51.9076 15.7405 49.2904 15.7405 45.9753C15.7405 42.7474 18.3351 40.043 21.6216 40.043C24.8216 40.043 27.5027 42.6602 27.5027 45.9753C27.5027 49.2904 24.8216 51.9076 21.6216 51.9076ZM21.6216 41.4388C19.1135 41.4388 17.1243 43.5326 17.1243 45.9753C17.1243 48.5052 19.2 50.5117 21.6216 50.5117C24.1297 50.5117 26.1189 48.418 26.1189 45.9753C26.2054 43.5326 24.1297 41.4388 21.6216 41.4388Z" fill="#21365F"></path> <path d="M21.6216 47.8072C22.5769 47.8072 23.3514 47.026 23.3514 46.0624C23.3514 45.0988 22.5769 44.3176 21.6216 44.3176C20.6663 44.3176 19.8919 45.0988 19.8919 46.0624C19.8919 47.026 20.6663 47.8072 21.6216 47.8072Z" fill="white"></path> <path d="M21.6216 48.4178C20.3243 48.4178 19.2 47.3709 19.2 45.9751C19.2 44.5793 20.3243 43.6196 21.6216 43.6196C22.9189 43.6196 24.0432 44.6665 24.0432 46.0623C24.0432 47.4582 22.9189 48.4178 21.6216 48.4178ZM21.6216 44.9282C21.0162 44.9282 20.5838 45.4517 20.5838 45.9751C20.5838 46.5858 21.1027 47.022 21.6216 47.022C22.227 47.022 22.6595 46.4985 22.6595 45.9751C22.7459 45.4517 22.227 44.9282 21.6216 44.9282Z" fill="#21365F"></path> <path d="M49.2973 51.2969C52.1632 51.2969 54.4865 48.9534 54.4865 46.0625C54.4865 43.1716 52.1632 40.8281 49.2973 40.8281C46.4314 40.8281 44.1081 43.1716 44.1081 46.0625C44.1081 48.9534 46.4314 51.2969 49.2973 51.2969Z" fill="white"></path> <path d="M51.9784 41.5259C52.4973 42.311 52.7568 43.2707 52.7568 44.2303C52.7568 47.1092 50.4216 49.4647 47.5676 49.4647C46.6162 49.4647 45.6649 49.203 44.8865 48.6795C45.8378 50.1626 47.3946 51.2095 49.2973 51.2095C52.1514 51.2095 54.4865 48.854 54.4865 45.9751C54.4865 44.1431 53.4486 42.4855 51.9784 41.5259Z" fill="#FFE388"></path> <path d="M49.2973 51.9076C46.0973 51.9076 43.4162 49.2904 43.4162 45.9753C43.4162 42.7474 46.0108 40.043 49.2973 40.043C52.4973 40.043 55.1784 42.6602 55.1784 45.9753C55.1784 49.2904 52.4973 51.9076 49.2973 51.9076ZM49.2973 41.4388C46.7892 41.4388 44.8 43.5326 44.8 45.9753C44.8 48.5052 46.8757 50.5117 49.2973 50.5117C51.8054 50.5117 53.7946 48.418 53.7946 45.9753C53.8811 43.5326 51.8054 41.4388 49.2973 41.4388Z" fill="#21365F"></path> <path d="M49.2973 47.8072C50.2526 47.8072 51.027 47.026 51.027 46.0624C51.027 45.0988 50.2526 44.3176 49.2973 44.3176C48.342 44.3176 47.5676 45.0988 47.5676 46.0624C47.5676 47.026 48.342 47.8072 49.2973 47.8072Z" fill="white"></path> <path d="M49.2973 48.4178C48 48.4178 46.8757 47.3709 46.8757 45.9751C46.8757 44.5793 48 43.6196 49.2973 43.6196C50.5946 43.6196 51.7189 44.6665 51.7189 46.0623C51.7189 47.4582 50.5946 48.4178 49.2973 48.4178ZM49.2973 44.9282C48.6919 44.9282 48.173 45.4517 48.173 45.9751C48.173 46.5858 48.6919 47.022 49.2973 47.022C49.9027 47.022 50.3351 46.4985 50.3351 45.9751C50.4216 45.4517 49.9027 44.9282 49.2973 44.9282Z" fill="#21365F"></path> <path d="M35.4595 4.1001H21.6216V14.5688H35.4595V4.1001Z" fill="#FFE388"></path> <path d="M32.8649 4.1001H21.6216V11.9517H32C32.5189 11.9517 32.8649 11.6027 32.8649 11.0793V4.1001Z" fill="white"></path> <path d="M35.4595 15.2668H21.6216C21.2757 15.2668 20.9297 15.0051 20.9297 14.5689V4.10018C21.0162 3.75122 21.2757 3.4895 21.6216 3.4895H35.4595C35.8054 3.4895 36.1514 3.75122 36.1514 4.18742V14.6562C36.1514 15.0051 35.8054 15.2668 35.4595 15.2668ZM22.3135 13.9583H34.8541V4.7981H22.3135V13.9583Z" fill="#21365F"></path> <path d="M35.4595 14.5688H25.0811V25.0376H35.4595V14.5688Z" fill="#FFE388"></path> <path d="M33.7297 14.5688H25.0811V23.2928H32.8649C33.3838 23.2928 33.7297 22.9438 33.7297 22.4204V14.5688Z" fill="white"></path> <path d="M35.4595 25.7356H25.0811C24.7351 25.7356 24.3892 25.4739 24.3892 25.0377V14.5689C24.3892 14.22 24.6486 13.9583 25.0811 13.9583H35.4595C35.8054 13.9583 36.1514 14.22 36.1514 14.5689V25.0377C36.1514 25.4739 35.8054 25.7356 35.4595 25.7356ZM25.773 24.427H34.8541V15.2668H25.773V24.427Z" fill="#21365F"></path> <path d="M28.1081 22.6821C27.9351 22.6821 27.7622 22.5949 27.6757 22.5076C27.4162 22.2459 27.4162 21.8097 27.6757 21.548L32 17.186C32.2595 16.9243 32.6919 16.9243 32.9514 17.186C33.2108 17.4478 33.2108 17.884 32.9514 18.1457L28.627 22.5076C28.4541 22.5949 28.2811 22.6821 28.1081 22.6821Z" fill="#21365F"></path> <path d="M32.4324 22.6821C32.2595 22.6821 32.0865 22.5949 32 22.5076L27.6757 18.1457C27.4162 17.884 27.4162 17.4478 27.6757 17.186C27.9351 16.9243 28.3676 16.9243 28.627 17.186L32.9514 21.548C33.2108 21.8097 33.2108 22.2459 32.9514 22.5076C32.7784 22.5949 32.6054 22.6821 32.4324 22.6821Z" fill="#21365F"></path> <path d="M25.0811 14.5688H14.7027V25.0376H25.0811V14.5688Z" fill="#FFE388"></path> <path d="M23.3514 14.5688H14.7027V23.2928H22.4865C23.0054 23.2928 23.3514 22.9438 23.3514 22.4204V14.5688Z" fill="white"></path> <path d="M25.0811 25.7356H14.7027C14.3568 25.7356 14.0108 25.4739 14.0108 25.0377V14.5689C14.0108 14.22 14.2703 13.9583 14.7027 13.9583H25.0811C25.427 13.9583 25.773 14.22 25.773 14.5689V25.0377C25.773 25.4739 25.427 25.7356 25.0811 25.7356ZM15.3946 24.427H24.4757V15.2668H15.3946V24.427Z" fill="#21365F"></path> <path d="M17.7297 22.6821C17.5568 22.6821 17.3838 22.5949 17.2973 22.5076C17.0378 22.2459 17.0378 21.8097 17.2973 21.548L21.6216 17.186C21.8811 16.9243 22.3135 16.9243 22.573 17.186C22.8324 17.4478 22.8324 17.884 22.573 18.1457L18.2487 22.5076C18.0757 22.5949 17.9027 22.6821 17.7297 22.6821Z" fill="#21365F"></path> <path d="M22.0541 22.6821C21.8811 22.6821 21.7081 22.5949 21.6216 22.5076L17.2973 18.1457C17.0378 17.884 17.0378 17.4478 17.2973 17.186C17.5568 16.9243 17.9892 16.9243 18.2487 17.186L22.573 21.548C22.8324 21.8097 22.8324 22.2459 22.573 22.5076C22.4 22.5949 22.227 22.6821 22.0541 22.6821Z" fill="#21365F"></path> <path d="M35.4595 25.0376H9.51352V35.5063H35.4595V25.0376Z" fill="#FFE388"></path> <path d="M32.8649 25.0376H9.51352V32.8892H32C32.5189 32.8892 32.8649 32.5402 32.8649 32.0168V25.0376Z" fill="white"></path> <path d="M35.4595 36.2044H9.51352C9.16757 36.2044 8.82162 35.9427 8.82162 35.5065V25.0378C8.82162 24.6888 9.08108 24.3398 9.51352 24.3398H35.4595C35.8054 24.3398 36.1514 24.6016 36.1514 25.0378V35.5065C36.1514 35.9427 35.8054 36.2044 35.4595 36.2044ZM10.2054 34.8958H34.8541V25.7357H10.2054V34.8958Z" fill="#21365F"></path> <path d="M16 33.5872C15.6541 33.5872 15.3081 33.3255 15.3081 32.8893V27.6549C15.3081 27.306 15.5676 26.957 16 26.957C16.3459 26.957 16.6919 27.2188 16.6919 27.6549V32.8893C16.6919 33.3255 16.3459 33.5872 16 33.5872Z" fill="#21365F"></path> <path d="M22.4865 33.5872C22.1405 33.5872 21.7946 33.3255 21.7946 32.8893V27.6549C21.7946 27.306 22.0541 26.957 22.4865 26.957C22.8324 26.957 23.1784 27.2188 23.1784 27.6549V32.8893C23.1784 33.3255 22.8324 33.5872 22.4865 33.5872Z" fill="#21365F"></path> <path d="M28.973 33.5872C28.627 33.5872 28.2811 33.3255 28.2811 32.8893V27.6549C28.2811 27.306 28.5405 26.957 28.973 26.957C29.3189 26.957 29.6649 27.2188 29.6649 27.6549V32.8893C29.6649 33.3255 29.3189 33.5872 28.973 33.5872Z" fill="#21365F"></path> </svg> 