<?xml version="1.0" encoding="UTF-8"?> <svg xmlns="http://www.w3.org/2000/svg" width="256" height="260" viewBox="0 0 256 260" fill="none"> <path d="M88.4778 91.4573C113.629 91.4573 134.018 70.9839 134.018 45.7286C134.018 20.4734 113.629 0 88.4778 0C63.3267 0 42.9377 20.4734 42.9377 45.7286C42.9377 70.9839 63.3267 91.4573 88.4778 91.4573Z" fill="#D2DEF5"></path> <path d="M39.0343 204.799C60.5924 204.799 78.0686 187.25 78.0686 165.603C78.0686 143.956 60.5924 126.407 39.0343 126.407C17.4763 126.407 0 143.956 0 165.603C0 187.25 17.4763 204.799 39.0343 204.799Z" fill="#D2DEF5"></path> <path d="M190.943 260C226.873 260 256 230.752 256 194.673C256 158.594 226.873 129.347 190.943 129.347C155.013 129.347 125.886 158.594 125.886 194.673C125.886 230.752 155.013 260 190.943 260Z" fill="#D2DEF5"></path> <path d="M206.231 64.3469H42.2871C39.0342 64.3469 36.1067 66.96 35.7814 70.2263L21.1435 216.885C20.493 222.764 25.047 227.664 30.9021 227.664H217.616C223.471 227.664 228.025 222.764 227.375 216.885L212.737 70.2263C212.412 66.96 209.484 64.3469 206.231 64.3469Z" fill="white"></path> <path d="M212.737 70.2263C212.412 66.96 209.484 64.3469 206.231 64.3469H197.448L202.978 120.854C207.858 169.523 169.799 211.658 121.332 211.658H21.7941L21.1435 217.211C20.493 223.091 25.047 227.99 30.9021 227.99H217.616C223.471 227.99 228.025 223.091 227.375 217.211L212.737 70.2263Z" fill="#FFE388"></path> <path d="M217.616 230.276H30.902C27.3239 230.276 24.071 228.643 21.794 226.357C19.517 223.744 18.2159 220.477 18.5412 216.884L33.179 70.2261C33.8296 65.3266 37.733 62.0603 42.287 62.0603H206.231C210.785 62.0603 214.689 65.6533 215.014 70.2261L229.652 216.884C229.977 220.477 229.001 223.744 226.399 226.357C224.447 228.643 221.194 230.276 217.616 230.276ZM42.287 66.9598C40.3353 66.9598 38.3836 68.593 38.3836 70.5528L23.7457 217.211C23.4205 219.171 24.071 221.457 25.6975 222.764C26.9986 224.397 28.9503 225.05 31.2273 225.05H217.941C219.893 225.05 221.845 224.07 223.471 222.764C224.772 221.131 225.423 219.171 225.423 217.211L210.785 70.5528C210.46 68.593 208.833 66.9598 206.882 66.9598H42.287Z" fill="#21365F"></path> <path d="M75.4663 100.277C80.8559 100.277 85.2249 95.8898 85.2249 90.478C85.2249 85.0661 80.8559 80.679 75.4663 80.679C70.0768 80.679 65.7078 85.0661 65.7078 90.478C65.7078 95.8898 70.0768 100.277 75.4663 100.277Z" fill="white"></path> <path d="M82.2973 83.6182C82.2973 83.9448 82.2973 84.5981 82.2973 84.9247C82.2973 90.4775 78.0686 94.7237 72.5388 94.7237C69.9365 94.7237 67.3342 93.7438 65.7078 91.784C66.3583 96.6835 70.2618 100.276 75.4663 100.276C80.9962 100.276 85.2249 96.0302 85.2249 90.4775C85.2249 87.8644 84.2491 85.2513 82.2973 83.6182Z" fill="#FFE388"></path> <path d="M75.4662 102.89C68.6352 102.89 63.4307 97.3368 63.4307 90.4775C63.4307 83.6182 68.9605 78.0654 75.4662 78.0654C82.2973 78.0654 87.8271 83.6182 87.8271 90.4775C87.8271 97.3368 82.2973 102.89 75.4662 102.89ZM75.4662 83.2916C71.5628 83.2916 68.31 86.5579 68.31 90.4775C68.31 94.3971 71.5628 97.6634 75.4662 97.6634C79.3697 97.6634 82.6225 94.3971 82.6225 90.4775C82.6225 86.5579 79.695 83.2916 75.4662 83.2916Z" fill="#21365F"></path> <path d="M173.052 100.277C178.442 100.277 182.811 95.8898 182.811 90.478C182.811 85.0661 178.442 80.679 173.052 80.679C167.663 80.679 163.293 85.0661 163.293 90.478C163.293 95.8898 167.663 100.277 173.052 100.277Z" fill="white"></path> <path d="M179.883 83.6182C179.883 83.9448 179.883 84.5981 179.883 84.9247C179.883 90.4775 175.654 94.7237 170.124 94.7237C167.522 94.7237 164.92 93.7438 163.293 91.784C163.944 96.6835 167.847 100.276 173.052 100.276C178.582 100.276 182.811 96.0302 182.811 90.4775C182.811 87.8644 181.835 85.2513 179.883 83.6182Z" fill="#FFE388"></path> <path d="M173.052 102.89C166.221 102.89 160.691 97.3368 160.691 90.4775C160.691 83.6182 166.221 78.0654 173.052 78.0654C179.883 78.0654 185.413 83.6182 185.413 90.4775C185.413 97.3368 179.883 102.89 173.052 102.89ZM173.052 83.2916C169.149 83.2916 165.896 86.5579 165.896 90.4775C165.896 94.3971 169.149 97.6634 173.052 97.6634C176.955 97.6634 180.208 94.3971 180.208 90.4775C180.208 86.5579 177.281 83.2916 173.052 83.2916Z" fill="#21365F"></path> <path d="M173.052 89.8238C171.751 89.8238 170.45 88.8439 170.45 87.2107V61.08C170.775 39.1956 152.884 21.2308 130.765 21.2308H117.753C95.9593 21.2308 78.0686 39.1956 78.0686 61.08V87.2107C78.0686 88.5172 77.0927 89.8238 75.4663 89.8238C74.1652 89.8238 72.864 88.8439 72.864 87.2107V61.08C73.1893 36.2559 93.0317 16.3313 117.753 16.3313H130.765C155.487 16.3313 175.654 36.2559 175.654 61.08V87.2107C175.654 88.5172 174.353 89.8238 173.052 89.8238Z" fill="#21365F"></path> <path d="M139.873 170.503C140.198 167.89 140.523 165.277 140.523 162.663C140.523 160.05 140.198 157.437 139.873 154.824L123.283 152.211C122.633 150.578 122.307 149.271 121.657 147.965L131.415 134.246C128.163 130 124.584 126.081 120.356 123.141L106.694 132.94C105.393 132.287 103.766 131.633 102.465 131.307L99.8627 114.648C97.2604 114.322 94.6581 113.995 92.0558 113.995C89.4535 113.995 86.8512 114.322 84.249 114.648L81.3214 130.653C79.695 131.307 78.3938 131.633 77.0927 132.287L63.4307 122.488C59.2019 125.754 55.2985 129.347 52.3709 133.593L62.1295 147.312C61.479 148.618 60.8284 150.251 60.5031 151.558L43.9135 154.171C43.5882 156.784 43.2629 159.397 43.2629 162.01C43.2629 164.623 43.5882 167.236 43.9135 169.849L60.5031 172.462C60.8284 174.096 61.479 175.402 62.1295 176.709L52.3709 190.427C55.6238 194.674 59.2019 198.593 63.4307 201.533L77.0927 191.734C78.3938 192.387 80.0202 193.04 81.3214 193.367L83.9237 210.025C86.526 210.352 89.1283 210.679 91.7305 210.679C94.3328 210.679 96.9351 210.352 99.5374 210.025L102.14 193.367C103.766 192.714 105.067 192.387 106.368 191.734L120.03 201.533C124.259 198.266 128.163 194.674 131.09 190.427L121.332 176.709C121.982 175.402 122.633 173.769 122.958 172.462L139.873 170.503Z" fill="white"></path> <path d="M131.415 133.919C128.163 129.673 124.584 125.753 120.356 122.814L117.753 124.774C121.006 130.98 122.958 138.165 123.283 145.678L131.415 133.919Z" fill="#FFE388"></path> <path d="M139.873 170.503C140.198 167.889 140.523 165.276 140.523 162.663C140.523 160.05 140.198 157.437 139.873 154.824L123.283 152.211C123.283 151.884 122.958 151.558 122.633 150.905C120.681 173.769 102.465 192.06 79.6948 194.02C80.0201 194.02 80.3454 194.347 80.996 194.673L83.5983 211.332C86.2005 211.658 88.8028 211.985 91.4051 211.985C94.0074 211.985 96.6097 211.658 99.212 211.332L101.814 194.673C103.441 194.02 104.742 193.693 106.043 193.04L119.705 202.839C123.934 199.573 127.837 195.98 130.765 191.734L121.006 178.015C121.657 176.709 122.307 175.075 122.633 173.769L139.873 170.503Z" fill="#FFE388"></path> <path d="M52.0457 191.081C55.2985 195.327 58.8767 199.246 63.1054 202.186L74.8157 193.694C67.3341 193.367 60.1778 191.407 53.9974 188.141L52.0457 191.081Z" fill="#FFE388"></path> <path d="M91.7305 213.945C88.803 213.945 86.2007 213.618 83.2731 213.291C82.2972 212.965 81.3214 212.312 81.3214 211.332L79.0444 195.98C78.3938 195.653 77.7432 195.327 77.0927 195.327L64.7318 204.472C63.7559 205.126 62.7801 205.126 61.8042 204.472C57.2502 201.206 53.3468 197.286 50.0939 192.714C49.4434 191.734 49.4434 190.754 50.0939 189.774L59.2019 177.362C58.8767 176.382 58.5514 175.729 58.5514 175.075L43.2629 172.789C42.2871 172.789 41.3112 171.809 41.3112 170.829C40.9859 168.216 40.6606 165.276 40.6606 162.337C40.6606 159.397 40.9859 156.784 41.3112 153.844C41.6365 152.864 42.2871 151.884 43.2629 151.884L58.5514 149.598C58.8767 148.945 59.2019 148.291 59.2019 147.638L50.0939 135.226C49.4434 134.246 49.4434 133.266 50.0939 132.286C53.3468 127.714 57.2502 123.794 61.8042 120.528C62.7801 119.874 63.7559 119.874 64.7318 120.528L77.0927 129.673C77.7432 129.347 78.3938 129.02 79.0444 129.02L81.3214 113.668C81.6467 112.688 82.2972 111.709 83.2731 111.709C88.803 110.729 94.3328 110.729 99.8627 111.709C100.839 112.035 101.814 112.688 101.814 113.668L104.091 129.02C104.742 129.347 105.393 129.673 106.043 129.673L118.404 120.528C119.38 119.874 120.356 119.874 121.332 120.528C125.886 123.794 129.789 127.714 133.042 132.286C133.692 133.266 133.692 134.246 133.042 135.226L123.934 147.638C124.259 148.291 124.584 148.945 124.584 149.598L139.873 151.884C140.849 152.211 141.825 152.864 141.825 153.844C142.15 156.784 142.475 159.397 142.475 162.337C142.475 164.95 142.15 167.889 141.825 170.829C141.499 171.809 140.849 172.789 139.873 172.789L124.584 175.075C124.259 175.729 123.934 176.382 123.934 177.035L133.367 189.447C134.018 190.427 134.018 191.407 133.367 192.387C130.114 196.96 126.211 200.879 121.657 204.146C120.681 204.799 119.705 204.799 118.729 204.146L106.368 195C105.718 195.327 105.067 195.653 104.417 195.653L102.14 211.005C101.814 211.985 101.164 212.965 100.188 212.965C97.2604 213.618 94.6581 213.945 91.7305 213.945ZM85.8754 208.719C89.7788 209.045 93.6822 209.045 97.5857 208.719L99.8627 193.693C99.8627 192.714 100.513 192.06 101.489 191.734C102.79 191.407 104.091 190.754 105.393 190.101C106.043 189.774 107.344 189.774 107.995 190.427L120.03 199.246C122.958 196.96 125.886 194.02 128.163 191.08L119.38 178.995C118.729 178.342 118.729 177.362 119.055 176.382C119.705 175.075 120.356 173.769 120.681 172.462C121.006 171.482 121.657 170.829 122.633 170.829L137.596 168.543C137.921 166.583 137.921 164.623 137.921 162.663C137.921 160.704 137.921 158.744 137.596 156.784L122.633 154.498C121.657 154.498 121.006 153.844 120.681 152.864C120.356 151.558 119.705 150.251 119.055 148.945C118.729 148.291 118.729 147.312 119.38 146.332L128.163 134.246C125.886 131.307 122.958 128.367 120.03 126.08L107.995 134.9C107.344 135.553 106.368 135.553 105.393 135.226C104.091 134.573 102.79 133.92 101.489 133.593C100.513 133.266 99.8627 132.613 99.8627 131.633L97.5857 116.281C93.6822 115.628 89.7788 115.628 85.8754 116.281L83.5984 131.307C83.5984 132.286 82.9478 132.94 81.972 133.266C80.6708 133.593 79.3697 134.246 78.0685 134.9C77.4179 135.226 76.4421 135.226 75.4662 134.573L63.4307 125.754C60.1778 128.04 57.5755 130.653 55.2985 133.92L64.0812 146.005C64.7318 146.658 64.7318 147.638 64.4065 148.618C63.7559 149.925 63.1054 151.231 62.7801 152.538C62.4548 153.518 61.8042 154.171 60.8284 154.171L45.8652 156.457C45.5399 158.417 45.5399 160.377 45.5399 162.337C45.5399 164.297 45.5399 166.256 45.8652 168.216L60.8284 170.503C61.8042 170.503 62.4548 171.156 62.7801 172.136C63.1054 173.442 63.7559 174.749 64.4065 176.055C64.7318 177.035 64.7318 178.015 64.0812 178.668L55.2985 191.08C57.5755 194.02 60.5031 196.96 63.4307 199.246L75.4662 190.427C76.1168 189.774 77.0927 189.774 78.0685 190.101C79.3697 190.754 80.6708 191.407 81.972 191.734C82.9478 192.06 83.5984 192.714 83.5984 193.693L85.8754 208.719Z" fill="#21365F"></path> <path d="M107.344 162.337C107.344 171.156 100.513 178.015 91.7304 178.015C82.9477 178.015 76.1167 171.156 76.1167 162.337C76.1167 153.518 82.9477 146.658 91.7304 146.658C100.513 146.658 107.344 153.844 107.344 162.337Z" fill="white"></path> <path d="M103.116 151.885C103.116 152.865 103.441 153.845 103.441 154.498C103.441 163.317 96.6099 170.176 87.8271 170.176C83.2731 170.176 79.3697 168.217 76.4421 164.95C77.7433 172.136 84.249 178.016 91.7306 178.016C100.513 178.016 107.344 171.156 107.344 162.337C107.344 158.418 105.718 154.498 103.116 151.885Z" fill="#FFE388"></path> <path d="M91.7304 180.628C81.6466 180.628 73.5144 172.463 73.5144 162.337C73.5144 152.211 81.6466 144.372 91.7304 144.372C101.814 144.372 109.621 152.538 109.621 162.337C109.946 172.463 101.814 180.628 91.7304 180.628ZM91.7304 149.272C84.5741 149.272 78.3937 155.151 78.3937 162.337C78.3937 169.523 84.2488 175.729 91.7304 175.729C99.212 175.729 104.742 169.849 104.742 162.337C104.742 154.824 98.8867 149.272 91.7304 149.272Z" fill="#21365F"></path> <path d="M208.508 186.834C208.833 185.201 208.833 183.568 208.833 181.934C208.833 180.301 208.833 178.668 208.508 177.035L198.424 175.728C198.099 174.748 197.774 174.095 197.448 173.115L203.304 164.949C201.352 162.336 199.075 160.05 196.473 158.09L188.34 163.97C187.365 163.643 186.714 163.316 185.738 162.99L184.112 152.864C182.485 152.537 180.859 152.537 179.232 152.537C177.606 152.537 175.98 152.537 174.353 152.864L172.727 162.99C171.751 163.316 171.1 163.643 170.124 163.97L162.643 158.09C160.041 160.05 157.764 162.336 155.812 164.949L161.667 173.115C161.342 174.095 161.016 174.748 160.691 175.728L150.607 177.361C150.282 178.995 150.282 180.628 150.282 182.261C150.282 183.894 150.282 185.527 150.607 187.16L160.691 188.794C161.016 189.774 161.342 190.427 161.667 191.407L155.812 199.246C157.764 201.859 160.041 204.145 162.643 206.105L170.775 200.226C171.751 200.552 172.401 200.879 173.377 201.206L175.004 211.331C176.63 211.658 178.257 211.658 179.883 211.658C181.509 211.658 183.136 211.658 184.762 211.331L186.389 201.206C187.365 200.879 188.015 200.552 188.991 200.226L197.123 206.105C199.725 204.145 202.002 201.859 203.954 199.246L198.099 191.08C198.424 190.1 198.75 189.447 199.075 188.467L208.508 186.834Z" fill="white"></path> <path d="M208.508 186.834C208.833 185.201 208.833 183.568 208.833 181.935C208.833 180.302 208.833 178.668 208.508 177.035L198.424 175.729C198.424 175.402 198.099 175.402 198.099 175.075C197.123 188.794 186.063 199.573 172.401 200.879C172.727 200.879 172.727 201.206 173.052 201.206L174.678 211.332C176.305 211.658 177.931 211.658 179.558 211.658C181.184 211.658 182.811 211.658 184.437 211.332L186.063 201.206C187.039 200.879 187.69 200.553 188.666 200.226L196.798 206.106C199.4 204.146 201.677 201.859 203.629 199.246L197.774 191.08C198.099 190.101 198.424 189.447 198.75 188.467L208.508 186.834Z" fill="#FFE388"></path> <path d="M179.558 213.945C177.931 213.945 175.98 213.945 174.353 213.618C173.377 213.291 172.401 212.638 172.401 211.658L171.1 203.166L163.944 208.392C162.968 209.045 161.992 209.045 161.016 208.392C158.089 206.432 155.812 203.819 153.86 201.206C153.21 200.226 153.21 199.246 153.86 198.266L159.065 191.08L150.607 189.774C149.631 189.774 148.656 188.794 148.656 187.814C148.33 186.181 148.33 184.221 148.33 182.588C148.33 180.955 148.33 178.995 148.656 177.362C148.981 176.382 149.631 175.402 150.607 175.402L159.065 174.095L153.86 166.91C153.21 165.93 153.21 164.95 153.86 163.97C155.812 161.03 158.414 158.744 161.016 156.784C161.992 156.131 162.968 156.131 163.944 156.784L171.1 162.01L172.401 153.518C172.727 152.538 173.377 151.558 174.353 151.558C177.606 150.905 181.184 150.905 184.762 151.558C185.738 151.884 186.714 152.538 186.714 153.518L188.015 162.01L195.171 156.784C196.147 156.131 197.123 156.131 198.099 156.784C201.027 158.744 203.304 161.357 205.255 163.97C205.906 164.95 205.906 165.93 205.255 166.91L200.051 174.095L208.508 175.402C209.484 175.729 210.46 176.382 210.46 177.362C210.785 178.995 210.785 180.955 210.785 182.588C210.785 184.221 210.785 185.854 210.46 187.814C210.135 188.794 209.484 189.774 208.508 189.774L200.051 191.08L205.255 198.266C205.906 199.246 205.906 200.226 205.255 201.206C203.304 204.146 200.701 206.432 198.099 208.392C197.123 209.045 196.147 209.045 195.171 208.392L188.015 203.166L186.714 211.658C186.714 212.638 185.738 213.618 184.762 213.618C183.136 213.618 181.184 213.945 179.558 213.945ZM176.955 208.719C178.582 209.045 180.534 209.045 182.16 208.719L183.461 200.553C183.461 199.573 184.112 198.92 185.088 198.593C185.738 198.266 186.714 197.94 187.365 197.613C188.015 197.286 189.316 197.286 189.967 197.94L196.798 202.839C198.099 201.859 199.4 200.553 200.376 199.246L195.497 192.387C194.846 191.734 194.846 190.754 195.171 189.774C195.497 189.121 195.822 188.141 196.147 187.487C196.473 186.508 197.123 185.854 198.099 185.854L206.231 184.548C206.231 183.568 206.231 182.915 206.231 181.935C206.231 180.955 206.231 180.302 206.231 179.322L198.099 178.015C197.123 178.015 196.473 177.362 196.147 176.382C195.822 175.729 195.497 174.749 195.171 174.095C194.846 173.442 194.846 172.462 195.497 171.482L200.376 164.623C199.4 163.317 198.099 162.01 196.798 161.03L189.967 165.93C189.316 166.583 188.34 166.583 187.365 166.256C186.714 165.93 185.738 165.603 185.088 165.276C184.112 164.95 183.461 164.297 183.461 163.317L182.16 155.151C180.534 154.824 178.582 154.824 176.955 155.151L175.654 163.317C175.654 164.297 175.004 164.95 174.028 165.276C173.377 165.603 172.401 165.93 171.751 166.256C171.1 166.583 170.124 166.583 169.149 165.93L162.643 161.03C161.342 162.01 160.041 163.317 159.065 164.623L163.944 171.482C164.595 172.136 164.595 173.116 164.269 174.095C163.944 174.749 163.619 175.402 163.293 176.382C162.968 177.362 162.318 178.015 161.342 178.015L152.884 179.322C152.884 180.302 152.884 180.955 152.884 181.935C152.884 182.915 152.884 183.568 152.884 184.548L161.016 185.854C161.992 185.854 162.643 186.508 162.968 187.487C163.293 188.141 163.619 189.121 163.944 189.774C164.269 190.754 164.269 191.734 163.619 192.387L158.739 199.246C159.715 200.553 161.016 201.859 162.318 202.839L169.149 197.94C169.799 197.286 170.775 197.286 171.751 197.613C172.401 197.94 173.052 198.266 174.028 198.593C175.004 198.92 175.654 199.573 175.654 200.553L176.955 208.719Z" fill="#21365F"></path> <path d="M179.558 190.101C184.049 190.101 187.69 186.445 187.69 181.935C187.69 177.425 184.049 173.769 179.558 173.769C175.066 173.769 171.426 177.425 171.426 181.935C171.426 186.445 175.066 190.101 179.558 190.101Z" fill="white"></path> <path d="M179.558 192.714C173.703 192.714 169.149 187.814 169.149 182.261C169.149 176.709 174.028 171.809 179.558 171.809C185.413 171.809 189.967 176.709 189.967 182.261C189.967 187.814 185.413 192.714 179.558 192.714ZM179.558 176.382C176.305 176.382 173.703 178.995 173.703 182.261C173.703 185.528 176.305 188.141 179.558 188.141C182.811 188.141 185.413 185.528 185.413 182.261C185.413 178.995 182.811 176.382 179.558 176.382Z" fill="#21365F"></path> <path d="M228.676 44.0955H215.664C214.363 44.0955 213.062 43.1156 213.062 41.4825C213.062 40.1759 214.038 38.8694 215.664 38.8694H228.676C229.977 38.8694 231.278 39.8493 231.278 41.4825C230.953 42.789 229.977 44.0955 228.676 44.0955Z" fill="#21365F"></path> <path d="M222.17 50.6281C220.869 50.6281 219.568 49.6482 219.568 48.0151V34.9497C219.568 33.6432 220.544 32.3367 222.17 32.3367C223.797 32.3367 224.772 33.3166 224.772 34.9497V48.0151C224.447 49.3216 223.471 50.6281 222.17 50.6281Z" fill="#21365F"></path> <path d="M195.822 27.7635H182.811C181.509 27.7635 180.208 26.7836 180.208 25.1504C180.208 23.8439 181.184 22.5374 182.811 22.5374H195.822C197.123 22.864 198.424 23.8439 198.424 25.1504C198.424 26.4569 197.123 27.7635 195.822 27.7635Z" fill="#21365F"></path> <path d="M189.316 34.2966C188.015 34.2966 186.714 33.3167 186.714 31.6835V18.6182C186.714 17.3117 187.69 16.0051 189.316 16.0051C190.617 16.3318 191.919 17.3117 191.919 18.6182V31.6835C191.919 32.99 190.617 34.2966 189.316 34.2966Z" fill="#21365F"></path> <path d="M33.5043 53.8946H20.4929C19.1918 53.8946 17.8906 52.9147 17.8906 51.2815C17.8906 49.975 18.8665 48.6685 20.4929 48.6685H33.5043C34.8055 48.6685 36.1066 49.6484 36.1066 51.2815C35.7814 52.5881 34.8055 53.8946 33.5043 53.8946Z" fill="#21365F"></path> <path d="M26.9985 60.4272C25.6974 60.4272 24.3962 59.4473 24.3962 57.8141V44.7488C24.3962 43.4423 25.3721 42.1357 26.9985 42.1357C28.625 42.1357 29.2755 43.4423 29.2755 44.7488V57.8141C29.2755 59.1207 28.2997 60.4272 26.9985 60.4272Z" fill="#21365F"></path> <path d="M63.4306 37.5628H50.4192C49.118 37.5628 47.8169 36.5829 47.8169 34.9497C47.8169 33.6432 48.7928 32.3367 50.4192 32.3367H63.4306C64.7318 32.3367 66.0329 33.3166 66.0329 34.9497C66.0329 36.2563 64.7318 37.5628 63.4306 37.5628Z" fill="#21365F"></path> <path d="M56.925 44.0957C55.6239 44.0957 54.3228 43.1158 54.3228 41.4826V28.4173C54.3228 27.1107 55.2986 25.8042 56.925 25.8042C58.2262 25.8042 59.5273 26.7841 59.5273 28.4173V41.4826C59.5273 42.7891 58.2262 44.0957 56.925 44.0957Z" fill="#21365F"></path> </svg> 