<?xml version="1.0" encoding="UTF-8"?> <svg xmlns="http://www.w3.org/2000/svg" width="188" height="208" viewBox="0 0 188 208" fill="none"> <g clip-path="url(#clip0_259_870)"> <path d="M186.205 32.6809L94.9194 -0.000100955C94.325 -0.2083 93.6765 -0.2083 93.082 -0.000100955L1.79639 32.6809C1.27519 32.8709 0.825368 33.2147 0.507631 33.666C0.189894 34.1172 0.0195313 34.6542 0.0195312 35.2044C0.0195313 35.7545 0.189894 36.2915 0.507631 36.7427C0.825368 37.194 1.27519 37.5378 1.79639 37.7278L93.082 70.3261C93.6739 70.5486 94.3276 70.5486 94.9194 70.3261L186.205 37.7278C186.726 37.5378 187.176 37.194 187.494 36.7427C187.812 36.2915 187.982 35.7545 187.982 35.2044C187.982 34.6542 187.812 34.1172 187.494 33.666C187.176 33.2147 186.726 32.8709 186.205 32.6809Z" fill="#074EA3"></path> <path d="M94.9189 65.2378L3.59148 32.681C3.17694 32.5527 2.7377 32.5234 2.30953 32.5953C1.88137 32.6672 1.47642 32.8383 1.12768 33.0946C0.788457 33.3366 0.510211 33.6528 0.31464 34.0188C0.119068 34.3847 0.0114536 34.7905 0.000185868 35.2044V151.036C-0.00607151 151.557 0.145795 152.069 0.436141 152.504C0.726487 152.939 1.14195 153.278 1.6288 153.476L92.9562 191.825C93.2998 191.903 93.6566 191.903 94.0002 191.825C94.538 191.84 95.066 191.68 95.5035 191.37C95.8746 191.134 96.18 190.81 96.3916 190.427C96.6032 190.044 96.7143 189.614 96.7145 189.177V67.7199C96.7046 67.1746 96.5276 66.6452 96.2069 66.2019C95.8862 65.7586 95.437 65.4223 94.9189 65.2378Z" fill="#074EA3"></path> <path d="M186.873 33.0946C186.519 32.849 186.11 32.6908 185.682 32.6333C185.253 32.5757 184.817 32.6204 184.409 32.7637L93.082 65.2378C92.5684 65.4241 92.1249 65.7619 91.8112 66.2058C91.4976 66.6496 91.329 67.1781 91.3281 67.7199V189.426C91.3326 189.867 91.4451 190.301 91.656 190.69C91.8669 191.079 92.17 191.412 92.5391 191.659C92.9756 191.935 93.4834 192.078 94.0007 192.073C94.3599 192.136 94.7273 192.136 95.0865 192.073L186.414 151.449C186.887 151.222 187.283 150.861 187.55 150.413C187.817 149.964 187.945 149.446 187.917 148.926V35.2044C187.916 34.7974 187.821 34.3961 187.64 34.0306C187.459 33.6651 187.197 33.3451 186.873 33.0946Z" fill="#013177"></path> <path d="M176.892 146.361H119.39C118.732 146.412 118.116 146.702 117.661 147.175C117.206 147.649 116.944 148.273 116.926 148.926V184.71C116.926 190.865 119.394 196.768 123.787 201.12C128.181 205.472 134.139 207.917 140.353 207.917H156.179C162.368 207.895 168.297 205.453 172.676 201.123C177.056 196.792 179.532 190.922 179.565 184.792V148.926C179.533 148.242 179.238 147.595 178.742 147.118C178.245 146.642 177.583 146.371 176.892 146.361Z" fill="#F7941E"></path> <path d="M168.791 152.566H128.201C127.728 152.572 127.258 152.484 126.82 152.307C126.382 152.13 125.984 151.868 125.649 151.537C125.314 151.205 125.05 150.811 124.872 150.377C124.693 149.943 124.604 149.477 124.61 149.009V125.553C124.61 119.277 127.126 113.258 131.606 108.821C136.085 104.383 142.161 101.89 148.496 101.89C154.831 101.89 160.907 104.383 165.386 108.821C169.866 113.258 172.382 119.277 172.382 125.553V148.926C172.393 149.4 172.309 149.872 172.133 150.313C171.958 150.754 171.695 151.156 171.36 151.495C171.026 151.834 170.626 152.104 170.185 152.288C169.744 152.472 169.27 152.566 168.791 152.566ZM131.792 145.451H165.2V125.553C165.2 121.164 163.44 116.955 160.307 113.852C157.175 110.749 152.926 109.005 148.496 109.005C144.066 109.005 139.817 110.749 136.685 113.852C133.552 116.955 131.792 121.164 131.792 125.553V145.451Z" fill="#F7941E"></path> <path d="M156.054 169.941C156.048 168.524 155.653 167.136 154.912 165.924C154.171 164.712 153.111 163.723 151.846 163.061C150.581 162.4 149.159 162.092 147.73 162.169C146.302 162.247 144.922 162.707 143.738 163.501C142.553 164.296 141.609 165.394 141.006 166.679C140.403 167.963 140.163 169.386 140.313 170.795C140.463 172.204 140.996 173.547 141.857 174.679C142.717 175.811 143.872 176.69 145.197 177.222V188.061H151.002V177.263C152.49 176.689 153.769 175.682 154.67 174.376C155.572 173.069 156.054 171.524 156.054 169.941Z" fill="white"></path> <path d="M62.9303 56.6747L152.587 20.7256L123.606 10.3835L31.5273 45.4639L62.9303 56.6747Z" fill="#F7941E"></path> <path d="M31.5273 45.4639V166.342L62.9303 179.29V56.6747L31.5273 45.4639Z" fill="#FBB040"></path> </g> <defs> <clipPath id="clip0_259_870"> <rect width="47" height="52" fill="white" transform="scale(4)"></rect> </clipPath> </defs> </svg> 