<?xml version="1.0" encoding="UTF-8"?> <svg xmlns="http://www.w3.org/2000/svg" width="272" height="276" viewBox="0 0 272 276" fill="none"> <path d="M125.263 100.888C152.936 100.888 175.368 78.3032 175.368 50.4439C175.368 22.5845 152.936 0 125.263 0C97.5909 0 75.158 22.5845 75.158 50.4439C75.158 78.3032 97.5909 100.888 125.263 100.888Z" fill="#D2DEF5"></path> <path d="M229.053 179.076C252.772 179.076 272 159.718 272 135.838C272 111.959 252.772 92.6006 229.053 92.6006C205.333 92.6006 186.105 111.959 186.105 135.838C186.105 159.718 205.333 179.076 229.053 179.076Z" fill="#D2DEF5"></path> <path d="M71.5789 276C111.111 276 143.158 243.736 143.158 203.937C143.158 164.138 111.111 131.875 71.5789 131.875C32.047 131.875 0 164.138 0 203.937C0 243.736 32.047 276 71.5789 276Z" fill="#D2DEF5"></path> <path d="M182.526 232.762H89.4736V254.381H182.526V232.762Z" fill="#FFE388"></path> <path d="M168.21 232.762H89.4736V247.175H164.632C166.779 247.175 168.21 245.734 168.21 243.572V232.762Z" fill="white"></path> <path d="M182.526 257.264H89.4738C88.0422 257.264 86.6106 256.183 86.6106 254.381V232.762C86.6106 231.321 87.6843 229.88 89.4738 229.88H182.526C183.958 229.88 185.39 230.961 185.39 232.762V254.381C185.39 255.822 183.958 257.264 182.526 257.264ZM92.3369 251.859H180.021V235.645H92.3369V251.859Z" fill="#21365F"></path> <path d="M207.579 257.264H64.421C62.9894 257.264 61.5579 256.183 61.5579 254.381C61.5579 252.94 62.6315 251.499 64.421 251.499H207.579C209.01 251.499 210.442 252.58 210.442 254.381C210.442 255.822 209.01 257.264 207.579 257.264Z" fill="#21365F"></path> <path d="M239.789 232.762H32.2105C26.1263 232.762 21.4736 228.078 21.4736 221.953V211.144H250.526V221.953C250.526 228.078 245.874 232.762 239.789 232.762Z" fill="#FFE388"></path> <path d="M232.632 225.556H21.4736V211.144H236.21V221.953C236.21 224.115 234.779 225.556 232.632 225.556Z" fill="white"></path> <path d="M239.79 235.645H32.2106C24.6948 235.645 18.6106 229.52 18.6106 221.953V211.144C18.6106 209.702 19.6843 208.261 21.4738 208.261H250.526C251.958 208.261 253.39 209.342 253.39 211.144V221.953C253.39 229.52 247.305 235.645 239.79 235.645ZM24.3369 214.026V221.953C24.3369 226.277 27.9159 229.88 32.2106 229.88H239.79C244.084 229.88 247.663 226.277 247.663 221.953V214.026H24.3369Z" fill="#21365F"></path> <path d="M136 225.557C137.977 225.557 139.579 223.943 139.579 221.953C139.579 219.964 137.977 218.35 136 218.35C134.023 218.35 132.421 219.964 132.421 221.953C132.421 223.943 134.023 225.557 136 225.557Z" fill="#21365F"></path> <path d="M250.526 211.144H21.4736V77.8277C21.4736 71.7024 26.1263 67.0183 32.2105 67.0183H239.789C245.874 67.0183 250.526 71.7024 250.526 77.8277V211.144Z" fill="#FFE388"></path> <path d="M236.21 200.334H21.4736V77.8277C21.4736 71.7024 26.1263 67.0183 32.2105 67.0183H239.789V196.731C239.789 198.893 238.358 200.334 236.21 200.334Z" fill="white"></path> <path d="M250.526 214.026H21.4738C20.0422 214.026 18.6106 212.945 18.6106 211.144V77.8277C18.6106 70.2611 24.6948 64.1357 32.2106 64.1357H239.79C247.305 64.1357 253.39 70.2611 253.39 77.8277V211.144C253.39 212.585 251.958 214.026 250.526 214.026ZM24.3369 208.621H248.021V77.8277C248.021 73.5039 244.442 69.9008 240.147 69.9008H32.2106C27.9159 69.9008 24.3369 73.5039 24.3369 77.8277V208.621Z" fill="#21365F"></path> <path d="M221.895 52.6062H50.1052V211.144H221.895V52.6062Z" fill="#FFE388"></path> <path d="M207.579 52.6062H50.1052V196.732H204C206.147 196.732 207.579 195.29 207.579 193.128V52.6062Z" fill="white"></path> <path d="M221.895 214.026H50.1053C48.6738 214.026 47.2422 212.945 47.2422 211.144V52.6058C47.2422 51.1645 48.3159 49.7233 50.1053 49.7233H221.895C223.326 49.7233 224.758 50.8042 224.758 52.6058V211.144C224.758 212.585 223.326 214.026 221.895 214.026ZM52.9685 208.621H219.39V55.4883H52.9685V208.621Z" fill="#21365F"></path> <path d="M214.737 23.7808H57.2631C53.3263 23.7808 50.1052 27.0236 50.1052 30.987V52.6058H221.895V30.987C221.895 27.0236 218.674 23.7808 214.737 23.7808Z" fill="#FFE388"></path> <path d="M211.158 23.7808H57.2631C53.3263 23.7808 50.1052 27.0236 50.1052 30.987V45.3996H204C207.937 45.3996 211.158 42.1567 211.158 38.1933V23.7808Z" fill="white"></path> <path d="M221.895 55.4883H50.1053C48.6738 55.4883 47.2422 54.4073 47.2422 52.6058V30.987C47.2422 25.5823 51.5369 20.8982 57.2632 20.8982H214.737C220.105 20.8982 224.758 25.222 224.758 30.987V52.6058C224.758 54.047 223.326 55.4883 221.895 55.4883ZM52.9685 50.0836H219.39V30.987C219.39 28.4648 217.242 26.3029 215.095 26.3029H57.2632C54.758 26.3029 52.9685 28.4648 52.9685 30.987V50.0836Z" fill="#21365F"></path> <path d="M204 41.0757C203.284 41.0757 202.569 40.7154 202.211 40.3551C201.853 39.9948 201.495 39.2742 201.495 38.5536C201.495 37.8329 201.853 37.1123 202.211 36.752C203.284 35.671 205.074 35.671 206.148 36.752C206.505 37.1123 206.863 37.8329 206.863 38.5536C206.863 39.2742 206.505 39.9948 206.148 40.3551C205.432 40.7154 204.716 41.0757 204 41.0757Z" fill="#21365F"></path> <path d="M185.39 38.1928C185.39 36.7516 186.463 35.3103 187.895 35.3103C189.326 35.3103 190.758 36.3912 190.758 38.1928C190.758 39.6341 189.684 41.0753 187.895 41.0753C186.463 41.0753 185.39 39.6341 185.39 38.1928Z" fill="#21365F"></path> <path d="M171.79 41.0757C171.074 41.0757 170.358 40.7154 170 40.3551C169.642 39.9948 169.284 39.2742 169.284 38.5536C169.284 37.8329 169.642 37.1123 170 36.752C171.074 35.671 172.863 35.671 173.937 36.752C174.295 37.1123 174.653 37.8329 174.653 38.5536C174.653 39.2742 174.295 39.9948 173.937 40.3551C173.221 40.7154 172.505 41.0757 171.79 41.0757Z" fill="#21365F"></path> <path d="M118.105 110.256H96.6315C92.6947 110.256 89.4736 107.013 89.4736 103.05V81.4309C89.4736 77.4674 92.6947 74.2246 96.6315 74.2246H118.105C122.042 74.2246 125.263 77.4674 125.263 81.4309V103.05C125.263 107.013 122.042 110.256 118.105 110.256Z" fill="#FFE388"></path> <path d="M110.947 99.4465H89.4736V81.4309C89.4736 77.4674 92.6947 74.2246 96.6315 74.2246H114.526V95.8434C114.526 98.0053 113.095 99.4465 110.947 99.4465Z" fill="white"></path> <path d="M118.105 113.139H96.6316C91.2632 113.139 86.6106 108.815 86.6106 103.05V81.4313C86.6106 76.0266 90.9053 71.3425 96.6316 71.3425H118.105C123.474 71.3425 128.126 75.6663 128.126 81.4313V103.05C128.126 108.455 123.474 113.139 118.105 113.139ZM96.6316 77.1075C94.1264 77.1075 92.3369 79.2694 92.3369 81.4313V103.05C92.3369 105.572 94.4843 107.374 96.6316 107.374H118.105C120.611 107.374 122.4 105.212 122.4 103.05V81.4313C122.4 78.9091 120.253 77.1075 118.105 77.1075H96.6316Z" fill="#21365F"></path> <path d="M175.368 110.256H153.895C149.958 110.256 146.737 107.013 146.737 103.05V81.4309C146.737 77.4674 149.958 74.2246 153.895 74.2246H175.368C179.305 74.2246 182.526 77.4674 182.526 81.4309V103.05C182.526 107.013 179.305 110.256 175.368 110.256Z" fill="#FFE388"></path> <path d="M168.21 99.4465H146.737V81.4309C146.737 77.4674 149.958 74.2246 153.895 74.2246H171.789V95.8434C171.789 98.0053 170.358 99.4465 168.21 99.4465Z" fill="white"></path> <path d="M175.368 113.139H153.895C148.526 113.139 143.874 108.815 143.874 103.05V81.4313C143.874 76.0266 148.169 71.3425 153.895 71.3425H175.368C180.737 71.3425 185.39 75.6663 185.39 81.4313V103.05C185.39 108.455 180.737 113.139 175.368 113.139ZM153.895 77.1075C151.39 77.1075 149.6 79.2694 149.6 81.4313V103.05C149.6 105.572 151.747 107.374 153.895 107.374H175.368C177.874 107.374 179.663 105.212 179.663 103.05V81.4313C179.663 78.9091 177.516 77.1075 175.368 77.1075H153.895Z" fill="#21365F"></path> <path d="M118.105 167.906H96.6315C92.6947 167.906 89.4736 164.663 89.4736 160.7V139.081C89.4736 135.117 92.6947 131.875 96.6315 131.875H118.105C122.042 131.875 125.263 135.117 125.263 139.081V160.7C125.263 164.663 122.042 167.906 118.105 167.906Z" fill="#FFE388"></path> <path d="M110.947 157.097H89.4736V139.081C89.4736 135.117 92.6947 131.875 96.6315 131.875H114.526V153.493C114.526 155.655 113.095 157.097 110.947 157.097Z" fill="white"></path> <path d="M118.105 170.789H96.6316C91.2632 170.789 86.6106 166.465 86.6106 160.7V139.081C86.6106 133.676 90.9053 128.992 96.6316 128.992H118.105C123.474 128.992 128.126 133.316 128.126 139.081V160.7C128.126 166.104 123.474 170.789 118.105 170.789ZM96.6316 134.757C94.1264 134.757 92.3369 136.919 92.3369 139.081V160.7C92.3369 163.222 94.4843 165.024 96.6316 165.024H118.105C120.611 165.024 122.4 162.862 122.4 160.7V139.081C122.4 136.559 120.253 134.757 118.105 134.757H96.6316Z" fill="#21365F"></path> <path d="M175.368 167.906H153.895C149.958 167.906 146.737 164.663 146.737 160.7V139.081C146.737 135.117 149.958 131.875 153.895 131.875H175.368C179.305 131.875 182.526 135.117 182.526 139.081V160.7C182.526 164.663 179.305 167.906 175.368 167.906Z" fill="#FFE388"></path> <path d="M168.21 157.097H146.737V139.081C146.737 135.117 149.958 131.875 153.895 131.875H171.789V153.493C171.789 155.655 170.358 157.097 168.21 157.097Z" fill="white"></path> <path d="M175.368 170.789H153.895C148.526 170.789 143.874 166.465 143.874 160.7V139.081C143.874 133.676 148.169 128.992 153.895 128.992H175.368C180.737 128.992 185.39 133.316 185.39 139.081V160.7C185.39 166.104 180.737 170.789 175.368 170.789ZM153.895 134.757C151.39 134.757 149.6 136.919 149.6 139.081V160.7C149.6 163.222 151.747 165.024 153.895 165.024H175.368C177.874 165.024 179.663 162.862 179.663 160.7V139.081C179.663 136.559 177.516 134.757 175.368 134.757H153.895Z" fill="#21365F"></path> <path d="M162.842 148.089L212.948 165.384L190.042 175.833L180.021 198.533L162.842 148.089Z" fill="#FFE388"></path> <path d="M162.842 148.089L190.042 175.833L180.021 198.533L162.842 148.089Z" fill="white"></path> <path d="M180.021 201.415C178.947 201.415 177.874 200.695 177.516 199.614L160.337 149.17C159.979 148.089 160.337 147.008 161.053 146.287C161.769 145.567 162.842 145.206 163.916 145.567L214.021 162.862C215.095 163.222 215.811 164.303 215.811 165.384C215.811 166.465 215.095 167.546 214.379 167.906L192.547 177.635L182.526 199.614C182.169 200.695 181.095 201.415 180.021 201.415ZM167.137 152.413L180.379 190.966L187.895 174.392C188.253 173.671 188.611 173.311 189.326 172.95L205.79 165.384L167.137 152.413Z" fill="#21365F"></path> <path d="M64.421 188.805C62.9894 188.805 61.5579 187.724 61.5579 185.922V147.369C61.5579 145.927 62.6315 144.486 64.421 144.486C65.8526 144.486 67.2842 145.567 67.2842 147.369V185.922C67.2842 187.363 65.8526 188.805 64.421 188.805Z" fill="#21365F"></path> <path d="M64.421 135.838C62.9894 135.838 61.5579 134.757 61.5579 132.956V124.668C61.5579 123.227 62.6315 121.786 64.421 121.786C65.8526 121.786 67.2842 122.867 67.2842 124.668V132.956C67.2842 134.397 65.8526 135.838 64.421 135.838Z" fill="#21365F"></path> <path d="M207.579 131.154C206.147 131.154 204.716 130.073 204.716 128.272V89.7181C204.716 88.2768 205.79 86.8356 207.579 86.8356C209.011 86.8356 210.442 87.9165 210.442 89.7181V128.272C210.442 129.713 209.011 131.154 207.579 131.154Z" fill="#21365F"></path> <path d="M207.579 78.188C206.147 78.188 204.716 77.107 204.716 75.3055V67.0183C204.716 65.577 205.79 64.1357 207.579 64.1357C209.011 64.1357 210.442 65.2167 210.442 67.0183V75.3055C210.442 76.7467 209.011 78.188 207.579 78.188Z" fill="#21365F"></path> </svg> 