<?xml version="1.0" encoding="UTF-8"?> <svg xmlns="http://www.w3.org/2000/svg" width="172" height="196" viewBox="0 0 172 196" fill="none"> <g clip-path="url(#clip0_173_97)"> <path d="M56.6075 173.687H19.8996C19.57 173.687 19.2437 173.623 18.9396 173.497C18.6356 173.371 18.3601 173.186 18.129 172.954C17.898 172.722 17.716 172.447 17.5939 172.145C17.4718 171.842 17.4118 171.519 17.4176 171.194C17.4176 170.532 17.6837 169.898 18.1573 169.431C18.631 168.963 19.2734 168.7 19.9432 168.7H56.6075C56.9428 168.694 57.2759 168.755 57.5874 168.878C57.8988 169 58.1824 169.183 58.4216 169.415C58.6607 169.647 58.8506 169.924 58.9803 170.229C59.1099 170.535 59.1767 170.863 59.1766 171.194C59.1767 171.525 59.1099 171.853 58.9803 172.158C58.8506 172.463 58.6607 172.74 58.4216 172.972C58.1824 173.204 57.8988 173.387 57.5874 173.51C57.2759 173.633 56.9428 173.693 56.6075 173.687Z" fill="#4C6FBF"></path> <path d="M56.6077 153.309H19.8998C19.23 153.309 18.5876 153.046 18.114 152.579C17.6404 152.111 17.3743 151.477 17.3743 150.816C17.3743 150.154 17.6404 149.52 18.114 149.052C18.5876 148.585 19.23 148.322 19.8998 148.322H56.6077C56.9393 148.322 57.2678 148.387 57.5742 148.512C57.8806 148.637 58.159 148.821 58.3935 149.052C58.6281 149.284 58.8141 149.559 58.941 149.861C59.0679 150.164 59.1333 150.488 59.1333 150.816C59.1333 151.143 59.0679 151.467 58.941 151.77C58.8141 152.072 58.6281 152.347 58.3935 152.579C58.159 152.81 57.8806 152.994 57.5742 153.119C57.2678 153.245 56.9393 153.309 56.6077 153.309Z" fill="#4C6FBF"></path> <path d="M169.474 196H2.52546C2.1901 196 1.85809 195.934 1.5488 195.806C1.23951 195.678 0.959135 195.491 0.724036 195.255C0.488937 195.018 0.303822 194.738 0.179491 194.431C0.0551606 194.123 -0.00589489 193.795 -0.000112843 193.464V46.1733C-0.000112843 45.512 0.265973 44.8778 0.739609 44.4101C1.21325 43.9425 1.85563 43.6798 2.52546 43.6798H51.3386C51.6949 43.682 52.0466 43.76 52.3697 43.9083C52.6928 44.0567 52.9797 44.272 53.211 44.5396L80.0779 74.247C80.6665 74.9003 81.3843 75.4276 82.1871 75.7966C82.9899 76.1656 83.8607 76.3684 84.7459 76.3925C85.6311 76.4167 86.512 76.2617 87.3342 75.9371C88.1565 75.6125 88.9027 75.1251 89.527 74.505L120.008 44.4107C120.481 43.943 121.124 43.6801 121.793 43.6798H169.692C170.362 43.6798 171.004 43.9425 171.478 44.4101C171.952 44.8778 172.218 45.512 172.218 46.1733V193.464C172.225 193.813 172.158 194.161 172.02 194.484C171.883 194.806 171.678 195.097 171.419 195.336C171.16 195.575 170.853 195.758 170.518 195.872C170.183 195.987 169.828 196.03 169.474 196ZM5.05103 191.013H166.949V48.7099H122.795L93.0976 78.0303C92.0243 79.0944 90.7484 79.9384 89.3435 80.5139C87.9386 81.0894 86.4323 81.385 84.9113 81.3837H84.6065C83.0179 81.3096 81.4612 80.9169 80.0313 80.2295C78.6014 79.5421 77.3283 78.5744 76.2895 77.3854L50.1629 48.5379H5.05103V191.013Z" fill="#4C6FBF"></path> <path d="M101.632 116.078H70.3676C69.6978 116.078 69.0554 115.815 68.5818 115.348C68.1081 114.88 67.842 114.246 67.842 113.585V67.2823C67.8491 66.7465 68.0307 66.2272 68.3602 65.8013C68.6896 65.3754 69.1492 65.0656 69.6709 64.9178C70.152 64.7453 70.6743 64.7187 71.1708 64.8412C71.6673 64.9638 72.1155 65.23 72.4577 65.6057L80.2522 74.204C80.8408 74.8573 81.5586 75.3846 82.3614 75.7536C83.1642 76.1226 84.0351 76.3254 84.9203 76.3495C85.8055 76.3737 86.6863 76.2187 87.5085 75.8941C88.3308 75.5695 89.077 75.0821 89.7013 74.462L99.8471 64.4879C100.198 64.1242 100.651 63.8735 101.149 63.7686C101.646 63.6638 102.164 63.7095 102.634 63.9C103.105 64.0905 103.506 64.4168 103.786 64.8362C104.066 65.2556 104.21 65.7485 104.202 66.2505V113.542C104.207 113.876 104.145 114.209 104.018 114.519C103.891 114.83 103.702 115.111 103.462 115.348C103.222 115.585 102.937 115.772 102.623 115.897C102.308 116.022 101.971 116.084 101.632 116.078ZM72.8932 111.091H99.0198V72.3984L93.0107 78.3313C91.9373 79.3953 90.6615 80.2394 89.2566 80.8149C87.8517 81.3904 86.3454 81.686 84.8243 81.6846H84.5195C82.9229 81.5615 81.3688 81.1165 79.9533 80.3771C78.5378 79.6376 77.2909 78.6194 76.2896 77.3854L72.8932 73.6451V111.091Z" fill="#4C6FBF"></path> <path d="M84.9114 81.3836H84.6066C83.0364 81.3354 81.4927 80.9712 80.07 80.3133C78.6474 79.6554 77.3758 78.7175 76.3332 77.5573L38.7545 36.0272C36.7161 33.7467 35.6788 30.7602 35.8707 27.7247C36.0626 24.6892 37.468 21.8532 39.7778 19.8407C42.0875 17.8282 45.1124 16.8041 48.1869 16.9936C51.2615 17.183 54.1339 18.5706 56.1722 20.851L85.5646 53.3959L136.12 3.35333C137.733 1.76663 139.786 0.686847 142.02 0.249963C144.254 -0.186921 146.569 0.0386343 148.674 0.898223C150.778 1.75781 152.578 3.21299 153.846 5.08049C155.115 6.948 155.795 9.14431 155.802 11.3928C155.802 12.888 155.502 14.3685 154.919 15.7484C154.336 17.1284 153.482 18.3805 152.405 19.4323L93.0978 78.0302C92.0244 79.0943 90.7486 79.9383 89.3437 80.5138C87.9388 81.0893 86.4325 81.3849 84.9114 81.3836ZM47.3762 22.0548C45.7661 22.0271 44.207 22.6121 43.0218 23.6885C42.3834 24.2451 41.863 24.9211 41.4908 25.6775C41.1186 26.4338 40.9019 27.2555 40.8534 28.095C40.8048 28.9346 40.9252 29.7753 41.2077 30.5686C41.4902 31.3619 41.9292 32.092 42.4993 32.7168L80.0345 74.2469C80.6231 74.9002 81.3409 75.4275 82.1437 75.7965C82.9465 76.1655 83.8174 76.3683 84.7026 76.3924C85.5878 76.4166 86.4686 76.2616 87.2908 75.937C88.1131 75.6124 88.8593 75.125 89.4836 74.5049L148.834 15.907C149.443 15.3185 149.926 14.6162 150.256 13.8411C150.586 13.0659 150.756 12.2336 150.756 11.3928C150.756 10.552 150.586 9.7197 150.256 8.94457C149.926 8.16944 149.443 7.46709 148.834 6.87867C147.603 5.71709 145.965 5.0689 144.262 5.0689C142.559 5.0689 140.922 5.71709 139.69 6.87867L85.1727 60.6615L52.2532 24.2044C51.1451 22.9496 49.5804 22.1771 47.8988 22.0548H47.3762Z" fill="#FFB83B"></path> <path d="M153.276 72.0113C152.606 72.0113 151.964 71.7486 151.49 71.281C151.017 70.8134 150.75 70.1791 150.75 69.5178V62.0372C150.75 61.7098 150.816 61.3855 150.943 61.083C151.07 60.7805 151.256 60.5056 151.49 60.274C151.725 60.0425 152.003 59.8588 152.31 59.7335C152.616 59.6082 152.944 59.5437 153.276 59.5437C153.608 59.5437 153.936 59.6082 154.243 59.7335C154.549 59.8588 154.827 60.0425 155.062 60.274C155.296 60.5056 155.482 60.7805 155.609 61.083C155.736 61.3855 155.802 61.7098 155.802 62.0372V69.5178C155.802 69.8453 155.736 70.1695 155.609 70.472C155.482 70.7746 155.296 71.0495 155.062 71.281C154.827 71.5126 154.549 71.6962 154.243 71.8215C153.936 71.9469 153.608 72.0113 153.276 72.0113Z" fill="#4C6FBF"></path> <path d="M153.276 159.07C152.943 159.076 152.612 159.015 152.303 158.892C151.993 158.769 151.713 158.585 151.477 158.353C151.241 158.12 151.055 157.843 150.931 157.538C150.806 157.232 150.744 156.906 150.75 156.576V142.217C150.75 141.556 151.016 140.922 151.49 140.454C151.964 139.986 152.606 139.724 153.276 139.724C153.946 139.724 154.588 139.986 155.062 140.454C155.535 140.922 155.802 141.556 155.802 142.217V156.748C155.768 157.383 155.485 157.98 155.014 158.413C154.543 158.847 153.92 159.082 153.276 159.07ZM153.276 130.008C152.606 130.008 151.964 129.745 151.49 129.277C151.016 128.81 150.75 128.175 150.75 127.514V113.155C150.75 112.493 151.016 111.859 151.49 111.392C151.964 110.924 152.606 110.661 153.276 110.661C153.946 110.661 154.588 110.924 155.062 111.392C155.535 111.859 155.802 112.493 155.802 113.155V127.686C155.802 128.347 155.535 128.982 155.062 129.449C154.588 129.917 153.946 130.179 153.276 130.179V130.008ZM153.276 100.945C152.941 100.945 152.609 100.879 152.299 100.751C151.99 100.623 151.71 100.436 151.475 100.2C151.239 99.9634 151.054 99.6834 150.93 99.3759C150.806 99.0684 150.745 98.7395 150.75 98.4085V84.0492C150.75 83.3879 151.016 82.7536 151.49 82.286C151.964 81.8184 152.606 81.5557 153.276 81.5557C153.946 81.5557 154.588 81.8184 155.062 82.286C155.535 82.7536 155.802 83.3879 155.802 84.0492V98.5805C155.807 98.9115 155.746 99.2404 155.622 99.5479C155.498 99.8554 155.312 100.135 155.077 100.372C154.842 100.608 154.562 100.795 154.253 100.923C153.943 101.051 153.611 101.117 153.276 101.117V100.945Z" fill="#4C6FBF"></path> <path d="M153.276 181.297C152.606 181.297 151.964 181.034 151.49 180.566C151.017 180.099 150.75 179.465 150.75 178.803V171.323C150.75 170.661 151.017 170.027 151.49 169.559C151.964 169.092 152.606 168.829 153.276 168.829C153.946 168.829 154.588 169.092 155.062 169.559C155.536 170.027 155.802 170.661 155.802 171.323V178.803C155.802 179.465 155.536 180.099 155.062 180.566C154.588 181.034 153.946 181.297 153.276 181.297Z" fill="#4C6FBF"></path> </g> <defs> <clipPath id="clip0_173_97"> <rect width="43" height="49" fill="white" transform="scale(4)"></rect> </clipPath> </defs> </svg> 