<?xml version="1.0" encoding="UTF-8"?> <svg xmlns="http://www.w3.org/2000/svg" width="52" height="52" viewBox="0 0 52 52" fill="none"> <g clip-path="url(#clip0_120_111)"> <path d="M21.8679 15.8921C21.7006 15.8921 21.5402 15.8262 21.4219 15.709C21.3036 15.5917 21.2372 15.4326 21.2372 15.2668V13.1104C21.2372 12.9446 21.3036 12.7855 21.4219 12.6683C21.5402 12.551 21.7006 12.4851 21.8679 12.4851C22.0352 12.4851 22.1956 12.551 22.3139 12.6683C22.4321 12.7855 22.4986 12.9446 22.4986 13.1104V15.2668C22.4986 15.4326 22.4321 15.5917 22.3139 15.709C22.1956 15.8262 22.0352 15.8921 21.8679 15.8921Z" fill="#4C6FBF"></path> <path d="M31.6545 19.9138C31.4872 19.9137 31.3269 19.8478 31.2086 19.7305C31.1488 19.6731 31.1012 19.6045 31.0687 19.5285C31.0362 19.4526 31.0194 19.3709 31.0194 19.2884C31.0194 19.2059 31.0362 19.1243 31.0687 19.0483C31.1012 18.9724 31.1488 18.9037 31.2086 18.8464L32.731 17.3262C32.8506 17.2115 33.0105 17.1475 33.1769 17.1475C33.3432 17.1475 33.5031 17.2115 33.6227 17.3262C33.7416 17.4452 33.8082 17.606 33.8082 17.7736C33.8082 17.9411 33.7416 18.1019 33.6227 18.221L32.1003 19.7305C31.9808 19.8458 31.8213 19.9114 31.6545 19.9138Z" fill="#4C6FBF"></path> <path d="M25.7281 15.3314H25.565C25.4036 15.2885 25.2659 15.1837 25.1823 15.0402C25.0987 14.8966 25.076 14.7261 25.1192 14.5659L25.4019 13.4878C25.422 13.4077 25.4582 13.3325 25.5083 13.2667C25.5584 13.2008 25.6213 13.1456 25.6933 13.1043C25.7654 13.0631 25.8451 13.0366 25.9276 13.0266C26.0102 13.0165 26.094 13.023 26.174 13.0457C26.3354 13.0887 26.4731 13.1934 26.5567 13.337C26.6403 13.4805 26.663 13.6511 26.6198 13.8112L26.3371 14.8894C26.2972 15.0183 26.2164 15.131 26.1067 15.2107C25.9969 15.2904 25.8641 15.3327 25.7281 15.3314Z" fill="#4C6FBF"></path> <path d="M29.3601 16.8086C29.2493 16.8068 29.1408 16.7771 29.0447 16.7223C28.9725 16.6821 28.9091 16.6279 28.8583 16.563C28.8075 16.4981 28.7704 16.4237 28.7491 16.3443C28.7278 16.2649 28.7228 16.182 28.7343 16.1007C28.7459 16.0193 28.7738 15.941 28.8164 15.8706L29.3492 14.9433C29.3866 14.8652 29.4399 14.7956 29.5058 14.7389C29.5717 14.6823 29.6487 14.6397 29.732 14.6141C29.8153 14.5884 29.903 14.5802 29.9897 14.5899C30.0764 14.5996 30.1601 14.627 30.2355 14.6703C30.311 14.7137 30.3765 14.7722 30.428 14.8419C30.4795 14.9117 30.5159 14.9913 30.5348 15.0758C30.5537 15.1602 30.5547 15.2476 30.5378 15.3324C30.5209 15.4173 30.4865 15.4977 30.4366 15.5687L29.8929 16.4959C29.8379 16.5884 29.7602 16.6655 29.6671 16.7202C29.5739 16.7748 29.4683 16.8053 29.3601 16.8086Z" fill="#4C6FBF"></path> <path d="M34.7971 22.221C34.6864 22.2229 34.5772 22.1947 34.4814 22.1396C34.3856 22.0845 34.3068 22.0046 34.2534 21.9084C34.2108 21.8379 34.1829 21.7596 34.1713 21.6783C34.1598 21.5969 34.1648 21.5141 34.1861 21.4347C34.2074 21.3553 34.2445 21.2809 34.2953 21.216C34.3461 21.151 34.4095 21.0968 34.4818 21.0566L35.4169 20.5175C35.488 20.4753 35.5669 20.4476 35.649 20.4362C35.7311 20.4247 35.8146 20.4297 35.8947 20.4508C35.9748 20.4719 36.0498 20.5087 36.1153 20.5591C36.1808 20.6094 36.2354 20.6723 36.276 20.744C36.3596 20.8887 36.3825 21.0602 36.3398 21.2215C36.297 21.3829 36.1921 21.5211 36.0476 21.6065L35.1125 22.1348C35.0185 22.1943 34.9086 22.2244 34.7971 22.221Z" fill="#4C6FBF"></path> <path d="M36.276 25.7897C36.1231 25.7894 35.9756 25.7342 35.8608 25.6341C35.746 25.5341 35.6717 25.3962 35.6518 25.2459C35.6318 25.0957 35.6676 24.9434 35.7524 24.8173C35.8372 24.6913 35.9653 24.6 36.1129 24.5606L37.2003 24.2803C37.3618 24.2374 37.5338 24.26 37.6786 24.3428C37.8234 24.4257 37.929 24.5622 37.9723 24.7223C37.9952 24.8016 38.0018 24.8847 37.9917 24.9665C37.9815 25.0484 37.9548 25.1274 37.9132 25.1988C37.8716 25.2703 37.8159 25.3327 37.7495 25.3823C37.6831 25.432 37.6072 25.4678 37.5265 25.4878L36.4391 25.7681L36.276 25.7897Z" fill="#4C6FBF"></path> <path d="M29.4689 42.6738C29.3588 42.6723 29.251 42.6428 29.1557 42.588C29.0605 42.5333 28.9811 42.4552 28.9252 42.3612L28.7838 42.1132C28.7412 42.0427 28.7133 41.9645 28.7017 41.8831C28.6902 41.8017 28.6952 41.7189 28.7165 41.6395C28.7378 41.5601 28.7749 41.4857 28.8257 41.4208C28.8765 41.3558 28.9399 41.3017 29.0121 41.2614C29.0832 41.2192 29.1622 41.1915 29.2442 41.1801C29.3263 41.1686 29.4098 41.1736 29.4899 41.1947C29.57 41.2158 29.645 41.2526 29.7105 41.303C29.776 41.3533 29.8306 41.4162 29.8712 41.4879L30.0126 41.7358C30.0956 41.8789 30.1182 42.0488 30.0754 42.2084C30.0327 42.3679 29.928 42.5043 29.7842 42.5876C29.6882 42.6424 29.5797 42.6721 29.4689 42.6738Z" fill="#4C6FBF"></path> <path d="M26.0109 44.938C25.8721 44.9379 25.7371 44.8924 25.627 44.8086C25.5169 44.7248 25.4378 44.6073 25.4019 44.4744L25.1192 43.3962C25.076 43.2361 25.0987 43.0655 25.1823 42.9219C25.2659 42.7784 25.4036 42.6736 25.565 42.6307C25.645 42.608 25.7288 42.6015 25.8113 42.6115C25.8939 42.6216 25.9736 42.648 26.0456 42.6893C26.1177 42.7305 26.1806 42.7858 26.2307 42.8516C26.2808 42.9175 26.3169 42.9927 26.3371 43.0727L26.6198 44.1509C26.663 44.311 26.6403 44.4816 26.5567 44.6251C26.4731 44.7687 26.3354 44.8734 26.174 44.9164L26.0109 44.938Z" fill="#4C6FBF"></path> <path d="M21.8679 45.4771C21.7006 45.4771 21.5402 45.4112 21.4219 45.2939C21.3036 45.1766 21.2372 45.0176 21.2372 44.8517V42.6954C21.2372 42.5296 21.3036 42.3705 21.4219 42.2532C21.5402 42.1359 21.7006 42.0701 21.8679 42.0701C22.0352 42.0701 22.1956 42.1359 22.3139 42.2532C22.4321 42.3705 22.4986 42.5296 22.4986 42.6954V44.8517C22.4986 45.0176 22.4321 45.1766 22.3139 45.2939C22.1956 45.4112 22.0352 45.4771 21.8679 45.4771Z" fill="#4C6FBF"></path> <path d="M12.0811 19.9138C11.9139 19.9137 11.7535 19.8478 11.6353 19.7305L10.1129 18.221C9.99404 18.1019 9.92737 17.9411 9.92737 17.7736C9.92737 17.606 9.99404 17.4452 10.1129 17.3262C10.2325 17.2115 10.3924 17.1475 10.5587 17.1475C10.7251 17.1475 10.885 17.2115 11.0046 17.3262L12.527 18.8464C12.5868 18.9037 12.6344 18.9724 12.6669 19.0483C12.6994 19.1243 12.7162 19.2059 12.7162 19.2884C12.7162 19.3709 12.6994 19.4526 12.6669 19.5285C12.6344 19.6045 12.5868 19.6731 12.527 19.7305C12.4087 19.8478 12.2484 19.9137 12.0811 19.9138Z" fill="#4C6FBF"></path> <path d="M8.03599 29.6174H5.86117C5.6939 29.6174 5.53347 29.5515 5.4152 29.4342C5.29692 29.3169 5.23047 29.1579 5.23047 28.992C5.23047 28.8262 5.29692 28.6671 5.4152 28.5499C5.53347 28.4326 5.6939 28.3667 5.86117 28.3667H8.03599C8.20326 28.3667 8.36368 28.4326 8.48196 28.5499C8.60024 28.6671 8.66669 28.8262 8.66669 28.992C8.66669 29.1579 8.60024 29.3169 8.48196 29.4342C8.36368 29.5515 8.20326 29.6174 8.03599 29.6174Z" fill="#4C6FBF"></path> <path d="M21.8678 47.6658C18.517 47.6647 15.2271 46.7773 12.3376 45.095C9.44802 43.4127 7.06346 40.9965 5.42988 38.0957C3.7963 35.1949 2.97284 31.9145 3.04446 28.5928C3.11608 25.2712 4.08019 22.0287 5.83731 19.1998C7.59444 16.3708 10.081 14.0579 13.0404 12.4996C15.9998 10.9413 19.3249 10.194 22.6728 10.3349C26.0206 10.4758 29.2699 11.4997 32.0855 13.301C34.9011 15.1024 37.1811 17.6159 38.6901 20.5823C39.5433 22.2477 40.1337 24.0331 40.4408 25.8761C40.4533 26.0321 40.4063 26.1872 40.3091 26.3106C40.2119 26.4339 40.0716 26.5167 39.9158 26.5424C39.76 26.5682 39.6002 26.535 39.4679 26.4496C39.3356 26.3641 39.2404 26.2326 39.2012 26.0809C38.9136 24.354 38.3598 22.6813 37.5592 21.1214C36.0561 18.1762 33.7403 15.715 30.8812 14.0242C28.0221 12.3334 24.7374 11.4827 21.4096 11.571C18.0817 11.6593 14.8477 12.683 12.0839 14.523C9.32009 16.363 7.14029 18.9435 5.79827 21.9641C4.45625 24.9848 4.00722 28.3212 4.50346 31.5851C4.9997 34.8489 6.42079 37.9059 8.60128 40.4C10.7818 42.8941 13.632 44.7229 16.82 45.6732C20.008 46.6236 23.4028 46.6566 26.609 45.7683C26.7705 45.7239 26.9431 45.745 27.0889 45.8269C27.2347 45.9088 27.3418 46.0448 27.3865 46.2049C27.4312 46.365 27.4099 46.5362 27.3273 46.6808C27.2447 46.8254 27.1076 46.9315 26.9461 46.9758C25.2926 47.4327 23.5843 47.6649 21.8678 47.6658Z" fill="#4C6FBF"></path> <path d="M21.8678 50.6739C17.9784 50.6659 14.1616 49.6296 10.8108 47.6718C7.45993 45.714 4.69635 42.9056 2.80495 39.536C0.913554 36.1664 -0.0372286 32.3576 0.0506247 28.5022C0.138478 24.6469 1.26179 20.8846 3.30475 17.6031C5.34771 14.3217 8.23639 11.6398 11.673 9.83407C15.1096 8.02831 18.9697 7.16399 22.8555 7.33021C26.7412 7.49644 30.512 8.68719 33.7789 10.7797C37.0459 12.8722 39.6909 15.7908 41.4412 19.2345C42.4589 21.231 43.1525 23.3741 43.4964 25.5849C43.5188 25.6695 43.5231 25.7578 43.509 25.8441C43.4949 25.9304 43.4628 26.0128 43.4145 26.086C43.3663 26.1592 43.3032 26.2215 43.2292 26.269C43.1552 26.3165 43.0719 26.3481 42.9848 26.3618C42.8977 26.3754 42.8087 26.3708 42.7235 26.3482C42.6384 26.3256 42.5589 26.2856 42.4903 26.2307C42.4217 26.1757 42.3655 26.1072 42.3252 26.0294C42.285 25.9516 42.2617 25.8663 42.2567 25.779C41.897 23.6931 41.2148 21.6748 40.2342 19.7952C38.4546 16.2731 35.6886 13.3345 32.2676 11.3314C28.8465 9.32826 24.9154 8.34564 20.9455 8.50125C16.9755 8.65686 13.135 9.94411 9.88408 12.2087C6.63317 14.4734 4.10977 17.6194 2.61622 21.2697C1.12268 24.9201 0.722343 28.92 1.46318 32.7902C2.20402 36.6604 4.05462 40.2368 6.79323 43.0907C9.53183 45.9447 13.0423 47.9552 16.904 48.8814C20.7657 49.8075 24.8148 49.6101 28.5662 48.3127C28.7249 48.2607 28.8978 48.2722 29.0481 48.3447C29.1984 48.4172 29.3142 48.545 29.3709 48.7008C29.3983 48.7787 29.41 48.8612 29.4051 48.9435C29.4002 49.0258 29.379 49.1064 29.3426 49.1805C29.3062 49.2547 29.2554 49.321 29.1931 49.3756C29.1308 49.4302 29.0582 49.472 28.9795 49.4987C26.6908 50.2777 24.2876 50.6748 21.8678 50.6739Z" fill="#4C6FBF"></path> <path d="M18.0076 15.3315C17.8688 15.3315 17.7338 15.286 17.6237 15.2022C17.5136 15.1184 17.4345 15.0009 17.3986 14.8679L17.1159 13.7897C17.0727 13.6296 17.0954 13.459 17.179 13.3155C17.2626 13.172 17.4003 13.0672 17.5617 13.0242C17.6417 13.0015 17.7255 12.995 17.8081 13.0051C17.8906 13.0152 17.9703 13.0416 18.0424 13.0828C18.1144 13.1241 18.1773 13.1793 18.2274 13.2452C18.2775 13.3111 18.3137 13.3863 18.3338 13.4663L18.6165 14.5445C18.6597 14.7046 18.637 14.8752 18.5534 15.0187C18.4698 15.1622 18.3321 15.267 18.1707 15.31L18.0076 15.3315Z" fill="#4C6FBF"></path> <path d="M14.4082 16.8086C14.2981 16.8071 14.1903 16.7775 14.0951 16.7228C13.9999 16.668 13.9205 16.5899 13.8645 16.4959L13.3208 15.5687C13.271 15.4977 13.2365 15.4173 13.2196 15.3324C13.2027 15.2476 13.2037 15.1602 13.2226 15.0758C13.2415 14.9913 13.2779 14.9117 13.3294 14.8419C13.3809 14.7722 13.4465 14.7137 13.5219 14.6703C13.5974 14.627 13.6811 14.5996 13.7677 14.5899C13.8544 14.5802 13.9422 14.5884 14.0254 14.6141C14.1087 14.6397 14.1858 14.6823 14.2516 14.7389C14.3175 14.7956 14.3708 14.8652 14.4082 14.9433L14.941 15.8706C14.9836 15.941 15.0115 16.0193 15.0231 16.1007C15.0347 16.182 15.0296 16.2649 15.0084 16.3443C14.9871 16.4237 14.9499 16.4981 14.8991 16.563C14.8484 16.6279 14.785 16.6821 14.7127 16.7223C14.6199 16.7754 14.5153 16.805 14.4082 16.8086Z" fill="#4C6FBF"></path> <path d="M8.94943 22.221C8.83795 22.2243 8.72806 22.1943 8.63408 22.1347L7.6989 21.5633C7.55439 21.4779 7.44948 21.3397 7.40677 21.1784C7.36406 21.017 7.38696 20.8455 7.47055 20.7008C7.51202 20.63 7.56734 20.5682 7.63324 20.5189C7.69914 20.4696 7.77431 20.4339 7.85433 20.4138C7.93435 20.3937 8.01761 20.3897 8.09922 20.4019C8.18084 20.4142 8.25916 20.4425 8.3296 20.4852L9.26478 21.0242C9.38379 21.0936 9.47656 21.1998 9.52886 21.3264C9.58116 21.4531 9.59009 21.5933 9.55429 21.7255C9.51849 21.8577 9.43993 21.9746 9.33067 22.0583C9.22141 22.1419 9.08747 22.1877 8.94943 22.1887V22.221Z" fill="#4C6FBF"></path> <path d="M7.4597 25.7899H7.29659L6.20918 25.5095C6.12846 25.4896 6.05262 25.4537 5.98617 25.404C5.91973 25.3544 5.86405 25.292 5.82245 25.2206C5.78084 25.1491 5.75417 25.0701 5.74401 24.9883C5.73386 24.9064 5.74043 24.8233 5.76334 24.744C5.80667 24.5839 5.91232 24.4475 6.05709 24.3646C6.20186 24.2817 6.3739 24.2592 6.5354 24.302L7.62281 24.5823C7.77038 24.6218 7.89847 24.713 7.98329 24.8391C8.0681 24.9651 8.10387 25.1174 8.08393 25.2677C8.06399 25.4179 7.98971 25.5559 7.87489 25.6559C7.76007 25.7559 7.61254 25.8112 7.4597 25.8114V25.7899Z" fill="#4C6FBF"></path> <path d="M6.41568 33.7251C6.27687 33.725 6.14196 33.6796 6.03186 33.5957C5.92176 33.5119 5.84263 33.3944 5.80673 33.2615C5.76326 33.1 5.78566 32.928 5.86909 32.7827C5.95252 32.6374 6.09028 32.5305 6.25257 32.4852L7.33998 32.2156C7.41996 32.1929 7.50373 32.1864 7.5863 32.1965C7.66888 32.2066 7.74856 32.233 7.8206 32.2743C7.89265 32.3155 7.95558 32.3707 8.00565 32.4366C8.05572 32.5025 8.0919 32.5777 8.11204 32.6577C8.13273 32.7407 8.13605 32.827 8.12179 32.9113C8.10752 32.9956 8.07597 33.0761 8.0291 33.1478C7.98222 33.2196 7.92101 33.281 7.84924 33.3284C7.77747 33.3757 7.69667 33.408 7.61183 33.4232L6.52442 33.7035L6.41568 33.7251Z" fill="#4C6FBF"></path> <path d="M8.01423 37.5527C7.90263 37.5523 7.7932 37.522 7.6975 37.4651C7.60181 37.4082 7.52339 37.3267 7.47052 37.2292C7.38747 37.0861 7.36486 36.9162 7.40764 36.7567C7.45042 36.5971 7.55512 36.4608 7.69888 36.3775L8.63405 35.8384C8.77703 35.7712 8.94028 35.7597 9.0914 35.8062C9.24252 35.8528 9.37047 35.9539 9.44986 36.0897C9.52926 36.2254 9.55429 36.3857 9.52 36.5389C9.48571 36.6921 9.3946 36.8269 9.26475 36.9166L8.32958 37.4556C8.23459 37.5143 8.126 37.5477 8.01423 37.5527Z" fill="#4C6FBF"></path> <path d="M10.5588 40.8303C10.4756 40.8328 10.3928 40.8178 10.316 40.7862C10.2391 40.7546 10.1699 40.7071 10.1129 40.647C10.0531 40.5897 10.0055 40.521 9.97297 40.4451C9.94046 40.3691 9.92371 40.2875 9.92371 40.205C9.92371 40.1225 9.94046 40.0408 9.97297 39.9649C10.0055 39.8889 10.0531 39.8202 10.1129 39.7629L10.8741 39.0082C10.9933 38.8956 11.1522 38.8337 11.3168 38.8357C11.4814 38.8377 11.6387 38.9034 11.7551 39.0188C11.8715 39.1343 11.9377 39.2902 11.9397 39.4534C11.9417 39.6166 11.8793 39.7741 11.7658 39.8923L11.0046 40.647C10.9468 40.7061 10.8775 40.7528 10.8008 40.7843C10.7241 40.8158 10.6418 40.8315 10.5588 40.8303Z" fill="#4C6FBF"></path> <path d="M13.8644 43.3531C13.753 43.3564 13.6431 43.3264 13.5491 43.2668C13.4053 43.1835 13.3006 43.0472 13.2579 42.8876C13.2151 42.7281 13.2377 42.5582 13.3207 42.4151L13.8644 41.4879C13.905 41.4162 13.9596 41.3533 14.0251 41.303C14.0906 41.2526 14.1656 41.2158 14.2457 41.1947C14.3258 41.1736 14.4094 41.1686 14.4914 41.1801C14.5735 41.1915 14.6524 41.2192 14.7235 41.2614C14.7958 41.3017 14.8592 41.3558 14.91 41.4208C14.9607 41.4857 14.9979 41.5601 15.0192 41.6395C15.0405 41.7189 15.0455 41.8017 15.0339 41.8831C15.0223 41.9645 14.9944 42.0427 14.9519 42.1132L14.419 43.0404C14.3621 43.136 14.281 43.2151 14.1837 43.2699C14.0864 43.3248 13.9764 43.3535 13.8644 43.3531Z" fill="#4C6FBF"></path> <path d="M13.8644 43.3531C13.753 43.3564 13.6431 43.3264 13.5491 43.2668C13.4053 43.1835 13.3006 43.0472 13.2579 42.8876C13.2151 42.7281 13.2377 42.5582 13.3207 42.4151L13.8644 41.4879C13.905 41.4162 13.9596 41.3533 14.0251 41.303C14.0906 41.2526 14.1656 41.2158 14.2457 41.1947C14.3258 41.1736 14.4094 41.1686 14.4914 41.1801C14.5735 41.1915 14.6524 41.2192 14.7235 41.2614C14.7958 41.3017 14.8592 41.3558 14.91 41.4208C14.9607 41.4857 14.9979 41.5601 15.0192 41.6395C15.0405 41.7189 15.0455 41.8017 15.0339 41.8831C15.0223 41.9645 14.9944 42.0427 14.9519 42.1132L14.419 43.0404C14.3621 43.136 14.281 43.2151 14.1837 43.2699C14.0864 43.3248 13.9764 43.3535 13.8644 43.3531Z" fill="#4C6FBF"></path> <path d="M13.8644 43.3531C13.753 43.3564 13.6431 43.3264 13.5491 43.2668C13.4053 43.1835 13.3006 43.0472 13.2579 42.8876C13.2151 42.7281 13.2377 42.5582 13.3207 42.4151L13.8644 41.4879C13.905 41.4162 13.9596 41.3533 14.0251 41.303C14.0906 41.2526 14.1656 41.2158 14.2457 41.1947C14.3258 41.1736 14.4094 41.1686 14.4914 41.1801C14.5735 41.1915 14.6524 41.2192 14.7235 41.2614C14.7958 41.3017 14.8592 41.3558 14.91 41.4208C14.9607 41.4857 14.9979 41.5601 15.0192 41.6395C15.0405 41.7189 15.0455 41.8017 15.0339 41.8831C15.0223 41.9645 14.9944 42.0427 14.9519 42.1132L14.419 43.0404C14.3621 43.136 14.281 43.2151 14.1837 43.2699C14.0864 43.3248 13.9764 43.3535 13.8644 43.3531Z" fill="#4C6FBF"></path> <path d="M13.8644 43.3531C13.753 43.3564 13.6431 43.3264 13.5491 43.2668C13.4053 43.1835 13.3006 43.0472 13.2579 42.8876C13.2151 42.7281 13.2377 42.5582 13.3207 42.4151L13.8644 41.4879C13.905 41.4162 13.9596 41.3533 14.0251 41.303C14.0906 41.2526 14.1656 41.2158 14.2457 41.1947C14.3258 41.1736 14.4094 41.1686 14.4914 41.1801C14.5735 41.1915 14.6524 41.2192 14.7235 41.2614C14.7958 41.3017 14.8592 41.3558 14.91 41.4208C14.9607 41.4857 14.9979 41.5601 15.0192 41.6395C15.0405 41.7189 15.0455 41.8017 15.0339 41.8831C15.0223 41.9645 14.9944 42.0427 14.9519 42.1132L14.419 43.0404C14.3621 43.136 14.281 43.2151 14.1837 43.2699C14.0864 43.3248 13.9764 43.3535 13.8644 43.3531Z" fill="#4C6FBF"></path> <path d="M17.7248 44.938H17.5617C17.4003 44.8951 17.2626 44.7903 17.179 44.6468C17.0954 44.5032 17.0727 44.3326 17.1159 44.1725L17.3986 43.1267C17.4188 43.0467 17.4549 42.9715 17.505 42.9056C17.5551 42.8397 17.618 42.7845 17.6901 42.7433C17.7621 42.702 17.8418 42.6756 17.9244 42.6655C18.0069 42.6554 18.0907 42.6619 18.1707 42.6846C18.3321 42.7276 18.4698 42.8324 18.5534 42.9759C18.637 43.1194 18.6597 43.29 18.6165 43.4501L18.3338 44.5283C18.2883 44.6512 18.2051 44.7568 18.0958 44.8304C17.9866 44.9039 17.8568 44.9415 17.7248 44.938Z" fill="#4C6FBF"></path> <path d="M10.5588 40.8301C10.4756 40.8326 10.3928 40.8176 10.316 40.786C10.2391 40.7544 10.1699 40.707 10.1129 40.6469C10.0531 40.5895 10.0055 40.5209 9.97297 40.4449C9.94046 40.369 9.92371 40.2873 9.92371 40.2048C9.92371 40.1223 9.94046 40.0406 9.97297 39.9647C10.0055 39.8887 10.0531 39.8201 10.1129 39.7628L11.6353 38.2533C11.7545 38.1408 11.9134 38.0789 12.078 38.0809C12.2426 38.0828 12.3999 38.1486 12.5162 38.264C12.6326 38.3794 12.6989 38.5353 12.7009 38.6985C12.7029 38.8617 12.6405 39.0192 12.527 39.1374L11.0046 40.6469C10.9468 40.7059 10.8775 40.7526 10.8008 40.7842C10.7241 40.8157 10.6418 40.8313 10.5588 40.8301Z" fill="#4C6FBF"></path> <path d="M21.8679 29.6173C21.789 29.6336 21.7075 29.6336 21.6286 29.6173C21.5132 29.572 21.4141 29.4932 21.3443 29.3913C21.2745 29.2894 21.2372 29.1691 21.2372 29.0459V23.6551C21.2372 23.4892 21.3036 23.3302 21.4219 23.2129C21.5402 23.0956 21.7006 23.0297 21.8679 23.0297C22.0352 23.0297 22.1956 23.0956 22.3139 23.2129C22.4321 23.3302 22.4986 23.4892 22.4986 23.6551V27.5257L28.599 21.4772C28.6568 21.4178 28.726 21.3706 28.8026 21.3384C28.8792 21.3062 28.9616 21.2896 29.0448 21.2896C29.128 21.2896 29.2104 21.3062 29.287 21.3384C29.3636 21.3706 29.4328 21.4178 29.4906 21.4772C29.6062 21.5958 29.6709 21.7543 29.6709 21.9192C29.6709 22.0842 29.6062 22.2427 29.4906 22.3613L22.3137 29.4772C22.1887 29.5788 22.0291 29.629 21.8679 29.6173Z" fill="#4C6FBF"></path> <path d="M37.7766 15.6873C37.688 15.6847 37.6008 15.6643 37.5204 15.6272C37.44 15.5901 37.3681 15.5372 37.309 15.4717C36.2663 14.3112 35.0996 13.2664 33.8293 12.3558C33.7533 12.3056 33.6901 12.2385 33.6448 12.1599C33.5995 12.0813 33.5733 11.9933 33.5683 11.9029C33.56 11.8118 33.5722 11.72 33.6042 11.6342C33.6362 11.5484 33.6871 11.4708 33.7532 11.407L35.4387 9.70346C35.7222 9.41659 36.0606 9.18868 36.434 9.03309C36.8074 8.8775 37.2084 8.79736 37.6135 8.79736C38.0186 8.79736 38.4196 8.8775 38.793 9.03309C39.1665 9.18868 39.5048 9.41659 39.7883 9.70346C40.0763 9.98529 40.305 10.321 40.4611 10.6912C40.6172 11.0614 40.6976 11.4586 40.6976 11.8598C40.6976 12.261 40.6172 12.6582 40.4611 13.0284C40.305 13.3986 40.0763 13.7343 39.7883 14.0161L38.266 15.5148C38.2027 15.5782 38.1259 15.6266 38.0412 15.6564C37.9564 15.6863 37.866 15.6969 37.7766 15.6873ZM35.156 11.7843C36.1024 12.4999 36.9864 13.2934 37.7984 14.1563L38.8858 13.0781C39.2152 12.7438 39.3997 12.2949 39.3997 11.8275C39.3997 11.36 39.2152 10.9111 38.8858 10.5768C38.5459 10.2551 38.0942 10.0757 37.6244 10.0757C37.1546 10.0757 36.7028 10.2551 36.363 10.5768L35.156 11.7843Z" fill="#4C6FBF"></path> <path d="M5.95899 15.6873C5.87444 15.6881 5.79056 15.6723 5.71218 15.6408C5.6338 15.6094 5.56247 15.5629 5.50228 15.504L3.99078 14.0161C3.70277 13.7343 3.47408 13.3986 3.318 13.0284C3.16192 12.6582 3.08154 12.261 3.08154 11.8598C3.08154 11.4586 3.16192 11.0614 3.318 10.6912C3.47408 10.321 3.70277 9.98529 3.99078 9.70346C4.27427 9.41659 4.61264 9.18868 4.98609 9.03309C5.35953 8.8775 5.76053 8.79736 6.1656 8.79736C6.57067 8.79736 6.97167 8.8775 7.34511 9.03309C7.71855 9.18868 8.05693 9.41659 8.34042 9.70346L10.0259 11.3746C10.0902 11.4397 10.1399 11.5176 10.1718 11.603C10.2036 11.6885 10.2169 11.7797 10.2108 11.8706C10.2058 11.961 10.1796 12.049 10.1343 12.1276C10.089 12.2062 10.0258 12.2732 9.94979 12.3234C8.67954 13.2341 7.51279 14.2788 6.47007 15.4393C6.35183 15.5672 6.18806 15.6446 6.01336 15.6549L5.95899 15.6873ZM6.14385 10.1024C5.79103 10.1022 5.44609 10.2059 5.15268 10.4001C4.85927 10.5944 4.63058 10.8706 4.49554 11.1938C4.3605 11.517 4.32518 11.8726 4.39405 12.2157C4.46293 12.5588 4.6329 12.874 4.88245 13.1213L5.96987 14.1994C6.78064 13.3392 7.66073 12.546 8.6014 11.8275L7.40525 10.6199C7.23993 10.4553 7.04333 10.3247 6.82681 10.2359C6.6103 10.1471 6.37817 10.1017 6.14385 10.1024Z" fill="#4C6FBF"></path> <path d="M41.5282 49.24H39.6361C39.4817 49.2199 39.3399 49.1449 39.2372 49.0288C39.1345 48.9128 39.0779 48.7636 39.0779 48.6092C39.0779 48.4548 39.1345 48.3057 39.2372 48.1897C39.3399 48.0736 39.4817 47.9986 39.6361 47.9785H41.5282C41.6826 47.9986 41.8244 48.0736 41.9271 48.1897C42.0298 48.3057 42.0864 48.4548 42.0864 48.6092C42.0864 48.7636 42.0298 48.9128 41.9271 49.0288C41.8244 49.1449 41.6826 49.2199 41.5282 49.24Z" fill="#FFB83B"></path> <path d="M46.2476 49.24H43.8879C43.7335 49.2199 43.5918 49.1449 43.4891 49.0288C43.3863 48.9128 43.3297 48.7636 43.3297 48.6092C43.3297 48.4548 43.3863 48.3057 43.4891 48.1897C43.5918 48.0736 43.7335 47.9986 43.8879 47.9785H46.2476C46.402 47.9986 46.5438 48.0736 46.6465 48.1897C46.7492 48.3057 46.8058 48.4548 46.8058 48.6092C46.8058 48.7636 46.7492 48.9128 46.6465 49.0288C46.5438 49.1449 46.402 49.2199 46.2476 49.24Z" fill="#FFB83B"></path> <path d="M50.4994 49.24H48.5964C48.442 49.2199 48.3003 49.1449 48.1976 49.0288C48.0948 48.9128 48.0382 48.7636 48.0382 48.6092C48.0382 48.4548 48.0948 48.3057 48.1976 48.1897C48.3003 48.0736 48.442 47.9986 48.5964 47.9785H50.4994C50.6538 47.9986 50.7956 48.0736 50.8983 48.1897C51.001 48.3057 51.0576 48.4548 51.0576 48.6092C51.0576 48.7636 51.001 48.9128 50.8983 49.0288C50.7956 49.1449 50.6538 49.2199 50.4994 49.24Z" fill="#FFB83B"></path> <path d="M35.1234 52C35.0429 52.0017 34.9629 51.9874 34.8882 51.9577C34.8135 51.9281 34.7455 51.8838 34.6885 51.8275L28.3271 45.7143C28.2088 45.5971 28.1423 45.4381 28.1422 45.2722C28.1414 45.1884 28.1574 45.1052 28.1891 45.0275C28.2208 44.9498 28.2677 44.8791 28.3271 44.8194L34.6885 38.7062C34.7766 38.6142 34.891 38.551 35.0162 38.525C35.1415 38.499 35.2718 38.5114 35.3898 38.5605C35.5078 38.6096 35.6079 38.6932 35.6769 38.8001C35.7458 38.907 35.7804 39.0322 35.7759 39.159V41.3154H39.6579C39.8252 41.3154 39.9856 41.3812 40.1039 41.4985C40.2222 41.6158 40.2886 41.7748 40.2886 41.9407C40.2886 42.1065 40.2222 42.2656 40.1039 42.3829C39.9856 42.5002 39.8252 42.566 39.6579 42.566H35.1234C34.9561 42.566 34.7957 42.5002 34.6774 42.3829C34.5592 42.2656 34.4927 42.1065 34.4927 41.9407V40.6469L29.6755 45.283L34.4927 49.9084V48.6146C34.4927 48.4487 34.5592 48.2896 34.6774 48.1724C34.7957 48.0551 34.9561 47.9892 35.1234 47.9892H39.6362C39.7906 48.0093 39.9324 48.0843 40.0351 48.2004C40.1378 48.3164 40.1944 48.4655 40.1944 48.6199C40.1944 48.7743 40.1378 48.9235 40.0351 49.0395C39.9324 49.1556 39.7906 49.2306 39.6362 49.2507H35.7541V51.407C35.7543 51.5302 35.7185 51.6507 35.6509 51.7541C35.5834 51.8574 35.487 51.9391 35.3735 51.9892C35.2916 52.0083 35.2067 52.0119 35.1234 52Z" fill="#FFB83B"></path> <path d="M50.4994 42.5554H48.5964C48.4291 42.5554 48.2687 42.4895 48.1504 42.3722C48.0321 42.2549 47.9657 42.0959 47.9657 41.93C47.9657 41.7642 48.0321 41.6051 48.1504 41.4878C48.2687 41.3706 48.4291 41.3047 48.5964 41.3047H50.4994C50.6666 41.3047 50.8271 41.3706 50.9453 41.4878C51.0636 41.6051 51.1301 41.7642 51.1301 41.93C51.1301 42.0959 51.0636 42.2549 50.9453 42.3722C50.8271 42.4895 50.6666 42.5554 50.4994 42.5554Z" fill="#FFB83B"></path> <path d="M46.2476 42.5554H43.8879C43.7206 42.5554 43.5602 42.4895 43.4419 42.3722C43.3237 42.2549 43.2572 42.0959 43.2572 41.93C43.2572 41.7642 43.3237 41.6051 43.4419 41.4878C43.5602 41.3706 43.7206 41.3047 43.8879 41.3047H46.2476C46.4149 41.3047 46.5753 41.3706 46.6936 41.4878C46.8118 41.6051 46.8783 41.7642 46.8783 41.93C46.8783 42.0959 46.8118 42.2549 46.6936 42.3722C46.5753 42.4895 46.4149 42.5554 46.2476 42.5554Z" fill="#FFB83B"></path> <path d="M41.5283 42.5554H39.6362C39.5534 42.5554 39.4714 42.5392 39.3948 42.5078C39.3183 42.4763 39.2488 42.4303 39.1902 42.3722C39.1317 42.3141 39.0852 42.2452 39.0535 42.1693C39.0218 42.0935 39.0055 42.0121 39.0055 41.93C39.0055 41.8479 39.0218 41.7666 39.0535 41.6907C39.0852 41.6148 39.1317 41.5459 39.1902 41.4878C39.2488 41.4298 39.3183 41.3837 39.3948 41.3523C39.4714 41.3209 39.5534 41.3047 39.6362 41.3047H41.5283C41.6956 41.3047 41.856 41.3706 41.9743 41.4878C42.0925 41.6051 42.159 41.7642 42.159 41.93C42.159 42.0959 42.0925 42.2549 41.9743 42.3722C41.856 42.4895 41.6956 42.5554 41.5283 42.5554Z" fill="#FFB83B"></path> <path d="M51.3694 45.8976H49.4773C49.31 45.8976 49.1496 45.8318 49.0313 45.7145C48.913 45.5972 48.8466 45.4382 48.8466 45.2723C48.8466 45.1065 48.913 44.9474 49.0313 44.8301C49.1496 44.7129 49.31 44.647 49.4773 44.647H51.3694C51.5366 44.647 51.697 44.7129 51.8153 44.8301C51.9336 44.9474 52.0001 45.1065 52.0001 45.2723C52.0001 45.4382 51.9336 45.5972 51.8153 45.7145C51.697 45.8318 51.5366 45.8976 51.3694 45.8976Z" fill="#FFB83B"></path> <path d="M47.1176 45.8976H44.7579C44.5906 45.8976 44.4302 45.8318 44.3119 45.7145C44.1936 45.5972 44.1272 45.4382 44.1272 45.2723C44.1272 45.1065 44.1936 44.9474 44.3119 44.8301C44.4302 44.7129 44.5906 44.647 44.7579 44.647H47.1176C47.2848 44.647 47.4453 44.7129 47.5635 44.8301C47.6818 44.9474 47.7483 45.1065 47.7483 45.2723C47.7483 45.4382 47.6818 45.5972 47.5635 45.7145C47.4453 45.8318 47.2848 45.8976 47.1176 45.8976Z" fill="#FFB83B"></path> <path d="M42.409 45.8976H40.5061C40.3388 45.8976 40.1784 45.8318 40.0601 45.7145C39.9418 45.5972 39.8754 45.4382 39.8754 45.2723C39.8754 45.1065 39.9418 44.9474 40.0601 44.8301C40.1784 44.7129 40.3388 44.647 40.5061 44.647H42.409C42.5763 44.647 42.7367 44.7129 42.855 44.8301C42.9733 44.9474 43.0397 45.1065 43.0397 45.2723C43.0397 45.4382 42.9733 45.5972 42.855 45.7145C42.7367 45.8318 42.5763 45.8976 42.409 45.8976Z" fill="#FFB83B"></path> <path d="M40.5061 29.4016H38.614C38.4467 29.4016 38.2863 29.3357 38.168 29.2184C38.0497 29.1011 37.9833 28.9421 37.9833 28.7762C37.9833 28.6104 38.0497 28.4513 38.168 28.334C38.2863 28.2168 38.4467 28.1509 38.614 28.1509H40.5061C40.6733 28.1509 40.8338 28.2168 40.952 28.334C41.0703 28.4513 41.1368 28.6104 41.1368 28.7762C41.1368 28.9421 41.0703 29.1011 40.952 29.2184C40.8338 29.3357 40.6733 29.4016 40.5061 29.4016Z" fill="#FFB83B"></path> <path d="M36.2543 29.4016H33.8946C33.7273 29.4016 33.5669 29.3357 33.4486 29.2184C33.3304 29.1011 33.2639 28.9421 33.2639 28.7762C33.2639 28.6104 33.3304 28.4513 33.4486 28.334C33.5669 28.2168 33.7273 28.1509 33.8946 28.1509H36.2543C36.4216 28.1509 36.582 28.2168 36.7003 28.334C36.8185 28.4513 36.885 28.6104 36.885 28.7762C36.885 28.9421 36.8185 29.1011 36.7003 29.2184C36.582 29.3357 36.4216 29.4016 36.2543 29.4016Z" fill="#FFB83B"></path> <path d="M31.5349 29.4016H29.6428C29.4755 29.4016 29.3151 29.3357 29.1968 29.2184C29.0785 29.1011 29.0121 28.9421 29.0121 28.7762C29.0121 28.6104 29.0785 28.4513 29.1968 28.334C29.3151 28.2168 29.4755 28.1509 29.6428 28.1509H31.5349C31.7022 28.1509 31.8626 28.2168 31.9808 28.334C32.0991 28.4513 32.1656 28.6104 32.1656 28.7762C32.1656 28.9421 32.0991 29.1011 31.9808 29.2184C31.8626 29.3357 31.7022 29.4016 31.5349 29.4016Z" fill="#FFB83B"></path> <path d="M45.0188 38.8141C44.9363 38.8304 44.8513 38.8304 44.7687 38.8141C44.6569 38.7619 44.5619 38.6797 44.4947 38.5768C44.4274 38.474 44.3905 38.3545 44.3881 38.2319V36.0756H40.5061C40.3378 36.0728 40.1774 36.0045 40.0594 35.8855C39.9414 35.7665 39.8753 35.6063 39.8754 35.4395C39.8754 35.2736 39.9418 35.1146 40.0601 34.9973C40.1784 34.88 40.3388 34.8141 40.5061 34.8141H45.0188C45.1861 34.8141 45.3465 34.88 45.4648 34.9973C45.5831 35.1146 45.6495 35.2736 45.6495 35.4395V36.7333L50.4559 32.1079L45.6713 27.4826V28.7764C45.6713 28.9422 45.6048 29.1013 45.4865 29.2186C45.3683 29.3358 45.2078 29.4017 45.0406 29.4017H40.5061C40.3388 29.4017 40.1784 29.3358 40.0601 29.2186C39.9418 29.1013 39.8754 28.9422 39.8754 28.7764C39.8754 28.6105 39.9418 28.4515 40.0601 28.3342C40.1784 28.2169 40.3388 28.1511 40.5061 28.1511H44.3881V25.9947C44.3836 25.8679 44.4182 25.7427 44.4871 25.6358C44.5561 25.5289 44.6562 25.4453 44.7742 25.3962C44.8922 25.3471 45.0225 25.3347 45.1478 25.3607C45.273 25.3867 45.3874 25.4499 45.4755 25.5419L51.826 31.6551C51.8889 31.7127 51.9389 31.7828 51.9726 31.8608C52.0063 31.9388 52.0231 32.023 52.0218 32.1079C52.0222 32.1911 52.005 32.2734 51.9713 32.3496C51.9376 32.4257 51.8881 32.494 51.826 32.55L45.4538 38.674C45.3311 38.7721 45.1763 38.822 45.0188 38.8141Z" fill="#FFB83B"></path> <path d="M31.5349 36.0862H29.6428C29.4745 36.0833 29.3141 36.0151 29.1961 35.8961C29.0782 35.7771 29.0121 35.6169 29.0121 35.45C29.0121 35.2842 29.0785 35.1251 29.1968 35.0079C29.3151 34.8906 29.4755 34.8247 29.6428 34.8247H31.5349C31.7022 34.8247 31.8626 34.8906 31.9808 35.0079C32.0991 35.1251 32.1656 35.2842 32.1656 35.45C32.1656 35.6169 32.0995 35.7771 31.9815 35.8961C31.8635 36.0151 31.7031 36.0833 31.5349 36.0862Z" fill="#FFB83B"></path> <path d="M36.2543 36.0862H33.8946C33.7264 36.0833 33.5659 36.0151 33.448 35.8961C33.33 35.7771 33.2639 35.6169 33.2639 35.45C33.2639 35.2842 33.3304 35.1251 33.4486 35.0079C33.5669 34.8906 33.7273 34.8247 33.8946 34.8247H36.2543C36.4216 34.8247 36.582 34.8906 36.7003 35.0079C36.8185 35.1251 36.885 35.2842 36.885 35.45C36.885 35.6169 36.8189 35.7771 36.7009 35.8961C36.583 36.0151 36.4226 36.0833 36.2543 36.0862Z" fill="#FFB83B"></path> <path d="M40.5061 36.0862H38.614C38.4457 36.0833 38.2853 36.0151 38.1673 35.8961C38.0494 35.7771 37.9833 35.6169 37.9833 35.45C37.9833 35.2842 38.0497 35.1251 38.168 35.0079C38.2863 34.8906 38.4467 34.8247 38.614 34.8247H40.5061C40.6733 34.8247 40.8338 34.8906 40.952 35.0079C41.0703 35.1251 41.1368 35.2842 41.1368 35.45C41.1368 35.6169 41.0707 35.7771 40.9527 35.8961C40.8347 36.0151 40.6743 36.0833 40.5061 36.0862Z" fill="#FFB83B"></path> <path d="M30.665 32.7439H28.7729C28.6185 32.7238 28.4768 32.6488 28.3741 32.5327C28.2714 32.4167 28.2147 32.2675 28.2147 32.1131C28.2147 31.9588 28.2714 31.8096 28.3741 31.6936C28.4768 31.5775 28.6185 31.5025 28.7729 31.4824H30.665C30.8194 31.5025 30.9612 31.5775 31.0639 31.6936C31.1666 31.8096 31.2233 31.9588 31.2233 32.1131C31.2233 32.2675 31.1666 32.4167 31.0639 32.5327C30.9612 32.6488 30.8194 32.7238 30.665 32.7439Z" fill="#FFB83B"></path> <path d="M35.3843 32.7439H33.0247C32.8703 32.7238 32.7285 32.6488 32.6258 32.5327C32.5231 32.4167 32.4664 32.2675 32.4664 32.1131C32.4664 31.9588 32.5231 31.8096 32.6258 31.6936C32.7285 31.5775 32.8703 31.5025 33.0247 31.4824H35.3843C35.5387 31.5025 35.6805 31.5775 35.7832 31.6936C35.8859 31.8096 35.9426 31.9588 35.9426 32.1131C35.9426 32.2675 35.8859 32.4167 35.7832 32.5327C35.6805 32.6488 35.5387 32.7238 35.3843 32.7439Z" fill="#FFB83B"></path> <path d="M39.6362 32.7439H37.7441C37.6536 32.7557 37.5616 32.7481 37.4742 32.7218C37.3869 32.6955 37.3062 32.651 37.2376 32.5913C37.169 32.5316 37.114 32.4581 37.0763 32.3756C37.0387 32.2932 37.0192 32.2037 37.0192 32.1132C37.0192 32.0227 37.0387 31.9332 37.0763 31.8507C37.114 31.7683 37.169 31.6947 37.2376 31.635C37.3062 31.5753 37.3869 31.5308 37.4742 31.5045C37.5616 31.4782 37.6536 31.4707 37.7441 31.4824H39.6362C39.7906 31.5025 39.9324 31.5776 40.0351 31.6936C40.1378 31.8096 40.1944 31.9588 40.1944 32.1132C40.1944 32.2676 40.1378 32.4167 40.0351 32.5327C39.9324 32.6488 39.7906 32.7238 39.6362 32.7439Z" fill="#FFB83B"></path> <path d="M25.7716 6.2965H18.2359C17.7167 6.28238 17.2239 6.06647 16.8638 5.69534C16.5038 5.32421 16.3053 4.82761 16.3112 4.31267V1.96226C16.3082 1.45022 16.5083 0.957533 16.8684 0.590451C17.2284 0.223369 17.7196 0.0113075 18.2359 2.27304e-10L25.7716 2.27304e-10C26.031 -3.92493e-06 26.2879 0.0508277 26.5274 0.149572C26.7669 0.248317 26.9843 0.393027 27.1672 0.575383C27.3501 0.757738 27.4949 0.974142 27.5932 1.21215C27.6914 1.45016 27.7413 1.70509 27.7399 1.96226V4.31267C27.7427 4.57126 27.694 4.82787 27.5965 5.06773C27.499 5.30759 27.3547 5.52598 27.1718 5.71034C26.9889 5.8947 26.771 6.04139 26.5307 6.14199C26.2904 6.24258 26.0325 6.29509 25.7716 6.2965ZM18.2359 1.25067C18.0474 1.25351 17.8677 1.32972 17.7354 1.46287C17.6032 1.59601 17.529 1.77539 17.5291 1.96226V4.31267C17.5291 4.49853 17.6035 4.67679 17.7361 4.80822C17.8686 4.93964 18.0484 5.01348 18.2359 5.01348H25.7716C25.9591 5.01348 26.1389 4.93964 26.2714 4.80822C26.404 4.67679 26.4785 4.49853 26.4785 4.31267V1.96226C26.4785 1.77539 26.4044 1.59601 26.2721 1.46287C26.1399 1.32972 25.9601 1.25351 25.7716 1.25067H18.2359Z" fill="#4C6FBF"></path> <path d="M25.0105 8.78718H24.9235C22.9051 8.48526 20.8524 8.48526 18.834 8.78718C18.7421 8.79768 18.649 8.78869 18.5609 8.76081C18.4728 8.73293 18.3917 8.68679 18.3229 8.62545C18.2538 8.56701 18.1985 8.49422 18.161 8.41224C18.1234 8.33027 18.1044 8.2411 18.1054 8.15106V5.67128C18.104 5.58825 18.1192 5.50577 18.1503 5.42866C18.1813 5.35154 18.2276 5.28132 18.2863 5.22211C18.345 5.16289 18.415 5.11587 18.4922 5.08377C18.5695 5.05167 18.6524 5.03514 18.7361 5.03516H25.0105C25.0942 5.03514 25.1772 5.05167 25.2544 5.08377C25.3316 5.11587 25.4017 5.16289 25.4604 5.22211C25.5191 5.28132 25.5653 5.35154 25.5963 5.42866C25.6274 5.50577 25.6426 5.58825 25.6412 5.67128V8.16184C25.6422 8.25188 25.6233 8.34105 25.5857 8.42302C25.5481 8.505 25.4928 8.57779 25.4237 8.63623C25.3083 8.73331 25.1619 8.78678 25.0105 8.78718ZM21.8679 7.31009C22.7036 7.30872 23.5387 7.35552 24.3689 7.45025V6.29661H19.3668V7.45025C20.1971 7.35552 21.0322 7.30872 21.8679 7.31009Z" fill="#4C6FBF"></path> </g> <defs> <clipPath id="clip0_120_111"> <rect width="52" height="52" fill="white"></rect> </clipPath> </defs> </svg> 