<svg width="54" height="54" viewBox="0 0 54 54" fill="none" xmlns="http://www.w3.org/2000/svg">
<path d="M27.0006 0.333984C12.3073 0.333984 0.333984 12.3074 0.333984 27.0007C0.333984 41.694 12.3073 53.6674 27.0006 53.6674C41.694 53.6674 53.6673 41.694 53.6673 27.0007C53.6673 12.3074 41.694 0.333984 27.0006 0.333984ZM39.7473 20.8674L24.6273 35.9874C24.254 36.3607 23.7473 36.574 23.214 36.574C22.6806 36.574 22.174 36.3607 21.8006 35.9874L14.254 28.4407C13.4806 27.6674 13.4806 26.3874 14.254 25.614C15.0273 24.8407 16.3073 24.8407 17.0806 25.614L23.214 31.7474L36.9206 18.0407C37.694 17.2674 38.974 17.2674 39.7473 18.0407C40.5206 18.814 40.5206 20.0674 39.7473 20.8674Z" fill="#FFAC06"/>
</svg>
