<?xml version="1.0" encoding="UTF-8"?> <svg xmlns="http://www.w3.org/2000/svg" width="46" height="46" viewBox="0 0 46 46" fill="none"> <path fill-rule="evenodd" clip-rule="evenodd" d="M22.8534 0.0890905C22.4193 0.245728 22.1297 0.563824 22.0039 1.02246C21.9515 1.21312 21.9101 2.28893 21.9098 3.46317L21.9093 5.56295L21.4149 5.90733C21.143 6.09681 20.6793 6.51269 20.3844 6.83151C19.788 7.47653 19.5988 7.94407 19.7347 8.43718C19.8886 8.99551 24.4521 20.3752 24.618 20.6143C24.9775 21.1326 25.1204 21.1477 29.647 21.1477C34.0908 21.1477 34.1404 21.143 34.5658 20.6757C34.6792 20.5511 35.8187 17.8127 37.151 14.4636C38.9309 9.98891 39.5335 8.37897 39.5335 8.09762C39.5335 7.45097 38.7672 6.49631 37.6897 5.80045L37.2984 5.54766L37.2694 3.18264C37.2426 0.984526 37.2279 0.800509 37.0607 0.575104C36.6408 0.00895238 35.9945 -0.155144 35.4025 0.154129C34.6557 0.544267 34.6367 0.607941 34.6055 2.81306L34.5782 4.75029L33.8985 4.8126C32.5013 4.94067 31.1642 5.54994 30.1517 6.51996L29.6116 7.03745L28.9576 6.41963C27.9404 5.4587 26.7709 4.94777 25.2743 4.81059L24.6069 4.74938V2.83971C24.6069 1.05948 24.5941 0.909118 24.4183 0.621494C24.096 0.0938205 23.4497 -0.126036 22.8534 0.0890905ZM11.6135 20.0047C10.222 20.3345 9.33887 20.8353 8.33069 21.8663C7.52753 22.6876 7.1505 23.2943 6.79837 24.3314C6.62933 24.8292 6.59093 25.1779 6.55532 26.5373L6.51297 28.1519H3.77753C0.764771 28.1519 0.605704 28.1762 0.242879 28.6916C0.131648 28.8497 0.0227555 29.1306 0.000905042 29.3159C-0.0590713 29.8258 2.88112 45.0438 3.09594 45.3348C3.50435 45.8882 3.64777 45.9324 5.14583 45.9675L6.53302 46V37.0759V28.1519H7.88182H9.23061V32.7455V37.3391H12.8724H16.5141V32.7455V28.1519H17.8629H19.2117V37.0746V45.9972L20.538 45.9662C22.1035 45.9294 22.3717 45.8287 22.6846 45.1603C22.8109 44.8906 23.3714 42.1445 24.3403 37.0485L25.8051 29.3443L25.5881 28.918C25.202 28.1594 25.1664 28.1519 21.9781 28.1519H19.2117V26.9794C19.2117 25.41 19.0364 24.5054 18.5245 23.4328C17.8137 21.9435 16.4291 20.728 14.8143 20.1758C13.9656 19.8856 12.4567 19.8049 11.6135 20.0047ZM21.6909 23.8844C21.2175 24.692 20.8302 25.3686 20.8302 25.3879C20.8302 25.4072 21.7775 25.423 22.9353 25.423C24.7488 25.423 25.1162 25.4468 25.5878 25.5954C27.0621 26.0595 28.1427 27.3353 28.4019 28.9176C28.4958 29.4907 28.4633 29.9158 28.2399 31.0399L28.1812 31.3356L29.4737 31.3351C31.6948 31.3342 34.5524 30.7916 37.4079 29.8286C38.8768 29.3331 40.2978 28.748 40.2978 28.6387C40.2978 28.596 39.4917 27.1825 38.5063 25.4973L36.715 22.4334L36.3033 22.8006C36.077 23.0027 35.7002 23.2663 35.4662 23.3865C34.546 23.8593 34.342 23.8766 29.6728 23.8766C26.8252 23.8766 25.1714 23.8418 24.8585 23.7751C24.1988 23.6346 23.4883 23.268 22.9805 22.8062L22.5516 22.416L21.6909 23.8844ZM13.925 22.7834C14.668 23.0156 15.409 23.5557 15.8223 24.1665C16.3562 24.9553 16.4468 25.3127 16.4927 26.8102L16.5337 28.1519H12.8741H9.21451L9.24509 26.7647C9.2735 25.4723 9.29265 25.3407 9.52528 24.8381C10.0112 23.7884 10.6766 23.1789 11.7354 22.8138C12.4778 22.5578 13.1721 22.5482 13.925 22.7834ZM40.6575 31.5145C38.5521 32.4366 35.3535 33.3735 32.8345 33.8062C31.8822 33.9697 31.2952 34.008 29.6668 34.0129L27.6681 34.019L27.5799 34.4738C27.1794 36.5394 27.1069 36.9876 27.1641 37.0455C27.2 37.0818 28.2074 37.1105 29.4025 37.1091C31.0952 37.1071 31.7644 37.0708 32.4299 36.945C35.3346 36.3957 38.2684 35.3966 40.9015 34.0601C42.2821 33.3593 42.8843 32.9979 42.832 32.9014C42.4986 32.2856 41.7453 31.065 41.703 31.072C41.672 31.0771 41.2015 31.2763 40.6575 31.5145ZM43.6698 35.6669C42.9571 36.1203 40.84 37.1515 39.5335 37.6819C37.422 38.5392 35.031 39.2398 32.8995 39.6263C31.6957 39.8445 28.4707 39.955 27.2826 39.8187C26.6845 39.7501 26.5808 39.7589 26.5469 39.8807C26.4085 40.3789 25.4797 45.5294 25.5208 45.5709C25.6664 45.7183 27.8875 45.9038 29.5524 45.9076C34.0181 45.9179 38.1631 44.8153 41.8264 42.6425C43.3607 41.7325 45.521 39.9489 45.8293 39.3374C46.1215 38.7579 46.0667 38.4795 45.4439 37.3797C44.6256 35.9345 44.2634 35.3369 44.2108 35.3451C44.1852 35.3491 43.9418 35.4939 43.6698 35.6669ZM9.23061 43.0243V45.9826L12.8499 45.9588L16.4691 45.9351V43.0243V40.1134L12.8499 40.0897L9.23061 40.0659V43.0243Z" fill="#7994D1"></path> </svg> 