<?xml version="1.0" encoding="UTF-8"?> <svg xmlns="http://www.w3.org/2000/svg" width="27" height="27" viewBox="0 0 27 27" fill="none"> <g clip-path="url(#clip0_161_11926)"> <path d="M13.4593 0.918945C6.35422 0.918945 0.594482 6.67869 0.594482 13.7838C0.594482 20.8889 6.35422 26.6487 13.4593 26.6487C20.5645 26.6487 26.3242 20.8889 26.3242 13.7838C26.3242 6.67869 20.5645 0.918945 13.4593 0.918945Z" fill="#40B3E0"></path> <path d="M19.7191 8.31914L17.4212 19.9045C17.4212 19.9045 17.0999 20.7079 16.2162 20.3223L10.9136 16.257L8.98551 15.3251L5.73974 14.2324C5.73974 14.2324 5.24163 14.0557 5.19339 13.67C5.14515 13.2844 5.75582 13.0755 5.75582 13.0755L18.6585 8.014C18.6585 8.014 19.719 7.54806 19.719 8.31934" fill="white"></path> <path d="M10.5063 19.7745C10.5063 19.7745 10.3515 19.76 10.1585 19.1493C9.96584 18.5387 8.9856 15.3251 8.9856 15.3251L16.7787 10.3762C16.7787 10.3762 17.2287 10.103 17.2126 10.3762C17.2126 10.3762 17.2929 10.4244 17.0518 10.6493C16.8109 10.8744 10.9299 16.1607 10.9299 16.1607" fill="#D2E5F1"></path> <path d="M12.947 17.8158L10.8497 19.7281C10.8497 19.7281 10.6857 19.8525 10.5063 19.7745L10.908 16.2226" fill="#B5CFE4"></path> </g> <defs> <clipPath id="clip0_161_11926"> <rect width="25.7297" height="25.7297" fill="white" transform="translate(0.594482 0.918945)"></rect> </clipPath> </defs> </svg> 