<?xml version="1.0" encoding="UTF-8"?> <svg xmlns="http://www.w3.org/2000/svg" width="38" height="46" viewBox="0 0 38 46" fill="none"> <path fill-rule="evenodd" clip-rule="evenodd" d="M17.2288 0.131583C14.8949 0.495214 12.7905 1.52465 11.1437 3.1082C10.1557 4.05821 9.62166 4.76526 9.05544 5.87313C8.71606 6.53732 8.14421 8.16131 8.14315 8.46429C8.14266 8.57606 8.94435 8.54039 9.79557 8.3907C11.7398 8.0489 13.685 7.12378 16.1977 5.34615L16.6429 5.03122L17.1625 5.62487C18.4293 7.07203 20.5952 8.42502 22.7986 9.14572C24.8637 9.82114 27.2605 9.95071 29.4896 9.50765L29.9739 9.41133L29.9097 8.90411C29.719 7.39702 28.8206 5.32854 27.8343 4.12605C27.1739 3.32088 25.8829 2.19396 25.0175 1.66716C22.7495 0.286847 19.8724 -0.280389 17.2288 0.131583ZM15.7526 8.94994C15.114 9.35265 13.4059 10.1538 12.5518 10.4511C11.4361 10.8395 9.9973 11.1419 8.98739 11.2001L8.03845 11.2548L8.10272 11.6678C8.38763 13.5007 9.30622 15.5715 10.498 17.0676C11.068 17.7831 12.3576 18.9913 13.0867 19.4928C16.713 21.9875 21.3496 21.9888 24.9232 19.4964C25.7738 18.903 27.1746 17.5315 27.7615 16.7174C28.631 15.5113 29.4978 13.6603 29.7183 12.5388C29.7847 12.2013 29.7786 12.1903 29.5557 12.246C29.4283 12.2778 28.7286 12.3519 28.0009 12.4106C25.3248 12.6263 22.7375 12.1745 20.1802 11.0449C19.136 10.5837 17.682 9.73111 16.7704 9.04536L16.2372 8.64435L15.7526 8.94994ZM9.14705 19.9938C9.17952 20.0893 9.92924 22.9565 10.813 26.3653C11.6968 29.7741 12.4322 32.5744 12.4471 32.5882C12.4621 32.6022 12.9243 31.4608 13.4742 30.052L14.4741 27.4905H19H23.5259L24.5258 30.052C25.0757 31.4608 25.5374 32.6026 25.5517 32.5893C25.566 32.5761 26.3012 29.7758 27.1855 26.3664C28.0698 22.957 28.8191 20.0867 28.8507 19.9878C28.8859 19.8777 28.6695 20.0198 28.2921 20.3546C26.5955 21.8596 25.01 22.7925 23.0714 23.4263C21.6244 23.8994 20.7704 24.0251 19 24.0251C17.8137 24.0251 17.1876 23.9825 16.5765 23.8604C14.1308 23.3716 12.0027 22.3116 9.95726 20.5632C9.47916 20.1545 9.11447 19.8982 9.14705 19.9938ZM5.73916 20.9806C3.84866 22.1606 2.31529 24.3062 1.5042 26.9064C0.487796 30.1648 0.00591315 35.402 0.00155091 43.237L0 46H3.05357H6.10714V39.3959V32.7917H7.81394C9.1391 32.7917 9.51057 32.7667 9.47509 32.6794C9.44998 32.6177 8.73641 29.8886 7.88946 26.6149C7.04251 23.3411 6.3271 20.6624 6.29976 20.6622C6.27233 20.6619 6.02009 20.8052 5.73916 20.9806ZM30.11 26.615C29.2626 29.8886 28.5491 32.6177 28.5243 32.6794C28.4893 32.7665 28.8515 32.7917 30.1376 32.7917H31.7959V39.3959V46H34.898H38L37.9984 43.282C37.994 35.4304 37.5103 30.1586 36.4958 26.9064C35.7004 24.3566 34.2552 22.2899 32.435 21.0996C32.0668 20.8588 31.7396 20.662 31.708 20.6622C31.6764 20.6625 30.9573 23.3413 30.11 26.615ZM16.0472 31.3723C15.7936 32.0248 15.5643 32.611 15.5377 32.6751C15.4988 32.7694 16.1627 32.7917 19 32.7917C21.8373 32.7917 22.5012 32.7694 22.4623 32.6751C22.4357 32.611 22.2064 32.0248 21.9528 31.3723L21.4914 30.186H19H16.5086L16.0472 31.3723ZM9.01531 39.3959V43.3044H11.105H13.1946L12.9405 42.9226C11.8998 41.3594 11.5889 39.5125 12.0733 37.772C12.2407 37.171 12.8575 35.8959 13.0542 35.7446C13.1254 35.6898 13.1837 35.6095 13.1837 35.5662C13.1837 35.5228 12.2458 35.4873 11.0995 35.4873H9.01531V39.3959ZM18.1276 35.5806C15.9851 35.995 14.4517 38.035 14.8134 39.9897C15.3954 43.1355 19.4196 44.3932 21.8542 42.1902C24.0705 40.1845 23.2895 36.7814 20.3775 35.7558C19.7782 35.5447 18.7334 35.4633 18.1276 35.5806ZM24.7194 35.5214C24.7194 35.54 24.8721 35.7904 25.0586 36.0775C26.4227 38.1772 26.3689 40.8068 24.9173 42.9838L24.7036 43.3044H26.7956H28.8878V39.3959V35.4873H26.8036C25.6573 35.4873 24.7194 35.5026 24.7194 35.5214Z" fill="#7994D1"></path> </svg> 