<?xml version="1.0" encoding="UTF-8"?> <svg xmlns="http://www.w3.org/2000/svg" width="187" height="200" viewBox="0 0 187 200" fill="none"> <g clip-path="url(#clip0_259_831)"> <path d="M2.60277 24.0256H148.158C148.838 24.0256 149.489 24.2956 149.97 24.7762C150.451 25.2568 150.721 25.9086 150.721 26.5883V196.97C150.721 197.66 150.446 198.322 149.958 198.81C149.47 199.298 148.808 199.573 148.118 199.573H2.60277C1.91247 199.573 1.25045 199.298 0.762334 198.81C0.27422 198.322 0 197.66 0 196.97L0 26.5483C0.0208197 25.872 0.304204 25.2303 0.79008 24.7594C1.27596 24.2885 1.92613 24.0253 2.60277 24.0256Z" fill="#013177"></path> <path d="M132.061 37.3599H20.7823C19.3448 37.3599 18.1795 38.5252 18.1795 39.9626V175.747C18.1795 177.185 19.3448 178.35 20.7823 178.35H132.061C133.498 178.35 134.664 177.185 134.664 175.747V39.9626C134.664 38.5252 133.498 37.3599 132.061 37.3599Z" fill="white"></path> <path d="M118.847 16.0171H93.9004C93.3093 11.5398 91.1111 7.4299 87.7152 4.45279C84.3192 1.47568 79.9569 -0.165704 75.4408 -0.165704C70.9246 -0.165704 66.5623 1.47568 63.1664 4.45279C59.7704 7.4299 57.5722 11.5398 56.9811 16.0171H32.0345C31.3511 16.017 30.6951 16.2858 30.2081 16.7652C29.7211 17.2447 29.4423 17.8965 29.4317 18.5798V46.1692C29.4423 46.8526 29.7211 47.5044 30.2081 47.9838C30.6951 48.4633 31.3511 48.7321 32.0345 48.732H118.847C119.53 48.7321 120.186 48.4633 120.673 47.9838C121.16 47.5044 121.439 46.8526 121.45 46.1692V18.6199C121.45 18.2781 121.382 17.9396 121.252 17.6239C121.121 17.3081 120.929 17.0211 120.687 16.7795C120.446 16.5378 120.159 16.346 119.843 16.2152C119.527 16.0844 119.189 16.0171 118.847 16.0171Z" fill="#074EA3"></path> <path d="M46.6904 65.3898C46.6904 66.7678 46.2818 68.1149 45.5162 69.2607C44.7506 70.4064 43.6625 71.2995 42.3893 71.8268C41.1162 72.3542 39.7153 72.4922 38.3637 72.2233C37.0122 71.9545 35.7707 71.2909 34.7963 70.3165C33.8219 69.3421 33.1583 68.1006 32.8895 66.749C32.6206 65.3975 32.7586 63.9966 33.286 62.7235C33.8133 61.4503 34.7063 60.3622 35.8521 59.5966C36.9979 58.831 38.345 58.4223 39.723 58.4223C41.5709 58.4223 43.3431 59.1564 44.6497 60.4631C45.9564 61.7697 46.6904 63.5419 46.6904 65.3898Z" fill="#FBB040"></path> <path d="M114.923 68.0726H58.8635C58.4973 68.1183 58.1256 68.0856 57.7731 67.9767C57.4205 67.8677 57.0951 67.6851 56.8185 67.4409C56.5419 67.1966 56.3204 66.8964 56.1687 66.56C56.017 66.2236 55.9385 65.8588 55.9385 65.4898C55.9385 65.1208 56.017 64.756 56.1687 64.4197C56.3204 64.0833 56.5419 63.783 56.8185 63.5388C57.0951 63.2946 57.4205 63.1119 57.7731 63.003C58.1256 62.8941 58.4973 62.8614 58.8635 62.9071H114.923C115.553 62.9856 116.132 63.2915 116.552 63.7671C116.972 64.2427 117.204 64.8553 117.204 65.4898C117.204 66.1243 116.972 66.737 116.552 67.2126C116.132 67.6882 115.553 67.994 114.923 68.0726Z" fill="#013177"></path> <path d="M46.6904 88.0939C46.6904 89.4719 46.2818 90.819 45.5162 91.9648C44.7506 93.1106 43.6625 94.0036 42.3893 94.5309C41.1162 95.0583 39.7153 95.1963 38.3637 94.9274C37.0122 94.6586 35.7707 93.995 34.7963 93.0206C33.8219 92.0462 33.1583 90.8047 32.8895 89.4532C32.6206 88.1016 32.7586 86.7007 33.286 85.4276C33.8133 84.1544 34.7063 83.0663 35.8521 82.3007C36.9979 81.5351 38.345 81.1265 39.723 81.1265C41.5709 81.1265 43.3431 81.8605 44.6497 83.1672C45.9564 84.4738 46.6904 86.246 46.6904 88.0939Z" fill="#FBB040"></path> <path d="M114.922 90.4964H58.8619C58.1716 90.4964 57.5096 90.2221 57.0215 89.734C56.5334 89.2459 56.2592 88.5839 56.2592 87.8936C56.2592 87.2033 56.5334 86.5413 57.0215 86.0532C57.5096 85.565 58.1716 85.2908 58.8619 85.2908H114.922C115.612 85.2908 116.274 85.565 116.762 86.0532C117.25 86.5413 117.524 87.2033 117.524 87.8936C117.524 88.5839 117.25 89.2459 116.762 89.734C116.274 90.2221 115.612 90.4964 114.922 90.4964Z" fill="#013177"></path> <path d="M46.6903 110.398C46.6983 111.777 46.2964 113.128 45.5356 114.279C44.7749 115.431 43.6895 116.33 42.4171 116.863C41.1447 117.397 39.7425 117.54 38.3883 117.276C37.0342 117.012 35.789 116.351 34.8105 115.379C33.8321 114.406 33.1645 113.164 32.8924 111.812C32.6203 110.459 32.756 109.056 33.2821 107.781C33.8083 106.505 34.7012 105.415 35.8479 104.647C36.9945 103.88 38.3432 103.47 39.7229 103.47C41.5639 103.47 43.33 104.199 44.6355 105.497C45.941 106.795 46.6798 108.557 46.6903 110.398Z" fill="#FBB040"></path> <path d="M114.923 113H58.8635C58.4973 113.046 58.1256 113.013 57.7731 112.904C57.4205 112.795 57.0951 112.613 56.8185 112.369C56.5419 112.124 56.3204 111.824 56.1687 111.488C56.017 111.151 55.9385 110.787 55.9385 110.418C55.9385 110.049 56.017 109.684 56.1687 109.347C56.3204 109.011 56.5419 108.711 56.8185 108.467C57.0951 108.222 57.4205 108.04 57.7731 107.931C58.1256 107.822 58.4973 107.789 58.8635 107.835H114.923C115.553 107.913 116.132 108.219 116.552 108.695C116.972 109.17 117.204 109.783 117.204 110.418C117.204 111.052 116.972 111.665 116.552 112.14C116.132 112.616 115.553 112.922 114.923 113Z" fill="#013177"></path> <path d="M46.6904 132.942C46.6904 134.32 46.2818 135.667 45.5162 136.813C44.7506 137.958 43.6625 138.851 42.3893 139.379C41.1162 139.906 39.7153 140.044 38.3637 139.775C37.0122 139.506 35.7707 138.843 34.7963 137.868C33.8219 136.894 33.1583 135.653 32.8895 134.301C32.6206 132.949 32.7586 131.549 33.286 130.275C33.8133 129.002 34.7063 127.914 35.8521 127.149C36.9979 126.383 38.345 125.974 39.723 125.974C41.5709 125.974 43.3431 126.708 44.6497 128.015C45.9564 129.322 46.6904 131.094 46.6904 132.942Z" fill="#FBB040"></path> <path d="M114.922 135.504H58.8627C58.5066 135.538 58.1473 135.496 57.8081 135.383C57.4689 135.269 57.1572 135.086 56.8932 134.844C56.6292 134.603 56.4186 134.309 56.2751 133.981C56.1315 133.653 56.0582 133.299 56.0597 132.942C56.0597 132.251 56.334 131.589 56.8221 131.101C57.3102 130.613 57.9722 130.339 58.6625 130.339H114.722C115.406 130.349 116.057 130.628 116.537 131.115C117.016 131.602 117.285 132.258 117.285 132.942C117.287 133.588 117.045 134.211 116.606 134.686C116.168 135.162 115.567 135.454 114.922 135.504Z" fill="#013177"></path> <path d="M146.075 106.674C145.963 105.998 145.589 105.394 145.034 104.992L134.823 97.9443C134.544 97.7483 134.227 97.6103 133.893 97.5384C133.559 97.4665 133.214 97.4622 132.878 97.5256C132.542 97.589 132.223 97.719 131.938 97.9078C131.653 98.0966 131.409 98.3405 131.22 98.625L101.788 141.27C101.592 141.546 101.451 141.858 101.376 142.187C101.3 142.517 101.291 142.859 101.348 143.193C101.489 143.867 101.874 144.466 102.429 144.874L112.64 151.922C113.074 152.223 113.593 152.377 114.121 152.362C114.54 152.366 114.954 152.266 115.324 152.07C115.695 151.875 116.011 151.59 116.244 151.241L145.675 108.596C145.867 108.318 146.001 108.005 146.07 107.675C146.139 107.345 146.141 107.004 146.075 106.674Z" fill="#FBB040"></path> <path d="M180.193 42.8456C177.861 41.2235 174.987 40.5769 172.184 41.0437C170.736 41.303 169.353 41.847 168.115 42.6443C166.878 43.4416 165.811 44.4764 164.977 45.6887L129.219 97.2236C128.833 97.7997 128.689 98.5044 128.818 99.1856C128.881 99.517 129.01 99.8326 129.195 100.114C129.381 100.396 129.62 100.638 129.899 100.827L144.155 110.598C144.573 110.905 145.077 111.073 145.596 111.078C146.02 111.079 146.438 110.977 146.814 110.782C147.19 110.587 147.514 110.304 147.758 109.957L183.316 58.4222C184.137 57.1953 184.707 55.8184 184.994 54.3706C185.281 52.9228 185.28 51.4325 184.989 49.9853C184.699 48.5381 184.126 47.1624 183.303 45.9372C182.48 44.712 181.423 43.6614 180.193 42.8456Z" fill="#F7941E"></path> <path d="M167.778 95.5417C167.25 95.5562 166.731 95.4019 166.296 95.1012C165.73 94.712 165.341 94.1146 165.213 93.4395C165.086 92.7644 165.23 92.0663 165.616 91.4974L181.633 68.5129L177.628 59.5834C177.483 59.2744 177.403 58.9391 177.391 58.598C177.379 58.2568 177.437 57.9169 177.56 57.5987C177.684 57.2805 177.871 56.9906 178.11 56.7467C178.348 56.5028 178.634 56.3099 178.95 56.1797C179.577 55.9093 180.285 55.8963 180.922 56.1435C181.559 56.3907 182.073 56.8783 182.353 57.5011L186.798 67.7921C186.977 68.1913 187.048 68.63 187.006 69.0652C186.964 69.5004 186.81 69.9172 186.558 70.2747L169.9 94.3003C169.673 94.6637 169.362 94.9666 168.992 95.1828C168.622 95.3991 168.206 95.5222 167.778 95.5417Z" fill="#F7941E"></path> <path d="M101.748 141.351L93.6193 168.62L116.243 151.321L101.748 141.351Z" fill="#F7941E"></path> </g> <defs> <clipPath id="clip0_259_831"> <rect width="46.7" height="49.83" fill="white" transform="scale(4.00427)"></rect> </clipPath> </defs> </svg> 