<?xml version="1.0" encoding="UTF-8"?> <svg xmlns="http://www.w3.org/2000/svg" width="73" height="73" viewBox="0 0 73 73" fill="none"> <circle cx="36.5" cy="36.5" r="36.5" fill="#FFA808"></circle> <path d="M41.0217 40.2308H31.9783L30 26.4685V15H43V26.4685L41.0217 40.2308ZM41.0783 58.1077C39.8348 59.3692 38.3087 60 36.5 60C34.6913 60 33.1464 59.3692 31.8652 58.1077C30.6217 56.8079 30 55.2406 30 53.4056C30 51.5706 30.6217 50.0224 31.8652 48.7608C33.1464 47.4611 34.6913 46.8112 36.5 46.8112C38.3087 46.8112 39.8348 47.4611 41.0783 48.7608C42.3594 50.0224 43 51.5706 43 53.4056C43 55.2406 42.3594 56.8079 41.0783 58.1077Z" fill="white"></path> </svg> 