<?xml version="1.0" encoding="UTF-8"?> <svg xmlns="http://www.w3.org/2000/svg" width="99" height="28" viewBox="0 0 99 28" fill="none"> <path fill-rule="evenodd" clip-rule="evenodd" d="M44.2555 19.9755C44.3543 19.1456 44.3938 17.723 44.3938 15.7077V12.3093C44.3938 10.2544 44.3543 8.81209 44.2555 7.98225C44.1567 7.1524 43.8406 6.38183 43.3269 5.6903C42.8132 4.979 42.1216 4.46529 41.272 4.10964C40.4224 3.754 39.4543 3.57617 38.3873 3.57617C37.2611 3.57617 36.2732 3.754 35.4236 4.1294C34.574 4.50481 33.9022 5.03828 33.4083 5.72981C32.9143 6.42135 32.618 7.19192 32.5192 8.02176C32.4204 8.85161 32.3809 10.2742 32.3809 12.2895V15.6879C32.3809 17.7428 32.4204 19.1851 32.5192 20.015C32.618 20.8448 32.9341 21.6154 33.4478 22.3069C33.9615 23.0182 34.6531 23.5319 35.5027 23.8876C36.3523 24.2432 37.3204 24.4211 38.3873 24.4211C39.5136 24.4211 40.5015 24.2432 41.3511 23.8678C42.2007 23.4924 42.8725 22.9589 43.3664 22.2674C43.8604 21.5759 44.1567 20.8053 44.2555 19.9755ZM39.0192 7.36954C39.118 7.6264 39.1773 8.21915 39.1773 9.14778H39.1575V18.3353C39.1575 19.5011 39.0982 20.2519 38.9994 20.568C38.9006 20.8841 38.6833 21.0422 38.3277 21.0422C37.9918 21.0422 37.7744 20.9039 37.6756 20.6273C37.5768 20.3507 37.5373 19.6394 37.5373 18.4736V9.14778C37.5373 8.12036 37.6164 7.50785 37.7547 7.29051C37.9127 7.07317 38.1103 6.97438 38.3869 6.97438C38.7031 6.97438 38.9204 7.11269 39.0192 7.36954Z" fill="#0077CE"></path> <path fill-rule="evenodd" clip-rule="evenodd" d="M57.3377 10.0566H52.5167V8.57477C52.5167 7.88323 52.4574 7.44855 52.3389 7.25097C52.2203 7.05339 52.003 6.97435 51.7264 6.97435C51.4103 6.97435 51.1732 7.0929 51.0151 7.34976C50.857 7.60661 50.778 7.98202 50.778 8.51549C50.778 9.18727 50.8768 9.68122 51.0546 10.0171C51.2324 10.353 51.7066 10.7679 52.5167 11.2421C54.8284 12.6252 56.2905 13.7514 56.8833 14.6208C57.476 15.5099 57.7922 16.9127 57.7922 18.8885C57.7922 20.3111 57.6341 21.3583 57.2982 22.0301C56.9623 22.7019 56.33 23.2749 55.3619 23.7293C54.4135 24.1837 53.2873 24.4208 52.0228 24.4208C50.6397 24.4208 49.4344 24.164 48.4663 23.6305C47.4981 23.097 46.8461 22.4253 46.53 21.6152C46.2139 20.8051 46.0755 19.6393 46.0755 18.1377V16.8337H50.8965V19.2639C50.8965 20.0148 50.9558 20.489 51.0941 20.7063C51.2324 20.9236 51.4695 21.0224 51.8252 21.0224C52.1611 21.0224 52.4377 20.8841 52.5958 20.6075C52.7538 20.3309 52.8526 19.9357 52.8526 19.4023C52.8526 18.2168 52.6945 17.4462 52.3784 17.0905C52.0425 16.7349 51.2324 16.1224 49.9482 15.2728C48.6639 14.4232 47.7945 13.7909 47.3796 13.4155C46.9647 13.0204 46.609 12.4869 46.3324 11.8151C46.0558 11.1433 45.9175 10.2542 45.9175 9.20703C45.9175 7.68565 46.1151 6.55943 46.5102 5.84814C46.9054 5.13684 47.5377 4.58361 48.407 4.18845C49.2764 3.79328 50.3236 3.5957 51.5683 3.5957C52.9119 3.5957 54.0776 3.81304 55.026 4.24772C55.9744 4.6824 56.6067 5.23563 56.9228 5.88765C57.2389 6.55943 57.3772 7.68565 57.3772 9.2663V10.0566H57.3377Z" fill="#0077CE"></path> <path fill-rule="evenodd" clip-rule="evenodd" d="M70.4168 10.0566H65.5958V8.57477C65.5958 7.88323 65.5365 7.44855 65.418 7.25097C65.2994 7.05339 65.0821 6.97435 64.8055 6.97435C64.4894 6.97435 64.2523 7.0929 64.0942 7.34976C63.9361 7.60661 63.8571 7.98202 63.8571 8.51549C63.8571 9.18727 63.9559 9.68122 64.1337 10.0171C64.3115 10.353 64.7857 10.7679 65.5958 11.2421C67.9075 12.6252 69.3696 13.7514 69.9624 14.6208C70.5551 15.5099 70.8713 16.9127 70.8713 18.8885C70.8713 20.3111 70.7132 21.3583 70.3773 22.0301C70.0414 22.7019 69.4092 23.2749 68.441 23.7293C67.4926 24.1837 66.3664 24.4208 65.1019 24.4208C63.7188 24.4208 62.5135 24.164 61.5454 23.6305C60.5772 23.097 59.9252 22.4253 59.6091 21.6152C59.293 20.8051 59.1546 19.6393 59.1546 18.1377V16.8337H63.9756V19.2639C63.9756 20.0148 64.0349 20.489 64.1732 20.7063C64.3115 20.9236 64.5486 21.0224 64.9043 21.0224C65.2402 21.0224 65.5168 20.8841 65.6749 20.6075C65.8527 20.3309 65.9317 19.9357 65.9317 19.4023C65.9317 18.2168 65.7736 17.4462 65.4575 17.0905C65.1216 16.7349 64.3115 16.1224 63.0273 15.2728C61.743 14.4232 60.8736 13.7909 60.4587 13.4155C60.0438 13.0204 59.6881 12.4869 59.4115 11.8151C59.1349 11.1236 58.9966 10.2542 58.9966 9.20703C58.9966 7.68565 59.1942 6.55943 59.5893 5.84814C59.9845 5.13684 60.6168 4.58361 61.4861 4.18845C62.3555 3.79328 63.4027 3.5957 64.6474 3.5957C65.991 3.5957 67.1567 3.81304 68.1051 4.24772C69.0535 4.6824 69.6858 5.23563 70.0019 5.88765C70.318 6.55943 70.4563 7.68565 70.4563 9.2663V10.0566H70.4168Z" fill="#222A36"></path> <path fill-rule="evenodd" clip-rule="evenodd" d="M72.4727 4.01074H81.1465V8.00189H77.6691V11.7955H80.9094V15.6088H77.6691V19.9951H81.4824V23.9863H72.4727V4.01074H72.4727Z" fill="#222A36"></path> <path fill-rule="evenodd" clip-rule="evenodd" d="M94.7194 19.9755C94.8182 19.1456 94.8577 17.723 94.8577 15.7077H94.8775V12.3093C94.8775 10.2544 94.8182 8.81209 94.7194 7.98225C94.6206 7.1524 94.3045 6.40159 93.7908 5.6903C93.277 4.979 92.5855 4.46529 91.7359 4.10964C90.8863 3.754 89.9182 3.57617 88.8512 3.57617C87.725 3.57617 86.7371 3.754 85.8875 4.1294C85.0379 4.50481 84.3661 5.03828 83.8722 5.72981C83.3782 6.42135 83.0818 7.19192 82.983 8.02176C82.8842 8.85161 82.8447 10.2742 82.8447 12.2895V15.6879C82.8447 17.7428 82.8842 19.1851 82.983 20.015C83.0818 20.8448 83.398 21.5956 83.9117 22.3069C84.4254 23.0182 85.1169 23.5319 85.9665 23.8876C86.8161 24.2432 87.7843 24.4211 88.8512 24.4211C89.9774 24.4211 90.9653 24.2432 91.8149 23.8678C92.6645 23.4924 93.3363 22.9589 93.8303 22.2674C94.3242 21.5759 94.6206 20.8053 94.7194 19.9755ZM89.5042 7.36954C89.603 7.6264 89.6622 8.21915 89.6622 9.14778H89.6227V18.3353C89.6227 19.5011 89.5832 20.2519 89.4844 20.568C89.3856 20.8841 89.1683 21.0422 88.8126 21.0422C88.4767 21.0422 88.2594 20.9039 88.1606 20.6273C88.0618 20.3507 88.0223 19.6394 88.0223 18.4736V9.14778C88.0223 8.12036 88.1013 7.50785 88.2396 7.29051C88.3977 7.07317 88.5953 6.97438 88.8719 6.97438C89.188 6.97438 89.4054 7.11269 89.5042 7.36954Z" fill="#222A36"></path> <path opacity="0.8" fill-rule="evenodd" clip-rule="evenodd" d="M13.1783 3.99121L10.7086 11.6574L2.66699 11.6376L9.18719 16.3598L6.6779 24.0063L11.7953 20.272L13.1783 19.2643L17.7227 24.0063L13.1783 3.99121Z" fill="#FF0000"></path> <path fill-rule="evenodd" clip-rule="evenodd" d="M23.6491 3.99121L22.7402 11.1832L24.6568 19.6002L25.8818 10.4917V24.0063H30.4262V3.99121H23.6491Z" fill="#0077CE"></path> <path fill-rule="evenodd" clip-rule="evenodd" d="M22.4629 13.3391L21.7319 8.2612C21.5145 6.62127 21.317 5.21843 21.1194 4.01318H14.3818L18.9262 24.0085V10.81L20.8428 24.0085H24.0633L24.6561 19.6024L22.7395 11.1854L22.4629 13.3391Z" fill="#0077CE"></path> </svg> 