<?xml version="1.0" encoding="UTF-8"?> <svg xmlns="http://www.w3.org/2000/svg" width="146" height="157" viewBox="0 0 146 157" fill="none"> <path d="M73 156.247C113.317 156.247 146 137.377 146 114.1C146 90.8223 113.317 71.9521 73 71.9521C32.6832 71.9521 0 90.8223 0 114.1C0 137.377 32.6832 156.247 73 156.247Z" fill="#F5F5F5"></path> <path d="M128.419 124.134L77.0897 94.4918C76.1737 93.9626 75.1345 93.684 74.0767 93.684C73.0188 93.684 71.9797 93.9626 71.0637 94.4918L52.8904 104.969C52.5901 105.141 52.3405 105.389 52.1669 105.688C51.9933 105.987 51.9019 106.327 51.9019 106.673C51.9019 107.019 51.9933 107.359 52.1669 107.658C52.3405 107.958 52.5901 108.206 52.8904 108.377L104.234 138.03C105.15 138.559 106.189 138.838 107.247 138.838C108.305 138.838 109.344 138.559 110.26 138.03L128.419 127.539C128.719 127.367 128.968 127.119 129.141 126.82C129.314 126.521 129.405 126.182 129.405 125.837C129.405 125.491 129.314 125.152 129.141 124.853C128.968 124.554 128.719 124.306 128.419 124.134Z" fill="#E0E0E0"></path> <path d="M30.8489 133.48C39.6866 133.48 46.8511 129.345 46.8511 124.243C46.8511 119.142 39.6866 115.007 30.8489 115.007C22.0111 115.007 14.8467 119.142 14.8467 124.243C14.8467 129.345 22.0111 133.48 30.8489 133.48Z" fill="#E0E0E0"></path> <path d="M16.8815 113.711L13.7697 115.518C13.7697 115.518 15.3375 110.508 14.4514 105.463C14.2417 104.275 13.8116 103.136 13.1835 102.106C12.9381 101.598 11.0635 98.4522 12.7165 96.9934C14.3696 95.5347 18.2414 98.4283 18.0676 106.196C17.9904 108.741 17.5919 111.266 16.8815 113.711Z" fill="#6DA3DC"></path> <path opacity="0.3" d="M16.8815 113.711L13.7697 115.518C13.7697 115.518 15.3375 110.508 14.4514 105.463C14.2417 104.275 13.8116 103.136 13.1835 102.106C12.9381 101.598 11.0635 98.4522 12.7165 96.9934C14.3696 95.5347 18.2414 98.4283 18.0676 106.196C17.9904 108.741 17.5919 111.266 16.8815 113.711Z" fill="black"></path> <path d="M15.4333 114.697C15.4175 114.7 15.4013 114.7 15.3855 114.697C15.3675 114.69 15.3509 114.681 15.3367 114.668C15.3225 114.656 15.3109 114.64 15.3026 114.623C15.2944 114.606 15.2896 114.587 15.2886 114.568C15.2877 114.549 15.2905 114.53 15.2969 114.512C15.2969 114.482 16.4694 111.257 16.408 106.073C16.3467 100.889 13.6575 98.1865 13.6302 98.1592C13.6031 98.1321 13.5879 98.0953 13.5879 98.057C13.5879 98.0186 13.6031 97.9818 13.6302 97.9547C13.6574 97.9276 13.6941 97.9124 13.7325 97.9124C13.7708 97.9124 13.8076 97.9276 13.8347 97.9547C13.862 97.982 16.633 100.794 16.6943 106.07C16.7557 111.346 15.5798 114.591 15.5696 114.611C15.5576 114.637 15.5384 114.659 15.5142 114.674C15.4899 114.689 15.4618 114.697 15.4333 114.697Z" fill="white"></path> <path d="M14.4651 115.133L9.32534 118.156C9.32534 118.156 6.97017 117.815 7.15081 115.593C7.33146 113.371 8.28239 112.866 7.09287 111.881C5.90336 110.896 5.5932 110.859 5.65114 109.891C5.70908 108.923 6.34985 108.527 6.65319 108.142C6.95654 107.757 7.7984 106.953 7.21898 105.807C6.63956 104.662 5.82156 103.548 7.01448 103.019C7.72682 102.702 8.92316 103.098 9.7173 103.94C10.5114 104.782 11.1624 105.388 11.9157 105.583C12.6689 105.777 14.2334 105.794 14.1822 107.089C14.1311 108.384 13.7937 108.831 14.1073 109.407C14.6833 110.487 17.2123 111.073 14.4651 115.133Z" fill="#6DA3DC"></path> <path d="M12.3722 116.496C12.3339 116.493 12.2985 116.474 12.2737 116.445C12.2488 116.416 12.2365 116.378 12.2393 116.339C12.2393 116.264 12.7915 108.732 7.56646 103.793C7.53981 103.766 7.5249 103.729 7.5249 103.691C7.5249 103.653 7.53981 103.616 7.56646 103.589C7.5795 103.575 7.59512 103.564 7.61239 103.557C7.62967 103.55 7.64824 103.546 7.66701 103.546C7.68578 103.546 7.70435 103.55 7.72163 103.557C7.7389 103.564 7.75452 103.575 7.76756 103.589C13.0948 108.623 12.5392 116.288 12.5392 116.367C12.5376 116.386 12.5319 116.406 12.5225 116.423C12.513 116.441 12.5 116.456 12.4843 116.468C12.4686 116.48 12.4505 116.489 12.4312 116.494C12.4119 116.499 12.3918 116.5 12.3722 116.496Z" fill="white"></path> <path d="M11.452 109.928C11.433 109.927 11.4144 109.923 11.3973 109.914C11.3802 109.906 11.3649 109.895 11.3525 109.88C11.3401 109.866 11.3307 109.849 11.3249 109.831C11.3192 109.813 11.3172 109.794 11.319 109.775C11.3569 109.144 11.5259 108.527 11.8152 107.965C12.1045 107.403 12.5078 106.907 12.9994 106.51C13.0145 106.498 13.0318 106.49 13.0502 106.486C13.0685 106.481 13.0876 106.48 13.1063 106.483C13.125 106.486 13.1429 106.492 13.1591 106.502C13.1753 106.512 13.1893 106.525 13.2004 106.54C13.222 106.572 13.2305 106.61 13.2241 106.648C13.2178 106.685 13.197 106.719 13.1664 106.741C12.7122 107.121 12.3397 107.588 12.0714 108.115C11.803 108.642 11.6445 109.219 11.6053 109.809C11.5995 109.844 11.5804 109.876 11.552 109.899C11.5236 109.921 11.4878 109.931 11.452 109.928Z" fill="white"></path> <path d="M11.8305 111.237C11.8106 111.237 11.7909 111.232 11.7728 111.224C11.7546 111.216 11.7383 111.204 11.7249 111.189C11.7249 111.189 10.4161 109.792 7.47806 110.197C7.44009 110.202 7.40171 110.192 7.37135 110.169C7.34099 110.145 7.32114 110.111 7.31616 110.073C7.31119 110.035 7.32151 109.997 7.34484 109.966C7.36817 109.936 7.4026 109.916 7.44057 109.911C10.5353 109.485 11.8714 110.934 11.9396 110.998C11.9531 111.011 11.9638 111.027 11.9712 111.044C11.9785 111.062 11.9823 111.08 11.9823 111.099C11.9823 111.118 11.9785 111.136 11.9712 111.154C11.9638 111.171 11.9531 111.187 11.9396 111.2C11.9255 111.214 11.9084 111.225 11.8895 111.231C11.8705 111.238 11.8504 111.24 11.8305 111.237Z" fill="white"></path> <path d="M112.816 130.106L71.405 106.196C68.484 104.512 66.1152 99.9861 66.1152 96.0903V7.42897C66.1152 3.53322 68.484 1.74384 71.405 3.43097L112.816 27.3405C115.741 29.0277 118.11 33.5505 118.11 37.4463V126.108C118.11 130.003 115.741 131.793 112.816 130.106Z" fill="#455A64"></path> <path d="M117.588 24.5422L76.173 0.63266C74.9255 -0.0865011 73.7871 -0.17171 72.8737 0.271376C72.7625 0.32594 72.6554 0.388595 72.5533 0.458835L67.9146 3.15484C68.845 2.59928 70.0686 2.64018 71.4081 3.41387L112.82 27.3234C115.744 29.0106 118.113 33.5335 118.113 37.4292V126.108C118.113 128.153 117.431 129.639 116.409 130.317L120.986 127.652C122.152 127.028 122.895 125.508 122.895 123.326V34.6514C122.878 30.7556 120.509 26.2294 117.588 24.5422Z" fill="#37474F"></path> <path d="M118.109 37.4223V126.108C118.109 128.153 117.428 129.639 116.405 130.317L120.983 127.652C122.148 127.028 122.891 125.508 122.891 123.326V34.6445L118.12 37.4121L118.109 37.4223Z" fill="#263238"></path> <path d="M122.878 41.5363L118.109 44.2902V46.4375L122.878 43.6869V41.5363Z" fill="#37474F"></path> <path d="M120.788 55.8275C120.362 56.0763 120.015 55.8275 120.015 55.2446V50.6331C120.019 50.3438 120.092 50.0595 120.226 49.8032C120.36 49.5469 120.553 49.3257 120.788 49.1573C121.214 48.9119 121.559 49.1573 121.559 49.7401V54.3653C121.553 54.6521 121.48 54.9335 121.346 55.1873C121.212 55.4411 121.021 55.6603 120.788 55.8275Z" fill="#37474F"></path> <path d="M120.015 55.2583V50.6332C120.019 50.3438 120.092 50.0596 120.226 49.8032C120.361 49.5469 120.553 49.3257 120.788 49.1573C120.859 49.1089 120.941 49.0794 121.026 49.0716C121.112 49.0639 121.198 49.0781 121.276 49.113L120.7 48.8165C120.621 48.7777 120.532 48.7608 120.444 48.7674C120.356 48.774 120.272 48.8039 120.199 48.854C119.963 49.0224 119.771 49.2436 119.637 49.4999C119.502 49.7562 119.43 50.0405 119.425 50.3298V54.9549C119.412 55.0717 119.429 55.1898 119.475 55.2979C119.521 55.406 119.594 55.5004 119.688 55.5719L120.294 55.8888C120.196 55.8181 120.118 55.7224 120.069 55.6115C120.02 55.5007 120.001 55.3787 120.015 55.2583Z" fill="#455A64"></path> <path d="M120.788 67.0375C120.362 67.2829 120.015 67.0375 120.015 66.4547V61.8295C120.019 61.5402 120.092 61.2559 120.226 60.9996C120.36 60.7433 120.553 60.5221 120.788 60.3537C121.214 60.1083 121.559 60.3537 121.559 60.9366V65.5617C121.555 65.8508 121.483 66.135 121.349 66.3913C121.215 66.6476 121.023 66.8689 120.788 67.0375Z" fill="#37474F"></path> <path d="M120.015 66.4548V61.8297C120.019 61.5403 120.092 61.2561 120.226 60.9998C120.361 60.7435 120.553 60.5222 120.788 60.3539C120.859 60.3045 120.941 60.2744 121.026 60.2666C121.112 60.2589 121.198 60.2737 121.276 60.3096L120.7 60.0096C120.621 59.9694 120.532 59.9516 120.444 59.9583C120.356 59.9649 120.271 59.9956 120.199 60.0471C119.963 60.2155 119.771 60.4367 119.637 60.693C119.502 60.9493 119.43 61.2336 119.425 61.5229V66.1481C119.412 66.2648 119.429 66.3829 119.475 66.491C119.521 66.5991 119.594 66.6935 119.688 66.765L120.294 67.0819C120.196 67.0115 120.119 66.9163 120.07 66.8061C120.021 66.696 120.002 66.5747 120.015 66.4548Z" fill="#455A64"></path> <path d="M111.378 29.8149L70.6788 6.29734C70.5083 6.19848 70.3147 6.14632 70.1176 6.14612C69.9205 6.14591 69.7268 6.19767 69.5561 6.29617C69.3854 6.39467 69.2436 6.53644 69.1451 6.70718C69.0466 6.87792 68.9949 7.0716 68.9951 7.26872V96.0903C68.9951 99.0555 71.0947 102.692 73.6646 104.175L113.375 127.103C113.563 127.211 113.775 127.268 113.991 127.268C114.208 127.268 114.42 127.211 114.608 127.104C114.795 126.996 114.951 126.841 115.06 126.654C115.17 126.468 115.228 126.256 115.229 126.039V36.4851C115.229 34.0413 113.495 31.0385 111.378 29.8149Z" fill="#6DA3DC"></path> <path opacity="0.5" d="M111.378 29.8149L70.6788 6.29734C70.5083 6.19848 70.3147 6.14632 70.1176 6.14612C69.9205 6.14591 69.7268 6.19767 69.5561 6.29617C69.3854 6.39467 69.2436 6.53644 69.1451 6.70718C69.0466 6.87792 68.9949 7.0716 68.9951 7.26872V96.0903C68.9951 99.0555 71.0947 102.692 73.6646 104.175L113.375 127.103C113.563 127.211 113.775 127.268 113.991 127.268C114.208 127.268 114.42 127.211 114.608 127.104C114.795 126.996 114.951 126.841 115.06 126.654C115.17 126.468 115.228 126.256 115.229 126.039V36.4851C115.229 34.0413 113.495 31.0385 111.378 29.8149Z" fill="white"></path> <path d="M82.8472 12.4492L83.4777 15.1043L96.968 22.8822L99.2993 21.6415L82.8472 12.4492Z" fill="#455A64"></path> <path d="M86.814 15.0159C86.814 15.4556 86.5039 15.6329 86.1324 15.4147C85.9332 15.2824 85.7678 15.1053 85.6494 14.8976C85.531 14.6898 85.4629 14.4572 85.4507 14.2184C85.4507 13.7787 85.7608 13.5981 86.1324 13.8196C86.3315 13.9519 86.497 14.129 86.6153 14.3368C86.7337 14.5445 86.8018 14.7771 86.814 15.0159Z" fill="#263238"></path> <path d="M95.9005 20.6328C95.8266 20.633 95.7539 20.6142 95.6892 20.5783L88.8009 16.7269C88.7474 16.7014 88.6996 16.6652 88.6605 16.6205C88.6215 16.5759 88.5921 16.5236 88.5741 16.4671C88.5561 16.4106 88.5499 16.3509 88.5559 16.2919C88.562 16.2329 88.58 16.1757 88.6091 16.124C88.6381 16.0723 88.6775 16.027 88.7247 15.9912C88.7719 15.9553 88.826 15.9295 88.8837 15.9154C88.9413 15.9013 89.0012 15.8992 89.0597 15.9092C89.1182 15.9192 89.1739 15.9411 89.2236 15.9736L96.1119 19.8216C96.1957 19.8683 96.2617 19.9415 96.2995 20.0297C96.3373 20.1179 96.3446 20.2162 96.3204 20.3091C96.2962 20.402 96.2418 20.4842 96.1658 20.5428C96.0898 20.6014 95.9965 20.633 95.9005 20.6328Z" fill="#263238"></path> <path d="M60.8219 110.484C69.7177 115.791 92.8604 129.605 104.316 136.503C104.657 136.708 105.047 136.819 105.445 136.824C105.844 136.83 106.236 136.729 106.583 136.533C106.929 136.337 107.218 136.052 107.418 135.708C107.619 135.364 107.724 134.972 107.724 134.574V38.8574C107.725 37.7681 107.441 36.6976 106.9 35.7523C106.358 34.8069 105.579 34.0197 104.64 33.4688L60.614 7.66759C60.2721 7.46697 59.8832 7.36028 59.4868 7.3583C59.0904 7.35633 58.7005 7.45916 58.3566 7.65636C58.0127 7.85356 57.727 8.13814 57.5285 8.48128C57.3299 8.82442 57.2256 9.21392 57.2261 9.61035V104.151C57.2252 105.428 57.5562 106.683 58.1866 107.793C58.817 108.903 59.7251 109.83 60.8219 110.484Z" fill="#F5F5F5"></path> <path d="M60.6485 110.777C67.7924 115.044 74.934 119.309 82.0734 123.572L94.5854 131.07L100.175 134.424L102.653 135.924C103.413 136.38 104.217 137.038 105.117 137.161C105.484 137.206 105.856 137.172 106.209 137.063C106.562 136.954 106.888 136.771 107.165 136.527C107.443 136.283 107.665 135.984 107.819 135.647C107.972 135.311 108.053 134.947 108.055 134.577C108.055 134.41 108.055 134.236 108.055 134.073V45.8853C108.055 43.588 108.055 41.2908 108.055 38.9936C108.065 37.8044 107.759 36.634 107.169 35.6013C106.579 34.5687 105.727 33.7105 104.698 33.1142C103.693 32.5177 102.684 31.9315 101.675 31.3418L87.2677 22.8925L70.1544 12.8822C67.0699 11.0553 63.9989 9.21142 60.8905 7.42886C60.4866 7.18003 60.0228 7.04521 59.5484 7.0387C59.074 7.03219 58.6067 7.15423 58.1961 7.39187C57.7854 7.62951 57.4468 7.97389 57.2161 8.38846C56.9854 8.80303 56.8712 9.27232 56.8857 9.74653C56.8857 10.5032 56.8857 11.2598 56.8857 12.0165V96.3867C56.8857 98.8862 56.8857 101.386 56.8857 103.885C56.8596 105.259 57.1915 106.617 57.8488 107.824C58.5062 109.031 59.4663 110.046 60.6349 110.77C61.0098 111.002 61.3541 110.412 60.9757 110.184C58.6649 108.762 57.5503 106.37 57.5503 103.708V16.9722C57.5503 14.5864 57.5503 12.2005 57.5503 9.8147C57.5293 9.50618 57.5777 9.19686 57.6922 8.90957C57.8066 8.62229 57.9841 8.36436 58.2116 8.15484C58.9716 7.50725 59.8885 7.64018 60.6792 8.10371L64.0876 10.101L78.6991 18.6764L95.4205 28.4788C98.4062 30.2273 101.402 31.9656 104.381 33.7277C105.315 34.2769 106.086 35.0656 106.614 36.0122C107.142 36.9589 107.408 38.0293 107.384 39.1129C107.384 39.9241 107.384 40.7386 107.384 41.5532V133.919C107.384 134.124 107.384 134.332 107.384 134.536C107.386 134.887 107.293 135.233 107.114 135.535C106.935 135.837 106.678 136.085 106.369 136.252C106.06 136.419 105.712 136.499 105.361 136.483C105.01 136.467 104.67 136.356 104.378 136.162C100.867 134.09 97.3837 131.96 93.8867 129.864C85.7908 125.003 77.6925 120.155 69.592 115.32L60.9928 110.191C60.9156 110.153 60.8268 110.145 60.7444 110.17C60.6619 110.195 60.5919 110.25 60.5483 110.324C60.5047 110.398 60.4908 110.486 60.5094 110.57C60.528 110.654 60.5777 110.728 60.6485 110.777Z" fill="#E0E0E0"></path> <path d="M83.7359 121.309L80.9036 119.676C80.6169 119.472 80.3824 119.202 80.219 118.89C80.0556 118.578 79.9679 118.232 79.9629 117.88V114.945C79.9629 114.264 80.3821 113.923 80.9036 114.233L83.7359 115.869C84.0216 116.075 84.2551 116.344 84.4179 116.656C84.5806 116.968 84.6681 117.314 84.6732 117.665V120.586C84.6732 121.292 84.2472 121.609 83.7359 121.309Z" fill="#E0E0E0"></path> <path d="M82.318 119.162C82.2325 119.106 82.1613 119.031 82.1103 118.943C82.0594 118.855 82.0301 118.756 82.0249 118.654V116.554C82.0249 116.367 82.1544 116.288 82.318 116.384C82.4038 116.439 82.4751 116.514 82.5261 116.602C82.5771 116.691 82.6062 116.79 82.6111 116.892V118.991C82.6111 119.179 82.4816 119.254 82.318 119.162Z" fill="white"></path> <path d="M83.225 118.637L81.4049 117.587C81.32 117.531 81.2492 117.456 81.1983 117.368C81.1474 117.28 81.1178 117.181 81.1118 117.079C81.1118 116.892 81.2447 116.813 81.4049 116.909L83.225 117.958C83.3102 118.014 83.3811 118.089 83.432 118.177C83.4829 118.266 83.5124 118.365 83.5181 118.466C83.5215 118.654 83.3886 118.729 83.225 118.637Z" fill="white"></path> <path d="M73.4605 110.91C73.7947 111.115 74.0696 111.404 74.258 111.748C74.6977 112.508 74.6977 113.333 74.258 113.589C74.1301 113.648 73.9888 113.671 73.8486 113.658C73.7085 113.644 73.5745 113.593 73.4605 113.51C73.1339 113.296 72.8621 113.008 72.6668 112.669C72.4715 112.331 72.3581 111.951 72.3357 111.561C72.3045 111.419 72.319 111.272 72.3773 111.139C72.4356 111.007 72.5345 110.896 72.6598 110.824C72.7851 110.751 72.9303 110.72 73.0742 110.736C73.2182 110.751 73.3535 110.812 73.4605 110.91ZM73.4605 110.228C73.2874 110.103 73.0842 110.026 72.8716 110.005C72.659 109.984 72.4447 110.02 72.2505 110.109C71.5688 110.494 71.5688 111.745 72.2505 112.904C72.538 113.426 72.9546 113.866 73.4605 114.182C73.634 114.307 73.8376 114.385 74.0507 114.406C74.2637 114.428 74.4787 114.393 74.6738 114.305C75.3555 113.916 75.3555 112.665 74.6738 111.506C74.3861 110.983 73.9682 110.543 73.4605 110.228Z" fill="#E0E0E0"></path> <path d="M75.9519 116.864C75.8654 116.809 75.7939 116.733 75.7439 116.643L74.4658 114.427C74.3499 114.23 74.3499 114.015 74.4658 113.947C74.5817 113.879 74.7658 113.988 74.8816 114.189L76.1598 116.404C76.2756 116.602 76.2756 116.817 76.1598 116.885C76.1261 116.899 76.0895 116.904 76.0533 116.901C76.017 116.897 75.9822 116.884 75.9519 116.864Z" fill="#E0E0E0"></path> <path d="M93.2899 121.513C92.581 121.104 92.0084 121.554 92.0084 122.519C92.0084 121.554 91.4358 120.443 90.7269 120.034C90.0179 119.625 89.4487 120.075 89.4487 121.039C89.4487 123.49 92.0084 126.016 92.0084 126.016C92.0084 126.016 94.5715 126.448 94.5715 123.994C94.5715 123.033 93.9955 121.922 93.2899 121.513Z" fill="#E0E0E0"></path> <path d="M101.491 127.559C101.491 128.282 100.983 128.582 100.356 128.214C100.025 127.999 99.7498 127.708 99.5526 127.367C99.3554 127.025 99.2416 126.641 99.2207 126.247C99.2207 125.525 99.7286 125.225 100.356 125.593C100.686 125.808 100.961 126.099 101.158 126.44C101.356 126.782 101.469 127.166 101.491 127.559Z" fill="#E0E0E0"></path> <path d="M100.356 128.214C99.4286 127.679 98.6787 128.248 98.6787 129.485V129.867L102.036 131.807V131.421C102.036 130.188 101.29 128.766 100.356 128.214Z" fill="#E0E0E0"></path> <path d="M65.1777 105.3L62.9146 106.046V109.219L64.6698 110.242V108.51C64.6698 108.187 64.8982 108.054 65.1777 108.217C65.3263 108.314 65.45 108.444 65.5388 108.598C65.6276 108.751 65.6791 108.923 65.6889 109.1V110.828L67.4442 111.851V108.657L65.1777 105.3Z" fill="#E0E0E0"></path> <path d="M73.1057 102.035L62.5876 95.9643C61.7593 95.4837 61.0879 94.2022 61.0879 93.1013V81.4891C61.0879 80.3848 61.7696 79.8803 62.5876 80.3575L73.1057 86.4312C73.934 86.9083 74.602 88.1899 74.602 89.2942V100.903C74.602 102.007 73.934 102.522 73.1057 102.035Z" fill="#6DA3DC"></path> <path opacity="0.5" d="M73.1057 102.035L62.5876 95.9643C61.7593 95.4837 61.0879 94.2022 61.0879 93.1013V81.4891C61.0879 80.3848 61.7696 79.8803 62.5876 80.3575L73.1057 86.4312C73.934 86.9083 74.602 88.1899 74.602 89.2942V100.903C74.602 102.007 73.934 102.522 73.1057 102.035Z" fill="white"></path> <path d="M62.6729 91.9935L73.0206 97.9684L69.9633 90.0167L67.8467 92.5286L65.6824 89.4475L62.6729 91.9935Z" fill="#6DA3DC"></path> <path d="M66.2617 87.0344C66.2795 87.3616 66.3743 87.68 66.5384 87.9637C66.7024 88.2474 66.9311 88.4883 67.2058 88.667C67.7273 88.9703 68.1499 88.7249 68.1499 88.1217C68.13 87.7968 68.0343 87.4811 67.8703 87.2C67.7063 86.9188 67.4788 86.68 67.2058 86.5027C66.6844 86.1891 66.2617 86.4311 66.2617 87.0344Z" fill="#6DA3DC"></path> <path d="M87.7341 110.487L77.216 104.417C76.3878 103.936 75.7163 102.655 75.7163 101.554V89.9416C75.7163 88.8373 76.398 88.3328 77.216 88.81L87.7341 94.8837C88.5624 95.3609 89.2338 96.6424 89.2338 97.7467V109.356C89.2338 110.46 88.5624 110.968 87.7341 110.487Z" fill="#6DA3DC"></path> <path opacity="0.5" d="M87.7341 110.487L77.216 104.417C76.3878 103.936 75.7163 102.655 75.7163 101.554V89.9416C75.7163 88.8373 76.398 88.3328 77.216 88.81L87.7341 94.8837C88.5624 95.3609 89.2338 96.6424 89.2338 97.7467V109.356C89.2338 110.46 88.5624 110.968 87.7341 110.487Z" fill="white"></path> <path d="M77.3013 100.446L87.649 106.421L84.5917 98.4695L82.4751 100.981L80.3108 97.9003L77.3013 100.446Z" fill="#6DA3DC"></path> <path d="M80.8901 95.4871C80.908 95.8143 81.0027 96.1327 81.1668 96.4164C81.3308 96.7001 81.5595 96.941 81.8343 97.1197C82.3557 97.423 82.7784 97.1776 82.7784 96.5743C82.7605 96.2471 82.6658 95.9287 82.5017 95.645C82.3377 95.3613 82.109 95.1204 81.8343 94.9417C81.3128 94.6418 80.8901 94.8838 80.8901 95.4871Z" fill="#6DA3DC"></path> <path d="M102.366 118.94L91.8449 112.87C91.0201 112.389 90.3486 111.108 90.3486 110.007V98.3945C90.3486 97.2902 91.0303 96.7857 91.8449 97.2629L102.366 103.337C103.191 103.814 103.863 105.095 103.863 106.2V117.808C103.863 118.913 103.191 119.421 102.366 118.94Z" fill="#6DA3DC"></path> <path opacity="0.5" d="M102.366 118.94L91.8449 112.87C91.0201 112.389 90.3486 111.108 90.3486 110.007V98.3945C90.3486 97.2902 91.0303 96.7857 91.8449 97.2629L102.366 103.337C103.191 103.814 103.863 105.095 103.863 106.2V117.808C103.863 118.913 103.191 119.421 102.366 118.94Z" fill="white"></path> <path d="M91.9331 108.899L102.277 114.874L99.2236 106.919L97.107 109.434L94.9393 106.353L91.9331 108.899Z" fill="#6DA3DC"></path> <path d="M95.5225 103.94C95.5403 104.267 95.6351 104.585 95.7991 104.869C95.9632 105.153 96.1919 105.394 96.4666 105.572C96.9881 105.876 97.4073 105.63 97.4073 105.027C97.3901 104.7 97.296 104.382 97.1325 104.098C96.969 103.814 96.7409 103.573 96.4666 103.394C95.9451 103.091 95.5225 103.336 95.5225 103.94Z" fill="#6DA3DC"></path> <path d="M107.724 127.195C107.684 127.195 107.645 127.184 107.611 127.164L57.1234 98.0161C57.0972 98.0011 57.0742 97.9811 57.0558 97.9572C57.0373 97.9333 57.0238 97.906 57.0159 97.8769C57.0079 97.8478 57.0058 97.8174 57.0097 97.7875C57.0135 97.7576 57.0232 97.7287 57.0382 97.7025C57.0532 97.6763 57.0732 97.6533 57.0971 97.6349C57.1209 97.6164 57.1482 97.6029 57.1773 97.595C57.2064 97.587 57.2368 97.5849 57.2668 97.5888C57.2967 97.5926 57.3256 97.6023 57.3518 97.6173L107.84 126.765C107.866 126.781 107.889 126.801 107.908 126.825C107.926 126.849 107.94 126.877 107.948 126.906C107.956 126.936 107.958 126.966 107.954 126.997C107.95 127.027 107.94 127.056 107.925 127.082C107.904 127.117 107.874 127.145 107.839 127.165C107.804 127.185 107.764 127.195 107.724 127.195Z" fill="#E0E0E0"></path> <path d="M107.724 100.63C107.685 100.63 107.646 100.62 107.612 100.6L57.1241 71.4514C57.075 71.4191 57.0401 71.3692 57.0264 71.3121C57.0127 71.2549 57.0212 71.1947 57.0502 71.1436C57.0793 71.0925 57.1266 71.0543 57.1827 71.0368C57.2389 71.0193 57.2995 71.0237 57.3525 71.0493L107.84 100.201C107.867 100.215 107.89 100.235 107.909 100.259C107.928 100.283 107.942 100.31 107.95 100.339C107.958 100.369 107.96 100.399 107.956 100.429C107.951 100.46 107.941 100.488 107.926 100.514C107.905 100.55 107.876 100.579 107.841 100.599C107.805 100.62 107.765 100.63 107.724 100.63Z" fill="#E0E0E0"></path> <path d="M104.64 33.4688L60.614 7.66759C60.2721 7.46697 59.8832 7.36028 59.4868 7.3583C59.0904 7.35633 58.7005 7.45916 58.3566 7.65636C58.0127 7.85356 57.727 8.13814 57.5285 8.48128C57.3299 8.82442 57.2256 9.21392 57.2261 9.61035V13.7617L107.711 42.9133V38.8574C107.713 37.7694 107.431 36.6998 106.892 35.7546C106.353 34.8094 105.577 34.0214 104.64 33.4688Z" fill="#E0E0E0"></path> <path d="M75.6023 51.4111C78.9327 49.4883 78.9324 43.2526 75.6015 37.4834C72.2707 31.7141 66.8706 28.596 63.5401 30.5189C60.2097 32.4417 60.21 38.6774 63.5408 44.4466C66.8717 50.2158 72.2718 53.334 75.6023 51.4111Z" fill="#6DA3DC"></path> <path d="M65.5366 70.3092C66.5816 69.7059 66.5818 67.7499 65.5371 65.9404C64.4923 64.1309 62.7983 63.1531 61.7534 63.7564C60.7084 64.3597 60.7082 66.3157 61.753 68.1252C62.7977 69.9347 64.4917 70.9125 65.5366 70.3092Z" fill="#E0E0E0"></path> <path d="M72.7617 72.3989C72.7617 74.1031 71.562 74.7848 70.0862 73.9463C69.3071 73.4383 68.6586 72.7539 68.1932 71.9486C67.7277 71.1433 67.4585 70.2397 67.4072 69.311C67.4072 67.6068 68.607 66.9251 70.0862 67.767C70.8646 68.2747 71.5124 68.9586 71.9773 69.7634C72.4421 70.5681 72.7109 71.471 72.7617 72.3989Z" fill="#E0E0E0"></path> <path d="M79.1968 76.2196C79.1968 77.9238 78.0005 78.6054 76.5213 77.7636C75.7424 77.2555 75.0943 76.5711 74.6294 75.7657C74.1646 74.9604 73.8961 74.0568 73.8457 73.1282C73.8457 71.4241 75.0454 70.7424 76.5213 71.5843C77.3007 72.0917 77.9492 72.776 78.4142 73.5815C78.8791 74.387 79.1473 75.2909 79.1968 76.2196Z" fill="#E0E0E0"></path> <path d="M85.6348 79.9043C85.6348 81.6085 84.4385 82.2901 82.9592 81.4517C82.181 80.943 81.5333 80.2584 81.0685 79.4532C80.6037 78.648 80.3349 77.7447 80.2837 76.8163C80.2837 75.1122 81.4834 74.4305 82.9592 75.2724C83.7382 75.7795 84.3865 76.4632 84.8514 77.2681C85.3163 78.073 85.5847 78.9762 85.6348 79.9043Z" fill="#E0E0E0"></path> <path d="M91.2876 85.2219C92.3326 84.6186 92.3328 82.6626 91.288 80.8531C90.2433 79.0436 88.5493 78.0658 87.5043 78.6691C86.4594 79.2724 86.4592 81.2284 87.5039 83.0379C88.5487 84.8474 90.2427 85.8252 91.2876 85.2219Z" fill="#E0E0E0"></path> <path d="M98.0957 89.0406C99.1407 88.4373 99.1409 86.4814 98.0961 84.6719C97.0514 82.8623 95.3574 81.8845 94.3125 82.4878C93.2675 83.0911 93.2673 85.0471 94.312 86.8566C95.3568 88.6661 97.0508 89.6439 98.0957 89.0406Z" fill="#E0E0E0"></path> <path d="M78.1126 60.2584C78.0529 60.2588 77.9942 60.2435 77.9422 60.2141L60.8834 50.364C60.8055 50.319 60.7485 50.245 60.7248 50.1582C60.7012 50.0713 60.7129 49.9787 60.7573 49.9004C60.7796 49.8614 60.8094 49.8271 60.8449 49.7996C60.8805 49.7721 60.9212 49.7519 60.9646 49.7402C61.008 49.7285 61.0533 49.7254 61.0978 49.7313C61.1424 49.7372 61.1854 49.7518 61.2243 49.7743L78.2831 59.6244C78.347 59.6624 78.3968 59.7202 78.4249 59.7891C78.4529 59.858 78.4576 59.9342 78.4383 60.0061C78.419 60.0779 78.3767 60.1414 78.3179 60.187C78.2591 60.2326 78.187 60.2576 78.1126 60.2584Z" fill="#6DA3DC"></path> <path d="M88.6508 69.9243C88.5906 69.9254 88.5313 69.9088 88.4804 69.8765L60.8728 53.9391C60.8321 53.9178 60.7961 53.8885 60.767 53.8529C60.7379 53.8173 60.7162 53.7762 60.7034 53.7321C60.6906 53.6879 60.6869 53.6416 60.6924 53.596C60.698 53.5504 60.7127 53.5063 60.7357 53.4665C60.7587 53.4267 60.7895 53.392 60.8263 53.3644C60.8631 53.3368 60.905 53.317 60.9497 53.3061C60.9943 53.2951 61.0407 53.2933 61.0861 53.3008C61.1315 53.3082 61.1748 53.3248 61.2136 53.3495L88.8212 69.2869C88.86 69.3095 88.8939 69.3394 88.9211 69.3751C88.9483 69.4108 88.9681 69.4515 88.9795 69.4949C88.9909 69.5383 88.9937 69.5835 88.9875 69.6279C88.9814 69.6724 88.9666 69.7151 88.9439 69.7538C88.9142 69.8054 88.8715 69.8482 88.8201 69.8781C88.7687 69.908 88.7103 69.9239 88.6508 69.9243Z" fill="#6DA3DC"></path> <path d="M103.825 82.8216C103.765 82.822 103.707 82.8067 103.655 82.7773L60.8732 58.0735C60.7952 58.0286 60.7382 57.9546 60.7146 57.8678C60.691 57.7809 60.7026 57.6883 60.7471 57.61C60.7693 57.571 60.7991 57.5367 60.8347 57.5092C60.8703 57.4817 60.9109 57.4615 60.9543 57.4498C60.9977 57.4381 61.043 57.435 61.0876 57.4409C61.1321 57.4467 61.1751 57.4614 61.214 57.4839L103.996 82.1842C104.061 82.2214 104.113 82.2794 104.142 82.349C104.171 82.4186 104.176 82.4959 104.157 82.5688C104.137 82.6417 104.094 82.7061 104.034 82.7518C103.974 82.7976 103.901 82.8221 103.825 82.8216Z" fill="#6DA3DC"></path> <path d="M103.014 86.6426C101.535 85.7905 100.338 86.4824 100.338 88.1866C100.388 89.1153 100.656 90.0192 101.121 90.8247C101.586 91.6302 102.235 92.3145 103.014 92.8219V86.6426Z" fill="#E0E0E0"></path> <path d="M88.9101 46.9046C88.8601 46.9034 88.8111 46.8906 88.767 46.8671L83.5079 43.8269C83.4432 43.7898 83.396 43.7286 83.3765 43.6567C83.357 43.5848 83.3669 43.5081 83.4039 43.4434C83.441 43.3788 83.5022 43.3315 83.5741 43.312C83.646 43.2925 83.7227 43.3024 83.7874 43.3395L89.0498 46.3763C89.1039 46.4073 89.1461 46.4552 89.1701 46.5127C89.1941 46.5701 89.1985 46.6339 89.1826 46.6941C89.1667 46.7542 89.1313 46.8075 89.0821 46.8456C89.0328 46.8836 88.9724 46.9044 88.9101 46.9046Z" fill="#6DA3DC"></path> <path d="M83.9955 41.7579V39.8083L83.6001 39.58V38.9733L84.6533 39.5834V42.143L83.9955 41.7579Z" fill="#37474F"></path> <path d="M87.0526 42.2418C87.0526 43.0836 86.6913 43.3392 86.0505 42.9677C85.7266 42.7766 85.4618 42.4998 85.285 42.1679C85.1082 41.836 85.0263 41.4617 85.0485 41.0863C85.0485 40.2513 85.3893 39.9922 86.0505 40.3672C86.372 40.5592 86.6352 40.8351 86.8117 41.1654C86.9882 41.4957 87.0715 41.8678 87.0526 42.2418ZM85.7233 41.4749C85.7233 42.0236 85.8153 42.2792 86.0641 42.419C86.313 42.5587 86.3879 42.3985 86.3879 41.8532C86.3879 41.3079 86.2959 41.0488 86.0641 40.9159C85.8324 40.783 85.7233 40.9295 85.7233 41.4749Z" fill="#37474F"></path> <path d="M89.2884 43.5336C89.2884 44.3755 88.9305 44.6311 88.2898 44.263C87.9669 44.0699 87.703 43.7923 87.5264 43.4601C87.3498 43.1279 87.2673 42.7538 87.2877 42.3782C87.2877 41.5432 87.6285 41.2841 88.2898 41.659C88.6119 41.8501 88.8754 42.1259 89.0516 42.4565C89.2277 42.7871 89.3096 43.1597 89.2884 43.5336ZM87.9626 42.7667C87.9626 43.3155 88.0546 43.5745 88.3034 43.7109C88.5522 43.8472 88.6272 43.7109 88.6272 43.1451C88.6272 42.5793 88.5352 42.3441 88.3034 42.2112C88.0716 42.0783 87.9626 42.2214 87.9626 42.7667Z" fill="#37474F"></path> <path d="M96.0268 51.131C95.9778 51.1303 95.9298 51.1174 95.8871 51.0936L90.6246 48.0533C90.5599 48.0162 90.5127 47.955 90.4932 47.8831C90.4737 47.8112 90.4836 47.7345 90.5206 47.6699C90.5577 47.6052 90.6189 47.558 90.6908 47.5385C90.7627 47.519 90.8394 47.5288 90.9041 47.5659L96.1768 50.6027C96.2308 50.6337 96.2731 50.6816 96.2971 50.7391C96.3211 50.7965 96.3255 50.8603 96.3095 50.9205C96.2936 50.9807 96.2583 51.0339 96.209 51.072C96.1597 51.1101 96.0993 51.1308 96.037 51.131H96.0268Z" fill="#6DA3DC"></path> <path d="M91.5241 44.2562V44.597L91.6673 44.6788C91.9058 44.7996 92.1098 44.9789 92.26 45.2001C92.4103 45.4213 92.5019 45.677 92.5262 45.9433C92.5262 46.4887 92.1683 46.625 91.6127 46.3148C91.2648 46.0953 90.9636 45.8092 90.7266 45.473L90.9856 45.0469C91.1049 45.3123 91.2962 45.539 91.5378 45.7013C91.7218 45.807 91.8206 45.7661 91.8172 45.5854C91.8134 45.4971 91.7853 45.4116 91.736 45.3382C91.6867 45.2649 91.6181 45.2065 91.5378 45.1696L90.9208 44.8288V43.3325L92.4273 44.2016V44.7947L91.5241 44.2562Z" fill="#37474F"></path> <path d="M94.7352 46.7953C94.7352 47.6338 94.3739 47.8894 93.7366 47.5213C93.4127 47.3302 93.1478 47.0534 92.971 46.7215C92.7942 46.3896 92.7124 46.0153 92.7345 45.6399C92.7345 44.8049 93.0753 44.5458 93.7366 44.9208C94.0572 45.1135 94.3194 45.3897 94.4953 45.7198C94.6712 46.05 94.7541 46.4217 94.7352 46.7953ZM93.4059 46.0285C93.4059 46.5772 93.498 46.8328 93.7468 46.9726C93.9956 47.1123 94.0672 46.9521 94.0672 46.4068C94.0672 45.8615 93.9751 45.6024 93.7468 45.4695C93.5184 45.3366 93.4059 45.4831 93.4059 46.0285Z" fill="#37474F"></path> <path d="M96.9739 48.0871C96.9739 48.929 96.6126 49.1846 95.9752 48.8165C95.6484 48.6263 95.3801 48.3499 95.1997 48.0174C95.0194 47.685 94.9339 47.3094 94.9527 46.9317C94.9527 46.0966 95.2936 45.8376 95.9752 46.2125C96.2959 46.4052 96.5581 46.6814 96.734 47.0116C96.9099 47.3418 96.9928 47.7135 96.9739 48.0871ZM95.6446 47.3202C95.6446 47.869 95.7367 48.128 95.9855 48.2643C96.2343 48.4007 96.3059 48.2439 96.3059 47.6985C96.3059 47.1532 96.2138 46.8976 95.9855 46.7647C95.7571 46.6317 95.6446 46.7749 95.6446 47.3066V47.3202Z" fill="#37474F"></path> <path d="M103.566 55.415C103.516 55.4146 103.468 55.4004 103.426 55.3741L98.1636 52.3372C98.1316 52.3189 98.1036 52.2944 98.081 52.2652C98.0585 52.236 98.0419 52.2027 98.0323 52.167C98.0226 52.1314 98.02 52.0943 98.0248 52.0577C98.0295 52.0211 98.0413 51.9858 98.0597 51.9538C98.078 51.9218 98.1025 51.8937 98.1317 51.8712C98.1609 51.8486 98.1943 51.8321 98.2299 51.8224C98.2655 51.8128 98.3026 51.8102 98.3392 51.8149C98.3758 51.8196 98.4111 51.8315 98.4431 51.8498L103.706 54.8867C103.76 54.9177 103.802 54.9656 103.826 55.023C103.85 55.0805 103.854 55.1442 103.838 55.2044C103.822 55.2646 103.787 55.3179 103.738 55.3559C103.689 55.394 103.628 55.4148 103.566 55.415Z" fill="#6DA3DC"></path> <path d="M98.6512 50.2684V48.3291L98.2559 48.1007V47.494L99.309 48.1041V50.6638L98.6512 50.2684Z" fill="#37474F"></path> <path d="M100.406 49.3177V49.6585L100.55 49.7403C100.788 49.8622 100.992 50.0423 101.142 50.2639C101.292 50.4856 101.384 50.7416 101.409 51.0082C101.409 51.5502 101.068 51.6899 100.495 51.3798C100.147 51.1601 99.8469 50.8726 99.6123 50.5345L99.8713 50.1118C99.9905 50.3764 100.18 50.6028 100.42 50.7663C100.604 50.8719 100.706 50.831 100.703 50.6504C100.699 50.5613 100.67 50.4751 100.62 50.4012C100.57 50.3273 100.501 50.2685 100.42 50.2311L99.8032 49.8903V48.394L101.31 49.2632V49.8528L100.406 49.3177Z" fill="#37474F"></path> <path d="M103.617 51.8568C103.617 52.6953 103.256 52.9509 102.618 52.5828C102.301 52.3893 102.041 52.1136 101.867 51.7849C101.693 51.4561 101.611 51.0865 101.63 50.715C101.63 49.8766 101.971 49.6175 102.632 49.9924C102.948 50.1863 103.207 50.4617 103.38 50.7897C103.553 51.1177 103.635 51.4863 103.617 51.8568ZM102.288 51.0899C102.288 51.6353 102.38 51.8943 102.629 52.0306C102.878 52.167 102.97 52.0136 102.97 51.4648C102.97 50.9161 102.878 50.6639 102.629 50.531C102.38 50.398 102.288 50.5412 102.288 51.0899Z" fill="#37474F"></path> <path d="M63.1875 22.0337C63.1875 22.6438 62.8807 22.862 62.407 22.5893C62.1951 22.4632 62.0254 22.2769 61.9196 22.0542V22.9915L61.2788 22.6234V19.9274L61.9196 20.2955V20.5272C62.0321 20.4284 62.1957 20.4318 62.3899 20.5272C62.6415 20.6882 62.8472 20.9116 62.9869 21.1755C63.1267 21.4395 63.1958 21.7352 63.1875 22.0337ZM62.5399 21.6418C62.5444 21.5207 62.5183 21.4004 62.4641 21.292C62.4099 21.1836 62.3293 21.0905 62.2297 21.0214C62.0457 20.9124 61.9196 21.0214 61.9196 21.2839C61.9154 21.405 61.9416 21.5251 61.9958 21.6335C62.05 21.7418 62.1304 21.8349 62.2297 21.9042C62.4342 22.0133 62.5399 21.9042 62.5399 21.6418Z" fill="#37474F"></path> <path d="M64.0769 21.8566C64.1996 21.71 64.3836 21.693 64.6188 21.8259V22.5076C64.278 22.2724 64.0769 22.3099 64.0769 22.5996V23.5471L63.4565 23.162V21.1749L64.0939 21.543L64.0769 21.8566Z" fill="#37474F"></path> <path d="M66.623 24.0073C66.623 24.6208 66.2481 24.8083 65.6687 24.4743C65.3879 24.3163 65.1523 24.0889 64.9846 23.8137C64.8169 23.5386 64.7227 23.225 64.7109 22.903C64.7109 22.2861 65.0893 22.1021 65.6687 22.4361C65.9493 22.594 66.1845 22.8215 66.3517 23.0967C66.5188 23.3719 66.6123 23.6855 66.623 24.0073ZM65.3551 23.2814C65.3498 23.4035 65.3758 23.5249 65.4307 23.6341C65.4856 23.7432 65.5675 23.8365 65.6687 23.9051C65.8561 24.0108 65.9788 23.9051 65.9788 23.6427C65.984 23.5214 65.9582 23.4009 65.9039 23.2924C65.8497 23.1839 65.7687 23.091 65.6687 23.0223C65.4778 22.9099 65.3551 23.0189 65.3551 23.2814Z" fill="#37474F"></path> <path d="M66.9637 23.1313C66.9637 22.7019 67.25 22.6167 67.6453 22.8518C67.7698 22.9256 67.8843 23.015 67.9862 23.1177L67.9623 23.6869C67.9104 23.6133 67.8443 23.5507 67.768 23.5028C67.659 23.4347 67.5874 23.4585 67.5874 23.5846V23.6494L67.9282 23.8539V24.331L67.5874 24.1231V25.5615L66.9534 25.1968V23.7584L66.7217 23.6221V23.1484L66.9534 23.2847L66.9637 23.1313ZM68.1361 23.3188C68.1361 23.0972 68.2725 23.0188 68.477 23.1313C68.5776 23.1893 68.6617 23.272 68.7213 23.3716C68.781 23.4713 68.8142 23.5845 68.8178 23.7005C68.8178 23.922 68.6815 24.0004 68.477 23.8914C68.3759 23.8331 68.2915 23.7498 68.2318 23.6496C68.1721 23.5493 68.1392 23.4354 68.1361 23.3188ZM68.7803 24.2595V26.2465L68.143 25.875V23.8914L68.7803 24.2595Z" fill="#37474F"></path> <path d="M69.1831 26.4781V23.7515L69.8205 24.1298V26.8565L69.1831 26.4781Z" fill="#37474F"></path> <path d="M71.8958 27.2282L70.737 26.5465C70.7569 26.6474 70.7975 26.743 70.8562 26.8275C70.9148 26.912 70.9903 26.9834 71.0778 27.0373C71.1333 27.0738 71.1972 27.0955 71.2634 27.1002C71.3297 27.105 71.396 27.0927 71.4562 27.0646L71.797 27.6338C71.6163 27.7599 71.3573 27.736 71.0335 27.5486C70.7581 27.394 70.5278 27.1703 70.3652 26.8995C70.2026 26.6288 70.1134 26.3203 70.1064 26.0046C70.1064 25.3809 70.4711 25.1866 71.0131 25.5001C71.3068 25.6771 71.5452 25.9327 71.7012 26.2381C71.8572 26.5435 71.9246 26.8865 71.8958 27.2282ZM71.2653 26.5158C71.2676 26.4192 71.245 26.3235 71.1997 26.2382C71.1543 26.1528 71.0877 26.0806 71.0062 26.0284C70.8597 25.9432 70.7574 26.0284 70.7268 26.2023L71.2653 26.5158Z" fill="#37474F"></path> <path d="M30.6206 116.312L30.8353 119.448H34.2505L34.3153 115.365L30.6206 116.312Z" fill="#FFA8A7"></path> <path d="M20.7056 118.763V121.936C20.7056 121.936 21.0464 122.617 22.587 122.617C24.1275 122.617 23.889 121.142 23.889 121.142L24.0696 119.018L20.7056 118.763Z" fill="#FFA8A7"></path> <path d="M35.5078 82.1401L35.0443 115.682C35.0443 115.682 33.4117 117.747 29.7818 116.425L29.1001 101.176L27.5459 83.0195L35.5078 82.1401Z" fill="#6DA3DC"></path> <path opacity="0.3" d="M35.5078 82.1401L35.0443 115.682C35.0443 115.682 33.4117 117.747 29.7818 116.425L29.1001 101.176L27.5459 83.0195L35.5078 82.1401Z" fill="black"></path> <path d="M28.865 98.3126L30.1635 88.0228C30.1635 88.0228 33.1731 86.5879 33.9877 82.6104L28.3605 82.9307L27.5562 83.0194L28.865 98.3126Z" fill="#6DA3DC"></path> <path opacity="0.5" d="M28.865 98.3126L30.1635 88.0228C30.1635 88.0228 33.1731 86.5879 33.9877 82.6104L28.3605 82.9307L27.5562 83.0194L28.865 98.3126Z" fill="black"></path> <path d="M22.086 82.099L21.2783 99.9383C21.2783 99.9383 19.8706 112.604 19.8706 119.045C20.6202 119.448 21.4448 119.692 22.2929 119.761C23.1409 119.83 23.9941 119.723 24.7991 119.448L27.5564 100.77L29.823 87.3854C29.823 87.3854 33.6778 86.281 34.6628 82.341L22.086 82.099Z" fill="#6DA3DC"></path> <path opacity="0.3" d="M22.086 82.099L21.2783 99.9383C21.2783 99.9383 19.8706 112.604 19.8706 119.045C20.6202 119.448 21.4448 119.692 22.2929 119.761C23.1409 119.83 23.9941 119.723 24.7991 119.448L27.5564 100.77L29.823 87.3854C29.823 87.3854 33.6778 86.281 34.6628 82.341L22.086 82.099Z" fill="black"></path> <path d="M32.168 62.0922L37.8838 62.116C38.2484 62.8099 38.4655 63.5719 38.5212 64.3538C38.5769 65.1357 38.4701 65.9207 38.2076 66.6593L34.0426 66.7684L32.168 62.0922Z" fill="#37474F"></path> <path d="M26.578 62.2319C26.578 62.2319 24.3557 62.5114 23.6672 62.692C23.211 62.79 22.7666 62.9362 22.3414 63.1283C22.1815 63.2109 22.0486 63.3377 21.9586 63.4935C21.8686 63.6494 21.8252 63.8278 21.8335 64.0076C21.9358 65.8618 22.2562 71.6389 22.263 72.2695C22.263 73.0193 22.0858 82.0855 22.0858 82.0855C22.0858 82.0855 22.5288 84.001 29.6421 84.001C33.4185 84.001 35.5112 82.1264 35.5112 82.1264C35.5112 82.1264 35.3545 72.2797 35.259 69.9245C35.1636 67.5694 35.5692 62.8727 32.1676 62.0853L29.5603 62.041L26.578 62.2319Z" fill="#455A64"></path> <path d="M34.0018 51.2058C34.0018 51.2058 34.7414 51.9625 34.7414 53.9529C34.7414 55.9434 33.0918 57.668 33.0918 57.668V51.3012L34.0018 51.2058Z" fill="#263238"></path> <path d="M34.0016 51.7375C34.3233 51.5536 34.5955 51.2944 34.795 50.9821C34.9944 50.6699 35.1152 50.3139 35.1468 49.9447C35.2491 48.6734 34.506 49.1301 34.247 49.2392C33.988 49.3482 33.2245 49.6311 33.2245 49.6311C33.2245 49.6311 33.9334 48.8949 33.5108 48.4041C33.2006 48.0394 31.6976 49.1846 29.7991 49.4096C27.9007 49.6345 26.0772 49.6141 25.5421 51.3149C25.5421 51.3149 23.705 51.683 24.1481 54.9004C24.5911 58.1179 26.0056 60.0743 26.5816 60.0471L34.0016 51.7375Z" fill="#263238"></path> <path d="M30.5829 57.668H26.5781V62.2317H30.5829V57.668Z" fill="#FFA8A7"></path> <path d="M30.583 61.6933C29.7226 61.575 28.9169 61.2033 28.2687 60.6254C27.6204 60.0475 27.1588 59.2897 26.9429 58.4485V57.1158H30.583V61.6933Z" fill="#F28F8F"></path> <path d="M31.2821 50.5344C31.2821 50.5344 35.0483 50.6775 34.37 56.7444C34.0497 59.6006 33.8145 61.1752 31.3741 61.1752C28.9337 61.1752 25.3277 59.3347 25.5595 54.4335C25.7912 49.5323 31.2821 50.5344 31.2821 50.5344Z" fill="#FFA8A7"></path> <path d="M31.6606 55.538V57.6682L32.9081 57.283L31.6606 55.538Z" fill="#F28F8F"></path> <path d="M29.8398 55.906C29.8398 55.9916 29.8652 56.0753 29.9128 56.1465C29.9604 56.2177 30.028 56.2731 30.1071 56.3059C30.1861 56.3387 30.2732 56.3472 30.3571 56.3305C30.4411 56.3138 30.5182 56.2726 30.5788 56.2121C30.6393 56.1515 30.6805 56.0744 30.6972 55.9905C30.7139 55.9065 30.7054 55.8194 30.6726 55.7404C30.6399 55.6613 30.5844 55.5937 30.5132 55.5461C30.442 55.4985 30.3583 55.4731 30.2727 55.4731C30.1579 55.4731 30.0478 55.5187 29.9666 55.5999C29.8854 55.6811 29.8398 55.7912 29.8398 55.906Z" fill="#263238"></path> <path d="M32.6929 55.6027C32.6922 55.6892 32.7173 55.7741 32.765 55.8463C32.8127 55.9186 32.8808 55.975 32.9606 56.0085C33.0405 56.0419 33.1285 56.0508 33.2134 56.0341C33.2984 56.0174 33.3764 55.9758 33.4376 55.9146C33.4988 55.8533 33.5405 55.7753 33.5572 55.6903C33.5739 55.6054 33.565 55.5174 33.5315 55.4375C33.4981 55.3577 33.4417 55.2896 33.3694 55.2419C33.2971 55.1942 33.2123 55.1691 33.1257 55.1698C33.0689 55.1698 33.0126 55.181 32.9601 55.2028C32.9076 55.2245 32.8599 55.2564 32.8197 55.2966C32.7795 55.3368 32.7476 55.3845 32.7258 55.437C32.7041 55.4895 32.6929 55.5458 32.6929 55.6027Z" fill="#263238"></path> <path d="M33.6539 54.6994L32.8086 54.195C32.8086 54.195 33.1324 53.8542 33.4562 54.0621C33.5497 54.1359 33.6186 54.2363 33.6539 54.3501C33.6891 54.4639 33.6891 54.5857 33.6539 54.6994Z" fill="#263238"></path> <path d="M30.0545 54.5529L29.2876 55.1766C29.2876 55.1766 29.0831 54.754 29.3865 54.5188C29.4885 54.4571 29.6066 54.4273 29.7257 54.4334C29.8448 54.4395 29.9593 54.4811 30.0545 54.5529Z" fill="#263238"></path> <path d="M31.462 58.6804C31.462 58.6804 29.9146 58.2816 30.293 58.3668C30.293 58.3668 30.2146 58.9803 30.7292 59.0996C30.8807 59.1222 31.0354 59.0931 31.1683 59.0171C31.3013 58.941 31.4047 58.8224 31.462 58.6804Z" fill="#F28F8F"></path> <path d="M34.0015 51.7375C34.0015 51.7375 32.7984 52.8657 29.7138 52.6339C26.6293 52.4021 26.8985 53.2576 27.2359 54.6994C27.4677 55.6946 27.4882 58.3361 26.7179 57.0409H25.1943V53.9734C25.1943 52.9402 25.6048 51.9493 26.3354 51.2187C27.066 50.4881 28.0569 50.0776 29.0901 50.0776H32.2462L34.0015 51.7375Z" fill="#263238"></path> <path d="M26.7556 56.8705C26.7556 56.8705 26.6023 55.4117 25.59 55.3844C24.4754 55.3538 24.3255 56.424 24.3425 56.8057C24.38 57.8044 25.1912 58.8882 26.7011 58.9291L26.7556 56.8705Z" fill="#FFA8A7"></path> <path d="M25.5391 51.3013C25.5391 51.3013 24.7586 50.2788 25.2596 49.8357C25.7606 49.3926 25.9924 51.199 25.9924 51.199L25.5391 51.3013Z" fill="#263238"></path> <path d="M25.6036 51.6421C25.6036 51.6421 24.3085 51.6251 24.2778 50.9604C24.2471 50.2958 25.7911 51.2058 25.7911 51.2058L25.6036 51.6421Z" fill="#263238"></path> <path d="M26.5781 62.2319C26.5781 62.2319 27.7847 64.8018 29.9865 64.6757C32.1883 64.5496 30.5591 62.0922 30.5591 62.0922L26.5781 62.2319Z" fill="#FFA8A7"></path> <path d="M27.4168 68.0977L30.4843 72.0241C30.4843 72.0241 35.8763 72.733 38.9779 73.2954V76.1141C38.9779 76.1141 30.3037 76.6288 28.545 75.5176C26.7863 74.4065 24.0732 71.1209 24.0732 71.1209C24.0732 71.1209 24.6493 68.2919 27.4168 68.0977Z" fill="#FFA8A7"></path> <path d="M22.2905 63.1556C22.2905 63.1556 23.7254 62.7398 25.4535 65.1734C26.1569 66.1097 26.8121 67.0812 27.4167 68.0841C27.4167 68.0841 25.2899 68.5545 24.0595 71.1073L21.3805 67.7569C21.1023 67.4109 20.9025 67.0085 20.7949 66.5777C20.6874 66.1469 20.6747 65.6979 20.7576 65.2616C20.8406 64.8254 21.0173 64.4124 21.2755 64.0512C21.5336 63.6899 21.8672 63.389 22.253 63.1693L22.2905 63.1556Z" fill="#37474F"></path> <path d="M30.4706 72.0106C29.8598 72.2486 29.3553 72.6987 29.0493 73.2785C29.087 72.9291 29.1974 72.5915 29.3735 72.2874C29.5496 71.9833 29.7875 71.7195 30.0718 71.5129L30.4706 72.0106Z" fill="#F28F8F"></path> <path d="M37.8937 62.1159L41.0089 62.0478C41.0089 62.0478 39.3933 55.7798 38.9639 53.728C38.9639 53.728 36.9189 51.3421 37.6005 49.9004C38.2822 48.4587 40.0852 45.7081 41.0089 45.7081C41.9326 45.7081 43.0743 46.9351 42.4097 49.2733C41.7451 51.6114 41.9496 52.4396 41.9496 52.4396C41.9496 52.4396 44.9592 58.728 45.4057 62.5863C45.8522 66.4445 43.1391 66.6592 38.197 66.6592L37.8937 62.1159Z" fill="#FFA8A7"></path> <path d="M86.1426 40.766V92.3991C86.1426 93.7999 85.6279 94.7406 84.8406 95.0474H84.8202L81.48 96.8777L81.497 93.9022L81.8617 39.4266L85.3894 37.6235C85.8624 38.6051 86.1192 39.6767 86.1426 40.766Z" fill="#E0E0E0"></path> <path d="M81.3027 97.1776L81.3232 93.9158L81.6947 39.3243L85.4711 37.3917L85.5461 37.5519C86.0283 38.5562 86.2898 39.6522 86.313 40.766V92.399C86.313 93.8101 85.7847 94.8599 84.9054 95.2075L81.3027 97.1776ZM82.0355 39.5322L81.647 96.6015L84.7656 94.8974C85.5257 94.6008 85.9722 93.667 85.9722 92.4025V40.766C85.9513 39.761 85.7263 38.7707 85.311 37.8553L82.0355 39.5322Z" fill="#E0E0E0"></path> <path d="M85.3924 37.6237L81.8614 39.4267L44.1037 17.4599L41.5815 15.9943L45.0512 14.0311L45.1501 13.9731C45.7056 13.6323 46.435 13.6596 47.236 14.1231L82.9793 34.7606C84.0496 35.4548 84.8895 36.4513 85.3924 37.6237Z" fill="#EBEBEB"></path> <path d="M81.8619 39.6209L81.7835 39.5766L41.2378 15.9908L45.079 13.8231C45.7095 13.4414 46.5105 13.4823 47.3353 13.9696L83.0787 34.6072C84.1753 35.3222 85.0343 36.3473 85.5463 37.552L85.6179 37.6986L81.8619 39.6209ZM41.9263 15.9942L81.8619 39.2323L85.1612 37.5486C84.6776 36.4682 83.8931 35.55 82.9014 34.9037L47.1649 14.2662C46.4832 13.8708 45.822 13.806 45.3108 14.0821L45.154 14.1776L41.9263 15.9942Z" fill="#E0E0E0"></path> <path d="M79.5338 96.6664L43.7904 76.0289C42.0522 75.0064 40.6411 72.3308 40.6411 70.0166V18.4414C40.6411 16.1238 42.0522 15.0569 43.7904 16.0556L79.5338 36.6931C81.272 37.6952 82.6831 40.3878 82.6831 42.7055V94.2874C82.6831 96.6051 81.272 97.6685 79.5338 96.6664Z" fill="#FAFAFA"></path> <path d="M80.7846 97.2119C80.3123 97.197 79.8518 97.0596 79.4486 96.8131L43.7052 76.1756C41.9227 75.1531 40.4707 72.3821 40.4707 70.0167V18.4416C40.4707 17.16 40.9002 16.1784 41.6432 15.749C42.2703 15.3877 43.0645 15.4456 43.8756 15.9126L79.619 36.5535C81.4016 37.576 82.8535 40.3436 82.8535 42.7124V94.2876C82.8535 95.5657 82.4241 96.5473 81.6776 96.9801C81.4055 97.1346 81.0975 97.2145 80.7846 97.2119ZM42.5396 15.8546C42.2854 15.8531 42.0352 15.9177 41.8136 16.0421C41.1796 16.4102 40.8115 17.2861 40.8115 18.4279V70.0167C40.8115 72.273 42.1749 74.9043 43.8791 75.8791L79.6224 96.5166C80.3245 96.9222 80.9857 96.9836 81.5106 96.6836C82.148 96.3155 82.5331 95.443 82.5331 94.2978V42.7124C82.5331 40.4527 81.1698 37.8214 79.4656 36.8467L43.7052 16.2091C43.3539 15.9921 42.9523 15.8699 42.5396 15.8546Z" fill="#E0E0E0"></path> <path d="M86.1084 40.7149V92.3479C86.1084 93.7453 85.5938 94.6895 84.8064 94.9962H84.786L81.4424 96.8265L81.4628 93.8544L81.8344 39.3651L85.362 37.5621C85.8341 38.5473 86.0887 39.6226 86.1084 40.7149Z" fill="#E0E0E0"></path> <path d="M81.2686 97.1267L81.289 93.8649L81.6605 39.2699L85.437 37.3408L85.5119 37.501C85.9941 38.5053 86.2556 39.6013 86.2788 40.7151V92.3481C86.2788 93.7592 85.7505 94.809 84.8678 95.1566L81.2686 97.1267ZM82.0013 39.4676L81.6128 96.537L84.7314 94.8328C85.4915 94.5363 85.938 93.6024 85.938 92.3379V40.7151C85.9171 39.7101 85.6922 38.7198 85.2768 37.8044L82.0013 39.4676Z" fill="#E0E0E0"></path> <path d="M85.3588 37.5727L81.8311 39.3757L44.07 17.4089L41.5479 15.9433L45.0312 13.9801L45.13 13.9187C45.6856 13.5779 46.415 13.6086 47.2159 14.0721L82.9593 34.696C83.9068 35.2584 84.7827 36.3286 85.3588 37.5727Z" fill="#EBEBEB"></path> <path d="M81.8243 39.5699L81.7459 39.5221L41.2036 15.95L45.0516 13.7721C45.6856 13.3903 46.4866 13.4312 47.3114 13.9186L83.0547 34.5562C84.1505 35.2721 85.0092 36.2969 85.5224 37.501L85.5939 37.6475L81.8243 39.5699ZM41.8887 15.95L81.8345 39.1881L85.1338 37.501C84.6492 36.4222 83.8648 35.5053 82.8741 34.8595L47.1307 14.2151C46.4491 13.8164 45.7878 13.755 45.2766 14.0311L45.1198 14.1265L41.8887 15.95Z" fill="#E0E0E0"></path> <path d="M82.6455 42.6578V94.2363C82.6455 95.4497 82.2603 96.3188 81.6434 96.7278L81.4389 96.8369C80.9038 97.0925 80.2324 97.038 79.4996 96.6153L62.2227 86.6391L54.1517 81.9799L43.7562 75.9778C42.018 74.9553 40.6069 72.2797 40.6069 69.9621V18.3903C40.6069 17.2179 40.9478 16.3692 41.5476 15.9431C41.6453 15.868 41.7532 15.8071 41.868 15.7625C42.3929 15.5375 43.0473 15.6023 43.7562 16.0113L79.4996 36.6489C80.5226 37.3148 81.332 38.2614 81.8309 39.3755C82.3443 40.395 82.6226 41.5166 82.6455 42.6578Z" fill="#FAFAFA"></path> <path d="M48.9439 51.6151C48.961 51.6696 48.6917 54.9655 49.4825 56.2913L51.3604 57.549L52.8874 54.2054L53.3612 52.1604L53.0203 51.339L48.9439 51.6151Z" fill="#FFA8A7"></path> <path d="M48.2524 70.8958C49.3567 70.7424 52.4822 68.8304 52.4822 68.8304C52.4822 68.8304 52.6458 64.0587 49.8646 63.4384L48.2524 70.8958Z" fill="#FFA8A7"></path> <path d="M50.9615 63.0669L49.0767 68.1044L51.2444 65.1562L50.9615 63.0669Z" fill="#F28F8F"></path> <path d="M58.5143 58.0397H57.6622C56.3567 58.0419 55.0953 58.5123 54.1073 59.3655L49.2095 63.5987C49.2095 63.5987 52.1543 65.5687 52.4951 68.8271L56.5851 65.9982L58.5143 58.0397Z" fill="#6DA3DC"></path> <path d="M73 76.7447L73.8964 79.8497L69.5508 81.8947L70.2733 86.6664L77.3048 84.318C78.3635 83.9637 79.2439 83.2131 79.7612 82.2236C80.2785 81.2342 80.3924 80.0829 80.0792 79.0112L78.8658 74.8599L73 76.7447Z" fill="#FFA8A7"></path> <path d="M70.5695 84.9895L71.1967 91.8505L61.8101 86.4312L70.5695 84.9895Z" fill="#455A64"></path> <path d="M71.6942 68.3194L70.7297 72.3344C70.2094 74.4975 70.0198 76.7268 70.1673 78.9466L70.5695 84.9896C70.5695 84.9896 67.8428 86.6938 62.2565 86.6938L54.1855 82.0312C54.2742 80.4497 54.7002 73.1456 55.4125 67.2526C56.2135 60.6029 58.5141 58.05 58.5141 58.05C58.8993 58.05 62.0691 58.2852 62.0691 58.2852L67.0248 58.6261L71.6942 60.8483V68.3194Z" fill="#6DA3DC"></path> <path opacity="0.3" d="M71.6942 68.3194L70.7297 72.3344C70.2094 74.4975 70.0198 76.7268 70.1673 78.9466L70.5695 84.9896C70.5695 84.9896 67.8428 86.6938 62.2565 86.6938L54.1855 82.0312C54.2742 80.4497 54.7002 73.1456 55.4125 67.2526C56.2135 60.6029 58.5141 58.05 58.5141 58.05C58.8993 58.05 62.0691 58.2852 62.0691 58.2852L67.0248 58.6261L71.6942 60.8483V68.3194Z" fill="black"></path> <path d="M80.7744 97.2118C80.3051 97.1979 79.8478 97.0603 79.4486 96.813L43.7052 76.1755C41.9227 75.153 40.4707 72.382 40.4707 70.0166V18.4415C40.4707 17.252 40.8286 16.3351 41.4932 15.8546C41.6048 15.7727 41.7262 15.7052 41.8545 15.6535C42.4441 15.4012 43.1531 15.4899 43.8995 15.9159L79.6428 36.5534C80.6909 37.2386 81.5192 38.2113 82.0287 39.3551C82.5519 40.3973 82.836 41.543 82.8603 42.7089V94.2875C82.8603 95.5281 82.4786 96.462 81.7799 96.9221L81.5652 97.038C81.3186 97.1564 81.0479 97.2159 80.7744 97.2118ZM42.543 15.8546C42.3452 15.8545 42.1493 15.8939 41.967 15.9704C41.8661 16.0113 41.771 16.0651 41.6841 16.1306C41.1217 16.543 40.8115 17.3644 40.8115 18.4415V70.0166C40.8115 72.2729 42.1749 74.9042 43.8791 75.879L79.6224 96.5165C80.2836 96.9017 80.9005 96.9766 81.405 96.7346L81.5992 96.629C82.1753 96.2473 82.5127 95.3918 82.5127 94.2875V42.7089C82.4887 41.5938 82.2162 40.4981 81.7151 39.5017C81.2322 38.4181 80.4463 37.4972 79.452 36.85L43.7052 16.2124C43.3561 15.9929 42.9552 15.8694 42.543 15.8546Z" fill="#E0E0E0"></path> <path d="M68.9372 50.8377C68.9372 50.8377 72.7545 54.7641 70.5391 56.7546C69.8575 57.3613 66.2957 56.6353 65.4539 55.5787C64.612 54.5221 63.4668 50.807 63.4668 50.807L68.9372 50.8377Z" fill="#455A64"></path> <path d="M38.9644 73.2817C39.4731 72.8709 39.8704 72.3388 40.1198 71.7343C40.4436 70.8209 40.6549 70.7391 40.9889 70.5994V71.8639C41.2213 72.1644 41.5119 72.415 41.8434 72.6006C42.1749 72.7863 42.5404 72.9032 42.918 72.9443C44.1825 73.0704 46.2037 72.9648 46.156 73.6771C46.1083 74.3894 44.8812 76.2777 43.5111 76.2777C42.1409 76.2777 38.9644 76.0902 38.9644 76.0902V73.2817Z" fill="#FFA8A7"></path> <path d="M79.5338 36.6999L43.7904 16.0623C42.0522 15.0398 40.6411 16.1237 40.6411 18.4482V24.3548L82.6831 48.6257V42.7122C82.6831 40.3945 81.272 37.7019 79.5338 36.6999Z" fill="white"></path> <path d="M82.8535 48.9224L40.4707 24.4709V18.4416C40.4707 17.16 40.9002 16.1784 41.6432 15.749C42.2703 15.3877 43.0645 15.4456 43.8756 15.9126L79.619 36.5535C81.4016 37.576 82.8535 40.3436 82.8535 42.7124V48.9224ZM40.8115 24.2562L82.5127 48.3294V42.7124C82.5127 40.4527 81.1493 37.8214 79.4452 36.8467L43.7052 16.2091C43.0031 15.8035 42.3419 15.7456 41.8136 16.0421C41.1796 16.4102 40.8115 17.2861 40.8115 18.4279V24.2562Z" fill="#E0E0E0"></path> <path d="M47.6521 24.2049C47.6521 25.5001 46.7455 26.025 45.6241 25.3774C45.0308 24.9939 44.5363 24.4758 44.181 23.8652C43.8256 23.2546 43.6194 22.5687 43.5791 21.8634C43.5791 20.5716 44.4891 20.0468 45.6241 20.6943C46.2146 21.0786 46.706 21.5968 47.0584 22.2068C47.4108 22.8169 47.6142 23.5015 47.6521 24.2049Z" fill="#6DA3DC"></path> <path d="M64.3975 33.6733C64.3375 33.6727 64.2787 33.6562 64.2271 33.6256L49.8234 25.3024C49.7843 25.2802 49.7501 25.2504 49.7226 25.2148C49.6951 25.1793 49.6749 25.1386 49.6632 25.0952C49.6514 25.0518 49.6484 25.0065 49.6543 24.9619C49.6601 24.9174 49.6747 24.8744 49.6973 24.8355C49.7198 24.7967 49.7498 24.7628 49.7855 24.7356C49.8212 24.7085 49.8619 24.6886 49.9053 24.6772C49.9487 24.6658 49.9939 24.6631 50.0383 24.6692C50.0827 24.6753 50.1255 24.6901 50.1642 24.7128L64.5747 33.0326C64.6404 33.0698 64.6918 33.1277 64.721 33.1973C64.7502 33.2669 64.7554 33.3442 64.736 33.4171C64.7165 33.49 64.6733 33.5544 64.6133 33.6002C64.5533 33.6459 64.4798 33.6705 64.4043 33.6699L64.3975 33.6733Z" fill="#6DA3DC"></path> <path d="M73.6373 55.3504L74.6598 55.9401V55.572C74.6598 55.5481 74.6598 55.5209 74.6598 55.4936C74.6598 55.4663 74.6598 55.4459 74.6598 55.422C74.6973 54.938 75.0654 54.7403 75.5153 55.0096C75.7193 55.1308 75.8958 55.2934 76.0334 55.4868C76.1356 54.8255 76.6741 54.5904 77.3217 54.9653C77.7028 55.2127 78.0199 55.5467 78.2474 55.94C78.4748 56.3333 78.6061 56.7748 78.6305 57.2284V58.0124C78.6291 58.0748 78.6449 58.1365 78.6762 58.1906C78.7074 58.2447 78.753 58.2891 78.8078 58.3191L79.4145 58.677C79.5464 58.7543 79.6558 58.8649 79.7317 58.9976C79.8076 59.1304 79.8475 59.2807 79.8473 59.4336C79.8474 59.4971 79.8308 59.5595 79.7992 59.6145C79.7675 59.6695 79.7219 59.7152 79.667 59.747C79.612 59.7788 79.5497 59.7956 79.4862 59.7956C79.4227 59.7956 79.3604 59.7789 79.3054 59.7472L73.6509 56.482C73.5012 56.3948 73.3769 56.27 73.2902 56.1199C73.2035 55.9699 73.1575 55.7998 73.1567 55.6265C73.157 55.5704 73.172 55.5153 73.2002 55.4668C73.2284 55.4183 73.2689 55.378 73.3175 55.3501C73.3662 55.3221 73.4213 55.3074 73.4775 55.3075C73.5336 55.3076 73.5887 55.3224 73.6373 55.3504Z" fill="#E6E6E6"></path> <path d="M46.146 35.1832L47.4344 35.916V35.4627C47.4327 35.4298 47.4327 35.3968 47.4344 35.3639C47.4327 35.3332 47.4327 35.3025 47.4344 35.2719C47.4787 34.6686 47.9354 34.4368 48.4944 34.7606C48.7471 34.9146 48.9634 35.1216 49.1283 35.3673C49.2544 34.5493 49.9225 34.2528 50.7302 34.7197C51.2041 35.0277 51.5986 35.4432 51.8817 35.9324C52.1648 36.4216 52.3285 36.9707 52.3594 37.535V38.5132C52.3594 38.5903 52.3795 38.6661 52.4178 38.733C52.4561 38.8 52.5111 38.8558 52.5776 38.8949L53.3342 39.338C53.4982 39.4343 53.6341 39.5717 53.7286 39.7367C53.8231 39.9018 53.8728 40.0886 53.8727 40.2787C53.8733 40.3586 53.8525 40.4372 53.8126 40.5064C53.7727 40.5756 53.715 40.633 53.6456 40.6725C53.5762 40.7121 53.4975 40.7325 53.4176 40.7315C53.3377 40.7306 53.2595 40.7084 53.1911 40.6673L46.1596 36.6045C45.9725 36.4973 45.8172 36.3424 45.7094 36.1556C45.6016 35.9688 45.5453 35.7568 45.5461 35.5411C45.5437 35.4698 45.5604 35.3992 45.5946 35.3365C45.6288 35.2739 45.6791 35.2216 45.7404 35.185C45.8016 35.1485 45.8716 35.129 45.9429 35.1287C46.0143 35.1284 46.0844 35.1472 46.146 35.1832Z" fill="#E6E6E6"></path> <path d="M60.9959 52.6066C63.33 52.6066 65.2222 50.7144 65.2222 48.3803C65.2222 46.0461 63.33 44.1539 60.9959 44.1539C58.6617 44.1539 56.7695 46.0461 56.7695 48.3803C56.7695 50.7144 58.6617 52.6066 60.9959 52.6066Z" fill="#263238"></path> <path d="M62.0692 58.2748C62.0692 58.2748 60.273 61.3423 63.0678 61.6388C65.8627 61.9353 67.0283 58.619 67.0283 58.619L62.0692 58.2748Z" fill="#FFA8A7"></path> <path d="M62.0693 58.2748L67.0285 58.619V52.9646H62.0693V58.2748Z" fill="#FFA8A7"></path> <path d="M62.0693 57.9545C63.1344 57.8076 64.1317 57.347 64.9341 56.6313C65.7366 55.9157 66.3078 54.9774 66.5752 53.936V52.2864H62.0693V57.9545Z" fill="#F28F8F"></path> <path d="M61.204 44.1334C61.204 44.1334 56.5346 44.3107 57.3764 51.8261C57.7718 55.3605 58.0581 57.3135 61.0881 57.3135C64.1182 57.3135 68.5865 55.0367 68.29 48.9665C67.9934 42.8962 61.204 44.1334 61.204 44.1334Z" fill="#FFA8A7"></path> <path d="M60.7334 50.3298V52.9645L59.1895 52.4907L60.7334 50.3298Z" fill="#F28F8F"></path> <path d="M62.9862 50.7833C62.9869 50.8901 62.9558 50.9947 62.8969 51.0837C62.838 51.1728 62.7539 51.2424 62.6553 51.2836C62.5568 51.3247 62.4483 51.3357 62.3435 51.315C62.2387 51.2944 62.1424 51.243 62.0669 51.1675C61.9914 51.092 61.94 50.9957 61.9194 50.8909C61.8987 50.7861 61.9096 50.6776 61.9508 50.579C61.992 50.4805 62.0616 50.3964 62.1506 50.3375C62.2397 50.2786 62.3443 50.2475 62.4511 50.2482C62.593 50.2482 62.7291 50.3046 62.8295 50.4049C62.9298 50.5053 62.9862 50.6414 62.9862 50.7833Z" fill="#263238"></path> <path d="M59.455 50.4083C59.4556 50.5149 59.4246 50.6194 59.3659 50.7084C59.3071 50.7974 59.2232 50.8669 59.1249 50.9082C59.0265 50.9495 58.9182 50.9607 58.8135 50.9403C58.7088 50.9199 58.6125 50.8689 58.5369 50.7937C58.4612 50.7185 58.4096 50.6226 58.3885 50.518C58.3675 50.4135 58.3779 50.305 58.4186 50.2064C58.4593 50.1078 58.5283 50.0235 58.6169 49.9642C58.7055 49.9048 58.8098 49.8732 58.9164 49.8732C59.0587 49.8732 59.1951 49.9294 59.296 50.0297C59.3969 50.1299 59.4541 50.266 59.455 50.4083Z" fill="#263238"></path> <path d="M58.2626 49.2906L59.3124 48.6668C59.3124 48.6668 58.9102 48.2476 58.508 48.4998C58.3918 48.5912 58.3061 48.7158 58.2623 48.857C58.2184 48.9982 58.2186 49.1494 58.2626 49.2906Z" fill="#263238"></path> <path d="M62.7305 49.1096L63.678 49.8799C63.678 49.8799 63.9336 49.3584 63.5587 49.0687C63.4325 48.9915 63.286 48.9542 63.1383 48.9615C62.9905 48.9688 62.8484 49.0204 62.7305 49.1096Z" fill="#263238"></path> <path d="M60.9785 54.2187C60.9785 54.2187 62.894 53.7245 62.4237 53.8336C62.4237 53.8336 62.5225 54.5937 61.8851 54.7402C61.697 54.7722 61.5035 54.7376 61.3381 54.6424C61.1727 54.5473 61.0455 54.3975 60.9785 54.2187Z" fill="#F28F8F"></path> <path d="M57.8325 45.6026C57.8325 45.6026 59.322 46.9966 63.1427 46.7103C66.9635 46.424 66.6295 47.484 66.2102 49.27C65.9239 50.5038 65.8967 53.7724 66.8476 52.1705H68.7392V48.3975C68.741 47.7625 68.6175 47.1335 68.3758 46.5464C68.134 45.9593 67.7788 45.4256 67.3305 44.976C66.8822 44.5264 66.3495 44.1697 65.7631 43.9263C65.1766 43.6829 64.5479 43.5576 63.913 43.5576H60.007L57.8325 45.6026Z" fill="#263238"></path> <path d="M57.1338 46.792C58.7767 46.4989 64.5265 45.9774 69.2369 51.6148C69.2369 51.6148 70.2594 50.9774 70.1639 48.0019C70.0685 45.0265 67.5225 43.0087 65.8626 42.2316C64.2027 41.4545 58.1257 40.1218 56.7691 46.4034C56.7618 46.4541 56.766 46.5058 56.7814 46.5546C56.7967 46.6034 56.8229 46.6482 56.8579 46.6855C56.893 46.7228 56.936 46.7518 56.9837 46.7702C57.0315 46.7887 57.0828 46.7961 57.1338 46.792Z" fill="#455A64"></path> <path d="M66.8071 51.9795C66.8071 51.9795 66.998 50.1731 68.2523 50.139C69.6156 50.0981 69.8167 51.4273 69.7963 51.8977C69.7485 53.1383 68.7431 54.4778 66.8753 54.5289L66.8071 51.9795Z" fill="#FFA8A7"></path> <path d="M58.5586 45.2959C58.5586 45.2959 61.4216 45.2652 62.6486 45.6367C62.6486 45.6367 62.9485 43.8507 61.0944 43.7655C59.6015 43.7008 59.213 43.8984 58.5586 45.2959Z" fill="#263238"></path> <path d="M71.6946 60.8447L71.9672 60.9708C72.7835 61.3443 73.5147 61.8808 74.1161 62.5472C74.7175 63.2136 75.1762 63.9959 75.4642 64.8461L78.8725 74.8837C77.1794 76.2818 75.0081 76.9653 72.8193 76.789L72.274 76.7447L69.7484 68.3124C69.2304 66.6563 69.2881 64.8736 69.912 63.2544C70.2694 62.3005 70.887 61.4657 71.6946 60.8447Z" fill="#6DA3DC"></path> <path d="M49.0764 68.0978L52.8904 57.917L49.482 56.2913C49.482 56.2913 43.1118 64.7371 43.1118 67.716C43.1118 70.6949 45.5931 71.2539 48.2516 70.896L49.0764 68.0978Z" fill="#FFA8A7"></path> <path d="M53.0032 51.5671C53.0032 51.5671 53.402 46.3012 53.2963 45.9399C53.1906 45.5786 52.0932 45.5173 51.7319 48.1179C51.5345 49.3924 51.4104 50.6772 51.3604 51.9659L53.0032 51.5671Z" fill="#FFA8A7"></path> <path d="M53.9779 52.0341C53.9779 52.0341 55.9786 47.3578 55.9956 46.9932C56.0126 46.6285 55.031 46.2365 53.8926 48.4928C53.3156 49.5981 52.8034 50.7362 52.3589 51.9012L53.9779 52.0341Z" fill="#FFA8A7"></path> <path d="M53.9782 52.1636L52.3558 52.0136C52.3365 52.0119 52.3178 52.0058 52.3013 51.9958C52.2847 51.9857 52.2707 51.972 52.2603 51.9557C52.2519 51.9387 52.2476 51.92 52.2476 51.9011C52.2476 51.8822 52.2519 51.8635 52.2603 51.8466C52.2603 51.8193 52.5057 51.1649 53.1295 49.8186C53.1348 49.8008 53.1439 49.7843 53.1562 49.7703C53.1685 49.7563 53.1837 49.7451 53.2007 49.7375C53.2177 49.7299 53.2362 49.726 53.2548 49.7262C53.2735 49.7264 53.2919 49.7306 53.3087 49.7385C53.3256 49.7465 53.3405 49.7579 53.3526 49.7722C53.3646 49.7864 53.3734 49.8031 53.3784 49.8211C53.3833 49.839 53.3844 49.8578 53.3814 49.8762C53.3785 49.8947 53.3716 49.9122 53.3612 49.9277C52.9113 50.8854 52.6625 51.5058 52.5603 51.775L54.0156 51.9079C54.046 51.9129 54.0735 51.9285 54.0934 51.9519C54.1133 51.9753 54.1242 52.005 54.1242 52.0358C54.1242 52.0665 54.1133 52.0962 54.0934 52.1196C54.0735 52.143 54.046 52.1586 54.0156 52.1636H53.9782Z" fill="#F28F8F"></path> <path d="M50.2627 50.0333C50.2627 50.0333 48.9641 49.4539 48.6335 50.4116C48.3029 51.3694 48.7834 53.6768 49.4481 54.0756C50.1127 54.4744 50.7194 53.9154 50.3581 52.7429C50.1459 51.8551 50.1135 50.9338 50.2627 50.0333Z" fill="#FFA8A7"></path> <path d="M49.8641 54.3349C49.6935 54.3308 49.5273 54.2801 49.3835 54.1883C48.6371 53.7418 48.1804 51.3355 48.5144 50.371C48.5288 50.3432 48.5527 50.3216 48.5817 50.31C48.6108 50.2985 48.643 50.2979 48.6725 50.3083C48.702 50.3186 48.7267 50.3393 48.7421 50.3665C48.7575 50.3937 48.7626 50.4255 48.7564 50.4562C48.436 51.3798 48.92 53.6123 49.5165 53.9702C49.5924 54.0249 49.6808 54.0598 49.7737 54.0717C49.8665 54.0836 49.9609 54.0721 50.0482 54.0383C50.1341 53.9841 50.205 53.9092 50.2544 53.8205C50.3038 53.7318 50.3302 53.6321 50.3311 53.5305C50.3323 53.5137 50.337 53.4974 50.3448 53.4825C50.3526 53.4676 50.3634 53.4545 50.3765 53.4439C50.3896 53.4334 50.4047 53.4256 50.421 53.4212C50.4372 53.4167 50.4541 53.4156 50.4708 53.418C50.4877 53.4193 50.5042 53.424 50.5192 53.4317C50.5343 53.4395 50.5476 53.4502 50.5584 53.4633C50.5692 53.4763 50.5773 53.4914 50.5822 53.5076C50.587 53.5239 50.5886 53.5409 50.5867 53.5578C50.5818 53.702 50.5404 53.8426 50.4665 53.9666C50.3926 54.0905 50.2886 54.1938 50.164 54.2667C50.0706 54.312 49.968 54.3353 49.8641 54.3349Z" fill="#F28F8F"></path> <path d="M51.5576 49.8017C51.5576 49.8017 50.259 49.2223 49.9284 50.1766C49.5978 51.1309 50.0784 53.4452 50.743 53.844C51.4076 54.2428 52.0143 53.6838 51.6496 52.5113C51.4396 51.6232 51.4083 50.7021 51.5576 49.8017Z" fill="#FFA8A7"></path> <path d="M51.159 54.0996C50.9885 54.0949 50.8225 54.0443 50.6784 53.9531C49.9285 53.5066 49.4752 51.1003 49.8093 50.1357C49.8142 50.1198 49.8224 50.105 49.8333 50.0923C49.8441 50.0797 49.8575 50.0693 49.8725 50.062C49.8875 50.0547 49.9038 50.0505 49.9205 50.0497C49.9371 50.0489 49.9538 50.0515 49.9694 50.0573C49.9855 50.0627 50.0003 50.0712 50.013 50.0824C50.0257 50.0936 50.036 50.1072 50.0434 50.1225C50.0507 50.1377 50.0548 50.1543 50.0556 50.1712C50.0564 50.1882 50.0537 50.2051 50.0478 50.2209C49.7309 51.1446 50.2114 53.377 50.8079 53.7349C50.8938 53.8005 50.9978 53.838 51.1058 53.8423C51.2137 53.8465 51.3204 53.8174 51.4112 53.7588C51.602 53.6088 51.7316 53.21 51.5271 52.5488C51.3104 51.6408 51.2779 50.6986 51.4316 49.7778C51.4341 49.7613 51.4399 49.7454 51.4487 49.7311C51.4575 49.7169 51.4691 49.7046 51.4828 49.695C51.4965 49.6855 51.5121 49.6788 51.5285 49.6755C51.5449 49.6721 51.5618 49.6721 51.5782 49.6756C51.6114 49.6814 51.6411 49.7 51.6608 49.7274C51.6805 49.7548 51.6888 49.7888 51.6838 49.8221C51.5389 50.7033 51.569 51.6043 51.7725 52.4738C51.9804 53.1555 51.902 53.6974 51.568 53.9599C51.4511 54.051 51.3071 54.1002 51.159 54.0996Z" fill="#F28F8F"></path> <path d="M52.8905 57.9168C52.8905 57.9168 54.5503 55.773 54.9661 54.2017C55.382 52.6305 54.823 51.625 53.9266 51.475C53.0302 51.3251 50.3206 51.4103 51.0908 52.3339C51.8611 53.2576 52.6791 52.6202 53.0302 52.869C53.0302 52.869 50.3035 54.2324 50.7091 56.8739L52.8905 57.9168Z" fill="#FFA8A7"></path> <path d="M50.9173 55.2176C50.9016 55.2211 50.8853 55.2211 50.8696 55.2176C50.8537 55.2116 50.8392 55.2024 50.827 55.1907C50.8147 55.179 50.805 55.1649 50.7983 55.1493C50.7916 55.1337 50.7881 55.1169 50.7881 55.0999C50.788 55.083 50.7914 55.0662 50.798 55.0505C51.1913 54.1826 51.8345 53.4516 52.6453 52.951H52.526C52.2452 53.0176 51.9511 53.0022 51.6786 52.9068C51.4062 52.8113 51.1668 52.6398 50.9889 52.4125C50.9079 52.341 50.8531 52.2444 50.8333 52.1382C50.8136 52.0319 50.8299 51.9221 50.8798 51.8262C51.2411 51.1991 53.3543 51.2434 53.9473 51.3457C54.1025 51.372 54.2522 51.4238 54.3904 51.499C54.4079 51.5055 54.4238 51.5156 54.437 51.5287C54.4502 51.5418 54.4604 51.5576 54.467 51.575C54.4735 51.5925 54.4762 51.6111 54.4749 51.6297C54.4736 51.6482 54.4683 51.6663 54.4594 51.6826C54.4505 51.699 54.4382 51.7132 54.4233 51.7243C54.4084 51.7355 54.3912 51.7433 54.373 51.7472C54.3548 51.7511 54.336 51.7511 54.3178 51.7471C54.2997 51.7431 54.2826 51.7352 54.2677 51.724C54.1543 51.6614 54.0309 51.6187 53.903 51.5979C53.1225 51.465 51.3331 51.5468 51.1014 51.9558C51.0843 51.983 51.0366 52.0682 51.1866 52.2489C51.3381 52.443 51.5429 52.5886 51.776 52.6679C52.0091 52.7473 52.2603 52.7568 52.4988 52.6954C52.7011 52.6438 52.9153 52.6668 53.1021 52.7601C53.1193 52.7739 53.133 52.7916 53.1419 52.8118C53.1508 52.832 53.1547 52.854 53.1532 52.876C53.1512 52.8974 53.1439 52.9179 53.132 52.9357C53.1201 52.9536 53.104 52.9682 53.085 52.9783C52.191 53.4613 51.4746 54.2172 51.04 55.1358C51.0312 55.1608 51.0144 55.1824 50.9923 55.1971C50.9702 55.2119 50.9439 55.2191 50.9173 55.2176Z" fill="#F28F8F"></path> <path d="M70.0419 76.5743C70.0044 76.5982 68.1401 77.682 63.0719 77.682C59.9716 77.6592 56.9754 76.5605 54.5953 74.5736C54.5442 75.2042 54.4965 75.8211 54.4521 76.4107C55.7746 77.4332 58.8285 79.4782 62.5913 79.4782C67.6561 79.4782 70.0249 78.3296 70.0249 78.3296C70.0147 77.74 70.0181 77.1571 70.0419 76.5743Z" fill="#6DA3DC"></path> <path d="M38.6094 50.2993C38.6094 50.2993 38.7491 50.0778 40.0818 49.2291C40.7941 48.7792 41.1759 47.6851 41.7212 47.8044C42.2665 47.9237 42.2359 49.8188 40.7771 50.555C40.7771 50.555 41.077 52.4398 39.8091 53.1726L38.6094 50.2993Z" fill="#FFA8A7"></path> <path d="M39.8741 53.2814L39.748 53.0599C40.9238 52.3782 40.6546 50.5922 40.6512 50.5752C40.6455 50.5481 40.6491 50.5199 40.6615 50.4952C40.6739 50.4704 40.6943 50.4506 40.7193 50.4389C41.1016 50.2441 41.4182 49.9412 41.6297 49.5679C41.8412 49.1946 41.9382 48.7674 41.9088 48.3393C41.8816 48.111 41.7964 47.9508 41.6941 47.9303C41.4624 47.8792 41.2238 48.1757 40.9511 48.5234C40.7316 48.8378 40.4608 49.1132 40.1501 49.338C38.9061 50.1321 38.722 50.3605 38.7152 50.3605L38.5039 50.2207C38.5278 50.1798 38.722 49.9344 40.0138 49.113C40.2989 48.9028 40.5477 48.6472 40.75 48.3564C41.0636 47.9576 41.3567 47.5827 41.7487 47.6747C41.9668 47.7224 42.1168 47.9508 42.1611 48.2984C42.1996 48.7645 42.1024 49.2317 41.881 49.6437C41.6596 50.0556 41.3236 50.3945 40.9136 50.6195C40.9613 51.0251 41.0534 52.6032 39.8741 53.2814Z" fill="#F28F8F"></path> <path d="M20.6917 121.459C20.6917 121.459 21.0325 122.331 21.6563 122.28C21.6563 122.28 21.4381 120.849 22.7981 120.849C24.158 120.849 24.2193 120.914 24.2193 122.284C24.2193 122.284 24.4818 124.189 25.4907 125.259C26.4995 126.329 27.9856 128.623 25.0373 129.073C22.0891 129.523 21.2882 126.496 21.1416 126.026C20.9678 125.406 19.7067 124.966 20.3168 123.354C20.4906 122.897 20.4122 122.229 20.3815 121.728C20.3679 121.589 20.3887 121.448 20.4422 121.318C20.4957 121.189 20.5802 121.074 20.6883 120.985L20.6917 121.459Z" fill="#455A64"></path> <path d="M25.1706 128.766C22.1405 129.226 21.3055 126.118 21.1692 125.637C21.0328 125.157 20.283 124.789 20.1671 123.933C20.0274 125.078 20.9919 125.484 21.1419 126.019C21.2782 126.489 22.0894 129.516 25.0376 129.066C26.084 128.906 26.568 128.517 26.7214 128.044C26.4657 128.374 25.9818 128.633 25.1706 128.766Z" fill="#263238"></path> <path d="M22.3728 123.446C22.3549 123.446 22.3372 123.442 22.3208 123.435C22.3044 123.428 22.2896 123.418 22.2774 123.405C22.2653 123.393 22.2557 123.379 22.2492 123.363C22.2426 123.348 22.2393 123.331 22.2393 123.314C22.2393 123.298 22.2426 123.281 22.2492 123.265C22.2557 123.25 22.2653 123.236 22.2774 123.224C22.3217 123.183 23.3646 122.256 24.3974 122.798C24.4126 122.806 24.4262 122.816 24.4372 122.829C24.4483 122.842 24.4566 122.857 24.4617 122.873C24.4668 122.89 24.4686 122.907 24.4669 122.924C24.4652 122.941 24.4601 122.957 24.4519 122.972C24.4353 123.001 24.4079 123.023 24.3754 123.033C24.3429 123.042 24.308 123.039 24.2781 123.023C23.4021 122.563 22.458 123.405 22.4478 123.415C22.4267 123.433 22.4004 123.444 22.3728 123.446Z" fill="white"></path> <path d="M22.7815 124.37C22.7636 124.37 22.746 124.366 22.7296 124.359C22.7132 124.352 22.6984 124.342 22.686 124.329C22.674 124.317 22.6644 124.303 22.6579 124.287C22.6513 124.272 22.6479 124.255 22.6479 124.238C22.6479 124.222 22.6513 124.205 22.6579 124.189C22.6644 124.174 22.674 124.16 22.686 124.148C22.7304 124.107 23.7733 123.18 24.806 123.722C24.8213 123.73 24.8349 123.74 24.8459 123.753C24.857 123.766 24.8653 123.781 24.8704 123.797C24.8755 123.814 24.8773 123.831 24.8756 123.848C24.8739 123.864 24.8688 123.881 24.8606 123.896C24.844 123.925 24.8166 123.947 24.7841 123.957C24.7516 123.966 24.7167 123.963 24.6868 123.947C23.8142 123.487 22.8667 124.329 22.8565 124.339C22.8354 124.357 22.8091 124.368 22.7815 124.37Z" fill="white"></path> <path d="M23.1289 125.235C23.111 125.235 23.0934 125.231 23.077 125.224C23.0606 125.217 23.0458 125.207 23.0334 125.194C23.0107 125.17 22.998 125.137 22.998 125.104C22.998 125.07 23.0107 125.038 23.0334 125.014C23.0778 124.973 24.1241 124.042 25.1568 124.588C25.1717 124.595 25.1849 124.606 25.1956 124.618C25.2062 124.631 25.2142 124.646 25.219 124.662C25.2238 124.678 25.2253 124.694 25.2234 124.711C25.2215 124.728 25.2162 124.744 25.208 124.758C25.2008 124.773 25.1905 124.787 25.1779 124.798C25.1653 124.809 25.1505 124.817 25.1346 124.822C25.1186 124.827 25.1018 124.829 25.0851 124.827C25.0684 124.826 25.0522 124.821 25.0376 124.812C24.1616 124.352 23.2141 125.194 23.2039 125.201C23.1837 125.221 23.1571 125.233 23.1289 125.235Z" fill="white"></path> <path d="M30.7776 118.623C30.7776 118.623 31.3502 118.964 31.6093 119.158C31.8683 119.353 32.7408 119.393 32.9726 119.138C33.2044 118.882 32.8363 118.177 34.0292 117.775C35.2221 117.372 34.8813 119.029 34.8813 119.029C34.8813 119.029 35.3141 120.082 36.8172 120.699C38.3203 121.316 40.5664 121.476 39.5439 123.473C39.0974 124.346 36.2276 125.072 34.3428 123.698C33.737 123.297 33.024 123.089 32.2977 123.102C31.507 123.102 29.8131 122.713 29.9596 121.452C30.1062 120.191 30.3959 119.905 30.3959 119.448C30.3959 118.991 30.3175 118.483 30.7572 118.313L30.7776 118.623Z" fill="#455A64"></path> <path d="M34.3185 123.34C33.667 122.911 32.9002 122.689 32.1201 122.706C31.3701 122.712 30.6388 122.473 30.0376 122.024C30.3784 122.829 31.6429 123.095 32.2973 123.095C33.0236 123.082 33.7366 123.29 34.3423 123.691C36.2238 125.054 39.097 124.339 39.5435 123.47C38.5994 124.202 36.0636 124.615 34.3185 123.34Z" fill="#263238"></path> <path d="M33.463 120.63C33.4484 120.633 33.4333 120.633 33.4187 120.63C33.403 120.625 33.3885 120.616 33.3762 120.605C33.3638 120.593 33.3539 120.579 33.3469 120.564C33.3399 120.549 33.3361 120.533 33.3355 120.516C33.335 120.499 33.3378 120.482 33.3437 120.467C33.3642 120.412 33.8516 119.103 35.0172 119.103C35.0516 119.103 35.0845 119.117 35.1088 119.141C35.1331 119.166 35.1468 119.199 35.1468 119.233C35.1468 119.266 35.1335 119.298 35.1098 119.322C35.0862 119.346 35.0541 119.359 35.0207 119.359C34.0322 119.359 33.5857 120.552 33.5823 120.562C33.5708 120.584 33.5536 120.601 33.5325 120.613C33.5114 120.625 33.4873 120.631 33.463 120.63Z" fill="white"></path> <path d="M34.4313 121.224C34.4167 121.227 34.4016 121.227 34.387 121.224C34.3712 121.218 34.3568 121.209 34.3444 121.198C34.3321 121.186 34.3222 121.173 34.3152 121.158C34.3082 121.142 34.3043 121.126 34.3038 121.109C34.3032 121.092 34.306 121.076 34.312 121.06C34.312 121.016 34.7415 119.908 35.7299 119.905C35.7467 119.904 35.7635 119.907 35.7792 119.913C35.7949 119.919 35.8092 119.929 35.8213 119.94C35.8333 119.952 35.8429 119.966 35.8495 119.982C35.856 119.997 35.8594 120.014 35.8594 120.031C35.8594 120.065 35.8458 120.098 35.8215 120.122C35.7972 120.147 35.7642 120.16 35.7299 120.16C34.9221 120.16 34.554 121.138 34.5506 121.149C34.5401 121.171 34.5232 121.19 34.502 121.204C34.4809 121.217 34.4563 121.224 34.4313 121.224Z" fill="white"></path> <path d="M35.5081 121.888H35.4672C35.4353 121.877 35.4092 121.853 35.3946 121.822C35.3799 121.792 35.3778 121.757 35.3888 121.725C35.4058 121.677 35.8216 120.569 36.8101 120.566C36.8404 120.571 36.8679 120.586 36.8878 120.61C36.9077 120.633 36.9186 120.663 36.9186 120.693C36.9186 120.724 36.9077 120.754 36.8878 120.777C36.8679 120.801 36.8404 120.816 36.8101 120.821C35.9989 120.821 35.6342 121.799 35.6308 121.81C35.6202 121.833 35.6029 121.853 35.5811 121.867C35.5593 121.881 35.5339 121.888 35.5081 121.888Z" fill="white"></path> <path d="M137.223 64.9073C137.138 64.8521 137.066 64.7772 137.015 64.6889C136.964 64.6005 136.935 64.5013 136.93 64.3994V62.3033C136.93 62.1159 137.06 62.0409 137.223 62.1363C137.308 62.1921 137.379 62.2672 137.43 62.3554C137.481 62.4436 137.511 62.5425 137.516 62.6441V64.7437C137.516 64.9277 137.383 65.0027 137.223 64.9073Z" fill="#6DA3DC"></path> <path d="M138.13 64.3859L136.314 63.3259C136.228 63.2698 136.157 63.1942 136.106 63.1054C136.055 63.0165 136.026 62.9169 136.021 62.8147C136.021 62.6272 136.15 62.5522 136.314 62.6477L138.13 63.6974C138.216 63.7525 138.288 63.8272 138.34 63.9155C138.391 64.0038 138.421 64.1032 138.427 64.2053C138.44 64.403 138.294 64.4779 138.13 64.3859Z" fill="#6DA3DC"></path> <path d="M139.627 59.2356C139.541 59.1798 139.471 59.1048 139.42 59.0166C139.369 58.9284 139.339 58.8295 139.333 58.7278V56.6283C139.333 56.4408 139.466 56.3658 139.627 56.4578C139.713 56.5138 139.784 56.5893 139.836 56.6781C139.887 56.7669 139.917 56.8666 139.923 56.9691V59.0686C139.923 59.2595 139.804 59.3379 139.627 59.2356Z" fill="#6DA3DC"></path> <path d="M140.536 58.7178L138.719 57.6681C138.634 57.6129 138.562 57.538 138.511 57.4497C138.46 57.3613 138.431 57.2621 138.426 57.1602C138.426 56.9728 138.556 56.8978 138.719 56.9898L140.536 58.0396C140.621 58.0965 140.692 58.1727 140.743 58.2622C140.793 58.3516 140.821 58.4517 140.826 58.5542C140.826 58.7383 140.7 58.8133 140.536 58.7178Z" fill="#6DA3DC"></path> <path d="M128.361 84.7643C128.276 84.7076 128.206 84.6319 128.155 84.5432C128.104 84.4544 128.074 84.3552 128.068 84.2531V82.1535C128.068 81.9661 128.201 81.8911 128.361 81.9865C128.447 82.0417 128.519 82.1166 128.57 82.205C128.621 82.2933 128.65 82.3925 128.655 82.4944V84.5939C128.655 84.7984 128.525 84.8564 128.361 84.7643Z" fill="#6DA3DC"></path> <path d="M129.271 84.2395L127.451 83.1897C127.366 83.1329 127.296 83.0572 127.245 82.9685C127.194 82.8798 127.164 82.7805 127.158 82.6784C127.158 82.491 127.291 82.416 127.451 82.5114L129.271 83.5612C129.357 83.6164 129.428 83.6913 129.479 83.7796C129.53 83.868 129.56 83.9672 129.564 84.069C129.578 84.2565 129.435 84.3315 129.271 84.2395Z" fill="#6DA3DC"></path> <path d="M91.9298 61.1889C91.8449 61.1329 91.7741 61.0578 91.7232 60.9697C91.6723 60.8815 91.6427 60.7827 91.6367 60.6811V58.5815C91.6367 58.3941 91.7696 58.3157 91.9298 58.4111C92.0156 58.4663 92.0869 58.5412 92.1379 58.6295C92.1889 58.7179 92.218 58.8171 92.223 58.919V61.0185C92.223 61.206 92.0866 61.2809 91.9298 61.1889Z" fill="#6DA3DC"></path> <path d="M92.8397 60.6639L91.0197 59.6142C90.9347 59.5581 90.8639 59.4831 90.8131 59.3949C90.7622 59.3067 90.7326 59.2079 90.7266 59.1063C90.7266 58.9189 90.8595 58.8405 91.0197 58.9359L92.8397 59.9857C92.9255 60.0409 92.9968 60.1158 93.0478 60.2041C93.0988 60.2924 93.1279 60.3916 93.1329 60.4935C93.1329 60.681 93.0033 60.756 92.8397 60.6639Z" fill="#6DA3DC"></path> <path d="M127.142 113.503C126.901 113.499 126.666 113.431 126.46 113.306C126.085 113.065 125.772 112.738 125.549 112.352C125.325 111.966 125.197 111.532 125.175 111.087C125.152 110.889 125.188 110.688 125.278 110.51C125.368 110.332 125.507 110.184 125.68 110.084C125.853 109.985 126.051 109.938 126.25 109.949C126.449 109.961 126.641 110.031 126.801 110.15C127.175 110.391 127.487 110.718 127.71 111.104C127.933 111.49 128.06 111.923 128.082 112.368C128.099 112.568 128.061 112.768 127.974 112.948C127.886 113.128 127.752 113.281 127.585 113.391C127.449 113.465 127.297 113.504 127.142 113.503ZM126.147 110.634C126.105 110.632 126.064 110.642 126.027 110.661C125.968 110.714 125.923 110.78 125.896 110.854C125.868 110.929 125.86 111.008 125.87 111.087C125.891 111.413 125.987 111.73 126.151 112.013C126.314 112.295 126.542 112.536 126.815 112.716C126.86 112.796 126.935 112.854 127.023 112.878C127.111 112.903 127.205 112.891 127.285 112.846C127.364 112.8 127.423 112.725 127.447 112.637C127.471 112.549 127.46 112.455 127.414 112.375C127.394 112.05 127.298 111.733 127.135 111.45C126.972 111.168 126.746 110.927 126.474 110.746C126.376 110.682 126.263 110.644 126.147 110.634Z" fill="#6DA3DC"></path> <path d="M133.893 90.4053C133.653 90.4008 133.418 90.3326 133.212 90.2076C132.837 89.9668 132.525 89.6397 132.302 89.2537C132.079 88.8678 131.951 88.434 131.93 87.9888C131.908 87.7912 131.944 87.5915 132.034 87.414C132.123 87.2365 132.263 87.089 132.435 86.9895C132.607 86.8901 132.804 86.843 133.003 86.854C133.201 86.865 133.392 86.9336 133.553 87.0515C133.928 87.2922 134.241 87.6191 134.464 88.0051C134.688 88.3911 134.816 88.8249 134.838 89.2703C134.853 89.4697 134.815 89.6696 134.728 89.8494C134.64 90.0291 134.506 90.1823 134.34 90.2929C134.203 90.3679 134.049 90.4066 133.893 90.4053ZM132.898 87.5253C132.857 87.5241 132.816 87.5335 132.779 87.5525C132.72 87.6053 132.675 87.6718 132.647 87.746C132.62 87.8203 132.611 87.9002 132.622 87.9786C132.643 88.3043 132.738 88.6208 132.901 88.9034C133.065 89.1861 133.291 89.4271 133.563 89.6078C133.625 89.6558 133.699 89.688 133.776 89.7016C133.854 89.7153 133.934 89.71 134.009 89.6862C134.068 89.6334 134.113 89.5669 134.141 89.4927C134.168 89.4184 134.177 89.3385 134.166 89.2601C134.145 88.9342 134.049 88.6176 133.885 88.335C133.721 88.0523 133.494 87.8114 133.222 87.6309C133.125 87.5689 133.013 87.5325 132.898 87.5253Z" fill="#6DA3DC"></path> <path d="M112.993 67.024C112.753 67.0194 112.518 66.9512 112.312 66.8263C111.937 66.5855 111.625 66.2584 111.402 65.8724C111.179 65.4864 111.051 65.0527 111.03 64.6075C111.008 64.4099 111.044 64.2101 111.134 64.0326C111.223 63.8552 111.363 63.7077 111.535 63.6082C111.707 63.5087 111.905 63.4616 112.103 63.4726C112.302 63.4836 112.493 63.5523 112.653 63.6702C113.028 63.911 113.34 64.2381 113.563 64.6241C113.786 65.0101 113.913 65.4438 113.934 65.889C113.951 66.088 113.914 66.2879 113.827 66.4677C113.74 66.6475 113.606 66.8008 113.44 66.9115C113.303 66.986 113.149 67.0246 112.993 67.024ZM111.998 64.1542C111.958 64.1534 111.918 64.1628 111.882 64.1814C111.823 64.2342 111.778 64.3006 111.751 64.3749C111.724 64.4492 111.715 64.529 111.726 64.6075C111.746 64.9332 111.842 65.2497 112.005 65.5323C112.168 65.8149 112.395 66.056 112.666 66.2367C112.711 66.3162 112.786 66.3745 112.875 66.3988C112.963 66.4231 113.057 66.4114 113.137 66.3662C113.216 66.321 113.275 66.246 113.299 66.1578C113.323 66.0696 113.311 65.9754 113.266 65.8958C113.246 65.5699 113.151 65.2531 112.988 64.9704C112.825 64.6876 112.598 64.4467 112.325 64.2666C112.227 64.2024 112.115 64.1638 111.998 64.1542Z" fill="#6DA3DC"></path> <path d="M125.925 95.4836C125.925 91.939 123.437 87.6444 120.37 85.8619C118.815 84.9655 117.411 84.8939 116.402 85.5006L114.32 86.7242L114.947 87.774C114.858 88.201 114.814 88.6363 114.817 89.0725C114.817 92.6138 117.302 96.9117 120.37 98.6909C120.836 98.9671 121.339 99.1781 121.862 99.318L122.381 100.187L124.184 99.1408C124.264 99.1007 124.341 99.0551 124.415 99.0045C125.353 98.391 125.925 97.1776 125.925 95.4836Z" fill="#6DA3DC"></path> <path opacity="0.3" d="M125.925 95.4836C125.925 91.939 123.437 87.6444 120.37 85.8619C118.815 84.9655 117.411 84.8939 116.402 85.5006L114.32 86.7242L114.947 87.774C114.858 88.201 114.814 88.6363 114.817 89.0725C114.817 92.6138 117.302 96.9117 120.37 98.6909C120.836 98.9671 121.339 99.1781 121.862 99.318L122.381 100.187L124.184 99.1408C124.264 99.1007 124.341 99.0551 124.415 99.0045C125.353 98.391 125.925 97.1776 125.925 95.4836Z" fill="black"></path> <path d="M124.033 96.5745C124.033 100.116 121.548 101.551 118.481 99.7783C115.413 98.006 112.925 93.7013 112.925 90.16C112.925 86.6187 115.413 85.1838 118.481 86.9527C121.548 88.7217 124.033 93.0332 124.033 96.5745Z" fill="#6DA3DC"></path> <path d="M120.066 91.5709C119.19 91.0665 118.481 91.622 118.481 92.8116C118.481 91.622 117.772 90.2485 116.896 89.744C116.02 89.2396 115.312 89.7952 115.312 90.9881C115.312 94.0215 118.481 97.147 118.481 97.147C118.481 97.147 121.651 97.6787 121.651 94.6452C121.651 93.4523 120.939 92.0753 120.066 91.5709Z" fill="white"></path> <path d="M91.9296 51.7375C91.9296 48.1962 89.445 43.8983 86.3774 42.1191C84.8232 41.2227 83.419 41.1511 82.4101 41.7544L80.3242 42.978L80.9514 44.0244C80.8639 44.4528 80.8205 44.8891 80.8218 45.3264C80.8218 48.8676 83.3099 53.1656 86.3774 54.9447C86.8429 55.2209 87.3441 55.4319 87.8669 55.5719L88.3884 56.441L90.1914 55.3946C90.2713 55.3538 90.3486 55.3082 90.4232 55.2583C91.357 54.6346 91.9296 53.4212 91.9296 51.7375Z" fill="#6DA3DC"></path> <path opacity="0.3" d="M91.9296 51.7375C91.9296 48.1962 89.445 43.8983 86.3774 42.1191C84.8232 41.2227 83.419 41.1511 82.4101 41.7544L80.3242 42.978L80.9514 44.0244C80.8639 44.4528 80.8205 44.8891 80.8218 45.3264C80.8218 48.8676 83.3099 53.1656 86.3774 54.9447C86.8429 55.2209 87.3441 55.4319 87.8669 55.5719L88.3884 56.441L90.1914 55.3946C90.2713 55.3538 90.3486 55.3082 90.4232 55.2583C91.357 54.6346 91.9296 53.4212 91.9296 51.7375Z" fill="black"></path> <path d="M88.4129 56.413C90.581 55.1612 90.5808 51.1016 88.4123 47.3457C86.2438 43.5897 82.7282 41.5597 80.5601 42.8114C78.3919 44.0632 78.3922 48.1228 80.5607 51.8788C82.7292 55.6347 86.2448 57.6647 88.4129 56.413Z" fill="#6DA3DC"></path> <path d="M86.0711 47.8145C85.1951 47.31 84.4862 47.8656 84.4862 49.0551C84.4862 47.8656 83.7772 46.4886 82.9013 45.9876C82.0253 45.4866 81.3198 46.0387 81.3198 47.2316C81.3198 50.2617 84.4862 53.3905 84.4862 53.3905C84.4862 53.3905 87.6559 53.9222 87.6559 50.8888C87.6559 49.6925 86.947 48.3291 86.0711 47.8145Z" fill="white"></path> <path d="M112.496 74.5734C112.496 71.5059 110.342 67.7567 107.68 66.2332C106.334 65.4527 105.117 65.3913 104.241 65.9162L102.435 66.9762L102.977 67.8862C102.901 68.2564 102.865 68.6333 102.867 69.011C102.867 72.0785 105.022 75.8277 107.68 77.3512C108.084 77.5905 108.518 77.7729 108.972 77.8931L109.425 78.6498L110.99 77.7398C111.053 77.7107 111.114 77.6777 111.174 77.6409C112.002 77.1058 112.496 76.0526 112.496 74.5734Z" fill="#6DA3DC"></path> <path opacity="0.3" d="M112.496 74.5734C112.496 71.5059 110.342 67.7567 107.68 66.2332C106.334 65.4527 105.117 65.3913 104.241 65.9162L102.435 66.9762L102.977 67.8862C102.901 68.2564 102.865 68.6333 102.867 69.011C102.867 72.0785 105.022 75.8277 107.68 77.3512C108.084 77.5905 108.518 77.7729 108.972 77.8931L109.425 78.6498L110.99 77.7398C111.053 77.7107 111.114 77.6777 111.174 77.6409C112.002 77.1058 112.496 76.0526 112.496 74.5734Z" fill="black"></path> <path d="M109.45 78.6455C111.331 77.5593 111.331 74.0384 109.451 70.7813C107.57 67.5242 104.521 65.7643 102.64 66.8504C100.758 67.9365 100.758 71.4574 102.638 74.7145C104.519 77.9717 107.568 79.7316 109.45 78.6455Z" fill="#6DA3DC"></path> <path d="M107.424 71.1924C106.664 70.7527 106.061 71.2367 106.061 72.2694C106.061 71.2469 105.444 70.0438 104.698 69.6041C103.951 69.1644 103.334 69.6484 103.334 70.6811C103.334 73.3124 106.082 76.022 106.082 76.022C106.082 76.022 108.829 76.4855 108.829 73.8543C108.788 72.8216 108.174 71.6286 107.424 71.1924Z" fill="white"></path> <path d="M138.44 52.0784C138.44 49.0109 136.283 45.2617 133.624 43.7382C132.261 42.9611 131.058 42.8963 130.185 43.4212L128.375 44.4812L128.921 45.3913C128.845 45.7624 128.807 46.1405 128.808 46.5194C128.808 49.5869 130.966 53.3361 133.624 54.8596C134.028 55.0987 134.463 55.2811 134.916 55.4016L135.366 56.1548L136.93 55.2482C136.999 55.2107 137.067 55.1732 137.132 55.1323C137.929 54.5938 138.44 53.544 138.44 52.0784Z" fill="#6DA3DC"></path> <path opacity="0.3" d="M138.44 52.0784C138.44 49.0109 136.283 45.2617 133.624 43.7382C132.261 42.9611 131.058 42.8963 130.185 43.4212L128.375 44.4812L128.921 45.3913C128.845 45.7624 128.807 46.1405 128.808 46.5194C128.808 49.5869 130.966 53.3361 133.624 54.8596C134.028 55.0987 134.463 55.2811 134.916 55.4016L135.366 56.1548L136.93 55.2482C136.999 55.2107 137.067 55.1732 137.132 55.1323C137.929 54.5938 138.44 53.544 138.44 52.0784Z" fill="black"></path> <path d="M136.787 53.0192C136.787 56.0867 134.63 57.3341 131.971 55.797C129.313 54.2598 127.155 50.5277 127.155 47.4567C127.155 44.3858 129.313 43.1418 131.971 44.6789C134.63 46.2161 136.787 49.9482 136.787 53.0192Z" fill="#6DA3DC"></path> <path d="M133.344 48.6701C132.584 48.2338 131.981 48.7144 131.981 49.7471C131.981 48.7246 131.368 47.5215 130.618 47.0852C129.868 46.6489 129.254 47.1295 129.254 48.1622C129.254 50.7901 132.002 53.4997 132.002 53.4997C132.002 53.4997 134.749 53.9632 134.749 51.332C134.718 50.3095 134.104 49.12 133.344 48.6701Z" fill="white"></path> </svg> 