<?xml version="1.0" encoding="UTF-8"?> <svg xmlns="http://www.w3.org/2000/svg" width="1280" height="968" viewBox="0 0 1280 968" fill="none"> <path d="M1198.78 583.58C1199.76 403 947.031 255.236 634.294 253.539C321.556 251.842 67.2388 396.855 66.2602 577.435C65.2816 758.015 318.012 905.78 630.75 907.477C943.487 909.174 1197.8 764.16 1198.78 583.58Z" fill="#E1EAFB"></path> <path d="M333.221 302.016C296.674 314.923 262.277 330.411 230.89 348.48C220.571 354.503 211.112 360.526 201.653 366.549L327.632 439.257C340.101 446.571 340.101 464.21 327.632 471.093L70.9438 619.52C79.1131 656.519 98.0315 693.088 128.559 727.506L444.152 545.092C464.79 533.045 490.588 533.045 511.226 545.092L1002.67 829.038C1013.42 823.876 1024.17 818.283 1034.49 812.26C1065.88 794.19 1092.97 773.97 1115.75 752.889L333.221 302.016Z" fill="#85787C"></path> <path d="M95.8818 660.821L105.771 666.844L143.178 645.333L132.859 639.74L95.8818 660.821Z" fill="url(#paint0_linear_156_9478)"></path> <path d="M154.357 627.264L164.676 632.857L201.653 611.346L191.334 605.753L154.357 627.264Z" fill="url(#paint1_linear_156_9478)"></path> <path d="M213.262 593.276L223.151 598.869L260.558 577.789L250.239 571.765L213.262 593.276Z" fill="url(#paint2_linear_156_9478)"></path> <path d="M271.737 559.289L282.056 565.312L319.033 543.801L308.714 537.778L271.737 559.289Z" fill="url(#paint3_linear_156_9478)"></path> <path d="M330.642 525.301L340.531 531.325L377.938 509.813L367.618 503.79L330.642 525.301Z" fill="url(#paint4_linear_156_9478)"></path> <path d="M389.117 491.314L399.436 497.337L436.413 475.826L426.523 469.803L389.117 491.314Z" fill="url(#paint5_linear_156_9478)"></path> <path d="M452.321 458.187L456.621 463.78C457.481 465.07 459.201 465.5 460.921 465.07C467.37 463.78 473.819 462.919 480.699 462.919C487.578 462.919 494.028 463.78 500.477 465.07C502.197 465.5 503.917 465.07 504.777 463.349L509.076 458.187C500.047 456.036 490.158 454.745 480.699 454.745C470.81 454.745 461.351 456.036 452.321 458.187Z" fill="url(#paint6_linear_156_9478)"></path> <path d="M525.415 475.826L562.822 497.337L573.141 491.314L535.734 469.803L525.415 475.826Z" fill="url(#paint7_linear_156_9478)"></path> <path d="M584.32 509.813L621.727 531.324L632.046 525.732L594.639 504.22L584.32 509.813Z" fill="url(#paint8_linear_156_9478)"></path> <path d="M643.655 543.801L681.062 565.742L690.951 559.719L653.544 538.208L643.655 543.801Z" fill="url(#paint9_linear_156_9478)"></path> <path d="M702.56 578.219L739.966 599.73L750.286 593.707L712.879 572.196L702.56 578.219Z" fill="url(#paint10_linear_156_9478)"></path> <path d="M761.895 612.206L799.301 633.717L809.19 628.124L771.784 606.613L761.895 612.206Z" fill="url(#paint11_linear_156_9478)"></path> <path d="M820.8 646.194L858.206 668.136L868.525 662.112L831.119 640.601L820.8 646.194Z" fill="url(#paint12_linear_156_9478)"></path> <path d="M880.134 680.611L917.111 702.123L927.43 696.099L890.023 674.588L880.134 680.611Z" fill="url(#paint13_linear_156_9478)"></path> <path d="M949.358 709.006L939.039 714.599L976.446 736.11L986.335 730.517L949.358 709.006Z" fill="url(#paint14_linear_156_9478)"></path> <path d="M843.587 412.153L789.412 380.747L857.776 343.317L863.366 412.153H843.587Z" fill="#DFE4EB"></path> <path d="M931.3 334.713V375.154L863.366 412.153V372.142L931.3 334.713Z" fill="#EDF4FF"></path> <path d="M863.366 372.142V412.153L809.62 380.747V340.306L863.366 372.142Z" fill="#DDE7F8"></path> <path d="M863.366 372.142L809.62 340.306L877.555 303.307L931.73 334.713L863.366 372.142Z" fill="#EBF4FF"></path> <path d="M954.518 471.523L878.415 426.78L974.726 374.293L974.296 471.523H954.518Z" fill="#DFE4EB"></path> <path d="M1070.61 334.283V419.037L974.296 471.524V386.77L1070.61 334.283Z" fill="#EDF4FF"></path> <path d="M974.296 386.77V471.523L898.193 426.78V342.027L974.296 386.77Z" fill="#DDE7F8"></path> <path d="M974.296 386.77L898.193 342.027L994.505 289.54L1070.61 334.283L974.296 386.77Z" fill="#EBF4FF"></path> <path d="M1060.29 504.221L1006.54 472.384L1074.48 435.385L1080.07 504.221H1060.29Z" fill="#DFE4EB"></path> <path d="M1148.43 426.781V467.221L1080.07 504.221V463.78L1148.43 426.781Z" fill="#EDF4FF"></path> <path d="M1080.07 463.78V504.22L1026.32 472.384V431.943L1080.07 463.78Z" fill="#DDE7F8"></path> <path d="M1080.07 463.78L1026.32 431.943L1094.26 394.944L1148.43 426.781L1080.07 463.78Z" fill="#EBF4FF"></path> <path d="M453.611 335.143L405.025 306.748L466.51 273.191L473.389 335.143H453.611Z" fill="#DFE4EB"></path> <path d="M534.444 253.831V302.016L473.389 335.143V287.389L534.444 253.831Z" fill="#EDF4FF"></path> <path d="M473.389 287.389V335.143L424.803 306.749V258.994L473.389 287.389Z" fill="#DDE7F8"></path> <path d="M473.389 287.389L424.803 258.994L486.288 225.437L534.444 253.831L473.389 287.389Z" fill="#EBF4FF"></path> <path d="M647.524 323.527L610.548 301.586L656.984 276.633L667.303 324.387L647.524 323.527Z" fill="#DFE4EB"></path> <path d="M713.739 247.808V299.004L667.303 324.387V273.191L713.739 247.808Z" fill="#EDF4FF"></path> <path d="M667.303 273.191V324.387L630.326 302.876V251.68L667.303 273.191Z" fill="#DDE7F8"></path> <path d="M667.303 273.191L630.326 251.68L676.762 226.297L713.739 247.808L667.303 273.191Z" fill="#EBF4FF"></path> <path d="M1124.78 569.614L1076.2 541.22L1115.75 519.708L1144.56 569.614H1124.78Z" fill="#DFE4EB"></path> <path d="M1184.12 524.441V548.103L1144.56 569.614V545.952L1184.12 524.441Z" fill="#EDF4FF"></path> <path d="M1144.56 545.952V569.614L1095.98 541.22V517.557L1144.56 545.952Z" fill="#DDE7F8"></path> <path d="M1144.56 545.952L1095.98 517.557L1135.53 496.046L1184.12 524.441L1144.56 545.952Z" fill="#EBF4FF"></path> <path d="M1090.39 667.275L1042.23 638.88L1107.15 603.602L1110.16 667.275H1090.39Z" fill="#DFE4EB"></path> <path d="M1175.52 607.904V631.996L1110.16 667.275V643.182L1175.52 607.904Z" fill="#EDF4FF"></path> <path d="M1110.16 643.182V667.275L1062.01 638.88V614.788L1110.16 643.182Z" fill="#DDE7F8"></path> <path d="M1110.16 643.182L1062.01 614.787L1126.93 579.509L1175.52 607.904L1110.16 643.182Z" fill="#EBF4FF"></path> <path d="M766.194 335.573L717.608 307.179L757.165 285.668L785.973 335.573H766.194Z" fill="#DFE4EB"></path> <path d="M825.529 289.97V314.062L785.973 335.574V311.481L825.529 289.97Z" fill="#EDF4FF"></path> <path d="M785.973 311.481V335.574L737.817 307.179V283.086L785.973 311.481Z" fill="#DDE7F8"></path> <path d="M785.973 311.481L737.817 283.086L776.943 261.575L825.529 289.97L785.973 311.481Z" fill="#EBF4FF"></path> <path d="M690.521 410.002L573.571 341.597L629.036 311.481L745.986 379.886L690.521 410.002Z" fill="#DFE4EB"></path> <path d="M765.764 356.224V388.921L710.299 419.036V386.339L765.764 356.224Z" fill="#EDF4FF"></path> <path d="M710.299 386.339V419.036L593.779 350.201V317.504L710.299 386.339Z" fill="#DDE7F8"></path> <path d="M710.299 386.34L593.779 317.504L648.814 287.388L765.764 356.224L710.299 386.34Z" fill="#EBF4FF"></path> <path d="M1002.67 609.625L872.825 534.766L927.43 502.93L1022.45 609.625H1002.67Z" fill="#DFE4EB"></path> <path d="M1077.49 519.708V578.219L1022.45 609.625V551.115L1077.49 519.708Z" fill="#EDF4FF"></path> <path d="M1022.45 551.115V609.625L892.603 534.766V475.826L1022.45 551.115Z" fill="#DDE7F8"></path> <path d="M1022.45 551.115L892.603 475.826L947.209 444.42L1077.49 519.709L1022.45 551.115Z" fill="#EBF4FF"></path> <path d="M819.509 515.837L730.077 464.21L787.692 431.083L839.288 515.837H819.509Z" fill="#DFE4EB"></path> <path d="M896.903 442.269V482.279L839.288 515.837V475.396L896.903 442.269Z" fill="#EDF4FF"></path> <path d="M839.288 475.396V515.837L749.855 464.21V423.769L839.288 475.396Z" fill="#DDE7F8"></path> <path d="M839.288 475.396L749.855 423.769L807.471 390.642L896.903 442.269L839.288 475.396Z" fill="#EBF4FF"></path> <path d="M1043.52 767.947C1033.63 773.54 1017.72 773.54 1007.83 767.947C997.944 762.354 997.944 752.889 1007.83 747.296C1017.72 741.703 1033.63 741.703 1043.52 747.296C1053.41 752.889 1053.41 761.924 1043.52 767.947Z" fill="url(#paint15_linear_156_9478)"></path> <path d="M1043.95 530.464C1034.92 526.592 1023.31 527.883 1010.84 535.627C982.895 551.975 960.107 591.125 960.107 623.392C960.107 667.275 1010.84 717.18 1010.84 717.18L1025.89 724.494L1059.43 537.778L1043.95 530.464Z" fill="#FF4C4A"></path> <path d="M1025.46 542.94C1053.41 526.592 1076.2 539.499 1076.2 571.765C1076.2 615.648 1025.46 724.494 1025.46 724.494C1025.46 724.494 974.726 674.588 974.726 630.706C974.726 598.439 997.514 558.859 1025.46 542.94Z" fill="#FF4C4A"></path> <path d="M1046.42 613.097C1058.05 593.2 1058.17 571.626 1046.69 564.911C1035.21 558.195 1016.48 568.881 1004.85 588.778C993.227 608.675 993.109 630.249 1004.59 636.964C1016.07 643.68 1034.8 632.994 1046.42 613.097Z" fill="#FCFBFA"></path> <path d="M979.026 632.427C979.026 601.02 1001.38 562.3 1028.9 546.812C1055.99 531.324 1076.63 542.51 1077.06 573.486C1077.06 573.056 1077.06 572.626 1077.06 572.195C1077.06 539.929 1054.27 527.022 1026.32 543.371C998.374 559.719 975.586 598.869 975.586 631.136C975.586 675.019 1026.32 724.924 1026.32 724.924C1025.46 724.494 979.026 675.019 979.026 632.427Z" fill="#FF8685"></path> <path d="M580.45 445.28L931.3 647.915L812.63 716.32L461.78 513.685L580.45 445.28Z" fill="#BFB5BF"></path> <path d="M530.144 530.034L546.053 517.557L602.378 557.138L738.246 650.066L755.875 639.31L802.741 669.426L781.243 608.764L531.004 484.43L530.144 530.034Z" fill="#0F0E1B"></path> <path d="M810.48 668.565C810.48 653.077 799.731 634.578 786.402 626.834C779.523 622.962 773.503 622.532 769.204 625.113L753.725 634.148V646.194L788.122 693.518L802.311 685.344C803.171 684.914 803.601 684.484 804.031 684.053C807.9 680.612 810.48 675.449 810.48 668.565Z" fill="#23222D"></path> <path d="M600.658 547.243C600.658 531.755 589.909 513.255 576.58 505.511C569.701 501.209 563.251 501.209 558.522 504.22L543.473 512.825L553.792 529.603C556.372 539.499 562.821 549.824 570.131 556.277L579.16 570.905L592.489 563.161C593.349 562.731 594.209 562.3 595.069 561.87C598.508 559.289 600.658 554.126 600.658 547.243Z" fill="#23222D"></path> <path d="M918.401 572.196V615.218L899.913 604.462C895.183 588.974 884.004 574.777 871.105 567.463C853.907 557.568 851.327 569.184 841.868 586.393C841.008 587.684 840.148 591.125 840.148 591.125L694.82 507.232C694.82 505.511 694.82 503.36 694.82 501.209C694.82 481.419 680.631 446.571 663.433 436.676C646.234 426.781 632.046 434.525 632.046 454.315C632.046 456.466 632.046 458.617 632.046 460.338L585.61 433.664V279.214L868.955 443.129L885.724 532.615L918.401 572.196Z" fill="#E4DFD9"></path> <path d="M897.333 618.229C897.333 633.717 886.584 639.741 873.255 631.997C859.926 624.252 849.177 605.323 849.177 590.265C849.177 574.777 859.926 568.754 873.255 576.498C886.154 584.242 897.333 603.172 897.333 618.229Z" fill="#2D2C37"></path> <path d="M687.511 497.337C687.511 512.825 676.762 518.848 663.433 511.104C650.104 503.36 639.355 473.675 639.355 458.617C639.355 443.129 650.104 437.106 663.433 444.85C676.762 452.594 687.511 481.849 687.511 497.337Z" fill="#2D2C37"></path> <path d="M680.201 493.035C680.201 503.79 672.462 508.092 663.433 502.5C653.974 496.907 646.664 473.244 646.664 462.489C646.664 451.733 654.404 447.431 663.433 453.024C672.462 458.617 680.201 482.279 680.201 493.035Z" fill="#504F58"></path> <path d="M678.482 492.174C678.482 502.069 671.602 505.941 663.003 500.779C654.404 496.046 647.524 473.244 647.524 463.78C647.524 453.884 654.404 450.012 663.003 455.175C671.602 459.908 678.482 482.279 678.482 492.174Z" fill="#C2C7D6"></path> <path d="M676.762 491.314C676.762 499.918 670.742 503.36 663.003 499.058C655.264 494.756 649.244 473.245 649.244 464.64C649.244 456.036 655.264 452.594 663.003 456.896C670.742 461.198 676.762 482.279 676.762 491.314Z" fill="#A5ACC2"></path> <path d="M671.602 477.116C671.602 482.279 667.733 495.186 663.003 492.604C658.273 490.023 654.404 472.814 654.404 467.221C654.404 461.628 658.273 459.908 663.003 462.489C667.733 465.5 671.602 471.954 671.602 477.116Z" fill="#CFD9E7"></path> <path d="M889.593 613.927C889.593 624.683 881.854 628.985 872.825 623.392C863.366 617.799 856.056 604.893 856.056 594.137C856.056 583.381 863.796 579.079 872.825 584.672C881.854 590.265 889.593 603.172 889.593 613.927Z" fill="#504F58"></path> <path d="M888.304 613.067C888.304 622.962 881.424 626.834 872.825 621.671C864.226 616.939 857.346 604.892 857.346 595.428C857.346 585.963 864.226 581.66 872.825 586.823C881.424 591.556 888.304 603.602 888.304 613.067Z" fill="#B5BBCD"></path> <path d="M884.434 610.916C884.434 618.229 879.274 621.241 872.825 617.799C866.375 613.927 861.216 604.892 861.216 597.579C861.216 590.265 866.375 587.253 872.825 590.695C879.274 594.137 884.434 603.602 884.434 610.916Z" fill="#CFD9E7"></path> <path d="M879.274 607.904C879.274 611.776 876.265 613.497 872.825 611.346C869.385 609.195 866.375 604.462 866.375 600.16C866.375 595.858 869.385 594.567 872.825 596.718C876.265 598.869 879.274 604.032 879.274 607.904Z" fill="#E1E7EF"></path> <path d="M876.265 606.183C876.265 608.334 874.545 609.195 872.825 608.334C871.105 607.044 869.385 604.462 869.385 602.311C869.385 600.16 871.105 599.3 872.825 600.16C874.975 601.451 876.265 604.032 876.265 606.183Z" fill="#C2C7D6"></path> <path d="M923.131 631.996L820.799 676.74L804.031 670.716L793.282 664.693L902.062 601.881L918.831 611.346L923.131 617.799V631.996Z" fill="#6B6164"></path> <path d="M867.235 437.106L587.759 275.772L585.61 279.214L868.955 443.129L867.235 437.106Z" fill="#F3F1EE"></path> <path d="M792.422 499.058L589.909 382.037V376.014L792.422 493.035V499.058Z" fill="#98979D"></path> <path d="M795.001 559.289V417.746L853.477 451.733V545.952L834.128 582.091L795.001 559.289Z" fill="#CDC6BC"></path> <path d="M870.245 461.198L857.346 453.885V528.313L876.694 539.499L882.284 530.464L870.245 461.198Z" fill="#2D2C37"></path> <path d="M859.066 527.452V456.896L868.955 462.489L880.564 529.173L875.835 536.917L859.066 527.452Z" fill="#7572A4"></path> <path d="M840.148 587.253L792.422 559.719V563.591L840.148 591.125V587.253Z" fill="#9B897F"></path> <path d="M585.61 429.362L568.841 419.897V423.769L585.61 433.664V429.362Z" fill="#9B897F"></path> <path d="M912.812 587.683L905.932 583.811V575.637L912.812 579.939V587.683Z" fill="#504F58"></path> <path d="M912.382 586.823L906.792 583.381V576.928L912.382 580.37V586.823Z" fill="#FF9A2E"></path> <path d="M600.658 402.258C600.658 404.839 598.938 405.7 596.789 404.409C594.639 403.118 592.919 400.107 592.919 397.525C592.919 394.944 594.639 394.084 596.789 395.374C598.938 396.665 600.658 399.676 600.658 402.258Z" fill="#504F58"></path> <path d="M599.799 401.828C599.799 403.979 598.509 404.409 596.789 403.549C595.069 402.688 593.779 400.107 593.779 398.386C593.779 396.665 595.069 395.805 596.789 396.665C598.509 397.525 599.799 399.677 599.799 401.828Z" fill="#FF512E"></path> <path d="M598.939 416.455C598.939 418.176 597.649 418.606 596.359 418.176C595.069 417.315 593.779 415.164 593.779 413.443C593.779 411.723 595.069 411.292 596.359 411.723C597.649 412.583 598.939 414.734 598.939 416.455Z" fill="#F9F1EC"></path> <path d="M598.509 416.455C598.509 417.746 597.649 418.606 596.359 417.746C595.069 416.885 594.209 415.164 594.209 413.874C594.209 412.583 595.069 411.723 596.359 412.583C597.649 413.013 598.509 414.734 598.509 416.455Z" fill="#FF9A2E"></path> <path d="M706.859 489.593C706.859 491.314 705.569 491.744 704.279 491.314C702.99 490.453 701.7 488.302 701.7 486.581C701.7 484.86 702.99 473.675 704.279 474.535C705.569 475.396 706.859 487.872 706.859 489.593Z" fill="#F9F1EC"></path> <path d="M706.429 489.593C706.429 490.884 705.569 491.744 704.279 490.884C702.99 490.023 702.13 488.302 702.13 487.012C702.13 485.721 702.99 484.86 704.279 485.721C705.569 486.151 706.429 487.872 706.429 489.593Z" fill="#FF9A2E"></path> <path d="M786.402 524.871C786.402 526.592 785.112 527.022 783.822 526.592C782.533 525.732 781.243 523.581 781.243 521.86C781.243 520.139 782.533 519.709 783.822 520.139C785.112 520.999 786.402 523.15 786.402 524.871Z" fill="#F9F1EC"></path> <path d="M785.972 524.441C785.972 525.732 785.112 526.592 783.823 525.732C782.533 524.871 781.673 523.15 781.673 521.86C781.673 520.569 782.533 519.709 783.823 520.569C785.112 521.429 785.972 523.15 785.972 524.441Z" fill="#FF9A2E"></path> <path d="M602.808 295.563L593.779 290.4V286.528L602.808 291.691V295.563Z" fill="#CDC6BC"></path> <path d="M601.948 294.702L594.209 290.4V287.388L601.948 291.691V294.702Z" fill="#FF9A2E"></path> <path d="M715.458 360.957L706.429 355.794V351.922L715.458 357.085V360.957Z" fill="#CDC6BC"></path> <path d="M715.028 359.666L707.289 355.364V352.352L715.028 356.654V359.666Z" fill="#FF9A2E"></path> <path d="M858.206 443.129L849.177 437.966V434.094L858.206 439.257V443.129Z" fill="#CDC6BC"></path> <path d="M857.346 442.268L849.607 437.966V434.955L857.346 439.257V442.268Z" fill="#FF9A2E"></path> <path d="M665.153 402.258C663.863 402.258 662.143 401.828 660.853 400.967L603.668 367.84C597.649 364.398 592.919 355.364 592.919 347.62V314.923C592.919 310.62 594.209 307.179 596.789 305.888C598.938 304.597 601.518 305.027 604.528 306.318L661.713 339.445C667.733 342.887 672.462 351.922 672.462 359.666V392.363C672.462 396.665 671.172 400.107 668.593 401.397C667.303 402.258 666.443 402.258 665.153 402.258ZM661.713 399.246C663.863 400.537 666.013 400.537 667.303 399.676C669.022 398.386 670.312 395.804 670.312 392.363V359.666C670.312 352.352 666.013 344.178 660.853 341.166L603.668 308.039C601.518 306.748 599.368 306.748 598.079 307.609C596.359 308.9 595.069 311.481 595.069 314.923V347.62C595.069 354.933 599.368 363.108 604.528 366.119L661.713 399.246Z" fill="#CDC6BC"></path> <path d="M754.155 453.454C752.865 453.454 751.145 453.024 749.855 452.164L692.67 419.036C686.651 415.595 681.921 406.56 681.921 398.816V366.119C681.921 361.817 683.211 358.375 685.791 357.084C687.941 355.794 690.521 356.224 693.53 357.515L750.715 390.642C756.735 394.084 761.465 403.118 761.465 410.862V443.559C761.465 447.861 760.175 451.303 757.595 452.594C756.305 453.454 755.015 453.454 754.155 453.454ZM688.801 358.375C687.941 358.375 687.511 358.375 686.651 358.805C684.931 360.096 683.641 362.677 683.641 366.119V398.816C683.641 406.13 687.941 414.304 693.1 417.316L750.285 450.443C752.435 451.733 754.585 451.733 755.875 450.873C757.595 449.582 758.885 447.001 758.885 443.559V410.862C758.885 403.548 754.585 395.374 749.426 392.363L692.24 359.236C691.381 358.805 690.091 358.375 688.801 358.375Z" fill="#CDC6BC"></path> <path d="M838.858 517.557L807.471 488.733C804.031 487.012 801.451 481.849 801.451 477.117V434.525C801.451 430.222 804.031 428.071 807.471 429.792L838.858 447.861C842.298 449.582 844.877 454.745 844.877 459.477V512.825C844.877 517.557 841.868 519.709 838.858 517.557Z" fill="#2D2C37"></path> <path d="M803.171 478.407V434.955C803.171 431.943 804.891 430.222 807.471 431.943L838.858 450.012C841.008 451.303 843.157 455.175 843.157 458.187V512.395C843.157 515.406 841.438 517.127 838.858 515.406L807.471 486.581C804.891 485.291 803.171 481.849 803.171 478.407Z" fill="#7572A4"></path> <path d="M816.93 554.126L807.471 548.533C804.031 546.812 801.451 530.894 801.451 526.162V499.058C801.451 494.755 804.031 492.604 807.471 494.325L816.93 499.918C820.37 501.639 822.949 506.802 822.949 511.534V549.394C822.949 554.126 820.37 555.847 816.93 554.126Z" fill="#2D2C37"></path> <path d="M803.171 527.452V499.488C803.171 496.476 804.891 494.755 807.471 496.476L816.93 502.069C819.08 503.36 821.229 507.232 821.229 510.243V548.963C821.229 551.975 819.51 553.696 816.93 551.975L807.471 546.382C804.891 545.091 803.171 530.894 803.171 527.452Z" fill="#7572A4"></path> <path d="M866.375 604.462C867.235 606.613 867.665 607.904 869.385 609.625C869.815 610.485 870.245 611.346 870.245 611.776C870.245 612.206 869.385 612.206 868.525 611.346C866.805 609.625 865.516 606.613 864.656 604.462C864.226 603.602 864.656 602.741 865.086 602.741C865.516 602.741 865.946 603.602 866.375 604.462Z" fill="#504F58"></path> <path d="M879.704 604.032C878.845 601.881 878.414 600.59 876.695 598.869C876.265 598.009 875.835 597.148 875.835 596.718C875.835 596.288 876.695 596.288 877.555 597.148C879.274 598.869 880.564 601.881 881.424 604.032C881.854 604.892 881.424 605.753 880.994 605.753C880.564 605.753 879.704 604.892 879.704 604.032Z" fill="#504F58"></path> <path d="M876.265 613.927C877.985 613.927 878.415 613.497 879.274 612.206C879.704 611.776 880.134 611.776 880.564 612.206C880.994 612.636 881.424 613.927 880.994 614.357C880.134 615.648 878.415 616.508 877.125 616.508C876.265 616.508 875.405 615.648 875.405 614.787C875.405 614.357 875.835 613.927 876.265 613.927Z" fill="#504F58"></path> <path d="M869.385 594.567C867.665 594.567 867.235 594.997 866.375 596.288C865.946 596.718 865.516 596.718 865.086 596.288C864.656 595.858 864.226 594.567 864.656 594.137C865.516 592.846 867.235 591.986 868.525 591.986C869.385 591.986 870.245 592.846 870.245 593.707C870.245 594.137 869.815 594.567 869.385 594.567Z" fill="#504F58"></path> <path d="M880.564 573.917H879.704V547.243L885.294 532.615L886.154 533.045L880.564 547.243V573.917Z" fill="#C9C3B9"></path> <path d="M917.971 579.509L882.714 540.359L883.144 539.929L918.401 579.079L917.971 579.509Z" fill="#C9C3B9"></path> <path d="M483.708 499.918L467.37 490.453L487.148 479.268L503.487 488.732L483.708 499.918Z" fill="#6B6164"></path> <path d="M816.5 631.136V674.158L798.011 663.403C793.282 647.915 782.103 633.717 769.204 626.404C752.005 616.509 749.426 628.125 739.966 645.333C739.107 646.624 738.247 650.066 738.247 650.066L592.919 566.173C592.919 564.452 592.919 562.301 592.919 560.149C592.919 540.359 578.73 516.267 561.532 505.941C544.333 496.046 530.145 503.79 530.145 523.581C530.145 525.732 530.145 527.883 530.145 529.604L483.708 502.93V338.155L767.054 502.069L783.823 591.556L816.5 631.136Z" fill="#DED8D1"></path> <path d="M497.467 474.535C497.467 476.686 496.177 477.116 494.457 476.256C492.738 475.396 491.448 472.814 491.448 471.093C491.448 469.372 492.738 468.512 494.457 469.372C495.747 469.803 497.467 472.384 497.467 474.535Z" fill="#CDC6BC"></path> <path d="M687.941 571.335L485.428 454.315V448.292L488.008 445.71L687.941 565.312L690.521 568.324L687.941 571.335Z" fill="#CDC6BC"></path> <path d="M808.331 647.915L803.601 645.333V639.74L804.891 635.438L810.48 645.764L808.331 647.915Z" fill="#B5AA9C"></path> <path d="M795.432 677.17C795.432 692.658 784.683 698.681 771.354 690.937C758.025 683.193 747.276 664.263 747.276 649.205C747.276 634.148 758.025 627.694 771.354 635.438C784.683 643.182 795.432 661.682 795.432 677.17Z" fill="#2D2C37"></path> <path d="M795.432 677.17C795.432 692.658 784.683 698.681 771.354 690.937C758.025 683.193 747.276 664.263 747.276 649.205C747.276 634.148 758.025 627.694 771.354 635.438C784.683 643.182 795.432 661.682 795.432 677.17Z" fill="#393843"></path> <path d="M793.712 676.74C793.712 691.367 783.393 697.39 770.494 690.077C757.595 682.763 747.276 664.694 747.276 649.636C747.276 634.578 757.595 628.985 770.494 636.299C783.393 644.043 793.712 662.112 793.712 676.74Z" fill="#2D2C37"></path> <path d="M585.61 555.847C585.61 571.335 574.861 577.358 561.532 569.614C548.203 561.87 537.454 542.941 537.454 527.883C537.454 512.395 548.203 506.372 561.532 514.116C574.861 521.86 585.61 540.789 585.61 555.847Z" fill="#393843"></path> <path d="M583.03 555.847C583.03 570.475 572.711 576.498 559.812 569.184C546.913 561.87 536.594 543.801 536.594 528.743C536.594 514.116 546.913 508.092 559.812 515.406C572.711 522.72 583.03 540.789 583.03 555.847Z" fill="#2D2C37"></path> <path d="M577.87 551.975C577.87 562.731 570.131 567.033 561.102 561.44C551.643 555.847 544.333 542.941 544.333 532.185C544.333 521.429 552.073 517.127 561.102 522.72C570.131 528.313 577.87 541.22 577.87 551.975Z" fill="#504F58"></path> <path d="M576.58 550.685C576.58 560.58 569.701 564.452 561.102 559.289C552.502 554.557 545.623 542.51 545.623 533.045C545.623 523.15 552.502 519.278 561.102 524.441C569.701 529.173 576.58 541.22 576.58 550.685Z" fill="#C4C2BB"></path> <path d="M575.291 549.824C575.291 558.428 569.271 561.87 561.532 557.568C553.792 553.266 547.773 542.51 547.773 533.906C547.773 525.301 553.792 521.86 561.532 526.162C562.392 526.592 562.822 527.022 563.682 527.452C569.701 531.755 574.431 539.929 575.291 547.243C575.291 548.103 575.291 548.963 575.291 549.824Z" fill="#B0AC9E"></path> <path d="M566.261 554.126C558.952 549.824 553.362 539.929 553.362 531.755C553.362 528.313 554.222 525.732 555.942 524.441C551.213 524.011 547.773 527.452 547.773 534.336C547.773 542.941 553.792 553.696 561.532 557.998C567.121 561.01 571.851 560.149 574.001 555.847C571.851 556.277 569.271 555.847 566.261 554.126Z" fill="#B7B4A9"></path> <path d="M574.431 548.533C574.431 553.696 570.561 555.847 565.831 553.266C561.102 550.685 557.232 544.231 557.232 538.638C557.232 533.045 561.102 531.325 565.831 533.906C570.561 536.487 574.431 542.941 574.431 548.533Z" fill="#CDC6BC"></path> <path d="M574.861 547.243C573.571 549.394 570.561 549.824 567.551 548.103C562.822 545.522 558.952 539.069 558.952 533.476C558.952 530.034 560.672 527.883 563.252 527.453C569.271 532.185 574.001 539.929 574.861 547.243Z" fill="#9D9783"></path> <path d="M561.532 528.313L555.082 531.755L567.551 551.975L573.571 548.533L569.701 538.208L561.532 528.313Z" fill="#9D9783"></path> <path d="M569.701 546.813C569.701 551.975 565.831 554.126 561.102 551.545C556.372 548.964 552.502 542.51 552.502 536.917C552.502 531.325 556.372 529.604 561.102 532.185C566.261 535.197 569.701 541.65 569.701 546.813Z" fill="#B7B4A9"></path> <path d="M568.841 546.813C568.841 551.975 565.401 554.126 560.672 551.545C556.372 548.964 552.502 542.941 552.502 537.778C552.502 532.615 555.942 530.464 560.672 533.045C565.401 535.197 568.841 541.65 568.841 546.813Z" fill="#D5D2C9"></path> <path d="M787.692 673.298C787.692 684.054 779.953 688.356 770.924 682.763C761.465 677.17 754.155 664.263 754.155 653.508C754.155 642.752 761.895 638.45 770.924 644.043C779.953 649.636 787.692 662.542 787.692 673.298Z" fill="#504F58"></path> <path d="M786.402 672.007C786.402 681.902 779.523 685.774 770.924 680.612C762.325 675.879 755.445 663.833 755.445 654.368C755.445 644.473 762.325 640.601 770.924 645.764C779.523 650.496 786.402 662.112 786.402 672.007Z" fill="#C4C2BB"></path> <path d="M784.253 670.717C784.253 679.321 778.233 682.763 770.924 678.461C763.614 674.159 757.595 663.833 757.595 655.229C757.595 646.625 763.614 643.183 770.924 647.485C778.663 652.217 784.253 662.543 784.253 670.717Z" fill="#B7B4A9"></path> <path d="M782.963 669.856C782.963 677.17 777.803 680.181 771.354 676.74C764.904 672.868 759.745 663.833 759.745 656.519C759.745 649.205 764.904 646.194 771.354 649.636C777.373 653.508 782.963 662.542 782.963 669.856Z" fill="#D5D2C9"></path> <path d="M776.943 668.135C776.943 672.437 773.934 674.158 770.064 672.007C766.194 669.856 763.184 664.263 763.184 659.961C763.184 655.659 766.194 653.938 770.064 656.089C773.934 658.24 776.943 663.833 776.943 668.135Z" fill="#CAC6BC"></path> <path d="M764.474 663.403C765.334 665.554 765.764 666.845 767.484 668.565C767.914 669.426 768.344 670.286 768.344 670.717C768.344 671.147 767.484 671.147 766.624 670.286C764.904 668.565 763.614 665.554 762.755 663.403C762.325 662.542 762.755 661.682 763.185 661.682C763.614 661.682 764.044 662.542 764.474 663.403Z" fill="#504F58"></path> <path d="M775.653 667.705C775.653 671.577 773.074 673.298 769.634 671.147C766.194 668.996 763.615 664.264 763.615 660.392C763.615 656.52 766.194 654.799 769.634 656.95C772.644 659.101 775.653 663.833 775.653 667.705Z" fill="#DDDDDB"></path> <path d="M772.644 665.984C772.644 668.136 771.354 668.996 769.204 667.705C767.484 666.845 765.764 663.833 765.764 662.112C765.764 659.961 767.054 659.101 769.204 660.392C770.924 661.252 772.644 663.833 772.644 665.984Z" fill="#B7B4A9"></path> <path d="M820.799 690.937L803.171 688.786L795.002 684.053L793.282 664.693L804.031 670.716L820.799 676.74V690.937Z" fill="#493F41"></path> <path d="M765.334 495.616L486.288 334.283L483.708 338.155L767.484 502.069L765.334 495.616Z" fill="#F3F1EE"></path> <path d="M688.801 563.591L486.288 446.571L488.008 445.71L690.521 562.3L688.801 563.591Z" fill="#6B6164"></path> <path d="M688.801 563.591V569.614L690.521 568.324V562.301L688.801 563.591Z" fill="#554D4E"></path> <path d="M693.53 618.229V487.442L751.575 520.999V604.462L732.657 641.031L693.53 618.229Z" fill="#CDC6BC"></path> <path d="M768.774 520.139L755.445 512.395V587.253L774.793 598.439L780.383 589.405L768.774 520.139Z" fill="#2D2C37"></path> <path d="M757.165 585.963V515.406L767.054 521.429L778.663 588.114L773.934 595.858L757.165 585.963Z" fill="#573F3F"></path> <path d="M483.708 499.918L467.37 490.453V493.465L483.708 502.93V499.918Z" fill="#493F41"></path> <path d="M811.34 646.624L804.461 642.752V634.578L811.34 638.45V646.624Z" fill="#504F58"></path> <path d="M810.48 645.764L803.171 638.02L804.891 635.438L810.48 638.88V645.764Z" fill="#FF9A2E"></path> <path d="M807.471 646.194L803.171 643.182V638.02L807.471 640.601V646.194Z" fill="#E06F2E"></path> <path d="M498.757 471.954C498.757 474.535 497.037 475.396 494.888 474.105C492.738 472.814 491.018 469.803 491.018 467.221C491.018 464.64 492.738 463.78 494.888 465.07C497.037 466.361 498.757 469.372 498.757 471.954Z" fill="#504F58"></path> <path d="M497.897 471.524C497.897 473.675 496.607 474.105 494.887 473.245C493.168 472.384 491.878 469.803 491.878 468.082C491.878 466.361 493.168 465.501 494.887 466.361C496.607 467.221 497.897 469.373 497.897 471.524Z" fill="#D83B2E"></path> <path d="M492.308 465.931C492.308 465.931 491.018 467.221 490.588 468.082C490.158 468.942 494.027 473.675 494.027 473.675C494.027 473.675 495.747 473.675 497.037 473.244C498.327 472.814 492.308 465.931 492.308 465.931Z" fill="#D83B2E"></path> <path d="M497.467 487.012C497.467 488.733 496.177 489.163 494.887 488.733C493.598 487.872 492.308 485.721 492.308 484C492.308 482.279 493.598 481.849 494.887 482.279C496.177 483.57 497.467 485.291 497.467 487.012Z" fill="#B5AA9C"></path> <path d="M605.388 549.394C605.388 551.115 604.098 551.545 602.808 551.115C601.518 550.254 600.229 548.103 600.229 546.382C600.229 544.662 601.518 544.231 602.808 544.662C604.098 545.952 605.388 547.673 605.388 549.394Z" fill="#B5AA9C"></path> <path d="M684.931 595.428C684.931 597.148 683.641 597.579 682.351 597.148C681.062 596.288 679.772 594.137 679.772 592.416C679.772 590.695 681.062 590.265 682.351 590.695C683.641 591.556 684.931 593.707 684.931 595.428Z" fill="#B5AA9C"></path> <path d="M495.318 471.954C495.318 473.675 494.028 474.105 492.738 473.245C491.448 472.384 490.158 470.663 490.158 468.942C490.158 467.221 491.448 466.791 492.738 467.652C494.028 468.512 495.318 470.663 495.318 471.954Z" fill="#FF512E"></path> <path d="M497.897 485.721C497.897 487.442 496.607 487.872 495.318 487.442C494.028 486.581 492.738 484.43 492.738 482.709C492.738 480.988 494.028 480.558 495.318 480.988C496.607 481.849 497.897 484 497.897 485.721Z" fill="#9DA1BF"></path> <path d="M605.818 548.103C605.818 549.824 604.528 550.254 603.238 549.824C601.948 548.964 600.658 546.812 600.658 545.092C600.658 543.371 601.948 542.941 603.238 543.371C604.528 544.661 605.818 546.382 605.818 548.103Z" fill="#9DA1BF"></path> <path d="M685.361 594.137C685.361 595.858 684.071 596.288 682.781 595.858C681.492 594.997 680.202 592.846 680.202 591.125C680.202 589.404 681.492 588.974 682.781 589.404C684.071 590.265 685.361 592.416 685.361 594.137Z" fill="#9DA1BF"></path> <path d="M497.037 486.151C497.037 487.872 495.747 488.302 494.457 487.872C493.168 487.012 491.878 484.861 491.878 483.14C491.878 481.419 493.168 480.989 494.457 481.419C495.747 482.279 497.037 484.43 497.037 486.151Z" fill="#F9F1EC"></path> <path d="M496.607 485.721C496.607 487.012 495.747 487.872 494.457 487.012C493.168 486.151 492.308 484.43 492.308 483.14C492.308 481.849 493.168 480.989 494.457 481.849C495.747 482.709 496.607 484.43 496.607 485.721Z" fill="#E06F2E"></path> <path d="M605.388 548.533C605.388 550.254 604.098 550.684 602.808 550.254C601.518 549.394 600.229 547.243 600.229 545.522C600.229 543.801 601.518 543.371 602.808 543.801C604.098 544.661 605.388 546.812 605.388 548.533Z" fill="#F9F1EC"></path> <path d="M604.958 548.103C604.958 549.394 604.098 550.254 602.808 549.394C601.518 548.533 600.658 546.812 600.658 545.522C600.658 544.231 601.518 543.371 602.808 544.231C603.668 545.092 604.958 546.812 604.958 548.103Z" fill="#E06F2E"></path> <path d="M684.501 594.137C684.501 595.858 683.211 596.288 681.921 595.858C680.631 594.997 679.342 592.846 679.342 591.125C679.342 589.404 680.631 588.974 681.921 589.404C683.641 590.695 684.501 592.846 684.501 594.137Z" fill="#F9F1EC"></path> <path d="M684.071 594.137C684.071 595.428 683.211 596.288 681.922 595.427C680.632 594.567 679.772 592.846 679.772 591.555C679.772 590.265 680.632 589.404 681.922 590.265C683.211 591.125 684.071 592.846 684.071 594.137Z" fill="#E06F2E"></path> <path d="M500.907 354.503L491.878 349.341V345.038L500.907 350.631V354.503Z" fill="#CDC6BC"></path> <path d="M500.047 353.212L492.738 348.91V345.899L500.047 350.201V353.212Z" fill="#E06F2E"></path> <path d="M613.987 419.897L604.958 414.734V410.432L613.987 415.595V419.897Z" fill="#CDC6BC"></path> <path d="M613.128 418.606L605.388 414.304V411.292L613.128 415.595V418.606Z" fill="#E06F2E"></path> <path d="M756.305 502.069L747.276 496.907V492.604L756.305 498.197V502.069Z" fill="#CDC6BC"></path> <path d="M755.445 500.779L748.136 496.476V493.465L755.445 497.767V500.779Z" fill="#E06F2E"></path> <path d="M736.957 576.498L705.569 558.429C702.13 556.708 699.55 551.545 699.55 546.813V504.221C699.55 499.918 702.13 497.767 705.569 499.488L736.957 517.557C740.396 519.278 742.976 524.441 742.976 529.173V571.765C742.976 576.068 740.396 578.219 736.957 576.498Z" fill="#2D2C37"></path> <path d="M701.27 548.103V504.651C701.27 501.639 702.99 499.918 705.569 501.639L736.957 519.709C739.106 520.999 741.256 524.871 741.256 527.883V571.335C741.256 574.347 739.536 576.068 736.957 574.347L705.569 556.277C703.42 554.987 701.27 551.115 701.27 548.103Z" fill="#573F3F"></path> <path d="M715.459 612.636L705.999 607.044C702.56 605.323 699.98 600.16 699.98 595.428V568.324C699.98 564.021 702.56 561.87 705.999 563.591L715.459 569.184C718.898 570.905 721.478 576.068 721.478 580.8V607.904C721.478 612.636 718.468 614.788 715.459 612.636Z" fill="#2D2C37"></path> <path d="M701.27 597.148V569.184C701.27 566.172 702.99 564.452 705.569 566.172L715.029 571.765C717.178 573.056 719.328 576.928 719.328 579.94V607.904C719.328 610.915 717.608 612.636 715.029 610.915L705.569 605.323C703.42 604.032 701.27 600.16 701.27 597.148Z" fill="#573F3F"></path> <path d="M777.803 662.972C776.943 660.821 776.513 659.531 774.794 657.81C774.364 656.949 773.934 656.089 773.934 655.659C773.934 655.228 774.794 655.228 775.653 656.089C777.373 657.81 778.663 660.821 779.523 662.972C779.953 663.833 779.523 664.693 779.093 664.693C778.663 664.693 778.233 663.833 777.803 662.972Z" fill="#504F58"></path> <path d="M774.363 672.868C776.083 672.868 776.513 672.438 777.373 671.147C777.803 670.717 778.233 670.717 778.663 671.147C779.093 671.577 779.523 672.868 779.093 673.298C778.233 674.589 776.513 675.449 775.223 675.449C774.363 675.449 773.503 674.589 773.503 673.728C773.503 673.298 773.933 672.868 774.363 672.868Z" fill="#504F58"></path> <path d="M767.484 653.508C765.764 653.508 765.334 653.938 764.474 655.229C764.044 655.659 763.614 655.659 763.184 655.229C762.755 654.799 762.325 653.508 762.755 653.078C763.614 651.787 765.334 650.927 766.624 650.927C767.484 650.927 768.344 651.787 768.344 652.648C768.774 653.078 768.344 653.508 767.484 653.508Z" fill="#504F58"></path> <path d="M767.054 669.426C765.334 667.705 764.044 664.693 763.185 662.542C763.185 662.112 763.185 661.682 763.185 661.682C762.755 661.682 762.325 662.112 762.755 663.403C763.614 665.554 764.904 668.565 766.624 670.286C767.484 671.147 768.344 671.147 768.344 670.717V670.286C767.914 670.286 767.484 669.856 767.054 669.426Z" fill="#B7B4A9"></path> <path d="M779.953 663.833C779.523 663.833 778.663 662.973 778.663 662.112C777.803 659.961 777.373 658.67 775.653 656.949C775.223 656.519 774.793 655.659 774.793 655.229C774.363 655.229 774.364 655.228 774.364 655.659C774.364 656.089 774.364 656.949 775.223 657.81C776.943 659.531 777.373 660.821 778.233 662.973C778.663 663.833 779.093 664.693 779.523 664.693C779.523 664.693 779.953 664.693 779.953 663.833Z" fill="#B7B4A9"></path> <path d="M776.083 675.018C775.223 675.018 774.363 674.158 774.363 673.297V672.867C773.933 672.867 773.503 673.297 773.933 674.158C773.933 675.018 774.793 675.879 775.653 675.879C777.373 675.879 779.093 675.018 779.523 673.728C778.663 674.158 777.373 675.018 776.083 675.018Z" fill="#B7B4A9"></path> <path d="M763.615 654.368C763.185 653.938 762.755 652.647 763.185 652.217C763.185 652.217 762.755 652.647 762.755 653.077C762.325 653.508 762.755 654.798 763.185 655.229C763.614 655.659 764.474 655.659 764.474 655.229C764.474 654.798 764.904 654.798 764.904 654.368C764.904 654.798 764.044 654.798 763.615 654.368Z" fill="#B7B4A9"></path> <path d="M768.344 652.647C766.624 652.647 766.194 653.077 765.334 653.937C765.764 653.507 766.624 653.077 767.914 653.077C767.914 653.507 768.344 653.077 768.344 652.647Z" fill="#B7B4A9"></path> <path d="M778.663 632.857H777.803V605.753L783.823 591.556L784.683 591.986L778.663 606.183V632.857Z" fill="#C9C3B9"></path> <path d="M816.07 638.45L780.813 599.3L781.673 598.439L816.93 638.02L816.07 638.45Z" fill="#C9C3B9"></path> <path d="M918.401 572.196L816.5 631.136V673.728L918.401 615.218V572.196Z" fill="#E4DFD9"></path> <path d="M896.043 587.253L838.428 620.381V662.973L896.043 629.415V587.253Z" fill="#EBE7E3"></path> <path d="M893.463 594.137L841.438 624.253V634.578L893.463 604.893V594.137Z" fill="#554D4E"></path> <path d="M893.463 613.067L841.438 642.752V658.24L893.463 628.555V613.067Z" fill="#554D4E"></path> <path d="M890.453 602.741L841.438 631.136V634.578L893.463 604.893V594.137L890.453 595.858V602.741Z" fill="#CDC6BC"></path> <path d="M890.453 614.788V626.834L841.438 654.798V658.24L893.463 628.555V613.067L890.453 614.788Z" fill="#CDC6BC"></path> <path d="M816.5 631.136L918.401 572.196L885.724 533.045L784.252 591.556L816.5 631.136Z" fill="#F3F1EE"></path> <path d="M784.252 591.556L816.93 628.985L835.848 618.66L916.681 571.765L885.724 533.045L918.401 572.196L816.5 631.136L784.252 591.556Z" fill="#FAF8F5"></path> <path d="M838.428 620.38L896.043 587.253L875.835 563.161L818.22 596.718L838.428 620.38Z" fill="#F3F1EE"></path> <path d="M767.484 502.069L868.955 443.129L885.724 533.045L784.252 591.556L767.484 502.069Z" fill="#EBE7E3"></path> <path d="M835.848 556.277L836.278 557.998L785.542 587.253L773.503 518.418L824.239 489.163V490.883L835.848 556.277Z" fill="#554D4E"></path> <path d="M834.558 557.138L816.07 567.893L786.832 584.672L784.253 569.184L775.653 520.999V519.278L803.601 502.93L822.949 491.744L830.259 533.906L831.978 542.51L834.558 557.138Z" fill="#B08480"></path> <path d="M883.144 530.894L837.998 556.707V554.987L826.389 490.023L825.959 488.302L871.105 462.059L883.144 530.894Z" fill="#554D4E"></path> <path d="M880.994 530.034L865.945 539.068L844.877 551.115L839.288 554.126L837.138 541.65L836.708 539.499L828.969 496.476L827.679 489.163L853.906 474.105L869.815 464.64L875.835 499.488L880.564 526.592L880.994 530.034Z" fill="#B08480"></path> <path d="M880.564 529.173L879.274 531.325L872.395 535.197L859.066 527.453V471.093L869.385 465.07L880.564 529.173Z" fill="#D6B6B2"></path> <path d="M767.484 502.069L868.955 443.129L867.235 437.106L765.334 495.616L767.484 502.069Z" fill="#F3F1EE"></path> <path d="M867.235 437.106L587.759 275.772L486.288 334.283L765.334 495.616L867.235 437.106Z" fill="#FCFBFA"></path> <path d="M923.13 617.799L820.799 676.74V690.937L923.13 631.997V617.799Z" fill="#554D4E"></path> <path d="M810.48 638.88L807.471 640.601V646.194L810.48 645.763V638.88Z" fill="#E07427"></path> <path d="M836.278 619.52V662.542L838.428 662.973V620.38L836.278 619.52Z" fill="#DED8D1"></path> <path d="M688.801 569.614L486.288 452.594V446.571L688.801 563.591V569.614Z" fill="#493F41"></path> <path d="M897.763 622.531L911.951 614.357L899.053 616.508L897.763 618.229V622.531Z" fill="#B5AA9C"></path> <path d="M898.623 587.683L909.372 582.521C910.232 582.09 911.091 582.521 911.091 583.811V606.183C911.091 607.474 910.232 608.764 909.372 609.625L898.623 615.648C897.763 616.078 896.903 615.648 896.903 614.357V591.986C896.903 590.695 897.763 588.114 898.623 587.683Z" fill="#B5AA9C"></path> <path d="M912.811 580.8L911.521 580.37C911.092 580.37 910.662 580.37 910.232 580.37L899.483 586.393C898.623 586.823 897.763 588.544 897.763 589.835V612.206C897.763 612.636 897.763 613.067 898.193 613.497L899.053 613.927L899.483 613.067L910.232 607.043C911.092 606.613 911.951 604.892 911.951 603.602V582.091L912.811 580.8Z" fill="#393843"></path> <path d="M900.773 587.253L911.522 581.23C912.382 580.8 913.241 581.23 913.241 582.521V604.892C913.241 606.183 912.382 607.474 911.522 608.334L900.773 614.357C899.913 614.788 899.053 614.357 899.053 613.067V590.695C898.623 589.404 899.483 587.683 900.773 587.253Z" fill="#5C5B64"></path> <path d="M901.202 588.544L910.662 582.951C911.522 582.521 911.952 582.951 911.952 583.811V604.462C911.952 605.323 911.522 606.183 910.662 606.613L901.202 612.206C900.343 612.636 899.913 612.206 899.913 611.346V590.695C899.913 589.835 900.343 588.974 901.202 588.544Z" fill="#CFCEDF"></path> <path d="M914.101 584.672L911.952 582.951L900.343 612.206L902.922 612.636L914.101 584.672Z" fill="#CFCEDF"></path> <path d="M903.782 590.265L913.241 585.102C914.101 584.672 914.531 585.102 914.531 585.963V605.753C914.531 606.613 914.101 607.474 913.241 607.904L903.782 613.067C902.922 613.497 902.492 613.067 902.492 612.206V592.416C902.492 591.555 903.352 590.695 903.782 590.265Z" fill="#F3F1EE"></path> <path d="M901.632 589.404L911.092 584.242C911.952 583.812 912.382 584.242 912.382 585.102V604.892C912.382 605.753 911.952 606.613 911.092 607.044L901.632 612.206C900.773 612.637 900.343 612.206 900.343 611.346V591.556C900.343 590.695 900.773 589.835 901.632 589.404Z" fill="#EEFAF9"></path> <path d="M900.772 621.671L914.531 613.497V609.195L900.772 617.369V621.671Z" fill="#E07427"></path> <path d="M900.773 617.369L899.053 616.508L912.811 608.334L914.531 609.194L900.773 617.369Z" fill="#FF9A2E"></path> <path d="M900.773 617.369L899.053 616.508V620.811L900.773 621.671V617.369Z" fill="#E06F2E"></path> <path d="M819.51 667.705L833.698 659.961L820.799 661.682L819.51 663.833V667.705Z" fill="#B5AA9C"></path> <path d="M820.369 632.857L831.118 627.694C831.978 627.264 832.838 627.694 832.838 628.985V651.356C832.838 652.647 831.978 653.938 831.118 654.798L820.369 660.821C819.509 661.251 818.649 660.821 818.649 659.531V637.159C818.649 636.299 819.509 633.287 820.369 632.857Z" fill="#B5AA9C"></path> <path d="M834.558 626.403L833.268 625.973C832.838 625.973 832.408 625.973 831.978 625.973L821.229 631.996C820.369 632.426 819.51 634.147 819.51 635.438V657.81C819.51 658.24 819.509 658.67 819.939 659.1L820.799 659.531L821.229 658.67L831.978 652.647C832.838 652.217 833.698 650.496 833.698 649.205V627.694L834.558 626.403Z" fill="#393843"></path> <path d="M822.519 632.427L833.268 626.404C834.128 625.973 834.988 626.403 834.988 627.694V650.066C834.988 651.356 834.128 652.647 833.268 653.507L822.519 659.531C821.659 659.961 820.799 659.531 820.799 658.24V635.868C820.369 634.578 821.229 633.287 822.519 632.427Z" fill="#5C5B64"></path> <path d="M822.949 633.717L832.408 628.124C833.268 627.694 833.698 628.124 833.698 628.985V649.635C833.698 650.496 833.268 651.356 832.408 651.787L822.949 657.379C822.089 657.81 821.659 657.379 821.659 656.519V635.868C821.659 635.008 822.089 634.147 822.949 633.717Z" fill="#CFCEDF"></path> <path d="M835.848 629.845L833.698 628.125L822.089 657.38L824.669 658.24L835.848 629.845Z" fill="#CFCEDF"></path> <path d="M825.529 635.438L834.988 630.275C835.848 629.845 836.278 630.275 836.278 631.136V650.926C836.278 651.787 835.848 652.647 834.988 653.077L825.529 658.24C824.669 658.67 824.239 658.24 824.239 657.379V637.589C824.239 636.729 825.099 635.868 825.529 635.438Z" fill="#F3F1EE"></path> <path d="M822.519 666.845L836.278 659.101V654.799L822.519 662.543V666.845Z" fill="#E07427"></path> <path d="M899.482 620.811L913.241 612.636V608.764L899.482 616.508V620.811Z" fill="#F5EC73"></path> <path d="M821.229 665.984L834.988 658.239V653.937L821.229 662.111V665.984Z" fill="#F5EC73"></path> <path d="M822.519 662.542L820.799 661.682L834.558 653.507L836.278 654.798L822.519 662.542Z" fill="#FF9A2E"></path> <path d="M822.519 662.542L820.799 661.682V665.984L822.519 666.844V662.542Z" fill="#E06F2E"></path> <path d="M696.54 616.509V489.163L693.53 487.442V618.229L732.657 641.031L733.947 638.02L696.54 616.509Z" fill="#9B897F"></path> <path d="M831.978 542.51L834.558 557.138L786.832 584.672L784.252 569.184L831.978 542.51Z" fill="#997A77"></path> <path d="M880.994 530.034L839.288 554.126L836.708 539.499L865.945 523.15L880.564 526.592L880.994 530.034Z" fill="#997A77"></path> <path d="M696.54 616.509L693.53 618.229L732.657 641.031L733.947 638.02L696.54 616.509Z" fill="#F3F1EE"></path> <path d="M730.507 651.356L683.211 623.822V626.834L730.507 654.368V651.356Z" fill="#493F41"></path> <path d="M730.507 651.357L738.246 647.055V650.066L730.507 654.368V651.357Z" fill="#554D4E"></path> <path d="M730.507 651.357L738.247 647.054L690.521 619.52L683.211 623.822L730.507 651.357Z" fill="#6B6164"></path> <path d="M823.379 634.148L832.838 628.985C833.698 628.555 834.128 628.985 834.128 629.845V649.636C834.128 650.496 833.698 651.357 832.838 651.787L823.379 656.949C822.519 657.38 822.089 656.949 822.089 656.089V636.299C822.089 635.438 822.519 634.578 823.379 634.148Z" fill="#EEFAF9"></path> <path d="M696.54 489.163V491.744L748.136 522.29V604.462L731.367 636.729L733.947 638.02L751.575 604.462V520.999L696.54 489.163Z" fill="#F2F1F0"></path> <path d="M836.278 619.52L809.19 586.393L838.428 620.38L836.278 619.52Z" fill="#DED8D1"></path> <path d="M890.453 602.741L893.463 604.893L841.438 634.578V631.136L890.453 602.741Z" fill="#F3F1EE"></path> <path d="M890.453 626.834L893.463 628.555L841.438 658.24V654.798L890.453 626.834Z" fill="#F3F1EE"></path> <path d="M822.949 491.744L824.669 502.93L816.93 495.186L822.949 491.744Z" fill="#CBCADD"></path> <path d="M843.158 480.128V512.395C843.158 515.406 841.438 517.127 838.858 515.406L831.549 508.523L828.109 488.732L843.158 480.128Z" fill="#CBCADD"></path> <path d="M824.669 502.93L816.93 495.186L822.949 491.744L824.669 502.93Z" fill="#D6B6B2"></path> <path d="M827.679 489.163L842.727 480.558V512.825C842.727 515.836 841.008 517.557 838.428 515.836L831.118 508.953L827.679 489.163Z" fill="#D6B6B2"></path> <path d="M764.474 490.023L492.738 332.992L494.887 331.701L764.904 490.023H764.474Z" fill="#EBE7E3"></path> <path d="M764.904 489.163L493.597 332.131L495.317 331.271L767.054 488.302L764.904 489.163Z" fill="#FCFBFA"></path> <path d="M764.904 489.162V490.023L767.054 488.732V488.302L764.904 489.162Z" fill="#EBE7E3"></path> <path d="M764.904 490.023L493.597 332.992V332.131L764.904 489.162V490.023Z" fill="#CDC6BC"></path> <path d="M776.943 482.709L505.207 325.678L507.356 324.387L777.373 482.709H776.943Z" fill="#EBE7E3"></path> <path d="M777.373 482.279L506.066 325.248L507.786 323.957L779.523 480.988L777.373 482.279Z" fill="#FCFBFA"></path> <path d="M777.373 482.279V482.709L779.523 481.849V480.988L777.373 482.279Z" fill="#EBE7E3"></path> <path d="M777.373 482.709L506.066 325.678V325.248L777.373 482.279V482.709Z" fill="#CDC6BC"></path> <path d="M789.412 475.395L517.675 318.364L519.825 317.504L789.842 475.395H789.412Z" fill="#EBE7E3"></path> <path d="M789.842 474.965L518.535 317.934L520.255 316.644L791.992 473.675L789.842 474.965Z" fill="#FCFBFA"></path> <path d="M789.842 474.965V475.396L791.992 474.535V473.675L789.842 474.965Z" fill="#EBE7E3"></path> <path d="M789.842 475.396L518.535 318.365V317.934L789.842 474.965V475.396Z" fill="#CDC6BC"></path> <path d="M801.881 468.512L530.144 311.051L532.294 310.19L802.311 468.512H801.881Z" fill="#EBE7E3"></path> <path d="M802.311 467.652L531.004 310.62L532.724 309.33L804.461 466.791L802.311 467.652Z" fill="#FCFBFA"></path> <path d="M802.311 467.652V468.512L804.461 467.221V466.791L802.311 467.652Z" fill="#EBE7E3"></path> <path d="M802.311 468.512L531.004 311.051V310.621L802.311 467.652V468.512Z" fill="#CDC6BC"></path> <path d="M814.35 461.198L543.043 304.167L544.763 302.876L815.21 461.198H814.35Z" fill="#EBE7E3"></path> <path d="M815.21 460.338L543.473 303.307L545.193 302.446L816.93 459.477L815.21 460.338Z" fill="#FCFBFA"></path> <path d="M815.21 460.338V461.198L816.93 459.908V459.478L815.21 460.338Z" fill="#EBE7E3"></path> <path d="M815.21 461.198L543.473 304.167V303.307L815.21 460.338V461.198Z" fill="#CDC6BC"></path> <path d="M826.819 453.884L555.512 296.853L557.232 295.562L827.679 453.884H826.819Z" fill="#EBE7E3"></path> <path d="M827.679 453.454L555.942 295.993L558.092 295.132L829.399 452.163L827.679 453.454Z" fill="#FCFBFA"></path> <path d="M827.679 453.454V453.884L829.399 452.594V452.164L827.679 453.454Z" fill="#EBE7E3"></path> <path d="M827.679 453.884L555.942 296.853V295.993L827.679 453.454V453.884Z" fill="#CDC6BC"></path> <path d="M839.288 446.571L567.981 289.539L569.701 288.679L840.148 446.571H839.288Z" fill="#EBE7E3"></path> <path d="M840.147 446.14L568.411 289.109L570.561 287.819L841.867 444.85L840.147 446.14Z" fill="#FCFBFA"></path> <path d="M840.147 446.14V446.57L841.867 445.71V444.85L840.147 446.14Z" fill="#EBE7E3"></path> <path d="M840.148 446.571L568.411 289.54V289.109L840.148 446.14V446.571Z" fill="#CDC6BC"></path> <path d="M851.757 439.257L580.45 282.226L582.17 281.365L852.617 439.257H851.757Z" fill="#EBE7E3"></path> <path d="M852.617 438.827L580.88 281.796L583.03 280.505L854.336 437.536L852.617 438.827Z" fill="#FCFBFA"></path> <path d="M852.617 438.827V439.257L854.337 438.396V437.536L852.617 438.827Z" fill="#EBE7E3"></path> <path d="M852.617 439.257L580.88 282.226V281.796L852.617 438.827V439.257Z" fill="#CDC6BC"></path> <path d="M790.702 477.977L786.402 475.396L789.842 473.244L793.282 477.977H790.702Z" fill="#EBE7E3"></path> <path d="M793.282 477.977L796.721 475.826V474.105L793.282 476.256V477.977Z" fill="#E07427"></path> <path d="M793.282 476.256L788.982 473.675L792.422 471.523L796.721 474.105L793.282 476.256Z" fill="#FF9A2E"></path> <path d="M793.282 476.256L788.982 473.675V475.395L793.282 477.977V476.256Z" fill="#E06F2E"></path> <path d="M808.33 467.652L804.031 465.07L807.47 462.919L810.91 467.652H808.33Z" fill="#EBE7E3"></path> <path d="M810.91 467.651L814.78 465.5V463.78L810.91 465.931V467.651Z" fill="#E07427"></path> <path d="M810.91 465.931L806.611 463.349L810.05 461.198L814.78 463.78L810.91 465.931Z" fill="#FF9A2E"></path> <path d="M810.91 465.931L806.611 463.349V465.07L810.91 467.652V465.931Z" fill="#E06F2E"></path> <path d="M826.389 456.896L821.659 454.315L825.099 452.164L828.969 456.896H826.389Z" fill="#EBE7E3"></path> <path d="M828.969 456.896L832.408 454.745V453.024L828.969 455.175V456.896Z" fill="#E07427"></path> <path d="M828.969 455.175L824.239 452.594L827.679 450.443L832.409 453.024L828.969 455.175Z" fill="#FF9A2E"></path> <path d="M828.969 455.175L824.239 452.594V454.315L828.969 456.896V455.175Z" fill="#E06F2E"></path> <path d="M817.79 582.521L841.008 569.184L836.278 563.591L813.06 577.358L817.79 582.521Z" fill="#CDC6BC"></path> <path d="M850.037 564.021L873.255 550.254L868.955 545.092L845.737 558.429L850.037 564.021Z" fill="#CDC6BC"></path> <path d="M827.679 565.312C828.109 565.742 828.969 565.742 829.399 565.312C829.829 564.882 829.829 563.591 829.399 563.161C828.969 562.731 828.109 562.731 827.679 563.161C826.819 564.021 826.819 564.882 827.679 565.312Z" fill="#493F41"></path> <path d="M827.679 565.312C828.109 565.742 828.969 565.742 828.969 565.312C829.399 564.882 829.399 564.021 828.969 563.591C828.539 563.161 828.109 563.161 827.679 563.591C827.249 564.021 827.249 564.882 827.679 565.312Z" fill="#493F41"></path> <path d="M828.109 563.161H828.969C829.399 563.161 828.969 564.882 828.969 564.882C828.969 564.882 828.539 565.312 827.679 565.312C827.679 565.742 828.109 563.161 828.109 563.161Z" fill="#493F41"></path> <path d="M828.539 564.882C828.969 565.312 829.399 565.312 829.829 564.882C830.259 564.452 830.259 564.021 829.829 563.591C829.399 563.161 828.969 563.161 828.539 563.591C828.109 564.021 828.539 564.882 828.539 564.882Z" fill="#5C504E"></path> <path d="M831.978 542.51L834.558 557.138L816.07 567.893L775.653 520.999V519.278L803.601 502.93L830.259 533.906L831.978 542.51Z" fill="#383838"></path> <path d="M844.877 551.115L839.288 554.126L837.138 541.65L844.877 551.115Z" fill="#383838"></path> <path d="M880.994 530.034L865.945 539.069L828.969 496.477L827.679 489.163L853.906 474.105L875.835 499.488L880.564 526.592L880.994 530.034Z" fill="#383838"></path> <path d="M851.327 665.554L844.877 669.426V666.414L851.327 662.542V665.554Z" fill="#493F41"></path> <path d="M850.897 665.554L845.307 668.565V666.414L850.897 663.403V665.554Z" fill="#E06F2E"></path> <path d="M897.333 637.589L892.173 640.601V638.88L897.333 635.438V637.589Z" fill="#E06F2E"></path> <path d="M817.36 564.882L816.07 566.172L828.109 565.312V563.161L817.36 564.882Z" fill="#493F41"></path> <path d="M828.969 559.719L794.142 577.789L793.712 576.498L827.679 557.998L828.969 559.719Z" fill="#5C504E"></path> <path d="M652.254 526.162C650.534 526.162 648.814 525.732 647.094 524.871L589.909 491.744C583.46 488.302 578.73 478.837 578.73 470.663V437.966C578.73 433.234 580.45 429.792 583.03 428.071C585.61 426.78 588.619 426.78 591.629 428.501L648.814 461.628C655.264 465.07 659.993 474.535 659.993 482.709V515.406C659.993 520.139 658.273 523.58 655.694 525.301C654.834 525.732 653.544 526.162 652.254 526.162ZM649.244 520.999C650.534 521.86 652.254 522.29 653.974 521.429C655.694 520.569 656.554 517.988 656.554 514.976V482.279C656.554 475.396 652.254 467.652 647.524 464.64L590.339 431.513C589.049 430.652 587.329 430.222 585.61 431.083C583.89 431.943 583.03 434.524 583.03 437.536V470.233C583.03 477.116 587.329 484.86 592.059 487.872L649.244 520.999Z" fill="#E9E5E1"></path> <path d="M652.254 524.441C650.534 524.441 648.814 524.011 647.094 523.15L589.909 490.023C583.46 486.581 578.73 477.116 578.73 468.942V436.245C578.73 431.513 580.45 428.071 583.46 426.35C586.04 425.06 589.049 425.06 592.059 426.78L649.244 459.908C655.694 463.349 660.423 472.814 660.423 480.988V513.685C660.423 518.418 658.703 521.86 656.124 523.58C654.834 524.011 653.544 524.441 652.254 524.441ZM587.329 429.362C586.9 429.362 586.04 429.362 585.61 429.792C583.89 430.652 583.03 433.234 583.03 436.245V468.942C583.03 475.826 587.329 483.57 592.059 486.581L649.244 519.708C650.534 520.569 652.254 520.999 653.974 520.139C655.694 519.278 656.553 516.697 656.553 513.685V480.988C656.553 474.105 652.254 466.361 647.524 463.349L590.339 430.222C589.479 429.792 588.189 429.362 587.329 429.362Z" fill="#D9D3CC"></path> <path d="M563.681 474.965C561.962 474.965 560.242 474.535 558.522 473.675L501.337 440.548C494.887 437.106 490.158 427.641 490.158 419.467V386.77C490.158 382.037 491.878 378.595 494.457 376.875C497.037 375.584 500.047 375.584 503.057 377.305L560.242 410.432C566.691 413.874 571.421 423.339 571.421 431.513V464.21C571.421 468.942 569.701 472.384 567.121 474.105C565.831 474.535 564.971 474.965 563.681 474.965ZM560.672 469.803C561.962 470.663 563.681 471.093 565.401 470.233C567.121 469.372 567.981 466.791 567.981 463.78V431.083C567.981 424.199 563.681 416.455 558.952 413.443L501.767 380.316C500.477 379.456 498.757 379.026 497.037 379.886C495.317 380.747 494.457 383.328 494.457 386.34V419.036C494.457 425.92 498.757 433.664 503.487 436.676L560.672 469.803Z" fill="#E9E5E1"></path> <path d="M563.681 472.814C561.962 472.814 560.242 472.384 558.522 471.523L501.337 438.396C494.887 434.955 490.158 425.49 490.158 417.315V384.619C490.158 379.886 491.878 376.444 494.457 374.723C497.037 373.433 500.047 373.433 503.057 375.154L560.242 408.281C566.691 411.723 571.421 421.188 571.421 429.362V462.059C571.421 466.791 569.701 470.233 566.691 471.954C565.831 472.814 564.971 472.814 563.681 472.814ZM498.327 377.735C497.897 377.735 497.037 377.735 496.607 378.165C494.887 379.026 494.027 381.607 494.027 384.619V417.315C494.027 424.199 498.327 431.943 503.057 434.955L560.242 468.082C561.532 468.942 563.251 469.372 564.971 468.512C566.691 467.652 567.551 465.07 567.551 462.059V429.362C567.551 422.478 563.251 414.734 558.522 411.723L501.337 378.595C500.477 378.165 499.617 377.735 498.327 377.735Z" fill="#D9D3CC"></path> <path d="M686.221 554.987L483.708 437.966V432.373L686.221 548.963V554.987Z" fill="#F5B53D"></path> <path d="M514.236 403.118V415.164C514.236 417.316 516.816 418.606 518.535 417.746L528.855 411.723C531.004 410.432 531.004 407.851 528.855 406.56L518.535 400.537C516.816 399.676 514.236 400.967 514.236 403.118Z" fill="#DE4037"></path> <path d="M544.763 446.14V434.094C544.763 431.943 542.184 430.652 540.464 431.513L530.145 437.536C527.995 438.827 527.995 441.408 530.145 442.699L540.464 448.722C542.613 450.013 544.763 448.292 544.763 446.14Z" fill="#DE4037"></path> <path d="M515.526 434.524L523.695 439.257C526.275 440.548 529.285 437.966 527.565 435.385L519.395 421.188C518.106 418.606 513.806 419.467 513.806 422.478V431.943C514.236 432.804 514.666 433.664 515.526 434.524Z" fill="#F5B53D"></path> <path d="M543.473 415.164L535.304 410.432C532.724 409.141 529.714 411.723 531.434 414.304L539.604 428.501C540.893 431.083 545.193 430.222 545.193 427.211V417.746C544.763 416.455 544.333 415.595 543.473 415.164Z" fill="#F5B53D"></path> <path d="M567.121 438.827C567.121 443.129 564.541 444.42 560.242 441.838L555.082 438.827V424.629L560.672 427.641C564.541 430.222 567.121 434.525 567.121 438.827ZM562.822 436.245C562.822 434.094 561.962 432.373 560.242 431.083L558.952 430.222V437.106L560.672 437.966C561.962 439.257 562.822 438.397 562.822 436.245Z" fill="#493F41"></path> <path d="M578.73 438.397V441.838L572.281 438.397V440.118L577.87 443.559V447.001L572.281 443.559V445.28L578.73 449.152V452.594L568.411 446.571V432.374L578.73 438.397Z" fill="#493F41"></path> <path d="M584.32 441.838V452.164L589.479 455.175V459.047L580.45 453.885V439.687L584.32 441.838Z" fill="#493F41"></path> <path d="M594.639 447.431V461.628L590.769 459.477V445.28L594.639 447.431Z" fill="#493F41"></path> <path d="M599.798 450.443L602.378 461.198L604.958 453.454L609.258 456.036L604.528 467.221L600.228 464.64L595.499 447.861L599.798 450.443Z" fill="#493F41"></path> <path d="M620.007 462.059V465.501L613.557 462.059V463.78L619.147 467.221V470.663L613.557 467.221V468.942L620.007 472.814V476.256L609.688 470.233V456.036L620.007 462.059Z" fill="#493F41"></path> <path d="M628.606 481.419L627.316 477.116L625.596 476.256V479.698L621.727 477.547V463.349L627.746 466.791C631.186 468.512 632.906 471.524 632.906 474.965C632.906 477.116 632.046 477.977 630.756 478.407L633.336 484.43L628.606 481.419ZM625.596 472.384L627.316 473.675C628.176 474.105 628.606 473.675 628.606 472.814C628.606 471.954 628.176 470.663 627.316 470.233L625.596 468.942V472.384Z" fill="#493F41"></path> <path d="M641.935 484.43V488.733L638.065 486.581V482.279L633.766 469.803L637.635 471.954L640.215 478.837L642.795 474.965L646.664 477.117L641.935 484.43Z" fill="#493F41"></path> <path d="M558.522 450.013C558.092 450.013 558.092 450.013 558.092 450.013C558.092 451.303 562.822 453.024 562.822 456.896C562.822 459.047 561.102 459.047 558.952 458.187C557.232 457.326 555.942 455.606 554.652 453.885L555.512 452.164C556.372 453.454 558.092 455.175 558.952 455.606C559.382 456.036 559.812 456.036 559.812 455.606C559.812 454.315 555.082 452.594 555.082 449.152C555.082 447.001 556.372 446.571 558.952 447.861C560.242 448.722 561.962 450.013 562.822 451.303L561.962 453.024C560.672 452.164 558.952 450.443 558.522 450.013Z" fill="#493F41"></path> <path d="M570.561 454.745V457.326L566.261 454.745V456.036L570.561 458.617V461.198L566.261 458.617V459.908L570.991 462.489V465.07L563.682 460.768V450.873L570.561 454.745Z" fill="#493F41"></path> <path d="M576.58 468.512L575.721 465.501L574.431 465.07V467.652L571.421 465.931V456.036L575.721 458.617C578.3 459.908 579.59 462.059 579.59 464.21C579.59 465.501 579.16 466.361 578.3 466.791L580.02 471.093L576.58 468.512ZM574.431 462.059L575.721 462.919C576.15 463.349 576.58 462.919 576.58 462.059C576.58 461.198 576.15 460.768 575.721 460.338L574.431 459.477V462.059Z" fill="#493F41"></path> <path d="M583.03 462.059L584.75 469.803L586.47 464.21L589.479 465.931L586.04 474.105L583.03 472.384L579.59 460.338L583.03 462.059Z" fill="#493F41"></path> <path d="M592.919 467.652V477.547L589.909 475.826V465.931L592.919 467.652Z" fill="#493F41"></path> <path d="M598.509 473.675C597.649 473.244 596.789 473.675 596.789 474.965C596.789 476.256 597.649 477.547 598.509 478.407C598.939 478.837 599.798 478.837 600.658 478.407L602.378 481.419C601.518 482.279 599.798 481.849 598.509 481.419C595.929 479.698 593.779 476.686 593.779 473.675C593.779 470.663 595.929 469.803 598.509 471.524C599.798 472.384 601.518 473.675 602.378 475.396L600.658 476.686C600.228 474.965 599.369 474.105 598.509 473.675Z" fill="#493F41"></path> <path d="M610.118 477.977V480.558L605.818 477.977V479.268L610.118 481.849V484.43L605.818 481.849V483.14L610.548 485.721V488.302L603.238 484V474.105L610.118 477.977Z" fill="#493F41"></path> <path d="M873.685 538.638C874.115 539.068 874.975 539.068 875.405 538.638C875.835 538.208 875.835 536.917 875.405 536.487C874.975 536.057 874.115 536.057 873.685 536.487C873.255 536.917 873.255 538.208 873.685 538.638Z" fill="#493F41"></path> <path d="M874.115 538.638C874.545 539.068 875.405 539.068 875.405 538.638C875.835 538.208 875.835 537.348 875.405 536.917C874.975 536.487 874.545 536.487 874.115 536.917C873.685 537.348 873.685 538.208 874.115 538.638Z" fill="#493F41"></path> <path d="M874.545 536.057H875.405C875.835 536.057 875.405 537.778 875.405 537.778C875.405 537.778 874.975 538.208 874.115 538.208C873.255 538.208 874.545 536.057 874.545 536.057Z" fill="#493F41"></path> <path d="M874.975 538.208C875.405 538.638 875.835 538.638 876.265 538.208C876.695 537.778 876.695 537.348 876.265 536.917C875.835 536.487 875.405 536.487 874.975 536.917C874.545 537.348 874.545 537.778 874.975 538.208Z" fill="#5C504E"></path> <path d="M863.796 538.208L862.076 539.499L874.545 538.208V536.487L863.796 538.208Z" fill="#493F41"></path> <path d="M875.405 533.045L840.578 551.115L840.148 549.824L874.115 531.324L875.405 533.045Z" fill="#5C504E"></path> <path d="M875.835 563.161L894.753 586.823L838.858 619.09L809.19 586.393L838.428 620.38L896.043 587.253L875.835 563.161Z" fill="#FAF8F5"></path> <path d="M858.206 675.019L874.545 665.554C876.265 664.694 877.555 662.112 877.555 659.961V650.496C877.555 648.345 876.265 647.485 874.545 648.345L858.206 657.81C856.486 658.671 855.197 661.252 855.197 663.403V672.868C855.197 675.019 856.486 675.879 858.206 675.019Z" fill="#FAF8F5"></path> <path d="M878.414 650.926V660.391C878.414 662.542 877.124 665.123 875.405 665.984L859.066 675.449C857.346 676.309 856.056 675.449 856.056 673.298V663.833C856.056 661.682 857.346 659.1 859.066 658.24L875.405 648.775C877.124 647.915 878.414 648.775 878.414 650.926Z" fill="#EBE7E3"></path> <path d="M878.414 650.926V651.787L856.056 664.693V663.833C856.056 661.682 857.346 659.1 859.066 658.24L875.405 648.775C877.124 647.915 878.414 648.775 878.414 650.926Z" fill="#FF8E8C"></path> <path d="M473.819 490.023C473.819 489.593 473.819 471.093 473.819 459.908C471.669 459.047 469.519 457.756 468.23 457.326L466.94 456.896L467.37 455.175C467.8 453.454 473.389 450.443 475.109 450.873C475.969 450.873 476.829 451.733 476.829 452.594C476.829 453.454 476.829 455.605 476.829 458.187C478.979 459.047 480.699 459.908 480.699 459.908C481.988 460.768 483.708 460.768 484.998 459.908L487.148 458.617L488.868 461.198L486.718 462.489C484.568 463.78 481.558 463.78 479.409 462.489C479.409 462.489 478.549 462.059 477.259 461.628C477.259 472.814 477.259 490.453 477.259 490.453L473.819 490.023ZM471.669 455.175C472.529 455.605 473.389 456.036 474.249 456.466C474.249 455.605 474.249 454.745 474.249 453.884C473.389 454.315 472.099 454.745 471.669 455.175Z" fill="#898184"></path> <path d="M476.399 489.163C475.969 488.733 474.679 488.733 474.249 489.163C473.819 489.593 473.819 490.023 474.249 490.453C474.679 490.884 475.969 490.884 476.399 490.453C477.259 490.453 477.259 489.593 476.399 489.163Z" fill="#898184"></path> <path d="M486.718 459.047C486.718 459.907 487.148 460.768 488.008 460.768C488.438 461.198 488.868 460.768 488.868 460.338C488.868 459.907 488.438 458.617 487.578 458.617C487.148 458.187 486.718 458.187 486.718 459.047Z" fill="#898184"></path> <path d="M156.076 465.07L121.249 444.85L165.535 420.758L174.995 466.361L156.076 465.07Z" fill="#DFE4EB"></path> <path d="M219.281 379.026V442.269L174.995 466.361V403.118L219.281 379.026Z" fill="#EDF4FF"></path> <path d="M174.995 403.118V466.361L140.168 445.71V382.468L174.995 403.118Z" fill="#DDE7F8"></path> <path d="M174.995 403.118L140.168 382.468L184.454 358.375L219.281 379.026L174.995 403.118Z" fill="#EBF4FF"></path> <path d="M229.6 492.604L187.034 467.652L244.219 436.245L247.229 492.604H229.6Z" fill="#DFE4EB"></path> <path d="M304.414 440.117V461.198L247.229 492.605V471.524L304.414 440.117Z" fill="#EDF4FF"></path> <path d="M247.228 471.524V492.605L204.662 467.652V446.571L247.228 471.524Z" fill="#DDE7F8"></path> <path d="M247.228 471.524L204.662 446.571L261.847 415.165L304.414 440.117L247.228 471.524Z" fill="#EBF4FF"></path> <path d="M142.747 540.79L94.1616 512.395L133.718 490.884L162.526 540.79H142.747Z" fill="#DFE4EB"></path> <path d="M202.082 495.186V519.278L162.526 540.79V516.697L202.082 495.186Z" fill="#EDF4FF"></path> <path d="M162.526 516.697V540.789L113.94 512.395V488.302L162.526 516.697Z" fill="#DDE7F8"></path> <path d="M162.526 516.697L113.94 488.302L153.497 466.791L202.082 495.186L162.526 516.697Z" fill="#EBF4FF"></path> <path d="M862.076 860.875L813.49 832.481L853.046 810.969L881.854 860.875H862.076Z" fill="#DFE4EB"></path> <path d="M921.411 815.272V839.364L881.854 860.875V836.783L921.411 815.272Z" fill="#EDF4FF"></path> <path d="M881.854 836.783V860.875L833.268 832.481V808.388L881.854 836.783Z" fill="#DDE7F8"></path> <path d="M881.854 836.783L833.268 808.388L872.825 786.877L921.411 815.272L881.854 836.783Z" fill="#EBF4FF"></path> <path d="M385.247 661.252L339.671 634.578L449.311 574.347L405.025 661.252H385.247Z" fill="#DFE4EB"></path> <path d="M515.096 573.486V601.451L405.025 661.252V633.287L515.096 573.486Z" fill="#EDF4FF"></path> <path d="M405.025 633.287V661.251L359.449 634.578V606.613L405.025 633.287Z" fill="#DDE7F8"></path> <path d="M405.025 633.287L359.449 606.613L469.519 546.382L515.096 573.486L405.025 633.287Z" fill="#EBF4FF"></path> <path d="M509.506 713.308L447.161 676.74L526.275 633.287L525.845 713.739L509.506 713.308Z" fill="#DFE4EB"></path> <path d="M586.469 610.485V680.612L525.845 713.739V643.182L586.469 610.485Z" fill="#EDF4FF"></path> <path d="M525.845 643.182V713.739L463.5 676.74V606.183L525.845 643.182Z" fill="#DDE7F8"></path> <path d="M525.845 643.182L463.5 606.613L523.695 573.486L586.469 610.485L525.845 643.182Z" fill="#EBF4FF"></path> <path d="M651.824 792.47L551.212 734.39L616.137 696.96L671.602 793.76L651.824 792.47Z" fill="#DFE4EB"></path> <path d="M736.527 676.31V756.331L671.602 793.76V713.739L736.527 676.31Z" fill="#EDF4FF"></path> <path d="M671.602 713.739V793.76L570.991 735.68V655.659L671.602 713.739Z" fill="#DDE7F8"></path> <path d="M671.602 713.739L570.991 655.659L635.915 618.229L736.527 676.31L671.602 713.739Z" fill="#EBF4FF"></path> <path d="M728.357 841.945L682.351 814.841L792.422 755.04L748.136 841.084L728.357 841.945Z" fill="#DFE4EB"></path> <path d="M841.008 762.783V790.748L748.136 841.084V813.119L841.008 762.783Z" fill="#EDF4FF"></path> <path d="M748.136 813.12V841.085L702.13 814.411V786.446L748.136 813.12Z" fill="#DDE7F8"></path> <path d="M748.136 813.12L702.13 786.446L795.002 735.68L841.008 762.784L748.136 813.12Z" fill="#EBF4FF"></path> <path d="M629.896 893.571L555.942 850.119L595.499 828.608L649.674 893.571H629.896Z" fill="#DFE4EB"></path> <path d="M689.231 823.445V872.06L649.674 893.572V844.956L689.231 823.445Z" fill="#EDF4FF"></path> <path d="M649.674 844.956V893.572L575.72 850.119V801.074L649.674 844.956Z" fill="#DDE7F8"></path> <path d="M649.674 844.957L575.72 801.074L615.277 779.563L689.231 823.445L649.674 844.957Z" fill="#EBF4FF"></path> <path d="M379.657 762.784L262.707 693.949L318.173 663.833L399.436 762.784H379.657Z" fill="#DFE4EB"></path> <path d="M454.471 699.541V732.668L399.436 762.784V729.657L454.471 699.541Z" fill="#EDF4FF"></path> <path d="M399.436 729.657V762.784L282.486 693.948V661.251L399.436 729.657Z" fill="#DDE7F8"></path> <path d="M399.436 729.657L282.486 661.252L337.951 631.136L454.471 699.541L399.436 729.657Z" fill="#EBF4FF"></path> <path d="M308.713 829.468L231.75 784.295L291.945 751.168L328.492 830.759L308.713 829.468Z" fill="#DFE4EB"></path> <path d="M388.686 762.353V798.062L328.492 830.759V795.05L388.686 762.353Z" fill="#EDF4FF"></path> <path d="M328.492 795.051V830.759L251.528 785.586V749.877L328.492 795.051Z" fill="#DDE7F8"></path> <path d="M328.492 795.051L251.528 749.877L311.723 716.75L388.687 762.354L328.492 795.051Z" fill="#EBF4FF"></path> <path d="M475.109 848.828L417.924 814.841L490.588 775.26L494.887 849.689L475.109 848.828Z" fill="#DFE4EB"></path> <path d="M567.551 728.366V810.108L494.887 849.689V767.947L567.551 728.366Z" fill="#EDF4FF"></path> <path d="M494.887 767.947V849.689L437.702 815.701V733.959L494.887 767.947Z" fill="#DDE7F8"></path> <path d="M494.887 767.947L437.702 733.959L510.366 694.379L567.551 728.366L494.887 767.947Z" fill="#EBF4FF"></path> <defs> <linearGradient id="paint0_linear_156_9478" x1="50.7082" y1="693.203" x2="655.859" y2="341.122" gradientUnits="userSpaceOnUse"> <stop stop-color="#FFE25B"></stop> <stop offset="1" stop-color="#FF7270"></stop> </linearGradient> <linearGradient id="paint1_linear_156_9478" x1="50.8304" y1="693.415" x2="655.984" y2="341.332" gradientUnits="userSpaceOnUse"> <stop stop-color="#FFE25B"></stop> <stop offset="1" stop-color="#FF7270"></stop> </linearGradient> <linearGradient id="paint2_linear_156_9478" x1="50.9537" y1="693.625" x2="656.105" y2="341.543" gradientUnits="userSpaceOnUse"> <stop stop-color="#FFE25B"></stop> <stop offset="1" stop-color="#FF7270"></stop> </linearGradient> <linearGradient id="paint3_linear_156_9478" x1="51.0764" y1="693.836" x2="656.225" y2="341.755" gradientUnits="userSpaceOnUse"> <stop stop-color="#FFE25B"></stop> <stop offset="1" stop-color="#FF7270"></stop> </linearGradient> <linearGradient id="paint4_linear_156_9478" x1="51.1998" y1="694.047" x2="656.351" y2="341.965" gradientUnits="userSpaceOnUse"> <stop stop-color="#FFE25B"></stop> <stop offset="1" stop-color="#FF7270"></stop> </linearGradient> <linearGradient id="paint5_linear_156_9478" x1="51.3216" y1="694.259" x2="656.475" y2="342.177" gradientUnits="userSpaceOnUse"> <stop stop-color="#FFE25B"></stop> <stop offset="1" stop-color="#FF7270"></stop> </linearGradient> <linearGradient id="paint6_linear_156_9478" x1="58.2143" y1="706.108" x2="663.367" y2="354.025" gradientUnits="userSpaceOnUse"> <stop stop-color="#FFE25B"></stop> <stop offset="1" stop-color="#FF7270"></stop> </linearGradient> <linearGradient id="paint7_linear_156_9478" x1="85.8029" y1="753.528" x2="690.955" y2="401.446" gradientUnits="userSpaceOnUse"> <stop stop-color="#FFE25B"></stop> <stop offset="1" stop-color="#FF7270"></stop> </linearGradient> <linearGradient id="paint8_linear_156_9478" x1="115.591" y1="804.724" x2="720.741" y2="452.643" gradientUnits="userSpaceOnUse"> <stop stop-color="#FFE25B"></stop> <stop offset="1" stop-color="#FF7270"></stop> </linearGradient> <linearGradient id="paint9_linear_156_9478" x1="145.374" y1="855.923" x2="750.53" y2="503.838" gradientUnits="userSpaceOnUse"> <stop stop-color="#FFE25B"></stop> <stop offset="1" stop-color="#FF7270"></stop> </linearGradient> <linearGradient id="paint10_linear_156_9478" x1="175.16" y1="907.119" x2="780.316" y2="555.034" gradientUnits="userSpaceOnUse"> <stop stop-color="#FFE25B"></stop> <stop offset="1" stop-color="#FF7270"></stop> </linearGradient> <linearGradient id="paint11_linear_156_9478" x1="204.949" y1="958.316" x2="810.101" y2="606.233" gradientUnits="userSpaceOnUse"> <stop stop-color="#FFE25B"></stop> <stop offset="1" stop-color="#FF7270"></stop> </linearGradient> <linearGradient id="paint12_linear_156_9478" x1="234.743" y1="1009.51" x2="839.892" y2="657.43" gradientUnits="userSpaceOnUse"> <stop stop-color="#FFE25B"></stop> <stop offset="1" stop-color="#FF7270"></stop> </linearGradient> <linearGradient id="paint13_linear_156_9478" x1="264.522" y1="1060.71" x2="869.674" y2="708.624" gradientUnits="userSpaceOnUse"> <stop stop-color="#FFE25B"></stop> <stop offset="1" stop-color="#FF7270"></stop> </linearGradient> <linearGradient id="paint14_linear_156_9478" x1="294.313" y1="1111.91" x2="899.462" y2="759.824" gradientUnits="userSpaceOnUse"> <stop stop-color="#FFE25B"></stop> <stop offset="1" stop-color="#FF7270"></stop> </linearGradient> <linearGradient id="paint15_linear_156_9478" x1="196.871" y1="757.393" x2="1015.07" y2="757.393" gradientUnits="userSpaceOnUse"> <stop stop-color="#57A2FF"></stop> <stop offset="1" stop-color="#FF7270"></stop> </linearGradient> </defs> </svg> 