<?xml version="1.0" encoding="UTF-8"?> <svg xmlns="http://www.w3.org/2000/svg" width="1191" height="900" viewBox="0 0 1191 900" fill="none"> <path d="M1115.24 542.585C1116.15 374.69 881.035 237.306 590.091 235.728C299.147 234.151 62.553 368.977 61.6426 536.872C60.7322 704.766 295.851 842.151 586.794 843.728C877.738 845.306 1114.33 710.479 1115.24 542.585Z" fill="#E1EAFB"></path> <path d="M326.8 296.8L840.4 593.6L668 693.2L154.4 396.4L326.8 296.8Z" fill="#BECDD4"></path> <path d="M319.6 244.8L172.4 330L196.4 350.4L207.2 356.8L360 268.4L319.6 244.8Z" fill="#6B6164"></path> <path d="M209.6 352.8L210.8 354.4L209.6 371.2L232 358L340.8 438L508.4 556.4L528.4 539.6L623.2 598L625.6 512.4L218.4 314.4L209.6 352.8Z" fill="#0F0E1B"></path> <path d="M330.8 190L182.8 275.2L230 272.4L378 187.2L330.8 190Z" fill="#F3F1EE"></path> <path d="M330.8 190V252.4L357.6 267.6C364.4 253.2 380.8 251.2 399.2 262C424.4 276.4 427.6 297.2 442 338.8C443.2 342 444.8 349.2 444.8 349.2L656.4 471.2C656.4 468.4 656.4 465.6 656.4 462.4C656.4 433.6 676.8 422 702 436.4C727.2 450.8 747.6 486 747.6 514.8C747.6 518 747.6 520.8 747.6 523.2L815.2 562V322.8L403.2 84.8L378.8 187.2L330.8 190Z" fill="#E4DFD9"></path> <path d="M421.902 355.621C435.633 347.594 435.557 321.915 421.732 298.266C407.906 274.618 385.567 261.954 371.835 269.982C358.104 278.01 358.18 303.688 372.006 327.337C385.831 350.986 408.17 363.649 421.902 355.621Z" fill="#2D2C37"></path> <path d="M726.709 531.635C740.441 523.607 740.364 497.928 726.539 474.28C712.714 450.631 690.374 437.968 676.643 445.996C662.911 454.023 662.987 479.702 676.813 503.351C690.638 526.999 712.978 539.663 726.709 531.635Z" fill="#2D2C37"></path> <path d="M677.2 474.4C677.2 490 688 508.8 701.6 516.8C715.2 524.8 726 518.4 726 502.8C726 487.2 715.2 468.4 701.6 460.4C688 452.8 677.2 458.8 677.2 474.4Z" fill="#504F58"></path> <path d="M679.6 476C679.6 490 689.6 507.2 702 514.4C714.4 521.6 724.4 516 724.4 501.6C724.4 487.2 714.4 470.4 702 463.2C689.6 456 679.6 461.6 679.6 476Z" fill="#C2C7D6"></path> <path d="M715.808 512.991C723.627 508.42 723.639 493.892 715.834 480.542C708.029 467.192 695.364 460.075 687.544 464.646C679.725 469.218 679.713 483.746 687.518 497.096C695.322 510.446 707.988 517.562 715.808 512.991Z" fill="#A5ACC2"></path> <path d="M710.357 503.664C715.125 500.877 715.104 491.969 710.309 483.769C705.515 475.568 697.763 471.179 692.996 473.967C688.228 476.754 688.249 485.662 693.043 493.863C697.838 502.063 705.589 506.452 710.357 503.664Z" fill="#CFD9E7"></path> <path d="M414.23 342.498C423.766 336.924 423.723 319.108 414.135 302.707C404.546 286.305 389.043 277.529 379.507 283.103C369.971 288.678 370.014 306.493 379.603 322.895C389.191 339.296 404.695 348.073 414.23 342.498Z" fill="#504F58"></path> <path d="M374.8 300C374.8 314 384.8 331.2 397.2 338.4C409.6 345.6 419.6 340 419.6 325.6C419.6 311.6 409.6 294.4 397.2 287.2C384.4 280 374.8 285.6 374.8 300Z" fill="#B5BBCD"></path> <path d="M380 302.8C380 313.6 387.6 326.8 397.2 332C406.8 337.6 414.4 333.2 414.4 322.4C414.4 311.6 406.8 298.4 397.2 293.2C387.6 287.6 380 292 380 302.8Z" fill="#CFD9E7"></path> <path d="M387.6 307.2C387.6 313.2 391.6 320.4 396.8 323.2C402 326 406 323.6 406 318C406 312 402 304.8 396.8 302C391.6 299.2 387.6 301.6 387.6 307.2Z" fill="#E1E7EF"></path> <path d="M391.6 309.6C391.6 312.8 394 316.8 396.8 318.4C399.6 320 402 318.8 402 315.6C402 312.4 399.6 308.4 396.8 306.8C394 305.2 391.6 306.4 391.6 309.6Z" fill="#C2C7D6"></path> <path d="M318.8 266L344.8 287.2L356.8 294L359.6 268.8L318.8 245.2V266Z" fill="#B5BBCD"></path> <path d="M510 378V188L424.8 138.8V260L452.8 345.2L510 378Z" fill="#CDC6BC"></path> <path d="M400.4 109.2L419.6 120V228.4L391.2 212L383.2 189.6L400.4 109.2Z" fill="#2D2C37"></path> <path d="M417.2 224V121.6L402.4 113.2L386 191.2L392.8 210L417.2 224Z" fill="#7572A4"></path> <path d="M444.8 342.8L513.6 382.8V388.8L444.8 348.8V342.8Z" fill="#9B897F"></path> <path d="M338.4 221.2L348.8 227.2V215.6L338.4 209.6V221.2Z" fill="#504F58"></path> <path d="M339.2 220.8L347.6 225.6V216L339.2 211.2V220.8Z" fill="#FF9A2E"></path> <path d="M638 424.4C638 426.8 639.6 430 642 431.2C644 432.4 646 431.6 646 429.2C646 426.8 644.4 423.6 642 422.4C639.6 421.2 638 422 638 424.4Z" fill="#F9F1EC"></path> <path d="M638.8 424.8C638.8 426.8 640.4 429.2 642 430.4C644 431.6 645.2 430.8 645.2 428.4C645.2 426 643.6 424 642 422.8C640 422 638.8 422.8 638.8 424.8Z" fill="#FF9A2E"></path> <path d="M522.4 358C522.4 360.4 524 363.6 526.4 364.8C528.4 366 530.4 365.2 530.4 362.8C530.4 360.4 528.8 357.2 526.4 356C524.4 354.4 522.4 355.6 522.4 358Z" fill="#F9F1EC"></path> <path d="M523.2 358.4C523.2 360.4 524.8 362.8 526.4 364C528.4 365.2 529.6 364.4 529.6 362C529.6 359.6 528 357.6 526.4 356.4C524.8 355.2 523.2 356 523.2 358.4Z" fill="#FF9A2E"></path> <path d="M446.4 244L492 270.4C496.8 273.2 500.8 270.4 500.8 263.6V201.6C500.8 195.2 496.8 187.6 492 184.8L446.4 158.4C441.6 155.6 437.6 158.4 437.6 165.2V227.2C437.6 233.6 441.6 241.2 446.4 244Z" fill="#2D2C37"></path> <path d="M498.4 262.8V199.6C498.4 195.2 495.6 189.6 492.4 187.6L446.8 161.2C443.2 159.2 440.8 161.2 440.8 166V229.2C440.8 233.6 443.6 239.2 446.8 241.2L492.4 267.6C495.6 269.2 498.4 267.2 498.4 262.8Z" fill="#7572A4"></path> <path d="M406.4 324C405.2 326 404.4 326.8 402 326.8C401.2 326.8 400.8 327.6 400.8 328.8C401.2 330 402.4 330.8 403.2 330.8C405.6 330.8 408 329.6 408.8 327.2C409.2 326.4 408.8 324.8 408 324C408 323.2 406.8 323.2 406.4 324Z" fill="#504F58"></path> <path d="M387.2 301.2C388.4 299.2 389.2 298.4 391.6 298.4C392.4 298.4 392.8 297.6 392.8 296.4C392.4 295.2 391.2 294.4 390.4 294.4C388 294.4 385.6 295.6 384.8 298C384.4 298.8 384.8 300.4 385.6 301.2C386 302 386.8 302 387.2 301.2Z" fill="#504F58"></path> <path d="M392 320.8C389.6 318.4 388.8 316.4 387.6 313.2C387.2 312 386.4 310.8 385.6 310.8C384.8 310.8 384.4 311.6 384.8 313.2C386 316.4 388.4 320.8 390.8 323.2C392 324.4 393.2 324.4 393.2 323.6C393.2 323.2 392.8 322 392 320.8Z" fill="#504F58"></path> <path d="M402 304.4C404.4 306.8 405.2 308.8 406.4 312C406.8 313.2 407.6 314.4 408.4 314.4C409.2 314.4 409.6 313.6 409.2 312C408 308.8 405.6 304.4 403.2 302C402 300.8 400.8 300.8 400.8 301.6C400.4 302.4 401.2 303.6 402 304.4Z" fill="#504F58"></path> <path d="M386.8 256.4H385.6V217.6L377.2 187.2L378.8 186.8L386.8 217.6V256.4Z" fill="#C9C3B9"></path> <path d="M382 202.8L330.8 200.8V199.6L382 201.6V202.8Z" fill="#C9C3B9"></path> <path d="M172.4 350.8L190.4 374L207.2 383.6V375.6V356.8L196.4 350.4L172.4 330V350.8Z" fill="#3F3436"></path> <path d="M306 406C306 383.6 290.4 356.4 270.8 345.2C261.2 339.6 252.4 339.2 246 342.8L223.6 355.6V372.8L273.6 441.6L294.4 429.6C295.2 429.2 296.4 428.8 297.2 428C302.8 423.6 306 416 306 406Z" fill="#23222D"></path> <path d="M273.797 440.881C287.529 432.853 287.453 407.174 273.627 383.526C259.802 359.877 237.463 347.214 223.731 355.241C210 363.269 210.076 388.948 223.901 412.596C237.727 436.245 260.066 448.908 273.797 440.881Z" fill="#393843"></path> <path d="M272.199 439.863C285.359 432.17 285.18 407.38 271.801 384.495C258.421 361.609 236.907 349.293 223.748 356.986C210.589 364.679 210.767 389.468 224.146 412.354C237.526 435.24 259.04 447.556 272.199 439.863Z" fill="#2D2C37"></path> <path d="M272.8 412.8C272.8 428.4 262 434.4 248.4 426.8C234.8 418.8 224 400 224 384.4C224 368.8 234.8 362.8 248.4 370.4C261.6 378.4 272.8 397.2 272.8 412.8Z" fill="#504F58"></path> <path d="M271.2 410.8C271.2 424.8 261.2 430.4 248.8 423.6C236.4 416.4 226.4 399.2 226.4 385.2C226.4 371.2 236.4 365.6 248.8 372.4C261.2 379.6 271.2 396.8 271.2 410.8Z" fill="#C4C2BB"></path> <path d="M268.4 409.2C268.4 421.6 259.6 426.4 248.8 420.4C238 414.4 229.2 399.2 229.2 386.8C229.2 374.4 238 369.6 248.8 375.6C259.6 382 268.4 397.2 268.4 409.2Z" fill="#B7B4A9"></path> <path d="M266 408C266 418.8 258.4 423.2 248.8 417.6C239.2 412 231.6 399.2 231.6 388.4C231.6 377.6 239.2 373.2 248.8 378.8C258.4 384 266 397.2 266 408Z" fill="#D5D2C9"></path> <path d="M257.6 405.2C257.6 411.6 253.2 414.4 247.6 411.2C242 408 237.6 400 237.6 393.6C237.6 387.2 242 384.4 247.6 387.6C253.2 390.8 257.6 398.8 257.6 405.2Z" fill="#CAC6BC"></path> <path d="M239.2 398.4C240.4 401.6 241.2 403.2 243.6 406C244.4 406.8 244.8 408.4 244.8 409.2C244.4 410 243.2 409.6 242.4 408.4C240 405.6 237.6 401.6 236.8 398.4C236.4 396.8 236.8 395.6 237.6 396C238 396 238.8 397.2 239.2 398.4Z" fill="#504F58"></path> <path d="M255.2 404.8C255.2 410.4 251.2 412.8 246.4 410C241.6 407.2 237.6 400.4 237.6 394.4C237.6 388.8 241.6 386.4 246.4 389.2C251.2 392 255.2 398.8 255.2 404.8Z" fill="#DDDDDB"></path> <path d="M251.2 402.4C251.2 405.6 249.2 406.8 246.4 405.2C243.6 403.6 241.6 400 241.6 396.8C241.6 393.6 243.6 392.4 246.4 394C248.8 395.6 251.2 399.2 251.2 402.4Z" fill="#B7B4A9"></path> <path d="M258.8 398C257.6 394.8 256.8 393.2 254.4 390.4C253.6 389.6 253.2 388 253.2 387.2C253.6 386.4 254.8 386.8 255.6 388C258 390.8 260.4 394.8 261.2 398C261.6 399.6 261.2 400.8 260.4 400.4C260 400.4 258.8 399.2 258.8 398Z" fill="#504F58"></path> <path d="M254 412C256.4 412 257.2 411.6 258.4 409.6C258.8 408.8 259.6 408.8 260.4 409.6C261.2 410.4 261.6 412 261.2 412.8C260 414.8 257.6 416 255.2 416C254 416 252.8 414.8 252.8 413.6C252.4 412.8 253.2 412 254 412Z" fill="#504F58"></path> <path d="M244 384C241.6 384 240.8 384.4 239.6 386.4C239.2 387.2 238.4 387.2 237.6 386.4C236.8 385.6 236.4 384 236.8 383.2C238 381.2 240.4 380 242.8 380C244 380 245.2 381.2 245.2 382.4C245.2 383.6 244.8 384 244 384Z" fill="#504F58"></path> <path d="M610.8 582C610.8 559.6 595.2 532.4 575.6 521.2C565.2 515.2 556 514.8 549.6 519.2L527.6 532L542.4 556.4C546.4 570.8 555.2 585.6 566.4 595.2L579.6 616.8L598.8 605.6C600 605.2 601.2 604.4 602.4 603.6C607.6 599.2 610.8 592 610.8 582Z" fill="#23222D"></path> <path d="M578.605 616.898C592.336 608.87 592.26 583.192 578.435 559.543C564.609 535.894 542.27 523.231 528.539 531.259C514.807 539.286 514.883 564.965 528.709 588.614C542.534 612.263 564.873 624.926 578.605 616.898Z" fill="#393843"></path> <path d="M585.6 594C585.6 615.6 570.4 624 551.6 613.2C532.8 602.4 517.6 576 517.6 554.8C517.6 533.2 532.8 524.8 551.6 535.6C570.4 546.4 585.6 572.4 585.6 594Z" fill="#2D2C37"></path> <path d="M577.6 588.8C577.6 604.4 566.8 610.4 553.2 602.8C539.6 594.8 528.8 576 528.8 560.4C528.8 544.8 539.6 538.8 553.2 546.4C566.8 554.4 577.6 573.2 577.6 588.8Z" fill="#504F58"></path> <path d="M576 586.8C576 600.8 566 606.4 553.6 599.6C541.2 592.4 531.2 575.2 531.2 561.2C531.2 547.2 541.2 541.6 553.6 548.4C566 555.6 576 572.8 576 586.8Z" fill="#C4C2BB"></path> <path d="M573.6 585.6C573.6 598.4 564.8 603.2 553.6 596.8C542.4 590.4 533.6 575.2 533.6 562.4C533.6 549.6 542.4 544.8 553.6 551.2C554.8 551.6 555.6 552.4 556.4 553.2C565.2 559.6 572 571.2 573.2 582C573.6 583.2 573.6 584.4 573.6 585.6Z" fill="#B0AC9E"></path> <path d="M560.8 592C550.4 586 542 571.2 542 559.2C542 554.4 543.2 550.8 545.6 548.4C538.4 548 533.6 553.2 533.6 562.4C533.6 575.2 542.4 590.4 553.6 596.8C561.6 601.6 568.4 600 571.6 594C568.8 594.8 565.2 594.4 560.8 592Z" fill="#B7B4A9"></path> <path d="M573.6 582C571.6 585.2 567.6 585.6 562.8 582.8C556 578.8 550.4 569.6 550.4 561.6C550.4 556.4 552.8 553.2 556.4 552.8C565.2 559.6 572 571.2 573.6 582Z" fill="#9D9783"></path> <path d="M553.6 554L544.4 559.6L562.8 588.8L571.6 583.6L565.6 568.8L553.6 554Z" fill="#9D9783"></path> <path d="M562.254 588.921C567.022 586.133 567.001 577.226 562.207 569.025C557.412 560.824 549.661 556.436 544.893 559.223C540.125 562.011 540.146 570.918 544.941 579.119C549.735 587.32 557.487 591.708 562.254 588.921Z" fill="#D5D2C9"></path> <path d="M182.8 275.2V337.6L209.6 352.8C216.4 338.4 232.8 336.4 251.2 347.2C276.4 361.6 279.6 382.4 294 424C295.2 427.2 296.8 434.4 296.8 434.4L508.4 556.4C508.4 553.6 508.4 550.8 508.4 547.6C508.4 518.8 528.8 507.2 554 521.6C579.2 536 599.6 571.2 599.6 600C599.6 603.2 599.6 606 599.6 608.4L667.2 647.2V407.6L255.2 169.6L230.8 272L182.8 275.2Z" fill="#DED8D1"></path> <path d="M655.2 606.8C655.2 609.2 653.6 610.4 651.2 608.8C649.2 607.6 647.2 604.4 647.2 602C647.2 599.6 648.8 598.4 651.2 600C653.6 601.2 655.2 604.4 655.2 606.8Z" fill="#B5AA9C"></path> <path d="M655.6 604.8C655.6 607.2 654 608.4 651.6 606.8C649.2 605.2 647.6 602.4 647.6 600C647.6 597.6 649.2 596.4 651.6 598C654 599.2 655.6 602.4 655.6 604.8Z" fill="#9DA1BF"></path> <path d="M654.8 605.2C654.8 607.6 653.2 608.8 650.8 607.2C648.8 606 646.8 602.8 646.8 600.4C646.8 598 648.4 596.8 650.8 598.4C653.2 599.6 654.8 602.8 654.8 605.2Z" fill="#F9F1EC"></path> <path d="M654.4 604.8C654.4 606.8 652.8 607.6 651.2 606.8C649.2 605.6 648 603.2 648 601.2C648 599.2 649.6 598.4 651.2 599.2C652.8 600.4 654.4 602.8 654.4 604.8Z" fill="#E06F2E"></path> <path d="M498.4 516C498.4 518.4 496.8 519.6 494.4 518C492.4 516.8 490.4 513.6 490.4 511.2C490.4 508.8 492 507.6 494.4 509.2C496.4 510.8 498.4 513.6 498.4 516Z" fill="#B5AA9C"></path> <path d="M498.8 514C498.8 516.4 497.2 517.6 494.8 516C492.8 514.8 490.8 511.6 490.8 509.2C490.8 506.8 492.4 505.6 494.8 507.2C496.8 508.8 498.8 511.6 498.8 514Z" fill="#9DA1BF"></path> <path d="M497.6 514.4C497.6 516.8 496 518 493.6 516.4C491.6 515.2 489.6 512 489.6 509.6C489.6 507.2 491.2 506 493.6 507.6C496 509.2 497.6 512 497.6 514.4Z" fill="#F9F1EC"></path> <path d="M497.2 514C497.2 516 495.6 516.8 494 516C492 514.8 490.8 512.4 490.8 510.4C490.8 508.4 492.4 507.6 494 508.4C495.6 509.6 497.2 512 497.2 514Z" fill="#E06F2E"></path> <path d="M382.8 449.2C382.8 451.6 381.2 452.8 378.8 451.2C376.8 450 374.8 446.8 374.8 444.4C374.8 442 376.4 440.8 378.8 442.4C381.2 444 382.8 446.8 382.8 449.2Z" fill="#B5AA9C"></path> <path d="M383.2 447.6C383.2 450 381.6 451.2 379.2 449.6C377.2 448.4 375.2 445.2 375.2 442.8C375.2 440.4 376.8 439.2 379.2 440.8C381.6 442 383.2 444.8 383.2 447.6Z" fill="#9DA1BF"></path> <path d="M382.4 447.6C382.4 450 380.8 451.2 378.4 449.6C376.4 448.4 374.4 445.2 374.4 442.8C374.4 440.4 376 439.2 378.4 440.8C380.4 442.4 382.4 445.2 382.4 447.6Z" fill="#F9F1EC"></path> <path d="M381.6 447.6C381.6 449.6 380 450.4 378.4 449.6C376.8 448.8 375.2 446 375.2 444C375.2 442 376.8 441.2 378.4 442C380.4 442.8 381.6 445.2 381.6 447.6Z" fill="#E06F2E"></path> <path d="M257.6 164.8L664.4 399.6L666.4 408.4L254.4 170.4L257.6 164.8Z" fill="#F3F1EE"></path> <path d="M812.4 314.4L664.4 399.6L666.4 408.4L814.4 322.8L812.4 314.4Z" fill="#F3F1EE"></path> <path d="M362 463.2V273.2L277.2 224.4V345.6L304.8 430.4L362 463.2Z" fill="#CDC6BC"></path> <path d="M362 458.4L358 456V275.2L281.6 231.2V226.8L362 273.2V458.4Z" fill="#F2F1F0"></path> <path d="M252.4 194.4L271.6 205.6V314L243.2 297.6L235.2 275.2L252.4 194.4Z" fill="#2D2C37"></path> <path d="M269.2 207.2V309.6L244.8 295.6L238 276.4L254.4 198.8L255.6 199.2L269.2 207.2Z" fill="#573F3F"></path> <path d="M641.6 403.2L654.8 410.8V405.2L641.6 397.6V403.2Z" fill="#CDC6BC"></path> <path d="M642.8 402.8L653.6 409.2V404.8L642.8 398.8V402.8Z" fill="#E06F2E"></path> <path d="M477.6 308.4L490.8 316V310.4L477.6 302.8V308.4Z" fill="#CDC6BC"></path> <path d="M478.8 308L489.6 314.4V310L478.8 304V308Z" fill="#E06F2E"></path> <path d="M270.4 188.8L283.6 196.4V190.8L270.4 183.2V188.8Z" fill="#CDC6BC"></path> <path d="M271.6 188.4L282.4 194.8V190.4L271.6 184.4V188.4Z" fill="#E06F2E"></path> <path d="M298.4 329.2L344 355.6C348.8 358.4 352.8 355.6 352.8 348.8V286.8C352.8 280.4 348.8 272.8 344 270L298.4 244C293.6 241.2 289.6 244 289.6 250.8V312.8C289.6 319.2 293.6 326.4 298.4 329.2Z" fill="#2D2C37"></path> <path d="M350.4 348V285.2C350.4 280.8 347.6 275.2 344.4 273.2L298.8 246.8C295.2 244.8 292.8 246.8 292.8 251.6V314.8C292.8 319.2 295.6 324.8 298.8 326.8L344 352.8C347.6 354.8 350.4 352.8 350.4 348Z" fill="#573F3F"></path> <path d="M330 418.8L344 426.8C348.8 429.6 352.8 426.8 352.8 420V380.4C352.8 374 348.8 366.4 344 363.6L330 355.6C325.2 352.8 321.2 355.6 321.2 362.4V402C321.2 408.4 325.2 416 330 418.8Z" fill="#2D2C37"></path> <path d="M350.4 419.2V378.8C350.4 374.4 347.6 368.8 344.4 366.8L330.4 358.8C326.8 356.8 324.4 358.8 324.4 363.6V404C324.4 408.4 327.2 414 330.4 416L344.4 424C347.6 426 350.4 424 350.4 419.2Z" fill="#573F3F"></path> <path d="M239.2 342H237.6V303.2L229.2 272.8L230.8 272.4L239.2 302.8V342Z" fill="#C9C3B9"></path> <path d="M183.163 284.971L183.114 286.17L234.273 288.28L234.322 287.081L183.163 284.971Z" fill="#C9C3B9"></path> <path d="M666.4 648L814.4 562.4V322.8L666.4 408.4V648Z" fill="#EBE7E3"></path> <path d="M666.4 648L814.4 562.4V542L666.4 627.2V648Z" fill="#554D4E"></path> <path d="M796.8 374.8V568.4L684.4 633.2V439.6L796.8 374.8Z" fill="#9B897F"></path> <path d="M796.8 374.8V550.4L684.4 485.6V439.6L796.8 374.8Z" fill="#856F63"></path> <path d="M718.4 542L750 523.6V487.2L718.4 505.6V542Z" fill="#C99A6B"></path> <path d="M718.4 542L686.8 523.6V487.2L718.4 505.6V542Z" fill="#AE835B"></path> <path d="M718.4 505.6L686.8 487.2L718.4 468.8L750 487.2L718.4 505.6Z" fill="#AE835B"></path> <path d="M732.4 511.6L737.6 508.8V494.4L732.4 497.2V511.6Z" fill="#D9AF84"></path> <path d="M732.4 497.2L700.8 479.2L706 476L737.6 494.4L732.4 497.2Z" fill="#EBCBAB"></path> <path d="M718.4 504.4L750 486V449.6L718.4 468V504.4Z" fill="#C99A6B"></path> <path d="M718.4 504.4L686.8 486V449.6L718.4 468V504.4Z" fill="#AE835B"></path> <path d="M718.4 468L686.8 449.6L718.4 431.6L750 449.6L718.4 468Z" fill="#E8B687"></path> <path d="M732.4 474L737.6 471.2V456.8L732.4 459.6V474Z" fill="#D9AF84"></path> <path d="M732.4 459.6L700.8 441.6L706 438.4L737.6 456.8L732.4 459.6Z" fill="#EBCBAB"></path> <path d="M754.4 562.8L786 544.4V508L754.4 526.4V562.8Z" fill="#C99A6B"></path> <path d="M754.4 562.8L722.8 544.4V508L754.4 526.4V562.8Z" fill="#AE835B"></path> <path d="M754.4 526.4L722.8 508L754.4 489.6L786 508L754.4 526.4Z" fill="#E8B687"></path> <path d="M768.4 532.4L773.6 529.6V515.2L768.4 518V532.4Z" fill="#D9AF84"></path> <path d="M768.4 518L736.8 500L742 496.8L773.6 515.2L768.4 518Z" fill="#EBCBAB"></path> <path d="M684.4 502L796.8 437.2V374.8L684.4 439.6V502Z" fill="#FCFBFA"></path> <path d="M684.4 486L796.8 421.2V419.2L684.4 484V486Z" fill="#F0ECE9"></path> <path d="M684.4 471.6L796.8 406.8V404.8L684.4 469.6V471.6Z" fill="#F0ECE9"></path> <path d="M684.4 457.2L796.8 392.4V390.4L684.4 455.2V457.2Z" fill="#F0ECE9"></path> <path d="M684.4 442.4L796.8 377.6V375.6L684.4 440.4V442.4Z" fill="#F0ECE9"></path> <path d="M796.8 568.4L792 565.6L684.4 627.6V633.2L796.8 568.4Z" fill="#6B6164"></path> <path d="M690.8 657.6L666.4 643.6L814.4 558L838.8 572L690.8 657.6Z" fill="#6B6164"></path> <path d="M690.8 657.6L666.4 643.6V648L690.8 662V657.6Z" fill="#493F41"></path> <path d="M838.8 572L690.8 657.6V662L838.8 576.4V572Z" fill="#554D4E"></path> <path d="M402.8 78L812.4 314.4L664.4 399.6L257.6 164.8L402.8 78Z" fill="#FCFBFA"></path> <path d="M656.4 569.6L362 400V391.2L366 386.8L656.4 561.2L660.4 565.6L656.4 569.6Z" fill="#CDC6BC"></path> <path d="M657.6 558.4L363.2 388.4L366 386.8L660.4 556.8L657.6 558.4Z" fill="#6B6164"></path> <path d="M657.6 558.4V567.2L660.4 565.6V556.8L657.6 558.4Z" fill="#554D4E"></path> <path d="M657.6 567.2L363.2 397.2V388.4L657.6 558.4V567.2Z" fill="#3F3436"></path> <path d="M309.2 428L281.6 343.2V226.8L277.2 224.4V345.6L304.8 430.4L362 463.2V458.4L309.2 428Z" fill="#9B897F"></path> <path d="M309.2 428L304.8 430.4L362 463.2V458.4L309.2 428Z" fill="#F3F1EE"></path> <path d="M354.8 476.4L286 436.4V440.8L354.8 480.4V476.4Z" fill="#3F3436"></path> <path d="M354.8 476.4L366 470V474.4L354.8 480.4V476.4Z" fill="#493F41"></path> <path d="M354.8 476.4L366 470L296.8 430L286 436.4L354.8 476.4Z" fill="#6B6164"></path> <path d="M207.2 383.6L210.8 382V354.4L207.2 356.8V383.6Z" fill="#493F41"></path> <path d="M796.8 568.4L792 565.6V377.6L796.8 374.8V568.4Z" fill="#DED8D1"></path> <path d="M196.4 314.4L189.6 310.4V302.8L191.6 296.8L200 311.2L196.4 314.4Z" fill="#B5AA9C"></path> <path d="M200.8 312.8L190.4 306.8V295.2L200.8 301.2V312.8Z" fill="#504F58"></path> <path d="M200 311.2L188.8 300L191.6 296.8L200 301.6V311.2Z" fill="#FF9A2E"></path> <path d="M195.6 311.6L188.8 308V300L195.6 304V311.6Z" fill="#E06F2E"></path> <path d="M200 301.6L195.6 304V311.6L200 311.2V301.6Z" fill="#E07427"></path> <path d="M656 583.6C656 587.2 653.6 588.8 650.4 586.8C647.2 584.8 644.8 580.8 644.8 577.2C644.8 573.6 647.2 572 650.4 574C653.6 576 656 580.4 656 583.6Z" fill="#504F58"></path> <path d="M654.8 583.2C654.8 586 652.8 587.2 650.4 585.6C648 584 646 580.8 646 578C646 575.2 648 574 650.4 575.6C652.8 576.8 654.8 580.4 654.8 583.2Z" fill="#D83B2E"></path> <path d="M646.8 575.2C646.8 575.2 644.8 577.2 644.4 578.4C644 579.6 649.2 586.8 649.2 586.8C649.2 586.8 652 586.8 653.6 586C655.2 585.2 646.8 575.2 646.8 575.2Z" fill="#D83B2E"></path> <path d="M651.2 584.4C651.2 586.8 649.6 587.6 647.6 586.4C645.6 585.2 644 582.4 644 580.4C644 578 645.6 577.2 647.6 578.4C649.6 579.6 651.2 582 651.2 584.4Z" fill="#FF512E"></path> <path d="M787.2 568.4H704L684.4 580.4V627.6L787.2 568.4Z" fill="#CDC6BC"></path> <path d="M306.4 143.6L299.6 140L304.8 136.8L310 143.6H306.4Z" fill="#EBE7E3"></path> <path d="M310 143.6L315.2 140.8V138L310 141.2V143.6Z" fill="#E07427"></path> <path d="M310 141.2L303.2 137.6L308.4 134.4L315.2 138L310 141.2Z" fill="#FF9A2E"></path> <path d="M310 141.2L303.2 137.6V140L310 143.6V141.2Z" fill="#E06F2E"></path> <path d="M332 128.4L325.6 124.8L330.4 121.6L335.6 128.4H332Z" fill="#EBE7E3"></path> <path d="M335.6 128.4L340.8 125.6V122.8L335.6 126V128.4Z" fill="#E07427"></path> <path d="M335.6 126L329.2 122L334.4 119.2L340.8 122.8L335.6 126Z" fill="#FF9A2E"></path> <path d="M335.6 126L329.2 122V124.8L335.6 128.4V126Z" fill="#E06F2E"></path> <path d="M357.6 113.2L351.2 109.6L356.4 106.4L361.2 113.2H357.6Z" fill="#EBE7E3"></path> <path d="M361.2 113.2L366.4 110V107.6L361.2 110.8V113.2Z" fill="#E07427"></path> <path d="M361.2 110.8L354.8 106.8L360 104L366.4 107.6L361.2 110.8Z" fill="#FF9A2E"></path> <path d="M361.2 110.8L354.8 106.8V109.6L361.2 113.2V110.8Z" fill="#E06F2E"></path> <path d="M726 388.4L746.4 376.8V370.8L727.6 378L726 382.4V388.4Z" fill="#CDC6BC"></path> <path d="M730 385.6L750.4 374V367.6L730 379.6V385.6Z" fill="#E07427"></path> <path d="M730 379.6L727.6 378L748 366.4L750.4 367.6L730 379.6Z" fill="#FF9A2E"></path> <path d="M730 379.6L727.6 378V384L730 385.6V379.6Z" fill="#E06F2E"></path> <path d="M798 538L808.8 531.6V516.4L800 517.6L798 522.4V538Z" fill="#CDC6BC"></path> <path d="M798 517.2L808.8 511.2V495.6L800 497.2L798 502V517.2Z" fill="#CDC6BC"></path> <path d="M798 496.8L808.8 490.8V475.2L800 476.8L798 481.6V496.8Z" fill="#CDC6BC"></path> <path d="M798 476.4L808.8 470.4V454.8L800 456.4L798 461.2V476.4Z" fill="#CDC6BC"></path> <path d="M802.4 534.8L813.6 528.4V513.2L802.4 519.2V534.8Z" fill="#DE4231"></path> <path d="M802.4 519.2L800 517.6L810.8 511.6L813.6 513.2L802.4 519.2Z" fill="#FD6039"></path> <path d="M802.4 519.2L800 517.6V533.2L802.4 534.8V519.2Z" fill="#DE4037"></path> <path d="M802.4 514.4L813.6 508V492.8L802.4 498.8V514.4Z" fill="#E07427"></path> <path d="M802.4 498.8L800 497.2L810.8 491.2L813.6 492.8L802.4 498.8Z" fill="#FF9A2E"></path> <path d="M802.4 498.8L800 497.2V512.8L802.4 514.4V498.8Z" fill="#E06F2E"></path> <path d="M802.4 493.6L813.6 487.6V472.4L802.4 478.4V493.6Z" fill="#EDEDED"></path> <path d="M802.4 478.4L800 476.8L810.8 470.8L813.6 472.4L802.4 478.4Z" fill="#FBF9FF"></path> <path d="M802.4 478.4L800 476.8V492.4L802.4 493.6V478.4Z" fill="#E0E0E0"></path> <path d="M802.4 473.2L813.6 467.2V451.6L802.4 458V473.2Z" fill="#DE4231"></path> <path d="M802.4 458L800 456.4L810.8 450.4L813.6 451.6L802.4 458Z" fill="#FD6039"></path> <path d="M802.4 458L800 456.4V472L802.4 473.2V458Z" fill="#DE4037"></path> <path d="M668.4 612L679.6 606V590.8L670.4 592L668.4 596.8V612Z" fill="#CDC6BC"></path> <path d="M668.4 591.6L679.6 585.6V570L670.4 571.6L668.4 576.4V591.6Z" fill="#CDC6BC"></path> <path d="M668.4 571.2L679.6 565.2V549.6L670.4 551.2L668.4 556V571.2Z" fill="#CDC6BC"></path> <path d="M668.4 550.8L679.6 544.8V529.2L670.4 530.8L668.4 535.2V550.8Z" fill="#CDC6BC"></path> <path d="M673.2 609.2L684 602.8V587.6L673.2 593.6V609.2Z" fill="#DE4231"></path> <path d="M673.2 593.6L670.4 592L681.6 586L684 587.6L673.2 593.6Z" fill="#FD6039"></path> <path d="M673.2 593.6L670.4 592V607.6L673.2 609.2V593.6Z" fill="#DE4037"></path> <path d="M673.2 588.4L684 582.4V567.2L673.2 573.2V588.4Z" fill="#E07427"></path> <path d="M673.2 573.2L670.4 571.6L681.6 565.6L684 567.2L673.2 573.2Z" fill="#FF9A2E"></path> <path d="M673.2 573.2L670.4 571.6V587.2L673.2 588.4V573.2Z" fill="#E06F2E"></path> <path d="M673.2 568L684 562V546.4L673.2 552.8V568Z" fill="#EDEDED"></path> <path d="M673.2 552.8L670.4 551.2L681.6 545.2L684 546.4L673.2 552.8Z" fill="#FBF9FF"></path> <path d="M673.2 552.8L670.4 551.2V566.8L673.2 568V552.8Z" fill="#E0E0E0"></path> <path d="M673.2 547.6L684 541.6V526L673.2 532.4V547.6Z" fill="#DE4231"></path> <path d="M673.2 532.4L670.4 530.8L681.6 524.8L684 526L673.2 532.4Z" fill="#FD6039"></path> <path d="M673.2 532.4L670.4 530.8V546.4L673.2 547.6V532.4Z" fill="#DE4037"></path> <path d="M800.8 533.6L811.6 527.6V512L800.8 518.4V533.6Z" fill="#EEFAF9"></path> <path d="M800.8 513.2L811.6 507.2V491.6L800.8 497.6V513.2Z" fill="#F5EC73"></path> <path d="M800.8 492.8L811.6 486.8V471.2L800.8 477.2V492.8Z" fill="#EEFAF9"></path> <path d="M800.8 472.4L811.6 466.4V450.8L800.8 456.8V472.4Z" fill="#EEFAF9"></path> <path d="M671.2 608L682.4 602V586.4L671.2 592.8V608Z" fill="#EEFAF9"></path> <path d="M671.2 587.6L682.4 581.6V566L671.2 572V587.6Z" fill="#F5EC73"></path> <path d="M671.2 567.2L682.4 561.2V545.6L671.2 551.6V567.2Z" fill="#EEFAF9"></path> <path d="M671.2 546.8L682.4 540.8V525.2L671.2 531.2V546.8Z" fill="#EEFAF9"></path> <path d="M269.2 207.2V246.4L243.2 261.6L255.6 199.2L269.2 207.2Z" fill="#B08480"></path> <path d="M794.4 441.2V458L684.4 521.6V504.8L794.4 441.2Z" fill="#493F41"></path> <path d="M794.4 441.2L684.4 504.8V502L792 440L794.4 441.2Z" fill="#6B6164"></path> <path d="M670.8 394L276.4 166L279.2 164.4L672 394H670.8Z" fill="#EBE7E3"></path> <path d="M672 393.2L277.2 165.2L280 163.6L674.8 391.6L672 393.2Z" fill="#FCFBFA"></path> <path d="M672 393.2V394L674.8 392.4V391.6L672 393.2Z" fill="#EBE7E3"></path> <path d="M672 394L277.2 166V165.2L672 393.2V394Z" fill="#CDC6BC"></path> <path d="M689.2 383.6L294.4 155.6L297.2 154L690 383.6H689.2Z" fill="#EBE7E3"></path> <path d="M690 382.8L295.6 154.4L298 152.8L692.8 381.2L690 382.8Z" fill="#FCFBFA"></path> <path d="M690 382.8V383.6L692.8 382V381.2L690 382.8Z" fill="#EBE7E3"></path> <path d="M690 383.6L295.6 155.6V154.4L690 382.8V383.6Z" fill="#CDC6BC"></path> <path d="M707.2 373.2L312.8 144.8L315.2 143.2L708.4 373.2H707.2Z" fill="#EBE7E3"></path> <path d="M708.4 372.4L313.6 144L316.4 142.4L711.2 370.8L708.4 372.4Z" fill="#FCFBFA"></path> <path d="M708.4 372.4V373.2L711.2 371.6V370.8L708.4 372.4Z" fill="#EBE7E3"></path> <path d="M708.4 373.2L313.6 144.8V144L708.4 372.4V373.2Z" fill="#CDC6BC"></path> <path d="M725.6 362.8L330.8 134.4L333.6 132.8L726.4 362.8H725.6Z" fill="#EBE7E3"></path> <path d="M726.4 361.6L331.6 133.6L334.4 132L729.2 360L726.4 361.6Z" fill="#FCFBFA"></path> <path d="M726.4 361.6V362.8L729.2 361.2V360L726.4 361.6Z" fill="#EBE7E3"></path> <path d="M726.4 362.8L331.6 134.4V133.6L726.4 361.6V362.8Z" fill="#CDC6BC"></path> <path d="M743.6 352L348.8 124L351.6 122.4L744.8 352H743.6Z" fill="#EBE7E3"></path> <path d="M744.8 351.2L350 123.2L352.8 121.6L747.2 349.6L744.8 351.2Z" fill="#FCFBFA"></path> <path d="M744.8 351.2V352L747.2 350.4V349.6L744.8 351.2Z" fill="#EBE7E3"></path> <path d="M744.8 352L350 124V123.2L744.8 351.2V352Z" fill="#CDC6BC"></path> <path d="M762 341.6L367.2 113.6L370 112L762.8 341.6H762Z" fill="#EBE7E3"></path> <path d="M762.8 340.8L368 112.4L370.8 110.8L765.6 339.2L762.8 340.8Z" fill="#FCFBFA"></path> <path d="M762.8 340.8V341.6L765.6 340V339.2L762.8 340.8Z" fill="#EBE7E3"></path> <path d="M762.8 341.6L368 113.6V112.4L762.8 340.8V341.6Z" fill="#CDC6BC"></path> <path d="M780 331.2L385.2 102.8L388 101.6L780.8 331.2H780Z" fill="#EBE7E3"></path> <path d="M780.8 330.4L386.4 102L388.8 100.4L783.6 328.8L780.8 330.4Z" fill="#FCFBFA"></path> <path d="M780.8 330.4V331.2L783.6 329.6V328.8L780.8 330.4Z" fill="#EBE7E3"></path> <path d="M780.8 331.2L386.4 102.8V102L780.8 330.4V331.2Z" fill="#CDC6BC"></path> <path d="M798 320.8L403.6 92.4L406 90.8L799.2 320.8H798Z" fill="#EBE7E3"></path> <path d="M799.2 320L404.4 91.6L407.2 90L802 318.4L799.2 320Z" fill="#FCFBFA"></path> <path d="M799.2 320V320.8L802 319.2V318.4L799.2 320Z" fill="#EBE7E3"></path> <path d="M799.2 320.8L404.4 92.4V91.6L799.2 320V320.8Z" fill="#CDC6BC"></path> <path d="M645.6 527.6C643.2 527.6 640.8 526.8 638.4 525.6L555.2 477.6C546 472.4 538.8 458.8 538.8 446.8V399.6C538.8 392.8 541.2 387.6 545.2 385.2C548.8 383.2 553.2 383.2 557.6 386L640.8 434C650 439.2 657.2 452.8 657.2 464.8V512C657.2 518.8 654.8 524 650.8 526.4C649.2 527.2 647.2 527.6 645.6 527.6ZM641.2 520.4C643.2 521.6 645.6 522.4 648 521.2C650.4 520 651.6 516.4 651.6 512V464.8C651.6 455.2 645.6 443.2 638.4 439.2L555.2 391.2C553.2 390 550.8 389.2 548.4 390.4C546 391.6 544.8 395.2 544.8 399.6V446.8C544.8 456.4 550.8 468.4 558 472.4L641.2 520.4Z" fill="#E9E5E1"></path> <path d="M645.6 524.8C643.2 524.8 640.8 524 638.4 522.8L555.2 474.8C546 469.6 538.8 456 538.8 444V396.8C538.8 390 541.2 384.8 545.2 382.4C548.8 380.4 553.2 380.4 557.6 383.2L640.8 431.2C650 436.4 656.8 450 656.8 462V509.2C656.8 516 654.4 521.2 650.4 523.6C649.2 524.4 647.2 524.8 645.6 524.8ZM550.8 386.8C550 386.8 549.2 386.8 548.4 387.2C546 388.4 544.8 392 544.8 396.4V444C544.8 453.6 550.8 465.6 558 469.6L641.2 517.6C643.2 518.8 645.6 519.6 648 518.4C650.4 517.2 651.6 513.6 651.6 509.2V462C651.6 452.4 645.6 440.4 638.4 436.4L555.2 388.4C554 387.6 552.4 386.8 550.8 386.8Z" fill="#D9D3CC"></path> <path d="M516.4 453.2C514 453.2 511.6 452.4 509.2 451.2L426 403.2C416.8 398 410 384.4 410 372.4V324.8C410 318 412.4 312.8 416.4 310.4C420 308.4 424.4 308.4 428.8 311.2L512 359.2C521.2 364.4 528.4 378 528.4 390V437.2C528.4 444 526 449.2 522 451.6C520 452.8 518 453.2 516.4 453.2ZM421.6 315.2C420.8 315.2 420 315.2 419.2 315.6C416.8 316.8 415.6 320.4 415.6 324.8V372C415.6 381.6 421.6 393.6 428.8 397.6L512 445.6C514 446.8 516.4 447.6 518.8 446.4C521.2 445.2 522.4 441.6 522.4 437.2V390C522.4 380.4 516.4 368.4 509.2 364.4L426 316.4C424.8 315.6 423.2 315.2 421.6 315.2Z" fill="#E9E5E1"></path> <path d="M516.4 450.4C514 450.4 511.6 449.6 509.2 448.4L426 400.4C416.8 395.2 409.6 381.6 409.6 369.6V322.4C409.6 315.6 412 310.4 416 308C419.6 306 424 306 428.4 308.8L511.6 356.8C520.8 362 528 375.6 528 387.6V434.8C528 441.6 525.6 446.8 521.6 449.2C520 450 518 450.4 516.4 450.4ZM512 443.2C514 444.4 516.4 445.2 518.8 444C521.2 442.8 522.4 439.2 522.4 434.8V387.2C522.4 377.6 516.4 365.6 509.2 361.6L426 313.6C424 312.4 421.6 311.6 419.2 312.8C416.8 314 415.6 317.6 415.6 322V369.2C415.6 378.8 421.6 390.8 428.8 394.8L512 443.2Z" fill="#D9D3CC"></path> <path d="M439.6 344.4V361.6C439.6 364.8 443.2 366.8 446 365.2L461.2 356.8C464 355.2 464 351.2 461.2 349.6L446 340.8C442.8 338.8 439.6 340.8 439.6 344.4Z" fill="#DE4037"></path> <path d="M484 406.4V389.2C484 386 480.4 384 477.6 385.6L462.4 394C459.6 395.6 459.6 399.6 462.4 401.2L477.6 410C480.4 411.6 484 409.6 484 406.4Z" fill="#DE4037"></path> <path d="M441.6 389.2L453.6 396C457.2 398 461.6 394 459.2 390.4L447.2 370C445.2 366.4 439.2 367.6 439.2 372V385.6C439.6 387.2 440.4 388.4 441.6 389.2Z" fill="#F5B53D"></path> <path d="M482 361.6L470 354.8C466.4 352.8 462 356.8 464.4 360.4L476.4 380.8C478.4 384.4 484.4 383.2 484.4 378.8V365.2C484 363.6 483.2 362 482 361.6Z" fill="#F5B53D"></path> <path d="M516.4 395.6C516.4 402 512.4 403.6 506.4 400L498.8 395.6V375.2L506.8 379.6C512.8 383.2 516.4 389.2 516.4 395.6ZM510.4 392C510.4 388.8 508.8 386 506.8 384.8L504.8 383.6V393.6L507.2 394.8C509.2 396.4 510.4 395.2 510.4 392Z" fill="#493F41"></path> <path d="M533.2 395.2V400.4L524 395.2V397.6L532.4 402.4V407.6L524 402.8V405.2L533.2 410.8V416L518 407.2V386.8L533.2 395.2Z" fill="#493F41"></path> <path d="M541.6 400V414.8L549.2 419.2V424.8L536 417.2V396.8L541.6 400Z" fill="#493F41"></path> <path d="M556.4 408.4V428.8L550.4 425.2V404.8L556.4 408.4Z" fill="#493F41"></path> <path d="M563.6 412.8L567.2 428.4L570.8 417.2L576.8 420.8L570 437.2L564 433.6L557.2 409.2L563.6 412.8Z" fill="#493F41"></path> <path d="M593.2 429.6V434.8L584 429.6V432L592.4 436.8V442L584 437.2V439.6L593.2 445.2V450.4L578 441.6V421.2L593.2 429.6Z" fill="#493F41"></path> <path d="M606 457.6L604 451.2L601.6 450V455.2L595.6 451.6V431.2L604.4 436C609.2 438.8 612 443.2 612 447.6C612 450.4 611.2 452.4 609.2 452.4L612.8 461.2L606 457.6ZM601.6 444.8L604.4 446.4C605.6 447.2 606.4 446.8 606.4 445.2C606.4 443.6 605.6 442.4 604.4 441.6L601.6 440V444.8Z" fill="#493F41"></path> <path d="M624.8 462V468.4L618.8 465.2V458.8L612.4 440.8L618.4 444L622 454L625.6 448L631.6 451.2L624.8 462Z" fill="#493F41"></path> <path d="M503.6 412.4C503.2 412 502.8 412 502.8 412.4C502.8 414.4 509.2 416.8 509.2 422C509.2 425.2 506.8 425.2 504 423.6C501.6 422.4 499.2 420 497.6 417.6L499.2 414.8C500.4 416.8 502.8 419.2 504 420C504.8 420.4 505.2 420.4 505.2 420C505.2 418 498.8 415.6 498.8 410.4C498.8 407.6 500.8 406.8 504.4 408.8C506.4 410 508.4 412 510 413.6L508.4 416.4C506.8 414.8 504.8 412.8 503.6 412.4Z" fill="#493F41"></path> <path d="M521.2 419.2V422.8L514.8 419.2V420.8L520.8 424.4V428L514.8 424.4V426.4L521.6 430.4V434L510.8 427.6V413.2L521.2 419.2Z" fill="#493F41"></path> <path d="M530.4 438.8L528.8 434L527.2 433.2V436.8L522.8 434.4V420L528.8 423.6C532.4 425.6 534.4 428.8 534.4 432C534.4 434 533.6 435.2 532.4 435.6L534.8 441.6L530.4 438.8ZM527.2 429.6L529.2 430.8C530 431.2 530.8 430.8 530.8 430C530.8 428.8 530.4 428 529.2 427.6L527.2 426.4V429.6Z" fill="#493F41"></path> <path d="M539.6 429.6L542.4 440.8L545.2 432.8L549.6 435.2L544.8 446.8L540.4 444.4L535.6 427.2L539.6 429.6Z" fill="#493F41"></path> <path d="M554 438V452.4L549.6 450V435.6L554 438Z" fill="#493F41"></path> <path d="M562.4 446.4C560.8 445.6 559.6 446.4 559.6 448.4C559.6 450.4 560.8 452.4 562.4 453.2C563.2 453.6 564.4 453.6 565.2 453.2L567.6 457.6C566 458.4 564 458.4 562 457.2C558 454.8 555.2 450 555.2 445.6C555.2 441.2 558 440 562 442C564 443.2 566 445.2 567.2 447.6L564.8 449.6C564.4 448.4 563.2 447.2 562.4 446.4Z" fill="#493F41"></path> <path d="M579.2 452.4V456L572.8 452.4V454L578.8 457.6V461.2L572.8 457.6V459.6L579.6 463.6V467.2L568.8 460.8V446.4L579.2 452.4Z" fill="#493F41"></path> <path d="M666.4 556L372 386V377.2L666.4 547.2V556Z" fill="#F5B53D"></path> <path d="M702.4 648.8H698V596.4C696.8 597.2 695.2 598 694 598.8L693.6 599.2C690.4 600.4 688.4 600.8 685.2 598.4C685.2 598.4 665.6 586.4 654 578.4L652.8 577.6L652 576.8C652.4 575.6 653.2 574.4 662.4 570.8L664.4 574.8C662.8 575.6 660.8 576.4 659.2 577.2C670.8 584.8 687.2 594.8 687.2 594.8C688.8 596 689.2 596 691.6 595.2C698.8 590 700 590.8 700.8 591.2L702 592V593.6V648.8H702.4Z" fill="#898184"></path> <path d="M834 572H829.6V527.2C829.6 523.6 831.6 520.8 834.4 518.8L836 518L814.4 506V500.8L840.4 515.6C842.4 516.8 842.4 519.6 840.4 520.4L836.4 522.4C834.8 523.2 834 524.8 834 526.8V572Z" fill="#898184"></path> <path d="M702 648C701.2 647.6 699.6 647.6 698.8 648C698 648.4 698 649.2 698.8 649.6C699.6 650 701.2 650 702 649.6C702.8 649.2 702.8 648.4 702 648Z" fill="#898184"></path> <path d="M833.6 571.2C832.8 570.8 831.2 570.8 830.4 571.2C829.6 571.6 829.6 572.4 830.4 572.8C831.2 573.2 832.8 573.2 833.6 572.8C834.4 572.4 834.4 571.6 833.6 571.2Z" fill="#898184"></path> <path d="M662 572C662 572.8 662.8 574 663.6 574.8C664.4 575.2 665.2 574.8 665.2 574C665.2 573.2 664.4 572 663.6 571.2C662.8 570.8 662 571.2 662 572Z" fill="#898184"></path> <path d="M721.2 785.2L663.6 752L718.4 720L746.4 785.2H721.2Z" fill="#BECDD4"></path> <path d="M801.2 678.8V753.6L776.4 767.6L770.4 771.2L746.4 785.2V710.4L770.4 696.4L776.4 692.8L801.2 678.8Z" fill="#C99A6B"></path> <path d="M746.4 710.4V785.2L720 770L714 766.4L688.4 752V677.2L714 691.6L720 695.2L746.4 710.4Z" fill="#AE835B"></path> <path d="M742.8 726L732 720V707.6L742.8 714V726ZM732.8 719.6L742.4 725.2V714.4L732.8 708.8V719.6Z" fill="#87623F"></path> <path d="M738.8 722L736.4 720.8V714.4L738.8 716V722Z" fill="#87623F"></path> <path d="M741.2 718.4L734 714.4L737.6 712L741.2 718.4Z" fill="#87623F"></path> <path d="M746.4 710.4L688.4 677.2L743.6 645.2L801.2 678.8L746.4 710.4Z" fill="#E8B687"></path> <path d="M770.4 696.4L712.8 663.2L718.8 659.6L776.4 692.8L770.4 696.4Z" fill="#EBCBAB"></path> <path d="M720 695.2V770L714 766.4V691.6L720 695.2Z" fill="#9C754E"></path> <path d="M720 695.2L775.2 663.6L768.8 660L714 691.6L720 695.2Z" fill="#54493E"></path> <path d="M688.4 677.2L746.4 710.4L716 693.6L688.4 677.2Z" fill="#87623F"></path> <path d="M801.2 678.8L746.4 710.4L776.8 693.6L801.2 678.8Z" fill="#87623F"></path> <path d="M715.2 661.6L716 661.2L744 677.6L771.6 661.6L772 662L744.4 678L773.6 694.8H773.2L744 678L717.2 693.6L716.8 693.2L743.6 678L715.2 661.6Z" fill="#D1A986"></path> <path d="M776.4 692.8V767.6L770.4 771.2V696.4L776.4 692.8Z" fill="#D9AF84"></path> <path d="M1082.47 566.592C1082.54 552.675 1063.08 541.286 1039 541.156C1014.92 541.025 995.343 552.201 995.268 566.119C995.192 580.036 1014.65 591.425 1038.73 591.556C1062.81 591.686 1082.39 580.51 1082.47 566.592Z" fill="#BECDD4"></path> <path d="M835.6 639.2L843.2 643.6L866.8 633.2L886.4 622L931.2 647.6L911.6 658.8L893.6 672.4L901.2 676.8L924.8 666.4L1008.8 618L1024.8 608.8L953.2 567.6L937.2 576.8L942.4 580L937.2 576.8L853.2 625.2L835.6 639.2ZM924 600.4L950.8 584.8L995.6 610.4L968.8 626L924 600.4Z" fill="#BECDD4"></path> <path d="M1084.8 537.2C1067.6 527.2 1040 527.2 1023.2 537.2C1006.4 546.8 1006.4 562.8 1023.2 572.8C1040.4 582.8 1068 582.8 1084.8 572.8C1102 563.2 1102 547.2 1084.8 537.2Z" fill="#BECDD4"></path> <path d="M1015.2 418.4C1015.2 418.4 1017.6 422.4 1022 422.8H1022.4C1023.2 422.8 1023.6 422.8 1024 422.8C1026.8 422.4 1027.2 421.6 1027.6 420C1028 418.4 1036.8 382.4 1029.6 380C1029.6 380 1026 380 1024.4 383.6C1023.6 385.6 1021.6 394 1020 400.8C1019.2 405.2 1018.4 408.8 1018 410.4C1017.6 414 1016 416.8 1015.6 418C1015.2 418.4 1015.2 418.4 1015.2 418.4Z" fill="#FEBFBF"></path> <path d="M1008.4 444C1008.4 444.4 1008.4 444.8 1008.4 445.2C1008.4 445.2 1009.2 442.8 1014 438.4C1018.8 434.4 1023.2 427.6 1023.6 425.2V422.4C1026.4 422 1026.8 421.2 1027.2 419.6C1027.6 418 1036.4 382 1029.2 379.6C1029.2 379.6 1025.6 379.6 1024 383.2C1023.2 385.2 1021.2 393.6 1019.6 400.4C1020 401.2 1024 402.8 1024 402.8C1024 402.8 1023.2 415.6 1023.2 416.4C1023.2 417.2 1021.2 419.6 1021.2 419.6C1021.2 420 1022.4 420.8 1022 422.4C1022 422.8 1022 423.2 1021.6 423.6C1020.4 426.4 1014.4 435.2 1012.4 438.4C1010.4 441.6 1008 442.8 1008 442.8C1008 442.8 1008 443.2 1008.4 444Z" fill="url(#paint0_linear_156_8904)"></path> <path d="M1020 400C1020 400 1023.2 402 1025.6 401.2C1028 400.4 1034.8 377.6 1034.8 377.6C1034.8 377.6 1034.4 376.4 1030.4 377.6C1026.4 378.4 1024.8 382.4 1024 384.4C1023.2 385.6 1020 400 1020 400Z" fill="#FFDC6E"></path> <path d="M1025.6 557.2C1025.6 557.2 1020.4 559.6 1019.2 560.4C1018 561.2 1011.6 566.8 1011.2 567.6C1010.8 568.4 1008.8 570 1008.8 572C1008.8 574 1011.2 575.6 1013.2 575.6C1015.2 575.6 1021.2 573.6 1023.6 571.2C1026 568.8 1027.6 567.2 1028 566.8C1028.4 566.8 1028.4 566.8 1029.6 567.2C1030.8 567.2 1035.2 565.2 1035.6 564C1036 562.8 1037.2 558 1036.4 556.4C1035.6 555.2 1025.6 557.2 1025.6 557.2Z" fill="#5C6467"></path> <path d="M1024.8 555.6C1024.8 555.6 1020 560.8 1019.6 561.6C1019.2 562.8 1021.2 564 1024.4 564C1027.6 564 1031.2 560.8 1031.2 560.8C1031.2 560.8 1034.4 556 1033.2 553.6C1031.6 551.6 1024.8 555.6 1024.8 555.6Z" fill="#FEBFBF"></path> <path d="M1023.6 456.4C1023.6 456.4 1022.4 456 1020.4 473.6C1018.4 490 1018.8 501.6 1019.2 507.2C1019.6 512.4 1022.4 554.8 1022.4 556.8C1022.4 558.8 1027.2 560 1030 560C1032.8 560 1035.2 557.2 1035.6 556C1035.6 554.4 1038.8 518.8 1036.4 506.8C1035.6 503.2 1045.2 479.2 1045.2 479.2C1045.2 479.2 1047.2 461.2 1045.6 457.2C1044 453.2 1023.6 456.4 1023.6 456.4Z" fill="#7282B5"></path> <path d="M1029.6 560C1032.4 560 1035.2 557.2 1035.2 556C1035.2 554.4 1038.4 518.8 1036 506.8C1035.2 503.2 1044.8 479.2 1044.8 479.2C1044.8 479.2 1044.8 478.4 1044.8 477.2L1035.6 475.2C1035.6 475.2 1037.6 478.4 1035.6 485.2C1033.6 491.6 1033.6 505.2 1033.2 506.8C1032.8 508.8 1035.6 509.6 1034.8 524C1034.4 535.2 1034.8 553.2 1029.6 560Z" fill="#E8D0C8"></path> <path d="M1068 545.2C1068 545.2 1064.4 550.4 1064 551.2C1063.6 552 1058.4 560.4 1058.4 561.6C1058.4 562.8 1058.4 563.6 1059.2 564.4C1060 565.2 1063.2 566.4 1065.2 565.6C1067.2 565.2 1070.4 563.2 1072.4 561.6C1074 559.6 1076 554.8 1076 554.8C1076 554.8 1078 552.4 1078.8 551.2C1079.2 550 1080.8 548.4 1080.8 546.8C1080.8 545.2 1081.2 544 1079.6 542.8C1078.4 541.6 1068 545.2 1068 545.2Z" fill="#5C6467"></path> <path d="M1068 544C1068 544 1066 549.6 1066 550.8C1066 552 1068.4 552.8 1070.8 552.4C1073.2 552 1074 550 1074.8 549.2C1075.6 548.4 1078.4 543.6 1078 542C1076.8 540.4 1068 544 1068 544Z" fill="#FEBFBF"></path> <path d="M1035.6 458.8C1035.6 458.8 1034.8 466.4 1034.8 469.6C1034.8 472.4 1034.4 476.8 1034.4 476.8L1040 484C1040 484 1043.6 487.2 1048.8 513.2C1053.2 521.6 1066.4 545.6 1066.4 545.6C1066.4 545.6 1070.4 549.6 1074.8 547.6C1078.8 545.6 1080.4 542.4 1080 542C1080 540.4 1071.2 518.8 1070 515.6C1068.8 512.4 1064.4 504.8 1064.4 504.8C1064.4 504.8 1064.4 493.2 1064.8 489.6C1065.6 482.4 1071.6 465.2 1069.6 461.6C1067.6 457.6 1035.6 458.8 1035.6 458.8Z" fill="#7282B5"></path> <path d="M1078 544L1078.8 543.6C1072.4 520.8 1067.2 514.4 1064.4 510.4C1063.6 509.2 1062.8 508 1062.4 507.2C1058.8 497.2 1063.6 479.6 1064.4 476C1066.8 468 1065.6 462.4 1065.6 462.4H1064.8C1064.8 462.4 1066 468 1063.6 475.6C1062.4 479.2 1057.6 497.2 1061.6 507.2C1062 508.4 1062.8 509.6 1064 510.8C1066.8 515.2 1071.6 521.6 1078 544Z" fill="#A0ABCD"></path> <path d="M1062.8 506.4C1067.2 510.8 1071.2 521.6 1074 529.2C1076.4 535.2 1078.4 540 1078.8 544.4C1079.6 543.2 1080 542 1080 542C1080 540.4 1071.2 518.8 1070 515.6C1068.8 512.4 1064.4 504.8 1064.4 504.8C1064.4 504.8 1064.4 493.2 1064.8 489.6C1065.6 482.4 1071.6 465.2 1069.6 461.6C1069.2 461.2 1068.4 460.8 1066.8 460.4C1066.8 460.4 1066.8 460.4 1066.8 460.8C1066.8 460.8 1068.4 461.6 1066 471.6C1063.6 480.8 1060.8 497.6 1062.8 506.4Z" fill="#E8D0C8"></path> <path d="M1071.6 460.4C1071.6 460.4 1066.4 466 1058.4 466.8C1041.6 468.4 1024 460.4 1022 458C1022 458 1024 440.8 1024 432.8C1024 424.8 1024.4 412.4 1024 404.4C1023.6 396.4 1023.2 386.8 1028.4 378.8C1031.6 374 1042 378.4 1045.2 378C1048.4 377.6 1052.8 375.2 1057.2 378.8C1061.6 382.4 1070.4 386 1072.4 391.2C1074.4 397.2 1074 405.2 1070 423.2C1066 443.2 1071.6 460.4 1071.6 460.4Z" fill="#FDD249"></path> <path d="M1028.4 455.2C1028.4 455.2 1023.6 459.6 1026 458.8L1030.8 457.6C1032.8 456.8 1036 458.8 1051.6 453.6C1056.4 452 1065.2 446.8 1065.2 446.8C1065.2 446.8 1068 458 1068.8 463.2C1070.8 461.6 1072.4 460.4 1072.4 460.4C1072.4 460.4 1066.4 442.8 1071.2 423.2C1071.6 420.8 1072.4 418.8 1072.8 417.2C1069.2 410 1065.2 401.2 1060.4 400.8C1060.4 400.8 1056.4 417.6 1058.4 427.2C1060 437.2 1062 437.2 1062 437.2L1044.4 447.2L1028.4 455.2Z" fill="#DEDEDE"></path> <path d="M1038 380C1038 383.2 1037.2 384.4 1038 385.6C1038.8 386.4 1044.4 388 1046.8 386.8C1047.6 386.4 1048.4 386 1049.2 385.6C1054 383.2 1054.8 381.2 1055.6 380C1056 378.8 1055.6 378 1055.6 378C1055.6 378 1052 373.2 1052.4 369.2C1052.4 368 1052.4 366 1052.8 364C1052.8 361.2 1052.8 358.8 1052.8 358.8C1052.8 358.8 1050.8 354.4 1048.8 354.8C1046.8 355.2 1037.6 364.8 1037.6 364.8C1037.6 364.8 1038 368.8 1038 372.8C1038 374.8 1038.4 377.2 1038.4 378.4C1038 379.6 1038 380 1038 380Z" fill="#FFADB7"></path> <path d="M1037.6 373.6C1037.6 375.6 1038 378 1038 379.2C1038.8 379.2 1039.6 379.2 1041.2 378.4C1047.2 376 1048.8 376.4 1050.8 377.6C1052.4 378.8 1052 383.2 1049.6 385.6C1054.4 383.2 1055.2 381.2 1056 380C1056.4 378.8 1056 378 1056 378C1056 378 1052.4 373.2 1052.8 369.2C1052.8 368 1052.8 366 1053.2 364C1046 362.4 1041.6 363.2 1041.6 363.2L1037.6 373.6Z" fill="url(#paint1_linear_156_8904)"></path> <path d="M1050.4 359.2C1050.4 359.2 1050 369.2 1048.8 371.6C1048 373.6 1040.8 379.2 1033.6 378.4C1031.6 377.6 1028.8 372.4 1028.4 368C1028 363.6 1028.4 362 1028.4 361.6C1028.4 361.2 1026.8 358.4 1027.2 357.2C1027.6 356 1027.6 348.8 1030.4 345.6C1032.8 342.4 1039.6 340.4 1045.6 343.2C1052 345.2 1050.4 359.2 1050.4 359.2Z" fill="#FEBFBF"></path> <path d="M1048.4 362.8C1048.4 362.8 1048 358.8 1050.4 358C1052.8 357.2 1052.8 361.6 1052.8 361.6L1052 368.8V370C1052 370 1054.4 365.2 1055.6 363.6C1056.4 362 1056.8 361.2 1057.2 359.6C1057.6 358 1058.8 350.4 1058.4 347.6C1058 344.8 1053.6 341.2 1050 340.8C1048.4 338.8 1045.2 338 1042 338C1038.8 338 1036.4 338 1032.8 340.8C1029.2 343.6 1029.2 346 1028.8 346.8C1028.4 347.6 1028.4 350.8 1028.4 350.8L1028.8 349.2C1028.8 349.2 1030.4 350 1034.8 349.6C1039.2 349.2 1042 347.2 1042 347.2C1042 347.2 1041.2 350.4 1041.2 351.6C1041.2 352.8 1042 356.4 1042 356.4C1042 356.4 1044.4 358 1045.2 358.4C1046 358.8 1046.4 360.4 1046.4 360.4L1046.8 363.6L1048.4 362.8Z" fill="#754554"></path> <path d="M1028 350L1028.8 350.8C1028.8 350.8 1040.8 354.4 1042 354.8C1042.4 354.8 1043.6 355.2 1044.8 355.6C1046.4 356 1048.8 356.8 1052 356.8C1057.6 357.2 1057.6 357.2 1057.6 357.2C1057.6 357.2 1059.2 352 1058.4 347.2C1057.6 343.2 1053.2 340 1048 338.4C1046.8 338 1045.2 337.6 1044 337.6C1037.2 336.8 1032.8 339.6 1030.4 343.2C1028.4 346.4 1028 350 1028 350Z" fill="#FECB4C"></path> <path d="M1044.8 355.6C1046.4 356 1048.8 356.8 1052 356.8C1057.6 357.2 1057.6 357.2 1057.6 357.2C1057.6 357.2 1059.2 352 1058.4 347.2C1057.6 343.2 1053.2 340 1048 338.4C1049.2 339.2 1053.2 340 1052.4 348C1051.6 354.4 1046.4 355.6 1044.8 355.6Z" fill="#FCF5E8"></path> <path d="M1044.8 355.6C1044.8 355.6 1035.2 364 1031.6 360.4C1029.2 358 1023.6 355.6 1020.8 356.4C1018.4 357.2 1018.4 357.2 1018.4 357.2C1018.4 357.2 1018 357.2 1018 356.4C1018 355.6 1028 349.6 1028 349.6C1028 349.6 1032 345.6 1044.8 355.6Z" fill="#725E6D"></path> <path d="M1049.6 360.8C1049.6 360.8 1050.8 357.2 1053.6 358.4C1056.4 359.6 1052.4 366.8 1050.8 367.2C1049.2 367.2 1049.2 365.6 1049.2 365.6C1049.2 365.6 1051.2 362.4 1049.6 360.8Z" fill="url(#paint2_linear_156_8904)"></path> <path d="M1069.2 440.8C1069.2 440.8 1071.2 436.4 1072.4 428C1073.2 419.6 1075.6 393.2 1072 389.6C1068.4 386 1063.2 389.6 1061.2 393.2C1059.2 396.8 1058.4 415.6 1058.8 422.4C1059.2 428.8 1058.8 433.2 1060.4 436.4C1061.6 439.6 1064 441.6 1069.2 440.8Z" fill="#FEBFBF"></path> <path d="M1068.8 387.6C1070.8 387.6 1074.4 389.6 1074.4 396.8C1074.4 404.8 1073.6 412.4 1073.6 415.2C1071.6 416.4 1068 416.4 1064.4 416.4C1061.2 416.4 1058 415.2 1058 414.8C1058 414.4 1058.8 400.8 1060 395.2C1061.6 390 1066.4 387.6 1068.8 387.6Z" fill="#FFDC6E"></path> <path d="M963.6 559.6L957.6 563.2V573.6L963.6 570V559.6Z" fill="#A25900"></path> <path d="M977.2 563.2C977.2 558.8 980 554 984 551.6C985.6 550.4 987.2 550.4 988.4 551.2L991.2 552.8L990 554.8C990 555.2 990 555.2 990 555.6C990 560 987.2 564.8 983.2 567.2C982.8 567.6 982.4 567.6 982 567.6L981.2 569.2L978.4 567.6C977.6 566.8 977.2 565.2 977.2 563.2Z" fill="#3B4549"></path> <path d="M991.589 563.855C994.265 559.278 994.269 554.302 991.599 552.741C988.929 551.18 984.596 553.626 981.92 558.203C979.244 562.78 979.239 567.756 981.909 569.317C984.579 570.878 988.913 568.433 991.589 563.855Z" fill="#5C6467"></path> <path d="M981.2 565.6C981.2 561.2 984 556.4 988 554C989.6 552.8 991.2 552.8 992.4 553.6L995.2 555.2L994 557.2C994 557.6 994 557.6 994 558C994 562.4 991.2 567.2 987.2 569.6C986.8 570 986.4 570 986 570L985.2 571.6L982.4 570C981.6 569.2 981.2 567.6 981.2 565.6Z" fill="#3B4549"></path> <path d="M997.2 559.6C997.2 564 994.4 568.8 990.4 571.2C986.8 573.2 983.6 571.6 983.6 567.2C983.6 562.8 986.4 558 990.4 555.6C994.4 553.6 997.2 555.2 997.2 559.6Z" fill="#5C6467"></path> <path d="M982 574V580.4L985.6 582.4L995.2 558L988.4 559.6L982 574Z" fill="#CE7400"></path> <path d="M985.6 576V582.4L998.8 572.8V560L992 561.6L985.6 576Z" fill="#EDA600"></path> <path d="M999.2 565.6L982.8 556V554.4L1006.4 559.6V561.6L999.2 565.6Z" fill="#EDA600"></path> <path d="M999.2 564L982.8 554.4L990 550L1006.4 559.6L999.2 564Z" fill="#FECB4C"></path> <path d="M996 574.4C996 570 998.8 565.2 1002.8 562.8C1004.4 561.6 1006 561.6 1007.2 562.4L1010 564L1008.8 566C1008.8 566.4 1008.8 566.4 1008.8 566.8C1008.8 571.2 1006 576 1002 578.4C1001.6 578.8 1001.2 578.8 1000.8 578.8L1000 580.4L997.2 578.8C996.8 577.6 996 576.4 996 574.4Z" fill="#3B4549"></path> <path d="M1012.4 568.4C1012.4 572.8 1009.6 577.6 1005.6 580C1002 582 998.8 580.4 998.8 576C998.8 571.6 1001.6 566.8 1005.6 564.4C1009.2 562.4 1012.4 564 1012.4 568.4Z" fill="#5C6467"></path> <path d="M1000 576.8C1000 572.4 1002.8 567.6 1006.8 565.2C1008.4 564 1010 564 1011.2 564.8L1014 566.4L1012.8 568.4C1012.8 568.8 1012.8 568.8 1012.8 569.2C1012.8 573.6 1010 578.4 1006 580.8C1005.6 581.2 1005.2 581.2 1004.8 581.2L1004 582.8L1001.2 581.2C1000.8 580 1000 578.8 1000 576.8Z" fill="#3B4549"></path> <path d="M1016.4 570.4C1016.4 574.8 1013.6 579.6 1009.6 582C1006 584 1002.8 582.4 1002.8 578C1002.8 573.6 1005.6 568.8 1009.6 566.4C1013.2 564.8 1016.4 566.4 1016.4 570.4Z" fill="#5C6467"></path> <path d="M982.8 554.4V556L999.2 565.6V564L982.8 554.4Z" fill="#CE7400"></path> <path d="M1002.44 486.753L989.581 560.03L993.126 560.652L1005.99 487.376L1002.44 486.753Z" fill="#FFC536"></path> <path d="M1005.6 491.2L1000 488C996 485.6 993.2 481.6 992 477.6L988.4 463.2C988 461.6 988 460 988 458.4L989.2 450.4C989.6 448 991.2 446 993.2 445.2C995.6 444 999.2 444.4 1002.4 446L1019.6 456C1025.2 459.2 1028.8 465.6 1027.6 470.8L1026.4 478.8C1026 480.4 1025.6 481.6 1024.4 482.8L1016.8 490.8C1015.6 492.4 1013.6 492.8 1011.6 492.8C1009.6 492.8 1007.6 492.4 1005.6 491.2ZM995.2 449.2C994.4 449.6 994 450.4 993.6 451.2L992.4 459.2C992.4 460 992.4 460.8 992.4 462L996 476.4C996.8 479.6 999.2 482.4 1002 484L1007.6 487.2C1010 488.4 1012.4 488.8 1013.6 487.6L1021.2 479.6C1021.6 479.2 1022 478.8 1022 478L1023.2 470C1023.6 466.8 1021.2 462 1017.2 459.6L1000 449.6C998.8 448.8 997.6 448.4 996.4 448.4C996 448.8 995.6 448.8 995.2 449.2Z" fill="#5C6467"></path> <path d="M988.8 535.6C987.2 532.8 985.2 530.8 982.8 529.6C980.8 528.4 978.4 528 976.8 528.8L970.8 532.4L971.2 532.8L946 550V559.2L1019.6 601.6V592.4L988.8 535.6Z" fill="#FECB4C"></path> <path d="M1013.6 595.6V605.6L996.4 595.6V588.4L957.6 566V573.2L940.4 563.2V553.2L971.2 532C972.8 531.2 974.8 531.6 977.2 532.8C979.2 534 981.6 536.4 983.2 538.8L1013.6 595.6Z" fill="#ED9600"></path> <path d="M868 621.2L854 613.2L954 567.2V571.2L868 621.2Z" fill="#EDA600"></path> <path d="M868 621.2L854 613.2L835.6 627.2L843.6 631.6L868 621.2Z" fill="#EDA600"></path> <path d="M927.6 655.6L913.6 647.6L1013.6 602V606L927.6 655.6Z" fill="#EDA600"></path> <path d="M927.6 655.6L913.6 647.6L895.6 661.6L903.2 666L927.6 655.6Z" fill="#EDA600"></path> <path d="M868 617.2L854 609.2L940 559.2L954 567.2L868 617.2Z" fill="#FECB4C"></path> <path d="M868 617.2L854 609.2L835.6 623.2L843.6 627.6L868 617.2Z" fill="#FECB4C"></path> <path d="M927.6 651.6L913.6 643.6L999.6 594L1013.6 602L927.6 651.6Z" fill="#FECB4C"></path> <path d="M927.6 651.6L913.6 643.6L895.6 657.6L903.2 662L927.6 651.6Z" fill="#FECB4C"></path> <path d="M1019.6 592.4L1013.6 595.6V606L1019.6 602.4V592.4Z" fill="#EDA600"></path> <path d="M835.6 623.2V627.2L843.6 631.6V627.6L835.6 623.2Z" fill="#ED9600"></path> <path d="M895.6 657.6V661.6L903.2 666V662L895.6 657.6Z" fill="#ED9600"></path> <path d="M1008.08 453.066L1001.82 487.295L1006.15 488.088L1012.41 453.859L1008.08 453.066Z" fill="#5C6467"></path> <path d="M993.6 446.8C993.6 446.8 994.4 451.6 994.4 452C994.4 452.4 995.2 452.8 995.2 452.8C995.2 452.8 995.6 453.6 996.4 453.6C997.2 454 998 453.6 998 453.6C998 453.6 1005.2 452.4 1006 451.2C1006.8 450 1008 445.6 1008 444.8C1008 444.8 1008.8 442.4 1013.6 438C1018.4 434 1022.8 427.2 1023.2 424.8V422V420.4C1023.2 420.4 1022 420 1020.4 419.2C1018 418.4 1014.8 417.2 1014.4 417.2C1014 417.6 1012.4 418.8 1009.6 424.8C1006.8 430.4 1001.6 441.2 1000.8 441.2C1000.4 441.6 993.6 442.8 992.8 443.6C993.6 445.2 993.6 446.8 993.6 446.8Z" fill="#FEBFBF"></path> <path d="M1008.4 444C1008.4 444.4 1008.4 444.8 1008.4 445.2C1008.4 445.2 1009.2 442.8 1014 438.4C1018.8 434.4 1023.2 427.6 1023.6 425.2V422.4V420.8C1023.6 420.8 1022.4 420.4 1020.8 419.6C1020.8 420 1022 421.6 1022 423.2C1022 423.6 1021.6 424.4 1021.6 425.2C1020.4 428 1014.8 436 1012.4 438.8C1010 441.6 1008 443.2 1008 443.2C1008 443.2 1008 443.2 1008.4 444Z" fill="url(#paint3_linear_156_8904)"></path> <path d="M1004 450.8C1004 450.8 1003.2 450 1002.8 448.8C1002.4 447.6 1002 446.8 1002 446.8L1001.2 449.6V452L1000.4 453.6L999.2 454.4H1001.6C1002 453.6 1004.4 452 1004 450.8Z" fill="#FA9698"></path> <path d="M1008 444.4C1008 444.4 1006.4 444 1005.2 446.4C1004.4 448.8 1003.6 450.8 1002.8 451.6C1002 452.4 1000.8 452.8 1000.8 452.8C1000.8 452.8 998.4 453.6 998.4 454C998 454.4 998 454.8 998 455.6C998 456.4 999.2 456 999.2 456L1000.8 455.6C1000.8 455.6 1002 455.6 1002.4 455.2C1002.8 454.8 1006.4 452.4 1006.8 451.2C1007.2 450.4 1008.4 447.6 1008.4 446C1008.8 444.8 1008.4 444.8 1008 444.4Z" fill="#FEC7C6"></path> <path d="M1064.8 432.4C1064.8 432.4 1060.8 431.2 1058.4 433.2C1056 435.2 1036.4 451.2 1031.2 453.2C1030.8 453.6 1028 454.8 1026.4 455.2C1024.8 455.6 1019.2 455.2 1018.4 455.6C1017.6 456 1016 460 1015.6 460.8C1015.2 461.6 1015.6 463.6 1015.6 464C1015.6 464.4 1017.6 464.4 1017.6 464.4C1017.6 464.4 1018 465.2 1018.4 465.6C1018.8 466 1020.8 466 1020.8 466C1020.8 466 1021.2 466.4 1022 466.4C1022.8 466.4 1023.2 466 1023.2 466C1023.2 466 1023.6 466.8 1025.6 466.4C1027.2 466 1027.6 464.8 1027.6 464.8V462.8C1027.6 462.8 1031.6 462.8 1033.6 461.6C1035.6 460.4 1036.4 458.8 1037.6 458C1038.8 457.2 1066.8 448 1069.2 441.2C1071.2 434 1064.8 432.4 1064.8 432.4Z" fill="#FEBFBF"></path> <path d="M944 638.8L875.6 599.6V559.2L944 598.8V638.8Z" fill="#C99A6B"></path> <path d="M944 638.8L1000 606.8V566.4L944 598.8V638.8Z" fill="#AE835B"></path> <path d="M944 598.8L1000 566.4L931.6 527.2L875.6 559.2L944 598.8Z" fill="#87623F"></path> <path d="M968 610.4L977.2 605.2V579.6L968 584.8V610.4Z" fill="#9C754E"></path> <path d="M968 584.8L899.6 545.6L908.8 540.4L977.2 579.6L968 584.8Z" fill="#54493E"></path> <path d="M1000 566.4L944 598.8L974.4 582.8L1000 566.4Z" fill="#87623F"></path> <path d="M972.4 582.4L904 543.2L904.4 542.8L972.8 582.4H972.4Z" fill="#D1A986"></path> <path d="M947.6 601.2L959.6 594.4V608L947.6 614.8V601.2ZM958.8 595.6L948.4 601.6V613.2L958.8 607.2V595.6Z" fill="#87623F"></path> <path d="M952.4 610.4L954.8 608.8V602L952.4 603.6V610.4Z" fill="#87623F"></path> <path d="M950 606.4L957.6 602L953.6 599.6L950 606.4Z" fill="#87623F"></path> <path d="M944 597.2L875.6 557.6V517.6L944 557.2V597.2Z" fill="#C99A6B"></path> <path d="M944 597.2L1000 564.8V524.8L944 557.2V597.2Z" fill="#AE835B"></path> <path d="M944 557.2L1000 524.8L931.6 485.2L875.6 517.6L944 557.2Z" fill="#E8B687"></path> <path d="M968 568.4L977.2 563.2V538L968 543.2V568.4Z" fill="#9C754E"></path> <path d="M968 543.2L899.6 503.6L908.8 498.4L977.2 538L968 543.2Z" fill="#54493E"></path> <path d="M1000 524.8L944 557.2L974.4 540.8L1000 524.8Z" fill="#87623F"></path> <path d="M972.4 540.8L904 501.2L904.4 500.8L972.8 540.4L972.4 540.8Z" fill="#D1A986"></path> <path d="M947.6 559.6L959.6 552.8V566.4L947.6 573.2V559.6ZM958.8 554L948.4 560V571.6L958.8 565.6V554Z" fill="#87623F"></path> <path d="M952.4 568.8L954.8 567.2V560.4L952.4 561.6V568.8Z" fill="#87623F"></path> <path d="M950 564.4L957.6 560L953.6 557.6L950 564.4Z" fill="#87623F"></path> <path d="M279.6 686.4C297.2 676.4 325.2 676.4 342.8 686.4C360 696.4 360 712.8 342.8 722.8C325.2 732.8 297.2 732.8 279.6 722.8C262 712.8 262 696.8 279.6 686.4Z" fill="#BECDD4"></path> <path d="M264 674.8C281.6 664.8 309.6 664.8 327.2 674.8C344.4 684.8 344.4 701.2 327.2 711.2C309.6 721.2 281.6 721.2 264 711.2C246.4 701.2 246.4 685.2 264 674.8Z" fill="#BECDD4"></path> <path d="M317.2 514.4C317.2 514.4 323.6 515.6 325.6 521.2C327.6 526.8 327.6 544 328.4 547.6C329.2 551.2 330.4 554.8 330.4 555.2C330.8 555.6 331.6 556.4 328.8 560C326 563.6 322.4 565.6 320.8 564C319.2 562 317.2 547.2 317.2 540.8C316.8 534.4 317.2 514.4 317.2 514.4Z" fill="#FEBFBF"></path> <path d="M356.8 592.8C356.8 592.8 355.6 594.8 355.2 594.8C354.8 594.8 354 596 353.2 595.6C352.4 595.6 352 594.4 352 594.4C352 594.4 350.8 595.6 350 595.6C349.2 595.6 348.4 594.8 348.4 594.8C348.4 594.8 347.2 594.8 346.8 594.4C346.4 594 346.4 594 346.4 594C346.4 594 345.2 593.6 344.8 592.8C344.4 592 345.2 590 345.2 590C345.2 590 344 587.2 344 586C344 585.2 344 584.8 344 584.4C344 584 344 584 344 584C344 584 323.6 567.6 322 564C320.8 561.6 324.4 558.8 326.8 557.2C328 556.4 328.8 556 328.8 556C328.8 556 330.4 555.2 331.2 555.2C332 555.6 334.4 557.6 337.2 562C340 566.8 345.2 572 348 576.4C351.2 580.4 357.2 588.4 357.2 589.2C357.6 590.4 356.8 592.8 356.8 592.8Z" fill="#FEBFBF"></path> <path d="M346.4 583.2C346.4 583.2 346.4 583.2 345.6 583.6C344.8 584 344 584.8 344 584.8C344 584.8 323.6 568.4 322 564.8C320.8 562.4 324.4 559.6 326.8 558C327.2 562 328 565.6 328.4 567.6C329.2 570.4 340 580.4 342 582C343.6 583.6 346.4 583.2 346.4 583.2Z" fill="url(#paint4_linear_156_8904)"></path> <path d="M344.8 590.8C344.8 590.8 344.8 590 345.6 590C346.4 590 346.8 590 346.8 590C346.8 590 347.2 589.6 348 589.6C348.8 589.6 349.2 590 349.2 590C349.2 590 350 590 350.4 590L353.2 590.8L351.6 595.6H352.8L353.6 593.2L354 592.4C354 592.4 354.4 592.8 354.8 592.8C354.8 593.2 355.2 592.8 355.2 592.8C355.2 592.8 356 591.6 356 591.2C356 590.8 355.6 589.6 355.6 589.6C355.6 589.6 354.4 590 354 590C353.6 590 350 589.2 350 589.2L348 588.4L347.2 586.8L346.8 589.2L346 589.6C345.6 589.6 344.8 589.6 344.8 590.8Z" fill="#FA9698"></path> <path d="M312.8 509.6C312.8 509.6 322.8 508.4 325.6 519.2C327.2 525.2 329.6 541.6 329.6 541.6C329.6 541.6 325.2 546 318.8 546.4C312.4 546 312.8 509.6 312.8 509.6Z" fill="#FFDC6E"></path> <path d="M321.6 696.4C321.6 696.4 327.2 698.8 328 699.6C329.2 700.4 335.6 706 336.4 706.8C336.8 707.6 338.8 709.6 338.8 711.2C338.8 713.2 336.4 714.8 334.4 714.8C332.4 714.8 326 712.8 323.6 710.4C321.2 708 319.6 706 319.2 706C318.8 706 318.8 706 317.6 706.4C316.4 706.4 312 704.4 311.2 703.2C310.8 702 309.6 696.8 310 695.6C311.2 694.4 321.6 696.4 321.6 696.4Z" fill="#5C6467"></path> <path d="M322.4 694.8C322.4 694.8 327.6 700 328 701.2C328.4 702.4 326 703.6 323.2 703.6C320 703.6 316 700.4 316 700.4C316 700.4 312.8 695.6 314 693.2C315.6 690.8 322.4 694.8 322.4 694.8Z" fill="#FEBFBF"></path> <path d="M328.8 616.4C328.4 634.8 328.4 640 328 645.2C327.6 650.8 324.4 694 324.4 696C324.4 698 319.6 699.2 316.8 699.2C314 699.2 311.2 696.4 311.2 694.8C311.2 693.2 308 656.8 310 644.4C310.8 640.8 303.6 616.4 303.6 616.4C303.6 616.4 303.6 615.6 303.2 614.4C302.8 609.6 301.6 597.2 303.2 594C304.8 590 326 593.6 326 593.6C326 593.6 329.2 598 328.8 616.4Z" fill="#7282B5"></path> <path d="M317.2 699.2C314 699.2 311.6 696.4 311.6 694.8C311.6 693.2 308.4 656.8 310.4 644.4C311.2 640.8 304 616.4 304 616.4C304 616.4 304 615.6 303.6 614.4L314 612C314 612 312 615.6 314 622C316 628.8 312.4 642.4 312.8 644.4C313.2 646.4 310.4 647.2 311.2 662C312.4 674 312 692.4 317.2 699.2Z" fill="#E8D0C8"></path> <path d="M280.8 684.4C280.8 684.4 284.4 689.6 284.8 690.4C285.2 691.2 290.4 699.6 290.4 700.8C290.4 702 290.4 702.8 289.6 703.6C288.8 704.4 285.6 705.6 283.6 704.8C281.6 704.4 278 702.4 276.4 700.4C274.8 698.4 272.4 693.6 272.4 693.6C272.4 693.6 270.4 691.2 269.6 690C269.2 688.8 267.6 687.2 267.2 685.6C267.2 684 266.8 682.8 268.4 681.6C270.4 680.8 280.8 684.4 280.8 684.4Z" fill="#5C6467"></path> <path d="M280.8 683.2C280.8 683.2 282.8 688.8 282.8 689.6C282.8 690.8 280.4 692 277.6 691.6C275.2 691.2 274.4 688.8 273.6 688.4C272.8 687.6 270 682.8 270.8 681.2C271.6 679.6 280.8 683.2 280.8 683.2Z" fill="#FEBFBF"></path> <path d="M317.6 607.6C317.6 610.8 315.2 614.4 315.2 614.4L309.6 621.6C309.6 621.6 306 624.8 300.8 651.6C296.4 660 282.8 684.8 282.8 684.8C282.8 684.8 278.8 688.8 274 686.8C272 686 270.8 684.8 270 683.6C269.2 682.4 268.4 681.2 268.8 680.8C268.8 678.8 277.6 656.8 278.8 653.6C280 650.4 284.4 642.8 284.4 642.8C284.4 642.8 284.4 630.8 284 627.2C283.2 620 277.2 602 279.2 598.4C279.6 598 280.4 597.6 282 597.2C290.8 595.2 316.8 596.8 316.8 596.8C316.8 596.8 317.2 604.8 317.6 607.6Z" fill="#7282B5"></path> <path d="M270 683.6L269.2 683.2C276 660 281.2 653.2 284 649.2C285.2 648 285.6 646.8 286.4 645.6C290.4 635.6 285.2 617.2 284.4 613.6C282 605.2 283.2 599.6 283.2 599.6H284C284 599.6 282.8 605.2 285.2 613.2C286.4 616.8 291.2 635.2 287.2 645.6C286.8 646.8 286 648 284.8 649.2C282 654 276.8 660.4 270 683.6Z" fill="#A0ABCD"></path> <path d="M286 644.4C281.6 648.8 277.6 660 274.4 667.6C272 674 269.6 678.8 269.6 683.2C268.8 682 268 680.8 268.4 680.4C268.4 678.4 277.2 656.4 278.4 653.2C279.6 650 284 642.4 284 642.4C284 642.4 284 630.4 283.6 626.8C282.8 619.6 276.8 601.6 278.8 598C279.2 597.6 280 597.2 281.6 596.8V597.2C281.6 597.2 280 598 282.4 608.4C285.2 618.8 288.4 635.6 286 644.4Z" fill="#E8D0C8"></path> <path d="M327.6 595.2C326.4 597.2 317.2 601.2 306.4 603.6C302.8 604.4 299.6 604.8 295.6 604.8C294 604.8 292 604.8 290.4 604.4C286.4 604 282.8 602.4 280.4 600.8C278 599.2 276.8 598 276.8 598C276.8 598 282.8 580 278 560C277.6 557.6 276.8 555.6 276.4 553.6C272.8 538.4 273.6 532.8 275.6 527.2C277.6 522 286.4 518.4 291.2 514.8C296 511.2 300.8 511.2 304 511.6C307.2 512 316.4 508 321.2 514.8C323.6 518 326.4 532.8 325.6 541.2C325.2 549.6 325.6 562 325.6 570.4C325.6 577.6 327.6 595.2 327.6 595.2Z" fill="#FDD249"></path> <path d="M309.2 607.6C309.2 607.6 298 605.2 296 604.4C294 603.6 293.2 599.6 288.8 596.8C284.4 594 283.2 592 283.2 592C283.2 592 281.2 595.2 280.4 600.4C278 598.8 276.8 597.6 276.8 597.6C276.8 597.6 282.8 579.6 278 559.6C277.6 557.2 276.8 555.2 276.4 553.2C280.4 546 284.8 540.8 289.6 540.4C289.6 540.4 289.6 549.2 288 559.2C286.4 569.2 287.6 574 287.6 574L306.4 603.2L309.2 607.6Z" fill="#DEDEDE"></path> <path d="M311.6 515.6C311.6 518.8 311.6 520 311.2 521.2C310.4 522 305.6 523.2 303.2 522C302.4 521.6 301.6 521.2 300.8 520.8C296.4 518.8 294.8 516 294 515.2C293.6 514 294 513.2 294 513.2C294 513.2 296.4 510.8 297.2 505.2C297.2 504.8 296.8 497.6 296.8 495.2C296.8 494.8 296.8 494.4 296.8 494.4C296.8 494.4 298.8 490 301.2 490.4C302.4 490.4 305.6 493.6 308.4 496.4C310.8 498.8 312.8 500.8 312.8 500.8C312.8 500.8 312 510 312 514.4C311.6 514.8 311.6 515.2 311.6 515.6Z" fill="#FFADB7"></path> <path d="M312.4 500.8C312.4 500.8 311.6 510 311.6 514.4C311.2 514.4 310.4 514.8 309.6 514.4C306 514 302.4 510 300.8 511.2C299.2 512.4 297.6 517.6 300.4 521.2C296 519.2 294.4 516.4 293.6 515.6C293.2 514.4 293.6 513.6 293.6 513.6C293.6 513.6 296 511.2 296.8 505.6C296.8 505.2 296.4 498 296.4 495.6C300.8 496.4 304.8 496.4 307.6 496.4C310.4 498.8 312.4 500.8 312.4 500.8Z" fill="url(#paint5_linear_156_8904)"></path> <path d="M298.8 494C298.8 494 299.2 504.4 300.4 506.4C301.6 508.4 308.8 514.4 315.6 513.2C317.6 512 320.4 506.8 320.8 502.4C321.2 497.6 320.8 496 320.8 495.6C320.8 495.2 322.4 492.4 322 491.2C321.6 490 321.6 482.8 318.8 479.6C316.4 476.4 309.2 474.4 303.2 476.8C297.2 479.2 298.8 494 298.8 494Z" fill="#FEBFBF"></path> <path d="M300.8 498C300.8 498 301.2 494 298.8 493.2C296.4 492.4 297.2 498.4 297.2 498.4L296.8 504.4V505.6C296.8 505.6 294.4 500.4 293.6 498.8C292.8 497.2 292.4 496.4 292 494.8C291.6 493.2 290.4 485.2 290.8 482.8C291.2 480 295.6 476 299.2 475.6C300.8 473.6 304 472.4 307.2 472.4C310.4 472.4 312.8 472.8 316.4 475.6C320.4 478.4 320.4 480.8 320.8 481.6C321.2 482.4 321.2 485.2 321.2 485.2L320.8 483.6C320.8 483.6 319.2 484.4 314.4 484C309.6 483.6 307.2 481.6 307.2 481.6C307.2 481.6 308 484.8 308 486C308 487.2 307.2 491.2 307.2 491.2C307.2 491.2 304.8 492.8 304 493.2C303.2 493.6 302.8 495.2 302.8 495.2L302.4 498.4L300.8 498Z" fill="#754554"></path> <path d="M299.6 495.6C299.6 495.6 298.4 492 295.2 493.2C292.4 494.8 296.4 502 298.4 502C300.4 502 300 500.4 300 500.4C300 500.4 298 497.6 299.6 495.6Z" fill="url(#paint6_linear_156_8904)"></path> <path d="M400 781.6L332.8 742.8L371.6 720.8L438.4 759.2L400 781.6Z" fill="#BECDD4"></path> <path d="M337.2 748L389.2 717.6L368.4 705.6L316 735.6L337.2 748Z" fill="#BECDD4"></path> <path d="M306 607.2L320.8 612L319.2 616.8L304.4 612L306 607.2Z" fill="#5C6467"></path> <path d="M341.6 590.4L356.4 595.2L358 590L343.2 585.6L341.6 590.4Z" fill="#5C6467"></path> <path d="M344 586.8C344.4 588 343.6 589.6 342.8 590.4C342 591.2 341.2 590.8 340.8 589.6C340.4 588.4 341.2 586.8 342 586C342.8 585.2 343.6 585.6 344 586.8Z" fill="#5C6467"></path> <path d="M306.8 608.4C307.2 609.6 306.4 611.2 305.6 612C304.8 612.8 304 612.4 303.6 611.2C303.2 610 304 608.4 304.8 607.6C305.6 606.8 306.4 607.2 306.8 608.4Z" fill="#5C6467"></path> <path d="M358.4 588.8L357.2 588.4C356.8 588.4 356 588.4 355.2 589.2C354 590.4 353.2 592.8 353.6 594.8C354 595.6 354.4 596.4 354.8 596.4L356 596.8L356.4 596C356.4 596 356.8 596 356.8 595.6C358 594.4 358.8 592 358.4 590V589.6V588.8Z" fill="#3B4549"></path> <path d="M359.6 590.4C360 592.4 359.2 594.8 358 596C356.8 597.2 355.2 596.8 354.8 595.2C354.4 593.2 355.2 590.8 356.4 589.6C358 588 359.2 588.4 359.6 590.4Z" fill="#5C6467"></path> <path d="M358.8 591.2C359.2 592.4 358.4 594 357.6 594.8C356.8 595.6 356 595.2 355.6 594C355.2 592.8 356 591.2 356.8 590.4C357.6 589.6 358.4 590 358.8 591.2Z" fill="#FFC536"></path> <path d="M321.2 610.4L320 610C319.6 610 318.8 610 318 610.8C316.8 612 315.6 614.4 316 616.4C316 617.2 316.8 618 317.2 618L318.4 618.4L318.8 617.6C318.8 617.6 319.2 617.6 319.2 617.2C320.4 616 321.6 613.6 321.2 611.6V611.2V610.4Z" fill="#3B4549"></path> <path d="M322.4 612C322.8 614 322 616.4 320.4 617.6C319.2 618.8 317.6 618.4 317.2 616.4C316.8 614.4 317.6 612 319.2 610.8C320.8 610 322 610.4 322.4 612Z" fill="#5C6467"></path> <path d="M321.6 612.8C322 614 321.2 615.6 320.4 616.4C319.6 617.2 318.8 616.8 318.4 615.6C318 614.4 318.8 612.8 319.6 612C320.4 611.6 321.2 611.6 321.6 612.8Z" fill="#FFC536"></path> <path d="M365.6 693.6C365.6 700 370 708 376 711.2C381.6 714.4 386.4 712 386.4 705.2C386.4 698.8 382 690.8 376 687.6C370 684.4 365.6 686.8 365.6 693.6Z" fill="#3B4549"></path> <path d="M368.8 686.8L364 689.6L378.8 714.4L383.6 711.6L379.6 694.8L368.8 686.8Z" fill="#3B4549"></path> <path d="M361.2 696C361.2 702.4 365.6 710.4 371.6 713.6C377.6 716.8 382 714.4 382 707.6C382 701.2 377.6 693.2 371.6 690C365.6 686.8 361.2 689.6 361.2 696Z" fill="#5C6467"></path> <path d="M364.8 698.4C364.8 702.4 367.6 707.6 371.2 709.6C374.8 711.6 377.6 710 377.6 706C377.6 702 374.8 696.8 371.2 694.8C368 692.4 364.8 694 364.8 698.4Z" fill="#FFC536"></path> <path d="M387.2 717.6L370 700.8L371.6 700L387.2 704.4V717.6Z" fill="#FFF98B"></path> <path d="M385.6 718.4L370 704.8V700.8L385.6 705.2V718.4Z" fill="#FFE25B"></path> <path d="M437.2 720.4L397.6 743.2V745.2L437.2 722.4V720.4Z" fill="#FFC536"></path> <path d="M385.6 717.2L374.8 612.8C374 604.4 372 602.4 369.2 600C366.8 597.6 362.8 596 360.4 595.2L356.8 594L357.6 591.2L361.2 592.4C362.4 592.8 367.6 594.4 371.2 597.6C375.2 600.4 377.2 603.6 378 612.4L388.8 716.8L385.6 717.2Z" fill="#FFC536"></path> <path d="M383.6 678C383.6 677.2 383.6 676.8 383.2 676.4H382.8L343.2 699.2L344 700.8L383.6 678Z" fill="#DD9A36"></path> <path d="M378.8 639.2C378.8 638.8 378.8 638.8 378.8 639.2C378.8 638.4 378.8 638 378.4 637.6H378L338.4 660.4L339.2 662L378.8 639.2Z" fill="#DD9A36"></path> <path d="M372 702.8C372 702.8 372.4 702.4 372.4 702C372.4 701.2 372 700.4 371.2 700C370.8 700 370.8 700 370.4 700L334.4 720.8L336 723.6L372 702.8Z" fill="#DD9A36"></path> <path d="M349.2 739.6L333.6 725.6V722L349.2 726V739.6Z" fill="#FFF98B"></path> <path d="M397.6 743.2L347.6 738.4L387.2 715.6L437.2 720.4L397.6 743.2Z" fill="#FFE25B"></path> <path d="M346.4 726.8L347.6 738.4L387.2 715.6L385.6 704L346.4 726.8Z" fill="#DD9A36"></path> <path d="M347.6 740.4L332 726.4V722.8L347.6 726.8V740.4Z" fill="#FFE25B"></path> <path d="M397.6 743.2L347.6 738.4V740.4L397.6 745.2V743.2Z" fill="#FFC536"></path> <path d="M346 740L335.2 635.6L334.8 632C334 626 333.6 624.4 331.6 622.4C330 620.4 327.2 618.4 322.8 617.2L319.2 616L320 613.2L323.6 614.4C328.4 616 332 618 333.6 620.4C336.4 623.2 336.8 625.2 337.6 631.6L338 635.2L348.8 739.6L346 740Z" fill="#FFC536"></path> <path d="M321.6 718.8C321.6 725.2 326 733.2 332 736.4C337.6 739.6 342.4 737.2 342.4 730.4C342.4 724 338 716 332 712.8C326.4 709.6 321.6 712.4 321.6 718.8Z" fill="#3B4549"></path> <path d="M339.6 737.2L334.8 740L330 729.2L320 715.2L324.8 712L339.6 737.2Z" fill="#3B4549"></path> <path d="M317.2 721.6C317.2 728 321.6 736 327.6 739.2C333.6 742.4 338 740 338 733.2C338 726.8 333.6 718.8 327.6 715.6C321.6 712.4 317.2 714.8 317.2 721.6Z" fill="#5C6467"></path> <path d="M321.2 723.6C321.2 727.6 324 732.8 327.6 734.8C331.2 736.8 334 735.2 334 731.2C334 727.2 331.2 722 327.6 720C324 718 321.2 719.6 321.2 723.6Z" fill="#FFC536"></path> <path d="M326 726.4C326 727.2 326.8 728.8 327.6 729.2C328.4 729.6 329.2 729.2 329.2 728.4C329.2 727.6 328.4 726 327.6 725.6C326.8 725.2 326 725.6 326 726.4Z" fill="#5C6467"></path> <path d="M390 740.8L424.4 721.2L421.2 684L386.8 704L390 740.8Z" fill="#C99A6B"></path> <path d="M390 740.8L352.4 737.2L348.8 700.4L386.8 704L390 740.8Z" fill="#AE835B"></path> <path d="M386.8 704L348.8 700.4L383.2 680.4L421.2 684L386.8 704Z" fill="#87623F"></path> <path d="M404 712.8L410.8 708.4L408.8 691.2L401.6 695.2L404 712.8Z" fill="#D9AF84"></path> <path d="M401.6 695.2L364 691.6L370.8 687.6L408.8 691.2L401.6 695.2Z" fill="#EBCBAB"></path> <path d="M404.8 693.2L367.2 689.6H367.6L405.2 693.2H404.8Z" fill="#D1A986"></path> <path d="M348.8 700.4L386.8 704L371.6 703.6L348.8 700.4Z" fill="#87623F"></path> <path d="M386.8 703.2L420.8 683.2L417.6 646.4L383.2 666L386.8 703.2Z" fill="#C99A6B"></path> <path d="M386.8 703.2L348.8 699.6L345.6 662.4L383.2 666L386.8 703.2Z" fill="#AE835B"></path> <path d="M383.2 666L345.6 662.4L379.6 642.8L417.6 646.4L383.2 666Z" fill="#E8B687"></path> <path d="M400.4 674.8L407.6 670.8L405.2 653.2L398.4 657.2L400.4 674.8Z" fill="#D9AF84"></path> <path d="M398.4 657.2L360.4 653.6L367.6 649.6L405.2 653.2L398.4 657.2Z" fill="#EBCBAB"></path> <path d="M401.6 655.6L363.6 652L364 651.6L402 655.2L401.6 655.6Z" fill="#D1A986"></path> <path d="M345.6 662.4L383.2 666L368 665.6L345.6 662.4Z" fill="#87623F"></path> <path d="M274 574C274.8 577.6 276.4 580.4 280 585.2C283.6 589.6 299.6 601.6 300.8 604.8C302 608 301.2 612 302 613.2C302.4 614.4 304 616.4 304.8 617.2H305.2C306 617.6 307.6 617.6 307.6 617.6H309.6L313.6 618C313.6 618 315.6 618 315.6 617.2C315.6 616.8 315.6 615.6 315.6 615.6C315.6 615.6 316.4 616 316.8 616.4C317.2 616.8 317.6 616.8 318 616.8C318.8 616.4 318.4 615.2 318 614.4C317.6 613.2 316.4 608.8 315.6 608C315.2 607.2 306.8 601.6 304.8 598.4C302.8 595.2 285.2 572.8 285.2 572.8C285.2 572.8 283.6 568 284.8 564.8C286 561.6 295.2 530 282.4 524.8C278 524 274.8 527.6 273.6 536.4C273.2 544.8 273.2 570.4 274 574Z" fill="#FEBFBF"></path> <path d="M305.2 617.2C306 617.6 307.6 617.6 307.6 617.6H309.6L313.6 618C313.6 618 315.6 618 315.6 617.2C315.6 616.8 315.6 615.6 315.6 615.6C315.6 615.6 316.4 616 316.8 616.4C316.4 615.6 315.6 615.2 315.6 615.2C315.6 615.2 315.2 613.6 314.8 613.2C314.4 612.8 312.8 611.2 312.8 611.2C312.4 611.2 311.6 614 311.6 614L312 616L313.6 615.2C313.6 615.2 313.6 614.4 313.6 614C313.6 613.6 312.4 612.4 312.4 612.4L314.4 613.6C314.4 613.6 314.8 614.8 315.2 615.2C315.6 616 315.2 618 315.2 618C315.2 618 314.8 618.4 313.6 618C312.4 618 309.2 617.2 309.2 617.2L308.4 617.6H306.4L305.2 617.2Z" fill="#FA9698"></path> <path d="M282 554.8C284.8 555.2 288 555.6 288 555.6C288 555.6 290.4 546.4 290 541.2C290 536 290 526.8 283.2 524C276.4 520.8 274 531.2 274 533.2C273.6 535.2 272.8 552.8 272.8 552.8C272.8 552.8 276 554 282 554.8Z" fill="#FFDC6E"></path> <path d="M349.2 596C349.2 596 348 595.2 348.8 594.4C349.6 593.6 350.4 592 350.4 592V589.2C350.4 589.2 347.6 588.4 347.2 586.4C346.8 584.4 348.4 581.6 350 582C351.2 582.4 354.8 587.2 354.8 587.6C354.8 588 353.2 592.8 353.2 592.8C353.2 592.8 352 595.2 351.6 595.2C351.2 595.6 350 596.8 349.2 596Z" fill="#FEC7C6"></path> <path d="M321.6 484L320.8 484.8C320.8 484.8 308.4 488.4 307.2 488.8C306.8 488.8 305.6 489.2 304.4 489.6C302.8 490.4 300.4 490.8 296.8 491.2C291.2 491.6 291.2 491.6 291.2 491.6C291.2 491.6 289.2 486 290.4 481.2C291.2 477.6 295.2 474 300.4 472.4C302 472 303.6 471.6 305.2 471.2C312 470.4 316.8 473.2 318.8 476.8C321.2 480.4 321.6 484 321.6 484Z" fill="#FECB4C"></path> <path d="M304.4 489.6C302.8 490.4 300.4 490.8 296.8 491.2C291.2 491.6 291.2 491.6 291.2 491.6C291.2 491.6 289.2 486 290.4 481.2C291.2 477.6 295.2 474 300.4 472.4C300 472.8 295.2 474.8 295.2 479.2C295.6 483.6 298 488.8 304.4 489.6Z" fill="#FCF5E8"></path> <path d="M304.4 489.6C304.4 489.6 314.4 498 317.6 494.8C320 492.4 326 490 328.8 490.8C331.6 491.6 331.6 491.6 331.6 491.6C331.6 491.6 332 491.6 332 490.8C332 490 322 483.6 322 483.6C322 483.6 317.6 479.6 304.4 489.6Z" fill="#725E6D"></path> <path d="M386.4 716.8L376.8 716V715.6L376 705.2L385.6 706V706.4L386.4 716.8ZM377.6 715.2L386 716L385.2 706.4L376.8 705.6L377.6 715.2Z" fill="#87623F"></path> <path d="M382.4 714.8H380.4L380 709.2L382 709.6L382.4 714.8Z" fill="#87623F"></path> <path d="M384 712L378 711.2L381.2 707.2L384 712Z" fill="#87623F"></path> <path d="M382.8 679.2L373.2 678.4V678L372.4 667.6L382 668.4V668.8L382.8 679.2ZM374 677.6L382.4 678.4L381.6 668.8L373.2 668L374 677.6Z" fill="#87623F"></path> <path d="M378.8 677.2L376.8 676.8L376.4 671.6L378.4 672L378.8 677.2Z" fill="#87623F"></path> <path d="M380.4 674L374.4 673.6L377.6 669.6L380.4 674Z" fill="#87623F"></path> <defs> <linearGradient id="paint0_linear_156_8904" x1="1017.33" y1="414.129" x2="988.75" y2="450.306" gradientUnits="userSpaceOnUse"> <stop offset="0.1224" stop-color="#FCA4B5"></stop> <stop offset="0.9896" stop-color="#FFADB7"></stop> </linearGradient> <linearGradient id="paint1_linear_156_8904" x1="1046.75" y1="374.295" x2="1037.7" y2="385.747" gradientUnits="userSpaceOnUse"> <stop offset="0.1224" stop-color="#FCA4B5"></stop> <stop offset="0.9896" stop-color="#FFADB7"></stop> </linearGradient> <linearGradient id="paint2_linear_156_8904" x1="1049.44" y1="362.402" x2="1054.36" y2="363.233" gradientUnits="userSpaceOnUse"> <stop offset="0.1224" stop-color="#FEB9B8"></stop> <stop offset="1" stop-color="#FFDEDE"></stop> </linearGradient> <linearGradient id="paint3_linear_156_8904" x1="1015.1" y1="433.4" x2="1002.34" y2="449.562" gradientUnits="userSpaceOnUse"> <stop offset="0.1224" stop-color="#FCA4B5"></stop> <stop offset="0.9896" stop-color="#FFADB7"></stop> </linearGradient> <linearGradient id="paint4_linear_156_8904" x1="333.972" y1="573.782" x2="348.387" y2="592.03" gradientUnits="userSpaceOnUse"> <stop offset="0.1224" stop-color="#FCA4B5"></stop> <stop offset="0.9896" stop-color="#FFADB7"></stop> </linearGradient> <linearGradient id="paint5_linear_156_8904" x1="302.328" y1="507.279" x2="313.012" y2="520.803" gradientUnits="userSpaceOnUse"> <stop offset="0.1224" stop-color="#FCA4B5"></stop> <stop offset="0.9896" stop-color="#FFADB7"></stop> </linearGradient> <linearGradient id="paint6_linear_156_8904" x1="299.786" y1="497.291" x2="294.748" y2="498.143" gradientUnits="userSpaceOnUse"> <stop offset="0.1224" stop-color="#FEB9B8"></stop> <stop offset="1" stop-color="#FFDEDE"></stop> </linearGradient> </defs> </svg> 