<?xml version="1.0" encoding="UTF-8"?> <svg xmlns="http://www.w3.org/2000/svg" width="1208" height="912" viewBox="0 0 1208 912" fill="none"> <path d="M1131.35 549.819C1132.27 379.686 893.76 240.47 598.614 238.871C303.468 237.272 63.4567 373.897 62.5331 544.03C61.6095 714.163 300.124 853.379 595.27 854.978C890.416 856.576 1130.43 719.952 1131.35 549.819Z" fill="#E1EAFB"></path> <path d="M718.633 730.005L912.594 618.133C928.014 609.216 925.985 593.813 908.131 583.68L513.309 355.883C495.861 345.749 468.673 344.533 453.66 353.451L259.698 465.323C244.278 474.24 246.307 489.643 264.162 499.776L658.983 727.573C676.432 737.707 703.213 738.923 718.633 730.005Z" fill="#DEE5E9"></path> <path d="M249.148 439.787L261.321 445.056L453.254 334.4C468.673 325.483 495.455 326.699 512.903 336.832L907.725 564.629C908.536 565.035 909.348 565.44 909.754 565.845L922.333 562.197V584.085C922.333 589.76 918.681 595.029 912.188 598.677L718.227 710.549C702.807 719.467 676.026 718.251 658.577 708.117L263.756 480.32C254.423 475.051 249.553 467.755 249.148 461.269V439.787Z" fill="url(#paint0_linear_156_8704)"></path> <path d="M718.633 689.472L912.594 577.6C928.014 568.683 925.985 553.28 908.131 543.147L513.309 315.349C495.861 305.216 468.673 304 453.66 312.917L259.698 424.789C244.278 433.707 246.307 449.109 264.162 459.243L658.983 687.04C676.432 697.173 703.213 697.984 718.633 689.472Z" fill="#EFF0F5"></path> <path d="M263.756 456.811L658.577 684.608C676.026 694.741 703.213 695.957 718.227 687.04L912.188 575.168C918.681 571.52 921.927 566.656 922.333 561.387C922.739 567.467 919.492 573.141 912.188 577.6L718.227 689.472C702.807 698.389 676.026 697.173 658.577 687.04L263.756 459.243C253.611 453.568 248.742 445.867 249.148 438.571C249.959 445.056 254.829 451.541 263.756 456.811Z" fill="#BFC4D5"></path> <path d="M261.727 447.488C263.756 450.731 267.002 453.568 271.465 456L367.635 511.531L490.18 582.059L663.852 682.176C678.46 690.688 701.184 691.499 713.763 684.203L891.088 582.059L904.478 574.357C917.058 567.061 915.434 554.091 900.826 545.579L841.989 511.531L730.4 447.488L578.233 359.531L508.44 319.403C493.832 310.891 471.108 310.08 458.529 317.376L385.489 359.531L267.813 427.221C258.886 432.491 256.857 440.597 261.727 447.488Z" fill="#2A2A2C"></path> <path d="M264.161 445.867C264.567 446.272 264.973 447.083 265.379 447.488C267.002 449.515 269.437 451.541 272.683 453.568L373.316 511.531L387.112 519.637L495.455 582.059L514.12 593.003L604.609 645.291L664.664 679.744C671.968 683.797 681.707 686.229 691.445 686.229C699.155 686.229 706.459 684.608 711.734 681.771L751.5 659.072L884.596 582.464L902.45 572.331C906.913 569.493 909.348 566.251 909.348 562.603C909.348 557.739 905.29 552.875 898.798 548.821L835.091 512.341L723.908 448.299L712.14 441.408L571.335 360.341L551.046 348.587L506.005 322.645C498.701 318.187 488.962 316.16 479.224 316.16C473.949 316.16 468.673 316.971 464.21 318.187C462.181 318.592 460.558 319.403 458.935 320.619L390.358 360.341L360.737 377.365L268.219 430.464C264.567 432.491 262.133 435.328 261.321 438.571C261.727 440.597 262.538 443.435 264.161 445.867Z" fill="#3A3F47"></path> <path d="M551.858 348.181L605.015 645.291L665.07 679.744C672.374 683.797 682.112 686.229 691.851 686.229C699.561 686.229 706.865 684.608 712.14 681.771L751.906 659.072L712.951 441.003L572.147 359.936L551.858 348.181Z" fill="#3E444D"></path> <path d="M361.954 376.555L387.518 519.637L495.86 582.059L514.526 593.003L465.021 317.781C462.992 318.187 461.369 318.997 459.746 320.213L391.17 359.936L361.954 376.555Z" fill="#3E444D"></path> <path d="M283.639 449.109C284.045 449.515 284.45 450.325 284.856 450.731C286.479 452.757 288.914 454.784 291.754 456.405L386.3 511.125L399.285 518.827L501.136 577.6L518.584 587.733L603.391 636.779L666.693 673.259C673.591 677.312 682.518 679.339 691.851 679.339C699.155 679.339 706.053 677.717 710.923 674.88L748.254 653.397L873.234 581.248L889.87 571.52C894.334 569.088 896.363 565.845 896.363 562.197C896.363 557.739 892.711 552.875 886.218 549.227L819.671 510.72L715.386 450.325L704.43 443.84L572.147 367.637L553.075 356.693L510.874 332.373C503.976 328.32 494.643 326.293 485.716 326.293C480.441 326.293 475.977 327.104 471.92 328.32C469.891 328.725 468.268 329.536 467.05 330.347L437.023 348.992L438.24 368.853L372.91 406.549L344.505 404.928L288.508 434.517C284.856 436.544 282.827 439.381 282.016 441.813C281.204 444.245 282.016 446.677 283.639 449.109Z" fill="#FCFBFA"></path> <path d="M359.519 398.037L407.401 370.475C408.212 370.069 408.212 369.259 406.995 368.448C406.184 368.043 404.56 367.637 403.749 368.448L355.867 396.011C355.056 396.416 355.056 397.227 356.273 398.037C357.084 398.443 358.302 398.443 359.519 398.037Z" fill="#2A2A2C"></path> <path d="M407.401 370.069C407.401 370.069 406.995 369.664 406.589 369.664C405.778 369.259 404.155 368.853 403.343 369.664L355.461 397.227L355.056 397.632C354.65 397.227 354.65 396.416 355.461 396.011L403.343 368.448C404.155 368.043 405.778 368.043 406.589 368.448C407.807 368.853 407.807 369.259 407.401 370.069Z" fill="#3A3F47"></path> <path d="M419.574 360.341C422.415 361.963 427.284 361.963 430.124 360.341C432.965 358.72 432.965 355.883 430.124 354.261C427.284 352.64 422.415 352.64 419.574 354.261C416.734 355.883 416.734 358.72 419.574 360.341Z" fill="#3A3F47"></path> <path d="M421.603 359.125C423.226 360.341 426.473 360.341 428.096 359.125C429.719 357.909 430.125 356.288 428.096 355.477C426.473 354.261 423.226 354.261 421.603 355.477C419.574 356.693 419.574 358.315 421.603 359.125Z" fill="#516F83"></path> <path d="M409.836 366.827C411.865 368.043 415.111 368.043 417.14 366.827C419.169 365.611 419.169 363.584 417.14 362.773C415.111 361.557 411.865 361.557 409.836 362.773C407.807 363.989 407.807 365.611 409.836 366.827Z" fill="#2A2A2C"></path> <path d="M294.189 493.696L322.593 509.909C325.028 511.125 326.651 509.909 326.651 506.667C326.651 503.424 324.622 499.776 322.593 498.56L294.189 482.347C291.754 481.131 290.131 482.347 290.131 485.589C289.725 488.427 291.754 492.075 294.189 493.696Z" fill="#C4C8D8"></path> <path d="M291.754 494.912L320.159 511.125C322.593 512.341 324.216 511.125 324.216 507.883C324.216 504.64 322.188 500.992 320.159 499.776L291.754 483.563C289.32 482.347 287.697 483.563 287.697 486.805C287.697 490.048 289.725 493.696 291.754 494.912Z" fill="#A0A6C0"></path> <path d="M474.354 597.461L502.759 613.675C505.193 614.891 506.816 613.675 506.816 610.432C506.816 607.189 504.788 603.541 502.759 602.325L474.354 586.112C471.919 584.896 470.296 586.112 470.296 589.355C470.296 592.597 471.919 596.245 474.354 597.461Z" fill="#C4C8D8"></path> <path d="M472.325 598.677L500.73 614.891C503.164 616.107 504.788 614.891 504.788 611.648C504.788 608.405 502.759 604.757 500.73 603.541L472.325 587.328C469.891 586.112 468.268 587.328 468.268 590.571C467.862 593.813 469.891 597.461 472.325 598.677Z" fill="#A0A6C0"></path> <path d="M801.005 652.181C801.005 654.613 802.629 655.829 804.657 655.019L829.004 640.832C831.033 639.616 832.656 636.373 832.656 633.941C832.656 631.509 831.033 629.888 829.004 631.104L826.569 632.32L804.657 644.885C803.034 645.696 801.817 647.723 801.411 649.749C801.005 650.965 801.005 651.776 801.005 652.181Z" fill="#A0A6C0"></path> <path d="M801.411 650.56L823.323 637.995C824.946 637.184 826.163 635.157 826.569 633.131L804.657 645.696C803.034 646.101 801.817 648.533 801.411 650.56Z" fill="#191F28"></path> <path d="M773.412 413.035L772.601 415.872L731.211 402.901L601.363 327.915L773.412 413.035Z" fill="#AE835B"></path> <path d="M601.363 327.915L465.427 406.144L409.43 409.792L408.618 406.955L601.363 327.915Z" fill="#AE835B"></path> <path d="M512.092 439.787L595.276 593.003H506.411L376.156 518.016L512.092 439.787Z" fill="#BECDD4"></path> <path d="M595.276 593.003L731.211 514.773V400.064L595.276 478.293V593.003Z" fill="#C99A6B"></path> <path d="M731.211 400.064L595.276 478.293L667.098 439.381L731.211 400.064Z" fill="#87623F"></path> <path d="M595.276 593.003L465.427 518.016V403.307L595.276 478.293V593.003Z" fill="#AE835B"></path> <path d="M588.784 582.464L559.568 565.44V531.797L588.784 548.821V582.464ZM561.597 564.224L586.755 578.816V549.632L561.597 535.04V564.224Z" fill="#87623F"></path> <path d="M577.422 571.52L570.929 567.872V550.848L577.422 554.901V571.52Z" fill="#87623F"></path> <path d="M583.509 561.387L564.437 550.443L574.176 544.363L583.509 561.387Z" fill="#87623F"></path> <path d="M423.226 465.323L595.276 478.293V481.131L553.887 541.931L424.038 466.944L423.226 465.323Z" fill="#D6B28E"></path> <path d="M787.209 470.997L651.273 549.227L595.276 481.131V478.293L788.02 469.376L787.209 470.997Z" fill="#D6B28E"></path> <path d="M465.427 403.307L595.276 478.293L553.075 540.309L423.226 465.323L465.427 403.307Z" fill="#EDBC8E"></path> <path d="M643.563 338.048L773.412 413.035L731.211 400.064L601.363 325.077L643.563 338.048Z" fill="#EDBC8E"></path> <path d="M601.363 325.077L731.211 400.064L595.276 478.293L465.427 403.307L601.363 325.077Z" fill="#E8B687"></path> <path d="M468.673 403.307L601.363 327.104L727.965 400.064L595.276 476.267L468.673 403.307Z" fill="#C99A6B"></path> <path d="M788.02 469.376L652.491 547.605L595.276 478.293L731.211 400.064L788.02 469.376Z" fill="#F7CCA3"></path> <path d="M601.363 325.077L465.427 403.307L408.618 406.955L544.148 328.725L601.363 325.077Z" fill="#E8B687"></path> <path d="M667.099 437.76L665.881 438.165L665.476 437.76L666.693 437.355L667.099 437.76Z" fill="#D1A986"></path> <path d="M570.118 461.675L595.276 476.267L626.521 458.432L601.363 443.84L570.118 461.675Z" fill="#AD8057"></path> <path d="M601.363 443.84V327.104L727.965 400.064L626.521 458.432L601.363 443.84Z" fill="#AE835B"></path> <path d="M693.068 419.925L595.276 476.267L536.438 442.219L521.424 433.707L506.005 424.789L518.584 421.952L538.873 404.928L563.22 397.227L579.045 384.256L601.363 376.96L613.942 379.392L626.521 387.093L644.781 392.768L661.823 400.064L676.837 412.629L693.068 419.925Z" fill="#EBEDFA"></path> <path d="M546.583 419.115H537.655C534.409 419.115 531.975 421.952 531.975 424.789C531.975 428.032 534.815 430.464 537.655 430.464H546.583C549.829 430.464 552.263 427.627 552.263 424.789C552.263 421.547 549.829 419.115 546.583 419.115Z" fill="#E1E7F7"></path> <path d="M583.914 458.432L592.03 454.379C594.87 452.757 596.088 449.515 594.465 446.677C592.841 443.84 589.595 442.624 586.755 444.245L578.639 448.299C575.799 449.92 574.581 453.163 576.205 456C577.422 458.837 581.074 460.053 583.914 458.432Z" fill="#E1E7F7"></path> <path d="M611.507 411.008L616.782 418.304C618.811 420.736 622.463 421.547 624.898 419.52C627.332 417.493 628.144 413.845 626.115 411.413L620.84 404.117C618.811 401.685 615.159 400.875 612.724 402.901C610.29 404.928 609.884 408.576 611.507 411.008Z" fill="#E1E7F7"></path> <path d="M648.027 427.627L656.143 423.573C658.983 421.952 660.2 418.709 658.577 415.872C656.954 413.035 653.708 411.819 650.867 413.44L642.752 417.493C639.912 419.115 638.694 422.357 640.317 425.195C641.535 428.032 645.187 429.248 648.027 427.627Z" fill="#E1E7F7"></path> <path d="M605.826 453.568L614.753 455.189C618 455.595 620.84 453.568 621.652 450.325C622.057 447.083 620.029 444.245 616.782 443.435L607.855 441.813C604.609 441.408 601.769 443.435 600.957 446.677C600.551 449.92 602.986 453.163 605.826 453.568Z" fill="#EDF5FC"></path> <path d="M589.189 423.168L582.291 428.843C579.856 430.869 579.451 434.517 581.479 436.949C583.508 439.381 587.16 439.787 589.595 437.76L596.493 432.085C598.928 430.059 599.334 426.411 597.305 423.979C595.682 421.547 591.624 421.141 589.189 423.168Z" fill="#EDF5FC"></path> <path d="M603.392 378.176L596.493 383.851C594.059 385.877 593.653 389.525 595.682 391.957C597.711 394.389 601.363 394.795 603.797 392.768L610.696 387.093C613.13 385.067 613.536 381.419 611.507 378.987C609.478 376.555 605.826 376.149 603.392 378.176Z" fill="#EDF5FC"></path> <path d="M638.288 423.979L630.984 419.115C628.144 417.493 624.492 418.304 622.869 420.736C621.246 423.573 622.057 427.221 624.492 428.843L631.796 433.707C634.636 435.328 638.288 434.517 639.911 432.085C641.94 429.248 641.129 425.6 638.288 423.979Z" fill="#F0F2FF"></path> <path d="M650.056 425.6L643.969 432.085C641.94 434.517 641.94 438.165 644.375 440.192C646.81 442.219 650.462 442.219 652.491 439.787L658.577 433.301C660.606 430.869 660.606 427.221 658.171 425.195C656.143 423.168 652.491 423.573 650.056 425.6Z" fill="#F0F2FF"></path> <path d="M626.115 390.336L618.811 385.472C615.971 383.851 612.319 384.661 610.696 387.093C609.072 389.931 609.884 393.579 612.319 395.2L619.623 400.064C622.463 401.685 626.115 400.875 627.738 398.443C629.361 395.605 628.55 391.957 626.115 390.336Z" fill="#F0F2FF"></path> <path d="M558.756 430.059L549.829 429.653C546.583 429.653 543.742 432.085 543.742 435.328C543.742 438.571 546.177 441.408 549.423 441.408L558.35 441.813C561.596 441.813 564.437 439.381 564.437 436.139C564.437 432.896 562.002 430.464 558.756 430.059Z" fill="#F0F2FF"></path> <path d="M586.755 385.877L577.828 385.472C574.581 385.472 571.741 387.904 571.741 391.147C571.741 394.389 574.176 397.227 577.422 397.227L586.349 397.632C589.595 397.632 592.436 395.2 592.436 391.957C592.436 389.12 590.001 386.283 586.755 385.877Z" fill="#F0F2FF"></path> <path d="M643.564 396.011L635.854 400.469C633.013 402.091 631.796 405.739 633.419 408.576C635.042 411.413 638.694 412.629 641.535 411.008L649.244 406.549C652.085 404.928 653.302 401.28 651.679 398.443C650.056 395.605 646.404 394.389 643.564 396.011Z" fill="#F7F8FF"></path> <path d="M596.899 456.811L587.972 458.432C584.726 458.837 582.697 462.08 583.103 465.323C583.508 468.565 586.755 470.592 590.001 470.187L598.928 468.565C602.174 468.16 604.203 464.917 603.797 461.675C602.986 458.432 600.145 456.405 596.899 456.811Z" fill="#F7F8FF"></path> <path d="M539.279 436.139C539.685 438.571 538.467 441.408 536.033 442.219L521.425 433.707C522.236 433.301 523.048 432.896 523.859 432.491L532.786 430.869C536.033 430.464 538.873 432.896 539.279 436.139Z" fill="#F7F8FF"></path> <path d="M676.837 411.413L667.91 413.035C664.664 413.44 662.635 416.683 663.041 419.925C663.446 423.168 666.693 425.195 669.939 424.789L678.866 423.168C682.112 422.763 684.141 419.52 683.735 416.277C683.33 413.035 680.083 411.008 676.837 411.413Z" fill="#F7F8FF"></path> <path d="M589.189 398.037L580.262 399.659C577.016 400.064 574.987 403.307 575.393 406.549C575.799 409.792 579.045 411.819 582.291 411.413L591.218 409.792C594.464 409.387 596.493 406.144 596.087 402.901C595.276 399.659 592.03 397.227 589.189 398.037Z" fill="#F7F8FF"></path> <path d="M561.596 402.496L552.669 402.091C549.423 402.091 546.583 404.523 546.583 407.765C546.583 411.008 549.017 413.845 552.264 413.845L561.191 414.251C564.437 414.251 567.277 411.819 567.277 408.576C567.277 405.333 564.437 402.901 561.596 402.496Z" fill="#F7F8FF"></path> <path d="M576.204 428.032L568.9 423.168C566.06 421.547 562.408 422.357 560.785 424.789C559.162 427.627 559.973 431.275 562.408 432.896L569.712 437.76C572.552 439.381 576.204 438.571 577.827 436.139C579.856 433.301 579.045 429.653 576.204 428.032Z" fill="#F2F4FF"></path> <path d="M594.464 422.357L602.986 419.925C606.232 419.115 607.855 415.872 607.044 412.629C606.232 409.387 602.986 407.765 599.74 408.576L591.218 411.008C587.972 411.819 586.349 415.061 587.16 418.304C587.972 421.141 591.218 423.168 594.464 422.357Z" fill="#F2F4FF"></path> <path d="M611.913 441.408L620.434 438.976C623.68 438.165 625.304 434.923 624.492 431.68C623.68 428.437 620.434 426.816 617.188 427.627L608.667 430.059C605.42 430.869 603.797 434.112 604.609 437.355C605.42 440.597 608.667 442.219 611.913 441.408Z" fill="#F2F4FF"></path> <path d="M612.319 401.28L616.782 393.173C618.405 390.336 617.188 386.688 614.348 385.067C611.507 383.445 607.855 384.661 606.232 387.499L601.769 395.2C600.145 398.037 601.363 401.685 604.203 403.307C607.044 404.928 610.696 403.712 612.319 401.28Z" fill="#F2F4FF"></path> <path d="M525.888 422.763L532.381 416.683C534.815 414.251 534.815 410.603 532.381 408.576C529.946 406.144 526.294 406.144 524.265 408.576L517.773 414.656C515.338 417.088 515.338 420.736 517.773 422.763C519.801 424.789 523.453 424.789 525.888 422.763Z" fill="#F2F4FF"></path> <path d="M634.231 449.109L642.752 446.677C645.998 445.867 647.621 442.624 646.81 439.381C645.998 436.139 642.752 434.517 639.506 435.328L630.984 437.76C627.738 438.571 626.115 441.813 626.927 445.056C627.738 448.299 630.984 449.92 634.231 449.109Z" fill="#F2F4FF"></path> <path d="M417.951 478.293H409.024C405.778 478.293 403.343 481.131 403.343 483.968C403.343 487.211 406.184 489.643 409.024 489.643H417.951C421.197 489.643 423.632 486.805 423.632 483.968C423.632 481.131 421.197 478.293 417.951 478.293Z" fill="#DFE3FF"></path> <path d="M740.138 568.277L749.066 566.656C752.312 565.845 754.341 563.008 753.529 559.765C752.718 556.523 749.877 554.496 746.631 555.307L737.704 556.928C734.458 557.739 732.429 560.576 733.24 563.819C734.052 567.061 736.892 569.088 740.138 568.277Z" fill="#DFE3FF"></path> <path d="M618.811 629.888L626.927 625.835C629.767 624.213 630.984 620.971 629.361 618.133C627.738 615.296 624.492 614.08 621.651 615.701L613.536 619.755C610.695 621.376 609.478 624.619 611.101 627.456C612.319 630.293 615.971 631.104 618.811 629.888Z" fill="#DFE3FF"></path> <path d="M553.887 605.163L562.814 606.784C566.06 607.189 568.9 605.163 569.712 601.92C570.118 598.677 568.089 595.84 564.843 595.029L555.916 593.408C552.669 593.003 549.829 595.029 549.017 598.272C548.612 601.515 551.046 604.352 553.887 605.163Z" fill="#D5E7F7"></path> <path d="M659.795 585.707L652.896 591.381C650.462 593.408 650.056 597.056 652.085 599.488C654.114 601.92 657.766 602.325 660.2 600.299L667.098 594.624C669.533 592.597 669.939 588.949 667.91 586.517C666.287 584.085 662.229 583.68 659.795 585.707Z" fill="#D5E7F7"></path> <path d="M605.42 623.403L598.116 618.539C595.276 616.917 591.624 617.728 590.001 620.16C588.378 622.997 589.189 626.645 591.624 628.267L598.928 633.131C601.769 634.752 605.421 633.941 607.044 631.509C609.073 628.672 608.261 625.024 605.42 623.403Z" fill="#F0F2FF"></path> <path d="M509.251 567.872L518.178 569.493C521.424 569.899 524.265 567.872 525.076 564.629C525.482 561.387 523.453 558.549 520.207 557.739L511.28 556.117C508.034 555.712 505.193 557.739 504.382 560.981C503.976 564.224 506.005 567.061 509.251 567.872Z" fill="#DFE3FF"></path> <path d="M486.528 551.253L479.629 556.928C477.195 558.955 476.789 562.603 478.818 565.035C480.847 567.467 484.499 567.872 486.933 565.845L493.832 560.171C496.266 558.144 496.672 554.496 494.643 552.064C493.02 549.227 489.368 549.227 486.528 551.253Z" fill="#F0F2FF"></path> <path d="M590.001 603.541L582.697 598.677C579.856 597.056 576.204 597.867 574.581 600.299C572.958 603.136 573.77 606.784 576.204 608.405L583.508 613.269C586.349 614.891 590.001 614.08 591.624 611.648C593.653 608.811 592.841 605.163 590.001 603.541Z" fill="#F0F2FF"></path> <path d="M710.517 576.789L718.632 580.437C721.473 581.653 725.125 580.437 726.342 577.6C727.559 574.763 726.342 571.115 723.502 569.899L715.386 566.251C712.546 565.035 708.894 566.251 707.676 569.088C706.053 571.925 707.676 575.573 710.517 576.789Z" fill="#F0F2FF"></path> <path d="M701.184 605.163L709.3 601.515C712.14 600.299 713.357 596.651 712.14 593.813C710.923 590.976 707.271 589.76 704.43 590.976L696.315 594.624C693.474 595.84 692.257 599.488 693.474 602.325C694.692 605.568 698.344 606.784 701.184 605.163Z" fill="#DFE3FF"></path> <path d="M435.805 496.533L426.878 496.128C423.632 496.128 420.792 498.56 420.792 501.803C420.792 505.045 423.226 507.883 426.472 507.883L435.4 508.288C438.646 508.288 441.486 505.856 441.486 502.613C441.486 499.371 439.052 496.533 435.805 496.533Z" fill="#F0F2FF"></path> <path d="M401.72 496.939L394.416 492.075C391.576 490.453 387.924 491.264 386.3 493.696C384.677 496.533 385.489 500.181 387.924 501.803L395.228 506.667C398.068 508.288 401.72 507.477 403.343 505.045C404.966 502.208 404.56 498.56 401.72 496.939Z" fill="#D1D7FF"></path> <path d="M736.892 589.355H745.819C749.066 589.355 751.5 586.517 751.5 583.275C751.5 580.032 748.66 577.6 745.414 577.6H736.487C733.24 577.6 730.806 580.437 730.806 583.68C731.211 586.923 733.646 589.355 736.892 589.355Z" fill="#D1D7FF"></path> <path d="M324.622 359.125L325.434 358.72L314.072 351.019C333.955 341.291 355.056 331.968 377.779 324.267L386.706 332.779C364.794 340.48 343.694 349.397 324.622 359.125Z" fill="url(#paint1_linear_156_8704)"></path> <path d="M542.93 302.379C538.467 302.784 534.409 303.189 529.946 303.595L516.961 304.811L503.976 306.432L497.483 307.243L490.991 308.053L478.412 310.08L465.833 312.512C457.311 314.133 449.196 315.755 441.08 317.781L434.588 308.459C443.109 306.837 451.631 304.405 460.152 303.189L473.137 300.757L486.527 298.731L493.02 297.515L499.512 296.704L512.903 295.083L526.294 293.867C530.757 293.461 535.221 293.056 539.684 292.651L542.93 302.379Z" fill="url(#paint2_linear_156_8704)"></path> <path d="M707.676 309.675L695.097 307.648L682.112 306.027C673.591 304.811 664.664 304 656.142 303.189C638.694 301.973 621.246 300.757 603.797 300.757L604.203 290.624C622.463 290.624 640.723 291.84 658.983 293.056C667.91 293.867 677.243 294.677 685.764 295.893L699.155 297.515L712.546 299.541L707.676 309.675Z" fill="url(#paint3_linear_156_8704)"></path> <path d="M854.973 353.451C848.075 350.208 841.177 346.965 833.873 344.533C830.221 342.912 826.569 341.696 822.917 340.075L811.555 336.021C807.903 334.805 804.251 333.184 800.193 331.968L788.832 328.32L777.064 325.077C773.006 323.861 769.354 322.645 765.297 321.835L772.195 312.512C776.253 313.728 780.716 314.539 784.774 315.755L796.947 319.403L809.121 323.456C813.178 324.672 817.236 325.888 820.888 327.509L832.656 331.563C836.308 333.184 840.365 334.4 844.017 336.021C851.727 338.859 858.625 342.101 865.929 345.344L854.973 353.451Z" fill="url(#paint4_linear_156_8704)"></path> <path d="M961.287 426.816C944.244 408.981 923.956 392.363 900.015 377.365L912.594 370.475C937.752 385.877 958.852 403.307 976.707 421.952L961.287 426.816Z" fill="url(#paint5_linear_156_8704)"></path> <path d="M1009.57 518.016C1005.92 497.749 998.619 477.888 986.445 458.837L1002.68 455.595C1015.26 475.456 1022.97 496.128 1026.62 517.205L1009.57 518.016Z" fill="url(#paint6_linear_156_8704)"></path> <path d="M992.126 612.864C1003.08 593.813 1008.76 573.547 1010.79 553.28L1028.24 553.685C1026.21 574.763 1020.12 595.435 1008.76 615.701L992.126 612.864Z" fill="url(#paint7_linear_156_8704)"></path> <path d="M911.782 695.552C923.55 687.851 933.694 679.744 943.433 671.637C952.766 663.125 961.693 654.613 969.403 645.291L984.822 649.749C977.112 659.072 967.78 668.395 957.635 677.312C947.491 685.824 936.535 694.336 924.767 702.443L911.782 695.552Z" fill="url(#paint8_linear_156_8704)"></path> <path d="M781.528 753.92C797.353 749.461 812.367 744.192 826.975 738.923C841.177 733.248 855.785 727.168 868.77 720.683L880.132 728.384C866.335 735.275 851.727 741.355 836.714 747.435C821.294 753.109 805.874 758.379 789.238 762.837L781.528 753.92Z" fill="url(#paint9_linear_156_8704)"></path> <path d="M622.057 777.835C656.954 776.619 691.851 773.376 725.125 766.891L730.4 776.619C695.503 783.104 659.389 786.752 622.869 787.968L622.057 777.835Z" fill="url(#paint10_linear_156_8704)"></path> <path d="M458.123 763.648C490.991 770.539 525.888 774.997 560.785 777.024L559.162 787.157C522.642 785.131 486.933 780.672 452.442 773.376L458.123 763.648Z" fill="url(#paint11_linear_156_8704)"></path> <path d="M316.912 713.792C342.476 727.573 371.692 739.328 402.126 749.056L394.01 757.973C361.954 747.84 331.52 735.68 305.145 721.088L316.912 713.792Z" fill="url(#paint12_linear_156_8704)"></path> <path d="M220.337 635.968C221.96 638.4 223.989 640.426 226.018 642.858L231.699 649.749L238.192 656.234C240.22 658.261 242.655 660.693 245.09 662.72L251.988 669.205C254.423 671.232 256.857 673.258 259.292 675.285C264.161 679.338 269.842 683.392 275.117 687.445L261.727 693.525C256.046 689.472 250.365 685.418 245.09 680.96C242.655 678.933 239.815 676.501 237.38 674.474L230.076 667.584C227.641 665.557 225.207 663.125 223.178 660.693L216.28 653.802L210.193 646.912C208.164 644.48 206.135 642.048 204.512 639.616L220.337 635.968Z" fill="url(#paint13_linear_156_8704)"></path> <path d="M183.817 543.147C183.817 553.28 185.846 563.413 188.281 573.547C189.904 578.411 191.121 583.68 193.15 588.544L195.991 595.84L199.643 603.136L183.006 605.973L179.354 598.272L176.513 590.571C174.484 585.301 173.267 580.032 171.644 575.168C169.209 564.629 167.18 554.091 167.18 543.552L183.817 543.147Z" fill="url(#paint14_linear_156_8704)"></path> <path d="M213.033 449.109C210.193 453.973 206.541 458.432 204.106 463.296L200.048 470.592L196.802 477.888L195.179 481.536L193.962 485.184L191.121 492.48L189.092 499.776C188.281 502.208 187.469 504.64 187.063 507.072L169.615 505.856C170.021 503.424 170.832 500.587 171.644 498.155L174.079 490.453L176.919 482.752L178.542 478.699L180.165 475.051L183.817 467.349L187.875 459.648C190.31 454.784 193.962 449.92 197.208 444.651L213.033 449.109Z" fill="url(#paint15_linear_156_8704)"></path> <path d="M284.856 381.824C268.219 392.768 252.799 404.928 239.815 417.899L224.801 412.629C237.786 400.064 252.799 387.904 269.031 376.96L282.015 383.445L284.856 381.824Z" fill="url(#paint16_linear_156_8704)"></path> <path d="M874.045 706.496C857.002 716.224 857.408 732.032 874.045 741.76C891.088 751.488 918.275 751.488 935.318 741.76C952.36 732.032 951.954 716.224 935.318 706.496C918.275 696.768 890.682 696.768 874.045 706.496Z" fill="#DEE5E9"></path> <path d="M864.306 650.56L860.654 711.765C861.06 718.251 865.118 724.331 873.639 729.195C891.088 739.328 918.681 739.328 936.129 729.195C943.839 724.736 948.302 718.656 948.708 712.576H949.114L945.462 652.181L864.306 650.56Z" fill="#554D4E"></path> <path d="M945.317 652.474C945.388 639.49 927.278 628.866 904.867 628.745C882.457 628.623 864.232 639.05 864.162 652.034C864.091 665.018 882.201 675.642 904.612 675.763C927.022 675.885 945.247 665.458 945.317 652.474Z" fill="#6B6164"></path> <path d="M943.335 651.606C943.402 639.294 926.197 629.219 904.907 629.104C883.617 628.989 866.304 638.876 866.237 651.189C866.17 663.501 883.375 673.575 904.665 673.691C925.955 673.806 943.268 663.919 943.335 651.606Z" fill="#85787C"></path> <path d="M881.349 642.859V650.966C881.349 654.208 883.784 657.451 888.247 660.288C897.58 665.558 912.188 665.558 921.521 660.288C925.579 657.856 928.013 654.614 928.013 651.371V644.075L881.349 642.859Z" fill="#493F41"></path> <path d="M885.407 624.619C874.857 630.699 874.857 640.832 885.407 646.912C895.957 652.992 913.405 652.992 923.956 646.912C934.506 640.832 934.506 630.699 923.956 624.619C913.405 618.539 895.957 618.539 885.407 624.619Z" fill="#DCDBE5"></path> <path d="M873.639 620.971V635.968C874.045 640.427 876.885 644.885 882.566 648.128C894.74 655.019 914.623 655.019 926.796 648.128C932.477 644.885 935.317 640.832 935.723 636.373V622.187L873.639 620.971Z" fill="#554D4E"></path> <path d="M882.566 607.189C870.393 614.08 870.393 625.43 882.566 632.726C894.74 639.616 914.623 639.616 926.796 632.726C938.969 625.835 938.969 614.486 926.796 607.189C914.217 600.299 894.74 600.299 882.566 607.189Z" fill="#6B6164"></path> <path d="M883.378 607.595C872.016 614.08 872.016 625.024 883.378 631.51C895.145 637.995 913.811 638.4 925.173 631.51C936.535 625.024 936.535 614.08 925.173 607.595C913.811 601.109 894.74 600.704 883.378 607.595Z" fill="#85787C"></path> <path d="M854.351 749.217C854.394 741.382 843.347 734.97 829.676 734.896C816.006 734.822 804.889 741.113 804.847 748.948C804.804 756.783 815.852 763.195 829.522 763.269C843.192 763.343 854.309 757.052 854.351 749.217Z" fill="#DEE5E9"></path> <path d="M805.469 707.307L804.657 740.949C804.657 744.597 807.092 747.84 811.961 750.677C821.7 756.352 837.525 756.352 846.858 750.677C851.322 748.245 853.756 745.003 853.756 741.355L852.945 707.307H805.469Z" fill="#554D4E"></path> <path d="M812.773 697.579C803.44 702.848 803.44 711.765 812.773 717.035C822.105 722.304 837.525 722.304 846.858 717.035C856.191 711.765 856.191 702.848 846.858 697.579C837.525 692.309 822.105 692.309 812.773 697.579Z" fill="#6B6164"></path> <path d="M813.584 697.579C804.657 702.848 804.657 710.955 813.584 716.224C822.511 721.493 837.119 721.493 846.046 716.224C854.974 710.955 854.974 702.848 846.046 697.579C836.714 692.715 822.511 692.31 813.584 697.579Z" fill="#85787C"></path> <path d="M815.613 702.037V706.901C815.613 708.928 817.236 710.955 819.671 712.576C824.946 715.819 833.873 715.819 839.554 712.576C841.989 710.955 843.206 709.333 843.612 707.307V702.848L815.613 702.037Z" fill="#493F41"></path> <path d="M818.048 691.093C811.555 694.741 811.555 700.821 818.048 704.469C824.54 708.117 834.685 708.117 841.177 704.469C847.669 700.821 847.669 694.741 841.177 691.093C834.685 687.445 824.54 687.445 818.048 691.093Z" fill="#DCDBE5"></path> <path d="M811.15 689.067V697.984C811.15 700.821 813.179 703.253 816.425 705.28C823.729 709.333 835.496 709.333 842.8 705.28C846.047 703.253 847.67 700.821 848.075 698.389V689.877L811.15 689.067Z" fill="#554D4E"></path> <path d="M816.425 680.96C809.121 685.013 809.121 691.904 816.425 695.957C823.729 700.011 835.496 700.011 842.8 695.957C850.104 691.904 850.104 685.013 842.8 680.96C835.496 676.501 823.729 676.501 816.425 680.96Z" fill="#6B6164"></path> <path d="M817.236 680.96C810.338 685.013 810.338 691.499 817.236 695.147C824.135 698.795 835.091 699.2 841.989 695.147C848.887 691.093 848.887 684.608 841.989 680.96C835.091 676.907 823.729 676.907 817.236 680.96Z" fill="#85787C"></path> <path d="M432.153 65.2586C433.371 64.8533 434.588 65.664 434.588 66.88C434.588 109.44 431.747 133.76 431.747 177.536C426.067 189.696 419.574 199.019 411.864 205.504C404.155 212.395 395.227 217.259 385.895 220.907C373.315 225.771 359.113 228.608 344.505 233.067C321.782 239.552 305.551 244.416 290.943 251.307C286.885 253.333 282.827 255.36 279.175 257.792C267.813 264.683 257.669 275.221 244.278 289.003C243.872 289.408 242.249 289.003 241.844 288.597V176.725C256.046 161.728 267.408 152.405 279.581 145.515C283.639 143.083 287.291 141.056 291.348 139.029C305.551 132.544 321.376 127.68 342.882 121.6C358.302 117.141 373.315 114.304 386.3 109.44C404.966 102.144 420.791 90.7946 432.153 65.2586Z" fill="#98D19C"></path> <path d="M434.994 67.2853C434.994 112.277 434.994 134.571 434.994 179.563C429.313 191.723 422.82 201.045 415.11 207.531C407.401 214.421 398.474 219.285 389.141 222.933C376.562 227.797 362.359 230.635 347.751 235.093C325.028 241.579 308.797 246.443 294.189 253.333C290.131 255.36 286.073 257.387 282.421 259.819C270.654 266.709 258.886 276.032 244.684 289.408V177.131C258.886 163.349 270.248 154.027 282.421 147.136C286.479 144.704 290.131 142.677 294.189 140.651C308.391 134.165 324.216 129.301 345.722 123.221C361.142 118.763 376.156 115.925 389.141 111.061C407.806 103.765 423.632 92.8213 434.994 67.2853Z" fill="#A4E2A9"></path> <path d="M434.994 67.2853C434.994 112.277 434.994 134.571 434.994 179.563C427.284 192.533 421.197 201.451 415.111 207.531C407.401 214.421 398.474 219.285 389.141 222.933V111.061C407.807 103.765 423.632 92.8213 434.994 67.2853Z" fill="#9CD6A1"></path> <path d="M327.868 225.365C322.593 224.149 318.13 222.123 314.072 218.88C306.768 212.8 302.304 203.072 302.304 191.317C302.304 166.997 318.941 142.272 339.23 138.624C348.969 137.003 358.302 139.435 365.606 145.515C372.91 151.595 377.373 161.323 377.373 173.077C377.373 197.397 360.736 222.123 340.448 225.771C335.984 226.176 331.52 226.176 327.868 225.365ZM351.404 141.867C347.752 141.056 344.1 141.056 340.042 141.867C321.376 145.109 305.551 168.619 305.551 191.317C305.551 202.261 309.203 210.773 315.695 216.448C321.782 221.717 330.303 223.744 338.824 222.123C357.49 218.88 373.316 195.371 373.316 172.672C373.316 161.728 369.664 153.216 363.171 147.541C359.925 144.704 355.867 142.677 351.404 141.867Z" fill="#98D19C"></path> <path d="M269.436 225.365C269.436 226.987 269.436 227.797 269.436 229.419C264.567 233.877 260.915 237.525 255.234 245.632C255.234 243.605 255.234 242.795 255.234 241.173C260.509 234.283 263.755 230.229 269.436 225.365Z" fill="#98D19C"></path> <path d="M269.436 237.525C269.436 239.147 269.436 239.957 269.436 241.579C264.567 246.037 260.915 249.685 255.234 257.387C255.234 255.765 255.234 254.549 255.234 252.928C260.509 246.037 263.755 242.389 269.436 237.525Z" fill="#98D19C"></path> <path d="M355.461 188.885C355.461 196.587 350.186 202.667 342.882 205.099C342.882 209.152 342.882 210.773 342.882 214.827C340.447 215.232 339.636 215.232 337.201 215.637C337.201 211.989 337.201 209.963 337.201 205.909C331.926 206.315 326.651 204.288 322.999 201.451C324.216 198.208 325.028 196.587 326.245 192.939C330.303 196.587 335.984 198.208 340.042 197.397C344.505 196.587 346.94 194.155 346.94 190.912C346.94 181.184 325.434 190.507 325.434 173.888C325.434 166.592 329.897 160.512 337.607 158.485C337.607 154.837 337.607 153.216 337.607 149.568C340.042 149.163 340.853 148.757 343.288 148.352C343.288 152 343.288 153.621 343.288 157.269C347.751 156.864 352.215 158.08 355.461 159.701C354.244 162.944 353.432 164.971 352.215 168.213C347.751 166.187 343.288 165.376 340.042 165.781C336.39 166.592 333.955 168.213 333.955 171.456C333.955 181.184 355.461 171.861 355.461 188.885Z" fill="#98D19C"></path> <path d="M424.849 109.035C424.849 112.683 422.415 117.952 419.168 122.411C419.168 124.032 419.168 124.843 419.168 126.869C417.951 128.085 417.545 128.491 416.734 129.707C416.734 128.085 416.734 127.275 416.734 125.248C414.299 127.68 411.864 128.896 410.241 128.491C410.647 126.464 411.053 125.653 411.864 123.627C413.893 123.627 416.328 122.411 418.357 119.979C420.386 117.547 421.603 115.52 421.603 113.899C421.603 109.44 411.864 122.816 411.864 115.115C411.864 111.872 413.893 107.819 417.139 103.36C417.139 101.739 417.139 100.928 417.139 99.3067C418.357 98.0907 418.763 97.6854 419.574 96.4694C419.574 98.0907 419.574 98.9014 419.574 100.523C421.603 98.496 423.632 96.8747 424.849 95.6587C424.443 97.6854 424.038 98.9014 423.632 100.928C421.603 102.144 419.574 104.171 417.951 105.387C416.328 107.413 415.111 109.035 415.111 110.251C415.111 115.925 424.849 101.739 424.849 109.035Z" fill="#D0EAD2"></path> <path d="M293.783 140.651V253.739C289.725 255.765 285.667 257.792 282.015 260.224V147.136C285.667 144.704 289.725 142.677 293.783 140.651Z" fill="#AEF0B3"></path> <path d="M961.287 406.549C951.954 411.819 936.941 411.819 927.608 406.549C918.275 401.28 918.275 392.363 927.608 387.093C936.941 381.824 951.954 381.824 961.287 387.093C970.62 392.768 970.62 401.28 961.287 406.549Z" fill="#BDC2FF"></path> <path d="M963.722 212.395C956.418 209.557 947.085 210.368 936.535 216.448C913.811 229.824 895.146 261.44 895.146 287.787C895.146 323.456 936.535 363.989 936.535 363.989L950.737 371.285L977.924 220.096L963.722 212.395Z" fill="#FFC536"></path> <path d="M950.737 224.149C973.461 210.773 992.126 221.717 992.126 247.659C992.126 283.328 950.737 371.691 950.737 371.691C950.737 371.691 909.348 331.157 909.348 295.488C909.348 269.141 928.013 237.12 950.737 224.149Z" fill="#FFC536"></path> <path d="M926.796 285.355C926.796 300.352 937.346 306.432 950.737 299.136C964.128 291.435 974.678 273.195 974.678 257.792C974.678 242.795 964.128 236.715 950.737 244.011C937.752 251.712 926.796 269.952 926.796 285.355Z" fill="white"></path> <path d="M910.565 296.704C910.565 270.763 928.825 239.147 951.549 226.176C971.432 214.827 987.663 221.312 991.72 240.363C988.474 219.691 971.432 212.395 951.143 224.149C928.419 237.525 909.753 269.141 909.753 295.488C909.753 331.157 951.143 371.691 951.143 371.691C951.143 371.691 951.143 371.691 951.143 371.285C945.868 366.016 910.565 329.131 910.565 296.704Z" fill="#FFEF86"></path> <path d="M1047.31 247.659C1045.69 246.848 1043.66 246.848 1042.04 247.659L1026.21 256.576C1024.99 244.821 1019.72 236.309 1011.6 231.445C1004.71 227.392 996.184 226.987 987.257 229.419L989.286 207.531L983.605 203.883C983.199 203.477 982.793 203.072 982.388 203.072C981.576 202.667 981.17 202.667 980.359 202.667C977.112 202.667 974.678 205.099 974.678 208.341V235.093C950.331 250.091 931.665 282.923 931.665 310.891L913.405 321.429C910.971 323.051 910.159 326.293 911.377 328.725C911.782 329.536 912.188 329.941 913 330.347L919.492 334.4L933.288 324.672C935.723 332.779 940.187 338.859 946.273 342.507C950.331 344.939 955.201 346.155 960.07 346.155C964.533 346.155 969.403 344.939 974.272 343.317V369.259C974.272 371.285 975.489 372.907 976.707 373.717L983.199 377.771L983.605 372.907C984.822 371.691 985.228 370.475 985.228 368.853V352.235L986.851 335.616C1007.14 321.024 1022.97 294.272 1025.4 269.547L1039.2 259.819L1046.5 255.765C1047.31 255.36 1048.12 254.549 1048.53 253.333L1052.59 250.496L1047.31 247.659ZM1000.24 271.573C997.807 273.195 996.996 276.437 998.213 278.869C998.619 279.68 999.024 280.085 999.836 280.491L1005.92 284.544L1009.57 278.869H1009.17L1013.63 276.437C1013.63 277.248 1013.23 277.653 1013.23 278.464C1013.23 278.869 1013.23 278.869 1012.82 279.275C1012.42 281.301 1011.6 283.733 1010.79 285.76C1010.79 286.165 1010.79 286.165 1010.39 286.571C1009.57 289.003 1008.76 291.435 1007.55 293.461C1007.55 293.867 1007.14 293.867 1007.14 294.272C1004.71 299.136 1002.27 303.595 999.024 308.053C999.024 308.053 999.024 308.459 998.619 308.459C995.372 312.917 992.126 316.971 988.068 320.619C987.257 321.429 986.04 322.24 985.228 323.051V322.24L988.88 314.539L982.388 310.485C981.576 310.08 980.359 309.675 979.547 309.675C976.301 309.675 973.866 312.107 973.866 315.349V330.752C968.591 333.589 963.722 334.805 959.258 334.805C958.447 334.805 957.229 334.805 956.418 334.4C954.795 333.995 952.766 333.589 951.548 332.779C950.331 332.373 949.52 331.563 948.708 330.752L948.302 330.347C947.491 329.536 946.679 328.32 945.868 327.104C945.056 325.888 944.65 324.672 944.244 323.051V322.645C943.839 321.024 943.433 319.403 943.027 317.781C943.027 317.376 943.027 316.565 942.621 316.16L959.664 306.432L960.881 307.243L965.751 301.973L958.852 297.515C957.229 296.704 955.606 296.704 953.983 297.515L942.216 304.405C942.216 303.189 942.621 301.568 943.027 300.352C943.027 300.352 943.027 300.352 943.027 299.947C944.65 292.245 947.491 284.139 951.548 276.437C953.172 273.6 954.795 270.763 956.824 267.925C961.693 260.629 967.374 254.549 973.46 249.28V262.656C973.46 264.683 974.678 266.709 976.707 267.52L982.388 271.168L986.04 265.899L984.011 264.683C984.416 263.872 984.416 263.061 984.416 262.251V241.579C987.257 240.363 989.692 239.552 992.532 239.147C993.749 238.741 994.967 238.741 996.184 238.741C998.213 238.741 999.836 239.147 1001.46 239.552C1002.27 239.957 1003.49 239.957 1004.3 240.768C1010.39 244.011 1013.63 251.712 1013.63 262.251L1000.24 271.573Z" fill="#FF4C4A"></path> <path d="M966.156 350.208C961.287 350.208 956.418 348.992 952.36 346.56C942.621 340.885 937.346 329.941 937.346 314.944C937.346 286.165 956.824 252.523 981.982 237.931C994.967 230.229 1007.55 229.419 1017.28 235.093C1027.02 240.768 1032.3 251.712 1032.3 266.709C1032.3 295.488 1012.82 329.131 987.663 343.723C980.359 347.776 973.055 350.208 966.156 350.208ZM1003.89 242.795C999.024 242.795 993.749 244.416 988.068 247.659C966.562 260.224 949.114 290.219 949.114 314.539C949.114 325.077 952.36 332.779 958.447 336.427C964.533 340.075 973.055 338.859 982.388 333.589C1003.89 321.024 1021.34 291.029 1021.34 266.709C1021.34 256.171 1018.1 248.469 1012.01 244.821C1009.57 243.605 1006.73 242.795 1003.89 242.795Z" fill="#FF7270"></path> <path d="M986.039 271.979C982.793 271.979 980.359 269.547 980.359 266.304V212.395C980.359 209.152 982.793 206.72 986.039 206.72C989.286 206.72 991.72 209.152 991.72 212.395V266.304C991.72 269.547 989.286 271.979 986.039 271.979Z" fill="#FF7270"></path> <path d="M986.039 378.987C982.793 378.987 980.359 376.555 980.359 373.312V318.997C980.359 315.755 982.793 313.323 986.039 313.323C989.286 313.323 991.72 315.755 991.72 318.997V372.907C991.72 376.149 989.286 378.987 986.039 378.987Z" fill="#FF7270"></path> <path d="M1003.89 282.517C1002.27 280.085 1003.49 276.843 1005.92 275.221L1047.72 250.901C1050.15 249.28 1053.4 250.496 1055.02 252.928C1056.64 255.36 1055.43 258.603 1052.99 260.224L1011.2 284.544C1008.76 285.76 1005.52 284.949 1003.89 282.517Z" fill="#FF7270"></path> <path d="M917.463 332.373C915.84 329.941 917.057 326.699 919.492 325.077L961.287 300.757C963.722 299.136 966.968 300.352 968.591 302.784C970.214 305.216 968.997 308.459 966.562 310.08L924.767 334.4C921.927 336.021 918.681 334.805 917.463 332.373Z" fill="#FF7270"></path> <path d="M367.229 351.424C357.896 356.693 342.882 356.693 333.549 351.424C324.216 346.155 324.216 337.237 333.549 331.968C342.882 326.699 357.896 326.699 367.229 331.968C376.562 337.237 376.562 346.155 367.229 351.424Z" fill="#BDC2FF"></path> <path d="M391.855 689.178C391.995 663.21 355.412 641.961 310.143 641.715C264.873 641.47 228.061 662.323 227.92 688.29C227.779 714.258 264.363 735.508 309.632 735.753C354.901 735.998 391.714 715.146 391.855 689.178Z" fill="#BECDD4"></path> <path d="M318.13 725.141C367.657 725.141 407.807 685.036 407.807 635.563C407.807 586.09 367.657 545.984 318.13 545.984C268.603 545.984 228.453 586.09 228.453 635.563C228.453 685.036 268.603 725.141 318.13 725.141Z" fill="url(#paint17_linear_156_8704)"></path> <path d="M318.13 717.44C363.399 717.44 400.097 680.782 400.097 635.563C400.097 590.343 363.399 553.685 318.13 553.685C272.861 553.685 236.163 590.343 236.163 635.563C236.163 680.782 272.861 717.44 318.13 717.44Z" fill="url(#paint18_linear_156_8704)"></path> <path d="M295 556.928C301.493 554.901 308.797 553.685 316.101 553.685L316.507 554.091L314.072 556.117V558.144L313.666 559.765L311.231 561.387L309.203 563.413L307.579 566.656L305.551 569.899L304.333 573.952L303.927 574.763H302.71L302.304 574.357L301.899 573.547H300.681L299.87 573.952L298.652 574.357L297.841 572.736L297.435 571.52V570.304V569.088L296.623 567.467L296.218 565.845V564.224L295.406 563.008C295.406 563.008 295.406 564.224 295.406 560.981C295 556.928 292.971 560.576 295 556.928ZM398.068 639.616L396.039 640.832L393.199 639.616L393.604 637.995L394.01 635.563L393.199 635.157L392.793 635.968C392.793 635.968 391.575 637.995 391.575 636.373C391.575 634.752 391.575 634.752 391.575 634.752L391.981 633.536L391.17 631.915L389.952 629.483V627.051L390.358 626.645L390.764 625.429L391.575 626.645L392.387 625.835L394.01 630.699L395.227 632.32L396.445 633.536L397.256 634.752L398.474 635.968L399.285 634.752L400.097 635.563V635.157C400.097 605.973 384.677 580.032 361.548 565.44L360.331 566.251L359.519 567.872L358.707 568.277L357.49 569.088L356.273 567.872C356.273 567.872 357.49 567.061 355.867 567.467C354.244 567.467 354.244 567.467 354.244 567.467L350.998 568.683L350.592 568.277V566.656H349.375L348.157 567.467L347.346 567.872L347.751 567.061L348.157 566.656V566.251H347.751H347.346L346.94 565.845L347.346 565.44L346.94 564.629V563.819L347.346 563.413L348.157 562.603V562.197C348.157 562.197 347.751 562.197 348.157 561.792C348.157 561.387 348.157 561.387 348.157 561.387L348.563 560.981L348.969 560.576V560.171L348.563 559.765H348.157L347.751 560.171H347.346H346.94V559.765H346.534V560.171L346.128 560.576H345.723C345.723 560.576 345.723 560.576 345.723 561.387C345.723 561.792 345.723 561.792 345.723 561.792L345.317 562.603V563.413V564.224L344.911 564.629V565.44C344.911 565.44 345.317 565.845 345.317 565.44C345.317 565.035 345.723 565.035 345.723 565.035H346.128L345.723 565.44H345.317V565.845H345.723L345.317 566.251C345.317 566.251 345.317 565.845 344.911 566.251C344.505 566.656 344.505 566.656 344.505 566.656H344.099V566.251V565.845C344.099 565.845 344.099 565.845 343.694 565.845C343.288 566.251 343.288 566.251 343.288 566.251H342.882H342.476V566.656H342.071H341.665C341.665 566.656 342.071 566.656 341.665 566.656C341.259 566.251 341.259 566.251 341.259 566.251H340.447L340.042 566.656L339.636 567.061V567.467V567.872L339.23 568.277L338.824 568.683L338.419 569.088H338.013H337.607L336.795 569.493L336.39 569.899H335.984H335.578L335.172 570.304L335.578 570.709L335.172 571.115L334.767 571.52L333.955 571.925H333.549H333.143H332.738L332.332 572.331V572.736V573.141H331.926H331.52H331.115H330.709V572.736V572.331H330.303H329.897H329.491V571.925V572.331V572.736V573.141V573.547V573.952V574.357H329.086L328.68 573.952H328.274V573.547L327.868 573.141H327.463H327.057H326.651H326.245H325.839H325.434H325.028V573.547H324.622V573.952V574.357H325.028H325.434H325.839H326.245L326.651 574.763C326.651 574.763 326.651 574.763 326.651 575.168C326.651 575.573 326.651 575.573 326.651 575.573H327.057H327.463V575.979H327.868V576.384V576.789V577.195V577.6H328.274L328.68 578.005V578.411L328.274 578.816V579.221V579.627L327.868 580.032V580.437L327.463 580.843V581.653V582.059L327.057 582.869V583.275V583.68H326.651C326.651 583.68 326.651 583.68 326.245 583.68C325.839 583.68 325.839 583.68 325.839 583.68H325.434V583.275H325.028L324.622 582.869H324.216H323.811H323.405H322.999H322.593H322.187L321.782 582.464H321.376H320.97H320.564V582.059C320.564 582.059 320.97 582.059 320.564 581.653C320.159 581.653 320.159 581.653 320.159 581.653H319.753H319.347L318.941 582.059V582.464H318.535L318.13 582.869L317.724 583.275V583.68H318.13V584.085H317.724L317.318 584.896V585.707V586.112V586.517V586.923V587.733L316.912 588.544L316.507 588.949L316.101 589.76L315.695 590.571L315.289 591.381L315.695 592.192H316.101H316.507V592.597L316.101 593.003L315.695 593.408V593.813L315.289 594.219V594.624L314.883 595.029H315.289H315.695H316.507V594.624H316.912V595.029L317.724 595.435V595.84V596.245V596.651V597.056V597.461V597.867H318.13H318.535H318.941H319.347L319.753 597.461L320.159 597.056H320.564H320.97H321.782H322.593L322.999 597.461H323.405H323.811V597.056V596.651L324.622 596.245H325.028H325.434C325.434 596.245 325.434 596.245 325.434 595.84C325.434 595.435 325.434 595.435 325.434 595.435V595.029L325.839 594.624L326.245 594.219H326.651H327.057H327.463V593.813H327.868V593.408L327.463 593.003H327.057V592.192L327.463 591.787L327.868 591.381L329.086 590.165V589.76V589.355H329.491H330.303C330.303 589.355 330.303 589.355 330.709 589.355C331.115 588.949 331.115 588.949 331.115 588.949H331.52H331.926V588.544L332.738 588.139L333.143 587.733V587.328V586.923V586.517L333.549 586.112L333.955 585.707L334.361 585.301H334.767C335.172 585.301 335.172 585.301 335.172 585.301H335.578L335.984 585.707H336.39L336.795 586.112L337.201 586.517H337.607H338.419V586.112H338.824H339.23L339.636 585.707V585.301L340.042 584.896V584.491H340.447H341.259V584.896V585.301C341.259 585.301 340.853 585.301 341.259 585.707C341.665 586.112 341.665 586.112 341.665 586.112H342.071V586.517V586.923V587.328L342.476 587.733V588.139H342.071H341.665V588.544H342.071H342.476L342.882 588.139V588.544L343.288 588.949V589.355V589.76H343.694C344.099 589.76 344.099 589.76 344.099 589.76V590.165V590.571V590.976V591.787L344.505 592.192H344.911V592.597H345.317L345.723 593.003L346.128 593.813L346.534 594.219H346.94L346.534 594.624H346.94H347.346L347.751 595.029V595.435L348.157 595.84V596.245H348.563H348.969V596.651V597.461L348.563 597.867V598.272V598.677V599.083H348.157H347.751L347.346 599.488H346.94H346.534L346.128 599.893C346.128 599.893 346.128 599.893 345.723 599.893C345.317 599.893 345.317 599.893 345.317 599.893C345.317 599.893 345.723 599.488 345.317 599.488C344.911 599.488 344.911 599.488 344.911 599.488C344.911 599.488 344.911 599.083 344.505 599.488C344.099 599.893 344.099 599.893 344.099 599.893V600.704V601.109H344.911L345.317 601.515L345.723 601.92L346.128 602.325H346.534L346.94 602.731L347.346 603.136H347.751V602.731L348.157 602.325L347.751 601.92V601.515L348.157 601.109L348.563 600.704V601.109V601.515H348.969H349.375V601.109V600.704H349.78V600.299C349.78 600.299 349.375 600.299 349.78 599.893C350.186 599.488 350.186 599.488 350.186 599.488H350.592L350.998 599.083V598.677L351.403 598.272V597.867H350.998L350.592 597.461V597.056V596.651L351.403 595.84H351.809V596.245V596.651H352.215V597.056V597.461H352.621L353.027 597.056V596.651V596.245L352.621 595.435L351.809 595.029V594.624H351.403L350.998 594.219L350.592 593.813V593.408H350.998V593.003V592.597L350.592 592.192H349.78H349.375H348.969V591.787L348.157 590.165V589.355V588.949V588.544L347.751 587.733L347.346 587.328L346.94 586.923L346.534 586.517V586.112V585.707H346.94V585.301H346.534V584.896V584.491H346.94L347.346 584.085H347.751V584.491C347.751 584.491 347.346 584.491 347.751 584.896C348.157 584.896 348.157 584.896 348.157 584.896V585.301L347.751 585.707L348.157 586.112H348.563V585.707V586.112V586.517V586.923H348.969V586.517L349.375 586.923L349.78 587.328L349.375 587.733V588.139V588.544L350.186 588.949L350.592 589.355V589.76V590.165V590.571H350.998C350.998 590.571 351.403 590.165 351.403 590.571C351.403 590.976 351.403 590.976 351.403 590.976H351.809H352.215H352.621C352.621 590.976 353.027 590.976 353.027 591.381C353.027 591.787 353.027 591.787 353.027 591.787L353.432 592.597C353.432 592.597 353.838 592.192 353.838 593.003C353.838 593.408 353.838 593.408 353.838 593.408V593.813H354.244L353.838 594.219V594.624V595.435V595.84V596.651H354.244V597.056H354.65V597.461H354.244L353.838 597.867C353.838 597.867 353.838 597.867 353.838 598.272C353.838 598.677 353.838 598.677 353.838 598.677L354.244 599.083H354.65V599.488L355.055 599.893C355.055 599.893 354.65 599.488 355.055 600.299C355.461 601.109 355.461 601.109 355.461 601.109V601.515H355.867V601.109L356.679 601.515L357.084 601.92H357.49V602.325H357.896H358.302V602.731V603.136L358.707 603.541H359.113L359.519 603.947H359.925L359.519 603.541L359.113 603.136V602.731L359.519 603.136L359.925 603.541L360.331 603.136V602.731H359.519V602.325L359.113 601.92L358.707 601.515V601.109L358.302 600.704L357.896 599.488L357.49 599.083V598.677V598.272V597.867L357.896 598.272H358.302L358.707 597.867L359.113 597.461H359.519V597.056H359.925H361.142L361.548 597.461H361.954L362.359 597.867H362.765V598.272C362.765 598.272 361.954 598.272 362.765 598.677C363.171 599.083 363.171 599.083 363.171 599.083H363.577V599.488H363.171V599.083H362.765V599.488V599.893V600.299V600.704L362.359 601.109H362.765H363.171L363.577 600.704V600.299L363.983 599.893H364.388H364.794V600.299L364.388 600.704L364.794 601.109L364.388 601.515H363.983H363.577H363.171H362.765V601.92V602.325V602.731V602.325V602.731V603.136C362.765 603.136 362.765 603.541 362.765 603.136H363.171L363.577 603.541V603.947H363.171H362.765V604.352V604.757H363.171V605.163H363.577H363.171C363.171 605.163 363.171 605.163 363.171 605.568H362.765V605.973L362.359 606.379H362.765V605.973L363.171 605.568H363.577C363.577 605.568 364.388 605.568 363.983 605.568C363.577 605.568 363.577 605.568 363.577 605.568H363.171L362.765 605.973V606.379H363.171V606.784C363.171 606.784 363.171 606.379 362.765 606.784C362.359 607.189 362.359 607.189 362.359 607.189V607.595V608H362.765L363.171 607.595V607.189L363.577 606.784V606.379H363.983V606.784L365.2 608L365.606 607.595V608L365.2 608.405V608.811L365.606 609.216H366.011H366.417H366.823L367.229 608.811L367.635 608.405V608L368.04 607.595H368.446L368.852 608L369.663 608.405V608.811L370.069 609.216L371.287 609.621H371.692H372.098L372.504 610.027L372.91 609.216L373.315 608.811L373.721 608.405L374.127 608.811H374.533H374.939V608.405L375.344 608H375.75H376.156V608.405H375.75V608.811V609.216L375.344 610.027V610.432L375.75 611.243L375.344 611.648V612.053V612.459L374.939 612.864L374.127 614.08V614.891L373.721 615.296L372.504 618.133L371.692 618.539H371.287C371.287 618.539 371.287 618.133 370.475 618.539C369.258 618.944 369.258 618.944 369.258 618.944L368.446 617.728L367.635 617.323L367.229 616.917H366.417L366.011 617.323L365.2 617.728L364.794 618.133H364.388L363.983 617.323H363.171L361.548 616.107L359.113 615.701L358.302 614.08L356.273 613.269L355.055 611.648L353.432 612.053L351.809 612.459V614.485L351.403 616.107L350.186 616.512L349.375 615.296L348.563 614.08H346.94L345.723 612.459L346.128 611.243L344.911 610.432H343.694L341.259 609.216L340.042 607.189L340.853 605.568L341.665 604.757L340.853 603.947L342.071 601.92L341.259 601.515L340.447 601.92L340.042 601.109C340.042 601.109 340.447 600.299 338.824 601.109C336.795 601.92 336.795 601.92 336.795 601.92L335.172 601.109L333.143 600.299L328.68 600.704L325.434 601.515L323.811 602.325L321.782 601.92L320.564 600.704L319.753 601.109L318.941 600.299H318.13L317.318 601.515L316.101 602.731L314.072 603.947L311.637 605.568L310.826 608.405L311.231 610.027L309.608 612.053L307.579 613.269L305.145 614.08L303.927 615.701L301.899 616.512L301.087 619.349L299.058 620.971L297.841 623.808L296.218 625.429L296.623 626.645L297.841 627.051L297.029 628.672L296.623 629.888V631.915L295.812 634.347L295 635.563L294.595 636.373L292.971 638.4L293.783 640.832L292.971 642.453L292.566 644.075L293.377 645.291L294.189 644.885L294.595 646.507L295.406 648.939L295.812 649.344L295.406 652.992L297.435 656.235L299.058 658.667L300.681 661.504L302.304 663.125L304.333 662.72L305.145 661.909L308.391 662.315L309.608 663.936L311.231 664.341L312.043 663.125L312.855 663.531L314.478 662.315H316.101L319.753 661.909L321.376 662.315L321.782 664.747V666.368L322.999 666.773L323.405 666.368H325.839L327.057 667.584L327.463 669.611L327.057 672.853L326.245 673.664V675.285L325.028 676.501L324.622 679.339L327.057 686.635L328.274 688.661L327.057 689.877L328.68 693.525L327.868 695.552L328.68 699.605L327.868 702.443L326.245 702.848L324.622 704.469L324.216 707.712L323.405 710.549L322.999 712.981L323.405 715.008V716.224C338.824 715.413 353.432 710.144 365.2 701.632V699.2L366.011 698.389L365.2 696.768L367.229 693.12L368.852 690.283L370.069 689.472L371.287 688.661L372.098 686.229L374.939 684.203L377.779 681.771L380.619 679.339L383.054 676.096L384.677 674.069L386.3 670.827L387.923 668.395L388.329 666.773L389.547 666.368L389.952 665.557L389.141 665.152L389.547 664.747L389.952 664.341L388.735 663.936L388.329 663.531L387.923 664.341L387.112 664.747L386.3 665.152H385.489L384.271 664.747H382.648L381.837 665.963L380.619 664.747L379.808 665.557L378.185 665.152V663.936L377.779 663.125H376.967L377.373 662.315H378.185L378.591 661.909V661.504L378.996 660.288L378.185 659.883L377.373 659.072V658.261L376.967 657.045V656.235L376.156 655.424L375.344 655.019L374.533 653.803V651.776L374.127 650.965L374.533 649.344L373.721 648.533H372.91L371.287 641.237V633.941L368.852 629.077L367.635 623.403L368.852 622.997L371.287 626.645L372.098 628.672C372.098 628.672 373.315 631.104 373.721 635.157C374.127 639.211 374.127 639.211 374.127 639.211L376.156 645.291L379.808 651.371L378.591 656.235L379.808 661.099L384.271 660.693L389.547 659.072L391.981 657.856V655.829H395.633L397.256 654.613L397.662 653.803C398.879 648.533 399.691 642.859 399.691 637.184L398.068 639.616ZM278.769 563.819L280.392 565.035L281.61 565.44C281.61 565.44 282.015 566.251 282.827 564.629C283.639 563.008 283.639 563.008 283.639 563.008L284.45 562.197L286.073 561.792L285.262 564.629L286.073 565.845L286.885 567.061L285.262 568.683L286.073 569.899L287.291 570.304V571.115L288.914 571.52L289.319 572.331L288.914 573.141V573.952L290.131 574.357L288.914 575.979L289.319 577.195C289.319 577.195 288.102 576.789 286.885 577.6C286.073 578.816 286.073 578.816 286.073 578.816H285.262L283.233 580.032L282.827 580.843H280.392L279.987 580.032L277.146 579.627L275.523 580.437L274.711 581.248L271.871 581.653L271.06 582.869L270.248 584.085L268.219 585.707H270.248L271.871 583.68L273.088 582.464L274.306 581.653L275.523 581.248H276.335H277.958L278.769 581.653L277.552 583.275L275.929 584.491V585.707L277.146 586.923L278.769 587.733L279.175 587.328L280.392 586.517L280.798 584.896H282.421C282.421 584.896 280.798 586.112 281.61 586.517C282.015 586.923 282.015 586.923 282.015 586.923L281.61 588.139L279.987 588.544L279.581 589.355L277.552 589.76H276.335L275.929 590.571L274.306 591.787H273.088V590.571L274.711 589.76L275.117 588.949C275.117 588.949 275.117 587.733 274.306 588.544C273.494 589.355 273.494 589.355 273.494 589.355L272.277 589.76L270.654 590.165H269.436C269.436 590.165 269.031 589.76 268.219 591.381C267.002 593.003 267.002 593.003 267.002 593.003V593.813H266.19L267.002 594.624L268.219 594.219V595.029L267.813 595.435L267.002 595.84H266.596L265.784 595.435H265.379H263.755L263.35 596.245L264.161 596.651L263.35 597.056H262.132V598.677L260.509 599.488L260.103 600.299L259.698 599.488L259.292 599.083L259.698 599.893L260.103 600.704L259.698 601.515L258.886 602.325L258.075 603.136C258.075 603.136 257.669 603.541 258.075 602.325C258.48 601.515 258.886 601.92 258.48 601.515C258.075 601.109 258.075 601.109 258.075 601.109C258.075 601.109 258.48 598.272 257.669 601.109C257.263 602.325 256.857 602.325 256.857 602.325C256.857 602.325 256.857 602.325 257.263 602.731C257.263 603.136 257.669 603.136 257.669 603.136C257.669 603.136 258.075 603.136 258.075 603.947C258.075 605.163 258.075 605.163 258.075 605.163L257.263 605.568V606.379L256.857 607.189L256.452 606.784V607.595L256.046 608.405H255.234L254.828 608.811L254.423 609.621H253.611L253.205 610.027L252.394 611.243L250.365 612.459C250.365 612.459 249.553 611.648 249.148 613.269C248.742 614.891 248.742 614.891 248.742 614.891L247.524 616.107L247.93 617.323L248.336 618.539L247.93 619.349L248.336 619.755L247.93 620.565V621.781L248.336 622.592L247.93 623.808L247.119 624.619V625.429L246.307 625.835L245.901 625.429L245.496 624.213L245.09 623.403V622.592V621.781C245.09 621.781 244.684 621.376 244.684 620.565C244.684 619.755 244.684 619.755 244.684 619.755L245.09 618.539V617.323H244.684L243.872 616.512L243.467 615.701L243.061 616.107V616.512V616.917H242.249L241.844 616.107V615.701L241.032 615.296V615.701L240.22 615.296L239.815 615.701H239.409L239.815 614.891C239.815 614.891 239.003 614.485 239.003 614.891C239.003 615.296 239.003 615.296 239.003 615.296H238.597C244.278 593.408 258.886 574.763 278.769 563.819ZM285.262 710.549C263.756 701.227 246.713 682.581 239.815 659.883L240.22 659.477L241.032 659.072V658.667L240.626 658.261V657.856H241.032H241.438V657.451V657.045L241.844 656.64L242.249 656.235L242.655 655.829C242.655 655.829 242.655 655.829 242.655 655.424C242.655 655.019 242.655 655.019 242.655 655.019L243.467 654.208L243.061 654.613C243.061 654.613 243.061 654.613 242.655 654.613C242.249 654.208 242.655 654.613 242.655 654.208C242.655 653.803 242.655 653.803 242.655 653.803H243.061H243.467V653.397L243.872 652.992C243.872 652.992 243.872 652.992 243.872 652.181C243.872 651.371 243.467 651.371 243.467 651.371V650.965V650.56H243.872V650.155L243.467 649.749V649.344L243.872 648.939V648.128L243.467 647.317L242.655 646.101V645.291V644.48H242.249V644.075H241.844H241.438L241.032 645.291H240.626H240.22H239.815L240.22 645.696L240.626 646.101V646.507V646.912L240.22 647.317H239.815H239.003C239.003 647.317 239.003 647.317 238.597 646.912C238.192 646.507 238.597 646.507 238.597 646.507H238.192V646.912H237.786H237.38V646.507V646.101V645.696V645.291H236.974H236.568L236.163 644.885C236.163 644.075 236.163 643.264 235.757 642.453C235.757 642.453 235.757 642.453 236.163 642.859C236.568 643.264 236.163 643.264 236.163 643.264V643.669C236.163 643.669 236.163 643.669 236.568 643.669C236.974 643.669 236.974 643.669 236.974 643.669H237.38V644.075H237.786L238.192 643.669V643.264H238.597H239.003C239.003 643.264 239.003 643.264 239.003 642.859C239.003 642.453 239.003 642.453 239.003 642.453H239.409H239.815V642.859H240.22L241.032 643.264L241.438 644.075L241.844 644.885L242.249 645.696C242.249 645.696 242.249 645.696 242.249 646.101C242.249 646.507 242.655 646.507 242.655 646.507L243.061 646.101V645.696L242.655 645.291V644.885V644.48L243.061 644.075V643.264L243.467 642.859H243.872V642.453V642.048L244.278 640.427L244.684 640.021L245.09 639.616H245.496L245.901 640.021V639.616L246.307 639.211L246.713 639.616H247.524L247.93 639.211L248.336 638.805H249.148V638.4L249.553 637.589H250.365L250.771 638.4V639.211L250.365 639.616H249.553V640.021L249.959 640.427L250.365 640.021L250.771 640.427L251.176 640.021H251.988H252.394V639.616L251.988 639.211V638.805C251.988 638.805 251.988 638.805 252.394 638.4C252.8 637.995 252.799 638.4 252.799 638.4C252.799 638.4 252.8 638.4 253.205 638.805C253.611 639.211 252.799 639.211 252.799 639.211V639.616L253.611 640.021L254.828 640.427L254.423 641.237L254.828 641.643H256.046L256.857 641.237L258.075 642.453H258.886L259.698 641.643L258.886 640.832L259.698 640.427H260.915H261.727L262.944 641.237L261.727 642.453L262.132 643.264H262.944H264.161L264.973 644.48L264.567 644.885L263.755 646.101L265.784 646.912L267.002 650.155L268.219 650.965L270.654 652.181L272.277 654.613L271.871 657.856V660.693V663.125C271.871 663.125 271.871 660.693 273.494 666.368L274.306 667.989L276.74 669.205L275.523 670.827L274.711 672.853L275.523 674.88H277.958L278.363 676.907L278.769 679.744L279.581 680.96L281.204 681.771L280.798 685.419L282.015 691.093L279.987 694.741L281.204 695.147L283.233 696.768L282.827 698.795L280.392 700.416L281.61 701.632L284.044 703.253L285.667 704.875C285.667 704.875 285.667 704.875 286.073 709.333C285.262 710.144 285.262 710.549 285.262 710.549Z" fill="url(#paint19_linear_156_8704)"></path> <path d="M370.069 593.813C366.417 598.677 356.273 597.461 347.751 590.571C339.23 584.085 335.172 574.763 339.23 569.899C342.882 565.035 353.027 566.251 361.548 573.141C370.069 579.627 374.127 588.949 370.069 593.813Z" fill="#7DD171"></path> <path d="M318.13 553.685C272.683 553.685 236.163 590.165 236.163 635.563C236.163 680.96 272.683 717.44 318.13 717.44C363.577 717.44 400.097 680.96 400.097 635.563C400.097 590.571 363.171 553.685 318.13 553.685ZM272.277 679.744C241.843 649.749 239.815 602.731 267.813 574.357C295.812 546.389 342.882 547.605 373.315 577.6C403.749 607.595 405.778 654.613 377.779 682.987C349.78 711.36 302.71 709.739 272.277 679.744Z" fill="#D1E89B"></path> <path d="M400.908 608C409.024 609.621 416.734 612.053 424.038 616.512C427.69 618.944 431.342 621.781 434.182 626.24C437.022 630.699 437.428 637.184 435.805 642.453C432.559 652.587 425.661 659.072 419.574 665.152C416.328 667.989 413.082 670.827 409.43 673.259C407.806 674.475 406.183 675.691 404.154 676.907L401.72 678.528L400.502 679.339C400.097 679.744 399.285 679.744 400.097 682.176L386.706 656.235C388.329 658.261 388.329 657.451 388.735 657.451L389.952 657.045L392.793 656.235C394.416 655.424 396.445 655.019 398.068 654.208C401.72 652.992 404.966 651.371 408.212 649.749C414.299 646.507 420.791 642.453 423.632 637.995C424.849 635.563 425.255 633.536 424.849 631.104C424.038 628.672 422.009 625.835 419.574 622.997C414.299 618.133 407.401 614.08 400.097 611.243L400.908 608Z" fill="#FFC536"></path> <path d="M375.344 704.469L405.372 687.04V652.586L375.344 670.016V704.469Z" fill="#C99A6B"></path> <path d="M405.372 652.586L375.344 670.016L391.576 661.098L405.372 652.586Z" fill="#87623F"></path> <path d="M375.344 704.469L344.911 687.04V652.586L375.344 670.016V704.469Z" fill="#AE835B"></path> <path d="M375.344 670.016L344.911 652.587L375.344 635.157L405.372 652.587L375.344 670.016Z" fill="#E8B687"></path> <path d="M388.735 675.69L393.604 672.853V659.477L388.735 661.909V675.69Z" fill="#D9AF84"></path> <path d="M388.735 661.909L358.708 644.48L363.577 642.048L393.604 659.477L388.735 661.909Z" fill="#EBCBAB"></path> <path d="M344.911 652.586L375.344 670.016L358.708 661.098L344.911 652.586Z" fill="#87623F"></path> <path d="M361.954 676.096L357.084 673.258V659.477L361.954 662.314V676.096Z" fill="#9C754E"></path> <path d="M361.954 662.315L392.387 644.885L387.518 642.048L357.084 659.477L361.954 662.315Z" fill="#54493E"></path> <path d="M359.925 661.099L389.952 643.669L389.547 643.264L359.519 660.693L359.925 661.099Z" fill="#D1A986"></path> <path d="M361.954 662.314V663.125L359.113 661.504L357.084 660.288V659.477L361.954 662.314Z" fill="#AE835B"></path> <path d="M391.576 661.098L388.735 662.72V661.909L393.604 659.477V659.882L391.576 661.098Z" fill="#AE835B"></path> <path d="M361.954 682.176C363.171 688.256 359.113 693.931 353.027 694.741C337.607 696.768 322.593 697.984 307.174 697.984C288.102 697.984 269.031 696.768 249.959 692.309C240.626 690.283 231.293 687.04 222.366 682.987C217.903 680.96 213.845 678.528 209.787 675.691C205.729 672.853 201.672 669.611 198.831 664.341C197.614 661.909 196.802 659.072 196.396 656.235C196.396 653.397 197.208 650.56 198.02 648.128C200.048 643.264 203.7 639.616 207.352 636.373C214.656 629.888 222.772 625.429 231.699 621.376L232.916 624.213C224.801 628.672 217.091 633.941 211.004 640.021C208.164 643.264 205.324 646.912 204.106 650.56C202.889 654.208 203.295 657.856 205.324 660.693C209.787 666.773 218.308 670.827 226.424 674.069C234.54 677.312 243.467 679.339 252.394 680.96C270.248 683.797 288.508 683.392 306.362 682.176C321.782 680.96 337.201 678.528 351.809 675.285C356.273 674.475 360.331 676.907 361.548 681.365L361.954 682.176Z" fill="#FFC536"></path> <defs> <linearGradient id="paint0_linear_156_8704" x1="922.768" y1="522.326" x2="249.238" y2="522.326" gradientUnits="userSpaceOnUse"> <stop stop-color="#C4C8D8"></stop> <stop offset="0.0224804" stop-color="#C4C8D8"></stop> <stop offset="0.2827" stop-color="#C4C8D8"></stop> <stop offset="0.3039" stop-color="#C0C5D6"></stop> <stop offset="0.3229" stop-color="#B6BACE"></stop> <stop offset="0.3409" stop-color="#A3A9C2"></stop> <stop offset="0.3436" stop-color="#A0A6C0"></stop> <stop offset="0.9862" stop-color="#A0A6C0"></stop> <stop offset="0.9908" stop-color="#B4B9CD"></stop> <stop offset="0.9954" stop-color="#C0C4D5"></stop> <stop offset="1" stop-color="#C4C8D8"></stop> </linearGradient> <linearGradient id="paint1_linear_156_8704" x1="321.843" y1="313.477" x2="829.103" y2="821.294" gradientUnits="userSpaceOnUse"> <stop offset="0.1693" stop-color="#CACEFF"></stop> <stop offset="0.5175" stop-color="#CCD6FD"></stop> <stop offset="1" stop-color="#CEDDFB"></stop> </linearGradient> <linearGradient id="paint2_linear_156_8704" x1="410.673" y1="224.744" x2="917.935" y2="732.563" gradientUnits="userSpaceOnUse"> <stop offset="0.1693" stop-color="#CACEFF"></stop> <stop offset="0.5175" stop-color="#CCD6FD"></stop> <stop offset="1" stop-color="#CEDDFB"></stop> </linearGradient> <linearGradient id="paint3_linear_156_8704" x1="496.627" y1="138.882" x2="1003.89" y2="646.704" gradientUnits="userSpaceOnUse"> <stop offset="0.1693" stop-color="#CACEFF"></stop> <stop offset="0.5175" stop-color="#CCD6FD"></stop> <stop offset="1" stop-color="#CEDDFB"></stop> </linearGradient> <linearGradient id="paint4_linear_156_8704" x1="558.713" y1="76.8658" x2="1065.98" y2="584.685" gradientUnits="userSpaceOnUse"> <stop offset="0.1693" stop-color="#CACEFF"></stop> <stop offset="0.5175" stop-color="#CCD6FD"></stop> <stop offset="1" stop-color="#CEDDFB"></stop> </linearGradient> <linearGradient id="paint5_linear_156_8704" x1="587.003" y1="48.6049" x2="1094.27" y2="556.426" gradientUnits="userSpaceOnUse"> <stop offset="0.1693" stop-color="#CACEFF"></stop> <stop offset="0.5175" stop-color="#CCD6FD"></stop> <stop offset="1" stop-color="#CEDDFB"></stop> </linearGradient> <linearGradient id="paint6_linear_156_8704" x1="577.345" y1="58.2561" x2="1084.61" y2="566.074" gradientUnits="userSpaceOnUse"> <stop offset="0.1693" stop-color="#CACEFF"></stop> <stop offset="0.5175" stop-color="#CCD6FD"></stop> <stop offset="1" stop-color="#CEDDFB"></stop> </linearGradient> <linearGradient id="paint7_linear_156_8704" x1="531.027" y1="104.515" x2="1038.29" y2="612.339" gradientUnits="userSpaceOnUse"> <stop offset="0.1693" stop-color="#CACEFF"></stop> <stop offset="0.5175" stop-color="#CCD6FD"></stop> <stop offset="1" stop-color="#CEDDFB"></stop> </linearGradient> <linearGradient id="paint8_linear_156_8704" x1="455.364" y1="180.088" x2="962.635" y2="687.915" gradientUnits="userSpaceOnUse"> <stop offset="0.1693" stop-color="#CACEFF"></stop> <stop offset="0.5175" stop-color="#CCD6FD"></stop> <stop offset="1" stop-color="#CEDDFB"></stop> </linearGradient> <linearGradient id="paint9_linear_156_8704" x1="362.054" y1="273.307" x2="869.322" y2="781.13" gradientUnits="userSpaceOnUse"> <stop offset="0.1693" stop-color="#CACEFF"></stop> <stop offset="0.5175" stop-color="#CCD6FD"></stop> <stop offset="1" stop-color="#CEDDFB"></stop> </linearGradient> <linearGradient id="paint10_linear_156_8704" x1="265.702" y1="369.555" x2="772.966" y2="877.375" gradientUnits="userSpaceOnUse"> <stop offset="0.1693" stop-color="#CACEFF"></stop> <stop offset="0.5175" stop-color="#CCD6FD"></stop> <stop offset="1" stop-color="#CEDDFB"></stop> </linearGradient> <linearGradient id="paint11_linear_156_8704" x1="183.17" y1="451.998" x2="690.433" y2="959.819" gradientUnits="userSpaceOnUse"> <stop offset="0.1693" stop-color="#CACEFF"></stop> <stop offset="0.5175" stop-color="#CCD6FD"></stop> <stop offset="1" stop-color="#CEDDFB"></stop> </linearGradient> <linearGradient id="paint12_linear_156_8704" x1="126.745" y1="508.359" x2="634.011" y2="1016.18" gradientUnits="userSpaceOnUse"> <stop offset="0.1693" stop-color="#CACEFF"></stop> <stop offset="0.5175" stop-color="#CCD6FD"></stop> <stop offset="1" stop-color="#CEDDFB"></stop> </linearGradient> <linearGradient id="paint13_linear_156_8704" x1="104.686" y1="530.395" x2="611.951" y2="1038.22" gradientUnits="userSpaceOnUse"> <stop offset="0.1693" stop-color="#CACEFF"></stop> <stop offset="0.5175" stop-color="#CCD6FD"></stop> <stop offset="1" stop-color="#CEDDFB"></stop> </linearGradient> <linearGradient id="paint14_linear_156_8704" x1="121.985" y1="513.114" x2="629.251" y2="1020.94" gradientUnits="userSpaceOnUse"> <stop offset="0.1693" stop-color="#CACEFF"></stop> <stop offset="0.5175" stop-color="#CCD6FD"></stop> <stop offset="1" stop-color="#CEDDFB"></stop> </linearGradient> <linearGradient id="paint15_linear_156_8704" x1="174.359" y1="460.798" x2="681.618" y2="968.613" gradientUnits="userSpaceOnUse"> <stop offset="0.1693" stop-color="#CACEFF"></stop> <stop offset="0.5175" stop-color="#CCD6FD"></stop> <stop offset="1" stop-color="#CEDDFB"></stop> </linearGradient> <linearGradient id="paint16_linear_156_8704" x1="246.508" y1="388.728" x2="753.768" y2="896.544" gradientUnits="userSpaceOnUse"> <stop offset="0.1693" stop-color="#CACEFF"></stop> <stop offset="0.5175" stop-color="#CCD6FD"></stop> <stop offset="1" stop-color="#CEDDFB"></stop> </linearGradient> <linearGradient id="paint17_linear_156_8704" x1="251.289" y1="692.227" x2="382.269" y2="581.064" gradientUnits="userSpaceOnUse"> <stop offset="0.0859375" stop-color="#379ED6"></stop> <stop offset="0.3014" stop-color="#58AEE5"></stop> <stop offset="0.5438" stop-color="#76BDF3"></stop> <stop offset="0.7514" stop-color="#88C6FC"></stop> <stop offset="0.8984" stop-color="#8FC9FF"></stop> </linearGradient> <linearGradient id="paint18_linear_156_8704" x1="256.994" y1="687.397" x2="376.79" y2="585.724" gradientUnits="userSpaceOnUse"> <stop offset="0.0859375" stop-color="#7282B5"></stop> <stop offset="0.2291" stop-color="#7489C8"></stop> <stop offset="0.501" stop-color="#7695E6"></stop> <stop offset="0.7337" stop-color="#779CF8"></stop> <stop offset="0.8984" stop-color="#789EFF"></stop> </linearGradient> <linearGradient id="paint19_linear_156_8704" x1="264.791" y1="692.489" x2="376.758" y2="569.776" gradientUnits="userSpaceOnUse"> <stop offset="0.0859375" stop-color="#7CAB71"></stop> <stop offset="0.2291" stop-color="#86BE78"></stop> <stop offset="0.501" stop-color="#95DC84"></stop> <stop offset="0.7337" stop-color="#9FEE8B"></stop> <stop offset="0.8984" stop-color="#A2F58E"></stop> </linearGradient> </defs> </svg> 