<?xml version="1.0" encoding="UTF-8"?> <svg xmlns="http://www.w3.org/2000/svg" width="804" height="756" viewBox="0 0 804 756" fill="none"> <g clip-path="url(#clip0_157_11381)"> <path d="M773.536 510.114L746.102 505.157C731.659 502.678 731.659 482.063 746.102 479.585C767.809 475.867 783.372 464.382 792.752 449.551C793.001 448.436 793.333 447.403 793.748 446.453C797.525 429.474 800.098 412.454 801.551 395.475C801.551 395.392 801.509 395.309 801.551 395.227C795.823 370.812 777.271 349.288 745.895 344.001L105.832 236.508C91.7213 246.877 78.3572 259.601 64.8272 279.596C52.9573 297.153 44.2831 315.33 37.9746 333.094L571.042 423.442C580.007 424.971 580.048 437.778 571.083 439.347C489.447 453.806 489.903 570.511 571.623 584.392L713.647 609.138C737.885 580.054 758.263 546.922 773.536 510.114Z" fill="white"></path> <path d="M713.647 610.088C713.606 610.088 713.523 610.088 713.481 610.088L571.457 585.342C528.584 578.071 509.244 543.328 509.119 512.097C508.995 480.907 528.045 445.998 570.876 438.397C574.985 437.654 576.769 434.349 576.769 431.374C576.769 428.4 574.902 425.095 570.834 424.393L37.8088 334.044C37.5183 334.003 37.2693 333.838 37.1447 333.59C37.0202 333.342 36.9787 333.053 37.0617 332.764C43.9513 313.389 52.999 295.294 64.0388 279.018C76.1578 261.13 88.8992 247.745 105.293 235.723C105.501 235.558 105.791 235.517 106.04 235.558L746.061 343.05C774.906 347.925 795.989 367.341 802.464 394.979C802.505 395.061 802.505 395.185 802.505 395.268C802.505 395.351 802.547 395.433 802.505 395.516C801.011 412.701 798.397 429.928 794.661 446.618C794.661 446.659 794.62 446.701 794.62 446.742C794.205 447.734 793.914 448.725 793.665 449.716C793.624 449.799 793.582 449.923 793.541 450.006C786.319 461.449 772.25 476.032 746.268 480.494C739.337 481.692 736.266 487.31 736.266 492.35C736.266 497.39 739.379 503.008 746.268 504.165L773.744 509.122C774.034 509.164 774.283 509.37 774.408 509.618C774.532 509.866 774.574 510.196 774.449 510.444C759.55 546.385 739.338 579.765 714.436 609.716C714.228 609.964 713.938 610.088 713.647 610.088ZM39.2614 332.351L571.208 422.492C576.396 423.36 578.762 427.574 578.762 431.374C578.762 435.175 576.479 439.389 571.291 440.298C529.539 447.692 510.987 481.692 511.111 512.097C511.236 542.502 530.037 576.336 571.831 583.442L713.315 608.105C737.719 578.732 757.516 546.014 772.25 510.857L745.978 506.107C737.968 504.743 734.357 498.216 734.357 492.391C734.357 486.566 737.926 480.039 745.978 478.676C771.129 474.338 784.825 460.292 791.881 449.179C792.13 448.188 792.42 447.197 792.835 446.164C796.529 429.598 799.144 412.578 800.596 395.516C800.596 395.475 800.596 395.392 800.596 395.351C794.288 368.539 773.785 349.701 745.771 344.992L106.082 237.541C90.0198 249.397 77.5274 262.534 65.6159 280.133C54.8666 295.955 46.0264 313.513 39.2614 332.351Z" fill="#FFB83B"></path> <path d="M239.93 719.727C272.219 734.228 306.086 744.638 340.118 750.174C458.735 769.466 587.27 730.758 678.951 645.697L239.93 719.727Z" fill="white"></path> <path d="M400.879 756C388.013 756 375.147 755.381 362.364 754.059C361.824 754.017 361.451 753.522 361.492 752.984C361.534 752.447 362.032 752.076 362.53 752.117C474.547 763.436 591.42 724.232 675.879 647.145L240.095 720.679C239.556 720.762 239.058 720.431 238.975 719.894C238.892 719.357 239.224 718.861 239.763 718.779L678.784 644.748C679.199 644.666 679.614 644.872 679.822 645.285C680.029 645.657 679.946 646.112 679.614 646.401C604.161 716.424 502.271 756 400.879 756Z" fill="#FFB83B"></path> <path d="M382.037 491.565L373.239 487.269C371.827 486.566 370.914 485.162 370.914 483.592C370.956 481.94 370.914 480.287 370.79 478.676C370.665 477.106 371.537 475.66 372.907 474.875L381.456 470.166C383.158 469.216 383.946 467.274 383.407 465.456L381.166 458.02C380.626 456.202 378.841 454.963 376.932 455.128L367.096 455.789C365.519 455.913 363.983 455.087 363.236 453.724C362.448 452.319 361.576 450.915 360.663 449.593C359.791 448.271 359.75 446.577 360.539 445.255L365.56 436.91C366.557 435.258 366.266 433.192 364.855 431.87L359.169 426.541C357.758 425.219 355.641 425.054 354.023 426.128L345.846 431.498C344.518 432.366 342.817 432.407 341.447 431.622C340.036 430.796 338.583 430.011 337.089 429.309C335.637 428.606 334.765 427.161 334.765 425.591L334.89 415.883C334.931 413.982 333.603 412.288 331.735 411.875L324.099 410.058C322.231 409.603 320.28 410.512 319.409 412.206L315.051 420.923C314.345 422.327 312.893 423.236 311.316 423.195C309.656 423.153 307.995 423.195 306.335 423.319C304.758 423.401 303.264 422.616 302.476 421.253L297.786 412.702C296.831 411.049 294.839 410.223 293.013 410.801L285.459 412.991C283.592 413.528 282.388 415.263 282.513 417.163L283.177 426.83C283.301 428.4 282.471 429.887 281.101 430.631C279.649 431.416 278.238 432.283 276.868 433.192C275.54 434.06 273.838 434.101 272.469 433.275L264.002 428.317C262.342 427.326 260.225 427.615 258.897 429.02L253.46 434.638C252.132 436.001 251.966 438.108 253.004 439.719L258.441 447.775C259.312 449.097 259.395 450.749 258.565 452.113C257.735 453.517 256.947 454.922 256.199 456.409C255.494 457.814 254.041 458.723 252.423 458.681L242.586 458.557C240.636 458.516 238.976 459.838 238.519 461.697L236.693 469.257C236.236 471.116 237.149 473.016 238.893 473.884L247.691 478.18C249.102 478.883 250.015 480.287 250.015 481.857C249.974 483.509 250.015 485.162 250.14 486.773C250.223 488.343 249.393 489.789 248.023 490.574L239.474 495.283C237.772 496.233 236.983 498.175 237.523 499.993L239.764 507.429C240.304 509.246 242.088 510.486 243.998 510.321L253.792 509.66C255.369 509.577 256.905 510.362 257.652 511.725C258.441 513.171 259.312 514.576 260.267 515.898C261.138 517.178 261.18 518.872 260.35 520.235L255.328 528.58C254.332 530.233 254.622 532.298 256.033 533.62L261.719 538.949C263.13 540.271 265.247 540.437 266.866 539.362L275.042 533.992C276.37 533.124 278.072 533.083 279.441 533.868C280.852 534.694 282.305 535.479 283.799 536.182C285.252 536.884 286.123 538.33 286.123 539.9L285.999 549.608C285.957 551.508 287.285 553.202 289.153 553.615L296.79 555.433C298.657 555.887 300.608 554.978 301.479 553.284L305.837 544.568C306.543 543.163 307.995 542.254 309.573 542.296C311.233 542.337 312.893 542.296 314.553 542.172C316.13 542.089 317.624 542.874 318.413 544.237L323.186 552.706C324.14 554.359 326.132 555.185 327.959 554.606L335.512 552.417C337.38 551.88 338.583 550.145 338.459 548.244L337.795 538.578C337.67 537.008 338.5 535.521 339.911 534.777C341.364 533.992 342.734 533.124 344.103 532.216C345.431 531.348 347.133 531.307 348.503 532.092L356.969 537.049C358.629 538.041 360.746 537.751 362.074 536.347L367.511 530.728C368.839 529.365 369.005 527.258 367.968 525.647L362.531 517.591C361.659 516.269 361.576 514.617 362.406 513.254C363.236 511.849 364.025 510.444 364.772 508.957C365.477 507.553 366.93 506.644 368.549 506.685L378.385 506.809C380.336 506.85 381.996 505.528 382.452 503.669L384.278 496.109C384.693 494.333 383.78 492.391 382.037 491.565ZM311.191 516.022C292.556 516.435 277.117 501.81 276.702 483.427C276.287 465.043 291.104 449.799 309.739 449.386C328.374 448.973 343.813 463.597 344.228 481.981C344.643 500.364 329.868 515.608 311.191 516.022Z" fill="#FFB83B"></path> <path d="M297.785 556.507C297.37 556.507 296.997 556.465 296.582 556.383L288.945 554.565C286.621 554.028 285.003 551.963 285.044 549.608L285.169 539.9C285.169 538.702 284.504 537.586 283.425 537.049C281.931 536.305 280.437 535.521 279.026 534.694C277.988 534.075 276.66 534.116 275.664 534.777L267.488 540.147C265.496 541.469 262.881 541.263 261.138 539.61L255.452 534.281C253.709 532.629 253.336 530.067 254.581 528.043L259.603 519.698C260.225 518.665 260.184 517.385 259.52 516.393C258.565 515.03 257.693 513.584 256.863 512.138C256.282 511.105 255.12 510.486 253.917 510.568L244.122 511.229C241.715 511.395 239.598 509.907 238.892 507.635L236.651 500.199C235.987 497.927 236.942 495.531 239.058 494.374L247.608 489.665C248.687 489.086 249.31 487.93 249.227 486.773C249.102 485.121 249.061 483.427 249.102 481.774C249.102 480.618 248.438 479.502 247.318 478.965L238.519 474.669C236.361 473.636 235.24 471.281 235.821 468.968L237.647 461.408C238.228 459.094 240.304 457.524 242.669 457.566L252.506 457.69C253.751 457.731 254.871 457.029 255.411 455.955C256.158 454.467 256.946 452.98 257.818 451.576C258.44 450.543 258.399 449.262 257.735 448.271L252.298 440.215C250.97 438.232 251.177 435.671 252.838 433.936L258.274 428.317C259.935 426.582 262.508 426.252 264.583 427.45L273.05 432.407C274.087 433.027 275.415 432.985 276.411 432.324C277.822 431.416 279.275 430.507 280.728 429.722C281.765 429.143 282.388 428.028 282.305 426.83L281.641 417.163C281.475 414.808 282.969 412.66 285.293 411.999L292.847 409.81C295.129 409.149 297.578 410.099 298.74 412.164L303.513 420.633C304.094 421.666 305.256 422.327 306.46 422.244C308.12 422.121 309.821 422.079 311.523 422.121C312.685 422.162 313.847 421.46 314.387 420.385L318.745 411.669C319.824 409.562 322.189 408.446 324.514 408.983L332.15 410.801C334.474 411.338 336.093 413.404 336.051 415.759L335.927 425.467C335.927 426.665 336.591 427.78 337.67 428.317C339.164 429.061 340.658 429.846 342.069 430.672C343.107 431.292 344.435 431.25 345.431 430.589L353.607 425.219C355.599 423.897 358.214 424.103 359.957 425.756L365.643 431.085C367.386 432.738 367.76 435.299 366.515 437.323L361.493 445.668C360.87 446.701 360.912 447.982 361.576 448.973C362.489 450.336 363.361 451.741 364.191 453.187C364.772 454.22 365.934 454.839 367.179 454.757L377.015 454.096C379.422 453.93 381.539 455.418 382.244 457.69L384.486 465.126C385.15 467.398 384.195 469.794 382.078 470.951L373.529 475.66C372.45 476.239 371.827 477.395 371.91 478.552C372.035 480.204 372.076 481.857 372.035 483.551C371.993 484.707 372.699 485.823 373.819 486.36L382.618 490.656C384.776 491.689 385.897 494.044 385.316 496.357L383.49 503.917C382.909 506.231 380.875 507.842 378.468 507.759L368.631 507.635C367.386 507.635 366.266 508.296 365.726 509.37C364.979 510.858 364.191 512.345 363.319 513.749C362.696 514.782 362.738 516.063 363.402 517.054L368.839 525.11C370.167 527.093 369.96 529.654 368.299 531.389L362.904 537.008C361.244 538.743 358.671 539.073 356.596 537.875L348.129 532.918C347.091 532.298 345.763 532.34 344.767 533.001C343.398 533.909 341.945 534.777 340.492 535.603C339.455 536.182 338.791 537.338 338.874 538.536L339.538 548.203C339.704 550.558 338.21 552.706 335.885 553.367L328.332 555.557C326.049 556.218 323.6 555.267 322.438 553.202L317.666 544.733C317.084 543.7 315.922 543.039 314.719 543.122C313.059 543.246 311.357 543.287 309.655 543.246C308.493 543.246 307.331 543.907 306.792 544.981L302.434 553.698C301.479 555.474 299.695 556.507 297.785 556.507ZM277.366 532.381C278.279 532.381 279.151 532.629 279.939 533.083C281.309 533.909 282.761 534.653 284.214 535.355C285.957 536.223 287.078 537.999 287.078 539.941L286.953 549.649C286.953 551.095 287.949 552.376 289.36 552.706L296.997 554.524C298.45 554.854 299.944 554.193 300.566 552.871L304.924 544.155C305.796 542.42 307.58 541.345 309.531 541.345C311.191 541.387 312.81 541.345 314.428 541.222C316.337 541.098 318.205 542.089 319.16 543.783L323.933 552.252C324.68 553.532 326.174 554.152 327.585 553.739L335.138 551.549C336.549 551.136 337.504 549.814 337.38 548.368L336.715 538.702C336.591 536.76 337.587 534.901 339.33 533.992C340.741 533.207 342.152 532.381 343.48 531.472C345.099 530.398 347.216 530.357 348.917 531.348L357.384 536.305C358.671 537.049 360.289 536.843 361.327 535.768L366.764 530.15C367.801 529.076 367.926 527.506 367.096 526.267L361.659 518.211C360.58 516.6 360.497 514.493 361.493 512.841C362.323 511.477 363.112 510.073 363.817 508.627C364.647 506.933 366.473 505.818 368.382 505.818C368.424 505.818 368.424 505.818 368.465 505.818L378.302 505.942H378.343C379.796 505.942 381.082 504.95 381.414 503.545L383.241 495.985C383.573 494.581 382.909 493.094 381.58 492.474L372.782 488.178C370.997 487.31 369.918 485.534 369.918 483.592C369.96 481.981 369.918 480.328 369.794 478.759C369.669 476.858 370.707 474.999 372.408 474.049L380.958 469.34C382.245 468.637 382.867 467.15 382.452 465.745L380.211 458.309C379.796 456.905 378.468 455.996 376.974 456.079L367.137 456.74C365.187 456.863 363.319 455.872 362.364 454.178C361.576 452.774 360.704 451.41 359.833 450.088C358.754 448.477 358.671 446.37 359.708 444.718L364.73 436.373C365.477 435.134 365.27 433.523 364.191 432.531L358.505 427.202C357.426 426.169 355.807 426.045 354.562 426.871L346.386 432.242C344.767 433.316 342.65 433.357 340.949 432.407C339.579 431.581 338.127 430.837 336.674 430.135C334.931 429.267 333.81 427.491 333.81 425.549L333.935 415.841C333.935 414.395 332.939 413.115 331.528 412.784L323.891 410.966C322.438 410.636 320.944 411.297 320.322 412.619L315.964 421.336C315.092 423.071 313.349 424.145 311.44 424.145C311.399 424.145 311.399 424.145 311.357 424.145C309.697 424.103 308.078 424.145 306.46 424.269C304.509 424.393 302.683 423.401 301.728 421.707L296.955 413.239C296.25 411.958 294.714 411.338 293.303 411.751L285.75 413.941C284.338 414.354 283.384 415.676 283.508 417.122L284.172 426.789C284.297 428.73 283.301 430.589 281.599 431.498C280.188 432.283 278.777 433.151 277.407 434.018C275.789 435.092 273.672 435.134 272.012 434.142L263.545 429.185C262.259 428.441 260.64 428.648 259.603 429.722L254.166 435.34C253.128 436.414 253.004 437.984 253.834 439.223L259.271 447.279C260.35 448.89 260.433 450.997 259.437 452.65C258.606 454.013 257.818 455.418 257.112 456.864C256.241 458.599 254.373 459.673 252.464 459.673L242.628 459.549C241.175 459.466 239.847 460.499 239.515 461.945L237.689 469.505C237.357 470.909 238.021 472.397 239.349 473.016L248.148 477.313C249.932 478.18 251.011 479.957 251.011 481.898C250.97 483.509 251.011 485.162 251.136 486.732C251.26 488.632 250.223 490.491 248.521 491.441L239.972 496.151C238.685 496.853 238.062 498.34 238.477 499.745L240.719 507.181C241.134 508.585 242.462 509.494 243.956 509.412L253.751 508.751C255.701 508.627 257.569 509.618 258.523 511.271C259.312 512.675 260.184 514.039 261.097 515.402C262.176 516.972 262.217 519.079 261.221 520.772L256.199 529.117C255.452 530.357 255.66 531.968 256.739 532.959L262.425 538.288C263.504 539.321 265.122 539.445 266.368 538.619L274.544 533.248C275.415 532.67 276.37 532.381 277.366 532.381ZM310.444 516.972C301.438 516.972 292.971 513.625 286.455 507.47C279.732 501.149 275.955 492.598 275.747 483.468C275.54 474.297 278.985 465.622 285.418 459.012C291.851 452.402 300.483 448.643 309.78 448.436C319.035 448.271 327.875 451.617 334.557 457.938C341.281 464.258 345.058 472.81 345.265 481.94C345.473 491.111 342.028 499.786 335.595 506.396C329.162 513.006 320.529 516.765 311.233 516.972C310.984 516.972 310.734 516.972 310.444 516.972ZM310.527 450.336C310.278 450.336 310.029 450.336 309.78 450.336C301.023 450.543 292.847 454.054 286.787 460.292C280.728 466.53 277.49 474.751 277.656 483.385C277.822 492.02 281.433 500.075 287.742 506.065C294.05 512.056 302.351 515.237 311.15 515.03C319.907 514.823 328.083 511.312 334.142 505.074C340.202 498.836 343.439 490.615 343.273 481.981C343.107 473.347 339.496 465.291 333.188 459.301C327.045 453.517 319.035 450.336 310.527 450.336Z" fill="white"></path> <path d="M477.286 550.186L470.48 548.037C469.359 547.707 468.571 546.757 468.405 545.641C468.239 544.443 468.031 543.245 467.782 542.088C467.533 540.973 467.99 539.816 468.903 539.114L474.589 534.776C475.709 533.909 476.083 532.422 475.46 531.182L473.053 526.06C472.472 524.82 471.061 524.118 469.691 524.407L462.677 525.936C461.557 526.184 460.353 525.77 459.648 524.862C458.9 523.911 458.153 523.003 457.323 522.135C456.535 521.309 456.327 520.07 456.784 518.995L459.523 512.427C460.063 511.146 459.606 509.659 458.485 508.874L453.796 505.652C452.633 504.867 451.098 504.949 450.019 505.9L444.706 510.65C443.835 511.435 442.631 511.642 441.552 511.229C440.432 510.774 439.311 510.403 438.149 510.031C437.028 509.7 436.24 508.75 436.074 507.593L435.119 500.57C434.912 499.207 433.791 498.133 432.38 498.009L426.652 497.513C425.241 497.39 423.955 498.257 423.498 499.579L421.299 506.313C420.967 507.387 420.012 508.213 418.85 508.378C417.646 508.544 416.443 508.75 415.281 508.998C414.16 509.246 412.998 508.791 412.292 507.924L407.935 502.347C407.063 501.231 405.569 500.901 404.282 501.479L399.094 503.875C397.808 504.454 397.102 505.858 397.434 507.222L398.97 514.121C399.219 515.236 398.804 516.393 397.891 517.095C396.936 517.839 395.982 518.582 395.11 519.409C394.238 520.193 393.035 520.4 391.956 519.946L385.315 517.26C384.029 516.723 382.493 517.178 381.704 518.334L378.426 522.961C377.596 524.118 377.72 525.647 378.675 526.679L383.489 531.885C384.278 532.711 384.485 533.95 384.029 534.983C383.572 536.057 383.157 537.214 382.784 538.329C382.452 539.445 381.455 540.229 380.335 540.395L373.238 541.345C371.827 541.551 370.748 542.667 370.623 544.03L370.125 549.69C370.001 551.094 370.872 552.375 372.2 552.788L379.007 554.936C380.127 555.267 380.916 556.217 381.082 557.332C381.248 558.53 381.455 559.728 381.704 560.885C381.954 562.001 381.497 563.157 380.584 563.86L374.898 568.197C373.777 569.065 373.404 570.552 374.026 571.791L376.434 576.914C377.015 578.153 378.426 578.856 379.795 578.567L386.809 577.038C387.93 576.79 389.134 577.203 389.839 578.112C390.586 579.062 391.375 579.971 392.163 580.839C392.952 581.665 393.159 582.904 392.703 583.937L389.964 590.506C389.424 591.786 389.881 593.273 391.001 594.058L395.691 597.281C396.853 598.066 398.389 597.983 399.468 597.033L404.78 592.282C405.652 591.497 406.855 591.29 407.935 591.704C409.055 592.158 410.176 592.53 411.338 592.902C412.458 593.232 413.247 594.182 413.413 595.339L414.368 602.362C414.575 603.725 415.696 604.799 417.107 604.923L422.834 605.419C424.245 605.543 425.532 604.675 425.988 603.353L428.188 596.62C428.52 595.546 429.475 594.719 430.637 594.554C431.84 594.389 433.044 594.182 434.206 593.934C435.327 593.687 436.489 594.141 437.194 595.009L441.552 600.586C442.424 601.701 443.918 602.031 445.204 601.453L450.392 599.057C451.679 598.479 452.384 597.074 452.052 595.711L450.517 588.812C450.268 587.696 450.683 586.54 451.596 585.837C452.55 585.094 453.464 584.35 454.335 583.565C455.207 582.78 456.41 582.574 457.489 583.028L464.13 585.713C465.416 586.25 466.952 585.796 467.741 584.639L471.019 580.012C471.849 578.856 471.725 577.327 470.77 576.294L465.956 571.089C465.167 570.263 464.96 569.024 465.416 567.991C465.873 566.917 466.288 565.76 466.662 564.645C466.994 563.529 467.99 562.744 469.11 562.579L476.207 561.629C477.618 561.422 478.697 560.307 478.822 558.944L479.32 553.284C479.486 551.879 478.614 550.599 477.286 550.186ZM428.852 575.468C415.447 577.782 402.705 568.9 400.422 555.68C398.14 542.46 407.146 529.86 420.551 527.547C433.957 525.233 446.699 534.115 448.981 547.335C451.264 560.555 442.258 573.155 428.852 575.468Z" fill="#FFB83B"></path> <path d="M423 606.41C422.876 606.41 422.751 606.41 422.668 606.41L416.941 605.915C415.073 605.749 413.579 604.345 413.33 602.527L412.375 595.504C412.251 594.719 411.711 594.1 410.964 593.852C409.802 593.48 408.64 593.067 407.478 592.612C406.772 592.323 405.901 592.489 405.32 592.984L400.007 597.735C398.638 598.974 396.563 599.098 395.069 598.066L390.379 594.843C388.843 593.769 388.262 591.828 388.968 590.134L391.707 583.565C391.997 582.863 391.873 582.037 391.333 581.458C390.503 580.55 389.715 579.641 388.968 578.649C388.511 578.029 387.681 577.782 386.934 577.947L379.92 579.475C378.094 579.889 376.268 578.98 375.479 577.286L373.072 572.163C372.283 570.47 372.781 568.528 374.234 567.371L379.92 563.033C380.542 562.579 380.833 561.794 380.667 561.05C380.418 559.852 380.21 558.654 380.044 557.415C379.961 556.672 379.38 556.011 378.633 555.804L371.827 553.656C370.042 553.077 368.922 551.425 369.088 549.566L369.586 543.906C369.752 542.047 371.163 540.601 373.03 540.353L380.127 539.403C380.916 539.279 381.58 538.742 381.788 537.999C382.161 536.842 382.576 535.685 383.033 534.57C383.323 533.868 383.157 533.041 382.659 532.463L377.845 527.258C376.6 525.894 376.434 523.87 377.513 522.342L380.791 517.715C381.871 516.186 383.821 515.608 385.564 516.31L392.205 518.995C392.952 519.285 393.782 519.161 394.363 518.624C395.276 517.797 396.231 517.012 397.227 516.269C397.849 515.814 398.14 515.03 397.974 514.245L396.438 507.346C396.023 505.528 396.936 503.71 398.638 502.925L403.826 500.529C405.527 499.744 407.52 500.199 408.64 501.686L412.998 507.263C413.496 507.883 414.285 508.172 415.032 508.007C416.235 507.759 417.48 507.511 418.684 507.387C419.431 507.304 420.095 506.726 420.344 505.982L422.544 499.249C423.125 497.472 424.826 496.357 426.694 496.522L432.421 497.018C434.289 497.183 435.783 498.588 436.032 500.405L436.987 507.428C437.111 508.213 437.651 508.833 438.398 509.081C439.56 509.453 440.722 509.866 441.843 510.32C442.548 510.609 443.42 510.444 444.001 509.948L449.313 505.197C450.683 503.958 452.717 503.834 454.252 504.867L458.942 508.089C460.478 509.163 461.059 511.105 460.353 512.799L457.614 519.367C457.323 520.07 457.448 520.896 457.987 521.474C458.818 522.342 459.606 523.292 460.353 524.242C460.81 524.862 461.64 525.151 462.387 524.986L469.401 523.457C471.227 523.044 473.053 523.953 473.842 525.647L476.249 530.769C477.037 532.463 476.539 534.405 475.087 535.561L469.401 539.899C468.778 540.353 468.488 541.138 468.654 541.882C468.903 543.08 469.11 544.278 469.276 545.517C469.359 546.261 469.94 546.922 470.687 547.129L477.494 549.277C479.279 549.855 480.399 551.508 480.233 553.367L479.735 559.026C479.569 560.885 478.158 562.331 476.29 562.579L469.193 563.529C468.405 563.653 467.741 564.19 467.533 564.934C467.16 566.09 466.745 567.247 466.288 568.363C465.998 569.065 466.164 569.891 466.662 570.47L471.476 575.675C472.721 577.038 472.887 579.062 471.808 580.591L468.529 585.218C467.45 586.746 465.5 587.325 463.756 586.622L457.116 583.937C456.369 583.648 455.539 583.772 454.958 584.309C454.045 585.135 453.09 585.92 452.135 586.664C451.513 587.118 451.222 587.944 451.388 588.688L452.924 595.587C453.339 597.405 452.426 599.222 450.724 600.007L445.536 602.403C443.835 603.188 441.843 602.734 440.722 601.247L436.364 595.67C435.866 595.05 435.078 594.761 434.331 594.926C433.127 595.174 431.882 595.422 430.678 595.546C429.931 595.628 429.267 596.207 429.018 596.95L426.819 603.684C426.279 605.336 424.743 606.41 423 606.41ZM406.772 590.588C407.27 590.588 407.769 590.671 408.267 590.877C409.346 591.291 410.466 591.704 411.587 592.034C413.039 592.489 414.119 593.769 414.326 595.256L415.281 602.279C415.405 603.23 416.152 603.932 417.107 604.014L422.834 604.51C423.789 604.593 424.66 604.014 424.951 603.106L427.151 596.372C427.607 594.926 428.894 593.852 430.388 593.687C431.55 593.521 432.753 593.315 433.916 593.067C435.368 592.736 436.945 593.315 437.858 594.513L442.216 600.09C442.797 600.833 443.835 601.081 444.706 600.668L449.894 598.272C450.766 597.859 451.222 596.95 451.015 596L449.479 589.101C449.147 587.614 449.728 586.085 450.932 585.135C451.845 584.433 452.758 583.689 453.63 582.904C454.75 581.871 456.41 581.624 457.821 582.161L464.462 584.846C465.333 585.218 466.371 584.887 466.911 584.144L470.189 579.517C470.729 578.732 470.687 577.699 470.023 576.997L465.209 571.791C464.171 570.676 463.881 569.065 464.462 567.66C464.918 566.586 465.292 565.512 465.666 564.397C466.122 562.951 467.409 561.877 468.903 561.67L476 560.72C476.954 560.596 477.701 559.852 477.784 558.902L478.283 553.243C478.366 552.292 477.784 551.425 476.871 551.136L470.065 548.988C468.612 548.533 467.533 547.252 467.326 545.765C467.16 544.609 466.952 543.452 466.703 542.295C466.371 540.849 466.952 539.279 468.156 538.37L473.842 534.033C474.589 533.454 474.838 532.463 474.464 531.595L472.057 526.473C471.642 525.605 470.729 525.151 469.774 525.357L462.76 526.886C461.266 527.216 459.689 526.638 458.776 525.481C458.07 524.572 457.282 523.664 456.535 522.837C455.497 521.722 455.207 520.111 455.788 518.706L458.527 512.138C458.901 511.27 458.61 510.279 457.821 509.742L453.132 506.519C452.343 505.982 451.305 506.024 450.558 506.685L445.246 511.435C444.125 512.468 442.465 512.757 441.096 512.179C440.017 511.766 438.896 511.353 437.775 511.022C436.323 510.568 435.244 509.287 435.036 507.8L434.082 500.777C433.957 499.827 433.21 499.125 432.255 499.042L426.528 498.546C425.573 498.464 424.702 499.042 424.411 499.951L422.212 506.685C421.755 508.131 420.469 509.205 418.974 509.37C417.812 509.535 416.609 509.742 415.447 509.99C413.953 510.32 412.417 509.742 411.504 508.544L407.146 502.967C406.565 502.223 405.527 501.975 404.656 502.388L399.468 504.784C398.596 505.197 398.14 506.106 398.347 507.056L399.883 513.955C400.215 515.443 399.634 516.971 398.43 517.88C397.476 518.582 396.563 519.367 395.691 520.152C394.571 521.144 392.952 521.433 391.541 520.854L384.9 518.169C384.029 517.797 382.991 518.128 382.452 518.872L379.173 523.498C378.633 524.283 378.675 525.316 379.339 526.018L384.153 531.224C385.191 532.339 385.481 533.95 384.9 535.355C384.444 536.429 384.07 537.503 383.697 538.618C383.24 540.064 381.954 541.138 380.459 541.345L373.362 542.295C372.408 542.419 371.661 543.163 371.578 544.113L371.08 549.772C370.997 550.723 371.578 551.59 372.491 551.879L379.297 554.028C380.75 554.482 381.829 555.763 382.037 557.25C382.203 558.407 382.41 559.563 382.659 560.72C382.991 562.166 382.41 563.736 381.206 564.645L375.521 568.982C374.773 569.561 374.524 570.552 374.898 571.42L377.305 576.542C377.72 577.41 378.633 577.864 379.588 577.658L386.602 576.129C388.096 575.799 389.673 576.377 390.586 577.534C391.292 578.443 392.08 579.351 392.869 580.219C393.906 581.334 394.155 582.946 393.574 584.35L390.835 590.919C390.462 591.786 390.752 592.778 391.541 593.315L396.231 596.537C397.019 597.074 398.057 597.033 398.804 596.372L404.116 591.621C404.822 590.96 405.818 590.588 406.772 590.588ZM424.577 576.79C419.348 576.79 414.285 575.22 409.927 572.163C404.324 568.28 400.63 562.455 399.468 555.804C398.306 549.153 399.841 542.46 403.826 536.925C407.769 531.389 413.662 527.712 420.386 526.555C434.289 524.159 447.57 533.413 449.936 547.129C451.098 553.78 449.562 560.472 445.578 566.008C441.635 571.544 435.742 575.22 429.018 576.377C427.524 576.666 426.03 576.79 424.577 576.79ZM424.785 528.125C423.457 528.125 422.087 528.249 420.718 528.456C414.492 529.53 409.055 532.917 405.403 538.04C401.751 543.121 400.339 549.318 401.377 555.473C402.456 561.629 405.859 566.958 411.006 570.552C416.152 574.146 422.461 575.551 428.686 574.477C434.912 573.403 440.349 570.015 444.001 564.892C447.653 559.811 449.064 553.614 448.027 547.459C446.076 536.14 436.074 528.125 424.785 528.125Z" fill="white"></path> <path d="M283.26 290.707L308.411 211.885L519.454 247.578L283.26 290.707Z" fill="white"></path> <path d="M332.357 71.0946L535.35 106.168L738.176 71.0533L533.067 35.5254L332.357 71.0946Z" fill="white"></path> <path d="M411.173 56.6371L614.165 91.7105L659.653 84.481L454.544 48.9531L411.173 56.6371Z" fill="#FFB83B"></path> <path d="M535.308 403.612V105.881L331.527 70.9724V367.878L535.308 403.612Z" fill="white"></path> <path d="M535.309 404.563C535.267 404.563 535.184 404.563 535.143 404.563L331.362 368.828C330.905 368.745 330.573 368.332 330.573 367.878V297.648C330.573 297.111 330.988 296.698 331.528 296.698C332.067 296.698 332.482 297.111 332.482 297.648V367.093L534.354 402.497V106.707L332.482 72.1291V202.797C332.482 203.334 332.067 203.747 331.528 203.747C330.988 203.747 330.573 203.334 330.573 202.797V70.9724C330.573 70.6832 330.698 70.4354 330.905 70.2288C331.113 70.0636 331.403 69.9809 331.694 70.0222L535.475 104.93C535.931 105.013 536.263 105.426 536.263 105.881V403.612C536.263 403.902 536.139 404.149 535.931 404.356C535.765 404.48 535.558 404.563 535.309 404.563Z" fill="#FFB83B"></path> <path d="M498.619 325.781C498.578 325.781 498.495 325.781 498.453 325.781L366.722 302.398C366.266 302.316 365.934 301.903 365.934 301.448V222.089C365.934 221.552 366.349 221.139 366.888 221.139C367.428 221.139 367.843 221.552 367.843 222.089V300.663L497.623 323.674V244.025C497.623 243.488 498.038 243.075 498.578 243.075C499.117 243.075 499.532 243.488 499.532 244.025V324.789C499.532 325.078 499.408 325.326 499.2 325.533C499.076 325.698 498.868 325.781 498.619 325.781Z" fill="#FFB83B"></path> <path d="M380.625 289.302C380.086 289.302 379.671 288.889 379.671 288.352V224.112C379.671 223.575 380.086 223.162 380.625 223.162C381.165 223.162 381.58 223.575 381.58 224.112V288.352C381.58 288.889 381.124 289.302 380.625 289.302Z" fill="#FFB83B"></path> <path d="M393.367 289.715C392.827 289.715 392.412 289.302 392.412 288.765V226.26C392.412 225.723 392.827 225.31 393.367 225.31C393.906 225.31 394.321 225.723 394.321 226.26V288.765C394.321 289.302 393.906 289.715 393.367 289.715Z" fill="#FFB83B"></path> <path d="M406.856 293.516C406.316 293.516 405.901 293.102 405.901 292.565V228.243C405.901 227.706 406.316 227.293 406.856 227.293C407.395 227.293 407.81 227.706 407.81 228.243V292.565C407.81 293.102 407.395 293.516 406.856 293.516Z" fill="#FFB83B"></path> <path d="M415.613 294.92C415.073 294.92 414.658 294.506 414.658 293.969V229.647C414.658 229.11 415.073 228.697 415.613 228.697C416.152 228.697 416.567 229.11 416.567 229.647V293.969C416.567 294.506 416.152 294.92 415.613 294.92Z" fill="#FFB83B"></path> <path d="M433.085 296.531C432.546 296.531 432.131 296.118 432.131 295.581V232.788C432.131 232.251 432.546 231.837 433.085 231.837C433.625 231.837 434.04 232.251 434.04 232.788V295.581C434.082 296.118 433.625 296.531 433.085 296.531Z" fill="#FFB83B"></path> <path d="M450.6 300.538C450.061 300.538 449.646 300.125 449.646 299.588V235.927C449.646 235.39 450.061 234.977 450.6 234.977C451.14 234.977 451.555 235.39 451.555 235.927V299.588C451.555 300.125 451.14 300.538 450.6 300.538Z" fill="#FFB83B"></path> <path d="M468.114 300.951C467.574 300.951 467.159 300.538 467.159 300V238.694C467.159 238.157 467.574 237.744 468.114 237.744C468.653 237.744 469.068 238.157 469.068 238.694V300C469.068 300.538 468.612 300.951 468.114 300.951Z" fill="#FFB83B"></path> <path d="M485.587 306.157C485.047 306.157 484.632 305.744 484.632 305.207V241.835C484.632 241.298 485.047 240.885 485.587 240.885C486.127 240.885 486.542 241.298 486.542 241.835V305.207C486.542 305.744 486.127 306.157 485.587 306.157Z" fill="#FFB83B"></path> <path d="M498.62 244.397C498.08 244.397 497.665 243.984 497.665 243.447V183.298L367.885 160.824V221.098C367.885 221.635 367.47 222.048 366.93 222.048C366.391 222.048 365.976 221.635 365.976 221.098V159.668C365.976 159.379 366.1 159.131 366.308 158.924C366.515 158.759 366.806 158.676 367.096 158.718L498.827 181.521C499.284 181.604 499.616 182.017 499.616 182.472V243.406C499.574 243.943 499.159 244.397 498.62 244.397Z" fill="#FFB83B"></path> <path d="M380.625 224.982C380.086 224.982 379.671 224.569 379.671 224.032V179.085C379.671 178.548 380.086 178.135 380.625 178.135C381.165 178.135 381.58 178.548 381.58 179.085V224.032C381.58 224.569 381.124 224.982 380.625 224.982Z" fill="#FFB83B"></path> <path d="M390.005 225.395V183.092C390.005 181.233 391.499 179.746 393.367 179.746C395.234 179.746 396.728 181.233 396.728 183.092V226.387L390.005 225.395Z" fill="#FFB83B"></path> <path d="M406.856 229.195C406.316 229.195 405.901 228.782 405.901 228.245V183.298C405.901 182.761 406.316 182.348 406.856 182.348C407.395 182.348 407.81 182.761 407.81 183.298V228.245C407.81 228.782 407.395 229.195 406.856 229.195Z" fill="#FFB83B"></path> <path d="M415.613 230.601C415.073 230.601 414.658 230.188 414.658 229.651V184.704C414.658 184.167 415.073 183.754 415.613 183.754C416.152 183.754 416.567 184.167 416.567 184.704V229.651C416.567 230.147 416.152 230.601 415.613 230.601Z" fill="#FFB83B"></path> <path d="M429.724 232.211V189.908C429.724 188.049 431.218 186.562 433.085 186.562C434.953 186.562 436.447 188.049 436.447 189.908V233.368L429.724 232.211Z" fill="#FFB83B"></path> <path d="M450.6 236.219C450.061 236.219 449.646 235.806 449.646 235.269V190.322C449.646 189.785 450.061 189.372 450.6 189.372C451.14 189.372 451.555 189.785 451.555 190.322V235.269C451.555 235.764 451.14 236.219 450.6 236.219Z" fill="#FFB83B"></path> <path d="M464.711 238.367V194.329C464.711 192.47 466.205 190.983 468.073 190.983C469.94 190.983 471.434 192.47 471.434 194.329V239.028L464.711 238.367Z" fill="#FFB83B"></path> <path d="M485.587 242.787C485.047 242.787 484.632 242.374 484.632 241.837V195.94C484.632 195.403 485.047 194.99 485.587 194.99C486.127 194.99 486.542 195.403 486.542 195.94V241.837C486.542 242.374 486.127 242.787 485.587 242.787Z" fill="#FFB83B"></path> <path d="M535.309 403.611V105.879L737.346 70.9294V368.042L535.309 403.611Z" fill="white"></path> <path d="M535.309 404.561C535.101 404.561 534.852 404.478 534.686 404.354C534.479 404.189 534.354 403.9 534.354 403.611V105.879C534.354 105.424 534.686 105.011 535.143 104.929L737.18 69.9793C737.471 69.938 737.761 70.0206 737.969 70.1858C738.176 70.3511 738.301 70.6403 738.301 70.9294V368.041C738.301 368.496 737.969 368.909 737.512 368.992L535.475 404.561C535.433 404.561 535.392 404.561 535.309 404.561ZM536.263 106.705V402.454L736.35 367.215V72.0449L536.263 106.705Z" fill="#FFB83B"></path> <path d="M659.943 86.0898V116.371L617.9 123.477V93.402L659.943 86.0898Z" fill="#FFB83B"></path> <path d="M535.35 107.16C535.309 107.16 535.226 107.16 535.184 107.16L332.192 72.087C331.735 72.0044 331.403 71.5913 331.403 71.1368C331.403 70.6824 331.735 70.2693 332.192 70.1867L532.901 34.5762C533.026 34.5762 533.109 34.5762 533.233 34.5762L738.342 70.104C738.799 70.1867 739.131 70.5998 739.131 71.0542C739.131 71.5086 738.799 71.9217 738.342 72.0044L535.516 107.16C535.475 107.119 535.392 107.16 535.35 107.16ZM337.919 71.0955L535.35 105.219L732.532 71.0542L533.026 36.5178L337.919 71.0955Z" fill="#FFB83B"></path> <path d="M283.259 291.658C282.969 291.658 282.72 291.534 282.554 291.328C282.346 291.08 282.263 290.708 282.346 290.419L307.497 211.638C307.663 211.184 308.12 210.894 308.576 210.977L519.62 246.629C520.077 246.711 520.409 247.083 520.409 247.579C520.409 248.033 520.077 248.446 519.62 248.529L283.425 291.617C283.384 291.658 283.301 291.658 283.259 291.658ZM309.074 212.96L284.629 289.427L513.893 247.579L309.074 212.96Z" fill="#FFB83B"></path> <path d="M24.0717 678.043L18.7178 708.448L34.6135 710.307L41.088 681.761L24.0717 678.043Z" fill="white"></path> <path d="M34.6133 711.298C34.5718 711.298 34.5303 711.298 34.4888 711.298L18.5931 709.439C18.3441 709.398 18.095 709.274 17.929 709.067C17.763 708.86 17.7215 708.571 17.763 708.323L23.1584 677.877C23.1999 677.629 23.3659 677.381 23.5735 677.257C23.781 677.092 24.0715 677.05 24.3205 677.133L41.3368 680.851C41.5858 680.892 41.7934 681.058 41.9594 681.264C42.0839 681.471 42.1254 681.76 42.0839 682.008L35.5264 710.554C35.4434 710.967 35.0283 711.298 34.6133 711.298ZM19.8382 707.621L33.8662 709.274L39.9257 682.504L24.8601 679.199L19.8382 707.621Z" fill="#FFB83B"></path> <path d="M36.3156 703.739C31.1277 705.804 25.1928 704.482 21.3745 700.393L19.3823 698.244C18.6768 697.501 17.4732 697.583 16.8921 698.41L5.68625 714.852C3.6941 717.537 3.98462 721.627 6.39181 723.981C9.54605 727.038 14.3604 731.17 20.2124 734.475C31.2107 740.713 40.7149 753.974 51.9623 750.751C63.2097 747.529 63.7492 746.744 65.0358 743.191C66.3224 739.638 59.8064 732.657 50.8417 724.518C45.3633 719.561 40.0509 708.779 38.3493 704.606C38.0587 703.78 37.1457 703.408 36.3156 703.739Z" fill="white"></path> <path d="M48.5589 752.196C41.8353 752.196 35.6929 747.28 29.7164 742.447C26.5207 739.885 23.1589 737.2 19.7556 735.258C13.7792 731.871 8.8403 727.616 5.72756 724.641C2.98835 721.997 2.61483 717.329 4.8975 714.272L16.0619 697.872C16.5184 697.211 17.1824 696.839 17.971 696.756C18.7596 696.715 19.5066 697.004 20.0462 697.582L22.0383 699.731C25.5246 703.531 31.086 704.771 35.9004 702.829C36.5229 702.581 37.2285 702.581 37.851 702.829C38.4736 703.077 38.9716 703.572 39.2206 704.192C40.9638 708.53 46.2762 719.023 51.4641 723.733C63.002 734.184 67.1938 739.927 65.9072 743.438C64.4546 747.528 63.3755 748.396 52.2111 751.576C51.0075 752.031 49.7624 752.196 48.5589 752.196ZM18.22 698.698H18.1785C18.054 698.698 17.8465 698.739 17.722 698.946L6.51612 715.388C4.77299 717.742 5.02201 721.295 7.09717 723.278C10.0854 726.17 14.8998 730.301 20.7102 733.606C24.238 735.63 27.6412 738.315 30.92 740.959C37.8925 746.578 44.4915 751.866 51.7546 749.8C62.7944 746.66 63.0435 745.999 64.164 742.86C65.5337 739.1 53.9958 728.649 50.219 725.22C44.3255 719.891 38.9301 708.53 37.4775 704.977C37.436 704.812 37.3115 704.729 37.1455 704.647C36.9795 704.564 36.8134 704.564 36.6889 704.647C31.169 706.877 24.736 705.432 20.6687 701.052L18.6766 698.904C18.552 698.698 18.3445 698.698 18.22 698.698Z" fill="#FFB83B"></path> <path d="M65.16 744.265C65.16 744.265 55.9878 750.958 43.5369 744.059C35.2362 739.473 4.68987 713.819 4.68987 713.819L2.03367 717.413C0.705563 719.23 0.498047 722.701 2.19968 724.188C9.96078 730.963 32.746 748.768 44.7405 752.321C63.1679 757.733 65.16 744.265 65.16 744.265Z" fill="white"></path> <path d="M52.7088 754.552C50.2186 754.552 47.4794 754.097 44.4496 753.23C31.4176 749.388 7.30428 729.93 1.57684 724.89C-0.581331 723.031 -0.373815 718.983 1.24481 716.793L3.90101 713.199C4.06703 712.992 4.31605 712.827 4.56507 712.827C4.85559 712.786 5.10461 712.868 5.31212 713.034C5.60265 713.282 35.9 738.647 44.0346 743.191C55.8215 749.718 64.4957 743.522 64.6202 743.48C64.9522 743.232 65.3673 743.232 65.6993 743.439C66.0313 743.646 66.1973 744.017 66.1558 744.389C66.1143 744.596 65.3673 749.512 60.7189 752.445C58.4777 753.849 55.8215 754.552 52.7088 754.552ZM4.85559 715.182L2.82193 717.95C1.74285 719.396 1.57684 722.329 2.86344 723.444C11.2886 730.798 33.5758 747.983 45.0307 751.371C51.2562 753.188 56.195 753.023 59.6398 750.834C61.715 749.512 62.8771 747.694 63.5411 746.248C59.9718 747.901 52.4598 750.007 43.1215 744.844C35.4435 740.63 9.79447 719.313 4.85559 715.182Z" fill="#FFB83B"></path> <path d="M110.15 684.238L102.348 726.293L119.862 734.969L129.781 689.237L110.15 684.238Z" fill="white"></path> <path d="M119.862 735.919C119.696 735.919 119.571 735.878 119.447 735.837L101.932 727.161C101.559 726.955 101.351 726.542 101.434 726.129L109.237 684.115C109.278 683.867 109.444 683.619 109.652 683.495C109.859 683.371 110.15 683.289 110.399 683.371L130.03 688.37C130.528 688.494 130.86 688.99 130.735 689.485L120.816 735.217C120.733 735.506 120.567 735.754 120.277 735.878C120.152 735.878 119.986 735.919 119.862 735.919ZM103.426 725.757L119.156 733.565L128.619 689.94L110.897 685.437L103.426 725.757Z" fill="#FFB83B"></path> <path d="M99.732 723.362C99.1094 727.369 94.3781 735.177 94.2536 741.87C94.1706 746.084 97.2833 749.678 101.434 750.256C113.221 751.908 143.601 753.561 166.428 751.743C168.005 751.619 170.744 750.504 171.574 746.621C174.313 733.566 151.611 730.096 126.792 720.305C125.838 719.933 124.717 720.14 123.97 720.842L121.231 723.404C118.491 725.965 114.507 726.667 111.104 725.139L102.969 721.544C101.558 721.007 99.9395 721.875 99.732 723.362Z" fill="white"></path> <path d="M143.725 753.519C126.667 753.519 109.734 752.403 101.267 751.246C96.5774 750.585 93.1327 746.578 93.2572 741.91C93.3402 737.614 95.2493 732.904 96.7849 729.104C97.7395 726.749 98.5696 724.683 98.7771 723.237C98.9431 722.204 99.5242 721.337 100.437 720.883C101.35 720.387 102.388 720.345 103.301 720.759L111.436 724.353C114.507 725.716 118.076 725.096 120.525 722.783L123.264 720.222C124.302 719.271 125.796 718.941 127.124 719.478C132.934 721.75 138.496 723.65 143.891 725.509C161.156 731.417 174.769 736.085 172.487 746.909C171.657 750.957 168.71 752.61 166.469 752.775C159.372 753.271 151.528 753.519 143.725 753.519ZM100.686 723.526C100.437 725.179 99.5657 727.327 98.5696 729.806C97.034 733.648 95.2908 737.985 95.2078 741.951C95.1248 745.669 97.864 748.85 101.558 749.346C113.843 751.081 143.933 752.61 166.344 750.833C166.925 750.792 169.789 750.379 170.619 746.496C172.528 737.325 160.243 733.152 143.269 727.327C137.873 725.468 132.27 723.568 126.418 721.254C125.796 721.006 125.09 721.13 124.592 721.585L121.853 724.146C118.823 726.997 114.424 727.74 110.647 726.088L102.512 722.494C102.139 722.328 101.724 722.328 101.35 722.535C100.977 722.742 100.728 723.113 100.686 723.526Z" fill="#FFB83B"></path> <path d="M93.714 740.135C93.714 740.135 93.6725 740.796 93.6725 741.126C93.5895 745.34 96.7023 748.934 100.853 749.512C112.639 751.165 143.518 755.048 166.303 753.272C167.88 753.148 170.702 750.545 171.491 746.662C171.74 745.464 171.615 743.316 171.615 743.316L169.997 743.357C146.963 744.225 123.928 743.398 101.019 740.878L93.714 740.135Z" fill="white"></path> <path d="M153.437 754.717C133.225 754.717 110.731 751.908 100.728 750.503C96.0384 749.842 92.5936 745.835 92.7181 741.167C92.7181 740.836 92.7596 740.134 92.7596 740.134C92.7596 739.886 92.8841 739.597 93.0916 739.431C93.2992 739.266 93.5482 739.184 93.8387 739.184L101.185 739.927C123.97 742.447 147.129 743.273 170.039 742.406L171.657 742.365H171.699C172.197 742.365 172.653 742.778 172.653 743.273C172.653 743.356 172.778 745.587 172.487 746.868C171.616 750.999 168.586 754.097 166.428 754.262C162.319 754.552 157.92 754.717 153.437 754.717ZM94.6688 741.208C94.5858 744.885 97.325 748.066 101.019 748.561C113.179 750.255 143.892 754.056 166.262 752.321C167.216 752.238 169.831 750.173 170.578 746.454C170.703 745.876 170.703 745.009 170.703 744.306L170.08 744.348C147.087 745.215 123.846 744.348 100.977 741.869L94.6688 741.208Z" fill="#FFB83B"></path> <path d="M86.7416 442.154C87.2396 444.468 79.354 460.497 80.6406 476.195C82.6742 500.858 84.2514 513.623 70.9703 538.121C58.1458 561.751 35.0285 584.307 18.5103 682.628C17.6802 687.544 21.457 692.047 26.4789 692.13L39.1789 692.295C42.2916 692.336 45.1553 690.601 46.5664 687.834C54.9086 671.515 80.6821 623.222 90.7674 605.128C102.596 583.853 136.338 530.643 138.33 505.113C140.198 481.07 138.496 446.699 138.289 442.815C138.289 442.609 138.123 442.443 137.915 442.443L86.7416 442.154Z" fill="#FFB83B"></path> <path d="M158.044 436.412C158.044 436.412 188.092 498.668 170.08 573.607C157.048 627.808 138.579 688.247 132.644 705.474C131.482 708.861 128.286 711.092 124.717 711.092L110.855 711.009C105.833 710.968 101.973 706.63 102.596 701.673C106.165 673.044 117.163 580.383 116.333 557.992C115.005 521.059 104.09 508.129 102.222 482.144C100.147 453.846 108.074 436.908 108.074 436.908L158.044 436.412Z" fill="#FFB83B"></path> <path d="M114.382 568.774C114.341 568.774 114.341 568.774 114.299 568.774C113.76 568.733 113.386 568.237 113.428 567.741C116.001 540.021 110.481 524.447 105.625 510.732C102.097 500.776 98.7771 491.356 99.2336 478.922C99.2751 478.385 99.7317 477.972 100.23 478.013C100.769 478.013 101.184 478.467 101.143 479.004C100.686 491.067 103.799 499.867 107.41 510.112C112.349 524.034 117.91 539.774 115.295 567.948C115.295 568.402 114.88 568.774 114.382 568.774Z" fill="white"></path> <path d="M308.327 282.405C313.681 286.784 310.9 290.874 309.033 292.403L293.303 305.292C286.123 310.786 285.5 313.017 282.844 317.809L264.832 350.404C261.304 356.766 257.32 362.88 252.92 368.664L248.189 374.86C246.778 376.719 244.205 377.339 242.088 376.265C239.971 375.232 238.892 372.795 239.556 370.523L240.884 365.937C242.586 360.03 244.661 354.287 247.068 348.628L263.711 309.712L264.375 305.912C266.201 291.122 276.411 282.571 276.411 282.571C291.809 269.062 308.327 282.405 308.327 282.405Z" fill="#FFB83B"></path> <path d="M308.326 282.404C308.326 282.404 300.98 276.496 291.559 276.538C288.239 276.868 284.96 278.149 282.138 280.999C281.847 281.288 276.161 289.261 275.248 291.947C273.463 297.235 277.738 299.631 282.262 298.309C295.17 294.467 305.96 286.907 309.862 283.974C309.488 283.437 308.99 282.941 308.326 282.404Z" fill="white"></path> <path d="M279.855 299.631C278.029 299.631 276.41 299.053 275.29 297.896C273.837 296.409 273.505 294.178 274.335 291.617C275.29 288.767 281.017 280.711 281.432 280.298C284.13 277.571 287.492 276.001 291.435 275.588C291.476 275.588 291.559 275.588 291.601 275.588C301.271 275.588 308.617 281.413 308.907 281.661C309.571 282.198 310.111 282.735 310.609 283.313C310.775 283.52 310.858 283.768 310.817 284.057C310.775 284.305 310.651 284.553 310.443 284.718C306.376 287.775 295.543 295.335 282.553 299.218C281.64 299.507 280.727 299.631 279.855 299.631ZM291.725 277.53C291.684 277.53 291.642 277.53 291.601 277.53C288.197 277.902 285.251 279.306 282.885 281.702C282.345 282.322 277.033 289.882 276.244 292.278C275.622 294.137 275.788 295.624 276.742 296.574C277.822 297.69 279.938 298.02 282.055 297.401C293.925 293.848 304.01 287.155 308.492 283.85C308.285 283.644 308.036 283.396 307.745 283.189C307.579 283.024 300.565 277.53 291.725 277.53Z" fill="#FFB83B"></path> <path d="M289.247 289.277C292.525 286.821 294.412 283.81 293.461 282.553C292.51 281.295 289.081 282.266 285.803 284.722C282.525 287.177 280.638 290.188 281.589 291.446C282.54 292.703 285.969 291.732 289.247 289.277Z" fill="#FFB83B"></path> <path d="M244.287 377.793C243.416 377.793 242.503 377.586 241.673 377.173C239.141 375.934 237.854 373.042 238.643 370.315L239.971 365.73C241.673 359.822 243.748 353.956 246.196 348.296L262.798 309.505L263.462 305.787C265.288 290.832 275.415 282.239 275.83 281.909C291.559 267.904 308.783 281.496 308.949 281.661C311.273 283.561 312.436 285.585 312.436 287.734C312.436 290.625 310.319 292.567 309.655 293.104L293.925 305.993C287.741 310.703 286.579 312.934 284.587 316.61C284.296 317.147 284.006 317.685 283.715 318.263L265.703 350.858C262.175 357.261 258.149 363.416 253.709 369.241L248.977 375.438C247.857 376.966 246.072 377.793 244.287 377.793ZM291.808 277.488C287.243 277.488 282.097 278.976 277.116 283.396C276.992 283.479 267.114 291.906 265.371 306.117L264.707 309.959C264.707 310.042 264.665 310.083 264.624 310.166L247.94 349.081C245.532 354.658 243.499 360.442 241.797 366.267L240.469 370.852C239.93 372.67 240.801 374.612 242.503 375.438C244.204 376.264 246.279 375.81 247.4 374.281L252.131 368.085C256.489 362.342 260.474 356.269 263.96 349.949L281.972 317.354C282.304 316.776 282.595 316.239 282.844 315.743C284.877 311.984 286.206 309.505 292.68 304.547L308.41 291.658C309.406 290.832 310.485 289.386 310.485 287.775C310.485 286.205 309.572 284.677 307.704 283.189C307.289 282.818 300.483 277.488 291.808 277.488Z" fill="#FFB83B"></path> <path d="M284.463 323.468C282.554 320.452 279.939 321.98 279.939 321.98C279.939 321.98 271.14 327.103 267.322 326.69C260.681 325.946 260.64 318.841 260.806 316.197C260.889 314.875 259.768 313.801 258.44 313.966C256.822 314.173 253.958 317.808 251.966 320.493C248.106 325.781 249.891 333.63 247.525 337.555C244.703 342.264 233.123 353.088 222.208 359.698C208.969 367.754 200.004 360.524 190.417 352.716C183.984 347.47 178.339 337.39 166.967 330.078C158.999 324.996 132.52 344.123 139.949 351.642C148.291 360.111 181.95 399.398 204.154 394.358C221.876 390.31 249.642 358.954 256.946 351.601C261.47 348.213 267.073 348.502 270.767 347.015C274.917 345.321 278.486 344.578 279.399 334.002C279.607 332.019 286.995 327.475 284.463 323.468Z" fill="white"></path> <path d="M200.086 395.763C180.165 395.763 154.308 368.25 142.854 356.022C141.401 354.493 140.239 353.213 139.326 352.304C136.711 349.66 137.334 345.694 141.11 341.108C147.211 333.672 161.488 325.369 167.548 329.293C174.728 333.92 179.584 339.497 183.859 344.454C186.473 347.47 188.715 350.032 191.08 351.973C200.709 359.822 209.051 366.597 221.751 358.872C232.168 352.552 243.914 341.811 246.736 337.06C247.649 335.531 247.857 333.176 248.106 330.698C248.438 327.145 248.853 323.138 251.218 319.957C255.535 314.091 257.278 313.182 258.357 313.016C259.27 312.893 260.142 313.182 260.806 313.801C261.511 314.421 261.843 315.33 261.802 316.28C261.553 320.287 262.341 325.203 267.446 325.74C270.351 326.071 277.116 322.559 279.482 321.155C280.644 320.453 283.383 319.957 285.292 322.931C287.368 326.195 284.213 329.582 282.138 331.854C281.433 332.598 280.478 333.672 280.395 334.044C279.482 344.578 275.788 346.024 271.887 347.594L271.14 347.883C269.729 348.462 268.11 348.792 266.367 349.123C263.379 349.701 260.266 350.321 257.568 352.304C256.655 353.213 255.452 354.493 253.999 356.022C243.001 367.589 220.174 391.674 204.361 395.268C202.992 395.598 201.581 395.763 200.086 395.763ZM163.605 330.161C157.67 330.161 147.626 336.151 142.604 342.306C140.82 344.454 138.247 348.462 140.695 350.94C141.608 351.849 142.812 353.13 144.265 354.7C156.384 367.589 184.689 397.788 203.988 393.409C219.219 389.938 242.627 365.275 252.629 354.7C254.124 353.13 255.369 351.808 256.282 350.899C256.323 350.858 256.365 350.816 256.406 350.816C259.477 348.503 262.964 347.842 266.035 347.222C267.654 346.892 269.189 346.603 270.434 346.107L271.181 345.818C274.792 344.372 277.656 343.256 278.444 333.879C278.527 332.887 279.441 331.937 280.686 330.574C283.01 328.095 284.794 325.864 283.632 324.005C282.263 321.857 280.603 322.725 280.437 322.849C279.524 323.386 271.264 328.095 267.197 327.682C262.134 327.104 259.436 322.931 259.851 316.197C259.851 315.826 259.727 315.495 259.477 315.247C259.353 315.123 259.021 314.917 258.606 314.958C258.274 314.999 256.821 315.578 252.754 321.113C250.72 323.923 250.347 327.475 250.015 330.904C249.766 333.631 249.475 336.192 248.355 338.051C245.366 343.05 233.538 353.956 222.747 360.525C208.844 368.952 199.215 361.062 189.835 353.46C187.345 351.436 184.938 348.627 182.365 345.694C178.173 340.86 173.4 335.366 166.469 330.904C165.722 330.409 164.726 330.161 163.605 330.161Z" fill="#FFB83B"></path> <path d="M192.451 346.477C181.826 338.669 172.405 325.078 165.889 318.798C159.041 312.188 148.208 307.975 138.746 306.735C118.284 304.133 92.4694 306.694 79.562 315.204C63.2512 325.904 65.6584 343.131 69.1031 350.897C70.8463 354.904 77.5283 371.594 79.2714 376.469C90.1038 406.668 85.2064 430.298 82.5502 450.417C82.1767 453.184 84.0028 455.663 86.659 456.489C100.812 460.951 117.579 463.967 163.108 452.978C165.93 452.276 167.549 449.301 166.594 446.575C154.807 412.493 161.987 401.38 165.93 382.872L171.118 385.681C180.083 388.986 188.425 374.94 192.119 367.587C197.099 357.879 197.888 350.484 192.451 346.477Z" fill="white"></path> <path d="M112.557 461.571C101.102 461.571 93.4651 459.671 86.4096 457.44C83.1724 456.408 81.2217 453.474 81.6367 450.293C81.8858 448.393 82.1763 446.451 82.4253 444.469C85.0815 425.465 88.1112 403.901 78.3995 376.8C76.6564 371.884 69.9743 355.236 68.2312 351.311C64.4544 342.718 62.4623 325.285 79.0635 314.42C92.6766 305.497 119.446 303.349 138.911 305.827C149.494 307.19 160.119 311.9 166.594 318.138C168.918 320.369 171.533 323.426 174.562 326.979C180.041 333.423 186.266 340.735 193.073 345.734C198.634 349.824 198.634 357.136 193.114 368.084C188.881 376.511 180.373 390.103 170.91 386.632C170.869 386.632 170.827 386.591 170.786 386.591L166.718 384.402C166.096 387.128 165.432 389.689 164.768 392.209C161.115 406.255 157.92 418.36 167.59 446.328C168.129 447.897 168.005 449.632 167.175 451.078C166.386 452.524 165.017 453.557 163.398 453.97C140.073 459.547 124.302 461.571 112.557 461.571ZM122.974 306.777C106.995 306.777 89.9374 309.587 80.1011 316.031C64.6204 326.194 66.4466 342.512 69.9743 350.568C71.7175 354.492 78.3995 371.265 80.1841 376.181C90.0619 403.735 87.0322 425.507 84.3344 444.758C84.0439 446.741 83.7949 448.641 83.5459 450.583C83.2554 452.813 84.6665 454.879 86.9907 455.623C100.977 460.043 117.329 463.1 162.942 452.07C164.021 451.822 164.934 451.12 165.473 450.128C166.013 449.137 166.096 447.98 165.764 446.906C155.886 418.401 159.289 405.429 162.9 391.672C163.647 388.822 164.436 385.848 165.1 382.708C165.183 382.419 165.349 382.171 165.639 382.047C165.93 381.923 166.22 381.923 166.511 382.088L171.657 384.856C172.404 385.145 173.193 385.269 173.94 385.269C181.452 385.269 188.507 372.958 191.413 367.216C196.435 357.219 196.601 350.691 191.952 347.263C184.98 342.14 178.671 334.745 173.151 328.218C170.163 324.707 167.59 321.691 165.349 319.501C159.123 313.511 148.955 309.008 138.745 307.728C133.765 307.108 128.411 306.777 122.974 306.777Z" fill="#FFB83B"></path> <path d="M150.117 248.776C150.698 246.917 150.449 244.934 149.411 243.282C146.34 238.448 138.786 229.236 126.128 230.145C108.282 231.467 102.098 239.729 99.3169 253.899C97.3663 263.855 101.392 278.562 108.531 282.28C118.823 287.65 127.581 280.916 127.581 280.916L149.204 251.833L150.117 248.776Z" fill="#FFB83B"></path> <path d="M105.75 249.437L110.233 238.242C110.233 238.242 100.064 229.649 88.2359 231.012C76.2 232.375 62.5454 243.86 64.2471 264.764C65.1186 275.628 55.9464 281.04 47.2722 289.137C45.4046 290.872 43.4539 292.484 41.4618 294.095C27.1847 305.662 29.6334 318.179 29.6334 318.179C30.3389 315.659 32.0406 313.47 34.1157 311.652C31.2935 330.325 45.3216 350.154 63.583 354.244C80.8483 358.086 102.181 346.932 106.871 333.836C111.436 321.112 108.323 302.729 102.181 288.724C95.9555 274.678 92.0957 255.882 105.75 249.437Z" fill="#FFB83B"></path> <path d="M149.246 247.371C149.246 247.371 151.03 253.526 149.744 258.029C148.789 261.375 151.321 265.837 153.023 267.655C153.479 268.15 153.355 268.977 152.732 269.307L150.532 270.381C149.744 270.794 149.204 271.621 149.121 272.529C148.914 275.669 148.208 282.94 146.797 284.716C144.514 287.649 134.844 284.386 132.769 283.766C132.562 283.684 132.769 306.116 132.769 306.116C132.686 310.164 131.69 312.891 129.241 314.998C123.846 319.666 106.622 321.36 105.335 313.593C105.169 312.519 104.132 311.817 104.796 310.908C107.286 307.603 109.569 303.596 110.399 298.019C111.436 290.748 110.523 282.609 110.523 282.609C110.523 282.609 114.964 282.733 119.488 278.313C123.431 274.471 125.796 269.266 124.842 267.572C122.642 263.689 121.19 259.971 124.385 257.079C127.457 254.311 130.403 256.542 131.814 258.194C133.765 260.508 142.232 259.103 145.884 252.741C149.578 246.379 149.246 247.371 149.246 247.371Z" fill="white"></path> <path d="M115.628 319.873C113.346 319.873 111.146 319.584 109.361 318.923C106.539 317.89 104.796 316.114 104.422 313.718C104.381 313.47 104.256 313.222 104.09 312.933C103.8 312.354 103.26 311.363 104.049 310.33C106.29 307.356 108.656 303.514 109.486 297.854C110.523 290.79 109.61 282.775 109.61 282.693C109.569 282.404 109.652 282.156 109.859 281.949C110.067 281.743 110.274 281.619 110.606 281.619C110.731 281.619 114.757 281.577 118.866 277.57C122.808 273.728 124.593 269.019 124.053 268.027C121.729 263.937 120.069 259.724 123.763 256.336C125.008 255.221 126.378 254.684 127.789 254.808C130.154 254.973 131.939 256.79 132.603 257.575C132.935 257.988 133.973 258.402 135.757 258.236C138.87 257.947 142.979 256.006 145.096 252.288C148.706 246.049 148.706 246.049 149.661 246.463C149.951 246.587 150.159 246.876 150.2 247.206C150.408 247.991 151.985 253.816 150.657 258.278C149.827 261.087 151.985 265.135 153.728 266.994C154.143 267.449 154.351 268.069 154.226 268.688C154.102 269.308 153.728 269.845 153.147 270.134L150.948 271.208C150.45 271.456 150.117 271.952 150.076 272.53C149.868 275.67 149.163 283.188 147.544 285.254C145.345 288.022 139.078 286.659 133.641 285.006C133.599 288.435 133.641 298.887 133.724 306.034C133.641 310.454 132.479 313.428 129.864 315.659C126.917 318.303 120.941 319.873 115.628 319.873ZM111.602 283.478C111.81 285.874 112.225 292.236 111.395 298.143C110.523 304.257 107.826 308.471 105.626 311.487C105.585 311.611 105.751 311.9 105.834 312.065C106 312.437 106.249 312.85 106.332 313.428C106.622 315.122 107.867 316.362 110.025 317.147C115.711 319.212 125.174 317.229 128.66 314.255C130.818 312.396 131.773 309.958 131.856 306.075C131.607 283.436 131.69 283.395 132.23 282.982C132.479 282.817 132.811 282.734 133.101 282.817L133.599 282.982C142.937 285.874 145.428 284.924 146.092 284.097C146.963 282.982 147.793 278.314 148.208 272.448C148.291 271.208 148.997 270.093 150.117 269.514L152.317 268.44L153.023 267.655L152.317 268.316C150.408 266.251 147.752 261.541 148.831 257.741C149.578 255.138 149.204 251.833 148.831 249.726C148.374 250.511 147.71 251.627 146.797 253.196C144.141 257.823 139.285 259.848 135.923 260.137C133.765 260.343 132.022 259.848 131.15 258.773C130.652 258.195 129.324 256.79 127.706 256.667C126.793 256.625 125.963 256.956 125.133 257.699C122.559 260.013 123.472 262.987 125.797 266.994C127.208 269.473 124.053 275.257 120.277 278.892C116.707 282.362 113.304 283.23 111.602 283.478Z" fill="#FFB83B"></path> <path d="M128.951 270.134C126.046 270.134 123.597 267.986 122.062 264.02C121.854 263.524 122.103 262.987 122.601 262.781C123.099 262.574 123.639 262.822 123.846 263.318C124.676 265.425 126.544 268.853 129.947 268.068C130.445 267.945 130.985 268.275 131.109 268.771C131.234 269.266 130.902 269.804 130.404 269.927C129.906 270.093 129.449 270.134 128.951 270.134Z" fill="#FFB83B"></path> <path d="M802.505 371.842L677.083 393.696L552.656 372.007C552.49 371.966 552.49 371.718 552.656 371.677L678.535 349.74L802.505 371.842Z" fill="white"></path> <path d="M630.682 358.416L752.66 380.311L725.268 385.062L603.249 363.126L630.682 358.416Z" fill="#FFB83B"></path> <path d="M677.083 578.689V393.489L803.045 371.801V556.463L677.083 578.689Z" fill="white"></path> <path d="M726.347 405.429V384.856L753.78 380.146V400.596L726.347 405.429Z" fill="#FFB83B"></path> <path d="M677.083 579.639C676.875 579.639 676.626 579.556 676.46 579.432C676.252 579.267 676.128 578.978 676.128 578.689V393.489C676.128 393.035 676.46 392.622 676.917 392.539L802.837 370.809C803.128 370.768 803.418 370.851 803.626 371.016C803.833 371.181 803.958 371.47 803.958 371.76V556.422C803.958 556.876 803.626 557.289 803.169 557.372L677.249 579.597C677.207 579.639 677.166 579.639 677.083 579.639ZM678.079 394.316V577.532L802.09 555.637V372.916L678.079 394.316Z" fill="#FFB83B"></path> <path d="M677.083 578.689V393.489L552.241 371.76V556.587L677.083 578.689Z" fill="white"></path> <path d="M677.083 579.639C677.041 579.639 676.958 579.639 676.917 579.639L552.075 557.496C551.619 557.413 551.287 557 551.287 556.546V371.76C551.287 371.47 551.411 371.222 551.619 371.016C551.826 370.851 552.117 370.768 552.407 370.809L677.249 392.58C677.705 392.663 678.037 393.076 678.037 393.531V578.73C678.037 579.019 677.913 579.267 677.705 579.474C677.539 579.597 677.332 579.639 677.083 579.639ZM553.237 555.761L676.17 577.532V394.316L553.237 372.916V555.761Z" fill="#FFB83B"></path> <path d="M645.748 495.239C645.706 495.239 645.623 495.239 645.582 495.239L577.641 483.218C577.185 483.135 576.853 482.722 576.853 482.268V409.105C576.853 408.816 576.977 408.568 577.185 408.361C577.392 408.196 577.683 408.114 577.973 408.155L645.914 419.929C646.37 420.011 646.702 420.424 646.702 420.879V494.289C646.702 494.578 646.578 494.826 646.37 495.033C646.204 495.157 645.997 495.239 645.748 495.239ZM578.762 481.441L644.793 493.133V421.664L578.762 410.22V481.441Z" fill="#FFB83B"></path> <path d="M586.938 474.75C586.398 474.75 585.983 474.337 585.983 473.8V419.805C585.983 419.268 586.398 418.855 586.938 418.855C587.477 418.855 587.892 419.268 587.892 419.805V473.8C587.934 474.337 587.477 474.75 586.938 474.75Z" fill="#FFB83B"></path> <path d="M595.28 476.527C594.741 476.527 594.326 476.114 594.326 475.577V421.583C594.326 421.046 594.741 420.633 595.28 420.633C595.82 420.633 596.235 421.046 596.235 421.583V475.577C596.235 476.114 595.82 476.527 595.28 476.527Z" fill="#FFB83B"></path> <path d="M604.577 476.361C604.037 476.361 603.622 475.948 603.622 475.411V425.259C603.622 424.721 604.037 424.308 604.577 424.308C605.116 424.308 605.531 424.721 605.531 425.259V475.411C605.531 475.948 605.116 476.361 604.577 476.361Z" fill="#FFB83B"></path> <path d="M614.828 480.078C614.289 480.078 613.874 479.665 613.874 479.128V425.093C613.874 424.555 614.289 424.142 614.828 424.142C615.368 424.142 615.783 424.555 615.783 425.093V479.087C615.783 479.624 615.368 480.078 614.828 480.078Z" fill="#FFB83B"></path> <path d="M625.536 480.739C624.996 480.739 624.581 480.326 624.581 479.789V428.893C624.581 428.356 624.996 427.943 625.536 427.943C626.075 427.943 626.49 428.356 626.49 428.893V479.789C626.49 480.326 626.075 480.739 625.536 480.739Z" fill="#FFB83B"></path> <path d="M636.908 484.416C636.368 484.416 635.953 484.003 635.953 483.466V428.522C635.953 427.985 636.368 427.572 636.908 427.572C637.447 427.572 637.862 427.985 637.862 428.522V483.466C637.862 483.962 637.447 484.416 636.908 484.416Z" fill="#FFB83B"></path> <path d="M677.083 394.647C677.041 394.647 676.958 394.647 676.917 394.647L552.49 372.958C551.951 372.876 551.577 372.421 551.577 371.843C551.577 371.306 551.951 370.851 552.49 370.727L678.369 348.791C678.494 348.791 678.577 348.791 678.702 348.791L802.713 370.893C803.17 370.975 803.502 371.388 803.502 371.843C803.502 372.297 803.17 372.71 802.713 372.793L677.249 394.605C677.166 394.647 677.124 394.647 677.083 394.647ZM557.346 371.843L677.083 392.705L796.986 371.843L678.494 350.733L557.346 371.843Z" fill="#FFB83B"></path> <path d="M751.332 545.846L625.868 567.659L501.441 545.97C501.275 545.929 501.275 545.681 501.441 545.64L627.321 523.703L751.332 545.846Z" fill="white"></path> <path d="M579.509 532.379L701.487 554.274L674.095 559.066L552.034 537.088L579.509 532.379Z" fill="#FFB83B"></path> <path d="M625.91 752.651V567.493L751.872 545.763V730.426L625.91 752.651Z" fill="white"></path> <path d="M675.174 579.433V558.819L702.607 554.109V574.558L675.174 579.433Z" fill="#FFB83B"></path> <path d="M625.91 753.643C625.702 753.643 625.453 753.56 625.287 753.436C625.08 753.271 624.955 752.982 624.955 752.693V567.493C624.955 567.039 625.287 566.626 625.744 566.543L751.664 544.813C751.955 544.772 752.245 544.855 752.453 545.02C752.66 545.185 752.785 545.474 752.785 545.763V730.426C752.785 730.88 752.453 731.293 751.996 731.376L626.076 753.601C626.034 753.643 625.993 753.643 625.91 753.643ZM626.906 568.278V751.494L750.917 729.599V546.879L626.906 568.278Z" fill="#FFB83B"></path> <path d="M625.909 752.652V567.494L501.068 545.722V730.55L625.909 752.652Z" fill="white"></path> <path d="M625.909 753.643C625.868 753.643 625.785 753.643 625.743 753.643L500.902 731.5C500.445 731.417 500.113 731.004 500.113 730.55V545.722C500.113 545.433 500.238 545.185 500.445 544.979C500.653 544.814 500.943 544.731 501.234 544.772L626.075 566.543C626.532 566.626 626.864 567.039 626.864 567.494V752.693C626.864 752.982 626.739 753.23 626.532 753.436C626.366 753.56 626.158 753.643 625.909 753.643ZM502.022 729.724L624.955 751.495V568.278L502.022 546.879V729.724Z" fill="#FFB83B"></path> <path d="M594.076 665.691C594.035 665.691 593.952 665.691 593.91 665.691L525.97 653.669C525.513 653.587 525.181 653.174 525.181 652.719V579.557C525.181 579.267 525.306 579.02 525.513 578.813C525.721 578.648 526.011 578.565 526.302 578.606L594.242 590.38C594.699 590.463 595.031 590.876 595.031 591.33V664.699C595.031 664.989 594.907 665.237 594.699 665.443C594.533 665.608 594.284 665.691 594.076 665.691ZM527.09 651.852L593.122 663.543V592.074L527.09 580.631V651.852Z" fill="#FFB83B"></path> <path d="M535.267 645.201C534.727 645.201 534.312 644.788 534.312 644.251V590.257C534.312 589.72 534.727 589.307 535.267 589.307C535.806 589.307 536.221 589.72 536.221 590.257V644.251C536.221 644.747 535.806 645.201 535.267 645.201Z" fill="#FFB83B"></path> <path d="M543.609 646.936C543.069 646.936 542.654 646.523 542.654 645.985V591.991C542.654 591.454 543.069 591.041 543.609 591.041C544.148 591.041 544.563 591.454 544.563 591.991V645.985C544.563 646.523 544.107 646.936 543.609 646.936Z" fill="#FFB83B"></path> <path d="M551.909 648.713C551.37 648.713 550.955 648.3 550.955 647.763V593.769C550.955 593.231 551.37 592.818 551.909 592.818C552.449 592.818 552.864 593.231 552.864 593.769V647.763C552.864 648.3 552.449 648.713 551.909 648.713Z" fill="#FFB83B"></path> <path d="M560.252 650.488C559.712 650.488 559.297 650.075 559.297 649.538V595.544C559.297 595.007 559.712 594.594 560.252 594.594C560.791 594.594 561.206 595.007 561.206 595.544V649.538C561.206 650.034 560.791 650.488 560.252 650.488Z" fill="#FFB83B"></path> <path d="M571.914 650.201C571.374 650.201 570.959 649.787 570.959 649.25V598.355C570.959 597.818 571.374 597.405 571.914 597.405C572.453 597.405 572.868 597.818 572.868 598.355V649.25C572.868 649.787 572.453 650.201 571.914 650.201Z" fill="#FFB83B"></path> <path d="M585.195 655.777C584.655 655.777 584.24 655.364 584.24 654.827V600.833C584.24 600.296 584.655 599.883 585.195 599.883C585.734 599.883 586.149 600.296 586.149 600.833V654.827C586.191 655.364 585.734 655.777 585.195 655.777Z" fill="#FFB83B"></path> <path d="M625.91 568.61C625.868 568.61 625.785 568.61 625.743 568.61L501.317 546.921C500.777 546.839 500.404 546.384 500.404 545.806C500.404 545.269 500.777 544.814 501.317 544.69L627.196 522.754C627.321 522.754 627.404 522.754 627.528 522.754L751.54 544.856C751.996 544.938 752.328 545.351 752.328 545.806C752.328 546.26 751.996 546.673 751.54 546.756L626.076 568.568C625.993 568.61 625.951 568.61 625.91 568.61ZM506.173 545.806L625.91 566.668L745.812 545.806L627.321 524.654L506.173 545.806Z" fill="#FFB83B"></path> <path d="M241.341 184.166V45.8138C241.341 41.1456 237.979 37.1797 233.372 36.3948L29.218 1.32134C25.8562 0.742982 22.4115 0.866916 19.0912 1.65183L7.96836 5.65905L2.82197 148.597C2.57295 155.207 7.26281 160.949 13.8203 162.106L210.338 196.477C215.111 197.303 217.02 198.047 224.657 195.857L233.372 193.544C238.228 192.263 241.341 188.793 241.341 184.166Z" fill="#FFB83B"></path> <path d="M216.563 198.294C214.82 198.294 213.326 198.005 211.5 197.674C211.085 197.592 210.628 197.509 210.172 197.426L13.6541 163.097C6.68157 161.899 1.61818 155.661 1.8672 148.596L7.01359 5.65862C7.01359 5.28682 7.26261 4.91502 7.63614 4.79108L18.759 0.783868C18.8005 0.783868 18.842 0.742557 18.8835 0.742557C22.3698 -0.0836726 25.8976 -0.207607 29.3838 0.412065L233.538 35.4855C238.601 36.353 242.295 40.7321 242.295 45.8547V184.207C242.295 189.205 239.058 193.089 233.621 194.535L224.905 196.848C221.087 197.922 218.638 198.294 216.563 198.294ZM8.92274 6.36092L3.77634 148.679C3.56883 154.752 7.92666 160.164 13.9446 161.196L210.462 195.567C210.96 195.65 211.375 195.733 211.832 195.815C215.609 196.518 217.725 196.889 224.366 194.989L233.123 192.676C237.647 191.436 240.386 188.297 240.386 184.207V45.8134C240.386 41.6409 237.356 38.0468 233.206 37.3445L29.0518 2.27108C25.8145 1.73403 22.5773 1.81666 19.3815 2.56026L8.92274 6.36092Z" fill="#FFB83B"></path> <path d="M225.652 187.057V49.2005C225.652 44.7389 222.415 40.9382 218.015 40.1946L13.1556 5.07985C7.55265 4.12969 2.40625 8.42608 2.40625 14.0858V152.438C2.40625 156.858 5.602 160.659 10.0013 161.444L213.575 197.137C219.883 198.294 225.652 193.46 225.652 187.057Z" fill="white"></path> <path d="M215.36 198.294C214.696 198.294 214.032 198.252 213.409 198.128L9.8358 162.435C4.97992 161.568 1.45215 157.395 1.45215 152.479V14.0857C1.45215 11.1113 2.78025 8.26078 5.06293 6.36045C7.3456 4.46012 10.3753 3.63389 13.3221 4.12963L218.182 39.2444C223.079 40.0706 226.607 44.2844 226.607 49.2004V187.057C226.607 190.403 225.154 193.501 222.581 195.65C220.548 197.385 218.016 198.294 215.36 198.294ZM11.5789 5.90602C9.66978 5.90602 7.80214 6.56701 6.26652 7.84766C4.39888 9.4175 3.3613 11.6896 3.3613 14.127V152.479C3.3613 156.445 6.22502 159.833 10.1678 160.535L213.741 196.228C216.48 196.724 219.261 195.98 221.378 194.204C223.494 192.427 224.698 189.825 224.698 187.057V49.2004C224.698 45.1932 221.834 41.8057 217.85 41.1447L12.99 6.02996C12.5335 5.94734 12.077 5.90602 11.5789 5.90602Z" fill="#FFB83B"></path> <path d="M198.842 179.91C198.261 179.91 197.638 179.869 197.057 179.745L27.5165 150C22.6191 149.133 19.0498 144.919 19.0498 139.962V34.9066C19.0498 31.8908 20.3779 29.0404 22.7021 27.0987C25.0263 25.1571 28.056 24.3308 31.0442 24.8679L200.585 53.9099C205.524 54.7361 209.093 58.9912 209.093 63.9486V169.706C209.093 172.722 207.765 175.572 205.441 177.514C203.532 179.084 201.207 179.91 198.842 179.91ZM29.2596 26.6443C27.3089 26.6443 25.4413 27.3053 23.9057 28.5859C22.038 30.1558 20.959 32.4692 20.959 34.9066V139.962C20.959 143.969 23.8642 147.398 27.8485 148.1L197.389 177.844C199.796 178.257 202.286 177.596 204.196 176.027C206.063 174.457 207.184 172.143 207.184 169.706V63.9486C207.184 59.9 204.279 56.4712 200.294 55.8102L30.6707 26.7682C30.2142 26.6856 29.7161 26.6443 29.2596 26.6443Z" fill="#FFB83B"></path> <path d="M75.0784 103.318C74.6634 103.318 74.2483 103.277 73.8333 103.194L41.9589 97.6174C38.5141 96.9978 35.9824 94.0233 35.9824 90.5532V55.7276C35.9824 53.6207 36.937 51.5965 38.5556 50.2332C40.1742 48.8699 42.3324 48.2916 44.4491 48.6634L76.3235 54.1165C79.8098 54.6948 82.3415 57.7106 82.3415 61.222V96.1715C82.3415 98.3197 81.3869 100.303 79.7683 101.666C78.4402 102.74 76.78 103.318 75.0784 103.318ZM43.204 50.4398C41.9589 50.4398 40.7553 50.8529 39.8007 51.6791C38.5971 52.6706 37.9331 54.1578 37.9331 55.7276V90.5532C37.9331 93.1145 39.7592 95.304 42.2909 95.7584L74.1653 101.335C75.701 101.625 77.2781 101.17 78.4817 100.179C79.6853 99.1873 80.3908 97.7001 80.3908 96.1302V61.1807C80.3908 58.6194 78.5232 56.4299 75.9915 55.9755L44.117 50.5224C43.8265 50.4398 43.4945 50.4398 43.204 50.4398Z" fill="#FFB83B"></path> <path d="M70.9283 84.0268V69.9808C70.9283 67.2956 68.9777 65.0235 66.3215 64.5691L53.829 62.4209C50.4672 61.8425 47.3545 64.4451 47.3545 67.8327V81.8372C47.3545 84.5225 49.2636 86.7946 51.9198 87.249L64.4123 89.4386C67.8156 90.0582 70.9283 87.4556 70.9283 84.0268Z" fill="#FFB83B"></path> <path d="M179.21 90.2653C178.671 90.2653 178.09 90.224 177.55 90.1001L110.937 78.4089C106.372 77.624 103.052 73.6581 103.052 69.0725C103.052 66.2634 104.297 63.6194 106.455 61.8017C108.613 59.984 111.435 59.2404 114.216 59.6948L180.829 71.0968C185.436 71.8817 188.756 75.8063 188.756 80.4332V80.6811C188.756 83.4902 187.511 86.1342 185.353 87.9519C183.609 89.4804 181.451 90.2653 179.21 90.2653ZM112.597 61.5125C110.813 61.5125 109.07 62.1322 107.7 63.2889C105.998 64.7348 105.002 66.8417 105.002 69.0725C105.002 72.7493 107.659 75.8889 111.269 76.5086L177.882 88.1998C180.082 88.5716 182.364 87.9932 184.108 86.5473C185.851 85.1014 186.805 82.9945 186.805 80.7637V80.5158C186.805 76.8391 184.149 73.6994 180.497 73.0384L113.884 61.6365C113.469 61.5538 113.054 61.5125 112.597 61.5125Z" fill="#FFB83B"></path> <path d="M179.21 121.703C178.67 121.703 178.131 121.662 177.591 121.579L139.367 115.011C134.801 114.226 131.439 110.301 131.439 105.674C131.439 102.865 132.685 100.221 134.801 98.4033C136.959 96.5856 139.74 95.842 142.521 96.2964L180.745 102.617C185.352 103.402 188.714 107.327 188.714 111.995V112.243C188.714 115.052 187.469 117.696 185.311 119.513C183.609 120.918 181.451 121.703 179.21 121.703ZM140.985 98.0315C139.201 98.0315 137.457 98.6512 136.088 99.8079C134.386 101.254 133.39 103.361 133.39 105.591C133.39 109.31 136.046 112.449 139.699 113.069L177.923 119.637C180.123 120.009 182.405 119.39 184.107 117.985C185.809 116.539 186.805 114.432 186.805 112.201V111.953C186.805 108.235 184.149 105.096 180.455 104.476L142.23 98.1554C141.815 98.0728 141.4 98.0315 140.985 98.0315Z" fill="#FFB83B"></path> <path d="M179.21 153.844C178.671 153.844 178.131 153.802 177.592 153.72L109.817 142.276C105.21 141.491 101.89 137.567 101.89 132.94C101.89 130.131 103.135 127.487 105.251 125.669C107.41 123.851 110.19 123.067 112.971 123.562L180.746 134.675C185.353 135.419 188.714 139.385 188.714 144.053V144.342C188.714 147.151 187.469 149.795 185.353 151.571C183.609 153.059 181.451 153.844 179.21 153.844ZM111.394 125.297C109.609 125.297 107.866 125.917 106.497 127.074C104.795 128.52 103.799 130.627 103.799 132.857C103.799 136.575 106.455 139.715 110.149 140.335L177.924 151.778C180.123 152.15 182.406 151.53 184.108 150.084C185.809 148.638 186.805 146.531 186.805 144.301V144.011C186.805 140.293 184.149 137.154 180.455 136.534L112.68 125.339C112.224 125.339 111.809 125.297 111.394 125.297Z" fill="#FFB83B"></path> <path d="M259.56 592.901C252.422 592.901 246.611 587.118 246.611 580.012C246.611 572.907 252.422 567.123 259.56 567.123C266.699 567.123 272.509 572.907 272.509 580.012C272.509 587.118 266.699 592.901 259.56 592.901ZM259.56 569.065C253.501 569.065 248.562 573.981 248.562 580.012C248.562 586.044 253.501 590.96 259.56 590.96C265.62 590.96 270.559 586.044 270.559 580.012C270.559 573.981 265.661 569.065 259.56 569.065Z" fill="#FFB83B"></path> </g> <defs> <clipPath id="clip0_157_11381"> <rect width="201" height="189" fill="white" transform="scale(4)"></rect> </clipPath> </defs> </svg> 