<svg width="252" height="256" viewBox="0 0 252 256" fill="none" xmlns="http://www.w3.org/2000/svg">
<mask id="mask0_11_2039" style="mask-type:alpha" maskUnits="userSpaceOnUse" x="4" y="0" width="248" height="248">
<path d="M127.917 0L127.465 117.817L109.863 1.32142L126.569 117.948L92.1929 5.25752L125.702 118.209L75.2846 11.7244L124.883 118.593L59.498 20.5843L124.128 119.093L45.1697 31.6482L123.454 119.697L32.605 44.6805L122.875 120.392L22.0717 59.4034L122.403 121.165L13.7943 75.503L122.049 121.998L7.94925 92.6363L121.82 122.874L4.66112 110.438L121.721 123.774L3.99997 128.529L121.754 124.678L5.97989 146.523L121.919 125.568L10.5587 164.037L122.211 126.425L17.6388 180.698L122.625 127.23L27.0693 196.151L123.152 127.966L38.6492 210.065L123.78 128.618L52.1317 222.146L124.496 129.171L67.2294 232.134L125.286 129.614L83.6206 239.818L126.131 129.937L100.956 245.033L127.015 130.134L118.866 247.669L127.917 130.2L136.969 247.669L128.82 130.134L154.879 245.033L129.703 129.937L172.214 239.818L130.549 129.614L188.605 232.134L131.338 129.171L203.703 222.146L132.055 128.618L217.185 210.065L132.683 127.966L228.765 196.151L133.21 127.23L238.196 180.698L133.623 126.425L245.276 164.037L133.916 125.568L249.855 146.523L134.08 124.678L251.835 128.529L134.113 123.774L251.173 110.438L134.014 122.874L247.885 92.6363L133.785 121.998L242.04 75.503L133.431 121.165L233.763 59.4034L132.96 120.392L223.229 44.6805L132.381 119.697L210.665 31.6482L131.707 119.093L196.336 20.5843L130.952 118.593L180.55 11.7244L130.132 118.209L163.642 5.25752L129.265 117.948L145.972 1.32142L128.37 117.817L127.917 0Z" fill="#383838"/>
</mask>
<g mask="url(#mask0_11_2039)">
<rect width="168.269" height="288.329" transform="matrix(-1 0 0 1 88.2837 -19.9331)" fill="#D9D9D9"/>
</g>
</svg>
