<svg width="248" height="248" viewBox="0 0 248 248" fill="none" xmlns="http://www.w3.org/2000/svg">
<mask id="mask0_11_2042" style="mask-type:alpha" maskUnits="userSpaceOnUse" x="0" y="0" width="248" height="248">
<path d="M124 0L124.453 117.817L142.055 1.32142L125.348 117.948L159.724 5.25752L126.215 118.209L176.633 11.7244L127.034 118.593L192.419 20.5843L127.789 119.093L206.748 31.6482L128.463 119.697L219.312 44.6805L129.042 120.392L229.846 59.4034L129.514 121.165L238.123 75.503L129.868 121.998L243.968 92.6363L130.097 122.874L247.256 110.438L130.196 123.774L247.917 128.529L130.163 124.678L245.937 146.523L129.998 125.568L241.359 164.037L129.706 126.425L234.278 180.698L129.292 127.23L224.848 196.151L128.766 127.966L213.268 210.065L128.137 128.618L199.786 222.146L127.421 129.171L184.688 232.134L126.632 129.614L168.297 239.818L125.786 129.937L150.961 245.033L124.903 130.134L133.051 247.669L124 130.2L114.949 247.669L123.097 130.134L97.0387 245.033L122.214 129.937L79.7034 239.818L121.368 129.614L63.3122 232.134L120.579 129.171L48.2145 222.146L119.863 128.618L34.732 210.065L119.234 127.966L23.1521 196.151L118.708 127.23L13.7216 180.698L118.294 126.425L6.64147 164.037L118.002 125.568L2.06265 146.523L117.837 124.678L0.0827255 128.529L117.804 123.774L0.743881 110.438L117.903 122.874L4.03202 92.6363L118.132 121.998L9.87708 75.503L118.486 121.165L18.1545 59.4034L118.958 120.392L28.6878 44.6805L119.537 119.697L41.2525 31.6482L120.211 119.093L55.5808 20.5843L120.966 118.593L71.3674 11.7244L121.785 118.209L88.2757 5.25752L122.652 117.948L105.945 1.32142L123.547 117.817L124 0Z" fill="#383838"/>
</mask>
<g mask="url(#mask0_11_2042)">
<rect x="163.634" y="-19.9331" width="168.269" height="288.329" fill="#D9D9D9"/>
</g>
</svg>
