<svg width="118" height="3" viewBox="0 0 118 3" fill="none" xmlns="http://www.w3.org/2000/svg">
<path d="M0.149902 0.954492C0.0670596 0.954492 -9.76622e-05 1.02165 -9.76622e-05 1.10449C-9.76622e-05 1.18733 0.0670596 1.25449 0.149902 1.25449V1.10449V0.954492ZM117.256 1.21056C117.315 1.15198 117.315 1.057 117.256 0.998426L116.301 0.0438319C116.243 -0.0147467 116.148 -0.0147467 116.089 0.0438319C116.031 0.102411 116.031 0.197385 116.089 0.255964L116.938 1.10449L116.089 1.95302C116.031 2.0116 116.031 2.10657 116.089 2.16515C116.148 2.22373 116.243 2.22373 116.301 2.16515L117.256 1.21056ZM0.149902 1.10449V1.25449H117.15V1.10449V0.954492H0.149902V1.10449Z" fill="white"/>
</svg>
