<svg width="168" height="28" viewBox="0 0 168 28" fill="none" xmlns="http://www.w3.org/2000/svg">
<path fill-rule="evenodd" clip-rule="evenodd" d="M54.1598 11.0496C54.0921 11.0496 54.0328 11.0462 53.9822 11.0378C53.9315 11.0293 53.8724 11.0169 53.805 10.9997C53.0614 10.8477 52.3349 10.5942 51.6253 10.2393C50.9156 9.8845 50.2823 9.46227 49.7245 8.97215C49.1671 8.48219 48.7196 7.9373 48.3815 7.33733C48.0433 6.73803 47.8747 6.13385 47.8747 5.52545C47.8747 4.91739 48.0433 4.31759 48.3815 3.72638C48.7196 3.135 49.1671 2.59011 49.7245 2.09156C50.2823 1.59335 50.9156 1.1664 51.6253 0.811574C52.3349 0.45725 53.0614 0.203531 53.805 0.051726C53.8724 0.0345405 53.9315 0.0220641 53.9822 0.0134714C54.0328 0.00504714 54.0921 0 54.1598 0C54.4974 0 54.7845 0.118448 55.0214 0.354832C55.2578 0.591722 55.3763 0.878637 55.3763 1.21628C55.3763 1.53775 55.2664 1.80379 55.0467 2.0149C54.827 2.22601 54.5568 2.36552 54.2358 2.43326C53.7118 2.55119 53.2138 2.72035 52.7405 2.94005C52.2672 3.15976 51.8492 3.40895 51.4858 3.68746C51.1229 3.9663 50.8353 4.26199 50.6242 4.57436C50.4132 4.88723 50.3076 5.20382 50.3076 5.52478C50.3076 5.84625 50.4132 6.16705 50.6242 6.48801C50.8353 6.80898 51.1229 7.10888 51.4858 7.3879C51.8492 7.66623 52.2672 7.91557 52.7405 8.13527C53.2138 8.35498 53.7118 8.51538 54.2358 8.61664C54.5568 8.68454 54.827 8.82406 55.0467 9.035C55.2664 9.24611 55.3763 9.51214 55.3763 9.83311C55.3763 10.1713 55.2578 10.4584 55.0214 10.6947C54.7845 10.9316 54.4974 11.0496 54.1598 11.0496ZM43.6169 5.52478C43.6169 5.08588 43.7689 4.71386 44.0731 4.41008C44.3773 4.10579 44.7489 3.95349 45.1882 3.95349C45.6276 3.95349 45.9993 4.10579 46.3034 4.41008C46.6077 4.71386 46.7594 5.08588 46.7594 5.52478C46.7594 5.96419 46.6077 6.33569 46.3034 6.63998C45.9993 6.94409 45.6276 7.09608 45.1882 7.09608C44.7489 7.09608 44.3773 6.94409 44.0731 6.63998C43.7689 6.33569 43.6169 5.96419 43.6169 5.52478ZM36.2167 11.0496C35.8791 11.0496 35.5914 10.9316 35.3551 10.6947C35.1187 10.4584 35.0002 10.1713 35.0002 9.83311C35.0002 9.51214 35.1101 9.24611 35.3298 9.035C35.5495 8.82406 35.8197 8.68454 36.1407 8.61664C36.6647 8.51538 37.1627 8.35498 37.636 8.13527C38.1089 7.91557 38.5273 7.66623 38.8907 7.3879C39.2536 7.10888 39.5407 6.80898 39.7523 6.48801C39.9633 6.16705 40.0689 5.84625 40.0689 5.52478C40.0689 5.20382 39.9633 4.88723 39.7523 4.57436C39.5407 4.26199 39.2536 3.9663 38.8907 3.68746C38.5273 3.40895 38.1089 3.15976 37.636 2.94005C37.1627 2.72035 36.6647 2.55119 36.1407 2.43326C35.8197 2.36552 35.5495 2.22601 35.3298 2.0149C35.1101 1.80379 35.0002 1.53775 35.0002 1.21628C35.0002 0.878637 35.1187 0.591722 35.3551 0.354832C35.5914 0.118448 35.8791 0 36.2167 0C36.2844 0 36.3437 0.00336229 36.3943 0.0134714C36.445 0.0218956 36.5041 0.0345405 36.5715 0.051726C37.315 0.203531 38.0415 0.45725 38.7512 0.811574C39.4605 1.1664 40.0942 1.59335 40.6515 2.09156C41.2094 2.59011 41.6569 3.135 41.9951 3.72638C42.3327 4.31759 42.5018 4.91739 42.5018 5.52545C42.5018 6.13385 42.3327 6.73803 41.9951 7.33733C41.6569 7.9373 41.2094 8.48219 40.6515 8.97215C40.0942 9.46227 39.4605 9.8845 38.7512 10.2393C38.0415 10.5942 37.315 10.8477 36.5715 10.9997C36.5041 11.0169 36.445 11.0292 36.3943 11.0378C36.3437 11.0462 36.2844 11.0496 36.2167 11.0496ZM73.3443 8.61664C73.9189 8.61664 74.3918 8.51118 74.7638 8.30007C75.1353 8.08895 75.4267 7.83099 75.6378 7.52688C75.8494 7.2231 75.9926 6.88917 76.0691 6.52575C76.1451 6.16284 76.1826 5.82907 76.1826 5.52478C76.1826 5.221 76.1451 4.88722 76.0691 4.52363C75.9926 4.16072 75.8494 3.82695 75.6378 3.52266C75.4267 3.21888 75.1353 2.96096 74.7638 2.75001C74.3918 2.5389 73.9189 2.43326 73.3443 2.43326H63.1057C62.5145 2.43326 62.0373 2.5389 61.6739 2.75001C61.3108 2.96096 61.0234 3.21888 60.8123 3.52266C60.6012 3.82695 60.4574 4.16072 60.3815 4.52363C60.3056 4.88722 60.2674 5.221 60.2674 5.52478C60.2674 5.82907 60.3056 6.16284 60.3815 6.52575C60.4574 6.88917 60.6012 7.2231 60.8123 7.52688C61.0234 7.83099 61.3108 8.08895 61.6739 8.30007C62.0373 8.51118 62.5145 8.61664 63.1057 8.61664H73.3443ZM78.5396 5.52478C78.5396 6.16705 78.4341 6.81336 78.223 7.46371C78.0119 8.11423 77.7034 8.7056 77.2978 9.23751C76.8924 9.77009 76.4023 10.2051 75.8278 10.5428C75.2538 10.8809 74.6032 11.0496 73.8769 11.0496H62.32C61.6276 11.0162 61.0109 10.826 60.4702 10.4792C59.9297 10.133 59.4693 9.69798 59.0892 9.1745C58.7089 8.65068 58.4171 8.06739 58.2146 7.42564C58.0117 6.78371 57.9105 6.14986 57.9105 5.52478C57.9105 4.88286 58.0159 4.23671 58.227 3.58619C58.4387 2.93567 58.7466 2.34446 59.1522 1.81239C59.5576 1.27998 60.0477 0.844774 60.6222 0.507131C61.1967 0.168982 61.8473 0 62.5736 0L74.13 0C74.8229 0.0338654 75.4396 0.223906 75.9803 0.570143C76.5208 0.916885 76.9812 1.35209 77.3613 1.8754C77.7416 2.39939 78.0329 2.98201 78.236 3.62444C78.4385 4.26637 78.5396 4.89954 78.5396 5.52478ZM83.9627 5.52478C83.9627 5.18714 84.0812 4.89954 84.3176 4.66315C84.5545 4.42677 84.8416 4.30832 85.1797 4.30832H97.7748C98.0283 4.30832 98.2481 4.21566 98.4339 4.02982C98.6196 3.84364 98.7127 3.61584 98.7127 3.34543C98.7127 3.09186 98.6196 2.87654 98.4339 2.69929C98.2481 2.52171 98.0283 2.43326 97.7748 2.43326H82.2902C81.9526 2.43326 81.665 2.31481 81.4286 2.07842C81.1922 1.84153 81.0737 1.55443 81.0737 1.21628C81.0737 0.878637 81.1922 0.591722 81.4286 0.354832C81.665 0.118448 81.9526 0 82.2902 0L97.6482 0C98.1215 0 98.5646 0.0844066 98.9788 0.253565C99.3929 0.422556 99.7515 0.658946 100.056 0.963229C100.36 1.26751 100.601 1.62234 100.778 2.02788C100.956 2.43325 101.044 2.87215 101.044 3.34543C101.044 3.76765 100.972 4.16511 100.829 4.53662C100.685 4.90812 100.487 5.23768 100.234 5.52478C100.774 6.16705 101.044 6.89356 101.044 7.70447C101.044 8.17724 100.956 8.61663 100.778 9.02217C100.601 9.42772 100.36 9.78256 100.056 10.0867C99.7515 10.391 99.3929 10.6273 98.9788 10.7965C98.5646 10.965 98.1215 11.0496 97.6482 11.0496H82.2902C81.9526 11.0496 81.665 10.9316 81.4286 10.6947C81.1922 10.4584 81.0737 10.1713 81.0737 9.83311C81.0737 9.49546 81.1922 9.20803 81.4286 8.97148C81.665 8.73509 81.9526 8.61664 82.2902 8.61664H97.7748C98.0283 8.61664 98.2481 8.52786 98.4339 8.35061C98.6196 8.17353 98.7127 7.95804 98.7127 7.70447C98.7127 7.43422 98.6196 7.20592 98.4339 7.02008C98.2481 6.83424 98.0283 6.74124 97.7748 6.74124H85.1797C84.8416 6.74124 84.5545 6.6233 84.3176 6.38675C84.0812 6.14986 83.9627 5.86293 83.9627 5.52478ZM107 6.74124C106.527 6.74124 106.083 6.65279 105.669 6.47521C105.255 6.29796 104.892 6.05719 104.58 5.75308C104.267 5.44879 104.022 5.09397 103.844 4.68843C103.667 4.28305 103.578 3.84365 103.578 3.37088C103.578 2.89744 103.667 2.45853 103.844 2.05315C104.022 1.64761 104.267 1.29278 104.58 0.988501C104.892 0.684386 105.255 0.443614 105.669 0.266368C106.083 0.0887853 106.527 0 107 0L122.18 0C122.518 0 122.806 0.118448 123.042 0.354832C123.279 0.591722 123.397 0.878637 123.397 1.21628C123.397 1.55443 123.279 1.84153 123.042 2.07842C122.806 2.31481 122.518 2.43326 122.18 2.43326H106.899C106.645 2.43326 106.421 2.52592 106.227 2.71176C106.033 2.89743 105.935 3.11714 105.935 3.37088C105.935 3.64113 106.033 3.86504 106.227 4.04229C106.421 4.22004 106.645 4.30832 106.899 4.30832H120.331C120.769 4.30832 121.175 4.38852 121.547 4.54909C121.919 4.70948 122.24 4.92918 122.51 5.20803C122.78 5.48704 122.996 5.8166 123.156 6.19671C123.317 6.57698 123.397 6.97813 123.397 7.40018V9.83311C123.397 10.1713 123.279 10.4584 123.042 10.6947C122.806 10.9316 122.518 11.0496 122.18 11.0496C121.859 11.0496 121.576 10.9316 121.332 10.6947C121.087 10.4584 120.964 10.1713 120.964 9.83311V7.6792C120.964 7.42563 120.888 7.21451 120.736 7.04535C120.584 6.87636 120.398 6.77511 120.178 6.74124H115.135C114.223 6.74124 113.344 6.8511 112.5 7.0708C111.655 7.29051 110.839 7.58602 110.054 7.95804C109.268 8.32972 108.512 8.75195 107.786 9.22522C107.059 9.69799 106.349 10.1879 105.657 10.6947C105.369 10.9316 105.082 11.0496 104.795 11.0496C104.457 11.0496 104.17 10.9316 103.933 10.6947C103.697 10.4584 103.578 10.1713 103.578 9.83311C103.578 9.59672 103.646 9.38999 103.781 9.21224C103.917 9.03499 104.077 8.87897 104.263 8.74367C104.753 8.35498 105.234 7.99577 105.708 7.66622C106.181 7.33666 106.645 7.02868 107.101 6.74124H107ZM128.364 6.20918C128.364 6.81757 128.398 7.28174 128.465 7.60321C128.533 7.92417 128.693 8.08473 128.947 8.08473C129.082 8.08473 129.255 8.02982 129.466 7.91996C129.678 7.81011 129.944 7.66202 130.265 7.47618L141.871 0.380104C142.058 0.262164 142.265 0.168995 142.493 0.101601C142.721 0.0338701 142.953 0 143.19 0C143.882 0 144.461 0.23687 144.926 0.709638C145.39 1.18291 145.623 1.76555 145.623 2.45853V9.83311C145.623 10.1713 145.504 10.4584 145.268 10.6947C145.031 10.9316 144.744 11.0496 144.406 11.0496C144.068 11.0496 143.781 10.9316 143.545 10.6947C143.308 10.4584 143.19 10.1713 143.19 9.83311V4.8409C143.19 4.23234 143.156 3.76766 143.088 3.44669C143.021 3.12573 142.86 2.96532 142.607 2.96532C142.471 2.96532 142.299 3.02026 142.087 3.13012C141.876 3.23997 141.61 3.38754 141.289 3.57321L129.682 10.6695C129.496 10.7879 129.289 10.8809 129.061 10.9483C128.833 11.0162 128.601 11.0496 128.364 11.0496C127.671 11.0496 127.092 10.8132 126.628 10.3404C126.163 9.86697 125.931 9.28435 125.931 8.59137V1.21628C125.931 0.878637 126.049 0.591722 126.286 0.354832C126.522 0.118448 126.81 0 127.147 0C127.485 0 127.772 0.118448 128.009 0.354832C128.246 0.591722 128.364 0.878637 128.364 1.21628V6.20918ZM168 9.83311C168 10.1713 167.882 10.4584 167.645 10.6947C167.409 10.9316 167.122 11.0496 166.784 11.0496C166.446 11.0496 166.159 10.9316 165.922 10.6947C165.686 10.4584 165.567 10.1713 165.567 9.83311V6.74124H150.59V9.83311C150.59 10.1713 150.472 10.4584 150.235 10.6947C149.998 10.9316 149.711 11.0496 149.373 11.0496C149.035 11.0496 148.748 10.9316 148.512 10.6947C148.275 10.4584 148.157 10.1713 148.157 9.83311V1.21628C148.157 0.878637 148.275 0.591722 148.512 0.354832C148.748 0.118448 149.035 0 149.373 0C149.711 0 149.998 0.118448 150.235 0.354832C150.472 0.591722 150.59 0.878637 150.59 1.21628V4.30832H165.567V1.21628C165.567 0.878637 165.686 0.591722 165.922 0.354832C166.159 0.118448 166.446 0 166.784 0C167.122 0 167.409 0.118448 167.645 0.354832C167.882 0.591722 168 0.878637 168 1.21628V9.83311ZM35.5203 21.5991C35.5203 20.9571 35.6259 20.311 35.8368 19.6605C36.0485 19.01 36.3566 18.4187 36.762 17.8867C37.1675 17.3543 37.6575 16.9191 38.232 16.5814C38.8066 16.2433 39.4571 16.0743 40.1836 16.0743H54.9584C55.2965 16.0743 55.5836 16.1927 55.82 16.4291C56.0569 16.666 56.1748 16.9529 56.1748 17.2906C56.1748 17.6287 56.0569 17.9158 55.82 18.1527C55.5836 18.3891 55.2965 18.5075 54.9584 18.5075H40.7155C40.1243 18.5075 39.6471 18.6132 39.2837 18.8243C38.9208 19.0352 38.6332 19.2932 38.4221 19.5969C38.211 19.9012 38.0673 20.235 37.9914 20.5979C37.9155 20.9615 37.8772 21.2953 37.8772 21.5991C37.8772 21.9033 37.9155 22.2371 37.9914 22.6C38.0673 22.9635 38.211 23.2974 38.4221 23.6012C38.6332 23.9053 38.9208 24.1632 39.2837 24.3743C39.6471 24.5855 40.1243 24.6909 40.7155 24.6909H54.9584C55.2965 24.6909 55.5836 24.8094 55.82 25.0458C56.0569 25.2823 56.1748 25.5697 56.1748 25.9074C56.1748 26.2455 56.0569 26.5326 55.82 26.769C55.5836 27.0059 55.2965 27.1238 54.9584 27.1238H39.9299C39.2374 27.1238 38.6209 26.9552 38.0802 26.617C37.5396 26.2794 37.0791 25.8444 36.699 25.3118C36.3189 24.7799 36.0271 24.1843 35.8246 23.5252C35.6215 22.8666 35.5203 22.2241 35.5203 21.5991ZM61.1423 22.2835C61.1423 22.8919 61.1761 23.356 61.244 23.6775C61.3114 23.9985 61.4718 24.159 61.7254 24.159C61.8605 24.159 62.0336 24.1041 62.245 23.9942C62.4561 23.8844 62.7222 23.7363 63.0431 23.5505L74.65 16.4544C74.8364 16.3364 75.0431 16.2433 75.2714 16.1759C75.4992 16.1082 75.7318 16.0743 75.9682 16.0743C76.6607 16.0743 77.2397 16.3112 77.7043 16.7839C78.169 17.2572 78.4011 17.8398 78.4011 18.5328V25.9074C78.4011 26.2455 78.2828 26.5326 78.0464 26.769C77.8098 27.0059 77.5224 27.1238 77.1847 27.1238C76.8466 27.1238 76.5594 27.0059 76.3231 26.769C76.0862 26.5326 75.9682 26.2455 75.9682 25.9074V20.9152C75.9682 20.3066 75.9344 19.8419 75.867 19.521C75.7993 19.2 75.6387 19.0396 75.3851 19.0396C75.25 19.0396 75.0771 19.0945 74.8655 19.2044C74.6544 19.3142 74.3884 19.4618 74.0674 19.6475L62.4605 26.7437C62.2747 26.8622 62.0674 26.9552 61.8396 27.0226C61.6113 27.0905 61.3792 27.1238 61.1423 27.1238C60.4498 27.1238 59.8709 26.8875 59.4062 26.4147C58.942 25.9413 58.7093 25.3586 58.7093 24.6657V17.2906C58.7093 16.9529 58.8278 16.666 59.0643 16.4291C59.3007 16.1927 59.5882 16.0743 59.9258 16.0743C60.264 16.0743 60.551 16.1927 60.7874 16.4291C61.0243 16.666 61.1423 16.9529 61.1423 17.2906V22.2835ZM83.3681 22.7648V24.6909H97.4337C97.6873 24.6909 97.9109 24.5983 98.1053 24.4121C98.2996 24.2263 98.3966 24.0065 98.3966 23.7535C98.3966 23.4832 98.2996 23.2591 98.1053 23.0819C97.9109 22.9043 97.6873 22.8155 97.4337 22.8155H83.9765C83.7568 22.8155 83.554 22.7987 83.3681 22.7648ZM80.9352 17.2906C80.9352 16.9529 81.0536 16.666 81.2902 16.4291C81.5266 16.1927 81.814 16.0743 82.1516 16.0743C82.2362 16.0743 82.3208 16.0827 82.4052 16.0996H98.4984C98.836 16.0996 99.1229 16.218 99.3598 16.4544C99.5962 16.6913 99.7147 16.9784 99.7147 17.3165C99.7147 17.6541 99.5962 17.9411 99.3598 18.178C99.1229 18.4144 98.836 18.5328 98.4984 18.5328H83.3681V19.4452C83.3681 19.6987 83.4446 19.9098 83.5964 20.0788C83.7482 20.2475 83.934 20.3492 84.1537 20.3826H97.3324C97.8054 20.3826 98.249 20.4714 98.6627 20.6486C99.0766 20.8262 99.4402 21.067 99.7524 21.3713C100.065 21.6754 100.31 22.0299 100.488 22.4352C100.665 22.8413 100.754 23.2802 100.754 23.7535C100.754 24.2262 100.665 24.6656 100.488 25.0712C100.31 25.4766 100.065 25.8314 99.7524 26.1357C99.4402 26.44 99.0766 26.6806 98.6627 26.8578C98.249 27.0356 97.8054 27.1238 97.3324 27.1238H82.1516C81.814 27.1238 81.5266 27.0059 81.2902 26.769C81.0536 26.5326 80.9352 26.2455 80.9352 25.9074C80.9352 25.8061 80.9436 25.7129 80.9606 25.629C80.9438 25.5445 80.9352 25.4513 80.9352 25.35V17.2906ZM105.721 22.2835C105.721 22.8919 105.754 23.356 105.822 23.6775C105.89 23.9985 106.05 24.159 106.304 24.159C106.439 24.159 106.612 24.1041 106.823 23.9942C107.034 23.8844 107.3 23.7363 107.621 23.5505L119.228 16.4544C119.415 16.3364 119.621 16.2433 119.85 16.1759C120.077 16.1082 120.31 16.0743 120.546 16.0743C121.239 16.0743 121.818 16.3112 122.283 16.7839C122.747 17.2572 122.979 17.8398 122.979 18.5328V25.9074C122.979 26.2455 122.861 26.5326 122.625 26.769C122.388 27.0059 122.101 27.1238 121.763 27.1238C121.425 27.1238 121.138 27.0059 120.901 26.769C120.664 26.5326 120.546 26.2455 120.546 25.9074V20.9152C120.546 20.3066 120.513 19.8419 120.445 19.521C120.377 19.2 120.217 19.0396 119.963 19.0396C119.828 19.0396 119.655 19.0945 119.444 19.2044C119.233 19.3142 118.967 19.4618 118.646 19.6475L107.039 26.7437C106.853 26.8622 106.646 26.9552 106.418 27.0226C106.19 27.0905 105.957 27.1238 105.721 27.1238C105.028 27.1238 104.449 26.8875 103.984 26.4147C103.52 25.9413 103.288 25.3586 103.288 24.6657V17.2906C103.288 16.9529 103.406 16.666 103.643 16.4291C103.879 16.1927 104.166 16.0743 104.504 16.0743C104.842 16.0743 105.129 16.1927 105.366 16.4291C105.603 16.666 105.721 16.9529 105.721 17.2906V22.2835ZM127.946 18.5075V20.3826H142.012C142.265 20.3826 142.489 20.2943 142.684 20.1166C142.878 19.9393 142.975 19.7154 142.975 19.4452C142.975 19.1914 142.878 18.9717 142.684 18.786C142.489 18.6002 142.265 18.5075 142.012 18.5075H127.946ZM141.911 16.0743C142.384 16.0743 142.827 16.1631 143.241 16.3407C143.655 16.5179 144.018 16.7587 144.331 17.0628C144.644 17.3671 144.888 17.7219 145.066 18.1274C145.243 18.5328 145.332 18.9717 145.332 19.4452C145.332 19.9179 145.243 20.3573 145.066 20.7627C144.888 21.1683 144.644 21.5231 144.331 21.8274C144.018 22.1315 143.655 22.3722 143.241 22.5495C142.827 22.7271 142.384 22.8155 141.911 22.8155H127.946V25.9074C127.946 26.2455 127.824 26.5326 127.579 26.769C127.334 27.0059 127.051 27.1238 126.73 27.1238C126.392 27.1238 126.105 27.0059 125.868 26.769C125.632 26.5326 125.513 26.2455 125.513 25.9074V17.2906C125.513 16.9529 125.632 16.666 125.868 16.4291C126.105 16.1927 126.392 16.0743 126.73 16.0743H141.911ZM150.299 22.2835C150.299 22.8919 150.333 23.356 150.4 23.6775C150.468 23.9985 150.628 24.159 150.882 24.159C151.017 24.159 151.19 24.1041 151.401 23.9942C151.613 23.8844 151.879 23.7363 152.2 23.5505L163.806 16.4544C163.993 16.3364 164.2 16.2433 164.428 16.1759C164.656 16.1082 164.888 16.0743 165.125 16.0743C165.817 16.0743 166.396 16.3112 166.861 16.7839C167.325 17.2572 167.558 17.8398 167.558 18.5328V25.9074C167.558 26.2455 167.439 26.5326 167.203 26.769C166.966 27.0059 166.679 27.1238 166.341 27.1238C166.003 27.1238 165.716 27.0059 165.48 26.769C165.243 26.5326 165.125 26.2455 165.125 25.9074V20.9152C165.125 20.3066 165.091 19.8419 165.023 19.521C164.956 19.2 164.795 19.0396 164.542 19.0396C164.406 19.0396 164.234 19.0945 164.022 19.2044C163.811 19.3142 163.545 19.4618 163.224 19.6475L151.617 26.7437C151.431 26.8622 151.224 26.9552 150.996 27.0226C150.768 27.0905 150.536 27.1238 150.299 27.1238C149.606 27.1238 149.027 26.8875 148.563 26.4147C148.098 25.9413 147.866 25.3586 147.866 24.6657V17.2906C147.866 16.9529 147.984 16.666 148.221 16.4291C148.457 16.1927 148.745 16.0743 149.082 16.0743C149.42 16.0743 149.707 16.1927 149.944 16.4291C150.181 16.666 150.299 16.9529 150.299 17.2906V22.2835Z" fill="white"/>
<path fill-rule="evenodd" clip-rule="evenodd" d="M26.932 21.5878C26.8368 21.5878 26.7539 21.5818 26.6826 21.5704C26.6113 21.5588 26.5283 21.5413 26.4332 21.518C25.3882 21.3092 24.367 20.9608 23.3695 20.4733C22.372 19.9858 21.4814 19.4056 20.6977 18.7321C19.9139 18.059 19.2846 17.3103 18.8096 16.4863C18.3346 15.6621 18.0972 14.8321 18.0972 13.9964C18.0972 13.1606 18.3346 12.3366 18.8096 11.524C19.2846 10.7114 19.9139 9.96297 20.6977 9.27794C21.4814 8.59307 22.372 8.0071 23.3695 7.51958C24.367 7.03206 25.3882 6.68374 26.4332 6.47478C26.5283 6.45155 26.6113 6.43413 26.6826 6.42251C26.7539 6.4109 26.8368 6.40509 26.932 6.40509C27.407 6.40509 27.8106 6.56777 28.1432 6.89261C28.4757 7.2177 28.6419 7.61223 28.6419 8.07652C28.6419 8.51784 28.4876 8.88333 28.1788 9.17358C27.87 9.46384 27.4901 9.65529 27.0389 9.74803C26.3024 9.91062 25.6019 10.1428 24.937 10.4447C24.2721 10.7463 23.6841 11.0888 23.1735 11.4717C22.6629 11.8549 22.2593 12.2611 21.9623 12.6905C21.6654 13.1202 21.5171 13.5554 21.5171 13.9964C21.5171 14.4375 21.6654 14.8785 21.9623 15.3196C22.2593 15.7608 22.6629 16.1729 23.1735 16.5558C23.6841 16.9389 24.2721 17.2813 24.937 17.5831C25.6019 17.8849 26.3024 18.1055 27.0389 18.2446C27.4901 18.3376 27.87 18.5291 28.1788 18.8193C28.4876 19.1096 28.6419 19.4751 28.6419 19.9161C28.6419 20.3806 28.4757 20.7752 28.1432 21.1003C27.8106 21.4251 27.407 21.5878 26.932 21.5878ZM12.1122 13.9964C12.1122 13.3928 12.326 12.8823 12.7534 12.4642C13.1811 12.0463 13.7034 11.8375 14.3209 11.8375C14.9383 11.8375 15.4608 12.0463 15.8885 12.4642C16.3159 12.8823 16.5297 13.3928 16.5297 13.9964C16.5297 14.5999 16.3159 15.1106 15.8885 15.5287C15.4608 15.9465 14.9383 16.1554 14.3209 16.1554C13.7034 16.1554 13.1811 15.9465 12.7534 15.5287C12.326 15.1106 12.1122 14.5999 12.1122 13.9964ZM1.70992 21.5878C1.23493 21.5878 0.831063 21.4251 0.49874 21.1003C0.166155 20.7752 0 20.3806 0 19.9161C0 19.4751 0.154272 19.1096 0.463095 18.8193C0.77183 18.5291 1.15177 18.3376 1.603 18.2446C2.33919 18.1055 3.04 17.8849 3.70491 17.5831C4.36981 17.2813 4.95767 16.9389 5.46839 16.5558C5.97901 16.1729 6.38262 15.7608 6.67956 15.3196C6.97651 14.8785 7.12477 14.4375 7.12477 13.9964C7.12477 13.5554 6.97651 13.1202 6.67956 12.6905C6.38262 12.2611 5.97901 11.8549 5.46839 11.4717C4.95767 11.0888 4.36981 10.7463 3.70491 10.4447C3.04 10.1428 2.33919 9.91062 1.603 9.74803C1.15177 9.65529 0.77183 9.46384 0.463095 9.17358C0.154272 8.88333 0 8.51784 0 8.07652C0 7.61223 0.166155 7.2177 0.49874 6.89261C0.831063 6.56777 1.23493 6.40509 1.70992 6.40509C1.80506 6.40509 1.88797 6.41107 1.95934 6.42251C2.03063 6.43413 2.11362 6.45155 2.20867 6.47478C3.25369 6.68374 4.27495 7.03206 5.27218 7.51958C6.26967 8.0071 7.16049 8.59307 7.94421 9.27794C8.72802 9.96297 9.35729 10.7114 9.83228 11.524C10.3072 12.3366 10.5447 13.1606 10.5447 13.9964C10.5447 14.8321 10.3072 15.6621 9.83228 16.4863C9.35729 17.3103 8.72802 18.059 7.94421 18.7321C7.16049 19.4056 6.26967 19.9858 5.27218 20.4733C4.27495 20.9608 3.25369 21.3092 2.20867 21.518C2.11362 21.5413 2.03063 21.5588 1.95934 21.5704C1.88797 21.582 1.80506 21.5878 1.70992 21.5878Z" fill="#C8DF30"/>
<path fill-rule="evenodd" clip-rule="evenodd" d="M22.0859 26.3284C22.0859 26.7927 21.9195 27.1875 21.5872 27.5123C21.2546 27.8374 20.8509 27.9999 20.3757 27.9999C19.9245 27.9999 19.5506 27.8491 19.2536 27.5472C18.9567 27.2454 18.7608 26.874 18.6657 26.433C18.5234 25.7133 18.2977 25.0283 17.9889 24.3784C17.6802 23.7284 17.33 23.1538 16.938 22.6546C16.5462 22.1555 16.1247 21.7609 15.6733 21.4707C15.2221 21.1804 14.7709 21.0355 14.3196 21.0355C13.8685 21.0355 13.4232 21.1804 12.9837 21.4707C12.5444 21.7609 12.1288 22.1555 11.7368 22.6546C11.3451 23.1538 10.9947 23.7284 10.6861 24.3784C10.3773 25.0283 10.1397 25.7133 9.97341 26.433C9.87854 26.874 9.68267 27.2454 9.38573 27.5472C9.08879 27.8491 8.71488 27.9999 8.2634 27.9999C7.78841 27.9999 7.38481 27.8374 7.05222 27.5123C6.7199 27.1875 6.55347 26.7927 6.55347 26.3284C6.55347 26.2354 6.55958 26.1544 6.57129 26.0846C6.58317 26.015 6.60099 25.9338 6.62476 25.8409C6.83853 24.8194 7.19487 23.8212 7.69362 22.8464C8.19237 21.8714 8.79184 21.0006 9.49248 20.2345C10.1933 19.4683 10.9589 18.8533 11.7903 18.389C12.6216 17.9247 13.4646 17.6926 14.3196 17.6926C15.1746 17.6926 16.0237 17.9247 16.8669 18.389C17.7099 18.8533 18.4758 19.4683 19.1645 20.2345C19.8534 21.0006 20.447 21.8714 20.9458 22.8464C21.4445 23.8212 21.8008 24.8194 22.0145 25.8409C22.0384 25.9338 22.0562 26.015 22.0681 26.0846C22.08 26.1544 22.0859 26.2354 22.0859 26.3284Z" fill="#C8DF30"/>
<path fill-rule="evenodd" clip-rule="evenodd" d="M14.3202 16.1612C13.7027 16.1612 13.1804 15.9523 12.7527 15.5345C12.3253 15.1164 12.1116 14.6059 12.1116 14.0023C12.1116 13.3988 12.3253 12.8881 12.7527 12.47C13.1804 12.0522 13.7027 11.8433 14.3202 11.8433C14.9376 11.8433 15.4601 12.0522 15.8879 12.47C16.3152 12.8881 16.529 13.3988 16.529 14.0023C16.529 14.6059 16.3152 15.1164 15.8879 15.5345C15.4601 15.9523 14.9376 16.1612 14.3202 16.1612Z" fill="white"/>
<path fill-rule="evenodd" clip-rule="evenodd" d="M22.0859 1.67143C22.0859 1.76442 22.0798 1.84546 22.0681 1.91523C22.0562 1.98491 22.0384 2.06604 22.0145 2.15894C21.8008 3.18043 21.4445 4.1787 20.9458 5.15374C20.447 6.12877 19.8534 6.99928 19.1645 7.76535C18.4758 8.53152 17.7099 9.14661 16.8669 9.6109C16.0237 10.0752 15.1746 10.3073 14.3196 10.3073C13.4646 10.3073 12.6216 10.0752 11.7903 9.6109C10.9589 9.14661 10.1933 8.53152 9.49248 7.76535C8.79184 6.99928 8.19237 6.12877 7.69362 5.15374C7.19487 4.1787 6.83853 3.18043 6.62476 2.15894C6.60099 2.06604 6.58317 1.98491 6.57129 1.91523C6.55941 1.84546 6.55347 1.76442 6.55347 1.67143C6.55347 1.20714 6.7199 0.812615 7.05222 0.487518C7.38481 0.16242 7.78841 0 8.2634 0C8.71488 0 9.08879 0.150805 9.38573 0.452675C9.68267 0.754545 9.87854 1.12584 9.97341 1.56691C10.1397 2.28678 10.3773 2.97156 10.6861 3.6215C10.9947 4.27144 11.3451 4.84614 11.7368 5.34527C12.1288 5.8444 12.5444 6.23893 12.9837 6.52918C13.4232 6.81944 13.8685 6.96444 14.3196 6.96444C14.7709 6.96444 15.2221 6.81944 15.6733 6.52918C16.1247 6.23893 16.5462 5.8444 16.938 5.34527C17.33 4.84614 17.6802 4.27144 17.9889 3.6215C18.2977 2.97156 18.5234 2.28678 18.6657 1.56691C18.7608 1.12584 18.9567 0.754545 19.2536 0.452675C19.5506 0.150805 19.9245 0 20.3757 0C20.8509 0 21.2546 0.16242 21.5872 0.487518C21.9195 0.812615 22.0859 1.20714 22.0859 1.67143Z" fill="#C8DF30"/>
</svg>
