<svg width="255" height="3" viewBox="0 0 255 3" fill="none" xmlns="http://www.w3.org/2000/svg">
<path d="M0.150001 0.942285C0.0671584 0.942281 -2.13865e-06 1.00944 -6.10948e-06 1.09228C-1.00803e-05 1.17512 0.067144 1.24228 0.149987 1.24229L0.149994 1.09229L0.150001 0.942285ZM254.738 1.21055C254.796 1.15198 254.796 1.057 254.738 0.998422L253.783 0.0437821C253.724 -0.0147993 253.629 -0.0148039 253.571 0.0437719C253.512 0.102348 253.512 0.197323 253.571 0.255904L254.419 1.10447L253.571 1.95296C253.512 2.01154 253.512 2.10651 253.571 2.16509C253.629 2.22367 253.724 2.22368 253.783 2.1651L254.738 1.21055ZM0.149994 1.09229L0.149987 1.24229L254.631 1.25448L254.631 1.10448L254.631 0.954483L0.150001 0.942285L0.149994 1.09229Z" fill="white"/>
</svg>
