<svg width="255" height="3" viewBox="0 0 255 3" fill="none" xmlns="http://www.w3.org/2000/svg">
<path d="M254.631 1.25449C254.714 1.25449 254.781 1.18733 254.781 1.10449C254.781 1.02165 254.714 0.954492 254.631 0.954492V1.10449V1.25449ZM0.0439301 0.998426C-0.0146484 1.057 -0.0146484 1.15198 0.0439301 1.21056L0.998535 2.16515C1.05711 2.22373 1.15208 2.22373 1.21066 2.16515C1.26924 2.10657 1.26924 2.0116 1.21066 1.95302L0.362137 1.10449L1.21066 0.255964C1.26924 0.197385 1.26924 0.102411 1.21066 0.0438319C1.15208 -0.0147467 1.05711 -0.0147467 0.998535 0.0438319L0.0439301 0.998426ZM254.631 1.10449V0.954492L0.150009 0.954492V1.10449V1.25449L254.631 1.25449V1.10449Z" fill="white"/>
</svg>
