<svg width="183" height="408" viewBox="0 0 183 408" fill="none" xmlns="http://www.w3.org/2000/svg">
<path d="M1.96875 0.150391H180.434C181.434 0.150391 182.252 0.962756 182.252 1.96875V302.325C178.66 302.404 175.773 305.292 175.694 308.884H6.70703C6.62853 305.292 3.73585 302.404 0.150391 302.325V1.96875C0.150391 0.96243 0.96243 0.150391 1.96875 0.150391Z" stroke="white" stroke-width="0.3"/>
<path d="M175.694 311.172C175.773 314.757 178.66 317.65 182.252 317.729V405.503C182.252 406.503 181.433 407.321 180.434 407.321H179.924C179.844 403.68 176.87 400.76 173.216 400.76C169.562 400.76 166.589 403.68 166.509 407.321H163.521C163.441 403.68 160.468 400.76 156.813 400.76C153.159 400.76 150.185 403.68 150.105 407.321H147.117C147.037 403.68 144.065 400.76 140.41 400.76C136.756 400.76 133.783 403.68 133.703 407.321H130.715C130.635 403.68 127.661 400.76 124.007 400.76C120.353 400.76 117.38 403.68 117.3 407.321H114.312C114.232 403.68 111.259 400.76 107.604 400.76C103.95 400.76 100.976 403.68 100.896 407.321H97.9082C97.8284 403.68 94.8555 400.76 91.2012 400.76C87.5467 400.76 84.573 403.68 84.4932 407.321H81.5049C81.425 403.68 78.4523 400.76 74.7979 400.76C71.1435 400.76 68.1707 403.68 68.0908 407.321H65.1025C65.0227 403.68 62.049 400.76 58.3945 400.76C54.7403 400.76 51.7673 403.68 51.6875 407.321H48.6992C48.6194 403.68 45.6464 400.76 41.9922 400.76C38.3378 400.76 35.364 403.68 35.2842 407.321H32.2959C32.2161 403.68 29.2432 400.76 25.5889 400.76C21.9344 400.76 18.9617 403.68 18.8818 407.321H15.8936C15.8137 403.68 12.84 400.76 9.18555 400.76C5.5312 400.76 2.55835 403.68 2.47852 407.321H1.96875C0.962755 407.321 0.150391 406.503 0.150391 405.503V317.729C3.73562 317.65 6.62805 314.757 6.70703 311.172H175.694Z" stroke="white" stroke-width="0.3"/>
</svg>
