<svg width="64" height="64" viewBox="0 0 64 64" fill="none" xmlns="http://www.w3.org/2000/svg">
<rect width="64" height="64" rx="6" fill="white"/>
<path fill-rule="evenodd" clip-rule="evenodd" d="M32.9833 56.565C28.1828 56.565 25.952 55.8642 22.0743 53.061C19.6215 56.2146 11.8544 58.6791 11.5156 54.4626C11.5156 51.2974 10.8148 48.6227 10.0206 45.7027C9.07456 42.1053 8 38.0991 8 32.2942C8 18.4301 19.3763 8 32.8548 8C46.3451 8 56.9155 18.9441 56.9155 32.4227C56.9607 45.6928 46.2534 56.4942 32.9833 56.565ZM33.1819 19.9836C26.6178 19.6449 21.502 24.1884 20.369 31.3131C19.4346 37.2115 21.0932 44.3946 22.5064 44.7683C23.1839 44.9318 24.8892 43.5536 25.952 42.4908C27.7095 43.7049 29.7561 44.4341 31.8854 44.6048C38.6869 44.932 44.4986 39.754 44.9552 32.96C45.2211 26.1516 39.9843 20.3849 33.1819 19.9953V19.9836Z" fill="#2D2D2D"/>
</svg>
