<svg width="220" height="13" viewBox="0 0 220 13" fill="none" xmlns="http://www.w3.org/2000/svg">
<path d="M1.44074 4.64589H6.92417V0.294424H8.36486V10.835H6.92417V5.91016H1.44074V10.835H5.42622e-05V0.294424H1.44074V4.64589ZM19.2535 1.79391C19.9445 2.73477 20.2973 3.92554 20.2973 5.38093C20.2973 6.95393 19.9003 8.26231 19.1065 9.30607C18.1656 10.5262 16.8279 11.1437 15.0932 11.1437C13.4614 11.1437 12.1971 10.5997 11.2709 9.54128C10.433 8.49752 10.0214 7.18914 10.0214 5.61615C10.0214 4.19016 10.3742 2.96999 11.0798 1.95562C11.9913 0.661946 13.3438 0.000406009 15.1226 0.000406009C16.9749 0.000406009 18.3568 0.603143 19.2535 1.79391ZM18.0039 8.51222C18.5626 7.61547 18.8419 6.5717 18.8419 5.39563C18.8419 4.16076 18.5185 3.1611 17.8716 2.41135C17.2101 1.64691 16.328 1.27938 15.2108 1.27938C14.1082 1.27938 13.2261 1.64691 12.5352 2.39665C11.8443 3.1464 11.5061 4.24896 11.5061 5.70435C11.5061 6.88042 11.8002 7.86538 12.3882 8.65923C12.9762 9.46778 13.9318 9.8647 15.2696 9.8647C16.5191 9.8647 17.4306 9.40897 18.0039 8.51222ZM21.6986 1.544V0.294424H29.5341V1.5146L23.0363 9.58539H29.5341V10.835H21.2281V9.64419L27.6965 1.544H21.6986ZM34.8754 5.35153L37.9038 0.294424H39.5797L35.5957 6.5864V10.835H34.1697V6.5864L30.1858 0.294424H31.847L34.8754 5.35153ZM47.0863 10.835H45.5133L44.4548 7.67427H40.2798L39.1331 10.835H37.6777L41.647 0.294424H43.2641L47.0863 10.835ZM40.6914 6.5129H43.9844L42.382 1.85272L40.6914 6.5129ZM50.144 10.835H48.7033V0.294424H50.144V10.835ZM59.4838 8.83564V0.294424H60.8509V10.835H59.2485L53.8386 2.29374V10.835H52.4714V0.294424H54.162L59.4838 8.83564ZM70.1372 11.9522V12.6726H61.9635V11.9522H70.1372ZM72.1904 7.43906C72.2198 8.02709 72.3521 8.51222 72.602 8.89444C73.0871 9.58539 73.9104 9.93821 75.1158 9.93821C75.6451 9.93821 76.1449 9.8647 76.5712 9.70299C77.4386 9.40897 77.8502 8.87974 77.8502 8.1153C77.8502 7.54196 77.6738 7.13034 77.321 6.88042C76.9535 6.64521 76.3801 6.4394 75.6157 6.26298L74.175 5.93957C73.2488 5.73375 72.5873 5.49854 72.2051 5.24862C71.5288 4.8076 71.1907 4.14606 71.1907 3.264C71.1907 2.32315 71.5288 1.544 72.1757 0.941263C72.8372 0.323826 73.7634 0.0298083 74.9688 0.0298083C76.0714 0.0298083 77.0123 0.294424 77.7914 0.823656C78.5559 1.35289 78.9381 2.22024 78.9381 3.38161H77.6003C77.5268 2.82298 77.3798 2.38195 77.1446 2.08793C76.7035 1.5293 75.9538 1.26468 74.9247 1.26468C74.0868 1.26468 73.4693 1.44109 73.1018 1.79391C72.7343 2.14674 72.5579 2.55836 72.5579 3.02879C72.5579 3.54332 72.7637 3.92554 73.19 4.16076C73.4841 4.30777 74.1162 4.49888 75.1158 4.73409L76.5859 5.07221C77.3063 5.23392 77.8502 5.45444 78.2471 5.73375C78.9087 6.23358 79.2468 6.93923 79.2468 7.88008C79.2468 9.05615 78.8205 9.8941 77.9825 10.3939C77.1299 10.8938 76.1449 11.1437 75.0129 11.1437C73.7046 11.1437 72.6755 10.8056 71.9405 10.144C71.1907 9.46778 70.8232 8.57102 70.8379 7.43906H72.1904ZM82.819 10.835H81.3783V0.294424H82.819V10.835ZM89.6449 0.294424C90.8798 0.294424 91.7471 0.661946 92.2764 1.39699C92.5851 1.83802 92.7321 2.33785 92.7321 2.89648C92.7321 3.57272 92.5557 4.11666 92.1735 4.54298C91.9824 4.76349 91.6883 4.96931 91.3208 5.16042C91.8648 5.36623 92.2764 5.60144 92.541 5.85136C93.0114 6.30709 93.2466 6.93923 93.2466 7.76248C93.2466 8.43872 93.0261 9.04145 92.5998 9.60009C91.9677 10.4233 90.9533 10.835 89.5714 10.835H85.117V0.294424H89.6449ZM89.1157 4.74879C89.7184 4.74879 90.1742 4.66059 90.5123 4.49888C91.0415 4.23426 91.3061 3.76383 91.3061 3.07289C91.3061 2.38195 91.0268 1.92622 90.4682 1.67631C90.1595 1.544 89.689 1.4852 89.0569 1.4852H86.5136V4.74879H89.1157ZM89.5861 9.61479C90.4682 9.61479 91.0856 9.36487 91.4678 8.85034C91.703 8.52692 91.8207 8.1447 91.8207 7.68897C91.8207 6.92452 91.4678 6.40999 90.7916 6.13068C90.4241 5.96897 89.9389 5.91016 89.3509 5.91016H86.5136V9.61479H89.5861ZM96.7159 10.835H95.2752V0.294424H96.7159V10.835ZM104.1 0.294424C104.909 0.294424 105.571 0.412031 106.085 0.647246C107.085 1.08827 107.57 1.92622 107.57 3.1317C107.57 3.76383 107.438 4.27836 107.188 4.68999C106.923 5.08691 106.556 5.41033 106.085 5.64555C106.497 5.82196 106.805 6.04247 107.026 6.30709C107.232 6.5864 107.349 7.02743 107.364 7.64487L107.423 9.05615C107.423 9.45308 107.467 9.7618 107.511 9.95291C107.599 10.291 107.746 10.5115 107.982 10.5997V10.835H106.217C106.173 10.7468 106.144 10.6291 106.115 10.4821C106.085 10.3351 106.056 10.0558 106.041 9.64419L105.953 7.89478C105.909 7.20384 105.659 6.74811 105.188 6.5129C104.909 6.38059 104.483 6.30709 103.895 6.30709H100.646V10.835H99.2198V0.294424H104.1ZM103.953 5.11632C104.615 5.11632 105.144 4.98401 105.541 4.71939C105.923 4.45478 106.129 3.96965 106.129 3.264C106.129 2.51426 105.85 1.99973 105.306 1.73511C105.012 1.5881 104.63 1.5146 104.13 1.5146H100.646V5.11632H103.953ZM111.417 10.835H109.976V0.294424H111.417V10.835ZM120.801 11.9522V12.6726H112.627V11.9522H120.801ZM130.425 10.835H128.852L127.793 7.67427H123.618L122.472 10.835H121.016L124.986 0.294424H126.603L130.425 10.835ZM124.03 6.5129H127.323L125.721 1.85272L124.03 6.5129ZM136.344 0.294424H137.946L134.109 10.835H132.595L128.743 0.294424H130.331L133.36 9.27667L136.344 0.294424ZM143.415 1.544V10.835H141.974V1.544H138.416V0.294424H146.972V1.544H143.415ZM156.443 1.79391C157.134 2.73477 157.486 3.92554 157.486 5.38093C157.486 6.95393 157.089 8.26231 156.296 9.30607C155.355 10.5262 154.017 11.1437 152.282 11.1437C150.651 11.1437 149.386 10.5997 148.46 9.54128C147.622 8.49752 147.21 7.18914 147.21 5.61615C147.21 4.19016 147.563 2.96999 148.269 1.95562C149.18 0.661946 150.533 0.000406009 152.312 0.000406009C154.164 0.000406009 155.546 0.603143 156.443 1.79391ZM155.193 8.51222C155.752 7.61547 156.031 6.5717 156.031 5.39563C156.031 4.16076 155.708 3.1611 155.061 2.41135C154.399 1.64691 153.517 1.27938 152.4 1.27938C151.297 1.27938 150.415 1.64691 149.724 2.39665C149.033 3.1464 148.695 4.24896 148.695 5.70435C148.695 6.88042 148.989 7.86538 149.577 8.65923C150.165 9.46778 151.121 9.8647 152.459 9.8647C153.708 9.8647 154.62 9.40897 155.193 8.51222ZM160.137 7.43906C160.167 8.02709 160.299 8.51222 160.549 8.89444C161.034 9.58539 161.857 9.93821 163.063 9.93821C163.592 9.93821 164.092 9.8647 164.518 9.70299C165.386 9.40897 165.797 8.87974 165.797 8.1153C165.797 7.54196 165.621 7.13034 165.268 6.88042C164.9 6.64521 164.327 6.4394 163.563 6.26298L162.122 5.93957C161.196 5.73375 160.534 5.49854 160.152 5.24862C159.476 4.8076 159.138 4.14606 159.138 3.264C159.138 2.32315 159.476 1.544 160.123 0.941263C160.784 0.323826 161.71 0.0298083 162.916 0.0298083C164.018 0.0298083 164.959 0.294424 165.738 0.823656C166.503 1.35289 166.885 2.22024 166.885 3.38161H165.547C165.474 2.82298 165.327 2.38195 165.091 2.08793C164.65 1.5293 163.901 1.26468 162.872 1.26468C162.034 1.26468 161.416 1.44109 161.049 1.79391C160.681 2.14674 160.505 2.55836 160.505 3.02879C160.505 3.54332 160.711 3.92554 161.137 4.16076C161.431 4.30777 162.063 4.49888 163.063 4.73409L164.533 5.07221C165.253 5.23392 165.797 5.45444 166.194 5.73375C166.856 6.23358 167.194 6.93923 167.194 7.88008C167.194 9.05615 166.767 9.8941 165.929 10.3939C165.077 10.8938 164.092 11.1437 162.96 11.1437C161.651 11.1437 160.622 10.8056 159.887 10.144C159.138 9.46778 158.77 8.57102 158.785 7.43906H160.137ZM176.558 1.05887C177.293 1.76451 177.705 2.55836 177.778 3.45511H176.396C176.235 2.77887 175.911 2.23494 175.455 1.83802C174.97 1.44109 174.309 1.24998 173.456 1.24998C172.427 1.24998 171.589 1.6175 170.942 2.33785C170.31 3.07289 169.987 4.19016 169.987 5.68965C169.987 6.92452 170.281 7.92418 170.854 8.68863C171.427 9.46778 172.295 9.85 173.427 9.85C174.485 9.85 175.279 9.45308 175.838 8.64453C176.132 8.2182 176.352 7.65957 176.485 6.95393H177.881C177.764 8.07119 177.352 8.99735 176.646 9.7471C175.808 10.6586 174.676 11.1143 173.265 11.1143C172.03 11.1143 171.001 10.7321 170.178 9.99701C169.075 9.01205 168.531 7.49786 168.531 5.45444C168.531 3.89614 168.943 2.61716 169.766 1.6322C170.648 0.544339 171.883 0.000406009 173.441 0.000406009C174.779 0.000406009 175.823 0.353227 176.558 1.05887ZM181.096 4.64589H186.579V0.294424H188.02V10.835H186.579V5.91016H181.096V10.835H179.655V0.294424H181.096V4.64589ZM198.909 1.79391C199.6 2.73477 199.952 3.92554 199.952 5.38093C199.952 6.95393 199.556 8.26231 198.762 9.30607C197.821 10.5262 196.483 11.1437 194.748 11.1437C193.117 11.1437 191.852 10.5997 190.926 9.54128C190.088 8.49752 189.677 7.18914 189.677 5.61615C189.677 4.19016 190.029 2.96999 190.735 1.95562C191.646 0.661946 192.999 0.000406009 194.778 0.000406009C196.63 0.000406009 198.012 0.603143 198.909 1.79391ZM197.659 8.51222C198.218 7.61547 198.497 6.5717 198.497 5.39563C198.497 4.16076 198.174 3.1611 197.527 2.41135C196.865 1.64691 195.983 1.27938 194.866 1.27938C193.763 1.27938 192.881 1.64691 192.19 2.39665C191.499 3.1464 191.161 4.24896 191.161 5.70435C191.161 6.88042 191.455 7.86538 192.043 8.65923C192.631 9.46778 193.587 9.8647 194.925 9.8647C196.174 9.8647 197.086 9.40897 197.659 8.51222ZM210.351 1.79391C211.042 2.73477 211.394 3.92554 211.394 5.38093C211.394 6.95393 210.998 8.26231 210.204 9.30607C209.263 10.5262 207.925 11.1437 206.19 11.1437C204.559 11.1437 203.294 10.5997 202.368 9.54128C201.53 8.49752 201.119 7.18914 201.119 5.61615C201.119 4.19016 201.471 2.96999 202.177 1.95562C203.088 0.661946 204.441 0.000406009 206.22 0.000406009C208.072 0.000406009 209.454 0.603143 210.351 1.79391ZM209.101 8.51222C209.66 7.61547 209.939 6.5717 209.939 5.39563C209.939 4.16076 209.616 3.1611 208.969 2.41135C208.307 1.64691 207.425 1.27938 206.308 1.27938C205.205 1.27938 204.323 1.64691 203.632 2.39665C202.941 3.1464 202.603 4.24896 202.603 5.70435C202.603 6.88042 202.897 7.86538 203.485 8.65923C204.073 9.46778 205.029 9.8647 206.367 9.8647C207.616 9.8647 208.528 9.40897 209.101 8.51222ZM214.53 9.58539H219.882V10.835H213.104V0.294424H214.53V9.58539Z" fill="url(#paint0_linear_11_1568)"/>
<defs>
<linearGradient id="paint0_linear_11_1568" x1="-1.50269" y1="4.33496" x2="220.497" y2="4.33496" gradientUnits="userSpaceOnUse">
<stop stop-color="#950CEF"/>
<stop offset="0.326923" stop-color="#FE2B8F"/>
<stop offset="0.682692" stop-color="#FEBF00"/>
<stop offset="1" stop-color="#FD106B"/>
</linearGradient>
</defs>
</svg>
