<svg width="253" height="151" viewBox="0 0 253 151" fill="none" xmlns="http://www.w3.org/2000/svg">
<g clip-path="url(#clip0_4090_1379)">
<path fill-rule="evenodd" clip-rule="evenodd" d="M247.097 10.1694C248.856 4.30773 247.097 0 238.732 0H211.065C204.028 0 200.786 3.72044 199.029 7.82585C199.029 7.82585 184.957 42.1191 165.026 64.3968C158.58 70.8457 155.649 72.8998 152.128 72.8998C150.372 72.8998 147.826 70.8457 147.826 64.9869V10.1694C147.826 3.13596 145.783 0 139.921 0H96.4392C92.0444 0 89.3973 3.26522 89.3973 6.36184C89.3973 13.03 99.3644 14.5698 100.393 33.3294V74.0716C100.393 83.0046 98.7799 84.6288 95.2618 84.6288C85.8848 84.6288 63.0676 50.1782 49.5347 10.7595C46.882 3.09662 44.2238 0.00280846 37.1538 0.00280846H9.48656C1.57922 -1.54367e-06 0 3.72044 0 7.82304C0 15.1515 9.37697 51.4989 43.673 99.5695C66.5352 132.396 98.7462 150.194 128.06 150.194C145.645 150.194 147.823 146.241 147.823 139.432V114.623C147.823 106.715 149.489 105.139 155.059 105.139C159.161 105.139 166.195 107.187 182.611 123.016C201.37 141.776 204.461 150.192 215.016 150.192H242.683C250.585 150.192 254.538 146.238 252.259 138.44C249.761 130.665 240.806 119.386 228.922 106.018C222.473 98.3978 212.798 90.1898 209.868 86.0843C205.762 80.81 206.937 78.4664 209.868 73.7737C209.868 73.7737 243.582 26.2904 247.097 10.1694Z" fill="white"/>
</g>
<defs>
<clipPath id="clip0_4090_1379">
<rect width="253" height="151" fill="white"/>
</clipPath>
</defs>
</svg>
