<svg width="64" height="64" viewBox="0 0 64 64" fill="none" xmlns="http://www.w3.org/2000/svg">
<path d="M60 32C60 48.0163 47.464 61 32 61C24.6667 61 20.5 58.5 7.5 57C5.5 51.5 4 40.421 4 32C4 15.9837 16.536 3 32 3C47.464 3 60 15.9837 60 32Z" fill="#FCFCFC"/>
<path d="M0.267029 31.7796C0.265105 37.3803 1.72854 42.8483 4.51034 47.6675L0.457648 62.4637C0.254269 63.2062 0.931046 63.8904 1.67575 63.6951L16.8528 59.7157C21.4963 62.2479 26.7239 63.5824 32.0443 63.5846H32.0579C49.5778 63.5846 63.841 49.326 63.8484 31.8042C63.8513 23.3118 60.5471 15.3271 54.5454 9.32034C48.5429 3.31357 40.5617 0.00366545 32.0579 0C14.5343 0 0.273825 14.2559 0.266494 31.7786M10.3025 46.8372L9.67341 45.838C7.02806 41.6322 5.63188 36.7715 5.63381 31.781C5.63958 17.2172 17.4925 5.36769 32.0672 5.36769C39.1252 5.37044 45.7586 8.12201 50.7482 13.1143C55.7373 18.1069 58.4825 24.7438 58.4806 31.8017C58.4741 46.3663 46.621 58.2167 32.0572 58.2167H32.0469C27.3048 58.214 22.6542 56.9411 18.5983 54.5343L17.633 53.9621L7.63186 56.5842L10.3025 46.8372Z" fill="url(#paint0_linear_11_1794)"/>
<path fill-rule="evenodd" clip-rule="evenodd" d="M24.1127 18.4926C23.5175 17.1697 22.8914 17.1433 22.3253 17.12C21.8621 17.1003 21.3323 17.1016 20.8031 17.1016C20.2732 17.1016 19.4127 17.3004 18.685 18.0953C17.9566 18.8902 15.9045 20.8117 15.9045 24.7198C15.9045 28.6281 18.7513 32.4046 19.1479 32.9351C19.5452 33.4646 24.6433 41.741 32.7165 44.9247C39.4267 47.5707 40.7921 47.0445 42.2485 46.9119C43.7049 46.7797 46.9483 44.991 47.61 43.1361C48.272 41.2815 48.272 39.6917 48.0735 39.3597C47.875 39.0286 47.3452 38.8298 46.5509 38.4329C45.7563 38.0356 41.8512 36.1137 41.1232 35.8486C40.3949 35.5839 39.8653 35.4516 39.3355 36.2469C38.806 37.0412 37.2847 38.8298 36.8211 39.3597C36.3578 39.8905 35.8943 39.9568 35.0999 39.5595C34.3053 39.1609 31.747 38.3229 28.7121 35.6172C26.3506 33.5117 24.7565 30.9117 24.2929 30.1163C23.8297 29.3221 24.2435 28.8918 24.6417 28.4958C24.9986 28.1398 25.4363 27.5683 25.8336 27.1047C26.23 26.6408 26.3622 26.3098 26.627 25.7799C26.892 25.2498 26.7595 24.7859 26.561 24.3885C26.3622 23.9912 24.819 20.0633 24.1127 18.4926Z" fill="#2D2D2D"/>
<defs>
<linearGradient id="paint0_linear_11_1794" x1="31.9246" y1="64.1364" x2="31.9246" y2="0.00192665" gradientUnits="userSpaceOnUse">
<stop stop-color="#F9F9F9"/>
<stop offset="1" stop-color="white"/>
</linearGradient>
</defs>
</svg>
