<svg width="19" height="16" viewBox="0 0 19 16" fill="none" xmlns="http://www.w3.org/2000/svg">
<path d="M17.1519 0.124334L0.851878 6.42433C-0.248122 6.82433 -0.248122 7.52433 0.651878 7.72433L4.75188 9.02433L6.35188 13.8243C6.55188 14.3243 6.45188 14.5243 6.95188 14.5243C7.35188 14.5243 7.55188 14.3243 7.75188 14.1243C7.85188 14.0243 8.75188 13.1243 9.75188 12.1243L13.9519 15.2243C14.7519 15.6243 15.2519 15.4243 15.4519 14.5243L18.2519 1.42433C18.5519 0.324334 17.8519 -0.275666 17.1519 0.124334ZM15.0519 3.12433L7.25188 10.2243L6.95188 13.5243L5.35188 8.72433L14.5519 2.92433C14.9519 2.62433 15.3519 2.82433 15.0519 3.12433Z" fill="white"/>
</svg>
