<svg width="145" height="23" viewBox="0 0 145 23" fill="none" xmlns="http://www.w3.org/2000/svg">
<path fill-rule="evenodd" clip-rule="evenodd" d="M21.8384 17.5049C21.7612 17.5049 21.694 17.5 21.6361 17.4908C21.5783 17.4814 21.511 17.4672 21.4339 17.4483C20.5866 17.279 19.7584 16.9965 18.9496 16.6012C18.1408 16.2059 17.4186 15.7354 16.7831 15.1893C16.1476 14.6435 15.6373 14.0364 15.2522 13.3683C14.867 12.6999 14.6745 12.0269 14.6745 11.3493C14.6745 10.6715 14.867 10.0034 15.2522 9.34443C15.6373 8.68551 16.1476 8.07866 16.7831 7.52318C17.4186 6.96784 18.1408 6.49269 18.9496 6.09738C19.7584 5.70207 20.5866 5.41962 21.4339 5.25018C21.511 5.23135 21.5783 5.21722 21.6361 5.2078C21.694 5.19838 21.7612 5.19367 21.8384 5.19367C22.2235 5.19367 22.5508 5.32558 22.8205 5.58899C23.0901 5.8526 23.2249 6.17251 23.2249 6.54899C23.2249 6.90684 23.0998 7.2032 22.8494 7.43856C22.5989 7.67392 22.2909 7.82917 21.9251 7.90437C21.3279 8.03621 20.7598 8.22448 20.2207 8.46926C19.6815 8.71383 19.2048 8.99157 18.7907 9.30206C18.3767 9.61275 18.0494 9.94215 17.8086 10.2903C17.5678 10.6387 17.4475 10.9917 17.4475 11.3493C17.4475 11.7069 17.5678 12.0645 17.8086 12.4222C18.0494 12.78 18.3767 13.1141 18.7907 13.4246C19.2048 13.7353 19.6815 14.0129 20.2207 14.2576C20.7598 14.5023 21.3279 14.6812 21.9251 14.794C22.2909 14.8694 22.5989 15.0246 22.8494 15.26C23.0998 15.4954 23.2249 15.7917 23.2249 16.1494C23.2249 16.526 23.0901 16.846 22.8205 17.1096C22.5508 17.373 22.2235 17.5049 21.8384 17.5049ZM9.82146 11.3493C9.82146 10.8598 9.99479 10.4458 10.3413 10.1068C10.6882 9.768 11.1116 9.59863 11.6124 9.59863C12.113 9.59863 12.5367 9.768 12.8835 10.1068C13.2301 10.4458 13.4034 10.8598 13.4034 11.3493C13.4034 11.8386 13.2301 12.2527 12.8835 12.5918C12.5367 12.9305 12.113 13.0999 11.6124 13.0999C11.1116 13.0999 10.6882 12.9305 10.3413 12.5918C9.99479 12.2527 9.82146 11.8386 9.82146 11.3493ZM1.38652 17.5049C1.00137 17.5049 0.673885 17.373 0.404414 17.1096C0.13473 16.846 0 16.526 0 16.1494C0 15.7917 0.125095 15.4954 0.37551 15.26C0.625855 15.0246 0.93394 14.8694 1.29982 14.794C1.89678 14.6812 2.46504 14.5023 3.0042 14.2576C3.54335 14.0129 4.02003 13.7353 4.43415 13.4246C4.84821 13.1141 5.17548 12.78 5.41626 12.4222C5.65704 12.0645 5.77727 11.7069 5.77727 11.3493C5.77727 10.9917 5.65704 10.6387 5.41626 10.2903C5.17548 9.94215 4.84821 9.61275 4.43415 9.30206C4.02003 8.99157 3.54335 8.71383 3.0042 8.46926C2.46504 8.22448 1.89678 8.03621 1.29982 7.90437C0.93394 7.82917 0.625855 7.67392 0.37551 7.43856C0.125095 7.2032 0 6.90684 0 6.54899C0 6.17251 0.13473 5.8526 0.404414 5.58899C0.673885 5.32558 1.00137 5.19367 1.38652 5.19367C1.46367 5.19367 1.5309 5.19852 1.58877 5.2078C1.64658 5.21722 1.71387 5.23135 1.79095 5.25018C2.63832 5.41962 3.46643 5.70207 4.27505 6.09738C5.08389 6.49269 5.80623 6.96784 6.44173 7.52318C7.07729 8.07866 7.58755 8.68551 7.9727 9.34443C8.35778 10.0034 8.55039 10.6715 8.55039 11.3493C8.55039 12.0269 8.35778 12.6999 7.9727 13.3683C7.58755 14.0364 7.07729 14.6435 6.44173 15.1893C5.80623 15.7354 5.08389 16.2059 4.27505 16.6012C3.46643 16.9965 2.63832 17.279 1.79095 17.4483C1.71387 17.4672 1.64658 17.4814 1.58877 17.4908C1.5309 17.5002 1.46367 17.5049 1.38652 17.5049Z" fill="#C8DF30"/>
<path fill-rule="evenodd" clip-rule="evenodd" d="M17.9088 21.3492C17.9088 21.7257 17.7738 22.0458 17.5043 22.3092C17.2347 22.5728 16.9073 22.7045 16.522 22.7045C16.1561 22.7045 15.853 22.5822 15.6122 22.3374C15.3714 22.0927 15.2126 21.7916 15.1354 21.4339C15.02 20.8504 14.837 20.2949 14.5866 19.7679C14.3363 19.2409 14.0523 18.775 13.7344 18.3702C13.4168 17.9654 13.075 17.6455 12.709 17.4102C12.3431 17.1748 11.9772 17.0573 11.6113 17.0573C11.2455 17.0573 10.8845 17.1748 10.5281 17.4102C10.1718 17.6455 9.83483 17.9654 9.51697 18.3702C9.19933 18.775 8.9152 19.2409 8.665 19.7679C8.41458 20.2949 8.22197 20.8504 8.0871 21.4339C8.01017 21.7916 7.85135 22.0927 7.61056 22.3374C7.36978 22.5822 7.06659 22.7045 6.7005 22.7045C6.31535 22.7045 5.98807 22.5728 5.71839 22.3092C5.44892 22.0458 5.31396 21.7257 5.31396 21.3492C5.31396 21.2738 5.31892 21.2081 5.32842 21.1515C5.33805 21.095 5.3525 21.0292 5.37177 20.9539C5.54511 20.1256 5.83406 19.3161 6.23848 18.5257C6.6429 17.7351 7.129 17.029 7.69712 16.4078C8.26539 15.7865 8.88623 15.2878 9.56033 14.9113C10.2344 14.5348 10.918 14.3466 11.6113 14.3466C12.3046 14.3466 12.9931 14.5348 13.6769 14.9113C14.3604 15.2878 14.9814 15.7865 15.5398 16.4078C16.0985 17.029 16.5798 17.7351 16.9843 18.5257C17.3887 19.3161 17.6776 20.1256 17.8509 20.9539C17.8702 21.0292 17.8847 21.095 17.8943 21.1515C17.9039 21.2081 17.9088 21.2738 17.9088 21.3492Z" fill="#C8DF30"/>
<path fill-rule="evenodd" clip-rule="evenodd" d="M11.6119 13.105C11.1111 13.105 10.6876 12.9356 10.3408 12.5968C9.99426 12.2578 9.82092 11.8439 9.82092 11.3544C9.82092 10.865 9.99426 10.4509 10.3408 10.1119C10.6876 9.77313 11.1111 9.60369 11.6119 9.60369C12.1125 9.60369 12.5362 9.77313 12.883 10.1119C13.2295 10.4509 13.4029 10.865 13.4029 11.3544C13.4029 11.8439 13.2295 12.2578 12.883 12.5968C12.5362 12.9356 12.1125 13.105 11.6119 13.105Z" fill="white"/>
<path fill-rule="evenodd" clip-rule="evenodd" d="M17.9088 1.35531C17.9088 1.43072 17.9038 1.49643 17.8943 1.553C17.8847 1.6095 17.8702 1.67529 17.8509 1.75062C17.6776 2.57892 17.3887 3.38838 16.9843 4.17901C16.5798 4.96964 16.0985 5.67551 15.5398 6.2967C14.9814 6.91795 14.3604 7.41672 13.6769 7.7932C12.9931 8.16968 12.3046 8.35788 11.6113 8.35788C10.918 8.35788 10.2344 8.16968 9.56033 7.7932C8.88623 7.41672 8.26539 6.91795 7.69712 6.2967C7.129 5.67551 6.6429 4.96964 6.23848 4.17901C5.83406 3.38838 5.54511 2.57892 5.37177 1.75062C5.3525 1.67529 5.33805 1.6095 5.32842 1.553C5.31878 1.49643 5.31396 1.43072 5.31396 1.35531C5.31396 0.978831 5.44892 0.658925 5.71839 0.395314C5.98807 0.131702 6.31535 0 6.7005 0C7.06659 0 7.36978 0.122283 7.61056 0.367061C7.85135 0.611838 8.01017 0.912912 8.0871 1.27056C8.22197 1.85428 8.41458 2.40955 8.665 2.93657C8.9152 3.46358 9.19933 3.92959 9.51697 4.33432C9.83483 4.73906 10.1718 5.05896 10.5281 5.29432C10.8845 5.52968 11.2455 5.64726 11.6113 5.64726C11.9772 5.64726 12.3431 5.52968 12.709 5.29432C13.075 5.05896 13.4168 4.73906 13.7344 4.33432C14.0523 3.92959 14.3363 3.46358 14.5866 2.93657C14.837 2.40955 15.02 1.85428 15.1354 1.27056C15.2126 0.912912 15.3714 0.611838 15.6122 0.367061C15.853 0.122283 16.1561 0 16.522 0C16.9073 0 17.2347 0.131702 17.5043 0.395314C17.7738 0.658925 17.9088 0.978831 17.9088 1.35531Z" fill="#C8DF30"/>
<path fill-rule="evenodd" clip-rule="evenodd" d="M35.5085 22.45C35.48 22.45 35.4551 22.4486 35.4338 22.4451C35.4125 22.4415 35.3876 22.4363 35.3593 22.4291C35.0467 22.3652 34.7412 22.2586 34.4428 22.1094C34.1445 21.9602 33.8782 21.7827 33.6436 21.5766C33.4093 21.3706 33.2211 21.1415 33.079 20.8892C32.9368 20.6373 32.8659 20.3832 32.8659 20.1274C32.8659 19.8718 32.9368 19.6196 33.079 19.371C33.2211 19.1224 33.4093 18.8933 33.6436 18.6837C33.8782 18.4742 34.1445 18.2947 34.4428 18.1455C34.7412 17.9965 35.0467 17.8899 35.3593 17.826C35.3876 17.8188 35.4125 17.8136 35.4338 17.8099C35.4551 17.8064 35.48 17.8043 35.5085 17.8043C35.6504 17.8043 35.7711 17.8541 35.8707 17.9535C35.9701 18.0531 36.0199 18.1737 36.0199 18.3157C36.0199 18.4508 35.9737 18.5627 35.8814 18.6514C35.789 18.7402 35.6754 18.7989 35.5404 18.8273C35.3201 18.8769 35.1107 18.948 34.9117 19.0404C34.7127 19.1328 34.537 19.2376 34.3842 19.3547C34.2316 19.4719 34.1107 19.5962 34.0219 19.7276C33.9332 19.8591 33.8888 19.9922 33.8888 20.1272C33.8888 20.2623 33.9332 20.3972 34.0219 20.5321C34.1107 20.6671 34.2316 20.7932 34.3842 20.9105C34.537 21.0275 34.7127 21.1324 34.9117 21.2247C35.1107 21.3171 35.3201 21.3845 35.5404 21.4271C35.6754 21.4557 35.789 21.5143 35.8814 21.603C35.9737 21.6918 36.0199 21.8036 36.0199 21.9386C36.0199 22.0808 35.9701 22.2015 35.8707 22.3008C35.7711 22.4004 35.6504 22.45 35.5085 22.45ZM31.0757 20.1272C31.0757 19.9426 31.1396 19.7862 31.2676 19.6585C31.3954 19.5305 31.5517 19.4665 31.7364 19.4665C31.9211 19.4665 32.0774 19.5305 32.2052 19.6585C32.3332 19.7862 32.397 19.9426 32.397 20.1272C32.397 20.3119 32.3332 20.4681 32.2052 20.596C32.0774 20.7239 31.9211 20.7878 31.7364 20.7878C31.5517 20.7878 31.3954 20.7239 31.2676 20.596C31.1396 20.4681 31.0757 20.3119 31.0757 20.1272ZM27.9643 22.45C27.8224 22.45 27.7014 22.4004 27.6021 22.3008C27.5027 22.2015 27.4529 22.0808 27.4529 21.9386C27.4529 21.8036 27.4991 21.6918 27.5914 21.603C27.6838 21.5143 27.7974 21.4557 27.9324 21.4271C28.1527 21.3845 28.3621 21.3171 28.5611 21.2247C28.7599 21.1324 28.9358 21.0275 29.0886 20.9105C29.2412 20.7932 29.3619 20.6671 29.4509 20.5321C29.5396 20.3972 29.584 20.2623 29.584 20.1272C29.584 19.9922 29.5396 19.8591 29.4509 19.7276C29.3619 19.5962 29.2412 19.4719 29.0886 19.3547C28.9358 19.2376 28.7599 19.1328 28.5611 19.0404C28.3621 18.948 28.1527 18.8769 27.9324 18.8273C27.7974 18.7989 27.6838 18.7402 27.5914 18.6514C27.4991 18.5627 27.4529 18.4508 27.4529 18.3157C27.4529 18.1737 27.5027 18.0531 27.6021 17.9535C27.7014 17.8541 27.8224 17.8043 27.9643 17.8043C27.9928 17.8043 28.0177 17.8057 28.039 17.8099C28.0603 17.8135 28.0852 17.8188 28.1135 17.826C28.4261 17.8899 28.7316 17.9965 29.03 18.1455C29.3282 18.2947 29.5946 18.4742 29.8289 18.6837C30.0635 18.8933 30.2517 19.1224 30.3938 19.371C30.5358 19.6196 30.6069 19.8718 30.6069 20.1274C30.6069 20.3832 30.5358 20.6373 30.3938 20.8892C30.2517 21.1415 30.0635 21.3706 29.8289 21.5766C29.5946 21.7827 29.3282 21.9602 29.03 22.1094C28.7316 22.2586 28.4261 22.3652 28.1135 22.4291C28.0852 22.4363 28.0603 22.4415 28.039 22.4451C28.0177 22.4486 27.9928 22.45 27.9643 22.45ZM43.5745 21.4271C43.8161 21.4271 44.0149 21.3828 44.1714 21.294C44.3276 21.2053 44.45 21.0968 44.5388 20.9689C44.6278 20.8412 44.688 20.7008 44.7201 20.548C44.7521 20.3954 44.7679 20.2551 44.7679 20.1272C44.7679 19.9994 44.7521 19.8591 44.7201 19.7062C44.688 19.5536 44.6278 19.4133 44.5388 19.2854C44.45 19.1577 44.3276 19.0492 44.1714 18.9605C44.0149 18.8718 43.8161 18.8273 43.5745 18.8273H39.2697C39.0211 18.8273 38.8205 18.8718 38.6677 18.9605C38.5151 19.0492 38.3942 19.1577 38.3055 19.2854C38.2167 19.4133 38.1563 19.5536 38.1243 19.7062C38.0925 19.8591 38.0764 19.9994 38.0764 20.1272C38.0764 20.2551 38.0925 20.3954 38.1243 20.548C38.1563 20.7008 38.2167 20.8412 38.3055 20.9689C38.3942 21.0968 38.5151 21.2053 38.6677 21.294C38.8205 21.3828 39.0211 21.4271 39.2697 21.4271H43.5745ZM45.7588 20.1272C45.7588 20.3972 45.7145 20.6689 45.6257 20.9424C45.537 21.2159 45.4073 21.4645 45.2368 21.6882C45.0663 21.9121 44.8603 22.095 44.6187 22.237C44.3773 22.3791 44.1038 22.45 43.7985 22.45H38.9394C38.6483 22.436 38.389 22.356 38.1617 22.2102C37.9344 22.0647 37.7408 21.8818 37.581 21.6617C37.4211 21.4414 37.2984 21.1962 37.2133 20.9264C37.128 20.6565 37.0854 20.39 37.0854 20.1272C37.0854 19.8573 37.1298 19.5856 37.2185 19.3121C37.3075 19.0386 37.437 18.79 37.6075 18.5663C37.7779 18.3424 37.984 18.1595 38.2256 18.0175C38.4671 17.8753 38.7406 17.8043 39.046 17.8043H43.9049C44.1962 17.8185 44.4555 17.8984 44.6828 18.044C44.9101 18.1898 45.1037 18.3728 45.2635 18.5928C45.4234 18.8131 45.5458 19.0581 45.6312 19.3282C45.7164 19.5981 45.7588 19.8643 45.7588 20.1272ZM48.039 20.1272C48.039 19.9852 48.0888 19.8643 48.1882 19.7649C48.2878 19.6655 48.4085 19.6157 48.5507 19.6157H53.8462C53.9529 19.6157 54.0452 19.5767 54.1234 19.4986C54.2014 19.4203 54.2406 19.3246 54.2406 19.2109C54.2406 19.1042 54.2014 19.0137 54.1234 18.9392C54.0452 18.8645 53.9529 18.8273 53.8462 18.8273H47.3358C47.1938 18.8273 47.0729 18.7775 46.9735 18.6781C46.8741 18.5785 46.8243 18.4578 46.8243 18.3157C46.8243 18.1737 46.8741 18.0531 46.9735 17.9535C47.0729 17.8541 47.1938 17.8043 47.3358 17.8043H53.793C53.992 17.8043 54.1783 17.8398 54.3525 17.9109C54.5266 17.9819 54.6773 18.0813 54.8053 18.2093C54.9332 18.3372 55.0344 18.4864 55.1089 18.6569C55.1836 18.8273 55.2209 19.0119 55.2209 19.2109C55.2209 19.3884 55.1906 19.5555 55.1303 19.7117C55.0699 19.8679 54.9864 20.0064 54.88 20.1272C55.1073 20.3972 55.2209 20.7027 55.2209 21.0436C55.2209 21.2424 55.1836 21.4271 55.1089 21.5976C55.0344 21.7681 54.9332 21.9173 54.8053 22.0452C54.6773 22.1731 54.5266 22.2725 54.3525 22.3436C54.1783 22.4145 53.992 22.45 53.793 22.45H47.3358C47.1938 22.45 47.0729 22.4004 46.9735 22.3008C46.8741 22.2015 46.8243 22.0808 46.8243 21.9386C46.8243 21.7966 46.8741 21.6758 46.9735 21.5763C47.0729 21.4769 47.1938 21.4271 47.3358 21.4271H53.8462C53.9529 21.4271 54.0452 21.3898 54.1234 21.3153C54.2014 21.2408 54.2406 21.1502 54.2406 21.0436C54.2406 20.93 54.2014 20.834 54.1234 20.7559C54.0452 20.6777 53.9529 20.6386 53.8462 20.6386H48.5507C48.4085 20.6386 48.2878 20.589 48.1882 20.4896C48.0888 20.39 48.039 20.2693 48.039 20.1272ZM57.725 20.6386C57.526 20.6386 57.3396 20.6014 57.1655 20.5268C56.9914 20.4522 56.8388 20.351 56.7073 20.2231C56.576 20.0952 56.4729 19.946 56.3982 19.7755C56.3238 19.6051 56.2864 19.4203 56.2864 19.2216C56.2864 19.0225 56.3238 18.838 56.3982 18.6675C56.4729 18.497 56.576 18.3478 56.7073 18.2199C56.8388 18.092 56.9914 17.9908 57.1655 17.9163C57.3396 17.8416 57.526 17.8043 57.725 17.8043H64.1075C64.2497 17.8043 64.3703 17.8541 64.4697 17.9535C64.5693 18.0531 64.6189 18.1737 64.6189 18.3157C64.6189 18.4578 64.5693 18.5785 64.4697 18.6781C64.3703 18.7775 64.2497 18.8273 64.1075 18.8273H57.6824C57.5758 18.8273 57.4816 18.8663 57.3999 18.9444C57.3183 19.0225 57.2773 19.1149 57.2773 19.2216C57.2773 19.3352 57.3183 19.4293 57.3999 19.5038C57.4816 19.5786 57.5758 19.6157 57.6824 19.6157H63.3297C63.5143 19.6157 63.6848 19.6494 63.8412 19.7169C63.9975 19.7844 64.1324 19.8767 64.246 19.994C64.3597 20.1113 64.4503 20.2499 64.5177 20.4097C64.5852 20.5696 64.6189 20.7382 64.6189 20.9157V21.9386C64.6189 22.0808 64.5693 22.2015 64.4697 22.3008C64.3703 22.4004 64.2497 22.45 64.1075 22.45C63.9725 22.45 63.8534 22.4004 63.7506 22.3008C63.6476 22.2015 63.596 22.0808 63.596 21.9386V21.033C63.596 20.9264 63.5641 20.8376 63.5002 20.7665C63.4362 20.6954 63.3581 20.6529 63.2657 20.6386H61.1452C60.7617 20.6386 60.3924 20.6848 60.0372 20.7772C59.6819 20.8696 59.3392 20.9938 59.0089 21.1502C58.6786 21.3065 58.3607 21.484 58.0553 21.683C57.7498 21.8818 57.4514 22.0878 57.1601 22.3008C57.0394 22.4004 56.9187 22.45 56.7978 22.45C56.6558 22.45 56.535 22.4004 56.4356 22.3008C56.3362 22.2015 56.2864 22.0808 56.2864 21.9386C56.2864 21.8392 56.3149 21.7523 56.3717 21.6775C56.4285 21.603 56.496 21.5374 56.5741 21.4805C56.7802 21.3171 56.9826 21.1661 57.1816 21.0275C57.3804 20.889 57.5758 20.7595 57.7675 20.6386H57.725ZM66.7073 20.4149C66.7073 20.6707 66.7215 20.8659 66.75 21.001C66.7784 21.136 66.8458 21.2035 66.9524 21.2035C67.0093 21.2035 67.082 21.1804 67.1709 21.1342C67.2597 21.088 67.3715 21.0258 67.5065 20.9476L72.3866 17.9641C72.4649 17.9145 72.5518 17.8753 72.6478 17.847C72.7436 17.8185 72.8414 17.8043 72.9408 17.8043C73.2319 17.8043 73.4754 17.9039 73.6707 18.1026C73.8661 18.3016 73.9637 18.5466 73.9637 18.838V21.9386C73.9637 22.0808 73.9139 22.2015 73.8145 22.3008C73.7151 22.4004 73.5942 22.45 73.4523 22.45C73.3101 22.45 73.1894 22.4004 73.09 22.3008C72.9904 22.2015 72.9408 22.0808 72.9408 21.9386V19.8396C72.9408 19.5838 72.9266 19.3884 72.8982 19.2534C72.8697 19.1185 72.8022 19.051 72.6956 19.051C72.6388 19.051 72.5661 19.0741 72.4772 19.1203C72.3884 19.1665 72.2766 19.2286 72.1416 19.3066L67.2615 22.2902C67.1834 22.34 67.0962 22.3791 67.0005 22.4075C66.9045 22.436 66.8069 22.45 66.7073 22.45C66.4161 22.45 66.1727 22.3507 65.9773 22.1519C65.7822 21.9528 65.6844 21.7079 65.6844 21.4165V18.3157C65.6844 18.1737 65.7342 18.0531 65.8336 17.9535C65.933 17.8541 66.0538 17.8043 66.1958 17.8043C66.338 17.8043 66.4587 17.8541 66.5581 17.9535C66.6577 18.0531 66.7073 18.1737 66.7073 18.3157V20.4149ZM83.3723 21.9386C83.3723 22.0808 83.3227 22.2015 83.2231 22.3008C83.1237 22.4004 83.003 22.45 82.8609 22.45C82.7189 22.45 82.598 22.4004 82.4987 22.3008C82.3992 22.2015 82.3494 22.0808 82.3494 21.9386V20.6386H76.052V21.9386C76.052 22.0808 76.0025 22.2015 75.9029 22.3008C75.8035 22.4004 75.6828 22.45 75.5406 22.45C75.3986 22.45 75.2778 22.4004 75.1784 22.3008C75.0789 22.2015 75.0291 22.0808 75.0291 21.9386V18.3157C75.0291 18.1737 75.0789 18.0531 75.1784 17.9535C75.2778 17.8541 75.3986 17.8043 75.5406 17.8043C75.6828 17.8043 75.8035 17.8541 75.9029 17.9535C76.0025 18.0531 76.052 18.1737 76.052 18.3157V19.6157H82.3494V18.3157C82.3494 18.1737 82.3992 18.0531 82.4987 17.9535C82.598 17.8541 82.7189 17.8043 82.8609 17.8043C83.003 17.8043 83.1237 17.8541 83.2231 17.9535C83.3227 18.0531 83.3723 18.1737 83.3723 18.3157V21.9386ZM89.233 20.1272C89.233 19.8573 89.2774 19.5856 89.3661 19.3121C89.455 19.0386 89.5846 18.79 89.755 18.5663C89.9255 18.3424 90.1315 18.1595 90.3731 18.0175C90.6147 17.8753 90.8882 17.8043 91.1936 17.8043H97.4056C97.5478 17.8043 97.6685 17.8541 97.7679 17.9535C97.8675 18.0531 97.9171 18.1737 97.9171 18.3157C97.9171 18.4578 97.8675 18.5785 97.7679 18.6781C97.6685 18.7775 97.5478 18.8273 97.4056 18.8273H91.4173C91.1687 18.8273 90.9681 18.8718 90.8153 18.9605C90.6627 19.0492 90.5418 19.1577 90.453 19.2854C90.3643 19.4133 90.3038 19.5536 90.2719 19.7062C90.24 19.8591 90.2239 19.9994 90.2239 20.1272C90.2239 20.2551 90.24 20.3954 90.2719 20.548C90.3038 20.7008 90.3643 20.8412 90.453 20.9689C90.5418 21.0968 90.6627 21.2053 90.8153 21.294C90.9681 21.3828 91.1687 21.4271 91.4173 21.4271H97.4056C97.5478 21.4271 97.6685 21.4769 97.7679 21.5763C97.8675 21.6758 97.9171 21.7966 97.9171 21.9386C97.9171 22.0808 97.8675 22.2015 97.7679 22.3008C97.6685 22.4004 97.5478 22.45 97.4056 22.45H91.087C90.7958 22.45 90.5366 22.3791 90.3093 22.237C90.082 22.095 89.8884 21.9121 89.7286 21.6882C89.5687 21.4645 89.446 21.2141 89.3609 20.937C89.2755 20.6601 89.233 20.39 89.233 20.1272ZM100.006 20.4149C100.006 20.6707 100.02 20.8659 100.048 21.001C100.077 21.136 100.144 21.2035 100.251 21.2035C100.308 21.2035 100.38 21.1804 100.469 21.1342C100.558 21.088 100.67 21.0258 100.805 20.9476L105.685 17.9641C105.763 17.9145 105.85 17.8753 105.946 17.847C106.042 17.8185 106.14 17.8043 106.239 17.8043C106.53 17.8043 106.774 17.9039 106.969 18.1026C107.164 18.3016 107.262 18.5466 107.262 18.838V21.9386C107.262 22.0808 107.212 22.2015 107.113 22.3008C107.013 22.4004 106.893 22.45 106.751 22.45C106.608 22.45 106.488 22.4004 106.388 22.3008C106.289 22.2015 106.239 22.0808 106.239 21.9386V19.8396C106.239 19.5838 106.225 19.3884 106.197 19.2534C106.168 19.1185 106.101 19.051 105.994 19.051C105.937 19.051 105.865 19.0741 105.776 19.1203C105.687 19.1665 105.575 19.2286 105.44 19.3066L100.56 22.2902C100.482 22.34 100.395 22.3791 100.299 22.4075C100.203 22.436 100.105 22.45 100.006 22.45C99.7145 22.45 99.4711 22.3507 99.2757 22.1519C99.0806 21.9528 98.9827 21.7079 98.9827 21.4165V18.3157C98.9827 18.1737 99.0325 18.0531 99.132 17.9535C99.2314 17.8541 99.3522 17.8043 99.4942 17.8043C99.6364 17.8043 99.7571 17.8541 99.8565 17.9535C99.9561 18.0531 100.006 18.1737 100.006 18.3157V20.4149ZM109.35 20.6173V21.4271H115.264C115.371 21.4271 115.465 21.3882 115.547 21.3099C115.628 21.2318 115.669 21.1394 115.669 21.033C115.669 20.9194 115.628 20.8251 115.547 20.7506C115.465 20.6759 115.371 20.6386 115.264 20.6386H109.606C109.514 20.6386 109.429 20.6315 109.35 20.6173ZM108.328 18.3157C108.328 18.1737 108.377 18.0531 108.477 17.9535C108.576 17.8541 108.697 17.8043 108.839 17.8043C108.875 17.8043 108.91 17.8078 108.946 17.8149H115.712C115.854 17.8149 115.975 17.8647 116.074 17.9641C116.173 18.0637 116.223 18.1844 116.223 18.3266C116.223 18.4685 116.173 18.5892 116.074 18.6888C115.975 18.7882 115.854 18.838 115.712 18.838H109.35V19.2216C109.35 19.3282 109.383 19.4169 109.446 19.488C109.51 19.5589 109.588 19.6017 109.681 19.6157H115.222C115.421 19.6157 115.607 19.653 115.781 19.7276C115.955 19.8022 116.108 19.9034 116.239 20.0314C116.371 20.1592 116.474 20.3083 116.548 20.4787C116.623 20.6494 116.66 20.834 116.66 21.033C116.66 21.2318 116.623 21.4165 116.548 21.587C116.474 21.7574 116.371 21.9066 116.239 22.0346C116.108 22.1625 115.955 22.2637 115.781 22.3382C115.607 22.4129 115.421 22.45 115.222 22.45H108.839C108.697 22.45 108.576 22.4004 108.477 22.3008C108.377 22.2015 108.328 22.0808 108.328 21.9386C108.328 21.896 108.331 21.8568 108.338 21.8215C108.331 21.786 108.328 21.7468 108.328 21.7042V18.3157ZM118.748 20.4149C118.748 20.6707 118.763 20.8659 118.791 21.001C118.82 21.136 118.887 21.2035 118.994 21.2035C119.05 21.2035 119.123 21.1804 119.212 21.1342C119.301 21.088 119.413 21.0258 119.548 20.9476L124.428 17.9641C124.506 17.9145 124.593 17.8753 124.689 17.847C124.785 17.8185 124.883 17.8043 124.982 17.8043C125.273 17.8043 125.516 17.9039 125.712 18.1026C125.907 18.3016 126.005 18.5466 126.005 18.838V21.9386C126.005 22.0808 125.955 22.2015 125.856 22.3008C125.756 22.4004 125.635 22.45 125.493 22.45C125.351 22.45 125.231 22.4004 125.131 22.3008C125.032 22.2015 124.982 22.0808 124.982 21.9386V19.8396C124.982 19.5838 124.968 19.3884 124.939 19.2534C124.911 19.1185 124.843 19.051 124.737 19.051C124.68 19.051 124.607 19.0741 124.518 19.1203C124.43 19.1665 124.318 19.2286 124.183 19.3066L119.303 22.2902C119.225 22.34 119.137 22.3791 119.042 22.4075C118.946 22.436 118.848 22.45 118.748 22.45C118.457 22.45 118.214 22.3507 118.018 22.1519C117.823 21.9528 117.726 21.7079 117.726 21.4165V18.3157C117.726 18.1737 117.775 18.0531 117.875 17.9535C117.974 17.8541 118.095 17.8043 118.237 17.8043C118.379 17.8043 118.5 17.8541 118.599 17.9535C118.699 18.0531 118.748 18.1737 118.748 18.3157V20.4149ZM128.093 18.8273V19.6157H134.007C134.114 19.6157 134.208 19.5786 134.289 19.5038C134.371 19.4293 134.412 19.3352 134.412 19.2216C134.412 19.1149 134.371 19.0225 134.289 18.9444C134.208 18.8663 134.114 18.8273 134.007 18.8273H128.093ZM133.964 17.8043C134.163 17.8043 134.35 17.8416 134.524 17.9163C134.698 17.9908 134.851 18.092 134.982 18.2199C135.113 18.3478 135.216 18.497 135.291 18.6675C135.366 18.838 135.403 19.0225 135.403 19.2216C135.403 19.4203 135.366 19.6051 135.291 19.7755C135.216 19.946 135.113 20.0952 134.982 20.2231C134.851 20.351 134.698 20.4522 134.524 20.5268C134.35 20.6014 134.163 20.6386 133.964 20.6386H128.093V21.9386C128.093 22.0808 128.042 22.2015 127.939 22.3008C127.836 22.4004 127.717 22.45 127.582 22.45C127.44 22.45 127.319 22.4004 127.22 22.3008C127.12 22.2015 127.07 22.0808 127.07 21.9386V18.3157C127.07 18.1737 127.12 18.0531 127.22 17.9535C127.319 17.8541 127.44 17.8043 127.582 17.8043H133.964ZM137.491 20.4149C137.491 20.6707 137.505 20.8659 137.534 21.001C137.562 21.136 137.63 21.2035 137.736 21.2035C137.793 21.2035 137.866 21.1804 137.955 21.1342C138.044 21.088 138.155 21.0258 138.29 20.9476L143.17 17.9641C143.249 17.9145 143.336 17.8753 143.432 17.847C143.528 17.8185 143.625 17.8043 143.725 17.8043C144.016 17.8043 144.259 17.9039 144.455 18.1026C144.65 18.3016 144.748 18.5466 144.748 18.838V21.9386C144.748 22.0808 144.698 22.2015 144.598 22.3008C144.499 22.4004 144.378 22.45 144.236 22.45C144.094 22.45 143.973 22.4004 143.874 22.3008C143.774 22.2015 143.725 22.0808 143.725 21.9386V19.8396C143.725 19.5838 143.71 19.3884 143.682 19.2534C143.654 19.1185 143.586 19.051 143.48 19.051C143.423 19.051 143.35 19.0741 143.261 19.1203C143.172 19.1665 143.06 19.2286 142.926 19.3066L138.045 22.2902C137.967 22.34 137.88 22.3791 137.784 22.4075C137.688 22.436 137.591 22.45 137.491 22.45C137.2 22.45 136.957 22.3507 136.761 22.1519C136.566 21.9528 136.468 21.7079 136.468 21.4165V18.3157C136.468 18.1737 136.518 18.0531 136.618 17.9535C136.717 17.8541 136.838 17.8043 136.98 17.8043C137.122 17.8043 137.243 17.8541 137.342 17.9535C137.442 18.0531 137.491 18.1737 137.491 18.3157V20.4149Z" fill="white"/>
<path fill-rule="evenodd" clip-rule="evenodd" d="M32.2303 0.594306H34.7703L39.8686 13.8415H37.2455L36.2124 11.111H30.7819L29.7243 13.8415H27.1012L32.2303 0.594306ZM33.5034 4.11521L31.7076 8.6754H35.29L33.5034 4.11521ZM41.8088 13.8415V0.594306H43.9C45.1145 0.594306 46.0002 0.671233 46.5628 0.828C47.3592 1.0403 47.9927 1.43084 48.4632 1.99975C48.9337 2.57163 49.1705 3.2451 49.1705 4.02C49.1705 4.52424 49.0628 4.98242 48.8506 5.39449C48.6385 5.80656 48.291 6.19391 47.8112 6.5537C48.6138 6.93205 49.2011 7.40256 49.5733 7.9714C49.9454 8.53705 50.1299 9.20754 50.1299 9.98244C50.1299 10.7264 49.9361 11.4029 49.5518 12.015C49.1643 12.6268 48.666 13.0851 48.0572 13.3865C47.4484 13.6909 46.609 13.8415 45.5357 13.8415H41.8088ZM44.318 2.99291V5.79728H44.8809C45.5082 5.79728 45.9755 5.66821 46.2799 5.40674C46.5843 5.14854 46.7351 4.79491 46.7351 4.34891C46.7351 3.93387 46.5905 3.60474 46.3014 3.35872C46.0124 3.11596 45.5726 2.99291 44.9823 2.99291H44.318ZM44.318 8.04812V11.4429H44.9576C46.0187 11.4429 46.7351 11.3107 47.104 11.0463C47.473 10.7819 47.6576 10.3975 47.6576 9.89312C47.6576 9.32421 47.4424 8.87219 47.0086 8.54328C46.5751 8.21416 45.8556 8.04812 44.8499 8.04812H44.318ZM51.2369 0.594306H58.5614V3.08507H56.1446V13.8415H53.5799V3.08507H51.2369V0.594306ZM66.5227 0.262351C68.3954 0.262351 70.0066 0.941912 71.3534 2.29791C72.7034 3.65391 73.3769 5.30835 73.3769 7.25798C73.3769 9.19209 72.7127 10.8281 71.3811 12.1656C70.0528 13.5034 68.4383 14.1736 66.5412 14.1736C64.5516 14.1736 62.9004 13.4849 61.5873 12.1102C60.2713 10.7357 59.6132 9.10291 59.6132 7.21179C59.6132 5.94788 59.9206 4.78244 60.5325 3.71859C61.1445 2.65777 61.9871 1.81514 63.0572 1.1941C64.1303 0.572838 65.2865 0.262351 66.5227 0.262351ZM66.4857 2.73463C65.265 2.73463 64.2379 3.16193 63.4076 4.01377C62.5743 4.86561 62.1592 5.94788 62.1592 7.264C62.1592 8.72782 62.6819 9.88709 63.7305 10.7389C64.5453 11.4062 65.4771 11.7383 66.5319 11.7383C67.7218 11.7383 68.7368 11.3045 69.5731 10.4405C70.4126 9.5764 70.8307 8.51253 70.8307 7.24572C70.8307 5.98486 70.4094 4.91782 69.5638 4.04451C68.7212 3.17121 67.6941 2.73463 66.4857 2.73463ZM81.8608 11.5722V0.594306H84.407V11.5722H88.0046V0.594306H90.5692V13.8415H75.7538V0.594306H78.3184V11.5722H81.8608ZM93.5919 0.594306H96.1381V5.17624L99.7234 0.594306H102.765L98.1367 6.50751L103.214 13.8415H100.222L96.1381 7.94051V13.8415H93.5919V0.594306ZM111.261 0.262351C113.134 0.262351 114.745 0.941912 116.092 2.29791C117.442 3.65391 118.115 5.30835 118.115 7.25798C118.115 9.19209 117.451 10.8281 116.119 12.1656C114.791 13.5034 113.177 14.1736 111.279 14.1736C109.29 14.1736 107.639 13.4849 106.326 12.1102C105.01 10.7357 104.352 9.10291 104.352 7.21179C104.352 5.94788 104.659 4.78244 105.271 3.71859C105.883 2.65777 106.725 1.81514 107.796 1.1941C108.869 0.572838 110.025 0.262351 111.261 0.262351ZM111.224 2.73463C110.003 2.73463 108.976 3.16193 108.146 4.01377C107.313 4.86561 106.897 5.94788 106.897 7.264C106.897 8.72782 107.42 9.88709 108.469 10.7389C109.284 11.4062 110.215 11.7383 111.27 11.7383C112.46 11.7383 113.475 11.3045 114.311 10.4405C115.151 9.5764 115.569 8.51253 115.569 7.24572C115.569 5.98486 115.148 4.91782 114.302 4.04451C113.46 3.17121 112.432 2.73463 111.224 2.73463ZM129.093 13.8415L125.418 4.13065L121.688 13.8415H119.013L124.13 0.594306H126.688L131.79 13.8415H129.093ZM137.362 0.594306H139.902L145 13.8415H142.377L141.344 11.111H135.913L134.856 13.8415H132.232L137.362 0.594306ZM138.635 4.11521L136.839 8.6754H140.421L138.635 4.11521Z" fill="white"/>
</svg>
