<svg width="196" height="197" viewBox="0 0 196 197" fill="none" xmlns="http://www.w3.org/2000/svg">
<mask id="mask0_11_2485" style="mask-type:alpha" maskUnits="userSpaceOnUse" x="0" y="0" width="196" height="197">
<rect width="195.791" height="196.904" rx="3.47084" fill="#D9D9D9"/>
</mask>
<g mask="url(#mask0_11_2485)">
<path fill-rule="evenodd" clip-rule="evenodd" d="M340.394 112.204C339.203 112.204 338.165 112.129 337.272 111.986C336.38 111.841 335.341 111.622 334.152 111.331C321.073 108.717 308.292 104.357 295.808 98.2561C283.325 92.1548 272.179 84.8929 262.371 76.4649C252.561 68.0402 244.686 58.6708 238.742 48.3587C232.797 38.0434 229.826 27.6554 229.826 17.1969C229.826 6.73629 232.797 -3.57581 238.742 -13.7458C244.686 -23.9157 252.561 -33.2819 262.371 -41.8552C272.179 -50.4263 283.325 -57.7598 295.808 -63.8612C308.292 -69.9625 321.073 -74.3218 334.152 -76.937C335.341 -77.2277 336.38 -77.4457 337.272 -77.5911C338.165 -77.7364 339.203 -77.8091 340.394 -77.8091C346.338 -77.8091 351.389 -75.7732 355.552 -71.7078C359.714 -67.6392 361.793 -62.7016 361.793 -56.891C361.793 -51.3678 359.863 -46.7937 355.998 -43.1612C352.133 -39.5286 347.379 -37.1325 341.732 -35.9719C332.515 -33.937 323.748 -31.0312 315.426 -27.2532C307.105 -23.4785 299.747 -19.1919 293.356 -14.3998C286.966 -9.60441 281.914 -4.52051 278.198 0.85302C274.482 6.23082 272.625 11.6781 272.625 17.1969C272.625 22.7169 274.482 28.2368 278.198 33.7567C281.914 39.2788 286.966 44.4354 293.356 49.2275C299.747 54.0229 307.105 58.3074 315.426 62.0843C323.748 65.8622 332.515 68.6228 341.732 70.3637C347.379 71.5275 352.133 73.9235 355.998 77.5561C359.863 81.1886 361.793 85.7629 361.793 91.2828C361.793 97.0956 359.714 102.034 355.552 106.103C351.389 110.168 346.338 112.204 340.394 112.204ZM154.923 17.1969C154.923 9.64214 157.598 3.25337 162.947 -1.97908C168.3 -7.20833 174.836 -9.82244 182.565 -9.82244C190.292 -9.82244 196.831 -7.20833 202.184 -1.97908C207.532 3.25337 210.208 9.64214 210.208 17.1969C210.208 24.7496 207.532 31.1416 202.184 36.3741C196.831 41.6022 190.292 44.2174 182.565 44.2174C174.836 44.2174 168.3 41.6022 162.947 36.3741C157.598 31.1416 154.923 24.7496 154.923 17.1969ZM24.7372 112.204C18.7927 112.204 13.7382 110.168 9.57918 106.103C5.41685 102.034 3.3374 97.0956 3.3374 91.2828C3.3374 85.7629 5.26813 81.1886 9.13308 77.5561C12.9969 73.9235 17.752 71.5275 23.399 70.3637C32.6126 68.6228 41.3833 65.8622 49.7046 62.0843C58.026 58.3074 65.3831 54.0229 71.7748 49.2275C78.1653 44.4354 83.2165 39.2788 86.9328 33.7567C90.649 28.2368 92.5046 22.7169 92.5046 17.1969C92.5046 11.6781 90.649 6.23082 86.9328 0.85302C83.2165 -4.52051 78.1653 -9.60441 71.7748 -14.3998C65.3831 -19.1919 58.026 -23.4785 49.7046 -27.2532C41.3833 -31.0312 32.6126 -33.937 23.399 -35.9719C17.752 -37.1325 12.9969 -39.5286 9.13308 -43.1612C5.26813 -46.7937 3.3374 -51.3678 3.3374 -56.891C3.3374 -62.7016 5.41685 -67.6392 9.57918 -71.7078C13.7382 -75.7732 18.7927 -77.8091 24.7372 -77.8091C25.9278 -77.8091 26.9655 -77.7343 27.8587 -77.5911C28.7509 -77.4457 29.7896 -77.2277 30.9791 -76.937C44.0576 -74.3218 56.8387 -69.9625 69.3192 -63.8612C81.8029 -57.7598 92.9516 -50.4263 102.76 -41.8552C112.569 -33.2819 120.445 -23.9157 126.389 -13.7458C132.333 -3.57581 135.305 6.73629 135.305 17.1969C135.305 27.6554 132.333 38.0434 126.389 48.3587C120.445 58.6708 112.569 68.0402 102.76 76.4649C92.9516 84.8929 81.8029 92.1548 69.3192 98.2561C56.8387 104.357 44.0576 108.717 30.9791 111.331C29.7896 111.622 28.7509 111.841 27.8587 111.986C26.9655 112.131 25.9278 112.204 24.7372 112.204Z" fill="#C8DF30"/>
<path fill-rule="evenodd" clip-rule="evenodd" d="M279.744 171.535C279.744 177.346 277.661 182.287 273.502 186.352C269.34 190.421 264.287 192.454 258.341 192.454C252.694 192.454 248.014 190.566 244.298 186.788C240.582 183.011 238.13 178.364 236.94 172.844C235.159 163.838 232.335 155.264 228.47 147.13C224.606 138.996 220.223 131.805 215.317 125.557C210.414 119.31 205.139 114.373 199.49 110.74C193.843 107.108 188.196 105.294 182.548 105.294C176.902 105.294 171.33 107.108 165.829 110.74C160.331 114.373 155.13 119.31 150.224 125.557C145.321 131.805 140.936 138.996 137.074 147.13C133.209 155.264 130.237 163.838 128.155 172.844C126.968 178.364 124.516 183.011 120.8 186.788C117.084 190.566 112.404 192.454 106.754 192.454C100.809 192.454 95.7583 190.421 91.5959 186.352C87.4369 182.287 85.354 177.346 85.354 171.535C85.354 170.372 85.4305 169.357 85.5771 168.484C85.7257 167.612 85.9488 166.597 86.2462 165.434C88.9216 152.65 93.3813 140.157 99.6231 127.957C105.865 115.755 113.367 104.857 122.136 95.2694C130.907 85.6808 140.489 77.9829 150.893 72.1723C161.297 66.3616 171.847 63.4568 182.548 63.4568C193.248 63.4568 203.875 66.3616 214.428 72.1723C224.978 77.9829 234.563 85.6808 243.182 95.2694C251.804 104.857 259.233 115.755 265.475 127.957C271.717 140.157 276.176 152.65 278.851 165.434C279.149 166.597 279.372 167.612 279.521 168.484C279.67 169.357 279.744 170.372 279.744 171.535Z" fill="#C8DF30"/>
<path fill-rule="evenodd" clip-rule="evenodd" d="M182.555 44.2938C174.827 44.2938 168.29 41.6786 162.937 36.4505C157.589 31.218 154.914 24.8292 154.914 17.2745C154.914 9.72181 157.589 3.32976 162.937 -1.9027C168.29 -7.13087 174.827 -9.74597 182.555 -9.74597C190.282 -9.74597 196.821 -7.13087 202.174 -1.9027C207.523 3.32976 210.198 9.72181 210.198 17.2745C210.198 24.8292 207.523 31.218 202.174 36.4505C196.821 41.6786 190.282 44.2938 182.555 44.2938Z" fill="white"/>
</g>
</svg>
