<svg width="237" height="312" viewBox="0 0 237 312" fill="none" xmlns="http://www.w3.org/2000/svg">
<path d="M0 118.055C0 52.8549 52.8549 0 118.055 0C183.254 0 236.108 52.8543 236.108 118.053V312H0V118.055Z" fill="#C8DF30"/>
<mask id="mask0_4040_1248" style="mask-type:alpha" maskUnits="userSpaceOnUse" x="0" y="0" width="237" height="312">
<path d="M0 118.055C0 52.8549 52.8549 0 118.055 0C183.254 0 236.108 52.8543 236.108 118.053V312H0V118.055Z" fill="#F0F0F0"/>
</mask>
<g mask="url(#mask0_4040_1248)">
<path d="M121.411 -97L123.148 95.6689L152.92 -94.6938L126.586 96.1749L183.758 -87.8243L129.914 97.1761L213.267 -76.538L133.061 98.6512L240.819 -61.0754L135.96 100.569L265.825 -41.766L138.548 102.888L287.754 -19.0215L140.771 105.559L306.137 6.67355L142.581 108.526L320.583 34.7713L143.941 111.724L330.784 64.6731L144.82 115.087L336.523 95.7414L145.2 118.541L337.677 127.314L145.073 122.014L334.221 158.719L144.442 125.432L326.23 189.285L143.32 128.721L313.874 218.363L141.73 131.812L297.415 245.331L139.708 134.638L277.205 269.615L137.296 137.14L253.675 290.699L134.545 139.264L227.326 308.131L131.515 140.965L198.719 321.541L128.269 142.206L168.465 330.644L124.877 142.962L137.207 335.244L121.411 143.216L105.614 335.244L117.944 142.962L74.3564 330.644L114.552 142.206L44.102 321.541L111.306 140.965L15.4954 308.131L108.276 139.264L-10.8539 290.699L105.525 137.14L-34.3842 269.615L103.113 134.638L-54.5939 245.331L101.091 131.812L-71.0525 218.363L99.5015 128.721L-83.409 189.285L98.3794 125.432L-91.4002 158.719L97.7482 122.014L-94.8556 127.314L97.6212 118.541L-93.7018 95.7414L98.0013 115.087L-87.9631 64.6731L98.8804 111.724L-77.7621 34.7713L100.24 108.526L-63.316 6.67355L102.05 105.559L-44.9328 -19.0215L104.273 102.888L-23.0043 -41.766L106.861 100.569L2.00217 -61.0754L109.76 98.6512L29.5536 -76.538L112.907 97.1761L59.0629 -87.8243L116.235 96.1749L89.9009 -94.6938L119.673 95.6689L121.411 -97Z" fill="#EEEEEE"/>
</g>
</svg>
