<svg width="86" height="84" viewBox="0 0 86 84" fill="none" xmlns="http://www.w3.org/2000/svg">
<path fill-rule="evenodd" clip-rule="evenodd" d="M80.137 64.234C79.8539 64.234 79.6072 64.2162 79.3948 64.1822C79.1827 64.1476 78.9357 64.0956 78.6529 64.0265C75.5434 63.4049 72.5046 62.3685 69.5366 60.9179C66.5685 59.4672 63.9186 57.7407 61.5866 55.7369C59.2544 53.7339 57.382 51.5062 55.9686 49.0545C54.5553 46.6019 53.8488 44.1321 53.8488 41.6456C53.8488 39.1585 54.5553 36.7067 55.9686 34.2888C57.382 31.8708 59.2544 29.644 61.5866 27.6056C63.9186 25.5678 66.5685 23.8242 69.5366 22.3736C72.5046 20.9229 75.5434 19.8865 78.6529 19.2647C78.9357 19.1956 79.1827 19.1438 79.3948 19.1092C79.6072 19.0747 79.8539 19.0574 80.137 19.0574C81.5503 19.0574 82.7512 19.5414 83.7409 20.508C84.7305 21.4753 85.2249 22.6493 85.2249 24.0308C85.2249 25.3439 84.7658 26.4314 83.8469 27.2951C82.928 28.1588 81.7977 28.7285 80.4551 29.0044C78.2638 29.4882 76.1793 30.1791 74.2008 31.0773C72.2224 31.9748 70.4729 32.9939 68.9535 34.1333C67.4341 35.2734 66.2331 36.4821 65.3496 37.7597C64.466 39.0383 64.0247 40.3334 64.0247 41.6456C64.0247 42.958 64.466 44.2704 65.3496 45.5828C66.2331 46.8957 67.4341 48.1217 68.9535 49.261C70.4729 50.4012 72.2224 51.4198 74.2008 52.3178C76.1793 53.216 78.2638 53.8724 80.4551 54.2863C81.7977 54.563 82.928 55.1326 83.8469 55.9963C84.7658 56.86 85.2249 57.9475 85.2249 59.2599C85.2249 60.6419 84.7305 61.8161 83.7409 62.7834C82.7512 63.75 81.5503 64.234 80.137 64.234ZM36.0403 41.6456C36.0403 39.8494 36.6764 38.3304 37.9481 37.0864C39.2208 35.8431 40.7748 35.2216 42.6123 35.2216C44.4494 35.2216 46.0041 35.8431 47.2768 37.0864C48.5484 38.3304 49.1845 39.8494 49.1845 41.6456C49.1845 43.4413 48.5484 44.961 47.2768 46.2051C46.0041 47.4481 44.4494 48.0699 42.6123 48.0699C40.7748 48.0699 39.2208 47.4481 37.9481 46.2051C36.6764 44.961 36.0403 43.4413 36.0403 41.6456ZM5.08792 64.234C3.67459 64.234 2.47286 63.75 1.48402 62.7834C0.494399 61.8161 0 60.6419 0 59.2599C0 57.9475 0.459041 56.86 1.37795 55.9963C2.29661 55.1326 3.42714 54.563 4.76977 54.2863C6.96034 53.8724 9.04561 53.216 11.0241 52.3178C13.0025 51.4198 14.7517 50.4012 16.2714 49.261C17.7907 48.1217 18.9917 46.8957 19.8753 45.5828C20.7588 44.2704 21.2 42.958 21.2 41.6456C21.2 40.3334 20.7588 39.0383 19.8753 37.7597C18.9917 36.4821 17.7907 35.2734 16.2714 34.1333C14.7517 32.9939 13.0025 31.9748 11.0241 31.0773C9.04561 30.1791 6.96034 29.4882 4.76977 29.0044C3.42714 28.7285 2.29661 28.1588 1.37795 27.2951C0.459041 26.4314 0 25.3439 0 24.0308C0 22.6493 0.494399 21.4753 1.48402 20.508C2.47286 19.5414 3.67459 19.0574 5.08792 19.0574C5.371 19.0574 5.61771 19.0752 5.83008 19.1092C6.0422 19.1438 6.28915 19.1956 6.57197 19.2647C9.68146 19.8865 12.7202 20.9229 15.6875 22.3736C18.6556 23.8242 21.3063 25.5678 23.6382 27.6056C25.9705 29.644 27.8429 31.8708 29.2562 34.2888C30.6693 36.7067 31.3761 39.1585 31.3761 41.6456C31.3761 44.1321 30.6693 46.6019 29.2562 49.0545C27.8429 51.5062 25.9705 53.7339 23.6382 55.7369C21.3063 57.7407 18.6556 59.4672 15.6875 60.9179C12.7202 62.3685 9.68146 63.4049 6.57197 64.0265C6.28915 64.0956 6.0422 64.1476 5.83008 64.1822C5.61771 64.2168 5.371 64.234 5.08792 64.234Z" fill="#C8DF30"/>
<path fill-rule="evenodd" clip-rule="evenodd" d="M65.717 78.3422C65.717 79.7237 65.2218 80.8983 64.233 81.8649C63.2434 82.8322 62.0421 83.3156 60.6283 83.3156C59.2857 83.3156 58.1731 82.8668 57.2895 81.9686C56.406 81.0706 55.8232 79.9656 55.5401 78.6532C55.1166 76.5119 54.4452 74.4736 53.5263 72.5397C52.6076 70.6058 51.5655 68.896 50.3991 67.4105C49.2335 65.9253 47.9793 64.7514 46.6362 63.8878C45.2935 63.0241 43.9509 62.5929 42.6083 62.5929C41.2659 62.5929 39.9409 63.0241 38.6332 63.8878C37.3259 64.7514 36.0893 65.9253 34.9229 67.4105C33.7573 68.896 32.7147 70.6058 31.7965 72.5397C30.8776 74.4736 30.1708 76.5119 29.6759 78.6532C29.3936 79.9656 28.8108 81.0706 27.9272 81.9686C27.0437 82.8668 25.9311 83.3156 24.5877 83.3156C23.1744 83.3156 21.9734 82.8322 20.9838 81.8649C19.995 80.8983 19.4998 79.7237 19.4998 78.3422C19.4998 78.0654 19.518 77.8243 19.5528 77.6167C19.5881 77.4094 19.6412 77.168 19.7119 76.8916C20.348 73.8521 21.4083 70.8817 22.8923 67.9812C24.3764 65.08 26.1601 62.489 28.2449 60.2095C30.3302 57.9298 32.6084 56.0995 35.082 54.718C37.5557 53.3365 40.0639 52.6459 42.6083 52.6459C45.1521 52.6459 47.6788 53.3365 50.1878 54.718C52.696 56.0995 54.975 57.9298 57.0241 60.2095C59.0741 62.489 60.8404 65.08 62.3245 67.9812C63.8085 70.8817 64.8688 73.8521 65.5046 76.8916C65.5756 77.168 65.6286 77.4094 65.664 77.6167C65.6994 77.8243 65.717 78.0654 65.717 78.3422Z" fill="#C8DF30"/>
<path fill-rule="evenodd" clip-rule="evenodd" d="M42.6098 48.0889C40.7723 48.0889 39.2183 47.4671 37.9456 46.2241C36.6739 44.98 36.0378 43.461 36.0378 41.6649C36.0378 39.8692 36.6739 38.3494 37.9456 37.1054C39.2183 35.8624 40.7723 35.2406 42.6098 35.2406C44.4469 35.2406 46.0016 35.8624 47.2743 37.1054C48.5459 38.3494 49.182 39.8692 49.182 41.6649C49.182 43.461 48.5459 44.98 47.2743 46.2241C46.0016 47.4671 44.4469 48.0889 42.6098 48.0889Z" fill="white"/>
<path fill-rule="evenodd" clip-rule="evenodd" d="M65.717 4.97338C65.717 5.25009 65.6988 5.49122 65.664 5.69882C65.6286 5.90616 65.5756 6.14755 65.5046 6.42401C64.8688 9.46348 63.8085 12.4339 62.3245 15.3351C60.8404 18.2363 59.0741 20.8266 57.0241 23.1061C54.975 25.3858 52.696 27.216 50.1878 28.5975C47.6788 29.9791 45.1521 30.6697 42.6083 30.6697C40.0639 30.6697 37.5557 29.9791 35.082 28.5975C32.6084 27.216 30.3302 25.3858 28.2449 23.1061C26.1601 20.8266 24.3764 18.2363 22.8923 15.3351C21.4083 12.4339 20.348 9.46348 19.7119 6.42401C19.6412 6.14755 19.5881 5.90616 19.5528 5.69882C19.5174 5.49122 19.4998 5.25009 19.4998 4.97338C19.4998 3.59187 19.995 2.41796 20.9838 1.45062C21.9734 0.483287 23.1744 0 24.5877 0C25.9311 0 27.0437 0.448725 27.9272 1.34695C28.8108 2.24517 29.3936 3.34998 29.6759 4.66237C30.1708 6.80439 30.8776 8.84197 31.7965 10.7759C32.7147 12.7098 33.7573 14.4198 34.9229 15.905C36.0893 17.3902 37.3259 18.5641 38.6332 19.4278C39.9409 20.2914 41.2659 20.7229 42.6083 20.7229C43.9509 20.7229 45.2935 20.2914 46.6362 19.4278C47.9793 18.5641 49.2335 17.3902 50.3991 15.905C51.5655 14.4198 52.6076 12.7098 53.5263 10.7759C54.4452 8.84197 55.1166 6.80439 55.5401 4.66237C55.8232 3.34998 56.406 2.24517 57.2895 1.34695C58.1731 0.448725 59.2857 0 60.6283 0C62.0421 0 63.2434 0.483287 64.233 1.45062C65.2218 2.41796 65.717 3.59187 65.717 4.97338Z" fill="#C8DF30"/>
</svg>
