<svg width="13" height="11" viewBox="0 0 13 11" fill="none" xmlns="http://www.w3.org/2000/svg">
<path d="M1.16042 4.96658C1.48533 3.6205 2.04233 2.5065 2.83142 1.671C3.6205 0.881915 4.54883 0.324915 5.61642 0L5.24508 1.71742C4.82733 1.9495 4.40958 2.32083 3.99183 2.73858C3.57408 3.15633 3.24917 3.85258 3.01708 4.78092L2.69217 6.35909H4.27033L3.38842 10.4438H0L1.16042 4.96658ZM8.16933 4.96658C8.49425 3.6205 9.05125 2.5065 9.84033 1.671C10.6294 0.881915 11.5578 0.324915 12.6253 0L12.254 1.71742C11.8363 1.9495 11.4185 2.32083 11.0008 2.73858C10.583 3.15633 10.2581 3.85258 10.026 4.78092L9.70108 6.35909H11.2793L10.3973 10.4438H7.00892L8.16933 4.96658Z" fill="white"/>
</svg>
