<svg width="404" height="404" viewBox="0 0 404 404" fill="none" xmlns="http://www.w3.org/2000/svg">
<g clip-path="url(#clip0_2_2716)">
<mask id="mask0_2_2716" style="mask-type:alpha" maskUnits="userSpaceOnUse" x="0" y="0" width="404" height="404">
<path d="M202 0L201.263 191.927L172.589 2.15263L199.804 192.142L143.804 8.56468L198.392 192.566L116.26 19.0995L197.057 193.192L90.5429 33.5324L195.827 194.006L67.2016 51.556L194.729 194.99L46.7333 72.7861L193.786 196.123L29.5742 96.7701L193.018 197.382L16.0901 122.997L192.441 198.739L6.5683 150.907L192.068 200.165L1.21179 179.907L191.907 201.631L0.134766 209.377L191.961 203.105L3.36014 238.691L192.228 204.555L10.8192 267.222L192.704 205.95L22.3529 294.363L193.379 207.261L37.7155 319.535L194.237 208.461L56.5795 342.203L195.26 209.522L78.5429 361.882L196.427 210.423L103.138 378.154L197.713 211.145L129.839 390.671L199.09 211.672L158.079 399.167L200.529 211.992L187.255 403.461L202 212.1L216.745 403.461L203.471 211.992L245.921 399.167L204.91 211.672L274.161 390.671L206.287 211.145L300.862 378.154L207.573 210.423L325.457 361.882L208.74 209.522L347.421 342.203L209.763 208.461L366.285 319.535L210.621 207.261L381.647 294.363L211.296 205.95L393.181 267.222L211.772 204.555L400.64 238.691L212.039 203.105L403.865 209.377L212.093 201.631L402.788 179.907L211.932 200.165L397.432 150.907L211.559 198.739L387.91 122.997L210.982 197.382L374.426 96.7701L210.214 196.123L357.267 72.7861L209.271 194.99L336.798 51.556L208.173 194.006L313.457 33.5324L206.943 193.192L287.74 19.0995L205.608 192.566L260.196 8.56468L204.196 192.142L231.411 2.15263L202.737 191.927L202 0Z" fill="#383838"/>
</mask>
<g mask="url(#mask0_2_2716)">
<rect width="274.116" height="469.697" transform="matrix(-1 0 0 1 137.436 -33.2266)" fill="#D9D9D9"/>
</g>
</g>
<defs>
<clipPath id="clip0_2_2716">
<rect width="404" height="404" fill="white" transform="matrix(-1 0 0 1 404 0)"/>
</clipPath>
</defs>
</svg>
