<svg width="404" height="404" viewBox="0 0 404 404" fill="none" xmlns="http://www.w3.org/2000/svg">
<mask id="mask0_2_2719" style="mask-type:alpha" maskUnits="userSpaceOnUse" x="0" y="0" width="404" height="404">
<path d="M202 0L202.737 191.927L231.411 2.15263L204.196 192.142L260.196 8.56468L205.608 192.566L287.74 19.0995L206.943 193.192L313.457 33.5324L208.173 194.006L336.798 51.556L209.271 194.99L357.267 72.7861L210.214 196.123L374.426 96.7701L210.982 197.382L387.91 122.997L211.559 198.739L397.432 150.907L211.932 200.165L402.788 179.907L212.093 201.631L403.865 209.377L212.039 203.105L400.64 238.691L211.772 204.555L393.181 267.222L211.296 205.95L381.647 294.363L210.621 207.261L366.285 319.535L209.763 208.461L347.421 342.203L208.74 209.522L325.457 361.882L207.573 210.423L300.862 378.154L206.287 211.145L274.161 390.671L204.91 211.672L245.921 399.167L203.471 211.992L216.745 403.461L202 212.1L187.255 403.461L200.529 211.992L158.079 399.167L199.09 211.672L129.839 390.671L197.713 211.145L103.138 378.154L196.427 210.423L78.5429 361.882L195.26 209.522L56.5795 342.203L194.237 208.461L37.7155 319.535L193.379 207.261L22.3529 294.363L192.704 205.95L10.8192 267.222L192.228 204.555L3.36014 238.691L191.961 203.105L0.134766 209.377L191.907 201.631L1.21181 179.907L192.068 200.165L6.5683 150.907L192.441 198.739L16.0901 122.997L193.018 197.382L29.5742 96.7701L193.786 196.123L46.7333 72.7861L194.729 194.99L67.2016 51.556L195.827 194.006L90.5429 33.5324L197.057 193.192L116.26 19.0995L198.392 192.566L143.804 8.56468L199.804 192.142L172.589 2.15263L201.263 191.927L202 0Z" fill="#383838"/>
</mask>
<g mask="url(#mask0_2_2719)">
<rect x="266.564" y="-33.2266" width="274.116" height="469.697" fill="#D9D9D9"/>
</g>
</svg>
