<svg width="93" height="100" viewBox="0 0 93 100" fill="none" xmlns="http://www.w3.org/2000/svg">
<path d="M49.4541 49.8799L49.4775 50.1123L49.71 50.1357L79.9414 53.1963L49.71 56.2568L49.4775 56.2803L49.4541 56.5127L46.3936 86.7441L43.333 56.5127L43.3096 56.2803L43.0771 56.2568L12.8457 53.1963L43.0771 50.1357L43.3096 50.1123L43.333 49.8799L46.3936 19.6484L49.4541 49.8799Z" fill="white" stroke="white" stroke-width="0.57313"/>
<path d="M69.3921 23.293L69.4019 23.3857L69.4946 23.3955L81.6421 24.625L69.4946 25.8555L69.4019 25.8652L69.3921 25.958L68.1616 38.1055L66.9321 25.958L66.9224 25.8652L66.8296 25.8555L54.6812 24.625L66.8296 23.3955L66.9224 23.3857L66.9321 23.293L68.1616 11.1445L69.3921 23.293Z" fill="white" stroke="white" stroke-width="0.230323"/>
</svg>
