<svg width="1170" height="72" viewBox="0 0 1170 72" fill="none" xmlns="http://www.w3.org/2000/svg">
<mask id="mask0_2_2622" style="mask-type:alpha" maskUnits="userSpaceOnUse" x="-152" y="0" width="1473" height="72">
<rect width="1473" height="72" transform="translate(-152)" fill="#414141"/>
</mask>
<g mask="url(#mask0_2_2622)">
<path d="M584.5 -451L585.447 -204.44L622.284 -448.235L587.321 -204.165L659.262 -439.997L589.135 -203.619L694.647 -426.464L590.85 -202.815L727.684 -407.922L592.43 -201.77L757.669 -384.768L593.841 -200.506L783.964 -357.495L595.052 -199.05L806.007 -326.684L596.039 -197.433L823.33 -292.992L596.78 -195.689L835.562 -257.136L597.259 -193.857L842.443 -219.882L597.466 -191.974L843.827 -182.023L597.397 -190.081L839.683 -144.365L597.053 -188.218L830.101 -107.713L596.441 -186.425L815.284 -72.8456L595.575 -184.741L795.549 -40.5076L594.473 -183.2L771.315 -11.3878L593.158 -181.837L743.1 13.8933L591.659 -180.679L711.504 34.7968L590.007 -179.752L677.201 50.8772L588.238 -179.075L640.923 61.7917L586.389 -178.663L603.442 67.3077L584.5 -178.525L565.558 67.3077L582.611 -178.663L528.077 61.7917L580.762 -179.075L491.799 50.8772L578.993 -179.752L457.496 34.7968L577.341 -180.679L425.9 13.8933L575.842 -181.837L397.685 -11.3878L574.527 -183.2L373.451 -40.5076L573.425 -184.741L353.716 -72.8456L572.559 -186.425L338.899 -107.713L571.947 -188.218L329.317 -144.365L571.603 -190.081L325.173 -182.023L571.534 -191.974L326.557 -219.882L571.741 -193.857L333.438 -257.136L572.22 -195.689L345.67 -292.992L572.961 -197.433L362.993 -326.684L573.948 -199.05L385.036 -357.495L575.159 -200.506L411.331 -384.768L576.57 -201.77L441.316 -407.922L578.15 -202.815L474.353 -426.464L579.865 -203.619L509.738 -439.997L581.679 -204.165L546.716 -448.235L583.553 -204.44L584.5 -451Z" fill="white"/>
</g>
</svg>
