<svg width="552" height="85" viewBox="0 0 552 85" fill="none" xmlns="http://www.w3.org/2000/svg">
<mask id="mask0_2_2625" style="mask-type:alpha" maskUnits="userSpaceOnUse" x="0" y="0" width="552" height="85">
<rect width="551.698" height="85" transform="translate(551.698 85) rotate(-180)" fill="#414141"/>
</mask>
<g mask="url(#mask0_2_2625)">
<path d="M275.868 227.339L275.513 135.015L261.72 226.303L274.811 134.912L247.873 223.219L274.132 134.707L234.623 218.151L273.49 134.406L222.253 211.209L272.898 134.015L211.025 202.539L272.37 133.541L201.179 192.326L271.916 132.996L192.924 180.789L271.547 132.391L186.438 168.173L271.269 131.738L181.858 154.747L271.09 131.052L179.281 140.797L271.012 130.347L178.763 126.62L271.038 129.638L180.314 112.52L271.167 128.94L183.903 98.7951L271.396 128.269L189.451 85.7393L271.721 127.638L196.841 73.6303L272.133 127.061L205.915 62.7264L272.626 126.551L216.48 53.2599L273.187 126.117L228.311 45.4326L273.806 125.77L241.156 39.4114L274.468 125.517L254.74 35.3244L275.16 125.363L268.775 33.259L275.868 125.311L282.961 33.259L276.575 125.363L296.995 35.3244L277.267 125.517L310.58 39.4114L277.93 125.77L323.424 45.4326L278.548 126.117L335.255 53.2599L279.11 126.551L345.82 62.7264L279.602 127.061L354.895 73.6303L280.015 127.638L362.285 85.7393L280.339 128.269L367.833 98.7952L280.568 128.94L371.421 112.52L280.697 129.638L372.972 126.62L280.723 130.347L372.454 140.797L280.645 131.052L369.878 154.747L280.466 131.738L365.297 168.173L280.189 132.391L358.811 180.789L279.819 132.996L350.557 192.326L279.365 133.541L340.711 202.539L278.837 134.015L329.483 211.209L278.246 134.406L317.112 218.151L277.603 134.707L303.862 223.219L276.924 134.912L290.016 226.303L276.222 135.015L275.868 227.339Z" fill="white"/>
</g>
</svg>
