<svg width="121" height="21" viewBox="0 0 121 21" fill="none" xmlns="http://www.w3.org/2000/svg">
<path d="M9.8252 0.833008C10.1306 0.323863 10.8694 0.323863 11.1748 0.833008L13.9395 5.44238C14.0074 5.55556 14.1185 5.63633 14.2471 5.66602L19.4863 6.87109C20.0646 7.00445 20.2921 7.70661 19.9023 8.1543L16.373 12.208C16.2863 12.3077 16.2442 12.4386 16.2559 12.5703L16.7275 17.9248C16.7797 18.5162 16.183 18.9501 15.6367 18.7178L10.6904 16.6133C10.5688 16.5616 10.4312 16.5616 10.3096 16.6133L5.36328 18.7178C4.81696 18.9501 4.22031 18.5162 4.27246 17.9248L4.74414 12.5703C4.75576 12.4386 4.71375 12.3077 4.62695 12.208L1.09766 8.1543C0.707898 7.70661 0.935367 7.00445 1.51367 6.87109L6.75293 5.66602C6.88155 5.63633 6.9926 5.55556 7.06055 5.44238L9.8252 0.833008Z" fill="white" stroke="white" stroke-width="0.3"/>
<path d="M34.8252 0.833008C35.1306 0.323863 35.8694 0.323863 36.1748 0.833008L38.9395 5.44238C39.0074 5.55556 39.1185 5.63633 39.2471 5.66602L44.4863 6.87109C45.0646 7.00445 45.2921 7.70661 44.9023 8.1543L41.373 12.208C41.2863 12.3077 41.2442 12.4386 41.2559 12.5703L41.7275 17.9248C41.7797 18.5162 41.183 18.9501 40.6367 18.7178L35.6904 16.6133C35.5688 16.5616 35.4312 16.5616 35.3096 16.6133L30.3633 18.7178C29.817 18.9501 29.2203 18.5162 29.2725 17.9248L29.7441 12.5703C29.7558 12.4386 29.7138 12.3077 29.627 12.208L26.0977 8.1543C25.7079 7.70661 25.9354 7.00445 26.5137 6.87109L31.7529 5.66602C31.8815 5.63633 31.9926 5.55556 32.0605 5.44238L34.8252 0.833008Z" fill="white" stroke="white" stroke-width="0.3"/>
<path d="M59.8252 0.833008C60.1306 0.323863 60.8694 0.323863 61.1748 0.833008L63.9395 5.44238C64.0074 5.55556 64.1185 5.63633 64.2471 5.66602L69.4863 6.87109C70.0646 7.00445 70.2921 7.70661 69.9023 8.1543L66.373 12.208C66.2863 12.3077 66.2442 12.4386 66.2559 12.5703L66.7275 17.9248C66.7797 18.5162 66.183 18.9501 65.6367 18.7178L60.6904 16.6133C60.5688 16.5616 60.4312 16.5616 60.3096 16.6133L55.3633 18.7178C54.817 18.9501 54.2203 18.5162 54.2725 17.9248L54.7441 12.5703C54.7558 12.4386 54.7138 12.3077 54.627 12.208L51.0977 8.1543C50.7079 7.70661 50.9354 7.00445 51.5137 6.87109L56.7529 5.66602C56.8815 5.63633 56.9926 5.55556 57.0605 5.44238L59.8252 0.833008Z" fill="white" stroke="white" stroke-width="0.3"/>
<path d="M84.8252 0.833008C85.1306 0.323863 85.8694 0.323863 86.1748 0.833008L88.9395 5.44238C89.0074 5.55556 89.1185 5.63633 89.2471 5.66602L94.4863 6.87109C95.0646 7.00445 95.2921 7.70661 94.9023 8.1543L91.373 12.208C91.2863 12.3077 91.2442 12.4386 91.2559 12.5703L91.7275 17.9248C91.7797 18.5162 91.183 18.9501 90.6367 18.7178L85.6904 16.6133C85.5688 16.5616 85.4312 16.5616 85.3096 16.6133L80.3633 18.7178C79.817 18.9501 79.2203 18.5162 79.2725 17.9248L79.7441 12.5703C79.7558 12.4386 79.7138 12.3077 79.627 12.208L76.0977 8.1543C75.7079 7.70661 75.9354 7.00445 76.5137 6.87109L81.7529 5.66602C81.8815 5.63633 81.9926 5.55556 82.0605 5.44238L84.8252 0.833008Z" fill="white" stroke="white" stroke-width="0.3"/>
<path d="M109.825 0.833008C110.131 0.323863 110.869 0.323863 111.175 0.833008L113.939 5.44238C114.007 5.55556 114.118 5.63633 114.247 5.66602L119.486 6.87109C120.065 7.00445 120.292 7.70661 119.902 8.1543L116.373 12.208C116.286 12.3077 116.244 12.4386 116.256 12.5703L116.728 17.9248C116.78 18.5162 116.183 18.9501 115.637 18.7178L110.69 16.6133C110.569 16.5616 110.431 16.5616 110.31 16.6133L105.363 18.7178C104.817 18.9501 104.22 18.5162 104.272 17.9248L104.744 12.5703C104.756 12.4386 104.714 12.3077 104.627 12.208L101.098 8.1543C100.708 7.70661 100.935 7.00445 101.514 6.87109L106.753 5.66602C106.882 5.63633 106.993 5.55556 107.061 5.44238L109.825 0.833008Z" fill="white" stroke="white" stroke-width="0.3"/>
</svg>
