<svg width="96" height="96" viewBox="0 0 96 96" fill="none" xmlns="http://www.w3.org/2000/svg">
<path d="M58.7197 13.5433C67.8828 16.2376 75.6953 22.2837 80.602 30.478C85.5088 38.6722 87.1498 48.4138 85.1986 57.7634C83.2473 67.113 77.8468 75.3849 70.0721 80.9326C62.2974 86.4802 52.7188 88.8967 43.2429 87.701C33.767 86.5054 25.0888 81.7852 18.9359 74.4801C12.783 67.1751 9.6066 57.8209 10.039 48.2796C10.4714 38.7384 14.4809 29.7099 21.2693 22.9913C28.0578 16.2727 37.1273 12.3569 46.6725 12.0232M40 5L47 12L41.8039 21M56 48C56 52.4183 52.4183 56 48 56C43.5818 56 40 52.4183 40 48C40 43.5817 43.5818 40 48 40C52.4183 40 56 43.5817 56 48Z" stroke="#2F3A6F" stroke-width="2.5" stroke-linecap="round" stroke-linejoin="round"/>
</svg>
