<svg width="96" height="96" viewBox="0 0 96 96" fill="none" xmlns="http://www.w3.org/2000/svg">
<path d="M48.0005 18V8L47.9999 12.9998M48.0005 78V88L47.9998 82.9998M54.9464 87.3923L54.0782 82.4683M41.9228 13.5317L41.0546 8.60769M61.6813 85.5875L59.9712 80.889M36.0298 15.1105L34.3197 10.4121M65.5004 78.3105L68.0004 82.6406L63.0005 73.9808M30.5004 17.6887L28.0004 13.3586L33.0005 22.0192M73.7119 78.6413L70.498 74.8111M25.5028 21.188L22.2889 17.3578M78.6421 73.7108L74.8119 70.4968M21.1888 25.5017L17.3585 22.2878M78.3111 65.4994L82.6413 67.9994L73.9813 63M17.6894 30.4994L13.3592 27.9994L22.0197 33M85.5879 61.6803L80.8894 59.9702M15.1109 36.0288L10.4125 34.3187M87.3924 54.9453L82.4684 54.077M13.5318 41.9216L8.6078 41.0534M83 47.9994H88L78.0005 48M13 47.9994H8L18.0005 48M87.3923 41.0536L82.4682 41.9218M13.5317 54.0772L8.60763 54.9454M85.5876 34.3188L80.8892 36.0289M15.1107 59.9703L10.4122 61.6804M78.3108 30.4997L82.6409 27.9997L73.9813 33M17.689 65.4997L13.3589 67.9997L22.0197 63M78.6416 22.288L74.8114 25.502M21.1883 70.4971L17.3581 73.711M73.7113 17.3578L70.4974 21.1881M25.5023 74.8112L22.2883 78.6414M65.4998 17.6888L67.9998 13.3587L63.0005 22.0191M30.4998 78.3106L27.9998 82.6407L33.0005 73.9807M61.6806 10.4122L59.9705 15.1107M36.0291 80.8892L34.319 85.5876M54.9458 8.60753L54.0775 13.5316M41.9221 82.4681L41.0539 87.3922" stroke="#2F3A6F" stroke-width="2.5" stroke-linecap="round" stroke-linejoin="round"/>
</svg>
