<svg width="96" height="96" viewBox="0 0 96 96" fill="none" xmlns="http://www.w3.org/2000/svg">
<path d="M88 48C88 70.0914 70.0914 88 48 88M88 48C88 25.9086 70.0914 8 48 8M88 48H78M48 88C25.9086 88 8 70.0914 8 48M48 88V78M8 48C8 25.9086 25.9086 8 48 8M8 48H18M48 8V18M78 48C78 64.5685 64.5685 78 48 78M78 48C78 31.4315 64.5685 18 48 18M48 78C31.4315 78 18 64.5685 18 48M18 48C18 31.4315 31.4315 18 48 18M55.7646 76.9778L58.3528 86.637M37.6472 9.36297L40.2354 19.0222M63 73.9806L68 82.6408M28 13.3588L33 22.0191M69.2132 69.2132L76.2843 76.2842M19.7158 19.7157L26.7868 26.7868M73.9809 63.0001L82.6411 68.0001M13.3591 28.0001L22.0194 33.0001M76.978 55.7646L86.6372 58.3528M9.36317 37.6473L19.0224 40.2355M76.9781 40.2354L86.6374 37.6472M9.36333 58.3527L19.0226 55.7646M73.9811 32.9998L82.6414 27.9998M13.3594 67.9998L22.0196 62.9998M69.2136 26.7868L76.2847 19.7157M19.7162 76.2842L26.7872 69.2132M63.0005 22.0191L68.0005 13.3588M28.0005 82.6409L33.0005 73.9806M55.7651 19.0223L58.3533 9.363M37.6478 86.6371L40.236 76.9778" stroke="#2F3A6F" stroke-width="2.5" stroke-linecap="round" stroke-linejoin="round"/>
</svg>
