<svg width="96" height="96" viewBox="0 0 96 96" fill="none" xmlns="http://www.w3.org/2000/svg">
<path fill-rule="evenodd" clip-rule="evenodd" d="M48 8C49.2559 8 50.4982 8.05961 51.7246 8.17285L53.249 16.4307C56.4552 16.9598 59.5001 17.965 62.3096 19.3721L68.3975 13.5879C70.543 14.8624 72.5594 16.3307 74.4219 17.9707L70.7998 25.5498C73.0289 27.8134 74.9234 30.4067 76.4033 33.251L84.7334 32.1494C85.7103 34.4102 86.4844 36.7785 87.0332 39.2324L79.6455 43.2363C79.8775 44.7906 80 46.3811 80 48C80 49.6182 79.8773 51.208 79.6455 52.7617L87.0332 56.7666C86.4845 59.2206 85.7102 61.5888 84.7334 63.8496L76.4043 62.7471C74.9243 65.5919 73.0292 68.1852 70.7998 70.4492L74.4219 78.0283C72.5594 79.6684 70.5431 81.1366 68.3975 82.4111L62.3105 76.627C59.5008 78.0343 56.4556 79.0392 53.249 79.5684L51.7246 87.8262C50.4982 87.9394 49.256 88 48 88C46.7437 88 45.5011 87.9395 44.2744 87.8262L42.749 79.5684C39.5427 79.039 36.498 78.0333 33.6885 76.626L27.6016 82.4111C25.456 81.1365 23.4395 79.6684 21.5771 78.0283L25.1982 70.4482C22.9693 68.1845 21.0744 65.5914 19.5947 62.7471L11.2656 63.8496C10.2889 61.5888 9.51454 59.2205 8.96582 56.7666L16.3535 52.7617C16.1217 51.2081 16 49.6182 16 48C16 46.3812 16.1215 44.7906 16.3535 43.2363L8.96582 39.2324C9.51459 36.7786 10.2888 34.4102 11.2656 32.1494L19.5957 33.251C21.0755 30.407 22.9694 27.8133 25.1982 25.5498L21.5771 17.9707C23.4395 16.3307 25.4561 14.8624 27.6016 13.5879L33.6885 19.3721C36.4979 17.9649 39.543 16.9599 42.749 16.4307L44.2744 8.17285C45.5011 8.05955 46.7437 8 48 8ZM48 28C36.9543 28 28 36.9543 28 48C28 59.0457 36.9543 68 48 68C59.0457 68 68 59.0457 68 48C68 36.9543 59.0457 28 48 28Z" stroke="#2F3A6F" stroke-width="2.5" stroke-linecap="round" stroke-linejoin="round"/>
<path d="M56 48C56 52.4183 52.4183 56 48 56C43.5817 56 40 52.4183 40 48C40 43.5817 43.5817 40 48 40C52.4183 40 56 43.5817 56 48Z" stroke="#2F3A6F" stroke-width="2.5" stroke-linecap="round" stroke-linejoin="round"/>
</svg>
