<svg width="228" height="81" viewBox="0 0 228 81" fill="none" xmlns="http://www.w3.org/2000/svg">
<circle cx="1.5" cy="1.5" r="1.5" fill="#484848" fill-opacity="0.3"/>
<circle cx="14.5" cy="1.5" r="1.5" fill="#484848" fill-opacity="0.3"/>
<circle cx="27.5" cy="1.5" r="1.5" fill="#484848" fill-opacity="0.3"/>
<circle cx="40.5" cy="1.5" r="1.5" fill="#484848" fill-opacity="0.3"/>
<circle cx="53.5" cy="1.5" r="1.5" fill="#484848" fill-opacity="0.3"/>
<circle cx="66.5" cy="1.5" r="1.5" fill="#484848" fill-opacity="0.3"/>
<circle cx="79.5" cy="1.5" r="1.5" fill="#484848" fill-opacity="0.3"/>
<circle cx="92.5" cy="1.5" r="1.5" fill="#484848" fill-opacity="0.3"/>
<circle cx="105.5" cy="1.5" r="1.5" fill="#484848" fill-opacity="0.3"/>
<circle cx="118.5" cy="1.5" r="1.5" fill="#484848" fill-opacity="0.3"/>
<circle cx="131.5" cy="1.5" r="1.5" fill="#484848" fill-opacity="0.3"/>
<circle cx="144.5" cy="1.5" r="1.5" fill="#484848" fill-opacity="0.3"/>
<circle cx="157.5" cy="1.5" r="1.5" fill="#484848" fill-opacity="0.3"/>
<circle cx="170.5" cy="1.5" r="1.5" fill="#484848" fill-opacity="0.3"/>
<circle cx="183.5" cy="1.5" r="1.5" fill="#484848" fill-opacity="0.3"/>
<circle cx="196.5" cy="1.5" r="1.5" fill="#484848" fill-opacity="0.3"/>
<circle cx="209.5" cy="1.5" r="1.5" fill="#484848" fill-opacity="0.3"/>
<circle cx="222.5" cy="1.5" r="1.5" fill="#484848" fill-opacity="0.3"/>
<circle cx="1.5" cy="14.5" r="1.5" fill="#484848" fill-opacity="0.3"/>
<circle cx="14.5" cy="14.5" r="1.5" fill="#484848" fill-opacity="0.3"/>
<circle cx="27.5" cy="14.5" r="1.5" fill="#484848" fill-opacity="0.3"/>
<circle cx="40.5" cy="14.5" r="1.5" fill="#484848" fill-opacity="0.3"/>
<circle cx="53.5" cy="14.5" r="1.5" fill="#484848" fill-opacity="0.3"/>
<circle cx="66.5" cy="14.5" r="1.5" fill="#484848" fill-opacity="0.3"/>
<circle cx="79.5" cy="14.5" r="1.5" fill="#484848" fill-opacity="0.3"/>
<circle cx="92.5" cy="14.5" r="1.5" fill="#484848" fill-opacity="0.3"/>
<circle cx="105.5" cy="14.5" r="1.5" fill="#484848" fill-opacity="0.3"/>
<circle cx="118.5" cy="14.5" r="1.5" fill="#484848" fill-opacity="0.3"/>
<circle cx="131.5" cy="14.5" r="1.5" fill="#484848" fill-opacity="0.3"/>
<circle cx="144.5" cy="14.5" r="1.5" fill="#484848" fill-opacity="0.3"/>
<circle cx="157.5" cy="14.5" r="1.5" fill="#484848" fill-opacity="0.3"/>
<circle cx="170.5" cy="14.5" r="1.5" fill="#484848" fill-opacity="0.3"/>
<circle cx="183.5" cy="14.5" r="1.5" fill="#484848" fill-opacity="0.3"/>
<circle cx="196.5" cy="14.5" r="1.5" fill="#484848" fill-opacity="0.3"/>
<circle cx="209.5" cy="14.5" r="1.5" fill="#484848" fill-opacity="0.3"/>
<circle cx="222.5" cy="14.5" r="1.5" fill="#484848" fill-opacity="0.3"/>
<circle cx="1.5" cy="27.5" r="1.5" fill="#484848" fill-opacity="0.3"/>
<circle cx="14.5" cy="27.5" r="1.5" fill="#484848" fill-opacity="0.3"/>
<circle cx="27.5" cy="27.5" r="1.5" fill="#484848" fill-opacity="0.3"/>
<circle cx="40.5" cy="27.5" r="1.5" fill="#484848" fill-opacity="0.3"/>
<circle cx="53.5" cy="27.5" r="1.5" fill="#484848" fill-opacity="0.3"/>
<circle cx="66.5" cy="27.5" r="1.5" fill="#484848" fill-opacity="0.3"/>
<circle cx="79.5" cy="27.5" r="1.5" fill="#484848" fill-opacity="0.3"/>
<circle cx="92.5" cy="27.5" r="1.5" fill="#484848" fill-opacity="0.3"/>
<circle cx="105.5" cy="27.5" r="1.5" fill="#484848" fill-opacity="0.3"/>
<circle cx="118.5" cy="27.5" r="1.5" fill="#484848" fill-opacity="0.3"/>
<circle cx="131.5" cy="27.5" r="1.5" fill="#484848" fill-opacity="0.3"/>
<circle cx="144.5" cy="27.5" r="1.5" fill="#484848" fill-opacity="0.3"/>
<circle cx="157.5" cy="27.5" r="1.5" fill="#484848" fill-opacity="0.3"/>
<circle cx="170.5" cy="27.5" r="1.5" fill="#484848" fill-opacity="0.3"/>
<circle cx="183.5" cy="27.5" r="1.5" fill="#484848" fill-opacity="0.3"/>
<circle cx="196.5" cy="27.5" r="1.5" fill="#484848" fill-opacity="0.3"/>
<circle cx="209.5" cy="27.5" r="1.5" fill="#484848" fill-opacity="0.3"/>
<circle cx="222.5" cy="27.5" r="1.5" fill="#484848" fill-opacity="0.3"/>
<circle cx="1.5" cy="40.5" r="1.5" fill="#484848" fill-opacity="0.3"/>
<circle cx="14.5" cy="40.5" r="1.5" fill="#484848" fill-opacity="0.3"/>
<circle cx="27.5" cy="40.5" r="1.5" fill="#484848" fill-opacity="0.3"/>
<circle cx="40.5" cy="40.5" r="1.5" fill="#484848" fill-opacity="0.3"/>
<circle cx="53.5" cy="40.5" r="1.5" fill="#484848" fill-opacity="0.3"/>
<circle cx="66.5" cy="40.5" r="1.5" fill="#484848" fill-opacity="0.3"/>
<circle cx="79.5" cy="40.5" r="1.5" fill="#484848" fill-opacity="0.3"/>
<circle cx="92.5" cy="40.5" r="1.5" fill="#484848" fill-opacity="0.3"/>
<circle cx="105.5" cy="40.5" r="1.5" fill="#484848" fill-opacity="0.3"/>
<circle cx="118.5" cy="40.5" r="1.5" fill="#484848" fill-opacity="0.3"/>
<circle cx="131.5" cy="40.5" r="1.5" fill="#484848" fill-opacity="0.3"/>
<circle cx="144.5" cy="40.5" r="1.5" fill="#484848" fill-opacity="0.3"/>
<circle cx="157.5" cy="40.5" r="1.5" fill="#484848" fill-opacity="0.3"/>
<circle cx="170.5" cy="40.5" r="1.5" fill="#484848" fill-opacity="0.3"/>
<circle cx="183.5" cy="40.5" r="1.5" fill="#484848" fill-opacity="0.3"/>
<circle cx="196.5" cy="40.5" r="1.5" fill="#484848" fill-opacity="0.3"/>
<circle cx="209.5" cy="40.5" r="1.5" fill="#484848" fill-opacity="0.3"/>
<circle cx="222.5" cy="40.5" r="1.5" fill="#484848" fill-opacity="0.3"/>
<circle cx="1.5" cy="53.5" r="1.5" fill="#484848" fill-opacity="0.3"/>
<circle cx="14.5" cy="53.5" r="1.5" fill="#484848" fill-opacity="0.3"/>
<circle cx="27.5" cy="53.5" r="1.5" fill="#484848" fill-opacity="0.3"/>
<circle cx="40.5" cy="53.5" r="1.5" fill="#484848" fill-opacity="0.3"/>
<circle cx="53.5" cy="53.5" r="1.5" fill="#484848" fill-opacity="0.3"/>
<circle cx="66.5" cy="53.5" r="1.5" fill="#484848" fill-opacity="0.3"/>
<circle cx="79.5" cy="53.5" r="1.5" fill="#484848" fill-opacity="0.3"/>
<circle cx="92.5" cy="53.5" r="1.5" fill="#484848" fill-opacity="0.3"/>
<circle cx="105.5" cy="53.5" r="1.5" fill="#484848" fill-opacity="0.3"/>
<circle cx="118.5" cy="53.5" r="1.5" fill="#484848" fill-opacity="0.3"/>
<circle cx="131.5" cy="53.5" r="1.5" fill="#484848" fill-opacity="0.3"/>
<circle cx="144.5" cy="53.5" r="1.5" fill="#484848" fill-opacity="0.3"/>
<circle cx="157.5" cy="53.5" r="1.5" fill="#484848" fill-opacity="0.3"/>
<circle cx="170.5" cy="53.5" r="1.5" fill="#484848" fill-opacity="0.3"/>
<circle cx="183.5" cy="53.5" r="1.5" fill="#484848" fill-opacity="0.3"/>
<circle cx="196.5" cy="53.5" r="1.5" fill="#484848" fill-opacity="0.3"/>
<circle cx="209.5" cy="53.5" r="1.5" fill="#484848" fill-opacity="0.3"/>
<circle cx="222.5" cy="53.5" r="1.5" fill="#484848" fill-opacity="0.3"/>
<circle cx="1.5" cy="66.5" r="1.5" fill="#484848" fill-opacity="0.3"/>
<circle cx="14.5" cy="66.5" r="1.5" fill="#484848" fill-opacity="0.3"/>
<circle cx="27.5" cy="66.5" r="1.5" fill="#484848" fill-opacity="0.3"/>
<circle cx="40.5" cy="66.5" r="1.5" fill="#484848" fill-opacity="0.3"/>
<circle cx="53.5" cy="66.5" r="1.5" fill="#484848" fill-opacity="0.3"/>
<circle cx="66.5" cy="66.5" r="1.5" fill="#484848" fill-opacity="0.3"/>
<circle cx="79.5" cy="66.5" r="1.5" fill="#484848" fill-opacity="0.3"/>
<circle cx="92.5" cy="66.5" r="1.5" fill="#484848" fill-opacity="0.3"/>
<circle cx="105.5" cy="66.5" r="1.5" fill="#484848" fill-opacity="0.3"/>
<circle cx="118.5" cy="66.5" r="1.5" fill="#484848" fill-opacity="0.3"/>
<circle cx="131.5" cy="66.5" r="1.5" fill="#484848" fill-opacity="0.3"/>
<circle cx="144.5" cy="66.5" r="1.5" fill="#484848" fill-opacity="0.3"/>
<circle cx="157.5" cy="66.5" r="1.5" fill="#484848" fill-opacity="0.3"/>
<circle cx="170.5" cy="66.5" r="1.5" fill="#484848" fill-opacity="0.3"/>
<circle cx="183.5" cy="66.5" r="1.5" fill="#484848" fill-opacity="0.3"/>
<circle cx="196.5" cy="66.5" r="1.5" fill="#484848" fill-opacity="0.3"/>
<circle cx="209.5" cy="66.5" r="1.5" fill="#484848" fill-opacity="0.3"/>
<circle cx="222.5" cy="66.5" r="1.5" fill="#484848" fill-opacity="0.3"/>
<circle cx="1.5" cy="79.5" r="1.5" fill="#484848" fill-opacity="0.3"/>
<circle cx="14.5" cy="79.5" r="1.5" fill="#484848" fill-opacity="0.3"/>
<circle cx="27.5" cy="79.5" r="1.5" fill="#484848" fill-opacity="0.3"/>
<circle cx="40.5" cy="79.5" r="1.5" fill="#484848" fill-opacity="0.3"/>
<circle cx="53.5" cy="79.5" r="1.5" fill="#484848" fill-opacity="0.3"/>
<circle cx="66.5" cy="79.5" r="1.5" fill="#484848" fill-opacity="0.3"/>
<circle cx="79.5" cy="79.5" r="1.5" fill="#484848" fill-opacity="0.3"/>
<circle cx="92.5" cy="79.5" r="1.5" fill="#484848" fill-opacity="0.3"/>
<circle cx="105.5" cy="79.5" r="1.5" fill="#484848" fill-opacity="0.3"/>
<circle cx="118.5" cy="79.5" r="1.5" fill="#484848" fill-opacity="0.3"/>
<circle cx="131.5" cy="79.5" r="1.5" fill="#484848" fill-opacity="0.3"/>
<circle cx="144.5" cy="79.5" r="1.5" fill="#484848" fill-opacity="0.3"/>
<circle cx="157.5" cy="79.5" r="1.5" fill="#484848" fill-opacity="0.3"/>
<circle cx="170.5" cy="79.5" r="1.5" fill="#484848" fill-opacity="0.3"/>
<circle cx="183.5" cy="79.5" r="1.5" fill="#484848" fill-opacity="0.3"/>
<circle cx="196.5" cy="79.5" r="1.5" fill="#484848" fill-opacity="0.3"/>
<circle cx="209.5" cy="79.5" r="1.5" fill="#484848" fill-opacity="0.3"/>
<circle cx="222.5" cy="79.5" r="1.5" fill="#484848" fill-opacity="0.3"/>
</svg>
