<svg width="22" height="22" viewBox="0 0 22 22" fill="none" xmlns="http://www.w3.org/2000/svg">
<path d="M20.9375 10H11.875V0.9375C11.875 0.419733 11.4553 0 10.9375 0C10.4197 0 10 0.419733 10 0.9375V10H0.9375C0.419733 10 0 10.4197 0 10.9375C0 11.4553 0.419733 11.875 0.9375 11.875H10V20.9375C10 21.4553 10.4197 21.875 10.9375 21.875C11.4553 21.875 11.875 21.4553 11.875 20.9375V11.875H20.9375C21.4553 11.875 21.875 11.4553 21.875 10.9375C21.875 10.4197 21.4553 10 20.9375 10Z" fill="#E6E6E6"/>
</svg>
