<svg width="146" height="110" viewBox="0 0 146 110" fill="none" xmlns="http://www.w3.org/2000/svg">
<mask id="mask0_431_17136" style="mask-type:alpha" maskUnits="userSpaceOnUse" x="0" y="0" width="146" height="110">
<rect width="146" height="110" fill="url(#paint0_radial_431_17136)"/>
</mask>
<g mask="url(#mask0_431_17136)">
<circle cx="13.5" cy="1.5" r="1.5" fill="#939393"/>
<circle cx="25.5" cy="1.5" r="1.5" fill="#939393"/>
<circle cx="37.5" cy="1.5" r="1.5" fill="#939393"/>
<circle cx="49.5" cy="1.5" r="1.5" fill="#939393"/>
<circle cx="61.5" cy="1.5" r="1.5" fill="#939393"/>
<circle cx="73.5" cy="1.5" r="1.5" fill="#939393"/>
<circle cx="85.5" cy="1.5" r="1.5" fill="#939393"/>
<circle cx="97.5" cy="1.5" r="1.5" fill="#939393"/>
<circle cx="109.5" cy="1.5" r="1.5" fill="#939393"/>
<circle cx="121.5" cy="1.5" r="1.5" fill="#939393"/>
<circle cx="133.5" cy="1.5" r="1.5" fill="#939393"/>
<circle cx="145.5" cy="1.5" r="1.5" fill="#939393"/>
<circle cx="1.5" cy="13.5" r="1.5" fill="#939393"/>
<circle cx="13.5" cy="13.5" r="1.5" fill="#939393"/>
<circle cx="25.5" cy="13.5" r="1.5" fill="#939393"/>
<circle cx="37.5" cy="13.5" r="1.5" fill="#939393"/>
<circle cx="49.5" cy="13.5" r="1.5" fill="#939393"/>
<circle cx="61.5" cy="13.5" r="1.5" fill="#939393"/>
<circle cx="73.5" cy="13.5" r="1.5" fill="#939393"/>
<circle cx="85.5" cy="13.5" r="1.5" fill="#939393"/>
<circle cx="97.5" cy="13.5" r="1.5" fill="#939393"/>
<circle cx="109.5" cy="13.5" r="1.5" fill="#939393"/>
<circle cx="121.5" cy="13.5" r="1.5" fill="#939393"/>
<circle cx="133.5" cy="13.5" r="1.5" fill="#939393"/>
<circle cx="145.5" cy="13.5" r="1.5" fill="#939393"/>
<circle cx="1.5" cy="25.5" r="1.5" fill="#939393"/>
<circle cx="13.5" cy="25.5" r="1.5" fill="#939393"/>
<circle cx="25.5" cy="25.5" r="1.5" fill="#939393"/>
<circle cx="37.5" cy="25.5" r="1.5" fill="#939393"/>
<circle cx="49.5" cy="25.5" r="1.5" fill="#939393"/>
<circle cx="61.5" cy="25.5" r="1.5" fill="#939393"/>
<circle cx="73.5" cy="25.5" r="1.5" fill="#939393"/>
<circle cx="85.5" cy="25.5" r="1.5" fill="#939393"/>
<circle cx="97.5" cy="25.5" r="1.5" fill="#939393"/>
<circle cx="109.5" cy="25.5" r="1.5" fill="#939393"/>
<circle cx="121.5" cy="25.5" r="1.5" fill="#939393"/>
<circle cx="133.5" cy="25.5" r="1.5" fill="#939393"/>
<circle cx="145.5" cy="25.5" r="1.5" fill="#939393"/>
<circle cx="1.5" cy="37.5" r="1.5" fill="#939393"/>
<circle cx="13.5" cy="37.5" r="1.5" fill="#939393"/>
<circle cx="25.5" cy="37.5" r="1.5" fill="#939393"/>
<circle cx="37.5" cy="37.5" r="1.5" fill="#939393"/>
<circle cx="49.5" cy="37.5" r="1.5" fill="#939393"/>
<circle cx="61.5" cy="37.5" r="1.5" fill="#939393"/>
<circle cx="73.5" cy="37.5" r="1.5" fill="#939393"/>
<circle cx="85.5" cy="37.5" r="1.5" fill="#939393"/>
<circle cx="97.5" cy="37.5" r="1.5" fill="#939393"/>
<circle cx="109.5" cy="37.5" r="1.5" fill="#939393"/>
<circle cx="121.5" cy="37.5" r="1.5" fill="#939393"/>
<circle cx="133.5" cy="37.5" r="1.5" fill="#939393"/>
<circle cx="145.5" cy="37.5" r="1.5" fill="#939393"/>
<circle cx="1.5" cy="49.5" r="1.5" fill="#939393"/>
<circle cx="13.5" cy="49.5" r="1.5" fill="#939393"/>
<circle cx="25.5" cy="49.5" r="1.5" fill="#939393"/>
<circle cx="37.5" cy="49.5" r="1.5" fill="#939393"/>
<circle cx="49.5" cy="49.5" r="1.5" fill="#939393"/>
<circle cx="61.5" cy="49.5" r="1.5" fill="#939393"/>
<circle cx="73.5" cy="49.5" r="1.5" fill="#939393"/>
<circle cx="85.5" cy="49.5" r="1.5" fill="#939393"/>
<circle cx="97.5" cy="49.5" r="1.5" fill="#939393"/>
<circle cx="109.5" cy="49.5" r="1.5" fill="#939393"/>
<circle cx="121.5" cy="49.5" r="1.5" fill="#939393"/>
<circle cx="133.5" cy="49.5" r="1.5" fill="#939393"/>
<circle cx="145.5" cy="49.5" r="1.5" fill="#939393"/>
<circle cx="1.5" cy="61.5" r="1.5" fill="#939393"/>
<circle cx="13.5" cy="61.5" r="1.5" fill="#939393"/>
<circle cx="25.5" cy="61.5" r="1.5" fill="#939393"/>
<circle cx="37.5" cy="61.5" r="1.5" fill="#939393"/>
<circle cx="49.5" cy="61.5" r="1.5" fill="#939393"/>
<circle cx="61.5" cy="61.5" r="1.5" fill="#939393"/>
<circle cx="73.5" cy="61.5" r="1.5" fill="#939393"/>
<circle cx="85.5" cy="61.5" r="1.5" fill="#939393"/>
<circle cx="97.5" cy="61.5" r="1.5" fill="#939393"/>
<circle cx="109.5" cy="61.5" r="1.5" fill="#939393"/>
<circle cx="121.5" cy="61.5" r="1.5" fill="#939393"/>
<circle cx="133.5" cy="61.5" r="1.5" fill="#939393"/>
<circle cx="145.5" cy="61.5" r="1.5" fill="#939393"/>
<circle cx="1.5" cy="73.5" r="1.5" fill="#939393"/>
<circle cx="13.5" cy="73.5" r="1.5" fill="#939393"/>
<circle cx="25.5" cy="73.5" r="1.5" fill="#939393"/>
<circle cx="37.5" cy="73.5" r="1.5" fill="#939393"/>
<circle cx="49.5" cy="73.5" r="1.5" fill="#939393"/>
<circle cx="61.5" cy="73.5" r="1.5" fill="#939393"/>
<circle cx="73.5" cy="73.5" r="1.5" fill="#939393"/>
<circle cx="85.5" cy="73.5" r="1.5" fill="#939393"/>
<circle cx="97.5" cy="73.5" r="1.5" fill="#939393"/>
<circle cx="109.5" cy="73.5" r="1.5" fill="#939393"/>
<circle cx="121.5" cy="73.5" r="1.5" fill="#939393"/>
<circle cx="133.5" cy="73.5" r="1.5" fill="#939393"/>
<circle cx="145.5" cy="73.5" r="1.5" fill="#939393"/>
<circle cx="1.5" cy="85.5" r="1.5" fill="#939393"/>
<circle cx="13.5" cy="85.5" r="1.5" fill="#939393"/>
<circle cx="25.5" cy="85.5" r="1.5" fill="#939393"/>
<circle cx="37.5" cy="85.5" r="1.5" fill="#939393"/>
<circle cx="49.5" cy="85.5" r="1.5" fill="#939393"/>
<circle cx="61.5" cy="85.5" r="1.5" fill="#939393"/>
<circle cx="73.5" cy="85.5" r="1.5" fill="#939393"/>
<circle cx="85.5" cy="85.5" r="1.5" fill="#939393"/>
<circle cx="97.5" cy="85.5" r="1.5" fill="#939393"/>
<circle cx="109.5" cy="85.5" r="1.5" fill="#939393"/>
<circle cx="121.5" cy="85.5" r="1.5" fill="#939393"/>
<circle cx="133.5" cy="85.5" r="1.5" fill="#939393"/>
<circle cx="145.5" cy="85.5" r="1.5" fill="#939393"/>
<circle cx="1.5" cy="97.5" r="1.5" fill="#939393"/>
<circle cx="13.5" cy="97.5" r="1.5" fill="#939393"/>
<circle cx="25.5" cy="97.5" r="1.5" fill="#939393"/>
<circle cx="37.5" cy="97.5" r="1.5" fill="#939393"/>
<circle cx="49.5" cy="97.5" r="1.5" fill="#939393"/>
<circle cx="61.5" cy="97.5" r="1.5" fill="#939393"/>
<circle cx="73.5" cy="97.5" r="1.5" fill="#939393"/>
<circle cx="85.5" cy="97.5" r="1.5" fill="#939393"/>
<circle cx="97.5" cy="97.5" r="1.5" fill="#939393"/>
<circle cx="109.5" cy="97.5" r="1.5" fill="#939393"/>
<circle cx="121.5" cy="97.5" r="1.5" fill="#939393"/>
<circle cx="145.5" cy="97.5" r="1.5" fill="#939393"/>
<circle cx="1.5" cy="109.5" r="1.5" fill="#939393"/>
<circle cx="13.5" cy="109.5" r="1.5" fill="#939393"/>
<circle cx="25.5" cy="109.5" r="1.5" fill="#939393"/>
<circle cx="37.5" cy="109.5" r="1.5" fill="#939393"/>
<circle cx="49.5" cy="109.5" r="1.5" fill="#939393"/>
<circle cx="61.5" cy="109.5" r="1.5" fill="#939393"/>
<circle cx="73.5" cy="109.5" r="1.5" fill="#939393"/>
<circle cx="85.5" cy="109.5" r="1.5" fill="#939393"/>
<circle cx="97.5" cy="109.5" r="1.5" fill="#939393"/>
<circle cx="109.5" cy="109.5" r="1.5" fill="#939393"/>
<circle cx="121.5" cy="109.5" r="1.5" fill="#939393"/>
<circle cx="133.5" cy="109.5" r="1.5" fill="#939393"/>
<circle cx="145.5" cy="109.5" r="1.5" fill="#939393"/>
<circle cx="133.5" cy="97.5" r="1.5" fill="#939393"/>
</g>
<defs>
<radialGradient id="paint0_radial_431_17136" cx="0" cy="0" r="1" gradientUnits="userSpaceOnUse" gradientTransform="translate(73 55) rotate(90) scale(55 73)">
<stop stop-color="#353B40"/>
<stop offset="1" stop-color="#353B40" stop-opacity="0"/>
</radialGradient>
</defs>
</svg>
