<svg width="70" height="105" viewBox="0 0 70 105" fill="none" xmlns="http://www.w3.org/2000/svg">
<path d="M17.224 30.0778C22.9212 24.9144 25.571 19.5344 27.6908 12.0243L28.9274 28.128L24.0694 33.219L21.5078 39.285L18.6372 43.6541V47.1203L16.0316 51.9948L15.5016 53.6556L16.0316 56.6525L0 91.7484L5.6088 70.7702L7.1988 60.0828C8.9358 58.9393 12.6928 55.8943 13.8234 52.8613C14.954 49.8283 14.2944 47.7702 13.8234 47.1203C16.8264 42.4986 17.224 39.61 17.224 37.6242C17.224 36.3243 17.9306 33.6884 17.224 30.0778Z" fill="#1B1C20"/>
<path d="M39.4385 21.1232C41.3965 16.2127 41.5813 15.3561 52.0513 0L44.4733 22.6036L45.0915 30.0777L28.9275 65.2459L31.4891 55.6776V37.0825L37.9371 33.219L39.4385 21.1232Z" fill="#1B1C20"/>
<path d="M23.0095 81.2776L27.5587 71.0674L25.3945 80.8443L23.0095 87.1629V92.7595L17.2241 104.242L20.4481 92.7595L23.0095 87.1629V81.2776Z" fill="#1B1C20"/>
<path d="M56.4858 26.9005L61.6088 18.2346L58.2082 28.128L60.2398 39.285L55.735 49.1784L50.0378 56.6526L43.9432 62.6825L45.0914 65.2459L41.9116 69.976V73.5506L35.022 84.0939L37.937 73.1173L39.4384 66.1848L42.3092 59.6132L48.0064 50.3337L48.8454 44.4484L50.9212 37.0826L56.4858 26.9005Z" fill="#1B1C20"/>
<path d="M28.9273 94.1677L33.4321 88.2101L32.5487 93.5538L30.9589 97.5979L28.1765 101.967L28.9273 94.1677Z" fill="#1B1C20"/>
<path d="M48.0063 88.2101L53.9241 82.8661L55.0725 75.3197L57.5457 69.976L61.6087 63.4768L60.2397 59.1079L62.8011 54.3416L63.9935 50.3337L66.1135 46.3621L69.9999 39.285L66.8643 47.8786V54.8832L61.6087 62.6825V63.4768V68.3152L59.2682 73.1173L57.5457 77.0529L53.9241 82.8661L47.3438 93.5538L48.0063 88.2101Z" fill="#1B1C20"/>
</svg>
