<svg width="1920" height="1413" viewBox="0 0 1920 1413" fill="none" xmlns="http://www.w3.org/2000/svg">
<path d="M4.61815e-06 716.118L1920 428L1920 1413L0 1413C4.94643 1413 4.61815e-06 716.118 4.61815e-06 716.118Z" fill="url(#paint0_linear_2021_1803)"/>
<path d="M1336.89 63.8795C1335.91 60.9238 1338.35 54.9782 1340.34 49.5929C1343.26 41.6666 1349.19 33.3356 1351.16 30.8724C1353.13 28.4093 1368.88 15.6005 1368.88 15.6005C1368.88 15.6005 1385.12 4.2697 1394.47 1.31384C1403.82 -1.64202 1417.59 1.31384 1417.59 1.31384H1432.36C1432.36 1.31384 1441.71 0.821114 1447.12 1.8064C1452.53 2.79169 1464.83 21.348 1466.31 24.4681C1467.79 27.5881 1483.04 68.1491 1484.03 71.7618C1485.01 75.3745 1485.99 79.6441 1485.99 84.0779C1485.99 88.5117 1485.01 105.59 1485.99 109.695C1486.98 113.801 1492.88 122.34 1494.85 122.997C1496.82 123.654 1512.07 127.759 1514.04 127.431C1516.01 127.102 1521.92 122.34 1522.9 120.534C1523.88 118.727 1522.9 116.592 1522.9 116.592C1522.9 116.592 1518.96 108.546 1520.93 109.695C1522.9 110.845 1522.9 109.695 1522.9 109.695C1522.9 109.695 1523.39 106.083 1522.9 104.276C1522.41 102.47 1520.93 97.5435 1520.93 96.394C1520.93 95.2445 1522.9 92.7813 1522.9 91.9602C1522.9 91.1391 1519.46 89.6612 1517.98 88.5117C1516.5 87.3622 1513.55 81.2862 1514.04 79.1515C1514.54 77.0167 1518.96 74.8819 1520.93 73.7324C1522.9 72.5829 1528.31 74.8819 1527.82 73.7324C1527.33 72.5829 1527.82 72.5829 1527.82 71.7618C1527.82 70.9407 1540.12 70.6123 1540.12 71.7618C1540.12 72.9113 1539.63 86.3769 1540.12 88.5117C1540.62 90.6465 1540.12 95.2445 1542.09 96.394C1544.06 97.5435 1554.39 99.6783 1556.36 100.335C1558.33 100.992 1562.76 103.127 1564.73 104.276C1566.7 105.426 1576.54 111.994 1578.01 113.636C1579.49 115.279 1585.89 123.325 1587.36 125.953C1588.84 128.58 1593.17 141.323 1592.78 145.658C1592.38 149.994 1584.41 156.825 1583.43 159.452C1582.44 162.08 1582.44 170.126 1583.43 171.768C1584.41 173.411 1586.38 179.979 1587.36 182.114C1588.35 184.249 1584.9 180.472 1585.4 182.114C1585.89 183.756 1594.75 224.481 1594.75 224.481L1597.7 237.29L1601.63 249.606C1601.63 249.606 1605.08 260.28 1605.08 262.415V272.76C1605.08 272.76 1604.59 274.074 1605.08 276.701C1605.57 279.329 1610 299.527 1610 299.527C1610 318.74 1599.95 326.13 1592.95 331.877C1581.63 344.82 1564.24 337.625 1562.76 340.745C1561.28 343.865 1564.73 349.448 1565.22 352.076C1565.71 354.703 1567.19 364.885 1567.19 364.885L1569.65 374.737L1573.09 384.098L1576.05 394.443C1576.05 394.443 1578.51 402.654 1578.51 405.281V414.149C1578.51 414.149 1579 419.896 1578.51 423.016C1578.01 426.137 1566.2 429.749 1565.22 434.84C1564.24 439.931 1565.22 452.575 1565.22 452.575V480.163C1565.22 481.028 1565.08 482.624 1564.87 484.597L1396.93 507V496.42C1396.93 494.778 1399.39 484.597 1399.39 484.597L1400.86 465.876L1403.32 449.619L1406.28 433.362C1406.28 433.362 1411.2 413.328 1411.2 412.178V408.73C1411.2 407.58 1407.26 407.909 1406.28 407.252C1405.29 406.595 1406.28 403.968 1406.28 402.818C1406.28 401.669 1409.72 400.519 1410.21 398.877C1410.71 397.235 1410.21 397.071 1410.21 395.921C1410.21 394.772 1413.66 393.622 1413.17 392.965C1412.67 392.308 1401.99 392.965 1399.88 391.487C1397.77 390.009 1394.96 384.754 1393.97 383.112C1392.99 381.47 1392.5 376.872 1392.01 375.723C1391.51 374.573 1390.04 372.931 1390.04 371.289C1390.04 369.647 1392.5 364.556 1391.02 364.392C1389.55 364.228 1385.99 364.392 1385.99 364.392H1381.18L1374.29 365.87C1374.29 365.87 1343.29 367.512 1342.8 367.512C1342.31 367.512 1335.42 369.318 1335.42 369.318L1327.54 371.289L1322.62 372.274C1322.62 372.274 1320.16 372.931 1318.19 373.259C1316.23 373.588 1302.94 372.603 1301.95 373.259C1300.97 373.916 1299.99 376.708 1299.99 376.708L1293.59 390.502L1275.87 424.494C1275.87 424.494 1266.03 445.842 1265.05 446.663C1264.06 447.484 1263.57 448.305 1263.08 448.634C1262.59 448.962 1257.67 449.455 1257.18 449.619C1256.68 449.783 1253.24 457.501 1253.24 457.501C1253.24 457.501 1252.25 459.144 1251.27 459.636C1250.29 460.129 1249.3 461.114 1248.32 461.443C1247.33 461.771 1244.38 461.607 1243.4 461.443C1242.41 461.278 1240.94 459.144 1240.44 458.487C1239.95 457.83 1239.46 455.202 1239.46 454.546V452.082C1239.46 451.426 1241.92 449.291 1241.92 448.634C1241.92 447.977 1237 441.901 1237 440.752C1237 439.602 1241.43 433.526 1241.92 433.855C1242.41 434.183 1243.4 436.154 1244.38 435.825C1245.37 435.497 1247.33 427.943 1247.33 427.943L1253.24 416.612L1267.02 389.517L1277.35 370.304L1286.7 355.032V348.627L1289.16 344.194H1293.59L1299 331.877V328.429C1299 328.429 1301.46 319.233 1302.45 317.098C1303.43 314.963 1306.88 314.142 1306.88 314.142C1306.88 314.142 1309.83 312.5 1311.8 311.186C1313.76 309.873 1326.56 281.792 1326.56 280.15C1326.56 278.508 1322.62 274.074 1323.11 272.268C1323.61 270.461 1333.45 254.532 1333.45 254.532C1333.45 254.532 1330.99 256.175 1331.48 254.532C1331.97 252.89 1332.46 250.263 1333.45 249.113C1334.43 247.964 1338.86 247.143 1338.86 247.143C1338.86 247.143 1335.91 238.275 1336.89 238.275C1337.88 238.275 1343.29 242.216 1343.29 242.216C1343.29 242.216 1344.77 239.096 1345.75 238.275C1346.73 237.454 1349.19 242.216 1349.19 242.216H1356.58C1357.56 242.216 1358.54 245.172 1358.54 245.172C1358.54 245.172 1362.97 245.501 1363.96 245.172C1364.94 244.844 1368.88 234.991 1368.88 233.349C1368.88 231.707 1371.83 177.056 1383.64 167.991C1383.64 167.991 1374.29 170.455 1373.31 169.798C1372.32 169.141 1371.34 161.916 1371.34 161.916C1371.34 161.916 1368.69 158.814 1368.88 156.496C1369.04 154.522 1372.32 153.376 1372.32 151.734C1372.32 150.092 1337.88 66.8353 1336.89 63.8795Z" fill="url(#paint1_linear_2021_1803)"/>
<defs>
<linearGradient id="paint0_linear_2021_1803" x1="1035.51" y1="642.415" x2="1100.25" y2="1320.05" gradientUnits="userSpaceOnUse">
<stop stop-color="#943B27" stop-opacity="0.75"/>
<stop offset="0.550714" stop-color="#4B261E" stop-opacity="0.75"/>
<stop offset="0.845541" stop-color="#251C1A" stop-opacity="0.75"/>
<stop offset="1" stop-color="#181818" stop-opacity="0.75"/>
</linearGradient>
<linearGradient id="paint1_linear_2021_1803" x1="1340.92" y1="-120.701" x2="1503.99" y2="412.974" gradientUnits="userSpaceOnUse">
<stop stop-color="#521F13" stop-opacity="0.86"/>
<stop offset="1" stop-color="#753223"/>
</linearGradient>
</defs>
</svg>
