<svg width="70" height="70" viewBox="0 0 70 70" fill="none" xmlns="http://www.w3.org/2000/svg">
<mask id="mask0_11596_115" style="mask-type:alpha" maskUnits="userSpaceOnUse" x="0" y="0" width="70" height="70">
<rect width="70" height="70" fill="#D9D9D9"/>
</mask>
<g mask="url(#mask0_11596_115)">
<path d="M19.6875 60.375L18.6667 52.2083C17.6458 51.9167 16.5156 51.4306 15.276 50.75C14.0365 50.0694 13.0035 49.3403 12.1771 48.5625L4.66667 51.7708L0 43.6042L6.48958 38.7188C6.39236 38.1354 6.30729 37.5278 6.23438 36.8958C6.16146 36.2639 6.125 35.6563 6.125 35.0729C6.125 34.5382 6.16146 33.967 6.23438 33.3594C6.30729 32.7517 6.39236 32.059 6.48958 31.2813L0 26.3958L4.66667 18.375L12.1042 21.5104C13.0764 20.684 14.1337 19.9427 15.276 19.2865C16.4184 18.6302 17.5243 18.1319 18.5938 17.7917L19.6875 9.625H29.0208L30.0417 17.8646C31.3056 18.3021 32.4115 18.8003 33.3594 19.3594C34.3073 19.9184 35.2917 20.6354 36.3125 21.5104L44.0417 18.375L48.7083 26.3958L43.3125 30.4792C42.875 30.3819 42.4254 30.2847 41.9635 30.1875C41.5017 30.0903 41.0521 29.9931 40.6146 29.8958L46.0833 25.8125L43.1667 20.8542L35.6563 23.9896C34.8299 23.066 33.6754 22.1667 32.1927 21.2917C30.7101 20.4167 29.3611 19.8576 28.1458 19.6146L27.2708 11.6667H21.4375L20.5625 19.5417C19.1042 19.8333 17.7674 20.3194 16.5521 21C15.3368 21.6806 14.0972 22.6528 12.8333 23.9167L5.54167 20.8542L2.625 25.8125L8.96875 30.5521C8.7257 31.184 8.55556 31.8889 8.45833 32.6667C8.36111 33.4444 8.3125 34.2465 8.3125 35.0729C8.3125 35.8021 8.36111 36.5313 8.45833 37.2604C8.55556 37.9896 8.70139 38.6944 8.89583 39.375L2.625 44.1875L5.54167 49.1458L12.7604 46.0833C13.7326 47.0556 14.7413 47.8698 15.7865 48.526C16.8316 49.1823 17.9618 49.7049 19.1771 50.0938C19.3229 52.0382 19.7361 53.8854 20.4167 55.6354C21.0972 57.3854 21.9965 58.9653 23.1146 60.375H19.6875ZM20.9271 40.5417C21.0729 40.2014 21.2309 39.8854 21.401 39.5938C21.5712 39.3021 21.7535 39.0104 21.9479 38.7188C21.316 38.3299 20.8056 37.8194 20.4167 37.1875C20.0278 36.5556 19.8333 35.8264 19.8333 35C19.8333 33.7847 20.2587 32.7517 21.1094 31.901C21.9601 31.0503 22.9931 30.625 24.2083 30.625C24.9861 30.625 25.7031 30.8073 26.3594 31.1719C27.0156 31.5365 27.5382 32.0347 27.9271 32.6667C28.2188 32.4722 28.5226 32.3021 28.8385 32.1562C29.1545 32.0104 29.4583 31.8646 29.75 31.7188C29.2153 30.7465 28.4497 29.9809 27.4531 29.4219C26.4566 28.8628 25.375 28.5833 24.2083 28.5833C22.4097 28.5833 20.8906 29.2031 19.651 30.4427C18.4115 31.6823 17.7917 33.2014 17.7917 35C17.7917 36.2153 18.0712 37.309 18.6302 38.2812C19.1892 39.2535 19.9549 40.0069 20.9271 40.5417ZM38.0625 55.4896L44.8438 48.7083L38.0625 41.9271L36.6042 43.3854L40.9792 47.6875H31.2083V49.7292H40.9063L36.6042 54.0313L38.0625 55.4896ZM29.8229 56.9479C27.5382 54.6632 26.3958 51.9167 26.3958 48.7083C26.3958 45.5 27.5382 42.7535 29.8229 40.4688C32.1076 38.184 34.8542 37.0417 38.0625 37.0417C41.2708 37.0417 44.0174 38.184 46.3021 40.4688C48.5868 42.7535 49.7292 45.5 49.7292 48.7083C49.7292 51.9167 48.5868 54.6632 46.3021 56.9479C44.0174 59.2326 41.2708 60.375 38.0625 60.375C34.8542 60.375 32.1076 59.2326 29.8229 56.9479Z" fill="#FF474A"/>
</g>
</svg>
