<svg width="129" height="20" viewBox="0 0 129 20" fill="none" xmlns="http://www.w3.org/2000/svg">
<path fill-rule="evenodd" clip-rule="evenodd" d="M51.7615 19.9996C49.5393 19.9996 47.5916 19.5944 45.9184 18.7839C44.2453 17.9473 42.9512 16.7709 42.0362 15.2546C41.1212 13.7383 40.6637 11.9867 40.6637 9.99979C40.6637 8.0129 41.1212 6.2613 42.0362 4.745C42.9512 3.22869 44.2453 2.06532 45.9184 1.25488C47.5916 0.418292 49.5393 0 51.7615 0C53.9836 0 55.9313 0.418292 57.6045 1.25488C59.3038 2.06532 60.6109 3.22869 61.526 4.745C62.441 6.2613 62.8985 8.0129 62.8985 9.99979C62.8985 11.9867 62.441 13.7383 61.526 15.2546C60.6109 16.7709 59.3038 17.9473 57.6045 18.7839C55.9313 19.5944 53.9836 19.9996 51.7615 19.9996ZM51.7615 18.3918C54.0882 18.3918 55.9182 17.6467 57.2515 16.1565C58.5848 14.6664 59.2515 12.6141 59.2515 9.99979C59.2515 7.38546 58.5848 5.33322 57.2515 3.84306C55.9182 2.35289 54.0882 1.60781 51.7615 1.60781C49.4347 1.60781 47.6047 2.35289 46.2714 3.84306C44.9642 5.33322 44.3106 7.38546 44.3106 9.99979C44.3106 12.6141 44.9642 14.6664 46.2714 16.1565C47.6047 17.6467 49.4347 18.3918 51.7615 18.3918ZM91.4539 18.7839C93.1271 19.5944 95.0747 19.9996 97.2969 19.9996C99.9635 19.9996 102.186 19.4375 103.963 18.3133C105.741 17.163 106.839 15.5814 107.257 13.5683H104.316C103.95 15.0585 103.14 16.235 101.885 17.0977C100.63 17.9604 99.14 18.3918 97.4145 18.3918C95.1139 18.3918 93.2839 17.6467 91.9245 16.1565C90.5912 14.6402 89.9245 12.588 89.9245 9.99979C89.9245 7.41161 90.5912 5.37244 91.9245 3.88227C93.2839 2.36596 95.1139 1.60781 97.4145 1.60781C99.1661 1.60781 100.656 2.03917 101.885 2.9019C103.14 3.76463 103.95 4.94107 104.316 6.43124H107.257C106.839 4.41821 105.741 2.84961 103.963 1.72545C102.212 0.575151 99.9766 0 97.2577 0C95.0355 0 93.1009 0.40522 91.4539 1.21566C89.8069 2.0261 88.5389 3.18947 87.65 4.70578C86.7612 6.19595 86.3167 7.96061 86.3167 9.99979C86.3167 12.039 86.7612 13.8167 87.65 15.333C88.5389 16.8232 89.8069 17.9735 91.4539 18.7839ZM111.29 18.0392C112.754 19.3464 114.767 19.9999 117.329 19.9999C119.028 19.9999 120.531 19.6731 121.838 19.0196C123.145 18.3398 124.113 17.4118 124.74 16.2353V19.6078H128.348V0.392507H124.74V11.3335C124.74 13.4511 124.126 15.1634 122.897 16.4706C121.695 17.7516 120.1 18.3921 118.113 18.3921C116.387 18.3921 115.054 17.9216 114.113 16.9804C113.198 16.0392 112.74 14.6929 112.74 12.9413V0.392507H109.133V12.5491C109.133 14.8759 109.852 16.7059 111.29 18.0392ZM29.8736 9.21568L38.1087 19.6076H42.0302L32.1873 7.17651L39.991 0.392339H37.2068L26.4227 9.64705V0.391998H22.8149V19.6076H26.4227V12.2352L29.8736 9.21568ZM5.28926 17.0979C6.49185 17.9606 7.98201 18.392 9.75975 18.392C12.0604 18.392 13.8381 17.66 15.093 16.1959C16.3478 14.7058 16.9753 12.6666 16.9753 10.0784V9.88234H3.86436V8.27453H16.8576C16.5962 6.15693 15.8642 4.52298 14.6616 3.37267C13.459 2.19623 11.8774 1.60801 9.91661 1.60801C8.00815 1.60801 6.47877 2.18316 5.32847 3.33346C4.51925 4.1247 3.92031 5.15096 3.53165 6.41225H0.24231C0.704952 4.88836 1.47225 3.61373 2.54422 2.58838C4.32196 0.862925 6.80556 0.000197778 9.99504 0.000197778C12.1126 0.000197778 13.9819 0.41849 15.6028 1.25507C17.1975 2.06551 18.4262 3.22889 19.289 4.74519C20.1517 6.2615 20.583 8.03924 20.583 10.0784C20.583 12.0653 20.1517 13.8169 19.289 15.3332C18.4001 16.8234 17.1583 17.9737 15.5635 18.7841C13.9427 19.5945 12.0604 19.9998 9.91661 19.9998C7.35457 19.9998 5.18468 19.4377 3.40694 18.3135C1.63484 17.1669 0.499197 15.5916 0 13.5877H2.94076C3.28296 15.0688 4.06579 16.2388 5.28926 17.0979ZM68.6421 0.391998H64.9996V0.392042V1.92083V19.6075H68.6421V1.92083L80.5725 1.92083V19.6075H84.215V1.92083H84.2151V0.392041H84.215V0.391998H80.5725V0.392041L68.6421 0.392042V0.391998Z" fill="#121111"/>
</svg>
