<svg width="20" height="20" viewBox="0 0 20 20" fill="none" xmlns="http://www.w3.org/2000/svg">
	<path opacity="1" d="M10 20C15.5242 20 20 15.5242 20 10C20 4.47583 15.5242 0 10 0C4.47583 0 0 4.47583 0 10C0 15.5242 4.47583 20 10 20ZM4.41583 9.42333L14.0575 5.70583C14.505 5.54417 14.8958 5.815 14.7508 6.49167L14.7517 6.49083L13.11 14.225C12.9883 14.7733 12.6625 14.9067 12.2067 14.6483L9.70667 12.8058L8.50083 13.9675C8.3675 14.1008 8.255 14.2133 7.99667 14.2133L8.17417 11.6692L12.8075 7.48333C13.0092 7.30583 12.7625 7.20583 12.4967 7.3825L6.77083 10.9875L4.3025 10.2175C3.76667 10.0475 3.755 9.68167 4.41583 9.42333Z" fill="white"/>
</svg>
