<svg width="44" height="43" viewBox="0 0 44 43" fill="none" xmlns="http://www.w3.org/2000/svg">
<g clip-path="url(#clip0)">
<path d="M30.5841 7.72948V7.97948H30.8341H38.0542C39.5213 7.97948 40.7461 8.46599 41.7447 9.43762C42.7396 10.4056 43.2405 11.6413 43.2405 13.1658V20.3859C43.2405 20.9419 43.1016 21.3131 42.8677 21.5469C42.6339 21.7808 42.2627 21.9197 41.7067 21.9197H41.4567V22.1697V36.6948C41.4567 37.5854 41.1191 38.3728 40.4256 39.0663C39.7321 39.7598 38.9448 40.0973 38.0542 40.0973H5.43631C4.54567 40.0973 3.75831 39.7598 3.06482 39.0663C2.37132 38.3728 2.03379 37.5854 2.03379 36.6948V22.1697V21.9197H1.78379C1.22773 21.9197 0.856602 21.7808 0.622724 21.5469C0.388846 21.3131 0.25 20.9419 0.25 20.3859V13.1658C0.25 11.6413 0.750884 10.4056 1.74577 9.43762C2.74439 8.46599 3.96914 7.97948 5.43631 7.97948H12.6564H12.9064V7.72948V5.86075C12.9064 4.39572 13.4055 3.17173 14.4046 2.17265C15.4037 1.17356 16.6277 0.674438 18.0927 0.674438H25.3978C26.8628 0.674438 28.0868 1.17356 29.0858 2.17265C30.0849 3.17173 30.5841 4.39572 30.5841 5.86075V7.72948ZM27.1815 7.97948H27.4315V7.72948V5.86075C27.4315 5.28925 27.2384 4.79955 26.8487 4.40984C26.4589 4.02012 25.9692 3.82696 25.3978 3.82696H18.0927C17.5212 3.82696 17.0315 4.02012 16.6418 4.40984C16.2521 4.79955 16.0589 5.28925 16.0589 5.86075V7.72948V7.97948H16.3089H27.1815ZM5.18631 36.6948V36.9448H5.43631H38.0542H38.3042V36.6948V22.1697V21.9197H38.0542H27.1815H26.9315V22.1697V27.606C26.9315 28.5603 26.603 29.3599 25.943 30.0199C25.283 30.68 24.4834 31.0085 23.529 31.0085H19.9614C19.0071 31.0085 18.2075 30.68 17.5475 30.0199C16.8875 29.3599 16.5589 28.5603 16.5589 27.606V22.1697V21.9197H16.3089H5.43631H5.18631V22.1697V36.6948ZM19.7114 27.606V27.856H19.9614H23.529H23.779V27.606V22.1697V21.9197H23.529H19.9614H19.7114V22.1697V27.606ZM39.8379 18.8521H40.0879V18.6021V13.1658C40.0879 12.5072 39.931 11.9668 39.5728 11.5916C39.2126 11.2143 38.6903 11.0471 38.0542 11.0471H5.43631C4.80013 11.0471 4.27783 11.2143 3.91763 11.5916C3.5595 11.9668 3.40252 12.5072 3.40252 13.1658V18.6021V18.8521H3.65252H39.8379Z" fill="#2F80ED" stroke="#F9F2F2" stroke-width="0.5"/>
</g>
<defs>
<clipPath id="clip0">
<rect width="43.4905" height="42.1314" fill="white"/>
</clipPath>
</defs>
</svg>
