<svg width="43" height="43" viewBox="0 0 43 43" fill="none" xmlns="http://www.w3.org/2000/svg">
<path d="M23.0917 21.5V21.7H23.2917H28.1839L21.5001 28.3838L14.8163 21.7H19.7084H19.9084V21.5V5.575H23.0917V21.5ZM37.8251 8.94042V8.74042H37.6251H27.0751V5.575H37.6251C39.4855 5.575 41.0084 7.09796 41.0084 8.95833V34.0417C41.0084 35.902 39.4855 37.425 37.6251 37.425H5.37508C3.5147 37.425 1.99175 35.902 1.99175 34.0417V8.95833C1.99175 7.09796 3.5147 5.575 5.37508 5.575H15.9251V8.74042H5.37508H5.17508V8.94042V34.0775V34.2775H5.37508H37.6251H37.8251V34.0775V8.94042Z" fill="#2F80ED" stroke="#F9F2F2" stroke-width="0.4"/>
</svg>
