<svg width="50" height="42" viewBox="0 0 50 42" fill="none" xmlns="http://www.w3.org/2000/svg">
<path d="M49.6934 25.1687C49.5841 24.9784 49.4148 24.8294 49.2147 24.7455L45.6411 23.2532L49.3424 21.0297C49.81 20.7505 49.9683 20.137 49.6934 19.66C49.5841 19.4697 49.4148 19.3207 49.2147 19.2368L45.6411 17.7445L49.3424 15.521C49.6651 15.3219 49.8492 14.9526 49.8136 14.5695C49.7854 14.1914 49.5498 13.8609 49.2049 13.7181L35.136 7.83886L28.2046 4.83413C28.0917 4.78906 27.9726 4.76527 27.8511 4.76402L16.5606 0.0766272C16.2832 -0.0410584 15.9691 -0.0222788 15.7064 0.126706L0.577149 8.80038C0.0923928 9.04952 -0.10151 9.65172 0.141482 10.145C0.25316 10.3704 0.443381 10.5444 0.675327 10.6333L4.32757 12.1757L0.577149 14.3091C0.105892 14.582 -0.061011 15.193 0.206525 15.6737C0.313294 15.8653 0.477743 16.0155 0.675327 16.1019L4.32757 17.6443L0.596785 19.7777C0.0973017 19.9943 -0.133418 20.5827 0.0788933 21.0923C0.189344 21.3577 0.406564 21.5605 0.675327 21.6506L4.32757 23.1831L0.596785 25.3164C0.125528 25.5893 -0.0413753 26.2003 0.226161 26.6811C0.33293 26.8726 0.497379 27.0229 0.694963 27.1092L13.3894 32.6079C13.4361 32.6417 13.4852 32.673 13.5367 32.6981L20.4779 35.7028L33.2411 41.2415C33.5283 41.3655 33.856 41.3442 34.1247 41.1814L49.3424 32.047C49.81 31.7678 49.9683 31.1544 49.6934 30.6761C49.5841 30.4858 49.4148 30.3368 49.2147 30.253L45.6411 28.7606L49.3424 26.5371C49.81 26.2592 49.967 25.6457 49.6934 25.1687ZM46.6327 20.3085L33.5455 28.1709L21.8426 23.1029V19.7677L33.2313 24.7055C33.3528 24.758 33.4829 24.7856 33.6142 24.7856C33.7909 24.7856 33.964 24.7368 34.1149 24.6454L43.5106 19.0065L46.6327 20.3085ZM46.6719 14.7898L33.5455 22.6522L22.9127 18.045L34.8905 9.88209L46.6719 14.7898ZM12.9084 30.2442L3.27706 26.0676L6.58567 24.1746L12.9182 26.9189L12.9084 30.2442ZM12.9084 24.7355L3.27706 20.5589L6.58567 18.6459L12.9182 21.3902L12.9084 24.7355ZM12.9084 19.2268L3.27706 15.0603L6.58567 13.1673L12.9182 15.9116L12.9084 19.2268ZM3.27706 9.55157L16.2562 2.10983L25.6716 6.04604L13.8116 14.1188L3.27706 9.55157ZM20.311 17.424C20.0398 17.6105 19.879 17.9223 19.879 18.2553V33.279L14.8817 31.1156V15.8014L27.8904 6.95748L32.7306 8.96063L20.311 17.424ZM46.6327 31.3259L33.5455 39.1783L21.8426 34.1103V30.785L33.2313 35.6727C33.5185 35.7967 33.8461 35.7754 34.1149 35.6127L43.5106 29.9738L46.6327 31.3259ZM33.5455 33.6696L21.8426 28.6016V25.2764L33.2411 30.2141C33.5283 30.3381 33.856 30.3168 34.1247 30.154L43.5204 24.5152L46.6327 25.8172L33.5455 33.6696Z" fill="#2F80ED"/>
</svg>
