<svg width="1638" height="2830" viewBox="0 0 1638 2830" fill="none" xmlns="http://www.w3.org/2000/svg">
<rect width="1638" height="1094" fill="url(#paint0_linear)"/>
<rect y="1094" width="1638" height="1736" fill="#0E0E48"/>
<g opacity="0.4">
<rect width="1" height="1369" transform="matrix(1 0 0 -1 27 1371)" fill="url(#paint1_linear)" fill-opacity="0.18"/>
<rect width="1" height="1369" transform="matrix(1 0 0 -1 62 1371)" fill="url(#paint2_linear)" fill-opacity="0.18"/>
<rect width="1" height="1369" transform="matrix(1 0 0 -1 97 1371)" fill="url(#paint3_linear)" fill-opacity="0.18"/>
<rect width="1" height="1369" transform="matrix(1 0 0 -1 132 1371)" fill="url(#paint4_linear)" fill-opacity="0.18"/>
<rect width="1" height="1369" transform="matrix(1 0 0 -1 167 1371)" fill="url(#paint5_linear)" fill-opacity="0.18"/>
<rect width="1" height="1369" transform="matrix(1 0 0 -1 202 1371)" fill="url(#paint6_linear)" fill-opacity="0.18"/>
<rect width="1" height="1369" transform="matrix(1 0 0 -1 237 1371)" fill="url(#paint7_linear)" fill-opacity="0.18"/>
<rect width="1" height="1369" transform="matrix(1 0 0 -1 272 1371)" fill="url(#paint8_linear)" fill-opacity="0.18"/>
<rect width="1" height="1369" transform="matrix(1 0 0 -1 307 1371)" fill="url(#paint9_linear)" fill-opacity="0.18"/>
<rect width="1" height="1369" transform="matrix(1 0 0 -1 342 1371)" fill="url(#paint10_linear)" fill-opacity="0.18"/>
<rect width="1" height="1369" transform="matrix(1 0 0 -1 377 1371)" fill="url(#paint11_linear)" fill-opacity="0.18"/>
<rect width="1" height="1369" transform="matrix(1 0 0 -1 412 1371)" fill="url(#paint12_linear)" fill-opacity="0.18"/>
<rect width="1" height="1369" transform="matrix(1 0 0 -1 447 1371)" fill="url(#paint13_linear)" fill-opacity="0.18"/>
<rect width="1" height="1369" transform="matrix(1 0 0 -1 482 1371)" fill="url(#paint14_linear)" fill-opacity="0.18"/>
<rect width="1" height="1369" transform="matrix(1 0 0 -1 517 1371)" fill="url(#paint15_linear)" fill-opacity="0.18"/>
<rect width="1" height="1369" transform="matrix(1 0 0 -1 552 1371)" fill="url(#paint16_linear)" fill-opacity="0.18"/>
<rect width="1" height="1369" transform="matrix(1 0 0 -1 587 1371)" fill="url(#paint17_linear)" fill-opacity="0.18"/>
<rect width="1" height="1369" transform="matrix(1 0 0 -1 622 1371)" fill="url(#paint18_linear)" fill-opacity="0.18"/>
<rect width="1" height="1369" transform="matrix(1 0 0 -1 657 1371)" fill="url(#paint19_linear)" fill-opacity="0.18"/>
<rect width="1" height="1369" transform="matrix(1 0 0 -1 692 1371)" fill="url(#paint20_linear)" fill-opacity="0.18"/>
<rect width="1" height="1369" transform="matrix(1 0 0 -1 727 1371)" fill="url(#paint21_linear)" fill-opacity="0.18"/>
<rect width="1" height="1369" transform="matrix(1 0 0 -1 762 1371)" fill="url(#paint22_linear)" fill-opacity="0.18"/>
<rect width="1" height="1369" transform="matrix(1 0 0 -1 797 1371)" fill="url(#paint23_linear)" fill-opacity="0.18"/>
<rect width="1" height="1369" transform="matrix(1 0 0 -1 832 1371)" fill="url(#paint24_linear)" fill-opacity="0.18"/>
<rect width="1" height="1369" transform="matrix(1 0 0 -1 867 1371)" fill="url(#paint25_linear)" fill-opacity="0.18"/>
<rect width="1" height="1369" transform="matrix(1 0 0 -1 902 1371)" fill="url(#paint26_linear)" fill-opacity="0.18"/>
<rect width="1" height="1369" transform="matrix(1 0 0 -1 937 1371)" fill="url(#paint27_linear)" fill-opacity="0.18"/>
<rect width="1" height="1369" transform="matrix(1 0 0 -1 972 1371)" fill="url(#paint28_linear)" fill-opacity="0.18"/>
<rect width="1" height="1369" transform="matrix(1 0 0 -1 1007 1371)" fill="url(#paint29_linear)" fill-opacity="0.18"/>
<rect width="1" height="1369" transform="matrix(1 0 0 -1 1042 1371)" fill="url(#paint30_linear)" fill-opacity="0.18"/>
<rect width="1" height="1369" transform="matrix(1 0 0 -1 1077 1371)" fill="url(#paint31_linear)" fill-opacity="0.18"/>
<rect width="1" height="1369" transform="matrix(1 0 0 -1 1112 1371)" fill="url(#paint32_linear)" fill-opacity="0.18"/>
<rect width="1" height="1369" transform="matrix(1 0 0 -1 1147 1371)" fill="url(#paint33_linear)" fill-opacity="0.18"/>
<rect width="1" height="1369" transform="matrix(1 0 0 -1 1182 1371)" fill="url(#paint34_linear)" fill-opacity="0.18"/>
<rect width="1" height="1369" transform="matrix(1 0 0 -1 1217 1371)" fill="url(#paint35_linear)" fill-opacity="0.18"/>
<rect width="1" height="1369" transform="matrix(1 0 0 -1 1252 1371)" fill="url(#paint36_linear)" fill-opacity="0.18"/>
<rect width="1" height="1369" transform="matrix(1 0 0 -1 1287 1371)" fill="url(#paint37_linear)" fill-opacity="0.18"/>
<rect width="1" height="1369" transform="matrix(1 0 0 -1 1322 1371)" fill="url(#paint38_linear)" fill-opacity="0.18"/>
<rect width="1" height="1369" transform="matrix(1 0 0 -1 1357 1371)" fill="url(#paint39_linear)" fill-opacity="0.18"/>
<rect width="1" height="1369" transform="matrix(1 0 0 -1 1392 1371)" fill="url(#paint40_linear)" fill-opacity="0.18"/>
<rect width="1" height="1369" transform="matrix(1 0 0 -1 1427 1371)" fill="url(#paint41_linear)" fill-opacity="0.18"/>
<rect width="1" height="1369" transform="matrix(1 0 0 -1 1462 1371)" fill="url(#paint42_linear)" fill-opacity="0.18"/>
<rect width="1" height="1369" transform="matrix(1 0 0 -1 1497 1371)" fill="url(#paint43_linear)" fill-opacity="0.18"/>
<rect width="1" height="1369" transform="matrix(1 0 0 -1 1532 1371)" fill="url(#paint44_linear)" fill-opacity="0.18"/>
<rect width="1" height="1369" transform="matrix(1 0 0 -1 1567 1371)" fill="url(#paint45_linear)" fill-opacity="0.18"/>
<rect width="1" height="1369" transform="matrix(1 0 0 -1 1602 1371)" fill="url(#paint46_linear)" fill-opacity="0.18"/>
<rect width="1" height="1369" transform="matrix(1 0 0 -1 1637 1371)" fill="url(#paint47_linear)" fill-opacity="0.18"/>
</g>
<defs>
<linearGradient id="paint0_linear" x1="819.502" y1="655.934" x2="819.502" y2="54.0018" gradientUnits="userSpaceOnUse">
<stop stop-color="#0E0E47"/>
<stop offset="1" stop-color="#382668"/>
</linearGradient>
<linearGradient id="paint1_linear" x1="0.5" y1="0" x2="0.5" y2="1369" gradientUnits="userSpaceOnUse">
<stop stop-color="#2F80ED"/>
<stop offset="1" stop-color="#2F80ED" stop-opacity="0"/>
</linearGradient>
<linearGradient id="paint2_linear" x1="0.5" y1="0" x2="0.5" y2="1369" gradientUnits="userSpaceOnUse">
<stop stop-color="#2F80ED"/>
<stop offset="1" stop-color="#2F80ED" stop-opacity="0"/>
</linearGradient>
<linearGradient id="paint3_linear" x1="0.5" y1="0" x2="0.5" y2="1369" gradientUnits="userSpaceOnUse">
<stop stop-color="#2F80ED"/>
<stop offset="1" stop-color="#2F80ED" stop-opacity="0"/>
</linearGradient>
<linearGradient id="paint4_linear" x1="0.5" y1="0" x2="0.5" y2="1369" gradientUnits="userSpaceOnUse">
<stop stop-color="#2F80ED"/>
<stop offset="1" stop-color="#2F80ED" stop-opacity="0"/>
</linearGradient>
<linearGradient id="paint5_linear" x1="0.5" y1="0" x2="0.5" y2="1369" gradientUnits="userSpaceOnUse">
<stop stop-color="#2F80ED"/>
<stop offset="1" stop-color="#2F80ED" stop-opacity="0"/>
</linearGradient>
<linearGradient id="paint6_linear" x1="0.5" y1="0" x2="0.5" y2="1369" gradientUnits="userSpaceOnUse">
<stop stop-color="#2F80ED"/>
<stop offset="1" stop-color="#2F80ED" stop-opacity="0"/>
</linearGradient>
<linearGradient id="paint7_linear" x1="0.5" y1="0" x2="0.5" y2="1369" gradientUnits="userSpaceOnUse">
<stop stop-color="#2F80ED"/>
<stop offset="1" stop-color="#2F80ED" stop-opacity="0"/>
</linearGradient>
<linearGradient id="paint8_linear" x1="0.5" y1="0" x2="0.5" y2="1369" gradientUnits="userSpaceOnUse">
<stop stop-color="#2F80ED"/>
<stop offset="1" stop-color="#2F80ED" stop-opacity="0"/>
</linearGradient>
<linearGradient id="paint9_linear" x1="0.5" y1="0" x2="0.5" y2="1369" gradientUnits="userSpaceOnUse">
<stop stop-color="#2F80ED"/>
<stop offset="1" stop-color="#2F80ED" stop-opacity="0"/>
</linearGradient>
<linearGradient id="paint10_linear" x1="0.5" y1="0" x2="0.5" y2="1369" gradientUnits="userSpaceOnUse">
<stop stop-color="#2F80ED"/>
<stop offset="1" stop-color="#2F80ED" stop-opacity="0"/>
</linearGradient>
<linearGradient id="paint11_linear" x1="0.5" y1="0" x2="0.5" y2="1369" gradientUnits="userSpaceOnUse">
<stop stop-color="#2F80ED"/>
<stop offset="1" stop-color="#2F80ED" stop-opacity="0"/>
</linearGradient>
<linearGradient id="paint12_linear" x1="0.5" y1="0" x2="0.5" y2="1369" gradientUnits="userSpaceOnUse">
<stop stop-color="#2F80ED"/>
<stop offset="1" stop-color="#2F80ED" stop-opacity="0"/>
</linearGradient>
<linearGradient id="paint13_linear" x1="0.5" y1="0" x2="0.5" y2="1369" gradientUnits="userSpaceOnUse">
<stop stop-color="#2F80ED"/>
<stop offset="1" stop-color="#2F80ED" stop-opacity="0"/>
</linearGradient>
<linearGradient id="paint14_linear" x1="0.5" y1="0" x2="0.5" y2="1369" gradientUnits="userSpaceOnUse">
<stop stop-color="#2F80ED"/>
<stop offset="1" stop-color="#2F80ED" stop-opacity="0"/>
</linearGradient>
<linearGradient id="paint15_linear" x1="0.5" y1="0" x2="0.5" y2="1369" gradientUnits="userSpaceOnUse">
<stop stop-color="#2F80ED"/>
<stop offset="1" stop-color="#2F80ED" stop-opacity="0"/>
</linearGradient>
<linearGradient id="paint16_linear" x1="0.5" y1="0" x2="0.5" y2="1369" gradientUnits="userSpaceOnUse">
<stop stop-color="#2F80ED"/>
<stop offset="1" stop-color="#2F80ED" stop-opacity="0"/>
</linearGradient>
<linearGradient id="paint17_linear" x1="0.5" y1="0" x2="0.5" y2="1369" gradientUnits="userSpaceOnUse">
<stop stop-color="#2F80ED"/>
<stop offset="1" stop-color="#2F80ED" stop-opacity="0"/>
</linearGradient>
<linearGradient id="paint18_linear" x1="0.5" y1="0" x2="0.5" y2="1369" gradientUnits="userSpaceOnUse">
<stop stop-color="#2F80ED"/>
<stop offset="1" stop-color="#2F80ED" stop-opacity="0"/>
</linearGradient>
<linearGradient id="paint19_linear" x1="0.5" y1="0" x2="0.5" y2="1369" gradientUnits="userSpaceOnUse">
<stop stop-color="#2F80ED"/>
<stop offset="1" stop-color="#2F80ED" stop-opacity="0"/>
</linearGradient>
<linearGradient id="paint20_linear" x1="0.5" y1="0" x2="0.5" y2="1369" gradientUnits="userSpaceOnUse">
<stop stop-color="#2F80ED"/>
<stop offset="1" stop-color="#2F80ED" stop-opacity="0"/>
</linearGradient>
<linearGradient id="paint21_linear" x1="0.5" y1="0" x2="0.5" y2="1369" gradientUnits="userSpaceOnUse">
<stop stop-color="#2F80ED"/>
<stop offset="1" stop-color="#2F80ED" stop-opacity="0"/>
</linearGradient>
<linearGradient id="paint22_linear" x1="0.5" y1="0" x2="0.5" y2="1369" gradientUnits="userSpaceOnUse">
<stop stop-color="#2F80ED"/>
<stop offset="1" stop-color="#2F80ED" stop-opacity="0"/>
</linearGradient>
<linearGradient id="paint23_linear" x1="0.5" y1="0" x2="0.5" y2="1369" gradientUnits="userSpaceOnUse">
<stop stop-color="#2F80ED"/>
<stop offset="1" stop-color="#2F80ED" stop-opacity="0"/>
</linearGradient>
<linearGradient id="paint24_linear" x1="0.5" y1="0" x2="0.5" y2="1369" gradientUnits="userSpaceOnUse">
<stop stop-color="#2F80ED"/>
<stop offset="1" stop-color="#2F80ED" stop-opacity="0"/>
</linearGradient>
<linearGradient id="paint25_linear" x1="0.5" y1="0" x2="0.5" y2="1369" gradientUnits="userSpaceOnUse">
<stop stop-color="#2F80ED"/>
<stop offset="1" stop-color="#2F80ED" stop-opacity="0"/>
</linearGradient>
<linearGradient id="paint26_linear" x1="0.5" y1="0" x2="0.5" y2="1369" gradientUnits="userSpaceOnUse">
<stop stop-color="#2F80ED"/>
<stop offset="1" stop-color="#2F80ED" stop-opacity="0"/>
</linearGradient>
<linearGradient id="paint27_linear" x1="0.5" y1="0" x2="0.5" y2="1369" gradientUnits="userSpaceOnUse">
<stop stop-color="#2F80ED"/>
<stop offset="1" stop-color="#2F80ED" stop-opacity="0"/>
</linearGradient>
<linearGradient id="paint28_linear" x1="0.5" y1="0" x2="0.5" y2="1369" gradientUnits="userSpaceOnUse">
<stop stop-color="#2F80ED"/>
<stop offset="1" stop-color="#2F80ED" stop-opacity="0"/>
</linearGradient>
<linearGradient id="paint29_linear" x1="0.5" y1="0" x2="0.5" y2="1369" gradientUnits="userSpaceOnUse">
<stop stop-color="#2F80ED"/>
<stop offset="1" stop-color="#2F80ED" stop-opacity="0"/>
</linearGradient>
<linearGradient id="paint30_linear" x1="0.5" y1="0" x2="0.5" y2="1369" gradientUnits="userSpaceOnUse">
<stop stop-color="#2F80ED"/>
<stop offset="1" stop-color="#2F80ED" stop-opacity="0"/>
</linearGradient>
<linearGradient id="paint31_linear" x1="0.5" y1="0" x2="0.5" y2="1369" gradientUnits="userSpaceOnUse">
<stop stop-color="#2F80ED"/>
<stop offset="1" stop-color="#2F80ED" stop-opacity="0"/>
</linearGradient>
<linearGradient id="paint32_linear" x1="0.5" y1="0" x2="0.5" y2="1369" gradientUnits="userSpaceOnUse">
<stop stop-color="#2F80ED"/>
<stop offset="1" stop-color="#2F80ED" stop-opacity="0"/>
</linearGradient>
<linearGradient id="paint33_linear" x1="0.5" y1="0" x2="0.5" y2="1369" gradientUnits="userSpaceOnUse">
<stop stop-color="#2F80ED"/>
<stop offset="1" stop-color="#2F80ED" stop-opacity="0"/>
</linearGradient>
<linearGradient id="paint34_linear" x1="0.5" y1="0" x2="0.5" y2="1369" gradientUnits="userSpaceOnUse">
<stop stop-color="#2F80ED"/>
<stop offset="1" stop-color="#2F80ED" stop-opacity="0"/>
</linearGradient>
<linearGradient id="paint35_linear" x1="0.5" y1="0" x2="0.5" y2="1369" gradientUnits="userSpaceOnUse">
<stop stop-color="#2F80ED"/>
<stop offset="1" stop-color="#2F80ED" stop-opacity="0"/>
</linearGradient>
<linearGradient id="paint36_linear" x1="0.5" y1="0" x2="0.5" y2="1369" gradientUnits="userSpaceOnUse">
<stop stop-color="#2F80ED"/>
<stop offset="1" stop-color="#2F80ED" stop-opacity="0"/>
</linearGradient>
<linearGradient id="paint37_linear" x1="0.5" y1="0" x2="0.5" y2="1369" gradientUnits="userSpaceOnUse">
<stop stop-color="#2F80ED"/>
<stop offset="1" stop-color="#2F80ED" stop-opacity="0"/>
</linearGradient>
<linearGradient id="paint38_linear" x1="0.5" y1="0" x2="0.5" y2="1369" gradientUnits="userSpaceOnUse">
<stop stop-color="#2F80ED"/>
<stop offset="1" stop-color="#2F80ED" stop-opacity="0"/>
</linearGradient>
<linearGradient id="paint39_linear" x1="0.5" y1="0" x2="0.5" y2="1369" gradientUnits="userSpaceOnUse">
<stop stop-color="#2F80ED"/>
<stop offset="1" stop-color="#2F80ED" stop-opacity="0"/>
</linearGradient>
<linearGradient id="paint40_linear" x1="0.5" y1="0" x2="0.5" y2="1369" gradientUnits="userSpaceOnUse">
<stop stop-color="#2F80ED"/>
<stop offset="1" stop-color="#2F80ED" stop-opacity="0"/>
</linearGradient>
<linearGradient id="paint41_linear" x1="0.5" y1="0" x2="0.5" y2="1369" gradientUnits="userSpaceOnUse">
<stop stop-color="#2F80ED"/>
<stop offset="1" stop-color="#2F80ED" stop-opacity="0"/>
</linearGradient>
<linearGradient id="paint42_linear" x1="0.5" y1="0" x2="0.5" y2="1369" gradientUnits="userSpaceOnUse">
<stop stop-color="#2F80ED"/>
<stop offset="1" stop-color="#2F80ED" stop-opacity="0"/>
</linearGradient>
<linearGradient id="paint43_linear" x1="0.5" y1="0" x2="0.5" y2="1369" gradientUnits="userSpaceOnUse">
<stop stop-color="#2F80ED"/>
<stop offset="1" stop-color="#2F80ED" stop-opacity="0"/>
</linearGradient>
<linearGradient id="paint44_linear" x1="0.5" y1="0" x2="0.5" y2="1369" gradientUnits="userSpaceOnUse">
<stop stop-color="#2F80ED"/>
<stop offset="1" stop-color="#2F80ED" stop-opacity="0"/>
</linearGradient>
<linearGradient id="paint45_linear" x1="0.5" y1="0" x2="0.5" y2="1369" gradientUnits="userSpaceOnUse">
<stop stop-color="#2F80ED"/>
<stop offset="1" stop-color="#2F80ED" stop-opacity="0"/>
</linearGradient>
<linearGradient id="paint46_linear" x1="0.5" y1="0" x2="0.5" y2="1369" gradientUnits="userSpaceOnUse">
<stop stop-color="#2F80ED"/>
<stop offset="1" stop-color="#2F80ED" stop-opacity="0"/>
</linearGradient>
<linearGradient id="paint47_linear" x1="0.5" y1="0" x2="0.5" y2="1369" gradientUnits="userSpaceOnUse">
<stop stop-color="#2F80ED"/>
<stop offset="1" stop-color="#2F80ED" stop-opacity="0"/>
</linearGradient>
</defs>
</svg>
