<svg width="3388" height="2830" viewBox="0 0 3388 2830" fill="none" xmlns="http://www.w3.org/2000/svg">
<g opacity="0.36">
<rect opacity="0.43" x="762" y="-885.293" width="1076.63" height="1076.63" rx="171.431" transform="rotate(45 762 -885.293)" stroke="white"/>
<rect opacity="0.43" x="762" y="-558.008" width="613.78" height="613.78" rx="97.5855" transform="rotate(45 762 -558.008)" stroke="white"/>
<rect opacity="0.43" x="2626" y="-885.293" width="1076.63" height="1076.63" rx="171.431" transform="rotate(45 2626 -885.293)" stroke="white"/>
<rect opacity="0.43" x="2626" y="-558.008" width="613.78" height="613.78" rx="97.5855" transform="rotate(45 2626 -558.008)" stroke="white"/>
</g>
<rect opacity="0.43" x="1691" y="62.7071" width="1076.63" height="1076.63" rx="106.5" transform="rotate(45 1691 62.7071)" stroke="url(#paint0_linear)"/>
<g opacity="0.36">
<rect opacity="0.43" x="762" y="1306.71" width="1076.63" height="1076.63" rx="171.431" transform="rotate(45 762 1306.71)" stroke="white"/>
<rect opacity="0.43" x="762" y="1633.99" width="613.78" height="613.78" rx="97.5855" transform="rotate(45 762 1633.99)" stroke="white"/>
<rect opacity="0.43" x="2626" y="1306.71" width="1076.63" height="1076.63" rx="171.431" transform="rotate(45 2626 1306.71)" stroke="white"/>
<rect opacity="0.43" x="2626" y="1633.99" width="613.78" height="613.78" rx="97.5855" transform="rotate(45 2626 1633.99)" stroke="white"/>
</g>
<defs>
<linearGradient id="paint0_linear" x1="1742.27" y1="94.8805" x2="2169.36" y2="540.358" gradientUnits="userSpaceOnUse">
<stop stop-color="white"/>
<stop offset="1" stop-color="white" stop-opacity="0"/>
</linearGradient>
</defs>
</svg>
