<svg width="747" height="195" viewBox="0 0 747 195" fill="none" xmlns="http://www.w3.org/2000/svg">
<path d="M126.29 184.932C134.819 190.837 144.946 194 155.32 194H590.139C600.414 194 610.45 190.896 618.931 185.095L685.454 139.595C715.065 119.343 715.065 75.6575 685.454 55.4046L618.931 9.9046C610.45 4.10374 600.414 1 590.139 1H155.32C144.946 1 134.819 4.16342 126.29 10.0682L60.5681 55.5682C31.2744 75.8485 31.2744 119.152 60.5681 139.432L126.29 184.932Z" fill="white" stroke="url(#paint0_linear)" stroke-width="2"/>
<mask id="mask0" mask-type="alpha" maskUnits="userSpaceOnUse" x="62" y="12" width="622" height="179">
<path d="M144.891 183.969C152.689 188.516 161.554 190.912 170.581 190.912H574.481C583.437 190.912 592.236 188.554 599.991 184.074L658.072 150.524C690.297 131.91 692.379 86.1636 661.976 64.6995L601.378 21.917C592.772 15.8418 582.497 12.5801 571.964 12.5801H173.403C162.612 12.5801 152.098 16.0034 143.375 22.3573L83.9198 65.6667C54.1754 87.3335 56.4685 132.41 88.2581 150.947L144.891 183.969Z" fill="black"/>
</mask>
<g mask="url(#mask0)">
<path d="M599.629 14.0811L681.492 114.656" stroke="#3A4389" stroke-opacity="0.42" stroke-width="1.5"/>
<path d="M606.585 14.0811L688.448 114.656" stroke="#3A4389" stroke-opacity="0.42" stroke-width="1.5"/>
<path d="M613.542 14.0811L695.405 114.656" stroke="#3A4389" stroke-opacity="0.42" stroke-width="1.5"/>
<path d="M620.499 14.0811L702.361 114.656" stroke="#3A4389" stroke-opacity="0.42" stroke-width="1.5"/>
<path d="M627.456 14.0811L709.318 114.656" stroke="#3A4389" stroke-opacity="0.42" stroke-width="1.5"/>
<path d="M634.412 14.0811L716.275 114.656" stroke="#3A4389" stroke-opacity="0.42" stroke-width="1.5"/>
<path d="M641.369 14.0811L723.231 114.656" stroke="#3A4389" stroke-opacity="0.42" stroke-width="1.5"/>
<path d="M648.325 14.0811L730.188 114.656" stroke="#3A4389" stroke-opacity="0.42" stroke-width="1.5"/>
<path d="M655.282 14.0811L737.144 114.656" stroke="#3A4389" stroke-opacity="0.42" stroke-width="1.5"/>
<path d="M593.618 14.0811L675.481 114.656" stroke="#3A4389" stroke-opacity="0.42" stroke-width="1.5"/>
<path d="M587.607 14.0811L669.47 114.656" stroke="#3A4389" stroke-opacity="0.42" stroke-width="1.5"/>
<path d="M581.596 14.0811L663.459 114.656" stroke="#3A4389" stroke-opacity="0.42" stroke-width="1.5"/>
<path d="M575.585 14.0811L657.448 114.656" stroke="#3A4389" stroke-opacity="0.42" stroke-width="1.5"/>
<path d="M569.575 14.0811L651.437 114.656" stroke="#3A4389" stroke-opacity="0.42" stroke-width="1.5"/>
<path d="M563.564 14.0811L645.426 114.656" stroke="#3A4389" stroke-opacity="0.42" stroke-width="1.5"/>
<path d="M557.553 14.0811L639.415 114.656" stroke="#3A4389" stroke-opacity="0.42" stroke-width="1.5"/>
<path d="M551.542 14.0811L633.405 114.656" stroke="#3A4389" stroke-opacity="0.42" stroke-width="1.5"/>
<path d="M545.531 14.0811L627.394 114.656" stroke="#3A4389" stroke-opacity="0.42" stroke-width="1.5"/>
<path d="M539.52 14.0811L621.383 114.656" stroke="#3A4389" stroke-opacity="0.42" stroke-width="1.5"/>
<path d="M533.509 14.0811L615.372 114.656" stroke="#3A4389" stroke-opacity="0.42" stroke-width="1.5"/>
<path d="M527.499 14.0811L609.361 114.656" stroke="#3A4389" stroke-opacity="0.42" stroke-width="1.5"/>
<path d="M521.488 14.0811L603.35 114.656" stroke="#3A4389" stroke-opacity="0.42" stroke-width="1.5"/>
<path d="M515.477 14.0811L597.339 114.656" stroke="#3A4389" stroke-opacity="0.42" stroke-width="1.5"/>
<path d="M509.466 14.0811L591.328 114.656" stroke="#3A4389" stroke-opacity="0.42" stroke-width="1.5"/>
<path d="M503.455 14.0811L585.317 114.656" stroke="#3A4389" stroke-opacity="0.42" stroke-width="1.5"/>
<path d="M497.444 14.0811L579.306 114.656" stroke="#3A4389" stroke-opacity="0.42" stroke-width="1.5"/>
<path d="M491.433 14.0811L573.295 114.656" stroke="#3A4389" stroke-opacity="0.42" stroke-width="1.5"/>
<path d="M485.422 14.0811L567.285 114.656" stroke="#3A4389" stroke-opacity="0.42" stroke-width="1.5"/>
<path d="M479.411 14.0811L561.274 114.656" stroke="#3A4389" stroke-opacity="0.42" stroke-width="1.5"/>
<path d="M473.4 14.0811L555.263 114.656" stroke="#3A4389" stroke-opacity="0.42" stroke-width="1.5"/>
<path d="M467.389 14.0811L549.252 114.656" stroke="#3A4389" stroke-opacity="0.42" stroke-width="1.5"/>
<path d="M461.378 14.0811L543.241 114.656" stroke="#3A4389" stroke-opacity="0.42" stroke-width="1.5"/>
<path d="M455.368 14.0811L537.23 114.656" stroke="#3A4389" stroke-opacity="0.42" stroke-width="1.5"/>
<path d="M449.357 14.0811L531.219 114.656" stroke="#3A4389" stroke-opacity="0.42" stroke-width="1.5"/>
<path d="M443.346 14.0811L525.209 114.656" stroke="#3A4389" stroke-opacity="0.42" stroke-width="1.5"/>
<path d="M437.335 14.0811L519.198 114.656" stroke="#3A4389" stroke-opacity="0.42" stroke-width="1.5"/>
<path d="M431.324 14.0811L513.187 114.656" stroke="#3A4389" stroke-opacity="0.42" stroke-width="1.5"/>
<path d="M425.313 14.0811L507.176 114.656" stroke="#3A4389" stroke-opacity="0.42" stroke-width="1.5"/>
<path d="M419.302 14.0811L501.165 114.656" stroke="#3A4389" stroke-opacity="0.42" stroke-width="1.5"/>
<path d="M413.292 14.0811L495.154 114.656" stroke="#3A4389" stroke-opacity="0.42" stroke-width="1.5"/>
<path d="M407.281 14.0811L489.143 114.656" stroke="#3A4389" stroke-opacity="0.42" stroke-width="1.5"/>
<path d="M401.27 14.0811L483.132 114.656" stroke="#3A4389" stroke-opacity="0.42" stroke-width="1.5"/>
<path d="M395.259 14.0811L477.121 114.656" stroke="#3A4389" stroke-opacity="0.42" stroke-width="1.5"/>
<path d="M389.248 14.0811L471.11 114.656" stroke="#3A4389" stroke-opacity="0.42" stroke-width="1.5"/>
<path d="M383.237 14.0811L465.1 114.656" stroke="#3A4389" stroke-opacity="0.42" stroke-width="1.5"/>
<path d="M377.226 14.0811L459.089 114.656" stroke="#3A4389" stroke-opacity="0.42" stroke-width="1.5"/>
<path d="M371.215 14.0811L453.078 114.656" stroke="#3A4389" stroke-opacity="0.42" stroke-width="1.5"/>
<path d="M365.204 14.0811L447.067 114.656" stroke="#3A4389" stroke-opacity="0.42" stroke-width="1.5"/>
<path d="M359.193 14.0811L441.056 114.656" stroke="#3A4389" stroke-opacity="0.42" stroke-width="1.5"/>
<path d="M353.183 14.0811L435.045 114.656" stroke="#3A4389" stroke-opacity="0.42" stroke-width="1.5"/>
<path d="M347.172 14.0811L429.034 114.656" stroke="#3A4389" stroke-opacity="0.42" stroke-width="1.5"/>
<path d="M341.161 14.0811L423.024 114.656" stroke="#3A4389" stroke-opacity="0.42" stroke-width="1.5"/>
<path d="M335.15 14.0811L417.013 114.656" stroke="#3A4389" stroke-opacity="0.42" stroke-width="1.5"/>
<path d="M329.139 14.0811L411.002 114.656" stroke="#3A4389" stroke-opacity="0.42" stroke-width="1.5"/>
<path d="M323.128 14.0811L404.991 114.656" stroke="#3A4389" stroke-opacity="0.42" stroke-width="1.5"/>
<path d="M317.117 14.0811L398.98 114.656" stroke="#3A4389" stroke-opacity="0.42" stroke-width="1.5"/>
<path d="M311.106 14.0811L392.969 114.656" stroke="#3A4389" stroke-opacity="0.42" stroke-width="1.5"/>
<path d="M305.095 14.0811L386.958 114.656" stroke="#3A4389" stroke-opacity="0.42" stroke-width="1.5"/>
<path d="M299.084 14.0811L380.947 114.656" stroke="#3A4389" stroke-opacity="0.42" stroke-width="1.5"/>
<path d="M293.073 14.0811L374.936 114.656" stroke="#3A4389" stroke-opacity="0.42" stroke-width="1.5"/>
<path d="M287.063 14.0811L368.925 114.656" stroke="#3A4389" stroke-opacity="0.42" stroke-width="1.5"/>
<path d="M281.052 14.0811L362.914 114.656" stroke="#3A4389" stroke-opacity="0.42" stroke-width="1.5"/>
<path d="M275.041 14.0811L356.904 114.656" stroke="#3A4389" stroke-opacity="0.42" stroke-width="1.5"/>
<path d="M269.03 14.0811L350.893 114.656" stroke="#3A4389" stroke-opacity="0.42" stroke-width="1.5"/>
<path d="M263.019 14.0811L344.882 114.656" stroke="#3A4389" stroke-opacity="0.42" stroke-width="1.5"/>
<path d="M257.008 14.0811L338.871 114.656" stroke="#3A4389" stroke-opacity="0.42" stroke-width="1.5"/>
<path d="M250.997 14.0811L332.86 114.656" stroke="#3A4389" stroke-opacity="0.42" stroke-width="1.5"/>
<path d="M244.986 14.0811L326.849 114.656" stroke="#3A4389" stroke-opacity="0.42" stroke-width="1.5"/>
<path d="M238.976 14.0811L320.838 114.656" stroke="#3A4389" stroke-opacity="0.42" stroke-width="1.5"/>
<path d="M232.965 14.0811L314.827 114.656" stroke="#3A4389" stroke-opacity="0.42" stroke-width="1.5"/>
<path d="M226.954 14.0811L308.816 114.656" stroke="#3A4389" stroke-opacity="0.42" stroke-width="1.5"/>
<path d="M220.943 14.0811L302.806 114.656" stroke="#3A4389" stroke-opacity="0.42" stroke-width="1.5"/>
<path d="M214.932 14.0811L296.795 114.656" stroke="#3A4389" stroke-opacity="0.42" stroke-width="1.5"/>
<path d="M208.921 14.0811L290.784 114.656" stroke="#3A4389" stroke-opacity="0.42" stroke-width="1.5"/>
<path d="M202.91 14.0811L284.773 114.656" stroke="#3A4389" stroke-opacity="0.42" stroke-width="1.5"/>
<path d="M196.899 14.0811L278.762 114.656" stroke="#3A4389" stroke-opacity="0.42" stroke-width="1.5"/>
<path d="M190.888 14.0811L272.751 114.656" stroke="#3A4389" stroke-opacity="0.42" stroke-width="1.5"/>
<path d="M184.877 14.0811L266.74 114.656" stroke="#3A4389" stroke-opacity="0.42" stroke-width="1.5"/>
<path d="M178.867 14.0811L260.729 114.656" stroke="#3A4389" stroke-opacity="0.42" stroke-width="1.5"/>
<path d="M172.856 14.0811L254.718 114.656" stroke="#3A4389" stroke-opacity="0.42" stroke-width="1.5"/>
<path d="M166.845 14.0811L248.707 114.656" stroke="#3A4389" stroke-opacity="0.42" stroke-width="1.5"/>
<path d="M160.834 14.0811L242.697 114.656" stroke="#3A4389" stroke-opacity="0.42" stroke-width="1.5"/>
<path d="M154.823 14.0811L236.686 114.656" stroke="#3A4389" stroke-opacity="0.42" stroke-width="1.5"/>
<path d="M148.812 14.0811L230.675 114.656" stroke="#3A4389" stroke-opacity="0.42" stroke-width="1.5"/>
<path d="M142.801 14.0811L224.664 114.656" stroke="#3A4389" stroke-opacity="0.42" stroke-width="1.5"/>
<path d="M136.79 14.0811L218.653 114.656" stroke="#3A4389" stroke-opacity="0.42" stroke-width="1.5"/>
<path d="M130.78 14.0811L212.642 114.656" stroke="#3A4389" stroke-opacity="0.42" stroke-width="1.5"/>
<path d="M124.769 14.0811L206.631 114.656" stroke="#3A4389" stroke-opacity="0.42" stroke-width="1.5"/>
<path d="M118.758 14.0811L200.62 114.656" stroke="#3A4389" stroke-opacity="0.42" stroke-width="1.5"/>
<path d="M112.747 14.0811L194.609 114.656" stroke="#3A4389" stroke-opacity="0.42" stroke-width="1.5"/>
<path d="M106.736 14.0811L188.598 114.656" stroke="#3A4389" stroke-opacity="0.42" stroke-width="1.5"/>
<path d="M100.725 14.0811L182.587 114.656" stroke="#3A4389" stroke-opacity="0.42" stroke-width="1.5"/>
<path d="M94.7141 14.0811L176.577 114.656" stroke="#3A4389" stroke-opacity="0.42" stroke-width="1.5"/>
<path d="M88.7031 14.0811L170.566 114.656" stroke="#3A4389" stroke-opacity="0.42" stroke-width="1.5"/>
<path d="M82.6924 14.0811L164.555 114.656" stroke="#3A4389" stroke-opacity="0.42" stroke-width="1.5"/>
<path d="M75.6602 14.0811L157.523 114.656" stroke="#3A4389" stroke-opacity="0.42" stroke-width="1.5"/>
<path d="M68.6277 14.0811L150.49 114.656" stroke="#3A4389" stroke-opacity="0.42" stroke-width="1.5"/>
<path d="M61.5955 14.0811L143.458 114.656" stroke="#3A4389" stroke-opacity="0.42" stroke-width="1.5"/>
<path d="M54.5632 14.0811L136.426 114.656" stroke="#3A4389" stroke-opacity="0.42" stroke-width="1.5"/>
<path d="M47.531 14.0811L129.394 114.656" stroke="#3A4389" stroke-opacity="0.42" stroke-width="1.5"/>
<path d="M40.4988 14.0811L122.361 114.656" stroke="#3A4389" stroke-opacity="0.42" stroke-width="1.5"/>
<path d="M33.4666 14.0811L115.329 114.656" stroke="#3A4389" stroke-opacity="0.42" stroke-width="1.5"/>
<path d="M26.4343 14.0811L108.297 114.656" stroke="#3A4389" stroke-opacity="0.42" stroke-width="1.5"/>
<path d="M19.4021 14.0811L101.265 114.656" stroke="#3A4389" stroke-opacity="0.42" stroke-width="1.5"/>
<path d="M12.3699 14.0811L94.2325 114.656" stroke="#3A4389" stroke-opacity="0.42" stroke-width="1.5"/>
<path d="M5.3374 14.0811L87.2 114.656" stroke="#3A4389" stroke-opacity="0.42" stroke-width="1.5"/>
<path d="M-1.69482 14.0811L80.1678 114.656" stroke="#3A4389" stroke-opacity="0.42" stroke-width="1.5"/>
<path d="M-8.72705 14.0811L73.1356 114.656" stroke="#3A4389" stroke-opacity="0.42" stroke-width="1.5"/>
<path d="M-15.7593 14.0811L66.1034 114.656" stroke="#3A4389" stroke-opacity="0.42" stroke-width="1.5"/>
</g>
<defs>
<linearGradient id="paint0_linear" x1="372.128" y1="-52.6111" x2="369.445" y2="129.943" gradientUnits="userSpaceOnUse">
<stop stop-color="#2F80ED"/>
<stop offset="1" stop-color="#2F80ED" stop-opacity="0"/>
</linearGradient>
</defs>
</svg>
