<svg width="747" height="195" viewBox="0 0 747 195" fill="none" xmlns="http://www.w3.org/2000/svg">
<path d="M126.29 184.932C134.819 190.837 144.946 194 155.32 194H590.139C600.414 194 610.45 190.896 618.931 185.095L685.454 139.595C715.065 119.343 715.065 75.6574 685.454 55.4046L618.931 9.90454C610.45 4.10368 600.414 0.999939 590.139 0.999939H155.32C144.946 0.999939 134.819 4.16336 126.29 10.0681L60.5681 55.5682C31.2744 75.8484 31.2744 119.151 60.5681 139.432L126.29 184.932Z" fill="#3C296E" stroke="url(#paint0_linear)" stroke-width="2"/>
<mask id="mask0" mask-type="alpha" maskUnits="userSpaceOnUse" x="62" y="12" width="622" height="179">
<path d="M144.891 183.969C152.689 188.516 161.554 190.912 170.581 190.912H574.481C583.437 190.912 592.236 188.554 599.991 184.074L658.072 150.524C690.297 131.91 692.379 86.1635 661.976 64.6995L601.378 21.917C592.772 15.8417 582.497 12.58 571.964 12.58H173.403C162.612 12.58 152.098 16.0033 143.375 22.3573L83.9198 65.6667C54.1754 87.3335 56.4685 132.41 88.2581 150.947L144.891 183.969Z" fill="black"/>
</mask>
<g mask="url(#mask0)">
<path d="M599.629 14.0808L681.492 114.655" stroke="white" stroke-opacity="0.67" stroke-width="1.5"/>
<path d="M606.586 14.0808L688.448 114.655" stroke="white" stroke-opacity="0.67" stroke-width="1.5"/>
<path d="M613.542 14.0808L695.405 114.655" stroke="white" stroke-opacity="0.67" stroke-width="1.5"/>
<path d="M620.499 14.0808L702.361 114.655" stroke="white" stroke-opacity="0.67" stroke-width="1.5"/>
<path d="M627.456 14.0808L709.318 114.655" stroke="white" stroke-opacity="0.67" stroke-width="1.5"/>
<path d="M634.412 14.0808L716.275 114.655" stroke="white" stroke-opacity="0.67" stroke-width="1.5"/>
<path d="M641.369 14.0808L723.231 114.655" stroke="white" stroke-opacity="0.67" stroke-width="1.5"/>
<path d="M648.325 14.0808L730.188 114.655" stroke="white" stroke-opacity="0.67" stroke-width="1.5"/>
<path d="M655.282 14.0808L737.144 114.655" stroke="white" stroke-opacity="0.67" stroke-width="1.5"/>
<path d="M593.618 14.0808L675.481 114.655" stroke="white" stroke-opacity="0.67" stroke-width="1.5"/>
<path d="M587.607 14.0808L669.47 114.655" stroke="white" stroke-opacity="0.67" stroke-width="1.5"/>
<path d="M581.596 14.0808L663.459 114.655" stroke="white" stroke-opacity="0.67" stroke-width="1.5"/>
<path d="M575.585 14.0808L657.448 114.655" stroke="white" stroke-opacity="0.67" stroke-width="1.5"/>
<path d="M569.575 14.0808L651.437 114.655" stroke="white" stroke-opacity="0.67" stroke-width="1.5"/>
<path d="M563.564 14.0808L645.426 114.655" stroke="white" stroke-opacity="0.67" stroke-width="1.5"/>
<path d="M557.553 14.0808L639.415 114.655" stroke="white" stroke-opacity="0.67" stroke-width="1.5"/>
<path d="M551.542 14.0808L633.405 114.655" stroke="white" stroke-opacity="0.67" stroke-width="1.5"/>
<path d="M545.531 14.0808L627.394 114.655" stroke="white" stroke-opacity="0.67" stroke-width="1.5"/>
<path d="M539.52 14.0808L621.383 114.655" stroke="white" stroke-opacity="0.67" stroke-width="1.5"/>
<path d="M533.509 14.0808L615.372 114.655" stroke="white" stroke-opacity="0.67" stroke-width="1.5"/>
<path d="M527.498 14.0808L609.361 114.655" stroke="white" stroke-opacity="0.67" stroke-width="1.5"/>
<path d="M521.487 14.0808L603.35 114.655" stroke="white" stroke-opacity="0.67" stroke-width="1.5"/>
<path d="M515.477 14.0808L597.339 114.655" stroke="white" stroke-opacity="0.67" stroke-width="1.5"/>
<path d="M509.466 14.0808L591.328 114.655" stroke="white" stroke-opacity="0.67" stroke-width="1.5"/>
<path d="M503.455 14.0808L585.317 114.655" stroke="white" stroke-opacity="0.67" stroke-width="1.5"/>
<path d="M497.444 14.0808L579.307 114.655" stroke="white" stroke-opacity="0.67" stroke-width="1.5"/>
<path d="M491.433 14.0808L573.296 114.655" stroke="white" stroke-opacity="0.67" stroke-width="1.5"/>
<path d="M485.422 14.0808L567.285 114.655" stroke="white" stroke-opacity="0.67" stroke-width="1.5"/>
<path d="M479.411 14.0808L561.274 114.655" stroke="white" stroke-opacity="0.67" stroke-width="1.5"/>
<path d="M473.4 14.0808L555.263 114.655" stroke="white" stroke-opacity="0.67" stroke-width="1.5"/>
<path d="M467.389 14.0808L549.252 114.655" stroke="white" stroke-opacity="0.67" stroke-width="1.5"/>
<path d="M461.379 14.0808L543.241 114.655" stroke="white" stroke-opacity="0.67" stroke-width="1.5"/>
<path d="M455.368 14.0808L537.23 114.655" stroke="white" stroke-opacity="0.67" stroke-width="1.5"/>
<path d="M449.357 14.0808L531.219 114.655" stroke="white" stroke-opacity="0.67" stroke-width="1.5"/>
<path d="M443.346 14.0808L525.209 114.655" stroke="white" stroke-opacity="0.67" stroke-width="1.5"/>
<path d="M437.335 14.0808L519.198 114.655" stroke="white" stroke-opacity="0.67" stroke-width="1.5"/>
<path d="M431.324 14.0808L513.187 114.655" stroke="white" stroke-opacity="0.67" stroke-width="1.5"/>
<path d="M425.313 14.0808L507.176 114.655" stroke="white" stroke-opacity="0.67" stroke-width="1.5"/>
<path d="M419.302 14.0808L501.165 114.655" stroke="white" stroke-opacity="0.67" stroke-width="1.5"/>
<path d="M413.291 14.0808L495.154 114.655" stroke="white" stroke-opacity="0.67" stroke-width="1.5"/>
<path d="M407.281 14.0808L489.143 114.655" stroke="white" stroke-opacity="0.67" stroke-width="1.5"/>
<path d="M401.27 14.0808L483.132 114.655" stroke="white" stroke-opacity="0.67" stroke-width="1.5"/>
<path d="M395.259 14.0808L477.121 114.655" stroke="white" stroke-opacity="0.67" stroke-width="1.5"/>
<path d="M389.248 14.0808L471.11 114.655" stroke="white" stroke-opacity="0.67" stroke-width="1.5"/>
<path d="M383.237 14.0808L465.1 114.655" stroke="white" stroke-opacity="0.67" stroke-width="1.5"/>
<path d="M377.226 14.0808L459.089 114.655" stroke="white" stroke-opacity="0.67" stroke-width="1.5"/>
<path d="M371.215 14.0808L453.078 114.655" stroke="white" stroke-opacity="0.67" stroke-width="1.5"/>
<path d="M365.204 14.0808L447.067 114.655" stroke="white" stroke-opacity="0.67" stroke-width="1.5"/>
<path d="M359.193 14.0808L441.056 114.655" stroke="white" stroke-opacity="0.67" stroke-width="1.5"/>
<path d="M353.183 14.0808L435.045 114.655" stroke="white" stroke-opacity="0.67" stroke-width="1.5"/>
<path d="M347.172 14.0808L429.034 114.655" stroke="white" stroke-opacity="0.67" stroke-width="1.5"/>
<path d="M341.161 14.0808L423.023 114.655" stroke="white" stroke-opacity="0.67" stroke-width="1.5"/>
<path d="M335.15 14.0808L417.012 114.655" stroke="white" stroke-opacity="0.67" stroke-width="1.5"/>
<path d="M329.139 14.0808L411.002 114.655" stroke="white" stroke-opacity="0.67" stroke-width="1.5"/>
<path d="M323.128 14.0808L404.991 114.655" stroke="white" stroke-opacity="0.67" stroke-width="1.5"/>
<path d="M317.117 14.0808L398.98 114.655" stroke="white" stroke-opacity="0.67" stroke-width="1.5"/>
<path d="M311.106 14.0808L392.969 114.655" stroke="white" stroke-opacity="0.67" stroke-width="1.5"/>
<path d="M305.095 14.0808L386.958 114.655" stroke="white" stroke-opacity="0.67" stroke-width="1.5"/>
<path d="M299.084 14.0808L380.947 114.655" stroke="white" stroke-opacity="0.67" stroke-width="1.5"/>
<path d="M293.074 14.0808L374.936 114.655" stroke="white" stroke-opacity="0.67" stroke-width="1.5"/>
<path d="M287.063 14.0808L368.925 114.655" stroke="white" stroke-opacity="0.67" stroke-width="1.5"/>
<path d="M281.052 14.0808L362.914 114.655" stroke="white" stroke-opacity="0.67" stroke-width="1.5"/>
<path d="M275.041 14.0808L356.904 114.655" stroke="white" stroke-opacity="0.67" stroke-width="1.5"/>
<path d="M269.03 14.0808L350.893 114.655" stroke="white" stroke-opacity="0.67" stroke-width="1.5"/>
<path d="M263.019 14.0808L344.882 114.655" stroke="white" stroke-opacity="0.67" stroke-width="1.5"/>
<path d="M257.008 14.0808L338.871 114.655" stroke="white" stroke-opacity="0.67" stroke-width="1.5"/>
<path d="M250.997 14.0808L332.86 114.655" stroke="white" stroke-opacity="0.67" stroke-width="1.5"/>
<path d="M244.986 14.0808L326.849 114.655" stroke="white" stroke-opacity="0.67" stroke-width="1.5"/>
<path d="M238.975 14.0808L320.838 114.655" stroke="white" stroke-opacity="0.67" stroke-width="1.5"/>
<path d="M232.965 14.0808L314.827 114.655" stroke="white" stroke-opacity="0.67" stroke-width="1.5"/>
<path d="M226.954 14.0808L308.816 114.655" stroke="white" stroke-opacity="0.67" stroke-width="1.5"/>
<path d="M220.943 14.0808L302.806 114.655" stroke="white" stroke-opacity="0.67" stroke-width="1.5"/>
<path d="M214.932 14.0808L296.795 114.655" stroke="white" stroke-opacity="0.67" stroke-width="1.5"/>
<path d="M208.921 14.0808L290.784 114.655" stroke="white" stroke-opacity="0.67" stroke-width="1.5"/>
<path d="M202.91 14.0808L284.773 114.655" stroke="white" stroke-opacity="0.67" stroke-width="1.5"/>
<path d="M196.899 14.0808L278.762 114.655" stroke="white" stroke-opacity="0.67" stroke-width="1.5"/>
<path d="M190.888 14.0808L272.751 114.655" stroke="white" stroke-opacity="0.67" stroke-width="1.5"/>
<path d="M184.878 14.0808L266.74 114.655" stroke="white" stroke-opacity="0.67" stroke-width="1.5"/>
<path d="M178.867 14.0808L260.729 114.655" stroke="white" stroke-opacity="0.67" stroke-width="1.5"/>
<path d="M172.856 14.0808L254.718 114.655" stroke="white" stroke-opacity="0.67" stroke-width="1.5"/>
<path d="M166.845 14.0808L248.707 114.655" stroke="white" stroke-opacity="0.67" stroke-width="1.5"/>
<path d="M160.834 14.0808L242.697 114.655" stroke="white" stroke-opacity="0.67" stroke-width="1.5"/>
<path d="M154.823 14.0808L236.686 114.655" stroke="white" stroke-opacity="0.67" stroke-width="1.5"/>
<path d="M148.812 14.0808L230.675 114.655" stroke="white" stroke-opacity="0.67" stroke-width="1.5"/>
<path d="M142.801 14.0808L224.664 114.655" stroke="white" stroke-opacity="0.67" stroke-width="1.5"/>
<path d="M136.79 14.0808L218.653 114.655" stroke="white" stroke-opacity="0.67" stroke-width="1.5"/>
<path d="M130.779 14.0808L212.642 114.655" stroke="white" stroke-opacity="0.67" stroke-width="1.5"/>
<path d="M124.769 14.0808L206.631 114.655" stroke="white" stroke-opacity="0.67" stroke-width="1.5"/>
<path d="M118.758 14.0808L200.62 114.655" stroke="white" stroke-opacity="0.67" stroke-width="1.5"/>
<path d="M112.747 14.0808L194.609 114.655" stroke="white" stroke-opacity="0.67" stroke-width="1.5"/>
<path d="M106.736 14.0808L188.598 114.655" stroke="white" stroke-opacity="0.67" stroke-width="1.5"/>
<path d="M100.725 14.0808L182.588 114.655" stroke="white" stroke-opacity="0.67" stroke-width="1.5"/>
<path d="M94.7141 14.0808L176.577 114.655" stroke="white" stroke-opacity="0.67" stroke-width="1.5"/>
<path d="M88.7032 14.0808L170.566 114.655" stroke="white" stroke-opacity="0.67" stroke-width="1.5"/>
<path d="M82.6923 14.0808L164.555 114.655" stroke="white" stroke-opacity="0.67" stroke-width="1.5"/>
<path d="M75.6601 14.0808L157.523 114.655" stroke="white" stroke-opacity="0.67" stroke-width="1.5"/>
<path d="M68.6278 14.0808L150.49 114.655" stroke="white" stroke-opacity="0.67" stroke-width="1.5"/>
<path d="M61.5955 14.0808L143.458 114.655" stroke="white" stroke-opacity="0.67" stroke-width="1.5"/>
<path d="M54.5633 14.0808L136.426 114.655" stroke="white" stroke-opacity="0.67" stroke-width="1.5"/>
<path d="M47.531 14.0808L129.394 114.655" stroke="white" stroke-opacity="0.67" stroke-width="1.5"/>
<path d="M40.4988 14.0808L122.361 114.655" stroke="white" stroke-opacity="0.67" stroke-width="1.5"/>
<path d="M33.4665 14.0808L115.329 114.655" stroke="white" stroke-opacity="0.67" stroke-width="1.5"/>
<path d="M26.4343 14.0808L108.297 114.655" stroke="white" stroke-opacity="0.67" stroke-width="1.5"/>
<path d="M19.402 14.0808L101.265 114.655" stroke="white" stroke-opacity="0.67" stroke-width="1.5"/>
<path d="M12.3698 14.0808L94.2324 114.655" stroke="white" stroke-opacity="0.67" stroke-width="1.5"/>
<path d="M5.33752 14.0808L87.2002 114.655" stroke="white" stroke-opacity="0.67" stroke-width="1.5"/>
<path d="M-1.69473 14.0808L80.1679 114.655" stroke="white" stroke-opacity="0.67" stroke-width="1.5"/>
<path d="M-8.72699 14.0808L73.1356 114.655" stroke="white" stroke-opacity="0.67" stroke-width="1.5"/>
<path d="M-15.7592 14.0808L66.1034 114.655" stroke="white" stroke-opacity="0.67" stroke-width="1.5"/>
</g>
<defs>
<linearGradient id="paint0_linear" x1="372.128" y1="-52.6112" x2="369.445" y2="129.942" gradientUnits="userSpaceOnUse">
<stop stop-color="#90BAF3"/>
<stop offset="1" stop-color="#90BAF3" stop-opacity="0.48"/>
</linearGradient>
</defs>
</svg>
