<svg width="90" height="90" viewBox="0 0 90 90" fill="none" xmlns="http://www.w3.org/2000/svg">
<circle cx="45" cy="45" r="45" fill="black" fill-opacity="0.18"/>
<circle cx="19.6035" cy="40.8365" r="3.06307" fill="white"/>
<circle cx="19.6035" cy="48.4327" r="3.06307" fill="white"/>
<circle cx="27.9351" cy="44.5117" r="3.30811" fill="white"/>
<circle cx="21.809" cy="56.0294" r="3.06307" fill="white"/>
<circle cx="29.8955" cy="51.8634" r="3.06307" fill="white"/>
<circle cx="25.9747" cy="62.6452" r="2.57298" fill="white"/>
<circle cx="34.5513" cy="58.4797" r="2.57298" fill="white"/>
<circle cx="32.3459" cy="67.7917" r="2.57298" fill="white"/>
<circle cx="41.4126" cy="62.1555" r="2.57298" fill="white"/>
<circle cx="39.2072" cy="70.4867" r="2.08289" fill="white"/>
<circle cx="47.0487" cy="71.2226" r="1.83784" fill="white"/>
<circle cx="48.7639" cy="62.4003" r="1.83784" fill="white"/>
<circle cx="54.645" cy="69.5068" r="1.83784" fill="white"/>
<circle cx="61.5062" cy="66.0762" r="1.5928" fill="white"/>
<circle cx="56.1153" cy="59.46" r="1.5928" fill="white"/>
<circle cx="66.6523" cy="60.9303" r="1.34775" fill="white"/>
<circle cx="21.809" cy="33.2403" r="3.06307" fill="white"/>
<circle cx="29.4054" cy="37.1602" r="3.06307" fill="white"/>
<circle cx="26.2198" cy="26.8687" r="3.06307" fill="white"/>
<circle cx="32.1008" cy="21.968" r="2.57298" fill="white"/>
<circle cx="34.5513" cy="31.0344" r="2.57298" fill="white"/>
<circle cx="39.4521" cy="19.0272" r="2.08289" fill="white"/>
<circle cx="47.0487" cy="18.0473" r="1.83784" fill="white"/>
<circle cx="41.1676" cy="27.6049" r="1.83784" fill="white"/>
<circle cx="54.4" cy="19.7627" r="1.5928" fill="white"/>
<circle cx="49.0089" cy="27.3599" r="1.5928" fill="white"/>
<circle cx="61.2612" cy="23.4381" r="1.34775" fill="white"/>
<circle cx="55.8703" cy="30.2994" r="1.34775" fill="white"/>
<circle cx="66.6522" cy="29.3191" r="0.857659" fill="white"/>
</svg>
