<svg width="22" height="22" viewBox="0 0 22 22" fill="none" xmlns="http://www.w3.org/2000/svg">
<circle cx="3.03925" cy="9.35561" r="1.03925" fill="white"/>
<circle cx="3.03925" cy="11.9329" r="1.03925" fill="white"/>
<circle cx="5.86605" cy="10.6027" r="1.12239" fill="white"/>
<circle cx="3.7873" cy="14.5103" r="1.03925" fill="white"/>
<circle cx="6.53144" cy="13.0969" r="1.03925" fill="white"/>
<circle cx="5.2011" cy="16.7551" r="0.872973" fill="white"/>
<circle cx="8.11077" cy="15.3417" r="0.872973" fill="white"/>
<circle cx="7.36272" cy="18.501" r="0.872973" fill="white"/>
<circle cx="10.4389" cy="16.5888" r="0.872973" fill="white"/>
<circle cx="9.69058" cy="19.4156" r="0.706692" fill="white"/>
<circle cx="12.3511" cy="19.665" r="0.623552" fill="white"/>
<circle cx="12.9331" cy="16.6719" r="0.623552" fill="white"/>
<circle cx="14.9282" cy="19.083" r="0.623552" fill="white"/>
<circle cx="17.2562" cy="17.9191" r="0.540412" fill="white"/>
<circle cx="15.4271" cy="15.6743" r="0.540412" fill="white"/>
<circle cx="19.0022" cy="16.1731" r="0.457271" fill="white"/>
<circle cx="3.7873" cy="6.77826" r="1.03925" fill="white"/>
<circle cx="6.36494" cy="8.1085" r="1.03925" fill="white"/>
<circle cx="5.28388" cy="4.61661" r="1.03925" fill="white"/>
<circle cx="7.27922" cy="2.9538" r="0.872973" fill="white"/>
<circle cx="8.11077" cy="6.02999" r="0.872973" fill="white"/>
<circle cx="9.77359" cy="1.95612" r="0.706692" fill="white"/>
<circle cx="12.3511" cy="1.62355" r="0.623552" fill="white"/>
<circle cx="10.3555" cy="4.86603" r="0.623552" fill="white"/>
<circle cx="14.8451" cy="2.20554" r="0.540412" fill="white"/>
<circle cx="13.016" cy="4.78289" r="0.540412" fill="white"/>
<circle cx="17.1731" cy="3.45265" r="0.457271" fill="white"/>
<circle cx="15.344" cy="5.78057" r="0.457271" fill="white"/>
<circle cx="19.0024" cy="5.44801" r="0.290991" fill="white"/>
</svg>
