<svg width="30" height="30" viewBox="0 0 30 30" fill="none" xmlns="http://www.w3.org/2000/svg">
<g opacity="0.47">
<path d="M4.05254 10.8984C3.89444 10.8999 3.73878 10.8594 3.60137 10.7812C3.50058 10.7246 3.4121 10.6484 3.3411 10.5571C3.27011 10.4659 3.21803 10.3614 3.18792 10.2498C3.1578 10.1381 3.15025 10.0216 3.1657 9.90702C3.18116 9.79244 3.21931 9.68208 3.27793 9.58242C4.40762 7.69687 7.84473 3.2959 15.3447 3.2959C18.5949 3.2959 21.4455 4.14961 23.8133 5.83242C25.7621 7.21348 26.8543 8.77676 27.3746 9.52969C27.4406 9.62459 27.4869 9.73174 27.5109 9.84483C27.5349 9.95791 27.5359 10.0746 27.5141 10.1882C27.4923 10.3017 27.4479 10.4097 27.3837 10.5058C27.3195 10.6019 27.2367 10.6842 27.1402 10.7479C26.943 10.8782 26.7028 10.9267 26.4705 10.8829C26.2381 10.8392 26.032 10.7066 25.8957 10.5135C24.9541 9.15937 22.083 5.03906 15.3447 5.03906C8.76758 5.03906 5.79395 8.83066 4.82539 10.4566C4.74757 10.5924 4.6349 10.705 4.49904 10.7826C4.36317 10.8603 4.20903 10.9003 4.05254 10.8984Z" fill="#141818"/>
<path d="M19.1234 28.125C19.0486 28.1259 18.974 28.1174 18.9013 28.0998C13.4609 26.7521 11.4294 21.3134 11.3468 21.0873L11.3339 21.0375C11.2894 20.8804 10.1978 17.1509 11.8736 14.9666C12.6417 13.9705 13.8101 13.4595 15.3529 13.4595C16.7872 13.4595 17.822 13.9054 18.5333 14.8283C19.1193 15.5818 19.3536 16.5111 19.5804 17.4064C20.0568 19.2709 20.4007 20.25 22.3806 20.3507C23.2501 20.3947 23.8214 19.8861 24.1454 19.4531C25.0214 18.2724 25.1738 16.3476 24.5134 14.6484C23.665 12.4552 20.6538 8.32028 15.3447 8.32028C13.0783 8.32028 10.9958 9.0486 9.32591 10.4173C7.94368 11.5511 6.84856 13.1519 6.32122 14.7972C5.34329 17.8605 6.62591 22.6757 6.63821 22.7197C6.66816 22.8318 6.67537 22.9487 6.6594 23.0636C6.64344 23.1785 6.60464 23.289 6.54528 23.3887C6.48592 23.4883 6.4072 23.5751 6.31378 23.6439C6.22035 23.7126 6.1141 23.762 6.0013 23.789C5.77341 23.8496 5.53084 23.8186 5.32559 23.7025C5.12034 23.5864 4.96873 23.3945 4.90325 23.1679C4.84466 22.9482 3.47474 17.8125 4.60442 14.2722C5.83489 10.4361 9.63235 6.56891 15.3464 6.56891C17.9872 6.56891 20.4822 7.46656 22.5646 9.16168C24.1771 10.48 25.4943 12.2507 26.1833 14.0209C27.0593 16.2808 26.8243 18.8173 25.5863 20.4744C24.7613 21.5795 23.5865 22.1572 22.2851 22.0945C18.8949 21.9246 18.2855 19.558 17.8413 17.8318C17.3843 16.0611 17.0919 15.2074 15.3464 15.2074C14.3878 15.2074 13.7146 15.4711 13.2956 16.0171C12.7243 16.7642 12.6798 17.932 12.7431 18.7793C12.7846 19.3696 12.8847 19.9543 13.0419 20.5248C13.1814 20.8763 14.9972 25.3295 19.346 26.407C19.4584 26.4336 19.5644 26.4823 19.6578 26.5503C19.7513 26.6182 19.8302 26.704 19.8902 26.8028C19.9502 26.9015 19.9899 27.0112 20.0072 27.1254C20.0244 27.2396 20.0187 27.3561 19.9906 27.4681C19.9375 27.6572 19.824 27.8238 19.6674 27.9424C19.5109 28.061 19.3198 28.1251 19.1234 28.125Z" fill="#141818"/>
<path d="M12.1402 27.723C12.0182 27.7233 11.8975 27.699 11.7852 27.6516C11.6728 27.6041 11.5712 27.5346 11.4863 27.447C9.30893 25.1619 8.07729 22.6066 7.61382 19.4115V19.3945C7.35366 17.2793 7.73452 14.2845 9.60073 12.2256C10.9783 10.7062 12.9148 9.93396 15.3464 9.93396C18.2222 9.93396 20.4822 11.2711 21.8914 13.7947C22.9138 15.6281 23.1166 17.4551 23.1218 17.5301C23.1325 17.6457 23.1203 17.7623 23.0859 17.8732C23.0515 17.9841 22.9956 18.0872 22.9213 18.1764C22.847 18.2657 22.7558 18.3394 22.653 18.3934C22.5501 18.4474 22.4377 18.4805 22.322 18.491C22.0886 18.5163 21.8547 18.4489 21.6706 18.3032C21.4865 18.1575 21.3672 17.9452 21.3382 17.7123C21.1839 16.6161 20.8292 15.5576 20.2917 14.5898C19.1996 12.6627 17.5378 11.683 15.34 11.683C13.4415 11.683 11.9562 12.2543 10.9343 13.3822C9.46128 15.0082 9.17651 17.5131 9.37866 19.1701C9.78471 21.9955 10.8705 24.2431 12.7876 26.2517C12.8677 26.335 12.9301 26.4335 12.9713 26.5413C13.0125 26.6492 13.0316 26.7642 13.0275 26.8796C13.0233 26.995 12.996 27.1084 12.9471 27.213C12.8983 27.3176 12.8289 27.4114 12.7431 27.4887C12.5779 27.6384 12.3632 27.7219 12.1402 27.723Z" fill="#141818"/>
<path d="M22.1709 25.2059C20.2666 25.2059 18.6476 24.6785 17.3521 23.6303C14.7494 21.5332 14.4576 18.1178 14.4447 17.9736C14.4264 17.737 14.5028 17.5029 14.6571 17.3226C14.8114 17.1423 15.031 17.0307 15.2676 17.0124C15.5042 16.9941 15.7384 17.0705 15.9187 17.2248C16.099 17.3791 16.2105 17.5988 16.2289 17.8354C16.2353 17.8858 16.4955 20.6795 18.5017 22.2885C19.6888 23.2365 21.2756 23.6127 23.2308 23.393C23.4645 23.3646 23.6999 23.43 23.8856 23.5747C24.0713 23.7194 24.1921 23.9317 24.2216 24.1652C24.2344 24.2806 24.2241 24.3974 24.1913 24.5087C24.1585 24.62 24.1039 24.7237 24.0306 24.8137C23.9573 24.9037 23.8668 24.9782 23.7644 25.0329C23.662 25.0875 23.5497 25.1212 23.4341 25.132C23.0148 25.181 22.593 25.2056 22.1709 25.2059Z" fill="#141818"/>
<path d="M23.6756 1.92129C22.9327 1.43789 20.2983 0 15.3448 0C10.1452 0 7.50435 1.58848 6.92017 1.99219C6.88158 2.01587 6.84547 2.04335 6.81235 2.07422C6.80886 2.0776 6.80431 2.07967 6.79946 2.08008C6.70618 2.16153 6.63133 2.26192 6.5799 2.37458C6.52847 2.48724 6.50165 2.60956 6.50122 2.7334C6.50282 2.84948 6.52732 2.96411 6.5733 3.07071C6.61928 3.17731 6.68585 3.2738 6.76918 3.35463C6.85251 3.43546 6.95098 3.49905 7.05894 3.54176C7.16689 3.58447 7.28221 3.60545 7.39829 3.60352C7.58435 3.60339 7.76591 3.54634 7.9186 3.44004C7.9438 3.42129 10.2166 1.75137 15.3465 1.75137C20.4764 1.75137 22.7616 3.41543 22.7862 3.42773C22.9422 3.54342 23.1316 3.60512 23.3258 3.60352C23.442 3.6053 23.5574 3.58412 23.6654 3.54119C23.7733 3.49827 23.8718 3.43444 23.955 3.35338C24.0382 3.27232 24.1047 3.17561 24.1504 3.06882C24.1962 2.96202 24.2204 2.84724 24.2217 2.73105C24.2218 2.55702 24.1698 2.38695 24.0725 2.24266C23.9752 2.09838 23.837 1.98646 23.6756 1.92129Z" fill="#141818"/>
</g>
</svg>
