<svg width="22" height="22" viewBox="0 0 22 22" fill="none" xmlns="http://www.w3.org/2000/svg">
<path d="M14.6665 5.5H17.4165C17.6596 5.5 17.8928 5.59658 18.0647 5.76849C18.2366 5.94039 18.3332 6.17355 18.3332 6.41667V16.5C18.3332 16.9862 18.14 17.4525 17.7962 17.7964C17.4524 18.1402 16.9861 18.3333 16.4998 18.3333C16.0136 18.3333 15.5473 18.1402 15.2035 17.7964C14.8597 17.4525 14.6665 16.9862 14.6665 16.5V4.58333C14.6665 4.34022 14.5699 4.10706 14.398 3.93515C14.2261 3.76324 13.993 3.66667 13.7498 3.66667H4.58317C4.34006 3.66667 4.1069 3.76324 3.93499 3.93515C3.76308 4.10706 3.6665 4.34022 3.6665 4.58333V15.5833C3.6665 16.3127 3.95624 17.0122 4.47196 17.5279C4.98769 18.0436 5.68716 18.3333 6.4165 18.3333H16.4998" stroke="white" stroke-width="1.83333" stroke-linecap="round" stroke-linejoin="round"/>
<path d="M7.3335 7.33333H11.0002" stroke="white" stroke-width="1.83333" stroke-linecap="round" stroke-linejoin="round"/>
<path d="M7.3335 11H11.0002" stroke="white" stroke-width="1.83333" stroke-linecap="round" stroke-linejoin="round"/>
<path d="M7.3335 14.6667H11.0002" stroke="white" stroke-width="1.83333" stroke-linecap="round" stroke-linejoin="round"/>
</svg>
