<svg width="22" height="22" viewBox="0 0 22 22" fill="none" xmlns="http://www.w3.org/2000/svg">
<path d="M11.0002 12.8333C13.0223 12.8333 14.6668 11.1888 14.6668 9.16667C14.6668 7.1445 13.0223 5.5 11.0002 5.5C8.978 5.5 7.3335 7.1445 7.3335 9.16667C7.3335 11.1888 8.978 12.8333 11.0002 12.8333ZM11.0002 7.33333C12.0112 7.33333 12.8335 8.15558 12.8335 9.16667C12.8335 10.1777 12.0112 11 11.0002 11C9.98908 11 9.16683 10.1777 9.16683 9.16667C9.16683 8.15558 9.98908 7.33333 11.0002 7.33333Z" fill="#9187AC"/>
<path d="M10.4683 19.9962C10.6234 20.107 10.8093 20.1665 10.9999 20.1665C11.1906 20.1665 11.3764 20.107 11.5316 19.9962C11.8103 19.7991 18.3598 15.07 18.3333 9.16667C18.3333 5.12325 15.0433 1.83334 10.9999 1.83334C6.9565 1.83334 3.66658 5.12325 3.66658 9.16209C3.64 15.07 10.1896 19.7991 10.4683 19.9962ZM10.9999 3.66667C14.0332 3.66667 16.4999 6.13342 16.4999 9.17125C16.5192 13.2394 12.4776 16.8923 10.9999 18.0904C9.52317 16.8914 5.48067 13.2376 5.49992 9.16667C5.49992 6.13342 7.96667 3.66667 10.9999 3.66667Z" fill="#9187AC"/>
</svg>
