<svg width="155" height="36" viewBox="0 0 155 36" fill="none" xmlns="http://www.w3.org/2000/svg">
<g clip-path="url(#clip0)">
<path d="M49.3681 8.96633C49.0611 9.32846 48.6272 9.61033 48.0664 9.81193C47.5055 10.0098 46.8841 10.1087 46.2019 10.1087C45.4857 10.1087 44.8566 9.95566 44.3147 9.64953C43.7767 9.33966 43.3598 8.89167 43.0642 8.30553C42.7725 7.7194 42.6228 7.03061 42.6152 6.23914V5.68474C42.6152 4.87088 42.7535 4.16714 43.0301 3.57354C43.3106 2.97622 43.7123 2.52076 44.2352 2.20716C44.762 1.88982 45.3777 1.73116 46.0826 1.73116C47.064 1.73116 47.8314 1.96262 48.3846 2.42556C48.9379 2.88475 49.2657 3.55488 49.3681 4.43595H47.7083C47.6325 3.96929 47.4638 3.62768 47.2023 3.41115C46.9447 3.19462 46.5885 3.08635 46.1337 3.08635C45.5539 3.08635 45.1125 3.30101 44.8094 3.73035C44.5061 4.15968 44.3527 4.79808 44.3488 5.64554V6.16634C44.3488 7.02127 44.5137 7.66713 44.8434 8.10393C45.173 8.54073 45.6563 8.75913 46.2929 8.75913C46.9333 8.75913 47.3899 8.62473 47.6628 8.35594V6.95034H46.111V5.71274H49.3681V8.96633ZM53.4777 10.1087C52.5758 10.1087 51.8407 9.8362 51.2722 9.29113C50.7076 8.74607 50.4253 8.01994 50.4253 7.11273V6.95593C50.4253 6.3474 50.5447 5.80421 50.7834 5.32634C51.0222 4.84474 51.3594 4.47515 51.7952 4.21755C52.2347 3.95621 52.7349 3.82555 53.2958 3.82555C54.137 3.82555 54.7984 4.08689 55.2796 4.60954C55.7647 5.13221 56.0072 5.87327 56.0072 6.83274V7.49353H52.0907C52.1438 7.88926 52.3029 8.2066 52.5682 8.44553C52.8373 8.68446 53.1764 8.80393 53.5857 8.80393C54.2185 8.80393 54.713 8.57806 55.0692 8.12633L55.8764 9.01673C55.6301 9.3602 55.2966 9.62899 54.876 9.82312C54.4554 10.0135 53.9893 10.1087 53.4777 10.1087ZM53.2901 5.13594C52.9643 5.13594 52.699 5.24421 52.4943 5.46074C52.2935 5.67727 52.1646 5.98715 52.1078 6.39034H54.3929V6.26153C54.3853 5.90314 54.2867 5.62688 54.0973 5.43275C53.9078 5.23487 53.6388 5.13594 53.2901 5.13594ZM58.9118 2.44795V3.93755H59.9633V5.12474H58.9118V8.14873C58.9118 8.37273 58.9553 8.53327 59.0425 8.63033C59.1297 8.7274 59.2964 8.77593 59.5427 8.77593C59.7246 8.77593 59.8857 8.76286 60.0258 8.73673V9.96312C59.7037 10.0602 59.3722 10.1087 59.0311 10.1087C57.8792 10.1087 57.2918 9.53566 57.2691 8.38953V5.12474H56.371V3.93755H57.2691V2.44795H58.9118ZM65.5112 9.99673H63.8627V3.93755H65.5112V9.99673ZM63.7661 2.36955C63.7661 2.12689 63.8475 1.92715 64.0105 1.77036C64.1772 1.61356 64.4027 1.53516 64.6869 1.53516C64.9673 1.53516 65.1909 1.61356 65.3576 1.77036C65.5243 1.92715 65.6078 2.12689 65.6078 2.36955C65.6078 2.61595 65.5225 2.81755 65.3519 2.97435C65.1852 3.13115 64.9636 3.20955 64.6869 3.20955C64.4103 3.20955 64.1868 3.13115 64.0162 2.97435C63.8494 2.81755 63.7661 2.61595 63.7661 2.36955ZM68.8364 2.44795V3.93755H69.8879V5.12474H68.8364V8.14873C68.8364 8.37273 68.8799 8.53327 68.9671 8.63033C69.0543 8.7274 69.221 8.77593 69.4673 8.77593C69.6492 8.77593 69.8103 8.76286 69.9504 8.73673V9.96312C69.6283 10.0602 69.2968 10.1087 68.9557 10.1087C67.8038 10.1087 67.2164 9.53566 67.1937 8.38953V5.12474H66.2956V3.93755H67.1937V2.44795H68.8364ZM73.4463 6.91114C73.4463 6.31007 73.5638 5.77434 73.7987 5.30394C74.0336 4.83355 74.3708 4.46954 74.8104 4.21194C75.2538 3.95435 75.7673 3.82555 76.3509 3.82555C77.1808 3.82555 77.8572 4.07568 78.3801 4.57595C78.9069 5.07622 79.2006 5.75567 79.2612 6.61434L79.2725 7.02874C79.2725 7.95834 79.0092 8.705 78.4824 9.26872C77.9558 9.82873 77.249 10.1087 76.3622 10.1087C75.4755 10.1087 74.7669 9.82873 74.2364 9.26872C73.7096 8.70873 73.4463 7.94713 73.4463 6.98394V6.91114ZM75.089 7.02874C75.089 7.60367 75.1989 8.0442 75.4187 8.35033C75.6385 8.65273 75.953 8.80393 76.3622 8.80393C76.7601 8.80393 77.0709 8.65459 77.2944 8.35594C77.5181 8.05353 77.6298 7.57193 77.6298 6.91114C77.6298 6.3474 77.5181 5.9106 77.2944 5.60074C77.0709 5.29088 76.7564 5.13594 76.3509 5.13594C75.9492 5.13594 75.6385 5.29088 75.4187 5.60074C75.1989 5.90687 75.089 6.38287 75.089 7.02874ZM81.7963 3.93755L81.8475 4.63755C82.2871 4.09621 82.8763 3.82555 83.6153 3.82555C84.2671 3.82555 84.7521 4.01408 85.0704 4.39114C85.3887 4.76821 85.5517 5.33195 85.5592 6.08233V9.99673H83.9165V6.12154C83.9165 5.77807 83.8408 5.5298 83.6892 5.37674C83.5376 5.21994 83.2856 5.14154 82.9332 5.14154C82.4708 5.14154 82.1241 5.33567 81.8929 5.72394V9.99673H80.2503V3.93755H81.7963Z" fill="#634F97"/>
<path d="M55.1971 28.7859C54.6446 29.4378 53.8636 29.9452 52.854 30.308C51.8445 30.6641 50.7259 30.8423 49.4981 30.8423C48.2088 30.8423 47.0766 30.5667 46.1012 30.0157C45.1326 29.458 44.3822 28.6515 43.8502 27.5965C43.325 26.5415 43.0556 25.3016 43.042 23.8769V22.879C43.042 21.4141 43.2909 20.1474 43.7889 19.0789C44.2937 18.0037 45.0167 17.1839 45.958 16.6194C46.9061 16.0482 48.0145 15.7626 49.2832 15.7626C51.0499 15.7626 52.4311 16.1792 53.427 17.0125C54.4228 17.8391 55.0129 19.0453 55.1971 20.6313H52.2095C52.073 19.7912 51.7694 19.1763 51.2988 18.7866C50.835 18.3968 50.1938 18.202 49.3753 18.202C48.3317 18.202 47.537 18.5883 46.9914 19.3611C46.4457 20.134 46.1694 21.283 46.1625 22.8085V23.746C46.1625 25.2848 46.4593 26.4474 47.0527 27.2336C47.6461 28.0198 48.5158 28.4129 49.6618 28.4129C50.8145 28.4129 51.6365 28.1711 52.1276 27.6872V25.1572H49.3343V22.9295H55.1971V28.7859ZM57.0387 25.0865C57.0387 24.0047 57.2501 23.0403 57.673 22.1937C58.096 21.3469 58.703 20.6917 59.4943 20.228C60.2923 19.7643 61.2166 19.5326 62.267 19.5326C63.7608 19.5326 64.9784 19.9827 65.9197 20.8832C66.8679 21.7837 67.3965 23.0068 67.5056 24.5523L67.526 25.2983C67.526 26.9715 67.052 28.3156 66.1038 29.3302C65.1558 30.3382 63.8836 30.8423 62.2875 30.8423C60.6914 30.8423 59.4158 30.3382 58.4609 29.3302C57.5127 28.3222 57.0387 26.9514 57.0387 25.2176V25.0865ZM59.9956 25.2983C59.9956 26.3331 60.1935 27.126 60.589 27.6771C60.9847 28.2214 61.5508 28.4936 62.2875 28.4936C63.0037 28.4936 63.563 28.2249 63.9655 27.6872C64.3679 27.1429 64.5692 26.276 64.5692 25.0865C64.5692 24.0719 64.3679 23.2856 63.9655 22.7279C63.563 22.1701 62.9969 21.8912 62.267 21.8912C61.544 21.8912 60.9847 22.1701 60.589 22.7279C60.1935 23.2789 59.9956 24.1357 59.9956 25.2983ZM68.8868 25.0865C68.8868 24.0047 69.0983 23.0403 69.5212 22.1937C69.944 21.3469 70.5511 20.6917 71.3424 20.228C72.1405 19.7643 73.0647 19.5326 74.1152 19.5326C75.609 19.5326 76.8266 19.9827 77.7678 20.8832C78.7159 21.7837 79.2446 23.0068 79.3538 24.5523L79.3741 25.2983C79.3741 26.9715 78.9001 28.3156 77.952 29.3302C77.0039 30.3382 75.7317 30.8423 74.1356 30.8423C72.5395 30.8423 71.2639 30.3382 70.309 29.3302C69.3609 28.3222 68.8868 26.9514 68.8868 25.2176V25.0865ZM71.8438 25.2983C71.8438 26.3331 72.0416 27.126 72.4371 27.6771C72.8328 28.2214 73.3989 28.4936 74.1356 28.4936C74.8519 28.4936 75.4111 28.2249 75.8135 27.6872C76.216 27.1429 76.4173 26.276 76.4173 25.0865C76.4173 24.0719 76.216 23.2856 75.8135 22.7279C75.4111 22.1701 74.845 21.8912 74.1152 21.8912C73.3922 21.8912 72.8328 22.1701 72.4371 22.7279C72.0416 23.2789 71.8438 24.1357 71.8438 25.2983ZM80.7656 25.1067C80.7656 23.4334 81.168 22.0861 81.973 21.0647C82.7847 20.0433 83.876 19.5326 85.2471 19.5326C86.4612 19.5326 87.4059 19.9425 88.0812 20.7622L88.204 19.7341H90.8846V30.2778C90.8846 31.232 90.663 32.062 90.2196 32.7675C89.783 33.4731 89.1658 34.0107 88.3677 34.3803C87.5697 34.7499 86.6351 34.9347 85.5642 34.9347C84.7525 34.9347 83.9614 34.7734 83.1906 34.4509C82.4197 34.135 81.8366 33.7252 81.4409 33.2211L82.7506 31.447C83.4872 32.2601 84.3808 32.6667 85.4313 32.6667C86.2157 32.6667 86.8261 32.4584 87.2627 32.0418C87.6992 31.6319 87.9175 31.0472 87.9175 30.2879V29.7032C87.2355 30.4625 86.3385 30.8423 85.2266 30.8423C83.8965 30.8423 82.8188 30.3315 81.9934 29.31C81.1749 28.282 80.7656 26.9211 80.7656 25.2277V25.1067ZM83.7226 25.3184C83.7226 26.3062 83.9238 27.0824 84.3262 27.6468C84.7286 28.2047 85.2812 28.4835 85.9838 28.4835C86.8841 28.4835 87.5287 28.1509 87.9175 27.4856V22.8992C87.5219 22.2339 86.8841 21.9013 86.0042 21.9013C85.2949 21.9013 84.7355 22.1869 84.3262 22.7582C83.9238 23.3293 83.7226 24.1827 83.7226 25.3184ZM96.287 30.6406H93.3197V15.1578H96.287V30.6406ZM103.828 30.8423C102.204 30.8423 100.881 30.3516 99.8577 29.3706C98.8414 28.3894 98.3333 27.0824 98.3333 25.4494V25.1672C98.3333 24.0719 98.548 23.0941 98.9778 22.2339C99.4075 21.3671 100.015 20.7018 100.799 20.2381C101.59 19.7677 102.491 19.5326 103.5 19.5326C105.014 19.5326 106.205 20.0029 107.071 20.9437C107.944 21.8845 108.381 23.2184 108.381 24.9455V26.1349H101.331C101.427 26.8472 101.713 27.4184 102.19 27.8484C102.675 28.2785 103.285 28.4936 104.022 28.4936C105.161 28.4936 106.051 28.087 106.692 27.274L108.145 28.8766C107.702 29.4949 107.102 29.9788 106.345 30.3281C105.587 30.6709 104.748 30.8423 103.828 30.8423ZM103.49 21.8912C102.903 21.8912 102.426 22.0861 102.058 22.4759C101.696 22.8656 101.464 23.4233 101.362 24.1491H105.475V23.9173C105.461 23.2722 105.284 22.7749 104.943 22.4254C104.602 22.0693 104.117 21.8912 103.49 21.8912ZM118.55 25.4696V30.6406H115.481V15.9642H121.293C122.412 15.9642 123.394 16.1658 124.239 16.569C125.093 16.9722 125.747 17.5467 126.204 18.2927C126.661 19.0318 126.89 19.8753 126.89 20.8228C126.89 22.2609 126.388 23.3965 125.386 24.2298C124.389 25.0564 123.009 25.4696 121.242 25.4696H118.55ZM118.55 23.0202H121.293C122.104 23.0202 122.721 22.832 123.145 22.4557C123.575 22.0794 123.789 21.5418 123.789 20.8429C123.789 20.1239 123.575 19.5425 123.145 19.099C122.715 18.6555 122.122 18.4271 121.364 18.4137H118.55V23.0202ZM131.934 30.6406H128.967V15.1578H131.934V30.6406ZM140.794 30.6406C140.658 30.3786 140.559 30.0526 140.497 29.6629C139.781 30.4491 138.85 30.8423 137.705 30.8423C136.62 30.8423 135.72 30.5331 135.003 29.9149C134.294 29.2966 133.939 28.5171 133.939 27.5763C133.939 26.4205 134.372 25.5335 135.238 24.9152C136.111 24.297 137.369 23.9845 139.014 23.9777H140.375V23.3528C140.375 22.8489 140.241 22.4456 139.976 22.1432C139.716 21.8408 139.304 21.6896 138.737 21.6896C138.24 21.6896 137.848 21.8073 137.562 22.0424C137.281 22.2776 137.141 22.6002 137.141 23.0101H134.184C134.184 22.3784 134.382 21.7937 134.778 21.2562C135.174 20.7185 135.733 20.2986 136.456 19.9962C137.179 19.687 137.991 19.5326 138.891 19.5326C140.255 19.5326 141.337 19.8719 142.134 20.5505C142.94 21.2226 143.341 22.1702 143.341 23.3932V28.1206C143.348 29.1555 143.495 29.9384 143.781 30.4693V30.6406H140.794ZM138.348 28.6146C138.785 28.6146 139.188 28.5205 139.556 28.3323C139.925 28.1375 140.197 27.8787 140.375 27.5561V25.6813H139.269C137.79 25.6813 137.002 26.1852 136.906 27.1932L136.896 27.3647C136.896 27.7276 137.026 28.0266 137.284 28.2618C137.544 28.497 137.899 28.6146 138.348 28.6146ZM149.583 26.518L151.629 19.7341H154.801L150.351 32.3341L150.105 32.9086C149.444 34.3332 148.352 35.0456 146.83 35.0456C146.401 35.0456 145.964 34.9818 145.521 34.854V32.6465L145.971 32.6566C146.531 32.6566 146.947 32.5727 147.219 32.4046C147.5 32.2366 147.717 31.9577 147.874 31.568L148.223 30.6709L144.345 19.7341H147.526L149.583 26.518Z" fill="#634F97"/>
<path d="M0.172363 29.876V3.8802C0.172363 2.978 0.700098 2.18282 1.47618 1.81583L16.7649 16.8781L1.47618 31.9404C0.700098 31.5581 0.172363 30.7783 0.172363 29.876ZM21.6077 21.6491L4.90646 31.1605L18.0844 18.1779L21.6077 21.6491ZM26.8075 15.0584C27.3352 15.4712 27.7233 16.1135 27.7233 16.8781C27.7233 17.6427 27.3817 18.2544 26.8386 18.6825L23.284 20.701L19.4037 16.8781L23.284 13.0552L26.8075 15.0584ZM4.90646 2.5957L21.6077 12.1071L18.0844 15.5784L4.90646 2.5957Z" fill="#634F97"/>
</g>
<defs>
<clipPath id="clip0">
<rect width="154.828" height="34.4063" fill="white" transform="translate(0.171875 0.82193)"/>
</clipPath>
</defs>
</svg>
