<svg width="144" height="38" viewBox="0 0 144 38" fill="none" xmlns="http://www.w3.org/2000/svg">
<path d="M44.4224 9.93958V1.10655H47.1493C47.9284 1.10655 48.6243 1.28248 49.2371 1.63435C49.8539 1.98217 50.3348 2.47963 50.6797 3.12674C51.0246 3.7698 51.197 4.50184 51.197 5.32287V5.72933C51.197 6.55036 51.0266 7.28037 50.6858 7.91938C50.349 8.55841 49.8721 9.05385 49.2553 9.40571C48.6385 9.75759 47.9426 9.93553 47.1675 9.93958H44.4224ZM46.2484 2.58074V8.47752H47.131C47.8452 8.47752 48.3911 8.24497 48.7684 7.77986C49.1457 7.31475 49.3386 6.64944 49.3467 5.78393V5.3168C49.3467 4.41893 49.16 3.73948 48.7866 3.2784C48.4134 2.81329 47.8675 2.58074 47.1493 2.58074H46.2484ZM52.1406 6.59686C52.1406 5.9457 52.2664 5.36533 52.5179 4.85573C52.7695 4.34614 53.1306 3.9518 53.6014 3.67273C54.0762 3.39368 54.6261 3.25414 55.251 3.25414C56.1397 3.25414 56.864 3.52512 57.4241 4.06707C57.988 4.60903 58.3026 5.34511 58.3675 6.27533L58.3797 6.72426C58.3797 7.73133 58.0976 8.54021 57.5335 9.15091C56.9696 9.75759 56.2127 10.0609 55.2632 10.0609C54.3135 10.0609 53.5547 9.75759 52.9867 9.15091C52.4226 8.54425 52.1406 7.71919 52.1406 6.67573V6.59686ZM53.8997 6.72426C53.8997 7.3471 54.0174 7.82435 54.2527 8.15598C54.4881 8.48358 54.8249 8.64739 55.2632 8.64739C55.6893 8.64739 56.022 8.48561 56.2614 8.16206C56.5008 7.83445 56.6205 7.31272 56.6205 6.59686C56.6205 5.98615 56.5008 5.51295 56.2614 5.17726C56.022 4.84158 55.6852 4.67374 55.251 4.67374C54.8208 4.67374 54.4881 4.84158 54.2527 5.17726C54.0174 5.50891 53.8997 6.02458 53.8997 6.72426ZM65.1909 7.55538L66.0553 3.37548H67.7536L66.0735 9.93958H64.6005L63.3527 5.80819L62.1048 9.93958H60.6379L58.9579 3.37548H60.6561L61.5144 7.54932L62.7196 3.37548H63.9918L65.1909 7.55538ZM70.2491 3.37548L70.304 4.13381C70.7747 3.54736 71.4057 3.25414 72.197 3.25414C72.8949 3.25414 73.4144 3.45838 73.7552 3.86686C74.0962 4.27536 74.2707 4.88607 74.2788 5.69899V9.93958H72.5196V5.74146C72.5196 5.36937 72.4384 5.10042 72.2761 4.9346C72.1138 4.76473 71.8439 4.6798 71.4666 4.6798C70.9715 4.6798 70.6002 4.89011 70.3526 5.31073V9.93958H68.5935V3.37548H70.2491ZM77.4743 9.93958H75.7091V0.621216H77.4743V9.93958ZM78.6552 6.59686C78.6552 5.9457 78.781 5.36533 79.0326 4.85573C79.2843 4.34614 79.6454 3.9518 80.1161 3.67273C80.5908 3.39368 81.1407 3.25414 81.7656 3.25414C82.6543 3.25414 83.3787 3.52512 83.9387 4.06707C84.5028 4.60903 84.8172 5.34511 84.8821 6.27533L84.8944 6.72426C84.8944 7.73133 84.6123 8.54021 84.0483 9.15091C83.4842 9.75759 82.7274 10.0609 81.7779 10.0609C80.8283 10.0609 80.0694 9.75759 79.5013 9.15091C78.9372 8.54425 78.6552 7.71919 78.6552 6.67573V6.59686ZM80.4143 6.72426C80.4143 7.3471 80.532 7.82435 80.7674 8.15598C81.0027 8.48358 81.3396 8.64739 81.7779 8.64739C82.2039 8.64739 82.5367 8.48561 82.7761 8.16206C83.0155 7.83445 83.1353 7.31272 83.1353 6.59686C83.1353 5.98615 83.0155 5.51295 82.7761 5.17726C82.5367 4.84158 82.1998 4.67374 81.7656 4.67374C81.3356 4.67374 81.0027 4.84158 80.7674 5.17726C80.532 5.50891 80.4143 6.02458 80.4143 6.72426ZM89.7943 9.93958C89.7131 9.78185 89.6543 9.5857 89.6178 9.35112C89.1918 9.82432 88.6378 10.0609 87.956 10.0609C87.3109 10.0609 86.7752 9.87488 86.3492 9.50279C85.9271 9.1307 85.7161 8.66154 85.7161 8.09532C85.7161 7.39968 85.9738 6.86581 86.4891 6.49372C87.0085 6.12164 87.7572 5.93358 88.7352 5.92953H89.5448V5.5534C89.5448 5.25007 89.4657 5.0074 89.3074 4.8254C89.1531 4.6434 88.9077 4.5524 88.5709 4.5524C88.2747 4.5524 88.0413 4.62318 87.8709 4.76473C87.7045 4.90629 87.6213 5.10042 87.6213 5.34713H85.8622C85.8622 4.96695 85.9799 4.61509 86.2153 4.29153C86.4506 3.96798 86.7833 3.7152 87.2134 3.53321C87.6436 3.34716 88.1266 3.25414 88.6621 3.25414C89.4738 3.25414 90.1169 3.45838 90.5917 3.86686C91.0705 4.27132 91.31 4.84158 91.31 5.57767V8.42292C91.314 9.04576 91.4013 9.51694 91.5717 9.83645V9.93958H89.7943ZM88.3396 8.72018C88.5993 8.72018 88.8386 8.66356 89.0578 8.55033C89.2769 8.43303 89.4392 8.27732 89.5448 8.08319V6.9548H88.8874C88.0068 6.9548 87.5382 7.25813 87.4813 7.86479L87.4752 7.96793C87.4752 8.18633 87.5523 8.36629 87.7065 8.50786C87.8607 8.64941 88.0717 8.72018 88.3396 8.72018ZM92.3873 6.609C92.3873 5.58576 92.6166 4.7708 93.0752 4.16413C93.5378 3.55747 94.1689 3.25414 94.9682 3.25414C95.6094 3.25414 96.139 3.49276 96.557 3.97V0.621216H98.3222V9.93958H96.7335L96.6482 9.24192C96.2099 9.78792 95.646 10.0609 94.9561 10.0609C94.1809 10.0609 93.5581 9.75759 93.0874 9.15091C92.6207 8.54021 92.3873 7.6929 92.3873 6.609ZM94.1465 6.7364C94.1465 7.35115 94.254 7.82232 94.469 8.14992C94.6842 8.47752 94.9966 8.64132 95.4065 8.64132C95.9503 8.64132 96.3337 8.41281 96.557 7.95579V5.36533C96.3378 4.90831 95.9584 4.6798 95.4187 4.6798C94.5705 4.6798 94.1465 5.36533 94.1465 6.7364ZM102.516 6.59686C102.516 5.9457 102.642 5.36533 102.893 4.85573C103.145 4.34614 103.506 3.9518 103.977 3.67273C104.452 3.39368 105.001 3.25414 105.626 3.25414C106.515 3.25414 107.24 3.52512 107.799 4.06707C108.364 4.60903 108.678 5.34511 108.743 6.27533L108.755 6.72426C108.755 7.73133 108.473 8.54021 107.909 9.15091C107.345 9.75759 106.588 10.0609 105.639 10.0609C104.689 10.0609 103.93 9.75759 103.362 9.15091C102.798 8.54425 102.516 7.71919 102.516 6.67573V6.59686ZM104.275 6.72426C104.275 7.3471 104.393 7.82435 104.628 8.15598C104.864 8.48358 105.2 8.64739 105.639 8.64739C106.065 8.64739 106.397 8.48561 106.637 8.16206C106.876 7.83445 106.996 7.31272 106.996 6.59686C106.996 5.98615 106.876 5.51295 106.637 5.17726C106.397 4.84158 106.061 4.67374 105.626 4.67374C105.196 4.67374 104.864 4.84158 104.628 5.17726C104.393 5.50891 104.275 6.02458 104.275 6.72426ZM111.458 3.37548L111.512 4.13381C111.983 3.54736 112.614 3.25414 113.406 3.25414C114.104 3.25414 114.623 3.45838 114.964 3.86686C115.305 4.27536 115.479 4.88607 115.487 5.69899V9.93958H113.728V5.74146C113.728 5.36937 113.647 5.10042 113.485 4.9346C113.322 4.76473 113.053 4.6798 112.675 4.6798C112.18 4.6798 111.809 4.89011 111.561 5.31073V9.93958H109.802V3.37548H111.458ZM122.037 1.76175V3.37548H123.163V4.6616H122.037V7.93759C122.037 8.18025 122.083 8.35417 122.177 8.45932C122.27 8.56448 122.449 8.61706 122.712 8.61706C122.907 8.61706 123.08 8.60289 123.23 8.57459V9.90318C122.885 10.0083 122.53 10.0609 122.165 10.0609C120.931 10.0609 120.302 9.44009 120.278 8.19845V4.6616H119.316V3.37548H120.278V1.76175H122.037ZM125.86 4.09134C126.326 3.53321 126.913 3.25414 127.618 3.25414C129.047 3.25414 129.771 4.08122 129.791 5.7354V9.93958H128.032V5.78393C128.032 5.4078 127.951 5.13076 127.789 4.9528C127.627 4.7708 127.357 4.6798 126.979 4.6798C126.464 4.6798 126.09 4.87798 125.86 5.27434V9.93958H124.1V0.621216H125.86V4.09134ZM134.149 10.0609C133.185 10.0609 132.397 9.76568 131.788 9.17519C131.184 8.5847 130.881 7.79806 130.881 6.81526V6.64539C130.881 5.98615 131.009 5.39769 131.265 4.87999C131.52 4.35827 131.882 3.95787 132.348 3.67881C132.819 3.39569 133.354 3.25414 133.955 3.25414C134.856 3.25414 135.564 3.53726 136.079 4.10346C136.599 4.66969 136.858 5.47251 136.858 6.51193V7.22779H132.665C132.721 7.6565 132.892 8.00028 133.176 8.25912C133.464 8.51796 133.828 8.64739 134.265 8.64739C134.944 8.64739 135.473 8.4027 135.854 7.91332L136.719 8.87792C136.454 9.25001 136.098 9.5412 135.647 9.75151C135.197 9.95778 134.698 10.0609 134.149 10.0609ZM133.949 4.67374C133.6 4.67374 133.315 4.79102 133.097 5.0256C132.882 5.26017 132.743 5.59587 132.683 6.03266H135.129V5.89312C135.122 5.50486 135.016 5.20558 134.814 4.99527C134.611 4.78091 134.323 4.67374 133.949 4.67374Z" fill="#634F97"/>
<path d="M54.0619 29.0276H48.2987L47.2031 32.3035H43.708L49.6465 16.404H52.6924L58.6636 32.3035H55.1685L54.0619 29.0276ZM49.1863 26.3739H53.1745L51.1694 20.4226L49.1863 26.3739ZM70.0913 26.505C70.0913 28.3251 69.6749 29.7847 68.8422 30.8839C68.0168 31.9759 66.8992 32.5219 65.4895 32.5219C64.2916 32.5219 63.3238 32.107 62.5861 31.277V36.8462H59.4196V20.4881H62.356L62.4655 21.6457C63.2324 20.7284 64.2332 20.2698 65.4676 20.2698C66.9285 20.2698 68.0643 20.8084 68.8751 21.8858C69.6859 22.9633 70.0913 24.4484 70.0913 26.3413V26.505ZM66.9248 26.2757C66.9248 25.1765 66.7275 24.3284 66.3331 23.7314C65.9461 23.1344 65.38 22.8359 64.6349 22.8359C63.6416 22.8359 62.9586 23.2145 62.5861 23.9715V28.8091C62.9732 29.5882 63.6634 29.9775 64.6568 29.9775C66.1688 29.9775 66.9248 28.7437 66.9248 26.2757ZM82.7351 26.505C82.7351 28.3251 82.3187 29.7847 81.486 30.8839C80.6606 31.9759 79.543 32.5219 78.1334 32.5219C76.9354 32.5219 75.9676 32.107 75.2299 31.277V36.8462H72.0634V20.4881H74.9998L75.1093 21.6457C75.8763 20.7284 76.8769 20.2698 78.1114 20.2698C79.5723 20.2698 80.7081 20.8084 81.5189 21.8858C82.3297 22.9633 82.7351 24.4484 82.7351 26.3413V26.505ZM79.5686 26.2757C79.5686 25.1765 79.3714 24.3284 78.9769 23.7314C78.5899 23.1344 78.0238 22.8359 77.2787 22.8359C76.2853 22.8359 75.6024 23.2145 75.2299 23.9715V28.8091C75.617 29.5882 76.3072 29.9775 77.3006 29.9775C78.8126 29.9775 79.5686 28.7437 79.5686 26.2757ZM98.7754 28.1321C98.7754 27.5133 98.5562 27.0401 98.1179 26.7125C97.6796 26.3777 96.8908 26.0282 95.7514 25.6641C94.6118 25.2929 93.7098 24.929 93.0451 24.5721C91.2335 23.5967 90.3279 22.2827 90.3279 20.6301C90.3279 19.7711 90.5689 19.0067 91.051 18.3369C91.5403 17.6599 92.2379 17.1321 93.1437 16.7535C94.0567 16.375 95.0793 16.1856 96.2115 16.1856C97.351 16.1856 98.3662 16.3931 99.2574 16.8081C100.149 17.2157 100.839 17.7946 101.328 18.5444C101.825 19.2942 102.073 20.1459 102.073 21.0996H98.7862C98.7862 20.3717 98.5562 19.8075 98.096 19.407C97.6358 18.9994 96.9894 18.7955 96.1568 18.7955C95.3532 18.7955 94.7288 18.9666 94.2831 19.3088C93.8376 19.6436 93.6148 20.0878 93.6148 20.641C93.6148 21.1579 93.8741 21.591 94.3927 21.9405C94.9186 22.2899 95.6893 22.6175 96.7045 22.9233C98.5744 23.4839 99.9367 24.179 100.791 25.009C101.646 25.8389 102.073 26.8727 102.073 28.1103C102.073 29.4861 101.551 30.5672 100.506 31.3535C99.4619 32.1324 98.0558 32.5219 96.2881 32.5219C95.0611 32.5219 93.9435 32.2999 92.9355 31.8557C91.9275 31.4045 91.1569 30.7892 90.6237 30.0103C90.0978 29.2313 89.8349 28.3287 89.8349 27.3022H93.1327C93.1327 29.0566 94.1845 29.9339 96.2881 29.9339C97.0698 29.9339 97.6796 29.7774 98.1179 29.4643C98.5562 29.144 98.7754 28.6999 98.7754 28.1321ZM107.891 17.5834V20.4881H109.918V22.8031H107.891V28.6999C107.891 29.1368 107.975 29.4497 108.143 29.6391C108.311 29.8283 108.633 29.923 109.107 29.923C109.458 29.923 109.768 29.8975 110.039 29.8466V32.238C109.418 32.4273 108.779 32.5219 108.121 32.5219C105.901 32.5219 104.769 31.4045 104.725 29.1694V22.8031H102.994V20.4881H104.725V17.5834H107.891ZM110.86 26.2866C110.86 25.1146 111.087 24.0698 111.54 23.1526C111.992 22.2353 112.643 21.5255 113.49 21.0232C114.344 20.5209 115.334 20.2698 116.459 20.2698C118.059 20.2698 119.363 20.7574 120.371 21.733C121.386 22.7085 121.952 24.0335 122.069 25.7079L122.091 26.516C122.091 28.3287 121.583 29.7847 120.568 30.8839C119.552 31.9759 118.19 32.5219 116.481 32.5219C114.772 32.5219 113.406 31.9759 112.383 30.8839C111.368 29.7919 110.86 28.3068 110.86 26.4286V26.2866ZM114.027 26.516C114.027 27.637 114.238 28.496 114.662 29.093C115.086 29.6827 115.692 29.9775 116.481 29.9775C117.248 29.9775 117.847 29.6864 118.278 29.104C118.709 28.5143 118.924 27.5751 118.924 26.2866C118.924 25.1874 118.709 24.3356 118.278 23.7314C117.847 23.1272 117.241 22.825 116.459 22.825C115.685 22.825 115.086 23.1272 114.662 23.7314C114.238 24.3284 114.027 25.2565 114.027 26.516ZM130.703 23.4475C130.272 23.3892 129.891 23.3601 129.563 23.3601C128.366 23.3601 127.58 23.7642 127.207 24.5721V32.3035H124.041V20.4881H127.032L127.12 21.8968C127.755 20.8121 128.635 20.2698 129.76 20.2698C130.111 20.2698 130.44 20.317 130.747 20.4117L130.703 23.4475ZM137.473 32.5219C135.735 32.5219 134.318 31.9904 133.222 30.9276C132.134 29.8647 131.59 28.4488 131.59 26.6797V26.3739C131.59 25.1874 131.82 24.1281 132.28 23.1963C132.74 22.2572 133.391 21.5365 134.231 21.0341C135.077 20.5245 136.042 20.2698 137.123 20.2698C138.745 20.2698 140.019 20.7793 140.946 21.7985C141.881 22.8177 142.349 24.2628 142.349 26.1338V27.4223H134.8C134.903 28.194 135.209 28.8127 135.72 29.2787C136.239 29.7446 136.892 29.9775 137.681 29.9775C138.902 29.9775 139.854 29.5371 140.541 28.6563L142.097 30.3925C141.622 31.0623 140.98 31.5865 140.168 31.965C139.358 32.3363 138.459 32.5219 137.473 32.5219ZM137.112 22.825C136.483 22.825 135.972 23.0361 135.578 23.4584C135.191 23.8806 134.943 24.4848 134.833 25.271H139.237V25.0199C139.223 24.321 139.033 23.7823 138.667 23.4037C138.302 23.018 137.784 22.825 137.112 22.825Z" fill="#634F97"/>
<path d="M24.8649 29.819C23.4853 31.8731 22.0227 33.8777 19.7954 33.9107C17.5681 33.9604 16.8534 32.602 14.3269 32.602C11.7839 32.602 11.0026 33.8777 8.89173 33.9604C6.71432 34.0433 5.06881 31.7737 3.67261 29.7693C0.830357 25.6775 -1.34704 18.1399 1.57831 13.0708C3.02438 10.5527 5.61731 8.96238 8.42634 8.91269C10.5539 8.87956 12.5816 10.3539 13.8948 10.3539C15.1913 10.3539 17.6512 8.58138 20.2276 8.84643C21.3079 8.89612 24.333 9.27715 26.2777 12.1265C26.1281 12.2259 22.6709 14.247 22.7041 18.4381C22.7539 23.4411 27.1088 25.1142 27.1587 25.1308C27.1088 25.2467 26.4606 27.5163 24.8649 29.819ZM15.374 3.31339C16.5875 1.93841 18.5986 0.894755 20.2607 0.828491C20.4769 2.76672 19.6956 4.7215 18.5322 6.11304C17.3853 7.52114 15.4905 8.6145 13.6288 8.46541C13.3795 6.56032 14.3103 4.5724 15.374 3.31339Z" fill="#634F97"/>
</svg>
