<svg width="26" height="31" viewBox="0 0 26 31" fill="none" xmlns="http://www.w3.org/2000/svg">
<g clip-path="url(#clip0)">
<path d="M12.5401 14.3507C8.55804 14.3507 5.31812 11.1319 5.31812 7.17571C5.31812 3.21955 8.55804 0 12.5401 0C16.5221 0 19.762 3.21888 19.762 7.17504C19.762 11.1312 16.5228 14.3507 12.5401 14.3507ZM12.5401 2.15265C9.75245 2.15265 7.48416 4.40552 7.48416 7.17571C7.48416 9.94522 9.75245 12.1981 12.5401 12.1981C15.3277 12.1981 17.596 9.94522 17.596 7.17571C17.596 4.40552 15.3277 2.15265 12.5401 2.15265Z" fill="#2F80ED"/>
<path d="M24.9166 30.1366H1.08336C0.485481 30.1366 0 29.6543 0 29.0603V24.0372C0 20.2788 3.0781 17.2207 6.86106 17.2207H19.1389C22.9219 17.2207 26 20.2788 26 24.0372V29.0603C26 29.6543 25.5145 30.1366 24.9166 30.1366ZM2.16672 27.9839H23.8333V24.0372C23.8333 21.4655 21.7275 19.3733 19.1389 19.3733H6.86106C4.27251 19.3733 2.16672 21.4661 2.16672 24.0372V27.9839Z" fill="#2F80ED"/>
</g>
<defs>
<clipPath id="clip0">
<rect width="26" height="30.1364" fill="white"/>
</clipPath>
</defs>
</svg>
