<svg width="15" height="10" viewBox="0 0 15 10" fill="none" xmlns="http://www.w3.org/2000/svg">
<path fill-rule="evenodd" clip-rule="evenodd" d="M14.3024 1.11917C14.4039 0.777571 14.3024 0.538452 13.829 0.538452H12.2508C11.845 0.538452 11.6646 0.754798 11.5631 0.993918C11.5631 0.993918 10.7628 2.97519 9.62421 4.2505C9.25221 4.62626 9.09439 4.74012 8.89148 4.74012C8.79002 4.74012 8.64348 4.62626 8.64348 4.28466V1.11917C8.64348 0.709252 8.53075 0.538452 8.19257 0.538452H5.71255C5.46455 0.538452 5.30673 0.732025 5.30673 0.902824C5.30673 1.28997 5.87037 1.38106 5.93801 2.45141V4.79706C5.93801 5.30945 5.84782 5.40055 5.64491 5.40055C5.11509 5.40055 3.80745 3.41927 3.0409 1.14194C2.88308 0.720639 2.73653 0.538452 2.33071 0.538452H0.75252C0.301608 0.538452 0.211426 0.754798 0.211426 0.993918C0.211426 1.41522 0.741247 3.51037 2.70271 6.27732C4.01036 8.1675 5.84782 9.1923 7.5162 9.1923C8.51948 9.1923 8.64348 8.96457 8.64348 8.57742V7.1427C8.64348 6.68724 8.73366 6.59614 9.06057 6.59614C9.2973 6.59614 9.69185 6.71001 10.6275 7.62094C11.6984 8.70267 11.8788 9.1923 12.4762 9.1923H14.0544C14.5053 9.1923 14.7308 8.96457 14.5955 8.52049C14.449 8.07641 13.9417 7.42737 13.2653 6.65308C12.8933 6.209 12.341 5.74215 12.1831 5.50303C11.9464 5.19559 12.014 5.05895 12.1831 4.79706C12.1831 4.78567 14.1108 2.05287 14.3024 1.11917Z" fill="white"/>
</svg>
