<svg width="40" height="40" viewBox="0 0 40 40" fill="none" xmlns="http://www.w3.org/2000/svg">
<path fill-rule="evenodd" clip-rule="evenodd" d="M10.4142 30.2132C10.0391 29.8381 9.82843 29.3294 9.82843 28.799C9.82843 28.2686 10.0391 27.7599 10.4142 27.3848L27.3848 10.4142C27.7598 10.0391 28.2686 9.82843 28.799 9.82843C29.3294 9.82843 29.8381 10.0391 30.2132 10.4142C30.5883 10.7893 30.799 11.298 30.799 11.8284C30.799 12.3589 30.5883 12.8676 30.2132 13.2426L13.2426 30.2132C12.8676 30.5883 12.3589 30.799 11.8284 30.799C11.298 30.799 10.7893 30.5883 10.4142 30.2132Z" fill="white"/>
<path fill-rule="evenodd" clip-rule="evenodd" d="M10.1009 10.1005C10.476 9.72544 10.9847 9.51472 11.5151 9.51472C12.0456 9.51472 12.5543 9.72544 12.9294 10.1005L29.8999 27.0711C30.275 27.4461 30.4857 27.9549 30.4857 28.4853C30.4857 29.0157 30.275 29.5244 29.8999 29.8995C29.5248 30.2746 29.0161 30.4853 28.4857 30.4853C27.9553 30.4853 27.4466 30.2746 27.0715 29.8995L10.1009 12.9289C9.72585 12.5539 9.51514 12.0452 9.51514 11.5147C9.51514 10.9843 9.72585 10.4756 10.1009 10.1005Z" fill="white"/>
</svg>
