<svg width="22" height="22" viewBox="0 0 22 22" fill="none" xmlns="http://www.w3.org/2000/svg">
<path d="M19.9312 11.3034L11.6812 2.13674C11.3338 1.74991 10.6665 1.74991 10.3191 2.13674L2.06906 11.3034C1.95032 11.435 1.87237 11.5983 1.84471 11.7734C1.81704 11.9485 1.84085 12.1279 1.91323 12.2897C2.0599 12.6207 2.38806 12.8333 2.75015 12.8333H4.58348V19.25C4.58348 19.4931 4.68006 19.7263 4.85197 19.8982C5.02388 20.0701 5.25703 20.1667 5.50015 20.1667H8.25015C8.49326 20.1667 8.72642 20.0701 8.89833 19.8982C9.07024 19.7263 9.16681 19.4931 9.16681 19.25V15.5833H12.8335V19.25C12.8335 19.4931 12.9301 19.7263 13.102 19.8982C13.2739 20.0701 13.507 20.1667 13.7501 20.1667H16.5001C16.7433 20.1667 16.9764 20.0701 17.1483 19.8982C17.3202 19.7263 17.4168 19.4931 17.4168 19.25V12.8333H19.2501C19.4277 12.8341 19.6016 12.7832 19.7507 12.6868C19.8998 12.5904 20.0176 12.4527 20.0898 12.2906C20.162 12.1284 20.1855 11.9487 20.1573 11.7734C20.1291 11.5981 20.0506 11.4348 19.9312 11.3034Z" fill="#9187AC"/>
</svg>
