<svg width="22" height="22" viewBox="0 0 22 22" fill="none" xmlns="http://www.w3.org/2000/svg">
<path fill-rule="evenodd" clip-rule="evenodd" d="M16.4899 1.375H4.98906V2.79262H0.990234V9.44213C0.990234 12.012 3.68976 14.1268 6.33882 14.3468C7.20847 15.3368 8.73812 16.0559 10.0995 16.3625V18.1005C8.79765 18.5254 6.47212 19.5236 6.33882 20.6112H15.2734C15.1388 19.5236 12.5765 18.524 11.272 18.1005V16.3625C12.6386 16.0559 14.2368 15.3368 15.1078 14.3468C17.7555 14.1268 20.336 12.012 20.336 9.44213V2.79262H16.4899V1.375ZM2.21835 4.05213H4.89588V9.78037C4.89588 10.9106 5.17023 11.9859 5.65294 12.9539C3.64965 12.276 2.21835 10.5297 2.21835 8.4865V4.05213ZM12.7059 11.0385L10.7078 9.86838L8.70706 11.0385L9.08882 8.5635L7.47118 6.81175L9.70612 6.45012L10.7078 4.20063L11.7068 6.45012L13.9418 6.81175L12.3241 8.5635L12.7059 11.0385ZM15.6759 13.1367C16.1612 12.1247 16.4394 11.0055 16.4394 9.82163V4.08925H19.1234V8.47C19.1234 10.6054 17.6856 12.4286 15.6759 13.1367Z" fill="#9187AC"/>
</svg>
