<svg width="30" height="24" viewBox="0 0 30 24" fill="none" xmlns="http://www.w3.org/2000/svg">
<path d="M29.9973 15.5275V18.7401C29.9973 18.8851 29.9443 19.0106 29.8384 19.1166C29.7324 19.2226 29.6069 19.2756 29.4619 19.2756H6.43795V22.4882C6.43795 22.6332 6.38496 22.7587 6.27899 22.8647C6.17302 22.9707 6.04752 23.0236 5.90251 23.0236C5.76865 23.0236 5.63479 22.9679 5.50093 22.8563L0.163257 17.5019C0.0628623 17.4015 0.0126648 17.2788 0.0126648 17.1338C0.0126648 16.9776 0.0628623 16.8493 0.163257 16.749L5.51766 11.3946C5.61805 11.2942 5.74634 11.244 5.90251 11.244C6.04752 11.244 6.17302 11.2969 6.27899 11.4029C6.38496 11.5089 6.43795 11.6344 6.43795 11.7794V14.992H29.4619C29.6069 14.992 29.7324 15.045 29.8384 15.151C29.9443 15.257 29.9973 15.3825 29.9973 15.5275ZM29.9973 6.425C29.9973 6.58117 29.9471 6.70945 29.8467 6.80985L24.4923 12.1642C24.3919 12.2646 24.2636 12.3148 24.1075 12.3148C23.9625 12.3148 23.837 12.2619 23.731 12.1559C23.625 12.0499 23.572 11.9244 23.572 11.7794V8.56676H0.548105C0.40309 8.56676 0.277596 8.51377 0.171624 8.4078C0.0656511 8.30183 0.0126648 8.17633 0.0126648 8.03132V4.81868C0.0126648 4.67366 0.0656511 4.54817 0.171624 4.4422C0.277596 4.33622 0.40309 4.28324 0.548105 4.28324H23.572V1.0706C23.572 0.914426 23.6222 0.786144 23.7226 0.685749C23.823 0.585354 23.9513 0.535156 24.1075 0.535156C24.2413 0.535156 24.3752 0.590931 24.5091 0.702481L29.8467 6.04015C29.9471 6.14055 29.9973 6.26883 29.9973 6.425Z" fill="#2F80ED"/>
</svg>
