<svg width="39" height="32" viewBox="0 0 39 32" fill="none" xmlns="http://www.w3.org/2000/svg">
<path d="M38.0808 19.7359C37.9991 19.5935 37.8724 19.4821 37.7228 19.4194L35.0496 18.303L37.8182 16.6398C38.168 16.431 38.2864 15.9721 38.0808 15.6153C37.9991 15.4729 37.8724 15.3615 37.7228 15.2987L35.0496 14.1824L37.8182 12.5192C38.0597 12.3703 38.1974 12.094 38.1707 11.8075C38.1496 11.5246 37.9734 11.2774 37.7154 11.1706L27.1915 6.77282L22.0067 4.52521C21.9222 4.4915 21.8332 4.4737 21.7423 4.47277L13.2968 0.966498C13.0893 0.878467 12.8543 0.892515 12.6578 1.00396L1.34081 7.49205C0.9782 7.67842 0.833157 8.12887 1.01492 8.49786C1.09846 8.66643 1.24075 8.7966 1.41425 8.86309L4.1462 10.0169L1.34081 11.6127C0.988298 11.8168 0.863451 12.2738 1.06357 12.6335C1.14344 12.7767 1.26645 12.8891 1.41425 12.9537L4.1462 14.1075L1.3555 15.7033C0.981872 15.8653 0.809289 16.3055 0.968102 16.6866C1.05072 16.8852 1.21321 17.0369 1.41425 17.1043L4.1462 18.2506L1.3555 19.8464C1.00299 20.0506 0.878139 20.5076 1.07826 20.8672C1.15813 21.0105 1.28114 21.1229 1.42894 21.1875L10.9247 25.3006C10.9596 25.3259 10.9963 25.3493 11.0348 25.368L16.227 27.6156L25.7741 31.7587C25.989 31.8514 26.2341 31.8355 26.4351 31.7138L37.8182 24.881C38.168 24.6722 38.2864 24.2133 38.0808 23.8556C37.9991 23.7132 37.8724 23.6018 37.7228 23.539L35.0496 22.4227L37.8182 20.7595C38.168 20.5516 38.2855 20.0927 38.0808 19.7359ZM35.7913 16.1004L26.0018 21.9816L17.2478 18.1907V15.6958L25.7668 19.3894C25.8577 19.4287 25.955 19.4493 26.0532 19.4493C26.1854 19.4493 26.3148 19.4128 26.4278 19.3444L33.4559 15.1264L35.7913 16.1004ZM35.8207 11.9723L26.0018 17.8535L18.0483 14.4072L27.0079 8.30119L35.8207 11.9723ZM10.5648 23.5325L3.3604 20.4083L5.83531 18.9923L10.5722 21.0451L10.5648 23.5325ZM10.5648 19.4119L3.3604 16.2877L5.83531 14.8567L10.5722 16.9095L10.5648 19.4119ZM10.5648 15.2912L3.3604 12.1746L5.83531 10.7586L10.5722 12.8114L10.5648 15.2912ZM3.3604 8.05395L13.0691 2.48738L20.112 5.43175L11.2405 11.4703L3.3604 8.05395ZM16.1022 13.9427C15.8993 14.0822 15.779 14.3154 15.779 14.5645V25.8026L12.041 24.1843V12.729L21.7717 6.11352L25.3923 7.61192L16.1022 13.9427ZM35.7913 24.3416L26.0018 30.2154L17.2478 26.4244V23.937L25.7668 27.5932C25.9816 27.6859 26.2267 27.6699 26.4278 27.5482L33.4559 23.3302L35.7913 24.3416ZM26.0018 26.0947L17.2478 22.3038V19.8164L25.7741 23.51C25.989 23.6027 26.2341 23.5868 26.4351 23.465L33.4633 19.247L35.7913 20.221L26.0018 26.0947Z" fill="#2F80ED"/>
</svg>
