<svg width="21" height="20" viewBox="0 0 21 20" fill="none" xmlns="http://www.w3.org/2000/svg">
<path fill-rule="evenodd" clip-rule="evenodd" d="M16.4899 0.375H4.98906V1.79262H0.990234V8.44213C0.990234 11.012 3.68976 13.1268 6.33882 13.3468C7.20847 14.3368 8.73812 15.0559 10.0995 15.3625V17.1005C8.79765 17.5254 6.47212 18.5236 6.33882 19.6112H15.2734C15.1388 18.5236 12.5765 17.524 11.272 17.1005V15.3625C12.6386 15.0559 14.2368 14.3368 15.1078 13.3468C17.7555 13.1268 20.336 11.012 20.336 8.44213V1.79262H16.4899V0.375ZM2.21835 3.05213H4.89588V8.78037C4.89588 9.91062 5.17023 10.9859 5.65294 11.9539C3.64965 11.276 2.21835 9.52975 2.21835 7.4865V3.05213ZM12.7059 10.0385L10.7078 8.86838L8.70706 10.0385L9.08882 7.5635L7.47118 5.81175L9.70612 5.45012L10.7078 3.20063L11.7068 5.45012L13.9418 5.81175L12.3241 7.5635L12.7059 10.0385ZM15.6759 12.1367C16.1612 11.1247 16.4394 10.0055 16.4394 8.82163V3.08925H19.1234V7.47C19.1234 9.60537 17.6856 11.4286 15.6759 12.1367Z" fill="white"/>
</svg>
