<svg width="31" height="30" viewBox="0 0 31 30" fill="none" xmlns="http://www.w3.org/2000/svg">
<g clip-path="url(#clip0)">
<path d="M21.2158 5.38914V5.6716H21.4982H26.5323C27.5285 5.6716 28.3549 6.00079 29.03 6.65761C29.7008 7.31033 30.0401 8.14305 30.0401 9.17947V14.2135C30.0401 14.5845 29.9476 14.8109 29.8119 14.9465C29.6763 15.0822 29.4499 15.1747 29.0789 15.1747H28.7964V15.4572V25.5845C28.7964 26.1743 28.5743 26.6964 28.1092 27.1614C27.6442 27.6265 27.1221 27.8486 26.5323 27.8486H3.79032C3.20051 27.8486 2.6784 27.6265 2.21333 27.1614C1.74827 26.6964 1.52615 26.1743 1.52615 25.5845V15.4572V15.1747H1.2437C0.872672 15.1747 0.64628 15.0822 0.510649 14.9465C0.375018 14.8109 0.282452 14.5845 0.282452 14.2135V9.17947C0.282452 8.14305 0.621763 7.31033 1.29261 6.65761C1.96767 6.00079 2.79411 5.6716 3.79032 5.6716H8.82435H9.1068V5.38914V4.08622C9.1068 3.09242 9.44412 2.26685 10.1197 1.59126C10.7953 0.915671 11.6209 0.57835 12.6147 0.57835H17.7079C18.7017 0.57835 19.5273 0.915671 20.2029 1.59126C20.8785 2.26685 21.2158 3.09242 21.2158 4.08622V5.38914ZM18.9516 5.6716H19.2341V5.38914V4.08622C19.2341 3.66101 19.0893 3.29147 18.796 2.99814C18.5027 2.70481 18.1331 2.56007 17.7079 2.56007H12.6147C12.1895 2.56007 11.8199 2.70481 11.5266 2.99814C11.2333 3.29147 11.0885 3.66101 11.0885 4.08622V5.38914V5.6716H11.371H18.9516ZM3.50787 25.5845V25.8669H3.79032H26.5323H26.8147V25.5845V15.4572V15.1747H26.5323H18.9516H18.6692V15.4572V19.2475C18.6692 19.8848 18.4511 20.4146 18.0116 20.8541C17.5721 21.2936 17.0423 21.5117 16.405 21.5117H13.9176C13.2803 21.5117 12.7505 21.2936 12.311 20.8541C11.8715 20.4146 11.6534 19.8848 11.6534 19.2475V15.4572V15.1747H11.371H3.79032H3.50787V15.4572V25.5845ZM13.6351 19.2475V19.53H13.9176H16.405H16.6874V19.2475V15.4572V15.1747H16.405H13.9176H13.6351V15.4572V19.2475ZM27.776 13.2522H28.0584V12.9698V9.17947C28.0584 8.70482 27.9454 8.2964 27.6693 8.00725C27.391 7.71564 26.9938 7.59409 26.5323 7.59409H3.79032C3.32878 7.59409 2.93159 7.71564 2.65323 8.00725C2.37722 8.2964 2.26417 8.70482 2.26417 9.17947V12.9698V13.2522H2.54662H27.776Z" fill="#2F80ED" stroke="#372665" stroke-width="0.564904"/>
</g>
<defs>
<clipPath id="clip0">
<rect width="30.3226" height="29.375" fill="white"/>
</clipPath>
</defs>
</svg>
