<svg width="20" height="20" viewBox="0 0 20 20" fill="none" xmlns="http://www.w3.org/2000/svg">
<g opacity="0.84">
<path d="M10.0003 1.62497C5.40033 1.62497 1.66699 5.3583 1.66699 9.9583C1.66699 14.5583 5.40033 18.2916 10.0003 18.2916H14.167V16.625H10.0003C6.38366 16.625 3.33366 13.575 3.33366 9.9583C3.33366 6.34164 6.38366 3.29164 10.0003 3.29164C13.617 3.29164 16.667 6.34164 16.667 9.9583V11.15C16.667 11.8083 16.0753 12.4583 15.417 12.4583C14.7587 12.4583 14.167 11.8083 14.167 11.15V9.9583C14.167 7.6583 12.3003 5.79164 10.0003 5.79164C7.70033 5.79164 5.83366 7.6583 5.83366 9.9583C5.83366 12.2583 7.70033 14.125 10.0003 14.125C11.1503 14.125 12.2003 13.6583 12.9503 12.9C13.492 13.6416 14.4253 14.125 15.417 14.125C17.0587 14.125 18.3337 12.7916 18.3337 11.15V9.9583C18.3337 5.3583 14.6003 1.62497 10.0003 1.62497ZM10.0003 12.4583C8.61699 12.4583 7.50033 11.3416 7.50033 9.9583C7.50033 8.57497 8.61699 7.4583 10.0003 7.4583C11.3837 7.4583 12.5003 8.57497 12.5003 9.9583C12.5003 11.3416 11.3837 12.4583 10.0003 12.4583Z" fill="#372666"/>
</g>
</svg>
