<svg width="180" height="43" viewBox="0 0 180 43" fill="none" xmlns="http://www.w3.org/2000/svg">
<path d="M59.067 22.6286C57.5484 23.7598 55.7897 24.3254 53.7908 24.3254C51.6989 24.3254 50.0409 23.7908 48.8167 22.7216C47.6081 21.6369 47.0037 20.1029 47.0037 18.1195V13.2616C47.0037 11.2782 47.6081 9.75189 48.8167 8.6827C50.0409 7.61351 51.6756 7.07892 53.721 7.07892C55.627 7.07892 57.285 7.57477 58.6951 8.56649C58.9275 8.70594 58.9663 8.88414 58.8113 9.10108L57.347 11.3324C57.192 11.5494 56.9983 11.5881 56.7659 11.4486C55.8982 10.8908 54.9064 10.6119 53.7908 10.6119C52.83 10.6119 52.0863 10.8676 51.5594 11.3789C51.0481 11.8748 50.7924 12.5488 50.7924 13.4011V17.9568C50.7924 18.8555 51.0558 19.5528 51.5827 20.0486C52.1095 20.529 52.8533 20.7692 53.814 20.7692C55.0072 20.7692 56.0841 20.4438 57.0448 19.793C57.2773 19.6225 57.4632 19.6535 57.6027 19.8859L59.0902 22.1173C59.2452 22.3342 59.2374 22.5047 59.067 22.6286ZM73.6579 24H70.2412C70.0242 24 69.8693 23.907 69.7763 23.7211L66.5455 18.4449H65.0579V23.5816C65.0579 23.8605 64.9185 24 64.6396 24H61.7341C61.4552 24 61.3158 23.8605 61.3158 23.5816V7.79946C61.3158 7.52054 61.4552 7.38108 61.7341 7.38108H67.3823C69.3347 7.38108 70.8532 7.88468 71.9379 8.89189C73.0226 9.8836 73.565 11.2472 73.565 12.9827C73.565 14.1759 73.2783 15.1908 72.705 16.0276C72.1316 16.8643 71.3026 17.4841 70.2179 17.887L73.9368 23.5119C74.0143 23.6514 74.0221 23.7676 73.9601 23.8605C73.9136 23.9535 73.8129 24 73.6579 24ZM67.266 10.8211H65.0579V15.1908H67.266C68.1183 15.1908 68.7381 15.0204 69.1255 14.6795C69.5284 14.3231 69.7298 13.7652 69.7298 13.0059C69.7298 12.2622 69.5284 11.7121 69.1255 11.3557C68.7381 10.9993 68.1183 10.8211 67.266 10.8211ZM82.813 24H79.8612C79.5977 24 79.466 23.8605 79.466 23.5816V18.073L74.306 7.86919C74.2285 7.72973 74.2208 7.61351 74.2828 7.52054C74.3448 7.42757 74.4532 7.38108 74.6082 7.38108H77.8622C78.0792 7.38108 78.2341 7.48955 78.3271 7.70649L81.3487 14.5168L84.3471 7.70649C84.4246 7.48955 84.5795 7.38108 84.812 7.38108H88.066C88.221 7.38108 88.3217 7.42757 88.3682 7.52054C88.4302 7.61351 88.4302 7.72973 88.3682 7.86919L83.2082 18.0962V23.5816C83.2082 23.8605 83.0765 24 82.813 24ZM90.6061 7.38108H96.7655C98.594 7.38108 100.043 7.91567 101.112 8.98486C102.181 10.0386 102.716 11.4641 102.716 13.2616C102.716 15.0746 102.181 16.5157 101.112 17.5849C100.043 18.6386 98.594 19.1654 96.7655 19.1654H93.9299V23.5816C93.9299 23.8605 93.7981 24 93.5347 24H90.6061C90.3426 24 90.2109 23.8605 90.2109 23.5816V7.79946C90.2109 7.52054 90.3426 7.38108 90.6061 7.38108ZM93.9299 15.7022H96.2542C98.0052 15.7022 98.8807 14.8886 98.8807 13.2616C98.8807 11.6346 98.0052 10.8211 96.2542 10.8211H93.9299V15.7022ZM103.988 7.38108H116.214C116.477 7.38108 116.609 7.52054 116.609 7.79946V10.4492C116.609 10.7126 116.477 10.8443 116.214 10.8443H111.96V23.5816C111.96 23.8605 111.828 24 111.565 24H108.636C108.373 24 108.241 23.8605 108.241 23.5816V10.8443H103.988C103.709 10.8443 103.569 10.7126 103.569 10.4492V7.79946C103.569 7.52054 103.709 7.38108 103.988 7.38108ZM131.351 17.6778C131.351 19.7542 130.754 21.3735 129.561 22.5357C128.368 23.6978 126.702 24.2789 124.564 24.2789C122.441 24.2789 120.783 23.6978 119.589 22.5357C118.396 21.3735 117.8 19.7542 117.8 17.6778V13.6568C117.8 11.5959 118.396 9.98432 119.589 8.82216C120.783 7.66 122.441 7.07892 124.564 7.07892C126.702 7.07892 128.368 7.66 129.561 8.82216C130.754 9.96883 131.351 11.5804 131.351 13.6568V17.6778ZM121.612 17.6081C121.612 19.7 122.596 20.7459 124.564 20.7459C126.531 20.7459 127.515 19.7 127.515 17.6081V13.7265C127.515 11.6501 126.531 10.6119 124.564 10.6119C122.596 10.6119 121.612 11.6501 121.612 13.7265V17.6081ZM137.547 24H134.664C134.385 24 134.246 23.8605 134.246 23.5816V7.79946C134.246 7.52054 134.385 7.38108 134.664 7.38108H137.756C137.973 7.38108 138.128 7.47405 138.221 7.66L141.335 13.2151C142.559 15.555 143.388 17.213 143.822 18.1892L143.892 18.1659C143.721 15.9811 143.636 13.9124 143.636 11.96V7.79946C143.636 7.52054 143.776 7.38108 144.055 7.38108H146.937C147.2 7.38108 147.332 7.52054 147.332 7.79946V23.5816C147.332 23.8605 147.2 24 146.937 24H143.845C143.644 24 143.481 23.907 143.357 23.7211L140.336 18.7005C139.39 17.1045 138.492 15.2993 137.639 13.2849L137.57 13.3081C137.818 15.8184 137.942 18.0265 137.942 19.9324V23.5816C137.942 23.8605 137.81 24 137.547 24ZM162.16 24H150.259C149.98 24 149.841 23.8605 149.841 23.5816V21.7919C149.841 21.6214 149.895 21.4432 150.003 21.2573L157.279 10.8443H150.724C150.445 10.8443 150.306 10.7049 150.306 10.4259V7.79946C150.306 7.52054 150.445 7.38108 150.724 7.38108H161.927C162.206 7.38108 162.346 7.52054 162.346 7.79946V9.51946C162.346 9.7364 162.291 9.90685 162.183 10.0308L155.001 20.5368H162.16C162.423 20.5368 162.555 20.6685 162.555 20.9319V23.5816C162.555 23.8605 162.423 24 162.16 24ZM166.975 24H163.86C163.535 24 163.426 23.845 163.535 23.5351L168.927 7.70649C169.02 7.48955 169.167 7.38108 169.369 7.38108H172.902C173.119 7.38108 173.266 7.48955 173.343 7.70649L178.736 23.5351C178.86 23.845 178.751 24 178.411 24H175.319C175.071 24 174.909 23.8838 174.831 23.6514L173.971 20.8157H168.323L167.44 23.6514C167.378 23.8838 167.223 24 166.975 24ZM171.089 11.4486C171.011 11.6966 170.748 12.5876 170.299 14.1216C169.865 15.6402 169.524 16.7946 169.276 17.5849H173.018C172.972 17.4299 172.36 15.3845 171.182 11.4486H171.089Z" fill="white"/>
<path d="M54.5728 39.4161C53.9173 39.9251 53.1154 40.1796 52.1671 40.1796C51.3303 40.1796 50.64 39.953 50.0961 39.4997C49.5522 39.0465 49.2803 38.3841 49.2803 37.5124V35.1277C49.2803 34.2561 49.5522 33.5936 50.0961 33.1404C50.64 32.6802 51.3234 32.45 52.1462 32.45C52.969 32.45 53.7151 32.6836 54.3845 33.1508C54.4612 33.2066 54.4717 33.2763 54.4159 33.36L53.9243 34.0713C53.8755 34.1549 53.8023 34.1689 53.7046 34.1131C53.2514 33.7993 52.7319 33.6424 52.1462 33.6424C51.6441 33.6424 51.2502 33.7749 50.9643 34.0399C50.6853 34.3049 50.5459 34.6709 50.5459 35.1381V37.4811C50.5459 37.9552 50.6853 38.3248 50.9643 38.5898C51.2502 38.8547 51.6476 38.9872 52.1566 38.9872C52.8121 38.9872 53.3909 38.8059 53.8929 38.4433C53.9836 38.3806 54.0533 38.3945 54.1021 38.4852L54.5937 39.1964C54.6495 39.2871 54.6425 39.3603 54.5728 39.4161ZM61.0866 40.0541H59.9047C59.828 40.0541 59.7688 40.0192 59.7269 39.9495L57.8965 37.3242H56.9656V39.8972C56.9656 40.0018 56.9168 40.0541 56.8192 40.0541H55.8569C55.7593 40.0541 55.7105 40.0018 55.7105 39.8972V32.7325C55.7105 32.6279 55.7593 32.5756 55.8569 32.5756H58.2835C59.1412 32.5756 59.8071 32.7882 60.2813 33.2136C60.7624 33.632 61.003 34.2142 61.003 34.9603C61.003 35.5321 60.8496 36.0098 60.5428 36.3933C60.2429 36.7768 59.8176 37.0418 59.2667 37.1882L61.1808 39.8658C61.2575 39.9913 61.2261 40.0541 61.0866 40.0541ZM58.2835 33.7366H56.9656V36.1945H58.2835C58.7716 36.1945 59.1307 36.0969 59.3608 35.9017C59.5979 35.6995 59.7165 35.3892 59.7165 34.9708C59.7165 34.5454 59.5979 34.2351 59.3608 34.0399C59.1307 33.8377 58.7716 33.7366 58.2835 33.7366ZM64.9977 40.0541H64.0355C63.9309 40.0541 63.8786 40.0018 63.8786 39.8972V37.2928L61.4729 32.7638C61.445 32.715 61.4415 32.6732 61.4625 32.6383C61.4834 32.5965 61.5252 32.5756 61.588 32.5756H62.6862C62.7699 32.5756 62.8257 32.6139 62.8536 32.6906L64.5166 36.1318L66.1692 32.6906C66.1971 32.6139 66.2564 32.5756 66.347 32.5756H67.4453C67.501 32.5756 67.5394 32.5965 67.5603 32.6383C67.5812 32.6732 67.5777 32.715 67.5499 32.7638L65.1546 37.3137V39.8972C65.1546 40.0018 65.1023 40.0541 64.9977 40.0541ZM68.6146 32.5756H71.2608C72.0836 32.5756 72.7252 32.8022 73.1854 33.2554C73.6526 33.7087 73.8862 34.3328 73.8862 35.1277C73.8862 35.9365 73.6526 36.5676 73.1854 37.0208C72.7252 37.4671 72.0836 37.6902 71.2608 37.6902H69.7233V39.8972C69.7233 40.0018 69.6745 40.0541 69.5769 40.0541H68.6146C68.517 40.0541 68.4682 40.0018 68.4682 39.8972V32.7325C68.4682 32.6279 68.517 32.5756 68.6146 32.5756ZM69.7233 36.5188H71.1144C71.6234 36.5188 71.9965 36.4072 72.2336 36.1841C72.4776 35.954 72.5996 35.6018 72.5996 35.1277C72.5996 34.6535 72.4776 34.3049 72.2336 34.0817C71.9965 33.8586 71.6234 33.747 71.1144 33.747H69.7233V36.5188ZM74.5016 32.5756H79.9719C80.0764 32.5756 80.1287 32.6279 80.1287 32.7325V33.5901C80.1287 33.6878 80.0764 33.7366 79.9719 33.7366H77.8695V39.8972C77.8695 40.0018 77.8207 40.0541 77.7231 40.0541H76.7608C76.6632 40.0541 76.6144 40.0018 76.6144 39.8972V33.7366H74.5016C74.397 33.7366 74.3447 33.6878 74.3447 33.5901V32.7325C74.3447 32.6279 74.397 32.5756 74.5016 32.5756ZM86.6181 37.2719C86.6181 38.1853 86.3601 38.9001 85.8441 39.4161C85.3281 39.9251 84.6064 40.1796 83.679 40.1796C82.7516 40.1796 82.0299 39.9251 81.5139 39.4161C80.9979 38.9001 80.7399 38.1853 80.7399 37.2719V35.3473C80.7399 34.4339 80.9979 33.7226 81.5139 33.2136C82.0299 32.7046 82.7516 32.45 83.679 32.45C84.6064 32.45 85.3281 32.7046 85.8441 33.2136C86.3601 33.7226 86.6181 34.4339 86.6181 35.3473V37.2719ZM82.0264 37.2719C82.0264 37.8297 82.1659 38.2551 82.4448 38.5479C82.7237 38.8408 83.1351 38.9872 83.679 38.9872C84.2229 38.9872 84.6343 38.8408 84.9132 38.5479C85.1921 38.2551 85.3316 37.8297 85.3316 37.2719V35.3578C85.3316 34.2072 84.7807 33.632 83.679 33.632C82.5773 33.632 82.0264 34.2072 82.0264 35.3578V37.2719ZM90.6422 37.4915H88.0274C87.9228 37.4915 87.8705 37.4427 87.8705 37.3451V36.5292C87.8705 36.4246 87.9228 36.3723 88.0274 36.3723H90.6422C90.7468 36.3723 90.7991 36.4246 90.7991 36.5292V37.3451C90.7991 37.4427 90.7468 37.4915 90.6422 37.4915ZM90.9875 32.5756H96.4578C96.5624 32.5756 96.6146 32.6279 96.6146 32.7325V33.5901C96.6146 33.6878 96.5624 33.7366 96.4578 33.7366H94.3554V39.8972C94.3554 40.0018 94.3066 40.0541 94.209 40.0541H93.2467C93.1491 40.0541 93.1003 40.0018 93.1003 39.8972V33.7366H90.9875C90.8829 33.7366 90.8306 33.6878 90.8306 33.5901V32.7325C90.8306 32.6279 90.8829 32.5756 90.9875 32.5756ZM102.976 40.0541H101.794C101.717 40.0541 101.658 40.0192 101.616 39.9495L99.7854 37.3242H98.8545V39.8972C98.8545 40.0018 98.8057 40.0541 98.7081 40.0541H97.7458C97.6482 40.0541 97.5994 40.0018 97.5994 39.8972V32.7325C97.5994 32.6279 97.6482 32.5756 97.7458 32.5756H100.172C101.03 32.5756 101.696 32.7882 102.17 33.2136C102.651 33.632 102.892 34.2142 102.892 34.9603C102.892 35.5321 102.738 36.0098 102.432 36.3933C102.132 36.7768 101.706 37.0418 101.156 37.1882L103.07 39.8658C103.146 39.9913 103.115 40.0541 102.976 40.0541ZM100.172 33.7366H98.8545V36.1945H100.172C100.661 36.1945 101.02 36.0969 101.25 35.9017C101.487 35.6995 101.605 35.3892 101.605 34.9708C101.605 34.5454 101.487 34.2351 101.25 34.0399C101.02 33.8377 100.661 33.7366 100.172 33.7366ZM104.625 40.0541H103.6C103.482 40.0541 103.44 39.9948 103.475 39.8763L105.985 32.7011C106.02 32.6174 106.076 32.5756 106.152 32.5756H107.345C107.421 32.5756 107.477 32.6174 107.512 32.7011L110.022 39.8763C110.057 39.9948 110.015 40.0541 109.897 40.0541H108.872C108.774 40.0541 108.715 40.0122 108.694 39.9286L108.181 38.3492H105.316L104.803 39.9286C104.775 40.0122 104.716 40.0541 104.625 40.0541ZM106.728 33.9562L105.671 37.2091H107.826L106.769 33.9562H106.728ZM113.69 40.0541H111.096C110.998 40.0541 110.95 40.0018 110.95 39.8972V32.7325C110.95 32.6279 110.998 32.5756 111.096 32.5756H113.69C114.575 32.5756 115.266 32.8126 115.761 33.2868C116.263 33.754 116.514 34.4373 116.514 35.3369V37.3242C116.514 38.2097 116.263 38.8861 115.761 39.3533C115.266 39.8205 114.575 40.0541 113.69 40.0541ZM112.215 33.7366V38.8722H113.69C114.701 38.8722 115.207 38.3596 115.207 37.3346V35.3264C115.207 34.2665 114.701 33.7366 113.69 33.7366H112.215ZM119.242 32.7325V39.8972C119.242 40.0018 119.193 40.0541 119.096 40.0541H118.134C118.036 40.0541 117.987 40.0018 117.987 39.8972V32.7325C117.987 32.6279 118.036 32.5756 118.134 32.5756H119.096C119.193 32.5756 119.242 32.6279 119.242 32.7325ZM122.058 40.0541H121.106C121.008 40.0541 120.96 40.0018 120.96 39.8972V32.7325C120.96 32.6279 121.008 32.5756 121.106 32.5756H122.162C122.239 32.5756 122.302 32.6104 122.351 32.6802L124.39 36.2364C124.892 37.1289 125.241 37.76 125.436 38.1295L125.468 38.1191C125.405 37.2335 125.373 36.2887 125.373 35.2846V32.7325C125.373 32.6279 125.426 32.5756 125.53 32.5756H126.472C126.576 32.5756 126.629 32.6279 126.629 32.7325V39.8972C126.629 40.0018 126.576 40.0541 126.472 40.0541H125.415C125.339 40.0541 125.279 40.0192 125.237 39.9495L123.261 36.6757C122.849 36.0132 122.476 35.3264 122.141 34.6152L122.11 34.6256C122.173 35.7064 122.204 36.6652 122.204 37.502V39.8972C122.204 40.0018 122.155 40.0541 122.058 40.0541ZM133.679 39.0918C133.002 39.817 132.12 40.1796 131.033 40.1796C130.203 40.1796 129.509 39.9495 128.951 39.4893C128.393 39.0291 128.114 38.3666 128.114 37.502V35.1172C128.114 34.2456 128.383 33.5832 128.92 33.1299C129.464 32.6767 130.144 32.45 130.959 32.45C131.887 32.45 132.724 32.6836 133.47 33.1508C133.567 33.2136 133.585 33.2868 133.522 33.3705L132.999 34.0922C132.95 34.1689 132.88 34.1828 132.79 34.134C132.239 33.8063 131.625 33.6424 130.949 33.6424C130.475 33.6424 130.095 33.7714 129.809 34.0294C129.523 34.2805 129.38 34.6535 129.38 35.1486V37.4915C129.38 37.9866 129.533 38.3596 129.84 38.6107C130.154 38.8617 130.551 38.9872 131.033 38.9872C131.625 38.9872 132.113 38.8408 132.497 38.5479V36.9581H131.095C130.998 36.9581 130.949 36.9058 130.949 36.8012V35.9853C130.949 35.8808 130.998 35.8285 131.095 35.8285H133.585C133.682 35.8285 133.731 35.8808 133.731 35.9853V38.9245C133.731 39.0081 133.714 39.0639 133.679 39.0918Z" fill="#F2C94C"/>
<circle cx="1.93694" cy="19.5729" r="1.93694" fill="#F2C94C"/>
<circle cx="1.93694" cy="24.3766" r="1.93694" fill="#F2C94C"/>
<circle cx="7.20542" cy="21.8973" r="2.09189" fill="#F2C94C"/>
<circle cx="3.33159" cy="29.1802" r="1.93694" fill="#F2C94C"/>
<circle cx="8.44499" cy="26.5459" r="1.93694" fill="#F2C94C"/>
<circle cx="5.96577" cy="33.364" r="1.62703" fill="#F2C94C"/>
<circle cx="11.3892" cy="30.7297" r="1.62703" fill="#F2C94C"/>
<circle cx="9.99458" cy="36.618" r="1.62703" fill="#F2C94C"/>
<circle cx="15.728" cy="33.054" r="1.62703" fill="#F2C94C"/>
<circle cx="14.3334" cy="38.3225" r="1.31712" fill="#F2C94C"/>
<circle cx="19.2919" cy="38.7874" r="1.16216" fill="#F2C94C"/>
<circle cx="20.3765" cy="33.209" r="1.16216" fill="#F2C94C"/>
<circle cx="24.0955" cy="37.7027" r="1.16216" fill="#F2C94C"/>
<circle cx="28.4342" cy="35.5333" r="1.00721" fill="#F2C94C"/>
<circle cx="25.0253" cy="31.3496" r="1.00721" fill="#F2C94C"/>
<circle cx="31.6883" cy="32.2793" r="0.852252" fill="#F2C94C"/>
<circle cx="3.33159" cy="14.7693" r="1.93694" fill="#F2C94C"/>
<circle cx="8.13518" cy="17.2487" r="1.93694" fill="#F2C94C"/>
<circle cx="6.12077" cy="10.7405" r="1.93694" fill="#F2C94C"/>
<circle cx="9.83967" cy="7.64143" r="1.62703" fill="#F2C94C"/>
<circle cx="11.3892" cy="13.3748" r="1.62703" fill="#F2C94C"/>
<circle cx="14.4883" cy="5.78196" r="1.31712" fill="#F2C94C"/>
<circle cx="19.2919" cy="5.16216" r="1.16216" fill="#F2C94C"/>
<circle cx="15.5729" cy="11.2054" r="1.16216" fill="#F2C94C"/>
<circle cx="23.9406" cy="6.24683" r="1.00721" fill="#F2C94C"/>
<circle cx="20.5315" cy="11.0504" r="1.00721" fill="#F2C94C"/>
<circle cx="28.2793" cy="8.57125" r="0.852252" fill="#F2C94C"/>
<circle cx="24.8703" cy="12.9099" r="0.852252" fill="#F2C94C"/>
<circle cx="31.6883" cy="12.2901" r="0.542342" fill="#F2C94C"/>
</svg>
