<svg width="22" height="22" viewBox="0 0 22 22" fill="none" xmlns="http://www.w3.org/2000/svg">
<path d="M11 22C17.0751 22 22 17.0751 22 11C22 4.92487 17.0751 0 11 0C4.92487 0 0 4.92487 0 11C0 17.0751 4.92487 22 11 22Z" fill="white"/>
<path d="M14.8803 11.2858C15.2614 10.6275 15.8764 10.6275 16.2575 11.2858L18.6307 15.4519C19.0118 16.1102 18.7 16.6472 17.9378 16.6472H13.1567C12.4032 16.6472 12.0914 16.1102 12.4638 15.4519L14.8803 11.2858ZM10.2898 3.26531C10.6709 2.60704 11.2772 2.60704 11.6583 3.26531L12.1866 4.21806L13.4339 6.4094C13.737 7.03302 13.737 7.76924 13.4339 8.39287L9.25042 15.6425C8.86932 16.2314 8.23703 16.6039 7.53546 16.6472H4.06223C3.30003 16.6472 2.98821 16.1188 3.36932 15.4519L10.2898 3.26531Z" fill="#E84142"/>
</svg>
