<svg width="607" height="905" viewBox="0 0 607 905" fill="none" xmlns="http://www.w3.org/2000/svg">
<path opacity="0.2" d="M120.988 7.80436C125.132 4.07267 130.576 2.11978 136.147 2.36712C141.718 2.61447 146.968 5.04222 150.764 9.12645L395.673 275.445C396.084 275.883 396.579 276.234 397.13 276.475C397.68 276.716 398.274 276.843 398.875 276.848C399.476 276.853 400.071 276.736 400.626 276.504C401.18 276.272 401.682 275.93 402.1 275.498L402.191 275.413C402.984 274.598 403.436 273.511 403.454 272.374C403.472 271.236 403.055 270.135 402.287 269.296L299.068 156.612C296.658 153.872 295.418 150.295 295.616 146.651C295.813 143.007 297.432 139.585 300.124 137.12C302.815 134.656 306.366 133.345 310.014 133.469C313.661 133.593 317.115 135.142 319.633 137.784L533.193 370.396C538.006 375.662 537.562 387.834 532.936 393.076C523.971 399.51 522.834 410.473 514.993 418.15L503.597 405.719C502.835 407.461 501.713 409.022 500.305 410.299L488.687 420.938C485.953 423.422 482.349 424.725 478.659 424.562C474.969 424.4 471.494 422.785 468.99 420.07L119.597 37.894C117.7 35.8324 116.232 33.415 115.276 30.7819C114.32 28.1487 113.896 25.3521 114.028 22.554C114.161 19.7558 114.847 17.0117 116.047 14.4806C117.247 11.9494 118.937 9.6815 121.02 7.80811L120.988 7.80436Z" fill="url(#paint0_linear)"/>
<path opacity="0.2" d="M518.72 338.445L523.973 333.614C525.022 332.643 525.644 331.296 525.702 329.868C525.759 328.439 525.248 327.046 524.28 325.994L402.204 193.386C401.234 192.336 399.886 191.714 398.458 191.657C397.029 191.599 395.636 192.11 394.585 193.078L389.334 197.893C388.283 198.862 387.658 200.207 387.598 201.635C387.537 203.063 388.045 204.457 389.011 205.511L511.144 338.175C512.121 339.202 513.461 339.806 514.877 339.857C516.294 339.907 517.674 339.4 518.72 338.445Z" fill="url(#paint1_linear)"/>
<path d="M542.763 284.563C542.194 285.793 539.34 284.158 539.177 281.966C541.737 282.269 542.293 277.567 540.669 276.499C538.315 274.47 534.393 274.458 532.451 272.509C531.274 271.494 532.909 268.64 533.822 268.325C537.395 267.451 541.669 264.487 541.559 261.848C540.859 256.545 527.524 248.116 536.927 245.668C538.702 245.456 538.906 251.123 540.685 250.881C542.185 250.703 543.609 250.123 544.807 249.202C546.005 248.282 546.932 247.055 547.491 245.652L562.308 260.171C563.192 261.037 563.724 262.2 563.8 263.435C563.877 264.67 563.493 265.89 562.723 266.859L550.445 282.123C547.546 281.116 545.054 280.247 542.763 284.563Z" fill="#8D40A7"/>
<path d="M520.188 257.568L526.149 253.355C526.917 252.823 527.52 252.086 527.888 251.228C528.257 250.37 528.376 249.425 528.233 248.502L527.722 245.424C527.619 244.764 527.651 244.089 527.814 243.441C527.978 242.794 528.27 242.185 528.674 241.653C529.078 241.121 529.585 240.675 530.165 240.343C530.745 240.011 531.385 239.799 532.049 239.72L538.173 238.966C538.916 238.875 539.669 238.953 540.377 239.194C541.085 239.434 541.73 239.832 542.264 240.356L547.676 245.614C547.118 247.017 546.191 248.244 544.993 249.164C543.795 250.085 542.371 250.665 540.871 250.843C539.092 251.085 538.888 245.418 537.113 245.63C527.78 247.996 541.045 256.507 541.745 261.81C541.855 264.449 537.588 267.353 534.007 268.287C533.095 268.602 531.46 271.456 532.637 272.471C534.575 274.45 538.437 274.455 540.855 276.461C542.479 277.529 541.923 282.231 539.363 281.928C539.526 284.12 542.38 285.755 542.948 284.525C545.24 280.209 547.732 281.078 550.638 282.025L547.385 286.046C546.704 286.893 545.763 287.494 544.707 287.756C543.652 288.018 542.539 287.927 541.54 287.496L520.544 278.522C519.6 278.122 518.801 277.442 518.256 276.573C517.712 275.705 517.447 274.69 517.498 273.665L518.235 261.32C518.261 260.589 518.45 259.872 518.788 259.223C519.125 258.574 519.604 258.009 520.188 257.568Z" fill="#551C81"/>
<path d="M412.576 382.219C410.145 381.086 409.259 378.627 407.156 377.02C408.91 375.206 407.325 374.324 407.364 372.458C407.323 371.276 408.8 370.274 410.089 369.582C410.238 369.6 410.356 370.127 410.705 369.987C410.894 369.832 411.038 369.631 411.123 369.402C411.209 369.174 411.232 368.927 411.191 368.686C410.346 367.41 407.65 367.241 408.389 365.337C409.615 365.935 410.472 365.584 410.896 364.548L414.239 365.366C414.845 365.514 415.38 365.87 415.75 366.371C416.121 366.873 416.304 367.488 416.268 368.111L416.103 369.509C416.077 369.964 416.169 370.418 416.369 370.827C416.569 371.236 416.87 371.588 417.244 371.847L418.383 372.676C418.684 372.889 418.938 373.162 419.129 373.478C419.319 373.794 419.442 374.146 419.489 374.512C419.537 374.878 419.508 375.249 419.404 375.603C419.301 375.957 419.125 376.286 418.888 376.569L414.166 382.045C413.735 381.602 413.083 381.253 412.576 382.219Z" fill="#8D40A7"/>
<path d="M444.359 387.383L447.464 384.662C447.637 384.515 447.843 384.411 448.065 384.359C448.286 384.307 448.517 384.308 448.738 384.363L449.363 384.517C449.137 385.069 448.68 385.256 448.026 384.938C447.631 385.969 449.068 386.058 449.52 386.723C449.542 386.851 449.529 386.983 449.484 387.105C449.438 387.226 449.361 387.334 449.261 387.416C449.075 387.491 449.012 387.21 448.932 387.2C448.245 387.569 447.458 388.103 447.48 388.733C447.459 389.728 448.304 390.198 447.369 391.165C448.443 392.016 448.915 393.326 450.258 393.936C450.528 393.421 450.876 393.607 451.183 393.868L450.774 394.335C450.639 394.488 450.473 394.61 450.288 394.694C450.102 394.778 449.9 394.822 449.696 394.822C449.493 394.822 449.291 394.779 449.105 394.695C448.919 394.612 448.753 394.489 448.618 394.337L444.283 389.384C444.033 389.106 443.901 388.742 443.915 388.368C443.929 387.994 444.088 387.641 444.359 387.383Z" fill="#551C81"/>
<path d="M511.186 443.445C515.672 436.644 526.328 450.127 530.358 446.922C538.295 441.827 544.294 432.7 550.116 424.819C553.097 420.283 543.881 415.541 544.026 414.321C551.13 395.607 543.679 386.155 529.328 383.249C516.199 380.457 501.289 403.165 489.522 399.327C476.535 395.345 462.916 365.608 485.211 363.359C491.307 362.844 499.959 362.661 497.968 358.834C492.734 341.105 476.209 325.719 464.566 309.615C479.747 302.208 474.619 293.273 466.858 284.146C468.55 283.592 470.356 283.485 472.101 283.834C473.847 284.184 475.473 284.978 476.821 286.14L514.141 318.321C515.879 319.846 518.082 320.735 520.391 320.842L540.499 321.774C542.287 321.873 544.019 322.431 545.528 323.396L568.278 337.949C569.96 339.029 571.296 340.57 572.128 342.388L577.86 355.137C578.67 356.915 579.966 358.429 581.598 359.503C582.832 360.311 583.877 361.376 584.661 362.625C585.445 363.874 585.951 365.278 586.143 366.74L587.98 380.537C588.239 382.531 589.063 384.409 590.357 385.948L593.008 389.039C593.966 390.134 594.68 391.421 595.103 392.813C595.526 394.205 595.648 395.671 595.462 397.115L590.908 432.516C590.681 434.368 589.941 436.12 588.771 437.574L577.021 452.447C576.144 453.54 575.055 454.445 573.821 455.107C572.586 455.77 571.23 456.177 569.835 456.304L512.933 461.305C509.941 454.976 506.905 448.762 511.186 443.445Z" fill="#8D40A7"/>
<path d="M439.506 322.22C439.048 320.624 438.984 318.94 439.318 317.314C439.653 315.688 440.376 314.167 441.427 312.881L462.218 287.399C463.446 285.874 465.09 284.738 466.951 284.127C474.712 293.254 479.899 302.197 464.659 309.597C476.219 325.631 492.745 341.016 498.061 358.816C500.041 362.732 491.538 362.932 485.304 363.341C463.009 365.59 476.628 395.327 489.615 399.309C501.382 403.146 516.292 380.439 529.42 383.23C543.772 386.137 551.223 395.589 544.119 414.302C543.974 415.522 553.19 420.265 550.209 424.8C544.387 432.681 538.395 441.749 530.451 446.904C526.421 450.108 515.765 436.625 511.278 443.427C506.998 448.744 509.915 454.944 513.161 461.424L500.051 462.557C498.073 462.734 496.086 462.333 494.332 461.402C492.578 460.471 491.132 459.051 490.17 457.313L484.77 447.621C484.044 446.312 483.043 445.176 481.834 444.293C480.625 443.41 479.239 442.8 477.771 442.507L445.864 436.225C443.719 435.793 441.766 434.691 440.287 433.079C438.807 431.467 437.878 429.427 437.632 427.253L433.806 392.278C433.581 390.245 433.961 388.191 434.898 386.372L448.005 361.309C449.259 358.986 449.581 356.272 448.903 353.72L439.506 322.22Z" fill="#551C81"/>
<path d="M530.038 362.722C530.656 364.636 528.503 366.252 526.68 367.122L522.901 368.968C522.375 369.168 521.916 369.511 521.576 369.958C520.786 371.283 522.453 372.748 522.913 374.22C523.072 374.885 523.053 375.579 522.859 376.234C522.665 376.889 522.302 377.482 521.807 377.952C520.805 378.891 519.643 379.642 518.376 380.171L513.925 382.33C513.26 382.739 512.492 382.952 511.71 382.943C510.684 382.64 509.806 381.966 509.248 381.052C507.557 378.77 505.87 376.457 504.241 374.152C503.235 372.938 502.536 371.499 502.203 369.958C502.249 368.471 502.626 367.013 503.304 365.69C503.983 364.366 504.947 363.21 506.127 362.305C507.547 360.741 509.052 359.257 510.637 357.86C516.351 352.924 527.414 354.294 530.038 362.722Z" fill="#551C81"/>
<path d="M587.898 424.555C586.968 426.837 585.698 428.966 584.132 430.869L573.408 444.989C571.841 447.006 569.889 449.22 567.467 449.536C563.575 450.041 560.529 445.697 560.759 441.711C561.38 437.836 562.848 434.147 565.057 430.904C565.563 430.208 565.918 429.414 566.101 428.573C566.283 427.733 566.289 426.863 566.118 426.02C565.43 424.699 564.451 423.552 563.256 422.663C558.655 418.196 559.202 410.777 560.223 404.44C560.294 403.722 560.52 403.027 560.887 402.406C564.776 396.831 577.657 395.339 582.3 399.962C586.943 404.586 590.194 418.158 587.898 424.555Z" fill="#551C81"/>
<path d="M500.668 323.547C501.013 325.218 499.342 326.589 497.759 327.216C497.518 327.335 497.252 327.397 496.983 327.396C496.633 327.306 496.319 327.111 496.084 326.837C493.211 324.083 486.227 320.117 488.333 315.84C489.068 314.632 490.154 313.677 491.446 313.102C492.738 312.527 494.174 312.36 495.564 312.622C497.587 312.862 500.141 313.979 500.037 316.381C499.851 317.958 497.83 318.715 497.89 319.989C497.95 321.264 500.383 322.125 500.668 323.547Z" fill="#551C81"/>
<g filter="url(#filter0_f)">
<path d="M44.2104 468.255C56.2326 456.688 311.633 689.124 368.823 748.449C371.91 751.642 374.914 754.843 377.887 758.025L331.773 796.883C329.631 794.713 327.487 792.516 325.34 790.291C268.164 730.984 32.2062 479.807 44.2104 468.255Z" fill="url(#paint2_linear)"/>
</g>
<g filter="url(#filter1_f)">
<path d="M195.078 345.069C200.488 339.863 315.422 444.464 341.159 471.161C342.548 472.598 343.9 474.039 345.238 475.471L324.486 492.957C323.522 491.981 322.557 490.992 321.591 489.991C295.861 463.302 189.675 350.268 195.078 345.069Z" fill="url(#paint3_linear)"/>
</g>
<g filter="url(#filter2_f)">
<path d="M16.2671 590.806C21.6773 585.601 136.612 690.201 162.348 716.898C163.738 718.335 165.089 719.776 166.427 721.208L145.675 738.695C144.711 737.718 143.746 736.729 142.78 735.728C117.05 709.039 10.865 596.005 16.2671 590.806Z" fill="url(#paint4_linear)"/>
</g>
<g filter="url(#filter3_f)">
<path d="M328.885 658.706L387.777 786.833L358.226 811.859L168.163 765.319L304.942 601.341L328.885 658.706Z" fill="url(#paint5_linear)"/>
</g>
<g filter="url(#filter4_f)">
<path d="M323.186 430.774L349.688 488.433L336.39 499.695L250.858 478.752L312.411 404.959L323.186 430.774Z" fill="url(#paint6_linear)"/>
</g>
<g filter="url(#filter5_f)">
<path d="M144.376 676.511L170.878 734.171L157.58 745.433L72.048 724.489L133.601 650.696L144.376 676.511Z" fill="url(#paint7_linear)"/>
</g>
<path d="M384.269 778.885C384.269 778.885 380.47 733.84 323.896 699.244C323.896 699.244 349.015 729.018 355.661 753.713C355.661 753.713 326.08 702.431 271.651 675.107C271.651 675.107 326.549 723.631 331.267 742.865L314.02 731.321C314.02 731.321 316.824 746.624 325.89 754.837C325.89 754.837 242.181 674.832 233.975 656.668C233.975 656.668 267.946 739.421 312.909 771.155C312.909 771.155 279.126 755.561 268.888 738.183C268.888 738.183 298.116 789.053 341.079 803.987C347.817 806.289 355.066 807.903 362.157 806.774C372.591 805.054 384.962 798.3 384.269 778.885Z" fill="url(#paint8_linear)"/>
<path d="M348.11 484.857C348.11 484.857 346.4 464.586 320.941 449.018C320.941 449.018 332.245 462.416 335.236 473.53C335.236 473.53 321.924 450.452 297.43 438.156C297.43 438.156 322.135 459.992 324.258 468.648L316.496 463.453C316.496 463.453 317.758 470.339 321.838 474.035C321.838 474.035 284.168 438.032 280.475 429.857C280.475 429.857 295.762 467.098 315.997 481.379C315.997 481.379 300.794 474.361 296.186 466.541C296.186 466.541 309.339 489.433 328.674 496.154C331.706 497.19 334.968 497.916 338.159 497.408C342.854 496.634 348.422 493.595 348.11 484.857Z" fill="url(#paint9_linear)"/>
<path d="M169.299 730.595C169.299 730.595 167.59 710.324 142.13 694.755C142.13 694.755 153.434 708.153 156.425 719.267C156.425 719.267 143.113 696.189 118.619 683.893C118.619 683.893 143.324 705.729 145.448 714.385L137.686 709.19C137.686 709.19 138.948 716.077 143.028 719.773C143.028 719.773 105.357 683.769 101.664 675.595C101.664 675.595 116.952 712.835 137.186 727.116C137.186 727.116 121.983 720.098 117.376 712.278C117.376 712.278 130.529 735.171 149.863 741.891C152.895 742.927 156.158 743.653 159.349 743.145C164.044 742.371 169.611 739.332 169.299 730.595Z" fill="url(#paint10_linear)"/>
<path d="M338.637 789.344C342.687 788.41 332.9 780.849 335.614 779.801C345.157 776.778 352.266 798.595 359.446 792.696C366.627 786.797 350.524 775.973 346.182 766.318C345.732 764.855 345.827 763.279 346.45 761.882C347.073 760.484 348.182 759.36 349.57 758.717C362.969 756.071 369.61 769.927 379.708 774.808C381.538 769.716 372.748 764.88 378.242 762.79C379.017 762.278 379.921 761.996 380.85 761.978C383.804 765.8 385.821 770.262 386.738 775.005C387.655 779.748 387.448 784.639 386.132 789.287C384.815 793.935 382.428 798.21 379.16 801.768C375.892 805.325 371.836 808.067 367.317 809.773C362.797 811.479 357.941 812.101 353.137 811.59C348.334 811.079 343.717 809.448 339.658 806.829C335.599 804.21 332.21 800.676 329.765 796.51C327.32 792.344 325.885 787.662 325.577 782.842C330.833 783.34 335.432 791.05 338.637 789.344Z" fill="#FC3467"/>
<path d="M327.575 489.564C329.397 489.144 324.993 485.741 326.214 485.27C330.509 483.909 333.708 493.728 336.939 491.073C340.17 488.418 332.924 483.547 330.97 479.202C330.767 478.544 330.81 477.835 331.091 477.206C331.371 476.577 331.87 476.071 332.495 475.782C338.524 474.591 341.513 480.826 346.057 483.023C346.881 480.731 342.925 478.555 345.397 477.615C345.746 477.384 346.153 477.257 346.571 477.249C347.901 478.969 348.808 480.977 349.221 483.111C349.634 485.246 349.54 487.447 348.948 489.539C348.356 491.63 347.281 493.554 345.811 495.155C344.34 496.756 342.515 497.99 340.481 498.758C338.447 499.525 336.262 499.806 334.1 499.575C331.938 499.345 329.861 498.612 328.034 497.433C326.207 496.254 324.683 494.664 323.582 492.789C322.481 490.914 321.836 488.808 321.697 486.638C324.063 486.862 326.132 490.332 327.575 489.564Z" fill="#FC3467"/>
<path d="M148.764 735.301C150.587 734.88 146.182 731.478 147.404 731.006C151.698 729.646 154.898 739.464 158.129 736.809C161.36 734.155 154.114 729.284 152.159 724.938C151.957 724.28 152 723.571 152.28 722.942C152.561 722.313 153.06 721.807 153.684 721.518C159.714 720.327 162.703 726.562 167.247 728.759C168.07 726.467 164.115 724.291 166.587 723.351C166.936 723.12 167.343 722.994 167.761 722.986C169.09 724.706 169.998 726.713 170.411 728.848C170.823 730.982 170.73 733.183 170.138 735.275C169.545 737.367 168.471 739.29 167 740.891C165.53 742.493 163.704 743.726 161.671 744.494C159.637 745.262 157.451 745.542 155.29 745.312C153.128 745.082 151.05 744.348 149.224 743.169C147.397 741.991 145.872 740.4 144.772 738.525C143.671 736.651 143.026 734.544 142.887 732.374C145.252 732.599 147.322 736.068 148.764 735.301Z" fill="#FC3467"/>
<path d="M359.436 750.223C363.621 750.63 367.679 751.889 371.361 753.922C375.042 755.954 378.269 758.718 380.844 762.043C379.915 762.061 379.01 762.343 378.235 762.855C372.742 764.945 381.534 769.748 379.702 774.873C369.61 769.926 363.034 756.077 349.564 758.782C348.175 759.424 347.067 760.549 346.444 761.946C345.821 763.344 345.725 764.92 346.175 766.382C350.518 776.038 366.637 786.864 359.44 792.761C352.244 798.658 345.15 776.843 335.608 779.866C332.861 780.911 342.681 788.475 338.631 789.409C335.425 791.115 330.827 783.405 325.569 782.923C325.464 781.283 325.494 779.639 325.657 778.004C326.046 773.96 327.23 770.033 329.139 766.447C331.048 762.862 333.646 759.688 336.784 757.107C339.921 754.527 343.537 752.59 347.424 751.409C351.311 750.228 355.393 749.825 359.436 750.223Z" fill="#FFBF44"/>
<path d="M336.934 471.959C338.818 472.142 340.644 472.709 342.301 473.624C343.957 474.538 345.41 475.782 346.568 477.278C346.15 477.286 345.743 477.413 345.394 477.644C342.922 478.584 346.879 480.745 346.055 483.052C341.513 480.826 338.554 474.594 332.492 475.811C331.867 476.1 331.368 476.606 331.088 477.235C330.807 477.864 330.764 478.573 330.967 479.231C332.921 483.576 340.175 488.448 336.936 491.102C333.698 493.756 330.506 483.938 326.211 485.299C324.975 485.769 329.394 489.173 327.572 489.593C326.129 490.361 324.06 486.891 321.694 486.674C321.647 485.937 321.66 485.196 321.733 484.461C321.909 482.641 322.441 480.874 323.3 479.26C324.16 477.647 325.329 476.218 326.741 475.057C328.153 473.896 329.78 473.024 331.529 472.493C333.278 471.961 335.115 471.78 336.934 471.959Z" fill="#FFBF44"/>
<path d="M158.124 717.696C160.007 717.88 161.834 718.446 163.49 719.361C165.147 720.276 166.599 721.519 167.758 723.015C167.34 723.024 166.933 723.15 166.584 723.381C164.112 724.321 168.069 726.483 167.244 728.789C162.702 726.563 159.743 720.331 153.682 721.548C153.057 721.837 152.558 722.343 152.277 722.972C151.997 723.601 151.954 724.31 152.156 724.968C154.111 729.313 161.364 734.185 158.126 736.839C154.887 739.493 151.695 729.676 147.401 731.036C146.165 731.506 150.584 734.91 148.761 735.33C147.319 736.098 145.249 732.629 142.883 732.412C142.836 731.674 142.85 730.934 142.923 730.198C143.098 728.378 143.631 726.611 144.49 724.998C145.349 723.384 146.518 721.956 147.93 720.794C149.342 719.633 150.969 718.762 152.718 718.23C154.468 717.698 156.305 717.517 158.124 717.696Z" fill="#FFBF44"/>
<path d="M323.896 740.647C323.855 741.031 323.93 741.418 324.11 741.76C324.29 742.101 324.568 742.381 324.907 742.565C325.247 742.748 325.634 742.826 326.018 742.789C326.402 742.751 326.767 742.601 327.065 742.356C327.364 742.111 327.582 741.782 327.693 741.412C327.805 741.043 327.803 740.648 327.689 740.279C327.575 739.91 327.354 739.584 327.054 739.341C326.754 739.098 326.389 738.95 326.004 738.915C325.495 738.865 324.987 739.02 324.592 739.345C324.196 739.669 323.946 740.138 323.896 740.647Z" fill="#FFBF44"/>
<path d="M320.941 467.65C320.923 467.823 320.956 467.997 321.037 468.151C321.118 468.305 321.243 468.431 321.396 468.513C321.549 468.596 321.723 468.631 321.896 468.614C322.069 468.597 322.233 468.53 322.367 468.419C322.501 468.309 322.6 468.161 322.65 467.995C322.7 467.828 322.699 467.651 322.648 467.485C322.597 467.319 322.497 467.172 322.362 467.062C322.227 466.953 322.063 466.886 321.889 466.871C321.66 466.849 321.432 466.918 321.254 467.064C321.076 467.21 320.963 467.421 320.941 467.65Z" fill="#FFBF44"/>
<path d="M142.131 713.388C142.112 713.56 142.146 713.735 142.227 713.888C142.308 714.042 142.433 714.168 142.586 714.251C142.739 714.333 142.913 714.368 143.086 714.351C143.258 714.335 143.423 714.267 143.557 714.157C143.691 714.046 143.789 713.898 143.839 713.732C143.889 713.566 143.889 713.388 143.838 713.222C143.786 713.056 143.687 712.909 143.552 712.8C143.417 712.69 143.252 712.624 143.079 712.608C142.85 712.586 142.621 712.655 142.444 712.801C142.266 712.948 142.153 713.158 142.131 713.388Z" fill="#FFBF44"/>
<path d="M326.926 758.337C324.698 758.118 323.069 756.135 323.287 753.907C323.505 751.679 325.488 750.05 327.717 750.268C329.945 750.486 331.574 752.469 331.356 754.697C331.137 756.926 329.154 758.555 326.926 758.337Z" fill="#FFBF44"/>
<path d="M322.304 475.61C321.302 475.512 320.569 474.62 320.667 473.617C320.765 472.614 321.657 471.881 322.66 471.979C323.663 472.078 324.396 472.97 324.298 473.973C324.2 474.975 323.307 475.709 322.304 475.61Z" fill="#FFBF44"/>
<path d="M143.494 721.347C142.491 721.249 141.758 720.356 141.856 719.353C141.955 718.351 142.847 717.617 143.85 717.716C144.852 717.814 145.586 718.706 145.487 719.709C145.389 720.712 144.497 721.445 143.494 721.347Z" fill="#FFBF44"/>
<path d="M330.626 772.037C327.967 771.776 326.022 769.409 326.283 766.75C326.543 764.09 328.91 762.146 331.57 762.406C334.229 762.667 336.174 765.034 335.913 767.693C335.653 770.353 333.286 772.297 330.626 772.037Z" fill="#FFBF44"/>
<path d="M323.97 481.776C322.773 481.659 321.898 480.593 322.015 479.397C322.132 478.2 323.197 477.325 324.394 477.442C325.591 477.559 326.466 478.624 326.349 479.821C326.232 481.018 325.166 481.893 323.97 481.776Z" fill="#FFBF44"/>
<path d="M145.159 727.513C143.962 727.396 143.087 726.331 143.204 725.134C143.322 723.937 144.387 723.062 145.584 723.179C146.78 723.297 147.656 724.362 147.538 725.559C147.421 726.755 146.356 727.63 145.159 727.513Z" fill="#FFBF44"/>
<defs>
<filter id="filter0_f" x="8.19083" y="461.127" width="401.234" height="346.399" filterUnits="userSpaceOnUse" color-interpolation-filters="sRGB">
<feFlood flood-opacity="0" result="BackgroundImageFix"/>
<feBlend mode="normal" in="SourceGraphic" in2="BackgroundImageFix" result="shape"/>
<feGaussianBlur stdDeviation="3.26912" result="effect1_foregroundBlur"/>
</filter>
<filter id="filter1_f" x="178.868" y="341.861" width="180.562" height="155.886" filterUnits="userSpaceOnUse" color-interpolation-filters="sRGB">
<feFlood flood-opacity="0" result="BackgroundImageFix"/>
<feBlend mode="normal" in="SourceGraphic" in2="BackgroundImageFix" result="shape"/>
<feGaussianBlur stdDeviation="1.47116" result="effect1_foregroundBlur"/>
</filter>
<filter id="filter2_f" x="0.0576804" y="587.599" width="180.562" height="155.886" filterUnits="userSpaceOnUse" color-interpolation-filters="sRGB">
<feFlood flood-opacity="0" result="BackgroundImageFix"/>
<feBlend mode="normal" in="SourceGraphic" in2="BackgroundImageFix" result="shape"/>
<feGaussianBlur stdDeviation="1.47116" result="effect1_foregroundBlur"/>
</filter>
<filter id="filter3_f" x="75.5529" y="499.727" width="419.336" height="404.662" filterUnits="userSpaceOnUse" color-interpolation-filters="sRGB">
<feFlood flood-opacity="0" result="BackgroundImageFix"/>
<feBlend mode="normal" in="SourceGraphic" in2="BackgroundImageFix" result="shape"/>
<feGaussianBlur stdDeviation="44.9504" result="effect1_foregroundBlur"/>
</filter>
<filter id="filter4_f" x="209.182" y="359.231" width="188.709" height="182.105" filterUnits="userSpaceOnUse" color-interpolation-filters="sRGB">
<feFlood flood-opacity="0" result="BackgroundImageFix"/>
<feBlend mode="normal" in="SourceGraphic" in2="BackgroundImageFix" result="shape"/>
<feGaussianBlur stdDeviation="20.2284" result="effect1_foregroundBlur"/>
</filter>
<filter id="filter5_f" x="30.3719" y="604.968" width="188.709" height="182.105" filterUnits="userSpaceOnUse" color-interpolation-filters="sRGB">
<feFlood flood-opacity="0" result="BackgroundImageFix"/>
<feBlend mode="normal" in="SourceGraphic" in2="BackgroundImageFix" result="shape"/>
<feGaussianBlur stdDeviation="20.2284" result="effect1_foregroundBlur"/>
</filter>
<linearGradient id="paint0_linear" x1="625.428" y1="517.036" x2="201.989" y2="93.804" gradientUnits="userSpaceOnUse">
<stop offset="0.01" stop-color="#F81F95" stop-opacity="0"/>
<stop offset="0.16" stop-color="#EC3CA3"/>
<stop offset="1" stop-color="#CE86C6" stop-opacity="0"/>
</linearGradient>
<linearGradient id="paint1_linear" x1="561.812" y1="377.931" x2="381.054" y2="210.945" gradientUnits="userSpaceOnUse">
<stop offset="0.01" stop-color="#F81F95" stop-opacity="0"/>
<stop offset="0.16" stop-color="#EC3CA3"/>
<stop offset="1" stop-color="#CE86C6" stop-opacity="0"/>
</linearGradient>
<linearGradient id="paint2_linear" x1="438.34" y1="864.691" x2="38.4995" y2="447.083" gradientUnits="userSpaceOnUse">
<stop offset="0.3" stop-color="#FC3467"/>
<stop offset="0.32" stop-color="#FC3966"/>
<stop offset="0.48" stop-color="#FD695A"/>
<stop offset="0.63" stop-color="#FE8E50"/>
<stop offset="0.78" stop-color="#FFA94A"/>
<stop offset="0.9" stop-color="#FFB945"/>
<stop offset="1" stop-color="#FFBF44"/>
</linearGradient>
<linearGradient id="paint3_linear" x1="372.442" y1="523.472" x2="192.507" y2="335.541" gradientUnits="userSpaceOnUse">
<stop offset="0.3" stop-color="#FC3467"/>
<stop offset="0.32" stop-color="#FC3966"/>
<stop offset="0.48" stop-color="#FD695A"/>
<stop offset="0.63" stop-color="#FE8E50"/>
<stop offset="0.78" stop-color="#FFA94A"/>
<stop offset="0.9" stop-color="#FFB945"/>
<stop offset="1" stop-color="#FFBF44"/>
</linearGradient>
<linearGradient id="paint4_linear" x1="193.632" y1="769.209" x2="13.6971" y2="581.279" gradientUnits="userSpaceOnUse">
<stop offset="0.3" stop-color="#FC3467"/>
<stop offset="0.32" stop-color="#FC3966"/>
<stop offset="0.48" stop-color="#FD695A"/>
<stop offset="0.63" stop-color="#FE8E50"/>
<stop offset="0.78" stop-color="#FFA94A"/>
<stop offset="0.9" stop-color="#FFB945"/>
<stop offset="1" stop-color="#FFBF44"/>
</linearGradient>
<linearGradient id="paint5_linear" x1="376.821" y1="798.078" x2="117.159" y2="556.667" gradientUnits="userSpaceOnUse">
<stop stop-color="#FFBF45"/>
<stop offset="1" stop-color="#FFBF45" stop-opacity="0"/>
</linearGradient>
<linearGradient id="paint6_linear" x1="344.758" y1="493.494" x2="227.906" y2="384.855" gradientUnits="userSpaceOnUse">
<stop stop-color="#FFBF45"/>
<stop offset="1" stop-color="#FFBF45" stop-opacity="0"/>
</linearGradient>
<linearGradient id="paint7_linear" x1="165.948" y1="739.231" x2="49.0955" y2="630.592" gradientUnits="userSpaceOnUse">
<stop stop-color="#FFBF45"/>
<stop offset="1" stop-color="#FFBF45" stop-opacity="0"/>
</linearGradient>
<linearGradient id="paint8_linear" x1="-27886.3" y1="71577.9" x2="-42741.7" y2="52192.9" gradientUnits="userSpaceOnUse">
<stop offset="0.3" stop-color="#FC3467"/>
<stop offset="0.32" stop-color="#FC3966"/>
<stop offset="0.48" stop-color="#FD695A"/>
<stop offset="0.63" stop-color="#FE8E50"/>
<stop offset="0.78" stop-color="#FFA94A"/>
<stop offset="0.9" stop-color="#FFB945"/>
<stop offset="1" stop-color="#FFBF44"/>
</linearGradient>
<linearGradient id="paint9_linear" x1="-12374.1" y1="32345.6" x2="-19059.3" y2="23622.1" gradientUnits="userSpaceOnUse">
<stop offset="0.3" stop-color="#FC3467"/>
<stop offset="0.32" stop-color="#FC3966"/>
<stop offset="0.48" stop-color="#FD695A"/>
<stop offset="0.63" stop-color="#FE8E50"/>
<stop offset="0.78" stop-color="#FFA94A"/>
<stop offset="0.9" stop-color="#FFB945"/>
<stop offset="1" stop-color="#FFBF44"/>
</linearGradient>
<linearGradient id="paint10_linear" x1="-12552.9" y1="32591.4" x2="-19238.1" y2="23867.8" gradientUnits="userSpaceOnUse">
<stop offset="0.3" stop-color="#FC3467"/>
<stop offset="0.32" stop-color="#FC3966"/>
<stop offset="0.48" stop-color="#FD695A"/>
<stop offset="0.63" stop-color="#FE8E50"/>
<stop offset="0.78" stop-color="#FFA94A"/>
<stop offset="0.9" stop-color="#FFB945"/>
<stop offset="1" stop-color="#FFBF44"/>
</linearGradient>
</defs>
</svg>
