<svg width="1090" height="452" viewBox="0 0 1090 452" fill="none" xmlns="http://www.w3.org/2000/svg">
<path d="M188.517 17.8173C198.187 7.11043 211.939 1 226.366 1H861.34C875.66 1 889.321 7.02035 898.983 17.5896L1058.04 191.59C1075.85 211.073 1075.85 240.927 1058.04 260.41L898.983 434.41C889.321 444.98 875.66 451 861.341 451H226.366C211.939 451 198.187 444.89 188.517 434.183L31.3716 260.183C13.8369 240.767 13.8369 211.233 31.3716 191.817L188.517 17.8173Z" stroke="url(#paint0_linear)" stroke-width="2"/>
<mask id="mask0" mask-type="alpha" maskUnits="userSpaceOnUse" x="107" y="31" width="877" height="370">
<path d="M249.562 44.7155C259.005 35.9018 271.442 31 284.359 31H803.448C816.283 31 828.646 35.8394 838.07 44.5525L966.859 163.624C987.223 182.451 988.809 214.101 970.429 234.87L838.634 383.799C828.954 394.737 815.049 401 800.442 401H287.704C272.822 401 258.682 394.499 248.993 383.203L119.838 232.62C102.042 211.872 103.769 180.783 123.752 162.133L249.562 44.7155Z" fill="url(#paint1_linear)"/>
</mask>
<g mask="url(#mask0)">
<path d="M874.658 420.5L994 186" stroke="white" stroke-opacity="0.67" stroke-width="1.5"/>
<path d="M884.8 420.5L1004.14 186" stroke="white" stroke-opacity="0.67" stroke-width="1.5"/>
<path d="M894.941 420.5L1014.28 186" stroke="white" stroke-opacity="0.67" stroke-width="1.5"/>
<path d="M905.083 420.5L1024.42 186" stroke="white" stroke-opacity="0.67" stroke-width="1.5"/>
<path d="M915.224 420.5L1034.57 186" stroke="white" stroke-opacity="0.67" stroke-width="1.5"/>
<path d="M925.366 420.5L1044.71 186" stroke="white" stroke-opacity="0.67" stroke-width="1.5"/>
<path d="M935.507 420.5L1054.85 186" stroke="white" stroke-opacity="0.67" stroke-width="1.5"/>
<path d="M945.649 420.5L1064.99 186" stroke="white" stroke-opacity="0.67" stroke-width="1.5"/>
<path d="M955.79 420.5L1075.13 186" stroke="white" stroke-opacity="0.67" stroke-width="1.5"/>
<path d="M865.895 420.5L985.237 186" stroke="white" stroke-opacity="0.67" stroke-width="1.5"/>
<path d="M857.132 420.5L976.474 186" stroke="white" stroke-opacity="0.67" stroke-width="1.5"/>
<path d="M848.369 420.5L967.711 186" stroke="white" stroke-opacity="0.67" stroke-width="1.5"/>
<path d="M839.607 420.5L958.948 186" stroke="white" stroke-opacity="0.67" stroke-width="1.5"/>
<path d="M830.844 420.5L950.186 186" stroke="white" stroke-opacity="0.67" stroke-width="1.5"/>
<path d="M822.081 420.5L941.423 186" stroke="white" stroke-opacity="0.67" stroke-width="1.5"/>
<path d="M813.318 420.5L932.66 186" stroke="white" stroke-opacity="0.67" stroke-width="1.5"/>
<path d="M804.555 420.5L923.897 186" stroke="white" stroke-opacity="0.67" stroke-width="1.5"/>
<path d="M795.792 420.5L915.134 186" stroke="white" stroke-opacity="0.67" stroke-width="1.5"/>
<path d="M787.029 420.5L906.371 186" stroke="white" stroke-opacity="0.67" stroke-width="1.5"/>
<path d="M778.266 420.5L897.608 186" stroke="white" stroke-opacity="0.67" stroke-width="1.5"/>
<path d="M769.504 420.5L888.846 186" stroke="white" stroke-opacity="0.67" stroke-width="1.5"/>
<path d="M760.741 420.5L880.083 186" stroke="white" stroke-opacity="0.67" stroke-width="1.5"/>
<path d="M751.978 420.5L871.32 186" stroke="white" stroke-opacity="0.67" stroke-width="1.5"/>
<path d="M743.215 420.5L862.557 186" stroke="white" stroke-opacity="0.67" stroke-width="1.5"/>
<path d="M734.452 420.5L853.794 186" stroke="white" stroke-opacity="0.67" stroke-width="1.5"/>
<path d="M725.689 420.5L845.031 186" stroke="white" stroke-opacity="0.67" stroke-width="1.5"/>
<path d="M716.926 420.5L836.268 186" stroke="white" stroke-opacity="0.67" stroke-width="1.5"/>
<path d="M708.164 420.5L827.505 186" stroke="white" stroke-opacity="0.67" stroke-width="1.5"/>
<path d="M699.401 420.5L818.743 186" stroke="white" stroke-opacity="0.67" stroke-width="1.5"/>
<path d="M690.638 420.5L809.98 186" stroke="white" stroke-opacity="0.67" stroke-width="1.5"/>
<path d="M681.875 420.5L801.217 186" stroke="white" stroke-opacity="0.67" stroke-width="1.5"/>
<path d="M673.112 420.5L792.454 186" stroke="white" stroke-opacity="0.67" stroke-width="1.5"/>
<path d="M664.349 420.5L783.691 186" stroke="white" stroke-opacity="0.67" stroke-width="1.5"/>
<path d="M655.586 420.5L774.928 186" stroke="white" stroke-opacity="0.67" stroke-width="1.5"/>
<path d="M646.823 420.5L766.165 186" stroke="white" stroke-opacity="0.67" stroke-width="1.5"/>
<path d="M638.061 420.5L757.403 186" stroke="white" stroke-opacity="0.67" stroke-width="1.5"/>
<path d="M629.298 420.5L748.64 186" stroke="white" stroke-opacity="0.67" stroke-width="1.5"/>
<path d="M620.535 420.5L739.877 186" stroke="white" stroke-opacity="0.67" stroke-width="1.5"/>
<path d="M611.772 420.5L731.114 186" stroke="white" stroke-opacity="0.67" stroke-width="1.5"/>
<path d="M603.009 420.5L722.351 186" stroke="white" stroke-opacity="0.67" stroke-width="1.5"/>
<path d="M594.246 420.5L713.588 186" stroke="white" stroke-opacity="0.67" stroke-width="1.5"/>
<path d="M585.483 420.5L704.825 186" stroke="white" stroke-opacity="0.67" stroke-width="1.5"/>
<path d="M576.721 420.5L696.062 186" stroke="white" stroke-opacity="0.67" stroke-width="1.5"/>
<path d="M567.958 420.5L687.3 186" stroke="white" stroke-opacity="0.67" stroke-width="1.5"/>
<path d="M559.195 420.5L678.537 186" stroke="white" stroke-opacity="0.67" stroke-width="1.5"/>
<path d="M550.432 420.5L669.774 186" stroke="white" stroke-opacity="0.67" stroke-width="1.5"/>
<path d="M541.669 420.5L661.011 186" stroke="white" stroke-opacity="0.67" stroke-width="1.5"/>
<path d="M532.906 420.5L652.248 186" stroke="white" stroke-opacity="0.67" stroke-width="1.5"/>
<path d="M524.143 420.5L643.485 186" stroke="white" stroke-opacity="0.67" stroke-width="1.5"/>
<path d="M515.38 420.5L634.722 186" stroke="white" stroke-opacity="0.67" stroke-width="1.5"/>
<path d="M506.618 420.5L625.96 186" stroke="white" stroke-opacity="0.67" stroke-width="1.5"/>
<path d="M497.855 420.5L617.197 186" stroke="white" stroke-opacity="0.67" stroke-width="1.5"/>
<path d="M489.092 420.5L608.434 186" stroke="white" stroke-opacity="0.67" stroke-width="1.5"/>
<path d="M480.329 420.5L599.671 186" stroke="white" stroke-opacity="0.67" stroke-width="1.5"/>
<path d="M471.566 420.5L590.908 186" stroke="white" stroke-opacity="0.67" stroke-width="1.5"/>
<path d="M462.803 420.5L582.145 186" stroke="white" stroke-opacity="0.67" stroke-width="1.5"/>
<path d="M454.04 420.5L573.382 186" stroke="white" stroke-opacity="0.67" stroke-width="1.5"/>
<path d="M445.278 420.5L564.619 186" stroke="white" stroke-opacity="0.67" stroke-width="1.5"/>
<path d="M436.515 420.5L555.857 186" stroke="white" stroke-opacity="0.67" stroke-width="1.5"/>
<path d="M427.752 420.5L547.094 186" stroke="white" stroke-opacity="0.67" stroke-width="1.5"/>
<path d="M418.989 420.5L538.331 186" stroke="white" stroke-opacity="0.67" stroke-width="1.5"/>
<path d="M410.226 420.5L529.568 186" stroke="white" stroke-opacity="0.67" stroke-width="1.5"/>
<path d="M401.463 420.5L520.805 186" stroke="white" stroke-opacity="0.67" stroke-width="1.5"/>
<path d="M392.7 420.5L512.042 186" stroke="white" stroke-opacity="0.67" stroke-width="1.5"/>
<path d="M383.938 420.5L503.279 186" stroke="white" stroke-opacity="0.67" stroke-width="1.5"/>
<path d="M375.175 420.5L494.517 186" stroke="white" stroke-opacity="0.67" stroke-width="1.5"/>
<path d="M366.412 420.5L485.754 186" stroke="white" stroke-opacity="0.67" stroke-width="1.5"/>
<path d="M357.649 420.5L476.991 186" stroke="white" stroke-opacity="0.67" stroke-width="1.5"/>
<path d="M348.886 420.5L468.228 186" stroke="white" stroke-opacity="0.67" stroke-width="1.5"/>
<path d="M340.123 420.5L459.465 186" stroke="white" stroke-opacity="0.67" stroke-width="1.5"/>
<path d="M331.36 420.5L450.702 186" stroke="white" stroke-opacity="0.67" stroke-width="1.5"/>
<path d="M322.597 420.5L441.939 186" stroke="white" stroke-opacity="0.67" stroke-width="1.5"/>
<path d="M313.835 420.5L433.176 186" stroke="white" stroke-opacity="0.67" stroke-width="1.5"/>
<path d="M305.072 420.5L424.414 186" stroke="white" stroke-opacity="0.67" stroke-width="1.5"/>
<path d="M296.309 420.5L415.651 186" stroke="white" stroke-opacity="0.67" stroke-width="1.5"/>
<path d="M287.546 420.5L406.888 186" stroke="white" stroke-opacity="0.67" stroke-width="1.5"/>
<path d="M278.783 420.5L398.125 186" stroke="white" stroke-opacity="0.67" stroke-width="1.5"/>
<path d="M270.02 420.5L389.362 186" stroke="white" stroke-opacity="0.67" stroke-width="1.5"/>
<path d="M261.257 420.5L380.599 186" stroke="white" stroke-opacity="0.67" stroke-width="1.5"/>
<path d="M252.494 420.5L371.836 186" stroke="white" stroke-opacity="0.67" stroke-width="1.5"/>
<path d="M243.732 420.5L363.073 186" stroke="white" stroke-opacity="0.67" stroke-width="1.5"/>
<path d="M234.969 420.5L354.311 186" stroke="white" stroke-opacity="0.67" stroke-width="1.5"/>
<path d="M226.206 420.5L345.548 186" stroke="white" stroke-opacity="0.67" stroke-width="1.5"/>
<path d="M217.443 420.5L336.785 186" stroke="white" stroke-opacity="0.67" stroke-width="1.5"/>
<path d="M208.68 420.5L328.022 186" stroke="white" stroke-opacity="0.67" stroke-width="1.5"/>
<path d="M199.917 420.5L319.259 186" stroke="white" stroke-opacity="0.67" stroke-width="1.5"/>
<path d="M191.154 420.5L310.496 186" stroke="white" stroke-opacity="0.67" stroke-width="1.5"/>
<path d="M182.392 420.5L301.733 186" stroke="white" stroke-opacity="0.67" stroke-width="1.5"/>
<path d="M173.629 420.5L292.971 186" stroke="white" stroke-opacity="0.67" stroke-width="1.5"/>
<path d="M164.866 420.5L284.208 186" stroke="white" stroke-opacity="0.67" stroke-width="1.5"/>
<path d="M156.103 420.5L275.445 186" stroke="white" stroke-opacity="0.67" stroke-width="1.5"/>
<path d="M147.34 420.5L266.682 186" stroke="white" stroke-opacity="0.67" stroke-width="1.5"/>
<path d="M138.577 420.5L257.919 186" stroke="white" stroke-opacity="0.67" stroke-width="1.5"/>
<path d="M129.814 420.5L249.156 186" stroke="white" stroke-opacity="0.67" stroke-width="1.5"/>
<path d="M121.051 420.5L240.393 186" stroke="white" stroke-opacity="0.67" stroke-width="1.5"/>
<path d="M110.8 420.5L230.142 186" stroke="white" stroke-opacity="0.67" stroke-width="1.5"/>
<path d="M100.548 420.5L219.89 186" stroke="white" stroke-opacity="0.67" stroke-width="1.5"/>
<path d="M90.2959 420.5L209.638 186" stroke="white" stroke-opacity="0.67" stroke-width="1.5"/>
<path d="M80.0441 420.5L199.386 186" stroke="white" stroke-opacity="0.67" stroke-width="1.5"/>
<path d="M69.7922 420.5L189.134 186" stroke="white" stroke-opacity="0.67" stroke-width="1.5"/>
<path d="M59.5404 420.5L178.882 186" stroke="white" stroke-opacity="0.67" stroke-width="1.5"/>
<path d="M49.2886 420.5L168.63 186" stroke="white" stroke-opacity="0.67" stroke-width="1.5"/>
<path d="M39.0367 420.5L158.379 186" stroke="white" stroke-opacity="0.67" stroke-width="1.5"/>
<path d="M28.7849 420.5L148.127 186" stroke="white" stroke-opacity="0.67" stroke-width="1.5"/>
<path d="M18.5331 420.5L137.875 186" stroke="white" stroke-opacity="0.67" stroke-width="1.5"/>
<path d="M8.28119 420.5L127.623 186" stroke="white" stroke-opacity="0.67" stroke-width="1.5"/>
<path d="M-1.97064 420.5L117.371 186" stroke="white" stroke-opacity="0.67" stroke-width="1.5"/>
<path d="M-12.2225 420.5L107.119 186" stroke="white" stroke-opacity="0.67" stroke-width="1.5"/>
</g>
<defs>
<linearGradient id="paint0_linear" x1="543" y1="576" x2="543" y2="402" gradientUnits="userSpaceOnUse">
<stop stop-color="white"/>
<stop offset="1" stop-color="white" stop-opacity="0"/>
</linearGradient>
<linearGradient id="paint1_linear" x1="546" y1="643" x2="543" y2="191.5" gradientUnits="userSpaceOnUse">
<stop stop-color="#C4C4C4" stop-opacity="0.42"/>
<stop offset="1" stop-color="#C4C4C4" stop-opacity="0"/>
</linearGradient>
</defs>
</svg>
