<svg width="13" height="13" viewBox="0 0 13 13" fill="none" xmlns="http://www.w3.org/2000/svg">
<path d="M12 12L8.33333 8.33333M1 5.27778C1 5.83954 1.11065 6.39581 1.32563 6.91481C1.5406 7.43382 1.8557 7.90539 2.25293 8.30262C2.65016 8.69985 3.12174 9.01495 3.64074 9.22993C4.15975 9.44491 4.71601 9.55556 5.27778 9.55556C5.83954 9.55556 6.39581 9.44491 6.91481 9.22993C7.43382 9.01495 7.90539 8.69985 8.30262 8.30262C8.69985 7.90539 9.01495 7.43382 9.22993 6.91481C9.44491 6.39581 9.55556 5.83954 9.55556 5.27778C9.55556 4.71601 9.44491 4.15975 9.22993 3.64074C9.01495 3.12174 8.69985 2.65016 8.30262 2.25293C7.90539 1.8557 7.43382 1.5406 6.91481 1.32563C6.39581 1.11065 5.83954 1 5.27778 1C4.71601 1 4.15975 1.11065 3.64074 1.32563C3.12174 1.5406 2.65016 1.8557 2.25293 2.25293C1.8557 2.65016 1.5406 3.12174 1.32563 3.64074C1.11065 4.15975 1 4.71601 1 5.27778Z" stroke="#2F4C20" stroke-width="2" stroke-linecap="round" stroke-linejoin="round"/>
</svg>
