<svg width="16" height="16" viewBox="0 0 16 16" fill="none" xmlns="http://www.w3.org/2000/svg">
<path d="M6.66667 7.03502C6.66667 6.72557 6.91655 6.47471 7.22481 6.47471H8.77519C9.08345 6.47471 9.33333 6.72557 9.33333 7.03502V8.59144C9.33333 8.90089 9.08345 9.15175 8.77519 9.15175H7.22481C6.91655 9.15175 6.66667 8.90089 6.66667 8.59144V7.03502Z" fill="url(#paint0_linear_929_4890)"/>
<path d="M6.66667 11.2996C6.66667 10.9902 6.91655 10.7393 7.22481 10.7393H8.77519C9.08345 10.7393 9.33333 10.9902 9.33333 11.2996V12.856C9.33333 13.1655 9.08345 13.4163 8.77519 13.4163H7.22481C6.91655 13.4163 6.66667 13.1655 6.66667 12.856V11.2996Z" fill="url(#paint1_linear_929_4890)"/>
<path d="M2.63566 11.2996C2.63566 10.9902 2.88555 10.7393 3.1938 10.7393H4.74419C5.05244 10.7393 5.30233 10.9902 5.30233 11.2996V12.856C5.30233 13.1655 5.05244 13.4163 4.74419 13.4163H3.1938C2.88555 13.4163 2.63566 13.1655 2.63566 12.856V11.2996Z" fill="url(#paint2_linear_929_4890)"/>
<path d="M10.6977 7.03502C10.6977 6.72557 10.9476 6.47471 11.2558 6.47471H12.8062C13.1145 6.47471 13.3643 6.72557 13.3643 7.03502V8.59144C13.3643 8.90089 13.1145 9.15175 12.8062 9.15175H11.2558C10.9476 9.15175 10.6977 8.90089 10.6977 8.59144V7.03502Z" fill="url(#paint3_linear_929_4890)"/>
<path d="M10.6977 11.2996C10.6977 10.9902 10.9476 10.7393 11.2558 10.7393H12.8062C13.1145 10.7393 13.3643 10.9902 13.3643 11.2996V12.856C13.3643 13.1655 13.1145 13.4163 12.8062 13.4163H11.2558C10.9476 13.4163 10.6977 13.1655 10.6977 12.856V11.2996Z" fill="url(#paint4_linear_929_4890)"/>
<path d="M0.992248 14.4436V4.91829H15.0078V14.4436C15.0078 14.753 14.7579 15.0039 14.4496 15.0039H1.55039C1.24214 15.0039 0.992248 14.753 0.992248 14.4436ZM2.46512 2.41245L2.46512 1.43191H1.55039C0.694132 1.43191 0 2.12874 0 2.98833V14.4436C0 15.3032 0.694132 16 1.55039 16H14.4496C15.3059 16 16 15.3032 16 14.4436V2.98833C16 2.12874 15.3059 1.43191 14.4496 1.43191H13.4729V2.41245L13.4725 2.44458C13.4555 3.1174 12.9069 3.65759 12.2326 3.65759C11.5527 3.65759 11.0006 3.10851 10.9923 2.42802C10.9923 2.42679 10.9923 2.4256 10.9923 2.42441C10.9923 2.42356 10.9923 2.4227 10.9923 2.42182C10.9923 2.42154 10.9923 2.42107 10.9923 2.42079C10.9923 2.41987 10.9923 2.41894 10.9923 2.41802C10.9923 2.41723 10.9923 2.41639 10.9923 2.41559C10.9922 2.41455 10.9922 2.4135 10.9922 2.41245V1.43191H4.94574V2.41245C4.94574 2.41765 4.9457 2.42283 4.94564 2.42802C4.93734 3.10851 4.38526 3.65759 3.70543 3.65759C3.0256 3.65759 2.47352 3.10851 2.46521 2.42802C2.46515 2.42283 2.46512 2.41765 2.46512 2.41245Z" fill="url(#paint5_linear_929_4890)"/>
<path d="M4.27907 2.41245C4.27907 2.7305 4.02224 2.98833 3.70543 2.98833C3.38861 2.98833 3.13178 2.7305 3.13178 2.41245V0.575876C3.13178 0.257828 3.38861 3.90746e-08 3.70543 2.51723e-08C4.02224 1.127e-08 4.27907 0.257828 4.27907 0.575875V2.41245Z" fill="url(#paint6_linear_929_4890)"/>
<path d="M11.6589 2.41245V0.575875C11.6589 0.257828 11.9157 0 12.2326 0C12.5494 1.3605e-08 12.8062 0.257828 12.8062 0.575875V2.41245C12.8062 2.7305 12.5494 2.98833 12.2326 2.98833C11.9157 2.98833 11.6589 2.7305 11.6589 2.41245Z" fill="url(#paint7_linear_929_4890)"/>
<defs>
<linearGradient id="paint0_linear_929_4890" x1="8" y1="0" x2="8" y2="16" gradientUnits="userSpaceOnUse">
<stop stop-color="#86865A"/>
<stop offset="1" stop-color="#99AB71"/>
</linearGradient>
<linearGradient id="paint1_linear_929_4890" x1="8" y1="0" x2="8" y2="16" gradientUnits="userSpaceOnUse">
<stop stop-color="#86865A"/>
<stop offset="1" stop-color="#99AB71"/>
</linearGradient>
<linearGradient id="paint2_linear_929_4890" x1="8" y1="0" x2="8" y2="16" gradientUnits="userSpaceOnUse">
<stop stop-color="#86865A"/>
<stop offset="1" stop-color="#99AB71"/>
</linearGradient>
<linearGradient id="paint3_linear_929_4890" x1="8" y1="0" x2="8" y2="16" gradientUnits="userSpaceOnUse">
<stop stop-color="#86865A"/>
<stop offset="1" stop-color="#99AB71"/>
</linearGradient>
<linearGradient id="paint4_linear_929_4890" x1="8" y1="0" x2="8" y2="16" gradientUnits="userSpaceOnUse">
<stop stop-color="#86865A"/>
<stop offset="1" stop-color="#99AB71"/>
</linearGradient>
<linearGradient id="paint5_linear_929_4890" x1="8" y1="0" x2="8" y2="16" gradientUnits="userSpaceOnUse">
<stop stop-color="#86865A"/>
<stop offset="1" stop-color="#99AB71"/>
</linearGradient>
<linearGradient id="paint6_linear_929_4890" x1="8" y1="0" x2="8" y2="16" gradientUnits="userSpaceOnUse">
<stop stop-color="#86865A"/>
<stop offset="1" stop-color="#99AB71"/>
</linearGradient>
<linearGradient id="paint7_linear_929_4890" x1="8" y1="0" x2="8" y2="16" gradientUnits="userSpaceOnUse">
<stop stop-color="#86865A"/>
<stop offset="1" stop-color="#99AB71"/>
</linearGradient>
</defs>
</svg>
