<svg width="189" height="18" viewBox="0 0 189 18" fill="none" xmlns="http://www.w3.org/2000/svg">
<path fill-rule="evenodd" clip-rule="evenodd" d="M27.2989 0.551213C25.7159 0.496282 24.1612 0.551213 22.6381 0.717669C22.5482 0.707682 22.4917 0.652751 22.4717 0.551213C24.1063 0.331491 25.7159 0.331491 27.2989 0.551213Z" fill="white"/>
<path fill-rule="evenodd" clip-rule="evenodd" d="M0 0.551959C1.57967 0.35887 3.1893 0.332237 4.82723 0.468731C6.59666 3.3684 8.34445 6.28138 10.0706 9.20768C11.7967 6.28138 13.5445 3.3684 15.314 0.468731C16.9236 0.357205 18.5316 0.357205 20.1412 0.468731C16.7771 5.94847 13.4763 11.4682 10.2371 17.0311C8.61244 17.2225 6.97618 17.2508 5.3266 17.1144C6.12392 15.8243 6.90127 14.521 7.65698 13.2026C5.18345 8.91971 2.63167 4.70338 0 0.551959Z" fill="white"/>
<path fill-rule="evenodd" clip-rule="evenodd" d="M27.2994 0.55047C30.6136 6.01523 33.8878 11.5083 37.1203 17.0296C35.5973 17.1944 34.0426 17.251 32.4596 17.1961C30.805 14.3214 29.0838 11.4916 27.2994 8.70682C25.535 11.5133 23.8155 14.343 22.1393 17.1961C20.5563 17.251 19.0016 17.1961 17.4785 17.0296C19.8905 12.9831 22.3041 8.9332 24.7194 4.87833C24.8309 4.65694 24.8309 4.43389 24.7194 4.21251C24.0236 3.04232 23.3295 1.87713 22.6387 0.716926C24.1617 0.552135 25.7164 0.495539 27.2994 0.55047Z" fill="white"/>
<path fill-rule="evenodd" clip-rule="evenodd" d="M39.6162 17.1975H62.7536V0.55184H58.7587C58.8136 5.07445 58.7587 9.56877 58.5922 14.0348V0.385384H62.9201V17.3639C55.1233 17.4188 47.3564 17.3639 39.6162 17.1975Z" fill="white"/>
<path fill-rule="evenodd" clip-rule="evenodd" d="M67.252 0.551737C72.2723 0.385281 77.3209 0.33035 82.3995 0.385281V4.21377H82.233V0.551737H67.252Z" fill="white"/>
<path fill-rule="evenodd" clip-rule="evenodd" d="M135.496 0.551842V6.37781C138.466 6.43274 141.407 6.37781 144.318 6.21135V0.551842H148.313V17.1975H144.318V10.3728C141.407 10.2063 138.466 10.1514 135.496 10.2063V17.1975H131.501V0.551842H135.496Z" fill="white"/>
<path fill-rule="evenodd" clip-rule="evenodd" d="M144.321 0.551506C145.678 0.386714 147.064 0.330119 148.483 0.385049V17.3636C147.064 17.4185 145.678 17.3636 144.321 17.1971H148.316V0.551506H144.321Z" fill="white"/>
<path fill-rule="evenodd" clip-rule="evenodd" d="M110.528 0.717262H114.69V7.70842H123.012V0.717262H127.174V17.3629H123.012V11.3705C120.238 11.3988 117.463 11.3705 114.69 11.2872C112.552 10.981 111.192 9.78746 110.611 7.70842C110.528 5.37804 110.5 3.04765 110.528 0.717262Z" fill="white"/>
<path fill-rule="evenodd" clip-rule="evenodd" d="M95.5462 0.0522758C98.2594 -0.177434 100.813 0.349953 103.203 1.63333C106.336 3.70904 107.64 6.62234 107.116 10.3726C106.391 13.7048 104.422 15.9519 101.206 17.1138C96.4009 18.6618 92.2656 17.635 88.805 14.0347C86.5412 10.689 86.4858 7.30436 88.638 3.8804C90.4606 1.70821 92.7632 0.431836 95.5462 0.0522758ZM101.702 5.46146C99.8831 4.10318 97.8287 3.57482 95.5433 3.87942C91.7597 5.12119 90.5659 7.61871 91.9642 11.3706C93.6503 13.4862 95.8412 14.2914 98.5394 13.7837C100.119 13.564 101.367 12.815 102.284 11.5367C103.433 9.37618 103.239 7.3523 101.702 5.46146Z" fill="white"/>
<path fill-rule="evenodd" clip-rule="evenodd" d="M82.2309 4.21385H82.3974C78.8202 4.38031 75.2131 4.43524 71.5777 4.38031V6.54424C71.4129 5.80018 71.358 5.02283 71.4112 4.21385H82.2309Z" fill="white"/>
<path fill-rule="evenodd" clip-rule="evenodd" d="M175.451 0.801325C179.884 0.559971 184.323 0.476433 188.768 0.551325V17.1968H184.773V11.0386C183.272 10.9837 181.773 11.0382 180.278 11.2046C178.857 13.1887 177.414 15.1597 175.951 17.1138C174.398 17.2254 172.843 17.2254 171.29 17.1138C172.811 15.0098 174.365 12.929 175.951 10.8716C172.357 9.78802 171.052 7.40298 172.039 3.71441C172.687 2.18145 173.823 1.21086 175.451 0.801325ZM177.113 4.21246C176.815 4.3606 176.51 4.52769 176.197 4.71246C175.462 5.91242 175.711 6.82773 176.946 7.45855C179.553 7.54178 182.161 7.56985 184.77 7.54156V4.21246H177.113Z" fill="white"/>
<path fill-rule="evenodd" clip-rule="evenodd" d="M135.5 0.551842C135.665 2.40783 135.721 4.29544 135.666 6.21135H144.322C141.411 6.37781 138.47 6.43274 135.5 6.37781V0.551842Z" fill="white"/>
<path d="M43.7812 6.37801C46.2232 6.34972 48.6652 6.37779 51.1055 6.46102C53.5673 6.51097 55.1488 7.70309 55.8496 10.0401C55.9711 11.2669 55.943 12.4871 55.7666 13.7022C55.6169 13.8204 55.5598 13.9867 55.5996 14.2013C56.6299 14.2545 57.6287 14.2017 58.5957 14.0352C58.7622 9.56922 58.8176 5.07446 58.7627 0.551842H62.7578V17.1973H39.6201V0.551842H43.7812V6.37801ZM43.7822 10.2071V13.5362C46.0027 13.5645 48.2217 13.5364 50.4404 13.4532C50.8349 13.3633 51.1681 13.1698 51.4395 12.8702C52.0503 11.7816 51.8288 10.9227 50.7734 10.2901C48.4431 10.2069 46.1126 10.1788 43.7822 10.2071Z" fill="white"/>
<path d="M82.2354 4.21395H71.416C71.3627 5.02293 71.4182 5.80095 71.583 6.54501C74.3028 6.51672 77.0212 6.54479 79.7393 6.62801C82.4855 7.15572 83.9281 8.82004 84.0664 11.6212C83.9832 14.3643 82.6521 16.1393 80.0723 16.9483C75.8077 17.1897 71.5344 17.2723 67.2549 17.1973V0.551842H82.2354V4.21395ZM71.4189 10.2061V13.5352C73.7493 13.5635 76.0798 13.5345 78.4102 13.4513C79.2907 13.2365 79.7355 12.6827 79.7422 11.7872C79.7455 11.0681 79.4123 10.5688 78.7432 10.2891C76.303 10.2059 73.8608 10.1778 71.4189 10.2061Z" fill="white"/>
<path fill-rule="evenodd" clip-rule="evenodd" d="M168.127 17.1973C164.021 17.2256 159.914 17.1976 155.81 17.1143C152.094 15.9824 150.734 13.514 151.731 9.70712C152.474 7.98785 153.777 6.96261 155.643 6.62801C158.416 6.54479 161.191 6.51671 163.966 6.54501V4.21395H153.145V0.551842H168.127V17.1973ZM163.965 10.2071C161.523 10.1788 159.081 10.2069 156.641 10.2901C156.343 10.4216 156.093 10.6152 155.892 10.8731C155.346 12.1112 155.707 12.9431 156.974 13.3692H163.965V10.2071Z" fill="white"/>
<path fill-rule="evenodd" clip-rule="evenodd" d="M144.322 10.3716H135.666C135.721 12.6753 135.666 14.9508 135.5 17.1963V10.2051C138.47 10.1502 141.411 10.2051 144.322 10.3716Z" fill="white"/>
<path fill-rule="evenodd" clip-rule="evenodd" d="M163.967 10.2042C164.132 11.2828 164.186 12.3931 164.133 13.5333C161.718 13.5882 159.333 13.5333 156.976 13.3668H163.967V10.2042Z" fill="white"/>
<path fill-rule="evenodd" clip-rule="evenodd" d="M55.7658 13.7018C56.6364 14.0264 57.5802 14.1379 58.5956 14.0347C57.6284 14.1995 56.6297 14.2544 55.5993 14.2012C55.5594 13.9864 55.616 13.82 55.7658 13.7018Z" fill="white"/>
<path fill-rule="evenodd" clip-rule="evenodd" d="M17.4819 17.0299C19.005 17.1947 20.5597 17.2512 22.1427 17.1963C20.5597 17.416 18.95 17.416 17.3154 17.1963C17.3354 17.0948 17.392 17.0398 17.4819 17.0299Z" fill="white"/>
<path fill-rule="evenodd" clip-rule="evenodd" d="M37.1198 17.0299C37.2096 17.0398 37.2662 17.0948 37.2862 17.1963C35.6499 17.416 34.042 17.416 32.459 17.1963C34.042 17.2512 35.5967 17.1963 37.1198 17.0299Z" fill="white"/>
<path fill-rule="evenodd" clip-rule="evenodd" d="M188.758 0.551842C188.924 6.12813 188.979 11.731 188.924 17.3639C187.506 17.4188 186.119 17.3639 184.763 17.1975H188.758V0.551842Z" fill="white"/>
</svg>
