<svg width="265" height="25" viewBox="0 0 265 25" fill="none" xmlns="http://www.w3.org/2000/svg">
<path fill-rule="evenodd" clip-rule="evenodd" d="M38.269 0.773287C36.0499 0.696283 33.8704 0.773287 31.7353 1.00663C31.6093 0.992632 31.53 0.915628 31.502 0.773287C33.7934 0.46527 36.0499 0.46527 38.269 0.773287Z" fill="url(#paint0_linear_929_4784)"/>
<path fill-rule="evenodd" clip-rule="evenodd" d="M0 0.773277C2.21445 0.502595 4.47091 0.46526 6.76703 0.656604C9.2475 4.72149 11.6976 8.80504 14.1174 12.9073C16.5372 8.80504 18.9874 4.72149 21.4678 0.656604C23.7243 0.500262 25.9784 0.500262 28.2349 0.656604C23.5189 8.33835 18.8917 16.0761 14.3508 23.8745C12.0733 24.1429 9.77953 24.1825 7.46707 23.9912C8.5848 22.1828 9.67452 20.3557 10.7339 18.5076C7.26639 12.5036 3.6892 6.59292 0 0.773277Z" fill="url(#paint1_linear_929_4784)"/>
<path fill-rule="evenodd" clip-rule="evenodd" d="M38.2684 0.773259C42.9143 8.43401 47.5042 16.1344 52.0358 23.8745C49.9007 24.1055 47.7212 24.1849 45.5021 24.1079C43.1827 20.078 40.7699 16.1111 38.2684 12.2072C35.7949 16.1414 33.3845 20.1083 31.0347 24.1079C28.8155 24.1849 26.6361 24.1079 24.501 23.8745C27.8822 18.2019 31.2657 12.5246 34.6515 6.84025C34.8079 6.5299 34.8079 6.21722 34.6515 5.90687C33.6761 4.26645 32.7031 2.63303 31.7347 1.0066C33.8698 0.775592 36.0493 0.696255 38.2684 0.773259Z" fill="url(#paint2_linear_929_4784)"/>
<path fill-rule="evenodd" clip-rule="evenodd" d="M55.5361 24.1079H87.9712V0.773286H82.3709C82.4479 7.11329 82.3709 13.4136 82.1376 19.6743V0.53994H88.2046V24.3412C77.2746 24.4182 66.3867 24.3412 55.5361 24.1079Z" fill="url(#paint3_linear_929_4784)"/>
<path fill-rule="evenodd" clip-rule="evenodd" d="M94.2715 0.773295C101.309 0.539949 108.387 0.462944 115.506 0.539949V5.90691H115.273V0.773295H94.2715Z" fill="url(#paint4_linear_929_4784)"/>
<path fill-rule="evenodd" clip-rule="evenodd" d="M189.944 0.773285V8.94039C194.107 9.0174 198.23 8.94039 202.311 8.70705V0.773285H207.912V24.1079H202.311V14.5407C198.23 14.3073 194.107 14.2303 189.944 14.3073V24.1079H184.344V0.773285H189.944Z" fill="url(#paint5_linear_929_4784)"/>
<path fill-rule="evenodd" clip-rule="evenodd" d="M202.311 0.77326C204.212 0.542247 206.156 0.46291 208.144 0.539914V24.3412C206.156 24.4182 204.212 24.3412 202.311 24.1079H207.911V0.77326H202.311Z" fill="url(#paint6_linear_929_4784)"/>
<path fill-rule="evenodd" clip-rule="evenodd" d="M154.942 1.00663H160.775V10.8072H172.443V1.00663H178.276V24.3412H172.443V15.9408C168.553 15.9804 164.663 15.9408 160.775 15.8241C157.779 15.3947 155.873 13.7216 155.058 10.8072C154.942 7.54032 154.902 4.27347 154.942 1.00663Z" fill="url(#paint7_linear_929_4784)"/>
<path fill-rule="evenodd" clip-rule="evenodd" d="M133.941 0.0732252C137.745 -0.248705 141.324 0.490989 144.675 2.29002C149.066 5.19977 150.893 9.28295 150.158 14.54C149.143 19.2115 146.383 22.3624 141.875 23.9912C135.138 26.1613 129.341 24.7211 124.49 19.6738C121.317 14.9838 121.24 10.2401 124.257 5.44041C126.812 2.39525 130.04 0.605254 133.941 0.0732252ZM142.574 7.65721C140.024 5.75321 137.144 5.0134 133.94 5.44041C128.637 7.18119 126.964 10.6811 128.924 15.9404C131.288 18.9062 134.359 20.0359 138.142 19.3242C140.356 19.0161 142.106 17.9658 143.392 16.1738C145.001 13.1451 144.728 10.3079 142.574 7.65721Z" fill="url(#paint8_linear_929_4784)"/>
<path fill-rule="evenodd" clip-rule="evenodd" d="M115.273 5.90691H115.506C110.492 6.14025 105.435 6.21726 100.339 6.14025V9.17375C100.108 8.13069 100.031 7.04097 100.106 5.90691H115.273Z" fill="url(#paint9_linear_929_4784)"/>
<path fill-rule="evenodd" clip-rule="evenodd" d="M245.947 1.12367C252.161 0.785343 258.384 0.668093 264.614 0.773088V24.108H259.015V15.4743C256.91 15.3973 254.809 15.4743 252.714 15.7077C250.721 18.4891 248.698 21.2514 246.646 23.9909C244.47 24.1472 242.29 24.1472 240.113 23.9909C242.246 21.0416 244.423 18.1248 246.646 15.2409C241.609 13.7217 239.779 10.3775 241.163 5.20668C242.071 3.05765 243.665 1.69769 245.947 1.12367ZM248.28 5.90688C247.863 6.11454 247.436 6.34808 246.997 6.60707C245.966 8.2895 246.315 9.57328 248.047 10.4577C251.701 10.5743 255.358 10.6135 259.015 10.5739V5.90688H248.28Z" fill="url(#paint10_linear_929_4784)"/>
<path fill-rule="evenodd" clip-rule="evenodd" d="M189.943 0.773285C190.174 3.37509 190.254 6.02123 190.177 8.70705H202.311C198.229 8.94039 194.106 9.0174 189.943 8.94039V0.773285Z" fill="url(#paint11_linear_929_4784)"/>
<path d="M61.3701 8.94028C64.7931 8.90062 68.2161 8.9408 71.6367 9.05746C75.0879 9.12747 77.3047 10.7979 78.2871 14.0741C78.4574 15.7938 78.4182 17.5044 78.1709 19.2079C77.9609 19.3735 77.8815 19.607 77.9375 19.9081C79.3818 19.9827 80.782 19.908 82.1377 19.6747C82.371 13.414 82.4481 7.11329 82.3711 0.773285H87.9717V24.1082H55.5361V0.773285H61.3701V8.94028ZM61.3701 14.3075V18.9745C64.4827 19.0141 67.5929 18.9739 70.7031 18.8573C71.2561 18.7313 71.7232 18.4608 72.1035 18.0409C72.9599 16.5148 72.6493 15.3104 71.1699 14.4237C67.9033 14.307 64.6367 14.2678 61.3701 14.3075Z" fill="url(#paint12_linear_929_4784)"/>
<path d="M115.272 5.90723H100.105C100.031 7.04122 100.108 8.13083 100.339 9.17383C104.152 9.13416 107.962 9.17435 111.772 9.29102C115.623 10.0307 117.646 12.3638 117.84 16.291C117.723 20.1365 115.856 22.6238 112.239 23.7578C106.261 24.0962 100.271 24.2134 94.2715 24.1084V0.773438H115.272V5.90723ZM100.105 14.3066V18.9736C103.372 19.0133 106.639 18.9741 109.906 18.8574C111.141 18.5564 111.763 17.7788 111.772 16.5234C111.777 15.5157 111.311 14.8158 110.373 14.4238C106.952 14.3072 103.529 14.267 100.105 14.3066Z" fill="url(#paint13_linear_929_4784)"/>
<path fill-rule="evenodd" clip-rule="evenodd" d="M235.679 24.1082C229.922 24.1479 224.165 24.1077 218.411 23.9911C213.203 22.4043 211.297 18.9438 212.694 13.6073C213.735 11.1969 215.562 9.75997 218.178 9.29086C222.065 9.17419 225.956 9.13401 229.846 9.17368V5.90707H214.678V0.773285H235.679V24.1082ZM229.846 14.3075C226.423 14.2678 222.999 14.307 219.578 14.4237C219.161 14.608 218.811 14.8794 218.528 15.2411C217.763 16.977 218.269 18.1437 220.045 18.7411H229.846V14.3075Z" fill="url(#paint14_linear_929_4784)"/>
<path fill-rule="evenodd" clip-rule="evenodd" d="M202.311 14.5407H190.177C190.254 17.7702 190.177 20.9601 189.943 24.1079V14.3074C194.106 14.2304 198.229 14.3074 202.311 14.5407Z" fill="url(#paint15_linear_929_4784)"/>
<path fill-rule="evenodd" clip-rule="evenodd" d="M229.845 14.3074C230.076 15.8194 230.153 17.3759 230.079 18.9743C226.693 19.0513 223.349 18.9743 220.045 18.7409H229.845V14.3074Z" fill="url(#paint16_linear_929_4784)"/>
<path fill-rule="evenodd" clip-rule="evenodd" d="M78.1707 19.2076C79.3911 19.6627 80.7142 19.819 82.1376 19.6743C80.7818 19.9053 79.3818 19.9823 77.9373 19.9077C77.8813 19.6066 77.9607 19.3733 78.1707 19.2076Z" fill="url(#paint17_linear_929_4784)"/>
<path fill-rule="evenodd" clip-rule="evenodd" d="M24.5009 23.8745C26.636 24.1056 28.8155 24.1849 31.0346 24.1079C28.8155 24.4159 26.559 24.4159 24.2676 24.1079C24.2956 23.9655 24.3749 23.8885 24.5009 23.8745Z" fill="url(#paint18_linear_929_4784)"/>
<path fill-rule="evenodd" clip-rule="evenodd" d="M52.0366 23.8745C52.1626 23.8885 52.242 23.9655 52.27 24.1079C49.9762 24.4159 47.722 24.4159 45.5029 24.1079C47.722 24.1849 49.9015 24.1079 52.0366 23.8745Z" fill="url(#paint19_linear_929_4784)"/>
<path fill-rule="evenodd" clip-rule="evenodd" d="M264.614 0.773285C264.847 8.59037 264.924 16.4448 264.847 24.3412C262.859 24.4182 260.915 24.3412 259.014 24.1079H264.614V0.773285Z" fill="url(#paint20_linear_929_4784)"/>
<defs>
<linearGradient id="paint0_linear_929_4784" x1="31.502" y1="0.551573" x2="31.502" y2="0.9979" gradientUnits="userSpaceOnUse">
<stop stop-color="#838959"/>
<stop offset="1" stop-color="#99AB71"/>
</linearGradient>
<linearGradient id="paint1_linear_929_4784" x1="0" y1="1.00891" x2="0" y2="23.6669" gradientUnits="userSpaceOnUse">
<stop stop-color="#838959"/>
<stop offset="1" stop-color="#99AB71"/>
</linearGradient>
<linearGradient id="paint2_linear_929_4784" x1="24.501" y1="1.21315" x2="24.501" y2="23.6968" gradientUnits="userSpaceOnUse">
<stop stop-color="#838959"/>
<stop offset="1" stop-color="#99AB71"/>
</linearGradient>
<linearGradient id="paint3_linear_929_4784" x1="55.5361" y1="1.01712" x2="55.5361" y2="23.9219" gradientUnits="userSpaceOnUse">
<stop stop-color="#838959"/>
<stop offset="1" stop-color="#99AB71"/>
</linearGradient>
<linearGradient id="paint4_linear_929_4784" x1="94.2715" y1="0.619156" x2="94.2715" y2="5.80543" gradientUnits="userSpaceOnUse">
<stop stop-color="#838959"/>
<stop offset="1" stop-color="#99AB71"/>
</linearGradient>
<linearGradient id="paint5_linear_929_4784" x1="184.344" y1="1.24054" x2="184.344" y2="23.669" gradientUnits="userSpaceOnUse">
<stop stop-color="#838959"/>
<stop offset="1" stop-color="#99AB71"/>
</linearGradient>
<linearGradient id="paint6_linear_929_4784" x1="202.311" y1="0.989152" x2="202.311" y2="23.9213" gradientUnits="userSpaceOnUse">
<stop stop-color="#838959"/>
<stop offset="1" stop-color="#99AB71"/>
</linearGradient>
<linearGradient id="paint7_linear_929_4784" x1="154.927" y1="1.47389" x2="154.927" y2="23.9024" gradientUnits="userSpaceOnUse">
<stop stop-color="#838959"/>
<stop offset="1" stop-color="#99AB71"/>
</linearGradient>
<linearGradient id="paint8_linear_929_4784" x1="122.051" y1="0.5" x2="122.051" y2="24.5" gradientUnits="userSpaceOnUse">
<stop stop-color="#838959"/>
<stop offset="1" stop-color="#99AB71"/>
</linearGradient>
<linearGradient id="paint9_linear_929_4784" x1="100.078" y1="5.97232" x2="100.078" y2="9.11231" gradientUnits="userSpaceOnUse">
<stop stop-color="#838959"/>
<stop offset="1" stop-color="#99AB71"/>
</linearGradient>
<linearGradient id="paint10_linear_929_4784" x1="240.113" y1="1.20388" x2="240.113" y2="23.6685" gradientUnits="userSpaceOnUse">
<stop stop-color="#838959"/>
<stop offset="1" stop-color="#99AB71"/>
</linearGradient>
<linearGradient id="paint11_linear_929_4784" x1="189.943" y1="0.937403" x2="189.943" y2="8.81509" gradientUnits="userSpaceOnUse">
<stop stop-color="#838959"/>
<stop offset="1" stop-color="#99AB71"/>
</linearGradient>
<linearGradient id="paint12_linear_929_4784" x1="55.5361" y1="1.24055" x2="55.5361" y2="23.6694" gradientUnits="userSpaceOnUse">
<stop stop-color="#838959"/>
<stop offset="1" stop-color="#99AB71"/>
</linearGradient>
<linearGradient id="paint13_linear_929_4784" x1="94.2715" y1="1.24145" x2="94.2715" y2="23.7061" gradientUnits="userSpaceOnUse">
<stop stop-color="#838959"/>
<stop offset="1" stop-color="#99AB71"/>
</linearGradient>
<linearGradient id="paint14_linear_929_4784" x1="212.251" y1="1.24085" x2="212.251" y2="23.6839" gradientUnits="userSpaceOnUse">
<stop stop-color="#838959"/>
<stop offset="1" stop-color="#99AB71"/>
</linearGradient>
<linearGradient id="paint15_linear_929_4784" x1="189.943" y1="14.4754" x2="189.943" y2="23.923" gradientUnits="userSpaceOnUse">
<stop stop-color="#838959"/>
<stop offset="1" stop-color="#99AB71"/>
</linearGradient>
<linearGradient id="paint16_linear_929_4784" x1="220.045" y1="14.4014" x2="220.045" y2="18.9148" gradientUnits="userSpaceOnUse">
<stop stop-color="#838959"/>
<stop offset="1" stop-color="#99AB71"/>
</linearGradient>
<linearGradient id="paint17_linear_929_4784" x1="77.9199" y1="19.2222" x2="77.9199" y2="19.9215" gradientUnits="userSpaceOnUse">
<stop stop-color="#838959"/>
<stop offset="1" stop-color="#99AB71"/>
</linearGradient>
<linearGradient id="paint18_linear_929_4784" x1="24.2676" y1="23.8838" x2="24.2676" y2="24.3302" gradientUnits="userSpaceOnUse">
<stop stop-color="#838959"/>
<stop offset="1" stop-color="#99AB71"/>
</linearGradient>
<linearGradient id="paint19_linear_929_4784" x1="45.5029" y1="23.8838" x2="45.5029" y2="24.3302" gradientUnits="userSpaceOnUse">
<stop stop-color="#838959"/>
<stop offset="1" stop-color="#99AB71"/>
</linearGradient>
<linearGradient id="paint20_linear_929_4784" x1="259.014" y1="1.2458" x2="259.014" y2="23.9263" gradientUnits="userSpaceOnUse">
<stop stop-color="#838959"/>
<stop offset="1" stop-color="#99AB71"/>
</linearGradient>
</defs>
</svg>
