<svg width="160" height="160" viewBox="0 0 160 160" fill="none" xmlns="http://www.w3.org/2000/svg">
<path fill-rule="evenodd" clip-rule="evenodd" d="M80.0049 40C65.1992 40 52.2725 48.0439 45.3564 60L30.0049 60L30.0049 40L80.0049 40Z" stroke="#5F8BFF" stroke-width="2"/>
<path d="M80.0049 60.0001C68.959 60.0001 60.0049 68.9542 60.0049 80.0001C60.0049 91.046 68.959 100 80.0049 100C91.0508 100 100.005 91.046 100.005 80.0001C100.005 68.9542 91.0508 60.0001 80.0049 60.0001ZM80.0049 40.0001C102.096 40.0001 120.005 57.9088 120.005 80.0001L120.005 130L100.005 130L100.005 114.649C94.1216 118.052 87.2905 120 80.0049 120C57.9136 120 40.0049 102.091 40.0049 80.0001C40.0049 72.7145 41.9531 65.8834 45.3564 60.0001C52.2725 48.0441 65.1992 40.0001 80.0049 40.0001Z" stroke="#5F8BFF" stroke-width="2"/>
<path d="M100.005 115L100.005 80" stroke="#5F8BFF" stroke-width="2"/>
<path d="M80.0049 35L80.0049 125" stroke="#252E57" stroke-dasharray="23 23"/>
<path d="M35 79.9951L125 79.9951" stroke="#252E57" stroke-dasharray="23 23"/>
<path d="M109.375 139.333C109.375 138.988 109.655 138.708 110 138.708C110.345 138.708 110.625 138.988 110.625 139.333L110.625 147.042L115 147.042C115.253 147.042 115.481 147.194 115.577 147.428C115.674 147.661 115.621 147.93 115.442 148.109L110.442 153.109C110.325 153.226 110.166 153.292 110 153.292C109.834 153.292 109.675 153.226 109.558 153.109L104.558 148.109C104.379 147.93 104.326 147.661 104.423 147.428C104.519 147.194 104.747 147.042 105 147.042L109.375 147.042L109.375 139.333Z" fill="#252E57"/>
<path d="M7.33342 49.375C6.98824 49.375 6.70842 49.6548 6.70842 50C6.70842 50.3452 6.98824 50.625 7.33342 50.625L15.0417 50.625L15.0417 55C15.0417 55.2528 15.194 55.4807 15.4276 55.5774C15.6611 55.6742 15.9299 55.6207 16.1087 55.442L21.1087 50.442C21.2259 50.3247 21.2917 50.1658 21.2917 50C21.2917 49.8343 21.2259 49.6753 21.1087 49.5581L16.1087 44.5581C15.9299 44.3793 15.6611 44.3259 15.4276 44.4226C15.194 44.5193 15.0417 44.7472 15.0417 45L15.0417 49.375L7.33342 49.375Z" fill="#252E57"/>
</svg>
