<svg width="160" height="160" viewBox="0 0 160 160" fill="none" xmlns="http://www.w3.org/2000/svg">
<path fill-rule="evenodd" clip-rule="evenodd" d="M79.9998 40C94.8054 40 107.732 48.0439 114.648 60L130 60L130 40L79.9998 40Z" stroke="#5F8BFF" stroke-width="2"/>
<path d="M59.9999 80.0049C59.9999 68.959 68.954 60.0049 79.9999 60.0049C91.0458 60.0049 99.9999 68.959 99.9999 80.0049C99.9999 91.0508 91.0458 100.005 79.9999 100.005C68.954 100.005 59.9999 91.0508 59.9999 80.0049ZM39.9999 80.0049C39.9999 102.096 57.9086 120.005 79.9999 120.005L130 120.005L130 100.005L114.648 100.005C118.052 94.1216 120 87.2905 120 80.0049C120 57.9136 102.091 40.0049 79.9999 40.0049C72.7142 40.0049 65.8832 41.9531 59.9999 45.3565C48.0438 52.2725 39.9999 65.1992 39.9999 80.0049Z" stroke="#5F8BFF" stroke-width="2"/>
<path d="M114.999 100.005L79.9993 100.005" stroke="#5F8BFF" stroke-width="2"/>
<path d="M34.9993 80.0049L124.999 80.0049" stroke="#252E57" stroke-dasharray="23 23"/>
<path d="M79.9944 35V125" stroke="#252E57" stroke-dasharray="23 23"/>
<path d="M139.334 109.375C138.989 109.375 138.709 109.655 138.709 110C138.709 110.345 138.989 110.625 139.334 110.625L147.042 110.625L147.042 115C147.042 115.253 147.194 115.481 147.428 115.577C147.661 115.674 147.93 115.621 148.109 115.442L153.109 110.442C153.226 110.325 153.292 110.166 153.292 110C153.292 109.834 153.226 109.675 153.109 109.558L148.109 104.558C147.93 104.379 147.661 104.326 147.428 104.423C147.194 104.519 147.042 104.747 147.042 105L147.042 109.375L139.334 109.375Z" fill="#252E57"/>
<path d="M152.667 50.625C153.012 50.625 153.292 50.3452 153.292 50C153.292 49.6548 153.012 49.375 152.667 49.375L144.959 49.375L144.959 45C144.959 44.7472 144.807 44.5193 144.573 44.4226C144.34 44.3259 144.071 44.3793 143.892 44.5581L138.892 49.5581C138.775 49.6753 138.709 49.8343 138.709 50C138.709 50.1658 138.775 50.3248 138.892 50.442L143.892 55.442C144.071 55.6207 144.34 55.6742 144.573 55.5774C144.807 55.4807 144.959 55.2528 144.959 55L144.959 50.625L152.667 50.625Z" fill="#252E57"/>
</svg>
