<svg width="160" height="160" viewBox="0 0 160 160" fill="none" xmlns="http://www.w3.org/2000/svg">
<path fill-rule="evenodd" clip-rule="evenodd" d="M80.0007 40C65.1951 40 52.2683 48.0439 45.3523 60L30.0007 60L30.0007 40L80.0007 40Z" stroke="#5F8BFF" stroke-width="2"/>
<path d="M100.001 80.0049C100.001 68.959 91.0468 60.0049 80.0009 60.0049C68.955 60.0049 60.0009 68.959 60.0009 80.0049C60.0009 91.0508 68.955 100.005 80.0009 100.005C91.0468 100.005 100.001 91.0508 100.001 80.0049ZM120.001 80.0049C120.001 102.096 102.092 120.005 80.0009 120.005L30.001 120.005L30.001 100.005L45.3524 100.005C41.9491 94.1216 40.0009 87.2905 40.0009 80.0049C40.0009 57.9136 57.9096 40.0049 80.0009 40.0049C87.2865 40.0049 94.1176 41.9531 100.001 45.3565C111.957 52.2725 120.001 65.1992 120.001 80.0049Z" stroke="#5F8BFF" stroke-width="2"/>
<path d="M45.0015 100.005L80.0015 100.005" stroke="#5F8BFF" stroke-width="2"/>
<path d="M125.001 80.0049L35.0015 80.0049" stroke="#252E57" stroke-dasharray="23 23"/>
<path d="M80.0063 35V125" stroke="#252E57" stroke-dasharray="23 23"/>
<path d="M20.6667 109.375C21.0119 109.375 21.2917 109.655 21.2917 110C21.2917 110.345 21.0119 110.625 20.6667 110.625L12.9584 110.625L12.9584 115C12.9584 115.253 12.8061 115.481 12.5726 115.577C12.339 115.674 12.0702 115.621 11.8915 115.442L6.89147 110.442C6.77426 110.325 6.70841 110.166 6.70841 110C6.70841 109.834 6.77426 109.675 6.89147 109.558L11.8915 104.558C12.0702 104.379 12.339 104.326 12.5726 104.423C12.8061 104.519 12.9584 104.747 12.9584 105L12.9584 109.375L20.6667 109.375Z" fill="#252E57"/>
<path d="M7.33325 50.625C6.98807 50.625 6.70825 50.3452 6.70825 50C6.70825 49.6548 6.98807 49.375 7.33325 49.375L15.0416 49.375L15.0416 45C15.0416 44.7472 15.1939 44.5193 15.4274 44.4226C15.661 44.3259 15.9298 44.3793 16.1085 44.5581L21.1085 49.5581C21.2257 49.6753 21.2916 49.8343 21.2916 50C21.2916 50.1658 21.2257 50.3248 21.1085 50.442L16.1085 55.442C15.9298 55.6207 15.661 55.6742 15.4274 55.5774C15.1939 55.4807 15.0416 55.2528 15.0416 55L15.0416 50.625L7.33325 50.625Z" fill="#252E57"/>
</svg>
