<svg width="160" height="160" viewBox="0 0 160 160" fill="none" xmlns="http://www.w3.org/2000/svg">
<path fill-rule="evenodd" clip-rule="evenodd" d="M79.9951 40C94.8008 40 107.728 48.0439 114.644 60H129.995V40H79.9951Z" stroke="#5F8BFF" stroke-width="2"/>
<path d="M79.9951 60.0001C91.041 60.0001 99.9951 68.9542 99.9951 80.0001C99.9951 91.046 91.041 100 79.9951 100C68.9492 100 59.9951 91.046 59.9951 80.0001C59.9951 68.9542 68.9492 60.0001 79.9951 60.0001ZM79.9951 40.0001C57.9038 40.0001 39.9951 57.9088 39.9951 80.0001L39.9951 130L59.9951 130L59.9951 114.649C65.8784 118.052 72.7095 120 79.9951 120C102.086 120 119.995 102.091 119.995 80.0001C119.995 72.7145 118.047 65.8834 114.644 60.0001C107.728 48.0441 94.8008 40.0001 79.9951 40.0001Z" stroke="#5F8BFF" stroke-width="2"/>
<path d="M59.9951 115V80" stroke="#5F8BFF" stroke-width="2"/>
<path d="M79.9951 35V125" stroke="#252E57" stroke-dasharray="23 23"/>
<path d="M125 79.9951L35 79.9951" stroke="#252E57" stroke-dasharray="23 23"/>
<path d="M50.625 139.333C50.625 138.988 50.3452 138.708 50 138.708C49.6548 138.708 49.375 138.988 49.375 139.333L49.375 147.042H45C44.7472 147.042 44.5193 147.194 44.4226 147.428C44.3259 147.661 44.3793 147.93 44.5581 148.109L49.5581 153.109C49.6753 153.226 49.8343 153.292 50 153.292C50.1658 153.292 50.3248 153.226 50.442 153.109L55.442 148.109C55.6207 147.93 55.6742 147.661 55.5774 147.428C55.4807 147.194 55.2528 147.042 55 147.042H50.625L50.625 139.333Z" fill="#252E57"/>
<path d="M152.667 49.375C153.012 49.375 153.292 49.6548 153.292 50C153.292 50.3452 153.012 50.625 152.667 50.625H144.958L144.958 55C144.958 55.2528 144.806 55.4807 144.572 55.5774C144.339 55.6742 144.07 55.6207 143.891 55.442L138.891 50.442C138.774 50.3247 138.708 50.1658 138.708 50C138.708 49.8343 138.774 49.6753 138.891 49.5581L143.891 44.5581C144.07 44.3793 144.339 44.3259 144.572 44.4226C144.806 44.5193 144.958 44.7472 144.958 45L144.958 49.375H152.667Z" fill="#252E57"/>
</svg>
