<svg width="160" height="160" viewBox="0 0 160 160" fill="none" xmlns="http://www.w3.org/2000/svg">
<path fill-rule="evenodd" clip-rule="evenodd" d="M40 79.9951C40 94.8008 48.0439 107.728 60 114.644L60 129.995L40 129.995L40 79.9951Z" stroke="#5F8BFF" stroke-width="2"/>
<path d="M60.0001 79.9951C60.0001 91.041 68.9542 99.9951 80.0001 99.9951C91.046 99.9951 100 91.041 100 79.9951C100 68.9492 91.046 59.9951 80.0001 59.9951C68.9542 59.9951 60.0001 68.9492 60.0001 79.9951ZM40.0001 79.9951C40.0001 57.9038 57.9088 39.9951 80.0001 39.9951L130 39.9951L130 59.9951L114.649 59.9951C118.052 65.8784 120 72.7095 120 79.9951C120 102.086 102.091 119.995 80.0001 119.995C72.7145 119.995 65.8834 118.047 60.0001 114.644C48.0441 107.728 40.0001 94.8008 40.0001 79.9951Z" stroke="#5F8BFF" stroke-width="2"/>
<path d="M115 59.9951L80 59.9951" stroke="#5F8BFF" stroke-width="2"/>
<path d="M35 79.9951L125 79.9951" stroke="#252E57" stroke-dasharray="23 23"/>
<path d="M79.9951 125L79.9951 35" stroke="#252E57" stroke-dasharray="23 23"/>
<path d="M139.333 50.625C138.988 50.625 138.708 50.3452 138.708 50C138.708 49.6548 138.988 49.375 139.333 49.375L147.042 49.375L147.042 45C147.042 44.7472 147.194 44.5193 147.427 44.4226C147.661 44.3259 147.93 44.3793 148.109 44.5581L153.109 49.5581C153.226 49.6753 153.292 49.8343 153.292 50C153.292 50.1658 153.226 50.3248 153.109 50.442L148.109 55.442C147.93 55.6207 147.661 55.6742 147.427 55.5774C147.194 55.4807 147.042 55.2528 147.042 55L147.042 50.625L139.333 50.625Z" fill="#252E57"/>
<path d="M49.375 152.667C49.375 153.012 49.6548 153.292 50 153.292C50.3452 153.292 50.625 153.012 50.625 152.667L50.625 144.958L55 144.958C55.2528 144.958 55.4807 144.806 55.5774 144.573C55.6742 144.339 55.6207 144.07 55.442 143.892L50.442 138.892C50.3247 138.774 50.1658 138.708 50 138.708C49.8343 138.708 49.6753 138.774 49.5581 138.892L44.5581 143.892C44.3793 144.07 44.3259 144.339 44.4226 144.573C44.5193 144.806 44.7472 144.958 45 144.958L49.375 144.958L49.375 152.667Z" fill="#252E57"/>
</svg>
