<svg width="160" height="160" viewBox="0 0 160 160" fill="none" xmlns="http://www.w3.org/2000/svg">
<path fill-rule="evenodd" clip-rule="evenodd" d="M80.0977 120L100.004 120L100.004 114.649C97.8704 115.883 95.6113 116.926 93.2513 117.754C92.3574 118.068 91.449 118.351 90.5273 118.601C87.2029 119.506 83.7064 119.992 80.0977 120ZM120.004 100L122.324 100L129.999 100L129.999 120L120.004 120L120.004 100Z" stroke="#5F8BFF" stroke-width="2"/>
<path d="M93.5333 117.654C93.4395 117.687 93.3454 117.721 93.2512 117.754C92.7514 117.929 92.2471 118.095 91.7385 118.251C93.6141 117.676 95.4309 116.967 97.178 116.136C95.994 116.699 94.778 117.206 93.5333 117.654ZM93.5333 117.654C94.2358 117.401 94.9292 117.13 95.6128 116.84" stroke="#5F8BFF" stroke-width="2"/>
<path d="M100.004 115L100.004 80" stroke="#5F8BFF" stroke-width="2"/>
<path d="M80.0042 35L80.0041 125" stroke="#252E57" stroke-dasharray="23 23"/>
<path d="M34.9993 79.9951L124.999 79.9951" stroke="#252E57" stroke-dasharray="23 23"/>
<path d="M80.0042 40.0001C102.095 40.0001 120.004 57.9088 120.004 80.0001L120.004 100L120.004 120L120.004 130L100.004 130L100.004 120L100.004 114.649C97.9552 115.834 95.7913 116.842 93.5334 117.654C93.4395 117.688 93.3454 117.721 93.2512 117.754C92.3573 118.068 91.4489 118.351 90.5272 118.601C87.1742 119.513 83.6459 120 80.0042 120C57.9128 120 40.0042 102.091 40.0042 80.0001C40.0042 72.7145 41.9524 65.8834 45.3557 60.0001C52.2717 48.0441 65.1985 40.0001 80.0042 40.0001ZM60.0042 80.0001C60.0042 68.9542 68.9583 60.0001 80.0042 60.0001C91.0501 60.0001 100.004 68.9542 100.004 80.0001C100.004 91.046 91.0501 100 80.0042 100C68.9583 100 60.0042 91.046 60.0042 80.0001Z" stroke="#5F8BFF" stroke-width="2"/>
<path d="M109.374 139.333C109.374 138.988 109.654 138.708 109.999 138.708C110.344 138.708 110.624 138.988 110.624 139.333L110.624 147.042L114.999 147.042C115.252 147.042 115.48 147.194 115.576 147.428C115.673 147.661 115.62 147.93 115.441 148.109L110.441 153.109C110.324 153.226 110.165 153.292 109.999 153.292C109.833 153.292 109.674 153.226 109.557 153.109L104.557 148.109C104.378 147.93 104.325 147.661 104.422 147.428C104.518 147.194 104.746 147.042 104.999 147.042L109.374 147.042L109.374 139.333Z" fill="#252E57"/>
<path d="M152.666 110.625C153.011 110.625 153.291 110.345 153.291 110C153.291 109.655 153.011 109.375 152.666 109.375L144.958 109.375L144.958 105C144.958 104.747 144.805 104.519 144.572 104.423C144.338 104.326 144.069 104.379 143.891 104.558L138.891 109.558C138.773 109.675 138.708 109.834 138.708 110C138.708 110.166 138.773 110.325 138.891 110.442L143.891 115.442C144.069 115.621 144.338 115.674 144.572 115.577C144.805 115.481 144.958 115.253 144.958 115L144.958 110.625L152.666 110.625Z" fill="#252E57"/>
</svg>
