<svg width="160" height="160" viewBox="0 0 160 160" fill="none" xmlns="http://www.w3.org/2000/svg">
<path fill-rule="evenodd" clip-rule="evenodd" d="M120 79.9019L120 59.9952L114.649 59.9952C115.883 62.1292 116.926 64.3882 117.754 66.7482C118.068 67.6421 118.351 68.5505 118.601 69.4722C119.506 72.7966 119.992 76.2931 120 79.9019ZM100 39.9952L100 37.6759L100 30.0001L120 30.0001L120 39.9952L100 39.9952Z" stroke="#5F8BFF" stroke-width="2"/>
<path d="M117.654 66.4659C117.688 66.5598 117.721 66.6539 117.754 66.7481C117.93 67.2478 118.095 67.7521 118.251 68.2608C117.677 66.3852 116.968 64.5683 116.136 62.8213C116.7 64.0052 117.207 65.2213 117.654 66.4659ZM117.654 66.4659C117.402 65.7635 117.13 65.0701 116.84 64.3864" stroke="#5F8BFF" stroke-width="2"/>
<path d="M115 59.9951L80 59.9951" stroke="#5F8BFF" stroke-width="2"/>
<path d="M35 79.9951L125 79.9951" stroke="#252E57" stroke-dasharray="23 23"/>
<path d="M79.9951 125V35" stroke="#252E57" stroke-dasharray="23 23"/>
<path d="M40.0001 79.9951C40.0001 57.9038 57.9088 39.9951 80.0001 39.9951L100 39.9951L120 39.9951L130 39.9951L130 59.9951L120 59.9951L114.649 59.9951C115.834 62.044 116.842 64.2079 117.654 66.4659C117.688 66.5598 117.721 66.6538 117.754 66.7481C118.068 67.642 118.351 68.5504 118.601 69.4721C119.513 72.8251 120 76.3533 120 79.9951C120 102.086 102.091 119.995 80.0001 119.995C72.7145 119.995 65.8834 118.047 60.0001 114.644C48.0441 107.728 40.0001 94.8008 40.0001 79.9951ZM80.0001 99.9951C68.9542 99.9951 60.0001 91.041 60.0001 79.9951C60.0001 68.9492 68.9542 59.9951 80.0001 59.9951C91.046 59.9951 100 68.9492 100 79.9951C100 91.041 91.046 99.9951 80.0001 99.9951Z" stroke="#5F8BFF" stroke-width="2"/>
<path d="M139.333 50.625C138.988 50.625 138.708 50.3452 138.708 50C138.708 49.6548 138.988 49.375 139.333 49.375L147.042 49.375L147.042 45C147.042 44.7472 147.194 44.5193 147.427 44.4226C147.661 44.3259 147.93 44.3793 148.109 44.5581L153.109 49.5581C153.226 49.6753 153.292 49.8343 153.292 50C153.292 50.1658 153.226 50.3248 153.109 50.442L148.109 55.442C147.93 55.6207 147.661 55.6742 147.427 55.5774C147.194 55.4807 147.042 55.2528 147.042 55L147.042 50.625L139.333 50.625Z" fill="#252E57"/>
<path d="M110.625 7.33317C110.625 6.98799 110.345 6.70817 110 6.70817C109.655 6.70817 109.375 6.98799 109.375 7.33317L109.375 15.0415L105 15.0415C104.747 15.0415 104.519 15.1938 104.423 15.4273C104.326 15.6609 104.379 15.9297 104.558 16.1084L109.558 21.1084C109.675 21.2257 109.834 21.2915 110 21.2915C110.166 21.2915 110.325 21.2257 110.442 21.1084L115.442 16.1084C115.621 15.9297 115.674 15.6609 115.577 15.4273C115.481 15.1938 115.253 15.0415 115 15.0415L110.625 15.0415L110.625 7.33317Z" fill="#252E57"/>
</svg>
