<svg width="160" height="160" viewBox="0 0 160 160" fill="none" xmlns="http://www.w3.org/2000/svg">
<path fill-rule="evenodd" clip-rule="evenodd" d="M39.9993 80C39.9993 94.8057 48.0432 107.732 59.9993 114.648L59.9993 130L39.9993 130L39.9993 80Z" stroke="#5F8BFF" stroke-width="2"/>
<path d="M79.9944 99.9999C91.0403 99.9999 99.9944 91.0458 99.9944 79.9999C99.9944 68.954 91.0403 59.9999 79.9944 59.9999C68.9485 59.9999 59.9944 68.954 59.9944 79.9999C59.9944 91.0458 68.9485 99.9999 79.9944 99.9999ZM79.9944 120C57.9031 120 39.9944 102.091 39.9944 79.9999L39.9944 30L59.9944 30L59.9944 45.3514C65.8777 41.9481 72.7087 39.9999 79.9944 39.9999C102.086 39.9999 119.994 57.9086 119.994 79.9999C119.994 87.2855 118.046 94.1166 114.643 99.9999C107.727 111.956 94.8 120 79.9944 120Z" stroke="#5F8BFF" stroke-width="2"/>
<path d="M59.9944 45V80" stroke="#5F8BFF" stroke-width="2"/>
<path d="M79.9944 125V35" stroke="#252E57" stroke-dasharray="23 23"/>
<path d="M124.999 80.0049L34.9993 80.0049" stroke="#252E57" stroke-dasharray="23 23"/>
<path d="M50.6243 152.667C50.6243 153.012 50.3445 153.292 49.9993 153.292C49.6541 153.292 49.3743 153.012 49.3743 152.667L49.3743 144.958L44.9993 144.958C44.7465 144.958 44.5186 144.806 44.4219 144.572C44.3251 144.339 44.3786 144.07 44.5573 143.891L49.5573 138.891C49.6746 138.774 49.8335 138.708 49.9993 138.708C50.165 138.708 50.324 138.774 50.4412 138.891L55.4412 143.891C55.62 144.07 55.6734 144.339 55.5767 144.572C55.48 144.806 55.2521 144.958 54.9993 144.958L50.6243 144.958L50.6243 152.667Z" fill="#252E57"/>
<path d="M50.6243 20.6665C50.6243 21.0117 50.3445 21.2915 49.9993 21.2915C49.6541 21.2915 49.3743 21.0117 49.3743 20.6665L49.3743 12.9582L44.9993 12.9582C44.7465 12.9582 44.5186 12.8059 44.4219 12.5723C44.3251 12.3388 44.3786 12.07 44.5573 11.8912L49.5573 6.89123C49.6746 6.77402 49.8335 6.70817 49.9993 6.70817C50.165 6.70817 50.324 6.77402 50.4412 6.89123L55.4412 11.8912C55.62 12.07 55.6734 12.3388 55.5767 12.5723C55.48 12.8059 55.2521 12.9582 54.9993 12.9582L50.6243 12.9582L50.6243 20.6665Z" fill="#252E57"/>
</svg>
