<svg width="160" height="160" viewBox="0 0 160 160" fill="none" xmlns="http://www.w3.org/2000/svg">
<path fill-rule="evenodd" clip-rule="evenodd" d="M80 40C94.8057 40 107.732 48.0439 114.648 60H130V40H80Z" stroke="#5F8BFF" stroke-width="2"/>
<path d="M100 79.9951C100 91.041 91.046 99.9951 80.0001 99.9951C68.9542 99.9951 60.0001 91.041 60.0001 79.9951C60.0001 68.9492 68.9542 59.9951 80.0001 59.9951C91.046 59.9951 100 68.9492 100 79.9951ZM120 79.9951C120 57.9038 102.091 39.9951 80.0001 39.9951H30.0002L30.0002 59.9951H45.3517C41.9484 65.8784 40.0001 72.7095 40.0001 79.9951C40.0001 102.086 57.9088 119.995 80.0001 119.995C87.2858 119.995 94.1168 118.047 100 114.644C111.956 107.728 120 94.8008 120 79.9951Z" stroke="#5F8BFF" stroke-width="2"/>
<path d="M45.0002 59.9951L80.0002 59.9951" stroke="#5F8BFF" stroke-width="2"/>
<path d="M125 79.9951L35.0002 79.9951" stroke="#252E57" stroke-dasharray="23 23"/>
<path d="M80.0051 125L80.0051 35" stroke="#252E57" stroke-dasharray="23 23"/>
<path d="M7.33325 49.375C6.98807 49.375 6.70825 49.6548 6.70825 50C6.70825 50.3452 6.98807 50.625 7.33325 50.625L15.0416 50.625L15.0416 55C15.0416 55.2528 15.1939 55.4807 15.4274 55.5774C15.661 55.6741 15.9298 55.6207 16.1085 55.4419L21.1085 50.4419C21.2257 50.3247 21.2916 50.1657 21.2916 50C21.2916 49.8342 21.2257 49.6752 21.1085 49.558L16.1085 44.558C15.9298 44.3793 15.661 44.3258 15.4274 44.4226C15.1939 44.5193 15.0416 44.7472 15.0416 45L15.0416 49.375L7.33325 49.375Z" fill="#252E57"/>
<path d="M139.333 49.375C138.988 49.375 138.708 49.6548 138.708 50C138.708 50.3452 138.988 50.625 139.333 50.625L147.042 50.625L147.042 55C147.042 55.2528 147.194 55.4807 147.427 55.5774C147.661 55.6741 147.93 55.6207 148.109 55.4419L153.109 50.4419C153.226 50.3247 153.292 50.1657 153.292 50C153.292 49.8342 153.226 49.6752 153.109 49.558L148.109 44.558C147.93 44.3793 147.661 44.3258 147.427 44.4226C147.194 44.5193 147.042 44.7472 147.042 45L147.042 49.375L139.333 49.375Z" fill="#252E57"/>
</svg>
