<svg width="160" height="160" viewBox="0 0 160 160" fill="none" xmlns="http://www.w3.org/2000/svg">
<path fill-rule="evenodd" clip-rule="evenodd" d="M79.9016 40L59.995 40L59.995 45.3515C62.1289 44.1167 64.388 43.074 66.7479 42.246C67.6418 41.9323 68.5503 41.6494 69.472 41.3987C72.7963 40.4945 76.2929 40.0083 79.9016 40ZM39.995 60L37.6757 60L29.9999 60L29.9999 40L39.995 40L39.995 60Z" stroke="#5F8BFF" stroke-width="2"/>
<path d="M66.4659 42.3463C66.5598 42.3125 66.6539 42.2792 66.7481 42.2461C67.2478 42.0707 67.7521 41.9049 68.2608 41.749C66.3852 42.3237 64.5683 43.0326 62.8213 43.8644C64.0052 43.3007 65.2213 42.7935 66.4659 42.3463ZM66.4659 42.3463C65.7635 42.5987 65.0701 42.8702 64.3864 43.1602" stroke="#5F8BFF" stroke-width="2"/>
<path d="M59.9951 45L59.9951 80" stroke="#5F8BFF" stroke-width="2"/>
<path d="M79.9951 125L79.9951 35" stroke="#252E57" stroke-dasharray="23 23"/>
<path d="M125 80.0049L35 80.0049" stroke="#252E57" stroke-dasharray="23 23"/>
<path d="M79.9951 120C57.9038 120 39.9951 102.091 39.9951 79.9999L39.9951 60L39.9951 40L39.9951 30L59.9951 30L59.9951 40L59.9951 45.3514C62.044 44.1662 64.2079 43.1575 66.4659 42.3461C66.5598 42.3124 66.6538 42.279 66.7481 42.246C67.642 41.9322 68.5504 41.6494 69.4721 41.3987C72.8251 40.4867 76.3533 39.9999 79.9951 39.9999C102.086 39.9999 119.995 57.9086 119.995 79.9999C119.995 87.2855 118.047 94.1166 114.644 99.9999C107.728 111.956 94.8008 120 79.9951 120ZM99.9951 79.9999C99.9951 91.0458 91.041 99.9999 79.9951 99.9999C68.9492 99.9999 59.9951 91.0458 59.9951 79.9999C59.9951 68.954 68.9492 59.9999 79.9951 59.9999C91.041 59.9999 99.9951 68.954 99.9951 79.9999Z" stroke="#5F8BFF" stroke-width="2"/>
<path d="M50.6253 20.6665C50.6253 21.0117 50.3454 21.2915 50.0003 21.2915C49.6551 21.2915 49.3753 21.0117 49.3753 20.6665L49.3753 12.9582L45.0003 12.9582C44.7475 12.9582 44.5196 12.8059 44.4228 12.5723C44.3261 12.3388 44.3796 12.07 44.5583 11.8912L49.5583 6.89123C49.6755 6.77402 49.8345 6.70817 50.0003 6.70817C50.166 6.70817 50.325 6.77402 50.4422 6.89123L55.4422 11.8912C55.621 12.07 55.6744 12.3388 55.5777 12.5723C55.4809 12.8059 55.2531 12.9582 55.0003 12.9582L50.6253 12.9582L50.6253 20.6665Z" fill="#252E57"/>
<path d="M7.33341 49.375C6.98824 49.375 6.70841 49.6548 6.70841 50C6.70841 50.3452 6.98824 50.625 7.33341 50.625L15.0417 50.625L15.0417 55C15.0417 55.2528 15.194 55.4807 15.4276 55.5774C15.6611 55.6742 15.9299 55.6207 16.1087 55.442L21.1087 50.442C21.2259 50.3247 21.2917 50.1658 21.2917 50C21.2917 49.8343 21.2259 49.6753 21.1087 49.5581L16.1087 44.5581C15.9299 44.3793 15.6611 44.3259 15.4276 44.4226C15.194 44.5193 15.0417 44.7472 15.0417 45L15.0417 49.375L7.33341 49.375Z" fill="#252E57"/>
</svg>
