<svg width="160" height="160" viewBox="0 0 160 160" fill="none" xmlns="http://www.w3.org/2000/svg">
<path fill-rule="evenodd" clip-rule="evenodd" d="M40 80.0049C40 65.1992 48.0439 52.2725 60 45.3564L60 30.0049L40 30.0049L40 80.0049Z" stroke="#5F8BFF" stroke-width="2"/>
<path d="M60.0001 80.0049C60.0001 68.959 68.9542 60.0049 80.0001 60.0049C91.046 60.0049 100 68.959 100 80.0049C100 91.0508 91.046 100.005 80.0001 100.005C68.9542 100.005 60.0001 91.0508 60.0001 80.0049ZM40.0001 80.0049C40.0001 102.096 57.9088 120.005 80.0001 120.005L130 120.005L130 100.005L114.649 100.005C118.052 94.1216 120 87.2905 120 80.0049C120 57.9136 102.091 40.0049 80.0001 40.0049C72.7145 40.0049 65.8834 41.9531 60.0001 45.3565C48.0441 52.2725 40.0001 65.1992 40.0001 80.0049Z" stroke="#5F8BFF" stroke-width="2"/>
<path d="M115 100.005L80 100.005" stroke="#5F8BFF" stroke-width="2"/>
<path d="M35 80.0049L125 80.0049" stroke="#252E57" stroke-dasharray="23 23"/>
<path d="M79.9951 35V125" stroke="#252E57" stroke-dasharray="23 23"/>
<path d="M139.333 109.375C138.988 109.375 138.708 109.655 138.708 110C138.708 110.345 138.988 110.625 139.333 110.625L147.042 110.625L147.042 115C147.042 115.253 147.194 115.481 147.427 115.577C147.661 115.674 147.93 115.621 148.109 115.442L153.109 110.442C153.226 110.325 153.292 110.166 153.292 110C153.292 109.834 153.226 109.675 153.109 109.558L148.109 104.558C147.93 104.379 147.661 104.326 147.427 104.423C147.194 104.519 147.042 104.747 147.042 105L147.042 109.375L139.333 109.375Z" fill="#252E57"/>
<path d="M49.375 7.33317C49.375 6.98799 49.6548 6.70817 50 6.70817C50.3452 6.70817 50.625 6.98799 50.625 7.33317L50.625 15.0415L55 15.0415C55.2528 15.0415 55.4807 15.1938 55.5774 15.4273C55.6742 15.6609 55.6207 15.9297 55.442 16.1084L50.442 21.1084C50.3247 21.2257 50.1658 21.2915 50 21.2915C49.8343 21.2915 49.6753 21.2257 49.5581 21.1084L44.5581 16.1084C44.3793 15.9297 44.3259 15.6609 44.4226 15.4273C44.5193 15.1938 44.7472 15.0415 45 15.0415L49.375 15.0415L49.375 7.33317Z" fill="#252E57"/>
</svg>
