<svg width="160" height="160" viewBox="0 0 160 160" fill="none" xmlns="http://www.w3.org/2000/svg">
<path fill-rule="evenodd" clip-rule="evenodd" d="M79.9951 120C94.8008 120 107.728 111.956 114.644 100H129.995V120L79.9951 120Z" stroke="#5F8BFF" stroke-width="2"/>
<path d="M79.9951 99.9999C91.041 99.9999 99.9951 91.0458 99.9951 79.9999C99.9951 68.954 91.041 59.9999 79.9951 59.9999C68.9492 59.9999 59.9951 68.954 59.9951 79.9999C59.9951 91.0458 68.9492 99.9999 79.9951 99.9999ZM79.9951 120C57.9038 120 39.9951 102.091 39.9951 79.9999L39.9951 30L59.9951 30L59.9951 45.3514C65.8784 41.9481 72.7095 39.9999 79.9951 39.9999C102.086 39.9999 119.995 57.9086 119.995 79.9999C119.995 87.2855 118.047 94.1166 114.644 99.9999C107.728 111.956 94.8008 120 79.9951 120Z" stroke="#5F8BFF" stroke-width="2"/>
<path d="M59.9951 45L59.9951 80" stroke="#5F8BFF" stroke-width="2"/>
<path d="M79.9951 125L79.9951 35" stroke="#252E57" stroke-dasharray="23 23"/>
<path d="M125 80.0049L35 80.0049" stroke="#252E57" stroke-dasharray="23 23"/>
<path d="M50.625 20.6665C50.625 21.0117 50.3452 21.2915 50 21.2915C49.6548 21.2915 49.375 21.0117 49.375 20.6665L49.375 12.9582H45C44.7472 12.9582 44.5193 12.8059 44.4226 12.5723C44.3259 12.3388 44.3793 12.07 44.5581 11.8912L49.5581 6.89123C49.6753 6.77402 49.8343 6.70817 50 6.70817C50.1658 6.70817 50.3248 6.77402 50.442 6.89123L55.442 11.8912C55.6207 12.07 55.6742 12.3388 55.5774 12.5723C55.4807 12.8059 55.2528 12.9582 55 12.9582H50.625L50.625 20.6665Z" fill="#252E57"/>
<path d="M152.667 110.625C153.012 110.625 153.292 110.345 153.292 110C153.292 109.655 153.012 109.375 152.667 109.375H144.958L144.958 105C144.958 104.747 144.806 104.519 144.572 104.423C144.339 104.326 144.07 104.379 143.891 104.558L138.891 109.558C138.774 109.675 138.708 109.834 138.708 110C138.708 110.166 138.774 110.325 138.891 110.442L143.891 115.442C144.07 115.621 144.339 115.674 144.572 115.577C144.806 115.481 144.958 115.253 144.958 115L144.958 110.625H152.667Z" fill="#252E57"/>
</svg>
