<svg width="160" height="160" viewBox="0 0 160 160" fill="none" xmlns="http://www.w3.org/2000/svg">
<path fill-rule="evenodd" clip-rule="evenodd" d="M120 79.9951C120 94.8008 111.956 107.728 100 114.644L100 129.995L120 129.995L120 79.9951Z" stroke="#5F8BFF" stroke-width="2"/>
<path d="M99.9999 79.9951C99.9999 91.041 91.0458 99.9951 79.9999 99.9951C68.954 99.9951 59.9999 91.041 59.9999 79.9951C59.9999 68.9492 68.954 59.9951 79.9999 59.9951C91.0458 59.9951 99.9999 68.9492 99.9999 79.9951ZM120 79.9951C120 57.9038 102.091 39.9951 79.9999 39.9951H30L30 59.9951H45.3514C41.9481 65.8784 39.9999 72.7095 39.9999 79.9951C39.9999 102.086 57.9086 119.995 79.9999 119.995C87.2855 119.995 94.1166 118.047 99.9999 114.644C111.956 107.728 120 94.8008 120 79.9951Z" stroke="#5F8BFF" stroke-width="2"/>
<path d="M45 59.9951L80 59.9951" stroke="#5F8BFF" stroke-width="2"/>
<path d="M125 79.9951L35 79.9951" stroke="#252E57" stroke-dasharray="23 23"/>
<path d="M80.0049 125L80.0049 35" stroke="#252E57" stroke-dasharray="23 23"/>
<path d="M20.6667 50.625C21.0119 50.625 21.2917 50.3452 21.2917 50C21.2917 49.6548 21.0119 49.375 20.6667 49.375L12.9584 49.375L12.9584 45C12.9584 44.7472 12.8061 44.5193 12.5726 44.4226C12.339 44.3259 12.0702 44.3793 11.8915 44.5581L6.89147 49.5581C6.77426 49.6753 6.70841 49.8343 6.70841 50C6.70841 50.1658 6.77426 50.3247 6.89147 50.442L11.8915 55.442C12.0702 55.6207 12.339 55.6742 12.5726 55.5774C12.8061 55.4807 12.9584 55.2528 12.9584 55L12.9584 50.625L20.6667 50.625Z" fill="#252E57"/>
<path d="M110.625 152.667C110.625 153.012 110.345 153.292 110 153.292C109.655 153.292 109.375 153.012 109.375 152.667L109.375 144.958L105 144.958C104.747 144.958 104.519 144.806 104.423 144.573C104.326 144.339 104.379 144.07 104.558 143.892L109.558 138.892C109.675 138.774 109.834 138.708 110 138.708C110.166 138.708 110.325 138.774 110.442 138.892L115.442 143.892C115.621 144.07 115.674 144.339 115.577 144.573C115.481 144.806 115.253 144.958 115 144.958L110.625 144.958L110.625 152.667Z" fill="#252E57"/>
</svg>
