<svg width="160" height="160" viewBox="0 0 160 160" fill="none" xmlns="http://www.w3.org/2000/svg">
<path fill-rule="evenodd" clip-rule="evenodd" d="M40 80.0981L40 100.005L45.3515 100.005C44.1167 97.8708 43.074 95.6118 42.246 93.2518C41.9323 92.3579 41.6494 91.4495 41.3987 90.5278C40.4945 87.2034 40.0083 83.7069 40 80.0981ZM60 120.005L60 122.324L60 130L40 130L40 120.005L60 120.005Z" stroke="#5F8BFF" stroke-width="2"/>
<path d="M42.3463 93.5341C42.3125 93.4402 42.2792 93.3461 42.2461 93.2519C42.0707 92.7522 41.9049 92.2479 41.749 91.7392C42.3237 93.6148 43.0326 95.4317 43.8644 97.1787C43.3007 95.9948 42.7935 94.7787 42.3463 93.5341ZM42.3463 93.5341C42.5987 94.2365 42.8702 94.9299 43.1602 95.6136" stroke="#5F8BFF" stroke-width="2"/>
<path d="M45 100.005L80 100.005" stroke="#5F8BFF" stroke-width="2"/>
<path d="M125 80.0049L35 80.0049" stroke="#252E57" stroke-dasharray="23 23"/>
<path d="M80.0049 35L80.0049 125" stroke="#252E57" stroke-dasharray="23 23"/>
<path d="M120 80.0049C120 102.096 102.091 120.005 79.9999 120.005L60 120.005L40 120.005L30 120.005L30 100.005L40 100.005L45.3515 100.005C44.1662 97.956 43.1576 95.7921 42.3461 93.5341C42.3124 93.4402 42.279 93.3462 42.246 93.2519C41.9322 92.358 41.6494 91.4496 41.3987 90.5279C40.4867 87.1749 39.9999 83.6467 39.9999 80.0049C39.9999 57.9136 57.9086 40.0049 79.9999 40.0049C87.2855 40.0049 94.1166 41.9531 99.9999 45.3565C111.956 52.2725 120 65.1992 120 80.0049ZM79.9999 60.0049C91.0458 60.0049 99.9999 68.959 99.9999 80.0049C99.9999 91.0508 91.0458 100.005 79.9999 100.005C68.954 100.005 59.9999 91.0508 59.9999 80.0049C59.9999 68.959 68.954 60.0049 79.9999 60.0049Z" stroke="#5F8BFF" stroke-width="2"/>
<path d="M20.6667 109.375C21.0119 109.375 21.2917 109.655 21.2917 110C21.2917 110.345 21.0119 110.625 20.6667 110.625L12.9584 110.625L12.9584 115C12.9584 115.253 12.8061 115.481 12.5726 115.577C12.339 115.674 12.0702 115.621 11.8915 115.442L6.89147 110.442C6.77426 110.325 6.70842 110.166 6.70842 110C6.70842 109.834 6.77426 109.675 6.89147 109.558L11.8915 104.558C12.0702 104.379 12.339 104.326 12.5726 104.423C12.8061 104.519 12.9584 104.747 12.9584 105L12.9584 109.375L20.6667 109.375Z" fill="#252E57"/>
<path d="M49.375 152.667C49.375 153.012 49.6548 153.292 50 153.292C50.3452 153.292 50.625 153.012 50.625 152.667L50.625 144.958L55 144.958C55.2528 144.958 55.4807 144.806 55.5774 144.573C55.6742 144.339 55.6207 144.07 55.442 143.892L50.442 138.892C50.3247 138.774 50.1658 138.708 50 138.708C49.8343 138.708 49.6753 138.774 49.5581 138.892L44.5581 143.892C44.3793 144.07 44.3259 144.339 44.4226 144.573C44.5193 144.806 44.7472 144.958 45 144.958L49.375 144.958L49.375 152.667Z" fill="#252E57"/>
</svg>
