<svg width="160" height="160" viewBox="0 0 160 160" fill="none" xmlns="http://www.w3.org/2000/svg">
<path fill-rule="evenodd" clip-rule="evenodd" d="M120.001 80C120.001 65.1943 111.957 52.2676 100.001 45.3516L100.001 30L120.001 30L120.001 80Z" stroke="#5F8BFF" stroke-width="2"/>
<path d="M80.0056 60.0001C68.9597 60.0001 60.0056 68.9542 60.0056 80.0001C60.0056 91.046 68.9597 100 80.0056 100C91.0515 100 100.006 91.046 100.006 80.0001C100.006 68.9542 91.0515 60.0001 80.0056 60.0001ZM80.0056 40.0001C102.097 40.0001 120.006 57.9088 120.006 80.0001L120.006 130L100.006 130L100.006 114.649C94.1223 118.052 87.2913 120 80.0056 120C57.9143 120 40.0056 102.091 40.0056 80.0001C40.0056 72.7145 41.9539 65.8834 45.3572 60.0001C52.2732 48.0441 65.2 40.0001 80.0056 40.0001Z" stroke="#5F8BFF" stroke-width="2"/>
<path d="M100.006 115V80" stroke="#5F8BFF" stroke-width="2"/>
<path d="M80.0056 35V125" stroke="#252E57" stroke-dasharray="23 23"/>
<path d="M35.0007 79.9951L125.001 79.9951" stroke="#252E57" stroke-dasharray="23 23"/>
<path d="M109.376 7.3335C109.376 6.98832 109.656 6.7085 110.001 6.7085C110.346 6.7085 110.626 6.98832 110.626 7.3335L110.626 15.0418L115.001 15.0418C115.254 15.0418 115.481 15.1941 115.578 15.4277C115.675 15.6612 115.621 15.93 115.443 16.1088L110.443 21.1088C110.325 21.226 110.166 21.2918 110.001 21.2918C109.835 21.2918 109.676 21.226 109.559 21.1088L104.559 16.1088C104.38 15.93 104.327 15.6612 104.423 15.4277C104.52 15.1941 104.748 15.0418 105.001 15.0418L109.376 15.0418L109.376 7.3335Z" fill="#252E57"/>
<path d="M109.376 139.333C109.376 138.988 109.656 138.708 110.001 138.708C110.346 138.708 110.626 138.988 110.626 139.333L110.626 147.042L115.001 147.042C115.254 147.042 115.481 147.194 115.578 147.428C115.675 147.661 115.621 147.93 115.443 148.109L110.443 153.109C110.325 153.226 110.166 153.292 110.001 153.292C109.835 153.292 109.676 153.226 109.559 153.109L104.559 148.109C104.38 147.93 104.327 147.661 104.423 147.428C104.52 147.194 104.748 147.042 105.001 147.042L109.376 147.042L109.376 139.333Z" fill="#252E57"/>
</svg>
