<svg width="160" height="160" viewBox="0 0 160 160" fill="none" xmlns="http://www.w3.org/2000/svg">
<path fill-rule="evenodd" clip-rule="evenodd" d="M79.9998 40C94.8054 40 107.732 48.0439 114.648 60L130 60L130 40L79.9998 40Z" stroke="#5F8BFF" stroke-width="2"/>
<path d="M99.9999 79.9951C99.9999 91.041 91.0458 99.9951 79.9999 99.9951C68.954 99.9951 59.9999 91.041 59.9999 79.9951C59.9999 68.9492 68.954 59.9951 79.9999 59.9951C91.0458 59.9951 99.9999 68.9492 99.9999 79.9951ZM120 79.9951C120 57.9038 102.091 39.9951 79.9999 39.9951L30 39.9951L30 59.9951L45.3514 59.9951C41.9481 65.8784 39.9999 72.7095 39.9999 79.9951C39.9999 102.086 57.9086 119.995 79.9999 119.995C87.2855 119.995 94.1166 118.047 99.9999 114.644C111.956 107.728 120 94.8008 120 79.9951Z" stroke="#5F8BFF" stroke-width="2"/>
<path d="M45 59.9951L80 59.9951" stroke="#5F8BFF" stroke-width="2"/>
<path d="M125 79.9951L35 79.9951" stroke="#252E57" stroke-dasharray="23 23"/>
<path d="M80.0049 125V35" stroke="#252E57" stroke-dasharray="23 23"/>
<path d="M152.667 50.625C153.012 50.625 153.292 50.3452 153.292 50C153.292 49.6548 153.012 49.375 152.667 49.375L144.958 49.375L144.958 45C144.958 44.7472 144.806 44.5193 144.572 44.4226C144.339 44.3259 144.07 44.3793 143.891 44.5581L138.891 49.5581C138.774 49.6753 138.708 49.8343 138.708 50C138.708 50.1658 138.774 50.3248 138.891 50.442L143.891 55.442C144.07 55.6207 144.339 55.6742 144.572 55.5774C144.806 55.4807 144.958 55.2528 144.958 55L144.958 50.625L152.667 50.625Z" fill="#252E57"/>
<path d="M20.6665 50.625C21.0117 50.625 21.2915 50.3452 21.2915 50C21.2915 49.6548 21.0117 49.375 20.6665 49.375L12.9582 49.375L12.9582 45C12.9582 44.7472 12.8059 44.5193 12.5723 44.4226C12.3388 44.3259 12.07 44.3793 11.8912 44.5581L6.89123 49.5581C6.77402 49.6753 6.70817 49.8343 6.70817 50C6.70817 50.1658 6.77402 50.3248 6.89123 50.442L11.8912 55.442C12.07 55.6207 12.3388 55.6742 12.5723 55.5774C12.8059 55.4807 12.9582 55.2528 12.9582 55L12.9582 50.625L20.6665 50.625Z" fill="#252E57"/>
</svg>
