<svg width="160" height="160" viewBox="0 0 160 160" fill="none" xmlns="http://www.w3.org/2000/svg">
<path fill-rule="evenodd" clip-rule="evenodd" d="M40.0007 80C40.0007 65.1943 48.0447 52.2676 60.0007 45.3516L60.0007 30L40.0007 30L40.0007 80Z" stroke="#5F8BFF" stroke-width="2"/>
<path d="M80.0056 100.001C68.9597 100.001 60.0056 91.0468 60.0056 80.0009C60.0056 68.955 68.9597 60.0009 80.0056 60.0009C91.0515 60.0009 100.006 68.955 100.006 80.0009C100.006 91.0468 91.0515 100.001 80.0056 100.001ZM80.0056 120.001C102.097 120.001 120.006 102.092 120.006 80.0009L120.006 30.001L100.006 30.001L100.006 45.3524C94.1223 41.9491 87.2913 40.0009 80.0056 40.0009C57.9143 40.0009 40.0056 57.9096 40.0056 80.0009C40.0056 87.2865 41.9539 94.1176 45.3572 100.001C52.2732 111.957 65.2 120.001 80.0056 120.001Z" stroke="#5F8BFF" stroke-width="2"/>
<path d="M100.006 45.001V80.001" stroke="#5F8BFF" stroke-width="2"/>
<path d="M80.0056 125.001V35.001" stroke="#252E57" stroke-dasharray="23 23"/>
<path d="M35.0007 80.0059L125.001 80.0059" stroke="#252E57" stroke-dasharray="23 23"/>
<path d="M109.375 20.6665C109.375 21.0117 109.655 21.2915 110 21.2915C110.346 21.2915 110.625 21.0117 110.625 20.6665L110.625 12.9582L115 12.9582C115.253 12.9582 115.481 12.8059 115.578 12.5723C115.675 12.3388 115.621 12.07 115.442 11.8912L110.442 6.89123C110.325 6.77402 110.166 6.70817 110 6.70817C109.835 6.70817 109.676 6.77402 109.559 6.89123L104.559 11.8912C104.38 12.07 104.326 12.3388 104.423 12.5723C104.52 12.8059 104.748 12.9582 105 12.9582L109.375 12.9582L109.375 20.6665Z" fill="#252E57"/>
<path d="M50.625 7.3335C50.625 6.98832 50.3452 6.7085 50 6.7085C49.6548 6.7085 49.375 6.98832 49.375 7.3335L49.375 15.0418L45 15.0418C44.7472 15.0418 44.5193 15.1941 44.4226 15.4277C44.3259 15.6612 44.3793 15.93 44.5581 16.1088L49.5581 21.1088C49.6753 21.226 49.8343 21.2918 50 21.2918C50.1658 21.2918 50.3248 21.226 50.442 21.1088L55.442 16.1088C55.6207 15.93 55.6742 15.6612 55.5774 15.4277C55.4807 15.1941 55.2528 15.0418 55 15.0418L50.625 15.0418L50.625 7.3335Z" fill="#252E57"/>
</svg>
