<svg width="160" height="160" viewBox="0 0 160 160" fill="none" xmlns="http://www.w3.org/2000/svg">
<path fill-rule="evenodd" clip-rule="evenodd" d="M120 80C120 94.8057 111.956 107.732 99.9995 114.648L99.9995 130L120 130L120 80Z" stroke="#5F8BFF" stroke-width="2"/>
<path d="M79.9946 59.9996C91.0405 59.9996 99.9946 68.9537 99.9946 79.9996C99.9946 91.0455 91.0405 99.9996 79.9946 99.9996C68.9487 99.9996 59.9946 91.0455 59.9946 79.9996C59.9946 68.9537 68.9487 59.9996 79.9946 59.9996ZM79.9946 39.9996C57.9033 39.9996 39.9946 57.9083 39.9946 79.9996L39.9946 130L59.9946 130L59.9946 114.648C65.8779 118.051 72.709 120 79.9946 120C102.086 120 119.995 102.091 119.995 79.9996C119.995 72.714 118.046 65.8829 114.643 59.9996C107.727 48.0436 94.8003 39.9996 79.9946 39.9996Z" stroke="#5F8BFF" stroke-width="2"/>
<path d="M59.9946 115V79.9995" stroke="#5F8BFF" stroke-width="2"/>
<path d="M79.9946 34.9995V125" stroke="#252E57" stroke-dasharray="23 23"/>
<path d="M125 79.9946L34.9995 79.9946" stroke="#252E57" stroke-dasharray="23 23"/>
<path d="M50.6245 139.334C50.6245 138.989 50.3447 138.709 49.9995 138.709C49.6544 138.709 49.3745 138.989 49.3745 139.334L49.3745 147.042L44.9995 147.042C44.7467 147.042 44.5188 147.195 44.4221 147.428C44.3254 147.662 44.3788 147.931 44.5576 148.109L49.5576 153.109C49.6748 153.226 49.8338 153.292 49.9995 153.292C50.1653 153.292 50.3243 153.226 50.4415 153.109L55.4415 148.109C55.6202 147.931 55.6737 147.662 55.577 147.428C55.4802 147.195 55.2523 147.042 54.9995 147.042L50.6245 147.042L50.6245 139.334Z" fill="#252E57"/>
<path d="M109.375 152.667C109.375 153.012 109.655 153.292 110 153.292C110.345 153.292 110.625 153.012 110.625 152.667L110.625 144.959L115 144.959C115.253 144.959 115.481 144.806 115.577 144.573C115.674 144.339 115.621 144.07 115.442 143.892L110.442 138.892C110.325 138.775 110.166 138.709 110 138.709C109.834 138.709 109.675 138.775 109.558 138.892L104.558 143.892C104.379 144.07 104.326 144.339 104.423 144.573C104.519 144.806 104.747 144.959 105 144.959L109.375 144.959L109.375 152.667Z" fill="#252E57"/>
</svg>
