<svg width="160" height="160" viewBox="0 0 160 160" fill="none" xmlns="http://www.w3.org/2000/svg">
<path fill-rule="evenodd" clip-rule="evenodd" d="M120 80.0049C120 65.1992 111.956 52.2725 100 45.3564L100 30.0049L120 30.0049L120 80.0049Z" stroke="#5F8BFF" stroke-width="2"/>
<path d="M99.9999 80.0049C99.9999 68.959 91.0458 60.0049 79.9999 60.0049C68.954 60.0049 59.9999 68.959 59.9999 80.0049C59.9999 91.0508 68.954 100.005 79.9999 100.005C91.0458 100.005 99.9999 91.0508 99.9999 80.0049ZM120 80.0049C120 102.096 102.091 120.005 79.9999 120.005L30 120.005L30 100.005L45.3514 100.005C41.9481 94.1216 39.9999 87.2905 39.9999 80.0049C39.9999 57.9136 57.9086 40.0049 79.9999 40.0049C87.2855 40.0049 94.1166 41.9531 99.9999 45.3565C111.956 52.2725 120 65.1992 120 80.0049Z" stroke="#5F8BFF" stroke-width="2"/>
<path d="M45 100.005L80 100.005" stroke="#5F8BFF" stroke-width="2"/>
<path d="M125 80.0049L35 80.0049" stroke="#252E57" stroke-dasharray="23 23"/>
<path d="M80.0049 35V125" stroke="#252E57" stroke-dasharray="23 23"/>
<path d="M20.6667 109.375C21.0119 109.375 21.2917 109.655 21.2917 110C21.2917 110.345 21.0119 110.625 20.6667 110.625L12.9584 110.625L12.9584 115C12.9584 115.253 12.8061 115.481 12.5726 115.577C12.339 115.674 12.0702 115.621 11.8915 115.442L6.89147 110.442C6.77426 110.325 6.70842 110.166 6.70842 110C6.70842 109.834 6.77426 109.675 6.89147 109.558L11.8915 104.558C12.0702 104.379 12.339 104.326 12.5726 104.423C12.8061 104.519 12.9584 104.747 12.9584 105L12.9584 109.375L20.6667 109.375Z" fill="#252E57"/>
<path d="M110.625 7.33317C110.625 6.98799 110.345 6.70817 110 6.70817C109.655 6.70817 109.375 6.98799 109.375 7.33317L109.375 15.0415L105 15.0415C104.747 15.0415 104.519 15.1938 104.423 15.4273C104.326 15.6609 104.379 15.9297 104.558 16.1084L109.558 21.1084C109.675 21.2257 109.834 21.2915 110 21.2915C110.166 21.2915 110.325 21.2257 110.442 21.1084L115.442 16.1084C115.621 15.9297 115.674 15.6609 115.577 15.4273C115.481 15.1938 115.253 15.0415 115 15.0415L110.625 15.0415L110.625 7.33317Z" fill="#252E57"/>
</svg>
