<svg width="300" height="198" viewBox="0 0 300 198" fill="none" xmlns="http://www.w3.org/2000/svg">
<g opacity="0.1">
<path d="M26.6944 71.4953C26.3497 69.3132 27.8395 67.2664 30.0218 66.9235L117.187 53.2292C119.37 52.8864 121.418 54.3774 121.763 56.5594L129.265 104.053C129.61 106.235 128.12 108.281 125.938 108.624L70.0885 117.399L46.0365 121.177L38.7721 122.319C36.5898 122.661 34.5412 121.171 34.1965 118.988L26.6944 71.4953Z" fill="#5F5D5E"/>
<path d="M46.0365 121.177L47.9542 133.317C48.0742 134.077 48.9716 134.423 49.5703 133.941L70.0885 117.399L46.0365 121.177Z" fill="#5F5D5E"/>
</g>
<path d="M30.4366 65.8568C30.0919 63.6747 31.5817 61.6278 33.764 61.285L120.929 47.5907C123.112 47.2478 125.16 48.7388 125.505 50.9209L133.007 98.414C133.352 100.596 131.862 102.643 129.68 102.986L73.8307 111.76L49.7787 115.539L42.5143 116.68C40.3319 117.023 38.2834 115.532 37.9387 113.35L30.4366 65.8568Z" fill="white"/>
<path d="M49.7787 115.539L51.6964 127.679C51.8164 128.439 52.7138 128.785 53.3125 128.302L73.8307 111.76L49.7787 115.539Z" fill="white"/>
<ellipse cx="4.86579" cy="4.85325" rx="4.86579" ry="4.85325" transform="matrix(0.987883 -0.155203 0.156027 0.987753 76.2422 78.6294)" fill="#38AA70"/>
<ellipse cx="4.86579" cy="4.85325" rx="4.86579" ry="4.85325" transform="matrix(0.987883 -0.155203 0.156027 0.987753 92.2617 76.1122)" fill="#38AA70"/>
<ellipse cx="4.86579" cy="4.85325" rx="4.86579" ry="4.85325" transform="matrix(0.987883 -0.155203 0.156027 0.987753 60.2148 81.1467)" fill="#38AA70"/>
<path d="M4.82241 97.5042C7.48576 97.5042 9.64483 95.3498 9.64483 92.6923C9.64483 90.0347 7.48576 87.8804 4.82241 87.8804C2.15907 87.8804 0 90.0347 0 92.6923C0 95.3498 2.15907 97.5042 4.82241 97.5042Z" fill="#FFCD4A"/>
<path d="M74.5412 159.659C77.2045 159.659 79.3636 157.505 79.3636 154.847C79.3636 152.19 77.2045 150.036 74.5412 150.036C71.8778 150.036 69.7188 152.19 69.7188 154.847C69.7188 157.505 71.8778 159.659 74.5412 159.659Z" fill="#FFCD4A"/>
<path d="M288.908 105.771C295.034 105.771 300 100.823 300 94.7188C300 88.6148 295.034 83.6665 288.908 83.6665C282.782 83.6665 277.816 88.6148 277.816 94.7188C277.816 100.823 282.782 105.771 288.908 105.771Z" fill="#FFCD4A"/>
<rect opacity="0.1" width="122.533" height="153.81" rx="4" transform="matrix(0.997085 0.0762973 -0.0765277 0.997067 126.793 19.9565)" fill="#5F5D5E"/>
<rect width="122.533" height="153.81" rx="4" transform="matrix(0.997085 0.0762974 -0.0765278 0.997067 133.598 14.1371)" fill="#2AABEE"/>
<rect width="116.195" height="147.487" rx="2" transform="matrix(0.997085 0.0762974 -0.0765278 0.997067 136.516 17.5311)" fill="white"/>
<rect width="69.0986" height="19.3459" rx="2" transform="matrix(0.997085 0.0762974 -0.0765278 0.997067 160.398 9.40869)" fill="#FFCD4A"/>
<rect opacity="0.1" width="69.0986" height="19.3459" rx="2" transform="matrix(0.997085 0.0762974 -0.0765278 0.997067 160.398 9.40869)" fill="#5F5D5E"/>
<rect width="69.0986" height="16.0047" rx="2" transform="matrix(0.997085 0.0762974 -0.0765278 0.997067 160.398 9.40869)" fill="#FFCD4A"/>
<rect width="49.2075" height="19.3459" rx="2" transform="matrix(0.997085 0.0762974 -0.0765278 0.997067 170.895 3.25317)" fill="#FFCD4A"/>
<rect width="66.1824" height="2.88714" rx="1" transform="matrix(-0.997085 -0.0762974 0.0765279 -0.997067 238.914 58.8986)" fill="#38AA70"/>
<rect width="27.2267" height="2.88714" rx="1" transform="matrix(-0.997085 -0.0762974 0.0765279 -0.997067 197.652 87.4382)" fill="#F5F5F5"/>
<rect width="42.2048" height="2.88714" rx="1" transform="matrix(-0.997085 -0.0762974 0.0765279 -0.997067 210.164 120.093)" fill="#F5F5F5"/>
<rect width="52.5833" height="2.88714" rx="1" transform="matrix(-0.997085 -0.0763032 0.0765333 -0.997067 224.469 69.3754)" fill="#38AA70"/>
<rect width="60.4646" height="2.88714" rx="1" transform="matrix(-0.997085 -0.0763032 0.0765333 -0.997067 229.906 101.489)" fill="#F5F5F5"/>
<rect width="63.7408" height="2.88714" rx="1" transform="matrix(-0.997085 -0.0763032 0.0765333 -0.997067 230.754 133.25)" fill="#F5F5F5"/>
<rect width="21.1264" height="21.0699" rx="1" transform="matrix(-0.997085 -0.0762974 0.0765279 -0.997067 164.398 68.265)" fill="#38AA70"/>
<mask id="path-23-inside-1_1101_14651" fill="white">
<rect width="21.1264" height="21.0699" rx="1" transform="matrix(-0.997085 -0.0762974 0.0765279 -0.997067 161.977 99.7769)"/>
</mask>
<rect width="21.1264" height="21.0699" rx="1" transform="matrix(-0.997085 -0.0762974 0.0765279 -0.997067 161.977 99.7769)" stroke="#F5F5F5" stroke-width="4" mask="url(#path-23-inside-1_1101_14651)"/>
<mask id="path-24-inside-2_1101_14651" fill="white">
<rect width="21.1264" height="21.0699" rx="1" transform="matrix(-0.997085 -0.0762974 0.0765279 -0.997067 159.555 131.289)"/>
</mask>
<rect width="21.1264" height="21.0699" rx="1" transform="matrix(-0.997085 -0.0762974 0.0765279 -0.997067 159.555 131.289)" stroke="#F5F5F5" stroke-width="4" mask="url(#path-24-inside-2_1101_14651)"/>
<rect width="18.1322" height="2.88714" rx="1" transform="matrix(-0.997085 -0.0763032 0.0765333 -0.997067 190.559 60.989)" fill="#38AA70"/>
<rect width="45.9556" height="2.88714" rx="1" transform="matrix(-0.997085 -0.0763032 0.0765333 -0.997067 215.879 94.6239)" fill="#F5F5F5"/>
<rect width="34.7199" height="2.88714" rx="1" transform="matrix(-0.997085 -0.0763032 0.0765333 -0.997067 202.254 125.278)" fill="#F5F5F5"/>
<path d="M148.313 56.9963L151.716 60.9544L160.788 53.1953" stroke="white" stroke-width="2" stroke-linecap="round" stroke-linejoin="round"/>
<path opacity="0.1" d="M221.141 110.631C233.948 107.209 246.92 109.468 257.08 115.88C257.968 116.44 258.533 117.316 258.726 118.268C265.956 123.499 271.453 131.014 273.909 140.155L274.977 144.127C276.033 144.41 276.915 145.23 277.219 146.36L281.593 162.642C281.951 163.975 281.398 165.335 280.316 166.071C280.664 169.027 280.688 172.092 280.05 175.066C279.262 178.733 277.484 182.261 274.199 185.296C271.774 187.537 268.596 189.445 264.534 190.967C264.126 192.83 262.715 194.406 260.741 194.934L251.558 197.388C248.74 198.141 245.844 196.473 245.089 193.663C244.334 190.853 246.007 187.965 248.824 187.212L258.007 184.758C259.805 184.278 261.633 184.784 262.918 185.943C266.34 184.633 268.821 183.085 270.609 181.433C273.033 179.194 274.307 176.657 274.886 173.961C275.324 171.92 275.368 169.79 275.174 167.628L274.5 167.808C273.504 170.068 271.528 171.875 268.95 172.564L265.89 173.382C264.199 173.834 262.461 172.834 262.008 171.148L255.993 148.761C255.54 147.075 256.544 145.342 258.234 144.89L261.295 144.072C263.871 143.383 266.488 143.962 268.483 145.421L269.764 145.079L268.808 141.518C266.707 133.7 261.991 127.195 255.746 122.626C254.87 122.781 253.937 122.624 253.126 122.113C244.698 116.793 233.851 114.869 223.055 117.754C212.258 120.639 203.829 127.714 199.197 136.524C198.751 137.372 198.019 137.974 197.182 138.277C194.064 145.347 193.243 153.333 195.343 161.15L196.3 164.711L197.582 164.368C198.578 162.108 200.555 160.302 203.133 159.614L206.193 158.795C207.884 158.343 209.622 159.345 210.075 161.031L216.09 183.417C216.543 185.103 215.539 186.836 213.849 187.287L210.788 188.106C208.211 188.794 205.594 188.215 203.598 186.754L198.743 188.052C197.053 188.504 195.315 187.503 194.862 185.818L190.487 169.536C190.184 168.407 190.536 167.258 191.309 166.486L190.241 162.513C187.785 153.37 188.777 144.119 192.418 135.983C192.109 135.063 192.161 134.024 192.648 133.098C198.232 122.479 208.333 114.054 221.141 110.631Z" fill="#5F5D5E"/>
<path d="M273.826 153.113L269.862 138.358C264.762 119.376 244.251 108.12 223.834 113.576C203.417 119.032 191.297 139.008 196.397 157.989L200.361 172.744L195.26 174.107L191.295 159.352C185.373 137.309 199.493 114.627 222.467 108.488C245.441 102.349 269.041 114.95 274.964 136.994L278.928 151.749C280.381 157.157 282.63 164.794 281.104 171.905C280.317 175.572 278.538 179.101 275.254 182.136C271.999 185.143 267.392 187.551 261.111 189.23L259.744 184.142C265.452 182.616 269.209 180.54 271.663 178.273C274.087 176.033 275.361 173.497 275.94 170.801C277.145 165.185 275.381 158.898 273.826 153.113Z" fill="#BEBEBE"/>
<path d="M222.196 107.47C235.004 104.048 247.976 106.308 258.135 112.72C259.861 113.809 260.374 116.087 259.282 117.808C258.19 119.529 255.907 120.041 254.181 118.952C245.753 113.632 234.907 111.708 224.11 114.593C213.313 117.478 204.885 124.553 200.253 133.363C199.304 135.166 197.07 135.861 195.262 134.916C193.453 133.97 192.756 131.741 193.704 129.938C199.288 119.318 209.388 110.893 222.196 107.47Z" fill="#A2A1A1"/>
<path d="M259.062 181.598C261.88 180.845 264.776 182.512 265.531 185.322C266.286 188.132 264.614 191.021 261.796 191.773L252.613 194.227C249.795 194.98 246.899 193.313 246.144 190.503C245.389 187.693 247.061 184.805 249.879 184.052L259.062 181.598Z" fill="#A2A1A1"/>
<path d="M191.543 166.376C191.09 164.69 192.093 162.957 193.784 162.505L201.946 160.324C203.637 159.872 205.375 160.872 205.828 162.558L210.202 178.84C210.655 180.526 209.652 182.259 207.961 182.71L199.798 184.892C198.108 185.343 196.37 184.343 195.917 182.657L191.543 166.376Z" fill="#A2A1A1"/>
<path d="M278.273 143.2C277.82 141.514 276.083 140.513 274.392 140.965L266.229 143.146C264.539 143.598 263.536 145.331 263.989 147.017L268.363 163.298C268.816 164.984 270.554 165.985 272.244 165.533L280.407 163.352C282.097 162.9 283.101 161.167 282.648 159.481L278.273 143.2Z" fill="#A2A1A1"/>
<path d="M198.211 166.775C197.003 162.279 199.678 157.658 204.186 156.453L207.247 155.635C208.938 155.183 210.675 156.184 211.128 157.87L217.143 180.257C217.596 181.943 216.593 183.675 214.902 184.127L211.841 184.945C207.333 186.15 202.699 183.482 201.491 178.986L198.211 166.775Z" fill="#BEBEBE"/>
<path d="M272.699 146.871C271.491 142.375 266.857 139.707 262.349 140.911L259.288 141.729C257.597 142.181 256.594 143.914 257.047 145.6L263.062 167.987C263.515 169.673 265.253 170.673 266.943 170.222L270.004 169.404C274.512 168.199 277.188 163.578 275.98 159.082L272.699 146.871Z" fill="#BEBEBE"/>
<ellipse opacity="0.1" cx="112.029" cy="119.431" rx="21.1268" ry="21.0695" fill="#5F5D5E"/>
<ellipse cx="115.142" cy="115.271" rx="21.1268" ry="21.0695" fill="#FFCD4A"/>
<path d="M107.982 112.94C107.125 109.806 108.946 106.602 112.046 105.788C115.147 104.974 118.358 106.857 119.215 109.991C119.724 111.853 119.287 113.732 118.211 115.122C117.463 116.086 115.462 118.278 116.393 121.685" stroke="white" stroke-width="2" stroke-linecap="round" stroke-linejoin="round"/>
<path d="M117.559 126.165L117.562 126.176" stroke="white" stroke-width="3" stroke-linecap="round" stroke-linejoin="round"/>
</svg>
