<svg width="376" height="181" viewBox="0 0 376 181" fill="none" xmlns="http://www.w3.org/2000/svg">
<path opacity="0.1" d="M167.251 18.6004L46.9225 5.89221C45.686 5.76163 44.5782 6.66298 44.4483 7.90546L28.0144 165.019C27.8844 166.261 28.7815 167.374 30.018 167.505L150.347 180.213C151.583 180.343 152.691 179.442 152.821 178.2L169.255 21.0865C169.385 19.844 168.488 18.7309 167.251 18.6004Z" fill="#5F5D5E"/>
<path d="M174.005 12.9446L53.6764 0.236453C52.4399 0.105863 51.3321 1.00722 51.2022 2.2497L34.7683 159.363C34.6383 160.605 35.5354 161.718 36.7719 161.849L157.101 174.557C158.337 174.688 159.445 173.786 159.575 172.544L176.009 15.4307C176.139 14.1883 175.242 13.0752 174.005 12.9446Z" fill="white"/>
<path d="M119.029 82.5429L101.109 80.6541V80.6484L119.029 82.5429Z" stroke="#8ECFF1" stroke-miterlimit="10"/>
<path d="M119.029 82.5429L101.109 80.6541V80.6484L119.029 82.5429Z" stroke="#8ECFF1" stroke-miterlimit="10"/>
<path d="M119.029 82.5429L101.109 80.6541V80.6484L119.029 82.5429Z" stroke="#8ECFF1" stroke-miterlimit="10"/>
<path d="M96.3346 80.1451V80.1507L78.9102 78.3071L96.3346 80.1451Z" stroke="#8ECFF1" stroke-miterlimit="10"/>
<path d="M78.4347 37.652L77.1515 49.9295L76.3355 57.7281L74.2362 77.8154L56.3672 75.9266L58.4664 55.8449L59.2825 48.0407L60.5657 35.7632L78.4347 37.652Z" fill="#FFCD4A"/>
<path d="M81.0183 58.2194L78.9141 78.3032L96.3378 80.1465L98.4421 60.0627L81.0183 58.2194Z" fill="#38AA70"/>
<path d="M121.944 54.6626L121.128 62.4611L119.029 82.5428L101.109 80.6483L103.214 60.5723L104.03 52.7681L121.944 54.6626Z" fill="#8ECFF1"/>
<path d="M94.6248 21.1783C94.5629 21.1783 94.5066 21.1783 94.4447 21.167L62.4493 17.7852C61.5207 17.6891 60.8509 16.8521 60.9466 15.919C61.0423 14.9859 61.8865 14.3072 62.8038 14.409L94.7992 17.7909C95.7279 17.887 96.3976 18.724 96.3019 19.6571C96.2119 20.528 95.4802 21.1783 94.6248 21.1783Z" fill="#38AA70"/>
<path d="M81.1695 93.808C81.1076 93.808 81.0513 93.808 80.9894 93.7967L54.7852 91.0313C53.8566 90.9352 53.1869 90.0982 53.2825 89.1651C53.3782 88.232 54.2224 87.559 55.1398 87.6551L81.3439 90.4205C82.2726 90.5167 82.9423 91.3536 82.8466 92.2868C82.7566 93.1577 82.0249 93.808 81.1695 93.808Z" fill="#38AA70"/>
<path d="M153.161 112.51C153.099 112.51 153.043 112.51 152.981 112.499L53.6407 102.008C52.7121 101.912 52.0423 101.075 52.138 100.142C52.2337 99.209 53.0779 98.5304 53.9953 98.6322L153.336 109.123C154.264 109.219 154.934 110.056 154.838 110.989C154.748 111.86 154.017 112.51 153.161 112.51Z" fill="#E2E8F4"/>
<path d="M151.974 123.86C151.912 123.86 151.856 123.86 151.794 123.849L52.4532 113.358C51.5246 113.262 50.8548 112.425 50.9505 111.492C51.0462 110.559 51.8848 109.886 52.8078 109.982L152.148 120.473C153.077 120.569 153.747 121.406 153.651 122.339C153.561 123.21 152.829 123.86 151.974 123.86Z" fill="#E2E8F4"/>
<path d="M150.798 135.08C150.736 135.08 150.68 135.08 150.618 135.069L51.2774 124.578C50.3488 124.482 49.679 123.645 49.7747 122.712C49.8704 121.779 50.709 121.106 51.632 121.202L150.972 131.692C151.901 131.789 152.571 132.626 152.475 133.559C152.385 134.43 151.653 135.08 150.798 135.08Z" fill="#E2E8F4"/>
<path d="M138.167 145.05C138.106 145.05 138.049 145.05 137.987 145.039L50.1055 135.758C49.1769 135.662 48.5072 134.825 48.6028 133.892C48.6985 132.959 49.5371 132.28 50.4601 132.382L138.342 141.662C139.271 141.759 139.94 142.596 139.845 143.529C139.755 144.4 139.023 145.05 138.167 145.05Z" fill="#E2E8F4"/>
<path d="M160.924 38.2684C160.862 38.2684 160.806 38.2684 160.744 38.2571L72.1641 28.9034C71.2355 28.8072 70.5658 27.9703 70.6614 27.0372C70.7571 26.104 71.5957 25.4311 72.5187 25.5272L161.098 34.8809C162.027 34.9771 162.697 35.8141 162.601 36.7472C162.511 37.6181 161.779 38.2684 160.924 38.2684Z" fill="#E2E8F4"/>
<path opacity="0.1" d="M219.368 117.735L214.31 122.813C212.913 124.216 210.653 124.216 209.257 122.813L180.101 93.5166L182.077 91.5261L176.548 85.9704C164.59 94.9874 147.543 94.0311 136.666 83.1016C124.739 71.1171 124.744 51.6955 136.666 39.711C148.588 27.7317 167.916 27.7317 179.843 39.711C190.72 50.6405 191.677 67.7702 182.703 79.7859L188.232 85.3415L190.213 83.3511L219.368 112.652C220.765 114.056 220.765 116.332 219.368 117.735Z" fill="#A2A1A1"/>
<path d="M139.252 36.5978C127.33 48.5771 127.325 67.9986 139.252 79.9831C150.129 90.9126 167.176 91.8689 179.134 82.8519C180.287 81.9892 181.384 81.0329 182.429 79.9831C183.473 78.9333 184.43 77.8263 185.289 76.6674C194.262 64.6517 193.306 47.5273 182.429 36.5978C170.502 24.6133 151.174 24.6185 139.252 36.5978ZM181.405 72.7644C180.582 73.9441 179.641 75.0719 178.591 76.1269C177.541 77.1819 176.424 78.1226 175.25 78.9489C165.454 85.8662 151.841 84.9256 143.084 76.1321C133.278 66.2784 133.278 50.3025 143.084 40.4488C152.891 30.5951 168.79 30.5951 178.596 40.4488C187.353 49.2475 188.283 62.9211 181.405 72.7644Z" fill="#A2A1A1"/>
<path opacity="0.1" d="M178.593 40.4494C187.349 49.248 188.28 62.9216 181.402 72.7649C180.579 73.9446 179.638 75.0724 178.588 76.1274C177.538 77.1824 176.421 78.1231 175.247 78.9495C165.451 85.8668 151.838 84.9261 143.081 76.1326C133.275 66.2789 133.275 50.303 143.081 40.4494C152.888 30.5957 168.787 30.5957 178.593 40.4494Z" fill="white"/>
<path d="M181.36 59.8447C180.501 59.8447 179.808 59.1483 179.808 58.2856C179.808 53.1924 177.832 48.4059 174.253 44.8043C166.857 37.3724 154.822 37.3724 147.42 44.8043C146.815 45.4123 145.832 45.4123 145.227 44.8043C144.622 44.1962 144.622 43.2088 145.227 42.6007C153.834 33.9528 167.84 33.9528 176.446 42.6007C180.615 46.7896 182.911 52.3609 182.911 58.2856C182.911 59.1483 182.218 59.8447 181.36 59.8447Z" fill="white"/>
<path d="M185.288 76.6675L190.817 82.2232L184.662 88.4077L179.133 82.852C180.286 81.9893 181.383 81.033 182.427 79.9832C183.472 78.9334 184.429 77.8264 185.288 76.6675Z" fill="#5D5D5D"/>
<path d="M192.798 80.2383L221.958 109.54C223.349 110.938 223.349 113.219 221.958 114.622L216.905 119.7C215.508 121.103 213.243 121.098 211.852 119.7L182.691 90.3986L192.803 80.2383H192.798Z" fill="#A2A1A1"/>
<path opacity="0.1" d="M320.524 69.6509C333.485 69.6509 343.993 59.0927 343.993 46.0686C343.993 33.0445 333.485 22.4863 320.524 22.4863C307.562 22.4863 297.055 33.0445 297.055 46.0686C297.055 59.0927 307.562 69.6509 320.524 69.6509Z" fill="#5F5D5E"/>
<path d="M322.531 64.9497C335.493 64.9497 346 54.3916 346 41.3674C346 28.3433 335.493 17.7852 322.531 17.7852C309.57 17.7852 299.062 28.3433 299.062 41.3674C299.062 54.3916 309.57 64.9497 322.531 64.9497Z" fill="#FFCD4A"/>
<path d="M217 41.2256C219.761 41.2256 222 38.987 222 36.2256C222 33.4642 219.761 31.2256 217 31.2256C214.239 31.2256 212 33.4642 212 36.2256C212 38.987 214.239 41.2256 217 41.2256Z" fill="#FFCD4A"/>
<path d="M5 91.2256C7.76142 91.2256 10 88.987 10 86.2256C10 83.4642 7.76142 81.2256 5 81.2256C2.23857 81.2256 0 83.4642 0 86.2256C0 88.987 2.23857 91.2256 5 91.2256Z" fill="#FFCD4A"/>
<path d="M368 87.2256C372.418 87.2256 376 83.6439 376 79.2256C376 74.8073 372.418 71.2256 368 71.2256C363.582 71.2256 360 74.8073 360 79.2256C360 83.6439 363.582 87.2256 368 87.2256Z" fill="#FFCD4A"/>
<path d="M325.341 29.0802C325.887 28.4937 326.867 28.7562 327.047 29.5373L328.571 36.1506C328.64 36.4509 328.844 36.7025 329.123 36.8326L335.275 39.6979C336.002 40.0363 336.055 41.0493 335.368 41.4618L329.549 44.9545C329.285 45.113 329.108 45.3846 329.071 45.6904L328.247 52.4268C328.149 53.2224 327.203 53.5859 326.598 53.0598L321.478 48.605C321.246 48.4028 320.933 48.319 320.63 48.3779L313.969 49.6759C313.182 49.8292 312.544 49.0409 312.857 48.3032L315.512 42.0574C315.633 41.7738 315.616 41.4505 315.466 41.181L312.173 35.2469C311.784 34.546 312.337 33.6953 313.135 33.7655L319.896 34.3601C320.203 34.3871 320.505 34.2711 320.715 34.0456L325.341 29.0802Z" fill="white"/>
<path d="M199 68.7254C207.333 74.5588 227.9 85.2254 243.5 81.2254C263 76.2254 270 38.7254 253 40.2254C236 41.7254 250.813 78.8645 287 84.2256C303 86.596 310.5 70.7256 310.5 70.7256" stroke="#FFCD4A" stroke-width="2" stroke-linecap="round" stroke-dasharray="4 4"/>
</svg>
