<svg width="15" height="12" viewBox="0 0 15 12" fill="none" xmlns="http://www.w3.org/2000/svg">
<path d="M14.082 6.5H14.832V5H14.082V5.75V6.5ZM0.748698 5.75L0.218369 5.21967C-0.0745249 5.51256 -0.0745249 5.98744 0.218369 6.28033L0.748698 5.75ZM5.21837 11.2803C5.51126 11.5732 5.98613 11.5732 6.27903 11.2803C6.57192 10.9874 6.57192 10.5126 6.27903 10.2197L5.7487 10.75L5.21837 11.2803ZM6.27903 1.28033C6.57192 0.987437 6.57192 0.512564 6.27903 0.21967C5.98613 -0.0732231 5.51126 -0.0732231 5.21837 0.21967L5.7487 0.75L6.27903 1.28033ZM14.082 5.75V5L0.748698 5V5.75V6.5L14.082 6.5V5.75ZM0.748698 5.75L0.218369 6.28033L5.21837 11.2803L5.7487 10.75L6.27903 10.2197L1.27903 5.21967L0.748698 5.75ZM0.748698 5.75L1.27903 6.28033L6.27903 1.28033L5.7487 0.75L5.21837 0.21967L0.218369 5.21967L0.748698 5.75Z" fill="white"/>
</svg>
