<svg width="100" height="100" viewBox="0 0 100 100" fill="none" xmlns="http://www.w3.org/2000/svg">
<path d="M3.86126 1.42802C2.63626 1.97902 1.41126 3.60202 1.13626 5.04102C0.677255 7.55202 0.279255 7.09202 22.3863 29.261L43.0853 49.991L22.3553 70.751C10.9653 82.142 1.50326 91.787 1.31926 92.155C0.829255 93.135 0.921255 95.217 1.47226 96.411C2.42126 98.401 5.39126 99.504 7.59626 98.677C8.05526 98.493 17.8233 89.062 29.3053 77.702L50.1573 57.064L70.6743 77.61C82.4633 89.399 91.5872 98.309 92.1382 98.554C96.3022 100.361 100.497 95.89 98.4762 91.848C98.2002 91.297 88.8002 81.651 77.5633 70.414L57.1703 49.93L77.7473 29.537C99.9153 7.49101 99.3343 8.16401 98.8443 5.47001C98.2933 2.50001 94.5883 0.724015 91.8323 2.10201C91.2813 2.37701 81.7273 11.717 70.5823 22.832L50.2813 43.102L29.7043 22.525C18.3743 11.226 8.66826 1.76502 8.11726 1.48902C6.92326 0.907017 5.14726 0.87702 3.86126 1.42802Z" fill="white"/>
</svg>
