<svg width="48" height="20" viewBox="0 0 48 20" fill="none" xmlns="http://www.w3.org/2000/svg">
<path d="M44.7532 8.08877H40.9937V4.25936H39.9838V9.12097H44.7532V8.08877ZM40.493 15.7354C39.0083 15.7354 37.5569 15.287 36.3223 14.4467C35.0878 13.6065 34.1256 12.4123 33.5574 11.015C32.9893 9.61778 32.8406 8.08029 33.1303 6.59699C33.4199 5.11368 34.1349 3.75118 35.1848 2.68178C36.2346 1.61237 37.5723 0.884098 39.0285 0.58905C40.4847 0.294003 41.9941 0.445433 43.3658 1.02419C44.7375 1.60295 45.91 2.58303 46.7348 3.84052C47.5597 5.098 48 6.57641 48 8.08877C47.9892 10.1134 47.1949 12.052 45.7893 13.4836C44.3838 14.9153 42.4807 15.7245 40.493 15.7354ZM40.493 1.83986C39.2797 1.83986 38.0936 2.20635 37.0847 2.89299C36.0758 3.57963 35.2895 4.55558 34.8252 5.69742C34.3609 6.83926 34.2394 8.0957 34.4761 9.30787C34.7128 10.52 35.2971 11.6335 36.1551 12.5074C37.013 13.3813 38.1061 13.9765 39.2962 14.2176C40.4862 14.4587 41.7197 14.335 42.8407 13.862C43.9617 13.3891 44.9198 12.5881 45.5939 11.5605C46.268 10.5329 46.6278 9.32469 46.6278 8.08877C46.6285 7.26796 46.4702 6.45507 46.1622 5.6966C45.8541 4.93814 45.4023 4.24899 44.8325 3.66859C44.2627 3.08819 43.5861 2.62792 42.8415 2.31413C42.0969 2.00034 41.2988 1.83918 40.493 1.83986ZM26.0566 12.2071V0.00173703H23.5309L13.9306 12.7206V15.1471H22.5928V20H26.0566V15.1471H28.9446V12.2054L26.0566 12.2071ZM22.5928 9.3403V12.1323H20.2824C19.5613 12.1323 18.2608 12.2054 17.8285 12.2054L22.7363 5.44125C22.7363 6.02959 22.5928 7.79635 22.5928 9.3403ZM0 19.9269H13.4999V16.9121H4.54726C5.77422 11.913 13.2812 10.8094 13.2812 5.22193C13.2812 2.20714 11.2596 0 7.07295 0C4.81455 0.0185813 2.59139 0.5722 0.579307 1.61706L1.51917 4.42124C2.96315 3.75979 4.55069 3.09834 6.49878 3.09834C8.0863 3.09834 9.53028 3.75979 9.53028 5.59791C9.60034 9.70583 0.794617 10 0 19.9269Z" fill="white"/>
</svg>
