<svg width="40" height="40" viewBox="0 0 40 40" fill="none" xmlns="http://www.w3.org/2000/svg">
<path d="M27.602 27.2973L28.5952 23.3161C28.6995 22.8946 29.2984 22.8946 29.4048 23.3161L30.4001 27.2973C30.4185 27.3704 30.4564 27.4371 30.5097 27.4903C30.5629 27.5436 30.6296 27.5815 30.7027 27.5999L34.6839 28.5952C35.1054 28.6995 35.1054 29.2984 34.6839 29.4048L30.7027 30.4001C30.6296 30.4185 30.5629 30.4564 30.5097 30.5097C30.4564 30.5629 30.4185 30.6296 30.4001 30.7027L29.4048 34.6839C29.3005 35.1054 28.7016 35.1054 28.5952 34.6839L27.5999 30.7027C27.5815 30.6296 27.5436 30.5629 27.4903 30.5097C27.4371 30.4564 27.3704 30.4185 27.2973 30.4001L23.3161 29.4048C22.8946 29.3005 22.8946 28.7016 23.3161 28.5952L27.2973 27.5999C27.3704 27.5815 27.4371 27.5436 27.4903 27.4903C27.5436 27.4371 27.5836 27.3704 27.602 27.2973Z" stroke="#38AA70" stroke-width="2" stroke-miterlimit="10" stroke-linecap="round" stroke-linejoin="round"/>
<rect x="5" y="5" width="12" height="12" rx="1" stroke="#38AA70" stroke-width="2"/>
<rect x="5" y="23" width="12" height="12" rx="1" stroke="#38AA70" stroke-width="2"/>
<rect x="23" y="5" width="12" height="12" rx="1" stroke="#38AA70" stroke-width="2"/>
</svg>
