<svg width="40" height="40" viewBox="0 0 40 40" fill="none" xmlns="http://www.w3.org/2000/svg">
<path d="M14 16.6667H34.6667M14 16.6667L16.7556 14M14 16.6667L16.7556 19.3333M34.6667 16.6667L31.9111 14M34.6667 16.6667L31.9111 19.3333" stroke="#38AA70" stroke-width="2" stroke-linecap="round" stroke-linejoin="round"/>
<path d="M33.332 27.9999V29.3431C33.332 30.071 32.742 30.6666 32.0208 30.6666H2.64324C1.92207 30.6666 1.33203 30.071 1.33203 29.3431V8.65675C1.33203 7.92883 1.92207 7.33325 2.64324 7.33325H25.332" stroke="#38AA70" stroke-width="2" stroke-linecap="round" stroke-linejoin="round"/>
<path d="M38.6654 27.0001C38.6654 27.5524 38.2176 28.0001 37.6654 28.0001H26.332C25.7798 28.0001 25.332 27.5524 25.332 27.0001L25.3323 5.66674C25.3323 5.11446 25.78 4.66675 26.3323 4.66675L37.6654 4.66675C38.2176 4.66675 38.6654 5.11446 38.6654 5.66675V27.0001Z" stroke="#38AA70" stroke-width="2" stroke-linecap="round" stroke-linejoin="round"/>
<path d="M20.0013 30.6667H14.668V35.3334H20.0013V30.6667Z" stroke="#38AA70" stroke-width="2" stroke-linecap="round" stroke-linejoin="round"/>
<path d="M8 35.3333H26" stroke="#38AA70" stroke-width="2" stroke-linecap="round" stroke-linejoin="round"/>
</svg>
