<svg width="40" height="40" viewBox="0 0 40 40" fill="none" xmlns="http://www.w3.org/2000/svg">
<path d="M6.5 20H16.0625M6.5 23.9375H15.5M6.5 28H13.25M24.5 2H3C2.44772 2 2 2.44772 2 3V34.75C2 35.3023 2.44771 35.75 3 35.75H21M24.5 2V7.75C24.5 8.30228 24.9477 8.75 25.5 8.75H31.25M24.5 2L31.25 8.75M31.25 8.75V15.5M31.25 15.5H37C37.5523 15.5 38 15.9477 38 16.5V37C38 37.5523 37.5523 38 37 38H22C21.4477 38 21 37.5523 21 37V35.75M31.25 15.5H22C21.4477 15.5 21 15.9477 21 16.5V35.75M9 11.5L10 12.5L12.5 10M24.5948 18.875V22.25H34.5V18.875H24.5948ZM14.9375 8.0625V14.5C14.9375 15.0523 14.4898 15.5 13.9375 15.5H7.5C6.94772 15.5 6.5 15.0523 6.5 14.5V8.0625C6.5 7.51022 6.94772 7.0625 7.5 7.0625H13.9375C14.4898 7.0625 14.9375 7.51022 14.9375 8.0625Z" stroke="#38AA70" stroke-width="2" stroke-linecap="round" stroke-linejoin="round"/>
<path d="M33.5 33C34.0523 33 34.5 33.4477 34.5 34C34.5 34.5523 34.0523 35 33.5 35C32.9477 35 32.5 34.5523 32.5 34C32.5 33.4477 32.9477 33 33.5 33Z" fill="#38AA70"/>
<path d="M29.5 33C30.0523 33 30.5 33.4477 30.5 34C30.5 34.5523 30.0523 35 29.5 35C28.9477 35 28.5 34.5523 28.5 34C28.5 33.4477 28.9477 33 29.5 33Z" fill="#38AA70"/>
<path d="M25.5 33C26.0523 33 26.5 33.4477 26.5 34C26.5 34.5523 26.0523 35 25.5 35C24.9477 35 24.5 34.5523 24.5 34C24.5 33.4477 24.9477 33 25.5 33Z" fill="#38AA70"/>
<path d="M33.5 29C34.0523 29 34.5 29.4477 34.5 30C34.5 30.5523 34.0523 31 33.5 31C32.9477 31 32.5 30.5523 32.5 30C32.5 29.4477 32.9477 29 33.5 29Z" fill="#38AA70"/>
<path d="M29.5 29C30.0523 29 30.5 29.4477 30.5 30C30.5 30.5523 30.0523 31 29.5 31C28.9477 31 28.5 30.5523 28.5 30C28.5 29.4477 28.9477 29 29.5 29Z" fill="#38AA70"/>
<path d="M25.5 29C26.0523 29 26.5 29.4477 26.5 30C26.5 30.5523 26.0523 31 25.5 31C24.9477 31 24.5 30.5523 24.5 30C24.5 29.4477 24.9477 29 25.5 29Z" fill="#38AA70"/>
<path d="M33.5 25C34.0523 25 34.5 25.4477 34.5 26C34.5 26.5523 34.0523 27 33.5 27C32.9477 27 32.5 26.5523 32.5 26C32.5 25.4477 32.9477 25 33.5 25Z" fill="#38AA70"/>
<path d="M29.5 25C30.0523 25 30.5 25.4477 30.5 26C30.5 26.5523 30.0523 27 29.5 27C28.9477 27 28.5 26.5523 28.5 26C28.5 25.4477 28.9477 25 29.5 25Z" fill="#38AA70"/>
<path d="M25.5 25C26.0523 25 26.5 25.4477 26.5 26C26.5 26.5523 26.0523 27 25.5 27C24.9477 27 24.5 26.5523 24.5 26C24.5 25.4477 24.9477 25 25.5 25Z" fill="#38AA70"/>
</svg>
