<svg width="40" height="40" viewBox="0 0 40 40" fill="none" xmlns="http://www.w3.org/2000/svg">
<path d="M36.1918 4.08031C36.1785 4.01565 36.147 3.95612 36.1011 3.90872C36.0551 3.86133 35.9967 3.82802 35.9325 3.8127C31.6538 2.76563 21.7675 6.4969 16.4113 11.8558C15.4559 12.8043 14.585 13.8343 13.8084 14.9341C12.1566 14.7879 10.5049 14.91 9.09718 15.5242C5.12529 17.2739 3.96886 21.8395 3.6467 23.8035C3.62842 23.911 3.63532 24.0213 3.66683 24.1256C3.69835 24.23 3.75363 24.3257 3.82833 24.405C3.90303 24.4844 3.99511 24.5453 4.09732 24.5831C4.19954 24.6208 4.30911 24.6343 4.41741 24.6224L10.7957 23.9183C10.8002 24.3996 10.8292 24.8804 10.8826 25.3587C10.9147 25.6909 11.062 26.0014 11.299 26.2362L13.7689 28.7025C14.0038 28.9393 14.3138 29.0867 14.6456 29.1193C15.1208 29.1724 15.5985 29.2014 16.0767 29.2063L15.3768 35.5823C15.3651 35.6906 15.3787 35.8002 15.4165 35.9025C15.4542 36.0047 15.5151 36.0968 15.5944 36.1715C15.6736 36.2463 15.7691 36.3016 15.8733 36.3332C15.9775 36.3648 16.0876 36.3718 16.195 36.3537C18.1536 36.0393 22.723 34.8818 24.461 30.9063C25.0746 29.4973 25.2003 27.8521 25.0585 26.2069C26.16 25.4295 27.1918 24.5576 28.1421 23.6009C33.5152 18.2501 37.2219 8.57568 36.1918 4.08031ZM22.7815 17.2176C22.2908 16.7269 21.9567 16.1015 21.8212 15.4206C21.6857 14.7398 21.755 14.0339 22.0203 13.3925C22.2857 12.751 22.7351 12.2028 23.3118 11.817C23.8885 11.4313 24.5665 11.2254 25.2602 11.2254C25.9538 11.2254 26.6318 11.4313 27.2085 11.817C27.7852 12.2028 28.2347 12.751 28.5 13.3925C28.7653 14.0339 28.8347 14.7398 28.6992 15.4206C28.5637 16.1015 28.2295 16.7269 27.7389 17.2176C27.4135 17.5437 27.0271 17.8024 26.6018 17.979C26.1765 18.1555 25.7206 18.2463 25.2602 18.2463C24.7997 18.2463 24.3438 18.1555 23.9185 17.979C23.4932 17.8024 23.1068 17.5437 22.7815 17.2176Z" fill="#38AA70"/>
<path d="M13.9517 30.4101C13.5237 30.839 12.837 31.0062 12.0106 31.1491C10.1539 31.4655 8.51425 29.8608 8.8478 27.9835C8.97512 27.2718 9.35163 26.2741 9.58597 26.0397C9.63719 25.9895 9.67128 25.9244 9.6834 25.8537C9.69553 25.783 9.68506 25.7102 9.6535 25.6458C9.62193 25.5814 9.57088 25.5285 9.50757 25.4947C9.44427 25.461 9.37194 25.448 9.30085 25.4577C8.26254 25.5848 7.29657 26.0556 6.55673 26.7952C4.72029 28.6335 4.54688 35.4546 4.54688 35.4546C4.54688 35.4546 11.3709 35.2812 13.2073 33.4429C13.9491 32.7035 14.4204 31.7359 14.5454 30.696C14.5743 30.3694 14.1767 30.1749 13.9517 30.4101Z" fill="#38AA70"/>
</svg>
