<svg width="40" height="40" viewBox="0 0 40 40" fill="none" xmlns="http://www.w3.org/2000/svg">
<path d="M33.4812 28.3731L33.9839 27.3582L37 28.8806L32.9785 37L29.9624 35.4776L30.7164 33.9552M33.4812 28.3731C31.9731 27.3582 28.4543 25.3284 26.4436 25.3284C23.9302 25.3284 21.4167 26.3433 19.9087 26.8507C18.5687 27.3017 16.2363 28.554 16.2623 29.8955M33.4812 28.3731L30.7164 33.9552M23.4275 30.403C21.4167 30.9104 17.0174 31.67 16.3899 30.403C16.3059 30.2334 16.2655 30.0637 16.2623 29.8955M30.7164 33.9552C29.4597 33.4478 27.9517 32.9403 23.9302 34.4627C19.9087 35.9851 17.9814 36.3107 14.8818 34.9701C11.3619 33.4478 5.83365 30.4046 3.82372 29.3881C2.31647 28.6257 2.81613 25.9807 5.83348 26.8507C8.56776 27.6391 13.9589 29.0498 16.2623 29.8955M17 19V16.3806M17 13.7612V8.34328C17.6702 8.34328 19.4129 8.34328 21.0215 8.34328C24.6694 8.34328 24.5 13.7612 21.0215 13.7612C19.4129 13.7612 17.6702 13.7612 17 13.7612ZM17 13.7612V16.3806M12.7996 20.3259C14.619 22.1625 17.1324 23.2985 19.9087 23.2985C25.4612 23.2985 29.9624 18.7545 29.9624 13.1493C29.9624 10.3466 28.8371 7.8093 27.0177 5.97265M12.7996 20.3259C10.9803 18.4892 9.85497 15.9519 9.85497 13.1493C9.85497 7.54398 14.3562 3 19.9087 3C22.6849 3 25.1984 4.13599 27.0177 5.97265M12.7996 20.3259L27.0177 5.97265M17 16.3806H21.0215" stroke="#38AA70" stroke-width="2" stroke-linecap="round" stroke-linejoin="round"/>
</svg>
