<svg width="40" height="40" viewBox="0 0 40 40" fill="none" xmlns="http://www.w3.org/2000/svg">
<path d="M33.4997 15.3657C30.483 15.3657 29.2497 13.2324 30.7497 10.6157C31.6163 9.09908 31.0997 7.16575 29.583 6.29908L26.6997 4.64908C25.383 3.86575 23.683 4.33241 22.8997 5.64908L22.7163 5.96575C21.2163 8.58241 18.7497 8.58241 17.233 5.96575L17.0497 5.64908C16.2997 4.33241 14.5997 3.86575 13.283 4.64908L10.3997 6.29908C8.88301 7.16575 8.36634 9.11575 9.23301 10.6324C10.7497 13.2324 9.51634 15.3657 6.49967 15.3657C4.76634 15.3657 3.33301 16.7824 3.33301 18.5324V21.4657C3.33301 23.1991 4.74967 24.6324 6.49967 24.6324C9.51634 24.6324 10.7497 26.7657 9.23301 29.3824C8.36634 30.8991 8.88301 32.8324 10.3997 33.6991L13.283 35.3491C14.5997 36.1324 16.2997 35.6657 17.083 34.3491L17.2663 34.0324C18.7663 31.4157 21.233 31.4157 22.7497 34.0324L22.933 34.3491C23.7163 35.6657 25.4163 36.1324 26.733 35.3491L29.6163 33.6991C31.133 32.8324 31.6497 30.8824 30.783 29.3824C29.2663 26.7657 30.4997 24.6324 33.5163 24.6324C35.2497 24.6324 36.683 23.2157 36.683 21.4657V18.5324C36.6663 16.7991 35.2497 15.3657 33.4997 15.3657ZM19.9997 25.4157C17.0163 25.4157 14.583 22.9824 14.583 19.9991C14.583 17.0157 17.0163 14.5824 19.9997 14.5824C22.983 14.5824 25.4163 17.0157 25.4163 19.9991C25.4163 22.9824 22.983 25.4157 19.9997 25.4157Z" fill="white"/>
</svg>
