<svg width="40" height="40" viewBox="0 0 40 40" fill="none" xmlns="http://www.w3.org/2000/svg">
<path d="M36.783 32.4273L36.0352 28.3333" stroke="#38AA70" stroke-width="2" stroke-linecap="round" stroke-linejoin="round"/>
<path d="M2.85547 25.6238C5.19444 32.9708 11.984 38.2857 19.9981 38.2857C26.993 38.2857 33.0494 34.2437 36.0336 28.3333L31.9569 29.0256" stroke="#38AA70" stroke-width="2" stroke-linecap="round" stroke-linejoin="round"/>
<path d="M3.21484 7.57251L3.96273 11.6666" stroke="#38AA70" stroke-width="2" stroke-linecap="round" stroke-linejoin="round"/>
<path d="M37.143 14.3763C34.8114 7.02923 28.0144 1.71436 20.0003 1.71436C13.0128 1.71436 6.94904 5.75634 3.96484 11.6667L8.04154 10.9745" stroke="#38AA70" stroke-width="2" stroke-linecap="round" stroke-linejoin="round"/>
<path d="M18.4757 9.66675V10.1266C18.4757 10.615 18.1209 11.0262 17.6488 11.1514C16.8543 11.362 16.1022 11.6769 15.408 12.0803C14.9859 12.3257 14.4445 12.2857 14.0992 11.9404L13.7733 11.6145C13.3828 11.224 12.7496 11.224 12.3591 11.6145L11.6157 12.3579C11.2252 12.7484 11.2252 13.3816 11.6157 13.7721L11.9416 14.098C12.2869 14.4433 12.3269 14.9846 12.0816 15.4068C11.6781 16.101 11.3632 16.8531 11.1526 17.6476C11.0274 18.1197 10.6162 18.4744 10.1278 18.4744H9.66797C9.11568 18.4744 8.66797 18.9222 8.66797 19.4744V20.5257C8.66797 21.078 9.11568 21.5257 9.66797 21.5257H10.1278C10.6162 21.5257 11.0274 21.8805 11.1526 22.3526C11.3632 23.1471 11.6781 23.8992 12.0816 24.5933C12.3269 25.0155 12.2869 25.5569 11.9416 25.9022L11.6157 26.2281C11.2252 26.6186 11.2252 27.2517 11.6157 27.6423L12.3591 28.3856C12.7496 28.7762 13.3828 28.7762 13.7733 28.3856L14.0992 28.0597C14.4445 27.7145 14.9859 27.6744 15.408 27.9198C16.1022 28.3233 16.8543 28.6381 17.6488 28.8488C18.1209 28.974 18.4757 29.3851 18.4757 29.8736V30.3334C18.4757 30.8857 18.9234 31.3334 19.4757 31.3334H20.5269C21.0792 31.3334 21.5269 30.8857 21.5269 30.3334V29.8736C21.5269 29.3851 21.8817 28.974 22.3538 28.8488C23.1483 28.6381 23.9004 28.3233 24.5946 27.9198C25.0167 27.6745 25.5581 27.7145 25.9034 28.0597L26.2293 28.3856C26.6198 28.7762 27.253 28.7762 27.6435 28.3856L28.3869 27.6423C28.7774 27.2517 28.7774 26.6186 28.3869 26.2281L28.061 25.9022C27.7157 25.5569 27.6757 25.0155 27.9211 24.5934C28.3245 23.8992 28.6394 23.1471 28.85 22.3526C28.9752 21.8805 29.3864 21.5257 29.8748 21.5257H30.3346C30.8869 21.5257 31.3346 21.078 31.3346 20.5257V19.4744C31.3346 18.9222 30.8869 18.4744 30.3346 18.4744H29.8748C29.3864 18.4744 28.9752 18.1197 28.85 17.6476C28.6394 16.8531 28.3245 16.101 27.921 15.4068C27.6757 14.9846 27.7157 14.4433 28.061 14.098L28.3869 13.7721C28.7774 13.3816 28.7774 12.7484 28.3869 12.3579L27.6435 11.6145C27.253 11.224 26.6198 11.224 26.2293 11.6145L25.9034 11.9404C25.5581 12.2857 25.0167 12.3257 24.5946 12.0803C23.9004 11.6769 23.1483 11.362 22.3538 11.1514C21.8817 11.0262 21.5269 10.615 21.5269 10.1266V9.66675C21.5269 9.11446 21.0792 8.66675 20.5269 8.66675H19.4757C18.9234 8.66675 18.4757 9.11446 18.4757 9.66675Z" stroke="#38AA70" stroke-width="2" stroke-linecap="round" stroke-linejoin="round"/>
<circle cx="19.9987" cy="19.9999" r="2.66667" stroke="#38AA70" stroke-width="2"/>
</svg>
