<svg width="50" height="24" viewBox="0 0 50 24" fill="none" xmlns="http://www.w3.org/2000/svg">
<path d="M25.9448 20.8071C24.9785 20.7437 23.8643 20.577 22.9855 20.3265C22.8208 20.2796 22.1392 20.033 21.9659 19.9547C18.9063 18.5599 16.7748 15.515 16.7748 11.9824C16.7748 7.13714 20.78 3.1905 25.7062 3.1905C30.5887 3.1905 34.5669 7.06983 34.6353 11.8603H37.8619C37.7935 5.31959 32.3686 0.0187855 25.7062 0.0187855C19.0041 0.0187855 13.549 5.38456 13.549 11.9824C13.549 16.531 16.1481 20.487 19.9537 22.5081C20.6409 22.8658 21.6271 23.2345 21.9619 23.3354C23.0467 23.6532 24.3781 23.8646 25.5631 23.953C25.9655 23.9828 27.3708 23.9984 27.7804 24H50V20.8369H27.8178C27.5227 20.8369 26.2335 20.8259 25.9448 20.8071ZM27.8178 15.8406C27.5832 15.8406 26.356 15.8328 26.1294 15.814C25.7452 15.7819 25.1885 15.7255 24.8306 15.6449C24.4266 15.5384 24.0472 15.3975 23.8762 15.3052C22.6777 14.6672 21.8609 13.4195 21.8609 11.9824C21.8609 9.89165 23.5812 8.19621 25.7062 8.19621C27.7868 8.19621 29.4784 9.82512 29.546 11.8603H32.6462C32.581 8.1422 29.5015 5.14582 25.7062 5.14582C21.8688 5.14582 18.7584 8.20639 18.7584 11.9824C18.7584 14.6453 20.3092 16.945 22.5679 18.0714C22.9155 18.2718 23.5692 18.4816 23.7553 18.5293C24.3932 18.6945 25.2497 18.8072 25.9448 18.8573C26.2017 18.8784 27.4599 18.8878 27.7256 18.8894V18.8941H49.9992V15.8406H27.8178ZM11.5607 23.9883H8.31266V3.19755H3.5662V-1.90735e-06H11.5607V23.9883ZM0 4.79515V7.8698H3.5662V23.9883H6.68703V4.79515H0Z" fill="#E51704"/>
<path d="M44.2603 0.222836C43.0904 0.222836 42.1201 1.14101 42.1201 2.29322C42.1201 3.44543 43.0904 4.40039 44.2603 4.40039C45.466 4.40039 46.3989 3.44543 46.3989 2.29322C46.3989 1.14101 45.466 0.222836 44.2603 0.222836ZM44.2603 4.06068C43.294 4.06068 42.4613 3.31315 42.4613 2.29322C42.4613 1.32495 43.294 0.558637 44.2603 0.558637C45.2258 0.558637 46.0546 1.32495 46.0546 2.29322C46.0546 3.31315 45.2258 4.06068 44.2603 4.06068Z" fill="#E51704"/>
<path d="M45.0767 2.86082C45.0767 2.62834 45.0417 2.4123 44.7712 2.32698C45.1101 2.21114 45.1435 1.99275 45.1435 1.86046C45.1435 1.32584 44.6504 1.25774 44.4476 1.25774H43.5146V3.32812H43.9036V2.47884H44.2098C44.6504 2.47884 44.6869 2.67844 44.6869 2.86082C44.6869 3.21384 44.6869 3.28038 44.7712 3.32812H45.161C45.0767 3.24437 45.1101 3.1794 45.0767 2.86082ZM44.3625 2.17669H43.9036V1.52466H44.2964C44.5684 1.52466 44.753 1.6092 44.753 1.86046C44.753 1.99275 44.6869 2.17669 44.3625 2.17669Z" fill="#E51704"/>
</svg>
