<svg width="20" height="20" viewBox="0 0 20 20" fill="none" xmlns="http://www.w3.org/2000/svg">
<path d="M3.33203 9.25H2.58203V10.75H3.33203V10V9.25ZM16.6654 10L17.1957 10.5303C17.4886 10.2374 17.4886 9.76256 17.1957 9.46967L16.6654 10ZM12.1957 4.46967C11.9028 4.17678 11.4279 4.17678 11.135 4.46967C10.8421 4.76256 10.8421 5.23744 11.135 5.53033L11.6654 5L12.1957 4.46967ZM11.135 14.4697C10.8421 14.7626 10.8421 15.2374 11.135 15.5303C11.4279 15.8232 11.9028 15.8232 12.1957 15.5303L11.6654 15L11.135 14.4697ZM3.33203 10V10.75H16.6654V10V9.25H3.33203V10ZM16.6654 10L17.1957 9.46967L12.1957 4.46967L11.6654 5L11.135 5.53033L16.135 10.5303L16.6654 10ZM16.6654 10L16.135 9.46967L11.135 14.4697L11.6654 15L12.1957 15.5303L17.1957 10.5303L16.6654 10Z" fill="white"/>
</svg>
