<svg width="40" height="40" viewBox="0 0 40 40" fill="none" xmlns="http://www.w3.org/2000/svg">
<path d="M25.2461 5C29.1995 6.51951 32.3451 9.68057 33.8571 13.6534L34.9992 9.37002M14.7539 35C10.8005 33.4805 7.65493 30.3194 6.14287 26.3466L5.00076 30.63M21.0874 7.84928L21.543 8.62022C21.866 9.16675 22.0275 9.44001 21.9962 9.73091C21.9648 10.0218 21.7486 10.2562 21.3162 10.7251L20.3645 11.7625C20.1319 12.0496 19.9667 12.55 19.9667 12.9999C19.9667 13.45 20.1318 13.9502 20.3645 14.2374L21.3162 15.2748C21.7486 15.7437 21.9648 15.9781 21.9962 16.269C22.0275 16.5599 21.866 16.8332 21.543 17.3797L21.0874 18.1506C20.7428 18.7337 20.5705 19.0252 20.2774 19.1415C19.9842 19.2577 19.6527 19.166 18.9896 18.9825L17.8633 18.6732C17.4399 18.578 16.9957 18.632 16.6091 18.8257L16.2982 19.0006C15.9668 19.2076 15.7119 19.5128 15.5708 19.8715L15.2625 20.7692C15.0598 21.3632 14.9585 21.6602 14.7172 21.8301C14.4759 22 14.1555 22 13.5145 22H12.4855C11.8445 22 11.5241 22 11.2828 21.8301C11.0415 21.6602 10.9402 21.3632 10.7375 20.7692L10.4292 19.8715C10.2881 19.5128 10.0332 19.2076 9.70183 19.0006L9.39091 18.8257C9.00433 18.632 8.56011 18.578 8.1367 18.6732L7.01039 18.9825C6.34731 19.166 6.01577 19.2577 5.72261 19.1415C5.42947 19.0252 5.25716 18.7337 4.91259 18.1506L4.45698 17.3797C4.134 16.8332 3.9725 16.5599 4.00384 16.269C4.03518 15.9781 4.25138 15.7437 4.68378 15.2748L5.63553 14.2374C5.86817 13.9502 6.03326 13.45 6.03326 12.9999C6.03326 12.55 5.86812 12.0496 5.63551 11.7625L4.68378 10.7251C4.25138 10.2562 4.03518 10.0218 4.00384 9.73091C3.9725 9.44001 4.13399 9.16675 4.45698 8.62022L4.9126 7.84928C5.25718 7.26624 5.42947 6.97471 5.72261 6.85846C6.01576 6.74221 6.3473 6.83394 7.01037 7.0174L8.13674 7.32673C8.56007 7.42191 9.00421 7.36792 9.39074 7.17428L9.70171 6.99935C10.0332 6.79236 10.2881 6.48717 10.4292 6.12844L10.7375 5.23079C10.9402 4.63677 11.0415 4.33976 11.2828 4.16988C11.5241 4 11.8445 4 12.4855 4H13.5145C14.1555 4 14.4759 4 14.7172 4.16988C14.9585 4.33976 15.0598 4.63677 15.2625 5.23079L15.5708 6.12844C15.7119 6.48717 15.9668 6.79236 16.2983 6.99935L16.6093 7.17428C16.9958 7.36792 17.4399 7.42191 17.8633 7.32673L18.9896 7.0174C19.6527 6.83394 19.9842 6.74221 20.2774 6.85846C20.5705 6.97471 20.7428 7.26624 21.0874 7.84928ZM16 13C16 14.6569 14.6569 16 13 16C11.3431 16 10 14.6569 10 13C10 11.3431 11.3431 10 13 10C14.6569 10 16 11.3431 16 13ZM35.1888 23.4216L35.5938 24.1069C35.8809 24.5927 36.0244 24.8356 35.9966 25.0941C35.9687 25.3527 35.7766 25.5611 35.3922 25.9778L34.5462 26.9C34.3395 27.1552 34.1927 27.6 34.1927 27.9999C34.1927 28.4 34.3394 28.8446 34.5462 29.0999L35.3922 30.0221C35.7765 30.4388 35.9687 30.6472 35.9966 30.9058C36.0244 31.1644 35.8809 31.4073 35.5938 31.8931L35.1888 32.5783C34.8825 33.0966 34.7294 33.3557 34.4688 33.4591C34.2082 33.5624 33.9135 33.4809 33.3241 33.3178L32.3229 33.0428C31.9466 32.9582 31.5517 33.0062 31.2081 33.1784L30.9317 33.3339C30.6371 33.5179 30.4106 33.7891 30.2851 34.108L30.0111 34.906C29.8309 35.434 29.7409 35.698 29.5264 35.849C29.3119 36 29.0271 36 28.4573 36H27.5427C26.9729 36 26.6881 36 26.4736 35.849C26.2591 35.698 26.1691 35.434 25.9889 34.906L25.7149 34.108C25.5894 33.7891 25.3629 33.5179 25.0683 33.3339L24.7919 33.1784C24.4483 33.0062 24.0534 32.9582 23.6771 33.0428L22.6759 33.3178C22.0865 33.4809 21.7918 33.5624 21.5312 33.4591C21.2706 33.3557 21.1175 33.0966 20.8112 32.5783L20.4062 31.8931C20.1191 31.4073 19.9756 31.1644 20.0034 30.9058C20.0313 30.6472 20.2235 30.4388 20.6078 30.0221L21.4538 29.0999C21.6606 28.8446 21.8073 28.4 21.8073 27.9999C21.8073 27.6 21.6605 27.1552 21.4538 26.9L20.6078 25.9778C20.2234 25.5611 20.0313 25.3527 20.0034 25.0941C19.9756 24.8356 20.1191 24.5927 20.4062 24.1069L20.8112 23.4216C21.1175 22.9033 21.2706 22.6442 21.5312 22.5409C21.7918 22.4375 22.0865 22.5191 22.6759 22.6821L23.6771 22.9571C24.0534 23.0417 24.4482 22.9937 24.7918 22.8216L25.0682 22.6661C25.3628 22.4821 25.5894 22.2108 25.7149 21.8919L25.9889 21.094C26.1691 20.566 26.2591 20.302 26.4736 20.151C26.6881 20 26.9729 20 27.5427 20H28.4573C29.0271 20 29.3119 20 29.5264 20.151C29.7409 20.302 29.8309 20.566 30.0111 21.094L30.2851 21.8919C30.4106 22.2108 30.6372 22.4821 30.9318 22.6661L31.2082 22.8216C31.5518 22.9937 31.9466 23.0417 32.3229 22.9571L33.3241 22.6821C33.9135 22.5191 34.2082 22.4375 34.4688 22.5409C34.7294 22.6442 34.8825 22.9033 35.1888 23.4216ZM30.6667 28C30.6667 29.4728 29.4728 30.6667 28 30.6667C26.5272 30.6667 25.3333 29.4728 25.3333 28C25.3333 26.5272 26.5272 25.3333 28 25.3333C29.4728 25.3333 30.6667 26.5272 30.6667 28Z" stroke="#38AA70" stroke-width="2" stroke-linecap="round" stroke-linejoin="round"/>
</svg>
