<svg width="132" height="90" viewBox="0 0 132 90" fill="none" xmlns="http://www.w3.org/2000/svg">
<g clip-path="url(#clip0_3106_1679)">
<path d="M5.22439 88.7846H1.73212V76.7435H0.0191573L-0.00195312 74.1523H5.22137V88.7846H5.22439Z" fill="#232323"/>
<path d="M19.2915 88.0819C19.2915 88.0819 17.8409 89.1688 14.9367 89.1688C12.6809 89.1688 10.9077 88.5379 9.61692 87.2779C8.32612 86.0189 7.67773 84.2854 7.67773 82.0838V81.1899C7.67773 79.7855 7.9763 78.5473 8.5704 77.4752C9.16751 76.4061 11.5077 73.7695 15.0181 73.7695C17.6358 73.7695 19.0261 74.6424 19.0261 74.6424L18.9658 78.1215C18.9658 78.1215 17.4489 76.6326 15.0151 76.9376C12.8076 77.2154 11.0313 78.641 11.0554 81.4677C11.0826 84.6388 12.7654 85.8256 14.8583 86.0763C16.9513 86.327 19.3216 84.977 19.3216 84.977L19.2915 88.0784V88.0819Z" fill="#232323"/>
<path d="M131.967 88.0819C131.967 88.0819 130.517 89.1688 127.613 89.1688C125.356 89.1688 123.583 88.5379 122.293 87.2779C121.001 86.0189 120.354 84.2854 120.354 82.0838V81.1899C120.354 79.7855 120.652 78.5473 121.246 77.4752C121.843 76.4061 124.183 73.7695 127.693 73.7695C130.312 73.7695 131.702 74.6424 131.702 74.6424L131.641 78.1215C131.641 78.1215 130.124 76.6326 127.691 76.9376C125.483 77.2154 123.706 78.641 123.731 81.4677C123.759 84.6388 125.441 85.8256 127.534 86.0763C129.627 86.327 131.997 84.977 131.997 84.977L131.967 88.0784V88.0819Z" fill="#232323"/>
<path d="M43.2545 76.6021H35.4014V79.4319H37.0631C39.132 79.4319 40.7725 79.8487 41.9848 80.6822C43.1972 81.5158 43.8034 82.6362 43.8034 84.0495C43.8034 85.463 43.2002 86.6079 41.9969 87.4681C40.7936 88.3291 39.1922 88.7635 37.1958 88.7791H31.7402V74.168H43.2515V76.6052L43.2545 76.6021ZM35.4044 81.86V86.3569H37.1264C38.0523 86.3569 38.7911 86.1455 39.343 85.7257C39.8949 85.3029 40.1694 84.7381 40.1694 84.0284C40.1694 83.367 39.907 82.8415 39.3792 82.458C38.8515 82.0745 38.1276 81.8751 37.2109 81.86H35.4014H35.4044Z" fill="#232323"/>
<path d="M56.9871 74.1621H60.6242V88.7733H56.9871V79.0697L49.9453 88.7733H46.3203V74.1621H49.9453V83.8867L56.9871 74.1621Z" fill="#232323"/>
<path d="M73.9017 76.6012H70.4546V88.7748H66.8297V76.6012H63.4551V74.1641H73.9017V76.6012Z" fill="#232323"/>
<path d="M79.5898 83.6259V88.7748H75.9648V74.1641H81.0796C82.4005 74.1641 83.5616 74.3635 84.5659 74.7651C85.5671 75.1668 86.3391 75.7375 86.8786 76.4775C87.4188 77.2174 87.6871 78.057 87.6871 79.0023C87.6871 80.4338 87.0957 81.5633 85.9169 82.3908C84.7377 83.2182 83.1032 83.6289 81.0193 83.6289H79.5868L79.5898 83.6259ZM79.5898 81.1857H81.0826C82.0416 81.1857 82.7714 80.9985 83.2751 80.624C83.7787 80.2495 84.029 79.715 84.029 79.0173C84.029 78.3197 83.7757 77.7217 83.269 77.2808C82.7624 76.8398 82.0598 76.6103 81.167 76.5983H79.5898V81.1857Z" fill="#232323"/>
<path d="M100.722 74.1621H104.358V88.7733H100.722V79.0697L93.6795 88.7733H90.0547V74.1621H93.6795V83.8867L100.722 74.1621Z" fill="#232323"/>
<path d="M111.299 82.8045H110.373V88.7748H106.748V74.1641H110.373V80.014H110.864L115.165 74.1641H119.586L114.163 81.08L120.156 88.7782H115.832L111.302 82.8075L111.299 82.8045Z" fill="#232323"/>
<path d="M25.481 83.6811C26.7001 83.6811 27.6885 82.6914 27.6885 81.4704C27.6885 80.2495 26.7001 79.2598 25.481 79.2598C24.2618 79.2598 23.2734 80.2495 23.2734 81.4704C23.2734 82.6914 24.2618 83.6811 25.481 83.6811Z" fill="#232323"/>
<path d="M96.3345 31.2078C96.3345 31.8058 96.3163 32.4007 96.2798 32.9927C95.3784 48.6033 82.7001 61.055 67.009 61.5684C66.9728 61.5684 66.9366 61.5715 66.8974 61.5715C66.7376 61.5745 66.5838 61.5775 66.43 61.5806C66.2852 61.5866 66.1434 61.5866 65.9987 61.5866H65.9806C52.1141 61.5775 40.425 52.2515 36.8181 39.522C36.7698 39.359 36.7245 39.1928 36.6854 39.0267C36.6371 38.8546 36.5949 38.6825 36.5527 38.5103C35.9707 36.1698 35.666 33.7235 35.666 31.2078C35.666 21.9 39.8459 13.5707 46.4293 8.00468C46.4655 7.96843 46.5017 7.93823 46.5409 7.90803L46.7037 21.7279C46.8606 34.9768 47.0928 40.8207 52.0176 45.6437C58.0401 51.5418 67.1478 52.5203 74.5906 48.845C81.5842 45.39 85.9963 37.8731 85.4837 30.2837C85.1399 25.1858 83.4269 21.447 79.7295 17.7202C76.9339 14.9055 73.6468 13.0633 70.064 12.3143C66.4239 11.5503 66.5959 11.4384 66.5959 14.528V17.1917L68.5953 17.5602C76.3277 18.9887 81.4455 26.5931 79.8321 34.2701C79.3164 36.7224 78.1674 38.8878 76.3247 40.8811C73.5231 43.9102 69.5814 45.3598 66.1405 45.3537C60.4497 45.3417 53.2902 41.9532 52.5966 33.8927C51.9724 26.6445 52.096 4.34134 52.096 4.34134L52.9977 3.87324C53.4953 3.61653 53.9718 3.40512 54.0562 3.40512C54.1407 3.40512 54.0864 27.9854 54.5569 33.4125C55.0273 38.8395 59.0745 43.3273 66.2852 43.3273C68.1007 43.3273 69.7081 42.7565 71.5568 41.9018C73.7372 40.8992 76.2373 38.2355 77.1631 35.8043C79.7084 29.1088 76.1619 21.903 69.3311 19.8946C66.5416 19.0732 66.5959 19.0279 66.5959 22.0661V24.7237L67.9378 25.0801C72.7691 26.3757 74.2408 32.8597 70.45 36.1909C69.111 37.3687 67.9016 37.8881 65.7906 37.8881C63.5348 37.8881 61.3695 36.5201 60.2536 34.4212C59.5872 33.1618 59.5299 31.4192 59.5299 31.4192L59.4213 17.2672L59.3308 1.66557L60.0244 1.49343C60.4045 1.3998 61.9455 1.16424 63.4473 0.970952C63.8183 0.925658 64.1983 0.889416 64.5934 0.865252C64.8015 0.853172 65.0095 0.84713 65.2147 0.841091C65.4408 0.835051 65.667 0.832031 65.8931 0.832031H65.9987C72.0061 0.832031 77.6064 2.58065 82.3201 5.60071C82.3291 5.60675 82.3382 5.61279 82.3472 5.61883C82.4799 5.70339 82.6126 5.78795 82.7423 5.87856C83.0198 6.05976 83.2942 6.247 83.5656 6.44331C83.6953 6.5339 83.825 6.62753 83.9547 6.72719C84.0964 6.82685 84.2352 6.92953 84.3738 7.03826C84.5246 7.15 84.6694 7.26476 84.8172 7.38254C84.8655 7.41879 84.9106 7.45805 84.9589 7.4973C85.1127 7.61811 85.2635 7.74193 85.4143 7.8718C85.4264 7.87784 85.4384 7.88689 85.4505 7.90199C85.6344 8.05299 85.8154 8.20702 85.9933 8.36708C86.1803 8.53016 86.3643 8.6963 86.5482 8.8654C86.9165 9.20065 87.2752 9.55095 87.6217 9.90732C88.6777 10.9764 89.6485 12.124 90.5291 13.3381C90.6403 13.4891 90.7488 13.6401 90.8513 13.7911C90.9486 13.924 91.0415 14.0568 91.1292 14.1928C91.144 14.2109 91.1561 14.2291 91.1683 14.2471C94.1088 18.6141 95.9481 23.7935 96.2772 29.3746C96.3163 29.9816 96.3345 30.5917 96.3345 31.2078Z" fill="#FF002A"/>
</g>
<defs>
<clipPath id="clip0_3106_1679">
<rect width="132" height="90" fill="white"/>
</clipPath>
</defs>
</svg>
