<svg width="118" height="78" viewBox="0 0 118 78" fill="none" xmlns="http://www.w3.org/2000/svg">
<g clip-path="url(#clip0_3106_1662)">
<path d="M4.81837 19.692V12.4558H6.53378C8.06554 12.4558 9.33015 12.6379 10.2317 13.1887C11.1332 13.7395 11.6758 14.6546 11.6758 16.1205C11.6758 18.5947 10.2317 19.692 6.80506 19.692H4.81837ZM0.669683 23.1703H6.71324C13.4789 23.1703 15.9163 20.1495 15.9163 15.9341C15.9163 13.0955 14.7435 11.1721 12.6691 10.0748C11.0456 9.15965 8.9712 8.88429 6.44613 8.88429H4.82254V3.38933H13.9338L15.0148 0H0.582031V23.1703H0.673853H0.669683ZM18.7127 23.1703H22.6819L27.824 15.6629C28.8173 14.2902 29.5394 12.9176 29.9901 12.1847H30.0819C29.9901 13.193 29.9025 14.4724 29.9025 15.7561V23.0813H33.9635V6.59648H29.9943L24.8523 14.1038C23.9508 15.4765 23.1368 16.8492 22.6861 17.5822H22.5943C22.6861 16.5738 22.7737 15.2943 22.7737 14.0106V6.68545H18.7127V23.1703ZM40.9044 23.1703H45.0532V10.0748H49.9239L51.0049 6.59648H35.9377V10.0748H40.9003V23.1703H40.9044ZM52.4532 31.5038H56.5142V23.1703C57.328 23.4457 58.1378 23.5346 59.0393 23.5346C64.1813 23.5346 67.5203 19.9632 67.5203 14.8367C67.5203 9.71039 64.4526 6.13892 58.5886 6.13892C56.3348 6.13892 54.1686 6.59648 52.3655 7.14724V31.5081H52.4573L52.4532 31.5038ZM56.5142 19.5988V9.89259C57.1444 9.71039 57.687 9.61723 58.409 9.61723C61.385 9.61723 63.2798 11.2653 63.2798 14.8367C63.2798 18.0439 61.7481 20.0563 58.6804 20.0563C57.8665 20.0563 57.2362 19.8741 56.5142 19.5988ZM69.9536 23.1703H73.9228L79.0649 15.6629C80.0582 14.2902 80.7803 12.9176 81.231 12.1847H81.3228C81.231 13.193 81.1434 14.4724 81.1434 15.7561V23.0813H85.2044V6.59648H81.2352L76.0932 14.1038C75.1917 15.4765 74.3777 16.8492 73.927 17.5822H73.8352C73.927 16.5738 74.0146 15.2943 74.0146 14.0106V6.68545H69.9536V23.1703ZM88.447 23.1703H92.5961V16.3027H95.0333C95.4845 16.3027 95.9348 16.7602 96.4779 17.8575L98.5516 23.1703H102.972L99.9962 16.8534C99.4539 15.7561 98.9151 15.1122 98.1013 14.8367V14.7436C99.454 13.9174 99.6327 11.5365 100.447 10.346C100.718 9.98155 101.077 9.79514 101.62 9.79514C101.891 9.79514 102.25 9.79514 102.521 9.97734V6.40582C102.071 6.22365 101.257 6.13045 100.806 6.13045C99.362 6.13045 98.4605 6.68121 97.8297 7.59632C96.4779 9.61302 96.4779 13.0913 94.491 13.0913H92.5961V6.588H88.447V23.1618V23.1703ZM112.175 23.5346C114.429 23.5346 116.508 22.8017 117.768 21.8865L116.595 19.048C115.422 19.6877 114.341 20.1453 112.805 20.1453C110.009 20.1453 108.206 18.3151 108.206 14.9258C108.206 11.905 110.009 9.52398 113.077 9.52398C114.7 9.52398 115.873 9.98155 117.045 10.8077V7.23621C116.144 6.68545 114.7 6.13892 112.626 6.13892C107.755 6.13892 103.966 9.80364 103.966 15.0232C103.966 19.7852 106.853 23.5388 112.175 23.5388V23.5346Z" fill="#00CCFE"/>
<path d="M0.232422 77.4276H27.4398V71.3088H9.50863C11.9823 61.2679 27.1305 59.0708 27.1305 47.93C27.1305 41.9664 23.1108 37.5752 14.6091 37.5752C9.35254 37.5752 4.7174 39.1446 1.62533 40.7139L3.48057 46.3636C6.26344 44.9526 9.50863 43.6972 13.5284 43.6972C16.6204 43.6972 19.5564 45.1081 19.5564 48.7191C19.5564 56.8797 1.77846 57.5074 0.235368 77.4337L0.232422 77.4276ZM28.2113 67.7007H45.6801V77.4307H52.6357V67.7007H58.5106V61.7372H52.6357V37.5723H47.5353L28.2142 62.9926V67.7007H28.2113ZM36.0946 62.051L45.9862 48.5576C45.9862 49.6547 45.6771 53.1073 45.6771 56.246V61.8956H41.039C39.649 61.8956 37.0193 62.051 36.0917 62.051H36.0946Z" fill="#0167B1"/>
<path d="M90.5239 73.3788C86.3716 73.3788 82.4668 71.7227 79.5278 68.7155C76.6154 65.7383 74.9663 61.7655 74.8809 57.5298C74.8809 57.5208 74.8809 57.5089 74.8809 57.4999C74.8809 48.7444 81.8984 41.6211 90.5239 41.6211C99.1492 41.6211 106.167 48.7444 106.167 57.4999C106.167 66.2553 99.1492 73.3788 90.5239 73.3788ZM77.8257 57.485C77.9789 64.7219 83.5534 70.3895 90.5239 70.3895C97.4946 70.3895 103.222 64.6083 103.222 57.4999C103.222 50.3915 97.5267 44.6103 90.5239 44.6103C83.5211 44.6103 77.8346 50.3856 77.8257 57.485Z" fill="#0167B1"/>
<path d="M98.0964 58.9954H90.5193C89.7063 58.9954 89.0469 58.3258 89.0469 57.5007V49.938C89.0469 49.1129 89.7063 48.4434 90.5193 48.4434C91.3323 48.4434 91.9917 49.1129 91.9917 49.938V56.0061H98.0964C98.9094 56.0061 99.5688 56.6757 99.5688 57.5007C99.5688 58.3258 98.9094 58.9954 98.0964 58.9954Z" fill="#0167B1"/>
</g>
<defs>
<clipPath id="clip0_3106_1662">
<rect width="118" height="78" fill="white"/>
</clipPath>
</defs>
</svg>
