<svg width="38" height="40" viewBox="0 0 38 40" fill="none" xmlns="http://www.w3.org/2000/svg">
<g clip-path="url(#clip0_3106_1667)">
<path d="M1.83398 18.9122V23.2568C1.83372 24.3978 2.05552 25.5277 2.48674 26.5819C2.91795 27.6361 3.55013 28.594 4.34715 29.4009C5.14418 30.2078 6.09044 30.8479 7.1319 31.2846C8.17337 31.7213 9.28965 31.946 10.4169 31.946H36.1657M1.83398 8.05273H27.5828C28.7102 8.05243 29.8268 8.27704 30.8684 8.71358C31.9101 9.1502 32.8566 9.7902 33.6539 10.5971C34.4511 11.404 35.0834 12.362 35.5148 13.4164C35.9461 14.4707 36.168 15.6007 36.1677 16.742V21.0845" stroke="#FF002A" stroke-width="3" stroke-linecap="round" stroke-linejoin="round"/>
<path d="M29.7291 25.4304L36.1678 31.9452L29.7291 38.4621M8.27078 14.5708L1.83203 8.05391L8.27078 1.53906" stroke="#FF002A" stroke-width="3" stroke-linecap="round" stroke-linejoin="round"/>
</g>
<defs>
<clipPath id="clip0_3106_1667">
<rect width="38" height="40" fill="white"/>
</clipPath>
</defs>
</svg>
