<svg width="122" height="60" viewBox="0 0 122 60" fill="none" xmlns="http://www.w3.org/2000/svg">
<g clip-path="url(#clip0_3106_1671)">
<path d="M63.3079 51.6807C60.9512 51.5243 58.2331 51.1132 56.0865 50.4966C55.6849 50.3801 54.0233 49.7727 53.6 49.5826C46.1347 46.1501 40.9364 38.6532 40.9364 29.9569C40.9364 18.0275 50.7091 8.31282 62.7272 8.31282C74.7454 8.31282 84.3452 17.8619 84.5119 29.6562H92.3852C92.2185 13.5552 78.9831 0.506112 62.7303 0.506112C46.4775 0.506112 33.0694 13.7146 33.0694 29.9569C33.0694 41.1531 39.4105 50.8924 48.6952 55.8678C50.3724 56.7481 52.7785 57.6561 53.5939 57.9046C56.2409 58.6868 59.4871 59.2083 62.3813 59.426C63.3635 59.4996 66.7919 59.5365 67.7896 59.5426H121.999V51.7543H67.8823C67.1626 51.7543 64.0183 51.7267 63.3141 51.6807M67.8761 39.4537C67.3047 39.4537 64.3086 39.4354 63.7558 39.3894C62.8199 39.3096 61.4609 39.1716 60.5868 38.9722C59.6014 38.7114 58.6748 38.3617 58.2579 38.1348C55.3329 36.5642 53.3407 33.4937 53.3407 29.9538C53.3407 24.8066 57.5381 20.6318 62.721 20.6318C67.9039 20.6318 71.9254 24.6409 72.0891 29.6532H79.6534C79.4927 20.4999 71.981 13.1226 62.721 13.1226C53.4611 13.1226 45.7702 20.6563 45.7702 29.9538C45.7702 36.509 49.5538 42.1716 55.0641 44.9445C55.9135 45.4384 57.5073 45.9537 57.9614 46.0703C59.5181 46.4783 61.606 46.7544 63.3017 46.877C63.9287 46.9292 66.9989 46.9537 67.6476 46.9568V46.9691H121.99V39.4507H67.873L67.8761 39.4537ZM28.2139 59.5119H20.2883V8.32815H8.70868V0.457031H28.2139V59.5119ZM0.0078125 12.2637V19.8342H8.70868V59.515H16.3224V12.2637H0.0078125Z" fill="#FF002A"/>
<path d="M107.994 1.00586C105.14 1.00586 102.773 3.26658 102.773 6.10399C102.773 8.9414 105.14 11.2911 107.994 11.2911C110.848 11.2911 113.21 8.9414 113.21 6.10399C113.21 3.26658 110.934 1.00586 107.994 1.00586ZM107.994 10.4537C105.637 10.4537 103.604 8.6132 103.604 6.10399C103.604 3.5948 105.637 1.83407 107.994 1.83407C110.35 1.83407 112.37 3.72057 112.37 6.10399C112.37 8.61629 110.347 10.4537 107.994 10.4537Z" fill="#FF002A"/>
<path d="M109.98 7.49946C109.98 6.92584 109.893 6.39516 109.235 6.18658C110.063 5.9013 110.143 5.36449 110.143 5.03934C110.143 3.7234 108.942 3.55469 108.445 3.55469H106.168V8.65284H107.116V6.56081H107.864C108.939 6.56081 109.028 7.0516 109.028 7.50252C109.028 8.37061 109.028 8.53626 109.235 8.65284H110.186C109.98 8.4473 110.063 8.28779 109.98 7.50252M108.238 5.81541H107.12V4.21112H108.077C108.741 4.21112 109.192 4.41972 109.192 5.03628C109.192 5.36142 109.032 5.81541 108.241 5.81541" fill="#FF002A"/>
</g>
<defs>
<clipPath id="clip0_3106_1671">
<rect width="122" height="60" fill="white"/>
</clipPath>
</defs>
</svg>
