<svg width="16" height="16" viewBox="0 0 16 16" fill="none" xmlns="http://www.w3.org/2000/svg">
<path fill-rule="evenodd" clip-rule="evenodd" d="M7.74628 15.1234C6.25786 15.1234 5.56616 14.9052 4.36384 14.0322C3.60334 15.0143 1.19508 15.7817 1.09006 14.4687C1.09006 13.483 0.872768 12.6501 0.62651 11.7408C0.333173 10.6206 0 9.37301 0 7.56533C0 3.248 3.52729 0 7.70644 0C11.8892 0 15.1666 3.40804 15.1666 7.60534C15.1807 11.7377 11.8608 15.1013 7.74628 15.1234ZM7.80784 3.73175C5.77259 3.62627 4.18639 5.04113 3.83511 7.25981C3.5454 9.09658 4.05964 11.3334 4.49784 11.4498C4.70788 11.5008 5.23661 11.0716 5.56616 10.7406C6.11109 11.1187 6.74566 11.3458 7.40586 11.3989C9.51472 11.5008 11.3167 9.88834 11.4583 7.77265C11.5407 5.65248 9.91699 3.85671 7.80784 3.73538L7.80784 3.73175Z" fill="url(#paint0_linear_5001_471)"/>
<defs>
<linearGradient id="paint0_linear_5001_471" x1="-1.1059" y1="1.57986" x2="12.6389" y2="18.1684" gradientUnits="userSpaceOnUse">
<stop stop-color="#3B5BFC"/>
<stop offset="1" stop-color="#9F5EDD"/>
</linearGradient>
</defs>
</svg>
