<svg width="40" height="40" viewBox="0 0 40 40" fill="none" xmlns="http://www.w3.org/2000/svg">
<g clip-path="url(#clip0_3001_702)">
<path d="M20 0C14.6969 0 9.60625 2.10844 5.85938 5.85781C2.10866 9.6087 0.00107328 14.6956 0 20C0 25.3022 2.10938 30.3928 5.85938 34.1422C9.60625 37.8916 14.6969 40 20 40C25.3031 40 30.3937 37.8916 34.1406 34.1422C37.8906 30.3928 40 25.3022 40 20C40 14.6978 37.8906 9.60719 34.1406 5.85781C30.3937 2.10844 25.3031 0 20 0Z" fill="url(#paint0_linear_3001_702)"/>
<path d="M28.0003 11.8942C26.9526 10.8364 25.7047 9.99772 24.3295 9.42722C22.9543 8.85671 21.4792 8.56577 19.9903 8.57137C13.7517 8.57137 8.66746 13.6542 8.66174 19.8942C8.66174 21.8928 9.1846 23.8371 10.1717 25.5585L8.57031 31.4285L14.576 29.8542C16.2367 30.7603 18.0985 31.2343 19.9903 31.2328H19.996C26.236 31.2328 31.3189 26.1499 31.3246 19.9042C31.3259 18.4157 31.0327 16.9417 30.4619 15.567C29.8911 14.1923 29.0555 12.9441 28.0003 11.8942ZM19.9903 29.3157C18.3034 29.3143 16.6478 28.8605 15.196 28.0014L14.8532 27.7957L11.2903 28.7299L12.2417 25.2542L12.0189 24.8957C11.0758 23.3961 10.577 21.66 10.5803 19.8885C10.5803 14.7085 14.8046 10.4828 19.996 10.4828C21.2328 10.4806 22.4578 10.7232 23.6003 11.1966C24.7429 11.6701 25.7805 12.365 26.6532 13.2414C27.5287 14.1144 28.2229 15.1521 28.6956 16.2947C29.1683 17.4372 29.4102 18.662 29.4075 19.8985C29.4017 25.0971 25.1775 29.3157 19.9903 29.3157ZM25.1546 22.2671C24.8732 22.1257 23.4832 21.4414 23.2217 21.3442C22.9617 21.2514 22.7717 21.2028 22.586 21.4857C22.396 21.7671 21.8532 22.4085 21.6903 22.5928C21.5275 22.7828 21.3589 22.8042 21.076 22.6642C20.7946 22.5214 19.8817 22.2242 18.8017 21.2571C17.9589 20.5071 17.3946 19.5785 17.226 19.2971C17.0632 19.0142 17.2103 18.8628 17.3517 18.7214C17.476 18.5957 17.6332 18.3899 17.7746 18.2271C17.9175 18.0642 17.9646 17.9442 18.0575 17.7557C18.1503 17.5642 18.106 17.4014 18.036 17.2599C17.9646 17.1185 17.4003 15.7228 17.1617 15.1599C16.9332 14.6042 16.7003 14.6814 16.526 14.6742C16.3632 14.6642 16.1732 14.6642 15.9832 14.6642C15.8397 14.6679 15.6985 14.7011 15.5685 14.7618C15.4385 14.8225 15.3224 14.9094 15.2275 15.0171C14.9675 15.2999 14.2403 15.9842 14.2403 17.3799C14.2403 18.7757 15.2546 20.1171 15.3975 20.3071C15.5375 20.4971 17.3889 23.3528 20.2303 24.5814C20.9017 24.8742 21.4303 25.0471 21.8432 25.1785C22.5217 25.3957 23.1346 25.3628 23.6232 25.2928C24.166 25.2099 25.296 24.6071 25.5346 23.9457C25.7689 23.2828 25.7689 22.7171 25.6975 22.5985C25.6275 22.4785 25.4375 22.4085 25.1546 22.2671Z" fill="white"/>
</g>
<defs>
<linearGradient id="paint0_linear_3001_702" x1="2000" y1="0" x2="2000" y2="4000" gradientUnits="userSpaceOnUse">
<stop stop-color="#1FAF38"/>
<stop offset="1" stop-color="#60D669"/>
</linearGradient>
<clipPath id="clip0_3001_702">
<rect width="40" height="40" fill="white"/>
</clipPath>
</defs>
</svg>
