<svg width="15" height="15" viewBox="0 0 15 15" fill="none" xmlns="http://www.w3.org/2000/svg">
<path d="M0 1.66667C0 0.746192 0.746192 0 1.66667 0H4.39937C4.75806 0 5.07651 0.229525 5.18994 0.56981L6.43811 4.31434C6.56926 4.70777 6.39115 5.13776 6.02022 5.32322L4.13917 6.26375C5.05771 8.30101 6.69899 9.94229 8.73625 10.8608L9.67678 8.97978C9.86224 8.60885 10.2922 8.43074 10.6857 8.56189L14.4302 9.81006C14.7705 9.92349 15 10.2419 15 10.6006V13.3333C15 14.2538 14.2538 15 13.3333 15H12.5C5.59644 15 0 9.40356 0 2.5V1.66667Z" fill="#38AA70"/>
</svg>
