<svg width="24" height="25" viewBox="0 0 24 25" fill="none" xmlns="http://www.w3.org/2000/svg">
<g clip-path="url(#clip0_1203_2829)">
<path d="M19.5013 14.072L12.0013 21.5L4.50128 14.072C4.00658 13.5906 3.61692 13.012 3.35683 12.3726C3.09673 11.7333 2.97184 11.0469 2.99002 10.3569C3.00819 9.66691 3.16904 8.98813 3.46244 8.36333C3.75583 7.73853 4.17541 7.18125 4.69476 6.72657C5.21411 6.2719 5.82198 5.92968 6.48009 5.72147C7.1382 5.51327 7.83228 5.44358 8.51865 5.5168C9.20501 5.59001 9.86878 5.80455 10.4682 6.1469C11.0675 6.48925 11.5895 6.95199 12.0013 7.50599C12.4148 6.95602 12.9374 6.49731 13.5364 6.1586C14.1353 5.81988 14.7978 5.60844 15.4822 5.53751C16.1666 5.46658 16.8584 5.53769 17.5141 5.74639C18.1697 5.95508 18.7753 6.29687 19.2928 6.75036C19.8104 7.20385 20.2287 7.75928 20.5217 8.38189C20.8147 9.00449 20.976 9.68088 20.9956 10.3687C21.0152 11.0565 20.8925 11.741 20.6354 12.3792C20.3783 13.0175 19.9922 13.5958 19.5013 14.078" stroke="#4F4F4F" stroke-width="2" stroke-linecap="round" stroke-linejoin="round"/>
</g>
<defs>
<clipPath id="clip0_1203_2829">
<rect width="24" height="24" fill="white" transform="translate(0 0.5)"/>
</clipPath>
</defs>
</svg>
