<svg width="24" height="25" viewBox="0 0 24 25" fill="none" xmlns="http://www.w3.org/2000/svg">
<g clip-path="url(#clip0_1203_2770)">
<path d="M4 21.5C5.147 17.48 5.983 13.473 6 9.5H12C12.017 13.473 12.853 17.48 14 21.5" stroke="#F2F2F2" stroke-width="2" stroke-linecap="round" stroke-linejoin="round"/>
<path d="M12.5 13.5H17C17.025 16.112 17.894 18.796 19 21.5" stroke="#F2F2F2" stroke-width="2" stroke-linecap="round" stroke-linejoin="round"/>
<path d="M9 5.5C9.22717 5.18351 9.52797 4.92707 9.87642 4.75285C10.2249 4.57862 10.6105 4.49184 11 4.5C11.3895 4.49184 11.7751 4.57862 12.1236 4.75285C12.472 4.92707 12.7728 5.18351 13 5.5C13.2272 5.81649 13.528 6.07293 13.8764 6.24715C14.2249 6.42138 14.6105 6.50816 15 6.5C15.3895 6.50816 15.7751 6.42138 16.1236 6.24715C16.472 6.07293 16.7728 5.81649 17 5.5C17.2272 5.18351 17.528 4.92707 17.8764 4.75285C18.2249 4.57862 18.6105 4.49184 19 4.5C19.3895 4.49184 19.7751 4.57862 20.1236 4.75285C20.472 4.92707 20.7728 5.18351 21 5.5" stroke="#F2F2F2" stroke-width="2" stroke-linecap="round" stroke-linejoin="round"/>
<path d="M3 21.5H22" stroke="#F2F2F2" stroke-width="2" stroke-linecap="round" stroke-linejoin="round"/>
</g>
<defs>
<clipPath id="clip0_1203_2770">
<rect width="24" height="24" fill="white" transform="translate(0 0.5)"/>
</clipPath>
</defs>
</svg>
