<svg width="24" height="25" viewBox="0 0 24 25" fill="none" xmlns="http://www.w3.org/2000/svg">
<g clip-path="url(#clip0_1203_2778)">
<path d="M7 19.5C8.10457 19.5 9 18.6046 9 17.5C9 16.3954 8.10457 15.5 7 15.5C5.89543 15.5 5 16.3954 5 17.5C5 18.6046 5.89543 19.5 7 19.5Z" stroke="#F2F2F2" stroke-width="2" stroke-linecap="round" stroke-linejoin="round"/>
<path d="M17 19.5C18.1046 19.5 19 18.6046 19 17.5C19 16.3954 18.1046 15.5 17 15.5C15.8954 15.5 15 16.3954 15 17.5C15 18.6046 15.8954 19.5 17 19.5Z" stroke="#F2F2F2" stroke-width="2" stroke-linecap="round" stroke-linejoin="round"/>
<path d="M5 17.5H3V13.5M2 5.5H13V17.5M9 17.5H15M19 17.5H21V11.5M21 11.5H13M21 11.5L18 6.5H13" stroke="#F2F2F2" stroke-width="2" stroke-linecap="round" stroke-linejoin="round"/>
<path d="M3 9.5H7" stroke="#F2F2F2" stroke-width="2" stroke-linecap="round" stroke-linejoin="round"/>
</g>
<defs>
<clipPath id="clip0_1203_2778">
<rect width="24" height="24" fill="white" transform="translate(0 0.5)"/>
</clipPath>
</defs>
</svg>
