<svg width="70" height="70" viewBox="0 0 70 70" fill="none" xmlns="http://www.w3.org/2000/svg">
<path d="M14.3335 1H54.3335C62.0655 1 68.3335 7.26801 68.3335 15V69H14.3335V1Z" stroke="#4F4F4F" stroke-width="2"/>
<rect x="0.333496" y="35" width="45" height="26" rx="4" fill="#E41D13"/>
<path d="M9.2435 53V43.64H12.2725C12.3462 43.64 12.4978 43.6422 12.7275 43.6465C12.9572 43.6508 13.1782 43.666 13.3905 43.692C14.1445 43.783 14.7837 44.0452 15.308 44.4785C15.8323 44.9118 16.231 45.4622 16.504 46.1295C16.777 46.7968 16.9135 47.527 16.9135 48.32C16.9135 49.113 16.777 49.8432 16.504 50.5105C16.231 51.1778 15.8323 51.7282 15.308 52.1615C14.7837 52.5948 14.1445 52.857 13.3905 52.948C13.1782 52.974 12.9572 52.9892 12.7275 52.9935C12.4978 52.9978 12.3462 53 12.2725 53H9.2435ZM11.0375 51.336H12.2725C12.3895 51.336 12.5477 51.3338 12.747 51.3295C12.9463 51.3208 13.1262 51.3013 13.2865 51.271C13.6938 51.1887 14.0253 50.998 14.281 50.699C14.541 50.4 14.7317 50.0403 14.853 49.62C14.9787 49.1997 15.0415 48.7663 15.0415 48.32C15.0415 47.852 14.9765 47.4078 14.8465 46.9875C14.7208 46.5672 14.528 46.2118 14.268 45.9215C14.008 45.6312 13.6808 45.447 13.2865 45.369C13.1262 45.3343 12.9463 45.3148 12.747 45.3105C12.5477 45.3062 12.3895 45.304 12.2725 45.304H11.0375V51.336ZM22.49 53.195C21.554 53.195 20.7458 52.9913 20.0655 52.584C19.3895 52.1767 18.8673 51.6068 18.499 50.8745C18.135 50.1422 17.953 49.2907 17.953 48.32C17.953 47.3493 18.135 46.4978 18.499 45.7655C18.8673 45.0332 19.3895 44.4633 20.0655 44.056C20.7458 43.6487 21.554 43.445 22.49 43.445C23.426 43.445 24.232 43.6487 24.908 44.056C25.5883 44.4633 26.1105 45.0332 26.4745 45.7655C26.8428 46.4978 27.027 47.3493 27.027 48.32C27.027 49.2907 26.8428 50.1422 26.4745 50.8745C26.1105 51.6068 25.5883 52.1767 24.908 52.584C24.232 52.9913 23.426 53.195 22.49 53.195ZM22.49 51.531C23.0837 51.5397 23.5777 51.4118 23.972 51.1475C24.3663 50.8832 24.661 50.5083 24.856 50.023C25.0553 49.5377 25.155 48.97 25.155 48.32C25.155 47.67 25.0553 47.1067 24.856 46.63C24.661 46.1533 24.3663 45.7828 23.972 45.5185C23.5777 45.2542 23.0837 45.1177 22.49 45.109C21.8963 45.1003 21.4023 45.2282 21.008 45.4925C20.6137 45.7568 20.3168 46.1317 20.1175 46.617C19.9225 47.1023 19.825 47.67 19.825 48.32C19.825 48.97 19.9225 49.5333 20.1175 50.01C20.3168 50.4867 20.6137 50.8572 21.008 51.1215C21.4023 51.3858 21.8963 51.5223 22.49 51.531ZM32.3416 53.195C31.4056 53.195 30.5974 52.9913 29.9171 52.584C29.2411 52.1767 28.7189 51.6068 28.3506 50.8745C27.9866 50.1422 27.8046 49.2907 27.8046 48.32C27.8046 47.3493 27.9866 46.4978 28.3506 45.7655C28.7189 45.0332 29.2411 44.4633 29.9171 44.056C30.5974 43.6487 31.4056 43.445 32.3416 43.445C33.4162 43.445 34.3176 43.7115 35.0456 44.2445C35.7779 44.7775 36.2936 45.499 36.5926 46.409L34.8116 46.903C34.6382 46.3353 34.3457 45.8955 33.9341 45.5835C33.5224 45.2672 32.9916 45.109 32.3416 45.109C31.7479 45.109 31.2517 45.2412 30.8531 45.5055C30.4587 45.7698 30.1619 46.1425 29.9626 46.6235C29.7632 47.1045 29.6636 47.67 29.6636 48.32C29.6636 48.97 29.7632 49.5355 29.9626 50.0165C30.1619 50.4975 30.4587 50.8702 30.8531 51.1345C31.2517 51.3988 31.7479 51.531 32.3416 51.531C32.9916 51.531 33.5224 51.3728 33.9341 51.0565C34.3457 50.7402 34.6382 50.3003 34.8116 49.737L36.5926 50.231C36.2936 51.141 35.7779 51.8625 35.0456 52.3955C34.3176 52.9285 33.4162 53.195 32.3416 53.195Z" fill="white"/>
<rect x="23.3335" y="12" width="26" height="2" rx="1" fill="#4F4F4F"/>
<rect x="23.3335" y="17" width="26" height="2" rx="1" fill="#4F4F4F"/>
<rect x="23.3335" y="22" width="13" height="2" rx="1" fill="#4F4F4F"/>
</svg>
