<svg width="69" height="70" viewBox="0 0 69 70" fill="none" xmlns="http://www.w3.org/2000/svg">
<path d="M14 1H54C61.732 1 68 7.26801 68 15V69H14V1Z" stroke="#4F4F4F" stroke-width="2"/>
<rect y="35" width="41" height="26" rx="4" fill="#E41D13"/>
<path d="M8.91 53V43.64H12.862C12.953 43.64 13.0743 43.6443 13.226 43.653C13.382 43.6573 13.5207 43.6703 13.642 43.692C14.201 43.7787 14.6582 43.9628 15.0135 44.2445C15.3732 44.5262 15.6375 44.8815 15.8065 45.3105C15.9755 45.7352 16.06 46.2097 16.06 46.734C16.06 47.2583 15.9733 47.735 15.8 48.164C15.631 48.5887 15.3667 48.9418 15.007 49.2235C14.6517 49.5052 14.1967 49.6893 13.642 49.776C13.5207 49.7933 13.382 49.8063 13.226 49.815C13.07 49.8237 12.9487 49.828 12.862 49.828H10.678V53H8.91ZM10.678 48.177H12.784C12.875 48.177 12.9747 48.1727 13.083 48.164C13.1913 48.1553 13.291 48.138 13.382 48.112C13.6203 48.047 13.8045 47.9387 13.9345 47.787C14.0645 47.631 14.1533 47.4598 14.201 47.2735C14.253 47.0828 14.279 46.903 14.279 46.734C14.279 46.565 14.253 46.3873 14.201 46.201C14.1533 46.0103 14.0645 45.8392 13.9345 45.6875C13.8045 45.5315 13.6203 45.421 13.382 45.356C13.291 45.33 13.1913 45.3127 13.083 45.304C12.9747 45.2953 12.875 45.291 12.784 45.291H10.678V48.177ZM17.3651 53V43.64H20.3941C20.4677 43.64 20.6194 43.6422 20.8491 43.6465C21.0787 43.6508 21.2997 43.666 21.5121 43.692C22.2661 43.783 22.9052 44.0452 23.4296 44.4785C23.9539 44.9118 24.3526 45.4622 24.6256 46.1295C24.8986 46.7968 25.0351 47.527 25.0351 48.32C25.0351 49.113 24.8986 49.8432 24.6256 50.5105C24.3526 51.1778 23.9539 51.7282 23.4296 52.1615C22.9052 52.5948 22.2661 52.857 21.5121 52.948C21.2997 52.974 21.0787 52.9892 20.8491 52.9935C20.6194 52.9978 20.4677 53 20.3941 53H17.3651ZM19.1591 51.336H20.3941C20.5111 51.336 20.6692 51.3338 20.8686 51.3295C21.0679 51.3208 21.2477 51.3013 21.4081 51.271C21.8154 51.1887 22.1469 50.998 22.4026 50.699C22.6626 50.4 22.8532 50.0403 22.9746 49.62C23.1002 49.1997 23.1631 48.7663 23.1631 48.32C23.1631 47.852 23.0981 47.4078 22.9681 46.9875C22.8424 46.5672 22.6496 46.2118 22.3896 45.9215C22.1296 45.6312 21.8024 45.447 21.4081 45.369C21.2477 45.3343 21.0679 45.3148 20.8686 45.3105C20.6692 45.3062 20.5111 45.304 20.3941 45.304H19.1591V51.336ZM26.5946 53V43.64H32.3146V45.408H28.3626V47.436H31.5346V49.204H28.3626V53H26.5946Z" fill="white"/>
<rect x="23" y="12" width="26" height="2" rx="1" fill="#4F4F4F"/>
<rect x="23" y="17" width="26" height="2" rx="1" fill="#4F4F4F"/>
<rect x="23" y="22" width="13" height="2" rx="1" fill="#4F4F4F"/>
</svg>
