<svg width="14" height="13" viewBox="0 0 14 13" fill="none" xmlns="http://www.w3.org/2000/svg">
<path id="&#239;&#130;&#176;" d="M0 1.52344C0 0.894531 0.492188 0.375 1.12109 0.375H12.8516C13.4805 0.375 14 0.894531 14 1.52344C14 1.79688 13.8906 2.04297 13.7266 2.23438L9.1875 7.83984V11.75C9.1875 12.2422 8.77734 12.625 8.28516 12.625C8.09375 12.625 7.90234 12.5703 7.73828 12.4336L5.22266 10.4375C4.94922 10.2188 4.8125 9.91797 4.8125 9.58984V7.83984L0.246094 2.23438C0.0820312 2.04297 0 1.79688 0 1.52344ZM1.47656 1.6875L5.96094 7.18359C6.07031 7.32031 6.125 7.45703 6.125 7.59375V9.48047L7.875 10.875V7.59375C7.875 7.45703 7.90234 7.32031 8.01172 7.18359L12.4961 1.6875H1.47656Z" fill="#0E0E0E"/>
</svg>
