<svg width="70" height="70" viewBox="0 0 70 70" fill="none" xmlns="http://www.w3.org/2000/svg">
<path d="M14.6665 1H54.6665C62.3985 1 68.6665 7.26801 68.6665 15V69H14.6665V1Z" stroke="#4F4F4F" stroke-width="2"/>
<rect x="0.666504" y="35" width="41" height="26" rx="4" fill="#E41D13"/>
<path d="M8.7965 53L11.9425 48.268L8.8875 43.64H11.0585L13.0475 46.76L15.0105 43.64H17.1945L14.1395 48.268L17.2725 53H15.1015L13.0475 49.776L10.9805 53H8.7965ZM18.4409 53V43.64H20.2089V51.349H24.2389V53H18.4409ZM28.8801 53.195C28.1867 53.195 27.5606 53.0737 27.0016 52.831C26.4469 52.584 25.9897 52.233 25.6301 51.778C25.2747 51.3187 25.0494 50.7727 24.9541 50.14L26.8001 49.867C26.9301 50.4043 27.1987 50.8182 27.6061 51.1085C28.0134 51.3988 28.4771 51.544 28.9971 51.544C29.2874 51.544 29.5691 51.4985 29.8421 51.4075C30.1151 51.3165 30.3382 51.1822 30.5116 51.0045C30.6892 50.8268 30.7781 50.608 30.7781 50.348C30.7781 50.2527 30.7629 50.1617 30.7326 50.075C30.7066 49.984 30.6611 49.8995 30.5961 49.8215C30.5311 49.7435 30.4379 49.6698 30.3166 49.6005C30.1996 49.5312 30.0501 49.4683 29.8681 49.412L27.4371 48.697C27.2551 48.645 27.0427 48.5713 26.8001 48.476C26.5617 48.3807 26.3299 48.2442 26.1046 48.0665C25.8792 47.8888 25.6907 47.6548 25.5391 47.3645C25.3917 47.0698 25.3181 46.6993 25.3181 46.253C25.3181 45.6247 25.4762 45.1025 25.7926 44.6865C26.1089 44.2705 26.5314 43.9607 27.0601 43.757C27.5887 43.5533 28.1737 43.4537 28.8151 43.458C29.4607 43.4667 30.0371 43.5772 30.5441 43.7895C31.0511 44.0018 31.4757 44.3117 31.8181 44.719C32.1604 45.122 32.4074 45.616 32.5591 46.201L30.6481 46.526C30.5787 46.2227 30.4509 45.967 30.2646 45.759C30.0782 45.551 29.8551 45.3928 29.5951 45.2845C29.3394 45.1762 29.0707 45.1177 28.7891 45.109C28.5117 45.1003 28.2496 45.1393 28.0026 45.226C27.7599 45.3083 27.5606 45.4297 27.4046 45.59C27.2529 45.7503 27.1771 45.941 27.1771 46.162C27.1771 46.3657 27.2399 46.5325 27.3656 46.6625C27.4912 46.7882 27.6494 46.89 27.8401 46.968C28.0307 47.046 28.2257 47.111 28.4251 47.163L30.0501 47.605C30.2927 47.67 30.5614 47.7567 30.8561 47.865C31.1507 47.969 31.4324 48.1163 31.7011 48.307C31.9741 48.4933 32.1972 48.7403 32.3706 49.048C32.5482 49.3557 32.6371 49.7457 32.6371 50.218C32.6371 50.7207 32.5309 51.1605 32.3186 51.5375C32.1106 51.9102 31.8289 52.22 31.4736 52.467C31.1182 52.7097 30.7152 52.8917 30.2646 53.013C29.8182 53.1343 29.3567 53.195 28.8801 53.195Z" fill="white"/>
<rect x="23.6665" y="12" width="26" height="2" rx="1" fill="#4F4F4F"/>
<rect x="23.6665" y="17" width="26" height="2" rx="1" fill="#4F4F4F"/>
<rect x="23.6665" y="22" width="13" height="2" rx="1" fill="#4F4F4F"/>
</svg>
