<svg width="25" height="24" viewBox="0 0 25 24" fill="none" xmlns="http://www.w3.org/2000/svg">
<g clip-path="url(#clip0_706_1364)">
<path d="M7.33594 11V19C7.33594 19.2652 7.23058 19.5196 7.04304 19.7071C6.85551 19.8946 6.60115 20 6.33594 20H4.33594C4.07072 20 3.81637 19.8946 3.62883 19.7071C3.44129 19.5196 3.33594 19.2652 3.33594 19V12C3.33594 11.7348 3.44129 11.4804 3.62883 11.2929C3.81637 11.1054 4.07072 11 4.33594 11H7.33594ZM7.33594 11C8.3968 11 9.41422 10.5786 10.1644 9.82843C10.9145 9.07828 11.3359 8.06087 11.3359 7V6C11.3359 5.46957 11.5467 4.96086 11.9217 4.58579C12.2968 4.21071 12.8055 4 13.3359 4C13.8664 4 14.3751 4.21071 14.7502 4.58579C15.1252 4.96086 15.3359 5.46957 15.3359 6V11H18.3359C18.8664 11 19.3751 11.2107 19.7502 11.5858C20.1252 11.9609 20.3359 12.4696 20.3359 13L19.3359 18C19.1921 18.6135 18.9193 19.1402 18.5586 19.501C18.1979 19.8617 17.7688 20.0368 17.3359 20H10.3359C9.54029 20 8.77723 19.6839 8.21462 19.1213C7.65201 18.5587 7.33594 17.7956 7.33594 17" stroke="white" stroke-width="2" stroke-linecap="round" stroke-linejoin="round"/>
</g>
<defs>
<clipPath id="clip0_706_1364">
<rect width="24" height="24" fill="white" transform="translate(0.335938)"/>
</clipPath>
</defs>
</svg>
