<svg width="16" height="17" viewBox="0 0 16 17" fill="none" xmlns="http://www.w3.org/2000/svg">
<g clip-path="url(#clip0_706_691)">
<path d="M8 9.8335C9.10457 9.8335 10 8.93807 10 7.8335C10 6.72893 9.10457 5.8335 8 5.8335C6.89543 5.8335 6 6.72893 6 7.8335C6 8.93807 6.89543 9.8335 8 9.8335Z" stroke="#F2F2F2" stroke-width="2" stroke-linecap="round" stroke-linejoin="round"/>
<path d="M11.7726 11.6045L8.94397 14.4331C8.69396 14.6829 8.35503 14.8232 8.00164 14.8232C7.64825 14.8232 7.30931 14.6829 7.0593 14.4331L4.22997 11.6045C3.48412 10.8586 2.9762 9.90827 2.77043 8.87371C2.56466 7.83916 2.6703 6.76681 3.07397 5.79229C3.47765 4.81777 4.16124 3.98483 5.03829 3.39881C5.91535 2.81279 6.94648 2.5 8.0013 2.5C9.05613 2.5 10.0873 2.81279 10.9643 3.39881C11.8414 3.98483 12.525 4.81777 12.9286 5.79229C13.3323 6.76681 13.4379 7.83916 13.2322 8.87371C13.0264 9.90827 12.5185 10.8586 11.7726 11.6045Z" stroke="#F2F2F2" stroke-width="2" stroke-linecap="round" stroke-linejoin="round"/>
</g>
<defs>
<clipPath id="clip0_706_691">
<rect width="16" height="16" fill="white" transform="translate(0 0.5)"/>
</clipPath>
</defs>
</svg>
