<svg width="16" height="17" viewBox="0 0 16 17" fill="none" xmlns="http://www.w3.org/2000/svg">
<g clip-path="url(#clip0_1203_2851)">
<path d="M8 9.83334C9.10457 9.83334 10 8.93791 10 7.83334C10 6.72877 9.10457 5.83334 8 5.83334C6.89543 5.83334 6 6.72877 6 7.83334C6 8.93791 6.89543 9.83334 8 9.83334Z" stroke="#4F4F4F" stroke-width="2" stroke-linecap="round" stroke-linejoin="round"/>
<path d="M11.7726 11.6047L8.94397 14.4334C8.69396 14.6831 8.35503 14.8234 8.00164 14.8234C7.64825 14.8234 7.30931 14.6831 7.0593 14.4334L4.22997 11.6047C3.48412 10.8588 2.9762 9.90852 2.77043 8.87396C2.56466 7.8394 2.6703 6.76706 3.07397 5.79254C3.47765 4.81801 4.16124 3.98508 5.03829 3.39905C5.91535 2.81303 6.94648 2.50024 8.0013 2.50024C9.05613 2.50024 10.0873 2.81303 10.9643 3.39905C11.8414 3.98508 12.525 4.81801 12.9286 5.79254C13.3323 6.76706 13.4379 7.8394 13.2322 8.87396C13.0264 9.90852 12.5185 10.8588 11.7726 11.6047Z" stroke="#4F4F4F" stroke-width="2" stroke-linecap="round" stroke-linejoin="round"/>
</g>
<defs>
<clipPath id="clip0_1203_2851">
<rect width="16" height="16" fill="white" transform="translate(0 0.5)"/>
</clipPath>
</defs>
</svg>
