<svg width="32" height="32" viewBox="0 0 32 32" fill="none" xmlns="http://www.w3.org/2000/svg">
<path d="M4 20.0001C4 21.4146 4.5619 22.7711 5.5621 23.7713C6.56229 24.7715 7.91885 25.3334 9.33333 25.3334C10.7478 25.3334 12.1044 24.7715 13.1046 23.7713C14.1048 22.7711 14.6667 21.4146 14.6667 20.0001C14.6667 18.5856 14.1048 17.229 13.1046 16.2288C12.1044 15.2287 10.7478 14.6667 9.33333 14.6667C7.91885 14.6667 6.56229 15.2287 5.5621 16.2288C4.5619 17.229 4 18.5856 4 20.0001Z" stroke="white" stroke-width="2" stroke-linecap="round" stroke-linejoin="round"/>
<path d="M9.3335 20V20.0142" stroke="white" stroke-width="2" stroke-linecap="round" stroke-linejoin="round"/>
<path d="M22.6665 22.6667C22.6665 23.3739 22.9475 24.0522 23.4476 24.5523C23.9477 25.0524 24.6259 25.3333 25.3332 25.3333C26.0404 25.3333 26.7187 25.0524 27.2188 24.5523C27.7189 24.0522 27.9998 23.3739 27.9998 22.6667C27.9998 21.9594 27.7189 21.2811 27.2188 20.781C26.7187 20.281 26.0404 20 25.3332 20C24.6259 20 23.9477 20.281 23.4476 20.781C22.9475 21.2811 22.6665 21.9594 22.6665 22.6667Z" stroke="white" stroke-width="2" stroke-linecap="round" stroke-linejoin="round"/>
<path d="M14 22.6667H22.6667" stroke="white" stroke-width="2" stroke-linecap="round" stroke-linejoin="round"/>
<path d="M26.6665 20.2667V14.6667C26.6665 14.3131 26.526 13.974 26.276 13.7239C26.0259 13.4739 25.6868 13.3334 25.3332 13.3334H17.3332L14.6665 6.66675H6.6665V15.3334" stroke="white" stroke-width="2" stroke-linecap="round" stroke-linejoin="round"/>
<path d="M24.0002 6.66675H22.6668C22.3132 6.66675 21.9741 6.80722 21.724 7.05727C21.474 7.30732 21.3335 7.64646 21.3335 8.00008V13.3334" stroke="white" stroke-width="2" stroke-linecap="round" stroke-linejoin="round"/>
</svg>
