<svg width="32" height="32" viewBox="0 0 32 32" fill="none" xmlns="http://www.w3.org/2000/svg">
<path d="M6.6665 22.6667C6.6665 23.3739 6.94746 24.0522 7.44755 24.5523C7.94765 25.0524 8.62593 25.3333 9.33317 25.3333C10.0404 25.3333 10.7187 25.0524 11.2188 24.5523C11.7189 24.0522 11.9998 23.3739 11.9998 22.6667C11.9998 21.9594 11.7189 21.2811 11.2188 20.781C10.7187 20.281 10.0404 20 9.33317 20C8.62593 20 7.94765 20.281 7.44755 20.781C6.94746 21.2811 6.6665 21.9594 6.6665 22.6667Z" stroke="white" stroke-width="2" stroke-linecap="round" stroke-linejoin="round"/>
<path d="M20 22.6667C20 23.3739 20.281 24.0522 20.781 24.5523C21.2811 25.0524 21.9594 25.3333 22.6667 25.3333C23.3739 25.3333 24.0522 25.0524 24.5523 24.5523C25.0524 24.0522 25.3333 23.3739 25.3333 22.6667C25.3333 21.9594 25.0524 21.2811 24.5523 20.781C24.0522 20.281 23.3739 20 22.6667 20C21.9594 20 21.2811 20.281 20.781 20.781C20.281 21.2811 20 21.9594 20 22.6667Z" stroke="white" stroke-width="2" stroke-linecap="round" stroke-linejoin="round"/>
<path d="M6.66667 22.6667H4V8.00008C4 7.64646 4.14048 7.30732 4.39052 7.05727C4.64057 6.80722 4.97971 6.66675 5.33333 6.66675H17.3333V22.6667M12 22.6667H20M25.3333 22.6667H28V14.6667M28 14.6667H17.3333M28 14.6667L24 8.00008H17.3333" stroke="white" stroke-width="2" stroke-linecap="round" stroke-linejoin="round"/>
</svg>
