<svg width="40" height="40" viewBox="0 0 40 40" fill="none" xmlns="http://www.w3.org/2000/svg">
<rect width="40" height="40" rx="12" fill="white"/>
<path d="M12 24.5C13.1046 24.5 14 23.6046 14 22.5C14 21.3954 13.1046 20.5 12 20.5C10.8954 20.5 10 21.3954 10 22.5C10 23.6046 10.8954 24.5 12 24.5Z" fill="#4D5C92"/>
<path d="M9.22 26.08C8.48 26.4 8 27.12 8 27.93V29.5H12.5V27.89C12.5 27.06 12.73 26.28 13.13 25.6C12.76 25.54 12.39 25.5 12 25.5C11.01 25.5 10.07 25.71 9.22 26.08Z" fill="#4D5C92"/>
<path d="M28 24.5C29.1046 24.5 30 23.6046 30 22.5C30 21.3954 29.1046 20.5 28 20.5C26.8954 20.5 26 21.3954 26 22.5C26 23.6046 26.8954 24.5 28 24.5Z" fill="#4D5C92"/>
<path d="M30.78 26.08C29.93 25.71 28.99 25.5 28 25.5C27.61 25.5 27.24 25.54 26.87 25.6C27.27 26.28 27.5 27.06 27.5 27.89V29.5H32V27.93C32 27.12 31.52 26.4 30.78 26.08Z" fill="#4D5C92"/>
<path d="M24.24 25.15C23.07 24.63 21.63 24.25 20 24.25C18.37 24.25 16.93 24.64 15.76 25.15C14.68 25.63 14 26.71 14 27.89V29.5H26V27.89C26 26.71 25.32 25.63 24.24 25.15ZM16.07 27.5C16.16 27.27 16.34 27.08 16.56 26.98C17.66 26.49 18.82 26.25 19.99 26.25C21.17 26.25 22.32 26.5 23.42 26.98C23.65 27.08 23.82 27.27 23.91 27.5H16.07Z" fill="#4D5C92"/>
<path d="M17 20.5C17 22.16 18.34 23.5 20 23.5C21.66 23.5 23 22.16 23 20.5C23 18.84 21.66 17.5 20 17.5C18.34 17.5 17 18.84 17 20.5ZM21 20.5C21 21.05 20.55 21.5 20 21.5C19.45 21.5 19 21.05 19 20.5C19 19.95 19.45 19.5 20 19.5C20.55 19.5 21 19.95 21 20.5Z" fill="#4D5C92"/>
<path d="M10.48 19.36C10.17 18.6 10 17.86 10 17.1C10 14.52 12.02 12.5 14.6 12.5C17.28 12.5 18.42 14.24 20 16.09C21.57 14.26 22.7 12.5 25.4 12.5C27.98 12.5 30 14.52 30 17.1C30 17.86 29.83 18.6 29.52 19.36C30.17 19.67 30.7 20.18 31.05 20.8C31.65 19.6 32 18.38 32 17.1C32 13.4 29.1 10.5 25.4 10.5C23.31 10.5 21.31 11.47 20 13.01C18.69 11.47 16.69 10.5 14.6 10.5C10.9 10.5 8 13.4 8 17.1C8 18.38 8.35 19.6 8.96 20.8C9.31 20.18 9.84 19.67 10.48 19.36Z" fill="#4D5C92"/>
</svg>
