<svg width="36" height="23" viewBox="0 0 36 23" fill="none" xmlns="http://www.w3.org/2000/svg">
<path d="M19.172 22.4C7.14554 22.4 0.285821 13.9916 0 0H6.02423C6.22211 10.2695 10.6633 14.6194 14.1811 15.5163V0H19.8536V8.85686C23.3274 8.47567 26.9771 4.43964 28.2084 0H33.8808C33.4169 2.30252 32.492 4.48264 31.1642 6.404C29.8363 8.32536 28.134 9.94662 26.1636 11.1664C28.363 12.2809 30.3056 13.8584 31.8632 15.7948C33.4209 17.7312 34.5581 19.9824 35.2 22.4H28.9559C28.3797 20.3002 27.2086 18.4205 25.5894 16.9965C23.9702 15.5725 21.9749 14.6676 19.8536 14.3952V22.4H19.172V22.4Z" fill="white"/>
</svg>
