<svg width="32" height="32" viewBox="0 0 32 32" fill="none" xmlns="http://www.w3.org/2000/svg">
<path d="M30.6667 15.9867L27.4133 12.2667L27.8667 7.34667L23.0533 6.25333L20.5333 2L16 3.94667L11.4667 2L8.94668 6.25333L4.13334 7.33333L4.58668 12.2667L1.33334 15.9867L4.58668 19.7067L4.13334 24.64L8.94668 25.7333L11.4667 30L16 28.04L20.5333 29.9867L23.0533 25.7333L27.8667 24.64L27.4133 19.72L30.6667 15.9867ZM25.4 17.96L24.6533 18.8267L24.76 19.96L25 22.56L21.3467 23.3867L20.76 24.3733L19.44 26.6133L17.0667 25.5867L16 25.1333L14.9467 25.5867L12.5733 26.6133L11.2533 24.3867L10.6667 23.4L7.01334 22.5733L7.25334 19.96L7.36001 18.8267L6.61334 17.96L4.89334 16L6.61334 14.0267L7.36001 13.16L7.24001 12.0133L7.00001 9.42667L10.6533 8.6L11.24 7.61333L12.56 5.37333L14.9333 6.4L16 6.85333L17.0533 6.4L19.4267 5.37333L20.7467 7.61333L21.3333 8.6L24.9867 9.42667L24.7467 12.0267L24.64 13.16L25.3867 14.0267L27.1067 15.9867L25.4 17.96Z" fill="#00BB54"/>
<path d="M13.4533 18.3333L10.36 15.2267L8.38668 17.2133L13.4533 22.2933L23.24 12.48L21.2667 10.4933L13.4533 18.3333Z" fill="#00BB54"/>
</svg>
