<svg width="32" height="32" viewBox="0 0 32 32" fill="none" xmlns="http://www.w3.org/2000/svg">
<g clip-path="url(#clip0_110_51648)">
<path d="M15.5735 0.426668C6.30241 0.911112 0.182414 8.18222 0.56908 17.3511C0.737969 21.3644 2.3513 24.8178 2.73352 28.6267C2.8313 29.6133 2.54686 30.8311 3.68464 31.2622C5.08464 31.7911 7.2313 30.9022 8.40464 30.0889C8.80464 29.8178 9.18686 29.5022 9.48019 29.1111C10.6935 29.9156 11.8446 30.6933 13.2891 31.04C19.6491 32.5644 26.618 29.0756 29.7157 23.4711C35.538 12.9422 27.6669 -0.204443 15.5735 0.426668ZM11.9735 22.4C11.4713 22.7911 10.9869 23.3244 10.4313 23.6311C9.62686 24.0622 9.37797 23.6133 9.07575 22.9022C8.12464 20.64 8.00908 16.7867 8.56464 14.4178C9.3113 11.1956 11.8046 8.36 15.2313 8.05778C18.698 7.75111 21.9157 9.51111 23.3691 12.6889C26.5869 19.76 18.3513 26.7422 11.9735 22.4044V22.4Z" fill="white"/>
</g>
<defs>
<clipPath id="clip0_110_51648">
<rect width="32" height="32" fill="white"/>
</clipPath>
</defs>
</svg>
