<svg width="22" height="36" viewBox="0 0 22 36" fill="none" xmlns="http://www.w3.org/2000/svg">
<path d="M21.1802 22.0685C22.0198 21.229 22.1397 20.0296 21.4201 18.8302C20.8204 17.8707 19.741 17.391 18.5416 17.6308C18.0619 17.7508 17.5821 17.9907 17.1023 18.3505C13.3843 20.8692 8.34691 20.7492 4.62884 18.2305C4.38897 18.1106 4.14908 17.9906 3.90921 17.8707C2.58989 17.271 1.2706 17.5109 0.550969 18.7103C-0.288594 19.9097 -0.168671 21.229 0.910768 22.3084C1.15064 22.5483 1.39052 22.6682 1.51046 22.9081L1.6304 23.028C3.30953 24.3473 5.34847 25.1869 7.9871 25.5467L6.42791 27.1059C5.10859 28.4252 3.66935 29.8645 2.35003 31.1838C1.99022 31.5436 1.51046 32.1433 1.51046 32.9829C1.51046 34.0623 2.11015 35.1417 3.18959 35.6215C3.54941 35.8614 3.90921 35.8614 4.26902 35.8614C4.86871 35.8614 5.58834 35.6215 6.06809 35.0218C7.86715 33.2227 9.30642 31.7835 10.7457 30.3442C10.8656 30.2243 10.8656 30.2243 10.8656 30.2243C10.8656 30.2243 10.9855 30.2243 10.9855 30.3442C11.945 31.4237 13.0245 32.3832 13.984 33.4626C14.4637 33.9423 14.9435 34.4221 15.4232 34.9019C16.0229 35.5016 16.5027 35.7414 17.2223 35.7414C18.3017 35.8614 19.5011 35.1417 19.9809 34.0623C20.4606 33.1028 20.2207 31.9034 19.3812 31.1838C18.1818 29.9844 16.9824 28.6651 15.6631 27.4657L13.6242 25.4268C14.7036 25.3068 15.903 25.067 16.9824 24.5872C18.7815 23.9875 20.1008 23.148 21.1802 22.0685Z" fill="white"/>
<path d="M10.8656 18.7103C16.0229 18.7103 20.2207 14.6324 20.2207 9.47506C20.2207 6.95637 19.2612 4.55763 17.4622 2.75857C15.6631 0.959504 13.3843 0 10.9855 0C5.82822 0 1.75034 4.19781 1.6304 9.23519C1.6304 11.7539 2.5899 14.0327 4.38897 15.8318C6.06809 17.7508 8.3469 18.7103 10.8656 18.7103ZM8.22697 6.71651C8.94659 5.99689 9.90609 5.63706 10.8656 5.63706C13.0245 5.63706 14.5837 7.3162 14.5837 9.35514C14.5837 11.514 12.9045 13.0732 10.8656 13.0732C8.70671 13.0732 7.14754 11.3941 7.14754 9.35514C7.14754 8.39564 7.50734 7.43614 8.22697 6.71651Z" fill="white"/>
<path d="M21.1802 22.0685C22.0198 21.229 22.1397 20.0296 21.4201 18.8302C20.8204 17.8707 19.741 17.391 18.5416 17.6308C18.0619 17.7508 17.5821 17.9907 17.1023 18.3505C13.3843 20.8692 8.34691 20.7492 4.62884 18.2305C4.38897 18.1106 4.14908 17.9906 3.90921 17.8707C2.58989 17.271 1.2706 17.5109 0.550969 18.7103C-0.288594 19.9097 -0.168671 21.229 0.910768 22.3084C1.15064 22.5483 1.39052 22.6682 1.51046 22.9081L1.6304 23.028C3.30953 24.3473 5.34847 25.1869 7.9871 25.5467L6.42791 27.1059C5.10859 28.4252 3.66935 29.8645 2.35003 31.1838C1.99022 31.5436 1.51046 32.1433 1.51046 32.9829C1.51046 34.0623 2.11015 35.1417 3.18959 35.6215C3.54941 35.8614 3.90921 35.8614 4.26902 35.8614C4.86871 35.8614 5.58834 35.6215 6.06809 35.0218C7.86715 33.2227 9.30642 31.7835 10.7457 30.3442C10.8656 30.2243 10.8656 30.2243 10.8656 30.2243C10.8656 30.2243 10.9855 30.2243 10.9855 30.3442C11.945 31.4237 13.0245 32.3832 13.984 33.4626C14.4637 33.9423 14.9435 34.4221 15.4232 34.9019C16.0229 35.5016 16.5027 35.7414 17.2223 35.7414C18.3017 35.8614 19.5011 35.1417 19.9809 34.0623C20.4606 33.1028 20.2207 31.9034 19.3812 31.1838C18.1818 29.9844 16.9824 28.6651 15.6631 27.4657L13.6242 25.4268C14.7036 25.3068 15.903 25.067 16.9824 24.5872C18.7815 23.9875 20.1008 23.148 21.1802 22.0685Z" fill="white"/>
</svg>
