<svg width="34" height="34" viewBox="0 0 34 34" fill="none" xmlns="http://www.w3.org/2000/svg">
<mask id="mask0_157_53373" style="mask-type:luminance" maskUnits="userSpaceOnUse" x="0" y="0" width="33" height="33">
<path d="M32.7578 16.7578C32.7578 7.92126 25.5944 0.757812 16.7578 0.757812C7.92126 0.757812 0.757812 7.92126 0.757812 16.7578C0.757812 25.5944 7.92126 32.7578 16.7578 32.7578C25.5944 32.7578 32.7578 25.5944 32.7578 16.7578Z" fill="white"/>
</mask>
<g mask="url(#mask0_157_53373)">
<path d="M20.5243 16.0273H11.0704V12.2862H20.5243C21.0766 12.2862 21.4605 12.3825 21.6532 12.5506C21.8459 12.7187 21.9653 13.0304 21.9653 13.4858V14.8291C21.9653 15.3089 21.8459 15.6207 21.6532 15.7888C21.4605 15.9569 21.0766 16.0287 20.5243 16.0287V16.0273ZM21.1729 8.75924H7.06104V24.7578H11.0704V19.5528H18.4593L21.9653 24.7578H26.455L22.5894 19.5284C24.0146 19.3172 24.6545 18.8805 25.1822 18.1607C25.71 17.4409 25.9747 16.2902 25.9747 14.7544V13.5548C25.9747 12.6439 25.8782 11.9242 25.71 11.3725C25.5418 10.8208 25.2542 10.341 24.8458 9.91001C24.4143 9.50201 23.934 9.21466 23.3573 9.02215C22.7807 8.85408 22.0602 8.75781 21.1729 8.75781V8.75924Z" fill="white"/>
<path d="M48.7578 0.75782C48.7578 9.59437 41.5944 16.7578 32.7578 16.7578C30.9612 16.7578 29.2339 16.4617 27.6218 15.9157C27.6562 15.5354 27.6715 15.1467 27.6715 14.7544V13.5548C27.6715 12.5362 27.5651 11.6384 27.3331 10.8775C27.0827 10.0569 26.6536 9.35073 26.0773 8.74278L26.0453 8.70904L26.0116 8.67709C25.3978 8.0965 24.7019 7.68206 23.8945 7.4125L23.8635 7.40215L23.832 7.39299C23.0635 7.16896 22.1762 7.06084 21.1727 7.06084H19.4758V7.06227H18.0478C17.2175 5.12768 16.7578 2.99644 16.7578 0.75782C16.7578 -8.07875 23.9213 -15.2422 32.7578 -15.2422C41.5944 -15.2422 48.7578 -8.07875 48.7578 0.75782Z" fill="white"/>
</g>
<path d="M32.5152 16.7576C32.5152 8.05491 25.4602 1 16.7576 1C8.05491 1 1 8.05491 1 16.7576C1 25.4602 8.05491 32.5152 16.7576 32.5152C25.4602 32.5152 32.5152 25.4602 32.5152 16.7576Z" stroke="white" stroke-width="2"/>
</svg>
