<svg width="142" height="48" viewBox="0 0 142 48" fill="none" xmlns="http://www.w3.org/2000/svg">
<circle cx="12" cy="12" r="12" fill="#4D5C92"/>
<circle cx="36" cy="12" r="12" fill="#4D5C92"/>
<circle cx="12" cy="36" r="12" fill="#4D5C92"/>
<circle cx="36" cy="36" r="12" fill="#4D5C92"/>
<path d="M57.944 21V4.2H69.656V7.176H61.544V10.92H68.936V13.8H61.544V18.024H69.656V21H57.944ZM71.3472 24V18.36H72.7872C73.0112 18.024 73.1872 17.52 73.3152 16.848C73.4592 16.176 73.5632 15.424 73.6272 14.592C73.7072 13.744 73.7472 12.912 73.7472 12.096V8.28H83.7072V18.36H85.2432V24H82.4832V21H74.1072V24H71.3472ZM75.8832 18.36H80.5392V10.92H76.6272V12.576C76.6272 13.696 76.5712 14.784 76.4592 15.84C76.3632 16.88 76.1712 17.72 75.8832 18.36ZM87.0578 21V8.28H90.2018V16.44L95.8658 8.28H98.7698V21H95.6258V12.84L89.9618 21H87.0578ZM101.456 21V8.28H104.6V13.2H110.024V8.28H113.168V21H110.024V15.84H104.6V21H101.456ZM119.647 21.288C118.735 21.288 117.959 21.12 117.319 20.784C116.679 20.432 116.191 19.952 115.855 19.344C115.519 18.736 115.351 18.048 115.351 17.28C115.351 16 115.727 15.04 116.479 14.4C117.247 13.76 118.391 13.44 119.911 13.44H123.703V12.84C123.703 12.008 123.511 11.424 123.127 11.088C122.759 10.752 122.167 10.584 121.351 10.584C120.631 10.584 120.111 10.712 119.791 10.968C119.471 11.208 119.287 11.512 119.239 11.88H116.071C116.119 11.144 116.351 10.488 116.767 9.912C117.199 9.32 117.807 8.856 118.591 8.52C119.391 8.168 120.351 7.992 121.471 7.992C122.559 7.992 123.503 8.152 124.303 8.472C125.119 8.792 125.751 9.312 126.199 10.032C126.647 10.736 126.871 11.688 126.871 12.888V17.76C126.871 18.432 126.879 19.024 126.895 19.536C126.927 20.032 126.975 20.52 127.039 21H124.087C124.023 20.648 123.983 20.384 123.967 20.208C123.967 20.016 123.967 19.736 123.967 19.368C123.631 19.88 123.103 20.328 122.383 20.712C121.663 21.096 120.751 21.288 119.647 21.288ZM120.631 18.84C121.143 18.84 121.631 18.752 122.095 18.576C122.575 18.384 122.959 18.096 123.247 17.712C123.551 17.312 123.703 16.808 123.703 16.2V15.6H120.511C119.903 15.6 119.423 15.744 119.071 16.032C118.735 16.304 118.567 16.68 118.567 17.16C118.567 17.672 118.743 18.08 119.095 18.384C119.447 18.688 119.959 18.84 120.631 18.84ZM128.665 21L131.953 16.224C130.977 15.904 130.265 15.424 129.817 14.784C129.369 14.144 129.145 13.392 129.145 12.528C129.145 11.696 129.337 10.96 129.721 10.32C130.105 9.68 130.689 9.184 131.473 8.832C132.257 8.464 133.241 8.28 134.425 8.28H140.425V21H137.257V16.608H134.977L132.217 21H128.665ZM132.313 12.528C132.313 13.072 132.489 13.472 132.841 13.728C133.209 13.984 133.697 14.112 134.305 14.112H137.257V10.92H134.305C133.697 10.92 133.209 11.056 132.841 11.328C132.489 11.584 132.313 11.984 132.313 12.528ZM63.08 45.288C61.912 45.288 60.856 45.048 59.912 44.568C58.968 44.072 58.216 43.344 57.656 42.384C57.112 41.408 56.84 40.2 56.84 38.76V38.28C56.84 36.904 57.128 35.752 57.704 34.824C58.28 33.896 59.04 33.192 59.984 32.712C60.928 32.232 61.96 31.992 63.08 31.992C64.28 31.992 65.296 32.192 66.128 32.592C66.96 32.992 67.6 33.544 68.048 34.248C68.512 34.952 68.776 35.728 68.84 36.576H65.624C65.496 36 65.232 35.544 64.832 35.208C64.448 34.856 63.864 34.68 63.08 34.68C62.536 34.68 62.032 34.808 61.568 35.064C61.12 35.32 60.752 35.712 60.464 36.24C60.192 36.768 60.056 37.448 60.056 38.28V38.76C60.056 39.656 60.184 40.392 60.44 40.968C60.712 41.528 61.072 41.944 61.52 42.216C61.984 42.472 62.504 42.6 63.08 42.6C63.704 42.6 64.24 42.44 64.688 42.12C65.152 41.784 65.464 41.312 65.624 40.704H68.84C68.744 41.616 68.44 42.424 67.928 43.128C67.416 43.832 66.736 44.368 65.888 44.736C65.056 45.104 64.12 45.288 63.08 45.288ZM70.7609 45V32.28H73.9049V40.44L79.5689 32.28H82.4729V45H79.3289V36.84L73.6649 45H70.7609ZM85.2553 45.288C85.1273 45.288 84.9673 45.28 84.7753 45.264C84.5833 45.264 84.4233 45.248 84.2953 45.216V42.36C84.3433 42.376 84.4633 42.384 84.6553 42.384C85.0713 42.384 85.4073 42.216 85.6633 41.88C85.9353 41.528 86.1353 40.928 86.2633 40.08C86.3913 39.232 86.4553 38.072 86.4553 36.6V32.28H96.5353V45H93.3673V34.92H89.3833V37.08C89.3833 38.728 89.2953 40.088 89.1193 41.16C88.9593 42.232 88.7033 43.072 88.3513 43.68C88.0153 44.272 87.5913 44.688 87.0793 44.928C86.5673 45.168 85.9593 45.288 85.2553 45.288ZM102.975 45.288C102.063 45.288 101.287 45.12 100.647 44.784C100.007 44.432 99.5188 43.952 99.1828 43.344C98.8468 42.736 98.6788 42.048 98.6788 41.28C98.6788 40 99.0548 39.04 99.8068 38.4C100.575 37.76 101.719 37.44 103.239 37.44H107.031V36.84C107.031 36.008 106.839 35.424 106.455 35.088C106.087 34.752 105.495 34.584 104.679 34.584C103.959 34.584 103.439 34.712 103.119 34.968C102.799 35.208 102.615 35.512 102.567 35.88H99.3988C99.4468 35.144 99.6788 34.488 100.095 33.912C100.527 33.32 101.135 32.856 101.919 32.52C102.719 32.168 103.679 31.992 104.799 31.992C105.887 31.992 106.831 32.152 107.631 32.472C108.447 32.792 109.079 33.312 109.527 34.032C109.975 34.736 110.199 35.688 110.199 36.888V41.76C110.199 42.432 110.207 43.024 110.223 43.536C110.255 44.032 110.303 44.52 110.367 45H107.415C107.351 44.648 107.311 44.384 107.295 44.208C107.295 44.016 107.295 43.736 107.295 43.368C106.959 43.88 106.431 44.328 105.711 44.712C104.991 45.096 104.079 45.288 102.975 45.288ZM103.959 42.84C104.471 42.84 104.959 42.752 105.423 42.576C105.903 42.384 106.287 42.096 106.575 41.712C106.879 41.312 107.031 40.808 107.031 40.2V39.6H103.839C103.231 39.6 102.751 39.744 102.399 40.032C102.063 40.304 101.895 40.68 101.895 41.16C101.895 41.672 102.071 42.08 102.423 42.384C102.775 42.688 103.287 42.84 103.959 42.84Z" fill="#4D5C92"/>
</svg>
