<svg width="48" height="48" viewBox="0 0 48 48" fill="none" xmlns="http://www.w3.org/2000/svg">
<rect width="48" height="48" rx="12" fill="#F4F6FB"/>
<path d="M19 28H26V30H19V28ZM19 24H29V26H19V24ZM19 20H29V22H19V20ZM31 16H26.82C26.4 14.84 25.3 14 24 14C22.7 14 21.6 14.84 21.18 16H17C16.86 16 16.73 16.01 16.6 16.04C16.21 16.12 15.86 16.32 15.59 16.59C15.41 16.77 15.26 16.99 15.16 17.23C15.06 17.46 15 17.72 15 18V32C15 32.27 15.06 32.54 15.16 32.78C15.26 33.02 15.41 33.23 15.59 33.42C15.86 33.69 16.21 33.89 16.6 33.97C16.73 33.99 16.86 34 17 34H31C32.1 34 33 33.1 33 32V18C33 16.9 32.1 16 31 16ZM24 15.75C24.41 15.75 24.75 16.09 24.75 16.5C24.75 16.91 24.41 17.25 24 17.25C23.59 17.25 23.25 16.91 23.25 16.5C23.25 16.09 23.59 15.75 24 15.75ZM31 32H17V18H31V32Z" fill="#4D5C92"/>
</svg>
