<svg width="96" height="48" viewBox="0 0 96 48" fill="none" xmlns="http://www.w3.org/2000/svg">
<path fill-rule="evenodd" clip-rule="evenodd" d="M55.2735 27.1457H92.8595L96 25.0151L54.5952 25.0653L55.2735 27.1457Z" fill="#BA1A1A"/>
<path d="M52.5349 8.97336L51.7561 9.5248L53.6906 15.4402L48.6658 11.7807L43.6409 15.4402L45.5755 9.5248L44.7966 8.97336H47.3844L46.6056 11.3796L48.6909 9.87571L50.7762 11.3796L49.9974 8.97336H52.5852H52.5349ZM49.3944 2.25587L50.5752 5.89034H56.806L54.6705 7.41932H49.4446L49.2687 6.89295L48.6406 4.98799L47.8618 7.41932H42.6359L40.5004 5.89034H46.7312L48.6406 0L49.3692 2.28094L49.3944 2.25587Z" fill="#BA1A1A"/>
<path fill-rule="evenodd" clip-rule="evenodd" d="M48.6407 12.9087L43.3646 29.2011L6.15546 29.176L9.296 31.2815H44.9474L48.6407 19.8768L52.3339 31.2815H86.704L89.8445 29.176L53.9168 29.2011L48.6407 12.9087Z" fill="#BA1A1A"/>
<path d="M17.1348 35.2168L15.8032 36.9212L14.4716 35.2168H14.2706V38.4251H14.9239V36.7458L15.7027 37.7233H15.9288L16.7077 36.7458V38.4251H17.3609V35.2168H17.1348Z" fill="#BA1A1A"/>
<path d="M19.5718 35.8184C20.1497 35.8184 20.5768 36.2445 20.5768 36.846C20.5768 37.4476 20.1497 37.8737 19.5718 37.8737C18.994 37.8737 18.5668 37.4476 18.5668 36.846C18.5668 36.2445 18.994 35.8184 19.5718 35.8184ZM19.5718 35.2168C18.6422 35.2168 17.8885 35.9186 17.8885 36.846C17.8885 37.7735 18.6422 38.4753 19.5718 38.4753C20.5014 38.4753 21.2551 37.7735 21.2551 36.846C21.2551 35.9186 20.5014 35.2168 19.5718 35.2168Z" fill="#BA1A1A"/>
<path d="M23.2903 35.2168C22.3607 35.2168 21.6069 35.9186 21.6069 36.846C21.6069 37.7735 22.3355 38.4753 23.2903 38.4753C24.245 38.4753 24.4209 38.1745 24.6721 37.6983L24.1947 37.3473C23.9937 37.6732 23.6923 37.8737 23.2903 37.8737C22.7124 37.8737 22.2853 37.4476 22.2853 36.846C22.2853 36.2445 22.7124 35.8184 23.2903 35.8184C23.8681 35.8184 23.9937 36.0189 24.1947 36.3447L24.6721 35.9938C24.3957 35.5176 23.8932 35.2168 23.2903 35.2168Z" fill="#BA1A1A"/>
<path d="M28.0136 38.4248L26.6318 36.7705L27.8377 35.2666H27.084L25.878 36.7455V35.2666H25.2248V38.4248H25.878V36.7705L27.2347 38.4248H28.0136Z" fill="#BA1A1A"/>
<path d="M29.6718 35.8184C30.2496 35.8184 30.6768 36.2445 30.6768 36.846C30.6768 37.4476 30.2496 37.8737 29.6718 37.8737C29.0939 37.8737 28.6668 37.4476 28.6668 36.846C28.6668 36.2445 29.0939 35.8184 29.6718 35.8184ZM29.6718 35.2168C28.7422 35.2168 27.9885 35.9186 27.9885 36.846C27.9885 37.7735 28.7422 38.4753 29.6718 38.4753C30.6014 38.4753 31.3551 37.7735 31.3551 36.846C31.3551 35.9186 30.6014 35.2168 29.6718 35.2168Z" fill="#BA1A1A"/>
<path d="M33.2646 37.8734H32.536V37.0713H33.2646C33.541 37.0713 33.7169 37.2217 33.7169 37.4723C33.7169 37.723 33.541 37.8734 33.2646 37.8734ZM32.9631 35.818C33.2395 35.818 33.3651 35.9684 33.3651 36.1689C33.3651 36.3695 33.2144 36.5199 32.9631 36.5199H32.5109V35.793H32.9631V35.818ZM33.7922 36.7204C33.943 36.57 34.0183 36.3945 34.0183 36.1439C34.0183 35.6175 33.5912 35.2666 33.0134 35.2666H31.9079V38.3998H33.3149C33.9178 38.3998 34.345 38.0238 34.345 37.4723C34.345 36.9209 34.1188 36.8206 33.7922 36.6953V36.7204Z" fill="#BA1A1A"/>
<path d="M36.3549 35.2168C35.4253 35.2168 34.6716 35.9186 34.6716 36.846C34.6716 37.7735 35.4002 38.4753 36.3549 38.4753C37.3096 38.4753 37.4855 38.1745 37.7367 37.6983L37.2594 37.3473C37.0584 37.6732 36.7569 37.8737 36.3549 37.8737C35.777 37.8737 35.3499 37.4476 35.3499 36.846C35.3499 36.2445 35.777 35.8184 36.3549 35.8184C36.9328 35.8184 37.0584 36.0189 37.2594 36.3447L37.7367 35.9938C37.4604 35.5176 36.9579 35.2168 36.3549 35.2168Z" fill="#BA1A1A"/>
<path d="M41.0782 38.4248L39.7215 36.7705L40.9275 35.2666H40.1487L38.9427 36.7455V35.2666H38.3146V38.4248H38.9427V36.7705L40.2994 38.4248H41.0782Z" fill="#BA1A1A"/>
<path d="M43.1384 37.4727H42.3093L42.7364 36.4199L43.1636 37.4727H43.1384ZM43.5404 38.4251H44.2439L42.8369 35.2168H42.6108L41.2039 38.4251H41.9073L42.0832 38.0241H43.3645L43.5404 38.4251Z" fill="#BA1A1A"/>
<path d="M46.3292 36.8958H45.8519C45.5253 36.8958 45.2992 36.6703 45.2992 36.3695C45.2992 36.0687 45.5001 35.8431 45.8519 35.8431H46.3292V36.8958ZM45.877 35.2666C45.1735 35.2666 44.671 35.6927 44.671 36.3444C44.671 36.9961 44.872 37.0713 45.1735 37.2468L44.4198 38.3998H45.1484L45.7765 37.4222C45.8016 37.4222 45.8268 37.4222 45.877 37.4222H46.3544V38.3998H47.0076V35.2666H45.9021H45.877Z" fill="#BA1A1A"/>
<path d="M50.4245 37.4727H49.5954L50.0225 36.4199L50.4496 37.4727H50.4245ZM50.8265 38.4251H51.53L50.123 35.2168H49.8969L48.4899 38.4251H49.1934L49.3693 38.0241H50.6506L50.8265 38.4251Z" fill="#BA1A1A"/>
<path d="M53.3891 35.2168C52.4595 35.2168 51.7058 35.9186 51.7058 36.846C51.7058 37.7735 52.4344 38.4753 53.3891 38.4753C54.3439 38.4753 54.5197 38.1745 54.771 37.6983L54.2936 37.3473C54.0926 37.6732 53.7911 37.8737 53.3891 37.8737C52.8113 37.8737 52.3842 37.4476 52.3842 36.846C52.3842 36.2445 52.8113 35.8184 53.3891 35.8184C53.967 35.8184 54.0926 36.0189 54.2936 36.3447L54.771 35.9938C54.4946 35.5176 53.9921 35.2168 53.3891 35.2168Z" fill="#BA1A1A"/>
<path d="M56.7809 35.2168C55.8513 35.2168 55.0976 35.9186 55.0976 36.846C55.0976 37.7735 55.8262 38.4753 56.7809 38.4753C57.7356 38.4753 57.9115 38.1745 58.1628 37.6983L57.6854 37.3473C57.4844 37.6732 57.1829 37.8737 56.7809 37.8737C56.2031 37.8737 55.7759 37.4476 55.7759 36.846C55.7759 36.2445 56.2031 35.8184 56.7809 35.8184C57.3588 35.8184 57.4844 36.0189 57.6854 36.3447L58.1628 35.9938C57.8864 35.5176 57.3839 35.2168 56.7809 35.2168Z" fill="#BA1A1A"/>
<path d="M60.1978 35.8184C60.7756 35.8184 61.2028 36.2445 61.2028 36.846C61.2028 37.4476 60.7756 37.8737 60.1978 37.8737C59.6199 37.8737 59.1928 37.4476 59.1928 36.846C59.1928 36.2445 59.6199 35.8184 60.1978 35.8184ZM60.1978 35.2168C59.2682 35.2168 58.5145 35.9186 58.5145 36.846C58.5145 37.7735 59.2682 38.4753 60.1978 38.4753C61.1274 38.4753 61.8811 37.7735 61.8811 36.846C61.8811 35.9186 61.1274 35.2168 60.1978 35.2168Z" fill="#BA1A1A"/>
<path d="M64.9966 35.2666H64.3433V37.8483H63.062V35.2666H62.4088V38.4248H64.7453V39.1016H65.3985V37.8483H64.9966V35.2666Z" fill="#BA1A1A"/>
<path d="M68.4135 35.2168L66.5291 37.197V35.2669H65.8759V38.4753H66.102L67.9612 36.4951V38.4251H68.6145V35.2168H68.4135Z" fill="#BA1A1A"/>
<path d="M70.9762 37.4727H70.1471L70.5742 36.4199L71.0013 37.4727H70.9762ZM71.3782 38.4251H72.0817L70.6747 35.2168H70.4486L69.0416 38.4251H69.7451L69.921 38.0241H71.2023L71.3782 38.4251Z" fill="#BA1A1A"/>
<path d="M75.0463 35.2666H74.4182V37.8483H73.1369V35.2666H72.4836V38.4248H74.8202V39.1016H75.4734V37.8483H75.0463V35.2666Z" fill="#BA1A1A"/>
<path d="M78.4632 35.2168L76.604 37.197V35.2669H75.9508V38.4753H76.1769L78.0361 36.4951V38.4251H78.6894V35.2168H78.4632Z" fill="#BA1A1A"/>
<path d="M81.0761 36.8958H80.5987C80.2721 36.8958 80.046 36.6703 80.046 36.3695C80.046 36.0687 80.247 35.8431 80.5987 35.8431H81.0761V36.8958ZM80.6238 35.2666C79.9204 35.2666 79.4179 35.6927 79.4179 36.3444C79.4179 36.9961 79.6189 37.0713 79.9204 37.2468L79.1666 38.3998H79.8952L80.5233 37.4222C80.5485 37.4222 80.5736 37.4222 80.6238 37.4222H81.1012V38.3998H81.7544V35.2666H80.649H80.6238Z" fill="#BA1A1A"/>
<path d="M35.174 47.7494H34.571V46.9473H35.174C35.4755 46.9473 35.6263 47.1227 35.6263 47.3483C35.6263 47.5739 35.4755 47.7494 35.174 47.7494ZM35.0233 46.0449C35.2745 46.0449 35.4002 46.1703 35.4002 46.3708C35.4002 46.5713 35.2745 46.6966 35.0233 46.6966H34.571V46.0199H35.0233V46.0449ZM35.4504 46.7969C35.576 46.6966 35.6514 46.5462 35.6514 46.3708C35.6514 46.07 35.4253 45.8193 35.0484 45.8193H34.2947V47.975H35.174C35.6011 47.975 35.8524 47.6992 35.8524 47.3483C35.8524 46.9974 35.7016 46.8721 35.4253 46.7969H35.4504Z" fill="#BA1A1A"/>
<path d="M37.8875 45.8193H36.5056V47.975H37.9377V47.7494H36.782V46.9473H37.6362V46.6966H36.782V46.0449H37.8875V45.8193Z" fill="#BA1A1A"/>
<path d="M40.0984 45.8193H38.3397V46.0449H39.0934V47.975H39.3446V46.0449H40.0984V45.8193Z" fill="#BA1A1A"/>
<path d="M42.033 45.8193H40.6511V47.975H42.0832V47.7494H40.9024V46.9473H41.7817V46.6966H40.9024V46.0449H42.033V45.8193Z" fill="#BA1A1A"/>
<path d="M43.465 46.0449C43.7414 46.0449 43.8921 46.2204 43.8921 46.446C43.8921 46.6716 43.7414 46.847 43.465 46.847H42.9625V46.0449H43.465ZM43.465 45.8193H42.7113V47.975H42.9625V47.0726H43.465C43.8921 47.0726 44.1434 46.7969 44.1434 46.446C44.1434 46.0951 43.867 45.8193 43.465 45.8193Z" fill="#BA1A1A"/>
<path d="M45.7262 47.2983H44.872L45.2991 46.2456L45.7262 47.2983ZM46.0026 47.9751H46.279L45.3494 45.7944H45.2489L44.3193 47.9751H44.5956L44.7715 47.549H45.8267L46.0026 47.9751Z" fill="#BA1A1A"/>
<path d="M48.5904 45.8193H48.3391V46.6966H47.1331V45.8193H46.8819V47.975H47.1331V46.9473H48.3391V47.975H48.5904V45.8193Z" fill="#BA1A1A"/>
<path d="M50.3491 46.02C50.8265 46.02 51.2034 46.396 51.2034 46.8973C51.2034 47.3986 50.8265 47.7746 50.3491 47.7746C49.8718 47.7746 49.4949 47.3986 49.4949 46.8973C49.4949 46.396 49.8466 46.02 50.3491 46.02ZM50.3491 45.7944C49.721 45.7944 49.2437 46.2707 49.2437 46.8973C49.2437 47.5239 49.7461 48.0002 50.3491 48.0002C50.9521 48.0002 51.4797 47.5239 51.4797 46.8973C51.4797 46.2707 50.9772 45.7944 50.3491 45.7944Z" fill="#BA1A1A"/>
<path d="M52.9872 47.7494H52.3842V46.9473H52.9872C53.2887 46.9473 53.4394 47.1227 53.4394 47.3483C53.4394 47.5739 53.2887 47.7494 52.9872 47.7494ZM52.8364 46.0449C53.0877 46.0449 53.2133 46.1703 53.2133 46.3708C53.2133 46.5713 53.0877 46.6966 52.8364 46.6966H52.3842V46.0199H52.8364V46.0449ZM53.2887 46.7969C53.4143 46.6966 53.4897 46.5462 53.4897 46.3708C53.4897 46.07 53.2635 45.8193 52.8867 45.8193H52.1329V47.975H53.0123C53.4394 47.975 53.6906 47.6992 53.6906 47.3483C53.6906 46.9974 53.5399 46.8721 53.2635 46.7969H53.2887Z" fill="#BA1A1A"/>
<path d="M57.1327 45.7944C56.5046 45.7944 56.0021 46.2707 56.0021 46.8973C56.0021 47.5239 56.5046 48.0002 57.1327 48.0002C57.7608 48.0002 57.8613 47.7997 58.0371 47.549L57.8361 47.3986C57.6854 47.6242 57.4342 47.7746 57.1327 47.7746C56.6553 47.7746 56.2784 47.3986 56.2784 46.8973C56.2784 46.396 56.6553 46.02 57.1327 46.02C57.61 46.02 57.6854 46.1704 57.8361 46.396L58.0371 46.2456C57.8613 45.9699 57.5347 45.7944 57.1327 45.7944Z" fill="#BA1A1A"/>
<path d="M59.5697 47.7494H58.9667V46.9473H59.5697C59.8712 46.9473 60.022 47.1227 60.022 47.3483C60.022 47.5739 59.8712 47.7494 59.5697 47.7494ZM59.419 46.0449C59.6702 46.0449 59.7958 46.1703 59.7958 46.3708C59.7958 46.5713 59.6702 46.6966 59.419 46.6966H58.9667V46.0199H59.419V46.0449ZM59.8461 46.7969C59.9717 46.6966 60.0471 46.5462 60.0471 46.3708C60.0471 46.07 59.821 45.8193 59.4441 45.8193H58.6904V47.975H59.5697C59.9968 47.975 60.2481 47.6992 60.2481 47.3483C60.2481 46.9974 60.0973 46.8721 59.821 46.7969H59.8461Z" fill="#BA1A1A"/>
<path d="M61.8812 46.02C62.3585 46.02 62.7354 46.396 62.7354 46.8973C62.7354 47.3986 62.3585 47.7746 61.8812 47.7746C61.4038 47.7746 61.0269 47.3986 61.0269 46.8973C61.0269 46.396 61.3787 46.02 61.8812 46.02ZM61.8812 45.7944C61.2531 45.7944 60.7757 46.2707 60.7757 46.8973C60.7757 47.5239 61.2782 48.0002 61.8812 48.0002C62.4841 48.0002 63.0118 47.5239 63.0118 46.8973C63.0118 46.2707 62.5093 45.7944 61.8812 45.7944Z" fill="#BA1A1A"/>
<path fill-rule="evenodd" clip-rule="evenodd" d="M27.3603 42.8615H68.6396L70.5741 41.5581C55.5247 41.5581 40.4501 41.5581 25.4006 41.5581L27.3352 42.8615H27.3603Z" fill="#BA1A1A"/>
<path fill-rule="evenodd" clip-rule="evenodd" d="M41.7063 27.1457H3.14054L0 25.0151L42.3847 25.0653L41.7063 27.1457Z" fill="#BA1A1A"/>
</svg>
