<svg width="93" height="48" viewBox="0 0 93 48" fill="none" xmlns="http://www.w3.org/2000/svg">
<g clip-path="url(#clip0_2002_14978)">
<path d="M87.7771 1.77834C83.6836 1.71307 79.5786 1.68043 75.4911 1.77834C68.4878 3.38344 61.5143 5.10721 54.5109 6.72124C53.093 7.04463 53.0383 7.1171 51.6175 7.4197C51.3111 7.38411 51.4628 7.04885 51.7244 7.03992C60.8503 4.63377 68.6275 2.56754 77.7475 0.149504C82.7949 -0.073015 87.9611 -0.0225773 92.9995 0.140603C88.8294 3.90859 84.4594 7.48964 80.2386 11.2161C72.3789 11.6552 64.2461 11.047 56.3003 11.1449C54.505 11.1271 53.6943 11.1597 51.899 11.1449C51.7532 11.1271 51.5275 11.1954 51.4887 11.0114C51.4797 10.8215 52.361 10.8392 51.8512 10.8453C54.128 10.8186 55.4235 10.7414 57.7003 10.7177C64.4127 10.4892 71.3031 10.8957 77.929 10.3557C81.2134 7.49857 84.5519 4.70669 87.7771 1.78131V1.77834Z" fill="black"/>
<path d="M0 0.143706C4.77395 -0.105516 9.6995 0.131838 14.524 0.0457972C15.3741 0.0962348 16.1827 0.431497 17.0091 0.61248C25.5374 2.87921 32.5617 4.6893 41.096 6.93527C41.1614 6.95304 41.2267 6.97682 41.2862 7.00645C41.4378 7.08061 41.3635 7.35064 41.1881 7.3091C40.555 7.17855 39.9247 7.01539 39.2946 6.87298C31.7442 5.09578 25.7246 3.67731 18.1654 1.94166C13.9206 1.39278 9.53305 1.86155 5.24659 1.74287C5.20497 1.87638 5.28822 1.91792 5.34765 1.96836C6.05515 2.57658 6.76558 3.1848 7.47302 3.79301C10.0175 5.97666 12.5443 8.17811 15.0798 10.3707C22.5559 10.8869 30.2845 10.5279 37.8438 10.7326C39.3509 10.7623 39.684 10.8078 41.1881 10.8642C41.4765 10.9621 41.1881 11.2321 40.977 11.1638C31.4737 11.2202 23.1474 11.2607 13.6441 11.3676C12.8118 11.5367 12.351 10.7712 11.7595 10.3232C7.85054 6.92013 3.87029 3.58533 0 0.143706Z" fill="black"/>
<path d="M51.6538 13.8245C58.7372 15.8064 65.0368 17.7522 72.1113 19.7638C73.7286 20.2474 75.3514 20.7132 76.9806 21.1642C77.5337 21.2354 78.1787 21.8109 78.669 21.3451C80.2177 19.9359 81.8674 18.6452 83.3747 17.1944C72.5156 15.6694 62.3105 14.8303 51.4633 13.2549C63.7816 14.2933 75.3902 15.171 87.7144 16.2628C87.4827 16.782 86.8615 17.0372 86.4781 17.4555C84.4002 19.2891 82.2717 21.0663 80.1909 22.8998C79.7393 23.3834 77.9111 22.3302 77.2333 22.2293C76.1541 21.9207 75.0987 21.5321 74.029 21.1909C66.318 18.6957 59.326 16.4651 51.6448 13.8809C51.6478 13.8601 51.6508 13.8394 51.6538 13.8216V13.8245Z" fill="black"/>
<path d="M41.2752 13.8681C32.631 16.7371 24.4344 19.378 15.7782 22.2115C14.94 22.4815 14.1077 22.7782 13.2694 23.0452C12.7046 23.0837 12.1725 22.1966 11.6821 21.9059C9.54774 20.0248 7.32723 18.2358 5.25537 16.2954C17.4132 15.2095 29.1382 14.1173 41.2871 13.2153C30.574 14.684 20.2698 15.6932 9.55963 17.1677C10.5703 18.1853 11.7326 19.0339 12.7789 20.0159C13.314 20.3423 14.3217 21.6863 14.8865 21.5202C17.2229 20.8378 19.5594 20.1554 21.8988 19.479C28.5306 17.6038 34.6167 15.6245 41.2603 13.8058C41.2663 13.8265 41.2722 13.8473 41.2752 13.8681Z" fill="black"/>
<path d="M46.4671 48C45.4803 42.449 45.513 36.797 45.2306 31.1806C45.079 27.8487 44.9333 24.5169 44.7907 21.1851C44.6212 19.8114 46.1461 18.5563 47.5105 19.5414C48.0189 19.9241 48.2269 20.4433 48.2032 21.0574C48.1526 22.36 48.0872 23.6595 48.0337 24.9619C47.9772 26.2703 47.9297 27.5787 47.8732 28.8872C47.4808 35.2601 47.6146 41.6864 46.5296 47.9941C46.5088 47.9941 46.488 47.9971 46.4701 48H46.4671ZM46.4731 34.4739C46.491 34.4739 46.5118 34.4739 46.5296 34.4709C46.6485 29.8781 47.1063 25.2676 47.0885 20.6836C46.913 20.0724 45.9113 20.1763 45.8637 20.8231C45.8459 21.5292 45.9024 22.2383 45.9232 22.9444C46.1075 26.7896 46.2739 30.6347 46.4731 34.4768V34.4739Z" fill="black"/>
<path d="M44.0655 9.97328C44.0447 7.46323 47.377 6.46342 48.6076 8.7153C49.4132 10.2047 48.2241 12.5011 48.0428 14.1418C47.8466 15.0467 47.6564 15.9516 47.4572 16.8536C47.3264 17.2719 46.9013 17.5182 46.6249 17.8386C46.5298 17.9335 46.4733 17.9365 46.3752 17.8386C46.075 17.5003 45.6232 17.2304 45.5102 16.7705C45.2397 15.5452 44.9751 14.3169 44.7106 13.0885C44.5025 12.056 44.2201 11.0146 44.0685 9.97328H44.0655ZM46.4674 15.6727C46.4882 15.6727 46.506 15.6727 46.5268 15.6727C46.9935 13.8748 47.3086 12.0353 47.7307 10.2254C47.8466 9.69734 47.6891 9.14552 47.1719 8.78649C46.0185 8.0715 44.9454 9.28495 45.2843 10.3144C45.6588 12.1035 46.0007 13.9104 46.4674 15.6727Z" fill="black"/>
<path d="M46.5029 6.9502C43.2628 6.88493 43.3758 2.13487 46.5178 2.0874C49.6746 2.20015 49.6746 6.88195 46.5029 6.9502Z" fill="black"/>
</g>
<defs>
<clipPath id="clip0_2002_14978">
<rect width="93" height="48" fill="white"/>
</clipPath>
</defs>
</svg>
