<svg width="64" height="64" viewBox="0 0 64 64" fill="none" xmlns="http://www.w3.org/2000/svg">
<rect width="64" height="64" rx="12" fill="#F4F6FB"/>
<path d="M28 34.6667C30.2 34.6667 32 32.8667 32 30.6667C32 28.4667 30.2 26.6667 28 26.6667C25.8 26.6667 24 28.4667 24 30.6667C24 32.8667 25.8 34.6667 28 34.6667ZM28 29.3333C28.72 29.3333 29.3333 29.9467 29.3333 30.6667C29.3333 31.3867 28.72 32 28 32C27.28 32 26.6667 31.3867 26.6667 30.6667C26.6667 29.9467 27.28 29.3333 28 29.3333Z" fill="#4D5C92"/>
<path d="M45.3333 20H18.6667C17.2 20 16 21.2 16 22.6667V41.3333C16 42.8 17.2 44 18.6667 44H45.3333C46.8 44 47.9867 42.8 47.9867 41.3333L48 22.6667C48 21.2 46.8 20 45.3333 20ZM22.0533 41.3333C23.52 39.7067 25.64 38.6667 28 38.6667C30.36 38.6667 32.48 39.7067 33.9467 41.3333H22.0533ZM45.3333 41.3333H37.2267C35.3867 38.1467 31.9467 36 28 36C24.0533 36 20.6133 38.1467 18.7733 41.3333H18.6667V22.6667H45.3333V41.3333Z" fill="#4D5C92"/>
<path d="M37.04 30.8667L39 29.7333V32H41V29.7333L42.96 30.8667L43.96 29.1333L42 28L43.96 26.8667L42.96 25.1333L41 26.2667V24H39V26.2667L37.04 25.1333L36.04 26.8667L38 28L36.04 29.1333L37.04 30.8667Z" fill="#4D5C92"/>
</svg>
