<svg width="64" height="64" viewBox="0 0 64 64" fill="none" xmlns="http://www.w3.org/2000/svg">
<rect width="64" height="64" rx="32" fill="#4D5C92"/>
<path d="M24.72 22.6667C24.8 23.8533 25 25.0133 25.32 26.12L23.72 27.72C23.1733 26.12 22.8267 24.4267 22.7067 22.6667H24.72ZM37.8667 38.6933C39 39.0133 40.16 39.2133 41.3333 39.2933V41.28C39.5733 41.16 37.88 40.8133 36.2667 40.28L37.8667 38.6933ZM26 20H21.3333C20.6 20 20 20.6 20 21.3333C20 33.8533 30.1467 44 42.6667 44C43.4 44 44 43.4 44 42.6667V38.0133C44 37.28 43.4 36.68 42.6667 36.68C41.0133 36.68 39.4 36.4133 37.9067 35.92C37.7733 35.8667 37.6267 35.8533 37.4933 35.8533C37.1467 35.8533 36.8133 35.9867 36.5467 36.24L33.6133 39.1733C29.84 37.24 26.7467 34.16 24.8267 30.3867L27.76 27.4533C28.1333 27.08 28.24 26.56 28.0933 26.0933C27.6 24.6 27.3333 23 27.3333 21.3333C27.3333 20.6 26.7333 20 26 20Z" fill="white"/>
</svg>
