<svg width="40" height="40" viewBox="0 0 40 40" fill="none" xmlns="http://www.w3.org/2000/svg">
<rect width="40" height="40" rx="12" fill="white"/>
<path d="M22.75 14C21.38 14 20.25 15.52 20.25 17.4C20.25 18.88 20.95 20.11 21.92 20.58L22 20.62V27H23.5V20.62L23.58 20.59C24.55 20.12 25.25 18.89 25.25 17.41C25.25 15.53 24.13 14 22.75 14ZM18.5 14C18.23 14 18 14.22 18 14.5V17H17.25V14.5C17.25 14.22 17.03 14 16.75 14C16.47 14 16.25 14.22 16.25 14.5V17H15.5V14.5C15.5 14.22 15.28 14 15 14C14.72 14 14.5 14.22 14.5 14.5V18.3C14.5 19.23 15.14 20.01 16 20.23V27H17.5V20.23C18.36 20.01 19 19.23 19 18.3V14.5C19 14.22 18.78 14 18.5 14ZM28 12H12V28H28V12ZM28 10C29.1 10 30 10.9 30 12V28C30 29.1 29.1 30 28 30H12C10.9 30 10 29.1 10 28V12C10 10.9 10.9 10 12 10H28Z" fill="#4D5C92"/>
</svg>
