<svg width="40" height="40" viewBox="0 0 40 40" fill="none" xmlns="http://www.w3.org/2000/svg">
<rect width="40" height="40" rx="12" fill="white"/>
<path d="M14 30V25.7C13.05 24.8333 12.3125 23.8208 11.7875 22.6625C11.2625 21.5042 11 20.2833 11 19C11 16.5 11.875 14.375 13.625 12.625C15.375 10.875 17.5 10 20 10C22.0833 10 23.9292 10.6125 25.5375 11.8375C27.1458 13.0625 28.1917 14.6583 28.675 16.625L29.975 21.75C30.0583 22.0667 30 22.3542 29.8 22.6125C29.6 22.8708 29.3333 23 29 23H27V26C27 26.55 26.8042 27.0208 26.4125 27.4125C26.0208 27.8042 25.55 28 25 28H23V30H21V26H25V21H27.7L26.75 17.125C26.3667 15.6083 25.55 14.375 24.3 13.425C23.05 12.475 21.6167 12 20 12C18.0667 12 16.4167 12.675 15.05 14.025C13.6833 15.375 13 17.0167 13 18.95C13 19.95 13.2042 20.9 13.6125 21.8C14.0208 22.7 14.6 23.5 15.35 24.2L16 24.8V30H14ZM19 23H21L21.15 21.75C21.2833 21.7 21.4042 21.6417 21.5125 21.575C21.6208 21.5083 21.7167 21.4333 21.8 21.35L22.95 21.85L23.95 20.15L22.95 19.4C22.9833 19.2667 23 19.1333 23 19C23 18.8667 22.9833 18.7333 22.95 18.6L23.95 17.85L22.95 16.15L21.8 16.65C21.7167 16.5667 21.6208 16.4917 21.5125 16.425C21.4042 16.3583 21.2833 16.3 21.15 16.25L21 15H19L18.85 16.25C18.7167 16.3 18.5958 16.3583 18.4875 16.425C18.3792 16.4917 18.2833 16.5667 18.2 16.65L17.05 16.15L16.05 17.85L17.05 18.6C17.0167 18.7333 17 18.8667 17 19C17 19.1333 17.0167 19.2667 17.05 19.4L16.05 20.15L17.05 21.85L18.2 21.35C18.2833 21.4333 18.3792 21.5083 18.4875 21.575C18.5958 21.6417 18.7167 21.7 18.85 21.75L19 23ZM18.9375 20.0625C18.6458 19.7708 18.5 19.4167 18.5 19C18.5 18.5833 18.6458 18.2292 18.9375 17.9375C19.2292 17.6458 19.5833 17.5 20 17.5C20.4167 17.5 20.7708 17.6458 21.0625 17.9375C21.3542 18.2292 21.5 18.5833 21.5 19C21.5 19.4167 21.3542 19.7708 21.0625 20.0625C20.7708 20.3542 20.4167 20.5 20 20.5C19.5833 20.5 19.2292 20.3542 18.9375 20.0625Z" fill="#4D5C92"/>
</svg>
