<svg width="64" height="64" viewBox="0 0 64 64" fill="none" xmlns="http://www.w3.org/2000/svg">
<rect width="64" height="64" rx="12" fill="#F4F6FB"/>
<path d="M42.6667 25.3334H36V21.3334C36 19.8667 34.8 18.6667 33.3333 18.6667H30.6667C29.2 18.6667 28 19.8667 28 21.3334V25.3334H21.3333C19.8667 25.3334 18.6667 26.5334 18.6667 28.0001V42.6667C18.6667 44.1334 19.8667 45.3334 21.3333 45.3334H42.6667C44.1333 45.3334 45.3333 44.1334 45.3333 42.6667V28.0001C45.3333 26.5334 44.1333 25.3334 42.6667 25.3334ZM30.6667 21.3334H33.3333V28.0001H30.6667V21.3334ZM42.6667 42.6667H21.3333V28.0001H28C28 29.4667 29.2 30.6667 30.6667 30.6667H33.3333C34.8 30.6667 36 29.4667 36 28.0001H42.6667V42.6667ZM30.6667 37.3334H28V40.0001H25.3333V37.3334H22.6667V34.6667H25.3333V32.0001H28V34.6667H30.6667V37.3334ZM33.3333 35.3334V33.3334H41.3333V35.3334H33.3333ZM33.3333 39.3334V37.3334H38.6667V39.3334H33.3333Z" fill="#4D5C92"/>
</svg>
