<svg width="32" height="32" viewBox="0 0 32 32" fill="none" xmlns="http://www.w3.org/2000/svg">
<rect width="32" height="32" rx="16" fill="#4D5C92"/>
<g clip-path="url(#clip0_2002_15038)">
<path d="M15.76 7.24C10.545 7.5125 7.10255 11.6025 7.32005 16.76C7.41505 19.0175 8.32255 20.96 8.53755 23.1025C8.59255 23.6575 8.43255 24.3425 9.07255 24.585C9.86005 24.8825 11.0675 24.3825 11.7275 23.925C11.9525 23.7725 12.1675 23.595 12.3325 23.375C13.015 23.8275 13.6625 24.265 14.475 24.46C18.0525 25.3175 21.9725 23.355 23.715 20.2025C26.99 14.28 22.5625 6.885 15.76 7.24ZM13.735 19.6C13.4525 19.82 13.18 20.12 12.8675 20.2925C12.415 20.535 12.275 20.2825 12.105 19.8825C11.57 18.61 11.505 16.4425 11.8175 15.11C12.2375 13.2975 13.64 11.7025 15.5675 11.5325C17.5175 11.36 19.3275 12.35 20.145 14.1375C21.955 18.115 17.3225 22.0425 13.735 19.6025V19.6Z" fill="white"/>
</g>
<defs>
<clipPath id="clip0_2002_15038">
<rect width="18" height="18" fill="white" transform="translate(7 7)"/>
</clipPath>
</defs>
</svg>
