<svg width="32" height="32" viewBox="0 0 32 32" fill="none" xmlns="http://www.w3.org/2000/svg">
<rect width="32" height="32" rx="16" fill="#4D5C92"/>
<path d="M20.9901 18.2343C21.4099 17.8145 21.4699 17.2148 21.1101 16.6151C20.8102 16.1354 20.2705 15.8955 19.6708 16.0154C19.431 16.0754 19.1911 16.1953 18.9512 16.3752C17.0922 17.6346 14.5735 17.5746 12.7144 16.3153C12.5945 16.2553 12.4746 16.1953 12.3546 16.1354C11.695 15.8355 11.0353 15.9555 10.6755 16.5551C10.2557 17.1548 10.3157 17.8145 10.8554 18.3542C10.9753 18.4741 11.0953 18.5341 11.1553 18.6541L11.2152 18.714C12.0548 19.3737 13.0743 19.7935 14.3936 19.9734L13.614 20.753C12.9543 21.4126 12.2347 22.1322 11.575 22.7919C11.3951 22.9718 11.1553 23.2716 11.1553 23.6914C11.1553 24.2311 11.4551 24.7709 11.9948 25.0107C12.1747 25.1307 12.3546 25.1307 12.5345 25.1307C12.8344 25.1307 13.1942 25.0107 13.4341 24.7109C14.3336 23.8114 15.0532 23.0917 15.7729 22.3721C15.8328 22.3121 15.8328 22.3121 15.8328 22.3121C15.8328 22.3121 15.8928 22.3121 15.8928 22.3721C16.3725 22.9118 16.9123 23.3916 17.392 23.9313C17.6319 24.1712 17.8718 24.4111 18.1116 24.6509C18.4115 24.9508 18.6514 25.0707 19.0112 25.0707C19.5509 25.1307 20.1506 24.7709 20.3905 24.2311C20.6303 23.7514 20.5104 23.1517 20.0906 22.7919C19.4909 22.1922 18.8912 21.5325 18.2316 20.9329L17.2121 19.9134C17.7518 19.8534 18.3515 19.7335 18.8912 19.4936C19.7908 19.1938 20.4504 18.774 20.9901 18.2343Z" fill="white"/>
<path d="M15.8328 16.5551C18.4115 16.5551 20.5104 14.5162 20.5104 11.9375C20.5104 10.6782 20.0306 9.47882 19.1311 8.57928C18.2316 7.67975 17.0922 7.2 15.8928 7.2C13.3141 7.2 11.2752 9.29891 11.2152 11.8176C11.2152 13.0769 11.695 14.2163 12.5945 15.1159C13.4341 16.0754 14.5735 16.5551 15.8328 16.5551ZM14.5135 10.5583C14.8733 10.1984 15.3531 10.0185 15.8328 10.0185C16.9123 10.0185 17.6919 10.8581 17.6919 11.8776C17.6919 12.957 16.8523 13.7366 15.8328 13.7366C14.7534 13.7366 13.9738 12.897 13.9738 11.8776C13.9738 11.3978 14.1537 10.9181 14.5135 10.5583Z" fill="white"/>
<path d="M20.9901 18.2343C21.4099 17.8145 21.4699 17.2148 21.1101 16.6151C20.8102 16.1354 20.2705 15.8955 19.6708 16.0154C19.431 16.0754 19.1911 16.1953 18.9512 16.3752C17.0922 17.6346 14.5735 17.5746 12.7144 16.3153C12.5945 16.2553 12.4746 16.1953 12.3546 16.1354C11.695 15.8355 11.0353 15.9555 10.6755 16.5551C10.2557 17.1548 10.3157 17.8145 10.8554 18.3542C10.9753 18.4741 11.0953 18.5341 11.1553 18.6541L11.2152 18.714C12.0548 19.3737 13.0743 19.7935 14.3936 19.9734L13.614 20.753C12.9543 21.4126 12.2347 22.1322 11.575 22.7919C11.3951 22.9718 11.1553 23.2716 11.1553 23.6914C11.1553 24.2311 11.4551 24.7709 11.9948 25.0107C12.1747 25.1307 12.3546 25.1307 12.5345 25.1307C12.8344 25.1307 13.1942 25.0107 13.4341 24.7109C14.3336 23.8114 15.0532 23.0917 15.7729 22.3721C15.8328 22.3121 15.8328 22.3121 15.8328 22.3121C15.8328 22.3121 15.8928 22.3121 15.8928 22.3721C16.3725 22.9118 16.9123 23.3916 17.392 23.9313C17.6319 24.1712 17.8718 24.4111 18.1116 24.6509C18.4115 24.9508 18.6514 25.0707 19.0112 25.0707C19.5509 25.1307 20.1506 24.7709 20.3905 24.2311C20.6303 23.7514 20.5104 23.1517 20.0906 22.7919C19.4909 22.1922 18.8912 21.5325 18.2316 20.9329L17.2121 19.9134C17.7518 19.8534 18.3515 19.7335 18.8912 19.4936C19.7908 19.1938 20.4504 18.774 20.9901 18.2343Z" fill="white"/>
</svg>
