<svg width="32" height="32" viewBox="0 0 32 32" fill="none" xmlns="http://www.w3.org/2000/svg">
<rect width="32" height="32" rx="16" fill="#4D5C92"/>
<mask id="mask0_2026_11322" style="mask-type:luminance" maskUnits="userSpaceOnUse" x="8" y="8" width="16" height="16">
<path d="M24 16C24 11.5817 20.4183 8 16 8C11.5817 8 8 11.5817 8 16C8 20.4183 11.5817 24 16 24C20.4183 24 24 20.4183 24 16Z" fill="white"/>
</mask>
<g mask="url(#mask0_2026_11322)">
<path d="M17.8832 15.6347H13.1562V13.7642H17.8832C18.1593 13.7642 18.3513 13.8123 18.4476 13.8964C18.544 13.9804 18.6037 14.1363 18.6037 14.364V15.0356C18.6037 15.2756 18.544 15.4314 18.4476 15.5155C18.3513 15.5995 18.1593 15.6355 17.8832 15.6355V15.6347ZM18.2075 12.0007H11.1515V20H13.1562V17.3975H16.8506L18.6037 20H20.8485L18.9157 17.3853C19.6283 17.2797 19.9482 17.0613 20.2121 16.7014C20.476 16.3416 20.6084 15.7662 20.6084 14.9983V14.3985C20.6084 13.9431 20.5601 13.5832 20.476 13.3074C20.3919 13.0315 20.2481 12.7916 20.0439 12.5761C19.8282 12.3721 19.588 12.2284 19.2997 12.1322C19.0113 12.0481 18.6511 12 18.2075 12V12.0007Z" fill="white"/>
<path d="M32 8C32 12.4183 28.4183 16 24 16C23.1017 16 22.2381 15.852 21.432 15.5789C21.4492 15.3888 21.4568 15.1944 21.4568 14.9983V14.3985C21.4568 13.8892 21.4036 13.4403 21.2876 13.0598C21.1624 12.6496 20.9479 12.2965 20.6598 11.9925L20.6438 11.9756L20.6269 11.9596C20.32 11.6693 19.972 11.4621 19.5684 11.3273L19.5528 11.3222L19.5371 11.3176C19.1528 11.2056 18.7092 11.1515 18.2075 11.1515H17.359V11.1522H16.645C16.2299 10.1849 16 9.11931 16 8C16 3.58172 19.5817 0 24 0C28.4183 0 32 3.58172 32 8Z" fill="white"/>
</g>
<path d="M23.8788 15.9999C23.8788 11.6485 20.3513 8.12109 16 8.12109C11.6487 8.12109 8.12122 11.6485 8.12122 15.9999C8.12122 20.3512 11.6487 23.8787 16 23.8787C20.3513 23.8787 23.8788 20.3512 23.8788 15.9999Z" stroke="white" stroke-width="2"/>
</svg>
