<svg width="64" height="64" viewBox="0 0 64 64" fill="none" xmlns="http://www.w3.org/2000/svg">
<rect width="64" height="64" rx="12" fill="#F4F6FB"/>
<path d="M32 32C34.2 32 36 30.2 36 28C36 25.8 34.2 24 32 24C29.8 24 28 25.8 28 28C28 30.2 29.8 32 32 32ZM32 26.6667C32.7333 26.6667 33.3333 27.2667 33.3333 28C33.3333 28.7333 32.7333 29.3333 32 29.3333C31.2667 29.3333 30.6667 28.7333 30.6667 28C30.6667 27.2667 31.2667 26.6667 32 26.6667ZM40 38.1067C40 34.7733 34.7067 33.3333 32 33.3333C29.2933 33.3333 24 34.7733 24 38.1067V40H40V38.1067ZM27.3067 37.3333C28.2933 36.6533 30.28 36 32 36C33.72 36 35.7067 36.6533 36.6933 37.3333H27.3067ZM41.3333 20H22.6667C21.1867 20 20 21.2 20 22.6667V41.3333C20 42.8 21.1867 44 22.6667 44H41.3333C42.8 44 44 42.8 44 41.3333V22.6667C44 21.2 42.8 20 41.3333 20ZM41.3333 41.3333H22.6667V22.6667H41.3333V41.3333Z" fill="#4D5C92"/>
</svg>
