<svg width="40" height="40" viewBox="0 0 40 40" fill="none" xmlns="http://www.w3.org/2000/svg">
<rect width="40" height="40" rx="12" fill="white"/>
<path d="M24.5 20.75C27.59 17.94 30.5 15.31 30.5 13.05C30.5 11.2 29.05 9.75 27.2 9.75C26.16 9.75 25.15 10.24 24.5 11C23.84 10.24 22.84 9.75 21.8 9.75C19.95 9.75 18.5 11.2 18.5 13.05C18.5 15.31 21.41 17.94 24.5 20.75ZM21.8 11.75C22.24 11.75 22.69 11.96 22.98 12.3L24.5 14.09L26.02 12.3C26.31 11.96 26.76 11.75 27.2 11.75C27.94 11.75 28.5 12.31 28.5 13.05C28.5 14.17 26.46 16.22 24.5 18.04C22.54 16.22 20.5 14.16 20.5 13.05C20.5 12.31 21.06 11.75 21.8 11.75Z" fill="#4D5C92"/>
<path d="M27.5 23.75H25.5C25.5 22.55 24.75 21.47 23.63 21.05L17.47 18.75H9.5V29.75H15.5V28.31L22.5 30.25L30.5 27.75V26.75C30.5 25.09 29.16 23.75 27.5 23.75ZM11.5 27.75V20.75H13.5V27.75H11.5ZM22.47 28.16L15.5 26.23V20.75H17.11L22.93 22.92C23.27 23.05 23.5 23.38 23.5 23.75C23.5 23.75 21.51 23.7 21.2 23.6L18.82 22.81L18.19 24.71L20.57 25.5C21.08 25.67 21.61 25.76 22.15 25.76H27.5C27.89 25.76 28.24 25.99 28.4 26.32L22.47 28.16Z" fill="#4D5C92"/>
</svg>
