<svg width="17" height="17" viewBox="0 0 17 17" fill="none" xmlns="http://www.w3.org/2000/svg">
<path fill-rule="evenodd" clip-rule="evenodd" d="M1.28603 0.561066C0.841418 0.561061 0.480978 0.92148 0.480957 1.36609C0.480806 4.51159 1.91591 8.92561 5.00699 12.0408C5.03422 12.0683 4.97704 12.0181 5.00699 12.0408C5.03627 12.0843 4.96832 12.0026 5.00699 12.0408C8.12544 15.1287 12.5357 16.5645 15.6811 16.5611C16.1258 16.5606 16.4858 16.1998 16.4853 15.7551L16.4832 13.7327L16.4823 12.8882L16.4821 12.6347L16.482 12.566L16.482 12.5482L16.482 12.5436L16.482 12.5425C16.4818 12.329 16.3967 12.1239 16.2456 11.9731C16.0946 11.8224 15.89 11.7378 15.6767 11.7379L15.6743 11.7379L15.6614 11.7378C15.6492 11.7377 15.63 11.7374 15.6044 11.7369C15.553 11.7359 15.4761 11.7338 15.3785 11.7294C15.1828 11.7207 14.9063 11.703 14.5872 11.6673C13.936 11.5945 13.1625 11.4526 12.5396 11.1904C12.3 11.0895 12.0836 11.1233 11.9704 11.1527C11.8517 11.1836 11.7564 11.2327 11.695 11.2682C11.571 11.3401 11.4571 11.433 11.3677 11.5119C11.1818 11.6756 10.9712 11.8958 10.7725 12.1121C10.5926 12.3079 10.422 12.5002 10.2649 12.6772C10.0431 12.9271 9.84836 13.1465 9.69286 13.3023C9.66076 13.3345 9.63195 13.3687 9.60642 13.4045C8.40699 12.7963 7.15802 11.999 6.14492 10.9958C6.17303 11.0171 6.11918 10.9703 6.14492 10.9958C6.11693 10.9543 6.18153 11.0327 6.14492 10.9958C5.14072 9.98377 4.25332 8.63633 3.64381 7.43753C3.67961 7.41196 3.71379 7.38311 3.74592 7.35098C3.90157 7.19533 4.12078 7.00037 4.37047 6.77831C4.54729 6.62105 4.73939 6.4502 4.93504 6.27008C5.15111 6.07116 5.37105 5.86036 5.53465 5.67433C5.61342 5.58475 5.70621 5.47079 5.77792 5.34677C5.81345 5.28533 5.86243 5.18999 5.89317 5.07118C5.92245 4.95797 5.956 4.74155 5.85489 4.50206C5.59202 3.87943 5.4493 3.1061 5.37583 2.45492C5.33984 2.1359 5.32185 1.85936 5.3129 1.66369C5.30843 1.56607 5.30624 1.48917 5.30516 1.43785C5.30463 1.4122 5.30437 1.39299 5.30425 1.38082L5.30415 1.36795L5.30414 1.36613C5.30398 1.15283 5.21918 0.947702 5.06834 0.796863C4.91736 0.645883 4.71259 0.561065 4.49907 0.561066H4.49754H4.493H4.47517L4.40651 0.561066L4.15302 0.561067L3.30852 0.56107L1.28603 0.561066ZM3.36438 5.51776C3.22699 5.64029 3.0885 5.76379 2.96161 5.87913C2.48418 4.59281 2.21128 3.31403 2.12301 2.1712L3.30852 2.1712L3.73151 2.1712C3.74264 2.31304 3.75708 2.46911 3.77585 2.63543C3.84325 3.23288 3.97039 4.00148 4.21849 4.72603C4.12036 4.82696 3.99357 4.94825 3.84449 5.0855C3.70202 5.21665 3.53403 5.36647 3.36438 5.51776ZM11.5265 13.682C11.4041 13.8195 11.2807 13.9581 11.1655 14.0851C12.4523 14.5612 13.7314 14.8328 14.8743 14.9198L14.8731 13.7343L14.8727 13.3113C14.7308 13.3004 14.5747 13.2861 14.4084 13.2675C13.8109 13.2007 13.0421 13.0744 12.3173 12.827C12.2165 12.9253 12.0953 13.0522 11.9582 13.2014C11.8272 13.344 11.6776 13.5122 11.5265 13.682Z" fill="#444444"/>
</svg>
