<svg width="16" height="16" viewBox="0 0 16 16" fill="none" xmlns="http://www.w3.org/2000/svg">
<path d="M0.261239 14.4895L3.59125 11.1859C2.69088 10.0131 2.155 8.54377 2.155 6.94861C2.155 3.111 5.2543 1.05047e-05 9.0775 1.08389e-05C12.9007 1.11731e-05 16 3.11103 16 6.94861C16 10.7862 12.9007 13.8972 9.0775 13.8972C7.47746 13.8972 6.00443 13.3521 4.83212 12.4371L1.49751 15.7451C1.32613 15.9152 1.10275 16 0.879439 16C0.652631 16 0.425951 15.9125 0.253942 15.7378C-0.0874647 15.3911 -0.084226 14.8322 0.261239 14.4895ZM9.0775 12.4658C10.5457 12.4658 11.926 11.892 12.9641 10.8499C14.0022 9.80781 14.574 8.42233 14.574 6.94864C14.574 5.47493 14.0022 4.08944 12.9641 3.04741C11.9259 2.00534 10.5456 1.43144 9.0775 1.43144C7.60933 1.43144 6.22904 2.00534 5.19092 3.0474C4.15276 4.08947 3.58103 5.47496 3.58103 6.94864C3.58103 8.42236 4.15276 9.80785 5.19092 10.8499C6.22904 11.892 7.60932 12.4658 9.0775 12.4658Z" fill="#444444"/>
</svg>
