<svg width="16" height="16" viewBox="0 0 16 16" fill="none" xmlns="http://www.w3.org/2000/svg">
<path d="M15.4493 1.83602C15.7649 1.52036 15.7649 1.00857 15.4493 0.692901C15.1336 0.377235 14.6218 0.377235 14.3061 0.692901L8.14214 6.85689L1.97815 0.6929C1.66248 0.377235 1.15069 0.377235 0.835021 0.692901C0.519356 1.00857 0.519356 1.52036 0.835021 1.83603L6.99901 8.00002L0.835021 14.164C0.519355 14.4797 0.519356 14.9915 0.835021 15.3071C1.15069 15.6228 1.66248 15.6228 1.97815 15.3071L8.14214 9.14314L14.3061 15.3071C14.6218 15.6228 15.1336 15.6228 15.4493 15.3071C15.7649 14.9915 15.7649 14.4797 15.4493 14.164L9.28526 8.00002L15.4493 1.83602Z" fill="#444444"/>
</svg>
