<svg width="14" height="14" viewBox="0 0 14 14" fill="none" xmlns="http://www.w3.org/2000/svg">
<path d="M0.5 6.9502C0.5 6.42552 0.92533 6.0002 1.45 6.0002H12.55C13.0747 6.0002 13.5 6.42552 13.5 6.9502C13.5 7.47487 13.0747 7.9002 12.55 7.9002H1.45C0.92533 7.9002 0.5 7.47487 0.5 6.9502Z" fill="#444444"/>
<path d="M7 13.4502C6.47533 13.4502 6.05 13.0249 6.05 12.5002L6.05 1.4002C6.05 0.875525 6.47533 0.450195 7 0.450195C7.52467 0.450195 7.95 0.875525 7.95 1.4002L7.95 12.5002C7.95 13.0249 7.52467 13.4502 7 13.4502Z" fill="#444444"/>
</svg>
