<svg width="18" height="16" viewBox="0 0 18 16" fill="none" xmlns="http://www.w3.org/2000/svg">
<path d="M16.6739 1.5957C15.7696 0.566562 14.515 0 13.1425 0C11.2088 0 9.98645 1.15464 9.30377 2.12281C9.20012 2.26983 9.10004 2.42403 9.00353 2.58539C8.90703 2.42403 8.80695 2.26983 8.7033 2.12281C8.02062 1.15464 6.79822 0 4.86455 0C3.49204 0 2.23748 0.566562 1.3332 1.5957C0.475375 2.57463 0 3.87987 0 5.27835C0 6.79516 0.586177 8.20081 1.84431 9.70327C2.9559 11.0264 4.54287 12.3855 6.38361 13.9597C7.06629 14.5442 7.77399 15.1466 8.52458 15.8064L8.54603 15.8279C8.67113 15.939 8.83197 16 8.99996 16C9.16795 16 9.32879 15.939 9.45389 15.8279L9.47534 15.8064C10.2259 15.1466 10.9301 14.5442 11.6127 13.9632L11.6163 13.9597C13.457 12.3855 15.044 11.03 16.1556 9.70327C17.4137 8.20081 17.9999 6.79516 17.9999 5.27835C18.0071 3.87987 17.5317 2.57463 16.6739 1.5957ZM2.36615 2.51009C3.00594 1.78216 3.89236 1.38413 4.86455 1.38413C6.20847 1.38413 7.08416 2.21963 7.57741 2.92246C8.03134 3.56432 8.26724 4.20977 8.34587 4.45719C8.4388 4.74406 8.7033 4.93411 9.00353 4.93411C9.30377 4.93411 9.56827 4.74048 9.6612 4.45719C9.7434 4.20977 9.9793 3.56432 10.4297 2.92246C10.9265 2.21963 11.7986 1.38413 13.1425 1.38413C14.1147 1.38413 15.0011 1.78575 15.6409 2.51009C16.2771 3.23442 16.6274 4.21694 16.6274 5.27477C16.6274 7.86015 14.2791 9.86463 10.7263 12.9018C10.1759 13.3752 9.60401 13.8593 9.00353 14.3828C8.40306 13.8593 7.83118 13.3716 7.28075 12.9018C3.72794 9.86822 1.37966 7.86374 1.37966 5.27835C1.37966 4.21694 1.72994 3.23442 2.36615 2.51009Z" fill="white"/>
</svg>
