<svg width="20" height="20" viewBox="0 0 20 20" fill="none" xmlns="http://www.w3.org/2000/svg">
<path d="M0.32655 18.1118L4.48906 13.9824C3.3636 12.5163 2.69376 10.6797 2.69376 8.68575C2.69376 3.88873 6.56788 -1.17427e-06 11.3469 -7.5648e-07C16.1259 -3.38687e-07 20 3.88877 20 8.68575C20 13.4827 16.1259 17.3715 11.3469 17.3715C9.34682 17.3715 7.50554 16.6901 6.04014 15.5463L1.87189 19.6814C1.65767 19.8939 1.37844 20 1.0993 20C0.815792 20 0.53244 19.8906 0.317429 19.6723C-0.109329 19.2388 -0.10528 18.5402 0.32655 18.1118ZM11.3469 15.5823C13.1821 15.5823 14.9075 14.8649 16.2051 13.5623C17.5028 12.2598 18.2175 10.5279 18.2175 8.68579C18.2175 6.84365 17.5028 5.11179 16.2051 3.80924C14.9074 2.50666 13.1821 1.78929 11.3469 1.78929C9.51166 1.78929 7.7863 2.50665 6.48865 3.80924C5.19095 5.11183 4.47628 6.84369 4.47628 8.68579C4.47628 10.5279 5.19095 12.2598 6.48865 13.5623C7.7863 14.8649 9.51166 15.5823 11.3469 15.5823Z" fill="white"/>
</svg>
