<svg width="17" height="16" viewBox="0 0 17 16" fill="none" xmlns="http://www.w3.org/2000/svg">
<path fill-rule="evenodd" clip-rule="evenodd" d="M16.8649 3.21547C16.7445 3.057 16.5598 2.96457 16.3642 2.96457H3.9253L3.35297 0.502006C3.28451 0.207741 3.02864 2.98604e-09 2.73443 2.98604e-09H0.63591C0.284685 -3.41394e-05 0 0.292729 0 0.653919C0 1.01511 0.284685 1.30787 0.63591 1.30787H2.23249L4.2992 10.2008C4.36767 10.4953 4.62353 10.7028 4.91774 10.7028H14.8168C15.1091 10.7028 15.3639 10.4979 15.4341 10.2062L16.9815 3.77566C17.0283 3.58039 16.9853 3.37394 16.8649 3.21547ZM14.3193 9.39494H5.41968L4.22924 4.27248H15.5517L14.3193 9.39494Z" fill="white"/>
<path fill-rule="evenodd" clip-rule="evenodd" d="M13.4602 11.6403C12.2914 11.6403 11.3405 12.6182 11.3405 13.8202C11.3405 15.0221 12.2914 16 13.4602 16C14.629 16 15.5799 15.0221 15.5799 13.8202C15.5799 12.6182 14.629 11.6403 13.4602 11.6403ZM13.4602 14.6921C12.9926 14.6921 12.6124 14.301 12.6124 13.8202C12.6124 13.3393 12.9926 12.9482 13.4602 12.9482C13.9278 12.9482 14.3081 13.3393 14.3081 13.8202C14.3081 14.301 13.9278 14.6921 13.4602 14.6921Z" fill="white"/>
<path fill-rule="evenodd" clip-rule="evenodd" d="M3.64591 13.8202C3.64591 12.6182 4.59679 11.6403 5.76561 11.6403C6.9344 11.6403 7.88531 12.6182 7.88531 13.8202C7.88531 15.0221 6.9344 16 5.76561 16C4.59682 16 3.64591 15.0221 3.64591 13.8202ZM4.91773 13.8202C4.91773 14.301 5.29801 14.6921 5.76561 14.6921C6.23321 14.6921 6.61349 14.301 6.61349 13.8202C6.61349 13.3393 6.23321 12.9482 5.76561 12.9482C5.29801 12.9482 4.91773 13.3393 4.91773 13.8202Z" fill="white"/>
</svg>
