<?xml version="1.0" encoding="utf-8"?>
<!-- Generator: Adobe Illustrator 22.0.0, SVG Export Plug-In . SVG Version: 6.00 Build 0)  -->
<svg version="1.1" id="Слой_1" xmlns="http://www.w3.org/2000/svg" xmlns:xlink="http://www.w3.org/1999/xlink" x="0px" y="0px"
	 viewBox="0 0 22 22" style="enable-background:new 0 0 22 22;" xml:space="preserve">
<style type="text/css">
	.st0{fill:#E1E2E5;}
</style>
<path class="st0" d="M10.1,0.7c0.3-0.9,1.6-0.9,1.9,0l1.9,6.2c0.1,0.4,0.5,0.7,0.9,0.7H21c0.9,0,1.3,1.3,0.6,1.9l-5,3.8
	c-0.3,0.3-0.5,0.7-0.4,1.1l1.9,6.2c0.3,0.9-0.7,1.7-1.5,1.1l-5-3.8c-0.3-0.3-0.8-0.3-1.2,0l-5,3.8c-0.8,0.6-1.8-0.2-1.5-1.1l1.9-6.2
	c0.1-0.4,0-0.9-0.4-1.1l-5-3.8C-0.4,8.9,0,7.6,1,7.6h6.2c0.4,0,0.8-0.3,0.9-0.7L10.1,0.7z"/>
</svg>
