<svg width="23" height="24" viewBox="0 0 23 24" fill="none" xmlns="http://www.w3.org/2000/svg">
<path d="M10.3029 13.1255L10.3031 22.1359C10.3029 22.7576 10.807 23.2617 11.4287 23.2615C12.0506 23.2615 12.5542 22.7579 12.5542 22.136L12.554 13.1256L21.5647 13.1255C22.1866 13.1255 22.6902 12.6219 22.6902 12C22.6904 11.3783 22.1863 10.8742 21.5646 10.8744L12.5539 10.8745L12.554 1.86382C12.5542 1.24215 12.0501 0.738012 11.4284 0.738264C11.1177 0.738523 10.8362 0.86455 10.6327 1.06805C10.4292 1.27156 10.3032 1.55307 10.3032 1.86404L10.3031 10.8747L1.29274 10.8745C0.981769 10.8745 0.700255 11.0005 0.496751 11.204C0.293246 11.4075 0.167221 11.689 0.167228 12C0.166975 12.6217 0.671111 13.1258 1.29278 13.1256L10.3029 13.1255Z" fill="#444444"/>
</svg>
