<svg width="17" height="16" viewBox="0 0 17 16" fill="none" xmlns="http://www.w3.org/2000/svg">
<path d="M15.9933 1.85415C16.3264 1.53154 16.3264 0.997357 15.9933 0.674746V0.674746C15.6749 0.366298 15.1692 0.366298 14.8508 0.674745L8.46925 6.85688L2.0877 0.674745C1.7693 0.366298 1.26355 0.366298 0.94515 0.674746V0.674746C0.612133 0.997357 0.612132 1.53154 0.94515 1.85415L7.28925 8L0.94515 14.1459C0.612132 14.4685 0.612133 15.0026 0.94515 15.3253V15.3253C1.26355 15.6337 1.7693 15.6337 2.0877 15.3253L8.46925 9.14313L14.8508 15.3253C15.1692 15.6337 15.6749 15.6337 15.9933 15.3253V15.3253C16.3264 15.0026 16.3264 14.4685 15.9933 14.1459L9.64925 8L15.9933 1.85415Z" fill="#444444"/>
</svg>
