<svg width="18" height="18" viewBox="0 0 18 18" fill="none" xmlns="http://www.w3.org/2000/svg">
<path d="M16.8583 1.14201C16.2872 0.570775 15.5125 0.249919 14.7047 0.250013C13.8965 0.247682 13.121 0.569097 12.5514 1.14253L2.07359 11.6194C1.98667 11.707 1.92109 11.8135 1.88189 11.9305L0.290986 16.7032C0.152138 17.12 0.377492 17.5705 0.794316 17.7093C0.875182 17.7362 0.959871 17.75 1.04507 17.75C1.13046 17.7499 1.21533 17.7362 1.29643 17.7095L6.06919 16.1186C6.18641 16.0794 6.29291 16.0135 6.38021 15.9261L16.858 5.44834C18.0472 4.25926 18.0474 2.33124 16.8583 1.14201ZM15.7332 4.32432L5.39224 14.6653L2.30267 15.697L3.33119 12.6114L13.6761 2.27046C14.2449 1.70286 15.1661 1.70379 15.7337 2.27251C16.0048 2.54419 16.1576 2.91198 16.1588 3.29581C16.1597 3.68168 16.0065 4.05194 15.7332 4.32432Z" fill="#444444"/>
</svg>
