<?xml version="1.0" encoding="utf-8"?>
<!-- Generator: Adobe Illustrator 22.0.0, SVG Export Plug-In . SVG Version: 6.00 Build 0)  -->
<svg version="1.1" id="Слой_1" xmlns="http://www.w3.org/2000/svg" xmlns:xlink="http://www.w3.org/1999/xlink" x="0px" y="0px"
	 viewBox="0 0 15.5 15.1" style="enable-background:new 0 0 15.5 15.1;" xml:space="preserve">
<style type="text/css">
	.st0{fill:#FFFFFF;}
</style>
<path class="st0" d="M15.3,1.4c0.3-0.3,0.3-0.9,0-1.2l0,0c-0.3-0.3-0.8-0.3-1.1,0L7.8,6.4L1.4,0.2c-0.3-0.3-0.8-0.3-1.1,0l0,0
	c-0.3,0.3-0.3,0.9,0,1.2l6.3,6.1l-6.3,6.1c-0.3,0.3-0.3,0.9,0,1.2l0,0c0.3,0.3,0.8,0.3,1.1,0l6.4-6.2l6.4,6.2c0.3,0.3,0.8,0.3,1.1,0
	l0,0c0.3-0.3,0.3-0.9,0-1.2L9,7.6L15.3,1.4z"/>
</svg>
