<svg width="11" height="11" viewBox="0 0 11 11" fill="none" xmlns="http://www.w3.org/2000/svg">
<path d="M2.19932 0.866005C1.83113 0.497815 1.23418 0.497815 0.86599 0.866005C0.4978 1.23419 0.497801 1.83115 0.865991 2.19934L4.03756 5.37091L0.86599 8.54248C0.4978 8.91067 0.4978 9.50763 0.86599 9.87582C1.23418 10.244 1.83113 10.244 2.19932 9.87582L6.70423 5.37091L2.19932 0.866005Z" fill="#444444"/>
<path d="M8.54247 0.866005C8.91066 0.497815 9.50761 0.497815 9.8758 0.866005C10.244 1.23419 10.244 1.83115 9.8758 2.19934L6.70423 5.37091L9.8758 8.54248C10.244 8.91067 10.244 9.50763 9.8758 9.87582C9.50761 10.244 8.91066 10.244 8.54247 9.87582L4.03756 5.37091L8.54247 0.866005Z" fill="#444444"/>
</svg>
