<?xml version="1.0" encoding="utf-8"?>
<!-- Generator: Adobe Illustrator 22.0.0, SVG Export Plug-In . SVG Version: 6.00 Build 0)  -->
<svg version="1.1" id="Слой_1" xmlns="http://www.w3.org/2000/svg" xmlns:xlink="http://www.w3.org/1999/xlink" x="0px" y="0px"
	 viewBox="0 0 17 16" style="enable-background:new 0 0 17 16;" xml:space="preserve">
<style type="text/css">
	.st0{fill:#444444;}
</style>
<path class="st0" d="M16.9,3.2C16.7,3.1,16.6,3,16.4,3H3.9L3.4,0.5C3.3,0.2,3,0,2.7,0H0.6C0.3,0,0,0.3,0,0.7C0,1,0.3,1.3,0.6,1.3
	h1.6l2.1,8.9c0.1,0.3,0.3,0.5,0.6,0.5h9.9c0.3,0,0.5-0.2,0.6-0.5L17,3.8C17,3.6,17,3.4,16.9,3.2z M14.3,9.4H5.4L4.2,4.3h11.3
	L14.3,9.4z"/>
<path class="st0" d="M13.5,11.6c-1.2,0-2.1,1-2.1,2.2c0,1.2,1,2.2,2.1,2.2s2.1-1,2.1-2.2C15.6,12.6,14.6,11.6,13.5,11.6z M13.5,14.7
	c-0.5,0-0.8-0.4-0.8-0.9c0-0.5,0.4-0.9,0.8-0.9s0.8,0.4,0.8,0.9C14.3,14.3,13.9,14.7,13.5,14.7z"/>
<path class="st0" d="M3.6,13.8c0-1.2,1-2.2,2.1-2.2c1.2,0,2.1,1,2.1,2.2c0,1.2-1,2.2-2.1,2.2S3.6,15,3.6,13.8z M4.9,13.8
	c0,0.5,0.4,0.9,0.8,0.9c0.5,0,0.8-0.4,0.8-0.9c0-0.5-0.4-0.9-0.8-0.9C5.3,12.9,4.9,13.3,4.9,13.8z"/>
</svg>
