<svg width="13" height="14" viewBox="0 0 13 14" fill="none" xmlns="http://www.w3.org/2000/svg">
<path d="M0 6.9502C0 6.42552 0.42533 6.0002 0.95 6.0002H12.05C12.5747 6.0002 13 6.42552 13 6.9502C13 7.47487 12.5747 7.9002 12.05 7.9002H0.950001C0.42533 7.9002 0 7.47487 0 6.9502Z" fill="#444444"/>
<path d="M6.5 13.4502C5.97533 13.4502 5.55 13.0249 5.55 12.5002L5.55 1.4002C5.55 0.875525 5.97533 0.450195 6.5 0.450195C7.02467 0.450195 7.45 0.875525 7.45 1.4002L7.45 12.5002C7.45 13.0249 7.02467 13.4502 6.5 13.4502Z" fill="#444444"/>
</svg>
