<svg width="22" height="22" viewBox="0 0 22 22" fill="none" xmlns="http://www.w3.org/2000/svg">
<path d="M10.0692 0.70782C10.3622 -0.235941 11.6378 -0.235939 11.9308 0.707821L13.8566 6.91111C13.9876 7.33317 14.3634 7.61893 14.7874 7.61893H21.0194C21.9675 7.61893 22.3617 8.88875 21.5947 9.47203L16.5529 13.3059C16.2099 13.5667 16.0663 14.0291 16.1974 14.4512L18.1232 20.6544C18.4161 21.5982 17.3841 22.383 16.617 21.7997L11.5753 17.9659C11.2323 17.705 10.7677 17.705 10.4247 17.9659L5.38296 21.7997C4.61591 22.383 3.58386 21.5982 3.87685 20.6544L5.80262 14.4512C5.93365 14.0291 5.79011 13.5667 5.44708 13.3059L0.405324 9.47203C-0.361722 8.88875 0.0324882 7.61893 0.980609 7.61893H7.21256C7.63657 7.61893 8.01236 7.33317 8.14339 6.91111L10.0692 0.70782Z" fill="#FFB317"/>
</svg>
