<svg width="20" height="20" viewBox="0 0 20 20" fill="none" xmlns="http://www.w3.org/2000/svg">
<path fill-rule="evenodd" clip-rule="evenodd" d="M17.5729 7.28043L18.5483 7.44583C19.3997 7.58926 20.0095 8.31619 19.9998 9.17542V10.8279C19.9998 11.6862 19.3857 12.4123 18.5394 12.5543L17.5655 12.7167C17.4808 12.9523 17.3824 13.1892 17.271 13.4251L17.8459 14.2325C18.3432 14.931 18.2639 15.8784 17.657 16.4851L16.485 17.6573C16.1537 17.9886 15.7146 18.1711 15.2487 18.1711C14.879 18.1711 14.5267 18.058 14.2297 17.8442L13.4288 17.2717C13.1982 17.3802 12.9611 17.4783 12.7194 17.5652L12.554 18.5406C12.4123 19.3858 11.6861 20 10.8278 20H9.16809C8.30978 20 7.58377 19.3858 7.44171 18.5396L7.27921 17.5644C7.04987 17.4818 6.82648 17.3901 6.61102 17.29L5.79102 17.8737C5.49667 18.0855 5.14572 18.1985 4.77875 18.1985C4.31274 18.1985 3.8736 18.0161 3.54233 17.6848L2.3703 16.5126C1.76193 15.9103 1.68167 14.962 2.1814 14.2599L2.74963 13.4695C2.63885 13.2385 2.53937 13.0023 2.45193 12.7628L1.45889 12.5934C0.614166 12.4516 0 11.7256 0 10.8673V9.21143C0 8.35312 0.614166 7.62711 1.46042 7.48505L2.41623 7.32376C2.50168 7.08069 2.59842 6.8425 2.70599 6.61102L2.12234 5.79102C1.62506 5.09247 1.70456 4.14505 2.31125 3.53836L3.48602 2.3674C3.81363 2.03537 4.25293 1.85257 4.72351 1.85257C5.09323 1.85257 5.44556 1.96548 5.74249 2.17926L6.53442 2.74963C6.76559 2.6387 7.00165 2.53937 7.24106 2.45193L7.41058 1.45889C7.55219 0.614166 8.2782 0 9.13651 0H10.7924C11.6508 0 12.3769 0.614166 12.5188 1.46057L12.6801 2.41623C12.9349 2.50626 13.188 2.61047 13.4375 2.72842L14.2441 2.15393C14.5386 1.94199 14.8895 1.82892 15.2565 1.82892C15.7225 1.82892 16.1617 2.01141 16.4929 2.34268L17.6649 3.51486C18.2733 4.11728 18.3536 5.06546 17.8539 5.76752L17.2795 6.57104C17.388 6.80161 17.4861 7.03873 17.5729 7.28043ZM18.3461 11.3985C18.625 11.3516 18.828 11.1116 18.828 10.8279V9.16382C18.8319 8.88474 18.6322 8.64822 18.3534 8.60138L18.3524 8.60123L17.0602 8.38196C16.8243 8.34213 16.6328 8.1752 16.561 7.94632C16.4377 7.55386 16.2802 7.17346 16.0927 6.81549C15.9811 6.60248 15.9985 6.34827 16.1383 6.15234L16.8999 5.08682C17.0644 4.85596 17.0387 4.54376 16.8384 4.3454L15.6644 3.17139C15.5527 3.05969 15.4117 3.00079 15.2567 3.00079C15.135 3.00079 15.024 3.03635 14.9265 3.10669L13.855 3.86978C13.6591 4.00909 13.4056 4.02649 13.1929 3.91541C12.8101 3.71521 12.4155 3.55286 12.0198 3.43262C11.7877 3.36182 11.6188 3.16986 11.5785 2.93121L11.3632 1.65482C11.3162 1.37482 11.0762 1.17188 10.7925 1.17188H9.13666C8.85284 1.17188 8.61282 1.37482 8.56598 1.65436L8.34259 2.96387C8.30215 3.19946 8.13599 3.39005 7.90863 3.46222C7.5235 3.58429 7.14508 3.74374 6.78421 3.93616C6.56937 4.0509 6.31271 4.03381 6.11481 3.8913L5.05768 3.13034C4.96155 3.06107 4.84589 3.02444 4.72351 3.02444C4.56863 3.02444 4.4252 3.08365 4.31946 3.19122L4.31519 3.19565L3.13919 4.36768C2.93915 4.56772 2.91275 4.88083 3.07709 5.11154L3.84644 6.19247C3.98514 6.38763 4.00284 6.64047 3.89267 6.85272C3.70758 7.20978 3.5527 7.59079 3.43231 7.98477C3.36136 8.21671 3.16925 8.38531 2.93076 8.42545L1.65482 8.64075C1.37482 8.68774 1.17188 8.92776 1.17188 9.21143V10.8673C1.17188 11.151 1.37482 11.391 1.65436 11.438L2.96387 11.6612C3.19885 11.7014 3.38974 11.8675 3.46207 12.0949C3.58429 12.4805 3.74374 12.8589 3.93616 13.2198C4.0509 13.4354 4.03351 13.6917 3.89114 13.8893L3.13446 14.9419C2.97104 15.1715 2.99652 15.4837 3.19687 15.6821L4.37103 16.8561C4.48257 16.9678 4.62357 17.0267 4.77875 17.0267C4.90021 17.0267 5.01129 16.9911 5.10895 16.9208L6.19247 16.1496C6.30249 16.0713 6.43097 16.0316 6.56006 16.0316C6.65985 16.0316 6.7601 16.0553 6.85272 16.1034C7.19254 16.2799 7.56073 16.4313 7.94739 16.5533C8.17627 16.6257 8.3429 16.8176 8.38226 17.0544L8.59756 18.3463C8.64441 18.6252 8.88428 18.8281 9.16809 18.8281H10.8278C11.1116 18.8281 11.3516 18.6252 11.3985 18.3455L11.6179 17.0523C11.6577 16.8164 11.8248 16.6248 12.0537 16.553C12.446 16.4299 12.8264 16.2723 13.1844 16.0849C13.3981 15.9731 13.6526 15.9908 13.8484 16.1313L14.9129 16.8921C15.0108 16.9626 15.1263 16.9992 15.2487 16.9992C15.4039 16.9992 15.5449 16.9402 15.6564 16.8286L16.8285 15.6566C17.0291 15.4559 17.0555 15.1428 16.8913 14.9121L16.1301 13.8431C15.9909 13.6481 15.9732 13.3946 16.084 13.1819C16.2798 12.8047 16.4374 12.4246 16.5521 12.0528C16.6237 11.8216 16.8159 11.6534 17.0543 11.6138L18.3461 11.3985ZM6.11133 10C6.11133 7.85583 7.85571 6.11145 9.99988 6.11145C12.144 6.11145 13.8884 7.85583 13.8884 10C13.8884 12.1442 12.144 13.8885 9.99988 13.8885C7.85571 13.8885 6.11133 12.1442 6.11133 10ZM7.2832 10C7.2832 11.498 8.50192 12.7167 9.99988 12.7167C11.4978 12.7167 12.7166 11.498 12.7166 10C12.7166 8.50204 11.4978 7.28333 9.99988 7.28333C8.50192 7.28333 7.2832 8.50204 7.2832 10Z" fill="white"/>
</svg>
