<svg width="40" height="40" viewBox="0 0 40 40" fill="none" xmlns="http://www.w3.org/2000/svg">
<path d="M33.3346 32.3356C33.3346 32.8879 32.8899 33.3327 32.3376 33.3327C30.176 33.3327 24.8607 33.3327 20.0013 33.3327C15.1419 33.3327 9.82662 33.3327 7.66502 33.3327C7.11273 33.3327 6.66797 32.8879 6.66797 32.3356C6.66797 30.174 6.66797 24.8587 6.66797 19.9993C6.66797 15.1399 6.66797 9.82467 6.66797 7.66307C6.66797 7.11078 7.11273 6.66602 7.66502 6.66602C9.82662 6.66602 15.1419 6.66602 20.0013 6.66602C24.8607 6.66602 30.176 6.66602 32.3376 6.66602C32.8899 6.66602 33.3346 7.11078 33.3346 7.66307C33.3346 9.82467 33.3346 15.1399 33.3346 19.9993C33.3346 24.8587 33.3346 30.174 33.3346 32.3356Z" stroke="#38AA70" stroke-width="2" stroke-linecap="round" stroke-linejoin="round"/>
<path d="M13.332 3.33398V6.66732M26.6654 3.33398V6.66732M19.9987 3.33398V6.66732M13.332 33.334V36.6673M19.9987 33.334V36.6673M26.6654 33.334V36.6673M36.6654 26.6673H33.332M6.66536 13.334H3.33203M6.66536 26.6673H3.33203M6.66536 20.0007H3.33203M36.6654 13.334H33.332M36.6654 20.0007H33.332" stroke="#38AA70" stroke-width="2" stroke-linecap="round" stroke-linejoin="round"/>
<path d="M15.8647 11.4424C16.0829 10.8525 16.9172 10.8525 17.1353 11.4424L18.1136 14.0859C18.2509 14.4568 18.5432 14.7492 18.9142 14.8864L21.5577 15.8647C22.1474 16.0829 22.1474 16.9172 21.5577 17.1353L18.9142 18.1136C18.5432 18.2509 18.2509 18.5432 18.1136 18.9142L17.1353 21.5577C16.9172 22.1474 16.0829 22.1474 15.8647 21.5577L14.8864 18.9142C14.7492 18.5432 14.4568 18.2509 14.0859 18.1136L11.4424 17.1353C10.8525 16.9172 10.8525 16.0829 11.4424 15.8647L14.0859 14.8864C14.4568 14.7492 14.7492 14.4568 14.8864 14.0859L15.8647 11.4424Z" stroke="#38AA70" stroke-width="2"/>
<path d="M24.538 21.3217C24.6966 20.8928 25.3034 20.8928 25.4621 21.3217L26.1735 23.2443C26.2733 23.5141 26.486 23.7267 26.7557 23.8265L28.6783 24.538C29.1072 24.6966 29.1072 25.3034 28.6783 25.4621L26.7557 26.1735C26.486 26.2733 26.2733 26.486 26.1735 26.7557L25.4621 28.6783C25.3034 29.1072 24.6966 29.1072 24.538 28.6783L23.8265 26.7557C23.7267 26.486 23.5141 26.2733 23.2443 26.1735L21.3217 25.4621C20.8928 25.3034 20.8928 24.6966 21.3217 24.538L23.2443 23.8265C23.5141 23.7267 23.7267 23.5141 23.8265 23.2443L24.538 21.3217Z" stroke="#38AA70" stroke-width="2"/>
</svg>
