<svg width="40" height="40" viewBox="0 0 40 40" fill="none" xmlns="http://www.w3.org/2000/svg">
<g clip-path="url(#clip0_913_12411)">
<path d="M20 10V12.6667M20 10C17.2388 10 14.7391 11.1191 12.9295 12.9284M20 10C22.7612 10 25.2609 11.1191 27.0705 12.9284M27.3333 20H30C30 17.2383 28.8805 14.7381 27.0705 12.9284M12.6667 20H10C10 17.2383 11.1195 14.7381 12.9295 12.9284M12.9295 12.9284L14.6677 14.6667M27.0705 12.9284L25.3323 14.6667" stroke="#38AA70" stroke-width="2" stroke-linecap="round" stroke-linejoin="round"/>
<path d="M17.4859 2.33325V4.28525C17.4859 4.77368 17.1321 5.18707 16.6557 5.29491C14.9671 5.67717 13.3861 6.3428 11.9652 7.2392C11.5522 7.49974 11.0099 7.45749 10.6647 7.11221L9.2833 5.73085C8.89278 5.34033 8.25961 5.34033 7.86909 5.73085L5.72964 7.87031C5.33911 8.26083 5.33911 8.894 5.72963 9.28452L7.11099 10.6659C7.45626 11.0112 7.49852 11.5534 7.23798 11.9664C6.34158 13.3873 5.67595 14.9683 5.29369 16.6569C5.18585 17.1333 4.77246 17.4871 4.28403 17.4871H2.33203C1.77975 17.4871 1.33203 17.9348 1.33203 18.4871L1.33203 21.5127C1.33203 22.065 1.77975 22.5127 2.33203 22.5127H4.28403C4.77246 22.5127 5.18585 22.8665 5.29369 23.3429C5.67595 25.0315 6.34158 26.6125 7.23798 28.0334C7.49851 28.4464 7.45626 28.9887 7.11098 29.334L5.72964 30.7153C5.33911 31.1058 5.33911 31.739 5.72964 32.1295L7.86908 34.269C8.25961 34.6595 8.89277 34.6595 9.2833 34.269L10.6646 32.8876C11.0099 32.5423 11.5522 32.5001 11.9652 32.7606C13.3861 33.657 14.9671 34.3227 16.6557 34.7049C17.1321 34.8128 17.4859 35.2262 17.4859 35.7146V37.6666C17.4859 38.2189 17.9336 38.6666 18.4859 38.6666H21.5115C22.0638 38.6666 22.5115 38.2189 22.5115 37.6666V35.7146C22.5115 35.2262 22.8653 34.8128 23.3417 34.7049C25.0303 34.3227 26.6113 33.657 28.0322 32.7606C28.4452 32.5001 28.9875 32.5423 29.3327 32.8876L30.7141 34.269C31.1046 34.6595 31.7378 34.6595 32.1283 34.269L34.2677 32.1295C34.6583 31.739 34.6583 31.1058 34.2677 30.7153L32.8864 29.334C32.5411 28.9887 32.4989 28.4464 32.7594 28.0334C33.6558 26.6125 34.3214 25.0315 34.7037 23.3429C34.8115 22.8665 35.2249 22.5127 35.7134 22.5127H37.6654C38.2176 22.5127 38.6654 22.065 38.6654 21.5127V18.4871C38.6654 17.9348 38.2176 17.4871 37.6654 17.4871H35.7134C35.2249 17.4871 34.8115 17.1333 34.7037 16.6569C34.3214 14.9683 33.6558 13.3873 32.7594 11.9664C32.4989 11.5534 32.5411 11.0111 32.8864 10.6659L34.2677 9.28452C34.6583 8.89399 34.6583 8.26083 34.2677 7.87031L32.1283 5.73086C31.7378 5.34033 31.1046 5.34033 30.7141 5.73086L29.3327 7.1122C28.9875 7.45748 28.4452 7.49973 28.0322 7.2392C26.6113 6.3428 25.0303 5.67717 23.3417 5.29491C22.8653 5.18707 22.5115 4.77368 22.5115 4.28525V2.33325C22.5115 1.78097 22.0638 1.33325 21.5115 1.33325L18.4859 1.33325C17.9336 1.33325 17.4859 1.78097 17.4859 2.33325Z" stroke="#38AA70" stroke-width="2" stroke-linecap="round" stroke-linejoin="round"/>
<path d="M21.9987 21.7638C22.4136 21.2937 22.6654 20.6762 22.6654 19.9999C22.6654 18.5272 21.4715 17.3333 19.9987 17.3333C18.5259 17.3333 17.332 18.5272 17.332 19.9999C17.332 21.4727 18.5259 22.6666 19.9987 22.6666C20.7952 22.6666 21.5101 22.3174 21.9987 21.7638ZM21.9987 21.7638L24.332 24.0971" stroke="#38AA70" stroke-width="2" stroke-linecap="round" stroke-linejoin="round"/>
</g>
<defs>
<clipPath id="clip0_913_12411">
<rect width="40" height="40" fill="white"/>
</clipPath>
</defs>
</svg>
