<svg width="40" height="40" viewBox="0 0 40 40" fill="none" xmlns="http://www.w3.org/2000/svg">
<g clip-path="url(#clip0_3001_705)">
<path d="M20 0C14.6969 0 9.60625 2.10844 5.85938 5.85781C2.10866 9.6087 0.00107328 14.6956 0 20C0 25.3022 2.10938 30.3928 5.85938 34.1422C9.60625 37.8916 14.6969 40 20 40C25.3031 40 30.3937 37.8916 34.1406 34.1422C37.8906 30.3928 40 25.3022 40 20C40 14.6978 37.8906 9.60719 34.1406 5.85781C30.3937 2.10844 25.3031 0 20 0Z" fill="url(#paint0_linear_3001_705)"/>
<path d="M9.05145 19.7886C14.8827 17.2486 18.7702 15.574 20.7139 14.7648C26.2702 12.4545 27.4233 12.0533 28.1764 12.0397C28.3421 12.037 28.7108 12.078 28.9514 12.2725C29.1514 12.4365 29.2077 12.6584 29.2358 12.8142C29.2608 12.9698 29.2952 13.3245 29.2671 13.6014C28.9671 16.7639 27.6639 24.4383 27.0014 27.9805C26.7233 29.4792 26.1702 29.9817 25.6358 30.0308C24.4733 30.1376 23.5921 29.2633 22.4671 28.5261C20.7077 27.372 19.7139 26.6539 18.0046 25.528C16.0296 24.2267 17.3108 23.5114 18.4358 22.3426C18.7296 22.0367 23.8483 17.382 23.9452 16.9598C23.9577 16.907 23.9702 16.7101 23.8514 16.6064C23.7358 16.5023 23.5639 16.538 23.4389 16.5661C23.2608 16.6061 20.4514 18.4648 15.0014 22.142C14.2046 22.6901 13.4827 22.9573 12.8327 22.9433C12.1202 22.9279 10.7452 22.5395 9.72332 22.2076C8.47332 21.8005 7.47645 21.5851 7.56395 20.8936C7.6077 20.5336 8.10457 20.1651 9.05145 19.7886Z" fill="white"/>
</g>
<defs>
<linearGradient id="paint0_linear_3001_705" x1="2000" y1="0" x2="2000" y2="4000" gradientUnits="userSpaceOnUse">
<stop stop-color="#2AABEE"/>
<stop offset="1" stop-color="#229ED9"/>
</linearGradient>
<clipPath id="clip0_3001_705">
<rect width="40" height="40" fill="white"/>
</clipPath>
</defs>
</svg>
