<svg width="17" height="15" viewBox="0 0 17 15" fill="none" xmlns="http://www.w3.org/2000/svg">
<path d="M1.14575 6.09872C5.61966 4.09949 8.60297 2.78147 10.0957 2.14467C14.3577 0.32648 15.2433 0.0106415 15.8205 0.000101109C15.9474 -0.00208148 16.2313 0.0301888 16.4152 0.183218C16.5704 0.312433 16.6132 0.486984 16.6336 0.609494C16.654 0.732004 16.6795 1.01108 16.6593 1.22915C16.4283 3.71812 15.4289 9.75818 14.9205 12.5459C14.7054 13.7254 14.2818 14.1209 13.8717 14.1596C12.9805 14.2438 12.3037 13.5556 11.4406 12.9752C10.0898 12.0671 9.32676 11.5018 8.01565 10.6156C6.50044 9.59146 7.48269 9.02858 8.34621 8.10868C8.57219 7.86794 12.4989 4.20463 12.5749 3.87231C12.5844 3.83074 12.5933 3.67582 12.5035 3.59401C12.4138 3.51221 12.2813 3.54018 12.1858 3.56243C12.0503 3.59397 9.8925 5.05679 5.71239 7.95089C5.0999 8.38226 4.54514 8.59243 4.04808 8.58142C3.50012 8.56928 2.44606 8.26365 1.66248 8.0024C0.701383 7.68197 -0.0624775 7.51255 0.00403765 6.96836C0.0386828 6.68491 0.419252 6.39503 1.14575 6.09872Z" fill="#28A8EA"/>
</svg>
