<svg width="58" height="80" viewBox="0 0 58 80" fill="none" xmlns="http://www.w3.org/2000/svg">
<path d="M51.8 56.14L49 51.92C54.2 42.68 55.26 32.92 52.6 19.6C50.22 7.7 40.82 0 28.64 0C16.46 0 7.06 7.7 4.68 19.6C2.02 32.92 3.08 42.68 8.28 51.92L5.48 56.14C2.4 56.88 0 60.48 0 64.68C0 67.08 0.84 71.62 6.44 75.2C11.4 78.38 18.88 80 28.66 80C38.44 80 45.92 78.38 50.88 75.2C56.48 71.6 57.32 67.06 57.32 64.68C57.32 60.5 54.9 56.88 51.84 56.14H51.8ZM48.7 71.84C44.46 74.56 37.52 76 28.64 76C19.76 76 12.82 74.56 8.58 71.84C5.62 69.94 3.98 67.4 3.98 64.68C3.98 61.82 5.72 60 6.62 60C7.28 60 7.92 59.66 8.28 59.1L10.7 55.46C12.06 56.84 13.44 57.64 13.66 57.76C13.96 57.92 14.28 58 14.6 58C15.3 58 16 57.62 16.36 56.96C16.88 56 16.52 54.78 15.56 54.26C15.54 54.26 13.36 53.04 12.4 51.12C12.4 51.12 12.38 51.1 12.36 51.08C12.36 51.06 12.36 51.02 12.32 51C7.14 42.36 6 33.2 8.56 20.42C10.56 10.46 18.42 4.02 28.6 4.02C38.78 4.02 46.64 10.46 48.64 20.42C51.2 33.2 50.08 42.34 44.88 51C44.88 51.02 44.86 51.06 44.84 51.08C44.84 51.08 44.82 51.1 44.8 51.12C43.84 53.04 41.66 54.24 41.64 54.26C40.68 54.78 40.3 56 40.84 56.96C41.2 57.64 41.9 58.02 42.6 58.02C42.92 58.02 43.24 57.94 43.54 57.78C43.76 57.66 45.16 56.88 46.5 55.48L48.92 59.12C49.3 59.68 49.92 60.02 50.58 60.02C51.48 60.02 53.22 61.84 53.22 64.7C53.22 67.56 51.58 69.96 48.62 71.86L48.7 71.84Z" fill="#E6E6E6"/>
<path d="M21.76 48.6799C21.76 51.0999 24.34 53.5999 28.64 53.5999C32.94 53.5999 35.52 51.0999 35.52 48.6799C35.52 46.5999 33.72 44.3999 28.64 44.3999C26.62 44.3999 24.98 44.7399 23.8 45.4399C22.5 46.1999 21.76 47.3799 21.76 48.6799ZM28.64 47.5999C30.54 47.5999 31.48 47.9799 31.86 48.1999C31.96 48.2599 32.3 48.4799 32.3 48.6799C32.3 49.1599 31.18 50.3999 28.62 50.3999C26.06 50.3999 24.94 49.1599 24.94 48.6799C24.94 48.3999 25.84 47.5999 28.62 47.5999H28.64Z" fill="#E6E6E6"/>
<path d="M44.06 32.62C44.74 29.76 43.38 26.48 41.78 24.88C40.36 23.46 37.86 23.22 35.36 24.26C32.7 25.36 31.04 27.56 31.04 30.02C31.04 32.88 31.04 35.82 33.16 37.34C33.92 37.88 34.82 38.16 35.9 38.16C36.84 38.16 37.92 37.96 39.14 37.54C42.5 36.42 43.66 34.26 44.06 32.64V32.62ZM40.94 31.88C40.66 33.1 39.74 33.96 38.14 34.48C36.64 34.98 35.52 35.06 35.02 34.72C34.24 34.16 34.24 31.84 34.24 30C34.24 28.64 35.44 27.66 36.58 27.2C37.22 26.94 37.86 26.82 38.36 26.82C38.86 26.82 39.3 26.94 39.5 27.14C40.36 28 41.34 30.14 40.94 31.88Z" fill="#E6E6E6"/>
<path d="M24.12 37.3201C26.24 35.8001 26.24 32.8601 26.24 30.0001C26.24 27.5401 24.58 25.3401 21.92 24.2401C19.44 23.2001 16.92 23.4601 15.5 24.8601C13.88 26.4801 12.54 29.7401 13.22 32.6001C13.6 34.2201 14.76 36.3801 18.14 37.5001C19.36 37.9001 20.44 38.1201 21.38 38.1201C22.46 38.1201 23.38 37.8401 24.12 37.3001V37.3201ZM19.14 34.4801C17.54 33.9401 16.62 33.1001 16.34 31.8801C15.92 30.1401 16.9 28.0001 17.78 27.1401C17.98 26.9401 18.4 26.8201 18.92 26.8201C19.44 26.8201 20.06 26.9401 20.7 27.2001C21.84 27.6601 23.04 28.6601 23.04 30.0001C23.04 31.8601 23.04 34.1601 22.26 34.7201C21.78 35.0601 20.64 34.9801 19.14 34.4801Z" fill="#E6E6E6"/>
<path d="M35.54 64.84C35.54 64.84 33.74 66.4 28.64 66.4C23.54 66.4 21.84 64.92 21.74 64.84C21.12 64.24 20.12 64.26 19.5 64.86C18.88 65.46 18.88 66.5 19.5 67.12C19.76 67.38 22.16 69.58 28.64 69.58C35.12 69.58 37.52 67.36 37.78 67.12C38.4 66.5 38.38 65.54 37.78 64.9C37.18 64.28 36.18 64.24 35.54 64.82V64.84Z" fill="#E6E6E6"/>
</svg>
