<svg width="80" height="80" viewBox="0 0 80 80" fill="none" xmlns="http://www.w3.org/2000/svg">
<path d="M63.02 59.62C63.36 59.62 63.66 59.6 64 59.6C64.88 59.6 65.6 58.88 65.6 58C65.6 57.12 64.88 56.4 64 56.4C62.8 56.4 61.68 56.44 60.6 56.52L59.96 55.68L61.44 52.72C61.84 51.92 61.52 50.96 60.72 50.58C59.92 50.18 58.96 50.5 58.58 51.3L57.78 52.9L47.76 40.02L49.48 37.8C50.16 37.88 50.82 37.94 51.38 37.94C53.26 37.94 54.4 37.58 54.52 37.54C55.36 37.26 55.8 36.36 55.52 35.54C55.24 34.7 54.36 34.24 53.52 34.5C53.46 34.52 52.86 34.7 51.88 34.74L60.24 23.98C60.24 23.98 60.36 24.02 60.42 24.06V28.02C60.42 28.9 61.14 29.62 62.02 29.62C62.9 29.62 63.62 28.9 63.62 28.02V25.14C64.3 25.32 65.02 25.48 65.76 25.6C65.84 25.6 65.94 25.62 66.02 25.62C66.78 25.62 67.46 25.06 67.6 24.28C67.74 23.4 67.16 22.58 66.28 22.44C64.82 22.2 63.5 21.82 62.28 21.36L70.92 10.24C71.24 9.81996 71.4 9.29996 71.32 8.75996C71.26 8.23996 70.98 7.75996 70.56 7.41996L61.56 0.419961C60.68 -0.260039 59.44 -0.100039 58.76 0.779961L49.24 13.04C47.58 11.92 45.78 10.88 43.8 10.04L45.46 6.71996C45.86 5.91996 45.54 4.95996 44.74 4.57996C43.94 4.17996 42.98 4.49996 42.6 5.29996L40.76 8.97996C39.98 8.75996 39.16 8.57996 38.3 8.43996C33.86 7.69996 29.48 9.01996 25.18 10.92L17.26 0.779961C16.58 -0.100039 15.32 -0.240039 14.46 0.419961L5.44004 7.41996C5.02004 7.73996 4.74004 8.21996 4.68004 8.75996C4.62004 9.27996 4.76004 9.81996 5.08004 10.24L10.78 17.58C9.74004 17.94 8.70004 18.24 7.66004 18.44C6.80003 18.62 6.24004 19.46 6.40004 20.32C6.58004 21.18 7.42003 21.74 8.28004 21.58C9.80003 21.28 11.32 20.8 12.84 20.22L19.98 29.4C19.06 29.74 18.14 30.12 17.26 30.56C16.46 30.96 16.14 31.92 16.54 32.7C16.94 33.5 17.9 33.82 18.68 33.42C19.78 32.88 20.9 32.44 22.04 32.04L28.22 39.98L14.94 57.06C14.3 56.42 13.74 55.78 13.3 55.1C12.82 54.36 11.82 54.16 11.08 54.66C10.34 55.16 10.14 56.14 10.64 56.88C11.3 57.86 12.1 58.74 12.98 59.58L5.06004 69.76C4.74004 70.18 4.58004 70.7 4.66004 71.24C4.72004 71.76 5.00004 72.24 5.42004 72.58L14.42 79.58C14.78 79.86 15.22 80 15.64 80C16.24 80 16.82 79.74 17.22 79.22L27.56 65.92C28.62 66.04 29.7 66.1 30.78 66.1C32.62 66.1 34.46 65.92 36.28 65.56C36.5 65.52 36.68 65.46 36.9 65.42L38.54 68.7C38.82 69.26 39.38 69.58 39.98 69.58C40.22 69.58 40.46 69.52 40.7 69.42C41.5 69.02 41.82 68.06 41.42 67.28L40.12 64.68C42.24 64.12 44.18 63.52 46.08 62.94L58.76 79.24C59.16 79.74 59.74 80.02 60.34 80.02C60.76 80.02 61.2 79.88 61.56 79.6L70.56 72.6C70.98 72.28 71.26 71.8 71.32 71.26C71.38 70.74 71.24 70.2 70.92 69.78L63.02 59.62ZM55.94 57.04C53.08 57.52 50.56 58.2 48.06 58.96L40.54 49.28L45.22 43.26L55.94 57.04ZM47.3 34.06C45.48 33.5 43.32 32.48 40.96 30.7C40.88 30.64 40.76 30.58 40.66 30.52L50.5 17.86C50.68 18 50.86 18.12 51.04 18.26C52.8 19.58 54.6 20.92 56.58 22.1L47.28 34.04L47.3 34.06ZM60.68 4.79996L66.52 9.33996L58.56 19.58C56.6 18.44 54.8 17.1 52.96 15.72C52.8 15.6 52.64 15.48 52.48 15.36L60.68 4.79996ZM32.4 11.8V14C32.4 14.88 33.12 15.6 34 15.6C34.88 15.6 35.6 14.88 35.6 14V11.42C36.32 11.42 37.02 11.46 37.74 11.58C41.56 12.22 44.52 13.72 47.26 15.56L38 27.46L27.16 13.52C28.94 12.76 30.68 12.18 32.4 11.82V11.8ZM9.48003 9.33996L15.32 4.79996L21.42 12.64C20.76 12.96 20.1 13.3 19.44 13.64C17.86 14.44 16.24 15.26 14.64 15.98L9.48003 9.33996ZM16.66 18.58C18.08 17.92 19.5 17.2 20.9 16.5C21.76 16.06 22.6 15.64 23.44 15.24L33.14 27.72C30.3 27.34 27.22 27.5 24.12 28.18L16.66 18.6V18.58ZM26.32 31C29.4 30.5 32.42 30.6 34.98 31.34L30.78 36.74L26.32 31ZM38.7 33.08C38.8 33.16 38.94 33.2 39.04 33.28C41.26 34.94 43.34 36.02 45.24 36.72L25.6 61.98V60C25.6 59.12 24.88 58.4 24 58.4C23.12 58.4 22.4 59.12 22.4 60V61.54C20.84 61 19.4 60.32 18.12 59.52L38.68 33.06L38.7 33.08ZM15.32 75.2L9.48003 70.66L16.16 62.06C18.24 63.38 20.64 64.38 23.2 65.06L15.32 75.2ZM35.68 62.44C33.7 62.84 31.78 62.98 29.92 62.92L37.98 52.54L43.96 60.24C41.42 61.04 38.76 61.82 35.66 62.44H35.68ZM60.68 75.2L50.16 61.68C52.64 60.96 55.24 60.34 58.2 59.96L66.52 70.66L60.68 75.2Z" fill="#E6E6E6"/>
</svg>
