<svg width="80" height="80" viewBox="0 0 80 80" fill="none" xmlns="http://www.w3.org/2000/svg">
<path d="M79.42 2.57993L77.42 0.57993C76.86 0.01993 76 -0.16007 75.26 0.13993L46.48 11.6599L45.42 10.5999C44.64 9.81993 43.38 9.81993 42.6 10.5999C41.82 11.3799 41.82 12.6399 42.6 13.4199L43.18 13.9999L20.6 36.5799C19.82 37.3599 19.82 38.6199 20.6 39.3999L23.18 41.9799L18.6 46.5599C18 47.1599 17.84 48.0999 18.22 48.8599L19.58 51.5799L19.48 51.6799L8.65996 48.0799C7.93996 47.8399 7.13996 48.0199 6.61996 48.5599L0.619957 54.5599C0.179957 54.9999 -0.0200434 55.5999 0.0399566 56.2199C0.0999566 56.8399 0.459957 57.3799 0.999957 57.6999L8.79996 62.3799L8.61996 62.5599C7.83996 63.3399 7.83996 64.5999 8.61996 65.3799L14.62 71.3799C15.02 71.7799 15.52 71.9599 16.04 71.9599C16.56 71.9599 17.06 71.7599 17.46 71.3799L17.64 71.1999L22.32 78.9999C22.64 79.5199 23.18 79.8799 23.8 79.9599C23.88 79.9599 23.96 79.9599 24.04 79.9599C24.56 79.9599 25.08 79.7599 25.46 79.3799L31.46 73.3799C32 72.8399 32.18 72.0599 31.94 71.3399L28.34 60.5199L28.44 60.4199L31.16 61.7799C31.94 62.1599 32.86 62.0199 33.46 61.3999L38.04 56.8199L40.62 59.3999C41.02 59.7999 41.52 59.9799 42.04 59.9799C42.56 59.9799 43.06 59.7799 43.46 59.3999L66.04 36.8199L66.62 37.3999C67.02 37.7999 67.52 37.9799 68.04 37.9799C68.56 37.9799 69.06 37.7799 69.46 37.3999C70.24 36.6199 70.24 35.3599 69.46 34.5799L68.4 33.5199L79.92 4.73993C80.22 3.99993 80.04 3.13993 79.48 2.57993H79.42ZM5.21996 55.5999L8.53996 52.2799L16.3 54.8599L11.7 59.4599L5.23996 55.5799L5.21996 55.5999ZM12.82 63.9999L13.38 63.4399L22 54.8199L25.18 57.9999L16 67.1799L12.82 63.9999ZM27.7 71.4599L24.38 74.7799L20.5 68.3199L25.1 63.7199L27.68 71.4799L27.7 71.4599ZM31.6 57.5599L29.18 56.3399L23.64 50.7999L22.42 48.3799L25.98 44.8199L35.16 53.9999L31.6 57.5599ZM42 55.1599L39.42 52.5799L27.42 40.5799L24.84 37.9999L46.02 16.8199L63.2 33.9999L42.02 55.1799L42 55.1599ZM65.26 30.4199L49.54 14.6999L75.5 4.31993L75.64 4.45993L65.26 30.4199Z" fill="#E6E6E6"/>
</svg>
