<svg width="80" height="80" viewBox="0 0 80 80" fill="none" xmlns="http://www.w3.org/2000/svg">
<path d="M78.8201 5.18011L75.6401 2.00011C74.1401 0.480107 71.5001 0.480107 69.9801 2.00011L65.4401 6.54011C63.1801 6.36011 60.8801 7.10011 59.1601 8.82011L38.8201 29.1601L34.2401 24.5801C33.4601 23.8001 32.2001 23.8001 31.4201 24.5801L21.4201 34.5801C20.6401 35.3601 20.6401 36.6201 21.4201 37.4001L24.0001 39.9801L21.5401 42.4401L19.9601 40.8601C19.3401 40.2401 18.3201 40.2401 17.7001 40.8601C17.0801 41.4801 17.0801 42.5001 17.7001 43.1201L19.2801 44.7001L17.5401 46.4401L15.9601 44.8601C15.3401 44.2401 14.3201 44.2401 13.7001 44.8601C13.0801 45.4801 13.0801 46.5001 13.7001 47.1201L15.2801 48.7001L13.5401 50.4401L11.9601 48.8601C11.3401 48.2401 10.3201 48.2401 9.70011 48.8601C9.08011 49.4801 9.08011 50.5001 9.70011 51.1201L11.2801 52.7001L9.54011 54.4401L7.96011 52.8601C7.34011 52.2401 6.32011 52.2401 5.70011 52.8601C5.08011 53.4801 5.08011 54.5001 5.70011 55.1201L7.28011 56.7001L3.42011 60.5601C2.64011 61.3401 2.64011 62.6001 3.42011 63.3801L8.28011 68.2401L7.70011 68.8201C7.08011 69.4401 7.08011 70.4601 7.70011 71.0801C8.02011 71.4001 8.42011 71.5401 8.84011 71.5401C9.26011 71.5401 9.66011 71.3801 9.98011 71.0801L10.5601 70.5001L12.3001 72.2401L10.5401 74.0001C9.60011 74.9401 8.08011 74.9401 7.14011 74.0001L3.96011 70.8201C3.34011 70.2001 2.32011 70.2001 1.70011 70.8201C1.08011 71.4401 1.08011 72.4601 1.70011 73.0801L4.88011 76.2601C5.98011 77.3601 7.40011 77.9001 8.84011 77.9001C10.2801 77.9001 11.7001 77.3601 12.8001 76.2601L14.5601 74.5001L17.4201 77.3601C17.8201 77.7601 18.3201 77.9401 18.8401 77.9401C19.3601 77.9401 19.8601 77.7401 20.2601 77.3601L24.1201 73.5001L25.7001 75.0801C26.0201 75.4001 26.4201 75.5401 26.8401 75.5401C27.2601 75.5401 27.6601 75.3801 27.9801 75.0801C28.6001 74.4601 28.6001 73.4401 27.9801 72.8201L26.4001 71.2401L28.1401 69.5001L29.7201 71.0801C30.0401 71.4001 30.4401 71.5401 30.8601 71.5401C31.2801 71.5401 31.6801 71.3801 32.0001 71.0801C32.6201 70.4601 32.6201 69.4401 32.0001 68.8201L30.4201 67.2401L32.1601 65.5001L33.7401 67.0801C34.0601 67.4001 34.4601 67.5401 34.8801 67.5401C35.3001 67.5401 35.7001 67.3801 36.0201 67.0801C36.6401 66.4601 36.6401 65.4401 36.0201 64.8201L34.4401 63.2401L36.1801 61.5001L37.7601 63.0801C38.0801 63.4001 38.4801 63.5401 38.9001 63.5401C39.3201 63.5401 39.7201 63.3801 40.0401 63.0801C40.6601 62.4601 40.6601 61.4401 40.0401 60.8201L38.4601 59.2401L40.9201 56.7801L43.5001 59.3601C43.9001 59.7601 44.4001 59.9401 44.9201 59.9401C45.4401 59.9401 45.9401 59.7401 46.3401 59.3601L56.3401 49.3601C57.1201 48.5801 57.1201 47.3201 56.3401 46.5401L51.7601 41.9601L72.1001 21.6201C73.8201 19.9001 74.5601 17.6001 74.3801 15.3401L78.9201 10.8001C80.4801 9.24011 80.4801 6.70011 78.9201 5.14011L78.8201 5.18011ZM18.8201 73.1801L7.64011 62.0001L10.1001 59.5401L21.2801 70.7201L18.8201 73.1801ZM23.5401 68.4601L12.3601 57.2801L14.1001 55.5401L25.2801 66.7201L23.5401 68.4601ZM27.5401 64.4601L16.3601 53.2801L18.1001 51.5401L29.2801 62.7201L27.5401 64.4601ZM31.5401 60.4601L20.3601 49.2801L22.1001 47.5401L33.2801 58.7201L31.5401 60.4601ZM35.5401 56.4601L24.3601 45.2801L26.8201 42.8201L38.0001 54.0001L35.5401 56.4601ZM44.8201 55.1801L25.6401 36.0001L32.8201 28.8201L52.0001 48.0001L44.8201 55.1801ZM69.1601 18.8401L48.8201 39.1801L41.6401 32.0001L61.9801 11.6601C63.5401 10.1001 66.0801 10.1001 67.6401 11.6601L69.1601 13.1801C70.7201 14.7401 70.7201 17.2801 69.1601 18.8401ZM72.7401 11.2601C72.5001 10.9401 72.2801 10.6401 72.0001 10.3401L70.4801 8.82011C70.2001 8.54011 69.8801 8.30011 69.5601 8.08011L72.8201 4.82011L76.0001 8.00011L72.7401 11.2601Z" fill="#E6E6E6"/>
</svg>
