<svg width="80" height="80" viewBox="0 0 80 80" fill="none" xmlns="http://www.w3.org/2000/svg">
<path d="M78 76H76V32H78C79.1 32 80 31.1 80 30C80 28.9 79.1 28 78 28H72V18C72 16.9 71.1 16 70 16H62C60.9 16 60 16.9 60 18V28H56V20C56 18.9 55.1 18 54 18H26C24.9 18 24 18.9 24 20V28H20V18C20 16.9 19.1 16 18 16H10C8.9 16 8 16.9 8 18V28H2C0.9 28 0 28.9 0 30C0 31.1 0.9 32 2 32H4V76H2C0.9 76 0 76.9 0 78C0 79.1 0.9 80 2 80H78C79.1 80 80 79.1 80 78C80 76.9 79.1 76 78 76ZM64 20H68V28H64V20ZM28 22H52V28H28V22ZM12 20H16V28H12V20ZM8 76V32H72V76H8Z" fill="#E6E6E6"/>
<path d="M44.0001 52.0001H35.0401L39.8401 40.7801C40.2801 39.7601 39.8001 38.5801 38.8001 38.1601C37.7801 37.7201 36.6001 38.2001 36.1801 39.2001L30.1801 53.2001C29.9201 53.8201 29.9801 54.5201 30.3401 55.0801C30.7201 55.6401 31.3401 55.9801 32.0001 55.9801H40.9601L36.1601 67.2001C35.7201 68.2201 36.2001 69.4001 37.2001 69.8201C37.4601 69.9401 37.7201 69.9801 37.9801 69.9801C38.7601 69.9801 39.5001 69.5201 39.8201 68.7601L45.8201 54.7601C46.0801 54.1401 46.0201 53.4401 45.6601 52.8801C45.2801 52.3201 44.6601 51.9801 44.0001 51.9801V52.0001Z" fill="#E6E6E6"/>
<path d="M10 8H12V10C12 11.1 12.9 12 14 12C15.1 12 16 11.1 16 10V8H18C19.1 8 20 7.1 20 6C20 4.9 19.1 4 18 4H16V2C16 0.9 15.1 0 14 0C12.9 0 12 0.9 12 2V4H10C8.9 4 8 4.9 8 6C8 7.1 8.9 8 10 8Z" fill="#E6E6E6"/>
<path d="M62 8H70C71.1 8 72 7.1 72 6C72 4.9 71.1 4 70 4H62C60.9 4 60 4.9 60 6C60 7.1 60.9 8 62 8Z" fill="#E6E6E6"/>
</svg>
