<svg width="294" height="208" viewBox="0 0 294 208" fill="none" xmlns="http://www.w3.org/2000/svg">
<path d="M98.6082 17.6702C101.129 17.6702 103.173 15.6252 103.173 13.1026C103.173 10.5799 101.129 8.53491 98.6082 8.53491C96.0869 8.53491 94.043 10.5799 94.043 13.1026C94.043 15.6252 96.0869 17.6702 98.6082 17.6702Z" fill="#FFCD4A"/>
<path d="M4.56522 189.414C7.08652 189.414 9.13043 187.369 9.13043 184.846C9.13043 182.324 7.08652 180.279 4.56522 180.279C2.04392 180.279 0 182.324 0 184.846C0 187.369 2.04392 189.414 4.56522 189.414Z" fill="#FFCD4A"/>
<path d="M283.5 122.246C289.299 122.246 294 117.549 294 111.754C294 105.96 289.299 101.263 283.5 101.263C277.701 101.263 273 105.96 273 111.754C273 117.549 277.701 122.246 283.5 122.246Z" fill="#FFCD4A"/>
<rect opacity="0.1" width="113.219" height="146.163" rx="4" transform="matrix(0.984792 -0.173738 0.173558 0.984824 16.4297 64.0558)" fill="#5F5D5E"/>
<rect width="113.219" height="146.163" rx="4" transform="matrix(0.984792 -0.173738 0.173558 0.984824 22.0078 55.2975)" fill="white"/>
<rect width="104.089" height="9.13516" rx="2" transform="matrix(0.984792 -0.173738 0.173558 0.984824 27.2969 59.0026)" fill="#38AA70"/>
<rect width="104.089" height="4.56758" rx="1" transform="matrix(0.984792 -0.173738 0.173558 0.984824 39.9805 130.975)" fill="#2AABEE"/>
<rect width="34.7136" height="4.56529" rx="1" transform="matrix(0.173558 0.984824 -0.984792 0.173738 49.5508 158.97)" fill="#2AABEE"/>
<rect width="17.3568" height="4.56529" rx="1" transform="matrix(0.173558 0.984824 -0.984792 0.173738 46.0625 139.178)" fill="#2AABEE"/>
<rect width="22.8379" height="4.56529" rx="1" transform="matrix(0.173558 0.984824 -0.984792 0.173738 64.0469 136.005)" fill="#2AABEE"/>
<rect width="29.2325" height="4.56529" rx="1" transform="matrix(0.173558 0.984824 -0.984792 0.173738 68.4844 161.196)" fill="#2AABEE"/>
<rect width="19.1838" height="4.56529" rx="1" transform="matrix(0.173558 0.984824 -0.984792 0.173738 79.2227 169.505)" fill="#2AABEE"/>
<rect width="32.8866" height="4.56529" rx="1" transform="matrix(0.173558 0.984824 -0.984792 0.173738 73.0391 134.419)" fill="#2AABEE"/>
<rect width="30.146" height="4.56529" rx="1" transform="matrix(0.173558 0.984824 -0.984792 0.173738 91.0195 131.246)" fill="#2AABEE"/>
<rect width="21.9244" height="4.56529" rx="1" transform="matrix(0.173558 0.984824 -0.984792 0.173738 96.7305 163.634)" fill="#2AABEE"/>
<rect width="40.1746" height="2.74054" rx="1" transform="matrix(-0.984792 0.173738 -0.173558 -0.984824 144.547 124.586)" fill="#F5F5F5"/>
<rect width="31.957" height="2.74054" rx="1" transform="matrix(-0.984792 0.173738 -0.173558 -0.984824 138.359 136.81)" fill="#F5F5F5"/>
<rect width="35.6093" height="2.74054" rx="1" transform="matrix(-0.984792 0.173738 -0.173558 -0.984824 143.859 146.971)" fill="#F5F5F5"/>
<rect width="42.0217" height="4.56529" rx="1" transform="matrix(0.173558 0.984824 -0.984792 0.173738 82.0312 132.833)" fill="#2AABEE"/>
<rect width="10.0487" height="4.56529" rx="1" transform="matrix(0.173558 0.984824 -0.984792 0.173738 89.7969 176.916)" fill="#2AABEE"/>
<rect width="18.2703" height="4.56529" rx="1" transform="matrix(0.173558 0.984824 -0.984792 0.173738 100.012 129.66)" fill="#2AABEE"/>
<rect width="33.8001" height="4.56529" rx="1" transform="matrix(0.173558 0.984824 -0.984792 0.173738 103.66 150.352)" fill="#2AABEE"/>
<rect width="10.9567" height="2.74055" rx="1" transform="matrix(-0.984792 0.173738 -0.173558 -0.984824 116.727 135.06)" fill="#F5F5F5"/>
<rect width="19.1742" height="2.74054" rx="1" transform="matrix(-0.984792 0.173738 -0.173558 -0.984824 126.723 144.428)" fill="#F5F5F5"/>
<rect width="26.4787" height="2.74054" rx="1" transform="matrix(-0.984792 0.173738 -0.173558 -0.984824 135.816 153.955)" fill="#F5F5F5"/>
<rect width="40.1746" height="2.74054" rx="1" transform="matrix(-0.984792 0.173738 -0.173558 -0.984824 153.586 175.866)" fill="#F5F5F5"/>
<rect width="40.1746" height="2.74054" rx="1" transform="matrix(-0.984792 0.173738 -0.173558 -0.984824 132.656 57.1122)" fill="#F5F5F5"/>
<rect width="31.957" height="2.74054" rx="1" transform="matrix(-0.984792 0.173738 -0.173558 -0.984824 126.469 69.3357)" fill="#F5F5F5"/>
<rect width="35.6093" height="2.74054" rx="1" transform="matrix(-0.984792 0.173738 -0.173558 -0.984824 131.965 79.4969)" fill="#F5F5F5"/>
<rect width="10.9567" height="2.74055" rx="1" transform="matrix(-0.984792 0.173738 -0.173558 -0.984824 104.836 67.5863)" fill="#F5F5F5"/>
<rect width="19.1742" height="2.74054" rx="1" transform="matrix(-0.984792 0.173738 -0.173558 -0.984824 114.828 76.9545)" fill="#F5F5F5"/>
<rect width="26.4787" height="2.74054" rx="1" transform="matrix(-0.984792 0.173738 -0.173558 -0.984824 123.926 86.4812)" fill="#F5F5F5"/>
<rect width="31.044" height="2.74054" rx="1" transform="matrix(-0.984792 0.173738 -0.173558 -0.984824 129.371 91.0859)" fill="#F5F5F5"/>
<rect width="35.6093" height="2.74054" rx="1" transform="matrix(-0.984792 0.173738 -0.173558 -0.984824 134.82 95.6907)" fill="#F5F5F5"/>
<rect width="40.1746" height="2.74054" rx="1" transform="matrix(-0.984792 0.173738 -0.173558 -0.984824 140.266 100.295)" fill="#F5F5F5"/>
<rect width="17.3481" height="2.74054" rx="1" transform="matrix(-0.984792 0.173738 -0.173558 -0.984824 118.738 109.659)" fill="#F5F5F5"/>
<rect width="26.492" height="4.56529" rx="1" transform="matrix(0.173558 0.984824 -0.984792 0.173738 55.0547 137.592)" fill="#2AABEE"/>
<rect width="25.5784" height="4.56529" rx="1" transform="matrix(0.173558 0.984824 -0.984792 0.173738 60.1289 166.381)" fill="#2AABEE"/>
<mask id="path-39-inside-1_931_15367" fill="white">
<path d="M89.2816 89.8103C91.5582 102.729 82.9369 115.048 70.0253 117.326C57.1138 119.604 44.8013 110.978 42.5246 98.0592C40.2479 85.1407 48.8692 72.8216 61.7808 70.5438C74.6924 68.2659 87.0049 76.8918 89.2816 89.8103ZM54.2138 95.9969C55.3522 102.456 61.5084 106.769 67.9642 105.63C74.42 104.491 78.7306 98.3317 77.5923 91.8725C76.454 85.4132 70.2977 81.1003 63.842 82.2392C57.3862 83.3782 53.0755 89.5377 54.2138 95.9969Z"/>
</mask>
<path d="M89.2816 89.8103C91.5582 102.729 82.9369 115.048 70.0253 117.326C57.1138 119.604 44.8013 110.978 42.5246 98.0592C40.2479 85.1407 48.8692 72.8216 61.7808 70.5438C74.6924 68.2659 87.0049 76.8918 89.2816 89.8103ZM54.2138 95.9969C55.3522 102.456 61.5084 106.769 67.9642 105.63C74.42 104.491 78.7306 98.3317 77.5923 91.8725C76.454 85.4132 70.2977 81.1003 63.842 82.2392C57.3862 83.3782 53.0755 89.5377 54.2138 95.9969Z" fill="#38AA70" stroke="white" stroke-width="2" mask="url(#path-39-inside-1_931_15367)"/>
<mask id="path-40-inside-2_931_15367" fill="white">
<path d="M89.2816 89.8103C90.189 94.9594 89.3729 100.264 86.9599 104.902C84.5469 109.54 80.6718 113.251 75.9357 115.461L70.9194 104.698C73.2875 103.593 75.225 101.737 76.4315 99.4184C77.638 97.0995 78.046 94.4471 77.5923 91.8725L89.2816 89.8103Z"/>
</mask>
<path d="M89.2816 89.8103C90.189 94.9594 89.3729 100.264 86.9599 104.902C84.5469 109.54 80.6718 113.251 75.9357 115.461L70.9194 104.698C73.2875 103.593 75.225 101.737 76.4315 99.4184C77.638 97.0995 78.046 94.4471 77.5923 91.8725L89.2816 89.8103Z" fill="#2AABEE" stroke="white" stroke-width="2" mask="url(#path-40-inside-2_931_15367)"/>
<mask id="path-41-inside-3_931_15367" fill="white">
<path d="M61.7817 70.5438C65.3677 69.9111 69.051 70.1123 72.5468 71.1318C76.0427 72.1513 79.2572 73.9617 81.9419 76.4231C84.6265 78.8844 86.7092 81.9306 88.029 85.3262C89.3487 88.7217 89.8701 92.3755 89.5527 96.0048L77.7283 94.9698C77.887 93.1551 77.6263 91.3282 76.9665 89.6304C76.3066 87.9327 75.2652 86.4096 73.9229 85.1789C72.5806 83.9482 70.9733 83.043 69.2254 82.5333C67.4775 82.0235 65.6358 81.9229 63.8428 82.2392L61.7817 70.5438Z"/>
</mask>
<path d="M61.7817 70.5438C65.3677 69.9111 69.051 70.1123 72.5468 71.1318C76.0427 72.1513 79.2572 73.9617 81.9419 76.4231C84.6265 78.8844 86.7092 81.9306 88.029 85.3262C89.3487 88.7217 89.8701 92.3755 89.5527 96.0048L77.7283 94.9698C77.887 93.1551 77.6263 91.3282 76.9665 89.6304C76.3066 87.9327 75.2652 86.4096 73.9229 85.1789C72.5806 83.9482 70.9733 83.043 69.2254 82.5333C67.4775 82.0235 65.6358 81.9229 63.8428 82.2392L61.7817 70.5438Z" fill="#FFCD4A" stroke="white" stroke-width="2" mask="url(#path-41-inside-3_931_15367)"/>
<ellipse cx="4.56529" cy="4.56758" rx="4.56529" ry="4.56758" transform="matrix(0.984792 -0.173738 0.173558 0.984824 60.6133 90.2296)" fill="#38AA70"/>
<rect opacity="0.1" width="113.219" height="146.163" rx="4" transform="matrix(0.984792 0.173738 -0.173558 0.984824 137.906 7.17163)" fill="#5F5D5E"/>
<rect width="113.219" height="146.163" rx="4" transform="matrix(0.984792 0.173738 -0.173558 0.984824 146.66 1.58594)" fill="white"/>
<rect width="104.089" height="4.56758" rx="2" transform="matrix(0.984792 0.173738 -0.173558 0.984824 150.363 6.87744)" fill="#2AABEE"/>
<rect width="37.4354" height="4.56758" rx="2" transform="matrix(0.984792 0.173738 -0.173558 0.984824 136.254 86.9464)" fill="#38AA70"/>
<rect width="23.7395" height="40.1947" rx="2" transform="matrix(0.984792 0.173738 -0.173558 0.984824 144.816 38.3652)" fill="#FFCD4A"/>
<rect width="23.7395" height="18.2703" rx="2" transform="matrix(0.984792 0.173738 -0.173558 0.984824 168.883 64.8745)" fill="#38AA70"/>
<rect width="23.7395" height="31.0595" rx="2" transform="matrix(0.984792 0.173738 -0.173558 0.984824 198.977 57.197)" fill="#2AABEE"/>
<rect width="104.089" height="2.74054" rx="1" transform="matrix(-0.984792 -0.173738 0.173559 -0.984824 236.699 116.726)" fill="#F5F5F5"/>
<rect width="83.0883" height="2.74054" rx="1" transform="matrix(-0.984792 -0.173738 0.173559 -0.984824 214.113 123.873)" fill="#F5F5F5"/>
<rect width="92.2189" height="2.74054" rx="1" transform="matrix(-0.984792 -0.173738 0.173559 -0.984824 221.203 136.255)" fill="#F5F5F5"/>
<rect width="28.3048" height="2.74055" rx="1" transform="matrix(-0.984792 -0.173738 0.173559 -0.984824 161.113 108.957)" fill="#F5F5F5"/>
<rect width="49.3051" height="2.74054" rx="1" transform="matrix(-0.984792 -0.173738 0.173559 -0.984824 179.895 123.402)" fill="#F5F5F5"/>
<rect width="68.4794" height="2.74054" rx="1" transform="matrix(-0.984792 -0.173738 0.173559 -0.984824 196.875 137.529)" fill="#F5F5F5"/>
<rect width="66.6532" height="2.74054" rx="1" transform="matrix(-0.984792 -0.173738 0.173559 -0.984824 213.941 30.1531)" fill="#F5F5F5"/>
<rect width="52.9574" height="2.74054" rx="1" transform="matrix(-0.984792 -0.173738 0.173559 -0.984824 198.551 38.5695)" fill="#F5F5F5"/>
<rect width="18.2612" height="2.74055" rx="1" transform="matrix(-0.984792 -0.173738 0.173559 -0.984824 165.336 27.1434)" fill="#F5F5F5"/>
<path opacity="0.1" d="M259.65 180.154L255.045 184.779C253.774 186.057 251.716 186.057 250.445 184.779L223.903 158.095L225.701 156.282L220.668 151.221C209.782 159.434 194.262 158.563 184.36 148.608C173.503 137.692 173.507 120.002 184.36 109.086C195.214 98.1742 212.809 98.1742 223.667 109.086C233.569 119.041 234.44 134.643 226.271 145.588L231.305 150.648L233.108 148.835L259.65 175.525C260.921 176.803 260.921 178.876 259.65 180.154Z" fill="#A2A1A1"/>
<path d="M186.712 106.25C175.859 117.162 175.854 134.852 186.712 145.768C196.614 155.723 212.133 156.594 223.02 148.381C224.07 147.595 225.068 146.724 226.019 145.768C226.97 144.812 227.841 143.803 228.623 142.748C236.792 131.803 235.921 116.205 226.019 106.25C215.161 95.334 197.565 95.3387 186.712 106.25ZM225.087 139.193C224.338 140.267 223.481 141.295 222.525 142.255C221.569 143.216 220.552 144.073 219.483 144.826C210.565 151.127 198.173 150.27 190.201 142.26C181.274 133.285 181.274 118.733 190.201 109.758C199.128 100.783 213.602 100.783 222.53 109.758C230.501 117.772 231.349 130.227 225.087 139.193Z" fill="#A2A1A1"/>
<path opacity="0.1" d="M222.528 109.758C230.5 117.773 231.347 130.227 225.085 139.193C224.336 140.268 223.479 141.295 222.524 142.256C221.568 143.217 220.551 144.074 219.482 144.826C210.564 151.127 198.171 150.27 190.199 142.261C181.272 133.285 181.272 118.734 190.199 109.758C199.127 100.783 213.601 100.783 222.528 109.758Z" fill="white"/>
<path d="M225.045 127.425C224.264 127.425 223.633 126.79 223.633 126.005C223.633 121.365 221.834 117.006 218.576 113.725C211.843 106.956 200.886 106.956 194.148 113.725C193.597 114.279 192.702 114.279 192.151 113.725C191.601 113.171 191.601 112.272 192.151 111.718C199.986 103.841 212.737 103.841 220.572 111.718C224.367 115.533 226.458 120.608 226.458 126.005C226.458 126.79 225.827 127.425 225.045 127.425Z" fill="white"/>
<path d="M228.623 142.748L233.656 147.808L228.053 153.441L223.02 148.381C224.07 147.595 225.068 146.724 226.019 145.768C226.97 144.812 227.841 143.803 228.623 142.748Z" fill="#5D5D5D"/>
<path d="M235.458 146L262.005 172.689C263.272 173.963 263.272 176.041 262.005 177.319L257.405 181.944C256.134 183.222 254.071 183.217 252.805 181.944L226.258 155.255L235.463 146H235.458Z" fill="#A2A1A1"/>
</svg>
