<svg width="174" height="162" viewBox="0 0 174 162" fill="none" xmlns="http://www.w3.org/2000/svg">
<path opacity="0.1" d="M116.665 38.1085L24.8183 28.3898C23.8745 28.2899 23.029 28.9793 22.9298 29.9295L10.3858 150.083C10.2866 151.033 10.9713 151.884 11.9151 151.984L103.762 161.703C104.706 161.803 105.551 161.113 105.65 160.163L118.194 40.0098C118.294 39.0596 117.609 38.2083 116.665 38.1085Z" fill="#5F5D5E"/>
<path d="M121.821 33.7833L29.9746 24.0646C29.0307 23.9647 28.1852 24.6541 28.086 25.6043L15.5421 145.758C15.4429 146.708 16.1276 147.559 17.0714 147.659L108.918 157.378C109.862 157.478 110.707 156.788 110.807 155.838L123.351 35.6846C123.45 34.7344 122.765 33.8831 121.821 33.7833Z" fill="white"/>
<path d="M79.8577 87.0089L66.1797 85.5644V85.5601L79.8577 87.0089Z" stroke="#8ECFF1" stroke-miterlimit="10"/>
<path d="M79.8577 87.0089L66.1797 85.5644V85.5601L79.8577 87.0089Z" stroke="#8ECFF1" stroke-miterlimit="10"/>
<path d="M79.8577 87.0089L66.1797 85.5644V85.5601L79.8577 87.0089Z" stroke="#8ECFF1" stroke-miterlimit="10"/>
<path d="M62.5344 85.1751V85.1794L49.2344 83.7695L62.5344 85.1751Z" stroke="#8ECFF1" stroke-miterlimit="10"/>
<path d="M48.8714 52.6784L47.892 62.0677L47.2691 68.0317L45.6667 83.3936L32.0273 81.9491L33.6297 66.5915L34.2526 60.6232L35.2321 51.2339L48.8714 52.6784Z" fill="#FFCD4A"/>
<path d="M50.8445 68.4074L49.2383 83.7666L62.5378 85.1762L64.144 69.817L50.8445 68.4074Z" fill="#38AA70"/>
<path d="M82.083 65.6876L81.4601 71.6516L79.8577 87.0092L66.1797 85.5604L67.7863 70.2071L68.4092 64.2388L82.083 65.6876Z" fill="#8ECFF1"/>
<path d="M61.2291 40.0801C61.1818 40.0801 61.1388 40.0801 61.0916 40.0715L36.6696 37.4852C35.9607 37.4117 35.4495 36.7716 35.5226 36.058C35.5956 35.3444 36.24 34.8254 36.9402 34.9032L61.3622 37.4895C62.071 37.563 62.5823 38.2031 62.5092 38.9167C62.4405 39.5828 61.882 40.0801 61.2291 40.0801Z" fill="#38AA70"/>
<path d="M50.9609 95.6241C50.9137 95.6241 50.8707 95.6241 50.8235 95.6154L30.8219 93.5006C30.1131 93.427 29.6019 92.787 29.6749 92.0734C29.7479 91.3597 30.3923 90.8451 31.0926 90.9186L51.0941 93.0335C51.8029 93.107 52.3141 93.7471 52.2411 94.4607C52.1724 95.1267 51.6139 95.6241 50.9609 95.6241Z" fill="#38AA70"/>
<path d="M105.911 109.927C105.864 109.927 105.821 109.927 105.773 109.918L29.9469 101.895C29.2381 101.822 28.7269 101.182 28.7999 100.468C28.8729 99.7545 29.5173 99.2355 30.2175 99.3134L106.044 107.336C106.753 107.41 107.264 108.05 107.191 108.763C107.122 109.429 106.564 109.927 105.911 109.927Z" fill="#E2E8F4"/>
<path d="M105.005 118.607C104.957 118.607 104.914 118.607 104.867 118.598L29.0407 110.575C28.3318 110.502 27.8206 109.862 27.8937 109.148C27.9667 108.434 28.6068 107.92 29.3113 107.993L105.138 116.016C105.847 116.089 106.358 116.73 106.285 117.443C106.216 118.109 105.657 118.607 105.005 118.607Z" fill="#E2E8F4"/>
<path d="M104.106 127.187C104.059 127.187 104.016 127.187 103.969 127.178L28.1422 119.156C27.4334 119.082 26.9222 118.442 26.9952 117.729C27.0683 117.015 27.7083 116.5 28.4129 116.574L104.239 124.597C104.948 124.67 105.459 125.31 105.386 126.024C105.318 126.69 104.759 127.187 104.106 127.187Z" fill="#E2E8F4"/>
<path d="M94.4652 134.812C94.4179 134.812 94.375 134.812 94.3277 134.803L27.2477 127.706C26.5389 127.632 26.0277 126.992 26.1007 126.279C26.1737 125.565 26.8138 125.046 27.5183 125.124L94.5983 132.221C95.3072 132.295 95.8184 132.935 95.7453 133.648C95.6766 134.314 95.1181 134.812 94.4652 134.812Z" fill="#E2E8F4"/>
<path d="M111.838 53.1499C111.79 53.1499 111.747 53.1499 111.7 53.1412L44.0875 45.9879C43.3787 45.9143 42.8675 45.2743 42.9405 44.5607C43.0136 43.8471 43.6537 43.3324 44.3582 43.4059L111.971 50.5593C112.68 50.6328 113.191 51.2729 113.118 51.9865C113.049 52.6525 112.491 53.1499 111.838 53.1499Z" fill="#E2E8F4"/>
<path opacity="0.1" d="M155.445 68.9227L151.584 72.8058C150.518 73.8789 148.793 73.8789 147.727 72.8058L125.473 50.4015L126.981 48.8792L122.761 44.6305C113.633 51.5263 100.621 50.7949 92.3185 42.4365C83.2148 33.2713 83.2187 18.4185 92.3185 9.25327C101.418 0.0920079 116.172 0.0920079 125.275 9.25327C133.578 17.6117 134.308 30.7117 127.458 39.9008L131.679 44.1495L133.191 42.6273L155.445 65.0356C156.511 66.1088 156.511 67.8496 155.445 68.9227Z" fill="#A2A1A1"/>
<path d="M94.2912 6.87244C85.1914 16.0337 85.1874 30.8865 94.2912 40.0517C102.594 48.4101 115.606 49.1414 124.733 42.2457C125.614 41.5859 126.451 40.8546 127.248 40.0517C128.045 39.2489 128.776 38.4023 129.431 37.516C136.281 28.3269 135.55 15.2309 127.248 6.87244C118.144 -2.2928 103.391 -2.28883 94.2912 6.87244ZM126.466 34.5311C125.839 35.4333 125.12 36.2958 124.319 37.1026C123.517 37.9095 122.665 38.6288 121.768 39.2608C114.291 44.5509 103.9 43.8315 97.2166 37.1066C89.7314 29.5709 89.7314 17.3532 97.2166 9.81755C104.702 2.28187 116.837 2.28187 124.323 9.81755C131.006 16.5464 131.717 27.0034 126.466 34.5311Z" fill="#A2A1A1"/>
<path opacity="0.1" d="M124.321 9.81778C131.005 16.5466 131.716 27.0036 126.465 34.5313C125.837 35.4336 125.119 36.296 124.318 37.1029C123.516 37.9097 122.663 38.6291 121.767 39.261C114.29 44.5511 103.899 43.8317 97.2154 37.1068C89.7303 29.5711 89.7303 17.3535 97.2154 9.81778C104.701 2.28209 116.836 2.28209 124.321 9.81778Z" fill="white"/>
<path d="M126.434 24.6506C125.779 24.6506 125.25 24.118 125.25 23.4582C125.25 19.5632 123.742 15.9027 121.01 13.1483C115.364 7.46476 106.178 7.46476 100.528 13.1483C100.066 13.6133 99.3161 13.6133 98.8542 13.1483C98.3923 12.6833 98.3923 11.9281 98.8542 11.4631C105.423 4.84953 116.114 4.84953 122.684 11.4631C125.866 14.6666 127.618 18.9273 127.618 23.4582C127.618 24.118 127.089 24.6506 126.434 24.6506Z" fill="white"/>
<path d="M129.428 37.5161L133.649 41.7649L128.951 46.4946L124.73 42.2458C125.611 41.586 126.448 40.8547 127.245 40.0519C128.043 39.249 128.773 38.4024 129.428 37.5161Z" fill="#5D5D5D"/>
<path d="M135.159 40.2466L157.418 62.6549C158.479 63.7241 158.479 65.4689 157.418 66.542L153.56 70.4251C152.495 71.4982 150.765 71.4942 149.703 70.4251L127.445 48.0168L135.163 40.2466H135.159Z" fill="#A2A1A1"/>
<path d="M151.637 26.4112C153.745 26.4112 155.453 24.6993 155.453 22.5875C155.453 20.4756 153.745 18.7637 151.637 18.7637C149.529 18.7637 147.82 20.4756 147.82 22.5875C147.82 24.6993 149.529 26.4112 151.637 26.4112Z" fill="#FFCD4A"/>
<path d="M3.81649 69.649C5.92428 69.649 7.63298 67.9371 7.63298 65.8253C7.63298 63.7134 5.92428 62.0015 3.81649 62.0015C1.7087 62.0015 0 63.7134 0 65.8253C0 67.9371 1.7087 69.649 3.81649 69.649Z" fill="#FFCD4A"/>
<path d="M167.895 48.5901C171.268 48.5901 174.002 45.851 174.002 42.4721C174.002 39.0932 171.268 36.354 167.895 36.354C164.523 36.354 161.789 39.0932 161.789 42.4721C161.789 45.851 164.523 48.5901 167.895 48.5901Z" fill="#FFCD4A"/>
</svg>
