<svg width="40" height="40" viewBox="0 0 40 40" fill="none" xmlns="http://www.w3.org/2000/svg">
<path d="M20.4958 1C14.781 1 11.0756 4.83608 6.69327 6.23431C4.9114 6.80285 4.02046 7.08711 3.6599 7.48783C3.29934 7.88856 3.19376 8.47412 2.98259 9.64525C0.722944 22.1774 5.66193 33.7635 17.4408 38.2732C18.7063 38.7577 19.3391 39 20.502 39C21.6649 39 22.2977 38.7577 23.5632 38.2732C35.3413 33.7635 40.2756 22.1774 38.0153 9.64524C37.804 8.47391 37.6984 7.88825 37.3377 7.48752C36.9771 7.0868 36.0862 6.80269 34.3045 6.23447C29.9204 4.83638 26.2108 1 20.4958 1Z" stroke="#38AA70" stroke-width="2" stroke-linecap="round" stroke-linejoin="round"/>
<path d="M15.9041 27.3288L15.4985 28.2429H15.4985L15.9041 27.3288ZM14.1047 25.4008L13.1719 25.7614H13.1719L14.1047 25.4008ZM26.8985 25.4008L27.8312 25.7614V25.7614L26.8985 25.4008ZM25.099 27.3288L25.5046 28.2429H25.5046L25.099 27.3288ZM25.099 17.1837L25.5046 16.2696V16.2696L25.099 17.1837ZM26.8985 19.1117L27.8312 18.7511V18.7511L26.8985 19.1117ZM15.9041 17.1837L15.4985 16.2696H15.4985L15.9041 17.1837ZM14.1047 19.1117L13.1719 18.7511H13.1719L14.1047 19.1117ZM16.1766 16.9125C16.1766 17.4648 16.6243 17.9125 17.1766 17.9125C17.7288 17.9125 18.1766 17.4648 18.1766 16.9125H17.1766H16.1766ZM22.8266 16.9125C22.8266 17.4648 23.2743 17.9125 23.8266 17.9125C24.3788 17.9125 24.8266 17.4648 24.8266 16.9125H23.8266H22.8266ZM18.8391 16.9125V17.9125H22.1641V16.9125V15.9125H18.8391V16.9125ZM22.1641 27.6V26.6H18.8391V27.6V28.6H22.1641V27.6ZM18.8391 27.6V26.6C18.0498 26.6 17.5115 26.5994 17.0927 26.5688C16.6843 26.5389 16.4666 26.4844 16.3098 26.4148L15.9041 27.3288L15.4985 28.2429C15.9527 28.4444 16.4278 28.5255 16.9469 28.5634C17.4555 28.6006 18.0791 28.6 18.8391 28.6V27.6ZM13.8516 22.2563H12.8516C12.8516 23.0734 12.8511 23.7331 12.8852 24.269C12.9198 24.8128 12.993 25.2985 13.1719 25.7614L14.1047 25.4008L15.0374 25.0402C14.9632 24.8484 14.9098 24.5919 14.8812 24.1419C14.852 23.6843 14.8516 23.099 14.8516 22.2563H13.8516ZM15.9041 27.3288L16.3098 26.4148C15.7502 26.1665 15.2847 25.6799 15.0374 25.0402L14.1047 25.4008L13.1719 25.7614C13.5996 26.8676 14.4286 27.768 15.4985 28.2429L15.9041 27.3288ZM27.1516 22.2563H26.1516C26.1516 23.099 26.1511 23.6843 26.1219 24.1419C26.0933 24.5919 26.0399 24.8484 25.9657 25.0402L26.8985 25.4008L27.8312 25.7614C28.0101 25.2985 28.0833 24.8128 28.1179 24.269C28.152 23.7331 28.1516 23.0734 28.1516 22.2563H27.1516ZM22.1641 27.6V28.6C22.924 28.6 23.5477 28.6006 24.0563 28.5634C24.5753 28.5255 25.0504 28.4444 25.5046 28.2429L25.099 27.3288L24.6933 26.4148C24.5365 26.4844 24.3188 26.5389 23.9104 26.5688C23.4917 26.5994 22.9533 26.6 22.1641 26.6V27.6ZM26.8985 25.4008L25.9657 25.0402C25.7184 25.6799 25.2529 26.1665 24.6933 26.4148L25.099 27.3288L25.5046 28.2429C26.5745 27.768 27.4035 26.8676 27.8312 25.7614L26.8985 25.4008ZM22.1641 16.9125V17.9125C22.9533 17.9125 23.4917 17.9131 23.9104 17.9437C24.3188 17.9736 24.5365 18.0281 24.6933 18.0977L25.099 17.1837L25.5046 16.2696C25.0504 16.0681 24.5753 15.987 24.0563 15.9491C23.5477 15.9119 22.924 15.9125 22.1641 15.9125V16.9125ZM27.1516 22.2563H28.1516C28.1516 21.4391 28.152 20.7794 28.1179 20.2435C28.0833 19.6997 28.0101 19.214 27.8312 18.7511L26.8985 19.1117L25.9657 19.4723C26.0399 19.6641 26.0933 19.9206 26.1219 20.3706C26.1511 20.8282 26.1516 21.4135 26.1516 22.2563H27.1516ZM25.099 17.1837L24.6933 18.0977C25.2529 18.346 25.7184 18.8326 25.9657 19.4723L26.8985 19.1117L27.8312 18.7511C27.4035 17.6449 26.5745 16.7445 25.5046 16.2696L25.099 17.1837ZM18.8391 16.9125V15.9125C18.0791 15.9125 17.4555 15.9119 16.9469 15.9491C16.4278 15.987 15.9527 16.0681 15.4985 16.2696L15.9041 17.1837L16.3098 18.0977C16.4666 18.0281 16.6843 17.9736 17.0927 17.9437C17.5115 17.9131 18.0498 17.9125 18.8391 17.9125V16.9125ZM13.8516 22.2563H14.8516C14.8516 21.4135 14.852 20.8282 14.8812 20.3706C14.9098 19.9206 14.9632 19.6641 15.0374 19.4723L14.1047 19.1117L13.1719 18.7511C12.993 19.214 12.9198 19.6997 12.8852 20.2435C12.8511 20.7794 12.8516 21.4391 12.8516 22.2563H13.8516ZM15.9041 17.1837L15.4985 16.2696C14.4286 16.7445 13.5996 17.6449 13.1719 18.7511L14.1047 19.1117L15.0374 19.4723C15.2847 18.8326 15.7502 18.346 16.3098 18.0977L15.9041 17.1837ZM17.1766 16.9125H18.1766V13.7063H17.1766H16.1766V16.9125H17.1766ZM23.8266 13.7063L22.8266 13.7063V16.9125H23.8266H24.8266V13.7063H23.8266ZM20.5016 10.5V11.5C21.8202 11.5 22.8266 12.5217 22.8266 13.7063L23.8266 13.7063H24.8266C24.8266 11.3492 22.8556 9.5 20.5016 9.5V10.5ZM17.1766 13.7063H18.1766C18.1766 12.5217 19.1829 11.5 20.5016 11.5V10.5V9.5C18.1475 9.5 16.1766 11.3492 16.1766 13.7063H17.1766Z" fill="#38AA70"/>
</svg>
