<svg width="32" height="32" viewBox="0 0 32 32" fill="none" xmlns="http://www.w3.org/2000/svg">
<path d="M12.9855 4.79912C12.1324 5.65223 11.287 6.0483 10.0707 6.0483C9.00877 6.0483 7.49787 5.84234 6.66797 6.67922C5.84463 7.50948 6.04967 9.01417 6.04967 10.0694C6.04967 11.2857 5.65357 12.131 4.80044 12.9842C3.3788 14.4058 2.66798 15.1166 2.66797 15.9999C2.66799 16.8832 3.37882 17.5941 4.80047 19.0157C5.75618 19.9714 6.04967 20.5885 6.04967 21.9305C6.04967 22.9925 5.84371 24.5034 6.68062 25.3333C7.51088 26.1566 9.01554 25.9516 10.0707 25.9516C11.366 25.9516 11.9897 26.2049 12.9141 27.1293C13.7012 27.9165 14.7564 29.3333 16.0013 29.3333C17.2463 29.3333 18.3014 27.9165 19.0885 27.1293C20.0129 26.2049 20.6366 25.9516 21.9319 25.9516C22.9871 25.9516 24.4917 26.1566 25.322 25.3333C26.1589 24.5034 25.9529 22.9925 25.9529 21.9305C25.9529 20.5885 26.2464 19.9714 27.2021 19.0157C28.6238 17.5941 29.3346 16.8832 29.3346 15.9999C29.3346 15.1166 28.6238 14.4058 27.2022 12.9842C26.2465 12.0285 25.9529 11.4114 25.9529 10.0694C25.9529 9.00741 26.1589 7.49653 25.322 6.66663C24.4918 5.84325 22.9871 6.0483 21.9319 6.0483C20.7152 6.0483 19.87 5.65205 19.0171 4.79912C17.5954 3.37746 16.8846 2.66663 16.0013 2.66663C15.118 2.66663 14.4072 3.37746 12.9855 4.79912Z" fill="white"/>
<path d="M25.322 25.3333H25.3346M25.322 25.3333C24.4917 26.1566 22.9871 25.9516 21.9319 25.9516C20.6366 25.9516 20.0129 26.2049 19.0885 27.1293C18.3014 27.9165 17.2463 29.3333 16.0013 29.3333C14.7564 29.3333 13.7012 27.9165 12.9141 27.1293C11.9897 26.2049 11.366 25.9516 10.0707 25.9516C9.01554 25.9516 7.51088 26.1566 6.68062 25.3333C5.84371 24.5034 6.04967 22.9925 6.04967 21.9305C6.04967 20.5885 5.75618 19.9714 4.80047 19.0157C3.37882 17.5941 2.66799 16.8832 2.66797 15.9999C2.66798 15.1166 3.3788 14.4058 4.80044 12.9842C5.65357 12.131 6.04967 11.2857 6.04967 10.0694C6.04967 9.01417 5.84463 7.50948 6.66797 6.67922C7.49787 5.84234 9.00877 6.0483 10.0707 6.0483C11.287 6.0483 12.1324 5.65223 12.9855 4.79912C14.4072 3.37746 15.118 2.66663 16.0013 2.66663C16.8846 2.66663 17.5954 3.37746 19.0171 4.79912C19.87 5.65205 20.7152 6.0483 21.9319 6.0483C22.9871 6.0483 24.4918 5.84325 25.322 6.66663C26.1589 7.49653 25.9529 9.00741 25.9529 10.0694C25.9529 11.4114 26.2465 12.0285 27.2022 12.9842C28.6238 14.4058 29.3346 15.1166 29.3346 15.9999C29.3346 16.8832 28.6238 17.5941 27.2021 19.0157C26.2464 19.9714 25.9529 20.5885 25.9529 21.9305C25.9529 22.9925 26.1589 24.5034 25.322 25.3333Z" stroke="#38AA70" stroke-width="2"/>
<path d="M12 17.1904L14.4 19.3333L20 12.6666" stroke="#38AA70" stroke-width="2" stroke-linecap="round" stroke-linejoin="round"/>
</svg>
