<svg width="40" height="40" viewBox="0 0 40 40" fill="none" xmlns="http://www.w3.org/2000/svg">
<g clip-path="url(#clip0_913_12445)">
<path d="M32.2941 7.14706C32.2941 10.542 25.2887 13.2941 16.6471 13.2941C8.00543 13.2941 1 10.542 1 7.14706M32.2941 7.14706C32.2941 3.75213 25.2887 1 16.6471 1C8.00543 1 1 3.75213 1 7.14706M32.2941 7.14706V13.8529M1 7.14706V13.8529M32.2941 13.8529V18.5085M32.2941 13.8529C32.2941 15.3413 30.9477 16.7061 28.7073 17.7696M1 13.8529C1 17.2479 8.00543 20 16.6471 20C18.7071 20 20.6741 19.8436 22.4755 19.5594M1 13.8529V27.2647C1 30.6596 8.00543 33.4118 16.6471 33.4118C17.4442 33.4118 18.2274 33.3883 18.9925 33.3432M1 20.5588C1 23.9537 8.00543 26.7059 16.6471 26.7059C17.0686 26.7059 17.4863 26.6993 17.8994 26.6865M32.2941 18.5085C36.2222 20.066 39 23.8998 39 28.3824C39 34.2463 34.2463 39 28.3824 39C24.3103 39 20.7737 36.7077 18.9925 33.3432M32.2941 18.5085C31.1788 18.0663 29.9708 17.8076 28.7073 17.7696M18.9925 33.3432C18.2086 31.8626 17.7647 30.1743 17.7647 28.3824C17.7647 27.8051 17.8108 27.2387 17.8994 26.6865M17.8994 26.6865C18.3755 23.7204 20.0807 21.1658 22.4755 19.5594M22.4755 19.5594C24.1643 18.4265 26.1959 17.7647 28.3824 17.7647C28.4911 17.7647 28.5994 17.7663 28.7073 17.7696M26.5882 35.0882V29.5M26.5882 29.5V22.7941C29.1961 22.7941 33.4118 22.7941 33.4118 26.1471C33.4118 29.5 29.1961 29.5 26.5882 29.5ZM26.5882 29.5H24.3529M24.3529 32.5H29" stroke="#38AA70" stroke-width="2" stroke-linecap="round" stroke-linejoin="round"/>
</g>
<defs>
<clipPath id="clip0_913_12445">
<rect width="40" height="40" fill="white"/>
</clipPath>
</defs>
</svg>
