<svg width="40" height="40" viewBox="0 0 40 40" fill="none" xmlns="http://www.w3.org/2000/svg">
<path d="M20.0013 1.33325C23.287 7.49839 35.3346 6.47087 35.3346 6.47087C35.3346 11.8201 34.9114 16.2805 34.2055 19.9999C30.6627 38.6666 20.0013 38.6666 20.0013 38.6666C20.0013 38.6666 9.33987 38.6666 5.79714 19.9999C5.09124 16.2805 4.66797 11.8201 4.66797 6.47087C4.66797 6.47087 16.7156 7.49839 20.0013 1.33325Z" stroke="#38AA70" stroke-width="2" stroke-linecap="round" stroke-linejoin="round"/>
<path d="M20 7.33325C22.2857 11.5167 30.6667 10.8195 30.6667 10.8195C30.6667 14.4493 30.3722 17.4761 29.8812 19.9999C27.4167 32.6666 20 32.6666 20 32.6666V7.33325Z" stroke="#38AA70" stroke-width="2" stroke-linecap="round" stroke-linejoin="round"/>
</svg>
