<svg width="40" height="41" viewBox="0 0 40 41" fill="none" xmlns="http://www.w3.org/2000/svg">
<path d="M21.5 30.2489L27.036 39.1818L30.1262 35.1861H35.1513L29.9838 27.0139M17.8558 30.2489L12.4142 39.1818L9.32401 35.1861H4.29894L9.37203 27.0139M15.668 16.0951L18.668 18.5908L23.2525 13.5908M13.4995 3.94172C14.2623 4.13357 14.6437 4.2295 15.0046 4.20524C15.3539 4.18176 15.6918 4.07858 15.9894 3.90459C16.2968 3.72484 16.543 3.44001 17.0353 2.87035C17.9193 1.8474 18.3614 1.33593 18.8887 1.14079C19.396 0.953069 19.9598 0.953069 20.4671 1.14079C20.9944 1.33593 21.4365 1.8474 22.3205 2.87035C22.8129 3.44001 23.059 3.72484 23.3664 3.90459C23.664 4.07858 24.002 4.18176 24.3512 4.20524C24.7121 4.2295 25.0935 4.13357 25.8564 3.94172C27.1984 3.60422 27.8694 3.43547 28.4066 3.55975C28.9565 3.68698 29.4313 4.01268 29.7289 4.46671C30.0196 4.91022 30.0551 5.55499 30.1262 6.84453C30.1659 7.56519 30.1858 7.92552 30.3166 8.23636C30.4511 8.55618 30.6695 8.83862 30.9514 9.0573C31.2253 9.26984 31.5862 9.39909 32.308 9.65758C33.5913 10.1172 34.233 10.347 34.5904 10.738C34.9687 11.152 35.1545 11.6919 35.1061 12.2364C35.0603 12.7506 34.6873 13.2868 33.9414 14.3593C33.5255 14.9571 33.3176 15.256 33.228 15.576C33.1328 15.9163 33.1328 16.274 33.228 16.6143C33.3176 16.9343 33.5255 17.2332 33.9414 17.831C34.6873 18.9034 35.0603 19.4396 35.1061 19.9539C35.1545 20.4984 34.9687 21.0383 34.5904 21.4522C34.233 21.8433 33.5913 22.0731 32.308 22.5327C31.5862 22.7912 31.2253 22.9204 30.9514 23.133C30.6695 23.3517 30.4511 23.6341 30.3166 23.9539C30.1858 24.2648 30.1659 24.6251 30.1262 25.3457C30.0551 26.6353 30.0196 27.2801 29.7289 27.7236C29.4313 28.1776 28.9565 28.5033 28.4066 28.6305C27.8694 28.7548 27.1984 28.5861 25.8564 28.2486C25.0935 28.0567 24.7121 27.9608 24.3512 27.985C24.002 28.0085 23.664 28.1117 23.3664 28.2857C23.059 28.4654 22.8129 28.7503 22.3205 29.3199C21.4365 30.3429 20.9944 30.8543 20.4671 31.0495C19.9598 31.2372 19.396 31.2372 18.8887 31.0495C18.3614 30.8543 17.9193 30.3429 17.0353 29.3199C16.543 28.7503 16.2968 28.4654 15.9894 28.2857C15.6918 28.1117 15.3539 28.0085 15.0046 27.985C14.6437 27.9608 14.2623 28.0567 13.4995 28.2486C12.1574 28.5861 11.4864 28.7548 10.9493 28.6305C10.3994 28.5033 9.92448 28.1776 9.6269 27.7236C9.33621 27.2801 9.30068 26.6353 9.22962 25.3457C9.18991 24.6251 9.17005 24.2648 9.03926 23.9539C8.90468 23.6341 8.68629 23.3517 8.40448 23.133C8.13058 22.9204 7.76967 22.7912 7.04787 22.5327C5.76448 22.0731 5.12279 21.8433 4.76545 21.4522C4.38714 21.0383 4.20131 20.4984 4.24975 19.9539C4.2955 19.4396 4.66849 18.9034 5.41446 17.831C5.8303 17.2332 6.03822 16.9343 6.12778 16.6143C6.22302 16.274 6.22302 15.9163 6.12778 15.576C6.03822 15.256 5.8303 14.9571 5.41446 14.3593C4.66849 13.2868 4.2955 12.7506 4.24975 12.2364C4.20131 11.6919 4.38714 11.152 4.76545 10.738C5.12279 10.347 5.76448 10.1172 7.04787 9.65758C7.76967 9.39909 8.13058 9.26984 8.40448 9.0573C8.68629 8.83862 8.90468 8.55617 9.03926 8.23636C9.17005 7.92552 9.18991 7.5652 9.22962 6.84454C9.30068 5.55499 9.33621 4.91022 9.6269 4.46671C9.92448 4.01268 10.3994 3.68698 10.9493 3.55975C11.4864 3.43547 12.1574 3.60422 13.4995 3.94172ZM28.4066 16.0951C28.4066 20.5087 24.1911 24.6364 19.6779 24.6364C15.1647 24.6364 10.9493 20.5087 10.9493 16.0951C10.9493 11.6815 14.6591 7.36364 19.6779 7.36364C24.6967 7.36364 28.4066 11.6815 28.4066 16.0951Z" stroke="#38AA70" stroke-width="2" stroke-linecap="round" stroke-linejoin="round"/>
</svg>
