<svg width="40" height="40" viewBox="0 0 40 40" fill="none" xmlns="http://www.w3.org/2000/svg">
<path d="M20 8.17143C21.7086 8.17143 23.0938 6.78991 23.0938 5.08571C23.0938 3.38152 21.7086 2 20 2C18.2914 2 16.9062 3.38152 16.9062 5.08571C16.9062 6.78991 18.2914 8.17143 20 8.17143ZM20 8.17143V11.7714M20 31.8286C18.2914 31.8286 16.9062 33.2101 16.9062 34.9143C16.9062 36.6185 18.2914 38 20 38C21.7086 38 23.0938 36.6185 23.0938 34.9143C23.0938 33.2101 21.7086 31.8286 20 31.8286ZM20 31.8286V28.2286M27.2188 15.8857L30.7427 13.8564M30.7427 13.8564C31.2815 14.7634 32.2727 15.3714 33.4062 15.3714C35.1149 15.3714 36.5 13.9899 36.5 12.2857C36.5 10.5815 35.1149 9.2 33.4062 9.2C31.6976 9.2 30.3125 10.5815 30.3125 12.2857C30.3125 12.8593 30.4694 13.3963 30.7427 13.8564ZM27.2188 24.1143L30.7427 26.1436M30.7427 26.1436C30.4694 26.6037 30.3125 27.1407 30.3125 27.7143C30.3125 29.4185 31.6976 30.8 33.4062 30.8C35.1149 30.8 36.5 29.4185 36.5 27.7143C36.5 26.0101 35.1149 24.6286 33.4062 24.6286C32.2727 24.6286 31.2815 25.2366 30.7427 26.1436ZM12.7812 24.1143L9.25726 26.1436M9.25726 26.1436C8.71848 25.2366 7.72731 24.6286 6.59375 24.6286C4.88512 24.6286 3.5 26.0101 3.5 27.7143C3.5 29.4185 4.88512 30.8 6.59375 30.8C8.30238 30.8 9.6875 29.4185 9.6875 27.7143C9.6875 27.1407 9.5306 26.6037 9.25726 26.1436ZM12.7812 15.8857L9.25726 13.8564M9.25726 13.8564C9.5306 13.3963 9.6875 12.8593 9.6875 12.2857C9.6875 10.5815 8.30238 9.2 6.59375 9.2C4.88512 9.2 3.5 10.5815 3.5 12.2857C3.5 13.9899 4.88512 15.3714 6.59375 15.3714C7.72731 15.3714 8.71848 14.7634 9.25726 13.8564ZM24.125 20C24.125 22.2723 22.2782 24.1143 20 24.1143C17.7218 24.1143 15.875 22.2723 15.875 20C15.875 17.7277 17.7218 15.8857 20 15.8857C22.2782 15.8857 24.125 17.7277 24.125 20Z" stroke="#38AA70" stroke-width="2" stroke-linecap="round"/>
</svg>
