<svg width="28" height="28" viewBox="0 0 28 28" fill="none" xmlns="http://www.w3.org/2000/svg">
<path d="M17 4.77083C17 6.30112 13.6421 7.54167 9.5 7.54167C5.35786 7.54167 2 6.30112 2 4.77083M17 4.77083C17 3.24054 13.6421 2 9.5 2C5.35786 2 2 3.24054 2 4.77083M17 4.77083V9.125M2 4.77083V18.2292C2 19.7595 5.35786 21 9.5 21C10.0137 21 10.5153 20.9809 11 20.9446M2 13.875C2 15.4053 5.35786 16.6458 9.5 16.6458C10.0137 16.6458 10.5153 16.6268 11 16.5904M17 9.125C17 10.6553 13.6421 11.8958 9.5 11.8958C5.35786 11.8958 2 10.6553 2 9.125M17 9.125V11.4096M26 14.125C26 15.6553 22.6421 16.8958 18.5 16.8958C14.3579 16.8958 11 15.6553 11 14.125M26 14.125C26 12.5947 22.6421 11.3542 18.5 11.3542C17.9863 11.3542 17.4847 11.3732 17 11.4096M26 14.125V18.4792M11 14.125V16.5904M11 14.125C11 12.7845 13.5766 11.6663 17 11.4096M26 18.4792C26 20.0095 22.6421 21.25 18.5 21.25C14.3579 21.25 11 20.0095 11 18.4792M26 18.4792V23.2292C26 24.7595 22.6421 26 18.5 26C14.3579 26 11 24.7595 11 23.2292V20.9446M11 20.9446V16.5904" stroke="#38AA70" stroke-width="2"/>
</svg>
