<svg width="40" height="40" viewBox="0 0 40 40" fill="none" xmlns="http://www.w3.org/2000/svg">
<path d="M22.8902 4.20505C22.8902 5.7911 21.5968 7.07684 20.0013 7.07684M22.8902 4.20505C22.8902 2.619 21.5968 1.33325 20.0013 1.33325C18.4058 1.33325 17.1124 2.619 17.1124 4.20505M22.8902 4.20505L32.4 10.0748M20.0013 7.07684C18.4058 7.07684 17.1124 5.7911 17.1124 4.20505M20.0013 7.07684V9.94864M17.1124 4.20505L7.61833 10.0906M22.8902 35.7948C22.8902 37.3808 21.5968 38.6666 20.0013 38.6666C18.4058 38.6666 17.1124 37.3808 17.1124 35.7948M22.8902 35.7948C22.8902 34.2087 21.5968 32.923 20.0013 32.923M22.8902 35.7948L32.4098 29.9348M17.1124 35.7948C17.1124 34.2087 18.4058 32.923 20.0013 32.923M17.1124 35.7948L7.60664 29.921M20.0013 32.923V30.0512M34.4457 25.0256C36.0412 25.0256 37.3346 26.3113 37.3346 27.8974C37.3346 29.4834 36.0412 30.7692 34.4457 30.7692C33.6515 30.7692 32.9321 30.4505 32.4098 29.9348M34.4457 25.0256V14.9743M34.4457 25.0256C33.3764 25.0256 32.4428 25.6031 31.9433 26.4615M34.4457 14.9743C36.0412 14.9743 37.3346 13.6885 37.3346 12.1025C37.3346 10.5164 36.0412 9.23069 34.4457 9.23069C33.6465 9.23069 32.923 9.55336 32.4 10.0748M34.4457 14.9743C33.3764 14.9743 32.4428 14.3968 31.9433 13.5384M5.55686 25.0256C3.96137 25.0256 2.66797 26.3113 2.66797 27.8974C2.66797 29.4834 3.96137 30.7692 5.55686 30.7692C6.35818 30.7692 7.08331 30.4448 7.60664 29.921M5.55686 25.0256V14.9743M5.55686 25.0256C6.62615 25.0256 7.55976 25.6031 8.05926 26.4615M5.55686 14.9743C3.96137 14.9743 2.66797 13.6885 2.66797 12.1025C2.66797 10.5164 3.96137 9.23069 5.55686 9.23069C6.36417 9.23069 7.09413 9.55988 7.61833 10.0906M5.55686 14.9743C6.62615 14.9743 7.55976 14.3968 8.05926 13.5384M32.4 10.0748C31.879 10.5943 31.5569 11.311 31.5569 12.1025C31.5569 12.6256 31.6975 13.116 31.9433 13.5384M32.4098 29.9348C31.883 29.4146 31.5569 28.6938 31.5569 27.8974C31.5569 27.3743 31.6975 26.8839 31.9433 26.4615M7.60664 29.921C8.12529 29.4019 8.44575 28.6868 8.44575 27.8974C8.44575 27.3743 8.30506 26.8839 8.05926 26.4615M7.61833 10.0906C8.1301 10.6087 8.44575 11.319 8.44575 12.1025C8.44575 12.6256 8.30506 13.116 8.05926 13.5384M31.9433 26.4615L28.668 25.0256M31.9433 13.5384L28.668 15.6922M8.05926 13.5384L11.3346 15.6922M8.05926 26.4615L11.3346 25.0256M22.8902 19.9999C22.8902 21.586 21.5968 22.8717 20.0013 22.8717C18.4058 22.8717 17.1124 21.586 17.1124 19.9999C17.1124 18.4139 18.4058 17.1281 20.0013 17.1281C21.5968 17.1281 22.8902 18.4139 22.8902 19.9999Z" stroke="#38AA70" stroke-width="2" stroke-linecap="round"/>
</svg>
