<svg width="22" height="22" viewBox="0 0 22 22" fill="none" xmlns="http://www.w3.org/2000/svg">
<path d="M8.92534 3.29958C8.33882 3.8861 7.75762 4.1584 6.92144 4.1584C6.19133 4.1584 5.15259 4.0168 4.58203 4.59215C4.01598 5.16296 4.15695 6.19743 4.15695 6.92288C4.15695 7.75908 3.88463 8.34029 3.29811 8.92682C2.32073 9.90419 1.83204 10.3929 1.83203 11.0001C1.83205 11.6074 2.32074 12.0961 3.29813 13.0735C3.95517 13.7305 4.15695 14.1548 4.15695 15.0774C4.15695 15.8075 4.01536 16.8463 4.59073 17.4168C5.16153 17.9829 6.19599 17.8419 6.92142 17.8419C7.8119 17.8419 8.24071 18.0161 8.87622 18.6516C9.41738 19.1928 10.1428 20.1668 10.9987 20.1668C11.8546 20.1668 12.58 19.1928 13.1212 18.6516C13.7567 18.0161 14.1855 17.8419 15.076 17.8419C15.8014 17.8419 16.8359 17.9829 17.4067 17.4168C17.982 16.8463 17.8404 15.8075 17.8404 15.0774C17.8404 14.1548 18.0422 13.7305 18.6993 13.0735C19.6767 12.0961 20.1654 11.6074 20.1654 11.0001C20.1654 10.3929 19.6767 9.90419 18.6993 8.92682C18.0422 8.26976 17.8404 7.84553 17.8404 6.92288C17.8404 6.19279 17.982 5.15406 17.4067 4.5835C16.8359 4.01743 15.8014 4.1584 15.076 4.1584C14.2395 4.1584 13.6584 3.88597 13.0721 3.29958C12.0947 2.32219 11.606 1.8335 10.9987 1.8335C10.3914 1.8335 9.90273 2.32219 8.92534 3.29958Z" fill="#38AA70"/>
<path d="M17.4067 17.4168H17.4154M17.4067 17.4168C16.8359 17.9829 15.8014 17.8419 15.076 17.8419C14.1855 17.8419 13.7567 18.0161 13.1212 18.6516C12.58 19.1928 11.8546 20.1668 10.9987 20.1668C10.1428 20.1668 9.41738 19.1928 8.87622 18.6516C8.24071 18.0161 7.8119 17.8419 6.92142 17.8419C6.19599 17.8419 5.16153 17.9829 4.59073 17.4168C4.01536 16.8463 4.15695 15.8075 4.15695 15.0774C4.15695 14.1548 3.95517 13.7305 3.29813 13.0735C2.32074 12.0961 1.83205 11.6074 1.83203 11.0001C1.83204 10.3929 2.32073 9.90419 3.29811 8.92682C3.88463 8.34029 4.15695 7.75908 4.15695 6.92288C4.15695 6.19743 4.01598 5.16296 4.58203 4.59215C5.15259 4.0168 6.19133 4.1584 6.92144 4.1584C7.75762 4.1584 8.33882 3.8861 8.92534 3.29958C9.90273 2.32219 10.3914 1.8335 10.9987 1.8335C11.606 1.8335 12.0947 2.32219 13.0721 3.29958C13.6584 3.88597 14.2395 4.1584 15.076 4.1584C15.8014 4.1584 16.8359 4.01743 17.4067 4.5835C17.982 5.15406 17.8404 6.19279 17.8404 6.92288C17.8404 7.84553 18.0422 8.26976 18.6993 8.92682C19.6767 9.90419 20.1654 10.3929 20.1654 11.0001C20.1654 11.6074 19.6767 12.0961 18.6993 13.0735C18.0422 13.7305 17.8404 14.1548 17.8404 15.0774C17.8404 15.8075 17.982 16.8463 17.4067 17.4168Z" stroke="#38AA70" stroke-width="1.5"/>
<path d="M8.25 11.8186L9.9 13.2918L13.75 8.7085" stroke="white" stroke-width="1.5" stroke-linecap="round" stroke-linejoin="round"/>
</svg>
