<svg width="32" height="32" viewBox="0 0 32 32" fill="none" xmlns="http://www.w3.org/2000/svg">
<g clip-path="url(#clip0_947_17734)">
<path d="M16 0C11.7575 0 7.685 1.68675 4.6875 4.68625C1.68693 7.68696 0.000858621 11.7565 0 16C0 20.2417 1.6875 24.3142 4.6875 27.3137C7.685 30.3132 11.7575 32 16 32C20.2425 32 24.315 30.3132 27.3125 27.3137C30.3125 24.3142 32 20.2417 32 16C32 11.7583 30.3125 7.68575 27.3125 4.68625C24.315 1.68675 20.2425 0 16 0Z" fill="#232323"/>
<path d="M14.0376 9.31617L14.6866 10.4791C15.2723 11.5286 15.0372 12.9053 14.1147 13.8278C14.1147 13.8278 12.9958 14.9467 15.0245 16.9755C17.0532 19.0042 18.1722 17.8853 18.1722 17.8853C19.0947 16.9628 20.4714 16.7277 21.5209 17.3134L22.6838 17.9624C24.2686 18.8468 24.4557 21.0692 23.0628 22.4622C22.2258 23.2992 21.2004 23.9505 20.0669 23.9934C18.1588 24.0658 14.9183 23.5829 11.6677 20.3323C8.41713 17.0817 7.93421 13.8412 8.00655 11.9331C8.04952 10.7996 8.7008 9.77423 9.53781 8.93723C10.9308 7.54428 13.1532 7.73144 14.0376 9.31617Z" fill="white"/>
</g>
<defs>
<clipPath id="clip0_947_17734">
<rect width="32" height="32" fill="white"/>
</clipPath>
</defs>
</svg>
