<svg width="40" height="40" viewBox="0 0 40 40" fill="none" xmlns="http://www.w3.org/2000/svg">
<path d="M37.8211 2.46135C37.8073 2.39417 37.7746 2.33233 37.7269 2.28309C37.6791 2.23385 37.6184 2.19924 37.5517 2.18333C33.1066 1.09554 22.8359 4.97192 17.2713 10.5392C16.2788 11.5246 15.374 12.5946 14.5672 13.7373C12.8513 13.5853 11.1353 13.7122 9.67282 14.3503C5.54646 16.1681 4.34506 20.9112 4.01037 22.9515C3.99138 23.0632 3.99854 23.1778 4.03129 23.2862C4.06403 23.3947 4.12146 23.494 4.19906 23.5765C4.27667 23.6589 4.37233 23.7222 4.47852 23.7614C4.58471 23.8006 4.69854 23.8146 4.81105 23.8023L11.4374 23.0708C11.4421 23.5708 11.4722 24.0703 11.5277 24.5673C11.561 24.9124 11.7141 25.2349 11.9603 25.4788L14.5262 28.041C14.7702 28.2871 15.0923 28.4402 15.437 28.474C15.9307 28.5292 16.4269 28.5594 16.9237 28.5644L16.1967 35.1884C16.1845 35.3009 16.1986 35.4148 16.2378 35.521C16.277 35.6272 16.3403 35.7229 16.4227 35.8005C16.505 35.8782 16.6042 35.9357 16.7125 35.9685C16.8207 36.0013 16.9351 36.0086 17.0467 35.9898C19.0814 35.6631 23.8286 34.4607 25.6341 30.3306C26.2716 28.8668 26.4021 27.1576 26.2549 25.4484C27.3992 24.6408 28.4711 23.7349 29.4584 22.7411C35.0404 17.1822 38.8912 7.13154 37.8211 2.46135ZM23.8893 16.1096C23.3796 15.5997 23.0324 14.9501 22.8916 14.2427C22.7509 13.5353 22.8229 12.8021 23.0985 12.1357C23.3742 11.4693 23.8411 10.8997 24.4402 10.4989C25.0393 10.0982 25.7438 9.88426 26.4644 9.88426C27.185 9.88426 27.8894 10.0982 28.4885 10.4989C29.0876 10.8997 29.5545 11.4693 29.8302 12.1357C30.1059 12.8021 30.1779 13.5353 30.0371 14.2427C29.8963 14.9501 29.5492 15.5997 29.0394 16.1096C28.7015 16.4484 28.3001 16.7171 27.8582 16.9005C27.4163 17.0839 26.9427 17.1783 26.4644 17.1783C25.986 17.1783 25.5124 17.0839 25.0705 16.9005C24.6287 16.7171 24.2273 16.4484 23.8893 16.1096Z" stroke="#38AA70" stroke-width="2"/>
<path d="M12.3453 32.451C11.8745 32.9228 11.1192 33.1067 10.2101 33.264C8.16767 33.612 6.36411 31.8469 6.73101 29.7818C6.87107 28.9989 7.28523 27.9015 7.543 27.6437C7.59934 27.5884 7.63685 27.5168 7.65018 27.439C7.66352 27.3612 7.65201 27.2812 7.61729 27.2103C7.58257 27.1394 7.5264 27.0813 7.45677 27.0442C7.38713 27.007 7.30757 26.9928 7.22938 27.0034C6.08723 27.1432 5.02466 27.6611 4.21084 28.4747C2.19075 30.4968 2 38 2 38C2 38 9.50638 37.8092 11.5265 35.7871C12.3424 34.9738 12.8609 33.9095 12.9984 32.7655C13.0301 32.4063 12.5928 32.1923 12.3453 32.451Z" stroke="#38AA70" stroke-width="2"/>
</svg>
