<svg width="36" height="36" viewBox="0 0 36 36" fill="none" xmlns="http://www.w3.org/2000/svg">
<path d="M13.8969 3.66562C12.8305 4.73201 11.7738 5.2271 10.2535 5.2271C8.92601 5.2271 7.03738 4.96964 6 6.01574C4.97082 7.05357 5.22713 8.93442 5.22713 10.2534C5.22713 11.7738 4.732 12.8305 3.66559 13.8969C1.88854 15.674 1.00002 16.5625 1 17.6666C1.00003 18.7707 1.88856 19.6594 3.66563 21.4364C4.86026 22.631 5.22713 23.4024 5.22713 25.0799C5.22713 26.4073 4.96968 28.296 6.01582 29.3333C7.05364 30.3625 8.93446 30.1062 10.2534 30.1062C11.8725 30.1062 12.6521 30.4229 13.8076 31.5784C14.7915 32.5623 16.1105 34.3333 17.6667 34.3333C19.2229 34.3333 20.5418 32.5623 21.5257 31.5784C22.6812 30.4229 23.4608 30.1062 25.0799 30.1062C26.3989 30.1062 28.2797 30.3625 29.3175 29.3333C30.3637 28.296 30.1062 26.4073 30.1062 25.0799C30.1062 23.4024 30.4731 22.631 31.6677 21.4364C33.4448 19.6594 34.3333 18.7707 34.3333 17.6666C34.3333 16.5625 33.4448 15.674 31.6677 13.8969C30.4731 12.7023 30.1062 11.931 30.1062 10.2534C30.1062 8.92598 30.3636 7.03739 29.3176 6C28.2798 4.97078 26.3989 5.2271 25.0799 5.2271C23.5591 5.2271 22.5026 4.73178 21.4364 3.66561C19.6593 1.88854 18.7708 1 17.6667 1C16.5625 1 15.674 1.88854 13.8969 3.66562Z" fill="white"/>
<path d="M29.3175 29.3333H29.3333M29.3175 29.3333C28.2797 30.3625 26.3989 30.1062 25.0799 30.1062C23.4608 30.1062 22.6812 30.4229 21.5257 31.5784C20.5418 32.5623 19.2229 34.3333 17.6667 34.3333C16.1105 34.3333 14.7915 32.5623 13.8076 31.5784C12.6521 30.4229 11.8725 30.1062 10.2534 30.1062C8.93446 30.1062 7.05364 30.3625 6.01582 29.3333C4.96968 28.296 5.22713 26.4073 5.22713 25.0799C5.22713 23.4024 4.86026 22.631 3.66563 21.4364C1.88856 19.6594 1.00003 18.7707 1 17.6666C1.00002 16.5625 1.88854 15.674 3.66559 13.8969C4.732 12.8305 5.22713 11.7738 5.22713 10.2534C5.22713 8.93442 4.97082 7.05357 6 6.01574C7.03738 4.96964 8.92601 5.2271 10.2535 5.2271C11.7738 5.2271 12.8305 4.73201 13.8969 3.66562C15.674 1.88854 16.5625 1 17.6667 1C18.7708 1 19.6593 1.88854 21.4364 3.66561C22.5026 4.73178 23.5591 5.2271 25.0799 5.2271C26.3989 5.2271 28.2798 4.97078 29.3176 6C30.3636 7.03739 30.1062 8.92598 30.1062 10.2534C30.1062 11.931 30.4731 12.7023 31.6677 13.8969C33.4448 15.674 34.3333 16.5625 34.3333 17.6666C34.3333 18.7707 33.4448 19.6594 31.6677 21.4364C30.4731 22.631 30.1062 23.4024 30.1062 25.0799C30.1062 26.4073 30.3637 28.296 29.3175 29.3333Z" stroke="#38AA70" stroke-width="2"/>
<path d="M12.668 19.1548L15.668 21.8333L22.668 13.5" stroke="#38AA70" stroke-width="2" stroke-linecap="round" stroke-linejoin="round"/>
</svg>
