<svg width="40" height="40" viewBox="0 0 40 40" fill="none" xmlns="http://www.w3.org/2000/svg">
<path d="M28.4815 26.3529V36C28.4815 37.1046 27.5861 38 26.4815 38H9C7.89543 38 7 37.1046 7 36V4C7 2.89543 7.89543 2 9 2H26.4815C27.5861 2 28.4815 2.89543 28.4815 4V4.64706M21 8.20588V12.9706H25.8333V8.20588H21ZM30.6667 8.20588V12.9706H35.5V8.20588H30.6667ZM21 17.7353V22.5H25.8333V17.7353H21ZM30.6667 17.7353V22.5H35.5V17.7353H30.6667ZM20.4259 31.6471C20.4259 32.8166 19.4642 33.7647 18.2778 33.7647C17.0914 33.7647 16.1296 32.8166 16.1296 31.6471C16.1296 30.4775 17.0914 29.5294 18.2778 29.5294C19.4642 29.5294 20.4259 30.4775 20.4259 31.6471Z" stroke="#38AA70" stroke-width="2" stroke-linecap="round" stroke-linejoin="round"/>
</svg>
