<svg width="20" height="25" viewBox="0 0 20 25" fill="none" xmlns="http://www.w3.org/2000/svg">
<path d="M10 0.0104963C8.67163 -0.0518452 7.34488 0.164033 6.10469 0.644313C4.8645 1.12459 3.73819 1.85869 2.79785 2.79962C1.85752 3.74054 1.12388 4.86756 0.643907 6.10854C0.16393 7.34951 -0.0518125 8.67709 0.0104897 10.0063C0.0104897 13.155 2.50787 16.2537 3.75656 17.5032C5.00524 18.7526 10 25 10 25C10 25 14.9948 18.7526 16.2434 17.5032C17.4921 16.2537 19.9895 13.155 19.9895 10.0063C20.0518 8.67709 19.8361 7.34951 19.3561 6.10854C18.8761 4.86756 18.1425 3.74054 17.2021 2.79962C16.2618 1.85869 15.1355 1.12459 13.8953 0.644313C12.6551 0.164033 11.3284 -0.0518452 10 0.0104963ZM10 14.0671C9.19736 14.0671 8.41274 13.8289 7.74536 13.3827C7.07799 12.9365 6.55784 12.3023 6.25068 11.5603C5.94352 10.8183 5.86315 10.0018 6.01974 9.21408C6.17633 8.42636 6.56284 7.70279 7.13039 7.13488C7.69795 6.56697 8.42106 6.18022 9.20828 6.02353C9.9955 5.86684 10.8115 5.94726 11.553 6.25461C12.2946 6.56196 12.9284 7.08245 13.3743 7.75024C13.8202 8.41804 14.0582 9.20315 14.0582 10.0063C14.0582 10.5396 13.9533 11.0676 13.7493 11.5603C13.5454 12.053 13.2465 12.5006 12.8696 12.8777C12.4928 13.2548 12.0454 13.5539 11.553 13.758C11.0607 13.9621 10.5329 14.0671 10 14.0671Z" fill="url(#paint0_linear_929_6007)"/>
<defs>
<linearGradient id="paint0_linear_929_6007" x1="10" y1="0" x2="10" y2="25" gradientUnits="userSpaceOnUse">
<stop stop-color="#838959"/>
<stop offset="1" stop-color="#99AB71"/>
</linearGradient>
</defs>
</svg>
