<svg width="31" height="22" viewBox="0 0 31 22" fill="none" xmlns="http://www.w3.org/2000/svg">
<path d="M0 18.6152C0 19.5129 0.362896 20.3738 1.00885 21.0086C1.65481 21.6433 2.53092 21.9999 3.44444 21.9999H27.5556C28.4691 21.9999 29.3452 21.6433 29.9911 21.0086C30.6371 20.3738 31 19.5129 31 18.6152V15.2305H0V18.6152Z" fill="#ED1F24"/>
<path d="M0 7.61621H31V15.2319H0V7.61621Z" fill="#0009B9"/>
<path d="M27.5556 0H3.44444C2.53092 0 1.65481 0.356604 1.00885 0.991364C0.362896 1.62612 0 2.48704 0 3.38473L0 7.61564H31V3.38473C31 2.48704 30.6371 1.62612 29.9911 0.991364C29.3452 0.356604 28.4691 0 27.5556 0Z" fill="white"/>
</svg>
