<svg width="128" height="116" viewBox="0 0 128 116" fill="none" xmlns="http://www.w3.org/2000/svg">
<path d="M44.5344 2.52831C35.3357 8.02193 24.0435 11.116 10.9116 11.6844C6.53425 11.8738 2.34725 12.1264 1.52254 12.3158C1.52254 12.3158 0.128861 12.5679 0 12.6315L0.253757 35.49C0.507515 57.9065 0.570954 58.4748 2.22038 64.6631C7.67616 84.9326 21.95 101.54 44.0269 113.285L49.2289 116L53.0353 114.106C55.1922 113.032 59.3158 110.633 62.234 108.738C65.1522 106.844 67.6263 105.455 67.7532 105.581C67.8801 105.707 68.8951 107.602 70.037 109.875C72.5746 114.8 75.239 116.695 78.1572 115.495C80.8217 114.421 81.7733 111.264 82.9152 99.898C83.8033 91.1208 84.1205 89.6054 85.6431 87.269C86.5947 85.7535 87.6731 84.6169 87.9903 84.7432C89.2591 85.1852 90.3376 90.0474 91.2257 99.5823C92.3042 110.57 93.002 113.285 95.4127 115.053C96.9353 116.189 97.3159 116.189 99.0922 115.495C104.548 113.222 107.339 104.697 109.179 84.8063C109.623 79.5021 110.194 77.2921 112.795 70.9144C115.777 63.6527 116.225 58.6633 116.223 57.0852C116.221 55.507 115.713 50.4554 114.191 47.6139C111.273 42.1203 107.466 39.7207 101.63 39.7207H98.4578V26.5234C98.4578 16.736 98.2675 13.1998 97.6965 12.7578C97.2525 12.3789 92.8752 11.9369 87.9903 11.6844C74.4143 11.116 63.6296 8.21136 53.7965 2.46516C51.4493 1.07597 49.2924 -0.060635 49.0386 0.00251012C48.8483 0.00251012 46.8182 1.20227 44.5344 2.52831ZM56.2072 7.8325C66.2941 12.7578 79.1723 15.7256 90.7182 15.7256H94.6515V40.7311L91.6698 41.8045C87.6731 43.1937 85.8968 43.1306 81.8367 41.4888C79.3626 40.4785 76.8904 39.7834 72.7669 39.7203C69.5949 39.7203 67.3091 40.1628 64.7715 41.9308C62.9318 43.2569 61.3458 45.0881 60.077 47.6139C58.3642 50.9606 58.1739 51.9078 58.1739 57.0225C58.2373 62.3898 58.4276 63.337 61.5361 71.5459C64.5812 79.5653 64.9619 80.9545 65.4694 87.9636C65.7866 92.1312 66.2306 96.867 66.421 98.4457L66.865 101.287L60.9017 105.202C57.6663 107.286 53.6697 109.685 52.0837 110.443L49.2289 111.832L46.0569 110.254C31.4659 102.866 17.8264 90.1737 11.4825 78.0498C5.01171 65.6734 3.93324 59.4852 3.93324 34.9217V15.7256H7.67616C19.4124 15.7256 35.1454 11.9369 44.2172 6.88532C46.6913 5.55927 48.7848 4.42267 48.9117 4.42267C49.0386 4.35952 52.3374 5.93815 56.2072 7.8325ZM80.5045 45.0881C86.6581 47.0456 87.8 47.0456 93.6364 45.0881C102.772 42.0571 108.037 43.3832 110.892 49.4451C113.43 54.8756 113.049 59.422 109.179 69.841C106.261 77.6709 105.88 79.3127 105.373 86.1324C104.358 99.3928 101.693 109.559 98.6481 111.517C97.4428 112.338 97.189 112.274 96.5546 111.138C96.174 110.38 95.4762 105.328 94.9687 99.8349C93.8902 88.4688 92.9386 84.4906 90.4645 81.9648C88.1172 79.5021 85.77 79.5653 83.613 82.0911C81.2658 84.8695 80.1873 89.1633 79.1088 100.593C78.6013 106.086 77.84 110.948 77.4594 111.454C76.3809 112.716 75.0487 111.769 73.4627 108.612C71.1789 104.066 69.9101 98.2562 69.2123 88.6582C68.5779 79.5653 68.451 79.2496 63.3124 65.2945C60.3942 57.4014 61.2824 50.708 65.7866 46.2247C68.3242 43.6989 68.7048 43.5095 72.0036 43.5095C74.0337 43.5095 77.7132 44.2041 80.5045 45.0881Z" fill="white"/>
<path d="M43.4799 11.6377C40.8083 12.9702 37.3548 14.4931 35.8561 15.0641C33.8361 15.8256 33.0542 16.4601 33.0542 17.3484C33.0542 18.0464 33.4452 18.7444 33.9013 18.9347C35.009 19.3154 40.6129 17.3484 46.4122 14.4931C50.387 12.5895 51.2993 11.8281 51.1689 10.8129C50.8431 8.84586 48.8231 9.03622 43.4799 11.6377Z" fill="white"/>
<path d="M8.4692 19.8627C7.37577 20.6214 7.31145 21.8858 7.63305 38.0713C7.95465 57.2282 8.53352 60.8952 12.264 70.126C16.4448 80.2419 24.549 90.2313 34.7758 97.8182C40.7575 102.244 49.119 106.923 50.2768 106.48C51.8848 105.911 51.2416 103.761 49.1834 102.623C32.7176 93.7086 20.111 80.6212 15.2227 67.3441C12.0711 58.8088 11.2993 52.929 11.2993 37.0597V23.0239L14.5795 22.7078C18.1171 22.3284 19.4035 21.5697 18.8246 20.0523C18.3101 18.7246 10.2058 18.5982 8.4692 19.8627Z" fill="white"/>
<path d="M113.387 37.8508C113.214 38.3212 112.84 38.6917 112.366 38.8629L107.434 40.6407L112.364 42.4185L112.537 42.4912C112.929 42.6832 113.234 43.0187 113.385 43.4305L115.18 48.3165L116.974 43.4322L117.047 43.261C117.241 42.8724 117.58 42.57 117.995 42.4201L122.927 40.6415L117.997 38.8646C117.522 38.6934 117.148 38.3229 116.976 37.8525L115.18 32.9665L113.387 37.8508ZM128 40.6415C128 41.1616 127.839 41.6691 127.538 42.0951C127.274 42.468 126.915 42.763 126.499 42.9501L126.317 43.0237L119.913 45.3323L117.585 51.6753C117.405 52.164 117.078 52.5867 116.648 52.885C116.218 53.1832 115.705 53.3431 115.18 53.3431C114.656 53.3431 114.143 53.1832 113.713 52.885C113.337 52.6239 113.039 52.2679 112.85 51.8555L112.776 51.6753L110.445 45.3307L104.046 43.0237C103.553 42.8457 103.126 42.5213 102.825 42.0951C102.562 41.7223 102.405 41.2872 102.37 40.8358L102.363 40.6415L102.37 40.4472C102.405 39.9958 102.562 39.5607 102.825 39.1879L102.943 39.0324C103.233 38.6825 103.614 38.415 104.046 38.2593L110.447 35.9498L112.776 29.6094C112.956 29.1206 113.283 28.698 113.713 28.3997L113.878 28.2947C114.271 28.0641 114.721 27.9416 115.18 27.9416L115.377 27.949C115.767 27.9788 116.146 28.097 116.483 28.2947L116.648 28.3997L116.805 28.5171C117.107 28.7634 117.349 29.0757 117.511 29.4291L117.585 29.6094L119.915 35.9515L126.317 38.2593L126.499 38.3329C126.855 38.4932 127.171 38.7325 127.419 39.0324L127.538 39.1879L127.644 39.3508C127.876 39.7406 128 40.1862 128 40.6415Z" fill="white"/>
<path d="M104.244 24.3112L106.444 23.5177L107.244 21.3382C107.263 21.2883 107.296 21.2452 107.34 21.2147C107.384 21.1842 107.436 21.1679 107.49 21.1679C107.543 21.1679 107.596 21.1842 107.64 21.2147C107.684 21.2452 107.717 21.2883 107.735 21.3382L108.536 23.5182L110.736 24.3112C110.787 24.3293 110.83 24.3624 110.861 24.406C110.892 24.4495 110.908 24.5014 110.908 24.5545C110.908 24.6076 110.892 24.6595 110.861 24.703C110.83 24.7465 110.787 24.7796 110.736 24.7978L108.536 25.5913L107.735 27.7713C107.717 27.8212 107.684 27.8643 107.64 27.8948C107.596 27.9253 107.543 27.9416 107.49 27.9416C107.436 27.9416 107.384 27.9253 107.34 27.8948C107.296 27.8643 107.263 27.8212 107.244 27.7713L106.443 25.5908L104.244 24.7978C104.193 24.7796 104.15 24.7465 104.119 24.703C104.088 24.6595 104.072 24.6076 104.072 24.5545C104.072 24.5014 104.088 24.4495 104.119 24.406C104.15 24.3624 104.193 24.3293 104.244 24.3112Z" fill="white"/>
<path d="M106.846 23.6626C106.803 23.7801 106.709 23.8727 106.59 23.9156L104.818 24.5539L106.59 25.1931L106.673 25.2336C106.752 25.2832 106.813 25.3577 106.845 25.4461L107.489 27.2016L108.134 25.4469L108.175 25.3634C108.225 25.2856 108.301 25.2252 108.39 25.1931L110.161 24.5539L108.391 23.9164C108.272 23.8736 108.178 23.7809 108.134 23.6634L107.489 21.9079L106.846 23.6626ZM111.336 24.5547C111.336 24.6946 111.292 24.8312 111.211 24.9459C111.13 25.0605 111.015 25.1477 110.883 25.1956L108.869 25.9216L108.137 27.916C108.089 28.0475 108.001 28.1615 107.885 28.2418C107.769 28.322 107.631 28.3649 107.49 28.365C107.349 28.365 107.21 28.3221 107.095 28.2418C106.979 28.1615 106.891 28.0475 106.842 27.916L106.11 25.9207L104.098 25.1956C103.965 25.1477 103.85 25.0605 103.769 24.9459C103.708 24.86 103.669 24.7616 103.653 24.6589L103.644 24.5547L103.653 24.4506C103.669 24.3477 103.708 24.2489 103.769 24.1628L103.836 24.0826C103.908 24.0074 103.998 23.9491 104.098 23.9131L106.11 23.1871L106.842 21.1935L106.886 21.0984C106.936 21.0072 107.008 20.928 107.095 20.8677L107.185 20.8148C107.28 20.7688 107.384 20.7445 107.49 20.7445L107.595 20.7528C107.664 20.7634 107.731 20.7843 107.794 20.8148L107.885 20.8677L107.967 20.9339C108.017 20.9819 108.06 21.0376 108.093 21.0984L108.137 21.1935L108.87 23.1871L110.883 23.9131C110.982 23.9491 111.072 24.0074 111.145 24.0826L111.211 24.1628L111.265 24.2529C111.311 24.3463 111.336 24.4497 111.336 24.5547Z" fill="white"/>
</svg>
