<?xml version="1.0" encoding="UTF-8"?> <svg xmlns="http://www.w3.org/2000/svg" width="180" height="177" viewBox="0 0 180 177" fill="none"> <g clip-path="url(#clip0_508_2193)"> <path d="M32.5463 107.027H13.2556V112.139H32.5463V107.027Z" fill="#F6DAA0"></path> <path d="M24.3899 117.524C24.3899 117.524 24.3899 117.489 24.3899 117.429V117.167C24.3899 116.929 24.3899 116.591 24.3899 116.162C24.3899 115.28 24.37 114.01 24.3542 112.413L24.4137 112.472L5.12298 112.508C5.1666 112.465 5.02385 112.608 5.22211 112.413V115.002C5.22211 115.852 5.22211 116.694 5.22211 117.516L5.12695 117.417L18.8743 117.465L22.9346 117.489H24.029H24.3185C24.3515 117.485 24.3847 117.485 24.4176 117.489H24.3304H24.0528H22.9783L18.9139 117.56L5.09919 117.604H5.00403V117.509C5.00403 116.686 5.00403 115.844 5.00403 114.994V112.405L5.10316 112.306L24.3938 112.345H24.4573V112.397C24.4573 114.01 24.4335 115.292 24.4255 116.182C24.4255 116.607 24.4255 116.937 24.4255 117.175C24.4255 117.278 24.4255 117.362 24.4255 117.425C24.4189 117.46 24.4069 117.493 24.3899 117.524Z" fill="#F6DAA0"></path> <path d="M106.025 0H86.7346V5.1115H106.025V0Z" fill="#F6DAA0"></path> <path d="M97.8689 10.4968C97.8689 10.4968 97.8689 10.461 97.8689 10.4015V10.1393C97.8689 9.90105 97.8689 9.56346 97.8689 9.13452C97.8689 8.25282 97.8689 6.98189 97.8332 5.38529L97.8927 5.44487L78.602 5.48061L78.7012 5.38529V7.98274C78.7012 8.83665 78.7012 9.67466 78.7012 10.4968L78.606 10.4015L92.3533 10.4452L96.4137 10.469H97.5081H97.7976H97.8967H97.8094H97.5319H96.4573L92.389 10.5484L78.5743 10.5921H78.4791V10.4968C78.4791 9.67334 78.4791 8.83532 78.4791 7.98274V5.39324L78.5783 5.29395L97.8689 5.33366H97.9403V5.39324C97.9403 7.00572 97.9165 8.28856 97.9086 9.17821C97.9086 9.60317 97.9086 9.93282 97.9086 10.1711C97.9086 10.2744 97.9086 10.3578 97.9086 10.4213C97.8986 10.4481 97.8853 10.4734 97.8689 10.4968Z" fill="#F6DAA0"></path> <path d="M110.332 120.003C110.328 119.973 110.328 119.942 110.332 119.912V119.65C110.332 119.407 110.332 119.074 110.332 118.645C110.332 117.763 110.312 116.492 110.3 114.892L110.359 114.951L91.0686 114.991C91.1122 114.947 90.9695 115.09 91.1638 114.892V119.999L91.0686 119.904L104.816 119.947L108.872 119.975H109.971H110.256H110.359C110.329 119.979 110.298 119.979 110.268 119.975H109.994H108.916L104.883 120.003L91.0686 120.047H90.9695V114.895C91.1638 114.701 91.025 114.844 91.0686 114.8L110.359 114.836H110.419V114.895C110.419 116.512 110.395 117.791 110.387 118.684C110.387 119.109 110.387 119.439 110.387 119.677V119.928C110.371 119.954 110.352 119.98 110.332 120.003Z" fill="#F6DAA0"></path> <path d="M112.945 114.892C112.945 114.892 112.945 114.856 112.945 114.796C112.945 114.737 112.945 114.633 112.945 114.526C112.945 114.272 112.945 113.93 112.925 113.501C112.925 112.604 112.905 111.337 112.889 109.78L112.956 109.852L101.366 109.879L101.465 109.78V112.397C101.465 113.255 101.465 114.081 101.465 114.876L101.37 114.784L109.661 114.828L112.08 114.852H112.73H112.96C112.891 114.857 112.82 114.857 112.75 114.852H112.12L109.741 114.88L101.386 114.923H101.295V114.828C101.295 114.034 101.295 113.208 101.295 112.35V109.72L101.394 109.621L112.984 109.649H113.008V109.72C113.008 111.309 112.98 112.576 112.972 113.482C112.972 113.907 112.972 114.244 112.953 114.49C112.964 114.624 112.961 114.758 112.945 114.892Z" fill="#F6DAA0"></path> <path d="M19.3898 46.8301C19.3898 46.8301 19.3898 46.7943 19.3898 46.7347V46.4726C19.3898 46.2343 19.3898 45.8967 19.3898 45.4678C19.3898 44.5861 19.3898 43.3191 19.3581 41.7186L19.4176 41.7781L0.126886 41.8179C0.170503 41.7742 0.0277564 41.9132 0.226016 41.7186V43.0173C0.226016 43.4502 0.226016 43.8791 0.226016 44.3081V46.8221L0.130851 46.7268L13.8782 46.7705L17.9346 46.7983H19.0329H19.3184H19.4215H19.3343H19.0567H17.9822L13.9139 46.8658L0.0991299 46.9095H0V46.8142C0 45.9934 0 45.1554 0 44.3001V41.7106L0.0991299 41.6113L19.3898 41.651H19.4493V41.7027C19.4493 43.3152 19.4255 44.598 19.4176 45.4876C19.4176 45.9126 19.4176 46.2423 19.4176 46.4806V46.7308C19.4134 46.7651 19.4041 46.7986 19.3898 46.8301Z" fill="#F6DAA0"></path> <path d="M22.0068 41.7022C22.0014 41.6693 22.0014 41.6358 22.0068 41.6029C22.0068 41.5314 22.0068 41.4401 22.0068 41.3328C22.0068 41.0826 22.0068 40.741 21.987 40.3081C21.987 39.4106 21.987 38.1476 21.9513 36.5907L22.0227 36.6582L10.4324 36.686L10.5276 36.5907V39.2398C10.5276 40.0937 10.5276 40.9237 10.5276 41.7181L10.4364 41.6228L18.7276 41.6664L21.1424 41.6942H21.7927H22.0267C21.9567 41.6999 21.8864 41.6999 21.8165 41.6942H21.1821L18.803 41.7181L10.4483 41.7618H10.3095V41.7022C10.3095 40.9079 10.3095 40.0778 10.3095 39.2239V36.6145C10.2857 36.6145 10.4959 36.4279 10.4086 36.5152L22.0068 36.5391H22.0782V36.6105C22.0782 38.1992 22.0465 39.4662 22.0386 40.3717C22.0386 40.7967 22.0386 41.1342 22.0386 41.3805C22.0386 41.6267 22.0108 41.722 22.0068 41.7022Z" fill="#F6DAA0"></path> <path d="M177.312 57.5888C177.308 57.5584 177.308 57.5278 177.312 57.4974V57.2353C177.312 56.997 177.312 56.6594 177.312 56.2305C177.312 55.3487 177.292 54.0778 177.28 52.4773L177.339 52.5368L158.049 52.5765C158.092 52.5329 157.95 52.6758 158.144 52.4773V57.5888L158.049 57.4934L171.796 57.5371L175.852 57.5649H176.951H177.236H177.339C177.339 57.5649 177.312 57.5649 177.248 57.5649H176.975H175.896L171.863 57.5927L158.049 57.6364H157.95V52.4971C158.144 52.3025 158.005 52.4455 158.049 52.4018L177.339 52.4375H177.399V52.4971C177.399 54.1136 177.375 55.3924 177.367 56.2861C177.367 56.711 177.367 57.0407 177.367 57.279V57.5292C177.35 57.5506 177.332 57.5705 177.312 57.5888Z" fill="#F6DAA0"></path> <path d="M179.929 52.4931C179.923 52.4616 179.923 52.4293 179.929 52.3978C179.929 52.3224 179.929 52.235 179.929 52.1277C179.929 51.8736 179.929 51.532 179.909 51.1031C179.909 50.2055 179.889 48.9385 179.873 47.3816L179.944 47.4531L168.354 47.4809C168.263 47.5683 168.469 47.3618 168.449 47.3816V50.0109C168.449 50.8687 168.449 51.6948 168.449 52.4892L168.354 52.3978L176.645 52.4415L179.064 52.4693H179.714H179.948C179.878 52.4747 179.808 52.4747 179.738 52.4693H179.104L176.725 52.4971L168.37 52.5408H168.279V52.4455C168.279 51.6511 168.279 50.825 168.279 49.9672V47.3379C168.255 47.3618 168.465 47.1513 168.378 47.2426L179.968 47.2665H180.02V47.334C180.02 48.9226 179.992 50.1896 179.984 51.0951C179.984 51.5201 179.984 51.8577 179.964 52.1079C179.96 52.2369 179.948 52.3655 179.929 52.4931Z" fill="#F6DAA0"></path> <path d="M46.258 176.555H89.1931V143.384H46.258L46.258 176.555Z" fill="#F6DAA0"></path> <path d="M57.0155 176.341C57.075 176.341 57.1226 168.946 57.1226 159.831C57.1226 150.716 57.075 143.317 57.0155 143.317C56.9561 143.317 56.9085 150.708 56.9085 159.831C56.9085 168.953 56.9561 176.341 57.0155 176.341Z" fill="#F6DAA0"></path> <path d="M49.898 172.73H53.1891V169.005H49.898V172.73Z" fill="#F6DAA0"></path> <path d="M76.0961 143.472H71.2189V150.549H76.0961V143.472Z" fill="#F6DAA0"></path> <path d="M76.0961 169.379H71.2189V176.456H76.0961V169.379Z" fill="#F6DAA0"></path> <path d="M140.875 134.539H86.6712V176.416H140.875V134.539Z" fill="#F6DAA0"></path> <path d="M127.283 176.118C127.223 176.118 127.176 166.785 127.176 155.271C127.176 143.757 127.223 134.424 127.283 134.424C127.342 134.424 127.39 143.757 127.39 155.271C127.39 166.785 127.354 176.118 127.283 176.118Z" fill="#F6DAA0"></path> <path d="M136.28 166.884H132.124V171.59H136.28V166.884Z" fill="#F6DAA0"></path> <path d="M109.368 134.646H103.21V143.583H109.368V134.646Z" fill="#F6DAA0"></path> <path d="M109.368 167.353H103.21V176.289H109.368V167.353Z" fill="#F6DAA0"></path> <path d="M172.006 176.892C172.006 176.952 134.551 177 88.3604 177C42.1699 177 4.69482 176.952 4.69482 176.892C4.69482 176.833 42.1421 176.789 88.3604 176.789C134.579 176.789 172.006 176.837 172.006 176.892Z" fill="#263238"></path> <path d="M25.6469 165.065C25.6469 165.065 23.926 153.218 24.0608 146.323C24.1956 139.428 24.0608 131.672 24.0608 131.672H24.8538C24.8538 131.672 24.3146 145.358 24.9014 153.611C25.4883 161.864 27.0228 165.065 27.0228 165.065H25.6469Z" fill="#263238"></path> <path d="M30.7699 118.355C30.6479 117.934 30.3951 117.562 30.0482 117.294C29.5446 116.973 28.8864 117.108 28.3273 117.294C25.9482 118.144 23.807 122.616 22.8355 124.972L26.0077 135.695C31.7572 130.369 32.7525 123.371 30.7699 118.355Z" fill="#7994D1"></path> <path d="M29.8619 117.716C29.8619 117.716 29.8619 117.767 29.8183 117.855C29.7747 117.942 29.7231 118.089 29.6637 118.252C29.5209 118.59 29.3266 119.082 29.0927 119.69C28.6248 120.909 28.026 122.613 27.5066 124.535C26.9872 126.457 26.6105 128.225 26.3845 129.512C26.2695 130.151 26.1862 130.675 26.1307 131.037C26.1029 131.203 26.0791 131.343 26.0633 131.434C26.0581 131.484 26.0475 131.533 26.0315 131.581C26.0255 131.532 26.0255 131.483 26.0315 131.434C26.0315 131.323 26.0593 131.184 26.0752 131.013C26.1148 130.651 26.1862 130.123 26.2893 129.48C26.8267 126.109 27.7405 122.809 29.0134 119.642C29.2592 119.034 29.4694 118.546 29.624 118.216L29.8024 117.819C29.8192 117.783 29.8391 117.748 29.8619 117.716Z" fill="#263238"></path> <path d="M24.604 138.277C23.1563 137.452 21.9448 136.268 21.0864 134.839C20.2281 133.409 19.7516 131.782 19.7031 130.115C19.5881 127.732 20.3177 125.397 21.1464 123.16C21.1972 122.958 21.3163 122.78 21.4834 122.656C21.6159 122.61 21.7575 122.598 21.8958 122.62C22.0341 122.642 22.1649 122.698 22.2765 122.783C24.4415 124.018 25.7539 126.358 26.4518 128.772C26.961 130.361 27.1351 132.038 26.9633 133.697C26.6861 135.441 25.8512 137.048 24.5842 138.277" fill="#7994D1"></path> <path d="M24.604 138.277C24.5988 138.229 24.5988 138.181 24.604 138.134C24.604 138.027 24.604 137.892 24.604 137.737C24.604 137.379 24.604 136.863 24.5604 136.224C24.4738 134.562 24.2885 132.907 24.0053 131.267C23.6761 129.345 23.2757 127.621 22.9783 126.378C22.8316 125.77 22.7126 125.27 22.6254 124.904C22.5897 124.742 22.558 124.607 22.5342 124.507C22.5208 124.461 22.5128 124.413 22.5104 124.364C22.5311 124.407 22.5471 124.453 22.558 124.499C22.5897 124.603 22.6293 124.734 22.6769 124.896C22.7721 125.238 22.9109 125.738 23.0734 126.358C23.3906 127.597 23.807 129.321 24.1401 131.247C24.4189 132.894 24.5831 134.558 24.6318 136.228C24.6516 136.867 24.6516 137.383 24.6318 137.745C24.6318 137.912 24.6318 138.047 24.6318 138.142C24.6293 138.188 24.6199 138.234 24.604 138.277Z" fill="#263238"></path> <g opacity="0.3"> <path d="M24.604 138.277C23.1563 137.452 21.9448 136.268 21.0864 134.839C20.2281 133.409 19.7516 131.782 19.7031 130.115C19.5881 127.732 20.3177 125.397 21.1464 123.16C21.1972 122.958 21.3163 122.78 21.4834 122.656C21.6159 122.61 21.7575 122.598 21.8958 122.62C22.0341 122.642 22.1649 122.698 22.2765 122.783C24.4415 124.018 25.7539 126.358 26.4518 128.772C26.961 130.361 27.1351 132.038 26.9633 133.697C26.6861 135.441 25.8512 137.048 24.5842 138.277" fill="black"></path> </g> <path d="M27.9665 156.407C30.9008 157.054 33.3195 159.128 36.1507 160.136C38.0223 160.804 40.1397 161.038 41.6345 162.349C41.2777 161.443 40.445 160.839 39.6004 160.319C37.2691 158.864 34.7818 157.675 32.1855 156.776C30.8532 156.316 29.4099 155.93 28.0498 156.308" fill="#7994D1"></path> <path d="M23.7277 159.028C20.0519 158.968 16.1938 155.851 12.526 155.648C16.3524 154.409 21.8323 155.422 23.7277 159.028Z" fill="#7994D1"></path> <path d="M25.1631 150.199C27.0567 149.577 29.0757 149.441 31.0355 149.802C32.988 150.162 34.9071 150.684 36.7732 151.363C36.5828 150.084 35.5519 149.127 34.5804 148.277C33.8716 147.612 33.1 147.017 32.2766 146.502C31.4468 145.975 30.4832 145.699 29.501 145.707C28.9157 145.745 28.344 145.9 27.82 146.165C27.2961 146.429 26.8307 146.796 26.4518 147.244C25.7095 148.057 25.2516 149.09 25.1472 150.187" fill="#7994D1"></path> <path d="M17.6213 146.132C15.3057 144.147 11.8044 144.349 8.76309 144.417C13.6477 146.751 18.2551 149.627 22.4985 152.991C22.6214 150.839 20.5437 148.631 17.6213 146.132Z" fill="#7994D1"></path> <g opacity="0.3"> <path d="M17.6213 146.132C15.3057 144.147 11.8044 144.349 8.76309 144.417C13.6477 146.751 18.2551 149.627 22.4985 152.991C22.6214 150.839 20.5437 148.631 17.6213 146.132Z" fill="black"></path> </g> <path d="M26.202 143.404C27.3342 142.618 28.5276 141.925 29.7707 141.331C30.988 140.779 32.126 139.897 33.2997 139.258C34.8263 138.431 36.1467 137.272 37.5464 136.255C38.9461 135.238 40.4846 134.305 42.1936 134.035C40.7838 133.783 39.3348 133.866 37.9628 134.277C36.6027 134.691 35.2769 135.21 33.9976 135.83C32.1934 136.644 30.3575 137.478 28.8825 138.801C27.4074 140.123 26.0751 141.426 26.2298 143.404" fill="#7994D1"></path> <path d="M36.0832 159.029C36.0417 159.016 36.0017 158.999 35.9643 158.977L35.6431 158.81C35.3695 158.663 34.969 158.445 34.4535 158.191C34.2077 158.06 33.9341 157.925 33.6367 157.794C33.3393 157.663 33.0181 157.504 32.6811 157.357C31.9516 157.025 31.1939 156.759 30.417 156.562C29.6489 156.348 28.8396 156.327 28.0616 156.503C27.7212 156.576 27.3871 156.675 27.0624 156.801C26.3727 157.081 25.7517 157.508 25.2424 158.052C25.0283 158.282 24.9252 158.421 24.9172 158.413C24.9353 158.375 24.9579 158.339 24.9846 158.306C25.0524 158.206 25.1266 158.11 25.2067 158.02C25.4949 157.679 25.8316 157.382 26.2059 157.138C26.4625 156.965 26.7362 156.819 27.0228 156.701C27.3505 156.568 27.6887 156.462 28.0339 156.384C28.8304 156.2 29.66 156.216 30.4487 156.431C31.2308 156.628 31.9938 156.893 32.7287 157.226C33.0697 157.377 33.3869 157.524 33.6843 157.674C33.9817 157.825 34.2513 157.96 34.4971 158.099C34.9928 158.362 35.3853 158.592 35.655 158.755L35.9643 158.941C36.0076 158.965 36.0476 158.994 36.0832 159.029Z" fill="#263238"></path> <path d="M20.9838 157.201C21.0633 157.213 21.1408 157.235 21.2138 157.269C21.4184 157.344 21.6184 157.432 21.8125 157.531C23.108 158.187 24.1781 159.216 24.8856 160.486C24.9908 160.676 25.0848 160.872 25.1671 161.074C25.2266 161.217 25.2543 161.3 25.2424 161.3C25.2305 161.3 25.0878 160.998 24.8023 160.534C24.0653 159.31 23.0189 158.303 21.7689 157.614C21.2931 157.348 20.9759 157.225 20.9838 157.201Z" fill="#263238"></path> <path d="M12.8551 145.95L13.0097 145.994L13.4538 146.153L14.1478 146.411C14.4174 146.51 14.7148 146.661 15.0479 146.808C16.7693 147.607 18.3763 148.632 19.8259 149.858C20.618 150.541 21.3638 151.276 22.0583 152.059C22.6888 152.789 23.2241 153.472 23.6444 154.068C24.0647 154.664 24.3819 155.16 24.6 155.502L24.8498 155.899C24.8836 155.943 24.9116 155.991 24.9331 156.042C24.8956 156.002 24.8612 155.96 24.83 155.915C24.7665 155.828 24.6714 155.701 24.5564 155.518C24.3264 155.184 23.9973 154.7 23.5691 154.112C23.1408 153.524 22.6055 152.849 21.983 152.126C21.2879 151.352 20.5449 150.622 19.7585 149.942C18.3137 148.725 16.7218 147.694 15.0201 146.876C14.691 146.725 14.3976 146.57 14.1319 146.478L13.4459 146.2L13.0137 146.022C12.9586 146.003 12.9055 145.979 12.8551 145.95Z" fill="#263238"></path> <path d="M30.6748 148.142C30.5759 148.138 30.4777 148.125 30.3813 148.102L30.0443 148.039C29.9134 148.015 29.7588 148.015 29.5923 147.995C28.9194 147.931 28.2408 148.018 27.6057 148.25C26.9706 148.481 26.3949 148.851 25.9205 149.334C25.6391 149.61 25.3903 149.918 25.179 150.251C24.9881 150.56 24.8199 150.883 24.6754 151.216C24.6852 151.116 24.7107 151.018 24.7508 150.926C24.8437 150.673 24.9606 150.43 25.0997 150.199C25.3039 149.854 25.5503 149.535 25.8333 149.25C26.1775 148.89 26.5796 148.591 27.0228 148.365C27.8203 147.95 28.7235 147.784 29.616 147.888C29.7866 147.912 29.9412 147.92 30.072 147.951L30.4091 148.039C30.5021 148.06 30.5916 148.095 30.6748 148.142Z" fill="#263238"></path> <path d="M34.3703 136.652C34.3259 136.686 34.2781 136.716 34.2276 136.74L33.831 136.962C33.4742 137.153 32.9627 137.439 32.3401 137.804C31.7176 138.169 30.988 138.638 30.2108 139.194C29.3613 139.785 28.5652 140.449 27.8317 141.18C27.4557 141.556 27.1293 141.979 26.8602 142.439C26.6064 142.911 26.3765 143.376 26.1703 143.773C25.7903 144.531 25.4501 145.308 25.1512 146.101C24.9513 146.638 24.7831 147.187 24.6476 147.745C24.5564 148.142 24.5208 148.361 24.5089 148.357C24.5027 148.302 24.5027 148.248 24.5089 148.194C24.5089 148.09 24.5445 147.932 24.5842 147.733C24.6959 147.169 24.8497 146.614 25.0442 146.073C25.3317 145.27 25.6653 144.485 26.0434 143.722C26.2535 143.293 26.4796 142.84 26.7175 142.375C26.9904 141.903 27.3252 141.468 27.7127 141.084C28.4448 140.352 29.241 139.688 30.0919 139.099C30.8849 138.543 31.6145 138.094 32.245 137.728C32.8754 137.363 33.3949 137.101 33.7597 136.934L34.18 136.732C34.2402 136.698 34.3041 136.671 34.3703 136.652Z" fill="#263238"></path> <path d="M24.0648 147.797C24.0294 147.697 24.0055 147.593 23.9934 147.487C23.9498 147.261 23.8943 146.975 23.8309 146.637C23.655 145.704 23.4233 144.782 23.137 143.877C22.8402 142.974 22.4893 142.089 22.0862 141.228L21.7293 140.434C21.6801 140.34 21.6403 140.241 21.6104 140.14C21.6756 140.224 21.7302 140.316 21.7729 140.414C21.8721 140.592 22.0069 140.855 22.1694 141.184C22.599 142.037 22.9636 142.921 23.2599 143.829C23.5506 144.738 23.772 145.667 23.9221 146.609C23.9815 146.971 24.0212 147.265 24.041 147.467C24.0604 147.576 24.0683 147.687 24.0648 147.797Z" fill="#263238"></path> <path d="M23.7912 139.424C23.6766 138.032 23.2713 136.679 22.6016 135.453C21.6956 133.765 20.431 132.297 18.8971 131.151C17.3632 130.006 15.5972 129.212 13.7235 128.824C16.4701 132.912 19.21 137 21.9434 141.088L22.9981 143.277C23.6673 142.111 23.9453 140.76 23.7912 139.424Z" fill="#7994D1"></path> <path d="M35.5876 163.6H16.4793V166.991H35.5876V163.6Z" fill="#FFA808"></path> <path d="M17.9068 166.32L19.5326 176.845H32.2172L34.1602 166.32H17.9068Z" fill="#FFA808"></path> <path d="M35.5757 166.999C35.5757 167.035 31.2656 167.063 25.9482 167.063C20.6309 167.063 16.3247 167.035 16.3247 166.999C16.3247 166.963 20.6309 166.932 25.9482 166.932C31.2656 166.932 35.5757 166.959 35.5757 166.999Z" fill="#263238"></path> <path d="M81.6156 176.817H114.4V151.49H81.6156V176.817Z" fill="#FFA808"></path> <path d="M84.3992 173.898H86.9131V171.051H84.3992V173.898Z" fill="#F6DAA0"></path> <g opacity="0.3"> <path d="M104.4 151.554H100.676V156.959H104.4V151.554Z" fill="white"></path> </g> <g opacity="0.3"> <path d="M104.4 171.337H100.676V176.742H104.4V171.337Z" fill="white"></path> </g> <path d="M89.7998 176.992C89.7006 176.992 89.6213 171.431 89.6213 164.549C89.6213 157.666 89.7006 152.109 89.7998 152.109C89.8989 152.109 89.9822 157.67 89.9822 164.549C89.9822 171.427 89.8989 176.992 89.7998 176.992Z" fill="#263238"></path> <path d="M25.4724 19.6719H23.5215V95.0575H25.4724V19.6719Z" fill="#263238"></path> <path d="M28.704 19.6719H27.0505V95.0575H28.704V19.6719Z" fill="#263238"></path> <path d="M36.686 19.6719H30.6193V81.9869H36.686V19.6719Z" fill="#263238"></path> <path d="M39.7194 19.6719H38.2245V81.9869H39.7194V19.6719Z" fill="#263238"></path> <path d="M44.6322 19.6719H43.1373V81.9869H44.6322V19.6719Z" fill="#263238"></path> <path d="M51.0399 19.6719H49.545V81.9869H51.0399V19.6719Z" fill="#263238"></path> <path d="M56.3771 19.6719H54.8822V81.9869H56.3771V19.6719Z" fill="#263238"></path> <path d="M73.7922 19.6719H72.2974V81.9869H73.7922V19.6719Z" fill="#263238"></path> <path d="M101.148 19.6719H97.9204V92.7977H101.148V19.6719Z" fill="#263238"></path> <path d="M116.842 19.6719H115.348V81.9869H116.842V19.6719Z" fill="#263238"></path> <path d="M123.361 19.6719H121.866V81.9869H123.361V19.6719Z" fill="#263238"></path> <path d="M130.498 19.5722H126.835V96.2725H130.498V19.5722Z" fill="#263238"></path> <path d="M88.1859 19.6719H86.691V81.9869H88.1859V19.6719Z" fill="#263238"></path> <path d="M67.2854 19.6719H64.2203V81.9869H67.2854V19.6719Z" fill="#263238"></path> <path d="M79.9859 19.6719H76.9208V81.9869H79.9859V19.6719Z" fill="#263238"></path> <path d="M84.8234 19.6719H81.7583V81.9869H84.8234V19.6719Z" fill="#263238"></path> <path d="M107.707 19.6719H104.641V81.9869H107.707V19.6719Z" fill="#263238"></path> <path d="M112.342 19.6719H109.277V81.9869H112.342V19.6719Z" fill="#263238"></path> <path d="M95.8665 19.6719H90.1051V81.9869H95.8665V19.6719Z" fill="#263238"></path> <path d="M62.5708 19.6719H57.8483V81.9869H62.5708V19.6719Z" fill="#263238"></path> <path d="M37.2728 85.3906V98.7472H35.8969V86.6179H32.7565V85.3906H37.2728Z" fill="#263238"></path> <path d="M50.0209 93.0075C50.4778 93.5803 50.7179 94.2962 50.699 95.0291C50.7142 95.7562 50.4929 96.4685 50.0685 97.0586C49.6095 97.6689 48.9844 98.1336 48.2683 98.397C47.3885 98.7242 46.4548 98.8819 45.5165 98.8617C43.9304 98.8617 42.6734 98.5188 41.7456 97.8331C41.3044 97.5147 40.9483 97.0923 40.709 96.6032C40.4697 96.1141 40.3545 95.5734 40.3736 95.0291C40.352 94.2955 40.5845 93.5769 41.0318 92.9956C41.5332 92.3995 42.1996 91.9655 42.947 91.7485C42.3222 91.5292 41.7778 91.1265 41.3848 90.5928C41.0214 90.0705 40.8339 89.4458 40.8494 88.8095C40.8342 88.3092 40.942 87.8129 41.1632 87.3641C41.3845 86.9153 41.7125 86.5279 42.1183 86.2359C43.116 85.5531 44.3097 85.2169 45.5165 85.2787C46.3572 85.2619 47.1932 85.4075 47.9789 85.7076C48.6315 85.9579 49.2024 86.384 49.6284 86.9389C50.0235 87.4813 50.231 88.1381 50.2192 88.8095C50.2339 89.4487 50.0389 90.0752 49.6641 90.5928C49.2583 91.1238 48.7073 91.5253 48.078 91.7485C48.8343 91.9695 49.5097 92.4071 50.0209 93.0075ZM48.2882 96.9792C48.6056 96.7613 48.8634 96.4672 49.038 96.1238C49.2126 95.7803 49.2983 95.3985 49.2874 95.0132C49.2989 94.6295 49.2133 94.2492 49.0386 93.9075C48.8639 93.5659 48.6057 93.274 48.2882 93.0591C47.4598 92.5372 46.4895 92.2872 45.5125 92.3443C44.5433 92.2896 43.5812 92.5395 42.7607 93.0591C42.4525 93.2852 42.202 93.5809 42.0292 93.9221C41.8565 94.2633 41.7665 94.6405 41.7665 95.0231C41.7665 95.4057 41.8565 95.7829 42.0292 96.1241C42.202 96.4654 42.4525 96.761 42.7607 96.9871C43.5875 97.5126 44.559 97.7628 45.5363 97.702C46.5069 97.7542 47.4694 97.5 48.2882 96.9752V96.9792ZM43.0977 90.6245C43.8138 91.0945 44.6618 91.3214 45.5165 91.2719C46.3736 91.3209 47.2239 91.094 47.9432 90.6245C48.2235 90.4319 48.4516 90.1724 48.6066 89.8693C48.7617 89.5663 48.8389 89.2294 48.8314 88.8889C48.8421 88.5407 48.7648 88.1954 48.6068 87.8851C48.4488 87.5747 48.215 87.3094 47.9273 87.1136C47.2121 86.648 46.3685 86.4201 45.5165 86.4623C44.6641 86.4168 43.8195 86.645 43.1056 87.1136C42.8325 87.3173 42.6106 87.5821 42.4578 87.8868C42.3049 88.1916 42.2253 88.528 42.2253 88.8691C42.2253 89.2101 42.3049 89.5465 42.4578 89.8513C42.6106 90.1561 42.8325 90.4209 43.1056 90.6245H43.0977Z" fill="#263238"></path> <path d="M60.8102 87.0265C61.7486 88.1915 62.2192 89.8358 62.2218 91.9593C62.2591 93.2604 61.9973 94.5527 61.4565 95.7363C60.9975 96.7129 60.2537 97.5271 59.3233 98.0716C58.3463 98.6173 57.2416 98.8915 56.1234 98.866C55.0197 98.9225 53.9219 98.6723 52.9512 98.1431L53.5024 97.035C54.2865 97.495 55.1881 97.7145 56.0956 97.6665C56.7404 97.7 57.3846 97.5918 57.9833 97.3496C58.5819 97.1074 59.1205 96.7371 59.5612 96.2645C60.3978 95.3272 60.8181 93.9729 60.8181 92.1896C60.8181 91.86 60.8181 91.4986 60.7587 91.1014C60.4308 91.8252 59.8732 92.4201 59.1726 92.7933C58.4054 93.2018 57.5472 93.4082 56.6785 93.393C55.8724 93.4079 55.0736 93.2381 54.343 92.8966C53.6924 92.5891 53.1424 92.1029 52.7569 91.4946C52.368 90.8613 52.1697 90.129 52.1859 89.3857C52.1726 88.625 52.3776 87.8764 52.7767 87.2291C53.1722 86.6041 53.7376 86.1053 54.4064 85.7913C55.1343 85.4446 55.9321 85.2706 56.738 85.283C58.5144 85.2803 59.8718 85.8615 60.8102 87.0265ZM58.6849 91.8441C59.176 91.6118 59.5943 91.2492 59.8943 90.7956C60.1867 90.3545 60.34 89.8357 60.3344 89.3062C60.341 88.8065 60.2033 88.3155 59.9379 87.8923C59.6421 87.4425 59.2313 87.0805 58.7483 86.8438C58.1519 86.5651 57.499 86.4291 56.8411 86.4467C55.986 86.4097 55.1478 86.6929 54.4897 87.241C54.1917 87.5028 53.9558 87.8281 53.7994 88.193C53.643 88.5579 53.5699 88.9531 53.5856 89.3499C53.5692 89.7451 53.6419 90.1388 53.7984 90.5019C53.955 90.865 54.1912 91.188 54.4897 91.4469C55.1808 92.0024 56.0512 92.285 56.9362 92.2413C57.5417 92.2444 58.1399 92.1085 58.6849 91.8441Z" fill="#263238"></path> <path d="M67.8564 85.3906V98.7472H66.4844V86.6179H63.344V85.3906H67.8564Z" fill="#263238"></path> <path d="M78.7606 91.9121C79.1975 92.2552 79.5458 92.6983 79.7762 93.2042C80.0067 93.71 80.1126 94.2639 80.085 94.8193C80.0975 95.5522 79.9097 96.2747 79.5418 96.9084C79.1546 97.5403 78.5868 98.0412 77.9121 98.3461C77.0746 98.7195 76.1638 98.8987 75.2475 98.8704C74.322 98.8748 73.4029 98.7175 72.5313 98.4057C71.7603 98.1435 71.0554 97.7166 70.4655 97.1546L71.1316 96.0664C71.6294 96.5596 72.2271 96.9402 72.8842 97.1824C73.6313 97.4723 74.4265 97.6179 75.2277 97.6114C76.1418 97.6704 77.0479 97.4077 77.7892 96.8687C78.0835 96.6307 78.3185 96.3274 78.4754 95.9827C78.6323 95.638 78.7069 95.2614 78.6932 94.8828C78.7162 94.478 78.6345 94.0741 78.456 93.7102C78.2775 93.3463 78.0082 93.0348 77.6742 92.8057C76.9961 92.337 75.8502 92.0987 74.2364 92.0987H71.4012L72.0872 85.3906H79.3792V86.6139H73.2847L72.8287 90.8675H74.5456C76.4754 90.8702 77.8804 91.2183 78.7606 91.9121Z" fill="#263238"></path> <path d="M84.3793 98.0439C83.5394 97.4556 82.8856 96.6382 82.4959 95.6887C81.592 93.3629 81.592 90.7821 82.4959 88.4563C82.8856 87.5068 83.5394 86.6894 84.3793 86.1011C85.1972 85.5648 86.1536 85.2791 87.1312 85.2791C88.1088 85.2791 89.0651 85.5648 89.883 86.1011C90.7254 86.6898 91.3829 87.5068 91.7784 88.4563C92.6932 90.78 92.6932 93.365 91.7784 95.6887C91.3829 96.6382 90.7254 97.4552 89.883 98.0439C89.0642 98.5778 88.1082 98.862 87.1312 98.862C86.1541 98.862 85.1981 98.5778 84.3793 98.0439ZM89.1812 96.9556C89.8087 96.4689 90.2869 95.8151 90.5611 95.0691C91.2218 93.1262 91.2218 91.0188 90.5611 89.0759C90.2869 88.3299 89.8087 87.6761 89.1812 87.1894C88.581 86.7681 87.866 86.5422 87.1332 86.5422C86.4003 86.5422 85.6853 86.7681 85.0851 87.1894C84.4554 87.674 83.9767 88.3284 83.7053 89.0759C83.0445 91.0188 83.0445 93.1262 83.7053 95.0691C83.9767 95.8166 84.4554 96.471 85.0851 96.9556C85.6853 97.3769 86.4003 97.6029 87.1332 97.6029C87.866 97.6029 88.581 97.3769 89.1812 96.9556Z" fill="#263238"></path> <path d="M113.94 85.2512V86.1846L108.646 97.9485H107.235L112.449 86.4308H105.918V88.8138H104.634V85.2751L113.94 85.2512Z" fill="#263238"></path> <path d="M124.313 96.7844V97.9481H115.423V97.0227L120.693 91.8596C121.229 91.3712 121.684 90.8 122.041 90.1677C122.267 89.7206 122.388 89.2273 122.394 88.726C122.411 88.3942 122.35 88.0631 122.216 87.759C122.083 87.4549 121.88 87.1863 121.624 86.9745C120.985 86.518 120.208 86.2964 119.424 86.347C117.941 86.347 116.788 86.8196 115.966 87.7648L115.042 86.9705C115.556 86.3772 116.205 85.9167 116.934 85.6281C117.762 85.3024 118.645 85.1419 119.535 85.1555C120.632 85.0955 121.716 85.4199 122.6 86.0729C122.973 86.3722 123.27 86.7556 123.467 87.1918C123.664 87.628 123.756 88.1047 123.734 88.583C123.733 89.2368 123.584 89.8819 123.298 90.4695C122.869 91.247 122.313 91.9465 121.652 92.5388L117.342 96.7805L124.313 96.7844Z" fill="#263238"></path> <path d="M101.485 54.6934L93.5667 63.6495L104.344 67.7641L112.334 57.9978L101.485 54.6934Z" fill="#FFA808"></path> <path d="M112.334 57.9863C112.334 57.9863 135.205 81.7764 134.987 81.9234C134.769 82.0703 128.246 89.9262 128.246 89.9262L104.348 67.7526L112.334 57.9863Z" fill="#FFA808"></path> <path d="M93.5667 63.6495L116.367 85.6047L128.242 89.9377L104.344 67.7641L93.5667 63.6495Z" fill="#FFA808"></path> <g opacity="0.3"> <path d="M93.5667 63.6495L116.367 85.6047L128.242 89.9377L104.344 67.7641L93.5667 63.6495Z" fill="black"></path> </g> <g opacity="0.3"> <path d="M101.485 54.6934L93.5667 63.6495L104.344 67.7641L112.334 57.9978L101.485 54.6934Z" fill="white"></path> </g> <path d="M123.615 69.7022C123.615 69.7022 126.224 69.8015 126.517 70.0994C126.811 70.3973 129.127 75.064 129.127 75.064L129.92 75.5604L130.142 82.5227L123.207 83.1343L120.871 84.5284L118.563 84.3179C118.373 84.3114 118.191 84.2363 118.051 84.1065C117.911 83.9767 117.823 83.8007 117.802 83.6109L117.616 82.1136C117.616 82.1136 118.567 81.8912 118.805 82.5743L118.892 82.896L120.169 82.9874L121.533 81.9786L121.624 81.4424L117.172 81.7403L115.332 80.4336C115.332 80.4336 116.125 79.4447 116.918 79.8577C117.127 79.9407 117.33 80.0389 117.524 80.1516L121.244 79.2739L114.067 79.3454C114.046 79.1485 114.068 78.9495 114.131 78.7618C114.194 78.5741 114.296 78.4022 114.431 78.2576C114.566 78.1129 114.731 77.9991 114.913 77.9236C115.096 77.8482 115.293 77.8129 115.49 77.8203C116.589 77.7885 119.376 77.4906 119.376 77.4906C119.376 77.4906 121.513 77.3119 121.601 76.601C121.688 75.89 115.566 74.2696 115.268 73.4753C114.971 72.681 115.328 71.9303 116.751 72.3752C118.175 72.82 122.271 74.5754 123.429 74.4881C124.586 74.4007 125.625 73.3561 125.685 72.8994C125.744 72.4427 125.09 71.0288 125.09 71.0288C125.09 71.0288 123.508 70.9374 123.615 69.7022Z" fill="#FFBF9D"></path> <path d="M104.701 55.6701C104.598 55.6384 101.553 59.1096 101.553 59.1096L103.892 59.8245L107.183 56.4287L104.701 55.6701Z" fill="white"></path> <path d="M97.635 65.2024C97.5914 65.1626 99.4193 63.0656 101.719 60.5158C104.019 57.966 105.914 55.9326 105.954 55.9683C105.994 56.004 104.17 58.105 101.87 60.6548C99.57 63.2046 97.6746 65.2421 97.635 65.2024Z" fill="#263238"></path> <path d="M121.375 87.4319C121.335 87.4756 115.99 82.6342 109.435 76.6251C102.881 70.616 97.5953 65.7071 97.635 65.6634C97.6746 65.6197 103.016 70.4611 109.574 76.4742C116.133 82.4872 121.414 87.3763 121.375 87.4319Z" fill="#263238"></path> <path d="M132.223 57.7797L133.25 58.9712C133.326 64.7817 139.234 72.8719 139.234 72.8719L142.35 59.6861L141.22 54.658L137.83 54.2608L136.498 52.4775L132.223 57.7797Z" fill="#7994D1"></path> <path d="M126.989 45.1853C125.764 45.5507 123.956 47.4253 122.39 49.1569C121.64 49.995 122.049 51.4645 122.846 52.2588L123.865 53.2795C124.205 53.6208 124.651 53.8364 125.13 53.8911C125.689 53.951 126.249 53.7868 126.688 53.4344L127.398 52.8665C127.825 52.5244 128.368 52.3607 128.913 52.4095C129.458 52.4583 129.964 52.7159 130.324 53.1286L133.27 56.5283C133.462 56.7496 133.698 56.9287 133.963 57.0542C134.228 57.1797 134.516 57.2489 134.809 57.2575C135.101 57.2661 135.393 57.2138 135.664 57.1041C135.936 56.9943 136.182 56.8294 136.387 56.6197C136.751 56.2476 136.965 55.7542 136.988 55.234C137.011 54.7138 136.843 54.2032 136.514 53.7998L129.939 45.6977C129.766 45.4821 129.551 45.3026 129.309 45.1694C128.845 44.9192 128.135 44.8437 126.989 45.1853Z" fill="#FFA808"></path> <path d="M126.763 53.3907C127.087 53.6575 127.438 53.8892 127.81 54.0818C127.81 54.0818 127.227 54.9039 127.786 55.4639C128.158 55.8114 128.627 56.036 129.131 56.1073C129.109 56.4366 129.208 56.7624 129.408 57.0241C129.609 57.2857 129.898 57.4653 130.221 57.5292C131.411 57.8112 134.721 57.3266 134.836 57.0208C134.951 56.715 135.233 55.8929 134.472 55.7062C133.878 55.5854 133.273 55.5242 132.667 55.5235C132.667 55.5235 134.254 54.9397 133.306 53.6767C132.878 53.1008 130.966 53.6767 130.966 53.6767L129.531 53.8395C129.531 53.8395 130.843 52.9141 129.82 51.9848C129.746 51.9003 129.655 51.8326 129.552 51.7862C129.449 51.7398 129.338 51.7159 129.226 51.7159C129.113 51.7159 129.002 51.7398 128.899 51.7862C128.797 51.8326 128.705 51.9003 128.631 51.9848L126.763 53.3907Z" fill="#FFBF9D"></path> <path d="M132.568 51.055C132.568 51.055 131.411 50.9041 131.676 50.1931C132.069 49.3614 132.591 48.5973 133.223 47.9293C133.366 47.7451 133.561 47.6073 133.783 47.5332C134.004 47.459 134.242 47.4518 134.468 47.5123C134.825 47.6632 136.054 48.5846 136.252 49.657C136.45 50.7293 136.668 51.9764 136.49 52.4808C136.396 52.7556 136.278 53.0214 136.137 53.2751L134.095 50.7611C134.095 50.7611 133.056 51.19 132.568 51.055Z" fill="#FFBF9D"></path> <path d="M128.282 52.2545C128.323 52.0405 128.387 51.8315 128.472 51.6309C128.464 51.4039 128.396 51.1831 128.274 50.9915C128.086 50.7543 127.879 50.5325 127.655 50.3282L126.03 48.684C125.819 48.4922 125.561 48.3596 125.283 48.2996C125.004 48.2397 124.715 48.2544 124.444 48.3424C124.207 48.4247 123.987 48.5514 123.797 48.7157L123.266 49.1367L122.505 49.7603C122.322 49.9072 122.231 49.9906 122.223 49.9867C122.491 49.6217 122.81 49.2979 123.171 49.0255C123.329 48.8865 123.504 48.7356 123.694 48.5807C123.895 48.4034 124.13 48.2683 124.384 48.1835C124.685 48.0819 125.008 48.0625 125.319 48.1275C125.629 48.1924 125.917 48.3393 126.153 48.5529C126.759 49.1606 127.295 49.7444 127.766 50.2249C127.994 50.4429 128.201 50.6808 128.385 50.9359C128.508 51.1535 128.568 51.4009 128.56 51.6508C128.492 51.8627 128.399 52.0655 128.282 52.2545Z" fill="#263238"></path> <path d="M130.895 49.6455C130.647 50.0874 130.32 50.4803 129.932 50.8052C129.592 51.1786 129.189 51.4892 128.742 51.7226C129.059 51.3353 129.412 50.9789 129.797 50.6582C130.131 50.288 130.499 49.949 130.895 49.6455Z" fill="#263238"></path> <path d="M130.058 53.7601C129.707 53.9206 129.329 54.0161 128.944 54.0421C128.568 54.1353 128.179 54.1608 127.794 54.1175C128.148 53.9588 128.526 53.8634 128.912 53.8356C129.287 53.7448 129.675 53.7192 130.058 53.7601Z" fill="#FF9A6C"></path> <path d="M133.016 55.4282C131.807 56.0215 130.461 56.2793 129.119 56.1748C129.119 56.1153 130.007 56.0716 131.077 55.8611C132.148 55.6506 132.997 55.3686 133.016 55.4282Z" fill="#FF9A6C"></path> <path d="M135.007 49.1572C135.049 49.3419 135.047 49.5338 135.002 49.7177C134.958 49.9017 134.871 50.0728 134.749 50.2177C134.657 50.3834 134.53 50.5262 134.375 50.6356C134.221 50.7449 134.044 50.8179 133.857 50.8491C133.829 50.7935 134.254 50.5791 134.579 50.1025C134.748 49.7999 134.891 49.4837 135.007 49.1572Z" fill="#FF9A6C"></path> <path d="M122.953 50.8367C122.953 50.8367 124.456 52.9536 125.13 52.9933C125.605 53.0211 126.319 52.1791 126.716 51.6747C126.792 51.5748 126.828 51.4505 126.819 51.3253C126.809 51.2001 126.754 51.0828 126.664 50.9956L125.034 49.4069L124.638 49.3076L122.953 50.8367Z" fill="#263238"></path> <g opacity="0.6"> <path d="M123.032 50.7857L113.119 58.7925L122.386 68.4674L126.783 51.584C126.822 51.4986 126.836 51.4042 126.825 51.311C126.814 51.2179 126.777 51.1296 126.72 51.0558L125.042 49.4274L124.646 49.3281L123.036 50.7857H123.032Z" fill="white"></path> </g> <path d="M160.142 24.0319L159.044 42.4961C158.858 45.6337 157.946 50.209 153.001 49.6847C148.75 48.8904 147.906 44.7639 148.08 41.8328C148.167 40.4427 148.235 39.287 148.231 39.14C148.231 39.14 143.568 38.4212 143.504 33.7505C143.477 31.4907 143.79 26.8359 144.127 22.6299C144.3 20.45 145.287 18.4154 146.89 16.931C148.493 15.4466 150.596 14.6212 152.779 14.6191H153.231C158.08 14.9011 160.555 19.1826 160.142 24.0319Z" fill="#FFBF9D"></path> <path d="M148.231 39.1361C150.385 39.1293 152.492 38.5034 154.302 37.333C154.302 37.333 152.827 40.7486 148.171 40.3316L148.231 39.1361Z" fill="#FF9A6C"></path> <path d="M151.914 25.1004C151.998 25.1997 152.565 24.8065 153.342 24.8422C154.119 24.878 154.674 25.3029 154.761 25.2076C154.849 25.1123 154.722 24.9892 154.48 24.8105C154.155 24.5615 153.759 24.4224 153.35 24.4133C152.944 24.3937 152.543 24.5081 152.208 24.739C151.958 24.882 151.867 25.0567 151.914 25.1004Z" fill="#263238"></path> <path d="M151.605 27.3609C151.603 27.5253 151.665 27.684 151.779 27.8029C151.892 27.9217 152.048 27.9912 152.212 27.9964C152.292 28.0029 152.373 27.9932 152.449 27.968C152.525 27.9428 152.596 27.9026 152.657 27.8497C152.717 27.7967 152.767 27.7322 152.802 27.6599C152.837 27.5875 152.858 27.5088 152.862 27.4284C152.864 27.2634 152.801 27.1041 152.687 26.9851C152.573 26.8662 152.416 26.7971 152.252 26.793C152.172 26.7865 152.091 26.7962 152.015 26.8214C151.939 26.8466 151.869 26.8869 151.808 26.9399C151.748 26.9929 151.699 27.0574 151.664 27.1298C151.629 27.2021 151.609 27.2807 151.605 27.3609Z" fill="#263238"></path> <path d="M149.579 30.3711C149.201 30.2526 148.809 30.1819 148.413 30.1606C148.231 30.1606 148.056 30.105 148.017 29.9819C148.001 29.7927 148.042 29.603 148.136 29.4378C148.31 28.993 148.489 28.5283 148.675 28.0437C149.428 26.0579 149.968 24.4176 149.888 24.3898C149.809 24.362 149.135 25.9467 148.386 27.9365L147.902 29.3385C147.785 29.5603 147.751 29.8167 147.807 30.0613C147.833 30.1258 147.874 30.1833 147.926 30.2294C147.979 30.2755 148.041 30.3091 148.108 30.3274C148.209 30.3535 148.313 30.3681 148.417 30.3711C148.803 30.4174 149.193 30.4174 149.579 30.3711Z" fill="#263238"></path> <path d="M151.903 22.6383C151.982 22.8091 152.6 22.6622 153.35 22.6781C154.099 22.6939 154.714 22.8449 154.797 22.6781C154.833 22.5986 154.71 22.4437 154.452 22.2809C154.113 22.1037 153.736 22.0086 153.354 22.0031C152.971 21.9976 152.592 22.0818 152.248 22.2491C151.99 22.404 151.867 22.5549 151.903 22.6383Z" fill="#4D4D4D"></path> <path d="M144.841 22.9287C144.912 23.0717 145.531 22.9604 146.264 22.9922C146.998 23.024 147.604 23.159 147.692 23.02C147.731 22.9525 147.62 22.8175 147.37 22.6864C147.037 22.522 146.671 22.4339 146.3 22.4282C145.923 22.4121 145.548 22.4757 145.197 22.6149C144.936 22.7301 144.809 22.8572 144.841 22.9287Z" fill="#4D4D4D"></path> <path d="M159.766 27.4917C159.845 27.4599 162.969 26.5425 162.87 29.7357C162.771 32.9288 159.591 32.1703 159.587 32.0789C159.583 31.9876 159.766 27.4917 159.766 27.4917Z" fill="#FFBF9D"></path> <path d="M160.59 30.8996C160.59 30.8996 160.646 30.9393 160.737 30.987C160.871 31.0391 161.019 31.0391 161.153 30.987C161.494 30.8718 161.792 30.3476 161.827 29.7717C161.842 29.5005 161.797 29.2295 161.697 28.9773C161.67 28.8778 161.62 28.786 161.551 28.7094C161.482 28.6328 161.396 28.5735 161.3 28.5365C161.237 28.5188 161.169 28.5233 161.108 28.5493C161.048 28.5753 160.998 28.6212 160.967 28.6795C160.923 28.7668 160.939 28.8344 160.923 28.8383C160.908 28.8423 160.856 28.7827 160.884 28.6517C160.904 28.5719 160.952 28.5017 161.019 28.4531C161.108 28.3893 161.219 28.3636 161.328 28.3816C161.457 28.4133 161.577 28.4772 161.675 28.5674C161.774 28.6577 161.848 28.7713 161.891 28.8979C162.018 29.1763 162.076 29.4818 162.057 29.7876C162.018 30.431 161.661 31.0227 161.205 31.1419C161.118 31.1644 161.028 31.1671 160.94 31.1499C160.852 31.1328 160.769 31.0961 160.697 31.0426C160.59 30.979 160.59 30.9036 160.59 30.8996Z" fill="#FF9A6C"></path> <path d="M164.361 22.6386C163.782 21.467 163.723 20.1166 163.449 18.8378C163.176 17.5589 162.573 16.2165 161.383 15.6883H161.356C160.285 15.164 158.929 15.0608 157.969 15.7598C157.866 14.0877 156.51 12.6738 154.928 12.1337C153.346 11.5935 150.741 11.661 149.151 12.1734C147.918 12.5705 146.692 13.4721 145.186 14.8225C144.546 15.3921 143.954 16.0138 143.417 16.6812L141.7 20.9189L142.747 23.282C142.806 23.4457 142.873 23.6061 142.949 23.7626L143.687 28.6358C143.849 27.3331 144.083 22.7776 144.242 21.4869C145.226 21.5293 146.208 21.3717 147.129 21.0236C148.051 20.6755 148.892 20.144 149.603 19.4613C150.372 18.7226 151.003 17.7734 151.982 17.3683C153.255 16.848 154.69 17.4 155.947 17.9442L155.896 17.8886C156.549 18.2507 157.127 18.7362 157.597 19.3183C157.128 21.8693 157.211 24.4911 157.839 27.0074C157.934 27.4046 158.211 28.1751 158.564 28.3419C159.258 28.6676 159.5 27.9447 159.96 27.5992C160.358 27.3646 160.827 27.284 161.28 27.3728C161.714 26.3153 162.084 25.2332 162.391 24.132C162.813 24.2972 163.268 24.3598 163.719 24.3147L163.366 23.3138C163.528 23.4515 163.717 23.5543 163.921 23.6157C164.023 23.6434 164.131 23.6392 164.23 23.6037C164.329 23.5682 164.415 23.5031 164.476 23.4171C164.627 23.1828 164.484 22.8889 164.361 22.6386Z" fill="#4D4D4D"></path> <path d="M156.467 16.2003C156.625 16.34 156.77 16.4927 156.903 16.6571C157.236 17.1257 157.443 17.6731 157.501 18.2457C157.554 18.6406 157.566 19.0399 157.537 19.4372C157.509 19.8661 157.442 20.3189 157.375 20.7995C157.294 21.3029 157.245 21.811 157.228 22.3206C157.225 22.5862 157.241 22.8516 157.275 23.1149C157.296 23.399 157.391 23.6727 157.549 23.9093C157.623 24.0058 157.721 24.0814 157.833 24.1287C157.945 24.1761 158.067 24.1935 158.187 24.1793C158.417 24.1527 158.632 24.0508 158.798 23.8894C159.074 23.5596 159.258 23.162 159.329 22.7376H159.23C159.346 23.0973 159.513 23.4384 159.726 23.7504C159.934 24.0396 160.245 24.2385 160.594 24.3064C160.757 24.3347 160.924 24.3182 161.078 24.2588C161.22 24.1966 161.341 24.0928 161.423 23.9609C161.5 23.8422 161.546 23.7053 161.554 23.5637C161.556 23.429 161.512 23.2976 161.431 23.1904L161.375 23.2301C161.628 23.5687 161.949 23.849 162.319 24.0522C162.416 24.1071 162.517 24.1549 162.621 24.1952C162.655 24.2102 162.691 24.2222 162.728 24.231L162.628 24.1793C162.561 24.1436 162.462 24.0959 162.339 24.0205C161.983 23.8097 161.674 23.5287 161.431 23.1944L161.379 23.2341C161.448 23.3372 161.482 23.459 161.479 23.5828C161.475 23.7065 161.434 23.8261 161.36 23.9252C161.284 24.0418 161.175 24.1331 161.046 24.1873C160.906 24.242 160.754 24.2558 160.606 24.227C160.285 24.1581 160.001 23.9692 159.813 23.6988C159.611 23.3928 159.452 23.0599 159.341 22.7098L159.286 22.5549L159.242 22.7138C159.172 23.1258 158.993 23.5114 158.723 23.8298C158.574 23.9749 158.382 24.067 158.176 24.092C158.073 24.1046 157.969 24.09 157.873 24.0496C157.778 24.0091 157.695 23.9443 157.632 23.8616C157.487 23.6365 157.401 23.3783 157.383 23.111C157.347 22.8477 157.331 22.5822 157.335 22.3166C157.352 21.8126 157.398 21.31 157.474 20.8114C157.537 20.3308 157.601 19.8701 157.628 19.4372C157.653 19.0394 157.637 18.6402 157.581 18.2457C157.509 17.6684 157.286 17.1203 156.934 16.6571C156.808 16.4774 156.649 16.3226 156.467 16.2003Z" fill="white"></path> <path d="M141.799 19.6839L141.835 19.7196L141.946 19.811C142.004 19.8624 142.067 19.9088 142.132 19.95C142.219 20.0126 142.309 20.0697 142.402 20.1208C143.004 20.4464 143.677 20.6183 144.361 20.6212C145.379 20.6273 146.378 20.3376 147.236 19.7872C148.27 19.1058 149.155 18.2207 149.837 17.1857C150.233 16.6496 150.531 16.0896 150.876 15.5971C151.187 15.0983 151.569 14.6475 152.01 14.2586C152.408 13.9071 152.888 13.6613 153.405 13.5437C153.639 13.4939 153.879 13.4832 154.115 13.512C154.335 13.5406 154.549 13.598 154.754 13.6828C155.104 13.832 155.419 14.054 155.677 14.3341C155.875 14.545 156.034 14.7881 156.149 15.053C156.242 15.2824 156.306 15.5226 156.34 15.7679C156.34 15.7679 156.34 15.7679 156.34 15.7162C156.34 15.6646 156.34 15.6328 156.34 15.5733C156.317 15.3891 156.271 15.2088 156.201 15.0371C156.084 14.7654 155.922 14.5156 155.721 14.2984C155.459 14.0068 155.139 13.774 154.781 13.6152C154.572 13.526 154.352 13.4646 154.127 13.4325C153.881 13.4029 153.633 13.4109 153.39 13.4564C152.856 13.5751 152.36 13.8248 151.946 14.1832C151.498 14.5799 151.107 15.0371 150.784 15.5415C150.439 16.0538 150.122 16.6099 149.75 17.1301C149.076 18.1544 148.204 19.0324 147.184 19.7117C146.343 20.2541 145.365 20.5461 144.365 20.5537C143.689 20.5567 143.023 20.3973 142.422 20.089C142.207 19.9663 141.999 19.831 141.799 19.6839Z" fill="white"></path> <path d="M144.813 24.882C144.896 24.9813 145.463 24.592 146.244 24.6238C147.025 24.6556 147.573 25.0845 147.66 24.9892C147.747 24.8939 147.62 24.7708 147.382 24.5722C147.056 24.3231 146.659 24.1841 146.248 24.175C145.842 24.1554 145.441 24.2698 145.106 24.5007C144.86 24.6675 144.769 24.8383 144.813 24.882Z" fill="#263238"></path> <path d="M145.261 27.2137C145.259 27.3781 145.321 27.5368 145.435 27.6556C145.548 27.7745 145.704 27.8439 145.868 27.8491C145.948 27.8556 146.028 27.846 146.105 27.8208C146.181 27.7956 146.252 27.7553 146.312 27.7024C146.373 27.6495 146.422 27.585 146.458 27.5126C146.493 27.4403 146.513 27.3616 146.518 27.2812C146.519 27.1164 146.456 26.9577 146.342 26.839C146.228 26.7203 146.072 26.6509 145.907 26.6457C145.827 26.6392 145.747 26.6489 145.671 26.6742C145.595 26.6994 145.524 26.7397 145.464 26.7927C145.404 26.8456 145.355 26.9102 145.32 26.9825C145.285 27.0548 145.265 27.1334 145.261 27.2137Z" fill="#263238"></path> <path d="M143.841 16.1768C143.417 16.6772 142.779 17.118 142.132 17.0068C141.901 16.9429 141.674 16.8619 141.454 16.7646C141.22 16.8877 141.224 17.6701 141.371 17.8925C141.507 18.0842 141.66 18.2637 141.827 18.4287C141.034 18.7941 140.356 18.5518 139.563 18.2023C139.602 18.9023 139.823 19.5799 140.205 20.1675C140.587 20.755 141.116 21.2318 141.74 21.5504C141.93 21.6669 142.146 21.7367 142.368 21.7539C142.591 21.7712 142.814 21.7355 143.021 21.6497C143.34 21.414 143.561 21.0691 143.643 20.6806C144.092 19.3076 144.369 17.8842 144.468 16.4429L143.841 16.1768Z" fill="#4D4D4D"></path> <path d="M149.309 32.9646C149.309 32.9884 149.48 33.0639 149.789 33.0639C150.194 33.0555 150.585 32.9159 150.904 32.666C151.223 32.4161 151.452 32.0693 151.558 31.6778C151.633 31.3799 151.601 31.1893 151.558 31.1893C151.514 31.1893 151.494 31.368 151.387 31.6301C151.253 31.9669 151.033 32.2627 150.749 32.488C150.459 32.7022 150.119 32.8389 149.761 32.8852C149.488 32.9646 149.317 32.9328 149.309 32.9646Z" fill="#263238"></path> <path d="M145.816 159.009L148.592 168.823C148.592 168.823 139.801 174.999 140.138 176.865L158.873 172.056L155.182 156.566L145.816 159.009Z" fill="#7994D1"></path> <path d="M154.167 166.503C154.364 166.514 154.55 166.598 154.689 166.739C154.828 166.88 154.909 167.068 154.916 167.266C154.915 167.462 154.839 167.652 154.704 167.794C154.568 167.937 154.383 168.022 154.187 168.032C153.98 168.02 153.786 167.932 153.639 167.786C153.493 167.639 153.406 167.444 153.394 167.238C153.429 166.841 153.861 166.443 154.234 166.527" fill="#F6DAA0"></path> <path d="M158.858 172.056L158.425 170.511L140.626 175.698C140.626 175.698 139.88 176.286 140.122 176.865L158.858 172.056Z" fill="#263238"></path> <path d="M148.504 168.87C148.528 168.966 148.996 168.89 149.52 169.077C150.043 169.264 150.38 169.597 150.455 169.538C150.531 169.478 150.261 168.97 149.623 168.743C148.984 168.517 148.461 168.795 148.504 168.87Z" fill="#263238"></path> <path d="M146.815 170.268C146.815 170.363 147.251 170.423 147.66 170.737C148.068 171.05 148.259 171.452 148.35 171.424C148.441 171.396 148.35 170.852 147.854 170.467C147.358 170.081 146.795 170.177 146.815 170.268Z" fill="#263238"></path> <path d="M146.153 172.989C146.24 172.989 146.252 172.484 145.891 172.031C145.531 171.579 145.055 171.479 145.035 171.571C145.015 171.662 145.348 171.865 145.638 172.242C145.927 172.619 146.058 173.001 146.153 172.989Z" fill="#263238"></path> <path d="M147.862 166.495C147.922 166.571 148.31 166.337 148.838 166.237C149.365 166.138 149.805 166.205 149.833 166.114C149.861 166.023 149.393 165.784 148.774 165.908C148.156 166.031 147.799 166.436 147.862 166.495Z" fill="#263238"></path> <path d="M152.037 159.66L152.331 170.384C152.331 170.384 141.839 174.907 141.672 176.869L162.47 176.702L162.426 159.545L152.037 159.66Z" fill="#7994D1"></path> <path d="M158.933 169.668C159.135 169.733 159.306 169.869 159.415 170.051C159.525 170.233 159.565 170.448 159.528 170.657C159.479 170.863 159.353 171.042 159.176 171.157C158.998 171.272 158.783 171.313 158.576 171.273C158.361 171.204 158.179 171.059 158.064 170.865C157.949 170.672 157.908 170.442 157.95 170.22C158.022 170.011 158.173 169.839 158.371 169.741C158.57 169.643 158.798 169.627 159.008 169.696" fill="#F6DAA0"></path> <path d="M162.478 176.865L162.399 174.97L142.485 175.765C142.485 175.765 141.561 176.186 141.692 176.853L162.478 176.865Z" fill="#263238"></path> <path d="M152.529 170.638C152.529 170.741 153.041 170.785 153.544 171.114C154.048 171.444 154.317 171.885 154.409 171.841C154.5 171.797 154.345 171.198 153.731 170.809C153.116 170.419 152.509 170.542 152.529 170.638Z" fill="#263238"></path> <path d="M150.233 171.575C150.213 171.678 150.654 171.849 151.003 172.29C151.351 172.73 151.455 173.191 151.554 173.187C151.653 173.183 151.716 172.591 151.272 172.055C150.828 171.519 150.237 171.491 150.233 171.575Z" fill="#263238"></path> <path d="M148.957 174.327C149.048 174.351 149.186 173.827 148.921 173.259C148.655 172.691 148.179 172.464 148.128 172.556C148.076 172.647 148.382 172.953 148.592 173.414C148.802 173.874 148.853 174.319 148.957 174.327Z" fill="#263238"></path> <path d="M152.331 168.024C152.375 168.115 152.842 167.969 153.417 168.004C153.992 168.04 154.44 168.223 154.492 168.131C154.543 168.04 154.095 167.675 153.433 167.643C152.771 167.611 152.283 167.941 152.331 168.024Z" fill="#263238"></path> <path d="M163.203 87.4316L163.881 92.3843C164.102 93.9919 164.102 95.6221 163.881 97.2297L163.425 100.657C163.425 100.657 162.502 126.262 162.458 125.325C162.458 125.325 162.954 144.099 163.326 148.083C164.008 155.327 163.398 168.628 163.398 168.628H151.577L147.319 126.572L144.674 100.359L140.074 88.4245L163.203 87.4316Z" fill="#4968B2"></path> <path d="M135.36 88.6266L135.491 93.6348L136.2 130.059C136.301 131.769 136.636 133.457 137.196 135.075L146.883 163.051L147.434 164.965L154.547 163.202L149.254 87.9355L135.36 88.6266Z" fill="#4C6FBF"></path> <path d="M144.706 100.657C144.701 100.717 144.701 100.776 144.706 100.836C144.706 100.963 144.706 101.134 144.706 101.352C144.706 101.821 144.741 102.488 144.765 103.338C144.817 105.07 144.936 107.572 145.106 110.658C145.467 116.834 146.137 125.353 147.18 134.738C148.223 144.123 149.345 152.59 150.178 158.719L151.177 165.971C151.3 166.817 151.395 167.476 151.459 167.957C151.494 168.171 151.518 168.354 151.538 168.469C151.544 168.527 151.556 168.584 151.574 168.64C151.579 168.582 151.579 168.523 151.574 168.465C151.574 168.338 151.542 168.167 151.518 167.949C151.459 167.488 151.379 166.825 151.276 165.963L150.344 158.699C149.551 152.566 148.441 144.095 147.414 134.714C146.387 125.333 145.673 116.822 145.277 110.654C145.082 107.568 144.94 105.07 144.88 103.338C144.837 102.484 144.805 101.817 144.781 101.352C144.781 101.134 144.757 100.955 144.749 100.832C144.738 100.773 144.724 100.715 144.706 100.657Z" fill="#7994D1"></path> <path d="M152.331 168.668C152.358 168.817 152.37 168.969 152.367 169.121C152.367 169.454 152.367 169.871 152.394 170.38H152.263C152.262 170.393 152.263 170.406 152.269 170.418C152.275 170.43 152.284 170.44 152.295 170.447C152.323 170.447 152.331 170.447 152.327 170.447H152.303L152.248 170.475L152.133 170.527L151.899 170.646L151.391 170.904L150.237 171.496L147.505 172.914C145.764 173.843 144.131 174.59 143.108 175.368C142.693 175.66 142.324 176.012 142.013 176.413C141.903 176.562 141.812 176.725 141.744 176.897C141.753 176.703 141.823 176.516 141.946 176.365C142.24 175.938 142.602 175.563 143.017 175.253C144.044 174.427 145.673 173.664 147.414 172.731C148.385 172.227 149.313 171.754 150.142 171.341L151.312 170.781L151.827 170.535L152.069 170.423L152.188 170.372L152.248 170.348H152.275H152.295H152.323C152.323 170.348 152.323 170.348 152.363 170.348C152.374 170.354 152.384 170.364 152.389 170.377C152.395 170.389 152.397 170.402 152.394 170.415L152.252 170.813V170.392C152.252 169.883 152.271 169.466 152.279 169.133C152.276 168.976 152.293 168.82 152.331 168.668Z" fill="#263238"></path> <g opacity="0.3"> <path d="M135.53 95.6367C135.53 95.6367 139.4 97.7297 146.653 98.5558C157.01 99.7473 164.04 94.2982 164.04 94.2982L163.501 89.5879L135.53 91.4347V95.6367Z" fill="black"></path> </g> <path d="M164.492 45.4038C168.013 50.3206 166.526 62.4063 166.526 62.4063L164.881 87.6262V90.6129C164.881 90.6129 165.004 93.0674 156.118 96.0342C147.232 99.001 134.095 93.8101 134.095 93.8101C134.095 93.8101 136.51 75.4055 138.278 65.1905C138.508 63.8666 138.741 62.6208 138.976 61.4531C140.365 54.5375 143.662 48.1503 148.493 43.0168L148.576 42.9294L159.361 40.3836C161.321 41.7801 163.052 43.4738 164.492 45.4038Z" fill="#FFA808"></path> <path d="M134.476 90.9502C134.476 90.9502 143.334 95.319 151.248 94.2705C156.142 93.5659 160.807 91.7391 164.881 88.9326V91.7128C164.881 91.7128 158.612 96.9593 149.972 96.9553C144.538 96.8814 139.163 95.8169 134.111 93.8138L134.476 90.9502Z" fill="#F6DAA0"></path> <path d="M137.465 70.159L165.892 72.121L165.468 78.8807L136.605 75.7987L137.465 70.159Z" fill="#F6DAA0"></path> <g opacity="0.3"> <path d="M135.213 85.5368C135.213 85.5368 137.739 87.4352 143.377 86.4105C149.016 85.3859 157.997 84.099 159.96 82.3873C161.959 80.5808 163.167 78.0579 163.322 75.3654C163.552 72.5376 162.926 59.1611 162.926 59.1611L153.806 75.4448L135.725 81.867L135.213 85.5368Z" fill="black"></path> </g> <path d="M157.775 42.9297C160.507 42.9297 163.425 47.3541 163.723 49.9515C164.02 52.549 162.969 73.4994 162.533 75.8824C161.673 80.6801 157.731 81.53 157.731 81.53C157.731 81.53 148.298 84.2586 141.954 84.759C138.207 85.0749 134.446 84.3478 131.085 82.658L129.539 82.7573L129.935 74.7902L131.522 75.0563L148.968 70.7788C148.968 70.7788 147.858 52.8747 147.957 52.5768C147.941 52.5768 148.834 42.9337 157.775 42.9297Z" fill="#7994D1"></path> <path d="M132.438 74.8336C132.513 74.798 132.593 74.7714 132.675 74.7542L133.369 74.5675L135.927 73.9082L144.381 71.8231L148.929 70.6952H148.98L149.02 70.7309C149.416 71.1281 149.813 71.4776 150.21 71.8152C150.58 72.13 150.967 72.423 151.371 72.6929C152.043 73.148 152.657 73.6813 153.203 74.2815C153.55 74.679 153.851 75.1147 154.099 75.5803C154.187 75.7431 154.246 75.8702 154.286 75.9774C154.307 76.0204 154.323 76.0658 154.333 76.1125C154.333 76.1125 154.234 75.9417 154.048 75.6319C153.778 75.186 153.466 74.7671 153.116 74.3808C152.563 73.8023 151.946 73.2893 151.276 72.8518C150.863 72.5842 150.466 72.2924 150.087 71.978C149.69 71.6404 149.294 71.279 148.897 70.8977L148.984 70.9215L144.428 72.0693L135.963 74.0989L133.389 74.6906L132.687 74.8416C132.604 74.848 132.52 74.8453 132.438 74.8336Z" fill="#263238"></path> <path d="M156.927 42.2699C156.276 42.1864 146.006 46.1104 144.765 57.3303C144.369 60.8174 144.765 68.5105 149.127 69.7417C153.489 70.9729 162.212 67.1919 162.212 67.1919C162.212 67.1919 166.276 52.4531 165.361 49.8001C164.445 47.147 160.69 42.7544 156.927 42.2699Z" fill="#7994D1"></path> <path d="M149.349 51.9453C149.36 52.0097 149.36 52.0755 149.349 52.1399C149.349 52.2869 149.349 52.4696 149.349 52.688C149.325 53.1964 149.293 53.8795 149.258 54.7056C149.178 56.4055 149.087 58.7606 149.036 61.3581C148.984 63.9555 148.984 66.3147 148.984 68.0185C148.984 68.8486 148.984 69.5317 148.984 70.0401C148.984 70.2585 148.984 70.4373 148.984 70.5882C148.989 70.6524 148.982 70.7169 148.964 70.7788C148.949 70.7165 148.941 70.6525 148.941 70.5882C148.941 70.4412 148.941 70.2585 148.909 70.0401C148.889 69.5635 148.865 68.8764 148.845 68.0225C148.802 66.3187 148.782 63.9595 148.845 61.3541C148.909 58.7487 149.012 56.3975 149.127 54.6977C149.186 53.8438 149.238 53.1567 149.282 52.6801L149.341 52.136C149.333 52.0724 149.336 52.0079 149.349 51.9453Z" fill="#263238"></path> <g opacity="0.3"> <path d="M146.653 62.355C146.514 66.553 148.885 70.8027 148.885 70.8027L149.282 53.1289C147.545 54.5587 146.764 58.8759 146.653 62.355Z" fill="black"></path> </g> <path d="M156.804 41.3567C151.76 42.3694 146.768 46.623 143.512 51.945C140.257 57.267 139.266 71.4418 139.266 71.4418L142.533 71.549C142.533 71.549 141.161 63.5462 144.65 53.6568C148.14 43.7674 156.827 42.0318 156.827 42.0318L156.804 41.3567Z" fill="#F6DAA0"></path> <path d="M163.723 49.9513C163.735 50.0235 163.742 50.0965 163.743 50.1697C163.743 50.3365 163.743 50.5431 163.743 50.7973C163.743 51.3414 163.743 52.1278 163.743 53.1008C163.711 55.0429 163.592 57.7278 163.421 60.6866C163.251 63.6455 163.108 66.3264 163.025 68.2685C162.997 69.2177 162.973 69.9961 162.954 70.5681C162.954 70.8183 162.954 71.0248 162.93 71.1916C162.932 71.2652 162.924 71.3387 162.906 71.4101C162.899 71.3374 162.899 71.2643 162.906 71.1916C162.906 71.0248 162.906 70.8183 162.906 70.5681C162.906 70.0239 162.906 69.2376 162.906 68.2645C162.934 66.3184 163.053 63.6376 163.223 60.6747C163.394 57.7119 163.536 55.035 163.62 53.0968C163.648 52.1476 163.675 51.3692 163.691 50.7973C163.691 50.5431 163.711 50.3365 163.715 50.1697C163.707 50.0969 163.71 50.0234 163.723 49.9513Z" fill="#263238"></path> <path d="M159.361 44.6333C158.858 44.4414 158.344 44.2783 157.823 44.1447C156.556 43.8493 155.231 43.9272 154.007 44.369C152.784 44.8109 151.714 45.5978 150.927 46.635C150.607 47.0698 150.316 47.5248 150.055 47.9972C150.084 47.8585 150.134 47.7247 150.202 47.6001C150.369 47.2363 150.572 46.8904 150.808 46.5674C151.588 45.4782 152.679 44.6516 153.938 44.1971C155.197 43.7425 156.564 43.6813 157.858 44.0216C158.246 44.1148 158.624 44.2479 158.984 44.4188C159.119 44.4727 159.246 44.5448 159.361 44.6333Z" fill="#263238"></path> <path d="M147.251 42.0314L159.674 38.8184L159.873 40.7525L155.059 41.4992L146.268 45.6099L147.251 42.0314Z" fill="#7994D1"></path> <path d="M156.879 42.0318C156.879 42.0318 164.916 43.549 166.257 49.9513C166.257 49.9513 165.773 46.5039 163.977 44.7246C160.36 41.1501 156.804 41.3566 156.804 41.3566L156.879 42.0318Z" fill="#F6DAA0"></path> <path d="M156.776 41.1855C156.835 41.1855 156.903 41.408 156.93 41.7098C156.958 42.0116 156.93 42.2539 156.879 42.2539C156.827 42.2539 156.756 42.0196 156.724 41.7297C156.693 41.4397 156.72 41.1935 156.776 41.1855Z" fill="#263238"></path> </g> <defs> <clipPath id="clip0_508_2193"> <rect width="180" height="177" fill="white"></rect> </clipPath> </defs> </svg> 