<?xml version="1.0" encoding="UTF-8"?> <svg xmlns="http://www.w3.org/2000/svg" width="185" height="176" viewBox="0 0 185 176" fill="none"> <g clip-path="url(#clip0_508_2805)"> <path d="M9.6683 139.853C8.0254 138.826 6.16901 138.187 4.2411 137.986C3.35454 137.894 2.3961 137.922 1.67726 138.445C1.59504 138.493 1.52697 138.562 1.47997 138.644C1.43297 138.727 1.40873 138.821 1.4097 138.916C1.45374 139.048 1.54274 139.161 1.66129 139.235C2.81364 140.056 4.16883 140.546 5.58017 140.653C6.99151 140.76 8.40523 140.479 9.6683 139.841" fill="#F6DAA0"></path> <path d="M9.52855 139.697C8.27195 138.776 7.09988 137.746 6.02623 136.617C4.94602 135.484 4.18783 134.083 3.82979 132.56C3.75843 132.334 3.73682 132.095 3.76647 131.861C3.79611 131.626 3.87629 131.4 4.00151 131.199C6.79698 133.381 8.98942 136.198 9.52855 139.697Z" fill="#F6DAA0"></path> <path d="M9.64037 139.832C9.38226 138.315 9.40392 136.762 9.70427 135.252C10.0171 133.726 10.8922 132.374 12.1563 131.462C12.6395 132.587 12.4318 133.888 12.0924 135.053C11.5646 136.877 10.7431 138.603 9.66034 140.164" fill="#F6DAA0"></path> <path d="M12.3799 144.732C10.7186 144.936 9.26898 145.814 8.027 146.935C6.77669 148.07 5.90781 149.564 5.53903 151.212C7.16839 151.112 8.55414 149.963 9.55652 148.674C10.5589 147.385 11.2538 145.973 12.352 144.768" fill="#F6DAA0"></path> <path d="M12.975 145.518C12.32 143.858 12.0901 142.061 12.3063 140.29C12.5225 138.519 13.1779 136.83 14.213 135.376C15.1594 138.739 14.812 142.558 12.975 145.518Z" fill="#F6DAA0"></path> <path d="M16.5931 149.823C15.0753 149.73 13.5637 150.085 12.2465 150.844C10.9293 151.603 9.86464 152.733 9.18512 154.092C9.09327 154.275 9.0094 154.491 9.1332 154.67C9.19696 154.733 9.27499 154.779 9.36057 154.805C9.44614 154.83 9.53669 154.835 9.62441 154.818C11.09 154.722 12.3839 153.844 13.4542 152.823C14.5245 151.802 15.451 150.665 16.649 149.799" fill="#F6DAA0"></path> <path d="M16.4773 149.588C15.6988 147.082 15.6503 144.407 16.3375 141.876C16.6131 140.882 17.0683 139.837 17.9868 139.37C18.0203 139.344 18.0598 139.327 18.1016 139.321C18.1434 139.314 18.1861 139.318 18.226 139.332C18.2658 139.347 18.3013 139.371 18.3293 139.403C18.3573 139.434 18.3769 139.472 18.3862 139.514C18.6999 140.206 18.8371 140.966 18.7855 141.724C18.7335 142.48 18.6173 143.23 18.4381 143.966C18.1506 145.335 17.9948 146.807 17.24 147.988C17.0624 148.272 16.9023 148.566 16.7608 148.87C16.621 149.169 16.621 149.269 16.4893 149.516" fill="#F6DAA0"></path> <path d="M26.0577 151.016C25.3469 148.319 26.0977 145.032 27.7989 142.837C27.9267 142.674 28.0904 142.498 28.2981 142.518C28.6096 142.546 28.6975 142.965 28.6975 143.28C28.5676 146.053 27.6598 148.734 26.0777 151.016" fill="#F6DAA0"></path> <path d="M26.9203 151.611C28.5961 152.003 30.3372 152.028 32.0235 151.684C33.7099 151.34 35.3015 150.634 36.6885 149.616C35.0542 148.795 33.1858 148.565 31.4011 148.965C29.6319 149.364 28.0186 150.162 26.9203 151.599" fill="#F6DAA0"></path> <path d="M27.6472 149.807C29.4842 146.815 33.0065 144.864 36.5168 144.684C36.1174 146.113 34.9194 147.222 33.6135 147.876C32.26 148.485 30.8288 148.904 29.3604 149.121C28.7933 149.233 28.0146 149.352 27.6472 149.795" fill="#F6DAA0"></path> <path d="M26.2374 141.094C26.7949 139.409 27.175 137.671 27.3716 135.907C27.572 134.133 27.2177 132.341 26.3572 130.776C24.644 134.092 24.4683 137.958 26.2055 141.273" fill="#F6DAA0"></path> <path d="M32.0161 138.177C34.0129 134.534 38.1142 131.626 42.2555 131.219C40.6581 135.209 36.3012 138.265 32.0161 138.177Z" fill="#F6DAA0"></path> <path d="M30.7501 138.892C33.7413 139.346 36.2891 141.258 39.0886 142.415C39.6742 142.698 40.3245 142.822 40.9735 142.774C41.2751 142.77 41.5683 142.674 41.8134 142.498C42.0586 142.323 42.244 142.077 42.3446 141.793C42.4452 141.509 42.4561 141.2 42.3759 140.91C42.2957 140.62 42.1282 140.361 41.896 140.168C41.499 139.804 41.0334 139.522 40.5263 139.338C37.4792 138.07 34.2165 138.038 31.0057 138.808" fill="#F6DAA0"></path> <path d="M29.0209 140.99C29.6998 141.181 29.9315 141.533 30.4666 141.991C32.2962 143.542 34.4598 144.649 36.7883 145.227C37.0319 145.287 37.3474 145.311 37.4672 145.091C37.587 144.872 37.4393 144.672 37.3035 144.501C36.2875 143.31 34.9684 142.416 33.4857 141.912C32.0281 141.369 30.7621 140.715 29.0209 140.854" fill="#F6DAA0"></path> <path d="M27.0681 128.326C28.2971 129.457 29.7491 130.318 31.3309 130.855C32.9127 131.391 34.5894 131.592 36.2532 131.442C36.3996 131.442 36.5411 131.39 36.6526 131.295C36.8802 131.043 36.6046 130.656 36.3371 130.445C33.6375 128.346 30.3708 127.473 27.0601 128.326" fill="#F6DAA0"></path> <path d="M29.3843 127.477C31.0079 126.282 32.8912 125.489 34.8804 125.161C36.8696 124.833 38.9083 124.98 40.8298 125.589C39.3333 126.979 37.411 127.822 35.3746 127.983C33.3636 128.168 31.3356 127.997 29.3843 127.477Z" fill="#F6DAA0"></path> <path d="M28.4619 121.66C28.1983 118.97 28.37 116.844 28.1823 114.143C28.1823 113.927 28.1224 113.668 27.9187 113.588C27.6392 113.481 27.4036 113.828 27.3117 114.115C26.9198 115.367 26.8193 116.693 27.0179 117.99C27.2165 119.287 27.709 120.522 28.4579 121.6" fill="#F6DAA0"></path> <path d="M28.2701 121.955C30.0355 120.824 31.5574 119.352 32.7469 117.626C33.6255 116.429 34.3683 114.981 34.1686 113.501C33.5483 113.518 32.9393 113.67 32.3835 113.945C31.8277 114.221 31.3385 114.614 30.9498 115.097C30.1819 116.071 29.6244 117.193 29.3125 118.392C28.953 119.589 28.7054 120.786 28.2861 121.955" fill="#F6DAA0"></path> <path d="M32.651 120.738C36.6657 119.255 40.3823 117.066 43.6252 114.275C42.3153 113.748 40.8297 114.063 39.5039 114.59C36.5287 115.716 34.0704 117.894 32.5951 120.71" fill="#F6DAA0"></path> <path d="M29.5001 123.427C31.5205 123.718 33.5713 123.727 35.5942 123.455C37.591 123.128 39.44 122.346 41.285 121.568C41.4504 121.525 41.5932 121.421 41.6844 121.277C41.7131 121.191 41.7151 121.099 41.6902 121.012C41.6652 120.925 41.6144 120.848 41.5446 120.79C41.4041 120.677 41.2384 120.599 41.0614 120.563C39.0646 120 36.8881 120.263 34.9113 120.93C33.0298 121.573 31.2203 122.41 29.5121 123.427" fill="#F6DAA0"></path> <path d="M17.9309 128.418C16.5492 125.625 16.641 122.378 17.8351 119.505C18.6737 120.782 18.7775 122.414 18.6338 123.934C18.49 125.454 18.0148 127.026 17.9828 128.554" fill="#F6DAA0"></path> <path d="M12.4118 125.634C10.6809 125.612 8.96447 125.951 7.37199 126.629C5.77951 127.307 4.34597 128.309 3.16284 129.572C4.90685 129.778 6.67255 129.451 8.22663 128.634C9.7682 127.815 11.2226 126.842 12.5676 125.73" fill="#F6DAA0"></path> <path d="M8.69789 124.393C7.00863 124.257 5.38726 124.049 3.7619 124.544C2.94245 124.776 2.1824 125.18 1.53332 125.731C0.884244 126.282 0.361312 126.966 0 127.736C1.59234 127.87 3.19136 127.572 4.62849 126.874C6.05675 126.177 7.41879 125.352 8.69789 124.409" fill="#F6DAA0"></path> <path d="M14.1969 124.453C12.6754 123.455 11.1179 122.458 9.3488 122.031C7.57967 121.604 5.531 121.923 4.297 123.256C5.73067 124.098 7.46386 124.193 9.12517 124.193C10.7865 124.193 12.8192 124.193 14.3846 124.728" fill="#F6DAA0"></path> <path d="M14.2049 124.533C11.6091 121.983 10.6108 117.407 11.669 113.924C13.7189 117.06 14.6152 120.81 14.2049 124.533Z" fill="#F6DAA0"></path> <path d="M21.3453 117.299C21.8325 116.162 22.18 114.965 22.6193 113.808C23.0195 112.634 23.6342 111.543 24.4323 110.592C25.2449 109.639 26.399 109.042 27.6471 108.929C27.2471 110.682 26.4858 112.332 25.4118 113.775C24.3377 115.217 22.9746 116.42 21.4092 117.307" fill="#F6DAA0"></path> <path d="M20.0515 118.819C19.2528 117.702 18.3063 116.19 17.2081 115.36C16.1099 114.53 14.6762 114.023 13.3344 114.343C14.029 115.559 14.9977 116.597 16.1636 117.374C17.3296 118.151 18.6607 118.646 20.0515 118.819Z" fill="#F6DAA0"></path> <path d="M20.3111 117.406C19.7293 116.077 19.2993 114.687 19.0291 113.261C18.7617 111.824 18.9912 110.338 19.6801 109.048C21.1058 111.741 21.565 114.634 20.3829 117.426" fill="#F6DAA0"></path> <path d="M21.3574 109.048C22.1561 106.379 24.6081 104.416 27.2518 103.514C27.5777 103.38 27.9312 103.327 28.2821 103.359C28.4578 103.377 28.6239 103.447 28.7596 103.56C28.8954 103.673 28.9946 103.824 29.0449 103.993C29.1407 104.448 28.7653 104.855 28.4139 105.154C26.3505 106.917 23.9496 108.242 21.3574 109.048Z" fill="#F6DAA0"></path> <path d="M21.3853 106.866C21.4891 105.146 21.597 103.398 22.1561 101.771C22.7152 100.143 23.7974 98.6107 25.3509 97.8966C25.6185 99.6361 24.8517 101.364 23.9252 102.86C22.9987 104.356 21.8845 105.764 21.3294 107.432" fill="#F6DAA0"></path> <path d="M21.3454 108.05C20.6785 106.103 20.6066 103.634 19.4405 101.942C18.6418 100.745 17.3239 99.9473 16.621 98.6945C16.1973 99.8984 16.2559 101.219 16.7848 102.381C17.3156 103.528 18.0457 104.572 18.9413 105.465C19.8039 106.383 20.5387 107.061 21.3374 108.05" fill="#F6DAA0"></path> <path d="M21.3574 165.319C21.3055 165.319 21.2615 152.345 21.2575 136.346C21.2535 120.347 21.2935 107.372 21.3454 107.372C21.3973 107.372 21.4412 120.343 21.4452 136.346C21.4492 152.349 21.4093 165.319 21.3574 165.319Z" fill="#F6DAA0"></path> <path d="M32.703 126.476C32.5465 126.552 32.3834 126.613 32.2157 126.659L30.8739 127.11C29.7398 127.509 28.1823 128.056 26.481 128.746C24.7798 129.436 23.2343 130.046 22.3358 130.824C21.976 131.122 21.6903 131.499 21.5011 131.926C21.3733 132.229 21.3494 132.416 21.3334 132.412C21.3174 132.408 21.3334 132.364 21.3334 132.277C21.3528 132.148 21.3849 132.021 21.4292 131.898C21.5943 131.447 21.8688 131.044 22.2279 130.725C22.7692 130.267 23.3746 129.89 24.025 129.608C24.7479 129.272 25.5426 128.921 26.3932 128.574C28.0864 127.88 29.6519 127.341 30.7861 126.978C31.3611 126.799 31.8284 126.667 32.1519 126.579C32.3316 126.526 32.5162 126.492 32.703 126.476Z" fill="#F6DAA0"></path> <path d="M36.425 117.331C36.425 117.331 36.381 117.387 36.2892 117.479L35.8699 117.878L34.3164 119.294L29.1528 123.886C27.132 125.686 25.3869 127.401 24.1768 128.694C23.5698 129.34 23.0906 129.891 22.7671 130.25L22.3638 130.677C22.3232 130.73 22.2763 130.778 22.224 130.82C22.224 130.82 22.2559 130.761 22.3318 130.653C22.4077 130.545 22.5275 130.394 22.6833 130.202C22.9908 129.803 23.454 129.264 24.049 128.606C25.6125 126.9 27.2655 125.278 29.001 123.747C31.0297 121.955 32.8747 120.343 34.2166 119.182C34.8715 118.616 35.4146 118.153 35.814 117.814L36.2532 117.451C36.3055 117.404 36.3632 117.364 36.425 117.331Z" fill="#F6DAA0"></path> <path d="M26.9563 125.713C26.9044 125.689 27.3237 124.716 27.755 123.483C28.1863 122.25 28.378 121.213 28.4339 121.221C28.3888 122.016 28.219 122.8 27.9307 123.543C27.7516 124.074 27.5422 124.595 27.3037 125.103C27.2199 125.323 27.1028 125.529 26.9563 125.713Z" fill="#F6DAA0"></path> <path d="M21.3694 133.565C21.2529 133.457 21.1485 133.336 21.0579 133.206L20.2592 132.181C19.5883 131.319 18.6618 130.122 17.6234 128.813C16.5851 127.505 15.6267 126.336 14.9398 125.486L14.1411 124.476C14.034 124.353 13.9391 124.219 13.8575 124.077C13.9832 124.177 14.0971 124.291 14.197 124.416C14.4047 124.64 14.7002 124.971 15.0556 125.386C15.7744 126.212 16.7489 127.381 17.7872 128.682C18.8255 129.982 19.74 131.199 20.383 132.089C20.7024 132.532 20.958 132.887 21.1337 133.146C21.2276 133.276 21.3067 133.417 21.3694 133.565Z" fill="#F6DAA0"></path> <path d="M18.8814 130.373C18.3783 129.82 18.0202 129.151 17.8391 128.426C17.6438 127.79 17.564 127.124 17.6034 126.459H17.6833C17.6727 126.539 17.647 126.616 17.6074 126.687C17.6074 126.687 17.6074 126.599 17.6074 126.443H17.6913C17.7295 127.091 17.8407 127.732 18.0228 128.354C18.2557 129.049 18.5428 129.724 18.8814 130.373Z" fill="#F6DAA0"></path> <path d="M15.6706 126.34C15.4454 126.169 15.2 126.027 14.9398 125.917C14.2851 125.722 13.5967 125.666 12.9191 125.753C12.2334 125.807 11.5535 125.918 10.8864 126.085C10.6124 126.172 10.332 126.239 10.0477 126.284C10.2956 126.135 10.565 126.024 10.8464 125.957C11.5144 125.745 12.2045 125.612 12.9031 125.558C13.6058 125.463 14.3211 125.54 14.9877 125.781C15.2743 125.881 15.5163 126.079 15.6706 126.34Z" fill="#F6DAA0"></path> <path d="M14.9079 125.358C14.9079 125.39 14.4846 125.191 13.7937 124.959C12.8894 124.652 11.9503 124.459 10.9982 124.385C10.0507 124.318 9.09864 124.366 8.16281 124.529C7.44397 124.66 7.00868 124.792 6.9967 124.764C6.98472 124.736 7.10053 124.704 7.29222 124.636C7.56782 124.54 7.84926 124.461 8.13485 124.401C10.0329 123.983 12.0123 124.132 13.8256 124.832C14.0991 124.936 14.3659 125.057 14.6243 125.195C14.7259 125.236 14.8213 125.291 14.9079 125.358Z" fill="#F6DAA0"></path> <path d="M21.3454 121.221C21.0176 120.299 20.7508 119.357 20.5467 118.4C20.2744 117.458 20.0636 116.5 19.9157 115.531C20.2424 116.455 20.5092 117.398 20.7144 118.356C20.9823 119.297 21.1931 120.254 21.3454 121.221Z" fill="#F6DAA0"></path> <path d="M21.3973 121.22C21.1358 120.638 20.8342 120.074 20.4948 119.533C20.113 119.022 19.6675 118.562 19.1689 118.164C19.3571 118.212 19.532 118.302 19.6801 118.427C20.0562 118.703 20.383 119.04 20.6465 119.425C21.0489 119.948 21.3077 120.567 21.3973 121.22Z" fill="#F6DAA0"></path> <path d="M21.3574 158.393C21.3574 158.393 21.2975 158.078 21.1537 157.527C20.9364 156.753 20.6448 156 20.2831 155.281C19.0327 152.939 17.4865 150.767 15.6826 148.818C14.6522 147.645 13.6539 146.54 12.8072 145.478C12.0497 144.546 11.3635 143.558 10.7546 142.522C10.3477 141.82 10.0016 141.085 9.72024 140.324C9.6244 140.056 9.55251 139.845 9.51657 139.697C9.49302 139.624 9.47434 139.549 9.46066 139.474C9.46066 139.474 9.57248 139.769 9.78813 140.3C10.095 141.044 10.4567 141.764 10.8704 142.454C11.4894 143.475 12.1821 144.45 12.943 145.371C13.7936 146.42 14.792 147.521 15.8223 148.694C17.903 151.028 19.5323 153.378 20.4029 155.241C20.7513 155.972 21.0191 156.739 21.2016 157.527C21.2527 157.742 21.2914 157.959 21.3174 158.178C21.3394 158.248 21.3528 158.32 21.3574 158.393Z" fill="#F6DAA0"></path> <path d="M31.6128 146.823C31.4405 146.937 31.2603 147.038 31.0736 147.126C30.5879 147.4 30.1221 147.708 29.6799 148.048C29.0274 148.555 28.4158 149.113 27.8509 149.716C27.2079 150.394 26.545 151.18 25.8541 152.026C24.5043 153.718 23.2384 155.218 22.4836 156.415C22.0842 157.009 21.8207 157.508 21.637 157.859C21.5494 158.046 21.4507 158.227 21.3414 158.402C21.3414 158.402 21.3414 158.346 21.3894 158.246C21.4373 158.146 21.4852 158.007 21.5731 157.827C21.8096 157.317 22.0763 156.821 22.3718 156.343C23.3995 154.804 24.5128 153.324 25.7064 151.91C26.3853 151.064 27.0522 150.278 27.7031 149.6C28.2814 148.997 28.9093 148.443 29.5801 147.944C30.0343 147.611 30.5167 147.317 31.0217 147.067C31.1974 146.975 31.3412 146.923 31.4211 146.879C31.4812 146.849 31.5461 146.83 31.6128 146.823Z" fill="#F6DAA0"></path> <path d="M31.8124 150.585C31.4375 150.668 31.0571 150.724 30.6742 150.753C29.7624 150.846 28.8613 151.023 27.9826 151.283C27.1185 151.566 26.3084 151.992 25.5865 152.544C25.0314 152.975 24.7678 153.342 24.7399 153.31C24.7818 153.213 24.8399 153.124 24.9116 153.047C25.088 152.827 25.286 152.625 25.5026 152.444C26.2206 151.845 27.0478 151.39 27.9387 151.104C28.8302 150.838 29.7495 150.676 30.6782 150.621C31.0545 150.576 31.434 150.564 31.8124 150.585Z" fill="#F6DAA0"></path> <path d="M25.0594 152.899C24.9994 152.863 25.5106 152.081 25.906 151.032C26.3013 149.983 26.3652 149.037 26.4331 149.037C26.4683 149.238 26.4683 149.443 26.4331 149.644C26.3787 150.134 26.2675 150.616 26.1017 151.08C25.9306 151.541 25.7111 151.982 25.4467 152.397C25.3459 152.584 25.215 152.754 25.0594 152.899Z" fill="#F6DAA0"></path> <path d="M34.9314 136.757C34.8717 136.793 34.8089 136.824 34.7437 136.849L34.2085 137.092C33.9729 137.192 33.6894 137.319 33.3699 137.491C33.0504 137.662 32.675 137.826 32.2876 138.061L31.6647 138.413C31.453 138.536 31.2374 138.68 31.0137 138.812C30.5545 139.087 30.0992 139.43 29.608 139.777C28.5707 140.562 27.5924 141.422 26.6807 142.35C25.7836 143.293 24.9561 144.3 24.2048 145.363C23.8733 145.861 23.5498 146.332 23.2862 146.795C23.1545 147.026 23.0147 147.246 22.8869 147.461L22.5554 148.096C22.3358 148.495 22.1561 148.87 22.0243 149.197C21.8925 149.524 21.7487 149.811 21.6569 150.047C21.565 150.282 21.4892 150.446 21.4333 150.589C21.41 150.654 21.3792 150.715 21.3414 150.773C21.3495 150.704 21.3684 150.636 21.3973 150.573C21.4452 150.43 21.5091 150.246 21.589 150.019C21.6858 149.725 21.7991 149.438 21.9284 149.157C22.0722 148.822 22.224 148.439 22.4356 148.036L22.7591 147.393C22.8749 147.174 23.0107 146.951 23.1585 146.719C23.414 146.244 23.7375 145.77 24.069 145.263C25.5508 143.093 27.3931 141.191 29.5161 139.641C30.0113 139.294 30.4746 138.955 30.9378 138.684C31.1655 138.544 31.3811 138.401 31.6008 138.285L32.2317 137.942C32.6311 137.714 33.0065 137.543 33.334 137.395C33.6121 137.258 33.8974 137.135 34.1886 137.028L34.7357 136.817C34.7973 136.786 34.8634 136.766 34.9314 136.757Z" fill="#F6DAA0"></path> <path d="M26.8165 142.187C26.8916 141.924 27.0482 141.692 27.2638 141.524C27.7621 141.089 28.3989 140.844 29.0609 140.834C29.7102 140.831 30.3537 140.957 30.9538 141.205C31.208 141.285 31.4489 141.402 31.6687 141.552C31.4102 141.498 31.1565 141.423 30.9099 141.329C30.3157 141.127 29.6925 141.023 29.0649 141.022C28.4434 141.038 27.8428 141.248 27.3477 141.624C27.1582 141.799 26.9807 141.987 26.8165 142.187Z" fill="#F6DAA0"></path> <path d="M25.6025 143.439C25.8426 142.91 26.0144 142.352 26.1137 141.78C26.1512 141.197 26.1122 140.612 25.9979 140.04C26.0219 140.04 26.1217 140.208 26.2096 140.527C26.3191 140.94 26.3502 141.371 26.3014 141.796C26.2419 142.215 26.1066 142.621 25.9021 142.992C25.7623 143.304 25.6225 143.451 25.6025 143.439Z" fill="#F6DAA0"></path> <path d="M12.3799 160.264C12.6595 165.22 14.157 170.263 16.4573 175.362H26.4411C28.6375 170.315 30.0353 165.28 30.2749 160.264H12.3799Z" fill="#F6DAA0"></path> <path d="M28.6775 168.284C28.6775 168.336 25.3868 168.38 21.3254 168.38C17.264 168.38 13.9773 168.336 13.9773 168.284C13.9773 168.232 17.268 168.192 21.3334 168.192C25.3988 168.192 28.6775 168.232 28.6775 168.284Z" fill="#FAFAFA"></path> <path d="M28.4539 170.079C28.4539 170.131 25.3669 170.175 21.561 170.175C17.7552 170.175 14.6642 170.131 14.6642 170.079C14.6642 170.027 17.7512 169.987 21.561 169.987C25.3709 169.987 28.4539 170.027 28.4539 170.079Z" fill="#FAFAFA"></path> <path d="M16.6251 163.516C16.7199 164.279 16.752 165.049 16.7209 165.818C16.7521 166.586 16.7201 167.356 16.6251 168.12C16.5026 166.588 16.5026 165.048 16.6251 163.516Z" fill="#FAFAFA"></path> <path d="M21.9843 163.516C22.0797 164.31 22.1117 165.11 22.0802 165.909C22.112 166.709 22.08 167.509 21.9843 168.303C21.8609 166.71 21.8609 165.109 21.9843 163.516Z" fill="#FAFAFA"></path> <path d="M27.0161 163.477C27.1386 165.095 27.1386 166.721 27.0161 168.34C26.8883 166.721 26.8883 165.095 27.0161 163.477Z" fill="#FAFAFA"></path> <path d="M29.9834 163.516C29.9834 163.567 26.1177 163.611 21.3574 163.611C16.5971 163.611 12.7274 163.567 12.7274 163.516C12.7274 163.464 16.5892 163.424 21.3574 163.424C26.1257 163.424 29.9834 163.464 29.9834 163.516Z" fill="#FAFAFA"></path> <path d="M28.1174 21.6371L10.6928 24.3787L13.437 41.7869L30.8616 39.0453L28.1174 21.6371Z" stroke="#F6DAA0" stroke-width="0.5" stroke-miterlimit="10"></path> <path d="M45.5451 18.8939L28.1205 21.6355L30.8647 39.0437L48.2893 36.3021L45.5451 18.8939Z" stroke="#F6DAA0" stroke-width="0.5" stroke-miterlimit="10"></path> <path d="M63.0656 16.1402L45.641 18.8818L48.3852 36.29L65.8098 33.5484L63.0656 16.1402Z" stroke="#F6DAA0" stroke-width="0.5" stroke-miterlimit="10"></path> <path d="M80.4044 13.411L62.9798 16.1526L65.724 33.5607L83.1486 30.8191L80.4044 13.411Z" stroke="#F6DAA0" stroke-width="0.5" stroke-miterlimit="10"></path> <path d="M10.7226 24.5693L9.32886 26.3528L11.6291 40.9513L13.4382 41.7891L10.7226 24.5693Z" stroke="#F6DAA0" stroke-width="0.5" stroke-miterlimit="10"></path> <path d="M42.796 1.4869L25.3713 4.22852L28.1155 21.6367L45.5402 18.8951L42.796 1.4869Z" stroke="#F6DAA0" stroke-width="0.5" stroke-miterlimit="10"></path> <path d="M25.283 4.24509L23.8932 6.06442L26.2454 20.9821L28.0545 21.8439L25.283 4.24509Z" stroke="#F6DAA0" stroke-width="0.5" stroke-linecap="round" stroke-linejoin="round"></path> <path d="M42.7826 1.39642L44.6636 2.70106L47.0158 17.6188L45.5581 18.9912L42.7826 1.39642Z" stroke="#F6DAA0" stroke-width="0.5" stroke-linecap="round" stroke-linejoin="round"></path> <path d="M42.7986 1.48818L40.9935 0.0997467L26.2255 2.42178L25.3748 4.23313L42.7986 1.48818Z" stroke="#F6DAA0" stroke-width="0.5" stroke-linecap="round" stroke-linejoin="round"></path> <path d="M33.6161 56.4867L51.0407 53.7451L48.2965 36.337L30.8719 39.0786L33.6161 56.4867Z" stroke="#F6DAA0" stroke-width="0.5" stroke-miterlimit="10"></path> <path d="M51.1331 53.7297L52.5228 51.9103L50.1746 36.9926L48.3616 36.1309L51.1331 53.7297Z" stroke="#F6DAA0" stroke-width="0.5" stroke-linecap="round" stroke-linejoin="round"></path> <path d="M33.6334 56.5783L31.7525 55.2736L29.4003 40.356L30.8579 38.9795L33.6334 56.5783Z" stroke="#F6DAA0" stroke-width="0.5" stroke-linecap="round" stroke-linejoin="round"></path> <path d="M33.6175 56.4829L35.4226 57.8754L50.1946 55.5493L51.0412 53.742L33.6175 56.4829Z" stroke="#F6DAA0" stroke-width="0.5" stroke-linecap="round" stroke-linejoin="round"></path> <path d="M146.391 116.457C147.276 115.92 148.23 115.506 149.226 115.224L149.809 112.431L154.553 112.347L155.236 115.14C156.242 115.387 157.21 115.767 158.116 116.269L160.512 114.701L163.926 117.993L162.441 120.443C162.974 121.328 163.388 122.281 163.671 123.275L166.466 123.862L166.55 128.598L163.754 129.28C163.506 130.285 163.124 131.252 162.62 132.157L164.194 134.55L160.939 137.942L158.471 136.45C157.584 136.986 156.629 137.4 155.632 137.682L155.049 140.475L150.304 140.559L149.621 137.766C148.617 137.519 147.65 137.139 146.746 136.637L144.35 138.205L140.939 134.914L142.425 132.464C141.889 131.579 141.474 130.626 141.191 129.631L138.396 129.045L138.312 124.309L141.107 123.627C141.353 122.621 141.733 121.654 142.237 120.75L140.668 118.356L143.963 114.945L146.415 116.429L146.391 116.457ZM148.919 122.769C148.217 123.492 147.746 124.406 147.566 125.397C147.385 126.387 147.502 127.409 147.903 128.333C148.304 129.256 148.97 130.04 149.818 130.586C150.665 131.131 151.655 131.413 152.662 131.395C153.67 131.378 154.65 131.062 155.478 130.488C156.306 129.914 156.944 129.108 157.313 128.171C157.682 127.234 157.764 126.209 157.55 125.225C157.335 124.241 156.833 123.343 156.107 122.645C155.136 121.712 153.834 121.201 152.487 121.224C151.14 121.248 149.857 121.803 148.919 122.769Z" fill="#F6DAA0"></path> <path d="M164.262 7.69996C164.922 7.30248 165.633 6.99393 166.374 6.78231L166.809 4.69567L170.34 4.63184L170.851 6.70651C171.599 6.88927 172.319 7.17246 172.991 7.54835L174.781 6.38334L177.312 8.82906L176.206 10.6524C176.604 11.3123 176.913 12.022 177.125 12.763L179.213 13.1978L179.277 16.7288L177.201 17.2355C177.018 17.9843 176.734 18.705 176.358 19.378L177.536 21.1454L175.084 23.6829L173.259 22.5777C172.599 22.9761 171.888 23.2848 171.146 23.4954L170.711 25.586L167.177 25.6459L166.67 23.5752C165.924 23.3917 165.206 23.1114 164.533 22.7413L162.74 23.9383L160.2 21.4846L161.306 19.6612C160.907 19.002 160.598 18.2921 160.388 17.5507L158.295 17.1158L158.235 13.5649L160.308 13.0542C160.493 12.3072 160.776 11.588 161.151 10.9157L159.981 9.13627L162.437 6.5948L164.262 7.69996ZM166.131 12.4039C165.61 12.9426 165.26 13.6236 165.127 14.3607C164.993 15.0978 165.082 15.8579 165.381 16.5448C165.68 17.2317 166.176 17.8145 166.807 18.2196C167.438 18.6246 168.174 18.8337 168.924 18.8203C169.674 18.8069 170.402 18.5716 171.018 18.1443C171.634 17.717 172.109 17.1167 172.383 16.4196C172.658 15.7224 172.719 14.9597 172.559 14.2278C172.399 13.4959 172.026 12.8279 171.486 12.3081C171.128 11.9629 170.706 11.6916 170.243 11.5095C169.78 11.3275 169.286 11.2384 168.788 11.2473C168.291 11.2562 167.8 11.3629 167.344 11.5614C166.888 11.7598 166.476 12.0461 166.131 12.4039Z" fill="#F6DAA0"></path> <path d="M167.277 142.582C167.692 142.334 168.137 142.141 168.603 142.008L168.874 140.703L171.087 140.663L171.406 141.96C171.874 142.077 172.325 142.254 172.748 142.486L173.866 141.756L175.463 143.292L174.765 144.429C175.013 144.843 175.206 145.287 175.34 145.75L176.646 146.021L176.685 148.232L175.388 148.551C175.27 149.019 175.093 149.469 174.86 149.891L175.591 151.009L174.054 152.604L172.92 151.91C172.508 152.162 172.063 152.355 171.598 152.485L171.326 153.793L169.114 153.833L168.794 152.537C168.325 152.42 167.874 152.242 167.452 152.006L166.334 152.74L164.737 151.204L165.432 150.063C165.18 149.651 164.986 149.207 164.857 148.742L163.547 148.467L163.507 146.257L164.805 145.942C164.921 145.472 165.1 145.02 165.336 144.597L164.601 143.48L166.139 141.884L167.281 142.574L167.277 142.582ZM168.475 145.527C168.149 145.864 167.93 146.29 167.846 146.751C167.762 147.212 167.817 147.687 168.004 148.117C168.191 148.547 168.501 148.912 168.895 149.166C169.29 149.42 169.75 149.551 170.22 149.544C170.689 149.536 171.145 149.389 171.531 149.122C171.916 148.856 172.214 148.48 172.386 148.044C172.559 147.609 172.598 147.131 172.499 146.673C172.399 146.215 172.167 145.797 171.829 145.471C171.373 145.035 170.764 144.796 170.133 144.806C169.501 144.817 168.9 145.076 168.459 145.527H168.475Z" fill="#F6DAA0"></path> <path d="M70.7133 98.4913C71.1269 98.243 71.5713 98.0499 72.0351 97.9168L72.3107 96.6082L74.5231 96.5723L74.8386 97.8689C75.3081 97.9815 75.7597 98.1588 76.1804 98.3956L77.2986 97.6615L78.896 99.1975L78.2011 100.343C78.4536 100.754 78.6472 101.198 78.7762 101.663L80.0861 101.934L80.126 104.145L78.8281 104.464C78.711 104.932 78.5339 105.382 78.301 105.805L79.0318 106.922L77.4743 108.522L76.3322 107.827C75.9185 108.076 75.4741 108.269 75.0103 108.402L74.7348 109.711L72.5223 109.75L72.2069 108.45C71.7376 108.336 71.2861 108.159 70.865 107.923L69.7468 108.657L68.1494 107.121L68.8443 105.98C68.5925 105.567 68.399 105.121 68.2692 104.656L66.9594 104.384L66.9194 102.174L68.2173 101.855C68.3344 101.387 68.5116 100.936 68.7445 100.514L68.0137 99.397L69.5512 97.8011L70.6933 98.4913H70.7133ZM71.9113 101.436C71.5848 101.774 71.3659 102.201 71.2823 102.663C71.1987 103.125 71.2542 103.601 71.4417 104.032C71.6292 104.462 71.9403 104.828 72.3357 105.082C72.7311 105.336 73.193 105.467 73.663 105.458C74.1329 105.45 74.5898 105.303 74.9759 105.035C75.362 104.767 75.6599 104.391 75.8319 103.954C76.0039 103.517 76.0423 103.038 75.9423 102.58C75.8423 102.121 75.6083 101.702 75.2699 101.376C74.8127 100.935 74.1992 100.694 73.5642 100.706C72.9292 100.717 72.3247 100.979 71.8834 101.436H71.9113Z" fill="#F6DAA0"></path> <path d="M181.386 175.465C181.386 175.521 142.166 175.569 93.7959 175.569C45.4264 175.569 6.198 175.521 6.198 175.465C6.198 175.409 45.4104 175.361 93.7959 175.361C142.181 175.361 181.386 175.405 181.386 175.465Z" fill="#263238"></path> <path d="M143.1 141.712L95.8446 141.684C90.1658 141.684 85.5612 137.271 85.5612 131.829L85.5852 18.3968C85.5852 12.9547 90.1977 8.54206 95.8805 8.54206L143.128 8.56999C148.811 8.56999 153.415 12.9866 153.415 18.4287L153.391 131.857C153.399 137.303 148.787 141.716 143.1 141.712Z" fill="#4968B2"></path> <path d="M143.088 12.584H133.927H107.17H95.9324C91.9389 12.584 88.7241 15.6721 88.7201 19.4863V130.202C88.7201 134.012 91.9429 137.104 95.9084 137.104L143.06 137.132C147.054 137.132 150.272 134.044 150.272 130.23L150.296 19.5142C150.292 15.676 147.065 12.584 143.088 12.584Z" fill="white"></path> <path d="M142.693 64H105.545V98.0206H142.693V64Z" fill="#FFA808"></path> <g opacity="0.3"> <path d="M142.693 64H105.545V98.0206H142.693V64Z" fill="black"></path> </g> <path d="M127.601 64H96.2998V98.0206H127.601V64Z" fill="#FFA808"></path> <path d="M127.601 98.0845C127.541 98.0845 127.497 90.4521 127.497 81.0442C127.497 71.6364 127.541 64 127.601 64C127.661 64 127.705 71.6284 127.705 81.0442C127.705 90.46 127.657 98.0845 127.601 98.0845Z" fill="#263238"></path> <path d="M142.693 81.0442C142.693 81.1 139.222 81.1479 134.941 81.1479C130.66 81.1479 127.194 81.1 127.194 81.0442C127.194 80.9883 130.664 80.9404 134.941 80.9404C139.218 80.9404 142.693 80.9923 142.693 81.0442Z" fill="#263238"></path> <path d="M139.206 95.8336H137.249C137.21 95.8336 137.173 95.8181 137.145 95.7904C137.117 95.7627 137.102 95.7252 137.102 95.686C137.102 95.6465 137.117 95.6085 137.145 95.5802C137.172 95.5519 137.21 95.5354 137.249 95.5344H139.059V93.7589C139.059 93.7198 139.074 93.6822 139.102 93.6546C139.129 93.6269 139.167 93.6113 139.206 93.6113C139.246 93.6113 139.284 93.6267 139.312 93.6543C139.341 93.6819 139.357 93.7194 139.358 93.7589V95.7059C139.353 95.7422 139.335 95.7754 139.307 95.799C139.279 95.8226 139.243 95.8349 139.206 95.8336Z" fill="white"></path> <path d="M139.206 91.509C139.187 91.509 139.167 91.505 139.149 91.4974C139.131 91.4897 139.114 91.4785 139.1 91.4643C139.087 91.4502 139.076 91.4335 139.069 91.4151C139.061 91.3967 139.058 91.3771 139.059 91.3574V89.3226H137.198C137.158 89.3226 137.121 89.307 137.093 89.2794C137.065 89.2517 137.05 89.2141 137.05 89.175C137.05 89.1354 137.065 89.0975 137.093 89.0692C137.12 89.0408 137.158 89.0244 137.198 89.0234H139.194C139.235 89.0234 139.273 89.0393 139.302 89.0678C139.33 89.0962 139.346 89.1348 139.346 89.175V91.3654C139.344 91.4022 139.329 91.4371 139.303 91.4635C139.278 91.49 139.243 91.5061 139.206 91.509Z" fill="white"></path> <path d="M132.689 91.5609C132.649 91.5598 132.612 91.5434 132.584 91.5151C132.556 91.4867 132.541 91.4488 132.541 91.4092V89.175C132.541 89.1354 132.556 89.0975 132.584 89.0692C132.612 89.0408 132.649 89.0244 132.689 89.0234H134.686C134.726 89.0234 134.764 89.0393 134.793 89.0678C134.821 89.0962 134.837 89.1348 134.837 89.175C134.837 89.1947 134.833 89.2142 134.826 89.2324C134.818 89.2506 134.807 89.267 134.793 89.2808C134.779 89.2946 134.762 89.3053 134.743 89.3125C134.725 89.3197 134.705 89.3231 134.686 89.3226H132.841V91.4092C132.841 91.4494 132.825 91.488 132.796 91.5164C132.768 91.5449 132.729 91.5609 132.689 91.5609Z" fill="white"></path> <path d="M134.634 95.8339H132.689C132.65 95.8339 132.612 95.8183 132.584 95.7906C132.557 95.763 132.541 95.7254 132.541 95.6863V93.843C132.547 93.8075 132.565 93.7752 132.593 93.752C132.62 93.7287 132.655 93.7159 132.691 93.7159C132.727 93.7159 132.762 93.7287 132.789 93.752C132.817 93.7752 132.835 93.8075 132.841 93.843V95.5346H134.634C134.674 95.5346 134.713 95.5506 134.741 95.579C134.769 95.6075 134.785 95.646 134.785 95.6863C134.785 95.706 134.781 95.7255 134.774 95.7437C134.766 95.7619 134.755 95.7783 134.741 95.7921C134.727 95.8058 134.71 95.8166 134.691 95.8238C134.673 95.831 134.653 95.8344 134.634 95.8339Z" fill="white"></path> <path d="M137.197 94.445H134.737C134.699 94.444 134.662 94.4281 134.634 94.4006C134.607 94.3731 134.591 94.3362 134.59 94.2973V90.5071C134.59 90.4676 134.605 90.4296 134.633 90.4013C134.66 90.3729 134.698 90.3565 134.737 90.3555H137.197C137.238 90.3555 137.276 90.3714 137.305 90.3999C137.333 90.4283 137.349 90.4669 137.349 90.5071V94.2973C137.348 94.3369 137.332 94.3744 137.303 94.402C137.275 94.4296 137.237 94.445 137.197 94.445ZM134.889 94.1457H137.05V90.6547H134.889V94.1457Z" fill="white"></path> <path d="M136.211 93.6675C136.211 93.7235 136.189 93.7773 136.149 93.817C136.109 93.8566 136.056 93.8789 135.999 93.8789C135.943 93.8789 135.89 93.8566 135.85 93.817C135.81 93.7773 135.788 93.7235 135.788 93.6675C135.788 93.6114 135.81 93.5576 135.85 93.5179C135.89 93.4783 135.943 93.456 135.999 93.456C136.056 93.456 136.109 93.4783 136.149 93.5179C136.189 93.5576 136.211 93.6114 136.211 93.6675Z" fill="white"></path> <path d="M136.243 91.2297H135.692C135.672 91.2303 135.653 91.2268 135.635 91.2196C135.617 91.2124 135.6 91.2015 135.586 91.1877C135.572 91.1739 135.562 91.1574 135.554 91.1392C135.547 91.1211 135.544 91.1016 135.544 91.0821C135.544 91.0624 135.547 91.0427 135.554 91.0244C135.561 91.006 135.572 90.9892 135.586 90.9751C135.6 90.961 135.616 90.9497 135.634 90.9421C135.653 90.9344 135.672 90.9305 135.692 90.9305H136.243C136.283 90.9305 136.322 90.9464 136.35 90.9749C136.379 91.0033 136.395 91.0419 136.395 91.0821C136.395 91.1018 136.391 91.1213 136.383 91.1395C136.376 91.1577 136.364 91.1741 136.35 91.1879C136.336 91.2017 136.319 91.2125 136.301 91.2196C136.282 91.2268 136.263 91.2302 136.243 91.2297Z" fill="white"></path> <path d="M117.729 82.8076H101.939C101.813 82.8081 101.688 82.7837 101.571 82.7358C101.455 82.6878 101.349 82.6173 101.26 82.5283C101.171 82.4393 101.1 82.3335 101.052 82.2171C101.004 82.1007 100.98 81.9759 100.98 81.85C100.98 81.7245 101.005 81.6002 101.053 81.4842C101.101 81.3683 101.172 81.263 101.261 81.1744C101.35 81.0858 101.456 81.0156 101.572 80.9679C101.688 80.9202 101.813 80.896 101.939 80.8965H117.729C117.982 80.8965 118.225 80.997 118.404 81.1758C118.583 81.3546 118.684 81.5971 118.684 81.85C118.684 81.9756 118.66 82.1 118.612 82.2162C118.564 82.3323 118.494 82.4379 118.405 82.5269C118.317 82.6159 118.211 82.6865 118.095 82.7346C117.979 82.7828 117.855 82.8076 117.729 82.8076Z" fill="white"></path> <path d="M106.196 83.8447H101.939C101.409 83.8447 100.98 84.2725 100.98 84.8002C100.98 85.328 101.409 85.7558 101.939 85.7558H106.196C106.725 85.7558 107.154 85.328 107.154 84.8002C107.154 84.2725 106.725 83.8447 106.196 83.8447Z" fill="white"></path> <path d="M105.545 89.0792C104.253 89.2175 102.951 89.2175 101.659 89.0792C102.951 88.9409 104.253 88.9409 105.545 89.0792Z" fill="white"></path> <path d="M117.825 93.6036H117.238C116.795 93.6036 116.435 93.9626 116.435 94.4055V94.992C116.435 95.4349 116.795 95.794 117.238 95.794H117.825C118.268 95.794 118.628 95.4349 118.628 94.992V94.4055C118.628 93.9626 118.268 93.6036 117.825 93.6036Z" fill="white"></path> <path d="M120.892 93.6036H120.305C119.862 93.6036 119.502 93.9626 119.502 94.4055V94.992C119.502 95.4349 119.862 95.794 120.305 95.794H120.892C121.335 95.794 121.695 95.4349 121.695 94.992V94.4055C121.695 93.9626 121.335 93.6036 120.892 93.6036Z" fill="white"></path> <path d="M123.955 93.5752H123.368C122.925 93.5752 122.565 93.9342 122.565 94.3771V94.9636C122.565 95.4065 122.925 95.7656 123.368 95.7656H123.955C124.398 95.7656 124.758 95.4065 124.758 94.9636V94.3771C124.758 93.9342 124.398 93.5752 123.955 93.5752Z" fill="white"></path> <path d="M113.232 70.2277H101.076V75.1271H113.232V70.2277Z" fill="white"></path> <path d="M180.751 50.8773H164.749C164.4 50.8773 164.066 50.739 163.82 50.4929C163.573 50.2467 163.435 49.9128 163.435 49.5647C163.435 49.3925 163.469 49.222 163.535 49.063C163.601 48.904 163.698 48.7595 163.82 48.6379C163.942 48.5164 164.087 48.4201 164.246 48.3545C164.406 48.289 164.576 48.2555 164.749 48.2561H180.751C181.098 48.2561 181.431 48.3939 181.677 48.6394C181.923 48.8848 182.061 49.2176 182.061 49.5647C182.061 49.7369 182.028 49.9075 181.962 50.0667C181.897 50.226 181.8 50.3707 181.678 50.4926C181.557 50.6146 181.412 50.7113 181.253 50.7773C181.094 50.8434 180.923 50.8773 180.751 50.8773Z" fill="#F6DAA0"></path> <path d="M180.751 56.0246H164.749C164.4 56.0246 164.066 55.8863 163.82 55.6401C163.573 55.394 163.435 55.0601 163.435 54.712C163.435 54.5398 163.469 54.3693 163.535 54.2102C163.601 54.0512 163.698 53.9068 163.82 53.7852C163.942 53.6636 164.087 53.5673 164.246 53.5018C164.406 53.4363 164.576 53.4028 164.749 53.4033H180.751C181.098 53.4033 181.431 53.5412 181.677 53.7866C181.923 54.032 182.061 54.3649 182.061 54.712C182.061 54.8842 182.028 55.0548 181.962 55.214C181.897 55.3732 181.8 55.518 181.678 55.6399C181.557 55.7618 181.412 55.8586 181.253 55.9246C181.094 55.9906 180.923 56.0246 180.751 56.0246Z" fill="#F6DAA0"></path> <path d="M169.569 61.0432H164.749C164.4 61.0432 164.066 60.9049 163.82 60.6588C163.573 60.4126 163.435 60.0787 163.435 59.7306C163.435 59.5584 163.469 59.3879 163.535 59.2289C163.601 59.0699 163.698 58.9254 163.82 58.8038C163.942 58.6823 164.087 58.586 164.246 58.5204C164.406 58.4549 164.576 58.4214 164.749 58.422H169.569C169.916 58.422 170.25 58.5598 170.495 58.8053C170.741 59.0507 170.879 59.3835 170.879 59.7306C170.879 59.9028 170.846 60.0734 170.78 60.2326C170.715 60.3919 170.618 60.5366 170.497 60.6585C170.375 60.7805 170.23 60.8772 170.071 60.9432C169.912 61.0093 169.741 61.0432 169.569 61.0432Z" fill="#F6DAA0"></path> <path d="M160.643 44.8372C160.683 44.8731 156.542 49.2977 151.394 54.7078C146.247 60.1179 142.034 64.4787 141.994 64.4388C141.954 64.3989 146.091 59.9783 151.243 54.5642C156.394 49.1501 160.6 44.7973 160.643 44.8372Z" fill="#263238"></path> <path d="M144.342 64.3148C144.343 64.6409 144.247 64.9599 144.066 65.2314C143.885 65.5029 143.628 65.7147 143.327 65.84C143.025 65.9653 142.693 65.9985 142.373 65.9354C142.053 65.8723 141.759 65.7157 141.528 65.4854C141.297 65.2551 141.139 64.9615 141.075 64.6417C141.011 64.322 141.044 63.9905 141.168 63.6892C141.293 63.3878 141.505 63.1303 141.776 62.949C142.047 62.7678 142.366 62.671 142.693 62.671C143.129 62.671 143.548 62.8441 143.857 63.1523C144.167 63.4604 144.341 63.8785 144.342 64.3148Z" fill="#263238"></path> <path d="M96.2998 84.483C97.2107 84.483 97.9492 83.7453 97.9492 82.8353C97.9492 81.9252 97.2107 81.1875 96.2998 81.1875C95.3889 81.1875 94.6505 81.9252 94.6505 82.8353C94.6505 83.7453 95.3889 84.483 96.2998 84.483Z" fill="#263238"></path> <path d="M143.296 95.1041C144.207 95.1041 144.945 94.3664 144.945 93.4564C144.945 92.5463 144.207 91.8086 143.296 91.8086C142.385 91.8086 141.646 92.5463 141.646 93.4564C141.646 94.3664 142.385 95.1041 143.296 95.1041Z" fill="#263238"></path> <path d="M138.907 33.8169H102.234C101.705 33.8169 101.197 33.6067 100.822 33.2326C100.448 32.8585 100.237 32.3511 100.237 31.822C100.237 31.293 100.448 30.7855 100.822 30.4114C101.197 30.0373 101.705 29.8271 102.234 29.8271H138.907C139.436 29.8271 139.944 30.0373 140.319 30.4114C140.693 30.7855 140.903 31.293 140.903 31.822C140.903 32.3511 140.693 32.8585 140.319 33.2326C139.944 33.6067 139.436 33.8169 138.907 33.8169Z" fill="#F6DAA0"></path> <path d="M131.387 42.0161H109.762C109.232 42.0161 108.725 41.8059 108.35 41.4318C107.976 41.0577 107.765 40.5503 107.765 40.0212C107.765 39.4921 107.976 38.9847 108.35 38.6106C108.725 38.2365 109.232 38.0263 109.762 38.0263H131.387C131.917 38.0263 132.424 38.2365 132.799 38.6106C133.173 38.9847 133.384 39.4921 133.384 40.0212C133.384 40.5503 133.173 41.0577 132.799 41.4318C132.424 41.8059 131.917 42.0161 131.387 42.0161Z" fill="#F6DAA0"></path> <path d="M167.984 39.3789H163.435V43.9232H167.984V39.3789Z" fill="#FFA808"></path> <path d="M80.785 46.1455H64.7829C64.4355 46.1455 64.1024 46.0076 63.8567 45.7622C63.6111 45.5168 63.4731 45.1839 63.4731 44.8368C63.4725 44.6647 63.506 44.4941 63.5716 44.3348C63.6372 44.1756 63.7336 44.0309 63.8553 43.9089C63.977 43.787 64.1216 43.6902 64.2807 43.6242C64.4399 43.5582 64.6106 43.5242 64.7829 43.5242H80.785C81.1334 43.5242 81.4676 43.6625 81.714 43.9087C81.9604 44.1548 82.0989 44.4887 82.0989 44.8368C82.0989 45.009 82.0648 45.1795 81.9988 45.3386C81.9327 45.4976 81.8358 45.642 81.7138 45.7636C81.5917 45.8852 81.4469 45.9815 81.2875 46.047C81.1281 46.1125 80.9573 46.146 80.785 46.1455Z" fill="#F6DAA0"></path> <path d="M80.785 51.2923H64.7829C64.4355 51.2923 64.1024 51.1544 63.8567 50.909C63.6111 50.6636 63.4731 50.3307 63.4731 49.9836C63.4725 49.8114 63.506 49.6408 63.5716 49.4816C63.6372 49.3224 63.7336 49.1776 63.8553 49.0557C63.977 48.9338 64.1216 48.837 64.2807 48.771C64.4399 48.705 64.6106 48.671 64.7829 48.671H80.785C81.1334 48.671 81.4676 48.8093 81.714 49.0555C81.9604 49.3016 82.0989 49.6355 82.0989 49.9836C82.0989 50.1558 82.0648 50.3263 81.9988 50.4853C81.9327 50.6444 81.8358 50.7888 81.7138 50.9104C81.5917 51.032 81.4469 51.1283 81.2875 51.1938C81.1281 51.2593 80.9573 51.2928 80.785 51.2923Z" fill="#F6DAA0"></path> <path d="M69.6031 56.3273H64.7829C64.4355 56.3273 64.1024 56.1895 63.8567 55.9441C63.6111 55.6986 63.4731 55.3658 63.4731 55.0187C63.4725 54.8465 63.506 54.6759 63.5716 54.5167C63.6372 54.3574 63.7336 54.2127 63.8553 54.0908C63.977 53.9688 64.1216 53.8721 64.2807 53.8061C64.4399 53.7401 64.6106 53.7061 64.7829 53.7061H69.6031C69.7755 53.7061 69.9461 53.7401 70.1053 53.8061C70.2645 53.8721 70.4091 53.9688 70.5308 54.0908C70.6524 54.2127 70.7488 54.3574 70.8144 54.5167C70.88 54.6759 70.9135 54.8465 70.913 55.0187C70.913 55.3658 70.775 55.6986 70.5293 55.9441C70.2837 56.1895 69.9505 56.3273 69.6031 56.3273Z" fill="#F6DAA0"></path> <path d="M68.0216 34.6475H63.473V39.1918H68.0216V34.6475Z" fill="#FFA808"></path> <path d="M183.702 100.478H167.684C167.337 100.478 167.003 100.34 166.758 100.094C166.512 99.8489 166.374 99.5161 166.374 99.169C166.374 98.8219 166.512 98.4891 166.758 98.2436C167.003 97.9982 167.337 97.8604 167.684 97.8604H183.702C184.049 97.8604 184.383 97.9982 184.628 98.2436C184.874 98.4891 185.012 98.8219 185.012 99.169C185.012 99.5161 184.874 99.8489 184.628 100.094C184.383 100.34 184.049 100.478 183.702 100.478Z" fill="#F6DAA0"></path> <path d="M183.69 103.008H167.684C166.961 103.008 166.374 103.594 166.374 104.316V104.32C166.374 105.043 166.961 105.629 167.684 105.629H183.69C184.413 105.629 185 105.043 185 104.32V104.316C185 103.594 184.413 103.008 183.69 103.008Z" fill="#F6DAA0"></path> <path d="M172.52 110.664H167.684C167.512 110.664 167.341 110.63 167.182 110.564C167.023 110.498 166.878 110.401 166.756 110.28C166.635 110.158 166.538 110.013 166.473 109.854C166.407 109.694 166.374 109.524 166.374 109.352C166.374 109.005 166.512 108.672 166.758 108.426C167.003 108.181 167.337 108.043 167.684 108.043H172.52C172.868 108.043 173.202 108.181 173.448 108.426C173.694 108.671 173.833 109.004 173.834 109.352C173.834 109.7 173.696 110.034 173.449 110.28C173.203 110.526 172.869 110.664 172.52 110.664Z" fill="#F6DAA0"></path> <path d="M170.923 90.0926H166.374V94.637H170.923V90.0926Z" fill="#FFA808"></path> <path d="M162.8 93.4564C162.576 93.4863 162.351 93.4997 162.125 93.4963L160.284 93.5282C158.735 93.5481 156.586 93.5601 154.218 93.5601C151.85 93.5601 149.701 93.5601 148.148 93.5282L146.311 93.4963C146.085 93.4997 145.86 93.4863 145.636 93.4564C145.859 93.4234 146.085 93.4087 146.311 93.4125L148.148 93.3806C149.701 93.3606 151.846 93.3486 154.218 93.3486C156.59 93.3486 158.735 93.3486 160.284 93.3806L162.125 93.4125C162.351 93.4087 162.577 93.4234 162.8 93.4564Z" fill="#263238"></path> <path d="M74.6789 61.2903C74.7188 61.2504 79.5949 66.058 85.5692 72.0227C91.5435 77.9874 96.3517 82.8629 96.3118 82.9068C96.2719 82.9507 91.3958 78.1191 85.4215 72.1703C79.4471 66.2216 74.627 61.3342 74.6789 61.2903Z" fill="#263238"></path> <path d="M92.8135 58.5097C92.7605 58.5097 92.7098 58.4887 92.6723 58.4513C92.6349 58.4139 92.6138 58.3632 92.6138 58.3102V52.4214C92.6149 52.3688 92.6362 52.3186 92.6734 52.2814C92.7107 52.2442 92.7609 52.2229 92.8135 52.2219H98.7199C98.7726 52.2229 98.8228 52.2442 98.86 52.2814C98.8972 52.3186 98.9186 52.3688 98.9196 52.4214C98.9196 52.4743 98.8986 52.525 98.8611 52.5624C98.8237 52.5998 98.7729 52.6209 98.7199 52.6209H93.0132V58.3102C93.0132 58.3632 92.9921 58.4139 92.9547 58.4513C92.9172 58.4887 92.8665 58.5097 92.8135 58.5097Z" fill="#FFA808"></path> <path d="M144.965 58.5137C144.912 58.5137 144.861 58.4927 144.824 58.4553C144.786 58.4179 144.765 58.3671 144.765 58.3142V52.6169H139.051C138.998 52.6169 138.947 52.5959 138.909 52.5584C138.872 52.521 138.851 52.4703 138.851 52.4174C138.851 52.3645 138.872 52.3137 138.909 52.2763C138.947 52.2389 138.998 52.2179 139.051 52.2179H144.965C145.018 52.2179 145.069 52.2389 145.106 52.2763C145.144 52.3137 145.165 52.3645 145.165 52.4174V58.3142C145.165 58.3671 145.144 58.4179 145.106 58.4553C145.069 58.4927 145.018 58.5137 144.965 58.5137Z" fill="#FFA808"></path> <path d="M144.965 107.875H139.043C138.99 107.875 138.939 107.854 138.901 107.817C138.864 107.779 138.843 107.728 138.843 107.675C138.843 107.623 138.864 107.572 138.901 107.534C138.939 107.497 138.99 107.476 139.043 107.476H144.745V101.787C144.745 101.734 144.766 101.683 144.804 101.646C144.841 101.608 144.892 101.587 144.945 101.587C144.998 101.587 145.049 101.608 145.086 101.646C145.124 101.683 145.145 101.734 145.145 101.787V107.675C145.145 107.725 145.127 107.773 145.093 107.81C145.06 107.847 145.014 107.87 144.965 107.875Z" fill="#FFA808"></path> <path d="M98.7079 107.808H92.8134C92.7605 107.808 92.7097 107.787 92.6723 107.749C92.6348 107.712 92.6138 107.661 92.6138 107.608V101.711C92.6138 101.658 92.6348 101.608 92.6723 101.57C92.7097 101.533 92.7605 101.512 92.8134 101.512C92.8664 101.512 92.9172 101.533 92.9546 101.57C92.9921 101.608 93.0131 101.658 93.0131 101.711V107.409H98.7079C98.7608 107.409 98.8116 107.43 98.8491 107.467C98.8865 107.504 98.9076 107.555 98.9076 107.608C98.9076 107.661 98.8865 107.712 98.8491 107.749C98.8116 107.787 98.7608 107.808 98.7079 107.808Z" fill="#FFA808"></path> <path d="M120.565 132.294C123.046 131.258 124.216 128.409 123.18 125.931C122.143 123.453 119.292 122.283 116.811 123.319C114.33 124.355 113.16 127.203 114.196 129.682C115.233 132.16 118.084 133.329 120.565 132.294Z" fill="#F6DAA0"></path> <path d="M95.593 22.8374L98.8837 19.6056C99.0215 19.4641 99.0986 19.2745 99.0986 19.077C99.0986 18.8795 99.0215 18.6899 98.8837 18.5484C98.7409 18.4113 98.5505 18.3348 98.3525 18.3348C98.1545 18.3348 97.9642 18.4113 97.8214 18.5484L94.5307 21.7801C94.3929 21.9216 94.3158 22.1113 94.3158 22.3087C94.3158 22.5062 94.3929 22.6958 94.5307 22.8374C94.674 22.9735 94.8641 23.0494 95.0619 23.0494C95.2596 23.0494 95.4497 22.9735 95.593 22.8374Z" fill="#F6DAA0"></path> <path d="M98.8557 21.808L95.6209 18.5204C95.4782 18.3917 95.2915 18.3226 95.0994 18.3273C94.9072 18.332 94.7241 18.4102 94.5879 18.5458C94.4517 18.6813 94.3728 18.8639 94.3673 19.0559C94.3619 19.2479 94.4303 19.4347 94.5586 19.5777L97.7934 22.8653C97.9361 22.994 98.1228 23.0631 98.315 23.0584C98.5072 23.0537 98.6902 22.9755 98.8264 22.8399C98.9626 22.7044 99.0416 22.5218 99.047 22.3298C99.0524 22.1378 98.984 21.951 98.8557 21.808Z" fill="#F6DAA0"></path> <path d="M150.396 98.0207C150.396 98.0806 136.559 98.1245 119.498 98.1245C102.438 98.1245 88.5963 98.0806 88.5963 98.0207C88.5963 97.9609 102.426 97.917 119.498 97.917C136.571 97.917 150.396 97.9649 150.396 98.0207Z" fill="#263238"></path> <path d="M138.807 117.211H75.3099V175.358H138.807V117.211Z" fill="#FFA808"></path> <g opacity="0.3"> <path d="M138.807 117.211H75.3099V175.358H138.807V117.211Z" fill="black"></path> </g> <path d="M113.009 117.211H59.5075V175.358H113.009V117.211Z" fill="#FFA808"></path> <path d="M113.017 175.465C112.957 175.465 112.913 162.423 112.913 146.34C112.913 130.257 112.957 117.215 113.017 117.215C113.077 117.215 113.121 130.253 113.121 146.34C113.121 162.427 113.065 175.465 113.017 175.465Z" fill="#263238"></path> <path d="M138.803 146.34C138.803 146.396 132.873 146.444 125.56 146.444C118.248 146.444 112.314 146.396 112.314 146.34C112.314 146.284 118.24 146.236 125.56 146.236C132.88 146.236 138.803 146.28 138.803 146.34Z" fill="#263238"></path> <path d="M132.849 171.767H129.502C129.396 171.767 129.295 171.725 129.22 171.65C129.145 171.575 129.103 171.474 129.103 171.368C129.103 171.262 129.145 171.161 129.22 171.086C129.295 171.011 129.396 170.969 129.502 170.969H132.449V168.044C132.449 167.939 132.491 167.837 132.566 167.762C132.641 167.687 132.743 167.645 132.849 167.645C132.955 167.645 133.056 167.687 133.131 167.762C133.206 167.837 133.248 167.939 133.248 168.044V171.368C133.248 171.474 133.206 171.575 133.131 171.65C133.056 171.725 132.955 171.767 132.849 171.767Z" fill="white"></path> <path d="M132.849 164.378C132.743 164.378 132.641 164.336 132.566 164.261C132.491 164.186 132.449 164.085 132.449 163.979V160.643H129.414C129.308 160.643 129.207 160.601 129.132 160.527C129.057 160.452 129.015 160.35 129.015 160.244C129.015 160.139 129.057 160.037 129.132 159.962C129.207 159.888 129.308 159.846 129.414 159.846H132.849C132.954 159.846 133.056 159.888 133.131 159.962C133.206 160.037 133.248 160.139 133.248 160.244V163.979C133.248 164.085 133.206 164.186 133.131 164.261C133.056 164.336 132.954 164.378 132.849 164.378Z" fill="white"></path> <path d="M121.707 164.458C121.601 164.458 121.499 164.416 121.424 164.341C121.349 164.266 121.307 164.165 121.307 164.059V160.237C121.307 160.131 121.349 160.03 121.424 159.955C121.499 159.88 121.601 159.838 121.707 159.838H125.121C125.227 159.838 125.329 159.88 125.403 159.955C125.478 160.03 125.52 160.131 125.52 160.237C125.52 160.343 125.478 160.444 125.403 160.519C125.329 160.594 125.227 160.636 125.121 160.636H122.106V164.059C122.106 164.165 122.064 164.266 121.989 164.341C121.914 164.416 121.813 164.458 121.707 164.458Z" fill="white"></path> <path d="M125.033 171.767H121.707C121.601 171.767 121.499 171.725 121.424 171.65C121.349 171.576 121.307 171.474 121.307 171.368V168.216C121.307 168.111 121.349 168.009 121.424 167.934C121.499 167.859 121.601 167.817 121.707 167.817C121.813 167.817 121.914 167.859 121.989 167.934C122.064 168.009 122.106 168.111 122.106 168.216V170.969H125.033C125.139 170.969 125.241 171.011 125.316 171.086C125.39 171.161 125.433 171.262 125.433 171.368C125.433 171.474 125.39 171.576 125.316 171.65C125.241 171.725 125.139 171.767 125.033 171.767Z" fill="white"></path> <path d="M129.414 169.389H125.209C125.103 169.389 125.001 169.347 124.927 169.272C124.852 169.197 124.81 169.095 124.81 168.99V162.514C124.81 162.408 124.852 162.307 124.927 162.232C125.001 162.157 125.103 162.115 125.209 162.115H129.414C129.52 162.115 129.622 162.157 129.696 162.232C129.771 162.307 129.813 162.408 129.813 162.514V168.99C129.813 169.095 129.771 169.197 129.696 169.272C129.622 169.347 129.52 169.389 129.414 169.389ZM125.608 168.591H129.015V162.913H125.608V168.591Z" fill="white"></path> <path d="M127.361 168.28C127.562 168.28 127.725 168.117 127.725 167.917C127.725 167.716 127.562 167.554 127.361 167.554C127.161 167.554 126.998 167.716 126.998 167.917C126.998 168.117 127.161 168.28 127.361 168.28Z" fill="white"></path> <path d="M127.793 163.895H126.846C126.74 163.895 126.639 163.853 126.564 163.778C126.489 163.703 126.447 163.601 126.447 163.496C126.447 163.39 126.489 163.288 126.564 163.214C126.639 163.139 126.74 163.097 126.846 163.097H127.793C127.899 163.097 128 163.139 128.075 163.214C128.15 163.288 128.192 163.39 128.192 163.496C128.192 163.601 128.15 163.703 128.075 163.778C128 163.853 127.899 163.895 127.793 163.895Z" fill="white"></path> <path d="M96.1321 149.356H69.1439C68.7103 149.355 68.2949 149.183 67.9887 148.876C67.6825 148.569 67.5105 148.154 67.5105 147.721C67.5105 147.288 67.6826 146.873 67.9889 146.567C68.2952 146.261 68.7107 146.089 69.1439 146.089H96.1321C96.5657 146.089 96.9815 146.261 97.2885 146.567C97.5954 146.872 97.7684 147.287 97.7695 147.721C97.7684 148.154 97.5956 148.57 97.2887 148.876C96.9819 149.183 96.566 149.355 96.1321 149.356Z" fill="white"></path> <path d="M76.4241 154.403H69.1439C68.7103 154.402 68.2949 154.23 67.9887 153.923C67.6825 153.616 67.5105 153.201 67.5105 152.768C67.5105 152.335 67.6826 151.92 67.9889 151.614C68.2952 151.308 68.7107 151.136 69.1439 151.136H76.4241C76.8576 151.136 77.2735 151.308 77.5804 151.614C77.8874 151.919 78.0604 152.335 78.0614 152.768C78.0604 153.201 77.8875 153.617 77.5807 153.923C77.2739 154.23 76.858 154.402 76.4241 154.403Z" fill="white"></path> <path d="M75.3099 160.077C74.207 160.182 73.0985 160.217 71.9913 160.181C70.884 160.217 69.7755 160.182 68.6726 160.077C69.7757 159.974 70.884 159.94 71.9913 159.973C73.0985 159.94 74.2069 159.974 75.3099 160.077Z" fill="white"></path> <path d="M96.8709 167.809H94.7264C94.2831 167.809 93.9237 168.168 93.9237 168.611V170.753C93.9237 171.196 94.2831 171.555 94.7264 171.555H96.8709C97.3142 171.555 97.6736 171.196 97.6736 170.753V168.611C97.6736 168.168 97.3142 167.809 96.8709 167.809Z" fill="white"></path> <path d="M102.11 167.809H99.9659C99.5226 167.809 99.1632 168.168 99.1632 168.611V170.753C99.1632 171.196 99.5226 171.555 99.9659 171.555H102.11C102.554 171.555 102.913 171.196 102.913 170.753V168.611C102.913 168.168 102.554 167.809 102.11 167.809Z" fill="white"></path> <path d="M107.35 167.761H105.205C104.762 167.761 104.403 168.12 104.403 168.563V170.705C104.403 171.148 104.762 171.507 105.205 171.507H107.35C107.793 171.507 108.153 171.148 108.153 170.705V168.563C108.153 168.12 107.793 167.761 107.35 167.761Z" fill="white"></path> <path d="M92.8374 131.191H68.0975V139.658H92.8374V131.191Z" fill="white"></path> <path d="M145.456 156.31C147.952 158.11 148.076 161.896 146.003 164.007C145.105 164.924 146.514 166.337 147.413 165.415C148.123 164.686 148.669 163.816 149.017 162.86C149.365 161.905 149.505 160.887 149.43 159.873C149.356 158.828 149.051 157.813 148.538 156.9C148.025 155.987 147.316 155.198 146.462 154.591C146.233 154.46 145.962 154.424 145.707 154.491C145.452 154.557 145.233 154.72 145.097 154.946C144.969 155.176 144.936 155.446 145.003 155.7C145.07 155.954 145.232 156.173 145.456 156.31Z" fill="#FFA808"></path> <path d="M148.559 153.79C152.553 156.646 152.852 162.719 149.482 166.158C148.583 167.071 149.993 168.484 150.895 167.566C152.471 165.919 153.466 163.803 153.728 161.539C153.989 159.276 153.504 156.989 152.345 155.026C151.624 153.863 150.673 152.86 149.549 152.078C149.32 151.946 149.048 151.909 148.793 151.976C148.537 152.044 148.318 152.209 148.184 152.437C148.055 152.666 148.02 152.936 148.086 153.191C148.153 153.445 148.315 153.664 148.539 153.801L148.559 153.79Z" fill="#FFA808"></path> <path d="M151.926 150.853C156.183 153.885 157.493 159.706 155.556 164.418C155.009 165.718 154.219 166.901 153.227 167.905C152.325 168.819 153.735 170.231 154.641 169.314C156.702 167.158 157.999 164.386 158.333 161.424C158.666 158.462 158.019 155.472 156.49 152.912C155.57 151.43 154.36 150.149 152.932 149.145C152.702 149.015 152.431 148.98 152.176 149.047C151.921 149.114 151.702 149.278 151.566 149.504C151.439 149.734 151.405 150.005 151.472 150.259C151.539 150.513 151.701 150.731 151.926 150.869V150.853Z" fill="#FFA808"></path> <path d="M42.9304 163.014L42.6788 175.091L58.589 175.466C58.5371 174.029 50.3783 170.953 50.3783 170.953L50.8775 163.221L42.9304 163.014Z" fill="#455A64"></path> <g opacity="0.6"> <path d="M45.4742 170.187C45.3241 170.221 45.1926 170.311 45.1059 170.439C45.0193 170.566 44.984 170.721 45.007 170.873C45.0501 171.023 45.1474 171.152 45.2803 171.235C45.4131 171.318 45.5719 171.348 45.7258 171.32C45.8856 171.283 46.0253 171.186 46.1165 171.05C46.2077 170.914 46.2436 170.748 46.217 170.586C46.1591 170.431 46.0445 170.303 45.8963 170.229C45.7481 170.155 45.5773 170.14 45.4183 170.187" fill="white"></path> </g> <g opacity="0.6"> <path d="M42.6788 175.09L42.7547 173.873L57.982 174.671C57.982 174.671 58.6849 174.978 58.589 175.469L42.6788 175.09Z" fill="white"></path> </g> <path d="M50.6379 170.881C50.6379 170.953 50.2385 170.981 49.8392 171.205C49.4398 171.428 49.2402 171.735 49.1683 171.707C49.0964 171.679 49.2242 171.252 49.6994 170.985C50.1746 170.718 50.6579 170.814 50.6379 170.881Z" fill="#263238"></path> <path d="M52.2912 171.559C52.2912 171.631 51.9677 171.751 51.6962 172.054C51.4246 172.357 51.3367 172.685 51.2609 172.681C51.185 172.677 51.1451 172.258 51.4925 171.883C51.8399 171.508 52.2912 171.504 52.2912 171.559Z" fill="#263238"></path> <path d="M53.1898 173.482C53.1179 173.482 53.0181 173.127 53.2297 172.728C53.4414 172.329 53.8088 172.181 53.8407 172.241C53.8727 172.301 53.6411 172.513 53.4733 172.844C53.3056 173.175 53.2657 173.474 53.1898 173.482Z" fill="#263238"></path> <path d="M50.5461 169.105C50.5101 169.173 50.1467 169.065 49.7154 169.081C49.2841 169.097 48.9167 169.221 48.8927 169.157C48.8688 169.093 49.1883 168.842 49.6914 168.826C50.1946 168.81 50.586 169.049 50.5461 169.105Z" fill="#263238"></path> <path d="M50.2146 167.315C49.9513 167.379 49.6756 167.372 49.4159 167.295C49.1311 167.239 48.8537 167.151 48.5892 167.031C48.4344 166.96 48.2837 166.88 48.1379 166.792C48.05 166.744 47.9704 166.682 47.9023 166.608C47.8515 166.556 47.8208 166.487 47.8157 166.414C47.8106 166.341 47.8314 166.269 47.8744 166.209C47.9171 166.159 47.9703 166.119 48.0303 166.091C48.0904 166.063 48.1557 166.049 48.2218 166.05C48.3221 166.051 48.4217 166.068 48.5173 166.098C48.9624 166.213 49.3733 166.433 49.7154 166.74C50.0788 167.071 50.1986 167.35 50.1706 167.362C50.1427 167.374 49.959 167.151 49.5916 166.876C49.3757 166.715 49.141 166.581 48.8927 166.477C48.7441 166.419 48.5921 166.371 48.4375 166.333C48.2697 166.289 48.126 166.285 48.082 166.353C48.0381 166.421 48.082 166.393 48.082 166.441C48.1324 166.493 48.1903 166.537 48.2538 166.572C48.3935 166.66 48.5333 166.74 48.6531 166.808C48.8978 166.93 49.1531 167.031 49.4159 167.107C49.6863 167.159 49.953 167.228 50.2146 167.315Z" fill="#263238"></path> <path d="M50.1107 167.418C49.9658 167.203 49.8982 166.946 49.9191 166.688C49.9109 166.408 49.9556 166.129 50.0508 165.866C50.104 165.708 50.175 165.557 50.2625 165.415C50.3114 165.315 50.3844 165.229 50.4751 165.164C50.5657 165.099 50.6711 165.058 50.7817 165.044C50.8514 165.046 50.919 165.068 50.9769 165.107C51.0349 165.146 51.0807 165.2 51.1091 165.264C51.149 165.352 51.1747 165.446 51.185 165.543C51.2111 165.711 51.2111 165.882 51.185 166.05C51.1299 166.331 51.005 166.595 50.8216 166.816C50.5021 167.215 50.1746 167.278 50.1706 167.254C50.1666 167.231 50.4182 167.083 50.6658 166.712C50.8079 166.503 50.9008 166.264 50.9374 166.014C50.9593 165.868 50.9593 165.72 50.9374 165.575C50.9174 165.415 50.8575 165.287 50.7936 165.299C50.7297 165.311 50.578 165.415 50.5101 165.539C50.4275 165.665 50.3567 165.799 50.2984 165.938C50.2048 166.177 50.147 166.428 50.1267 166.684C50.0748 167.131 50.1507 167.41 50.1107 167.418Z" fill="#263238"></path> <path d="M30.87 164.015L29.3485 175.984L13.5541 174.025C13.8176 172.612 22.3398 170.765 22.3398 170.765L22.9828 163.041L30.87 164.015Z" fill="#455A64"></path> <g opacity="0.6"> <path d="M27.2998 170.737C27.443 170.795 27.5597 170.903 27.6269 171.042C27.6942 171.181 27.7071 171.34 27.6632 171.487C27.5988 171.635 27.4798 171.752 27.3311 171.815C27.1823 171.877 27.0152 171.88 26.8645 171.822C26.7117 171.762 26.5875 171.646 26.517 171.498C26.4466 171.35 26.4352 171.181 26.4851 171.024C26.5685 170.877 26.7055 170.768 26.8676 170.719C27.0297 170.67 27.2045 170.685 27.3557 170.761" fill="white"></path> </g> <g opacity="0.6"> <path d="M29.3484 176L29.4522 174.803L14.2768 173.379C14.2768 173.379 13.538 173.578 13.562 174.057L29.3484 176Z" fill="white"></path> </g> <path d="M22.0921 170.674C22.0921 170.746 22.4675 170.826 22.8149 171.109C23.1624 171.392 23.3341 171.719 23.406 171.699C23.4779 171.68 23.406 171.245 23.0066 170.902C22.6073 170.558 22.0801 170.602 22.0921 170.674Z" fill="#263238"></path> <path d="M20.367 171.113C20.339 171.181 20.6585 171.348 20.8861 171.688C21.1137 172.027 21.1457 172.366 21.2216 172.37C21.2974 172.374 21.3973 171.971 21.1097 171.572C20.8222 171.173 20.367 171.045 20.367 171.113Z" fill="#263238"></path> <path d="M19.169 172.869C19.2369 172.896 19.3886 172.545 19.2408 172.118C19.0931 171.692 18.7696 171.492 18.7257 171.56C18.6818 171.628 18.8814 171.855 19.0012 172.206C19.121 172.557 19.1091 172.853 19.169 172.869Z" fill="#263238"></path> <path d="M22.4436 168.93C22.4676 169.002 22.843 168.93 23.2663 169.026C23.6896 169.122 24.0211 169.282 24.065 169.222C24.1089 169.162 23.8174 168.867 23.3062 168.775C22.7951 168.683 22.4117 168.871 22.4436 168.93Z" fill="#263238"></path> <path d="M23.0346 167.207C23.2883 167.306 23.5633 167.339 23.8333 167.302C24.1238 167.288 24.4118 167.241 24.692 167.163C24.8557 167.117 25.0159 167.06 25.1712 166.991C25.2647 166.957 25.3523 166.909 25.4308 166.848C25.4911 166.803 25.533 166.737 25.5485 166.664C25.5639 166.59 25.5519 166.514 25.5146 166.449C25.4817 166.392 25.4361 166.343 25.3814 166.306C25.3267 166.27 25.2644 166.246 25.1991 166.237C25.0985 166.223 24.9963 166.223 24.8956 166.237C24.4328 166.28 23.9881 166.438 23.6017 166.696C23.2024 166.971 23.0386 167.227 23.0626 167.246C23.0866 167.266 23.2982 167.067 23.7055 166.848C23.9424 166.719 24.1947 166.621 24.4563 166.556C24.6114 166.52 24.7689 166.494 24.9276 166.48C25.0993 166.46 25.2391 166.48 25.275 166.552C25.3109 166.624 25.275 166.592 25.2471 166.636C25.189 166.68 25.1243 166.715 25.0554 166.74C24.9116 166.808 24.7635 166.867 24.6121 166.915C24.3519 167 24.0846 167.062 23.8134 167.099C23.5515 167.115 23.2912 167.151 23.0346 167.207Z" fill="#263238"></path> <path d="M23.1226 167.322C23.1465 167.322 23.3342 167.095 23.4181 166.628C23.4679 166.353 23.4679 166.072 23.4181 165.798C23.3854 165.634 23.3359 165.473 23.2703 165.319C23.2373 165.213 23.1778 165.116 23.0976 165.039C23.0173 164.961 22.9187 164.906 22.8111 164.876C22.7421 164.869 22.6724 164.88 22.6097 164.91C22.5469 164.939 22.4936 164.986 22.4556 165.044C22.4054 165.126 22.3677 165.214 22.3438 165.307C22.2959 165.47 22.2743 165.64 22.2799 165.81C22.2905 166.099 22.3744 166.38 22.5235 166.628C22.7631 167.051 23.0906 167.17 23.0986 167.17C23.1066 167.17 22.879 166.963 22.6992 166.56C22.5892 166.332 22.5318 166.083 22.5315 165.83C22.5346 165.684 22.5574 165.539 22.5994 165.399C22.6433 165.243 22.7232 165.124 22.7831 165.148C22.843 165.172 22.9828 165.291 23.0307 165.427C23.0918 165.565 23.1412 165.708 23.1785 165.854C23.2357 166.105 23.2559 166.363 23.2384 166.62C23.1984 167.043 23.0826 167.306 23.1226 167.322Z" fill="#263238"></path> <path d="M56.736 98.8621L30.4985 99.6999C30.4985 99.6999 24.656 138.66 24.8198 141.365L21.2256 169.624L31.7046 169.991C31.7046 169.991 33.3539 160.815 34.5001 154.555C35.2628 150.382 36.6606 144.261 37.0359 140.774C37.4113 137.287 42.6269 113.305 42.6269 113.305C42.6269 113.305 43.0781 141.205 43.0901 142.366C43.1021 143.527 41.8921 169.971 41.8921 169.971H52.2952C52.8343 165.184 54.1083 146.097 54.3838 142.239C54.883 135.269 57.3191 115.22 57.5507 110.189C57.7823 105.158 56.736 98.8621 56.736 98.8621Z" fill="#4C6FBF"></path> <path d="M34.4801 103.043C34.3785 102.653 34.3354 102.25 34.3523 101.846C34.3135 101.447 34.331 101.044 34.4042 100.65C34.5061 101.04 34.5492 101.443 34.532 101.846C34.5708 102.246 34.5533 102.649 34.4801 103.043Z" fill="#455A64"></path> <path d="M35.4345 102.76C35.3771 102.416 35.3771 102.066 35.4345 101.722C35.4378 101.375 35.4999 101.031 35.6182 100.705C35.6792 101.048 35.6792 101.399 35.6182 101.742C35.6183 102.09 35.5561 102.434 35.4345 102.76Z" fill="#455A64"></path> <path d="M51.4485 102.764C51.4993 102.764 51.5404 102.365 51.5404 101.874C51.5404 101.383 51.4993 100.984 51.4485 100.984C51.3978 100.984 51.3567 101.383 51.3567 101.874C51.3567 102.365 51.3978 102.764 51.4485 102.764Z" fill="#455A64"></path> <path d="M52.4749 103.231C52.277 102.483 52.3433 101.689 52.6626 100.984C52.6541 101.36 52.6181 101.735 52.5548 102.105C52.5562 102.482 52.5295 102.858 52.4749 103.231Z" fill="#455A64"></path> <path d="M44.1205 112.682C44.121 112.529 44.1411 112.376 44.1804 112.227L44.388 110.995C44.5638 109.953 44.7634 108.509 44.8952 106.905C45.027 105.301 45.059 103.845 45.055 102.792C45.055 102.289 45.055 101.87 45.055 101.539C45.0396 101.386 45.0396 101.233 45.055 101.08C45.0889 101.231 45.1076 101.384 45.1109 101.539C45.1388 101.834 45.1628 102.261 45.1788 102.788C45.2202 104.166 45.1842 105.546 45.0709 106.921C44.9593 108.295 44.7726 109.661 44.5118 111.015C44.408 111.537 44.3162 111.952 44.2443 112.239C44.2176 112.391 44.1761 112.539 44.1205 112.682Z" fill="#455A64"></path> <path d="M43.2219 101.376C43.0204 101.413 42.8366 101.515 42.6987 101.667C42.6294 101.746 42.5782 101.84 42.5485 101.941C42.5189 102.043 42.5115 102.149 42.527 102.253C42.5611 102.376 42.6288 102.486 42.7224 102.571C42.8159 102.657 42.9316 102.715 43.0564 102.738C43.1811 102.761 43.3099 102.749 43.4281 102.703C43.5463 102.657 43.6492 102.578 43.7251 102.477C43.7775 102.386 43.8097 102.284 43.8193 102.18C43.829 102.075 43.8159 101.97 43.781 101.87C43.709 101.679 43.5757 101.516 43.4016 101.408C43.4016 101.408 43.4695 101.408 43.5773 101.451C43.7241 101.537 43.838 101.669 43.9008 101.826C43.9526 101.944 43.9767 102.071 43.9711 102.199C43.9656 102.327 43.9306 102.452 43.8689 102.565C43.7765 102.696 43.6484 102.797 43.4997 102.857C43.3511 102.918 43.1883 102.934 43.0307 102.904C42.8731 102.874 42.7275 102.799 42.6113 102.689C42.495 102.579 42.4131 102.437 42.3753 102.281C42.3589 102.154 42.3719 102.024 42.4135 101.902C42.455 101.781 42.5239 101.67 42.6149 101.579C42.732 101.457 42.8865 101.377 43.0542 101.352C43.162 101.34 43.2219 101.368 43.2219 101.376Z" fill="#455A64"></path> <path d="M31.8004 144.361C30.898 144.086 30.0137 143.754 29.1527 143.368C28.2668 143.04 27.4036 142.653 26.5689 142.211C27.4729 142.484 28.3586 142.814 29.2206 143.2C30.1046 143.532 30.9663 143.919 31.8004 144.361Z" fill="#455A64"></path> <path d="M58.1218 100.614C58.0299 100.278 55.9373 82.9829 55.9373 82.9829L57.0235 60.5365L47.6747 57.2609L46.1931 56.1318L36.7963 56.2555L35.7341 57.8514L26.8365 61.8691L29.3165 80.2619L30.0113 95.6504L30.6703 101.34L57.0275 102.912L58.1218 100.614Z" fill="#FFA808"></path> <g opacity="0.3"> <path d="M56.7081 89.0752L46.8401 90.2722C46.8245 90.641 46.9262 91.0053 47.1307 91.3128C47.3352 91.6202 47.6319 91.8552 47.9782 91.9838C48.6785 92.2224 49.4301 92.2693 50.1547 92.1194C50.8769 91.9699 51.6138 91.9029 52.3511 91.9199C53.0899 91.9838 53.8048 92.275 54.5396 92.2311C54.907 92.2085 55.2646 92.1027 55.5851 91.9217C55.9056 91.7407 56.1807 91.4893 56.3896 91.1864C56.5985 90.8835 56.7357 90.5371 56.7909 90.1735C56.8461 89.8098 56.8177 89.4383 56.7081 89.0872V89.0752Z" fill="black"></path> </g> <path d="M57.0235 60.5361C57.0235 60.5361 59.2119 60.8433 60.4899 64.6735C61.7678 68.5037 64.7709 82.4199 64.9626 83.3775C65.1543 84.335 64.3236 87.3912 60.9691 88.7597C59.1648 89.5404 57.1912 89.8493 55.2344 89.6573V82.6114L56.6401 81.0794L56.105 78.5977L57.0235 60.5361Z" fill="#FFA808"></path> <path d="M62.9659 81.4548C62.8518 81.4173 62.7409 81.3706 62.6344 81.3152C62.4188 81.2234 62.1113 81.0878 61.7199 80.9441C61.2658 80.7728 60.7983 80.6393 60.3222 80.5451C60.0414 80.4899 59.7572 80.4539 59.4716 80.4374C59.1669 80.4145 58.8606 80.4333 58.561 80.4933C57.4948 80.6979 56.5308 81.2611 55.8295 82.0892C55.6307 82.3458 55.4718 82.631 55.3582 82.935C55.2903 83.1584 55.2584 83.2821 55.2504 83.2821C55.2452 83.2504 55.2452 83.2181 55.2504 83.1864C55.2504 83.1265 55.2784 83.0387 55.3063 82.923C55.4089 82.6075 55.5627 82.311 55.7616 82.0453C56.4619 81.1878 57.4414 80.6032 58.5291 80.3935C58.8367 80.333 59.1512 80.3156 59.4636 80.3417C59.7533 80.3592 60.0415 80.3965 60.3262 80.4534C60.8072 80.5542 61.2788 80.6957 61.7359 80.8763C62.1352 81.0279 62.4308 81.1755 62.6384 81.2753C62.7423 81.3271 62.8221 81.371 62.874 81.4029C62.9074 81.4148 62.9385 81.4324 62.9659 81.4548Z" fill="#263238"></path> <path d="M60.9851 80.1422C60.9851 80.1422 60.7215 80.0424 60.2822 79.9507C59.7072 79.8317 59.1127 79.8438 58.5429 79.9861C57.9732 80.1284 57.443 80.3972 56.9916 80.7726C56.6442 81.0598 56.4764 81.2872 56.4604 81.2753C56.4894 81.2155 56.5271 81.1604 56.5723 81.1117C56.6856 80.9681 56.8112 80.8346 56.9477 80.7127C57.3949 80.3112 57.9336 80.025 58.5169 79.879C59.1002 79.733 59.7103 79.7315 60.2942 79.8749C60.4703 79.9163 60.6426 79.9723 60.8094 80.0424C60.8721 80.0678 60.9312 80.1014 60.9851 80.1422Z" fill="#263238"></path> <path d="M56.3086 66.2773C56.3366 66.2773 56.3086 69.7045 56.2647 73.9297C56.2208 78.1548 56.1489 81.586 56.121 81.586C56.093 81.586 56.121 78.1588 56.1649 73.9297C56.2088 69.7006 56.2767 66.2773 56.3086 66.2773Z" fill="#263238"></path> <path d="M56.4764 81.8737L51.2209 81.7899C51.044 81.7882 50.8698 81.8334 50.7161 81.9211C50.5624 82.0087 50.4348 82.1356 50.3464 82.2887L46.7522 90.0647L46.888 90.5874H52.9981L56.5683 82.5879L56.4764 81.8737Z" fill="#263238"></path> <path d="M56.4285 82.9031L56.2328 83.342L55.1705 85.4924C55.1705 85.4924 52.415 85.2451 51.9757 85.1892C51.5364 85.1334 51.3088 85.5882 51.2808 85.8635C51.292 86.0778 51.3734 86.2825 51.5125 86.446C50.7229 86.2086 49.9591 85.8932 49.2322 85.5044C48.6531 85.1054 48.3656 85.3568 48.3656 85.3568C48.2806 85.2802 48.1801 85.2227 48.0709 85.1883C47.9617 85.1539 47.8464 85.1433 47.7328 85.1573C47.6192 85.1713 47.5099 85.2096 47.4124 85.2695C47.3148 85.3293 47.2313 85.4095 47.1675 85.5044C47.3705 86.2091 47.6518 86.889 48.0062 87.5312C48.2378 87.8863 49.5077 89.1271 49.6036 89.2548C49.6994 89.3825 50.6738 89.6538 51.8 90.2762C52.1041 90.4535 52.4567 90.5298 52.807 90.4939C53.1573 90.4581 53.4871 90.312 53.7488 90.0767C53.802 90.0802 53.8554 90.0802 53.9086 90.0767C54.1682 90.0487 54.859 89.3825 55.0348 89.4064C55.2105 89.4303 55.3502 89.3825 55.6977 89.0074C56.3405 88.1259 56.8542 87.1573 57.2232 86.1308C57.4229 85.4446 57.3071 85.269 57.2472 85.2251C57.5701 85.3779 57.9151 85.4789 58.2695 85.5244C58.9883 85.6401 59.3637 85.1254 59.4236 84.1399C59.4835 83.1544 57.2352 83.1624 56.4285 82.9031Z" fill="#FFBF9D"></path> <path d="M56.0531 87.376C55.9963 87.4011 55.9354 87.416 55.8734 87.4199C55.7058 87.4512 55.5364 87.4725 55.3662 87.4837C54.8014 87.521 54.2342 87.4793 53.6809 87.3601C53.1236 87.2423 52.5858 87.0462 52.0835 86.7776C51.933 86.6976 51.7876 86.6083 51.6482 86.5102C51.5948 86.4773 51.5453 86.4385 51.5005 86.3945C51.5005 86.3945 51.7321 86.5302 52.1115 86.7217C52.6115 86.9696 53.1399 87.1559 53.6849 87.2763C54.2306 87.3928 54.7887 87.4411 55.3462 87.4199C55.7895 87.4159 56.0531 87.376 56.0531 87.376Z" fill="#FF9A6C"></path> <path d="M56.105 85.4206C55.9059 85.5214 55.6852 85.5721 55.4621 85.5682C55.2412 85.5908 55.0181 85.5607 54.8111 85.4805C54.8111 85.4525 55.1027 85.4805 55.4581 85.4805C55.8135 85.4805 56.097 85.3807 56.105 85.4206Z" fill="#FF9A6C"></path> <path d="M57.4109 85.3291C57.4109 85.353 57.0116 85.1855 56.5124 85.0498C56.0132 84.9142 55.5899 84.8503 55.5939 84.8224C55.9124 84.8193 56.2294 84.8678 56.5324 84.966C56.8438 85.0361 57.141 85.1588 57.4109 85.3291Z" fill="#FF9A6C"></path> <path d="M57.1593 83.4776C57.1833 83.4776 57.0834 83.7848 57.0794 84.1678C57.0715 84.3276 57.0877 84.4876 57.1274 84.6426C57.1673 84.7583 57.2472 84.7862 57.2392 84.7982C57.2312 84.8102 57.2152 84.7982 57.1833 84.7982C57.1337 84.7719 57.0943 84.7298 57.0715 84.6785C57.0078 84.519 56.9805 84.3472 56.9916 84.1758C56.9774 83.9317 57.0358 83.6887 57.1593 83.4776Z" fill="#FF9A6C"></path> <path d="M54.5076 89.0596H54.4237H54.1761C53.9645 89.0596 53.657 89.0317 53.2816 88.9878C52.8366 88.9418 52.3976 88.8496 51.9717 88.7125C51.7188 88.6305 51.4741 88.525 51.2409 88.3973C51.0013 88.2656 50.7617 88.114 50.5181 87.9584C49.4198 87.2562 48.4414 86.6259 47.8145 86.2149C47.8442 85.9679 47.9705 85.7427 48.1659 85.5885C48.2164 85.548 48.2713 85.5132 48.3296 85.4848L48.3895 85.4648C48.3182 85.5092 48.2502 85.5585 48.1859 85.6125C48.009 85.7685 47.8965 85.9846 47.8704 86.2189V86.195C48.5133 86.5939 49.4957 87.2124 50.5939 87.9106C50.8376 88.0662 51.0732 88.2218 51.3128 88.3494C51.5396 88.4759 51.7775 88.5814 52.0236 88.6646C52.4452 88.8008 52.8783 88.8983 53.3175 88.9559C53.6929 89.0038 53.9964 89.0317 54.2081 89.0516L54.4517 89.0796C54.4694 89.0705 54.4882 89.0638 54.5076 89.0596Z" fill="#FF9A6C"></path> <path d="M53.5771 89.9973C53.49 89.9944 53.4032 89.9851 53.3175 89.9694C53.1538 89.9454 52.9182 89.9015 52.6227 89.8377C51.8593 89.677 51.1121 89.4473 50.3903 89.1515C49.9926 88.9829 49.6204 88.76 49.2841 88.4892C49.0135 88.2647 48.7612 88.0192 48.5293 87.755C48.3336 87.5316 48.1819 87.3561 48.078 87.2084C48.0214 87.1439 47.9706 87.0745 47.9263 87.001C47.991 87.0587 48.0511 87.1214 48.106 87.1885C48.2138 87.3122 48.3735 87.4957 48.5772 87.7112C48.8112 87.9685 49.0649 88.2073 49.336 88.4253C49.6674 88.6895 50.0344 88.9058 50.4262 89.0677C51.1441 89.3614 51.8838 89.5989 52.6386 89.7778C52.9262 89.8497 53.1618 89.9015 53.3255 89.9334C53.4113 89.9464 53.4956 89.9678 53.5771 89.9973Z" fill="#FF9A6C"></path> <path d="M27.8708 66.3691C27.6519 65.8495 27.4665 65.3164 27.3157 64.7732C27.1322 64.2423 26.9789 63.7015 26.8564 63.1533C27.0745 63.6732 27.2599 64.2062 27.4115 64.7492C27.5972 65.2794 27.7506 65.8204 27.8708 66.3691Z" fill="#263238"></path> <path d="M56.9437 61.6094C56.9389 61.7674 56.9215 61.9249 56.8917 62.0802C56.8478 62.4073 56.7959 62.7903 56.74 63.2172C56.6841 63.6441 56.6481 64.0152 56.6082 64.3543C56.5993 64.5129 56.5766 64.6705 56.5403 64.8251C56.5211 64.6661 56.5211 64.5054 56.5403 64.3463C56.5403 64.0551 56.5882 63.6481 56.6441 63.2013C56.7 62.7544 56.7679 62.3555 56.8278 62.0682C56.8448 61.9106 56.8838 61.7562 56.9437 61.6094Z" fill="#263238"></path> <path d="M47.7665 87.9863C47.6454 88.1057 47.5114 88.2114 47.3672 88.3015C47.1076 88.493 46.7242 88.7603 46.241 89.0755C44.9792 89.8962 43.6712 90.6435 42.3233 91.3138C40.9745 91.9808 39.5877 92.5683 38.1701 93.0733C37.623 93.2648 37.1797 93.4124 36.8682 93.5002C36.7103 93.5575 36.5471 93.599 36.381 93.6239C36.5269 93.5402 36.6825 93.4746 36.8442 93.4284L38.1262 92.9616C39.2004 92.5626 40.67 91.9322 42.2435 91.1542C43.8169 90.3762 45.1947 89.5583 46.1731 88.9758L47.3312 88.2536C47.4671 88.1503 47.6129 88.0608 47.7665 87.9863Z" fill="#263238"></path> <g opacity="0.3"> <path d="M27.8268 89.7171C26.879 89.1714 25.8747 88.73 24.8317 88.4005C23.7863 88.0796 22.6648 88.1076 21.6369 88.4803C21.525 88.5242 21.3972 88.6 21.3893 88.7197C21.3813 88.8394 21.5929 88.9671 21.7607 88.995C23.7574 89.3142 25.882 89.4618 27.8907 89.753" fill="black"></path> </g> <path d="M38.9009 107.021C38.9009 107.021 36.8442 105.353 36.2492 104.595C35.6541 103.837 35.2668 103.398 35.2668 103.398C35.2668 103.398 32.8028 102.66 31.8962 101.619C30.9897 100.577 29.5001 99.0771 29.5001 99.0771L26.5848 102.137C26.5848 102.137 28.2661 104.862 28.4059 105.764C28.5457 106.666 29.552 109.135 29.552 109.135L35.143 105.788C35.143 105.788 36.341 107.456 37.0998 107.639C37.7587 107.787 38.8529 108.242 38.9009 107.021Z" fill="#FFBF9D"></path> <path d="M26.8365 61.8691C26.8365 61.8691 24.8158 62.3838 22.815 69.9085C21.0059 76.691 18.5499 89.8093 18.6338 91.126C18.7176 92.4426 26.525 104.292 26.525 104.292L28.2102 104.891L31.8364 101.878C31.8364 101.878 33.0344 99.9154 32.683 99.4366C32.3316 98.9579 30.842 97.9564 30.842 97.9564L27.8708 89.7695L29.5201 78.9253L26.8365 61.8691Z" fill="#FFA808"></path> <path d="M24.8158 89.2433C24.8886 89.2327 24.9626 89.2327 25.0354 89.2433L25.6504 89.3271L27.8868 89.6662H27.9307V89.7101L29.628 94.3342C30.0912 95.6269 30.5265 96.8398 30.9059 97.8891L30.878 97.8532C31.1216 98.0606 31.3652 98.2322 31.5808 98.4477C31.7819 98.6486 31.9455 98.8837 32.064 99.1419C32.2565 99.5608 32.3258 100.026 32.2637 100.482C32.2168 100.772 32.1309 101.054 32.0081 101.32C31.9753 101.418 31.9325 101.511 31.8803 101.6C31.8961 101.497 31.9228 101.397 31.9602 101.3C32.0579 101.033 32.1262 100.756 32.1639 100.474C32.205 100.037 32.1249 99.5967 31.9323 99.2017C31.8159 98.9626 31.6592 98.7454 31.469 98.5594C31.2693 98.3679 31.0137 98.1883 30.7701 97.9888V97.9649L29.4722 94.418L27.799 89.7699L27.8589 89.8178L25.6345 89.4188L25.0275 89.2952C24.9549 89.2872 24.8838 89.2698 24.8158 89.2433Z" fill="#263238"></path> <path d="M28.6655 70.0078C28.7174 70.0078 29.0649 75.5376 29.4243 82.376C29.7837 89.2145 30.0473 94.7443 29.9914 94.7443C29.9355 94.7443 29.592 89.2145 29.2286 82.376C28.8652 75.5376 28.6096 70.0078 28.6655 70.0078Z" fill="#263238"></path> <path d="M43.4455 62.4476C43.3431 62.4841 43.2348 62.5017 43.1261 62.4995C42.8297 62.523 42.5319 62.523 42.2355 62.4995C41.2531 62.4376 40.2939 62.1747 39.4174 61.7272C38.5408 61.2798 37.7656 60.6572 37.1398 59.8982C36.9508 59.6688 36.7787 59.4261 36.6246 59.172C36.5637 59.0819 36.5153 58.9839 36.4808 58.8808C36.5088 58.8608 36.7484 59.2598 37.2396 59.8144C38.5297 61.2701 40.3227 62.1851 42.2595 62.3758C42.9823 62.4556 43.4455 62.4157 43.4455 62.4476Z" fill="#263238"></path> <path d="M47.6108 57.6523C47.7321 57.8857 47.799 58.1435 47.8065 58.4064C47.8706 59.0423 47.7702 59.6841 47.515 60.2702C47.2598 60.8563 46.8583 61.3671 46.3489 61.7538C46.1513 61.9292 45.9164 62.0574 45.662 62.1288C45.662 62.1009 45.9096 61.9613 46.265 61.6501C46.729 61.253 47.0967 60.7557 47.3402 60.1959C47.5837 59.636 47.6967 59.0282 47.6707 58.4184C47.6548 57.9476 47.5829 57.6603 47.6108 57.6523Z" fill="#263238"></path> <path d="M50.6578 39.702C51.1084 39.7497 51.561 39.6315 51.9305 39.3696C52.3001 39.1077 52.5614 38.7201 52.6652 38.2794C52.7691 37.8388 52.7085 37.3754 52.4948 36.9763C52.2811 36.5771 51.929 36.2695 51.5045 36.1113C51.7949 35.8258 51.9876 35.456 52.0551 35.0546C52.1226 34.6532 52.0614 34.2407 51.8803 33.8761C51.6991 33.5116 51.4073 33.2135 51.0465 33.0245C50.6857 32.8355 50.2743 32.7652 49.8711 32.8237C49.8623 32.4235 49.7495 32.0325 49.5439 31.689C49.3382 31.3455 49.0468 31.0613 48.6981 30.8642C48.3494 30.6671 47.9555 30.5638 47.5548 30.5646C47.1542 30.5654 46.7606 30.6702 46.4127 30.8687C45.9692 30.4967 45.414 30.2832 44.8352 30.2623C44.2565 30.2413 43.6873 30.414 43.2179 30.753C42.8286 30.6725 42.4238 30.7195 42.0633 30.887C41.7029 31.0545 41.4061 31.3336 41.217 31.6829C41.0278 32.0322 40.9564 32.4331 41.0132 32.8262C41.0701 33.2193 41.2522 33.5835 41.5326 33.865" fill="#263238"></path> <path d="M50.9254 39.9654C50.8003 37.9876 49.9347 36.1294 48.5006 34.7603C47.0666 33.3912 45.1692 32.6115 43.186 32.5763H42.7866C38.3937 32.7559 36.0655 36.598 36.365 40.9987L36.7884 56.463C37.7787 58.8209 39.4041 60.732 42.4032 61.2507C42.9995 61.3636 43.6136 61.3393 44.199 61.1796C44.7844 61.0199 45.3257 60.729 45.7818 60.3291C46.1239 60.0284 46.4006 59.6608 46.595 59.2491C46.7894 58.8374 46.8973 58.3902 46.9119 57.9352L46.9559 54.8671C46.9559 54.8671 51.205 54.2846 51.3487 50.0515C51.3807 48.0007 51.165 43.7836 50.9254 39.9654Z" fill="#FFBF9D"></path> <path d="M46.9798 54.8554C45.0119 54.8195 43.0953 54.2214 41.4568 53.1318C41.4568 53.1318 42.7108 56.2 46.9439 55.8967L46.9798 54.8554Z" fill="#FF9A6C"></path> <path d="M49.7793 43.6599C49.7783 43.8169 49.7159 43.9673 49.6055 44.0791C49.4951 44.1909 49.3454 44.2552 49.1882 44.2583C49.1108 44.2638 49.033 44.2534 48.9596 44.228C48.8862 44.2026 48.8188 44.1625 48.7613 44.1103C48.7038 44.0581 48.6575 43.9948 48.6252 43.9243C48.5929 43.8537 48.5752 43.7773 48.5732 43.6998C48.5753 43.5424 48.6385 43.3919 48.7495 43.2803C48.8606 43.1686 49.0107 43.1044 49.1683 43.1013C49.2453 43.097 49.3224 43.1081 49.3951 43.134C49.4678 43.1599 49.5345 43.2001 49.5914 43.2521C49.6484 43.3042 49.6943 43.367 49.7266 43.4371C49.7588 43.5071 49.7767 43.5828 49.7793 43.6599Z" fill="#263238"></path> <path d="M49.979 42.0241C49.8991 42.0999 49.4478 41.7528 48.7809 41.7448C48.114 41.7368 47.6467 42.052 47.5828 41.9682C47.5189 41.8844 47.6268 41.7927 47.8384 41.645C48.124 41.4546 48.4616 41.3571 48.8049 41.3658C49.1427 41.372 49.4699 41.4852 49.7393 41.6889C49.951 41.8445 50.0149 41.9882 49.979 42.0241Z" fill="#263238"></path> <path d="M44.0965 43.7911C44.0945 43.9485 44.0312 44.0989 43.9202 44.2106C43.8092 44.3223 43.659 44.3864 43.5015 44.3895C43.4244 44.3944 43.3472 44.3838 43.2743 44.3584C43.2015 44.333 43.1344 44.2933 43.0771 44.2416C43.0198 44.1899 42.9734 44.1274 42.9407 44.0575C42.9079 43.9877 42.8895 43.912 42.8865 43.835C42.8885 43.6776 42.9517 43.5271 43.0628 43.4154C43.1738 43.3038 43.324 43.2396 43.4815 43.2365C43.5585 43.2316 43.6358 43.2422 43.7087 43.2676C43.7815 43.293 43.8486 43.3327 43.9059 43.3844C43.9632 43.4361 44.0096 43.4987 44.0423 43.5685C44.075 43.6383 44.0935 43.714 44.0965 43.7911Z" fill="#263238"></path> <path d="M43.5773 42.032C43.5015 42.1079 43.0462 41.7607 42.3793 41.7528C41.7124 41.7448 41.2451 42.06 41.1812 41.9762C41.1173 41.8924 41.2252 41.8006 41.4368 41.653C41.7224 41.4626 42.06 41.3651 42.4032 41.3737C42.7411 41.38 43.0683 41.4931 43.3377 41.6969C43.5494 41.8525 43.6133 41.9961 43.5773 42.032Z" fill="#263238"></path> <path d="M45.8537 46.896C46.1993 46.7951 46.5561 46.7375 46.9159 46.7244C47.0797 46.7244 47.2394 46.6806 47.2674 46.5649C47.286 46.3949 47.2511 46.2233 47.1675 46.0741C47.0158 45.6751 46.86 45.2442 46.6963 44.7974C46.0454 42.986 45.5781 41.4979 45.65 41.4739C45.7219 41.45 46.3129 42.8943 46.9639 44.7056C47.1196 45.1525 47.2674 45.5794 47.4111 45.9863C47.5118 46.189 47.5386 46.4204 47.487 46.6407C47.4615 46.699 47.4231 46.7509 47.3747 46.7923C47.3263 46.8338 47.2691 46.8637 47.2075 46.88C47.1144 46.9012 47.0193 46.9119 46.9239 46.912C46.5679 46.9509 46.2084 46.9455 45.8537 46.896Z" fill="#263238"></path> <path d="M43.4535 39.858C43.4136 40.0375 42.8265 40.0176 42.1516 40.1812C41.4767 40.3447 40.9536 40.6081 40.8418 40.4604C40.7938 40.3886 40.8737 40.2131 41.0774 40.0216C41.344 39.7805 41.6688 39.6128 42.0198 39.5348C42.3648 39.4523 42.7253 39.4606 43.0661 39.5588C43.3257 39.6465 43.4695 39.7702 43.4535 39.858Z" fill="#263238"></path> <path d="M49.959 40.2127C49.8192 40.3524 49.344 40.1609 48.7609 40.105C48.1779 40.0492 47.6667 40.105 47.5629 39.9534C47.5189 39.8736 47.6108 39.734 47.8384 39.6103C48.1489 39.462 48.4952 39.4053 48.8368 39.4467C49.1778 39.48 49.5021 39.6101 49.7713 39.8217C49.963 39.9893 50.0189 40.1489 49.959 40.2127Z" fill="#263238"></path> <path d="M50.55 38.018C50.55 38.018 49.4798 35.3488 48.2138 34.7105C46.6763 33.9125 45.9814 35.6201 44.5118 35.1813C43.0422 34.7424 41.5766 33.9843 40.051 35.1094C38.3778 36.3303 39.1365 37.22 39.0008 39.0992C38.4536 46.7037 37.004 48.8302 36.6885 45.2394C36.6526 44.8405 35.5663 44.5133 35.4345 42.8456C35.2628 40.6911 35.2269 38.0579 35.734 36.5577C36.1614 35.277 36.9321 34.3993 38.25 33.4417C40.3546 31.9336 43.2139 31.9496 45.1508 32.177C47.0876 32.4044 50.7856 34.7105 50.55 38.018Z" fill="#263238"></path> <path d="M36.96 45.1238C36.9582 44.9682 36.9247 44.8146 36.8614 44.6723C36.7982 44.5301 36.7066 44.4023 36.5922 44.2966C36.4778 44.1909 36.3431 44.1097 36.1962 44.0577C36.0494 44.0058 35.8935 43.9844 35.738 43.9947C34.9393 44.0585 34.0607 44.4894 34.0847 46.1212C34.1246 49.0178 37.0279 48.3794 37.0319 48.2957C37.0359 48.2119 36.988 46.3367 36.96 45.1238Z" fill="#FFBF9D"></path> <path d="M36.385 47.2151C36.385 47.2151 36.3331 47.251 36.2492 47.2909C36.129 47.3406 35.994 47.3406 35.8738 47.2909C35.6847 47.1759 35.5297 47.0123 35.4251 46.8173C35.3205 46.6223 35.27 46.4029 35.2788 46.1818C35.2673 45.9329 35.3124 45.6847 35.4106 45.4557C35.4349 45.3638 35.4815 45.2793 35.5463 45.2097C35.6111 45.1402 35.692 45.0876 35.782 45.0567C35.8405 45.041 35.9026 45.046 35.9578 45.0707C36.0131 45.0954 36.0582 45.1383 36.0855 45.1923C36.1254 45.2721 36.0855 45.328 36.1214 45.336C36.1574 45.3439 36.1813 45.2841 36.1574 45.1644C36.1397 45.0934 36.0989 45.0303 36.0415 44.9849C36.0019 44.9553 35.9567 44.9341 35.9087 44.9225C35.8607 44.9108 35.8108 44.909 35.762 44.917C35.6432 44.9419 35.5327 44.9968 35.4411 45.0764C35.3496 45.156 35.2799 45.2577 35.2388 45.3719C35.1212 45.621 35.0651 45.8946 35.0751 46.1698C35.1031 46.7523 35.4106 47.2949 35.8299 47.4106C35.9086 47.4312 35.9908 47.4343 36.0708 47.4198C36.1508 47.4054 36.2267 47.3736 36.2931 47.3268C36.381 47.2869 36.393 47.2191 36.385 47.2151Z" fill="#FF9A6C"></path> <path d="M37.1158 39.5225C37.4619 39.8117 37.873 40.013 38.3139 40.109C38.5386 40.1466 38.7694 40.1019 38.9638 39.9832C39.1582 39.8644 39.3032 39.6796 39.3722 39.4627C39.4121 39.2632 39.3722 39.0278 39.5 38.8762C39.6277 38.7246 39.9552 38.7565 40.1948 38.7844C40.6199 38.8302 41.0478 38.7277 41.4059 38.4942C41.764 38.2608 42.0303 37.9109 42.1596 37.5037C42.29 37.6443 42.4666 37.7334 42.6572 37.7547C42.8479 37.7759 43.0398 37.7279 43.198 37.6194C43.5013 37.381 43.7701 37.1017 43.9967 36.7895C44.1126 36.6348 44.2644 36.5104 44.4389 36.427C44.6135 36.3437 44.8057 36.3038 44.999 36.3108C45.2019 36.3838 45.4122 36.4346 45.626 36.4624C46.0254 36.4344 46.2011 35.9916 46.265 35.6165C46.3289 35.2415 46.3808 34.8186 46.7083 34.6031C47.0418 34.479 47.409 34.479 47.7426 34.6031C48.094 34.659 48.5413 34.6031 48.6411 34.248C48.6579 34.1561 48.656 34.0617 48.6354 33.9705C48.6148 33.8793 48.576 33.7932 48.5213 33.7174C48.2953 33.361 47.9553 33.0914 47.5566 32.9524C47.1579 32.8133 46.7238 32.813 46.3249 32.9514C46.1914 32.4669 45.917 32.0329 45.5365 31.7045C45.1559 31.376 44.6862 31.1678 44.1871 31.1062C43.6879 31.0447 43.1817 31.1326 42.7326 31.3588C42.2835 31.585 41.9118 31.9393 41.6644 32.3769C41.3619 32.0958 40.9963 31.8915 40.5983 31.781C40.2003 31.6705 39.7815 31.6571 39.3773 31.7419C38.973 31.8268 38.595 32.0074 38.2752 32.2685C37.9553 32.5297 37.7029 32.8637 37.5391 33.2426C37.1868 33.1408 36.8123 33.1447 36.4622 33.254C36.1121 33.3632 35.8019 33.573 35.5703 33.8571C35.3387 34.1413 35.1959 34.4872 35.1597 34.8519C35.1235 35.2165 35.1954 35.5837 35.3667 35.9078C35.0947 36.0364 34.86 36.2321 34.6846 36.4764C34.5093 36.7207 34.399 37.0056 34.3643 37.3042C34.3403 37.9027 34.9154 38.5011 35.4984 38.3615C35.3705 38.5957 35.3382 38.8704 35.4083 39.1279C35.4785 39.3854 35.6456 39.6058 35.8748 39.743C36.1039 39.8801 36.3773 39.9234 36.6377 39.8637C36.898 39.804 37.1252 39.646 37.2716 39.4228" fill="#263238"></path> <path d="M46.5246 33.8057C46.5246 33.8057 46.5246 33.8057 46.5246 33.8575C46.5201 33.9099 46.5121 33.9619 46.5006 34.0131C46.4596 34.2092 46.3853 34.3967 46.2809 34.5677C46.119 34.8399 45.8945 35.0697 45.626 35.238C45.2731 35.474 44.8517 35.5863 44.428 35.5572L44.4759 35.4933C44.5174 35.6245 44.5325 35.7625 44.5202 35.8995C44.5078 36.0365 44.4683 36.1697 44.404 36.2913C44.2706 36.5491 44.0997 36.7858 43.8968 36.9935C43.7995 37.1151 43.6882 37.2249 43.5653 37.3206C43.4365 37.4148 43.2875 37.4776 43.1301 37.5042C42.9587 37.5256 42.7846 37.5048 42.6231 37.4436C42.4616 37.3824 42.3176 37.2827 42.2036 37.1531L42.3114 37.1251C42.2659 37.4248 42.1581 37.7116 41.9952 37.9672C41.8322 38.2228 41.6175 38.4415 41.3649 38.6093C41.0845 38.806 40.7491 38.9093 40.4065 38.9046C40.0862 38.8813 39.7719 38.8058 39.476 38.6811L39.5519 38.6492C39.3847 38.9865 39.138 39.2782 38.833 39.499C38.6947 39.6149 38.532 39.698 38.3571 39.7422C38.1821 39.7864 37.9994 39.7906 37.8227 39.7544C37.5213 39.6819 37.2475 39.5233 37.0348 39.298C36.8221 39.0727 36.6795 38.7905 36.6246 38.4856L36.6885 38.5176C36.3803 38.6736 36.0277 38.7187 35.6901 38.6452C35.4382 38.5951 35.2024 38.4842 35.0032 38.3221C34.8262 38.1929 34.6881 38.0176 34.6039 37.8154C34.7087 37.9942 34.8439 38.1535 35.0032 38.2862C35.2019 38.4328 35.4313 38.5324 35.6741 38.5774C35.9951 38.6396 36.3276 38.5903 36.6166 38.4378L36.6725 38.4098V38.4697C36.7238 38.7587 36.859 39.0264 37.0614 39.2392C37.2638 39.452 37.5244 39.6007 37.8107 39.6666C37.9729 39.6971 38.1399 39.6911 38.2994 39.649C38.459 39.6069 38.6072 39.5298 38.7332 39.4232C39.0197 39.2036 39.2463 38.9155 39.3921 38.5854L39.4161 38.5335H39.468C39.7523 38.6534 40.0546 38.7249 40.3625 38.745C40.6785 38.7531 40.9884 38.6578 41.2451 38.4737C41.4862 38.3219 41.6933 38.122 41.8534 37.8865C42.0135 37.651 42.1232 37.385 42.1756 37.1052V36.9695L42.2635 37.0733C42.3643 37.1877 42.4916 37.2759 42.6342 37.3301C42.7769 37.3844 42.9306 37.403 43.0821 37.3845C43.2246 37.3708 43.3616 37.3229 43.4815 37.2448C43.596 37.1538 43.7004 37.0508 43.793 36.9376C44.0046 36.7353 44.185 36.5027 44.3281 36.2474C44.3873 36.1378 44.4242 36.0175 44.4365 35.8935C44.4488 35.7696 44.4364 35.6444 44.4 35.5252V35.4534H44.4719C44.8736 35.4826 45.274 35.3819 45.614 35.1662C45.8746 35.0045 46.0968 34.788 46.265 34.5318C46.3933 34.3068 46.4812 34.061 46.5246 33.8057Z" fill="#455A64"></path> <path d="M43.9288 47.7334C44.7192 47.8936 45.4875 48.1481 46.2171 48.4915C46.1212 49.0301 45.9535 49.6206 45.4823 49.8998C45.3045 50.0007 45.1029 50.0521 44.8985 50.0486C44.6941 50.0451 44.4943 49.9868 44.3201 49.8799C44.1504 49.782 44.0053 49.6466 43.8959 49.4841C43.7866 49.3216 43.7159 49.1363 43.6892 48.9423C43.6756 48.5263 43.7575 48.1128 43.9288 47.7334Z" fill="#FF9A6C"></path> <path d="M45.007 50.0076C44.7453 50.0118 44.4887 49.9352 44.2722 49.7881C44.0485 49.6253 43.8911 49.3873 43.8289 49.1179C43.7577 48.7819 43.7798 48.4328 43.8928 48.1085C43.919 48.0283 43.9497 47.9497 43.9847 47.8731L44.1085 47.913L44.6037 48.0686L45.4543 48.3199C45.7127 48.4111 45.9807 48.4727 46.253 48.5034C46.0182 48.3629 45.7657 48.2542 45.5022 48.1803L44.6676 47.885L44.1724 47.7214L44.0326 47.6736C43.9898 47.6645 43.9453 47.6684 43.9048 47.6847C43.8642 47.7011 43.8295 47.7291 43.805 47.7653C43.7564 47.8582 43.7176 47.9558 43.6892 48.0566C43.5656 48.4164 43.5476 48.804 43.6372 49.1737C43.7188 49.4825 43.9142 49.749 44.1843 49.9198C44.3609 50.0375 44.5715 50.0937 44.7834 50.0794C44.9391 50.0594 45.011 50.0156 45.007 50.0076Z" fill="#263238"></path> </g> <defs> <clipPath id="clip0_508_2805"> <rect width="185" height="176" fill="white"></rect> </clipPath> </defs> </svg> 