<?xml version="1.0" encoding="UTF-8"?> <svg xmlns="http://www.w3.org/2000/svg" width="180" height="174" viewBox="0 0 180 174" fill="none"> <g clip-path="url(#clip0_508_2350)"> <path d="M57.4776 35.1756H23.0743V66.4709H57.4776V35.1756Z" fill="#FFA808"></path> <mask id="mask0_508_2350" style="mask-type:luminance" maskUnits="userSpaceOnUse" x="23" y="35" width="35" height="32"> <path d="M57.4776 35.1756H23.0743V66.4709H57.4776V35.1756Z" fill="white"></path> </mask> <g mask="url(#mask0_508_2350)"> <path opacity="0.37" d="M57.4776 35.1756H23.0743V66.4709H57.4776V35.1756Z" fill="black"></path> </g> <path d="M47.5908 35.1756H23.0743V66.4709H47.5908V35.1756Z" fill="#FFA808"></path> <path d="M37.8163 35.1756H32.5485V43.9113H37.8163V35.1756Z" fill="white"></path> <path d="M45.2714 46.4678H39.1663V49.5897H45.2714V46.4678Z" fill="white"></path> <path d="M42.4747 57.5873L36.1829 56.0276L35.2552 59.7826L41.547 61.3423L42.4747 57.5873Z" fill="white"></path> <path d="M83.1157 35.1756H48.7125V66.4709H83.1157V35.1756Z" fill="#FFA808"></path> <mask id="mask1_508_2350" style="mask-type:luminance" maskUnits="userSpaceOnUse" x="48" y="35" width="36" height="32"> <path d="M83.1157 35.1756H48.7125V66.4709H83.1157V35.1756Z" fill="white"></path> </mask> <g mask="url(#mask1_508_2350)"> <path opacity="0.37" d="M83.1157 35.1756H48.7125V66.4709H83.1157V35.1756Z" fill="black"></path> </g> <path d="M73.229 35.1756H48.7125V66.4709H73.229V35.1756Z" fill="#FFA808"></path> <path d="M63.4545 35.1756H58.1866V43.9113H63.4545V35.1756Z" fill="white"></path> <path d="M70.9095 46.4678H64.8044V49.5897H70.9095V46.4678Z" fill="white"></path> <path d="M68.1152 57.5891L61.8234 56.0294L60.8957 59.7844L67.1875 61.3441L68.1152 57.5891Z" fill="white"></path> <path d="M108.754 35.1756H74.3507V66.4709H108.754V35.1756Z" fill="#FFA808"></path> <mask id="mask2_508_2350" style="mask-type:luminance" maskUnits="userSpaceOnUse" x="74" y="35" width="35" height="32"> <path d="M108.754 35.1756H74.3507V66.4709H108.754V35.1756Z" fill="white"></path> </mask> <g mask="url(#mask2_508_2350)"> <path opacity="0.37" d="M108.754 35.1756H74.3507V66.4709H108.754V35.1756Z" fill="black"></path> </g> <path d="M98.8672 35.1756H74.3507V66.4709H98.8672V35.1756Z" fill="#FFA808"></path> <path d="M89.0927 35.1756H83.8248V43.9113H89.0927V35.1756Z" fill="white"></path> <path d="M96.5477 46.4678H90.4426V49.5897H96.5477V46.4678Z" fill="white"></path> <path d="M93.7517 57.591L87.4599 56.0313L86.5322 59.7863L92.824 61.346L93.7517 57.591Z" fill="white"></path> <path d="M134.392 35.1756H99.9889V66.4709H134.392V35.1756Z" fill="#FFA808"></path> <mask id="mask3_508_2350" style="mask-type:luminance" maskUnits="userSpaceOnUse" x="99" y="35" width="36" height="32"> <path d="M134.392 35.1756H99.9889V66.4709H134.392V35.1756Z" fill="white"></path> </mask> <g mask="url(#mask3_508_2350)"> <path opacity="0.37" d="M134.392 35.1756H99.9889V66.4709H134.392V35.1756Z" fill="black"></path> </g> <path d="M124.505 35.1756H99.9889V66.4709H124.505V35.1756Z" fill="#FFA808"></path> <path d="M114.731 35.1756H109.463V43.9113H114.731V35.1756Z" fill="white"></path> <path d="M122.186 46.4678H116.081V49.5897H122.186V46.4678Z" fill="white"></path> <path d="M119.388 57.5928L113.096 56.0331L112.169 59.7881L118.461 61.3478L119.388 57.5928Z" fill="white"></path> <path d="M57.4776 78.1113H23.0743V109.407H57.4776V78.1113Z" fill="#FFA808"></path> <mask id="mask4_508_2350" style="mask-type:luminance" maskUnits="userSpaceOnUse" x="23" y="78" width="35" height="32"> <path d="M57.4776 78.1113H23.0743V109.407H57.4776V78.1113Z" fill="white"></path> </mask> <g mask="url(#mask4_508_2350)"> <path opacity="0.37" d="M57.4776 78.1113H23.0743V109.407H57.4776V78.1113Z" fill="black"></path> </g> <path d="M47.5908 78.1113H23.0743V109.407H47.5908V78.1113Z" fill="#FFA808"></path> <path d="M37.8163 78.1113H32.5485V86.847H37.8163V78.1113Z" fill="white"></path> <path d="M45.2714 89.4033H39.1663V92.5252H45.2714V89.4033Z" fill="white"></path> <path d="M42.473 100.523L36.1812 98.9629L35.2535 102.718L41.5453 104.278L42.473 100.523Z" fill="white"></path> <path d="M83.1157 78.1113H48.7125V109.407H83.1157V78.1113Z" fill="#FFA808"></path> <mask id="mask5_508_2350" style="mask-type:luminance" maskUnits="userSpaceOnUse" x="48" y="78" width="36" height="32"> <path d="M83.1157 78.1113H48.7125V109.407H83.1157V78.1113Z" fill="white"></path> </mask> <g mask="url(#mask5_508_2350)"> <path opacity="0.37" d="M83.1157 78.1113H48.7125V109.407H83.1157V78.1113Z" fill="black"></path> </g> <path d="M73.229 78.1113H48.7125V109.407H73.229V78.1113Z" fill="#FFA808"></path> <path d="M63.4545 78.1113H58.1866V86.847H63.4545V78.1113Z" fill="white"></path> <path d="M70.9095 89.4033H64.8044V92.5252H70.9095V89.4033Z" fill="white"></path> <path d="M68.1095 100.524L61.8176 98.9639L60.8899 102.719L67.1818 104.279L68.1095 100.524Z" fill="white"></path> <path d="M108.754 78.1113H74.3506V109.407H108.754V78.1113Z" fill="#FFA808"></path> <mask id="mask6_508_2350" style="mask-type:luminance" maskUnits="userSpaceOnUse" x="74" y="78" width="35" height="32"> <path d="M108.754 78.1113H74.3506V109.407H108.754V78.1113Z" fill="white"></path> </mask> <g mask="url(#mask6_508_2350)"> <path opacity="0.37" d="M108.754 78.1113H74.3506V109.407H108.754V78.1113Z" fill="black"></path> </g> <path d="M98.8671 78.1113H74.3506V109.407H98.8671V78.1113Z" fill="#FFA808"></path> <path d="M89.0925 78.1113H83.8247V86.847H89.0925V78.1113Z" fill="white"></path> <path d="M96.5477 89.4033H90.4426V92.5252H96.5477V89.4033Z" fill="white"></path> <path d="M93.7498 100.526L87.458 98.9658L86.5303 102.721L92.8221 104.281L93.7498 100.526Z" fill="white"></path> <path d="M134.392 78.1113H99.9888V109.407H134.392V78.1113Z" fill="#FFA808"></path> <mask id="mask7_508_2350" style="mask-type:luminance" maskUnits="userSpaceOnUse" x="99" y="78" width="36" height="32"> <path d="M134.392 78.1113H99.9888V109.407H134.392V78.1113Z" fill="white"></path> </mask> <g mask="url(#mask7_508_2350)"> <path opacity="0.37" d="M134.392 78.1113H99.9888V109.407H134.392V78.1113Z" fill="black"></path> </g> <path d="M124.505 78.1113H99.9888V109.407H124.505V78.1113Z" fill="#FFA808"></path> <path d="M114.731 78.1113H109.463V86.847H114.731V78.1113Z" fill="white"></path> <path d="M122.186 89.4033H116.081V92.5252H122.186V89.4033Z" fill="white"></path> <path d="M119.387 100.528L113.095 98.968L112.167 102.723L118.459 104.283L119.387 100.528Z" fill="white"></path> <path d="M57.4776 121.048H23.0743V152.343H57.4776V121.048Z" fill="#FFA808"></path> <mask id="mask8_508_2350" style="mask-type:luminance" maskUnits="userSpaceOnUse" x="23" y="121" width="35" height="32"> <path d="M57.4776 121.048H23.0743V152.343H57.4776V121.048Z" fill="white"></path> </mask> <g mask="url(#mask8_508_2350)"> <path opacity="0.37" d="M57.4776 121.048H23.0743V152.343H57.4776V121.048Z" fill="black"></path> </g> <path d="M47.5908 121.048H23.0743V152.343H47.5908V121.048Z" fill="#FFA808"></path> <path d="M37.8163 121.048H32.5485V129.784H37.8163V121.048Z" fill="white"></path> <path d="M45.2714 132.34H39.1663V135.462H45.2714V132.34Z" fill="white"></path> <path d="M42.4712 143.457L36.1793 141.897L35.2516 145.652L41.5435 147.212L42.4712 143.457Z" fill="white"></path> <path d="M83.1157 121.048H48.7125V152.343H83.1157V121.048Z" fill="#FFA808"></path> <mask id="mask9_508_2350" style="mask-type:luminance" maskUnits="userSpaceOnUse" x="48" y="121" width="36" height="32"> <path d="M83.1157 121.048H48.7125V152.343H83.1157V121.048Z" fill="white"></path> </mask> <g mask="url(#mask9_508_2350)"> <path opacity="0.37" d="M83.1157 121.048H48.7125V152.343H83.1157V121.048Z" fill="black"></path> </g> <path d="M73.229 121.048H48.7125V152.343H73.229V121.048Z" fill="#FFA808"></path> <path d="M63.4545 121.048H58.1866V129.784H63.4545V121.048Z" fill="white"></path> <path d="M70.9096 132.34H64.8045V135.462H70.9096V132.34Z" fill="white"></path> <path d="M68.1077 143.459L61.8159 141.899L60.8882 145.654L67.18 147.214L68.1077 143.459Z" fill="white"></path> <path d="M108.754 121.048H74.3507V152.343H108.754V121.048Z" fill="#FFA808"></path> <mask id="mask10_508_2350" style="mask-type:luminance" maskUnits="userSpaceOnUse" x="74" y="121" width="35" height="32"> <path d="M108.754 121.048H74.3507V152.343H108.754V121.048Z" fill="white"></path> </mask> <g mask="url(#mask10_508_2350)"> <path opacity="0.37" d="M108.754 121.048H74.3507V152.343H108.754V121.048Z" fill="black"></path> </g> <path d="M98.8672 121.048H74.3507V152.343H98.8672V121.048Z" fill="#FFA808"></path> <path d="M89.0927 121.048H83.8248V129.784H89.0927V121.048Z" fill="white"></path> <path d="M96.5477 132.34H90.4426V135.462H96.5477V132.34Z" fill="white"></path> <path d="M93.7442 143.461L87.4524 141.901L86.5247 145.656L92.8165 147.216L93.7442 143.461Z" fill="white"></path> <path d="M134.392 121.048H99.9889V152.343H134.392V121.048Z" fill="#FFA808"></path> <mask id="mask11_508_2350" style="mask-type:luminance" maskUnits="userSpaceOnUse" x="99" y="121" width="36" height="32"> <path d="M134.392 121.048H99.9889V152.343H134.392V121.048Z" fill="white"></path> </mask> <g mask="url(#mask11_508_2350)"> <path opacity="0.37" d="M134.392 121.048H99.9889V152.343H134.392V121.048Z" fill="black"></path> </g> <path d="M124.505 121.048H99.9889V152.343H124.505V121.048Z" fill="#FFA808"></path> <path d="M114.731 121.048H109.463V129.784H114.731V121.048Z" fill="white"></path> <path d="M122.186 132.34H116.081V135.462H122.186V132.34Z" fill="white"></path> <path d="M119.385 143.463L113.093 141.903L112.165 145.658L118.457 147.218L119.385 143.463Z" fill="white"></path> <path d="M137.577 23.6748H17.3979V29.2926H137.577V23.6748Z" fill="#F6DAA0"></path> <path d="M137.577 65.4072H17.3979V71.025H137.577V65.4072Z" fill="#F6DAA0"></path> <path d="M137.577 107.14H17.3979V112.757H137.577V107.14Z" fill="#A3A3A3"></path> <path d="M137.577 148.872H17.3979V154.49H137.577V148.872Z" fill="#F6DAA0"></path> <path d="M160.411 0H155.203V170.541H160.411V0Z" fill="#FFEABD"></path> <path d="M49.4456 0H44.2379V170.541H49.4456V0Z" fill="#FFEABD"></path> <path d="M159.209 23.6748H134.773V29.2926H159.209V23.6748Z" fill="#FFEABD"></path> <path d="M159.209 65.4072H134.773V71.025H159.209V65.4072Z" fill="#FFEABD"></path> <path d="M159.209 107.14H134.773V112.757H159.209V107.14Z" fill="#FFEABD"></path> <path d="M159.209 148.872H134.773V154.49H159.209V148.872Z" fill="#757575"></path> <path d="M22.2051 0H16.9973V170.541H22.2051V0Z" fill="#F6DAA0"></path> <path d="M79.8909 0H74.6832V170.541H79.8909V0Z" fill="#F6DAA0"></path> <path d="M137.577 0H132.369V170.541H137.577V0Z" fill="#F6DAA0"></path> <path d="M127.053 59.2725H86.1843V96.4464H127.053V59.2725Z" fill="#FFA808"></path> <mask id="mask12_508_2350" style="mask-type:luminance" maskUnits="userSpaceOnUse" x="86" y="59" width="42" height="38"> <path d="M127.053 59.2725H86.1843V96.4464H127.053V59.2725Z" fill="white"></path> </mask> <g mask="url(#mask12_508_2350)"> <path opacity="0.37" d="M127.053 59.2725H86.1843V96.4464H127.053V59.2725Z" fill="black"></path> </g> <path d="M115.312 59.2725H86.1843V96.4464H115.312V59.2725Z" fill="#FCBA31"></path> <path d="M103.698 59.2725H97.4412V69.6494H103.698V59.2725Z" fill="#8CA3D8"></path> <path d="M112.556 72.6826H105.301V76.3903H112.556V72.6826Z" fill="white"></path> <path d="M109.227 85.8947L101.753 84.042L100.651 88.5059L108.125 90.3587L109.227 85.8947Z" fill="white"></path> <path d="M102.473 133.367H61.6037V170.541H102.473V133.367Z" fill="#FFA808"></path> <mask id="mask13_508_2350" style="mask-type:luminance" maskUnits="userSpaceOnUse" x="61" y="133" width="42" height="38"> <path d="M102.473 133.367H61.6037V170.541H102.473V133.367Z" fill="white"></path> </mask> <g mask="url(#mask13_508_2350)"> <path opacity="0.37" d="M102.473 133.367H61.6037V170.541H102.473V133.367Z" fill="black"></path> </g> <path d="M90.7311 133.367H61.6037V170.541H90.7311V133.367Z" fill="#FCBA31"></path> <path d="M79.1178 133.367H72.8605V143.744H79.1178V133.367Z" fill="#8CA3D8"></path> <path d="M71.6908 163.828H64.436V167.536H71.6908V163.828Z" fill="white"></path> <path d="M86.921 146.734L79.447 144.882L78.3442 149.346L85.8182 151.198L86.921 146.734Z" fill="white"></path> <path d="M132.525 133.367H91.6565V170.541H132.525V133.367Z" fill="#FFA808"></path> <mask id="mask14_508_2350" style="mask-type:luminance" maskUnits="userSpaceOnUse" x="91" y="133" width="42" height="38"> <path d="M132.525 133.367H91.6565V170.541H132.525V133.367Z" fill="white"></path> </mask> <g mask="url(#mask14_508_2350)"> <path opacity="0.37" d="M132.525 133.367H91.6565V170.541H132.525V133.367Z" fill="black"></path> </g> <path d="M132.525 133.367H91.6565V170.541H132.525V133.367Z" stroke="#263238" stroke-linecap="round" stroke-linejoin="round"></path> <path d="M120.784 133.367H91.6565V170.541H120.784V133.367Z" fill="#FCBA31"></path> <path d="M109.171 133.367H102.913V143.744H109.171V133.367Z" fill="#8CA3D8"></path> <path d="M118.028 146.774H110.773V150.481H118.028V146.774Z" fill="white"></path> <path d="M101.878 144.211L94.4044 142.358L93.3016 146.822L100.776 148.675L101.878 144.211Z" fill="white"></path> <path d="M162.971 133.367H122.102V170.541H162.971V133.367Z" fill="#FFA808"></path> <mask id="mask15_508_2350" style="mask-type:luminance" maskUnits="userSpaceOnUse" x="122" y="133" width="41" height="38"> <path d="M162.971 133.367H122.102V170.541H162.971V133.367Z" fill="white"></path> </mask> <g mask="url(#mask15_508_2350)"> <path opacity="0.37" d="M162.971 133.367H122.102V170.541H162.971V133.367Z" fill="black"></path> </g> <path d="M151.229 133.367H122.102V170.541H151.229V133.367Z" fill="#FCBA31"></path> <path d="M139.616 133.367H133.359V143.744H139.616V133.367Z" fill="#8CA3D8"></path> <path d="M148.473 146.774H141.218V150.481H148.473V146.774Z" fill="white"></path> <path d="M132.322 144.214L124.848 142.361L123.745 146.825L131.219 148.678L132.322 144.214Z" fill="white"></path> <path d="M116.561 96.2939H75.6926V133.468H116.561V96.2939Z" fill="#FFA808"></path> <mask id="mask16_508_2350" style="mask-type:luminance" maskUnits="userSpaceOnUse" x="75" y="96" width="42" height="38"> <path d="M116.561 96.2939H75.6926V133.468H116.561V96.2939Z" fill="white"></path> </mask> <g mask="url(#mask16_508_2350)"> <path opacity="0.37" d="M116.561 96.2939H75.6926V133.468H116.561V96.2939Z" fill="black"></path> </g> <path d="M104.82 96.2939H75.6926V133.468H104.82V96.2939Z" fill="#FCBA31"></path> <path d="M93.2068 96.2939H86.9495V106.671H93.2068V96.2939Z" fill="#8CA3D8"></path> <path d="M102.064 109.7H94.8091V113.408H102.064V109.7Z" fill="white"></path> <path d="M85.9154 107.139L78.4414 105.286L77.3386 109.75L84.8126 111.603L85.9154 107.139Z" fill="white"></path> <path d="M149.01 96.2939H108.141V133.468H149.01V96.2939Z" fill="#FFA808"></path> <mask id="mask17_508_2350" style="mask-type:luminance" maskUnits="userSpaceOnUse" x="108" y="96" width="42" height="38"> <path d="M149.01 96.2939H108.141V133.468H149.01V96.2939Z" fill="white"></path> </mask> <g mask="url(#mask17_508_2350)"> <path opacity="0.37" d="M149.01 96.2939H108.141V133.468H149.01V96.2939Z" fill="black"></path> </g> <path d="M137.268 96.2939H108.141V133.468H137.268V96.2939Z" fill="#FCBA31"></path> <path d="M125.655 96.2939H119.398V106.671H125.655V96.2939Z" fill="#8CA3D8"></path> <path d="M134.512 109.7H127.258V113.408H134.512V109.7Z" fill="white"></path> <path d="M120.161 115.929L112.687 114.076L111.584 118.54L119.058 120.393L120.161 115.929Z" fill="white"></path> <path d="M4.33844 170.541H179.8" stroke="#263238" stroke-linecap="round" stroke-linejoin="round"></path> <path d="M35.5049 158.555C35.5049 158.555 33.8264 161.994 32.6286 163.916C31.4308 165.838 29.1955 168.394 29.4238 170.633C29.6522 172.872 31.9796 173.113 34.3712 171.837C36.7628 170.561 38.926 167.997 39.579 166.079C40.2319 164.161 42.295 162.56 42.295 160.401C42.295 158.242 42.1348 157.993 41.3336 157.76C40.5324 157.528 36.3021 157.195 35.5049 158.555Z" fill="#8CA3D8"></path> <path d="M42.291 160.397C42.291 160.076 42.291 159.807 42.291 159.566C42.0723 160.235 41.8045 160.887 41.4898 161.516C40.6125 163.274 39.3346 164.325 38.8579 166.472C38.3812 168.619 35.3446 171.111 32.7087 171.745C30.0728 172.379 29.5039 170.224 29.5039 170.224H29.4078C29.3982 170.358 29.3982 170.492 29.4078 170.625C29.6482 172.864 31.9636 173.105 34.3552 171.829C36.7467 170.553 38.9099 167.989 39.5629 166.071C40.2159 164.153 42.291 162.556 42.291 160.397Z" fill="#263238" stroke="#263238" stroke-linecap="round" stroke-linejoin="round"></path> <path d="M35.8213 159.995C35.8213 159.995 36.7787 161.355 39.9755 160.954" stroke="#263238" stroke-linecap="round" stroke-linejoin="round"></path> <path d="M35.7412 161.115C36.6901 161.863 37.8942 162.207 39.0942 162.074" stroke="#263238" stroke-linecap="round" stroke-linejoin="round"></path> <path d="M35.4247 162.074C35.7773 162.457 36.2151 162.75 36.7025 162.931C37.1898 163.111 37.7128 163.174 38.2289 163.113" stroke="#263238" stroke-linecap="round" stroke-linejoin="round"></path> <path d="M35.1042 163.434C35.1042 163.434 35.6611 164.554 37.8203 164.313" stroke="#263238" stroke-linecap="round" stroke-linejoin="round"></path> <path d="M55.9432 161.597C57.1444 163.492 58.7962 165.058 60.7504 166.156C63.863 167.833 67.853 168.964 68.1735 169.767C68.3069 170.058 68.3321 170.386 68.2447 170.694C68.1573 171.002 67.9629 171.268 67.6968 171.444C67.2962 171.685 61.3874 171.846 58.2747 171.284C56.5163 170.91 54.7194 170.75 52.9228 170.806C51.4886 170.806 48.372 171.208 47.9754 169.446C47.5788 167.684 48.6123 161.288 48.6123 161.288C48.6123 161.288 53.3073 162.636 55.9432 161.597Z" fill="#8CA3D8"></path> <path d="M67.7008 171.432C67.9075 171.296 68.0713 171.104 68.1734 170.878C68.2755 170.652 68.3117 170.402 68.2777 170.156C67.037 170.461 65.7758 170.674 64.504 170.794C61.2993 171.111 56.5201 170.072 52.7706 169.911C50.0105 169.795 48.5082 169.161 47.9033 168.832C47.9105 169.035 47.936 169.236 47.9794 169.434C48.38 171.192 51.4927 170.794 52.9268 170.794C54.7234 170.738 56.5203 170.898 58.2788 171.272C61.3714 171.834 67.3002 171.673 67.7008 171.432Z" fill="#263238" stroke="#263238" stroke-miterlimit="10"></path> <path d="M58.0865 164.635C58.0865 164.635 57.049 165.514 57.049 166.075" stroke="#263238" stroke-miterlimit="10"></path> <path d="M59.136 165.433C58.8664 165.885 58.6525 166.369 58.4991 166.873" stroke="#263238" stroke-miterlimit="10"></path> <path d="M60.7345 166.155C60.7345 166.155 60.0935 166.713 60.0935 167.275" stroke="#263238" stroke-miterlimit="10"></path> <path d="M33.3937 76.6431C33.3937 76.6431 30.8459 88.7455 31.0542 95.3665C31.2625 101.988 40.2679 118.44 40.2679 118.44C40.2679 118.44 35.4608 130.277 35.2605 135.494C35.0602 140.71 35.4688 157.508 35.4688 157.508C35.4688 157.508 37.4718 158.671 39.2865 158.671C41.1012 158.671 43.2684 157.756 43.2684 157.756L47.8793 139.699L48.0796 161.569C49.4133 162.36 50.9358 162.776 52.4861 162.772C54.0632 162.763 55.6001 162.273 56.8927 161.368C56.8927 161.368 60.0975 138.295 60.4981 134.483C60.8987 130.671 63.5025 119.234 63.7028 118.432C63.9031 117.629 67.7088 104.989 67.7088 94.7566C67.7088 84.5241 64.7724 78.3726 64.7724 78.3726C64.7724 78.3726 54.4811 76.1054 46.8698 75.9048C42.3651 75.7768 37.8576 76.0237 33.3937 76.6431Z" fill="#4968B2"></path> <path d="M49.2734 136.698C49.2734 136.698 54.4811 121.851 54.4811 118.239C54.4811 114.628 51.0761 92.1564 51.0761 92.1564" stroke="#7994D1" stroke-miterlimit="10"></path> <path d="M52.4781 98.9777C52.4781 98.9777 55.4826 95.5669 56.4841 93.5605" stroke="#7994D1" stroke-miterlimit="10"></path> <path d="M64.3718 45.8775C64.3718 45.8775 68.51 48.2852 70.7814 51.8966C73.0528 55.5081 77.9921 70.7565 77.7237 74.6368C77.4553 78.5171 76.2575 79.5845 72.7844 78.9143C69.3112 78.2442 69.0468 74.3679 68.2456 71.1577C67.4444 67.9476 63.17 47.6151 63.17 47.6151L63.0378 45.7451L64.3718 45.8775Z" fill="white"></path> <path d="M77.7157 74.6368C77.8519 72.6585 76.6381 67.7349 75.1118 62.8995L66.6633 64.0833C67.3723 67.3697 67.9812 70.1345 68.2376 71.1577C69.0388 74.3679 69.3032 78.2482 72.7764 78.9143C76.2495 79.5805 77.4593 78.5131 77.7157 74.6368Z" fill="#FFBF9D"></path> <path d="M36.7307 44.6741C36.7307 44.6741 33.526 45.3442 32.7248 50.9621C31.9236 56.5799 33.7944 65.8092 33.7944 65.8092L33.3938 76.6435C33.3938 76.6435 46.7456 80.1186 52.2218 80.1186C57.6979 80.1186 64.7725 78.381 64.7725 78.381C64.7725 78.381 61.8361 51.3633 61.2993 49.0881C60.7625 46.8129 58.3629 44.5417 56.36 43.069C54.357 41.5963 49.2734 41.7328 46.345 42.5353C43.4167 43.3379 39.2585 44.943 39.2585 44.943L36.7307 44.6741Z" fill="white"></path> <path d="M46.345 40.9298C46.345 40.9298 49.1492 52.2979 49.4176 60.0545C49.686 67.8111 48.2158 91.8915 48.2158 91.8915C48.2158 91.8915 41.9385 92.1563 37.3997 91.3538C32.8609 90.5513 29.6522 90.15 29.6522 90.15L33.6581 65.1386C33.6581 65.1386 39.1343 65.5399 40.3361 61.6596C41.5379 57.7793 39.9355 50.0227 38.4653 47.615C36.9951 45.2074 36.7307 44.6737 36.7307 44.6737L46.345 40.9298Z" fill="#7994D1"></path> <path d="M58.4871 51.4954C58.4871 51.4954 61.4275 62.731 61.1591 73.9666C60.8907 85.2023 60.7585 91.2214 60.7585 91.2214C60.7585 91.2214 67.168 90.8201 70.7734 89.3474C70.7734 89.3474 68.7704 63.1323 66.8996 55.3757C65.0288 47.6191 64.3638 45.8775 64.3638 45.8775L56.8847 42.7998L58.4871 51.4954Z" fill="#7994D1"></path> <path d="M49.2213 38.7474C49.2213 38.7474 46.4171 39.2691 45.68 40.7297C44.9429 42.1903 48.5963 54.1723 48.5963 54.1723L53.9083 49.7904L60.466 53.5464C60.466 53.5464 59.2162 44.4736 56.5081 41.3436C53.8001 38.2137 49.2213 38.7474 49.2213 38.7474Z" fill="#FFA808"></path> <path d="M48.0716 31.1308C48.0716 31.1308 47.9674 41.6682 49.1131 44.3728C50.2588 47.0774 53.2793 51.0459 54.421 50.42C55.5627 49.794 55.8792 42.1818 56.0875 41.6602C56.2958 41.1385 57.129 36.8449 57.129 36.8449C57.129 36.8449 49.6379 34.7824 48.0716 31.1308Z" fill="#FFBF9D"></path> <path d="M48.0716 31.1308C48.0716 31.1308 48.0275 35.3602 48.2879 39.1562C49.4889 40.5698 51.1701 41.4875 53.007 41.7324C54.0293 41.8862 55.07 41.8712 56.0875 41.6883C56.0875 41.6883 56.0875 41.6682 56.0875 41.6642C56.2958 41.1425 57.1291 36.8489 57.1291 36.8489C57.1291 36.8489 49.6379 34.7824 48.0716 31.1308Z" fill="#D68B17"></path> <path d="M59.793 67.3775L58.9918 67.863L54.3569 60.279C54.2927 60.1728 54.2726 60.0456 54.3011 59.9247C54.3296 59.8039 54.4043 59.6991 54.5091 59.6329C54.6156 59.5689 54.743 59.5495 54.8637 59.5787C54.9843 59.608 55.0887 59.6837 55.1541 59.7894L59.793 67.3775Z" fill="white" stroke="#263238" stroke-linecap="round" stroke-linejoin="round"></path> <path d="M36.7307 44.6737C36.7307 44.6737 33.6501 44.9426 31.7913 48.554C29.9325 52.1655 26.9842 69.1514 26.4474 74.0991C25.9106 79.0468 28.8429 78.6495 29.2435 78.6495C29.6441 78.6495 50.8757 71.559 50.8757 71.559L58.0865 70.7565C58.0865 70.7565 57.2853 71.4266 57.9543 71.4266C58.6233 71.4266 59.9573 70.0864 60.49 69.2838C61.0228 68.4813 58.8877 64.0673 58.0865 63.5336C57.2853 62.9999 50.0745 68.3488 50.0745 68.3488L36.0537 69.2838L39.659 56.9808" fill="white"></path> <path d="M58.0865 63.5336C57.2853 62.9999 50.0746 68.3488 50.0746 68.3488L36.0537 69.2838L36.943 66.2502L27.9737 64.2438C27.2406 68.3488 26.6597 72.1569 26.4394 74.0991C25.9146 79.0508 28.843 78.6495 29.2436 78.6495C29.6442 78.6495 50.8758 71.559 50.8758 71.559L58.0865 70.7565C58.0865 70.7565 57.2853 71.4266 57.9543 71.4266C58.6233 71.4266 59.9573 70.0864 60.4901 69.2838C61.0229 68.4813 58.8877 64.0673 58.0865 63.5336Z" fill="#FFBF9D"></path> <path d="M58.0865 63.5336C57.2853 62.9999 50.0745 68.3488 50.0745 68.3488L48.0275 68.4853C48.0192 69.7826 48.3389 71.0609 48.9569 72.2011L50.8757 71.559L58.0865 70.7565C58.0865 70.7565 57.2853 71.4266 57.9543 71.4266C58.6233 71.4266 59.9573 70.0863 60.4901 69.2838C61.0229 68.4813 58.8877 64.0673 58.0865 63.5336Z" fill="#FFBF9D"></path> <path d="M65.173 57.2461L51.5527 76.3748L69.4474 75.7047L82.3987 58.0486L65.173 57.2461Z" fill="#263238" stroke="#263238" stroke-linecap="round" stroke-linejoin="round"></path> <path d="M71.1819 56.6875L70.1404 58.429L77.972 58.6016L79.0136 56.86L71.1819 56.6875Z" fill="#263238" stroke="#263238" stroke-linecap="round" stroke-linejoin="round"></path> <path d="M76.4778 68.1037C75.8628 68.3288 75.2223 68.4771 74.571 68.5451C73.7698 68.5812 73.0327 68.9825 73.0327 69.3877C73.0327 69.793 74.4588 69.8653 75.4884 69.8653C76.5179 69.8653 77.3191 69.6446 77.4914 68.9825C77.6636 68.3204 77.4313 67.7345 76.4778 68.1037Z" fill="#FFBF9D"></path> <path d="M77.3992 66.3108C76.6234 66.5933 75.8163 66.7805 74.9956 66.8685C73.9741 66.9167 73.0447 67.4263 73.0447 67.9399C73.0447 68.4536 74.8554 68.5459 76.1573 68.5459C77.4593 68.5459 78.4808 68.265 78.7131 67.4263C78.9455 66.5877 78.609 65.8453 77.3992 66.3108Z" fill="#FFBF9D"></path> <path d="M78.1404 64.7775C77.3652 65.062 76.5579 65.2493 75.7368 65.3353C74.7153 65.3834 73.7859 65.8931 73.7859 66.4067C73.7859 66.9203 75.5966 67.0126 76.8985 67.0126C78.2005 67.0126 79.222 66.7317 79.4543 65.8931C79.6867 65.0544 79.3462 64.312 78.1404 64.7775Z" fill="#FFBF9D"></path> <path d="M78.6412 63.0404C77.866 63.3248 77.0587 63.5121 76.2376 63.5981C75.2121 63.6463 74.2827 64.1599 74.2827 64.6695C74.2827 65.1791 76.0974 65.2754 77.3994 65.2754C78.7013 65.2754 79.7228 64.9945 79.9552 64.1599C80.1875 63.3253 79.851 62.5749 78.6412 63.0404Z" fill="#FFBF9D"></path> <path d="M35.0522 153.688C35.0522 153.688 34.9721 157.845 35.1363 158.503C35.3006 159.161 38.2049 160 40.0316 160C41.8583 160 43.016 159.598 43.3485 159.085C43.681 158.571 44.2619 155.18 44.2619 155.18C44.2619 155.18 37.7923 156.496 35.0522 153.688Z" fill="#2D55B1"></path> <path d="M44.2458 27.7959C42.9465 27.3378 41.5495 27.2316 40.196 27.4881C38.8426 27.7446 37.5808 28.3546 36.5384 29.2565C32.8929 32.3824 36.1378 38.0163 39.9755 38.6423C43.8132 39.2683 46.3289 37.4946 46.9539 34.6777C47.5788 31.8608 46.5372 27.6875 44.2458 27.7959Z" fill="#263238" stroke="#263238" stroke-linecap="round" stroke-linejoin="round"></path> <path d="M62.6773 26.8572C62.6773 26.8572 62.1566 32.0738 61.115 35.7213C60.0735 39.3689 57.3694 40.7292 53.5037 40.2076C49.6379 39.6859 47.4627 36.556 46.2128 32.9044C44.963 29.2528 44.8668 24.2489 44.8668 24.2489L62.6773 26.8572Z" fill="#FFBF9D"></path> <path d="M45.3916 26.7529C45.3916 26.7529 46.6414 27.9005 49.4536 25.9182C52.2658 23.9359 50.9118 22.9969 50.9118 22.9969L44.2458 23.3982L45.3916 26.7529Z" fill="#263238" stroke="#263238" stroke-linecap="round" stroke-linejoin="round"></path> <path d="M58.5152 28.1092C58.5152 28.1092 57.9944 29.6741 58.3068 30.1958C58.6193 30.7174 59.4525 31.4437 58.5152 32.2784C58.3453 32.4445 58.1388 32.5681 57.9124 32.6393C57.6859 32.7105 57.4459 32.7273 57.2118 32.6882C56.9777 32.6491 56.7561 32.5553 56.5649 32.4144C56.3737 32.2735 56.2184 32.0894 56.1116 31.8771" stroke="#263238" stroke-width="0.5" stroke-linecap="round" stroke-linejoin="round"></path> <path d="M52.7065 32.7715C52.7065 32.7715 54.3089 34.8541 57.3454 33.891" stroke="#263238" stroke-width="0.5" stroke-linecap="round" stroke-linejoin="round"></path> <path d="M54.9738 28.7347C54.9738 29.3085 54.7415 29.778 54.453 29.778C54.1646 29.778 53.9323 29.3085 53.9323 28.7347C53.9323 28.1609 54.1646 27.6914 54.453 27.6914C54.7415 27.6914 54.9738 28.1569 54.9738 28.7347Z" fill="#263238"></path> <path d="M60.7024 29.5698C60.7024 30.1436 60.466 30.6091 60.1816 30.6091C59.8972 30.6091 59.6608 30.1436 59.6608 29.5698C59.6608 28.996 59.8932 28.5265 60.1816 28.5265C60.47 28.5265 60.7024 28.992 60.7024 29.5698Z" fill="#263238"></path> <path d="M52.7866 26.4402C52.7866 26.4402 54.2448 24.7709 56.1196 26.4402" stroke="#263238" stroke-width="0.5" stroke-linecap="round" stroke-linejoin="round"></path> <path d="M59.4526 27.287C59.773 27.0502 60.1651 26.9312 60.5628 26.9502C60.9605 26.9692 61.3395 27.125 61.6359 27.3913" stroke="#263238" stroke-width="0.5" stroke-linecap="round" stroke-linejoin="round"></path> <path d="M43.8292 24.6658L63.1981 26.7524C63.1981 26.7524 62.9897 16.9453 62.8856 15.276C62.7814 13.6067 55.078 11.3115 52.0695 11.5201C49.061 11.7288 45.2994 13.5024 44.6745 14.329C44.0495 15.1556 43.8292 24.6658 43.8292 24.6658Z" fill="#FFA808"></path> <path d="M52.1616 25.7099L69.3432 28.0051C69.3432 28.0051 64.7604 24.0406 61.1149 23.7276C57.4695 23.4146 52.1616 25.7099 52.1616 25.7099Z" fill="#FFA808"></path> <path d="M46.1206 27.4832C46.1206 27.4832 45.7201 24.2489 43.9334 24.2489C42.1467 24.2489 42.996 26.8572 43.2043 28.5265C43.4126 30.1958 45.3916 30.6091 46.1206 29.9871" fill="#FFBF9D"></path> <path d="M47.9113 158.005L48.1637 161.91C48.1637 161.91 49.2613 162.74 52.4861 162.78C55.7109 162.821 56.8927 161.376 56.8927 161.376L57.5377 157.175C57.5377 157.175 51.5648 160 47.9113 158.005Z" fill="#2D55B1"></path> </g> <defs> <clipPath id="clip0_508_2350"> <rect width="180" height="174" fill="white"></rect> </clipPath> </defs> </svg> 