<?xml version="1.0" encoding="UTF-8"?> <svg xmlns="http://www.w3.org/2000/svg" width="181" height="173" viewBox="0 0 181 173" fill="none"> <g clip-path="url(#clip0_508_2079)"> <path d="M156.047 137.244C155.901 137.02 155.782 136.78 155.692 136.528C155.483 136.057 155.201 135.37 154.874 134.515C154.208 132.804 153.362 130.423 152.422 127.771C151.482 125.12 150.624 122.754 149.933 121.06C149.585 120.213 149.299 119.53 149.095 119.059C148.974 118.821 148.879 118.57 148.813 118.311C148.975 118.524 149.113 118.756 149.222 119.002C149.463 119.456 149.782 120.127 150.158 120.966C150.91 122.644 151.825 125.013 152.749 127.661C153.673 130.308 154.466 132.628 155.091 134.433C155.377 135.251 155.618 135.931 155.814 136.479C155.918 136.725 155.996 136.982 156.047 137.244Z" fill="#E0E0E0"></path> <path d="M152.119 164.988C152.119 164.988 152.034 164.915 151.899 164.747L151.314 164.014C150.807 163.376 150.088 162.431 149.238 161.252C147.517 158.895 145.245 155.569 142.784 151.861C140.324 148.154 138.08 144.807 136.412 142.421L134.426 139.598L133.89 138.824C133.82 138.739 133.762 138.644 133.719 138.542C133.803 138.613 133.879 138.694 133.943 138.783L134.528 139.516C135.035 140.158 135.754 141.104 136.604 142.278C138.325 144.635 140.597 147.966 143.058 151.689C145.519 155.413 147.762 158.74 149.43 161.13L151.416 163.953L151.952 164.722C152.019 164.803 152.075 164.893 152.119 164.988Z" fill="#E0E0E0"></path> <path d="M13.2722 48.2216L7.8125 76.3682L49.5243 84.4779L54.9841 56.3314L13.2722 48.2216Z" fill="#F6DAA0"></path> <path d="M55.0513 56.6986C54.9071 56.8126 54.7525 56.9126 54.5894 56.9973L53.2324 57.7912L48.1928 60.6556L31.4719 69.973L31.337 70.0507L31.2348 69.9279C31.1531 69.8379 31.0713 69.7397 30.9855 69.6374C26.0931 63.835 21.6625 58.6259 18.4458 54.8L14.6814 50.2988L13.6719 49.0712C13.5462 48.9331 13.4353 48.7822 13.3408 48.6211C13.4909 48.7429 13.6279 48.88 13.7495 49.0303L14.8163 50.2251C15.7523 51.3095 17.0643 52.8154 18.6706 54.669L31.292 69.4246L31.5373 69.7152L31.3002 69.6742L48.0825 60.4551L53.1793 57.7053L54.5731 56.9728C54.7221 56.8644 54.8824 56.7725 55.0513 56.6986Z" fill="#E0E0E0"></path> <path d="M7.88023 76.7325C7.81074 76.6507 11.6977 73.4016 16.5575 69.4774C21.4172 65.5533 25.4105 62.4393 25.4759 62.5211C25.5413 62.6029 21.6625 65.8561 16.7986 69.7803C11.9348 73.7044 7.94562 76.8184 7.88023 76.7325Z" fill="#E0E0E0"></path> <path d="M39.4093 64.8695C39.5033 64.8204 41.8617 69.252 44.6696 74.768C47.4775 80.284 49.6847 84.7974 49.5743 84.8424C49.4639 84.8874 47.122 80.4599 44.3099 74.944C41.4979 69.428 39.3153 64.9146 39.4093 64.8695Z" fill="#E0E0E0"></path> <path d="M71.7967 42.5765L45.4299 45.3427L43.2595 26.9984L69.6264 24.2363L71.7967 42.5765Z" fill="#F6DAA0"></path> <path d="M69.7367 24.4454C69.6756 24.5437 69.6029 24.6344 69.5201 24.7154L68.8662 25.4561L66.4138 28.1527C64.317 30.4319 61.4437 33.5459 58.2597 36.9995L58.1943 37.0732L58.1085 37.02L57.9041 36.8849L47.6002 30.0882L44.4898 28.0054L43.6723 27.4284C43.5709 27.3663 43.4764 27.2936 43.3903 27.2115C43.4981 27.2598 43.6008 27.3187 43.6968 27.3875L44.5511 27.9235L47.7023 29.9409L58.039 36.6762L58.2434 36.8113H58.0922L66.2953 28.0299L68.7967 25.3906L69.4833 24.6827C69.5625 24.5981 69.6471 24.5188 69.7367 24.4454Z" fill="#E0E0E0"></path> <path d="M45.5402 45.5517C45.483 45.5149 47.1751 42.7938 49.3046 39.4752C51.434 36.1566 53.212 33.4968 53.2692 33.5336C53.3264 33.5705 51.6343 36.2957 49.5048 39.6143C47.3754 42.9329 45.5933 45.5927 45.5402 45.5517Z" fill="#E0E0E0"></path> <path d="M62.0078 32.3875C62.0527 32.3384 64.3089 34.6299 67.0433 37.5024C69.7776 40.375 71.948 42.7402 71.9071 42.7893C71.8662 42.8384 69.606 40.5469 66.8716 37.6743C64.1372 34.8018 61.9587 32.4325 62.0078 32.3875Z" fill="#E0E0E0"></path> <path d="M35.2607 20.3493L20.6897 10.2463L27.5685 0L42.1437 10.1031L35.2607 20.3493Z" fill="#F6DAA0"></path> <path d="M42.0987 10.2586C42.0238 10.279 41.9472 10.2927 41.8698 10.2995L41.2159 10.3895L38.8044 10.6882L30.8261 11.6171H30.7607L30.7402 11.5516C30.7402 11.5025 30.7116 11.4493 30.6953 11.3961C29.8124 8.30669 29.0195 5.50779 28.4269 3.46181C28.1489 2.45519 27.92 1.6368 27.7606 1.04755L27.5849 0.409206C27.5603 0.333433 27.5438 0.25524 27.5358 0.175964C27.5686 0.247473 27.5959 0.321335 27.6176 0.39693C27.6666 0.560609 27.7361 0.777483 27.8179 1.04755L28.5372 3.44544C29.134 5.49142 29.9514 8.28214 30.8506 11.3716L30.8956 11.5312L30.8138 11.4739L38.8003 10.5941L41.22 10.3486L41.878 10.2872C41.9501 10.2683 42.0242 10.2587 42.0987 10.2586Z" fill="#E0E0E0"></path> <path d="M20.653 10.4014C20.653 10.3564 22.6966 9.71392 25.2062 8.961C27.7157 8.20808 29.7921 7.6352 29.8002 7.68022C29.8084 7.72523 27.7566 8.36767 25.247 9.12059C22.7375 9.87351 20.6611 10.4464 20.653 10.4014Z" fill="#E0E0E0"></path> <path d="M34.7417 10.9092C34.7866 10.9092 34.9297 13.0534 35.0686 15.7009C35.2076 18.3484 35.2771 20.5007 35.2321 20.5048C35.1872 20.5089 35.04 18.3647 34.9052 15.7131C34.7703 13.0616 34.6885 10.9133 34.7417 10.9092Z" fill="#E0E0E0"></path> <path d="M152.385 33.7873C152.39 31.285 151.819 28.8151 150.715 26.57C149.611 24.3248 148.005 22.3649 146.021 20.8427C144.037 19.3206 141.729 18.2772 139.277 17.7938C136.825 17.3103 134.294 17.3999 131.882 18.0556C129.469 18.7112 127.241 19.9152 125.369 21.5738C123.498 23.2325 122.034 25.3011 121.091 27.6187C120.149 29.9363 119.753 32.4404 119.935 34.9361C120.116 37.4319 120.871 39.8519 122.139 42.0081L122.184 42.0695C122.806 43.117 123.586 43.8699 124.375 44.9748L133.809 57.4839C134.082 57.8473 134.435 58.1423 134.842 58.3454C135.248 58.5485 135.696 58.6542 136.151 58.6542C136.605 58.6542 137.053 58.5485 137.459 58.3454C137.866 58.1423 138.219 57.8473 138.493 57.4839L147.771 45.1794C148.614 44.1805 149.402 43.1355 150.129 42.049L150.162 42.0081C151.622 39.5156 152.39 36.6771 152.385 33.7873ZM136.138 40.8705C134.723 40.8705 133.34 40.4504 132.164 39.6634C130.988 38.8764 130.071 37.7577 129.53 36.449C128.988 35.1403 128.847 33.7002 129.123 32.311C129.4 30.9219 130.081 29.6459 131.082 28.6446C132.083 27.6433 133.358 26.9616 134.745 26.6857C136.133 26.4099 137.571 26.5523 138.878 27.0949C140.185 27.6375 141.302 28.556 142.088 29.7342C142.873 30.9123 143.292 32.2972 143.291 33.7137C143.291 34.6539 143.106 35.5848 142.746 36.4534C142.387 37.322 141.86 38.1111 141.196 38.7758C140.532 39.4404 139.743 39.9675 138.875 40.3269C138.007 40.6863 137.077 40.8711 136.138 40.8705Z" fill="#F6DAA0"></path> <path d="M164.81 61.7027C164.814 60.3527 164.506 59.0201 163.911 57.8085C163.316 56.597 162.45 55.5393 161.38 54.7177C160.31 53.8962 159.065 53.3329 157.742 53.0718C156.419 52.8107 155.054 52.8588 153.752 53.2124C152.451 53.5659 151.249 54.2154 150.239 55.1102C149.229 56.0051 148.439 57.1211 147.931 58.3715C147.423 59.6219 147.209 60.9729 147.308 62.3193C147.406 63.6658 147.813 64.9713 148.498 66.1343L148.523 66.167C148.858 66.7358 149.279 67.1409 149.704 67.7343L154.784 74.4737C154.932 74.6695 155.123 74.8283 155.342 74.9376C155.561 75.047 155.802 75.1039 156.047 75.1039C156.292 75.1039 156.534 75.047 156.753 74.9376C156.972 74.8283 157.163 74.6695 157.31 74.4737L162.313 67.8407C162.769 67.3015 163.195 66.7373 163.588 66.1507V66.1261C164.383 64.7876 164.805 63.2601 164.81 61.7027ZM156.047 65.5246C155.284 65.5246 154.538 65.2981 153.904 64.8736C153.269 64.4492 152.775 63.8459 152.483 63.14C152.191 62.4342 152.114 61.6575 152.263 60.9082C152.412 60.1589 152.779 59.4706 153.319 58.9304C153.859 58.3901 154.546 58.0222 155.295 57.8732C156.043 57.7242 156.819 57.8007 157.524 58.093C158.229 58.3854 158.831 58.8805 159.255 59.5157C159.679 60.151 159.906 60.8978 159.906 61.6618C159.906 62.6863 159.499 63.6688 158.776 64.3932C158.052 65.1176 157.071 65.5246 156.047 65.5246Z" fill="#F6DAA0"></path> <path d="M180.959 172.877C180.959 172.934 140.446 172.983 90.4837 172.983C40.521 172.983 0 172.934 0 172.877C0 172.82 40.5047 172.771 90.4837 172.771C140.463 172.771 180.959 172.816 180.959 172.877Z" fill="#263238"></path> <path d="M65.6904 31.7704L68.3798 69.9115C68.5928 72.9127 69.9343 75.7215 72.1339 77.7717C74.3335 79.822 77.2275 80.9612 80.2328 80.9598C81.8598 80.9607 83.4695 80.6268 84.9622 79.9789C86.4549 79.331 87.7986 78.383 88.9101 77.1935C90.0215 76.004 90.8769 74.5986 91.4232 73.0644C91.9695 71.5301 92.1951 69.8999 92.0859 68.2748C91.8488 64.6452 91.6322 61.6703 91.6322 61.6703C91.6322 61.6703 100.857 60.2341 100.967 51.0026C101.037 45.683 100.117 33.5749 99.3326 24.3025C99.0746 21.2803 97.6929 18.465 95.4608 16.4138C93.2288 14.3626 90.3091 13.2248 87.2793 13.2256H81.6961C79.4175 13.3592 77.1888 13.949 75.1419 14.9601C73.095 15.9712 71.2715 17.383 69.7792 19.112C68.2869 20.8411 67.1561 22.8522 66.4538 25.0265C65.7515 27.2007 65.4919 29.4939 65.6904 31.7704Z" fill="#E8B19C"></path> <path d="M91.6403 61.5595C91.6403 61.5595 85.8323 62.0342 79.6197 58.1386C79.6197 58.1386 82.4604 64.784 91.6608 63.9492L91.6403 61.5595Z" fill="#D68B17"></path> <path d="M96.4592 35.4732C96.468 35.8217 96.339 36.1596 96.1001 36.4133C95.8613 36.667 95.532 36.8159 95.184 36.8277C95.0135 36.8405 94.8421 36.8185 94.6803 36.763C94.5185 36.7075 94.3697 36.6197 94.2428 36.5049C94.1159 36.3901 94.0136 36.2508 93.9422 36.0952C93.8707 35.9397 93.8315 35.7712 93.827 35.6001C93.8236 35.2568 93.9541 34.9258 94.1907 34.6775C94.4274 34.4291 94.7515 34.283 95.0941 34.2702C95.2634 34.2557 95.4339 34.2756 95.5953 34.3289C95.7567 34.3821 95.9057 34.4675 96.0332 34.5799C96.1608 34.6923 96.2643 34.8294 96.3375 34.9829C96.4107 35.1365 96.4521 35.3032 96.4592 35.4732Z" fill="#263238"></path> <path d="M97.7304 33.5827C97.5669 33.7546 96.5696 33.014 95.1554 33.0181C93.7412 33.0221 92.703 33.7301 92.5436 33.5582C92.4701 33.4804 92.6336 33.149 93.0872 32.8421C93.6993 32.4144 94.4294 32.1884 95.1758 32.1956C95.9099 32.1946 96.6254 32.4267 97.2195 32.8585C97.6854 33.194 97.8121 33.505 97.7304 33.5827Z" fill="#263238"></path> <path d="M82.6279 35.477C82.6357 35.8241 82.5067 36.1603 82.2688 36.413C82.031 36.6657 81.7034 36.8145 81.3568 36.8273C81.1863 36.8401 81.0149 36.8181 80.8531 36.7627C80.6913 36.7072 80.5425 36.6194 80.4156 36.5046C80.2887 36.3898 80.1864 36.2504 80.115 36.0949C80.0435 35.9394 80.0043 35.7709 79.9998 35.5997C79.9964 35.2565 80.1269 34.9255 80.3635 34.6771C80.6002 34.4288 80.9243 34.2826 81.2669 34.2699C81.4362 34.2559 81.6066 34.2764 81.7678 34.3302C81.929 34.3839 82.0776 34.4698 82.2048 34.5826C82.3319 34.6954 82.435 34.8327 82.5077 34.9865C82.5804 35.1402 82.6213 35.307 82.6279 35.477Z" fill="#263238"></path> <path d="M83.7887 33.8483C83.6252 34.0201 82.6238 33.2795 81.2096 33.2836C79.7954 33.2876 78.7573 33.9956 78.5979 33.8237C78.5243 33.746 78.6878 33.4145 79.1415 33.1035C79.7549 32.6789 80.4844 32.4546 81.2301 32.4611C81.9642 32.4601 82.6797 32.6922 83.2737 33.124C83.7355 33.4595 83.8827 33.7705 83.7887 33.8483Z" fill="#263238"></path> <path d="M88.9469 44.3691C88.9469 44.2873 89.8215 44.1359 91.248 43.9599C91.6077 43.9231 91.951 43.8495 92.0123 43.6039C92.0436 43.229 91.9595 42.8534 91.7712 42.5278L90.7003 39.7698C89.2166 35.8456 88.1376 32.6129 88.297 32.5556C88.4564 32.4984 89.7888 35.6328 91.2766 39.5611C91.6322 40.5309 91.9755 41.4516 92.2984 42.3354C92.4374 42.7446 92.6744 43.2152 92.4864 43.7553C92.4359 43.8841 92.3559 43.9993 92.2531 44.0916C92.1502 44.184 92.0271 44.251 91.8938 44.2873C91.6922 44.3405 91.485 44.3693 91.2766 44.3732C89.842 44.4428 88.9509 44.4469 88.9469 44.3691Z" fill="#263238"></path> <path d="M84.7738 45.3468C85.0068 45.3468 85.0109 46.8731 86.327 47.9657C87.6431 49.0582 89.278 48.8904 89.2902 49.1073C89.2902 49.2014 88.9264 49.406 88.2357 49.4224C87.3341 49.4368 86.4565 49.1309 85.7588 48.559C85.0885 48.0123 84.6575 47.2255 84.5572 46.3657C84.5 45.7192 84.6716 45.3386 84.7738 45.3468Z" fill="#263238"></path> <path d="M84.1688 28.2877C84.0299 28.6724 82.6157 28.4882 80.9522 28.6969C79.2887 28.9056 77.9439 29.3517 77.7232 29.0079C77.6251 28.8402 77.8581 28.4801 78.4017 28.1036C79.1253 27.6482 79.9426 27.363 80.7921 27.2695C81.6416 27.1759 82.5013 27.2764 83.3064 27.5635C83.9236 27.8008 84.2301 28.1036 84.1688 28.2877Z" fill="#263238"></path> <path d="M97.2113 29.4624C96.962 29.7857 95.9851 29.4624 94.8121 29.4378C93.6391 29.4133 92.6418 29.6547 92.417 29.3151C92.3148 29.1514 92.4701 28.8281 92.9034 28.5253C93.4874 28.1602 94.1664 27.9766 94.8546 27.9977C95.5428 28.0189 96.2093 28.2438 96.7699 28.644C97.1827 28.9877 97.3217 29.3192 97.2113 29.4624Z" fill="#263238"></path> <path d="M68.8007 38.7013C68.6413 38.6318 62.4614 36.8231 62.6698 43.1329C62.8783 49.4427 69.1563 47.941 69.1645 47.7609C69.1727 47.5809 68.8007 38.7013 68.8007 38.7013Z" fill="#E8B19C"></path> <path d="M67.1576 45.4211C67.129 45.4211 67.0473 45.4988 66.8675 45.593C66.6102 45.7106 66.3177 45.7252 66.05 45.6339C65.3756 45.4088 64.783 44.3695 64.7135 43.2319C64.682 42.6915 64.7699 42.1508 64.971 41.6483C65.0258 41.4477 65.129 41.2637 65.2715 41.1124C65.4141 40.9611 65.5916 40.8472 65.7884 40.7808C65.9133 40.7424 66.0477 40.7492 66.168 40.8001C66.2883 40.851 66.3869 40.9427 66.4465 41.0591C66.5364 41.235 66.4996 41.3619 66.5323 41.3701C66.565 41.3782 66.6631 41.2596 66.6059 41.0018C66.569 40.839 66.4764 40.6943 66.3443 40.5926C66.2563 40.53 66.1569 40.4855 66.0516 40.4617C65.9464 40.4378 65.8375 40.435 65.7312 40.4535C65.4743 40.5135 65.2369 40.6382 65.0417 40.8158C64.8464 40.9934 64.6997 41.218 64.6154 41.4683C64.3663 42.0241 64.2555 42.632 64.2925 43.2401C64.3742 44.5086 65.0609 45.6953 65.9805 45.9121C66.1516 45.9555 66.3301 45.9604 66.5032 45.9265C66.6764 45.8925 66.8399 45.8205 66.9819 45.7157C67.1495 45.5848 67.1781 45.4416 67.1576 45.4211Z" fill="#D68B17"></path> <path d="M65.2899 38.4852C66.2544 38.2519 67.918 39.1399 68.3267 40.0442C68.7354 40.9485 68.8253 41.9674 69.2341 42.8677C69.6428 43.7679 70.5665 44.5863 71.5311 44.3571C71.8569 44.2536 72.1497 44.066 72.38 43.8131C72.6104 43.5602 72.7701 43.2511 72.8431 42.9168C72.9821 42.2425 72.989 41.5477 72.8635 40.8708C72.4916 37.9205 71.8703 34.9988 71.7559 32.0321C71.6414 29.0655 72.0583 25.976 73.6156 23.439C75.1728 20.902 78.0298 19.0524 80.9727 19.2898C82.9304 19.4494 84.7288 20.4723 86.6744 20.7424C87.8332 20.8964 89.0119 20.7841 90.1209 20.414C91.23 20.0439 92.2402 19.4257 93.075 18.6064C93.4574 18.299 93.8558 18.0122 94.2685 17.7471C94.2685 17.5916 94.1254 16.274 93.6064 15.7952C89.7439 12.2189 82.7874 11.2204 77.6865 12.5217C72.5856 13.8229 67.8035 17.432 65.6087 22.1992C63.4138 26.9663 64.0678 33.6567 65.2735 38.4811" fill="#263238"></path> <path d="M99.4225 22.915C99.4225 22.915 75.2341 15.1403 64.7666 36.0788C64.7666 36.0788 63.2053 30.8329 63.2053 28.0218C63.2053 26.1477 64.3252 14.9643 75.8186 11.4493C75.8186 11.4329 93.1281 4.81624 99.4225 22.915Z" fill="#FFA808"></path> <path d="M78.6388 23.4224C79.0674 24.1174 79.6517 24.7031 80.3456 25.1329C81.0394 25.5627 81.8236 25.8249 82.6362 25.8987C83.4487 25.9726 84.2673 25.856 85.0271 25.5583C85.7868 25.2606 86.467 24.7899 87.0136 24.1835C87.2541 24.7855 87.6768 25.2971 88.2224 25.6465C88.768 25.9959 89.4091 26.1656 90.0559 26.1317C90.7027 26.0979 91.3227 25.8622 91.8289 25.4578C92.3352 25.0534 92.7023 24.5005 92.8788 23.8766C93.5355 24.6083 94.3373 25.195 95.2331 25.5993C96.1486 25.9348 97.3135 25.808 97.9184 25.0346C98.5233 24.2612 98.3557 23.0541 97.7508 22.2562C97.0909 21.5047 96.2451 20.9402 95.2985 20.6194C92.4322 19.3574 89.2829 18.8787 86.1716 19.2322C83.0857 19.6414 80.0979 21.1473 78.1688 23.5942" fill="#263238"></path> <g opacity="0.4"> <path d="M99.4225 22.915C97.4103 20.7925 94.6508 19.5389 91.7303 19.4205C84.5939 19.1054 71.2408 23.1032 64.7544 36.0788C64.7544 36.0788 63.193 30.8329 63.193 28.0218C63.193 26.1477 64.313 14.9643 75.8063 11.4493C75.8186 11.4329 93.1281 4.81624 99.4225 22.915Z" fill="black"></path> </g> <path d="M65.7803 33.6076C69.3648 28.1162 74.3104 23.5701 79.8731 20.1042C85.4359 16.6383 94.6281 13.1887 100.963 11.511C102.868 11.0077 104.85 10.5658 106.792 10.9013C108.733 11.2369 110.63 12.5381 111.108 14.4409C111.713 16.8306 107.47 20.5215 105.48 21.9742C103.489 23.4268 99.4225 25.5547 99.4225 25.5547C99.4225 25.5547 99.4756 21.119 92.3842 20.2024C82.7383 18.938 65.7803 33.6076 65.7803 33.6076Z" fill="#FFA808"></path> <path d="M85.6198 15.5126C85.6198 15.5126 89.1022 13.5812 92.6049 13.1311C92.0211 12.6732 91.3827 12.2897 90.7044 11.9894C88.8031 12.3041 86.9649 12.923 85.2601 13.8226L85.6198 15.5126Z" fill="#E0E0E0"></path> <path d="M105.251 69.6289L97.5791 67.9266L94.4565 67.145L91.857 63.1104C91.857 63.1104 90.6308 70.3204 85.9754 74.2037C85.3457 74.7212 84.607 75.0891 83.8148 75.2798C83.0227 75.4704 82.1976 75.4788 81.4018 75.3044C80.3513 75.0834 79.117 74.8093 78.2014 74.5638C78.0053 74.5147 77.7927 74.4451 77.5638 74.3632C74.1979 73.1104 71.3939 70.688 69.6632 67.5379C68.6332 65.7047 67.7626 63.8224 68.0569 63.1104L64.4192 70.66L42.9611 80.5544L30.777 110.348L54.3891 117.341L55.1248 141.893L50.682 172.828L117.484 172.877L115.113 104.014" fill="#FFA808"></path> <path d="M87.9823 96.288C87.8462 96.2988 87.7096 96.2988 87.5735 96.288L86.3841 96.2593L82.1375 96.112H82.0557V96.0261C81.9822 94.1806 81.9004 91.9955 81.8064 89.659C81.6961 86.2954 81.5939 83.2469 81.5203 81.0086C81.4958 79.9242 81.4754 79.0362 81.459 78.3897C81.459 78.0951 81.459 77.8619 81.459 77.6736C81.4484 77.5908 81.4484 77.5069 81.459 77.424C81.4754 77.5063 81.4849 77.5898 81.4876 77.6736C81.4876 77.8578 81.5162 78.0828 81.5326 78.3856C81.5653 79.0321 81.6102 79.9201 81.6634 81.0045C81.7533 83.2428 81.8759 86.2872 82.0108 89.6508C82.0925 91.9873 82.1661 94.1724 82.2274 96.0179L82.1416 95.932L86.3841 96.1611L87.5735 96.2389C87.7108 96.2448 87.8475 96.2612 87.9823 96.288Z" fill="#263238"></path> <path d="M84.3405 86.3401C84.4336 86.2737 84.545 86.238 84.6593 86.2378C84.9723 86.2099 85.2847 86.2972 85.538 86.4833C85.7193 86.6074 85.8668 86.7747 85.9672 86.9702C86.0838 87.1999 86.1252 87.4604 86.0857 87.715C86.0412 88.0031 85.9145 88.2721 85.7209 88.4899C85.5273 88.7077 85.2751 88.8648 84.9944 88.9426C84.7095 89.0018 84.4137 88.9813 84.1397 88.8831C83.8656 88.7849 83.624 88.6129 83.4413 88.3861C83.2923 88.2042 83.188 87.9899 83.1369 87.7603C83.0858 87.5307 83.0892 87.2923 83.147 87.0644C83.2141 86.7613 83.3674 86.4842 83.5884 86.2664C83.7437 86.115 83.8541 86.0659 83.8623 86.0741C83.8704 86.0823 83.7805 86.16 83.6497 86.3196C83.4677 86.5431 83.3453 86.8092 83.2941 87.093C83.2526 87.297 83.2575 87.5078 83.3085 87.7097C83.3594 87.9116 83.4551 88.0994 83.5884 88.2592C83.7512 88.4518 83.9625 88.5974 84.2003 88.6809C84.4382 88.7643 84.694 88.7826 84.9413 88.7339C85.1833 88.6665 85.4011 88.5313 85.569 88.3443C85.737 88.1573 85.8482 87.9262 85.8895 87.6782C85.9226 87.4753 85.8992 87.2672 85.8221 87.0766C85.745 86.8861 85.617 86.7205 85.4522 86.5979C85.227 86.4203 84.95 86.3211 84.6634 86.3155C84.459 86.3401 84.3486 86.3605 84.3405 86.3401Z" fill="#263238"></path> <path d="M83.6253 77.6938C83.7207 77.613 83.8368 77.5606 83.9605 77.5424C84.2482 77.4865 84.546 77.515 84.818 77.6247C85.0899 77.7343 85.3244 77.9203 85.4932 78.1602C85.6545 78.4014 85.7321 78.689 85.7139 78.9786C85.7036 79.3015 85.5952 79.6135 85.4031 79.8731C85.211 80.1327 84.9444 80.3274 84.6389 80.4313C84.3274 80.5116 83.9992 80.4982 83.6953 80.3926C83.3914 80.2871 83.1254 80.0941 82.9305 79.8379C82.7579 79.6148 82.6542 79.346 82.6321 79.0646C82.619 78.8244 82.6581 78.5843 82.7465 78.3607C82.8709 78.039 83.096 77.7662 83.3882 77.5833C83.4888 77.5088 83.6073 77.4622 83.7316 77.4482C83.7316 77.4687 83.6171 77.5137 83.4373 77.6487C83.1838 77.8446 82.9934 78.1107 82.8896 78.4139C82.8075 78.6294 82.7825 78.8624 82.8169 79.0904C82.8512 79.3184 82.9439 79.5336 83.0858 79.7152C83.2584 79.9358 83.4912 80.1015 83.756 80.1923C84.0208 80.2831 84.3062 80.295 84.5776 80.2267C84.8411 80.1337 85.0713 79.9648 85.2392 79.7413C85.4072 79.5178 85.5055 79.2497 85.5218 78.9705C85.5315 78.7414 85.4769 78.5142 85.3642 78.3145C85.2515 78.1149 85.0852 77.9509 84.8842 77.8411C84.6125 77.6749 84.2927 77.6057 83.9768 77.6447C83.752 77.6528 83.6335 77.7101 83.6253 77.6938Z" fill="#263238"></path> <path d="M81.4508 110.724C81.4508 110.724 81.4835 110.724 81.553 110.675L81.8595 110.557C82.2531 110.411 82.6392 110.246 83.0162 110.062C84.3982 109.366 85.6662 108.463 86.7765 107.385C88.4104 105.774 89.8544 103.981 91.0804 102.041C92.612 99.6818 94.012 97.2392 95.2739 94.7248C97.54 90.1443 99.5286 85.4314 101.229 80.6117C101.895 78.7662 102.414 77.2644 102.778 76.2251C102.958 75.7218 103.097 75.3208 103.187 75.0343C103.232 74.9075 103.273 74.8052 103.301 74.7233C103.312 74.6874 103.327 74.653 103.346 74.621C103.344 74.659 103.336 74.6963 103.322 74.7315L103.228 75.0466C103.134 75.3371 103.007 75.7422 102.848 76.2537C102.504 77.2972 102.03 78.8071 101.356 80.6608C99.697 85.5092 97.7241 90.2441 95.4497 94.8353C94.1853 97.3559 92.777 99.8015 91.2316 102.16C89.9918 104.108 88.5266 105.904 86.8664 107.508C85.7384 108.585 84.4472 109.475 83.0408 110.147C82.6567 110.325 82.2622 110.48 81.8595 110.61L81.5448 110.708C81.514 110.716 81.4826 110.722 81.4508 110.724Z" fill="#263238"></path> <path d="M95.5232 102.553C95.699 102.553 99.7617 102.27 99.7617 102.27C99.7617 102.27 98.0859 105.241 96.3366 106.362H92.7807L95.5232 102.553Z" fill="#F6DAA0"></path> <path d="M80.7396 119.719C80.8106 119.653 80.8872 119.594 80.9685 119.543L81.6552 119.068C82.2478 118.659 83.1021 118.049 84.128 117.259C86.1716 115.692 88.8937 113.347 91.8038 110.671C93.2589 109.337 94.6649 108.073 95.8666 106.866C96.9449 105.804 97.9461 104.666 98.8625 103.461C99.4763 102.646 100.023 101.783 100.497 100.879C100.677 100.564 100.788 100.306 100.873 100.139C100.913 100.049 100.959 99.9629 101.012 99.8807C100.992 99.9759 100.959 100.068 100.914 100.155C100.837 100.331 100.739 100.597 100.571 100.916C100.123 101.84 99.5906 102.721 98.981 103.547C98.0768 104.772 97.0807 105.927 96.0014 107.001C94.7957 108.228 93.3979 109.493 91.9428 110.831C89.4788 113.143 86.8992 115.328 84.2138 117.378C83.1756 118.155 82.305 118.745 81.696 119.137C81.3936 119.334 81.1524 119.481 80.9889 119.579C80.9113 119.635 80.8277 119.682 80.7396 119.719Z" fill="#263238"></path> <path d="M69.279 165.18C69.2905 165.147 69.307 165.115 69.328 165.086C69.373 165.012 69.4261 164.922 69.4956 164.816C69.6468 164.579 69.8757 164.239 70.1823 163.805C70.7954 162.942 71.7436 161.735 72.9943 160.311C75.512 157.479 79.0393 153.625 82.9222 149.353L92.9115 138.439L95.9565 135.166C96.308 134.789 96.5859 134.491 96.7739 134.278L96.9947 134.049C97.0478 134 97.0723 133.975 97.0764 133.979C97.057 134.009 97.0351 134.038 97.011 134.065L96.8066 134.306L95.9892 135.219L92.9932 138.554L83.053 149.508L73.1087 160.405C71.8458 161.813 70.8812 163.003 70.2477 163.85C69.9329 164.26 69.6918 164.607 69.5324 164.832L69.3485 165.09C69.3292 165.123 69.3058 165.153 69.279 165.18Z" fill="#263238"></path> <path d="M104.72 69.4238C105.071 69.9517 112.968 70.8274 114.901 72.7629C116.834 74.6984 136.155 89.4581 136.155 89.4581L122.385 108.027L113.499 106.071L104.72 69.4238Z" fill="#FFA808"></path> <path opacity="0.4" d="M133.813 87.6748L118.375 107.144L122.385 108.028L136.138 89.4589L133.813 87.6748Z" fill="black"></path> <path d="M108.925 88.7547C108.855 88.5437 108.802 88.3275 108.766 88.1082C108.721 87.8995 108.668 87.6417 108.631 87.3389C108.594 87.0361 108.533 86.6923 108.513 86.3118C108.492 85.9312 108.451 85.4934 108.451 85.0555C108.451 84.6177 108.451 84.1185 108.488 83.6111C108.63 81.4022 109.169 79.237 110.078 77.2194C110.295 76.7611 110.487 76.3192 110.72 75.9305C110.953 75.5417 111.153 75.1735 111.361 74.8502C111.57 74.5269 111.77 74.2446 111.95 73.995C112.099 73.7809 112.258 73.5747 112.428 73.3771C112.563 73.2006 112.712 73.035 112.874 72.882C112.763 73.0753 112.636 73.2587 112.494 73.4303C112.367 73.5981 112.212 73.8108 112.048 74.0645C111.885 74.3182 111.676 74.5965 111.488 74.9279C111.3 75.2594 111.079 75.6113 110.875 76.0123C110.671 76.4133 110.466 76.8307 110.254 77.3013C109.38 79.3071 108.85 81.4456 108.684 83.6275C108.656 84.1267 108.619 84.6054 108.627 85.0555C108.635 85.5057 108.627 85.919 108.664 86.2831C108.701 86.6473 108.721 87.0074 108.75 87.3061C108.778 87.6048 108.815 87.8667 108.848 88.0795C108.895 88.3015 108.921 88.5276 108.925 88.7547Z" fill="#263238"></path> <path d="M115.105 104.014C114.474 102.784 113.905 101.524 113.401 100.237C112.83 98.9776 112.326 97.6896 111.889 96.378C112.522 97.607 113.092 98.8676 113.597 100.155C114.167 101.414 114.671 102.702 115.105 104.014Z" fill="#263238"></path> <path d="M54.3891 90.5309C54.3564 90.5309 54.0253 89.9417 53.4 89.0169C51.768 86.6105 49.6605 84.5647 47.2078 83.0058C46.2718 82.4043 45.6546 82.0933 45.671 82.0605C45.8272 82.1068 45.978 82.1699 46.1206 82.2488C46.4067 82.3797 46.8072 82.5925 47.2895 82.8748C49.8196 84.3763 51.9617 86.4522 53.543 88.935C53.8414 89.4097 54.0662 89.8066 54.2052 90.089C54.2816 90.2295 54.3432 90.3776 54.3891 90.5309Z" fill="#263238"></path> <path opacity="0.4" d="M30.777 110.347L31.7293 108.027L57.8469 115.147L56.8128 118.057L30.777 110.347Z" fill="black"></path> <path d="M100.502 101.178H110.446V105.29L97.7222 105.208C97.7222 105.208 99.6882 102.823 100.502 101.178Z" fill="#F6DAA0"></path> <g opacity="0.2"> <path d="M65.0323 71.5725C65.392 74.7643 65.7844 78.0542 67.3621 80.8531C68.9397 83.652 72.0256 85.8576 75.2014 85.387C77.3186 85.076 79.1129 83.6561 80.5557 82.0725C81.9985 80.4889 83.2083 78.6844 84.7819 77.2317C85.7334 78.2591 86.7974 79.176 87.9536 79.9651C89.1213 80.7544 90.5219 81.1237 91.9265 81.0127C93.3161 80.8449 94.0804 80.2966 94.5178 78.9667C93.0382 79.4291 92.2207 79.3759 90.7493 79.0731C89.1195 78.7623 87.5893 78.0602 86.2901 77.0271C85.4195 76.3438 85.1089 75.3167 84.0094 75.3903C82.9917 75.4476 82.1947 76.2578 81.5203 77.0271C80.4418 78.2707 79.256 79.4167 77.9767 80.4521C76.7505 81.4219 75.5652 82.0889 74.0038 82.0398C71.433 81.9866 69.328 79.9651 67.9057 77.8169C66.5987 75.835 65.6317 73.6484 65.0446 71.3475" fill="black"></path> </g> <path d="M95.1309 67.591C95.1542 67.664 95.1679 67.7396 95.1717 67.8161C95.1922 67.9675 95.2249 68.1885 95.2535 68.4749C95.3148 69.0478 95.3761 69.8825 95.4006 70.9301C95.4557 73.6214 95.1992 76.31 94.6363 78.9421V79.0076V79.069H94.575C93.1207 79.4092 91.6036 79.3698 90.1689 78.9544C88.9988 78.6375 87.8924 78.1197 86.8991 77.424C86.2292 76.9676 85.6289 76.4162 85.1171 75.7872C84.9761 75.6182 84.8477 75.439 84.7329 75.2512C84.6878 75.1893 84.6481 75.1235 84.6143 75.0548C85.281 75.9278 86.0811 76.6901 86.985 77.3135C87.9721 77.9788 89.0635 78.4739 90.2139 78.7785C91.616 79.1735 93.0951 79.2073 94.5137 78.8767L94.436 78.9585V78.893C94.9927 76.2743 95.2667 73.6033 95.2535 70.926C95.2535 69.8989 95.2085 69.0682 95.1758 68.4954C95.1758 68.2253 95.1472 68.0084 95.1349 67.8325C95.1217 67.7526 95.1203 67.6713 95.1309 67.591Z" fill="#263238"></path> <path d="M82.7138 75.6641C82.6804 75.751 82.6365 75.8335 82.583 75.9096C82.4459 76.1374 82.2944 76.356 82.1293 76.5644C81.5205 77.3256 80.8492 78.0346 80.1225 78.684C79.6688 79.0932 79.1579 79.5474 78.6061 80.018C78.3282 80.2512 78.0502 80.4967 77.7396 80.7382C77.4217 80.9827 77.084 81.2003 76.7301 81.3888C75.9729 81.8055 75.1381 82.0618 74.2777 82.1417C73.3391 82.2173 72.3993 82.0092 71.5801 81.5443C70.7841 81.0678 70.0705 80.4653 69.467 79.7602C67.9204 78.0432 66.6766 76.0756 65.7885 73.9414C65.4147 73.0393 65.1087 72.1106 64.8729 71.163C64.7871 70.8274 64.734 70.5655 64.7013 70.3855C64.6781 70.2958 64.6644 70.2039 64.6604 70.1113C64.6978 70.1965 64.7253 70.2858 64.7421 70.3773C64.7912 70.5533 64.8566 70.8111 64.9506 71.1425C65.2162 72.0754 65.5425 72.9898 65.9275 73.88C66.4992 75.1995 67.2045 76.4569 68.0324 77.6324C68.5188 78.3279 69.0484 78.9921 69.6182 79.6211C70.2023 80.3052 70.8923 80.891 71.6619 81.356C72.4438 81.8044 73.3428 82.0055 74.2409 81.933C75.0774 81.8616 75.89 81.6178 76.6279 81.2169C76.9738 81.0328 77.3057 80.8235 77.6211 80.5908C77.9195 80.3576 78.2056 80.1121 78.4835 79.8829C79.0394 79.4165 79.5544 78.9827 80.0121 78.5735C80.7425 77.9426 81.4256 77.2588 82.0558 76.5275C82.2724 76.2616 82.4318 76.0488 82.5381 75.9015C82.5881 75.8163 82.647 75.7368 82.7138 75.6641Z" fill="#263238"></path> <path d="M73.9098 122.677L77.0611 118.082C77.0611 118.082 79.2273 110.541 78.933 109.489C78.6387 108.437 77.6823 104.505 77.9071 104.46C78.1319 104.415 80.4903 103.531 81.7696 106.686C82.5666 108.65 82.8282 111.232 82.9099 112.906C82.9204 113.112 82.9753 113.313 83.0708 113.496C83.1663 113.679 83.3001 113.839 83.4631 113.965C83.6262 114.092 83.8145 114.181 84.0153 114.228C84.2161 114.275 84.4247 114.277 84.6266 114.236C86.8051 113.79 90.4305 113.106 91.2929 113.311C92.5436 113.61 93.6635 115.21 93.7698 115.741C93.876 116.273 93.0177 117.485 93.0177 117.485C93.0177 117.485 94.0804 118.029 94.4074 118.851C94.4523 118.962 94.4891 119.072 94.5218 119.179C94.6207 119.509 94.6324 119.86 94.5558 120.196C94.4791 120.532 94.3167 120.843 94.0845 121.098L93.7493 121.462C93.7493 121.462 95.0736 121.826 95.2412 122.587C95.3299 123.145 95.3147 123.713 95.1962 124.265L93.97 125.55C94.3175 125.874 94.5451 126.307 94.6158 126.777C94.6812 127.477 92.8133 129.212 92.8133 129.212L84.7982 132.077L81.6184 132.895L73.9098 122.677Z" fill="#E8B19C"></path> <path d="M93.0423 117.492C93.0423 117.549 91.8161 117.779 90.263 118.094C88.7098 118.409 87.4877 118.683 87.4755 118.626C87.7242 118.497 87.9898 118.405 88.2643 118.351C88.7589 118.212 89.4496 118.04 90.2221 117.885C90.9946 117.729 91.6935 117.611 92.2044 117.545C92.4799 117.489 92.7619 117.471 93.0423 117.492Z" fill="#D68B17"></path> <path d="M93.7739 121.458C93.0924 121.778 92.3821 122.033 91.6526 122.219C90.9431 122.466 90.2125 122.646 89.47 122.759C90.1515 122.439 90.8617 122.184 91.5913 121.998C92.3008 121.752 93.0314 121.571 93.7739 121.458Z" fill="#D68B17"></path> <path d="M94.2521 125.374C93.5348 125.807 92.7812 126.177 92 126.479C91.247 126.845 90.465 127.149 89.6621 127.387C90.3794 126.954 91.133 126.585 91.9142 126.282C92.6663 125.914 93.4485 125.61 94.2521 125.374Z" fill="#D68B17"></path> <path d="M55.4437 151.104L84.9169 131.307L77.4821 117.804L50.5798 131.655L53.633 117.1L35.3711 111.711L30.8179 136.615C30.1109 147.692 38.9925 156.641 49.6929 153.731C51.7398 153.175 53.6822 152.287 55.4437 151.104Z" fill="#E8B19C"></path> <path d="M46.6846 139.486C46.6384 139.371 46.6081 139.25 46.5947 139.126C46.5342 138.782 46.5001 138.433 46.4925 138.083C46.4678 136.918 46.7242 135.763 47.2401 134.718C47.7559 133.673 48.516 132.768 49.4557 132.08C49.7372 131.874 50.0352 131.692 50.3468 131.536C50.4577 131.468 50.5793 131.42 50.7064 131.393C50.7064 131.425 50.2282 131.659 49.5457 132.211C48.653 132.911 47.9272 133.801 47.421 134.817C46.9148 135.832 46.6409 136.948 46.6192 138.083C46.5947 138.942 46.7214 139.478 46.6846 139.486Z" fill="#D68B17"></path> <path d="M122.385 108.028C122.569 107.778 143.377 120.467 143.377 120.467L150.047 150.895L159.648 154.418C159.648 154.418 162.644 120.562 160.363 115.291C158.083 110.021 134.961 91.0626 134.961 91.0626L122.385 108.028Z" fill="#E8B19C"></path> <path d="M147.922 118.135C146.934 119.493 145.477 120.433 143.835 120.774C144.582 120.442 145.31 120.069 146.017 119.657C146.679 119.184 147.315 118.676 147.922 118.135Z" fill="#D68B17"></path> <path d="M97.3584 108.098L98.9892 137.294L132.243 135.043L131.238 113.307L126.394 106.784L97.3584 108.098Z" fill="#263238"></path> <path d="M89.797 137.944C89.8992 138.504 92.7235 164.951 92.7235 164.951L142.236 161.505L150.591 160.405L146.732 135.755L140.818 134.339L89.797 137.944Z" fill="#7994D1"></path> <path d="M140.814 134.339L89.797 137.944C89.8992 138.504 92.7235 164.951 92.7235 164.951L144.251 161.362L140.814 134.339Z" fill="#4C6FBF"></path> <path d="M127.257 135.383L98.9892 137.294L97.3584 108.098L126.394 106.784L127.257 135.383Z" fill="#4C6FBF"></path> <path d="M107.899 107.619L108.496 116.617L110.008 115.754L110.846 116.617L111.889 115.754L113.499 116.617V107.365L107.899 107.619Z" fill="#E0EAEF"></path> <path d="M119.716 135.993L117.782 114.08L136.678 119.293L138.501 134.417L119.716 135.993Z" fill="#7994D1"></path> <path d="M136.678 119.293C136.644 119.349 136.605 119.402 136.559 119.449L136.196 119.882L134.806 121.47C133.58 122.833 131.912 124.715 129.979 126.892L129.905 126.974L129.828 126.892L127.257 124.195L120.525 117.071L118.502 114.898L117.958 114.297C117.891 114.232 117.832 114.159 117.782 114.08C117.86 114.133 117.93 114.197 117.991 114.268L118.563 114.841C119.07 115.361 119.789 116.069 120.631 116.969L127.408 124.048L129.975 126.753H129.824C131.785 124.601 133.482 122.73 134.728 121.384L136.159 119.833L136.567 119.424C136.6 119.377 136.637 119.333 136.678 119.293Z" fill="#263238"></path> <path d="M126.084 123.352C126.137 123.38 124.788 125.967 123.075 129.13C121.363 132.293 119.932 134.834 119.879 134.805C119.826 134.777 121.175 132.19 122.887 129.027C124.6 125.864 126.031 123.323 126.084 123.352Z" fill="#263238"></path> <path d="M138.059 134.417C138.01 134.45 136.698 132.371 135.137 129.74C133.576 127.109 132.341 124.981 132.394 124.952C132.447 124.924 133.751 126.998 135.317 129.63C136.882 132.261 138.112 134.389 138.059 134.417Z" fill="#263238"></path> <path d="M129.86 135.137L128.63 121.183L140.663 124.502L141.824 134.135L129.86 135.137Z" fill="#FFA808"></path> <path d="M129.86 135.137L128.63 121.183L140.663 124.502L141.824 134.135L129.86 135.137Z" fill="#B6C9F2"></path> <path d="M140.663 124.502C140.577 124.64 140.477 124.769 140.365 124.887L139.49 125.906L136.424 129.367L136.351 129.449L136.273 129.367L134.638 127.653C132.958 125.885 131.446 124.277 130.359 123.107C129.84 122.538 129.407 122.071 129.08 121.715C128.917 121.55 128.768 121.372 128.634 121.183C128.817 121.326 128.987 121.485 129.141 121.658L130.469 123.004C131.585 124.146 133.114 125.738 134.794 127.506C135.362 128.103 135.914 128.684 136.429 129.228H136.281L139.4 125.82L140.324 124.838C140.426 124.716 140.54 124.603 140.663 124.502Z" fill="#263238"></path> <path d="M133.915 127.088C133.353 128.348 132.725 129.577 132.035 130.771C131.407 132.005 130.717 133.205 129.967 134.368C130.528 133.108 131.156 131.879 131.847 130.685C132.938 128.672 133.866 127.06 133.915 127.088Z" fill="#263238"></path> <path d="M141.546 134.135C140.851 133.19 140.217 132.202 139.649 131.176C139.017 130.188 138.444 129.163 137.933 128.107C138.626 129.053 139.259 130.041 139.829 131.066C140.461 132.054 141.034 133.079 141.546 134.135Z" fill="#263238"></path> <path d="M137.532 123.913V125.034L139.29 125.239L139.379 124.384L137.532 123.913Z" fill="white"></path> <path d="M131.328 118.221V119.858L134.646 120.406L134.83 119.158L131.328 118.221Z" fill="white"></path> <path d="M118.375 144.156L118.212 135.992L111.598 136.442L112.31 144.729L118.375 144.156Z" fill="#E0EAEF"></path> <path d="M139.923 148.442L128.827 149.496L129.758 159.322L140.854 158.268L139.923 148.442Z" fill="#F6DAA0"></path> <path d="M140.843 158.281C140.83 158.219 140.82 158.156 140.814 158.093C140.814 157.958 140.777 157.782 140.753 157.561C140.704 157.082 140.63 156.411 140.54 155.56C140.365 153.833 140.132 151.394 139.821 148.464L139.919 148.542L128.826 149.614C128.806 149.639 129.01 149.393 128.924 149.5V149.581V149.663V149.831L128.957 150.162L129.018 150.825C129.063 151.263 129.104 151.701 129.145 152.131C129.223 152.994 129.304 153.841 129.382 154.664C129.533 156.3 129.676 157.876 129.811 159.324L129.709 159.238L137.74 158.526L140.013 158.334L140.622 158.289C140.694 158.284 140.766 158.284 140.839 158.289C140.774 158.304 140.709 158.314 140.642 158.318L140.058 158.383L137.81 158.62L129.754 159.439H129.66V159.345C129.517 157.9 129.366 156.337 129.206 154.688C129.129 153.87 129.047 153.019 128.965 152.155C128.924 151.726 128.883 151.288 128.843 150.85C128.822 150.629 128.798 150.408 128.777 150.187L128.749 149.856V149.688V149.606V149.524C128.663 149.626 128.863 149.381 128.847 149.405L139.939 148.37H140.029V148.46C140.291 151.423 140.508 153.882 140.663 155.625C140.732 156.468 140.785 157.135 140.826 157.61C140.843 157.823 140.855 157.994 140.863 158.125C140.86 158.178 140.853 158.23 140.843 158.281Z" fill="#263238"></path> <path d="M139.044 150.81C139.044 150.867 137.111 151.121 134.712 151.374C132.313 151.628 130.367 151.784 130.359 151.726C130.351 151.669 132.292 151.415 134.691 151.162C137.091 150.908 139.04 150.752 139.044 150.81Z" fill="#263238"></path> <path d="M138.967 152.479C138.581 152.615 138.182 152.713 137.777 152.773C137.033 152.92 135.999 153.092 134.847 153.227C133.694 153.362 132.652 153.436 131.896 153.465C131.488 153.506 131.077 153.506 130.67 153.465C131.074 153.387 131.484 153.341 131.896 153.326C132.652 153.26 133.69 153.166 134.834 153.031C135.979 152.896 137.013 152.749 137.761 152.622C138.158 152.541 138.562 152.493 138.967 152.479Z" fill="#263238"></path> <path d="M139.449 156.129C139.062 156.266 138.662 156.365 138.255 156.423C137.512 156.571 136.478 156.743 135.329 156.882C134.18 157.021 133.134 157.086 132.374 157.115C131.966 157.156 131.555 157.156 131.148 157.115C131.552 157.037 131.962 156.991 132.374 156.976C133.126 156.91 134.168 156.816 135.313 156.681C136.457 156.546 137.491 156.399 138.239 156.272C138.638 156.191 139.042 156.143 139.449 156.129Z" fill="#263238"></path> <path d="M138.889 154.267C137.554 154.564 136.205 154.793 134.847 154.954C133.493 155.182 132.129 155.34 130.76 155.429C132.095 155.127 133.446 154.897 134.806 154.741C136.158 154.514 137.521 154.355 138.889 154.267Z" fill="#263238"></path> <path d="M148.686 169.472C148.686 169.472 157.821 163.424 158.524 160.327C159.227 157.229 159.648 154.418 159.648 154.418L149.888 150.371L150.856 153.894C150.856 153.894 147.358 155.977 146.998 158.498C146.761 160.184 142.236 163.06 142.236 163.06C141.857 162.603 141.375 162.242 140.829 162.008C140.283 161.774 139.69 161.673 139.097 161.714L135.296 161.984L137.863 167.77L148.686 169.472Z" fill="#E8B19C"></path> <path d="M152.254 161.182C152.121 161.261 151.976 161.319 151.825 161.354C151.539 161.453 151.114 161.547 150.599 161.71C150.019 161.915 149.482 162.227 149.017 162.631C148.429 163.133 147.771 163.547 147.064 163.859C145.756 164.419 144.302 164.541 142.919 164.206C142.675 164.163 142.441 164.076 142.228 163.949C142.14 163.9 142.069 163.826 142.024 163.736C141.979 163.646 141.962 163.545 141.975 163.445C141.982 163.383 142.004 163.322 142.04 163.27C142.075 163.218 142.123 163.176 142.179 163.147C142.261 163.118 142.306 163.147 142.306 163.147C142.306 163.147 142.261 163.147 142.2 163.192C142.157 163.222 142.122 163.262 142.097 163.308C142.072 163.354 142.058 163.405 142.057 163.458C142.049 163.542 142.068 163.627 142.11 163.7C142.153 163.773 142.217 163.832 142.294 163.867C142.5 163.973 142.722 164.044 142.952 164.075C144.305 164.354 145.712 164.211 146.982 163.666C147.672 163.358 148.316 162.954 148.895 162.467C149.384 162.06 149.948 161.752 150.554 161.559C151.073 161.407 151.502 161.338 151.78 161.268C151.935 161.225 152.094 161.196 152.254 161.182Z" fill="#D68B17"></path> <path d="M145.915 165.876C145.915 165.905 145.445 165.634 144.689 165.315C143.677 164.899 142.61 164.633 141.521 164.526C141.202 164.493 140.888 164.481 140.585 164.476H140.528L140.495 164.431C140.022 163.688 139.45 163.012 138.795 162.422C138.305 161.976 137.978 161.747 137.978 161.723C138.069 161.753 138.154 161.799 138.231 161.858C138.452 161.999 138.665 162.153 138.869 162.32C139.563 162.889 140.166 163.563 140.655 164.317L140.569 164.272C140.88 164.272 141.198 164.272 141.525 164.317C142.635 164.424 143.72 164.716 144.734 165.18C145.039 165.321 145.335 165.481 145.621 165.659C145.829 165.782 145.935 165.864 145.915 165.876Z" fill="#D68B17"></path> <path d="M148.396 164.211C148.396 164.272 147.775 164.501 147.059 164.915C146.344 165.328 145.813 165.733 145.772 165.705C146.08 165.287 146.486 164.951 146.953 164.727C147.386 164.441 147.881 164.264 148.396 164.211Z" fill="#D68B17"></path> <path d="M153.342 153.334C152.885 153.371 152.431 153.431 151.981 153.514C151.245 153.703 150.754 154.075 150.697 154.026C151.033 153.68 151.457 153.432 151.923 153.31C152.389 153.188 152.88 153.197 153.342 153.334Z" fill="#D68B17"></path> <path d="M20.0847 149.84C21.2864 151.272 23.3178 150.58 24.1965 149.562C25.0753 148.543 25.3614 147.155 25.6189 145.834C26.1993 142.814 26.7797 139.651 25.8805 136.709C25.652 135.816 25.1826 135.003 24.5235 134.36C24.1883 134.043 23.7758 133.821 23.3273 133.714C22.8789 133.608 22.4104 133.622 21.969 133.754C20.9472 134.123 20.3872 135.207 20.0071 136.209C18.8815 139.211 18.4361 142.426 18.7032 145.621C18.834 147.106 19.1488 148.653 20.097 149.807" fill="#FFA808"></path> <g opacity="0.2"> <path d="M20.0847 149.84C21.2864 151.272 23.3178 150.58 24.1965 149.562C25.0753 148.543 25.3614 147.155 25.6189 145.834C26.1993 142.814 26.7797 139.651 25.8805 136.709C25.652 135.816 25.1826 135.003 24.5235 134.36C24.1883 134.043 23.7758 133.821 23.3273 133.714C22.8789 133.608 22.4104 133.622 21.969 133.754C20.9472 134.123 20.3872 135.207 20.0071 136.209C18.8815 139.211 18.4361 142.426 18.7032 145.621C18.834 147.106 19.1488 148.653 20.097 149.807" fill="black"></path> </g> <path d="M24.7729 157.213C26.4405 156.154 28.4841 155.855 30.4542 155.986C31.5087 156.064 32.6245 156.28 33.4011 157.001C34.1777 157.721 34.4392 159.083 33.6872 159.832C33.1927 160.234 32.5744 160.451 31.9378 160.446C30.4174 160.565 28.7089 160.446 27.5808 161.469C26.935 162.054 26.5508 162.963 25.7457 163.29C25.3406 163.424 24.903 163.421 24.4995 163.283C24.0959 163.145 23.7485 162.879 23.5099 162.525C23.0446 161.797 22.8777 160.918 23.044 160.07C23.0957 159.493 23.2783 158.936 23.578 158.441C23.8776 157.946 24.2863 157.526 24.7729 157.213Z" fill="#FFA808"></path> <path d="M17.3463 152.291C18.3845 150.809 18.4213 148.78 17.755 147.102C17.0888 145.424 15.785 144.058 14.3381 142.977C12.6255 141.708 10.6817 140.787 8.61593 140.264C7.81527 140.022 6.97194 139.955 6.14315 140.068C5.73003 140.13 5.33817 140.291 5.00136 140.539C4.66455 140.786 4.39291 141.112 4.20987 141.488C3.73984 142.629 4.40198 143.898 5.08863 144.925C6.29942 146.73 7.65107 148.436 9.13093 150.028C10.3203 151.309 11.665 152.561 13.3449 153.035C15.0248 153.51 16.7046 153.289 17.4689 152.082" fill="#FFA808"></path> <path d="M22.0712 172.877C22.1063 172.646 22.1172 172.411 22.1039 172.178C22.1039 171.666 22.1039 171.028 22.1039 170.267C22.1149 169.326 22.1735 168.386 22.2796 167.451C22.4336 166.312 22.6783 165.188 23.0112 164.088C23.3304 162.987 23.8037 161.937 24.4173 160.97C24.9159 160.182 25.585 159.516 26.3751 159.022C26.9098 158.694 27.4935 158.453 28.104 158.31C28.3366 158.279 28.5654 158.225 28.7865 158.146C28.551 158.138 28.3152 158.156 28.0835 158.199C27.4441 158.304 26.829 158.524 26.2688 158.85C25.4358 159.336 24.7265 160.008 24.1966 160.814C23.555 161.796 23.0619 162.867 22.7333 163.994C22.402 165.112 22.1668 166.256 22.0303 167.414C21.9342 168.366 21.8946 169.323 21.9118 170.279C21.9118 171.097 21.9608 171.74 21.9894 172.194C21.9901 172.424 22.0175 172.653 22.0712 172.877Z" fill="#263238"></path> <path d="M22.0712 171.408C22.082 171.301 22.082 171.192 22.0712 171.085C22.0507 170.844 22.0221 170.541 21.9894 170.164C21.9159 169.346 21.8137 168.212 21.7278 166.78C21.5439 163.916 21.4376 159.955 21.5235 155.576C21.6093 151.198 21.8995 147.245 22.2265 144.397C22.3041 143.685 22.3818 143.043 22.4635 142.478C22.5453 141.913 22.5984 141.426 22.6679 141.029C22.7374 140.633 22.766 140.354 22.8028 140.117C22.8242 140.011 22.8338 139.902 22.8314 139.794C22.7878 139.893 22.7589 139.997 22.7456 140.105C22.6965 140.342 22.6352 140.645 22.5576 141.013C22.4799 141.381 22.3941 141.889 22.3041 142.453C22.2142 143.018 22.112 143.661 22.0262 144.373C21.5633 148.089 21.2999 151.828 21.2374 155.572C21.1475 159.955 21.2864 163.928 21.5235 166.792C21.6338 168.225 21.7687 169.383 21.875 170.181C21.9322 170.549 21.9772 170.852 22.014 171.093C22.0189 171.2 22.0382 171.306 22.0712 171.408Z" fill="#263238"></path> <path d="M21.405 163.785C21.4009 163.462 21.3694 163.141 21.3109 162.823C21.221 162.21 21.0575 161.322 20.7878 160.241C20.4608 158.981 20.0651 157.739 19.6025 156.522C19.043 155.027 18.3793 153.573 17.6161 152.172C16.2752 149.587 14.4745 147.268 12.3026 145.33C11.9264 144.998 11.5291 144.69 11.1132 144.409C10.9334 144.283 10.774 144.152 10.6105 144.053L10.1609 143.8C9.88953 143.627 9.60372 143.478 9.30668 143.354C9.26581 143.419 10.5329 144.013 12.1678 145.482C14.2728 147.445 16.027 149.755 17.3545 152.311C18.1117 153.701 18.7766 155.139 19.345 156.616C19.8845 157.974 20.2769 159.235 20.5712 160.299C20.8654 161.362 21.0575 162.238 21.1802 162.844C21.2317 163.163 21.3068 163.477 21.405 163.785Z" fill="#263238"></path> </g> <defs> <clipPath id="clip0_508_2079"> <rect width="181" height="173" fill="white"></rect> </clipPath> </defs> </svg> 