<?xml version="1.0" encoding="UTF-8"?> <svg xmlns="http://www.w3.org/2000/svg" width="190" height="171" viewBox="0 0 190 171" fill="none"> <g clip-path="url(#clip0_508_3369)"> <path d="M108.577 8.52916H63.1206V101.684H108.577V8.52916Z" fill="#F6DAA0"></path> <path d="M85.8534 8.52916C85.8534 8.52916 76.5293 50.7861 63.1206 53.6725C63.1206 53.6725 68.5398 83.3163 69.0296 101.684H63.1206V8.52916H85.8534Z" fill="#F6DAA0"></path> <path d="M86.0062 8.52916C86.0062 8.52916 95.3258 50.7861 108.743 53.6725C108.743 53.6725 103.324 83.3163 102.835 101.684H108.743V8.52916H86.0062Z" fill="#F6DAA0"></path> <path d="M86.6802 8.34872H85.0221V101.684H86.6802V8.34872Z" fill="#FAFAFA"></path> <path d="M74.0444 8.34872H73.6355V101.684H74.0444V8.34872Z" fill="#FAFAFA"></path> <path d="M98.5836 8.34872H98.1747V101.684H98.5836V8.34872Z" fill="#FAFAFA"></path> <path d="M108.582 31.495V31.8687L63.1206 32.0534V31.6796L108.582 31.495Z" fill="#FAFAFA"></path> <path d="M108.582 77.8407V78.2054L63.1206 78.3901V78.0253L108.582 77.8407Z" fill="#FAFAFA"></path> <path d="M108.577 54.1717H63.1206V55.7253H108.577V54.1717Z" fill="#FAFAFA"></path> <path d="M109.256 102.36H62.4601V7.85338H109.256V102.36ZM63.7947 101.009H107.908V9.2043H63.8081L63.7947 101.009Z" fill="#D9B15E"></path> <path d="M100.255 153.942C98.6269 153.178 96.7972 152.955 95.0337 153.307C94.0856 153.465 93.097 153.758 92.4544 154.46C91.8118 155.163 91.686 156.428 92.4274 157.04C92.9053 157.363 93.4803 157.51 94.0541 157.455C95.4336 157.455 96.9659 157.194 98.0668 158.027C98.6959 158.499 99.1138 159.292 99.8642 159.526C100.24 159.61 100.634 159.57 100.985 159.413C101.337 159.255 101.63 158.989 101.819 158.653C102.18 157.959 102.258 157.152 102.039 156.401C101.951 155.881 101.743 155.389 101.434 154.963C101.125 154.536 100.721 154.187 100.255 153.942Z" fill="#F6DAA0"></path> <path d="M103.89 146.904C102.92 148.296 101.033 147.837 100.161 146.985C99.2891 146.134 98.9117 144.91 98.5791 143.734C97.8062 141.059 97.0334 138.249 97.604 135.521C97.7387 134.688 98.1011 133.908 98.651 133.269C98.9264 132.957 99.2791 132.723 99.6736 132.591C100.068 132.459 100.49 132.433 100.898 132.517C101.85 132.769 102.439 133.701 102.87 134.588C104.128 137.213 104.786 140.085 104.798 142.996C104.798 144.347 104.645 145.77 103.899 146.886" fill="#F6DAA0"></path> <path d="M106.56 148.899C106.061 148.246 105.729 147.481 105.592 146.671C105.455 145.86 105.517 145.028 105.773 144.247C106.304 142.686 107.256 141.302 108.523 140.248C109.966 138.964 111.645 137.975 113.466 137.335C114.169 137.05 114.924 136.921 115.681 136.957C116.06 136.979 116.427 137.094 116.751 137.291C117.075 137.488 117.347 137.761 117.542 138.087C118.059 139.078 117.542 140.275 117.025 141.239C116.079 142.973 114.997 144.63 113.79 146.193C112.819 147.449 111.709 148.683 110.231 149.25C108.752 149.818 107.22 149.75 106.434 148.723" fill="#F6DAA0"></path> <path d="M103.958 167.87C103.905 167.662 103.875 167.449 103.868 167.235C103.823 166.785 103.769 166.199 103.702 165.515C103.616 164.665 103.487 163.821 103.315 162.984C103.096 161.968 102.795 160.971 102.417 160.003C102.039 159.036 101.528 158.126 100.898 157.301C100.383 156.632 99.7263 156.086 98.9745 155.703C98.4661 155.448 97.9198 155.278 97.3569 155.198C97.1445 155.188 96.9338 155.157 96.7278 155.104C96.9399 155.082 97.1537 155.082 97.3659 155.104C97.9515 155.151 98.5239 155.303 99.0554 155.554C99.8455 155.929 100.539 156.48 101.082 157.166C101.74 158.003 102.271 158.931 102.659 159.922C103.046 160.904 103.347 161.918 103.558 162.953C103.722 163.799 103.834 164.655 103.895 165.515C103.949 166.244 103.971 166.839 103.98 167.249C103.994 167.456 103.987 167.664 103.958 167.87Z" fill="#F6DAA0"></path> <path d="M103.841 166.542C103.827 166.445 103.827 166.346 103.841 166.249V165.412C103.841 164.682 103.841 163.633 103.805 162.332C103.742 159.733 103.517 156.144 103.086 152.204C102.655 148.264 102.075 144.711 101.549 142.162C101.428 141.527 101.302 140.951 101.185 140.451C101.069 139.951 100.979 139.51 100.884 139.159C100.79 138.808 100.74 138.56 100.691 138.344C100.661 138.25 100.642 138.154 100.637 138.055C100.684 138.142 100.719 138.234 100.74 138.33L100.983 139.132C101.091 139.483 101.199 139.915 101.325 140.415C101.45 140.915 101.594 141.487 101.729 142.126C102.448 145.443 102.988 148.797 103.347 152.173C103.796 156.126 103.971 159.724 103.989 162.327C103.989 163.633 103.989 164.687 103.944 165.416C103.922 165.754 103.904 166.033 103.89 166.249C103.885 166.348 103.868 166.447 103.841 166.542Z" fill="#F6DAA0"></path> <path d="M103.823 159.603C103.799 159.312 103.799 159.02 103.823 158.729C103.872 157.934 103.962 157.142 104.093 156.356C104.524 153.762 105.267 151.229 106.303 148.813C107.302 146.371 108.738 144.132 110.541 142.207C110.853 141.877 111.187 141.567 111.538 141.28C111.691 141.149 111.826 141.018 111.961 140.919L112.347 140.649C112.582 140.481 112.828 140.331 113.084 140.199C112.238 140.868 111.433 141.588 110.676 142.356C108.934 144.298 107.538 146.525 106.546 148.939C105.973 150.257 105.488 151.61 105.095 152.992C104.717 154.262 104.466 155.433 104.277 156.415C104.088 157.396 103.994 158.216 103.931 158.765C103.915 159.047 103.879 159.326 103.823 159.603Z" fill="#F6DAA0"></path> <path d="M190 168.213C190 168.276 149.325 168.33 99.1633 168.33C49.002 168.33 8.31305 168.276 8.31305 168.213C8.31305 168.15 48.9795 168.096 99.1633 168.096C149.347 168.096 190 168.145 190 168.213Z" fill="#263238"></path> <path d="M32.5091 166.65L33.2416 162.066L25.0544 160.715L23.8905 167.56L24.3938 167.677C26.6406 168.186 35.8298 169.955 37.425 169.726C39.1955 169.456 32.5091 166.65 32.5091 166.65Z" fill="#FFA808"></path> <path d="M37.6812 169.316C37.6812 169.392 34.5941 168.965 30.8106 168.357C27.027 167.749 23.9759 167.195 23.9849 167.118C23.9939 167.042 27.072 167.47 30.8555 168.078C34.6391 168.685 37.6947 169.244 37.6812 169.316Z" fill="#263238"></path> <path d="M32.5047 167.61C32.4417 167.56 32.5406 167.331 32.7563 167.119C32.972 166.907 33.2056 166.813 33.2461 166.876C33.2865 166.939 33.1472 167.123 32.954 167.326C32.7608 167.529 32.5676 167.655 32.5047 167.61Z" fill="#263238"></path> <path d="M32.981 167.997C32.9136 167.956 32.981 167.69 33.2011 167.429C33.4213 167.168 33.6505 167.033 33.6999 167.087C33.7494 167.141 33.6101 167.366 33.4213 167.605C33.2326 167.843 33.0484 168.033 32.981 167.997Z" fill="#263238"></path> <path d="M26.4608 167.488C26.4249 167.488 26.3215 167.366 26.1778 167.136C26.002 166.839 25.7989 166.558 25.5711 166.299C25.348 166.053 25.0645 165.87 24.7488 165.768C24.5062 165.695 24.3354 165.709 24.3264 165.664C24.3174 165.619 24.4882 165.542 24.7758 165.574C25.1594 165.627 25.5115 165.815 25.7688 166.105C26.0181 166.38 26.2133 166.699 26.344 167.046C26.4564 167.303 26.4968 167.47 26.4608 167.488Z" fill="#263238"></path> <path d="M32.6664 166.749C32.6978 166.822 32.5316 166.961 32.2844 167.006C32.0373 167.051 31.8351 167.006 31.8351 166.916C31.8351 166.826 32.0148 166.772 32.235 166.731C32.4552 166.691 32.6394 166.677 32.6664 166.749Z" fill="#263238"></path> <path d="M32.608 166.285C32.608 166.366 32.3743 166.398 32.1002 166.357C31.8261 166.317 31.6104 166.217 31.6509 166.141C31.6913 166.064 31.898 166.037 32.1631 166.073C32.4283 166.109 32.6125 166.208 32.608 166.285Z" fill="#263238"></path> <path d="M61.4879 165.659L61.3172 161.021L53.0176 161.273L53.2063 168.213H53.7231C56.0148 168.276 65.4063 168.213 66.8981 167.686C68.5922 167.109 61.4879 165.659 61.4879 165.659Z" fill="#FFA808"></path> <path d="M67.0779 167.271C67.0779 167.348 63.9819 167.528 60.1534 167.667C56.3249 167.807 53.2198 167.861 53.2198 167.785C53.2198 167.708 56.3159 167.528 60.1444 167.388C63.9729 167.249 67.0779 167.195 67.0779 167.271Z" fill="#263238"></path> <path d="M61.6677 166.614C61.6003 166.582 61.6677 166.335 61.8205 166.087C61.9733 165.839 62.1979 165.7 62.2698 165.754C62.3417 165.808 62.2204 166.015 62.0631 166.245C61.9059 166.474 61.7396 166.636 61.6677 166.614Z" fill="#263238"></path> <path d="M62.2114 166.889C62.135 166.862 62.162 166.587 62.3147 166.29C62.4675 165.993 62.6787 165.813 62.7641 165.84C62.8495 165.867 62.7281 166.128 62.5888 166.402C62.4495 166.677 62.2833 166.916 62.2114 166.889Z" fill="#263238"></path> <path d="M55.7183 167.659C55.6868 167.686 55.5565 167.569 55.3678 167.371C55.142 167.112 54.8906 166.877 54.6173 166.669C54.3533 166.474 54.044 166.35 53.7186 166.308C53.4625 166.281 53.3007 166.308 53.2693 166.286C53.2378 166.263 53.4041 166.137 53.7186 166.106C54.1053 166.086 54.4868 166.202 54.7971 166.434C55.0934 166.656 55.3463 166.931 55.543 167.245C55.6778 167.479 55.7677 167.637 55.7183 167.659Z" fill="#263238"></path> <path d="M61.6631 165.714C61.7036 165.781 61.5688 165.948 61.3351 166.043C61.1014 166.137 60.8857 166.115 60.8857 166.043C60.8857 165.971 61.0385 165.871 61.2407 165.786C61.4429 165.7 61.6092 165.664 61.6631 165.714Z" fill="#263238"></path> <path d="M61.5149 165.286C61.5149 165.363 61.3082 165.439 61.0251 165.453C60.742 165.466 60.5218 165.412 60.5263 165.336C60.5308 165.259 60.7465 165.183 61.0116 165.169C61.2767 165.156 61.5059 165.21 61.5149 165.286Z" fill="#263238"></path> <path d="M72.7397 50.1959L72.2904 48.6829C72.127 47.8101 71.8802 46.9551 71.5534 46.1296C71.3992 45.7138 71.1759 45.327 70.8929 44.9858C70.5582 44.5482 70.1651 44.1588 69.7246 43.8286C69.2752 43.5629 69.3875 42.9279 69.8414 42.8784C70.2952 42.8289 71.495 43.5359 72.3937 44.8823C73.2924 46.2287 73.5081 43.68 73.5845 42.7793C73.6609 41.8787 74.0339 39.0148 74.3484 38.8211C74.7978 38.5419 75.1842 38.9742 75.0808 39.8929C74.9775 40.8115 74.8741 43.5944 75.3594 43.6259C75.8447 43.6574 76.1773 38.9517 76.1773 38.9517C76.1773 38.9517 76.0919 37.9295 76.6536 37.9475C77.6691 37.9791 76.9412 42.9415 76.8603 43.4143C76.8019 43.743 77.3321 43.7925 77.3725 43.4143C77.413 43.036 77.6062 38.7266 78.6397 38.7491C79.4306 38.7491 78.078 42.8379 78.5364 43.7745C78.9947 44.7112 79.2463 40.5683 80.0058 40.6224C80.2888 40.6224 80.4956 40.6899 80.0058 43.036C79.516 45.3821 77.0939 51.6999 77.0939 51.6999L72.6813 50.1194" fill="#FFBE9D"></path> <path d="M42.3859 48.9531L49.8497 49.5069C49.953 48.6424 50.0968 45.2786 50.0968 45.2786C50.0968 45.2786 53.2153 44.9859 53.4445 41.8922C53.6737 38.7986 53.5748 31.6612 53.5748 31.6612C51.8655 30.7965 49.9567 30.4049 48.0458 30.5268C46.1349 30.6487 44.2911 31.2797 42.705 32.3547L42.2242 32.6789L42.3859 48.9531Z" fill="#FFBE9D"></path> <path d="M52.5369 36.9249C52.4737 36.8621 52.4307 36.7818 52.4131 36.6944C52.3956 36.607 52.4043 36.5163 52.4382 36.4339C52.4722 36.3514 52.5298 36.2809 52.6037 36.2314C52.6777 36.1818 52.7647 36.1553 52.8537 36.1553C52.9426 36.1553 53.0296 36.1818 53.1036 36.2314C53.1775 36.2809 53.2351 36.3514 53.2691 36.4339C53.303 36.5163 53.3117 36.607 53.2942 36.6944C53.2766 36.7818 53.2336 36.8621 53.1704 36.9249C53.0863 37.0088 52.9724 37.0559 52.8537 37.0559C52.7349 37.0559 52.621 37.0088 52.5369 36.9249Z" fill="#263238"></path> <path d="M53.3277 36.2769C53.2783 36.3264 52.9862 36.0743 52.5638 36.0472C52.1414 36.0202 51.8134 36.2184 51.7729 36.1598C51.7325 36.1013 51.8044 36.0427 51.9437 35.9482C52.1331 35.8266 52.3566 35.7697 52.581 35.7859C52.8053 35.8022 53.0184 35.8907 53.1884 36.0382C53.3142 36.1508 53.3546 36.2544 53.3277 36.2769Z" fill="#263238"></path> <path d="M48.4073 36.3444C48.5041 36.4133 48.5699 36.5178 48.5901 36.6351C48.6103 36.7524 48.5833 36.8729 48.5151 36.9704C48.4879 37.0296 48.4482 37.0821 48.3987 37.1244C48.3493 37.1667 48.2912 37.1978 48.2286 37.2154C48.166 37.2331 48.1003 37.2369 48.0361 37.2266C47.9719 37.2163 47.9107 37.1922 47.8567 37.1559C47.8027 37.1196 47.7572 37.072 47.7233 37.0164C47.6895 36.9607 47.6681 36.8984 47.6606 36.8336C47.6531 36.7689 47.6598 36.7033 47.6801 36.6414C47.7004 36.5795 47.7338 36.5227 47.7782 36.475C47.8105 36.4245 47.8525 36.381 47.9018 36.347C47.9511 36.3131 48.0067 36.2893 48.0653 36.2771C48.1239 36.265 48.1843 36.2646 48.2431 36.2762C48.3018 36.2878 48.3576 36.311 48.4073 36.3444Z" fill="#263238"></path> <path d="M48.6858 36.3666C48.6319 36.4161 48.3443 36.1639 47.9219 36.1369C47.4995 36.1099 47.1715 36.308 47.1266 36.2495C47.0817 36.1909 47.1625 36.1324 47.3018 36.0378C47.4916 35.9165 47.7154 35.8596 47.9399 35.8757C48.1635 35.8939 48.3757 35.9822 48.5465 36.1279C48.6724 36.2405 48.7083 36.3441 48.6858 36.3666Z" fill="#263238"></path> <path d="M50.1732 39.987C50.3985 39.9163 50.6337 39.8828 50.8697 39.8879C50.9821 39.8879 51.0719 39.8609 51.0854 39.8023C51.099 39.6894 51.0787 39.5749 51.027 39.4736C50.9371 39.1854 50.8428 38.8927 50.7439 38.573C50.4749 37.8201 50.2763 37.0437 50.1508 36.2539C50.4995 36.9744 50.7735 37.7289 50.9686 38.5054L51.2337 39.4061C51.292 39.5489 51.3031 39.7068 51.2652 39.8564C51.2469 39.8973 51.2196 39.9335 51.1853 39.9624C51.1511 39.9912 51.1108 40.012 51.0674 40.023C51.0035 40.0337 50.9382 40.0337 50.8742 40.023C50.6402 40.0492 50.4034 40.0371 50.1732 39.987Z" fill="#263238"></path> <path d="M48.7623 40.3751C48.3354 40.0824 49.9441 41.1001 50.8113 41.1091C50.6539 41.3246 50.4279 41.4799 50.1706 41.5495C49.9133 41.619 49.6401 41.5987 49.3959 41.4919C48.4927 41.0956 48.7623 40.3751 48.7623 40.3751Z" fill="white"></path> <path d="M50.1058 45.2338C48.6774 45.1713 47.2997 44.6855 46.147 43.8379C46.147 43.8379 46.9648 46.121 50.0608 46.0354L50.1058 45.2338Z" fill="#EB996E"></path> <path d="M42.2871 35.836L42.66 38.0515H44.0395L43.9497 33.4269C43.9497 33.4269 49.4048 33.8457 50.0294 31.6617C50.0294 31.6617 51.6291 34.0798 53.6243 34.0663C53.6243 34.0663 55.3722 33.8907 53.7096 31.4545C51.1483 27.708 42.0264 30.7205 42.0264 30.7205C41.7993 31.4056 41.6884 32.1241 41.6984 32.846C41.667 35.2011 42.2871 35.836 42.2871 35.836Z" fill="#263238"></path> <path d="M41.5411 33.5795L53.7006 31.1659C53.7006 31.1659 52.8334 26.2936 46.2773 27.712C39.892 29.0855 41.5411 33.5795 41.5411 33.5795Z" fill="#FFA808"></path> <path d="M41.5411 33.5792C41.7119 33.5477 56.3968 33.8945 57.4437 31.8591C57.947 30.8864 53.6018 30.8594 53.6018 30.8594L53.7006 31.1656L41.5411 33.5792Z" fill="#FFA808"></path> <path opacity="0.2" d="M41.5411 33.5792C41.7119 33.5477 56.3968 33.8945 57.4437 31.8591C57.947 30.8864 53.6018 30.8594 53.6018 30.8594L53.7006 31.1656L41.5411 33.5792Z" fill="black"></path> <path d="M42.8173 35.4209C42.7544 35.4209 40.5256 35.1057 40.7368 37.74C40.948 40.3743 43.5317 39.2891 43.5317 39.2125C43.5317 39.136 42.8173 35.4209 42.8173 35.4209Z" fill="#FFBE9D"></path> <path d="M42.651 38.3528C42.651 38.3528 42.6061 38.3888 42.5342 38.4339C42.429 38.4892 42.3062 38.5005 42.1927 38.4654C42.0135 38.3719 41.8627 38.2319 41.756 38.06C41.6493 37.8881 41.5906 37.6906 41.5861 37.4882C41.5623 37.2631 41.5884 37.0356 41.6624 36.8218C41.6805 36.738 41.7186 36.6598 41.7734 36.5939C41.8281 36.5281 41.898 36.4765 41.977 36.4435C42.0288 36.4245 42.0856 36.4245 42.1374 36.4434C42.1892 36.4624 42.2327 36.4991 42.2601 36.5471C42.3005 36.6191 42.287 36.6732 42.3005 36.6777C42.314 36.6822 42.3545 36.6281 42.323 36.5201C42.304 36.4553 42.2626 36.3994 42.2062 36.3625C42.1299 36.3146 42.038 36.2985 41.95 36.3174C41.8426 36.347 41.7447 36.4041 41.6659 36.483C41.5871 36.562 41.5302 36.6601 41.5007 36.7677C41.4013 37.0019 41.3626 37.2575 41.3883 37.5107C41.3936 37.7455 41.4681 37.9733 41.6025 38.1657C41.7368 38.358 41.925 38.5062 42.1433 38.5915C42.2153 38.6098 42.2908 38.61 42.363 38.5919C42.4351 38.5738 42.5017 38.5381 42.5567 38.4879C42.651 38.4204 42.66 38.3573 42.651 38.3528Z" fill="#EB996E"></path> <path d="M49.9813 29.83L48.4942 29.8586L48.5228 31.3488L50.0098 31.3202L49.9813 29.83Z" fill="#263238"></path> <path d="M49.9612 29.0118L49.2154 29.0263L49.2298 29.7737L49.9756 29.7592L49.9612 29.0118Z" fill="#263238"></path> <path d="M72.1915 48.2596C72.1915 48.2596 69.8998 62.9036 68.2776 62.9802C66.4308 63.0702 60.751 54.9962 60.751 54.9962C57.1202 49.3764 52.3211 48.4667 50.5731 48.3271V47.6337L41.9815 46.9267C41.9815 46.9267 41.9815 47.6697 41.9815 48.3136H38.18C38.18 48.3136 31.3633 48.0029 30.3432 57.1757L35.2412 61.0573L37.2498 68.546C37.8609 70.829 36.9263 73.747 35.9017 78.876L35.2861 78.7319L35.0255 83.897C34.9941 84.1401 34.9581 84.3833 34.9222 84.6355H34.9896L32.9136 125.879L22.3043 165.831L34.2526 166.281L45.2708 127.307C45.2708 127.307 46.2234 96.1454 47.194 96.1273C48.8296 96.0958 49.8901 165.443 50.4922 165.29C51.0944 165.137 63.4067 165.263 63.4067 165.263C63.4067 165.263 59.34 84.4689 59.3625 84.4644L58.3065 69.1539L57.9066 64.7319C60.2387 68.0191 64.6469 73.1526 69.3561 73.0626C77.0266 72.923 78.1005 49.0837 78.1005 49.0837L72.1915 48.2596Z" fill="#4968B2"></path> <path d="M46.7536 95.8121C47.0254 95.3812 47.2628 94.9295 47.4636 94.4612C47.8713 93.3144 48.0677 92.1029 48.0433 90.8858C48.0433 89.4853 48.0433 88.2199 48.0433 87.2112C48.023 86.7016 48.0425 86.1912 48.1017 85.6847C48.1767 86.19 48.2128 86.7004 48.2095 87.2112C48.2365 88.1524 48.2994 89.4628 48.2859 90.8948C48.2759 91.5754 48.2143 92.2543 48.1017 92.9256C48.0069 93.4761 47.8454 94.013 47.6209 94.5242C47.4694 94.8693 47.2762 95.1945 47.0457 95.4924C46.866 95.7176 46.7806 95.8211 46.7536 95.8121Z" fill="#263238"></path> <path d="M39.7078 89.2695C39.7456 89.4075 39.7653 89.5498 39.7662 89.6928C39.7932 89.963 39.8202 90.3593 39.8291 90.8546C39.9014 92.1515 39.6431 93.4454 39.0787 94.6147C38.7485 95.2587 38.2578 95.8063 37.6543 96.2043C37.1534 96.5215 36.579 96.703 35.9872 96.7311C35.5923 96.7521 35.1978 96.6844 34.8323 96.533C34.6941 96.4867 34.5682 96.4098 34.4639 96.3078C34.9589 96.5225 35.4997 96.609 36.0368 96.5595C36.5739 96.5099 37.0899 96.3258 37.5374 96.0242C38.1071 95.6382 38.5707 95.1148 38.8855 94.5021C39.4286 93.3629 39.6994 92.1125 39.6764 90.8501C39.6551 90.3231 39.6656 89.7953 39.7078 89.2695Z" fill="#263238"></path> <path d="M60.2207 96.4383C60.2207 96.4383 60.1443 96.5734 59.9241 96.722C59.6013 96.9188 59.2277 97.0159 58.8502 97.0012C58.2884 96.9777 57.7487 96.7759 57.3089 96.4248C56.7796 96.0087 56.3239 95.5063 55.9608 94.9388C55.2828 93.9225 54.8575 92.7582 54.7206 91.5435C54.6788 91.1788 54.6682 90.8112 54.6892 90.4447C54.6906 90.3091 54.7103 90.1743 54.7476 90.0439C54.788 90.0439 54.7476 90.6203 54.8824 91.521C55.064 92.696 55.4978 93.8175 56.154 94.8082C56.5037 95.3563 56.9391 95.8444 57.4437 96.2537C57.8462 96.5889 58.342 96.7917 58.8636 96.8346C59.2148 96.8631 59.5672 96.7962 59.8837 96.641C60.1039 96.5239 60.2072 96.4248 60.2207 96.4383Z" fill="#263238"></path> <path d="M34.7964 163.624C34.7964 163.692 32.1497 163.647 28.8829 163.53C25.6161 163.413 22.9739 163.26 22.9784 163.197C22.9829 163.134 25.6296 163.174 28.8919 163.291C32.1542 163.408 34.8009 163.561 34.7964 163.624Z" fill="#263238"></path> <path d="M62.9573 161.823C62.7962 161.867 62.63 161.89 62.463 161.891L61.1149 161.99C59.9646 162.066 58.3739 162.152 56.6214 162.233C54.8689 162.314 53.2737 162.372 52.1278 162.404L50.7798 162.431C50.6142 162.452 50.4466 162.452 50.281 162.431C50.4419 162.386 50.6082 162.363 50.7753 162.363L52.1234 162.264C53.2737 162.188 54.8644 162.102 56.6169 162.021C58.3694 161.94 59.9601 161.882 61.1104 161.85L62.4585 161.823C62.6241 161.802 62.7916 161.802 62.9573 161.823Z" fill="#263238"></path> <path d="M40.939 96.7627C40.9428 96.8227 40.9428 96.8828 40.939 96.9428C40.939 97.0689 40.939 97.24 40.939 97.4607C40.939 97.911 40.939 98.5954 40.903 99.4465C40.8671 101.176 40.7862 103.675 40.6604 106.764C40.5346 109.853 40.3638 113.519 40.1212 117.603C39.9998 119.643 39.865 121.782 39.6718 123.997C39.573 125.105 39.4876 126.249 39.2944 127.375C39.1011 128.5 38.845 129.649 38.6158 130.801C36.5668 140.015 34.2616 148.237 32.4642 154.15C31.5655 157.108 30.7567 159.473 30.1905 161.103C29.8939 161.904 29.6647 162.535 29.503 162.971L29.3187 163.453C29.2989 163.509 29.2748 163.563 29.2468 163.615C29.2584 163.557 29.2749 163.5 29.2963 163.444L29.458 162.953L30.1051 161.076C30.6443 159.437 31.4531 157.063 32.3069 154.1C34.0639 148.183 36.3511 139.952 38.3867 130.752C38.6293 129.604 38.8765 128.464 39.0652 127.334C39.2539 126.204 39.3438 125.083 39.4426 123.979C39.6269 121.764 39.7662 119.625 39.892 117.589C40.1481 113.537 40.3414 109.84 40.4807 106.755C40.62 103.67 40.7233 101.185 40.7997 99.4465C40.8312 98.5909 40.8581 97.9245 40.8806 97.4562C40.8806 97.24 40.8806 97.0689 40.8806 96.9383C40.8953 96.8783 40.9148 96.8196 40.939 96.7627Z" fill="#263238"></path> <path d="M57.4078 162.111C57.4029 162.057 57.4029 162.003 57.4078 161.949C57.4078 161.832 57.3853 161.674 57.3674 161.472C57.3404 161.021 57.2955 160.422 57.246 159.634C57.1517 158.027 57.0124 155.721 56.8461 152.88C56.5271 147.17 56.1271 139.285 55.7587 130.571C55.3902 121.858 55.1161 113.964 54.9409 108.254C54.8645 105.408 54.8016 103.098 54.7566 101.5C54.7566 100.711 54.7297 100.095 54.7207 99.6623C54.7207 99.4596 54.7207 99.302 54.7207 99.1804C54.7138 99.1266 54.7138 99.0721 54.7207 99.0183C54.7236 99.0723 54.7236 99.1264 54.7207 99.1804C54.7207 99.302 54.7207 99.4596 54.7476 99.6577C54.7701 100.108 54.7971 100.711 54.8285 101.5C54.8914 103.107 54.9813 105.417 55.0891 108.254C55.3183 113.978 55.6284 121.862 55.9878 130.571C56.3473 139.28 56.7293 147.17 57.0079 152.88C57.1427 155.721 57.255 158.027 57.3314 159.634C57.3674 160.422 57.3898 161.039 57.4123 161.472C57.4123 161.674 57.4123 161.832 57.4123 161.953C57.4154 162.006 57.4139 162.059 57.4078 162.111Z" fill="#263238"></path> <path d="M47.5444 47.3818C47.5767 47.785 47.5767 48.19 47.5444 48.5932C47.5341 49.6039 47.4363 50.6119 47.2524 51.6057L47.2209 51.7543L47.0861 51.6823C46.7985 51.5337 46.5064 51.3761 46.2099 51.2004C44.9607 50.4709 43.9002 49.7099 43.1183 49.1876C42.6837 48.9213 42.2651 48.6296 41.8646 48.314C42.337 48.5135 42.7886 48.7594 43.2127 49.048C44.0215 49.5343 45.0955 50.2728 46.3312 50.9978C46.6233 51.1689 46.9154 51.3265 47.1984 51.4796L47.0322 51.5562C47.2191 50.5746 47.3422 49.5818 47.4007 48.5842C47.4106 48.1797 47.4588 47.7772 47.5444 47.3818Z" fill="#263238"></path> <path d="M50.6001 48.3857C50.5441 48.7648 50.4615 49.1395 50.353 49.507C50.2721 49.8492 50.1822 50.2635 50.0339 50.7183C49.9551 50.9548 49.862 51.1864 49.7553 51.4118C49.7229 51.4915 49.6683 51.5603 49.5981 51.6099C49.5481 51.6416 49.4888 51.6553 49.43 51.6487C49.3712 51.6422 49.3164 51.6158 49.2745 51.5739C49.1905 51.451 49.1225 51.3178 49.0723 51.1776C48.6544 50.1779 48.2904 49.2683 48.0343 48.6063C47.878 48.2553 47.7547 47.8905 47.6658 47.5166C47.8759 47.8391 48.0506 48.1833 48.1871 48.5433C48.4792 49.1917 48.8701 50.0878 49.288 51.0875C49.3283 51.1989 49.3795 51.306 49.4408 51.4073C49.4408 51.4073 49.4408 51.4073 49.4722 51.4073C49.5064 51.3801 49.5327 51.3443 49.5486 51.3037C49.6559 51.0879 49.749 50.8652 49.8272 50.6372C49.9845 50.1869 50.0878 49.7951 50.1912 49.4529C50.2787 49.0803 50.4162 48.7212 50.6001 48.3857Z" fill="#263238"></path> <path d="M48.9824 79.1503C48.9637 79.0446 48.9517 78.9378 48.9465 78.8305C48.9465 78.5964 48.9105 78.2902 48.888 77.9074C48.8431 77.0743 48.7847 75.9215 48.7083 74.5031C48.578 71.6076 48.4027 67.6494 48.2095 63.2769C48.0163 58.9044 47.886 54.9462 47.7602 52.0462C47.7197 50.6277 47.6838 49.475 47.6568 48.6419C47.6568 48.2591 47.6568 47.9529 47.6568 47.7142C47.6442 47.6081 47.6442 47.5007 47.6568 47.3945C47.6789 47.4997 47.6909 47.6068 47.6928 47.7142C47.6928 47.9484 47.7287 48.2546 47.7557 48.6374C47.7961 49.4705 47.859 50.6232 47.9309 52.0417C48.0612 54.9372 48.2365 58.8954 48.4342 63.2679C48.6319 67.6404 48.7532 71.5986 48.8835 74.4986C48.924 75.917 48.9599 77.0698 48.9869 77.9029C48.9869 78.2857 48.9869 78.5919 48.9869 78.8305C48.9972 78.9369 48.9957 79.0442 48.9824 79.1503Z" fill="#263238"></path> <path d="M54.4598 56.7079L50.3311 56.7881L50.3476 57.6435L54.4764 57.5633L54.4598 56.7079Z" fill="white"></path> <path d="M58.3829 70.6981C58.3199 70.6981 58.0593 67.573 57.7987 63.7093C57.5381 59.8457 57.3853 56.7115 57.4482 56.707C57.5111 56.7025 57.7762 59.8277 58.0324 63.6958C58.2885 67.564 58.4637 70.6981 58.3829 70.6981Z" fill="#263238"></path> <path d="M77.9792 52.0696C76.9342 51.9489 75.8994 51.7517 74.8832 51.4797C73.8491 51.281 72.8309 51.0071 71.8365 50.6602C72.8819 50.7782 73.9169 50.9754 74.9326 51.2501C75.9672 51.4462 76.9856 51.7202 77.9792 52.0696Z" fill="#263238"></path> <path d="M73.0857 49.2998C73.1686 49.2973 73.2504 49.3194 73.3209 49.3631C73.3913 49.4069 73.4474 49.4705 73.4821 49.546C73.5167 49.6215 73.5284 49.7055 73.5157 49.7877C73.5031 49.8698 73.4665 49.9463 73.4107 50.0078C73.3549 50.0693 73.2823 50.1129 73.2019 50.1333C73.1215 50.1537 73.0369 50.1499 72.9587 50.1224C72.8804 50.0949 72.8119 50.045 72.7618 49.9788C72.7117 49.9126 72.6821 49.833 72.6768 49.7501C72.6732 49.6934 72.6809 49.6366 72.6997 49.5829C72.7184 49.5293 72.7478 49.48 72.7859 49.438C72.8241 49.396 72.8703 49.3621 72.9218 49.3384C72.9733 49.3146 73.029 49.3015 73.0857 49.2998Z" fill="#263238"></path> <path d="M54.4176 54.7996L52.9305 54.8282L52.9591 56.3185L54.4461 56.2899L54.4176 54.7996Z" fill="#FFA808"></path> <path d="M54.3973 53.9806L53.6515 53.9951L53.666 54.7425L54.4118 54.728L54.3973 53.9806Z" fill="#FFA808"></path> <path d="M76.6805 62.4398L76.0739 86.4862L38.4181 86.2926L38.5394 61.9219L76.6805 62.4398Z" fill="#FFA808"></path> <path d="M54.3163 86.3422C54.2533 86.3422 54.3163 80.9745 54.505 74.355C54.6937 67.7354 54.86 62.3723 54.9229 62.3723C54.9858 62.3723 54.9229 67.7399 54.7386 74.364C54.5544 80.988 54.3837 86.3467 54.3163 86.3422Z" fill="#263238"></path> <path d="M38.4181 86.2922C38.46 86.2039 38.5097 86.1195 38.5664 86.04L39.0157 85.333L40.7772 82.7708L46.6188 74.359C48.915 71.0763 50.982 68.0952 52.4604 65.9292C53.1973 64.844 53.8084 63.9614 54.1904 63.349C54.3791 63.0563 54.5319 62.8221 54.6397 62.642C54.6879 62.5554 54.7468 62.4752 54.815 62.4033C54.778 62.4943 54.7328 62.5817 54.6802 62.6645L54.2533 63.3985C53.8713 64.0244 53.3052 64.925 52.5817 66.0193C51.1393 68.2123 49.0947 71.2113 46.7985 74.4941C44.5023 77.7768 42.4578 80.7309 40.939 82.8563C40.184 83.901 39.5639 84.7566 39.1415 85.378L38.6383 86.058C38.5758 86.1457 38.5017 86.2245 38.4181 86.2922Z" fill="#263238"></path> <path d="M53.9433 86.5354C53.8894 86.5714 50.4248 81.1542 46.2009 74.4356C41.977 67.717 38.6024 62.2413 38.6563 62.2053C38.7102 62.1692 42.1792 67.609 46.3986 74.3095C50.6181 81.0101 54.0017 86.5039 53.9433 86.5354Z" fill="#263238"></path> <path d="M58.5785 83.2178L64.6223 83.3995L64.6596 82.1567L58.6158 81.975L58.5785 83.2178Z" fill="#263238"></path> <path d="M58.5492 81.4063C59.5316 81.2881 60.5219 81.2504 61.5104 81.2937C62.4977 81.2533 63.4866 81.2939 64.4672 81.4153C63.4844 81.5282 62.4944 81.5658 61.5059 81.5279C60.5187 81.563 59.5302 81.5223 58.5492 81.4063Z" fill="#263238"></path> <path d="M69.0685 62.2465L68.8303 71.5273L67.5362 70.4826L65.8376 71.4553L66.0713 62.1699L69.0685 62.2465Z" fill="#263238"></path> <path d="M37.7935 59.7968C37.7935 59.7968 35.9646 72.5586 36.8274 73.3061C41.6085 77.3318 48.2544 79.4483 50.6315 80.1147C50.9775 80.0292 51.3864 79.9211 51.8538 79.7725C52.2571 79.6422 52.6354 79.4442 52.9726 79.1871C53.4037 78.8849 53.7908 78.5242 54.123 78.1154C54.1745 78.031 54.2502 77.9641 54.3403 77.9235C54.4303 77.883 54.5305 77.8707 54.6277 77.8882C54.7249 77.9058 54.8145 77.9523 54.8848 78.0218C54.9551 78.0912 55.0028 78.1804 55.0217 78.2775C55.0217 78.7278 54.3387 79.8536 53.0176 80.6821C53.0176 80.6821 56.0642 85.595 57.0348 86.0363C58.0054 86.4776 60.7824 87.734 60.3151 87.9771C59.8477 88.2203 56.4596 87.2296 56.4596 87.2296L49.6025 85.3924C49.6025 85.3924 26.9191 81.8259 28.429 71.4013C29.3546 65.0069 30.3657 59.243 30.7342 57.793L37.7935 59.7968Z" fill="#FFBE9D"></path> <path d="M30.4283 57.1895L28.3142 71.104C27.8242 75.3909 30.8017 78.7952 34.8106 80.7136C40.9056 83.627 49.9549 85.703 49.8802 85.6669C49.8055 85.6309 50.4916 79.4527 50.4916 79.4527C50.4916 79.4527 37.8021 74.1481 37.4241 71.874C37.0461 69.5999 39.0389 60.0669 39.0389 60.0669L30.4283 57.1895Z" fill="#4968B2"></path> <path d="M49.0767 85.6889C49.0718 85.653 49.0718 85.6166 49.0767 85.5808C49.0767 85.4907 49.0767 85.3872 49.0992 85.2566C49.0992 84.9549 49.1531 84.5406 49.1936 84.0182C49.2879 82.924 49.4227 81.3749 49.589 79.4701L49.6339 79.5512L43.4868 76.5521L41.7118 75.6875C41.1142 75.3678 40.5121 75.0211 39.9144 74.6383C39.3109 74.2493 38.7317 73.8237 38.1799 73.3639C37.9013 73.1298 37.6272 72.8821 37.3666 72.6254C37.1428 72.4274 36.9857 72.1646 36.9172 71.8734C36.8892 71.7808 36.8696 71.6859 36.8588 71.5897C36.6566 70.0677 37.0655 68.6312 37.2767 67.2623C37.4879 65.8933 37.7261 64.5604 37.9597 63.2905C38.4091 60.7643 38.8 58.4903 39.1325 56.5719C39.3154 55.7203 39.4192 54.8535 39.4426 53.9827C39.4516 53.3293 39.3166 52.6819 39.0472 52.0869C38.8743 51.7102 38.6301 51.3707 38.3282 51.0872C38.117 50.8981 37.9867 50.8215 37.9957 50.8125C38.127 50.8774 38.2494 50.9591 38.3597 51.0557C38.6824 51.3281 38.9443 51.6657 39.1281 52.0463C39.4199 52.6502 39.5734 53.3117 39.5774 53.9827C39.5663 54.8613 39.4745 55.7371 39.3033 56.599C38.9798 58.5218 38.5978 60.8003 38.1754 63.3311C37.9642 64.5964 37.7261 65.9293 37.5059 67.3073C37.4475 67.6495 37.3846 68.0008 37.3262 68.3475C37.2677 68.6942 37.1958 69.0455 37.1464 69.4012C37.0319 70.113 37.0138 70.837 37.0925 71.5537C37.1035 71.642 37.1216 71.7294 37.1464 71.8149C37.1641 71.8985 37.1944 71.979 37.2363 72.0535C37.3099 72.2079 37.4138 72.3457 37.5418 72.4588C37.8025 72.711 38.0721 72.9542 38.3462 73.1883C38.8892 73.6416 39.4595 74.0612 40.0537 74.4447C40.6379 74.8289 41.2265 75.1772 41.8197 75.4894L43.5901 76.363L49.7058 79.3891H49.7553V79.4476C49.5575 81.3524 49.4003 82.9015 49.3059 83.9912C49.2475 84.5136 49.1981 84.9233 49.1666 85.225C49.1666 85.3556 49.1352 85.4592 49.1262 85.5448C49.1167 85.5949 49.1001 85.6435 49.0767 85.6889Z" fill="#263238"></path> <path d="M47.9444 78.6239C47.9581 78.9423 47.934 79.2613 47.8725 79.574C47.7961 80.1549 47.6748 80.9565 47.5085 81.8256C47.3423 82.6947 47.1625 83.5007 47.0098 84.0771C46.9486 84.3891 46.8474 84.6918 46.7087 84.9777C46.6458 84.9777 46.9558 83.5457 47.2794 81.7895C47.4344 80.7214 47.6565 79.664 47.9444 78.6239Z" fill="#263238"></path> <path d="M49.0768 85.6892C49.0034 85.6886 48.9306 85.6765 48.8611 85.6532L48.259 85.5091L46.0481 84.9327C44.1878 84.4238 41.604 83.7664 38.8315 82.7487C37.5283 82.2731 36.2595 81.7073 35.0345 81.0555C34.0339 80.5181 33.0782 79.9007 32.1766 79.2093C31.5701 78.7439 30.9979 78.2353 30.4646 77.6872C30.2758 77.4936 30.1365 77.336 30.0467 77.2369C29.994 77.1848 29.9487 77.1257 29.9119 77.0613C30.1273 77.2406 30.3328 77.4315 30.5275 77.6332C31.0818 78.1512 31.6654 78.6369 32.2755 79.0877C33.1821 79.7585 34.1373 80.3606 35.1334 80.8889C36.3555 81.5261 37.6179 82.0827 38.9124 82.5551C41.6669 83.5682 44.2462 84.2527 46.1021 84.8066L48.2904 85.455L48.8836 85.6442C48.9497 85.6504 49.0147 85.6655 49.0768 85.6892Z" fill="#263238"></path> <path d="M49.2251 80.1144C49.2269 80.166 49.2184 80.2174 49.2 80.2657C49.1817 80.314 49.1539 80.3581 49.1183 80.3954C49.0827 80.4327 49.0401 80.4626 48.9928 80.4831C48.9455 80.5037 48.8946 80.5146 48.8431 80.5152C48.7646 80.5178 48.687 80.497 48.6204 80.4553C48.5537 80.4137 48.5009 80.353 48.4688 80.2811C48.4367 80.2093 48.4266 80.1295 48.44 80.0518C48.4533 79.9742 48.4894 79.9024 48.5437 79.8454C48.598 79.7885 48.668 79.749 48.7447 79.7321C48.8214 79.7152 48.9015 79.7216 48.9746 79.7504C49.0477 79.7793 49.1106 79.8293 49.1552 79.8941C49.1998 79.959 49.2241 80.0357 49.2251 80.1144Z" fill="#263238"></path> <path d="M177.086 14.7021H127.495V168.208H177.086V14.7021Z" fill="#F6DAA0"></path> <path d="M160.033 15.8779V161.345L183.758 168.213L183.839 15.8779H160.033Z" fill="#4968B2"></path> <path d="M162.958 86.4006C163.007 87.5399 162.571 88.481 161.987 88.5035C161.403 88.5261 160.891 87.6254 160.846 86.4862C160.801 85.3469 161.232 84.4057 161.817 84.3832C162.401 84.3607 162.913 85.2613 162.958 86.4006Z" fill="white"></path> <path d="M161.866 85.5585L166.535 86.189C166.656 86.2039 166.767 86.2615 166.85 86.3514C166.932 86.4414 166.98 86.5578 166.984 86.6798C166.988 86.7571 166.974 86.8343 166.944 86.9057C166.914 86.9771 166.869 87.0408 166.811 87.0922C166.753 87.1437 166.685 87.1814 166.611 87.2028C166.536 87.2242 166.458 87.2285 166.382 87.2157L161.888 86.4546L161.866 85.5585Z" fill="white"></path> <path d="M121.707 9.27148V14.2969V15.8775V168.212H129.49V15.8775H175.194V168.212H183.758V15.8775V14.2969V9.27148H121.707Z" fill="#7994D1"></path> <path d="M129.49 15.8779H125.599V168.208H129.49V15.8779Z" fill="#263238"></path> <path opacity="0.5" d="M129.49 15.8779H125.599V168.208H129.49V15.8779Z" fill="#4968B2"></path> <path d="M183.835 9.27148H179.943V168.208H183.835V9.27148Z" fill="#263238"></path> <path opacity="0.5" d="M183.835 9.27148H179.943V168.208H183.835V9.27148Z" fill="#4968B2"></path> <path d="M158.069 0H145.28V2.85946H158.069V0Z" fill="#455A64"></path> <path d="M153.149 39.7802C153.226 41.1646 153.743 42.4877 154.626 43.5558C155.508 44.6239 156.708 45.3807 158.051 45.7153C159.439 46.053 161.039 45.8954 162.14 46.8275C164.027 48.4306 162.922 51.7809 164.194 53.9109C164.975 55.2303 166.53 55.8787 167.411 57.1351C168.876 59.2245 167.892 62.3812 165.897 63.9347C163.902 65.4883 161.241 65.7855 158.738 65.736C153.234 65.5919 147.599 63.8402 143.618 59.927C141.748 58.0897 135.705 51.0965 138.441 41.0276" fill="#263238"></path> <path d="M133.269 54.5814C133.269 54.5814 123.64 62.9752 123.383 61.953C122.035 56.3962 122.413 49.3083 122.628 46.593C122.781 46.3588 122.952 46.1021 123.159 45.8185C123.399 45.4929 123.69 45.2085 124.021 44.9764C124.423 44.6744 124.863 44.4276 125.329 44.2424C125.778 44.1163 125.846 43.5219 125.459 43.3823C125.073 43.2427 123.842 43.5534 122.7 44.5126C121.559 45.4717 122.022 43.1977 122.175 42.3646C122.327 41.5315 122.687 38.9422 122.471 38.6991C122.152 38.3433 121.698 38.627 121.572 39.4601C121.447 40.2932 120.876 42.7789 120.427 42.6798C119.977 42.5807 120.84 38.3659 120.84 38.3659C120.84 38.3659 121.168 37.4652 120.669 37.3662C119.771 37.1455 119.2 41.6936 119.155 42.1259C119.128 42.4276 118.652 42.3466 118.706 42.0224C118.76 41.6981 119.645 37.8255 118.728 37.5958C118.027 37.4157 118.229 41.3289 117.6 42.0404C116.971 42.7519 117.748 39.0503 117.07 38.8882C116.818 38.8342 116.621 38.8297 116.481 41.0092C116.448 42.769 116.511 44.5294 116.67 46.2823C116.072 52.2714 114.904 70.6214 123.172 69.9865C132.932 69.2435 135.183 61.5342 135.183 61.5342L133.269 54.5814Z" fill="#EDB9A5"></path> <path d="M140.962 51.8533C141.106 51.0832 140.854 47.832 140.854 47.832C140.854 47.832 137.978 47.4673 137.853 44.5268C137.727 41.5862 138.023 34.8046 138.023 34.8046L143.317 32.2559L149.014 36.8535L148.026 51.8082L140.962 51.8533Z" fill="#EDB9A5"></path> <path d="M138.509 39.7577C138.509 39.8303 138.532 39.9011 138.573 39.9611C138.613 40.0212 138.671 40.0678 138.738 40.0952C138.805 40.1226 138.879 40.1295 138.95 40.1151C139.021 40.1007 139.086 40.0656 139.138 40.0143C139.189 39.9629 139.224 39.8975 139.238 39.8263C139.253 39.7551 139.246 39.6812 139.218 39.614C139.191 39.5467 139.144 39.489 139.085 39.448C139.025 39.4071 138.954 39.3848 138.882 39.3839C138.783 39.3839 138.688 39.4233 138.618 39.4934C138.548 39.5635 138.509 39.6586 138.509 39.7577Z" fill="#263238"></path> <path d="M138.163 39.3385C138.207 39.388 138.482 39.1584 138.877 39.1404C139.272 39.1223 139.565 39.3295 139.605 39.2755C139.645 39.2214 139.578 39.1584 139.452 39.0638C139.28 38.9476 139.075 38.8893 138.868 38.8972C138.659 38.9059 138.458 38.9834 138.297 39.1178C138.181 39.2214 138.14 39.316 138.163 39.3385Z" fill="#263238"></path> <path d="M142.75 39.8302C142.75 39.903 142.772 39.9742 142.812 40.0349C142.853 40.0955 142.91 40.1428 142.977 40.1709C143.044 40.199 143.118 40.2065 143.189 40.1926C143.261 40.1788 143.326 40.144 143.378 40.0928C143.43 40.0417 143.465 39.9763 143.48 39.9049C143.495 39.8336 143.488 39.7595 143.461 39.692C143.433 39.6244 143.387 39.5665 143.327 39.5253C143.267 39.4842 143.196 39.4618 143.123 39.4609C143.025 39.4609 142.931 39.4997 142.861 39.5688C142.791 39.6379 142.752 39.7318 142.75 39.8302Z" fill="#263238"></path> <path d="M142.53 39.415C142.575 39.4646 142.849 39.2304 143.245 39.2169C143.64 39.2034 143.932 39.4015 143.973 39.3475C144.013 39.2934 143.946 39.2349 143.82 39.1403C143.649 39.0224 143.443 38.9639 143.236 38.9737C143.026 38.9814 142.825 39.0591 142.665 39.1944C142.548 39.2979 142.508 39.3925 142.53 39.415Z" fill="#263238"></path> <path d="M141.047 42.8108C140.838 42.7507 140.622 42.7189 140.405 42.7162C140.306 42.7162 140.212 42.6892 140.194 42.6172C140.182 42.5057 140.202 42.3933 140.252 42.2929C140.346 42.0273 140.441 41.7481 140.54 41.4599C140.805 40.7504 141.017 40.0219 141.173 39.2804C140.855 39.966 140.589 40.675 140.378 41.4013C140.284 41.694 140.194 41.9732 140.104 42.2434C140.043 42.3757 140.027 42.5245 140.059 42.6667C140.074 42.7036 140.097 42.7365 140.127 42.7631C140.156 42.7896 140.191 42.809 140.23 42.8198C140.286 42.828 140.344 42.828 140.4 42.8198C140.615 42.8502 140.834 42.8472 141.047 42.8108Z" fill="#263238"></path> <path d="M142.342 43.2299C142.746 42.9642 141.232 43.8828 140.427 43.8693C140.564 44.0761 140.768 44.2292 141.005 44.303C141.241 44.3768 141.496 44.3668 141.726 44.2746C141.835 44.2473 141.938 44.1985 142.029 44.131C142.119 44.0635 142.195 43.9787 142.252 43.8815C142.309 43.7842 142.347 43.6766 142.362 43.5647C142.378 43.4528 142.371 43.339 142.342 43.2299Z" fill="white"></path> <path d="M140.854 47.8317C142.219 47.7952 143.543 47.3601 144.665 46.5799C144.665 46.5799 143.766 48.7233 140.904 48.5522L140.854 47.8317Z" fill="#A36957"></path> <path d="M153.149 39.8256C153.122 39.6184 153.095 39.3032 153.063 38.9745C153.018 38.5242 152.964 38.0378 152.906 37.7767C151.432 31.6164 146.233 30.3826 145.195 30.3646C144.085 30.3646 142.148 29.6846 139.264 32.6657C138.441 33.4555 137.869 34.4717 137.621 35.5863C137.373 36.7009 137.46 37.8641 137.871 38.9294L138.356 38.4791L142.557 37.4389C142.247 36.2726 142.76 34.8452 143.047 34.1787L143.074 34.1517C143.829 38.5692 148.538 39.1051 148.538 39.1051L148.089 50.8131C152.722 49.8764 153.086 42.3473 153.077 39.7985L153.149 39.8256Z" fill="#263238"></path> <path d="M154.968 92.3724C154.968 92.3181 154.968 92.2548 154.968 92.2231C154.968 92.1914 154.977 92.3136 154.968 92.3724Z" fill="#EDB9A5"></path> <path d="M154.955 92.5123C154.955 92.458 154.955 92.4128 154.955 92.3721C154.959 92.4445 154.955 92.5123 154.955 92.5123Z" fill="#EDB9A5"></path> <path d="M160.442 163.763C160.442 163.763 149.594 127.117 149.387 125.937C149.203 124.879 154.227 99.171 154.955 92.502L139.704 92.6461C139.704 92.6461 139.704 92.6866 139.704 92.7586L132.334 92.9613L136.019 166.181L144.108 166.393L143.986 142.324C147.985 154.077 153.045 167.352 153.045 167.352L160.442 163.763Z" fill="#EDB9A5"></path> <path d="M139.12 124.285C139.12 124.285 139.097 124.569 139.075 125.082C139.035 125.807 139.047 126.534 139.111 127.257C139.206 128.328 139.388 129.39 139.654 130.432C140.006 131.702 140.436 132.949 140.944 134.165C141.951 136.795 142.845 139.181 143.487 140.919L144.229 142.973C144.332 143.221 144.413 143.477 144.472 143.738C144.346 143.502 144.236 143.256 144.143 143.004L143.33 140.978C142.652 139.262 141.73 136.885 140.728 134.255C140.477 133.597 140.234 132.953 140 132.332C139.78 131.729 139.594 131.114 139.443 130.49C139.187 129.435 139.021 128.359 138.949 127.275C138.899 126.544 138.91 125.811 138.98 125.082C139.007 124.825 139.043 124.632 139.07 124.492C139.074 124.421 139.091 124.351 139.12 124.285Z" fill="#A36957"></path> <path d="M144.013 151.07C144.013 150.849 144.152 142.91 144.152 142.91C144.152 142.91 141.497 135.547 141.429 135.773C141.362 135.998 144.013 151.07 144.013 151.07Z" fill="#A36957"></path> <path d="M153.306 167.226L160.442 163.764L161.268 165.299L158.747 166.727C157.026 167.668 151.171 170.734 149.792 170.986C148.251 171.266 153.306 167.226 153.306 167.226Z" fill="#FFA808"></path> <path d="M149.468 170.78C149.437 170.721 152.043 169.429 155.287 167.893C158.532 166.358 161.192 165.151 161.223 165.191C161.255 165.232 158.653 166.542 155.382 168.078C152.11 169.613 149.5 170.834 149.468 170.78Z" fill="#263238"></path> <path d="M159.408 166.123C159.377 166.123 159.359 165.988 159.377 165.772C159.395 165.483 159.473 165.201 159.606 164.943C159.755 164.665 159.994 164.446 160.284 164.322C160.518 164.227 160.684 164.245 160.684 164.272C160.684 164.299 160.549 164.344 160.37 164.457C160.145 164.605 159.959 164.806 159.83 165.042C159.71 165.283 159.616 165.537 159.552 165.799C159.493 166.002 159.444 166.128 159.408 166.123Z" fill="#263238"></path> <path d="M152.919 167.555C152.919 167.622 153.144 167.708 153.423 167.802C153.701 167.897 153.948 167.96 153.984 167.901C154.02 167.843 153.827 167.681 153.512 167.577C153.198 167.474 152.928 167.514 152.919 167.555Z" fill="#263238"></path> <path d="M152.43 167.965C152.43 168.028 152.623 168.154 152.879 168.24C153.135 168.325 153.4 168.348 153.432 168.289C153.463 168.231 153.256 168.109 152.982 168.019C152.708 167.929 152.448 167.88 152.43 167.965Z" fill="#263238"></path> <path d="M152.03 168.294C152.003 168.357 152.151 168.47 152.353 168.573C152.555 168.677 152.74 168.735 152.803 168.681C152.865 168.627 152.722 168.479 152.501 168.37C152.281 168.262 152.057 168.235 152.03 168.294Z" fill="#263238"></path> <path d="M152.955 167.619C152.991 167.365 152.965 167.107 152.879 166.867C152.804 166.59 152.678 166.33 152.506 166.101C152.395 165.959 152.265 165.833 152.12 165.727C152.036 165.665 151.943 165.615 151.845 165.579C151.784 165.553 151.719 165.54 151.652 165.54C151.586 165.54 151.52 165.553 151.459 165.579C151.406 165.606 151.36 165.644 151.324 165.691C151.288 165.739 151.262 165.793 151.25 165.851C151.237 165.909 151.237 165.969 151.25 166.027C151.262 166.085 151.288 166.14 151.324 166.187C151.421 166.333 151.532 166.469 151.657 166.592C151.859 166.801 152.08 166.991 152.317 167.159C152.528 167.339 152.77 167.476 153.032 167.565C153.054 167.538 152.812 167.353 152.443 167.033C152.232 166.853 152.032 166.659 151.845 166.452C151.74 166.336 151.643 166.212 151.553 166.083C151.472 165.961 151.495 165.822 151.58 165.786C151.666 165.75 151.823 165.786 151.962 165.903C152.091 165.992 152.207 166.098 152.308 166.218C152.475 166.425 152.607 166.658 152.699 166.907C152.76 167.152 152.846 167.391 152.955 167.619Z" fill="#263238"></path> <path d="M152.955 167.479C152.755 167.28 152.514 167.126 152.25 167.029C151.962 166.902 151.66 166.81 151.351 166.754C151.164 166.718 150.975 166.702 150.785 166.704C150.677 166.706 150.57 166.719 150.466 166.745C150.402 166.759 150.342 166.789 150.291 166.83C150.259 166.855 150.234 166.888 150.217 166.925C150.201 166.961 150.194 167.002 150.196 167.042C150.25 167.317 150.457 167.416 150.646 167.519C150.818 167.605 151.003 167.663 151.194 167.691C151.506 167.738 151.823 167.749 152.137 167.722C152.677 167.686 152.973 167.501 152.951 167.474C152.679 167.52 152.404 167.547 152.128 167.555C151.827 167.555 151.527 167.529 151.23 167.479C151.073 167.448 150.921 167.393 150.78 167.317C150.641 167.249 150.488 167.114 150.484 167.029C150.479 166.943 150.646 166.93 150.816 166.939C150.988 166.931 151.159 166.94 151.329 166.966C151.621 167.012 151.908 167.084 152.187 167.182C152.435 167.301 152.692 167.4 152.955 167.479Z" fill="#263238"></path> <path d="M153.445 167.154C153.49 167.222 155.144 166.587 157.071 165.637C158.999 164.687 160.486 163.836 160.437 163.764C160.388 163.692 158.819 164.453 156.896 165.394C154.973 166.335 153.4 167.064 153.445 167.154Z" fill="#263238"></path> <path d="M136.927 166.101L144.085 166.15L143.968 168.231H143.519C141.438 168.231 132.95 168.073 131.589 167.641C130.052 167.159 136.927 166.101 136.927 166.101Z" fill="#FFA808"></path> <path d="M131.418 167.316C131.418 167.258 134.231 167.366 137.709 167.56C141.187 167.753 143.973 167.96 143.968 168.01C143.964 168.06 141.155 167.965 137.677 167.767C134.199 167.569 131.413 167.38 131.418 167.316Z" fill="#263238"></path> <path d="M141.699 167.875C141.672 167.852 141.739 167.735 141.883 167.56C142.077 167.319 142.315 167.117 142.584 166.965C142.88 166.8 143.218 166.726 143.555 166.754C143.82 166.781 143.95 166.88 143.937 166.902C143.923 166.925 143.775 166.902 143.55 166.902C143.259 166.921 142.975 167.004 142.719 167.145C142.47 167.292 142.235 167.463 142.018 167.654C141.843 167.807 141.726 167.893 141.699 167.875Z" fill="#263238"></path> <path d="M136.392 166.2C136.343 166.25 136.496 166.43 136.684 166.65C136.873 166.871 137.048 167.033 137.134 167.002C137.219 166.97 137.134 166.736 136.918 166.506C136.702 166.277 136.437 166.164 136.392 166.2Z" fill="#263238"></path> <path d="M135.727 166.299C135.673 166.344 135.781 166.546 135.97 166.749C136.158 166.952 136.365 167.087 136.419 167.051C136.473 167.015 136.37 166.812 136.176 166.6C135.983 166.389 135.781 166.254 135.727 166.299Z" fill="#263238"></path> <path d="M135.161 166.407C135.103 166.447 135.161 166.614 135.278 166.794C135.395 166.974 135.52 167.114 135.592 167.091C135.664 167.069 135.642 166.88 135.516 166.682C135.39 166.483 135.224 166.371 135.161 166.407Z" fill="#263238"></path> <path d="M136.383 166.267C136.565 166.077 136.699 165.845 136.774 165.592C136.875 165.329 136.921 165.049 136.909 164.768C136.901 164.597 136.863 164.43 136.797 164.272C136.761 164.18 136.711 164.093 136.648 164.016C136.559 163.916 136.435 163.853 136.302 163.84C136.24 163.835 136.178 163.843 136.119 163.863C136.061 163.884 136.007 163.916 135.961 163.959C135.915 164.001 135.879 164.052 135.854 164.109C135.829 164.166 135.817 164.228 135.817 164.29C135.815 164.458 135.83 164.626 135.862 164.79C135.915 165.062 135.995 165.327 136.1 165.583C136.176 165.833 136.304 166.063 136.478 166.258C136.518 166.258 136.415 165.975 136.284 165.533C136.209 165.28 136.152 165.021 136.114 164.759C136.09 164.61 136.079 164.459 136.082 164.308C136.082 164.173 136.19 164.061 136.28 164.074C136.37 164.088 136.487 164.2 136.549 164.349C136.609 164.485 136.645 164.629 136.657 164.777C136.682 165.034 136.657 165.294 136.585 165.542C136.492 165.776 136.424 166.019 136.383 166.267Z" fill="#263238"></path> <path d="M136.469 166.164C136.5 166.164 136.401 165.876 136.114 165.466C135.94 165.222 135.734 165.002 135.502 164.813C135.363 164.697 135.213 164.596 135.053 164.512C134.959 164.459 134.857 164.419 134.752 164.394C134.682 164.38 134.61 164.38 134.541 164.394C134.499 164.4 134.458 164.416 134.423 164.439C134.387 164.462 134.357 164.493 134.334 164.53C134.295 164.629 134.282 164.737 134.297 164.843C134.312 164.948 134.354 165.048 134.419 165.133C134.521 165.289 134.649 165.426 134.797 165.538C135.047 165.719 135.317 165.87 135.601 165.989C135.863 166.137 136.166 166.197 136.464 166.16C136.202 166.067 135.946 165.96 135.696 165.84C135.439 165.703 135.196 165.543 134.968 165.363C134.846 165.262 134.741 165.142 134.658 165.007C134.616 164.954 134.586 164.892 134.571 164.825C134.556 164.759 134.557 164.69 134.572 164.624C134.572 164.579 134.774 164.624 134.923 164.705C135.081 164.778 135.232 164.867 135.372 164.971C135.599 165.141 135.807 165.336 135.992 165.552C136.271 165.912 136.433 166.164 136.469 166.164Z" fill="#263238"></path> <path d="M137.098 166.101C138.233 166.281 139.382 166.358 140.531 166.331C141.679 166.38 142.83 166.339 143.973 166.209C142.83 166.101 141.682 166.062 140.535 166.092C138.639 166.074 137.102 166.038 137.098 166.101Z" fill="#263238"></path> <path d="M158.819 67.2265C158.819 67.2265 159.116 66.1277 158.285 59.3956C157.921 56.4641 155.93 54.6449 153.791 53.5416V53.5056L153.602 53.4471C151.844 52.5977 149.956 52.0483 148.017 51.8215L140.477 51.6999C140.477 51.6999 134.954 51.0064 131.431 54.852C127.908 58.6977 125.518 60.9537 125.518 60.9537L131.135 67.7083L132.649 66.1953C132.649 66.1953 132.492 69.3114 133.521 71.1262L135.947 75.4086L134.357 82.9783C133.359 85.8557 130.07 96.3794 131.359 106.804C132.959 119.71 133.211 123.488 133.211 123.488L151.432 125.983C151.432 125.983 158.716 98.649 156.222 87.7921C154.506 80.3305 153.198 80.6772 152.78 79.0606L153.252 67.4426L158.819 67.2265Z" fill="#FFA808"></path> <path d="M134.087 63.7002C133.939 64.1816 133.717 64.6372 133.431 65.0511C133.209 65.4986 132.92 65.9087 132.573 66.267C132.721 65.7856 132.942 65.3299 133.229 64.916C133.447 64.4666 133.737 64.0559 134.087 63.7002Z" fill="#263238"></path> <path d="M150.412 77.8132C150.224 77.8751 150.029 77.9144 149.832 77.9303C149.459 77.9934 148.911 78.0609 148.233 78.133C146.466 78.308 144.691 78.3817 142.917 78.3536C141.141 78.3201 139.369 78.1833 137.61 77.9438C136.936 77.8493 136.392 77.7592 136.019 77.6826C135.823 77.6591 135.63 77.6138 135.444 77.5476C135.641 77.5403 135.839 77.5554 136.033 77.5926L137.632 77.7772C138.98 77.9258 140.85 78.0789 142.921 78.1149C144.993 78.151 146.867 78.0654 148.219 77.9663L149.823 77.8403C150.018 77.8133 150.215 77.8042 150.412 77.8132Z" fill="#263238"></path> <path d="M156.555 98.2707C156.541 98.3927 156.517 98.5133 156.483 98.631L156.236 99.6532C156.182 99.8783 156.119 100.103 156.051 100.392C155.984 100.68 155.876 100.946 155.777 101.252C155.566 101.869 155.368 102.603 155.036 103.332L154.551 104.521C154.38 104.931 154.16 105.341 153.953 105.773C153.557 106.673 153.027 107.534 152.488 108.475C150.058 112.502 146.85 116.002 143.052 118.769C142.153 119.381 141.326 119.985 140.49 120.453C140.072 120.692 139.686 120.948 139.29 121.155L138.149 121.736C137.43 122.128 136.738 122.385 136.145 122.637C135.844 122.763 135.57 122.885 135.309 122.984L134.59 123.227L133.593 123.56C133.479 123.604 133.362 123.638 133.242 123.659C133.35 123.602 133.463 123.553 133.579 123.515L134.559 123.141L135.269 122.88C135.525 122.777 135.795 122.646 136.091 122.515C136.68 122.245 137.363 121.979 138.073 121.579L139.201 120.984C139.592 120.777 139.978 120.534 140.387 120.277C141.218 119.804 142.041 119.197 142.921 118.584C146.686 115.815 149.882 112.343 152.331 108.358C152.865 107.43 153.4 106.556 153.805 105.687C154.011 105.26 154.254 104.854 154.411 104.444L154.906 103.269C155.243 102.526 155.454 101.819 155.674 101.211C155.777 100.905 155.885 100.626 155.966 100.36L156.173 99.6307C156.29 99.2074 156.388 98.8741 156.46 98.622C156.481 98.5023 156.513 98.3848 156.555 98.2707Z" fill="#263238"></path> <path d="M158.532 63.286C158.443 63.3508 158.348 63.4066 158.249 63.4526C158.06 63.5517 157.777 63.6958 157.408 63.8759C156.371 64.4031 155.261 64.7705 154.115 64.9657C153.311 65.0819 152.492 65.036 151.706 64.8306C151.268 64.7152 150.849 64.5329 150.466 64.2902C150.063 64.0254 149.703 63.6986 149.401 63.322C148.801 62.5012 148.262 61.6373 147.788 60.7373C147.258 59.8367 146.579 58.936 145.541 58.5938C144.503 58.2516 143.407 58.5083 142.396 58.7874C141.44 59.1287 140.445 59.3481 139.434 59.4404C138.554 59.4545 137.69 59.2093 136.948 58.7354C136.206 58.2615 135.619 57.5797 135.26 56.7746C134.999 56.1547 134.885 55.4826 134.927 54.8112C134.956 54.3083 135.069 53.8136 135.26 53.3477C135.414 52.948 135.644 52.5824 135.938 52.2715C135.704 52.6196 135.505 52.9908 135.345 53.3792C135.174 53.8414 135.077 54.3277 135.058 54.8202C135.02 55.5382 135.171 56.2534 135.495 56.8949C135.819 57.5364 136.305 58.0817 136.904 58.4767C137.645 58.9906 138.53 59.2527 139.43 59.2242C140.427 59.1296 141.408 58.9102 142.351 58.5713C142.868 58.413 143.397 58.297 143.932 58.2246C144.497 58.1474 145.071 58.1997 145.613 58.3777C146.151 58.5686 146.635 58.8868 147.024 59.3053C147.391 59.7065 147.712 60.1476 147.981 60.6202C148.45 61.513 148.98 62.3722 149.567 63.1915C150.123 63.9011 150.892 64.4126 151.76 64.6505C152.519 64.8563 153.312 64.9099 154.092 64.8081C155.226 64.6261 156.329 64.285 157.368 63.7949L158.226 63.4121C158.325 63.3636 158.427 63.3215 158.532 63.286Z" fill="white"></path> <path d="M147.837 79.2542C147.99 79.0229 148.098 78.7647 148.156 78.4932C148.203 78.1201 148.164 77.7412 148.042 77.3855C147.921 77.0297 147.72 76.7063 147.455 76.4398C147.093 76.0696 146.648 75.7917 146.157 75.6292C145.588 75.4369 145.001 75.3086 144.404 75.2465C143.771 75.1609 143.097 75.1114 142.405 74.9583C141.674 74.8303 140.984 74.5343 140.387 74.0937C140.089 73.8561 139.836 73.5662 139.641 73.2381C139.462 72.9206 139.311 72.5875 139.192 72.2429C139.007 71.6027 138.761 70.9815 138.459 70.3876C138.175 69.9106 137.776 69.5126 137.299 69.2301C136.822 68.9477 136.281 68.7898 135.727 68.771C134.969 68.7571 134.229 68.9981 133.624 69.4555C133.407 69.6311 133.2 69.8191 133.004 70.0184C133.036 69.9516 133.077 69.8894 133.125 69.8338C133.259 69.6683 133.41 69.5174 133.575 69.3835C134.184 68.8792 134.95 68.6037 135.741 68.6044C136.328 68.6122 136.904 68.7701 137.413 69.0632C137.923 69.3564 138.349 69.775 138.652 70.2796C138.97 70.8813 139.225 71.5134 139.416 72.1664C139.614 72.8432 140.002 73.4484 140.535 73.9091C141.106 74.3241 141.761 74.6071 142.454 74.7376C143.128 74.8862 143.802 74.9403 144.436 75.0303C145.703 75.1924 146.907 75.5527 147.581 76.3317C147.854 76.6178 148.056 76.9639 148.172 77.3424C148.287 77.7208 148.313 78.1211 148.246 78.5112C148.202 78.7206 148.115 78.9185 147.99 79.0921C147.946 79.1527 147.895 79.2072 147.837 79.2542Z" fill="white"></path> <path d="M154.892 111.226C154.292 111.166 153.687 111.192 153.095 111.303C152.403 111.445 151.719 111.624 151.046 111.839C150.147 112.139 149.21 112.307 148.264 112.338C147.108 112.363 145.961 112.139 144.898 111.681C143.67 111.162 142.615 110.303 141.856 109.204C141.047 107.956 140.702 106.462 140.881 104.985C140.966 104.207 141.201 103.453 141.573 102.765C141.963 102.054 142.504 101.439 143.159 100.964C143.798 100.513 144.507 100.063 144.827 99.4055C144.99 99.0803 145.044 98.7103 144.979 98.3518C144.908 97.9887 144.787 97.6372 144.62 97.3071C144.242 96.657 143.988 95.9425 143.869 95.1996C143.797 94.473 143.905 93.7397 144.184 93.0652C144.707 91.8199 145.696 90.8292 146.938 90.3048C148.002 89.8516 149.154 89.6438 150.309 89.6969C151.242 89.7456 152.179 89.7185 153.108 89.6158C153.805 89.5167 154.469 89.2579 155.049 88.8593C155.421 88.609 155.729 88.2742 155.948 87.8821C156.092 87.6119 156.128 87.4318 156.141 87.4318C156.114 87.5884 156.064 87.7401 155.993 87.8821C155.788 88.2905 155.488 88.6428 155.117 88.9088C154.532 89.3311 153.856 89.6102 153.144 89.7239C152.208 89.8416 151.264 89.8808 150.322 89.841C149.193 89.7974 148.069 90.0082 147.033 90.4579C145.842 90.9697 144.896 91.9257 144.395 93.1237C144.133 93.765 144.033 94.4609 144.103 95.1501C144.222 95.868 144.472 96.5579 144.84 97.1855C145.017 97.5342 145.145 97.9054 145.222 98.2888C145.292 98.6961 145.232 99.1151 145.051 99.4866C144.665 100.234 143.937 100.662 143.312 101.13C142.696 101.58 142.183 102.155 141.805 102.818C141.427 103.48 141.193 104.216 141.119 104.976C140.95 106.394 141.279 107.827 142.05 109.029C142.78 110.1 143.802 110.939 144.993 111.447C146.026 111.902 147.144 112.132 148.273 112.122C149.206 112.103 150.132 111.951 151.023 111.672C151.703 111.464 152.395 111.297 153.095 111.172C153.539 111.093 153.993 111.072 154.443 111.109C154.596 111.134 154.746 111.173 154.892 111.226Z" fill="white"></path> <path d="M148.534 125.582C148.534 125.582 148.556 125.267 148.57 124.704C148.609 123.914 148.469 123.126 148.161 122.398C147.939 121.91 147.552 121.516 147.069 121.286C146.489 121.065 145.868 120.973 145.249 121.016C144.536 121.071 143.819 120.981 143.141 120.75C142.791 120.589 142.484 120.349 142.243 120.048C142.003 119.741 141.796 119.41 141.623 119.061C141.327 118.38 140.94 117.742 140.472 117.166C140.021 116.645 139.479 116.212 138.873 115.887C137.842 115.327 136.658 115.115 135.498 115.283C134.716 115.394 133.965 115.661 133.287 116.067C132.806 116.36 132.573 116.571 132.559 116.553C132.607 116.493 132.661 116.439 132.721 116.391C132.884 116.246 133.056 116.112 133.238 115.99C133.916 115.543 134.682 115.247 135.484 115.121C136.683 114.924 137.913 115.126 138.985 115.698C139.617 116.031 140.183 116.476 140.656 117.013C140.902 117.292 141.121 117.594 141.313 117.913C141.501 118.246 141.663 118.593 141.843 118.935C142.116 119.614 142.617 120.176 143.258 120.525C143.907 120.744 144.593 120.832 145.276 120.782C145.923 120.742 146.571 120.848 147.172 121.092C147.691 121.346 148.102 121.777 148.331 122.308C148.637 123.063 148.757 123.88 148.682 124.69C148.669 124.908 148.644 125.124 148.606 125.339C148.596 125.423 148.572 125.506 148.534 125.582Z" fill="white"></path> <path d="M137.758 88.3412C137.758 88.3412 137.628 88.6203 137.39 89.1157C137.026 89.7932 136.797 90.5349 136.716 91.2997C136.687 91.823 136.801 92.3442 137.044 92.8082C137.348 93.3399 137.69 93.8486 138.068 94.3303C138.5 94.9092 138.812 95.5686 138.987 96.2699C139.161 96.9712 139.194 97.7003 139.084 98.4146C138.962 99.1296 138.674 99.8059 138.243 100.389C137.812 100.972 137.251 101.445 136.603 101.769C136.039 102.06 135.414 102.214 134.779 102.22C134.107 102.215 133.447 102.038 132.863 101.704C132.279 101.371 131.791 100.892 131.445 100.315C131.336 100.13 131.248 99.934 131.184 99.7294C131.159 99.6593 131.141 99.5869 131.13 99.5133C131.157 99.5133 131.234 99.806 131.521 100.27C131.943 100.912 132.545 101.414 133.251 101.715C133.732 101.927 134.253 102.033 134.779 102.026C135.381 102.011 135.972 101.857 136.505 101.576C137.118 101.261 137.649 100.806 138.055 100.247C138.461 99.6887 138.73 99.0424 138.841 98.3605C138.948 97.6751 138.918 96.9753 138.754 96.3014C138.589 95.6276 138.294 94.9929 137.884 94.4338C137.503 93.943 137.161 93.4236 136.86 92.8803C136.61 92.3833 136.501 91.8273 136.545 91.2727C136.639 90.4885 136.894 89.7325 137.295 89.0526C137.43 88.814 137.543 88.6294 137.619 88.5033C137.695 88.3772 137.749 88.3367 137.758 88.3412Z" fill="white"></path> <path d="M151.297 73.2336C151.257 73.0564 151.237 72.875 151.239 72.6932C151.239 72.3015 151.194 71.7926 151.167 71.2297C151.104 69.9418 151.023 68.2622 150.933 66.4024C150.843 64.5427 150.785 62.8 150.767 61.5661C150.767 60.9447 150.767 60.4449 150.767 60.0981C150.761 59.9172 150.773 59.7362 150.803 59.5577C150.843 59.7335 150.863 59.9133 150.861 60.0936C150.861 60.4899 150.902 60.9942 150.933 61.5616C150.996 62.8495 151.077 64.5291 151.167 66.3889C151.257 68.2487 151.315 69.9914 151.333 71.2252C151.333 71.8466 151.333 72.3465 151.333 72.6932C151.339 72.8741 151.327 73.0551 151.297 73.2336Z" fill="#263238"></path> <path d="M151.135 67.5457C151.135 67.5457 151.895 76.6375 151.028 77.2454C146.224 80.6092 139.834 81.9601 137.547 82.3564C137.232 82.2438 136.859 82.0997 136.433 81.9061C136.064 81.7438 135.726 81.5182 135.435 81.2396C135.054 80.9077 134.722 80.5243 134.446 80.1003C134.414 80.006 134.351 79.9252 134.268 79.8705C134.185 79.8157 134.086 79.7902 133.987 79.798C133.888 79.8057 133.794 79.8462 133.72 79.9132C133.646 79.9801 133.597 80.0697 133.579 80.1679C133.525 80.5867 134.091 81.7395 135.26 82.6581C136.428 83.5767 134.127 83.6307 133.287 83.6623C132.447 83.6938 129.859 83.9234 129.67 84.1981C129.391 84.5944 129.764 84.9817 130.6 84.9276C131.436 84.8736 133.961 84.8961 133.961 85.3509C133.961 85.8057 129.692 85.9093 129.692 85.9093C129.692 85.9093 128.771 85.7787 128.758 86.3056C128.735 87.2512 133.251 86.7919 133.701 86.7559C133.997 86.7199 134.02 87.2062 133.701 87.2332C133.381 87.2602 129.432 87.2332 129.396 88.2059C129.373 88.9444 133.125 87.8636 133.948 88.332C134.77 88.8003 131.013 88.8543 131.018 89.5613C131.018 89.827 131.058 90.0116 133.206 89.6739C134.742 89.3533 136.259 88.9474 137.749 88.458C137.749 88.458 160.087 86.5397 159.529 76.4438C159.152 69.6172 159.273 70.878 158.855 67.2891" fill="#EDB9A5"></path> </g> <defs> <clipPath id="clip0_508_3369"> <rect width="190" height="171" fill="white"></rect> </clipPath> </defs> </svg> 