<?xml version="1.0" encoding="UTF-8"?> <svg xmlns="http://www.w3.org/2000/svg" width="177" height="166" viewBox="0 0 177 166" fill="none"> <g clip-path="url(#clip0_508_3507)"> <path d="M96.9756 131.553H56.2875V162.866H96.9756V131.553Z" fill="#F6DAA0"></path> <path d="M86.783 162.644C86.7283 162.644 86.6815 155.666 86.6815 147.051C86.6815 138.437 86.7283 131.459 86.783 131.459C86.8377 131.459 86.8846 138.437 86.8846 147.051C86.8846 155.666 86.8416 162.644 86.783 162.644Z" fill="#F6DAA0"></path> <path d="M93.5259 155.74H90.4084V159.26H93.5259V155.74Z" fill="#D9B15E"></path> <path d="M73.3245 131.635H68.7029V138.316H73.3245V131.635Z" fill="#F6DAA0"></path> <path d="M73.3245 156.091H68.7029V162.772H73.3245V156.091Z" fill="#F6DAA0"></path> <path d="M170.808 123.702H119.501V163.186H170.808V123.702Z" fill="#F6DAA0"></path> <path d="M157.955 162.905C157.896 162.905 157.853 154.107 157.853 143.251C157.853 132.395 157.896 123.593 157.955 123.593C158.014 123.593 158.057 132.395 158.057 143.251C158.057 154.107 158.01 162.905 157.955 162.905Z" fill="#F6DAA0"></path> <path d="M166.46 154.196H162.526V158.632H166.46V154.196Z" fill="#D9B15E"></path> <path d="M140.984 123.803H135.156V132.226H140.984V123.803Z" fill="#F6DAA0"></path> <path d="M140.984 154.641H135.156V163.064H140.984V154.641Z" fill="#F6DAA0"></path> <path d="M22.8658 124.863C24.9441 123.795 27.3897 123.655 29.6947 124.033C30.9331 124.24 32.2223 124.61 33.0661 125.538C33.91 126.466 34.0701 128.099 33.1013 128.898C32.527 129.37 31.7222 129.444 30.976 129.436C29.1712 129.413 27.167 129.097 25.7255 130.18C24.9051 130.796 24.3542 131.825 23.3815 132.13C22.4087 132.434 21.3344 131.861 20.8226 130.995C20.3531 130.093 20.2496 129.044 20.5335 128.068C20.6489 127.391 20.9195 126.749 21.324 126.193C21.7285 125.638 22.2561 125.183 22.8658 124.863Z" fill="#F6DAA0"></path> <path d="M18.1113 115.699C19.381 117.508 21.8461 116.912 22.9908 115.805C24.1354 114.698 24.6199 113.099 25.0613 111.575C26.0653 108.067 27.0811 104.426 26.331 100.875C26.1509 99.799 25.6779 98.793 24.9637 97.967C24.6003 97.5614 24.1369 97.2576 23.6194 97.086C23.102 96.9144 22.5486 96.8808 22.0141 96.9886C20.7679 97.316 19.9944 98.5478 19.4357 99.6861C17.7908 103.103 16.9287 106.842 16.912 110.632C16.912 112.394 17.1151 114.245 18.1113 115.699Z" fill="#F6DAA0"></path> <path d="M14.6227 118.296C16.0017 116.662 16.2635 114.281 15.6501 112.238C15.0368 110.195 13.6499 108.453 12.0521 107.03C10.1734 105.361 7.98644 104.074 5.61384 103.241C4.7005 102.873 3.71855 102.706 2.73462 102.75C2.24069 102.779 1.76125 102.927 1.33783 103.183C0.914409 103.438 0.55978 103.793 0.304662 104.216C-0.390727 105.506 0.257782 107.069 0.960985 108.367C2.20019 110.617 3.61487 112.767 5.19192 114.795C6.45769 116.425 7.9266 118.034 9.84478 118.771C11.763 119.508 13.7827 119.422 14.8063 118.085" fill="#F6DAA0"></path> <path d="M18.0254 142.994C18.093 142.725 18.131 142.449 18.1387 142.171C18.1973 141.575 18.2715 140.823 18.3574 139.93C18.4693 138.824 18.6388 137.724 18.8653 136.636C19.1597 135.307 19.5594 134.004 20.0608 132.738C20.5558 131.481 21.2251 130.3 22.0493 129.23C22.7233 128.358 23.5825 127.645 24.5652 127.144C25.2317 126.815 25.9464 126.594 26.6826 126.489C26.9595 126.478 27.2345 126.437 27.503 126.368C27.2251 126.338 26.9448 126.338 26.667 126.368C25.9028 126.426 25.1553 126.62 24.4597 126.941C23.4259 127.423 22.518 128.137 21.807 129.027C20.9466 130.114 20.2528 131.323 19.7482 132.613C19.2438 133.893 18.8517 135.214 18.5762 136.562C18.3626 137.663 18.2165 138.776 18.1387 139.895C18.0644 140.85 18.041 141.622 18.0254 142.152C17.9935 142.432 17.9935 142.714 18.0254 142.994Z" fill="#F6DAA0"></path> <path d="M18.1778 141.267C18.2019 141.139 18.2098 141.008 18.2012 140.877C18.2012 140.589 18.2012 140.226 18.2012 139.786C18.2012 138.838 18.2012 137.466 18.252 135.775C18.334 132.391 18.6426 128.758 19.1896 123.616C19.7248 118.787 20.4436 113.17 21.1976 109.517C21.3617 108.683 21.5219 107.938 21.6781 107.283C21.8227 106.625 21.9477 106.059 22.0688 105.603L22.3267 104.543C22.3649 104.416 22.3872 104.285 22.3931 104.153C22.3334 104.267 22.2888 104.387 22.2602 104.512L21.9438 105.557C21.8032 106.013 21.6586 106.574 21.4945 107.225C21.3304 107.876 21.139 108.624 20.9632 109.455C20.0243 113.774 19.3201 118.141 18.8536 122.537C18.2871 127.682 18.0332 132.368 18.0098 135.759C17.9902 137.455 18.0098 138.827 18.0684 139.774C18.0957 140.218 18.1192 140.581 18.1348 140.865C18.1316 141.001 18.146 141.136 18.1778 141.267Z" fill="#F6DAA0"></path> <path d="M18.2012 132.231C18.2311 131.852 18.2311 131.472 18.2012 131.093C18.1583 130.36 18.0567 129.304 17.8535 128.006C17.6011 126.489 17.2646 124.987 16.8456 123.507C16.3549 121.687 15.724 119.906 14.9587 118.182C13.6482 115.003 11.7698 112.088 9.41511 109.579C9.00741 109.148 8.5729 108.744 8.11418 108.367C7.91103 108.196 7.72351 108.028 7.55553 107.895L7.05156 107.549C6.74765 107.319 6.42634 107.113 6.09052 106.933C6.03583 107.007 7.45395 107.841 9.24321 109.739C11.5178 112.271 13.3424 115.171 14.6383 118.315C15.388 120.029 16.0223 121.791 16.537 123.589C17.0292 125.242 17.3574 126.762 17.6074 128.045C17.8574 129.327 17.9981 130.384 18.0606 131.101C18.0789 131.481 18.1259 131.858 18.2012 132.231Z" fill="#F6DAA0"></path> <path d="M8.84473 146.798L9.75108 159.202H25.7216L26.6279 146.798H8.84473Z" fill="#F6DAA0"></path> <path d="M28.5344 141.91H7.30164V146.798H28.5344V141.91Z" fill="#F6DAA0"></path> <path d="M7.30164 158.73V160.083H8.29784H28.1828V158.73H7.30164Z" fill="#F6DAA0"></path> <path d="M9.27446 162.32L8.29779 159.935H27.421L26.2802 162.32H9.27446Z" fill="#F6DAA0"></path> <path d="M26.331 150.856C26.331 150.856 26.3115 150.899 26.2568 150.969C26.2021 151.039 26.1161 151.16 26.0185 151.285L25.0887 152.474L25.0457 152.528L25.0066 152.474L22.7212 149.297H22.8541L20.6038 152.478L20.5335 152.579L20.4515 152.485L17.7832 149.316H17.9395L17.791 149.499L15.404 152.485L15.3259 152.587L15.236 152.493L12.9858 149.316H13.1147L10.341 152.47L10.2941 152.524L10.255 152.462L9.38774 151.008L9.16505 150.618C9.11427 150.532 9.09083 150.486 9.09864 150.482C9.1345 150.519 9.16477 150.561 9.18849 150.606C9.25491 150.704 9.33695 150.825 9.43461 150.977C9.6573 151.324 9.96592 151.803 10.3488 152.407H10.2628L12.9975 149.215L13.0678 149.137L13.1264 149.223L15.4001 152.388H15.2478L17.6269 149.398L17.7754 149.215L17.8496 149.117L17.9277 149.211L20.5882 152.384H20.4397L22.7134 149.219L22.7798 149.129L22.8463 149.219C23.7448 150.505 24.5105 151.593 25.0809 152.407H25.0027L25.9716 151.238L26.2333 150.938C26.2959 150.883 26.3271 150.856 26.331 150.856Z" fill="#D9B15E"></path> <path d="M26.8506 146.717C26.8506 146.771 22.8502 146.818 17.9121 146.818C12.9741 146.818 8.98535 146.771 8.98535 146.717C8.98535 146.662 12.9858 146.619 17.9199 146.619C22.8541 146.619 26.8506 146.662 26.8506 146.717Z" fill="#D9B15E"></path> <path d="M138.878 6.05166L135.604 6.06934L135.693 22.3241L138.966 22.3064L138.878 6.05166Z" fill="#F6DAA0"></path> <path d="M115.72 6.09974L107.243 6.14551L107.291 15.1188L115.769 15.073L115.72 6.09974Z" fill="#F6DAA0"></path> <path d="M124.158 6.0498L115.681 6.09557L115.729 15.0688L124.207 15.0231L124.158 6.0498Z" fill="#D9B15E"></path> <path d="M107.258 8.62621C112.891 8.67299 118.541 8.62621 124.174 8.54825C124.198 8.54825 124.221 8.53881 124.238 8.52199C124.254 8.50518 124.264 8.48237 124.264 8.4586C124.264 8.43482 124.254 8.41201 124.238 8.3952C124.221 8.37839 124.198 8.36894 124.174 8.36894C118.541 8.33775 112.891 8.36894 107.258 8.47419C107.241 8.47811 107.225 8.48777 107.214 8.50158C107.203 8.51539 107.197 8.53253 107.197 8.5502C107.197 8.56787 107.203 8.58501 107.214 8.59882C107.225 8.61263 107.241 8.62229 107.258 8.62621Z" fill="#F6DAA0"></path> <path d="M117.362 14.9237L101.958 15.0068L101.998 22.3195L117.401 22.2364L117.362 14.9237Z" fill="#F6DAA0"></path> <path d="M132.691 14.8367L117.287 14.9199L117.327 22.2326L132.731 22.1494L132.691 14.8367Z" fill="#D9B15E"></path> <path d="M101.964 17.0424C112.196 17.1594 122.467 17.0424 132.698 16.8943C132.719 16.8899 132.738 16.8784 132.752 16.8618C132.766 16.8451 132.773 16.8242 132.773 16.8027C132.773 16.7812 132.766 16.7603 132.752 16.7436C132.738 16.727 132.719 16.7155 132.698 16.7111C122.463 16.6604 112.196 16.6643 101.964 16.8904C101.944 16.8904 101.925 16.8984 101.911 16.9127C101.896 16.9269 101.888 16.9463 101.888 16.9664C101.888 16.9866 101.896 17.0059 101.911 17.0202C101.925 17.0344 101.944 17.0424 101.964 17.0424Z" fill="#F6DAA0"></path> <path d="M155.884 22.3243H96.2059V24.9439H155.884V22.3243Z" fill="#F6DAA0"></path> <path d="M108.399 23.583H105.977V32.5213H108.399V23.583Z" fill="#F6DAA0"></path> <path d="M144.563 23.583H142.141V32.5213H144.563V23.583Z" fill="#F6DAA0"></path> <path d="M142.072 -0.00693172L138.798 0.0107422L138.92 22.3659L142.193 22.3483L142.072 -0.00693172Z" fill="#F6DAA0"></path> <path d="M147.189 4.15516L142.103 4.18262L142.201 22.3007L147.287 22.2732L147.189 4.15516Z" fill="#D9B15E"></path> <path d="M147.157 7.65194C146.312 7.73969 145.462 7.76964 144.614 7.74159C143.765 7.76979 142.915 7.73983 142.07 7.65194C143.761 7.53277 145.458 7.53277 147.149 7.65194H147.157Z" fill="#F6DAA0"></path> <path d="M147.157 6.89211C146.312 6.97727 145.462 7.00592 144.614 6.97787C143.765 7.00608 142.915 6.97743 142.07 6.89211C143.761 6.77294 145.458 6.77294 147.149 6.89211H147.157Z" fill="#F6DAA0"></path> <path d="M147.157 19.5532C146.312 19.641 145.462 19.6709 144.614 19.6429C143.765 19.6711 142.915 19.6411 142.07 19.5532C143.761 19.4341 145.458 19.4341 147.149 19.5532H147.157Z" fill="#F6DAA0"></path> <path d="M147.157 18.7927C146.312 18.8778 145.462 18.9065 144.614 18.8784C143.765 18.9066 142.915 18.878 142.07 18.7927C143.761 18.6735 145.458 18.6735 147.149 18.7927H147.157Z" fill="#F6DAA0"></path> <path d="M144.696 17.1518C144.645 17.1518 144.606 15.3236 144.606 13.0705C144.606 10.8175 144.645 8.98535 144.696 8.98535C144.746 8.98535 144.782 10.8136 144.782 13.0705C144.782 15.3275 144.742 17.1518 144.696 17.1518Z" fill="#F6DAA0"></path> <path d="M152.747 8.61133H147.212V22.2858H152.747V8.61133Z" fill="#F6DAA0"></path> <path d="M140.39 4.75566C140.91 4.75566 141.332 4.33506 141.332 3.81622C141.332 3.29739 140.91 2.87679 140.39 2.87679C139.87 2.87679 139.449 3.29739 139.449 3.81622C139.449 4.33506 139.87 4.75566 140.39 4.75566Z" fill="#F6DAA0"></path> <path d="M140.68 6.40039H140.097V19.7007H140.68V6.40039Z" fill="#F6DAA0"></path> <path d="M172.57 162.971C172.57 163.026 135.023 163.073 88.7129 163.073C42.4031 163.073 4.85205 163.026 4.85205 162.971C4.85205 162.917 42.3913 162.87 88.7129 162.87C135.034 162.87 172.57 162.917 172.57 162.971Z" fill="#263238"></path> <path d="M49.3336 19.9111C51.1782 22.1595 52.1761 24.9811 52.1542 27.8866C52.1346 29.5277 51.8338 31.3442 52.791 32.6813C53.5176 33.6948 54.8459 34.2015 55.4358 35.3047C56.1468 36.6261 55.5413 38.2945 55.9788 39.7329C56.6 41.7677 58.987 42.6175 60.4051 44.2079C61.0096 44.9095 61.4325 45.7482 61.6368 46.6507C61.8412 47.5531 61.8206 48.4918 61.5771 49.3846C61.3168 50.272 60.8493 51.0852 60.213 51.7574C59.5767 52.4296 58.7896 52.9416 57.9165 53.2515C56.9807 53.6188 55.9373 53.602 55.0139 53.2047C54.0567 52.7252 53.4512 51.7507 52.9863 50.7957C52.0409 48.9168 43.7704 38.7584 43.3016 36.7119" fill="#263238"></path> <path d="M43.3173 17.5176C39.9341 16.9719 36.6759 19.2133 35.2578 22.32C33.8397 25.4268 33.7967 28.9663 33.6951 32.381C33.5936 35.7957 33.3475 39.3664 31.6012 42.3055C30.4917 44.1727 28.7727 45.8138 28.5032 47.9616C28.261 49.8951 29.2572 51.8441 28.9095 53.7425C28.6243 55.4109 27.3468 56.861 27.4015 58.5488C27.4601 60.5836 29.558 62.1156 31.5973 62.1702C33.6365 62.2247 35.5508 61.1606 37.1526 59.8937C39.7535 57.8305 41.8363 55.1905 43.2353 52.1833" fill="#263238"></path> <path d="M37.7542 25.5637C37.6473 24.7145 37.7125 23.8526 37.946 23.029C38.1794 22.2055 38.5762 21.4372 39.113 20.7696C39.6497 20.1021 40.3154 19.549 41.0705 19.1431C41.8256 18.7372 42.6548 18.4868 43.5087 18.4068C46.9231 18.0832 49.9547 20.6209 50.4665 24.0044C50.9158 26.9709 51.3025 29.9646 51.2869 31.0522C51.2439 34.3304 49.3336 35.6051 48.5522 35.991C48.2708 36.0903 47.9803 36.1621 47.6849 36.2054V36.2288L48.4155 39.9944C48.7437 42.458 47.3646 44.6721 44.8995 45.019C42.4344 45.3659 40.4888 43.4832 40.1138 41.0157L37.7542 25.5637Z" fill="#FFBE9D"></path> <path d="M49.7946 25.4389C49.7399 25.5169 49.3062 25.283 48.7515 25.3648C48.1967 25.4467 47.8295 25.7858 47.7592 25.7274C47.6889 25.6689 47.7592 25.5714 47.9311 25.4155C48.1431 25.2057 48.4169 25.0691 48.7124 25.0257C49.0015 24.9812 49.2973 25.0304 49.5563 25.166C49.7477 25.2908 49.8219 25.4038 49.7946 25.4389Z" fill="#263238"></path> <path d="M44.8487 26.6392C44.794 26.7171 44.3604 26.4833 43.8056 26.5651C43.2509 26.647 42.8797 26.9861 42.8094 26.9237C42.7391 26.8614 42.8094 26.7678 42.9852 26.6158C43.1984 26.4075 43.4717 26.2712 43.7666 26.226C44.056 26.1846 44.3512 26.2351 44.6104 26.3702C44.7979 26.5066 44.8761 26.6041 44.8487 26.6392Z" fill="#263238"></path> <path d="M46.8801 29.625C47.1599 29.4917 47.4552 29.3935 47.7591 29.3326C47.8998 29.2976 48.0287 29.2469 48.0404 29.1494C48.0294 29.0066 47.9749 28.8706 47.8841 28.7596L47.3059 27.7383C46.4973 26.2882 45.8917 25.0876 45.9503 25.0525C46.0089 25.0175 46.7317 26.1713 47.513 27.6253C47.7083 27.9839 47.9037 28.323 48.0717 28.6505C48.187 28.8081 48.2424 29.0016 48.2279 29.1962C48.2142 29.249 48.1889 29.2982 48.1537 29.34C48.1186 29.3818 48.0745 29.4152 48.0248 29.4379C47.9499 29.4711 47.8712 29.4946 47.7904 29.508C47.4933 29.5859 47.1873 29.6252 46.8801 29.625Z" fill="#263238"></path> <path d="M47.6615 36.2054C47.6615 36.2054 45.5402 36.6966 42.618 35.4765C42.618 35.4765 43.8759 38.1857 47.8568 37.2228L47.6615 36.2054Z" fill="#EB996E"></path> <path d="M44.5674 25.1859C44.5362 25.3457 43.9697 25.3535 43.329 25.5251C42.6883 25.6966 42.1843 25.9538 42.0789 25.833C42.032 25.7745 42.1023 25.6186 42.2937 25.4432C42.5505 25.2217 42.8555 25.0629 43.1844 24.9793C43.512 24.8896 43.8565 24.8802 44.1885 24.952C44.4424 25.0105 44.583 25.1119 44.5674 25.1859Z" fill="#263238"></path> <path d="M49.3375 24.211C49.2594 24.3513 48.857 24.2734 48.396 24.3357C47.935 24.3981 47.556 24.5462 47.4467 24.4254C47.3998 24.3669 47.4467 24.2305 47.5951 24.0863C47.8038 23.9109 48.0598 23.8011 48.3309 23.7705C48.602 23.74 48.8761 23.7902 49.1187 23.9148C49.3023 24.02 49.3727 24.1408 49.3375 24.211Z" fill="#263238"></path> <path d="M43.6416 27.3565C43.6644 27.4743 43.7321 27.5787 43.8304 27.6477C43.9288 27.7168 44.0501 27.7451 44.169 27.7268C44.2278 27.7206 44.2849 27.7026 44.3366 27.6739C44.3884 27.6453 44.4338 27.6065 44.4703 27.56C44.5067 27.5134 44.5334 27.46 44.5488 27.403C44.5641 27.3459 44.5678 27.2864 44.5596 27.2279C44.5377 27.1096 44.4702 27.0046 44.3716 26.9354C44.273 26.8661 44.1512 26.8382 44.0322 26.8575C43.9736 26.8643 43.9168 26.8826 43.8653 26.9114C43.8138 26.9402 43.7686 26.979 43.7322 27.0254C43.6959 27.0719 43.6691 27.125 43.6536 27.1819C43.638 27.2387 43.6339 27.2981 43.6416 27.3565Z" fill="#263238"></path> <path d="M48.5678 26.293C48.5764 26.3533 48.5969 26.4113 48.6282 26.4637C48.6594 26.516 48.7008 26.5616 48.7499 26.5979C48.7989 26.6342 48.8547 26.6603 48.914 26.6749C48.9733 26.6895 49.0349 26.6922 49.0952 26.6828C49.1539 26.676 49.2106 26.6577 49.2621 26.6289C49.3136 26.6001 49.3589 26.5613 49.3952 26.5149C49.4316 26.4685 49.4583 26.4153 49.4739 26.3584C49.4895 26.3016 49.4936 26.2422 49.4859 26.1838C49.4676 26.0624 49.4018 25.9533 49.3029 25.8802C49.2041 25.8071 49.0802 25.7761 48.9585 25.794C48.8996 25.8002 48.8426 25.8182 48.7909 25.8469C48.7391 25.8755 48.6936 25.9143 48.6572 25.9609C48.6207 26.0074 48.594 26.0608 48.5787 26.1179C48.5633 26.1749 48.5597 26.2345 48.5678 26.293Z" fill="#263238"></path> <path d="M47.7514 30.6932C47.5975 30.6482 47.4328 30.6573 47.2848 30.7191C47.1369 30.7808 47.0147 30.8914 46.9388 31.0323C46.8666 31.1626 46.8375 31.3123 46.8558 31.46C46.874 31.6078 46.9386 31.746 47.0403 31.8548C47.1462 31.9589 47.2857 32.0219 47.4339 32.0327C47.5821 32.0434 47.7293 32.0011 47.849 31.9133C48.0012 31.7771 48.0937 31.5867 48.1069 31.3832C48.1326 31.1965 48.0866 31.0071 47.9779 30.853C47.9227 30.7777 47.8446 30.7222 47.7552 30.6948C47.6658 30.6674 47.5699 30.6696 47.4818 30.701" fill="#EB996E"></path> <path d="M50.0329 21.3498C49.7253 20.1142 48.9604 19.0404 47.892 18.3444C47.0157 17.7167 45.9768 17.354 44.8995 17.2997C43.8164 17.2518 42.7584 17.6345 41.9577 18.3639C41.3959 18.9255 41.0751 19.6832 41.0631 20.4767L41.1256 19.9309C40.9615 20.375 40.9615 20.8629 41.1256 21.3069C41.2155 21.5447 41.3249 21.7825 41.4225 22.0242C41.7006 22.7111 42.2182 23.2745 42.8797 23.6107C43.1798 23.7713 43.5159 23.8531 43.8564 23.8485C44.0265 23.8433 44.1936 23.802 44.3465 23.7274C44.4994 23.6528 44.6346 23.5466 44.7432 23.4158C44.9858 22.9933 45.061 22.4954 44.9542 22.0203C45.2139 22.4874 45.5791 22.8878 46.0207 23.1897C46.2479 23.3354 46.5187 23.3983 46.787 23.3678C47.0554 23.3372 47.305 23.2151 47.4935 23.0221C47.81 22.6089 47.6849 22.0164 47.4935 21.5291C47.7929 21.987 48.2152 22.3518 48.7124 22.5816C48.8432 22.6568 48.9883 22.7036 49.1384 22.719C49.2885 22.7345 49.4402 22.7182 49.5836 22.6713C49.6988 22.6157 49.7996 22.5344 49.8782 22.4337C49.9568 22.333 50.0111 22.2155 50.0368 22.0905C50.0874 21.846 50.086 21.5937 50.0329 21.3498Z" fill="#263238"></path> <path d="M47.2122 22.3676C47.1771 22.3676 47.181 21.9077 47.0325 21.1982C46.8523 20.2625 46.379 19.408 45.6808 18.758C45.2973 18.4077 44.833 18.1573 44.3291 18.0291C43.9172 17.9263 43.4877 17.9156 43.0712 17.9979C42.6871 18.0874 42.3203 18.2389 41.9851 18.4462C41.9851 18.4462 42.0515 18.3487 42.2234 18.224C42.4701 18.0518 42.7471 17.9275 43.0399 17.8576C43.4778 17.7532 43.9342 17.7532 44.3721 17.8576C44.9123 17.9912 45.4096 18.2595 45.8176 18.6372C46.5501 19.3139 47.0285 20.2204 47.1732 21.206C47.2216 21.4971 47.2452 21.7919 47.2435 22.087C47.2468 22.1816 47.2363 22.2761 47.2122 22.3676Z" fill="#455A64"></path> <path d="M83.2123 67.8264L68.1716 61.874C68.1716 61.874 60.4754 51.8053 60.6356 51.6104L55.2327 57.5121L63.0851 68.1187L81.2785 72.3677L89.8732 72.4378C89.2247 69.1284 83.2123 67.8264 83.2123 67.8264Z" fill="#FFBE9D"></path> <path d="M50.4509 39.0939L48.4038 38.3143L39.5668 39.433V40.9923L39.3168 41.0235C37.4106 41.4272 35.5822 42.1353 33.9022 43.1206C32.33 44.0789 31.0808 45.4842 30.3151 47.1561C29.5493 48.828 29.302 50.6901 29.6048 52.5033C29.9642 54.733 30.6596 57.4422 32.0035 59.0092C34.5702 62.0069 36.9142 58.3037 36.9142 58.3037C36.9142 58.3037 38.5238 61.9679 38.43 63.7025C38.3558 65.1565 37.7112 68.1814 37.5041 69.1248C37.4956 69.1625 37.4949 69.2015 37.502 69.2395C37.5091 69.2775 37.5239 69.3136 37.5455 69.3457C37.567 69.3778 37.5949 69.4052 37.6274 69.4262C37.66 69.4472 37.6964 69.4613 37.7346 69.4678L56.3617 72.8942L56.4515 68.349L55.8577 49.6382L55.0373 42.3761C55.0373 42.3761 55.0607 38.9146 50.4509 39.0939Z" fill="#FFA808"></path> <path d="M54.7521 41.1758L61.8583 51.4239L56.135 58.378L54.7521 41.1758Z" fill="#FFA808"></path> <path d="M56.2757 62.7592C56.2473 62.5395 56.2369 62.3179 56.2445 62.0965C56.2445 61.6365 56.2445 61.0323 56.225 60.2956C56.1864 58.3184 56.0443 56.3446 55.7991 54.3822C55.5022 52.0823 55.0569 50.028 54.7131 48.5351L54.3029 46.777C54.2401 46.5657 54.197 46.3491 54.174 46.1299C54.2587 46.3336 54.328 46.5434 54.381 46.7575C54.5021 47.1473 54.6662 47.7593 54.8576 48.4961C55.3603 50.4196 55.7426 52.3724 56.0023 54.3432C56.2546 56.3134 56.3785 58.2977 56.3734 60.2839C56.3734 61.0635 56.3734 61.6599 56.3304 62.0887C56.329 62.3132 56.3107 62.5374 56.2757 62.7592Z" fill="#263238"></path> <path d="M38.7855 47.1668C38.7855 47.198 38.2464 47.1902 37.3791 47.237C35.1232 47.3563 32.8984 47.8163 30.7807 48.6013C29.9681 48.9015 29.4759 49.1237 29.4603 49.0925C29.5608 49.0148 29.6712 48.9506 29.7884 48.9015C30.0033 48.7845 30.3236 48.6364 30.726 48.4688C32.8341 47.6002 35.087 47.1347 37.3674 47.0967C37.801 47.0967 38.1487 47.0967 38.3988 47.1201C38.5293 47.1158 38.6597 47.1316 38.7855 47.1668Z" fill="#D9B15E"></path> <path d="M55.2482 51.8449C54.9625 51.9485 54.6643 52.014 54.3614 52.0398C53.6401 52.1438 52.9137 52.2089 52.1854 52.2347C51.4558 52.2598 50.7255 52.2441 49.9977 52.188C49.6949 52.1832 49.3941 52.1387 49.103 52.0554C49.4032 52.0287 49.7053 52.0287 50.0055 52.0554C50.5641 52.0554 51.3298 52.0554 52.1776 52.0554C53.0253 52.0554 53.791 51.9658 54.3458 51.919C54.6437 51.8671 54.9458 51.8423 55.2482 51.8449Z" fill="#D9B15E"></path> <path d="M58.5104 47.2139C58.082 47.7127 57.5656 48.1288 56.9868 48.4418C56.4424 48.8099 55.8345 49.0743 55.1936 49.2214C55.1702 49.1669 55.975 48.8316 56.8813 48.2547C57.7877 47.6778 58.4713 47.1671 58.5104 47.2139Z" fill="#D9B15E"></path> <path d="M55.6389 42.4618C55.0466 43.0372 54.3418 43.4844 53.5684 43.7755C52.8214 44.1299 52.0082 44.3238 51.1814 44.3446C51.1814 44.2823 52.2557 44.1185 53.4902 43.5923C54.7248 43.066 55.5999 42.4112 55.6389 42.4618Z" fill="#D9B15E"></path> <path d="M56.0257 59.7806C55.9134 59.8631 55.7897 59.9287 55.6584 59.9755C55.4162 60.0924 55.0568 60.2367 54.6075 60.4004C52.2473 61.2521 49.7432 61.6361 47.2356 61.5308C46.759 61.5308 46.3723 61.4763 46.1066 61.4412C45.974 61.4311 45.843 61.4062 45.7159 61.3671C45.7159 61.332 46.3059 61.3671 47.2786 61.3671C48.5194 61.3786 49.7592 61.2913 50.9861 61.1059C52.2111 60.9139 53.4192 60.6272 54.5997 60.2484C55.4748 59.9755 56.014 59.7533 56.0257 59.7806Z" fill="#D9B15E"></path> <path d="M56.1702 65.0664C56.1702 65.0664 56.1155 65.1054 56.0062 65.16L55.51 65.3977C55.0803 65.6004 54.4435 65.8616 53.6465 66.1774C52.8496 66.4931 51.8846 66.7894 50.7985 67.0856C49.6182 67.3988 48.4225 67.6512 47.2161 67.8418C46.0094 68.0241 44.7941 68.1451 43.5751 68.2044C42.45 68.2472 41.4342 68.2433 40.5826 68.2044C39.7309 68.1654 39.0473 68.103 38.5745 68.0406L38.0354 67.9666C37.9713 67.9633 37.908 67.9502 37.8479 67.9276C37.9113 67.9173 37.9759 67.9173 38.0393 67.9276L38.5824 67.9627C39.0551 68.0017 39.7544 68.0406 40.5904 68.064C41.4264 68.0874 42.4461 68.064 43.5634 68.0251C44.6807 67.9861 45.9074 67.8418 47.1849 67.6352C48.4624 67.4286 49.6656 67.1714 50.7517 66.8946C51.8377 66.6178 52.7988 66.3138 53.5996 66.0331C54.4005 65.7525 55.0412 65.5108 55.4787 65.3315L55.9866 65.1327C56.0456 65.1049 56.1071 65.0827 56.1702 65.0664Z" fill="#D9B15E"></path> <path d="M21.8774 147.937L19.7678 157.46L15.9353 164.499C15.8682 164.621 15.8271 164.755 15.8147 164.894C15.8023 165.032 15.8188 165.171 15.8633 165.303C15.9077 165.435 15.9791 165.555 16.0729 165.658C16.1667 165.761 16.2808 165.843 16.408 165.899C16.5534 165.965 16.7126 165.996 16.8723 165.988C17.032 165.981 17.1875 165.936 17.3261 165.856C19.1036 164.823 25.6669 160.991 25.7841 160.29C25.9169 159.475 28.6789 150.392 28.6789 150.392L21.8774 147.937Z" fill="#FFA808"></path> <g opacity="0.6"> <path d="M16.4081 165.899L25.9521 159.662L25.8544 160.052C25.7704 160.399 25.5637 160.705 25.2723 160.913C24.491 161.475 22.3189 162.972 17.3535 165.864C17.2107 165.946 17.0499 165.992 16.8852 165.999C16.7204 166.005 16.5566 165.971 16.4081 165.899Z" fill="white"></path> </g> <g opacity="0.6"> <path d="M24.7449 156.119C24.6064 156.175 24.4937 156.281 24.4288 156.416C24.3639 156.55 24.3512 156.704 24.3933 156.848C24.4455 156.987 24.549 157.101 24.6827 157.166C24.8164 157.231 24.9701 157.243 25.1121 157.199C25.2597 157.138 25.3792 157.024 25.4471 156.88C25.515 156.735 25.5265 156.571 25.4794 156.419C25.4102 156.281 25.2907 156.174 25.1454 156.122C25.0001 156.069 24.8401 156.073 24.698 156.134" fill="white"></path> </g> <path d="M19.5842 162.289C19.4291 161.937 19.2076 161.618 18.9318 161.35C18.6198 161.125 18.2668 160.963 17.8926 160.874C17.8926 160.847 18.0254 160.804 18.2559 160.827C18.5561 160.866 18.8388 160.99 19.0707 161.184C19.3026 161.378 19.474 161.634 19.5646 161.923C19.6311 162.16 19.6115 162.289 19.5842 162.289Z" fill="#263238"></path> <path d="M18.5958 163.392C18.5411 163.423 18.3106 163.041 17.8536 162.78C17.5628 162.646 17.2641 162.53 16.9589 162.433C17.1269 162.378 17.3057 162.364 17.4804 162.392C17.655 162.419 17.8205 162.488 17.9629 162.593C18.4825 162.893 18.6505 163.38 18.5958 163.392Z" fill="#263238"></path> <path d="M21.2445 160.991C20.9087 160.624 20.547 160.281 20.1624 159.966C19.7376 159.709 19.2935 159.484 18.8341 159.295C19.3626 159.284 19.878 159.46 20.2874 159.794C20.7382 160.068 21.0773 160.492 21.2445 160.991Z" fill="#263238"></path> <path d="M22.1275 158.13C22.0884 158.18 21.6157 157.834 20.9555 157.642C20.2952 157.451 19.6975 157.483 19.6936 157.416C20.1239 157.269 20.5923 157.276 21.018 157.436C21.4568 157.533 21.8487 157.778 22.1275 158.13Z" fill="#263238"></path> <path d="M22.8189 155.35C22.4383 155.114 22.0268 154.932 21.5961 154.808C21.1528 154.748 20.7033 154.748 20.26 154.808C20.26 154.785 20.3811 154.691 20.6507 154.617C20.9793 154.528 21.3243 154.517 21.658 154.585C21.9918 154.652 22.305 154.797 22.5728 155.007C22.7525 155.194 22.8384 155.331 22.8189 155.35Z" fill="#263238"></path> <path d="M21.7446 154.282C21.7419 154.158 21.7673 154.036 21.8189 153.923C21.9312 153.602 22.1065 153.307 22.3345 153.054C22.4855 152.854 22.6983 152.709 22.9401 152.641C23.0215 152.625 23.1058 152.635 23.181 152.67C23.2562 152.705 23.3182 152.763 23.3581 152.836C23.4292 152.98 23.4458 153.145 23.405 153.3C23.3047 153.613 23.0981 153.882 22.8208 154.06C22.5434 154.238 22.2126 154.313 21.8853 154.274C21.5628 154.23 21.261 154.091 21.0187 153.874C20.7764 153.657 20.6047 153.373 20.5258 153.058C20.5052 152.979 20.5023 152.897 20.5171 152.817C20.532 152.736 20.5643 152.661 20.6117 152.594C20.6657 152.531 20.7383 152.487 20.8191 152.468C20.8999 152.449 20.9846 152.457 21.061 152.489C21.2818 152.599 21.4702 152.764 21.6079 152.968C21.8156 153.236 21.9731 153.538 22.0728 153.861C22.1201 153.976 22.1427 154.099 22.1392 154.224C21.9811 153.804 21.7626 153.411 21.4907 153.054C21.3604 152.888 21.1932 152.755 21.0024 152.664C20.9605 152.646 20.9139 152.642 20.8695 152.653C20.8252 152.663 20.7854 152.688 20.7562 152.723C20.7289 152.769 20.7114 152.82 20.7047 152.873C20.6979 152.926 20.7022 152.98 20.7172 153.031C20.7961 153.3 20.9506 153.541 21.1624 153.726C21.3743 153.91 21.6346 154.03 21.9126 154.072C22.189 154.104 22.4682 154.041 22.704 153.894C22.9398 153.746 23.1182 153.523 23.2096 153.261C23.2475 153.156 23.2475 153.042 23.2096 152.937C23.1872 152.897 23.1531 152.865 23.112 152.845C23.0708 152.825 23.0245 152.818 22.9791 152.824C22.776 152.883 22.5951 153.001 22.4596 153.163C22.1567 153.491 21.9146 153.87 21.7446 154.282Z" fill="#263238"></path> <g opacity="0.3"> <path d="M21.6469 148.97L21.1898 151.152L28.1007 152.295L28.6789 150.392L21.893 147.937L21.6469 148.97Z" fill="black"></path> </g> <path d="M52.7792 151.46L52.205 159.069C52.205 159.069 59.7683 162.188 59.7996 163.622L44.9542 163.045L45.3448 151.152L52.7792 151.46Z" fill="#FFA808"></path> <g opacity="0.6"> <path d="M47.6615 158.262C47.5174 158.3 47.3925 158.39 47.3104 158.515C47.2283 158.639 47.1948 158.789 47.2161 158.936C47.249 159.081 47.3361 159.208 47.4596 159.29C47.5831 159.373 47.7336 159.405 47.8802 159.381C48.0336 159.342 48.1668 159.247 48.2536 159.115C48.3404 158.983 48.3744 158.823 48.349 158.667C48.2997 158.519 48.1949 158.396 48.0565 158.323C47.9182 158.251 47.757 158.234 47.6068 158.278" fill="white"></path> </g> <g opacity="0.6"> <path d="M44.9698 163.049L45.0596 161.849L59.2448 162.846C59.2448 162.846 59.8933 163.158 59.7996 163.626L44.9698 163.049Z" fill="white"></path> </g> <path d="M52.4511 159.003C52.4511 159.077 52.08 159.097 51.7167 159.315C51.3534 159.533 51.1502 159.83 51.0838 159.798C51.0174 159.767 51.1424 159.354 51.5878 159.097C52.0331 158.84 52.4668 158.937 52.4511 159.003Z" fill="#263238"></path> <path d="M53.9825 159.705C53.9825 159.775 53.6778 159.888 53.42 160.184C53.1621 160.481 53.0762 160.8 53.0058 160.792C52.9355 160.785 52.9043 160.379 53.2285 160.013C53.5528 159.646 53.9825 159.639 53.9825 159.705Z" fill="#263238"></path> <path d="M54.7912 161.599C54.7248 161.599 54.6388 161.244 54.8381 160.858C55.0373 160.473 55.385 160.324 55.4123 160.387C55.4397 160.449 55.2248 160.652 55.0646 160.971C54.9045 161.291 54.8654 161.591 54.7912 161.599Z" fill="#263238"></path> <path d="M52.3886 157.257C52.3534 157.319 52.0253 157.206 51.6073 157.218C51.1892 157.229 50.8728 157.346 50.8259 157.284C50.779 157.222 51.1072 156.976 51.6073 156.968C52.1073 156.96 52.4238 157.198 52.3886 157.257Z" fill="#263238"></path> <g opacity="0.3"> <path d="M52.6621 152.965L52.5644 154.321L45.2784 153.974L45.3253 152.407L52.6621 152.965Z" fill="black"></path> </g> <path d="M52.4746 155.716C52.2289 155.773 51.9724 155.762 51.7323 155.685C51.462 155.627 51.1997 155.537 50.951 155.416C50.8064 155.345 50.6667 155.264 50.533 155.175C50.452 155.125 50.3794 155.064 50.3181 154.991C50.2715 154.938 50.2443 154.87 50.2408 154.8C50.2372 154.729 50.2576 154.659 50.2986 154.602C50.3365 154.552 50.3858 154.513 50.4422 154.486C50.4986 154.46 50.5605 154.447 50.6228 154.449C50.7171 154.451 50.8106 154.467 50.9002 154.496C51.0561 154.542 51.2077 154.6 51.3534 154.672C51.6001 154.794 51.8256 154.954 52.0214 155.147C52.3535 155.479 52.4629 155.755 52.4355 155.767C52.4082 155.779 52.2441 155.557 51.9042 155.28C51.7052 155.123 51.4874 154.992 51.2557 154.89C51.1195 154.829 50.9783 154.779 50.8338 154.742C50.6775 154.695 50.5447 154.691 50.5017 154.742C50.4587 154.793 50.5017 154.777 50.5017 154.828C50.5503 154.877 50.604 154.922 50.6619 154.96C50.9982 155.193 51.3667 155.375 51.7558 155.502C52.0005 155.555 52.2408 155.627 52.4746 155.716Z" fill="#263238"></path> <path d="M52.3769 155.818C52.2433 155.601 52.1843 155.347 52.2089 155.093C52.2065 154.819 52.2515 154.546 52.3417 154.286C52.3937 154.132 52.4632 153.984 52.5488 153.846C52.5917 153.749 52.6594 153.664 52.7451 153.602C52.8307 153.539 52.9314 153.499 53.0371 153.487C53.1027 153.492 53.1656 153.515 53.2188 153.553C53.272 153.592 53.3133 153.645 53.3379 153.705C53.3708 153.795 53.3931 153.888 53.4043 153.982C53.4281 154.148 53.4281 154.316 53.4043 154.481C53.3521 154.757 53.2327 155.015 53.0566 155.233C52.7519 155.623 52.4472 155.682 52.4433 155.654C52.4394 155.627 52.6777 155.491 52.9121 155.128C53.0489 154.922 53.1382 154.687 53.1738 154.442C53.1936 154.3 53.1936 154.156 53.1738 154.013C53.1738 153.854 53.1035 153.725 53.0449 153.74C52.9863 153.756 52.8379 153.85 52.7754 153.97C52.697 154.094 52.6303 154.224 52.5761 154.36C52.4823 154.595 52.4231 154.842 52.4003 155.093C52.3495 155.534 52.416 155.806 52.3769 155.818Z" fill="#263238"></path> <path d="M37.426 69.3855C37.426 69.3855 35.082 69.4908 33.5193 77.4897C31.9566 85.4885 20.0413 150.314 20.0413 150.314L28.6789 150.392L44.9698 88.7707L43.8876 152.31L52.662 152.976C52.662 152.976 59.2487 82.7014 59.3034 78.6123C59.3815 73.5136 56.4476 68.3564 56.4476 68.3564L37.426 69.3855Z" fill="#4968B2"></path> <path d="M49.2945 68.7158C49.3492 68.7158 48.4545 73.2961 47.2942 78.921C46.134 84.546 45.1456 89.0989 45.0909 89.0872C45.0362 89.0755 45.9347 84.507 47.095 78.8782C48.2553 73.2493 49.2241 68.7041 49.2945 68.7158Z" fill="#455A64"></path> <path d="M50.6423 69.8537C50.6423 69.8537 50.8767 69.7602 51.1424 70.0018C51.2196 70.0707 51.281 70.1556 51.3221 70.2505C51.3633 70.3454 51.3832 70.4481 51.3807 70.5515C51.3661 70.6799 51.3175 70.8021 51.24 70.9056C51.1625 71.0091 51.0588 71.0902 50.9396 71.1405C50.8203 71.1909 50.6898 71.2088 50.5614 71.1922C50.4329 71.1757 50.3112 71.1254 50.2087 71.0465C50.1325 70.9763 50.0725 70.8905 50.0327 70.7949C49.9929 70.6994 49.9743 70.5964 49.9782 70.493C49.9782 70.1344 50.2204 70.0096 50.2243 70.033C50.1538 70.1747 50.1177 70.3309 50.1188 70.4891C50.1321 70.6491 50.2078 70.7975 50.3298 70.9023C50.4054 70.9509 50.4917 70.9806 50.5813 70.9888C50.6708 70.997 50.7611 70.9835 50.8443 70.9494C50.9275 70.9154 51.0013 70.8618 51.0593 70.7931C51.1173 70.7245 51.1579 70.643 51.1775 70.5554C51.1861 70.3943 51.1314 70.2363 51.0252 70.1149C50.8494 69.881 50.6384 69.8888 50.6423 69.8537Z" fill="#455A64"></path> <path d="M50.2673 73.0229C50.2673 72.9995 50.5095 73.0229 50.658 73.3464C50.6955 73.438 50.7128 73.5366 50.7087 73.6355C50.7047 73.7343 50.6794 73.8312 50.6345 73.9194C50.5679 74.0256 50.4735 74.1117 50.3614 74.1681C50.2493 74.2246 50.1238 74.2493 49.9986 74.2397C49.8735 74.23 49.7533 74.1864 49.6512 74.1134C49.5491 74.0405 49.469 73.941 49.4195 73.8259C49.3891 73.7318 49.3793 73.6323 49.3907 73.5341C49.4022 73.4359 49.4347 73.3413 49.486 73.2567C49.6696 72.9644 49.9196 72.9722 49.9118 72.9956C49.904 73.019 49.7282 73.0735 49.6149 73.323C49.5857 73.3921 49.5706 73.4663 49.5706 73.5413C49.5706 73.6163 49.5857 73.6905 49.6149 73.7596C49.6553 73.8375 49.715 73.9039 49.7883 73.9523C49.8617 74.0007 49.9462 74.0296 50.0339 74.0363C50.1216 74.0429 50.2095 74.0271 50.2894 73.9903C50.3692 73.9534 50.4383 73.8968 50.49 73.8259C50.5273 73.7609 50.5511 73.6891 50.5598 73.6147C50.5686 73.5403 50.5621 73.465 50.5408 73.3932C50.4353 73.1281 50.2517 73.0501 50.2673 73.0229Z" fill="#455A64"></path> <path d="M41.989 69.9356C41.9776 70.0703 41.9432 70.2022 41.8874 70.3254C41.7671 70.6823 41.6154 71.028 41.4342 71.3584C40.8367 72.4607 39.9749 73.3982 38.9258 74.0873C37.8767 74.7763 36.6729 75.1954 35.4219 75.3071C35.0462 75.3398 34.6685 75.3398 34.2928 75.3071C34.1605 75.3029 34.0292 75.282 33.9022 75.2448C33.9022 75.2058 34.4921 75.2721 35.4258 75.1551C36.6443 75.0036 37.8113 74.5729 38.8353 73.8966C39.8593 73.2204 40.7127 72.317 41.3288 71.257C41.8015 70.4891 41.9538 69.9239 41.989 69.9356Z" fill="#455A64"></path> <path d="M58.7956 75.6226C58.7956 75.6226 58.694 75.5797 58.5377 75.4706C58.3126 75.3101 58.1021 75.1301 57.9087 74.9326C57.2684 74.2834 56.7684 73.5099 56.4398 72.66C56.1079 71.809 55.9575 70.8983 55.9984 69.986C56.0094 69.7118 56.0447 69.4392 56.1039 69.1713C56.1176 69.07 56.1466 68.9715 56.1898 68.8789C56.2289 68.8789 56.1429 69.3077 56.1429 69.9899C56.1416 71.7832 56.8086 73.513 58.0142 74.843C58.4752 75.3341 58.819 75.5914 58.7956 75.6226Z" fill="#455A64"></path> <path d="M33.9881 53.9807L37.8284 54.1951C38.0984 55.2701 38.4605 56.3199 38.9105 57.3331C42.0007 51.9849 44.3799 44.8163 44.9893 41.9356C44.9034 41.6472 44.8018 41.3314 44.6729 40.9728C44.544 40.6142 44.6494 39.8034 44.7198 39.3551C44.8252 38.7119 45.005 37.8504 45.0596 37.4528C45.2237 36.2327 45.4191 36.0417 45.841 36.182C46.4192 36.3691 45.6027 39.5968 46.0793 39.6669C46.3332 39.7059 46.6458 38.5988 46.7356 37.6906C46.8255 36.7823 47.2357 33.9874 47.5169 33.7925C47.9584 33.5196 48.3452 33.9484 48.2319 34.8528C48.1186 35.7571 47.9779 38.5014 48.4585 38.5365C48.939 38.5716 49.3296 33.9406 49.3296 33.9406C49.3296 33.9406 49.2554 32.9349 49.8141 32.9583C50.8181 33.0012 50.0328 37.8855 49.9469 38.3455C49.8844 38.669 50.4079 38.7353 50.4548 38.3767C50.5016 38.018 50.7439 33.7457 51.7674 33.7808C52.5488 33.8081 51.158 37.8036 51.5994 38.7314C52.0409 39.6591 52.3456 35.5856 53.0957 35.6402C53.3731 35.6597 53.5801 35.7143 53.0683 38.0219C52.5689 39.8538 51.9703 41.6574 51.2752 43.4247C50.1032 49.8175 44.876 70.2669 36.7033 66.5247C32.1285 64.4315 29.9955 54.0509 29.9955 54.0509L33.9881 53.9807Z" fill="#FFBE9D"></path> <path d="M51.2986 43.4406C51.3072 43.3927 51.3203 43.3457 51.3377 43.3003L51.4744 42.9105C51.6033 42.5207 51.783 42.0256 52.0096 41.3512C52.2362 40.6769 52.5175 39.8583 52.791 38.8916C52.9355 38.4121 53.0488 37.8897 53.1582 37.3323C53.209 37.0517 53.2637 36.7632 53.2949 36.4669C53.3085 36.3204 53.3085 36.173 53.2949 36.0265C53.2949 35.8744 53.2598 35.7497 53.1425 35.7458C53.0253 35.7419 52.9355 35.816 52.8495 35.9446C52.7705 36.0821 52.705 36.227 52.6542 36.3773C52.5448 36.6852 52.4589 37.0088 52.3729 37.344C52.287 37.6792 52.2089 38.0223 52.1073 38.3731C52.0657 38.5662 51.986 38.749 51.8729 38.911C51.8451 38.943 51.8083 38.9661 51.7674 38.9773C51.7416 38.9827 51.7149 38.9823 51.6893 38.9763C51.6636 38.9702 51.6396 38.9586 51.6189 38.9422C51.5738 38.9008 51.5378 38.8503 51.5135 38.7941C51.4717 38.6999 51.4441 38.6001 51.4314 38.4978C51.4119 37.7117 51.4893 36.9262 51.6619 36.159C51.7283 35.7692 51.7987 35.3794 51.8494 34.9896C51.878 34.7906 51.8949 34.5902 51.9002 34.3893C51.9002 34.2061 51.8729 33.9527 51.7947 33.9176C51.7166 33.8825 51.5135 33.9956 51.4041 34.1593C51.3078 34.3278 51.2318 34.5071 51.1775 34.6933C51.0443 35.1005 50.9437 35.5176 50.8767 35.9407C50.8024 36.3695 50.7439 36.8061 50.697 37.2505C50.6735 37.4726 50.6501 37.6948 50.6306 37.9209L50.5993 38.2562C50.6032 38.3282 50.5916 38.4003 50.5653 38.4675C50.539 38.5347 50.4987 38.5956 50.4469 38.646C50.3797 38.6957 50.2982 38.7225 50.2145 38.7225C50.1308 38.7225 50.0493 38.6957 49.982 38.646C49.9447 38.6205 49.9129 38.5876 49.8887 38.5494C49.8645 38.5112 49.8484 38.4684 49.8414 38.4238C49.8355 38.3824 49.8355 38.3404 49.8414 38.299V38.2172C49.8766 37.9911 49.9078 37.7611 49.943 37.535C50.0094 37.075 50.0641 36.6151 50.111 36.1473C50.1578 35.6795 50.1852 35.2079 50.193 34.7362C50.2154 34.2694 50.1693 33.8019 50.0563 33.3485C50.0263 33.2339 49.9554 33.1341 49.857 33.0678C49.8103 33.0529 49.76 33.0527 49.7132 33.0674C49.6663 33.082 49.6251 33.1108 49.5953 33.1497C49.4652 33.3876 49.4133 33.6603 49.4468 33.9293C49.3648 34.8453 49.2632 35.7458 49.1304 36.6307C49.064 37.0711 48.9897 37.5077 48.8804 37.9443C48.853 38.0496 48.8179 38.1587 48.7788 38.2679C48.742 38.3993 48.6656 38.5163 48.56 38.6031C48.5118 38.6267 48.4571 38.6334 48.4046 38.6221C48.3521 38.6108 48.305 38.5821 48.2709 38.5407C48.226 38.4887 48.1903 38.4294 48.1654 38.3653C48.125 38.2569 48.0962 38.1445 48.0795 38.0301C47.9842 37.182 47.9763 36.3265 48.0561 35.4768C48.1106 35.0804 48.1315 34.6801 48.1186 34.2801C48.1059 34.1094 48.0275 33.9501 47.8998 33.8357C47.8705 33.8172 47.8377 33.8049 47.8034 33.7996C47.7691 33.7942 47.7341 33.7959 47.7005 33.8046C47.6619 33.8145 47.625 33.8303 47.5912 33.8513C47.5671 33.8679 47.5481 33.8908 47.5365 33.9176C47.4071 34.2824 47.318 34.6601 47.2708 35.0441C47.1927 35.4145 47.1302 35.7887 47.0677 36.1551C47.0052 36.5215 46.9544 36.8801 46.9114 37.2388C46.8684 37.5974 46.8372 37.9482 46.7668 38.299C46.7061 38.6418 46.6146 38.9784 46.4934 39.3047C46.4605 39.3875 46.4226 39.4682 46.3801 39.5464C46.3254 39.6166 46.2941 39.714 46.1457 39.7608C46.1077 39.7678 46.0685 39.7634 46.033 39.7481C45.9976 39.7328 45.9674 39.7074 45.9464 39.6751C45.9193 39.6304 45.8995 39.5817 45.8878 39.5308C45.8671 39.4466 45.8553 39.3603 45.8527 39.2736C45.8527 38.607 45.9464 37.9989 45.9777 37.4103C46.0031 37.1289 46.0031 36.8458 45.9777 36.5644C45.9582 36.4397 45.9191 36.2915 45.8449 36.2642C45.7959 36.2393 45.7417 36.2262 45.6866 36.2262C45.6316 36.2262 45.5774 36.2393 45.5284 36.2642C45.3659 36.4409 45.2645 36.665 45.2393 36.9035C45.1846 37.1413 45.1573 37.383 45.1143 37.613C44.9502 38.5329 44.7783 39.3242 44.6963 39.9752C44.6556 40.2596 44.6556 40.5484 44.6963 40.8328C44.751 41.0667 44.8291 41.2772 44.876 41.4409C44.9229 41.6046 44.9581 41.7216 44.9854 41.8307C45.0004 41.8724 45.0109 41.9155 45.0167 41.9593C44.9928 41.9204 44.9744 41.8785 44.962 41.8346C44.9307 41.7411 44.8838 41.6202 44.8291 41.4682C44.7744 41.3162 44.6924 41.1096 44.626 40.8562C44.5845 40.564 44.5845 40.2674 44.626 39.9752C44.6963 39.3164 44.8526 38.529 45.0167 37.6052C45.0557 37.3752 45.0792 37.1335 45.1339 36.884C45.1585 36.7519 45.1925 36.6216 45.2354 36.4942C45.2769 36.3515 45.3631 36.2258 45.4815 36.1356C45.5528 36.099 45.6319 36.0799 45.712 36.0799C45.7922 36.0799 45.8712 36.099 45.9425 36.1356C46.1262 36.2409 46.1301 36.4163 46.1652 36.5527C46.1926 36.8457 46.1926 37.1406 46.1652 37.4337C46.134 38.0262 46.0441 38.646 46.0558 39.2775C46.0589 39.3521 46.0681 39.4264 46.0832 39.4997C46.0832 39.5737 46.1379 39.6049 46.1301 39.5893C46.1222 39.5737 46.2043 39.523 46.2394 39.4646C46.2767 39.394 46.3093 39.3211 46.3371 39.2463C46.4528 38.9313 46.5391 38.6064 46.595 38.2757C46.6575 37.9365 46.6809 37.5857 46.7278 37.2232C46.7747 36.8606 46.8254 36.502 46.884 36.1317C46.9426 35.7614 47.0052 35.3911 47.0794 35.013C47.1452 34.6123 47.2553 34.2201 47.4075 33.8435C47.4388 33.7816 47.486 33.7292 47.5443 33.6915C47.5962 33.6631 47.6513 33.6409 47.7084 33.6252C47.7737 33.6052 47.8427 33.6001 47.9103 33.6102C47.978 33.6203 48.0424 33.6454 48.099 33.6837C48.1837 33.7632 48.251 33.8593 48.2967 33.9659C48.3424 34.0726 48.3656 34.1875 48.3647 34.3035C48.394 34.5156 48.394 34.7307 48.3647 34.9428C48.3412 35.1416 48.3256 35.3326 48.31 35.5509C48.2352 36.3813 48.2443 37.2171 48.3373 38.0457C48.3509 38.1443 48.3758 38.2411 48.4116 38.3341C48.4233 38.3718 48.4433 38.4065 48.4702 38.4355C48.4702 38.4355 48.4702 38.4355 48.4897 38.4355C48.4897 38.5251 48.4897 38.455 48.4897 38.4706C48.4897 38.4862 48.4897 38.4706 48.4897 38.4394C48.5376 38.3737 48.5758 38.3015 48.603 38.225C48.6342 38.1275 48.6655 38.0262 48.6928 37.9209C48.7983 37.5038 48.8725 37.0711 48.939 36.6346C49.0679 35.7575 49.1655 34.857 49.2476 33.9449C49.2126 33.6236 49.2824 33.2995 49.4468 33.021C49.5091 32.9409 49.5951 32.8824 49.6925 32.8537C49.79 32.8251 49.894 32.8277 49.9899 32.8612C50.0728 32.9053 50.1455 32.9662 50.2034 33.0401C50.2613 33.1139 50.303 33.1991 50.3258 33.29C50.4528 33.769 50.5043 34.2648 50.4782 34.7596C50.4782 35.2429 50.4352 35.7185 50.3922 36.1902C50.3493 36.6618 50.2907 37.1257 50.2243 37.5857L50.1188 38.2757C50.0875 38.4199 50.0953 38.4238 50.1383 38.4667C50.1654 38.4849 50.1974 38.4947 50.2301 38.4947C50.2628 38.4947 50.2948 38.4849 50.3219 38.4667C50.3727 38.4355 50.3766 38.3653 50.3883 38.2406L50.4196 37.9014C50.4196 37.6754 50.4626 37.4532 50.486 37.2271C50.5329 36.7827 50.5954 36.3383 50.6696 35.9056C50.7432 35.4709 50.849 35.0423 50.9861 34.6231C51.054 34.4107 51.1485 34.2077 51.2673 34.0189C51.3331 33.9154 51.4196 33.8265 51.5213 33.7578C51.5775 33.7187 51.642 33.6931 51.7098 33.683C51.7775 33.6728 51.8467 33.6784 51.9119 33.6993C51.9718 33.7367 52.022 33.7876 52.0586 33.8478C52.0952 33.9081 52.1173 33.976 52.1229 34.0462C52.139 34.1559 52.1456 34.2668 52.1424 34.3776C52.1396 34.5864 52.1226 34.7947 52.0917 35.0013C52.037 35.4106 51.9627 35.8082 51.8963 36.198C51.7249 36.9392 51.6436 37.6983 51.6541 38.4589C51.6622 38.5409 51.6833 38.6212 51.7166 38.6966C51.7283 38.7248 51.7441 38.7511 51.7635 38.7746C51.7635 38.7746 51.7635 38.7746 51.7635 38.7473C51.8496 38.6149 51.9154 38.4703 51.9588 38.3185C52.0604 37.9794 52.1385 37.6325 52.2284 37.2972C52.3095 36.9651 52.4073 36.6373 52.5214 36.3149C52.5802 36.1578 52.6535 36.0064 52.7402 35.8627C52.7888 35.7849 52.8495 35.7152 52.9199 35.6561C52.9614 35.6242 53.0094 35.6016 53.0605 35.5899C53.1095 35.5804 53.1599 35.5804 53.209 35.5899C53.2624 35.5948 53.3135 35.614 53.3568 35.6456C53.4002 35.6772 53.4341 35.7199 53.4551 35.7692C53.4881 35.851 53.5053 35.9383 53.5059 36.0265C53.5087 36.1841 53.4996 36.3418 53.4785 36.4981C53.4434 36.8022 53.3887 37.0906 53.3301 37.3713C53.2269 37.8974 53.0965 38.4179 52.9394 38.9305C52.6503 39.8973 52.3573 40.7159 52.1151 41.3824C51.8729 42.049 51.6736 42.5519 51.5369 42.9105C51.4705 43.0742 51.4197 43.2028 51.3767 43.3003C51.3577 43.3506 51.3313 43.3979 51.2986 43.4406Z" fill="#EB996E"></path> <path d="M29.976 54.4248C30.7182 57.0365 32.1676 61.0749 33.7264 65.3394C33.7759 65.4766 33.8652 65.596 33.9828 65.6826C34.1004 65.7691 34.2412 65.8189 34.3872 65.8256C34.5332 65.8322 34.6779 65.7955 34.803 65.7201C34.928 65.6446 35.0279 65.5339 35.0898 65.4018L38.9105 57.3405C38.9105 57.3405 37.9925 50.7138 38.0706 50.9516C38.1487 51.1893 30.183 51.8091 30.183 51.8091L29.976 54.4248Z" fill="#FFA808"></path> <path d="M38.5824 53.127C38.5824 53.1582 38.1097 53.2985 37.3518 53.587C35.3768 54.3334 33.5561 55.4353 31.9801 56.838C31.3746 57.372 31.023 57.7345 30.9995 57.7151C31.0574 57.6106 31.1297 57.5148 31.2144 57.4305C31.4252 57.1869 31.6482 56.954 31.8824 56.7327C32.65 55.9916 33.4977 55.3379 34.41 54.7837C35.322 54.2333 36.2914 53.7837 37.301 53.4428C37.6061 53.3384 37.9165 53.25 38.2308 53.1777C38.3445 53.1422 38.4632 53.1251 38.5824 53.127Z" fill="#D9B15E"></path> <path d="M40.0982 55.1345C39.8501 54.887 39.636 54.6078 39.4614 54.3042C39.0036 53.5954 38.6113 52.8465 38.2894 52.0667C37.9654 51.2859 37.7143 50.4768 37.5393 49.6499C37.4484 49.3103 37.4011 48.9606 37.3987 48.6091C37.5145 48.9378 37.6084 49.2738 37.68 49.6148C37.8881 50.4223 38.1491 51.2154 38.4613 51.9888C38.7836 52.7591 39.1555 53.5078 39.5747 54.2302C39.7687 54.5199 39.9436 54.822 40.0982 55.1345Z" fill="#263238"></path> <path d="M42.6493 19.4246C41.9859 20.5143 41.5743 21.7379 41.4445 23.0063C41.3148 24.2747 41.4701 25.556 41.8992 26.7569C42.2899 27.8289 42.9149 28.8853 42.8016 30.0235C42.6883 31.1618 41.8015 32.2844 42.1141 33.411C42.2977 34.0775 42.872 34.5804 43.0907 35.2275C43.3486 36.0071 43.0907 36.8257 42.9579 37.6287C42.6454 39.6713 43.2978 41.7217 43.4619 43.7838C43.6259 45.8459 43.0712 48.251 41.2233 49.1514C40.6647 49.4243 39.9341 49.5023 39.4692 49.0852C38.8793 48.5589 39.0434 47.6078 39.2036 46.8282C40.821 39.032 35.8243 31.4229 36.9651 23.5332C37.1487 22.2702 37.8558 20.1263 38.7699 19.2453C39.6841 18.3643 42.2039 18.4657 43.0673 19.4012" fill="#263238"></path> <path d="M34.9531 42.0406C34.9531 42.0406 35.1875 41.756 35.5391 41.2064C36.0341 40.4255 36.3799 39.5598 36.5588 38.6532C36.6787 38.0279 36.7194 37.3901 36.6799 36.7548C36.6115 36.0188 36.5842 35.2797 36.5978 34.5407C36.6206 34.1349 36.6968 33.7338 36.8244 33.3479C36.9642 32.949 37.1435 32.5651 37.3596 32.2018C37.7972 31.4651 38.3519 30.779 38.8559 30.0423C39.3801 29.3513 39.7431 28.5522 39.9185 27.7034C40.0065 26.9051 39.9617 26.0977 39.7857 25.3139C39.6346 24.5848 39.5755 23.8396 39.6099 23.0959C39.659 22.4479 39.7903 21.8087 40.0006 21.1936C40.3029 20.3051 40.7723 19.4822 41.3835 18.769C41.547 18.5744 41.7246 18.392 41.9148 18.2233C41.9777 18.1602 42.0471 18.104 42.1219 18.0557C42.1219 18.0557 41.8562 18.3129 41.4421 18.8353C40.8626 19.5559 40.4204 20.3763 40.1373 21.256C39.9449 21.8614 39.8307 22.4889 39.7974 23.1232C39.7682 23.8532 39.8312 24.584 39.9849 25.2983C40.1715 26.1016 40.2217 26.9304 40.1334 27.7502C39.9507 28.6237 39.5772 29.4462 39.0395 30.1592C38.5277 30.9038 37.9769 31.582 37.5472 32.3032C37.3358 32.6537 37.1604 33.0246 37.0237 33.4102C36.9005 33.7798 36.8256 34.1637 36.801 34.5524C36.7837 35.2858 36.8046 36.0196 36.8635 36.7509C36.9 37.4043 36.8501 38.0596 36.715 38.6999C36.521 39.6189 36.1494 40.4914 35.6212 41.2688C35.479 41.4712 35.3251 41.6651 35.1602 41.8496C35.0959 41.9181 35.0267 41.982 34.9531 42.0406Z" fill="#455A64"></path> <path d="M31.2534 42.6213C31.2862 42.531 31.3267 42.4436 31.3745 42.3602C31.4722 42.1769 31.5972 41.9314 31.7652 41.6312C32.0934 40.9919 32.5856 40.072 33.0661 38.9026C33.641 37.5275 33.9537 36.0574 33.9881 34.5679C33.9921 34.1384 33.9594 33.7094 33.8904 33.2854C33.824 32.8527 33.7224 32.4122 33.6599 31.9523C33.5774 31.4767 33.5867 30.9898 33.6873 30.5178C33.8194 30.0334 34.0911 29.5983 34.4686 29.2665C35.2031 28.596 36.0938 28.1633 36.5509 27.3798C36.9521 26.6036 37.1875 25.7528 37.2424 24.8811C37.3286 24.083 37.5096 23.2978 37.7815 22.5423C38.4006 20.9213 39.5056 19.5301 40.9459 18.5584C41.1746 18.4036 41.4134 18.2643 41.6608 18.1413C41.7444 18.0937 41.832 18.0532 41.9226 18.0205C41.9226 18.04 41.5749 18.2115 40.9889 18.6247C40.1684 19.2088 39.4581 19.9334 38.891 20.7648C38.4989 21.3348 38.18 21.9516 37.9417 22.6008C37.6754 23.3564 37.5035 24.142 37.4299 24.9396C37.376 25.8394 37.1352 26.7182 36.7228 27.5201C36.2227 28.3621 35.3046 28.8104 34.6054 29.4497C34.249 29.7583 33.9921 30.1652 33.867 30.6191C33.774 31.0657 33.7647 31.5257 33.8396 31.9757C33.9021 32.4239 34.0037 32.8644 34.0701 33.3088C34.1345 33.7424 34.1646 34.1803 34.16 34.6186C34.1076 36.1311 33.7654 37.6197 33.1521 39.0039C32.7506 39.9389 32.2953 40.8499 31.7886 41.7326L31.3745 42.4459C31.3398 42.5081 31.2993 42.5668 31.2534 42.6213Z" fill="#455A64"></path> <path d="M160.506 152.77C160.523 152.714 160.545 152.659 160.572 152.607L160.795 152.135C161.063 151.525 161.28 150.894 161.444 150.248C161.873 148.572 162.026 146.011 161.389 142.97C161.043 141.313 160.591 139.679 160.037 138.078C159.463 136.344 158.799 134.504 158.256 132.512C157.641 130.435 157.344 128.277 157.377 126.111C157.459 123.846 158.131 121.586 158.869 119.336C159.608 117.087 160.369 114.881 160.596 112.667C160.851 110.536 160.421 108.379 159.369 106.508C158.393 104.707 157.162 103.171 156.244 101.577C155.384 100.1 154.751 98.5039 154.365 96.8405C153.81 94.4292 153.769 91.9287 154.244 89.5004C154.417 88.6127 154.679 87.7443 155.025 86.9082C155.015 86.9681 155 87.0269 154.978 87.0836C154.939 87.2045 154.888 87.3682 154.826 87.5787C154.631 88.2193 154.47 88.8699 154.345 89.5277C153.909 91.9424 153.974 94.4208 154.537 96.8093C154.93 98.4533 155.566 100.03 156.424 101.487C157.342 103.046 158.58 104.606 159.576 106.41C160.653 108.32 161.095 110.522 160.838 112.698C160.612 114.951 159.842 117.169 159.107 119.418C158.373 121.667 157.705 123.901 157.619 126.127C157.588 128.271 157.878 130.407 158.479 132.465C159.014 134.445 159.67 136.285 160.237 138.028C160.788 139.637 161.233 141.28 161.569 142.947C162.186 146.011 162.01 148.599 161.569 150.279C161.395 150.927 161.162 151.557 160.873 152.162L160.627 152.626C160.537 152.72 160.506 152.77 160.506 152.77Z" fill="#263238"></path> <path d="M157.49 103.147C157.49 103.147 155.623 97.1832 158.975 93.6905C159.001 93.6624 159.034 93.6421 159.071 93.6317C159.108 93.6214 159.147 93.6215 159.184 93.632C159.22 93.6425 159.254 93.663 159.28 93.6912C159.305 93.7195 159.323 93.7543 159.33 93.7919C159.51 94.7781 159.732 97.7796 157.49 103.147Z" fill="#FFA808"></path> <path d="M158.611 95.6785C158.608 96.0483 158.566 96.4167 158.486 96.7778C158.365 97.5379 158.221 98.4267 158.06 99.409C157.9 100.391 157.764 101.284 157.642 102.04C157.608 102.409 157.542 102.774 157.443 103.132C157.409 102.761 157.421 102.388 157.478 102.021C157.537 101.339 157.658 100.403 157.83 99.3739C158.002 98.3448 158.178 97.4249 158.322 96.7505C158.379 96.3838 158.476 96.0243 158.611 95.6785Z" fill="#263238"></path> <path d="M159.69 117.219C159.69 117.219 160.83 111.072 165.432 109.552C165.469 109.539 165.508 109.537 165.545 109.545C165.583 109.553 165.617 109.572 165.645 109.599C165.672 109.625 165.692 109.659 165.701 109.696C165.711 109.733 165.71 109.773 165.698 109.809C165.397 110.76 164.186 113.52 159.69 117.219Z" fill="#FFA808"></path> <path d="M164.178 111.139C164.002 111.463 163.793 111.769 163.553 112.051L161.944 114.179C161.342 114.959 160.803 115.696 160.338 116.308C160.136 116.618 159.907 116.91 159.654 117.181C159.797 116.838 159.981 116.513 160.201 116.214C160.592 115.641 161.123 114.869 161.764 114.039C162.405 113.209 162.987 112.48 163.432 111.949C163.651 111.653 163.901 111.381 164.178 111.139Z" fill="#263238"></path> <path d="M158.443 132.636C158.443 132.636 157.752 126.423 161.709 123.632C161.74 123.609 161.777 123.596 161.816 123.593C161.854 123.59 161.892 123.598 161.926 123.616C161.961 123.634 161.989 123.661 162.009 123.694C162.028 123.727 162.038 123.765 162.037 123.803C162.026 124.801 161.674 127.791 158.443 132.636Z" fill="#FFA808"></path> <path d="M160.955 125.518C160.881 125.881 160.77 126.235 160.623 126.575L159.701 129.077C159.361 130.013 159.049 130.859 158.787 131.58C158.687 131.935 158.556 132.28 158.396 132.613C158.435 132.243 158.518 131.88 158.642 131.529C158.834 130.87 159.131 129.97 159.494 128.995C159.857 128.021 160.209 127.144 160.479 126.516C160.603 126.168 160.763 125.834 160.955 125.518Z" fill="#263238"></path> <path d="M161.912 148.127C161.912 148.127 161.44 141.89 165.499 139.247C165.53 139.227 165.567 139.215 165.605 139.214C165.643 139.213 165.68 139.222 165.713 139.24C165.746 139.259 165.774 139.286 165.792 139.319C165.811 139.352 165.82 139.389 165.819 139.427C165.772 140.444 165.311 143.418 161.912 148.127Z" fill="#FFA808"></path> <path d="M164.694 141.11C164.604 141.47 164.48 141.82 164.323 142.155C164.03 142.864 163.686 143.714 163.311 144.619L162.307 147.09C162.191 147.44 162.044 147.779 161.869 148.104C161.917 147.736 162.011 147.375 162.151 147.032C162.366 146.381 162.694 145.496 163.092 144.533C163.491 143.57 163.874 142.705 164.17 142.089C164.306 141.743 164.481 141.415 164.694 141.11Z" fill="#263238"></path> <path d="M154.806 97.9086C154.806 97.9086 149.251 95.0162 149.145 90.1787C149.143 90.1404 149.151 90.1021 149.169 90.0683C149.187 90.0345 149.215 90.0066 149.249 89.9878C149.282 89.969 149.32 89.9602 149.359 89.9622C149.397 89.9643 149.434 89.9772 149.466 89.9994C150.294 90.5685 152.579 92.5293 154.806 97.9086Z" fill="#FFA808"></path> <path d="M150.298 91.8389C150.556 92.1043 150.788 92.3941 150.989 92.7043L152.552 94.8638L154.115 97.0195C154.351 97.3031 154.561 97.607 154.744 97.9277C154.459 97.6893 154.203 97.4185 153.982 97.1208C153.544 96.5985 152.962 95.8501 152.353 95.0042C151.743 94.1583 151.212 93.3748 150.841 92.7979C150.623 92.5001 150.441 92.1784 150.298 91.8389Z" fill="#263238"></path> <path d="M160.768 110.706C160.768 110.706 155.048 108.156 154.646 103.334C154.643 103.296 154.65 103.258 154.667 103.224C154.684 103.19 154.71 103.162 154.743 103.142C154.775 103.121 154.812 103.111 154.85 103.11C154.888 103.11 154.926 103.12 154.958 103.139C155.818 103.666 158.221 105.486 160.768 110.706Z" fill="#FFA808"></path> <path d="M155.896 104.936C156.174 105.183 156.424 105.459 156.642 105.759L158.334 107.821L160.033 109.875C160.289 110.143 160.519 110.434 160.721 110.745C160.42 110.518 160.147 110.256 159.908 109.965C159.439 109.466 158.814 108.757 158.154 107.946C157.494 107.135 156.916 106.387 156.509 105.841C156.275 105.561 156.07 105.258 155.896 104.936Z" fill="#263238"></path> <path d="M157.478 125.012C157.478 125.012 153.552 120.139 155.392 115.656C155.406 115.621 155.43 115.59 155.46 115.567C155.491 115.544 155.527 115.53 155.565 115.526C155.603 115.523 155.641 115.53 155.676 115.546C155.71 115.563 155.739 115.589 155.759 115.621C156.287 116.483 157.596 119.192 157.478 125.012Z" fill="#FFA808"></path> <path d="M155.783 117.648C155.914 117.994 156.01 118.352 156.068 118.717L156.634 121.324C156.849 122.295 157.045 123.176 157.209 123.924C157.316 124.279 157.388 124.643 157.424 125.012C157.254 124.68 157.123 124.329 157.033 123.967C156.842 123.308 156.611 122.408 156.392 121.371C156.173 120.334 156.002 119.422 155.888 118.748C155.814 118.386 155.778 118.018 155.783 117.648Z" fill="#263238"></path> <path d="M161.365 141.828C161.365 141.828 155.693 139.181 155.369 134.351C155.366 134.313 155.373 134.275 155.391 134.241C155.409 134.207 155.435 134.178 155.468 134.159C155.501 134.139 155.538 134.129 155.577 134.129C155.615 134.129 155.653 134.14 155.685 134.16C156.537 134.694 158.904 136.554 161.365 141.828Z" fill="#FFA808"></path> <path d="M156.595 135.961C156.867 136.214 157.111 136.493 157.326 136.795L158.982 138.885L160.647 140.97C160.898 141.241 161.124 141.536 161.319 141.851C161.03 141.621 160.767 141.36 160.537 141.071C160.076 140.568 159.463 139.847 158.814 139.029C158.166 138.21 157.603 137.45 157.209 136.893C156.968 136.608 156.762 136.295 156.595 135.961Z" fill="#263238"></path> <path d="M172.675 117.251C172.683 117.297 172.683 117.345 172.675 117.391C172.675 117.5 172.675 117.629 172.675 117.781C172.656 118.171 172.636 118.666 172.609 119.297C172.535 120.631 172.433 122.486 172.308 124.708C171.917 126.969 170.745 129.475 169.183 131.908C168.046 133.701 166.839 135.334 165.823 136.847C164.885 138.179 164.042 139.575 163.299 141.025C162.816 142.004 162.424 143.024 162.127 144.074C162.03 144.444 161.955 144.736 161.912 144.935C161.895 145.038 161.867 145.139 161.826 145.235C161.831 145.132 161.844 145.029 161.865 144.927C161.893 144.725 161.955 144.428 162.041 144.05C162.304 142.975 162.679 141.93 163.159 140.932C163.883 139.48 164.713 138.083 165.643 136.753C166.663 135.225 167.851 133.592 168.98 131.81C170.523 129.386 171.671 126.918 172.105 124.692C172.261 122.474 172.394 120.619 172.496 119.286C172.546 118.654 172.585 118.148 172.617 117.773C172.617 117.617 172.644 117.485 172.656 117.384C172.658 117.339 172.664 117.294 172.675 117.251Z" fill="#263238"></path> <path d="M169.292 131.467C169.292 131.467 171.695 125.694 168.671 121.913C168.648 121.882 168.616 121.859 168.58 121.846C168.544 121.832 168.505 121.829 168.468 121.836C168.43 121.843 168.395 121.861 168.367 121.887C168.339 121.913 168.318 121.946 168.308 121.983C168.038 122.95 167.546 125.908 169.292 131.467Z" fill="#FFA808"></path> <path d="M168.855 123.928C168.958 124.284 169.021 124.65 169.042 125.019C169.128 125.698 169.222 126.637 169.3 127.678C169.378 128.719 169.409 129.662 169.409 130.344C169.431 130.715 169.407 131.086 169.339 131.451C169.276 131.088 169.243 130.721 169.241 130.352C169.19 129.572 169.132 128.688 169.065 127.694C168.999 126.7 168.933 125.799 168.878 125.035C168.83 124.668 168.822 124.297 168.855 123.928Z" fill="#263238"></path> <g opacity="0.3"> <path d="M169.292 131.467C169.292 131.467 171.695 125.694 168.671 121.913C168.648 121.882 168.616 121.859 168.58 121.846C168.544 121.832 168.505 121.829 168.468 121.836C168.43 121.843 168.395 121.861 168.367 121.887C168.339 121.913 168.318 121.946 168.308 121.983C168.038 122.95 167.546 125.908 169.292 131.467Z" fill="black"></path> </g> <path d="M161.846 145.375C161.846 145.375 163.772 139.431 160.451 135.907C160.426 135.879 160.393 135.858 160.356 135.848C160.319 135.837 160.28 135.837 160.244 135.847C160.207 135.857 160.174 135.877 160.148 135.905C160.121 135.933 160.104 135.967 160.096 136.004C159.908 136.987 159.654 139.984 161.846 145.375Z" fill="#FFA808"></path> <path d="M160.799 137.895C160.93 138.242 161.023 138.603 161.076 138.97C161.217 139.637 161.389 140.565 161.545 141.598C161.702 142.631 161.819 143.566 161.873 144.248C161.924 144.617 161.932 144.989 161.897 145.359C161.799 145.002 161.737 144.637 161.709 144.268C161.596 143.488 161.463 142.619 161.319 141.633C161.174 140.647 161.033 139.758 160.928 138.998C160.847 138.635 160.804 138.266 160.799 137.895Z" fill="#263238"></path> <g opacity="0.3"> <path d="M161.846 145.375C161.846 145.375 163.772 139.431 160.451 135.907C160.426 135.879 160.393 135.858 160.356 135.848C160.319 135.837 160.28 135.837 160.244 135.847C160.207 135.857 160.174 135.877 160.148 135.905C160.121 135.933 160.104 135.967 160.096 136.004C159.908 136.987 159.654 139.984 161.846 145.375Z" fill="black"></path> </g> <path d="M172.351 124.415C172.351 124.415 177.484 120.841 176.973 116.019C176.969 115.981 176.955 115.944 176.933 115.913C176.91 115.883 176.879 115.859 176.843 115.845C176.807 115.831 176.768 115.827 176.731 115.833C176.693 115.84 176.658 115.857 176.629 115.882C175.875 116.553 173.847 118.794 172.351 124.415Z" fill="#FFA808"></path> <g opacity="0.3"> <path d="M172.351 124.415C172.351 124.415 177.484 120.841 176.973 116.019C176.969 115.981 176.955 115.944 176.933 115.913C176.91 115.883 176.879 115.859 176.843 115.845C176.807 115.831 176.768 115.827 176.731 115.833C176.693 115.84 176.658 115.857 176.629 115.882C175.875 116.553 173.847 118.794 172.351 124.415Z" fill="black"></path> </g> <path d="M176.035 117.815C175.934 118.171 175.791 118.514 175.609 118.837C175.316 119.457 174.894 120.299 174.394 121.218C173.894 122.138 173.422 122.953 173.054 123.53C172.874 123.854 172.655 124.155 172.402 124.427C172.542 124.085 172.712 123.756 172.91 123.444C173.281 122.77 173.691 121.979 174.191 121.105C174.691 120.232 175.097 119.437 175.461 118.767C175.621 118.432 175.813 118.113 176.035 117.815Z" fill="#263238"></path> <path d="M163.917 139.481C163.917 139.481 170.105 138.518 171.765 133.973C171.779 133.937 171.782 133.899 171.775 133.861C171.768 133.823 171.751 133.788 171.725 133.76C171.699 133.731 171.665 133.711 171.628 133.7C171.591 133.69 171.552 133.69 171.515 133.7C170.55 133.973 167.753 135.1 163.917 139.481Z" fill="#FFA808"></path> <g opacity="0.3"> <path d="M163.917 139.481C163.917 139.481 170.105 138.518 171.765 133.973C171.779 133.937 171.782 133.899 171.775 133.861C171.768 133.823 171.751 133.788 171.725 133.76C171.699 133.731 171.665 133.711 171.628 133.7C171.591 133.69 171.552 133.69 171.515 133.7C170.55 133.973 167.753 135.1 163.917 139.481Z" fill="black"></path> </g> <path d="M170.136 135.178C169.886 135.45 169.607 135.695 169.304 135.907C168.769 136.336 168.015 136.905 167.163 137.509C166.311 138.113 165.522 138.639 164.936 138.994C164.632 139.208 164.303 139.384 163.956 139.516C164.23 139.268 164.528 139.047 164.846 138.858L167.026 137.322L169.202 135.763C169.493 135.537 169.806 135.341 170.136 135.178Z" fill="#263238"></path> <path d="M158.01 150.849L156.205 162.972H167.456L165.999 150.849H158.01Z" fill="#4968B2"></path> <path d="M166.448 154.602C166.448 154.669 164.417 154.719 161.912 154.719C159.408 154.719 157.373 154.669 157.373 154.602C158.883 154.487 160.398 154.448 161.912 154.486C163.425 154.448 164.939 154.487 166.448 154.602Z" fill="#263238"></path> <path d="M166.671 155.569C166.671 155.631 164.573 155.686 161.983 155.686C159.393 155.686 157.295 155.631 157.295 155.569C157.295 155.507 159.393 155.452 161.983 155.452C164.573 155.452 166.671 155.503 166.671 155.569Z" fill="#263238"></path> <path d="M122.92 33.239C122.92 33.239 122.814 33.239 122.615 33.239C122.317 33.2214 122.018 33.2214 121.72 33.239C120.574 33.3042 119.448 33.568 118.392 34.0186C116.714 34.7196 115.254 35.8538 114.161 37.3047C113.489 38.2107 112.99 39.232 112.688 40.3179C112.347 41.6013 112.264 42.9393 112.442 44.255C112.62 45.5707 113.057 46.8384 113.727 47.9854C114.095 48.6245 114.541 49.2151 115.056 49.7435C115.574 50.3058 116.181 50.7798 116.853 51.1468C117.54 51.5357 118.321 51.7323 119.111 51.7159C119.924 51.7054 120.703 51.3911 121.295 50.835C121.58 50.5359 121.803 50.1837 121.952 49.7984C122.101 49.4132 122.172 49.0024 122.162 48.5897C122.157 47.7314 121.884 46.8961 121.381 46.2001C120.365 44.7773 118.724 43.8223 116.982 43.3077C115.17 42.8001 113.256 42.7733 111.43 43.2298C110.498 43.4698 109.601 43.826 108.758 44.2901C107.908 44.7691 107.134 45.3736 106.465 46.0832C106.294 46.2607 106.132 46.4468 105.98 46.6406L105.539 47.2331C105.267 47.6488 105.027 48.084 104.82 48.5351C104.401 49.4475 104.114 50.4149 103.969 51.408C103.685 53.3916 103.955 55.4149 104.75 57.2551C105.508 59.0555 106.832 60.5606 108.524 61.543C109.339 62.0129 110.252 62.2902 111.192 62.3538C112.114 62.4053 113.031 62.1857 113.829 61.7223C114.621 61.2843 115.248 60.5998 115.614 59.7733C115.945 58.958 115.959 58.0489 115.653 57.2239C115.348 56.4195 114.843 55.7058 114.184 55.1501C113.55 54.6013 112.817 54.1768 112.024 53.8988C110.481 53.4129 108.829 53.3845 107.27 53.817C105.809 54.2115 104.468 54.957 103.363 55.9882C102.357 56.9499 101.591 58.1344 101.128 59.4458C100.313 61.7203 100.349 64.2124 101.23 66.4624C101.917 68.1432 103.026 69.6196 104.449 70.7503C105.342 71.4685 106.339 72.0469 107.406 72.4654C107.774 72.6058 108.055 72.7071 108.25 72.7617L108.539 72.8552C108.539 72.8552 108.438 72.8357 108.242 72.7812C108.047 72.7266 107.762 72.6408 107.391 72.5044C106.311 72.0986 105.301 71.5264 104.398 70.8087C102.955 69.6847 101.827 68.2077 101.124 66.5208C100.225 64.2492 100.178 61.7299 100.992 59.4263C101.463 58.0976 102.237 56.8965 103.254 55.9181C104.376 54.8689 105.736 54.1077 107.219 53.7C108.812 53.2565 110.5 53.2835 112.079 53.778C112.894 54.0617 113.648 54.4969 114.302 55.0605C114.984 55.6362 115.508 56.3753 115.825 57.2083C116.148 58.0771 116.135 59.035 115.786 59.8941C115.402 60.7547 114.748 61.4674 113.923 61.925C113.095 62.4065 112.145 62.6368 111.188 62.5877C110.217 62.5203 109.275 62.2352 108.43 61.7535C106.704 60.7552 105.349 59.2244 104.57 57.3915C103.754 55.5173 103.476 53.4541 103.765 51.4314C103.979 49.9121 104.526 48.4587 105.367 47.1746L105.816 46.5704C105.961 46.3638 106.148 46.1806 106.313 46.0013C106.997 45.2764 107.787 44.6587 108.657 44.1692C109.519 43.6954 110.438 43.3326 111.391 43.0895C113.249 42.6258 115.197 42.6554 117.04 43.1752C118.822 43.7054 120.49 44.676 121.541 46.1495C122.069 46.875 122.356 47.7475 122.361 48.6442C122.379 49.5266 122.046 50.3802 121.435 51.0182C120.81 51.6036 119.988 51.9333 119.13 51.942C118.31 51.9586 117.5 51.7539 116.786 51.3495C116.1 50.9722 115.48 50.4864 114.95 49.9111C114.426 49.3729 113.974 48.7703 113.602 48.118C112.926 46.9498 112.486 45.6599 112.31 44.3221C112.134 42.9842 112.224 41.6249 112.575 40.3218C112.876 39.2055 113.385 38.1556 114.075 37.2267C115.187 35.7651 116.671 34.6277 118.372 33.9329C119.439 33.4927 120.575 33.2445 121.728 33.2C122.027 33.1783 122.328 33.1783 122.627 33.2C122.818 33.2273 122.92 33.239 122.92 33.239Z" fill="#263238"></path> <path d="M135.968 72.2432H81.1926V114.397H135.968V72.2432Z" fill="#FFA808"></path> <path d="M81.1926 72.2432L91.307 81.661H145.157L135.968 72.2432H81.1926Z" fill="#FFA808"></path> <path d="M81.1926 72.243L135.953 72.1455H135.992L136.023 72.1767L145.118 81.497L145.211 81.5906L145.379 81.766H145.141L91.2914 81.7231H91.268L81.1926 72.2625L91.35 81.6179H91.307L145.157 81.5789L145.082 81.7504L144.989 81.6529L135.894 72.3326L135.968 72.3638L81.1926 72.243Z" fill="#263238"></path> <path d="M97.6437 91.6826C97.3594 91.6933 97.0907 91.8149 96.8953 92.0213C96.6999 92.2276 96.5935 92.5022 96.5988 92.786C96.6042 93.0698 96.721 93.3402 96.924 93.539C97.1271 93.7378 97.4002 93.8492 97.6847 93.8492C97.9692 93.8492 98.2423 93.7378 98.4454 93.539C98.6484 93.3402 98.7652 93.0698 98.7706 92.786C98.7759 92.5022 98.6695 92.2276 98.4741 92.0213C98.2787 91.8149 98.01 91.6933 97.7257 91.6826" fill="#263238"></path> <path d="M110.579 91.6826C110.295 91.6933 110.028 91.8145 109.833 92.0201C109.638 92.2257 109.532 92.4993 109.538 92.7821C109.543 93.0649 109.66 93.3342 109.862 93.5323C110.064 93.7304 110.336 93.8414 110.62 93.8414C110.903 93.8414 111.175 93.7304 111.378 93.5323C111.58 93.3342 111.696 93.0649 111.702 92.7821C111.707 92.4993 111.601 92.2257 111.406 92.0201C111.212 91.8145 110.944 91.6933 110.661 91.6826" fill="#263238"></path> <path d="M110.661 101.771C110.437 100.909 110.07 100.091 109.575 99.3501C109.026 98.5575 108.323 97.8828 107.508 97.366C106.522 96.7127 105.371 96.3494 104.188 96.3177C103.004 96.286 101.836 96.5871 100.816 97.1867C99.9714 97.6542 99.231 98.2881 98.6398 99.05C98.1042 99.7549 97.6933 100.546 97.4248 101.389C97.4257 101.327 97.4362 101.265 97.4561 101.206C97.4918 101.03 97.5387 100.857 97.5967 100.687C97.8121 100.062 98.1246 99.4737 98.5226 98.9447C99.1115 98.1491 99.8607 97.4852 100.722 96.9957C101.768 96.3693 102.972 96.0542 104.191 96.0873C105.411 96.1205 106.595 96.5005 107.606 97.1828C108.437 97.7173 109.149 98.4181 109.696 99.241C110.065 99.7915 110.344 100.397 110.524 101.034C110.572 101.207 110.61 101.383 110.637 101.56C110.659 101.628 110.667 101.7 110.661 101.771Z" fill="#263238"></path> <path opacity="0.5" d="M81.3137 72.7071L91.0022 84.9627H135.968V81.661H91.307L81.3137 72.7071Z" fill="black"></path> <path d="M125.166 114.304C125.108 114.304 125.065 106.971 125.065 97.9316C125.065 88.892 125.108 81.5597 125.166 81.5597C125.225 81.5597 125.268 88.892 125.268 97.9316C125.268 106.971 125.221 114.304 125.166 114.304Z" fill="#263238"></path> <path d="M133.765 104.745H128.936V110.191H133.765V104.745Z" fill="#D9B15E"></path> <path d="M81.1925 72.2432L69.9452 81.661H81.1925V72.2432Z" fill="#FFA808"></path> <g opacity="0.4"> <path d="M81.1925 72.2432L69.9452 81.661H81.1925V72.2432Z" fill="black"></path> </g> <path d="M137.586 114.397H74.606V162.866H137.586V114.397Z" fill="#FFA808"></path> <path opacity="0.3" d="M137.586 114.397H74.606V162.866H137.586V114.397Z" fill="black"></path> <path d="M121.803 162.523C121.748 162.523 121.701 151.721 121.701 138.398C121.701 125.074 121.748 114.269 121.803 114.269C121.857 114.269 121.904 125.07 121.904 138.398C121.904 151.725 121.861 162.523 121.803 162.523Z" fill="#263238"></path> <path d="M132.245 151.834H127.417V157.28H132.245V151.834Z" fill="#D9B15E"></path> <path d="M100.972 114.521H93.8188V124.863H100.972V114.521Z" fill="#4968B2"></path> <path d="M100.972 152.38H93.819V162.722H100.972V152.38Z" fill="#4968B2"></path> <path d="M137.035 114.397H136.874H136.398H134.581L127.893 114.432L105.82 114.46L83.7475 114.432L77.0554 114.397H75.2388H74.7661C74.7128 114.403 74.6591 114.403 74.6059 114.397C74.6592 114.393 74.7127 114.393 74.7661 114.397H75.2388L77.0554 114.378L83.7475 114.346L105.82 114.315L127.893 114.346L134.581 114.378L136.398 114.397H136.874C136.928 114.394 136.981 114.394 137.035 114.397Z" fill="#263238"></path> <path d="M29.1008 30.4826L22.2446 28.7986H22.2954C20.5218 29.9212 18.4728 30.5348 16.3729 30.5723C15.1291 30.5696 13.8927 30.3817 12.7045 30.0148C10.6182 29.3446 8.7668 28.0944 7.36761 26.4111C5.96842 24.7277 5.07951 22.6811 4.80519 20.5113C4.59426 18.8659 4.74881 17.1944 5.25788 15.6153C5.76695 14.0362 6.61806 12.5883 7.75083 11.3742C8.34775 10.7283 9.01467 10.1504 9.73933 9.65124C10.1105 9.42126 10.4738 9.18347 10.8566 8.98467L11.4387 8.70401L11.72 8.57537L12.0208 8.46622C13.5901 7.86157 15.2724 7.60485 16.9511 7.71389C19.2004 7.8546 21.3577 8.65677 23.1508 10.0193C24.9438 11.3817 26.2924 13.2435 27.0264 15.3697C27.4321 16.5603 27.6458 17.8077 27.6593 19.0651C27.6702 21.1545 27.1024 23.2064 26.0185 24.9941V24.9473C27.9249 28.3776 28.8899 30.1123 29.1008 30.4982L25.913 24.9902V24.959V24.9278C26.9593 23.1578 27.4998 21.1356 27.4757 19.0807C27.4556 17.8436 27.2394 16.6174 26.835 15.4477C25.9032 12.7441 23.9701 10.4986 21.432 9.17178C20.0421 8.44471 18.5136 8.01959 16.9472 7.92439C15.3005 7.81744 13.6503 8.06882 12.1107 8.66113L11.8138 8.77028L11.5286 8.90671L10.9582 9.18347C10.5675 9.37838 10.2277 9.61226 9.86434 9.83835C9.15221 10.3281 8.49705 10.8955 7.911 11.5301C6.85873 12.6706 6.05439 14.016 5.54858 15.4817C5.04277 16.9474 4.84644 18.5017 4.97193 20.0468C5.09743 21.5919 5.54204 23.0943 6.27779 24.4596C7.01354 25.825 8.0245 27.0236 9.24709 27.98C10.2972 28.8091 11.4881 29.4428 12.7631 29.8511C13.9321 30.2135 15.1487 30.4 16.3729 30.4047C18.4467 30.3827 20.4744 29.7906 22.2329 28.6934H22.2563H22.2837L29.1008 30.4826Z" fill="#263238"></path> <path d="M15.236 14.0335L15.6267 19.7598C15.6422 19.9853 15.7389 20.1975 15.8991 20.3573C16.0592 20.5171 16.2719 20.6136 16.4979 20.6291C16.7336 20.6385 16.9641 20.5584 17.1431 20.4051C17.3221 20.2518 17.4363 20.0366 17.4628 19.8027L18.0996 14.0608C18.11 13.9585 18.0987 13.8552 18.0665 13.7576C18.0343 13.6599 17.9819 13.5701 17.9126 13.494C17.8433 13.4179 17.7588 13.3572 17.6645 13.3159C17.5701 13.2745 17.4682 13.2534 17.3651 13.2539H15.9665C15.8663 13.2542 15.7673 13.275 15.6754 13.315C15.5836 13.3549 15.5009 13.4132 15.4325 13.4862C15.364 13.5593 15.3113 13.6455 15.2775 13.7396C15.2437 13.8337 15.2296 13.9338 15.236 14.0335Z" fill="#FFA808"></path> <path d="M18.002 23.841C17.9152 24.1032 17.7524 24.3338 17.5342 24.5036C17.316 24.6735 17.0523 24.7749 16.7763 24.7951C16.5003 24.8153 16.2245 24.7533 15.9838 24.6171C15.7431 24.4808 15.5483 24.2764 15.4242 24.0296C15.3 23.7829 15.2519 23.5049 15.2861 23.2309C15.3203 22.9569 15.4352 22.6992 15.6162 22.4903C15.7973 22.2815 16.0363 22.131 16.3032 22.0578C16.57 21.9845 16.8526 21.992 17.1152 22.0791C17.2896 22.1364 17.4509 22.2275 17.5899 22.3471C17.7289 22.4668 17.8429 22.6126 17.9253 22.7763C18.0077 22.94 18.0568 23.1183 18.07 23.301C18.0832 23.4837 18.0601 23.6672 18.002 23.841Z" fill="#FFA808"></path> </g> <defs> <clipPath id="clip0_508_3507"> <rect width="177" height="166" fill="white"></rect> </clipPath> </defs> </svg> 