<svg width="12" height="20" viewBox="0 0 12 20" fill="none" xmlns="http://www.w3.org/2000/svg">
<path d="M10.929 8.71896C10.4376 8.3533 9.81924 8.24447 9.23244 8.42045C8.3633 8.68111 7.47377 8.83443 6.5806 8.88076V7.98787C8.03302 7.7147 9.1356 6.43755 9.1356 4.907C9.1356 4.21696 8.71697 3.2729 7.85584 2.02082C7.23677 1.12082 6.58767 0.356876 6.46423 0.213282C6.34783 0.0777345 6.17865 0 6.00001 0C5.82134 0 5.65216 0.0777345 5.53614 0.212891C5.41232 0.356915 4.76321 1.12082 4.14419 2.02082C3.28301 3.2729 2.86442 4.21696 2.86442 4.907C2.86442 6.43376 3.96149 7.70845 5.40853 7.98591V8.88021C4.51938 8.8331 3.63391 8.67994 2.76868 8.42045C2.18196 8.24455 1.5636 8.3533 1.07211 8.71896C0.580665 9.08463 0.298828 9.64572 0.298828 10.2583V18.1889C0.298828 19.1876 1.11129 20 2.10993 20H9.89115C10.8898 20 11.7023 19.1875 11.7023 18.1889V10.2583C11.7023 9.64568 11.4204 9.08463 10.929 8.71896ZM4.03649 4.90704C4.03649 4.24095 4.96739 2.77192 6.00001 1.48809C7.03251 2.77169 7.96353 4.24091 7.96353 4.90704C7.96353 5.78771 7.38072 6.53474 6.58064 6.7829V5.97907C6.58064 5.65544 6.31826 5.39302 5.99458 5.39302C5.67095 5.39302 5.40853 5.6554 5.40853 5.97907V6.77939C4.61399 6.52779 4.03649 5.78364 4.03649 4.90704ZM10.5302 18.1889C10.5302 18.5413 10.2435 18.828 9.89115 18.828H2.10996C1.75758 18.828 1.47094 18.5413 1.47094 18.1889V10.2583C1.47094 10.0199 1.58059 9.80158 1.77184 9.65928C1.90305 9.56166 2.0575 9.51103 2.21532 9.51103C2.28747 9.51103 2.36036 9.52162 2.432 9.5431C4.76649 10.2432 7.23459 10.2432 9.56912 9.5431C9.79744 9.47455 10.038 9.51693 10.2292 9.65928C10.4205 9.80158 10.5301 10.0199 10.5301 10.2583L10.5302 18.1889Z" fill="#0C9E6A"/>
</svg>
