<svg width="20" height="19" viewBox="0 0 20 19" fill="none" xmlns="http://www.w3.org/2000/svg">
<path fill-rule="evenodd" clip-rule="evenodd" d="M9.99967 0.833344C10.4723 0.833344 10.9006 1.11166 11.0931 1.54372L13.1269 6.11072L18.0949 6.63554C18.5648 6.68519 18.9617 7.00697 19.1077 7.45686C19.2537 7.90676 19.1217 8.40054 18.7706 8.71722L15.0597 12.0646L16.0962 16.956C16.1942 17.4187 16.0111 17.8959 15.6287 18.1739C15.2464 18.452 14.7364 18.4789 14.327 18.2425L9.99967 15.7443L5.67233 18.2425C5.26294 18.4789 4.75295 18.452 4.3706 18.1739C3.98826 17.8959 3.80513 17.4187 3.90319 16.956L4.9397 12.0646L1.22875 8.71722C0.877671 8.40054 0.7456 7.90676 0.891643 7.45686C1.03769 7.00697 1.4345 6.68519 1.9045 6.63554L6.87244 6.11072L8.90629 1.54372C9.0987 1.11166 9.52707 0.833344 9.99967 0.833344ZM7.68472 7.22977L2.03015 7.82713L6.254 11.6372L5.07424 17.2046L9.99967 14.3611L14.9251 17.2046L13.7454 11.6372L17.9692 7.82713L12.3146 7.22977L9.99967 2.03155L7.68472 7.22977Z" fill="#0C9E6A"/>
</svg>
