<svg width="20" height="20" viewBox="0 0 20 20" fill="none" xmlns="http://www.w3.org/2000/svg">
<path d="M11.8933 0.142617C11.3083 0.0466406 10.7784 0 10.2734 0C4.78098 0 0.3125 4.48598 0.3125 10C0.3125 15.514 4.78098 20 10.2734 20C14.5112 20 18.2821 17.2589 19.6568 13.1791C19.7476 12.9096 19.6319 12.6139 19.3823 12.4777C19.1328 12.3414 18.8214 12.404 18.6439 12.6261C17.2989 14.3085 15.3158 15.2734 13.2031 15.2734C9.32609 15.2734 6.17187 12.1192 6.17187 8.24219C6.17187 4.83797 8.5834 1.91699 11.9059 1.29684C12.1857 1.24461 12.3875 0.998984 12.3843 0.714414C12.3812 0.429883 12.1741 0.188711 11.8933 0.142617ZM5 8.24219C5 12.7654 8.67992 16.4453 13.2031 16.4453C14.609 16.4453 15.965 16.081 17.1617 15.4054C15.5348 17.5239 13.0145 18.8281 10.2734 18.8281C5.42715 18.8281 1.48437 14.8679 1.48437 10C1.48437 5.63754 4.65129 2.00391 8.79695 1.29645C6.3723 2.85297 5 5.50859 5 8.24219Z" fill="#0C9E6A"/>
<path d="M16.7078 6.91262C16.6391 6.70156 16.4572 6.54738 16.2377 6.51433L14.1056 6.1934L13.1412 4.26425C13.042 4.0657 12.8391 3.94031 12.6171 3.94031C12.3952 3.94031 12.1923 4.0657 12.093 4.26425L11.1287 6.1934L8.99655 6.51433C8.7771 6.54738 8.59515 6.70152 8.52651 6.91262C8.45792 7.12367 8.5144 7.35535 8.67249 7.51113L10.2085 9.02453L9.85444 11.1518C9.818 11.3707 9.90843 11.5914 10.088 11.7219C10.2675 11.8524 10.5054 11.8703 10.7023 11.7681L12.6172 10.7745L14.532 11.7681C14.729 11.8702 14.9668 11.8524 15.1464 11.7219C15.3259 11.5914 15.4163 11.3707 15.3799 11.1518L15.0259 9.02453L16.5619 7.51113C16.7198 7.35539 16.7764 7.12367 16.7078 6.91262ZM13.9866 8.40332C13.8507 8.53715 13.7886 8.72875 13.8198 8.91688L14.0314 10.1881L12.887 9.59434C12.8024 9.55043 12.7098 9.52848 12.6171 9.52848C12.5245 9.52848 12.4319 9.55043 12.3473 9.59434L11.2028 10.1881L11.4144 8.91688C11.4457 8.72875 11.3835 8.53715 11.2476 8.40332L10.3296 7.49879L11.604 7.30699C11.7926 7.27859 11.9556 7.16019 12.0409 6.98957L12.6171 5.83675L13.1934 6.98957C13.2787 7.16019 13.4416 7.27859 13.6303 7.30699L14.9046 7.49879L13.9866 8.40332Z" fill="#0C9E6A"/>
</svg>
