<svg width="20" height="20" viewBox="0 0 20 20" fill="none" xmlns="http://www.w3.org/2000/svg">
<path d="M19.8257 13.1573L15.3148 9.43588V8.08578C15.3148 7.91092 15.2367 7.74521 15.1018 7.63382L10.6274 3.94241V2.46094H11.55C11.8735 2.46094 12.1359 2.19849 12.1359 1.875C12.1359 1.55136 11.8735 1.28906 11.55 1.28906H10.6274V0.585938C10.6274 0.262299 10.365 0 10.0415 0C9.71786 0 9.45557 0.262299 9.45557 0.585938V1.28906H8.53302C8.20938 1.28906 7.94708 1.55136 7.94708 1.875C7.94708 2.19849 8.20938 2.46094 8.53302 2.46094H9.45557V3.94257L4.98123 7.63382C4.84619 7.74521 4.76807 7.91092 4.76807 8.08578V9.43176L0.252075 13.1573C0.117188 13.2686 0.0390625 13.4344 0.0390625 13.6093V19.4141C0.0390625 19.7377 0.301361 20 0.625 20H19.4528C19.7765 20 20.0388 19.7377 20.0388 19.4141V13.6093C20.0388 13.4344 19.9606 13.2686 19.8257 13.1573V13.1573ZM1.21094 13.8855L4.76807 10.9509V18.8281H1.21094V13.8855ZM5.93994 8.36197L10.0415 4.97833L14.1429 8.36197V18.8278H12.3827V15.1169C12.3827 14.9211 12.2847 14.7382 12.1217 14.6295L10.3639 13.4576C10.1671 13.3264 9.91074 13.3264 9.7139 13.4576L7.95609 14.6295C7.79312 14.7382 7.69516 14.9211 7.69516 15.1169V18.8278H5.93994V8.36197ZM8.86703 18.8278V15.4306L10.0389 14.6494L11.2108 15.4306V18.8278H8.86703ZM18.8669 18.8281H15.3148V10.9552L18.8669 13.8855V18.8281Z" fill="#0C9E6A"/>
</svg>
