<svg width="16" height="20" viewBox="0 0 16 20" fill="none" xmlns="http://www.w3.org/2000/svg">
<path d="M15.1875 12.5H13.625C11.5827 12.5 9.76621 13.4847 8.625 15.0041V12.1505C11.2391 11.8461 13.3125 9.62421 13.3125 6.87499C13.3125 4.89116 13.8087 3.6128 14.2179 2.38515C14.3527 1.98093 14.0514 1.56249 13.625 1.56249C12.5584 1.56249 11.5275 1.76448 10.5545 2.163L8.42742 0.169012C8.18703 -0.0563782 7.81297 -0.0563782 7.57254 0.169012L5.44355 2.16475C4.49629 1.77694 3.46027 1.56249 2.375 1.56249C1.94895 1.56249 1.64723 1.98057 1.78207 2.38515C2.21191 3.67464 2.6875 4.90737 2.6875 6.87499C2.6875 9.59288 4.73914 11.8402 7.375 12.1505V14.0666C6.23379 12.5472 4.41727 11.5625 2.375 11.5625H0.8125C0.467344 11.5625 0.1875 11.8423 0.1875 12.1875C0.1875 15.6337 2.99125 18.4375 6.4375 18.4375H7.375V19.375C7.375 19.7201 7.65484 20 8 20C8.34516 20 8.625 19.7201 8.625 19.375H9.5625C13.0087 19.375 15.8125 16.5712 15.8125 13.125C15.8125 12.7798 15.5327 12.5 15.1875 12.5ZM6.4375 17.1875C3.89219 17.1875 1.78496 15.2755 1.47637 12.8125H2.375C4.92031 12.8125 7.02754 14.7244 7.33613 17.1875H6.4375ZM12.0625 6.87499C12.0625 8.18288 11.4351 9.353 10.4658 10.0976C10.4879 9.96405 10.5 9.82718 10.5 9.68749C10.5 7.8364 9.8773 6.12827 8.83102 4.76054C9.87422 3.74491 11.2367 3.06026 12.7392 2.86839C12.3055 4.16929 12.0625 5.42058 12.0625 6.87499V6.87499ZM8 1.48167L9.36914 2.76511C8.87668 3.06827 8.4177 3.42354 7.9973 3.82753C7.58086 3.4278 7.12195 3.0721 6.62824 2.76753L8 1.48167ZM3.9375 6.87499C3.9375 5.41671 3.69527 4.17218 3.26109 2.86933C6.63512 3.30526 9.25 6.19671 9.25 9.68749C9.25 10.3632 8.70316 10.9505 7.9625 10.937C5.73969 10.9168 3.9375 9.10253 3.9375 6.87499ZM9.5625 18.125H8.66387C8.97246 15.6619 11.0797 13.75 13.625 13.75H14.5236C14.215 16.213 12.1078 18.125 9.5625 18.125Z" fill="#0C9E6A"/>
</svg>
