<svg width="20" height="16" viewBox="0 0 20 16" fill="none" xmlns="http://www.w3.org/2000/svg">
<path d="M18.5415 3.96276C18.6153 3.81741 18.6699 3.6612 18.7023 3.49686C18.8927 2.53053 18.2616 1.58944 17.2952 1.39897C16.8271 1.30671 16.3511 1.40229 15.9548 1.66803L16.6088 2.64307C16.7446 2.55198 16.9078 2.51921 17.0682 2.55085C17.3994 2.61616 17.6157 2.9387 17.5505 3.26987C17.5189 3.4303 17.4266 3.56882 17.2908 3.65991C17.1901 3.72745 17.0743 3.76276 16.9558 3.76366H14.3195C14.1825 3.44964 13.9615 3.17636 13.6806 2.97776C13.6992 2.87143 13.7087 2.76323 13.7087 2.65456C13.7087 2.15569 13.5145 1.68675 13.1618 1.33409C12.8091 0.981355 12.3401 0.787136 11.8413 0.787136C11.7327 0.787136 11.6244 0.796628 11.5181 0.815222C11.1743 0.32905 10.6074 0.0206909 9.99094 0.0206909C9.37445 0.0206909 8.80758 0.329011 8.46383 0.815222C8.35746 0.796628 8.24922 0.787136 8.14055 0.787136C7.64184 0.787136 7.17289 0.981355 6.81996 1.33417C6.38383 1.77042 6.20113 2.38987 6.30234 2.97706C6.02098 3.17569 5.79961 3.44928 5.66246 3.7637H3.04441C2.92582 3.7628 2.80996 3.72753 2.70918 3.65995C2.57336 3.56886 2.48113 3.43034 2.44953 3.26991C2.38426 2.93874 2.60059 2.61616 2.9318 2.55089C3.09227 2.51925 3.25543 2.55202 3.39121 2.64311L4.0452 1.66807C3.64895 1.40233 3.17285 1.30675 2.7048 1.39901C1.73844 1.58948 1.10727 2.53061 1.2977 3.4969C1.33008 3.66124 1.38469 3.81745 1.45852 3.9628C0.601289 4.33495 0 5.18936 0 6.1819C0 7.5153 1.08484 8.60011 2.4182 8.60011C3.7516 8.60011 4.83641 7.5153 4.83641 6.1819H3.66242C3.66242 6.86796 3.10426 7.42608 2.41824 7.42608C1.73223 7.42608 1.17406 6.86796 1.17406 6.1819C1.17406 5.49585 1.73223 4.93772 2.41824 4.93772H5.55859C5.66547 5.381 5.93223 5.77163 6.30227 6.03288C6.20109 6.6201 6.38387 7.2396 6.82008 7.67581C7.08449 7.94022 7.41422 8.11557 7.77289 8.18679C6.51965 8.79315 5.65316 10.0776 5.65316 11.5607V12.2C5.65316 12.2 7.76766 12.1182 8.1718 11.9686C8.15664 12.0988 8.14758 12.2313 8.14758 12.3664C8.14758 14.2862 10.026 15.9793 10.026 15.9793C10.026 15.9793 11.9045 14.4498 11.9045 12.3664C11.9045 12.2291 11.8951 12.0945 11.8795 11.9623C12.2883 12.1158 14.4148 12.2 14.4148 12.2V11.5607C14.4148 10.0668 13.5355 8.77448 12.2673 8.17374C12.6033 8.09569 12.9118 7.92581 13.1618 7.67585C13.5145 7.32319 13.7087 6.85421 13.7087 6.35538C13.7087 6.24667 13.6992 6.1385 13.6806 6.03217C14.0501 5.77092 14.3165 5.38061 14.4232 4.93776H17.5818C18.2679 4.93776 18.826 5.49589 18.826 6.18194C18.826 6.868 18.2678 7.42612 17.5818 7.42612C16.8958 7.42612 16.3376 6.868 16.3376 6.18194H15.1636C15.1636 7.51534 16.2484 8.60014 17.5818 8.60014C18.9152 8.60014 20 7.51534 20 6.18194C20 5.18936 19.3987 4.33495 18.5415 3.96276ZM9.39102 8.98921C9.1448 10.1489 8.1143 11.0223 6.88309 11.026C7.12934 9.8662 8.15984 8.99288 9.39102 8.98921ZM10.0269 14.2475C9.70914 13.8058 9.3216 13.1137 9.3216 12.3664C9.3216 11.6156 9.70773 10.9256 10.0252 10.4852C10.3429 10.927 10.7305 11.619 10.7305 12.3664C10.7305 13.1172 10.3443 13.8072 10.0269 14.2475ZM13.1848 11.0259C11.9536 11.0223 10.9231 10.1489 10.6769 8.98917C11.9081 8.99288 12.9386 9.8662 13.1848 11.0259ZM12.7995 5.17143L12.0913 5.37581L12.449 6.0203C12.5058 6.12264 12.5346 6.23534 12.5346 6.3553C12.5346 6.54053 12.4625 6.71464 12.3316 6.84561C12.2006 6.97655 12.0265 7.0487 11.8413 7.0487C11.7214 7.0487 11.6087 7.01987 11.5063 6.96307L10.8618 6.6053L10.6574 7.31354C10.5722 7.60889 10.2981 7.81514 9.9909 7.81514C9.68367 7.81514 9.40961 7.60886 9.32437 7.31354L9.11996 6.6053L8.47547 6.96307C8.37313 7.01987 8.26043 7.0487 8.14051 7.0487C7.95531 7.0487 7.78121 6.97655 7.65023 6.84561C7.43297 6.62835 7.38508 6.28858 7.53379 6.01932L7.88945 5.37526L7.1825 5.17147C6.88699 5.08632 6.68066 4.81218 6.68066 4.50491C6.68066 4.19761 6.88703 3.9235 7.18254 3.83835L7.88965 3.63456L7.53379 2.99042C7.38508 2.72124 7.43297 2.38147 7.65008 2.16428C7.78113 2.03327 7.95531 1.96112 8.14051 1.96112C8.26043 1.96112 8.37313 1.98995 8.47547 2.04675L9.11996 2.40452L9.32437 1.69628C9.40961 1.40093 9.68367 1.19468 9.9909 1.19468C10.2981 1.19468 10.5722 1.40096 10.6574 1.69628L10.8618 2.40444L11.5063 2.04675C11.6087 1.98991 11.7214 1.96108 11.8413 1.96108C12.0265 1.96108 12.2006 2.03323 12.3316 2.16417C12.4625 2.2951 12.5346 2.46921 12.5346 2.65444C12.5346 2.7744 12.5058 2.8871 12.449 2.98944L12.0913 3.63397L12.7995 3.83835C13.0949 3.92358 13.3011 4.19764 13.3011 4.50483C13.3011 4.81202 13.0949 5.0862 12.7995 5.17143Z" fill="#0C9E6A"/>
<path d="M9.97639 2.71987C8.97459 2.71987 8.15956 3.53499 8.15956 4.53686C8.15956 5.53877 8.97459 6.35385 9.97639 6.35385C10.9782 6.35385 11.7932 5.53873 11.7932 4.53686C11.7932 3.53499 10.9782 2.71987 9.97639 2.71987ZM9.97639 5.17912C9.62229 5.17912 9.3342 4.891 9.3342 4.5369C9.3342 4.18276 9.62229 3.89467 9.97639 3.89467C10.3305 3.89467 10.6186 4.18276 10.6186 4.5369C10.6186 4.891 10.3305 5.17912 9.97639 5.17912Z" fill="#0C9E6A"/>
</svg>
