<svg width="20" height="20" viewBox="0 0 20 20" fill="none" xmlns="http://www.w3.org/2000/svg">
<path d="M17.0711 2.92891C15.1823 1.0402 12.6711 0 10 0C7.32891 0 4.8177 1.0402 2.92891 2.92891C1.0402 4.8177 0 7.32891 0 10C0 12.6711 1.0402 15.1823 2.92891 17.0711C4.8177 18.9598 7.32891 20 10 20C12.6711 20 15.1823 18.9598 17.0711 17.0711C18.9598 15.1823 20 12.6711 20 10C20 7.32891 18.9598 4.8177 17.0711 2.92891ZM1.17187 10C1.17187 6.73074 2.9582 3.87086 5.60605 2.34508C5.03859 3.18813 4.70703 4.20254 4.70703 5.29297C4.70703 8.21152 7.08145 10.5859 10 10.5859C12.2724 10.5859 14.1211 12.4346 14.1211 14.707C14.1211 16.9794 12.2724 18.8281 10 18.8281C5.13215 18.8281 1.17187 14.8679 1.17187 10ZM14.3939 17.6549C14.9614 16.8119 15.293 15.7975 15.293 14.707C15.293 11.7885 12.9186 9.41406 10 9.41406C7.72762 9.41406 5.87891 7.56535 5.87891 5.29297C5.87891 3.02059 7.72762 1.17187 10 1.17187C14.8679 1.17187 18.8281 5.13215 18.8281 10C18.8281 13.2693 17.0418 16.1291 14.3939 17.6549Z" fill="#0C9E6A"/>
<path d="M11.7627 14.707C11.7627 13.7351 10.972 12.9443 10 12.9443C9.02805 12.9443 8.2373 13.7351 8.2373 14.707C8.2373 15.679 9.02805 16.4697 10 16.4697C10.972 16.4697 11.7627 15.679 11.7627 14.707ZM9.40918 14.707C9.40918 14.3812 9.67422 14.1162 10 14.1162C10.3258 14.1162 10.5908 14.3812 10.5908 14.707C10.5908 15.0328 10.3258 15.2979 10 15.2979C9.67422 15.2979 9.40918 15.0328 9.40918 14.707Z" fill="#0C9E6A"/>
<path d="M10 3.53027C9.02805 3.53027 8.2373 4.32102 8.2373 5.29297C8.2373 6.26492 9.02805 7.05566 10 7.05566C10.972 7.05566 11.7627 6.26492 11.7627 5.29297C11.7627 4.32102 10.972 3.53027 10 3.53027ZM10 5.88379C9.67422 5.88379 9.40918 5.61875 9.40918 5.29297C9.40918 4.96719 9.67422 4.70215 10 4.70215C10.3258 4.70215 10.5908 4.96719 10.5908 5.29297C10.5908 5.61875 10.3258 5.88379 10 5.88379Z" fill="#0C9E6A"/>
</svg>
