<svg width="18" height="20" viewBox="0 0 18 20" fill="none" xmlns="http://www.w3.org/2000/svg">
<path d="M9 3.51562C11.0416 3.51562 13.1016 2.97211 13.1016 1.75781C13.1016 0.543516 11.0416 0 9 0C6.95844 0 4.89844 0.543516 4.89844 1.75781C4.89844 2.97211 6.95844 3.51562 9 3.51562ZM9 1.17187C10.6195 1.17187 11.6014 1.54121 11.8765 1.75781C11.6014 1.97441 10.6195 2.34375 9 2.34375C7.38047 2.34375 6.39859 1.97441 6.12348 1.75781C6.39859 1.54121 7.38051 1.17187 9 1.17187Z" fill="#0C9E6A"/>
<path d="M0.781563 12.3003C1.1673 14.6148 0.980391 17.0106 0.241016 19.2288C0.181484 19.4074 0.211445 19.6039 0.321563 19.7566C0.43168 19.9095 0.608516 20 0.796875 20C2.43254 20 3.84742 19.0375 4.50547 17.6492C5.85129 17.5612 6.95141 16.5607 7.19234 15.2618C7.91832 15.1247 8.55613 14.7141 9.00004 14.116C9.44387 14.7139 10.0816 15.1247 10.8077 15.2618C11.0486 16.5607 12.1488 17.5612 13.4946 17.6492C14.1526 19.0375 15.5675 20 17.2031 20C17.3915 20 17.5683 19.9095 17.6784 19.7567C17.7886 19.6039 17.8185 19.4075 17.759 19.2288C17.0196 17.0107 16.8327 14.6148 17.2186 12.2991C17.6894 9.32059 17.7891 9.11641 17.7891 8.39875C17.7891 6.98254 17.2376 5.65109 16.2362 4.64973L15.8786 4.29207C15.3778 3.79137 14.7121 3.51562 14.004 3.51562C12.8612 3.51562 11.8505 4.24406 11.4891 5.32828C11.1496 6.34688 10.2 7.03125 9.12656 7.03125C9.12254 7.03125 8.8573 7.03125 8.87363 7.03125C7.79992 7.03125 6.85043 6.34688 6.5109 5.32828C6.14949 4.24406 5.13883 3.51562 3.99598 3.51562C2.60641 3.51562 1.96152 4.50258 1.76383 4.64969C0.762422 5.65109 0.210938 6.98254 0.210938 8.39875C0.210938 9.11965 0.32082 9.38508 0.781563 12.3003ZM12.6008 5.69887C12.8025 5.09395 13.3664 4.6875 14.004 4.6875C14.3991 4.6875 14.7705 4.84137 15.0499 5.1207L15.4075 5.47832C16.1876 6.2584 16.6172 7.29559 16.6172 8.39875C16.6172 8.97234 16.5324 9.15766 16.0625 12.1077C15.6965 14.3037 15.8075 16.5679 16.3806 18.7106C15.1643 18.3543 14.2734 17.2284 14.2734 15.8984V12.3437C14.2734 12.0202 14.0111 11.7578 13.6875 11.7578C13.3639 11.7578 13.1016 12.0202 13.1016 12.3437V15.8984C13.1016 16.0661 13.1119 16.2313 13.1316 16.3938C12.434 16.1605 11.9297 15.5016 11.9297 14.7266V11.1328C11.9297 10.8092 11.6673 10.5469 11.3437 10.5469C11.0202 10.5469 10.7578 10.8092 10.7578 11.1328V14.0335C10.0828 13.7805 9.58594 13.1089 9.58594 12.3437V8.1741C10.971 8.00016 12.1506 7.04949 12.6008 5.69887ZM2.5925 5.47836C2.82031 5.29969 3.17062 4.6875 3.99602 4.6875C4.63367 4.6875 5.19754 5.09395 5.39918 5.69887C5.84937 7.04945 7.02887 8.00047 8.41406 8.17445V12.3437C8.41406 13.1089 7.91719 13.7805 7.24219 14.0335V11.1328C7.24219 10.8092 6.97984 10.5469 6.65625 10.5469C6.33266 10.5469 6.07031 10.8092 6.07031 11.1328V14.7266C6.07031 15.5016 5.56598 16.1605 4.86844 16.3938C4.88809 16.2313 4.89844 16.0661 4.89844 15.8984V12.3437C4.89844 12.0202 4.63609 11.7578 4.3125 11.7578C3.98891 11.7578 3.72656 12.0202 3.72656 12.3437V15.8984C3.72656 17.2284 2.83574 18.3543 1.61941 18.7106C2.19254 16.5679 2.30352 14.3039 1.93766 12.1089C1.45609 9.08551 1.38281 8.96937 1.38281 8.39875C1.38281 7.29559 1.81242 6.2584 2.5925 5.47836Z" fill="#0C9E6A"/>
</svg>
