<svg width="20" height="20" viewBox="0 0 20 20" fill="none" xmlns="http://www.w3.org/2000/svg">
<path d="M19.9999 1.50346C19.9986 1.01174 19.4565 0.710976 19.0386 0.971587C16.3322 2.65941 13.6936 4.76661 11.3972 6.37063C11.3648 4.11027 10.4543 2.24132 8.86818 0.719188C8.52136 0.386244 7.94305 0.551262 7.82392 1.01685L6.08122 7.82506C2.96418 5.44916 0.78873 6.319 0.0148344 9.90064C-0.0967886 10.4174 0.442978 10.8333 0.914144 10.5938C1.93211 10.0764 2.66785 10.0598 3.36954 10.5395C4.7219 11.62 4.51955 15.0861 6.30379 16.0128C7.47303 16.6201 8.91886 16.6674 10.6112 16.1557C10.8847 17.5507 12.2615 18.5978 13.461 19.3581C13.6146 19.4555 13.8076 19.484 13.989 19.426C16.8369 18.5153 19.1043 16.1233 17.7405 13.5594C17.6021 13.2993 17.3018 13.1701 17.0177 13.2488C15.8817 13.5633 14.6809 13.4703 13.3487 12.9643L12.7791 12.5891C18.581 12.0289 20.0144 7.35653 19.9999 1.50346V1.50346ZM8.75298 2.45734C9.82493 3.82432 10.2741 5.40476 10.1087 7.23485C9.33946 7.72421 8.09125 8.46317 7.18656 8.57676L8.75298 2.45734ZM10.77 11.3689C10.1319 11.3356 9.85836 12.1704 10.3916 12.5217C12.9301 14.1941 12.7431 14.0782 12.8323 14.1128C14.2239 14.653 15.5585 14.811 16.8084 14.5849C17.2729 16.2035 15.4683 17.5577 13.8834 18.1338C11.8492 16.785 11.7424 15.9287 11.8462 15.3957C11.941 14.9097 11.4609 14.5094 10.9999 14.6901C9.29204 15.3592 7.90702 15.4288 6.88328 14.8971C5.80803 14.3386 5.76858 10.6741 4.10139 9.51705C3.33795 8.98711 2.50834 8.82028 1.58875 9.01614C1.825 8.44251 2.1605 7.9513 2.63324 7.80133C3.19469 7.62311 4.29057 7.80326 6.32277 9.67252C6.42139 9.76324 6.54641 9.82006 6.6796 9.83471C9.35655 10.1291 13.7448 5.96617 18.7242 2.66888C18.5124 8.62206 16.5592 11.6687 10.77 11.3689V11.3689Z" fill="#0C9E6A"/>
</svg>
