<svg width="30" height="30" viewBox="0 0 30 30" fill="none" xmlns="http://www.w3.org/2000/svg">
<path fill-rule="evenodd" clip-rule="evenodd" d="M23.4452 9.87817C23.4452 14.5393 19.6439 18.3178 14.9547 18.3178C10.2655 18.3178 6.46424 14.5393 6.46424 9.87817C6.46424 5.21708 10.2655 1.43852 14.9547 1.43852C19.6439 1.43852 23.4452 5.21708 23.4452 9.87817ZM15.2562 19.7519C15.1561 19.7548 15.0556 19.7563 14.9547 19.7563C14.8838 19.7563 14.813 19.7556 14.7424 19.7541L9.00024 29.6403C8.84985 29.8993 8.554 30.0387 8.25714 29.9906C7.96028 29.9425 7.72433 29.7168 7.66448 29.4238L6.50043 23.7251L0.953463 25.5724C0.668263 25.6674 0.353693 25.5771 0.163342 25.3456C-0.0270091 25.1141 -0.0534427 24.7897 0.0969476 24.5308L6.05353 14.2754C5.39015 12.9512 5.01706 11.458 5.01706 9.87817C5.01706 4.42261 9.46629 0 14.9547 0C20.4431 0 24.8923 4.42261 24.8923 9.87817C24.8923 11.4246 24.5349 12.888 23.8975 14.1913L29.903 24.5308C30.0534 24.7897 30.027 25.1141 29.8366 25.3456C29.6463 25.5771 29.3317 25.6674 29.0465 25.5724L23.4995 23.7251L22.3355 29.4238C22.2756 29.7168 22.0397 29.9425 21.7428 29.9906C21.446 30.0387 21.1501 29.8993 20.9997 29.6403L15.2562 19.7519ZM16.8281 19.5811L21.2975 27.276L22.2442 22.6415C22.2854 22.4395 22.4119 22.2648 22.5915 22.1617C22.7711 22.0587 22.9865 22.0372 23.1831 22.1026L27.6942 23.605L23.0499 15.609C21.5936 17.638 19.3846 19.0963 16.8281 19.5811ZM6.90971 15.6784C8.38202 17.6927 10.6013 19.1326 13.1631 19.5962L8.70246 27.276L7.7558 22.6415C7.71454 22.4395 7.58807 22.2648 7.40848 22.1617C7.22889 22.0587 7.01344 22.0372 6.81681 22.1026L2.30575 23.605L6.90971 15.6784ZM16.2051 4.21506C15.9459 3.77266 15.4697 3.50055 14.9546 3.50055C14.4396 3.50055 13.9633 3.77266 13.7041 4.21506L12.4187 6.40869L9.9227 6.94596C9.41931 7.05431 9.01179 7.42045 8.85263 7.90736C8.69347 8.39428 8.80665 8.92859 9.14983 9.31036L10.8515 11.2034L10.5942 13.729C10.5423 14.2384 10.7667 14.7368 11.1834 15.0377C11.6001 15.3387 12.1463 15.3968 12.6176 15.1903L14.9546 14.1666L17.2916 15.1903C17.763 15.3968 18.3092 15.3387 18.7258 15.0377C19.1425 14.7368 19.3669 14.2384 19.315 13.729L19.0578 11.2034L20.7594 9.31036C21.1026 8.92859 21.2158 8.39428 21.0566 7.90736C20.8974 7.42045 20.4899 7.05431 19.9865 6.94596L17.4905 6.40869L16.2051 4.21506ZM10.229 8.35189L13.3483 7.68046L14.9546 4.93907L16.5609 7.68046L19.6802 8.35189L17.5537 10.7176L17.8752 13.874L14.9546 12.5946L12.034 13.874L12.3555 10.7176L10.229 8.35189Z" fill="#0C9E6A"/>
</svg>
