<svg width="30" height="30" viewBox="0 0 30 30" fill="none" xmlns="http://www.w3.org/2000/svg">
<path d="M4.7374 16.1664C6.75957 16.8725 9.40613 17.3323 12.3633 17.5033V21.4497C9.17816 22.0452 7.08984 23.6643 7.08984 25.6055C7.08984 26.8948 7.9937 28.0568 9.63501 28.8776C11.0827 29.6013 12.9881 30 15 30C17.0119 30 18.9173 29.6013 20.365 28.8776C22.0063 28.0568 22.9102 26.8948 22.9102 25.6055C22.9102 23.6643 20.8218 22.0452 17.6367 21.4497V17.5033C20.5939 17.3323 23.2404 16.8725 25.2626 16.1664C29.1781 14.7995 30 12.8339 30 11.4258V7.03125C30 5.01801 28.3392 3.18672 25.3235 1.875C22.5442 0.665817 18.8777 0 15 0C11.1223 0 7.45583 0.665817 4.67651 1.875C1.66077 3.18672 0 5.01801 0 7.03125V11.4258C0 12.8339 0.821915 14.7995 4.7374 16.1664ZM21.1523 25.6055C21.1523 26.8501 18.5213 28.2422 15 28.2422C11.4787 28.2422 8.84766 26.8501 8.84766 25.6055C8.84766 24.7639 10.1431 23.7302 12.3633 23.2434V23.8477C12.3633 25.3015 13.5461 26.4844 15 26.4844C16.4539 26.4844 17.6367 25.3015 17.6367 23.8477V23.2434C19.8569 23.7302 21.1523 24.7639 21.1523 25.6055ZM15.8789 23.8477C15.8789 24.3322 15.4845 24.7266 15 24.7266C14.5155 24.7266 14.1211 24.3322 14.1211 23.8477V17.5697C14.412 17.5751 15.588 17.5751 15.8789 17.5697V23.8477ZM24.6833 14.507C22.2574 15.3539 18.8187 15.8203 15 15.8203C11.1813 15.8203 7.74261 15.3539 5.3167 14.507C3.98758 14.0428 1.75781 13.0254 1.75781 11.4258V10.4114C2.50717 11.0703 3.48564 11.6695 4.67651 12.1875C7.45583 13.3967 11.1223 14.0625 15 14.0625C18.8777 14.0625 22.5442 13.3967 25.3235 12.1875C26.5144 11.6695 27.4928 11.0703 28.2422 10.4114V11.4258C28.2422 13.0254 26.0124 14.0428 24.6833 14.507ZM5.37758 3.48679C7.94083 2.3719 11.358 1.75781 15 1.75781C18.642 1.75781 22.0592 2.3719 24.6224 3.48679C26.9227 4.48746 28.2422 5.7795 28.2422 7.03125C28.2422 8.283 26.9227 9.57504 24.6224 10.5757C22.0592 11.6906 18.642 12.3047 15 12.3047C11.358 12.3047 7.94083 11.6906 5.37758 10.5757C3.07732 9.57504 1.75781 8.283 1.75781 7.03125C1.75781 5.7795 3.07732 4.48746 5.37758 3.48679V3.48679Z" fill="#0C9E6A"/>
</svg>
