<svg width="28" height="26" viewBox="0 0 28 26" fill="none" xmlns="http://www.w3.org/2000/svg">
<path fill-rule="evenodd" clip-rule="evenodd" d="M6.93348 22.4421C6.93348 24.1309 5.58884 25.5 3.93015 25.5C2.27145 25.5 0.926811 24.1309 0.926811 22.4421C0.926811 20.7533 2.27145 19.3842 3.93015 19.3842C5.58884 19.3842 6.93348 20.7533 6.93348 22.4421ZM3.93015 23.8755C4.70766 23.8755 5.33796 23.2338 5.33796 22.4421C5.33796 21.6505 4.70766 21.0087 3.93015 21.0087C3.15263 21.0087 2.52233 21.6505 2.52233 22.4421C2.52233 23.2338 3.15263 23.8755 3.93015 23.8755Z" fill="#0C9E6A"/>
<path fill-rule="evenodd" clip-rule="evenodd" d="M26.7732 22.4421C26.7732 24.1309 25.4285 25.5 23.7698 25.5C22.1111 25.5 20.7665 24.1309 20.7665 22.4421C20.7665 20.7533 22.1111 19.3842 23.7698 19.3842C25.4285 19.3842 26.7732 20.7533 26.7732 22.4421ZM23.7698 23.8755C24.5473 23.8755 25.1776 23.2338 25.1776 22.4421C25.1776 21.6505 24.5473 21.0087 23.7698 21.0087C22.9923 21.0087 22.362 21.6505 22.362 22.4421C22.362 23.2338 22.9923 23.8755 23.7698 23.8755Z" fill="#0C9E6A"/>
<path fill-rule="evenodd" clip-rule="evenodd" d="M21.6066 23.2544H6.29758V21.6299H21.6066V23.2544Z" fill="#0C9E6A"/>
<path fill-rule="evenodd" clip-rule="evenodd" d="M0 9.44094C0 8.99234 0.35717 8.62869 0.797761 8.62869H9.96226C10.4028 8.62869 10.76 8.99234 10.76 9.44094C10.76 9.88953 10.4028 10.2532 9.96226 10.2532H0.797761C0.35717 10.2532 0 9.88953 0 9.44094Z" fill="#0C9E6A"/>
<path fill-rule="evenodd" clip-rule="evenodd" d="M8.20262 5.23863C8.20262 4.79004 8.55979 4.42639 9.00039 4.42639L18.9038 4.42638C19.3444 4.42638 19.7016 4.79004 19.7016 5.23863C19.7016 5.68722 19.3444 6.05088 18.9038 6.05088L9.00039 6.05088C8.55979 6.05088 8.20262 5.68723 8.20262 5.23863Z" fill="#0C9E6A"/>
<path fill-rule="evenodd" clip-rule="evenodd" d="M17.2311 9.43239C17.2311 8.9838 17.5882 8.62014 18.0288 8.62014H23.4175C23.8581 8.62014 24.2153 8.9838 24.2153 9.43239C24.2153 9.88098 23.8581 10.2446 23.4175 10.2446H18.0288C17.5882 10.2446 17.2311 9.88098 17.2311 9.43239Z" fill="#0C9E6A"/>
<path fill-rule="evenodd" clip-rule="evenodd" d="M23.3448 4.45495C23.5769 4.30627 23.8677 4.28935 24.1149 4.41016L27.5474 6.08763C27.824 6.22281 28 6.50751 28 6.8199V13.9493C28 14.3979 27.6428 14.7615 27.2022 14.7615H24.5674V20.3098H22.9719V5.14242C22.9719 4.86325 23.1127 4.60363 23.3448 4.45495ZM24.5674 13.137H26.4045V7.331L24.5674 6.43325V13.137Z" fill="#0C9E6A"/>
<path fill-rule="evenodd" clip-rule="evenodd" d="M8.74373 1.07572C8.84597 0.733728 9.1558 0.5 9.50691 0.5H18.3882C18.7303 0.5 19.0343 0.722075 19.1439 1.05202L21.7561 8.91584L20.2446 9.43629L17.8159 2.1245H10.098L7.91912 9.41259L6.39274 8.93954L8.74373 1.07572Z" fill="#0C9E6A"/>
<path fill-rule="evenodd" clip-rule="evenodd" d="M4.72791 8.91658L4.72791 20.3795H3.13238L3.13239 8.91658H4.72791Z" fill="#0C9E6A"/>
<path fill-rule="evenodd" clip-rule="evenodd" d="M0.831398 13.7394C0.390807 13.7394 0.0336373 13.3758 0.0336373 12.9272L0.0336376 5.95455C0.0336376 5.50596 0.390807 5.1423 0.831399 5.1423C1.27199 5.1423 1.62916 5.50596 1.62916 5.95455L1.62916 12.9272C1.62916 13.3758 1.27199 13.7394 0.831398 13.7394Z" fill="#0C9E6A"/>
<path fill-rule="evenodd" clip-rule="evenodd" d="M7.95369 10.1405C7.95369 13.1414 10.6191 15.7085 14.0781 15.7085C17.5371 15.7085 20.2026 13.1414 20.2026 10.1405H21.7981C21.7981 14.1869 18.2652 17.3329 14.0781 17.3329C9.89108 17.3329 6.35817 14.1869 6.35817 10.1405H7.95369Z" fill="#0C9E6A"/>
</svg>
