<svg width="34" height="48" viewBox="0 0 34 48" fill="none" xmlns="http://www.w3.org/2000/svg">
<path d="M29.8438 40.5V24.5625H23.8438V22.6875H29.8438V21.2812C29.8438 16.4489 26.5914 12.3621 22.1608 11.0942C23.1514 9.91922 23.75 8.40356 23.75 6.75C23.75 3.02803 20.722 0 17 0C13.278 0 10.25 3.02803 10.25 6.75C10.25 8.40356 10.8486 9.91922 11.8392 11.0942C7.40862 12.3621 4.15625 16.4489 4.15625 21.2812V22.6875H10.1562V24.5625H4.15625V40.5H0.125V48H33.875V40.5H29.8438ZM17 2.8125C19.1712 2.8125 20.9375 4.57884 20.9375 6.75C20.9375 8.92116 19.1712 10.6875 17 10.6875C14.8288 10.6875 13.0625 8.92116 13.0625 6.75C13.0625 4.57884 14.8288 2.8125 17 2.8125ZM7.09606 19.875C7.75981 16.2533 10.9394 13.5 14.75 13.5H19.25C23.0606 13.5 26.2402 16.2533 26.9039 19.875H7.09606ZM21.0312 22.6875V24.5625H12.9688V22.6875H21.0312ZM6.96875 27.375H27.0312V40.5H6.96875V27.375ZM31.0625 45.1875H2.9375V43.3125H31.0625V45.1875Z" fill="#0C9E6A"/>
<path d="M22.9062 30.0938H11.0938V32.9062H22.9062V30.0938Z" fill="#0C9E6A"/>
<path d="M21.0312 35.0625H12.9688V37.875H21.0312V35.0625Z" fill="#0C9E6A"/>
</svg>
