<svg width="24" height="23" viewBox="0 0 24 23" fill="none" xmlns="http://www.w3.org/2000/svg">
<path d="M12.5179 16.7588L17.7588 11.5179C18.0804 11.1963 18.0804 10.6748 17.7588 10.3532C17.4372 10.0316 16.9158 10.0316 16.5941 10.3532L12.7591 14.1883V0H11.112L11.112 14.1883L7.27698 10.3532C6.95537 10.0316 6.43394 10.0316 6.11233 10.3532C5.79072 10.6748 5.79072 11.1963 6.11233 11.5179L11.3532 16.7588C11.6748 17.0804 12.1963 17.0804 12.5179 16.7588Z" fill="#0C9E6A"/>
<path d="M1.53191 11.766C1.53191 11.3429 1.18898 11 0.765957 11C0.342931 11 0 11.3429 0 11.766V17.8936C0 20.5728 2.1719 22.7447 4.85106 22.7447H19.1489C21.8281 22.7447 24 20.5728 24 17.8936V11.766C24 11.3429 23.6571 11 23.234 11C22.811 11 22.4681 11.3429 22.4681 11.766V17.8936C22.4681 19.7267 20.9821 21.2128 19.1489 21.2128H4.85106C3.01795 21.2128 1.53191 19.7267 1.53191 17.8936V11.766Z" fill="#0C9E6A"/>
</svg>
