<svg width="48" height="48" viewBox="0 0 48 48" fill="none" xmlns="http://www.w3.org/2000/svg">
<path d="M48 0H0V48H48V0ZM45.1875 11.2438C40.8311 10.6238 37.3762 7.16895 36.7562 2.8125H45.1875V11.2438ZM25.4062 31.8549V28.5597L28.5597 25.4062H31.8549L25.4062 31.8549ZM16.1451 25.4062H19.4403L22.5938 28.5597V31.8549L16.1451 25.4062ZM22.5938 16.1451V19.4403L19.4403 22.5938H16.1451L22.5938 16.1451ZM24 25.9882L22.0118 24L24 22.0118L25.9882 24L24 25.9882ZM28.5597 22.5938L25.4062 19.4403V16.1451L31.8549 22.5938H28.5597ZM29.6254 16.3865L36.657 9.35449C36.9496 9.71741 37.2627 10.0675 37.5974 10.4026C37.9321 10.7373 38.2826 11.0504 38.6455 11.343L31.6135 18.3746L29.6254 16.3865ZM35.1112 6.92322L27.6365 14.3976L25.4062 12.1674V2.8125H33.9225C34.0818 4.24878 34.4846 5.63489 35.1112 6.92322ZM22.5938 12.1674L20.3635 14.3976L12.8888 6.92322C13.5154 5.63489 13.9182 4.24878 14.0775 2.8125H22.5938V12.1674ZM10.4026 10.4026C10.7373 10.0675 11.0504 9.71741 11.343 9.35449L18.3746 16.3865L16.3865 18.3746L9.35449 11.343C9.71741 11.0504 10.0675 10.7373 10.4026 10.4026ZM6.92322 12.8888L14.3976 20.3635L12.1674 22.5938H2.8125V14.0775C4.24878 13.9182 5.63489 13.5154 6.92322 12.8888ZM12.1674 25.4062L14.3976 27.6365L6.92322 35.1112C5.63489 34.4846 4.24878 34.0818 2.8125 33.9221V25.4062H12.1674ZM16.3865 29.6254L18.3746 31.6135L11.343 38.6455C11.0504 38.2826 10.7373 37.9325 10.4026 37.5974C10.0675 37.2627 9.71741 36.9496 9.35449 36.657L16.3865 29.6254ZM12.8888 41.0768L20.3635 33.6024L22.5938 35.8326V45.1875H14.0775C13.9182 43.7512 13.5154 42.3651 12.8888 41.0768V41.0768ZM25.4062 35.8326L27.6365 33.6024L35.1112 41.0768C34.4846 42.3651 34.0818 43.7512 33.9225 45.1875H25.4062V35.8326ZM37.5974 37.5974C37.2627 37.9325 36.9496 38.2826 36.657 38.6455L29.6254 31.6135L31.6135 29.6254L38.6455 36.657C38.2826 36.9496 37.9325 37.2627 37.5974 37.5974V37.5974ZM41.0768 35.1112L33.6024 27.6365L35.8326 25.4062H45.1875V33.9225C43.7512 34.0818 42.3651 34.4846 41.0768 35.1112V35.1112ZM35.8326 22.5938L33.6024 20.3635L41.0768 12.8888C42.3651 13.5154 43.7512 13.9182 45.1875 14.0779V22.5938H35.8326ZM11.2438 2.8125C10.6238 7.16895 7.16895 10.6238 2.8125 11.2438V2.8125H11.2438ZM2.8125 36.7562C7.16895 37.3762 10.6238 40.8311 11.2438 45.1875H2.8125V36.7562ZM36.7562 45.1875C37.3762 40.8311 40.8311 37.3762 45.1875 36.7562V45.1875H36.7562Z" fill="#0C9E6A"/>
</svg>
