<svg width="32" height="46" viewBox="0 0 32 46" fill="none" xmlns="http://www.w3.org/2000/svg">
<path fill-rule="evenodd" clip-rule="evenodd" d="M3.44145 0.599976H28.5575C30.4555 0.599976 31.9994 2.17008 31.9995 4.09998V41.9C31.9995 43.8299 30.4555 45.4 28.5576 45.4H3.44145C1.54357 45.4 -0.000488281 43.8299 -0.000488281 41.9V4.09998C-0.000488281 2.17008 1.54357 0.599976 3.44145 0.599976ZM28.5575 42.775C29.032 42.775 29.418 42.3824 29.418 41.9H29.4181V4.09998C29.4181 3.6175 29.032 3.22498 28.5576 3.22498H3.44145C2.96698 3.22498 2.58097 3.6175 2.58097 4.09998V41.9C2.58097 42.3824 2.96698 42.775 3.44145 42.775H28.5575ZM8.85665 17.3946H23.1431C23.8559 17.3946 24.4338 17.9822 24.4338 18.7071C24.4338 19.4319 23.8559 20.0196 23.1431 20.0196H8.85665C8.14382 20.0196 7.56592 19.4319 7.56592 18.7071C7.56592 17.9822 8.14382 17.3946 8.85665 17.3946ZM23.1431 31.2335H8.85665C8.14382 31.2335 7.56592 31.8211 7.56592 32.546C7.56592 33.2708 8.14382 33.8585 8.85665 33.8585H23.1431C23.8559 33.8585 24.4338 33.2708 24.4338 32.546C24.4338 31.8211 23.8559 31.2335 23.1431 31.2335ZM8.85665 35.7864H23.1431C23.8559 35.7864 24.4338 36.374 24.4338 37.0989C24.4338 37.8237 23.8559 38.4114 23.1431 38.4114H8.85665C8.14382 38.4114 7.56592 37.8237 7.56592 37.0989C7.56592 36.374 8.14382 35.7864 8.85665 35.7864ZM20.0821 24.3949C20.7949 24.3949 21.3728 23.8072 21.3728 23.0824C21.3728 22.3575 20.7949 21.7699 20.0821 21.7699H11.9184C11.2055 21.7699 10.6276 22.3575 10.6276 23.0824C10.6276 23.8072 11.2055 24.3949 11.9184 24.3949H20.0821ZM14.7083 11.3829H14.1027C13.3899 11.3829 12.812 10.7952 12.812 10.0704C12.812 9.34553 13.3899 8.75788 14.1027 8.75788H14.7083V7.89609C14.7083 7.17124 15.2863 6.58359 15.9991 6.58359C16.7119 6.58359 17.2898 7.17124 17.2898 7.89609V8.75788H17.8954C18.6082 8.75788 19.1861 9.34553 19.1861 10.0704C19.1861 10.7952 18.6082 11.3829 17.8954 11.3829H17.2898V14.3319C17.2898 15.0567 16.7119 15.6444 15.9991 15.6444C15.2863 15.6444 14.7083 15.0567 14.7083 14.3319V11.3829Z" fill="#0C9E6A"/>
</svg>
