<svg width="42" height="48" viewBox="0 0 42 48" fill="none" xmlns="http://www.w3.org/2000/svg">
<path d="M40.0657 38.5166H37.7772V33.958C37.7772 33.1813 37.1477 32.5518 36.371 32.5518H34.749V7.03125C34.749 3.15417 31.5948 0 27.7178 0H14.3163C10.4392 0 7.28503 3.15417 7.28503 7.03125V32.5518H5.66309C4.88672 32.5518 4.25684 33.1813 4.25684 33.958V38.5166H1.96875C1.19202 38.5166 0.5625 39.1465 0.5625 39.9229V46.5938C0.5625 47.3705 1.19202 48 1.96875 48H40.0653C40.842 48 41.4716 47.3705 41.4716 46.5938V39.9229C41.4719 39.1465 40.842 38.5166 40.0657 38.5166ZM38.6594 45.1875H3.375V41.3291H38.6591V45.1875H38.6594ZM14.3163 2.8125H27.7178C30.0439 2.8125 31.9365 4.70508 31.9365 7.03125V32.5518H10.0975V7.03125C10.0975 4.70508 11.9901 2.8125 14.3163 2.8125V2.8125ZM34.9647 35.3643V38.5166H7.06934V35.3643H34.9647Z" fill="#0C9E6A"/>
</svg>
