<svg width="18" height="16" viewBox="0 0 18 16" fill="none" xmlns="http://www.w3.org/2000/svg">
<path d="M16.6739 1.5957C15.7696 0.566562 14.515 0 13.1425 0C11.2088 0 9.98645 1.15464 9.30377 2.12281C9.20012 2.26983 9.10004 2.42403 9.00353 2.58539C8.90703 2.42403 8.80695 2.26983 8.7033 2.12281C8.02062 1.15464 6.79822 0 4.86455 0C3.49204 0 2.23748 0.566562 1.3332 1.5957C0.475375 2.57463 0 3.87987 0 5.27835C0 6.79516 0.586177 8.20081 1.84431 9.70327C2.9559 11.0264 4.54287 12.3855 6.38361 13.9597C7.06629 14.5441 7.77399 15.1466 8.52458 15.8064L8.54603 15.8279C8.67113 15.939 8.83197 16 8.99996 16C9.16795 16 9.32879 15.939 9.45389 15.8279L9.47534 15.8064C10.2259 15.1466 10.9301 14.5441 11.6127 13.9632L11.6163 13.9597C13.457 12.3855 15.044 11.03 16.1556 9.70327C17.4137 8.20081 17.9999 6.79516 17.9999 5.27835C18.0071 3.87987 17.5317 2.57463 16.6739 1.5957Z" fill="#0C9E6A"/>
</svg>
