<svg width="28" height="30" viewBox="0 0 28 30" fill="none" xmlns="http://www.w3.org/2000/svg">
<path d="M27.159 0.413513H0.698174C0.314178 0.413513 0 0.751859 0 1.16539V28.8346C0 29.2481 0.314178 29.5864 0.698174 29.5864H27.159C27.543 29.5864 27.8571 29.2481 27.8571 28.8346V1.16539C27.8571 0.751859 27.543 0.413513 27.159 0.413513ZM10.8217 7.25562V1.91727H20.7358V7.25562C20.7358 7.28569 20.7497 7.30825 20.7637 7.33081H10.8077C10.8147 7.30825 10.8217 7.27817 10.8217 7.25562ZM10.8077 15.7519H20.7637C20.7497 15.7744 20.7428 15.797 20.7358 15.8195V21.1654H10.8217V15.8195C10.8217 15.797 10.8147 15.7744 10.8077 15.7519ZM15.0806 14.2481H5.16649V8.83457H15.0806V14.2481ZM1.39635 1.91727H9.42535V7.25562C9.42535 7.27817 9.41139 7.33081 9.41837 7.33081H1.39635V1.91727ZM1.39635 8.83457H3.77014V14.2481H1.39635V8.83457ZM1.39635 15.7519H9.41837C9.41837 15.7519 9.42535 15.797 9.42535 15.8195V21.1654H1.39635V15.7519ZM3.77014 28.0827H1.39635V22.6692H3.77014V28.0827ZM15.0806 28.0827H5.16649V22.6692H15.0806V28.0827ZM26.391 28.0827H16.4769V22.6692H26.391V28.0827ZM26.391 21.1654H22.1321V15.8195C22.1391 15.797 22.1461 15.7744 22.1531 15.7519H26.391V21.1654ZM26.391 14.2481H16.4769V8.83457H26.391V14.2481ZM26.391 7.33081H22.1531C22.1461 7.30825 22.1391 7.27817 22.1321 7.25562V1.91727H26.391V7.33081Z" fill="#0C9E6A"/>
</svg>
