<svg width="40" height="46" viewBox="0 0 40 46" fill="none" xmlns="http://www.w3.org/2000/svg">
<path d="M39.6875 40.9313L37.0625 38.2188V5.84998H31.0592C29.7173 4.50979 25.3447 0.599976 20 0.599976C14.6553 0.599976 10.2827 4.50979 8.94082 5.84998H2.9375V38.2188L0.3125 40.9313V45.4H39.6875V40.9313ZM10.0855 8.47361L10.4765 8.03953C10.5199 7.99133 14.873 3.22498 20 3.22498C25.127 3.22498 29.4801 7.99133 29.5221 8.03816L29.9135 8.47498H34.4375V37.4375H31.8125V11.1H28.7408L27.5677 9.79055C26.6534 8.76824 23.3004 5.84998 20 5.84998C16.7639 5.84998 13.4488 8.68484 12.4442 9.77722L11.2592 11.1H8.1875V37.4375H5.5625V8.47498C5.8561 8.47498 4.23154 8.47532 10.0855 8.47361ZM29.1875 37.4375H10.8125V13.725H12.4319L14.3822 11.5477C15.2747 10.5804 17.915 8.47498 20 8.47498C22.1892 8.47498 24.8791 10.7219 25.612 11.5412L27.5681 13.725H29.1875V37.4375ZM37.0625 42.775H2.9375V41.9936L4.80645 40.0625H35.1936L37.0625 41.9936V42.775Z" fill="#0C9E6A"/>
<path d="M23.9375 15.125C23.9375 12.9498 22.1793 11.1 20 11.1C17.8248 11.1 16.0625 12.946 16.0625 15.125V19.0625H23.9375V15.125ZM21.3125 16.4375H18.6875V15.125C18.6875 14.3792 19.3007 13.725 20 13.725C20.6993 13.725 21.3125 14.3792 21.3125 15.125V16.4375Z" fill="#0C9E6A"/>
<path d="M13.4375 21.6875H26.5625V24.3125H13.4375V21.6875Z" fill="#0C9E6A"/>
<path d="M13.4375 26.9375H26.5625V29.5625H13.4375V26.9375Z" fill="#0C9E6A"/>
<path d="M13.4375 32.1875H26.5625V34.8125H13.4375V32.1875Z" fill="#0C9E6A"/>
</svg>
