<svg width="24" height="30" viewBox="0 0 24 30" fill="none" xmlns="http://www.w3.org/2000/svg">
<path fill-rule="evenodd" clip-rule="evenodd" d="M11.5512 8.17601C11.7408 8.09081 11.9572 8.08811 12.1489 8.16855L19.3334 11.184C19.6119 11.3009 19.7931 11.5735 19.7931 11.8755V20.0101C19.7931 20.3122 19.6119 20.5848 19.3334 20.7017L12.1489 23.7171C11.9572 23.7975 11.7408 23.7948 11.5512 23.7096L4.84125 20.6942C4.57193 20.5732 4.39868 20.3054 4.39868 20.0101V11.8755C4.39868 11.5803 4.57193 11.3125 4.84125 11.1914L11.5512 8.17601ZM11.8689 9.67777L6.78823 11.961L12.0001 14.3079L17.2587 11.94L11.8689 9.67777ZM18.2931 13.1192V19.5115L12.75 21.838V15.6153L18.2931 13.1192ZM5.89868 19.5249V13.2055L11.25 15.6152V21.9298L5.89868 19.5249Z" fill="#0C9E6A"/>
<path fill-rule="evenodd" clip-rule="evenodd" d="M0 1C0 0.447715 0.447715 0 1 0H17C17.1586 0 17.3086 0.0369356 17.4419 0.102676C17.5458 0.138637 17.6434 0.198109 17.7264 0.281093L23.6818 6.23651C23.7401 6.29482 23.7868 6.36035 23.8219 6.43021C23.9342 6.59188 24 6.78825 24 7V29C24 29.5523 23.5523 30 23 30H1C0.447716 30 0 29.5523 0 29V1ZM22.5 7.5V28.5H1.5V1.5H16.5V5.77416C16.5 6.72731 17.2727 7.5 18.2258 7.5H22.5ZM21.324 6L18 2.67604V5.77416C18 5.89889 18.1011 6 18.2258 6H21.324Z" fill="#0C9E6A"/>
</svg>
