<svg width="28" height="28" viewBox="0 0 28 28" fill="none" xmlns="http://www.w3.org/2000/svg">
<path fill-rule="evenodd" clip-rule="evenodd" d="M9.33314 0.793332V2.29341L11.2474 3.9225C11.5811 4.20646 11.6214 4.70715 11.3374 5.04082C11.0534 5.37449 10.5527 5.41479 10.2191 5.13082L8.02564 3.26416C7.84853 3.11343 7.74647 2.89257 7.74647 2.66V0.793332C7.74647 0.355187 8.10166 -2.23439e-08 8.5398 0C8.97795 2.23439e-08 9.33314 0.355186 9.33314 0.793332Z" fill="#0C9E6A"/>
<path fill-rule="evenodd" clip-rule="evenodd" d="M18.5757 0.853032V2.35311L16.6614 3.9822C16.3278 4.26616 16.2875 4.76685 16.5714 5.10052C16.8554 5.43419 17.3561 5.47449 17.6897 5.19052L19.8832 3.32386C20.0603 3.17313 20.1623 2.95227 20.1623 2.7197V0.853033C20.1623 0.414887 19.8071 0.0597004 19.369 0.0597004C18.9309 0.0597004 18.5757 0.414887 18.5757 0.853032Z" fill="#0C9E6A"/>
<path fill-rule="evenodd" clip-rule="evenodd" d="M15.8665 15.7266C15.4284 15.7266 15.0732 15.3714 15.0732 14.9332V10.9199C15.0732 10.4818 15.4284 10.1266 15.8665 10.1266C16.3047 10.1266 16.6599 10.4818 16.6599 10.9199V14.9332C16.6599 15.3714 16.3047 15.7266 15.8665 15.7266Z" fill="#0C9E6A"/>
<path fill-rule="evenodd" clip-rule="evenodd" d="M12.1332 15.7266C11.6951 15.7266 11.3399 15.3714 11.3399 14.9332V10.9199C11.3399 10.4818 11.6951 10.1266 12.1332 10.1266C12.5714 10.1266 12.9266 10.4818 12.9266 10.9199L12.9266 14.9332C12.9266 15.3714 12.5714 15.7266 12.1332 15.7266Z" fill="#0C9E6A"/>
<path fill-rule="evenodd" clip-rule="evenodd" d="M7.74647 11.06C7.74647 10.1837 8.45685 9.47329 9.33314 9.47329H18.6665C19.5427 9.47329 20.2531 10.1837 20.2531 11.06V14.7933C20.2531 15.6696 19.5427 16.3799 18.6665 16.3799H9.33314C8.45685 16.3799 7.74647 15.6696 7.74647 14.7933V11.06ZM9.33314 11.06V14.7933H18.6665V11.06H9.33314Z" fill="#0C9E6A"/>
<path fill-rule="evenodd" clip-rule="evenodd" d="M13.9999 22.2599C13.5617 22.2599 13.2066 21.9047 13.2066 21.4666V19.3199C13.2066 18.8817 13.5617 18.5266 13.9999 18.5266C14.438 18.5266 14.7932 18.8817 14.7932 19.3199V21.4666C14.7932 21.9047 14.438 22.2599 13.9999 22.2599Z" fill="#0C9E6A"/>
<path fill-rule="evenodd" clip-rule="evenodd" d="M9.70565 16.2875L10.8276 15.1656L13.9999 18.3379L17.1723 15.1656L18.2942 16.2875L13.9999 20.5818L9.70565 16.2875Z" fill="#0C9E6A"/>
<path fill-rule="evenodd" clip-rule="evenodd" d="M10.5933 11.0599C10.1552 11.0599 9.79998 10.7047 9.79998 10.2666V4.38658C9.79998 3.94844 10.1552 3.59325 10.5933 3.59325C11.0315 3.59325 11.3866 3.94844 11.3866 4.38658L11.3866 10.2666C11.3866 10.7047 11.0315 11.0599 10.5933 11.0599Z" fill="#0C9E6A"/>
<path fill-rule="evenodd" clip-rule="evenodd" d="M17.4065 11.0599C16.9683 11.0599 16.6131 10.7047 16.6131 10.2666V4.38658C16.6131 3.94844 16.9683 3.59325 17.4065 3.59325C17.8446 3.59325 18.1998 3.94844 18.1998 4.38658V10.2666C18.1998 10.7047 17.8446 11.0599 17.4065 11.0599Z" fill="#0C9E6A"/>
<path fill-rule="evenodd" clip-rule="evenodd" d="M18.1998 4.38658C18.1998 4.82473 17.8448 5.17987 17.4066 5.17987H10.5933C10.1552 5.17987 9.79998 4.82473 9.79998 4.38658C9.79998 3.94844 10.1552 3.59325 10.5933 3.59325H17.4065C17.8446 3.59325 18.1998 3.94844 18.1998 4.38658Z" fill="#0C9E6A"/>
<path fill-rule="evenodd" clip-rule="evenodd" d="M20.1532 0.793348C20.1532 1.23149 19.798 1.58668 19.3599 1.58668H8.54045C8.1023 1.58668 7.74647 1.23148 7.74647 0.793332C7.74647 0.355187 8.10166 -2.23439e-08 8.5398 0L19.3599 1.57587e-05C19.798 1.57587e-05 20.1532 0.355203 20.1532 0.793348Z" fill="#0C9E6A"/>
<path d="M25.0934 19.3623C25.4522 19.1108 25.5391 18.6161 25.2877 18.2573C25.0362 17.8985 24.5415 17.8115 24.1827 18.063L22.7464 19.0697C22.3876 19.3212 22.3006 19.816 22.5521 20.1747C22.8036 20.5335 23.2983 20.6205 23.6571 20.369L25.0934 19.3623Z" fill="#0C9E6A"/>
<path d="M3.81678 18.063C3.458 17.8115 2.96327 17.8985 2.71179 18.2573C2.46031 18.6161 2.54729 19.1108 2.90608 19.3623L4.34237 20.369C4.70116 20.6205 5.19588 20.5335 5.44737 20.1747C5.69885 19.816 5.61186 19.3212 5.25308 19.0697L3.81678 18.063Z" fill="#0C9E6A"/>
<path d="M7.94705 20.958C7.58826 20.7065 7.09354 20.7935 6.84206 21.1523C6.59057 21.5111 6.67756 22.0058 7.03634 22.2573L12.9657 26.4133H0.793332C0.355187 26.4133 0 26.7685 0 27.2067C0 27.6448 0.355187 28 0.793332 28H27.2066C27.6448 28 28 27.6448 28 27.2067C28 26.7685 27.6448 26.4133 27.2066 26.4133H15.0337L20.9631 22.2573C21.3219 22.0058 21.4089 21.5111 21.1574 21.1523C20.9059 20.7935 20.4112 20.7065 20.0524 20.958L13.9997 25.2005L7.94705 20.958Z" fill="#0C9E6A"/>
</svg>
