<svg width="48" height="44" viewBox="0 0 48 44" fill="none" xmlns="http://www.w3.org/2000/svg">
<path d="M46.5938 23.4064H44.9493C44.7097 22.2382 44.1755 21.1424 43.3847 20.2308C43.1241 19.9303 42.8396 19.654 42.5351 19.404L43.8917 18.8832C44.6167 18.6049 44.9789 17.7915 44.7006 17.0664C44.0275 15.313 42.7119 13.9267 40.9961 13.1629C40.4515 12.9204 39.8873 12.7499 39.3148 12.6516L40.9043 11.0621C41.4531 10.5133 41.4533 9.6225 40.9043 9.0734C39.7133 7.8825 38.1335 7.161 36.4557 7.04203C36.0589 7.01381 35.6625 7.01962 35.2705 7.05815L35.8615 5.73065C36.1772 5.02172 35.8583 4.18987 35.1488 3.87403C32.8004 2.82853 30.1787 3.17887 28.2187 4.56609V2.31262C28.2187 1.536 27.589 0.906372 26.8124 0.906372C25.1282 0.906372 23.501 1.51331 22.2306 2.61534C21.9301 2.87597 21.6538 3.1605 21.4038 3.4649L20.883 2.10834C20.6047 1.38328 19.7912 1.02122 19.0663 1.29947C16.6717 2.21868 15.0607 4.30218 14.6514 6.68522L13.062 5.09578C12.5129 4.54659 11.6225 4.54659 11.0733 5.09578C9.88228 6.28668 9.16087 7.86656 9.04181 9.54431C9.01369 9.94106 9.01941 10.3375 9.05794 10.7295L7.73044 10.1385C7.0215 9.82275 6.18956 10.1418 5.87381 10.8512C4.82831 13.1995 5.17856 15.8212 6.56578 17.7813H4.3125C3.53587 17.7813 2.90625 18.4109 2.90625 19.1875C2.90625 20.7157 3.40744 22.1959 4.32319 23.4063H1.40625C0.629625 23.4063 0 24.0359 0 24.8125V41.6875C0 42.4642 0.629625 43.0938 1.40625 43.0938H46.5938C47.3704 43.0938 48 42.4642 48 41.6875V24.8126C48 24.036 47.3704 23.4064 46.5938 23.4064ZM10.768 20.5939C12.2794 20.5939 12.7211 18.5179 11.34 17.903L10.5813 17.5651C8.90644 16.8193 7.95581 15.1094 8.09128 13.3778L10.9355 14.6442C11.5168 14.9031 12.1997 14.7392 12.6003 14.2446C13.0008 13.7499 13.0192 13.0479 12.6451 12.533C11.709 11.2447 11.5892 9.60543 12.2371 8.24859L15.638 11.6495C16.7065 12.7179 18.4871 11.5627 17.9452 10.1511L17.6475 9.37565C16.9772 7.62947 17.5501 5.75653 18.8469 4.65215L19.9635 7.56065C20.1916 8.15484 20.7908 8.52187 21.4234 8.45522C22.0564 8.38865 22.5658 7.90528 22.6653 7.27659C22.9144 5.70375 23.9888 4.46006 25.4062 3.95868V8.76815C25.4062 9.43209 25.8707 10.0057 26.5201 10.1437C27.1693 10.2817 27.8271 9.94678 28.0972 9.34012L28.435 8.5814C29.1808 6.90656 30.8915 5.95565 32.6223 6.0915L31.356 8.93568C31.0972 9.51712 31.261 10.2 31.7557 10.6006C32.2504 11.0011 32.9524 11.0195 33.4673 10.6454C34.7557 9.70931 36.3949 9.5894 37.7517 10.2375L34.3509 13.6384C33.8814 14.1079 33.8043 14.8418 34.1659 15.3986C34.5275 15.9555 35.2293 16.1836 35.8492 15.9456L36.6247 15.6479C37.6766 15.244 38.823 15.274 39.8525 15.7324C40.4375 15.9928 40.9448 16.3738 41.3482 16.8472L38.4397 17.9638C37.8455 18.1919 37.4785 18.7907 37.5451 19.4237C37.6117 20.0567 38.095 20.566 38.7237 20.6656C40.2965 20.9146 41.5403 21.989 42.0416 23.4065C40.0494 23.4065 34.4859 23.4065 33.7421 23.4065C33.8085 22.9429 33.8439 22.4736 33.8439 22.0002C33.8439 16.5724 29.428 12.1565 24.0002 12.1565C18.5723 12.1565 14.1564 16.5724 14.1564 22.0002C14.1564 22.4736 14.1919 22.9429 14.2582 23.4065H9.54919C9.46238 23.3741 9.37134 23.3497 9.27647 23.3347C7.70372 23.0857 6.45984 22.0114 5.95856 20.5939H10.768V20.5939ZM24 17.7814C21.6738 17.7814 19.7812 19.6739 19.7812 22.0001C19.7812 22.4931 19.867 22.9662 20.0231 23.4064H17.1103C17.017 22.9462 16.9688 22.4762 16.9688 22.0001C16.9688 18.1231 20.123 14.9689 24 14.9689C27.877 14.9689 31.0312 18.1231 31.0312 22.0001C31.0312 22.4762 30.983 22.9462 30.8897 23.4064H27.9769C28.133 22.9662 28.2188 22.4931 28.2188 22.0001C28.2188 19.6739 26.3262 17.7814 24 17.7814ZM25.4062 22.0001C25.4062 22.7755 24.7754 23.4064 24 23.4064C23.2246 23.4064 22.5938 22.7755 22.5938 22.0001C22.5938 21.2247 23.2246 20.5939 24 20.5939C24.7754 20.5939 25.4062 21.2247 25.4062 22.0001ZM45.1875 34.6564H35.25C34.4734 34.6564 33.8438 35.286 33.8438 36.0626C33.8438 36.8392 34.4734 37.4689 35.25 37.4689H45.1875V40.2814H2.8125V31.8439H12.75C13.5266 31.8439 14.1562 31.2142 14.1562 30.4376C14.1562 29.661 13.5266 29.0314 12.75 29.0314H2.8125V26.2189C3.63066 26.2189 44.6033 26.2189 45.1875 26.2189V34.6564Z" fill="#0C9E6A"/>
</svg>
