<svg width="28" height="29" viewBox="0 0 28 29" fill="none" xmlns="http://www.w3.org/2000/svg">
<path fill-rule="evenodd" clip-rule="evenodd" d="M13.9546 0.376573C14.2142 0.202999 14.5541 0.208373 14.808 0.390064L25.4364 7.99521C25.6332 8.13603 25.75 8.36315 25.75 8.60514V27.5H27.25C27.6642 27.5 28 27.8358 28 28.25C28 28.6642 27.6642 29 27.25 29H0.75C0.335786 29 0 28.6642 0 28.25C0 27.8358 0.335786 27.5 0.75 27.5H2.25V8.60514C2.25 8.35477 2.37494 8.1209 2.58306 7.98172L13.9546 0.376573ZM24.25 8.99071V27.5H20.75V13C20.75 12.5858 20.4142 12.25 20 12.25H8C7.58579 12.25 7.25 12.5858 7.25 13V27.5H3.75V9.00583L14.3571 1.91191L24.25 8.99071ZM8.75 22.5V19H19.25V22.5H8.75ZM8.75 24V27.5H19.25V24H8.75ZM8.75 17.5V13.75H19.25V17.5H8.75Z" fill="#0C9E6A"/>
</svg>
