<svg width="48" height="42" viewBox="0 0 48 42" fill="none" xmlns="http://www.w3.org/2000/svg">
<path d="M46.1931 6.98108C46.7582 6.26624 47.0977 5.36499 47.0977 4.38501C47.0977 2.07056 45.2146 0.1875 42.9001 0.1875C40.5853 0.1875 38.7023 2.07056 38.7023 4.38501C38.7023 5.31226 39.0062 6.16846 39.5175 6.86389C38.469 7.70618 37.7531 8.94543 37.6 10.3524C34.7783 8.47668 29.6646 5.71729 24 5.71729C18.3362 5.71729 13.2231 8.47595 10.4008 10.3517C10.255 9.00952 9.59546 7.82007 8.62427 6.98218C9.1897 6.26697 9.52917 5.36536 9.52917 4.38501C9.52917 2.07056 7.64612 0.1875 5.3313 0.1875C3.01685 0.1875 1.13379 2.07056 1.13379 4.38501C1.13379 5.31226 1.43665 6.16956 1.94788 6.86462C0.761353 7.81824 0 9.28015 0 10.9171V40.4392C0 41.2159 0.629517 41.8455 1.40625 41.8455L46.5938 41.844C47.3705 41.844 48 41.2145 48 40.4377V10.9171C48 9.3457 47.2987 7.93542 46.1931 6.98108V6.98108ZM10.4315 19.8959H15.1062V32.6309H10.4315V19.8959ZM17.9187 19.8959H22.5938V32.6309H17.9187V19.8959ZM25.4062 19.8959H30.0813V32.6309H25.4062V19.8959ZM32.8938 19.8959H37.5685V32.6309H32.8938V19.8959ZM37.5685 17.0834H32.8938V10.8823C35.0991 11.9846 36.7811 13.1858 37.5685 13.7878V17.0834ZM30.0813 17.0834H25.4062V8.59644C27.0421 8.74878 28.623 9.15088 30.0813 9.67383V17.0834ZM22.5938 17.0834H17.9187V9.66943C19.3755 9.14832 20.9557 8.74768 22.5938 8.59607V17.0834ZM15.1062 17.0834H10.4315V13.7867C11.2185 13.1829 12.899 11.9795 15.1062 10.8765V17.0834ZM10.4315 35.4434H15.1062V39.033H10.4315V35.4434ZM17.9187 35.4434H22.5938V39.033H17.9187V35.4434ZM25.4062 35.4434H30.0813V39.033H25.4062V35.4434ZM32.8938 35.4434H37.5685V39.033H32.8938V35.4434ZM42.9001 3C43.6637 3 44.2852 3.62146 44.2852 4.38501C44.2852 5.14856 43.6637 5.77002 42.9001 5.77002C42.1362 5.77002 41.5148 5.14856 41.5148 4.38501C41.5148 3.62146 42.1362 3 42.9001 3ZM5.3313 3C6.09521 3 6.71667 3.62146 6.71667 4.38501C6.71667 5.14856 6.09521 5.77002 5.3313 5.77002C4.56775 5.77002 3.94629 5.14856 3.94629 4.38501C3.94629 3.62146 4.56775 3 5.3313 3ZM2.8125 10.9171C2.8125 9.60095 3.88367 8.52979 5.19983 8.52979H5.23132C6.54785 8.52979 7.61865 9.60095 7.61865 10.9171V39.033H2.8125V10.9171ZM45.1875 39.0315H40.381V10.9171C40.381 9.60095 41.4521 8.52979 42.7683 8.52979H42.8002C44.1163 8.52979 45.1875 9.60095 45.1875 10.9171V39.0315Z" fill="#0C9E6A"/>
</svg>
