<svg width="24" height="30" viewBox="0 0 24 30" fill="none" xmlns="http://www.w3.org/2000/svg">
<path fill-rule="evenodd" clip-rule="evenodd" d="M11.5793 8.60251C11.757 8.52264 11.9599 8.5201 12.1396 8.59552L18.875 11.4225C19.1362 11.5321 19.3061 11.7876 19.3061 12.0708V19.697C19.3061 19.9802 19.1362 20.2357 18.875 20.3453L12.1396 23.1723C11.9599 23.2477 11.757 23.2452 11.5793 23.1653L5.28867 20.3383C5.03618 20.2249 4.87376 19.9738 4.87376 19.697V12.0708C4.87376 11.794 5.03618 11.5429 5.28867 11.4295L11.5793 8.60251ZM11.877 10.0104L7.11397 12.1509L12.0001 14.3511L16.93 12.1312L11.877 10.0104ZM17.8998 13.2368V19.2296L12.7031 21.4107V15.5768L17.8998 13.2368ZM6.28001 19.2421V13.3176L11.2969 15.5767V21.4967L6.28001 19.2421Z" fill="#0C9E6A"/>
<path fill-rule="evenodd" clip-rule="evenodd" d="M0.75 1.875C0.75 1.35723 1.16973 0.9375 1.6875 0.9375H16.6875C16.8362 0.9375 16.9768 0.972127 17.1018 1.03376C17.1992 1.06747 17.2907 1.12323 17.3685 1.20102L22.9517 6.78423C23.0063 6.8389 23.0501 6.90032 23.083 6.96582C23.1883 7.11738 23.25 7.30149 23.25 7.5V28.125C23.25 28.6428 22.8303 29.0625 22.3125 29.0625H1.6875C1.16973 29.0625 0.75 28.6428 0.75 28.125V1.875ZM21.8438 7.96875V27.6562H2.15625V2.34375H16.2188V6.35077C16.2188 7.24436 16.9431 7.96875 17.8367 7.96875H21.8438ZM20.7412 6.5625L17.625 3.44629V6.35077C17.625 6.46771 17.7198 6.5625 17.8367 6.5625H20.7412Z" fill="#0C9E6A"/>
</svg>
