<svg width="36" height="46" viewBox="0 0 36 46" fill="none" xmlns="http://www.w3.org/2000/svg">
<path fill-rule="evenodd" clip-rule="evenodd" d="M17.3268 12.764C17.6112 12.6362 17.9359 12.6322 18.2233 12.7528L29.0001 17.276C29.4179 17.4513 29.6897 17.8602 29.6897 18.3133V30.5152C29.6897 30.9683 29.4179 31.3772 29.0001 31.5525L18.2233 36.0756C17.9359 36.1963 17.6112 36.1923 17.3268 36.0645L7.26188 31.5413C6.85789 31.3598 6.59802 30.9581 6.59802 30.5152V18.3133C6.59802 17.8704 6.85789 17.4687 7.26188 17.2872L17.3268 12.764ZM17.8033 15.0167L10.1823 18.4415L18.0002 21.9618L25.888 18.4099L17.8033 15.0167ZM27.4397 20.1788V29.7673L19.125 33.2571V23.9229L27.4397 20.1788ZM8.84802 29.7874V20.3082L16.875 23.9228V33.3947L8.84802 29.7874Z" fill="#0C9E6A"/>
<path fill-rule="evenodd" clip-rule="evenodd" d="M0 2C0 1.17157 0.671573 0.5 1.5 0.5H25.5C25.7379 0.5 25.9629 0.555403 26.1628 0.654014C26.3187 0.707956 26.4651 0.797164 26.5896 0.92164L35.5227 9.85477C35.6102 9.94223 35.6802 10.0405 35.7328 10.1453C35.9013 10.3878 36 10.6824 36 11V44C36 44.8284 35.3284 45.5 34.5 45.5H1.5C0.671574 45.5 0 44.8284 0 44V2ZM33.75 11.75V43.25H2.25V2.75H24.75V9.16124C24.75 10.591 25.909 11.75 27.3388 11.75H33.75ZM31.9859 9.5L27 4.51406V9.16124C27 9.34833 27.1517 9.5 27.3388 9.5H31.9859Z" fill="#0C9E6A"/>
</svg>
