<svg width="22" height="30" viewBox="0 0 22 30" fill="none" xmlns="http://www.w3.org/2000/svg">
<path d="M19.0273 25.3125V15.3516H15.2773V14.1797H19.0273V13.3008C19.0273 10.2806 16.9946 7.72629 14.2255 6.93387C14.8446 6.19951 15.2188 5.25223 15.2188 4.21875C15.2188 1.89252 13.3262 0 11 0C8.67377 0 6.78125 1.89252 6.78125 4.21875C6.78125 5.25223 7.15537 6.19951 7.77453 6.93387C5.00539 7.72629 2.97266 10.2806 2.97266 13.3008V14.1797H6.72266V15.3516H2.97266V25.3125H0.453125V30H21.5469V25.3125H19.0273ZM11 1.75781C12.357 1.75781 13.4609 2.86178 13.4609 4.21875C13.4609 5.57572 12.357 6.67969 11 6.67969C9.64303 6.67969 8.53906 5.57572 8.53906 4.21875C8.53906 2.86178 9.64303 1.75781 11 1.75781ZM4.81004 12.4219C5.22488 10.1583 7.21215 8.4375 9.59375 8.4375H12.4062C14.7879 8.4375 16.7751 10.1583 17.19 12.4219H4.81004ZM13.5195 14.1797V15.3516H8.48047V14.1797H13.5195ZM4.73047 17.1094H17.2695V25.3125H4.73047V17.1094ZM19.7891 28.2422H2.21094V27.0703H19.7891V28.2422Z" fill="#0C9E6A"/>
<path d="M14.6914 18.8086H7.30859V20.5664H14.6914V18.8086Z" fill="#0C9E6A"/>
<path d="M13.5195 21.9141H8.48047V23.6719H13.5195V21.9141Z" fill="#0C9E6A"/>
</svg>
