<svg width="16" height="16" viewBox="0 0 16 16" fill="none" xmlns="http://www.w3.org/2000/svg">
<path d="M7.99998 0C3.58173 0 0 3.58173 0 7.99998C0 12.4182 3.58173 16 7.99998 16C12.4182 16 16 12.4182 16 7.99998C16 3.58173 12.4183 0 7.99998 0ZM7.99998 14.552C4.38142 14.552 1.44799 11.6185 1.44799 7.99998C1.44799 4.38142 4.38142 1.44799 7.99998 1.44799C11.6167 1.45237 14.5476 4.38322 14.552 7.99998C14.552 11.6186 11.6186 14.552 7.99998 14.552Z"/>
<path d="M8.89996 12.4956H7.09996V6.49561H8.89996V12.4956Z"/>
<circle cx="7.99998" cy="4.9" r="0.9"/>
</svg>
