<svg width="16" height="16" viewBox="0 0 16 16" fill="none" xmlns="http://www.w3.org/2000/svg">
<path fill-rule="evenodd" clip-rule="evenodd" d="M7.99998 0C3.58173 0 0 3.58173 0 7.99998C0 12.4182 3.58173 16 7.99998 16C12.4182 16 16 12.4182 16 7.99998C16 3.58173 12.4183 0 7.99998 0ZM7.99998 14.552C4.38142 14.552 1.44799 11.6185 1.44799 7.99998C1.44799 4.38142 4.38142 1.44799 7.99998 1.44799C11.6167 1.45237 14.5476 4.38322 14.552 7.99998C14.552 11.6186 11.6186 14.552 7.99998 14.552ZM8.79996 11.2H7.19995V12.8H8.79996V11.2ZM4.80008 6.40016C4.79318 4.91434 5.80992 3.61924 7.25491 3.27327C8.97364 2.86174 10.7006 3.92142 11.1121 5.64015C11.5213 7.33894 10.4921 9.05182 8.80009 9.48814V10.4001H7.20008V8.71215C7.20008 8.31892 7.51887 8.00014 7.91209 8.00014C8.72333 8.02849 9.43666 7.4673 9.60008 6.67215C9.67519 5.7885 9.01973 5.01128 8.13608 4.93616C7.25243 4.86105 6.47521 5.51651 6.4001 6.40016H4.80008Z" fill="#0C9E6A"/>
</svg>
