<svg width="24" height="23" viewBox="0 0 24 23" fill="none" xmlns="http://www.w3.org/2000/svg">
<path d="M22.1333 5.43009H19.5879V0.800016C19.5879 0.358219 19.2297 0 18.7879 0H5.21212C4.77033 0 4.41211 0.358172 4.41211 0.800016V5.43009H1.86666C0.837375 5.43009 0 6.26751 0 7.2968V15.3453C0 16.3746 0.837375 17.212 1.86666 17.212H4.41225V21.5064C4.41225 21.9482 4.77042 22.3064 5.21227 22.3064H18.7877C19.2295 22.3064 19.5877 21.9482 19.5877 21.5064V17.212H22.1333C23.1626 17.212 24 16.3746 24 15.3453V7.2968C24 6.26756 23.1626 5.43009 22.1333 5.43009ZM6.01209 1.60003H17.9879V5.43009H6.01209V1.60003ZM17.9877 20.7064H6.01228C6.01228 20.55 6.01228 14.3547 6.01228 14.1613H17.9878C17.9877 14.3595 17.9877 20.556 17.9877 20.7064ZM22.4 15.3454C22.4 15.4924 22.2804 15.612 22.1333 15.612H19.5877V13.3614C19.5877 12.9196 19.2296 12.5614 18.7877 12.5614H5.21227C4.77047 12.5614 4.41225 12.9195 4.41225 13.3614V15.612H1.86666C1.71961 15.612 1.59998 15.4924 1.59998 15.3454V7.29684C1.59998 7.1498 1.71961 7.03017 1.86666 7.03017C2.48044 7.03017 21.534 7.03017 22.1333 7.03017C22.2804 7.03017 22.4 7.1498 22.4 7.29684V15.3454Z" fill="#0C9E6A"/>
<path d="M18.7878 8.52764H16.7514C16.3096 8.52764 15.9514 8.88581 15.9514 9.32766C15.9514 9.7695 16.3096 10.1277 16.7514 10.1277H18.7878C19.2296 10.1277 19.5878 9.7695 19.5878 9.32766C19.5878 8.88581 19.2296 8.52764 18.7878 8.52764Z" fill="#0C9E6A"/>
<path d="M15.4667 17.8955H8.53327C8.09147 17.8955 7.73325 18.2536 7.73325 18.6955C7.73325 19.1373 8.09143 19.4955 8.53327 19.4955H15.4666C15.9084 19.4955 16.2666 19.1373 16.2666 18.6955C16.2666 18.2536 15.9085 17.8955 15.4667 17.8955Z" fill="#0C9E6A"/>
<path d="M15.4667 15.3723H8.53327C8.09147 15.3723 7.73325 15.7304 7.73325 16.1723C7.73325 16.6141 8.09143 16.9723 8.53327 16.9723H15.4666C15.9084 16.9723 16.2666 16.6141 16.2666 16.1723C16.2666 15.7304 15.9085 15.3723 15.4667 15.3723Z" fill="#0C9E6A"/>
</svg>
