<svg width="30" height="28" viewBox="0 0 30 28" fill="none" xmlns="http://www.w3.org/2000/svg">
<path d="M29.1211 14.879H28.0933C27.9435 14.1489 27.6097 13.464 27.1154 12.8943C26.9525 12.7065 26.7748 12.5338 26.5845 12.3775L27.4323 12.0521C27.8854 11.8781 28.1118 11.3697 27.9379 10.9166C27.5172 9.82069 26.695 8.95426 25.6226 8.47684C25.2822 8.32532 24.9296 8.21874 24.5718 8.15727L25.5652 7.16387C25.9082 6.82086 25.9083 6.26411 25.5652 5.92092C24.8208 5.17661 23.8334 4.72567 22.7848 4.65131C22.5368 4.63368 22.2891 4.63731 22.0441 4.66139L22.4135 3.8317C22.6107 3.38862 22.4114 2.86872 21.968 2.67131C20.5003 2.01788 18.8617 2.23684 17.6367 3.10385V1.69543C17.6367 1.21004 17.2431 0.816528 16.7578 0.816528C15.7051 0.816528 14.6881 1.19586 13.8941 1.88463C13.7063 2.04752 13.5336 2.22536 13.3774 2.41561L13.0519 1.56776C12.878 1.11459 12.3695 0.888306 11.9164 1.06221C10.4198 1.63672 9.41291 2.93891 9.15715 4.42831L8.16375 3.43491C7.82057 3.09167 7.26404 3.09167 6.9208 3.43491C6.17643 4.17922 5.72555 5.16665 5.65113 6.21524C5.63355 6.46321 5.63713 6.711 5.66121 6.95598L4.83152 6.58661C4.38844 6.38926 3.86848 6.58866 3.67113 7.03204C3.0177 8.49975 3.2366 10.1383 4.10361 11.3633H2.69531C2.20992 11.3633 1.81641 11.7569 1.81641 12.2423C1.81641 13.1973 2.12965 14.1225 2.70199 14.879H0.878906C0.393516 14.879 0 15.2725 0 15.7579V26.3048C0 26.7901 0.393516 27.1837 0.878906 27.1837H29.1211C29.6065 27.1837 30 26.7901 30 26.3048V15.7579C30 15.2725 29.6065 14.879 29.1211 14.879ZM6.73002 13.1212C7.67461 13.1212 7.9507 11.8237 7.0875 11.4394L6.6133 11.2282C5.56652 10.7621 4.97238 9.69342 5.05705 8.6112L6.83467 9.40268C7.19801 9.56446 7.6248 9.46204 7.87518 9.15289C8.12549 8.84375 8.13703 8.40501 7.90318 8.08315C7.31812 7.27795 7.24324 6.25344 7.64818 5.40542L9.77373 7.53096C10.4416 8.19875 11.5545 7.4767 11.2157 6.59446L11.0297 6.10983C10.6107 5.01846 10.9688 3.84788 11.7793 3.15764L12.4772 4.97545C12.6197 5.34682 12.9942 5.57622 13.3896 5.53456C13.7852 5.49295 14.1036 5.19084 14.1658 4.79791C14.3215 3.81489 14.993 3.03758 15.8789 2.72422V5.73014C15.8789 6.1451 16.1692 6.50358 16.5751 6.58983C16.9808 6.67614 17.3919 6.46678 17.5607 6.08762L17.7719 5.61342C18.238 4.56665 19.3072 3.97233 20.3889 4.05723L19.5975 5.83485C19.4357 6.19825 19.5381 6.62504 19.8473 6.87542C20.1565 7.12573 20.5952 7.13721 20.9171 6.90342C21.7223 6.31836 22.7468 6.24342 23.5948 6.64848L21.4693 8.77403C21.1759 9.06747 21.1277 9.5262 21.3537 9.87419C21.5797 10.2222 22.0183 10.3648 22.4058 10.216L22.8904 10.03C23.5479 9.77756 24.2644 9.79631 24.9078 10.0828C25.2734 10.2456 25.5905 10.4837 25.8426 10.7796L24.0248 11.4774C23.6534 11.62 23.4241 11.9942 23.4657 12.3898C23.5073 12.7855 23.8094 13.1038 24.2023 13.166C25.1853 13.3217 25.9627 13.9931 26.276 14.8791C25.0309 14.8791 21.5537 14.8791 21.0888 14.8791C21.1303 14.5893 21.1525 14.296 21.1525 14.0002C21.1525 10.6078 18.3925 7.84784 15.0001 7.84784C11.6077 7.84784 8.84777 10.6078 8.84777 14.0002C8.84777 14.296 8.86992 14.5893 8.91141 14.8791H5.96824C5.91398 14.8589 5.85709 14.8436 5.79779 14.8343C4.81482 14.6786 4.0374 14.0072 3.7241 13.1212H6.73002ZM15 11.3634C13.5461 11.3634 12.3633 12.5462 12.3633 14.0001C12.3633 14.3082 12.4169 14.6039 12.5145 14.879H10.6939C10.6356 14.5914 10.6055 14.2977 10.6055 14.0001C10.6055 11.577 12.5769 9.60559 15 9.60559C17.4231 9.60559 19.3945 11.577 19.3945 14.0001C19.3945 14.2977 19.3644 14.5914 19.3061 14.879H17.4855C17.5831 14.6039 17.6367 14.3082 17.6367 14.0001C17.6367 12.5462 16.4539 11.3634 15 11.3634ZM15.8789 14.0001C15.8789 14.4848 15.4846 14.879 15 14.879C14.5154 14.879 14.1211 14.4848 14.1211 14.0001C14.1211 13.5155 14.5154 13.1212 15 13.1212C15.4846 13.1212 15.8789 13.5155 15.8789 14.0001ZM28.2422 21.9103H22.0312C21.5459 21.9103 21.1523 22.3038 21.1523 22.7892C21.1523 23.2746 21.5459 23.6681 22.0312 23.6681H28.2422V25.4259H1.75781V20.1525H7.96875C8.45414 20.1525 8.84766 19.7589 8.84766 19.2736C8.84766 18.7882 8.45414 18.3947 7.96875 18.3947H1.75781V16.6368C2.26916 16.6368 27.8771 16.6368 28.2422 16.6368V21.9103Z" fill="#0C9E6A"/>
</svg>
