<svg width="46" height="46" viewBox="0 0 46 46" fill="none" xmlns="http://www.w3.org/2000/svg">
<path fill-rule="evenodd" clip-rule="evenodd" d="M15.5331 1.86931V4.26944L18.5959 6.87597C19.1298 7.33031 19.1943 8.13142 18.7399 8.66529C18.2856 9.19916 17.4845 9.26363 16.9506 8.80929L13.4411 5.82263C13.1577 5.58146 12.9945 5.22809 12.9945 4.85597V1.86931C12.9945 1.16827 13.5628 0.599976 14.2638 0.599976C14.9648 0.599976 15.5331 1.16827 15.5331 1.86931Z" fill="#0C9E6A"/>
<path fill-rule="evenodd" clip-rule="evenodd" d="M30.3212 1.96483V4.36496L27.2584 6.97149C26.7245 7.42583 26.66 8.22694 27.1144 8.76081C27.5687 9.29468 28.3698 9.35916 28.9037 8.90481L32.4132 5.91815C32.6965 5.67698 32.8598 5.32361 32.8598 4.95149V1.96483C32.8598 1.2638 32.2915 0.695496 31.5905 0.695496C30.8895 0.695496 30.3212 1.26379 30.3212 1.96483Z" fill="#0C9E6A"/>
<path fill-rule="evenodd" clip-rule="evenodd" d="M25.9866 25.7625C25.2855 25.7625 24.7172 25.1942 24.7172 24.4931V18.0718C24.7172 17.3708 25.2855 16.8025 25.9866 16.8025C26.6876 16.8025 27.2559 17.3708 27.2559 18.0718V24.4931C27.2559 25.1942 26.6876 25.7625 25.9866 25.7625Z" fill="#0C9E6A"/>
<path fill-rule="evenodd" clip-rule="evenodd" d="M20.0133 25.7625C19.3122 25.7625 18.7439 25.1942 18.7439 24.4931V18.0718C18.7439 17.3708 19.3122 16.8025 20.0133 16.8025C20.7143 16.8025 21.2826 17.3708 21.2826 18.0718L21.2826 24.4931C21.2826 25.1942 20.7143 25.7625 20.0133 25.7625Z" fill="#0C9E6A"/>
<path fill-rule="evenodd" clip-rule="evenodd" d="M12.9945 18.2959C12.9945 16.8938 14.131 15.7572 15.5331 15.7572H30.4664C31.8685 15.7572 33.0051 16.8938 33.0051 18.2959V24.2692C33.0051 25.6713 31.8685 26.8079 30.4664 26.8079H15.5331C14.131 26.8079 12.9945 25.6713 12.9945 24.2692V18.2959ZM15.5331 18.2959V24.2692H30.4664V18.2959H15.5331Z" fill="#0C9E6A"/>
<path fill-rule="evenodd" clip-rule="evenodd" d="M22.9999 36.2158C22.2989 36.2158 21.7306 35.6475 21.7306 34.9465V31.5118C21.7306 30.8108 22.2989 30.2425 22.9999 30.2425C23.7009 30.2425 24.2692 30.8108 24.2692 31.5118V34.9465C24.2692 35.6475 23.7009 36.2158 22.9999 36.2158Z" fill="#0C9E6A"/>
<path fill-rule="evenodd" clip-rule="evenodd" d="M16.1291 26.66L17.9242 24.8649L23 29.9406L28.0758 24.8649L29.8709 26.66L23 33.5309L16.1291 26.66Z" fill="#0C9E6A"/>
<path fill-rule="evenodd" clip-rule="evenodd" d="M17.5494 18.2958C16.8484 18.2958 16.2801 17.7275 16.2801 17.0265V7.61851C16.2801 6.91748 16.8484 6.34918 17.5494 6.34918C18.2504 6.34918 18.8187 6.91748 18.8187 7.61851L18.8187 17.0265C18.8187 17.7275 18.2504 18.2958 17.5494 18.2958Z" fill="#0C9E6A"/>
<path fill-rule="evenodd" clip-rule="evenodd" d="M28.4504 18.2958C27.7494 18.2958 27.1811 17.7275 27.1811 17.0265V7.61851C27.1811 6.91748 27.7494 6.34918 28.4504 6.34918C29.1515 6.34918 29.7198 6.91748 29.7198 7.61851V17.0265C29.7198 17.7275 29.1515 18.2958 28.4504 18.2958Z" fill="#0C9E6A"/>
<path fill-rule="evenodd" clip-rule="evenodd" d="M29.7198 7.61851C29.7198 8.31954 29.1517 8.88777 28.4507 8.88777H17.5494C16.8484 8.88777 16.2801 8.31954 16.2801 7.61851C16.2801 6.91748 16.8484 6.34918 17.5494 6.34918H28.4504C29.1515 6.34918 29.7198 6.91748 29.7198 7.61851Z" fill="#0C9E6A"/>
<path fill-rule="evenodd" clip-rule="evenodd" d="M32.8453 1.86933C32.8453 2.57036 32.277 3.13866 31.5759 3.13866H14.2648C13.5638 3.13866 12.9945 2.57034 12.9945 1.86931C12.9945 1.16827 13.5628 0.599976 14.2638 0.599976L31.5759 0.600001C32.277 0.600001 32.8453 1.1683 32.8453 1.86933Z" fill="#0C9E6A"/>
<path d="M40.7495 31.5796C41.3236 31.1772 41.4627 30.3857 41.0604 29.8116C40.658 29.2376 39.8664 29.0984 39.2924 29.5008L36.9943 31.1116C36.4202 31.5139 36.2811 32.3055 36.6834 32.8796C37.0858 33.4536 37.8774 33.5928 38.4514 33.1904L40.7495 31.5796Z" fill="#0C9E6A"/>
<path d="M6.70695 29.5008C6.13289 29.0984 5.34134 29.2376 4.93896 29.8116C4.53659 30.3857 4.67577 31.1772 5.24982 31.5796L7.5479 33.1904C8.12195 33.5928 8.91351 33.4536 9.31588 32.8796C9.71826 32.3055 9.57908 31.5139 9.00502 31.1116L6.70695 29.5008Z" fill="#0C9E6A"/>
<path d="M13.3154 34.1328C12.7413 33.7304 11.9498 33.8696 11.5474 34.4437C11.145 35.0177 11.2842 35.8093 11.8582 36.2116L21.3452 42.8613H1.86943C1.1684 42.8613 0.600098 43.4296 0.600098 44.1306C0.600098 44.8317 1.1684 45.4 1.86943 45.4H44.1307C44.8317 45.4 45.4 44.8317 45.4 44.1306C45.4 43.4296 44.8317 42.8613 44.1307 42.8613H24.654L34.1411 36.2117C34.7151 35.8093 34.8543 35.0177 34.4519 34.4437C34.0496 33.8696 33.258 33.7304 32.6839 34.1328L22.9996 40.9208L13.3154 34.1328Z" fill="#0C9E6A"/>
</svg>
