<svg width="48" height="48" viewBox="0 0 48 48" fill="none" xmlns="http://www.w3.org/2000/svg">
<path d="M42.2812 39.4688C42.2812 39.1786 42.2812 28.5618 42.2812 28.125H42.0394C42.1955 27.6848 42.2812 27.2117 42.2812 26.7188C42.2812 26.1396 42.1158 25.0843 40.6852 22.6181C40.2128 21.804 39.7448 21.0803 39.4688 20.6643V5.625H36.4235C35.9172 4.13044 34.5973 2.80275 32.5838 1.79597C30.2676 0.637781 27.2191 0 24 0C20.781 0 17.7324 0.637781 15.4162 1.79597C13.4026 2.80275 12.0828 4.13044 11.5765 5.625H8.53125V33.8438H5.71875V39.4688H0V48H48V39.4688H42.2812ZM36.6562 30.9375H39.4688C39.4688 31.8471 39.4688 38.5754 39.4688 39.4688H36.6562V30.9375ZM36.6562 26.7203C36.6677 26.2904 37.2527 25.0649 38.0628 23.7C38.8721 25.0634 39.4567 26.2883 39.4688 26.7198C39.4682 27.4946 38.8375 28.1249 38.0625 28.1249C37.2871 28.125 36.6562 27.4942 36.6562 26.7203ZM11.3438 8.4375H14.1562V7.03125C14.1562 5.03981 18.366 2.8125 24 2.8125C29.634 2.8125 33.8438 5.03981 33.8438 7.03125V8.4375H36.6562V20.6643C36.3802 21.0803 35.9122 21.804 35.4398 22.6181C34.0092 25.0843 33.8438 26.1396 33.8438 26.7188C33.8438 27.2117 33.9295 27.6848 34.0856 28.125H33.8438V33.8438H11.3438V8.4375ZM8.53125 36.6562H33.8438V39.4688H8.53125V36.6562ZM45.1875 45.1875H2.8125V42.2812C3.40069 42.2812 44.8853 42.2812 45.1875 42.2812V45.1875Z" fill="#0C9E6A"/>
<path d="M28.2188 9.84375C28.2188 7.51753 26.3262 5.625 24 5.625C21.6738 5.625 19.7812 7.51753 19.7812 9.84375C19.7812 12.17 21.6738 14.0625 24 14.0625C26.3262 14.0625 28.2188 12.17 28.2188 9.84375ZM24 11.25C23.2246 11.25 22.5938 10.6192 22.5938 9.84375C22.5938 9.06834 23.2246 8.4375 24 8.4375C24.7754 8.4375 25.4062 9.06834 25.4062 9.84375C25.4062 10.6192 24.7754 11.25 24 11.25Z" fill="#0C9E6A"/>
<path d="M24 14.0625C20.123 14.0625 16.9688 17.2167 16.9688 21.0938V22.5H31.0312V21.0938C31.0312 17.2167 27.877 14.0625 24 14.0625ZM20.0222 19.6875C20.6026 18.0505 22.1666 16.875 24 16.875C25.8334 16.875 27.3974 18.0505 27.9778 19.6875H20.0222Z" fill="#0C9E6A"/>
<path d="M31.0312 25.3125H16.9875V28.125H31.0312V25.3125Z" fill="#0C9E6A"/>
</svg>
