<svg width="48" height="48" viewBox="0 0 48 48" fill="none" xmlns="http://www.w3.org/2000/svg">
<path d="M46.797 0.661621H1.20301C0.541353 0.661621 0 1.20297 0 1.86463V46.1353C0 46.797 0.541353 47.3383 1.20301 47.3383H46.797C47.4586 47.3383 48 46.797 48 46.1353V1.86463C48 1.20297 47.4586 0.661621 46.797 0.661621ZM18.6466 11.609V3.06764H35.7293V11.609C35.7293 11.6571 35.7534 11.6932 35.7774 11.7293H18.6226C18.6346 11.6932 18.6466 11.6451 18.6466 11.609ZM18.6226 25.203H35.7774C35.7534 25.2391 35.7414 25.2752 35.7293 25.3112V33.8646H18.6466V25.3112C18.6466 25.2752 18.6346 25.2391 18.6226 25.203ZM25.985 22.797H8.90226V14.1353H25.985V22.797ZM2.40602 3.06764H16.2406V11.609C16.2406 11.6451 16.2165 11.7293 16.2286 11.7293H2.40602V3.06764ZM2.40602 14.1353H6.49624V22.797H2.40602V14.1353ZM2.40602 25.203H16.2286C16.2286 25.203 16.2406 25.2752 16.2406 25.3112V33.8646H2.40602V25.203ZM6.49624 44.9323H2.40602V36.2706H6.49624V44.9323ZM25.985 44.9323H8.90226V36.2706H25.985V44.9323ZM45.4737 44.9323H28.391V36.2706H45.4737V44.9323ZM45.4737 33.8646H38.1353V25.3112C38.1474 25.2752 38.1594 25.2391 38.1714 25.203H45.4737V33.8646ZM45.4737 22.797H28.391V14.1353H45.4737V22.797ZM45.4737 11.7293H38.1714C38.1594 11.6932 38.1474 11.6451 38.1353 11.609V3.06764H45.4737V11.7293Z" fill="#0C9E6A"/>
</svg>
