<svg width="48" height="48" viewBox="0 0 48 48" fill="none" xmlns="http://www.w3.org/2000/svg">
<path d="M7.57983 25.8662C10.8153 26.996 15.0498 27.7317 19.7812 28.0052V34.3195C14.6851 35.2723 11.3438 37.8629 11.3438 40.9688C11.3438 43.0316 12.7899 44.8909 15.416 46.2041C17.7323 47.3621 20.781 48 24 48C27.219 48 30.2677 47.3621 32.584 46.2041C35.2101 44.8909 36.6562 43.0316 36.6562 40.9688C36.6562 37.8629 33.3149 35.2723 28.2188 34.3195V28.0052C32.9502 27.7317 37.1847 26.996 40.4202 25.8662C46.6849 23.6792 48 20.5342 48 18.2812V11.25C48 8.02881 45.3428 5.09875 40.5176 3C36.0707 1.06531 30.2043 0 24 0C17.7957 0 11.9293 1.06531 7.48242 3C2.65723 5.09875 0 8.02881 0 11.25V18.2812C0 20.5342 1.31506 23.6792 7.57983 25.8662ZM33.8438 40.9688C33.8438 42.9602 29.6342 45.1875 24 45.1875C18.3658 45.1875 14.1562 42.9602 14.1562 40.9688C14.1562 39.6222 16.229 37.9684 19.7812 37.1895V38.1562C19.7812 40.4824 21.6738 42.375 24 42.375C26.3262 42.375 28.2188 40.4824 28.2188 38.1562V37.1895C31.771 37.9684 33.8438 39.6222 33.8438 40.9688ZM25.4062 38.1562C25.4062 38.9315 24.7753 39.5625 24 39.5625C23.2247 39.5625 22.5938 38.9315 22.5938 38.1562V28.1115C23.0592 28.1202 24.9408 28.1202 25.4062 28.1115V38.1562ZM39.4933 23.2112C35.6118 24.5662 30.1099 25.3125 24 25.3125C17.8901 25.3125 12.3882 24.5662 8.50671 23.2112C6.38013 22.4685 2.8125 20.8407 2.8125 18.2812V16.6582C4.01147 17.7125 5.57703 18.6713 7.48242 19.5C11.9293 21.4347 17.7957 22.5 24 22.5C30.2043 22.5 36.0707 21.4347 40.5176 19.5C42.423 18.6713 43.9885 17.7125 45.1875 16.6582V18.2812C45.1875 20.8407 41.6199 22.4685 39.4933 23.2112ZM8.60413 5.57886C12.7053 3.79504 18.1729 2.8125 24 2.8125C29.8271 2.8125 35.2947 3.79504 39.3959 5.57886C43.0763 7.17993 45.1875 9.24719 45.1875 11.25C45.1875 13.2528 43.0763 15.3201 39.3959 16.9211C35.2947 18.705 29.8271 19.6875 24 19.6875C18.1729 19.6875 12.7053 18.705 8.60413 16.9211C4.92371 15.3201 2.8125 13.2528 2.8125 11.25C2.8125 9.24719 4.92371 7.17993 8.60413 5.57886V5.57886Z" fill="#0C9E6A"/>
</svg>
