<svg width="16" height="16" viewBox="0 0 16 16" fill="none" xmlns="http://www.w3.org/2000/svg">
<path fill-rule="evenodd" clip-rule="evenodd" d="M13.0586 4.18452H14.7556C15.4418 4.18452 16 4.74283 16 5.42898V10.7947C16 11.4809 15.4418 12.0391 14.7556 12.0391H13.0585V14.902C13.0585 15.1966 12.8197 15.4354 12.5252 15.4354H3.47484C3.18028 15.4354 2.9415 15.1966 2.9415 14.902V12.0391H1.24444C0.55825 12.0391 0 11.4809 0 10.7947V5.42898C0 4.7428 0.55825 4.18452 1.24444 4.18452H2.94141V1.0978C2.94141 0.803234 3.18022 0.564453 3.47475 0.564453H12.5253C12.8198 0.564453 13.0586 0.803266 13.0586 1.0978V4.18452ZM11.9919 1.63114H4.00806V4.18452H11.9919V1.63114ZM4.00819 14.3687H11.9918L11.9918 10.0053H4.00819V14.3687ZM14.7556 10.9725C14.8536 10.9725 14.9333 10.8927 14.9333 10.7947V5.42902C14.9333 5.33098 14.8536 5.25123 14.7556 5.25123H1.24444C1.14641 5.25123 1.06666 5.33098 1.06666 5.42902V10.7947C1.06666 10.8927 1.14641 10.9725 1.24444 10.9725H2.9415V9.47205C2.9415 9.17748 3.18031 8.9387 3.47484 8.9387H12.5252C12.8197 8.9387 13.0585 9.17752 13.0585 9.47205V10.9725H14.7556ZM11.1676 6.24957H12.5252C12.8198 6.24957 13.0586 6.48835 13.0586 6.78292C13.0586 7.07748 12.8197 7.31626 12.5252 7.31626H11.1676C10.8731 7.31626 10.6343 7.07748 10.6343 6.78292C10.6343 6.48835 10.8731 6.24957 11.1676 6.24957ZM10.3111 12.4948H5.68886C5.39433 12.4948 5.15552 12.7335 5.15552 13.0281C5.15552 13.3227 5.3943 13.5614 5.68886 13.5614H10.3111C10.6056 13.5614 10.8444 13.3227 10.8444 13.0281C10.8444 12.7335 10.6057 12.4948 10.3111 12.4948ZM5.68886 10.8126H10.3111C10.6057 10.8126 10.8444 11.0514 10.8444 11.346C10.8444 11.6405 10.6056 11.8793 10.3111 11.8793H5.68886C5.3943 11.8793 5.15552 11.6405 5.15552 11.346C5.15552 11.0514 5.39433 10.8126 5.68886 10.8126Z" fill="#0C9E6A"/>
</svg>
