<svg width="25" height="18" viewBox="0 0 25 18" fill="none" xmlns="http://www.w3.org/2000/svg">
	<path fill-rule="evenodd" clip-rule="evenodd" d="M24.3411 8.9385L22.9313 7.12274L22.9319 7.12242L20.663 2.60984C20.5344 2.35447 20.273 2.19336 19.9871 2.19336H16.7604V1.43597C16.7604 1.01822 16.4218 0.679688 16.0041 0.679688H3.3991C2.98135 0.679688 2.64282 1.01827 2.64282 1.43597C2.64282 1.85367 2.9814 2.19225 3.3991 2.19225H15.2478V7.48636C15.2478 7.90411 15.5864 8.24264 16.0041 8.24264H21.8859L22.9873 9.66145V13.562H21.562C21.234 12.2462 20.0422 11.2686 18.6263 11.2686C17.2099 11.2686 16.0177 12.247 15.6902 13.5635H11.226C10.8985 12.247 9.7063 11.2686 8.28987 11.2686C6.87344 11.2686 5.68128 12.247 5.35375 13.5635H3.3991C2.98135 13.5635 2.64282 13.9021 2.64282 14.3198C2.64282 14.7375 2.9814 15.076 3.3991 15.076H5.36718C5.7128 16.3662 6.89214 17.319 8.28987 17.319C9.68758 17.319 10.8669 16.3663 11.2125 15.0761H15.7036C16.0493 16.3663 17.2286 17.319 18.6263 17.319C20.0248 17.319 21.2044 16.3655 21.5494 15.0745H23.7436C24.1613 15.0745 24.4998 14.736 24.4999 14.3182V9.40238C24.4999 9.23447 24.4439 9.07111 24.3411 8.9385ZM19.5207 3.70597L21.0411 6.73008H16.7604V3.70597H19.5207ZM20.1389 14.2938V14.295C20.1387 14.3027 20.1386 14.3105 20.1386 14.3182L20.1386 14.3251C20.1218 15.1449 19.45 15.8064 18.6263 15.8064C17.7921 15.8064 17.1137 15.128 17.1137 14.2938C17.1137 13.4596 17.7921 12.7812 18.6263 12.7812C19.4605 12.7812 20.1389 13.4596 20.1389 14.2938ZM8.28987 15.8064C7.45568 15.8064 6.77726 15.128 6.77726 14.2938C6.77726 13.4596 7.45568 12.7812 8.28987 12.7812C9.12382 12.7812 9.80248 13.4596 9.80248 14.2938C9.80248 15.128 9.12405 15.8064 8.28987 15.8064ZM2.49163 9.73145H5.97065C6.38835 9.73145 6.72693 10.07 6.72688 10.4877C6.72688 10.9054 6.38835 11.244 5.9706 11.244H2.49163C2.07393 11.244 1.73535 10.9055 1.73535 10.4877C1.73535 10.07 2.07388 9.73145 2.49163 9.73145ZM7.71008 6.75586H1.25628C0.838578 6.75586 0.5 7.09444 0.5 7.51219C0.5 7.92994 0.838578 8.26847 1.25628 8.26847H7.71008C8.12783 8.26847 8.46636 7.92989 8.46636 7.51219C8.46636 7.09448 8.12783 6.75586 7.71008 6.75586ZM2.49163 3.78223H8.94543C9.36318 3.78223 9.70176 4.1208 9.70171 4.53851C9.70171 4.95621 9.36318 5.29479 8.94543 5.29479H2.49163C2.07393 5.29479 1.73535 4.95626 1.73535 4.53851C1.73535 4.1208 2.07388 3.78223 2.49163 3.78223Z"/>
</svg>
