<svg width="26" height="28" viewBox="0 0 26 28" fill="none" xmlns="http://www.w3.org/2000/svg">
<path d="M25.3047 25.2071L23.6641 23.5118V3.28125H19.912C19.0733 2.44363 16.3404 0 13 0C9.65958 0 6.9267 2.44363 6.08801 3.28125H2.33594V23.5118L0.695312 25.2071V28H25.3047V25.2071ZM6.80344 4.92102L7.04782 4.64972C7.07495 4.6196 9.79565 1.64062 13 1.64062C16.2043 1.64062 18.925 4.6196 18.9513 4.64886L19.1959 4.92188H22.0234V23.0234H20.3828V6.5625H18.463L17.7298 5.74411C17.1584 5.10516 15.0627 3.28125 13 3.28125C10.9774 3.28125 8.90549 5.05304 8.27765 5.73578L7.53702 6.5625H5.61719V23.0234H3.97656V4.92188C4.16006 4.92188 3.14471 4.92209 6.80344 4.92102ZM18.7422 23.0234H7.25781V8.20312H8.26996L9.48889 6.84235C10.0467 6.23779 11.6969 4.92188 13 4.92188C14.3683 4.92188 16.0495 6.32623 16.5075 6.83829L17.73 8.20312H18.7422V23.0234ZM23.6641 26.3594H2.33594V25.871L3.50403 24.6641H22.496L23.6641 25.871V26.3594Z" fill="#0C9E6A"/>
<path d="M15.4609 9.07812C15.4609 7.71863 14.3621 6.5625 13 6.5625C11.6405 6.5625 10.5391 7.71628 10.5391 9.07812V11.5391H15.4609V9.07812ZM13.8203 9.89844H12.1797V9.07812C12.1797 8.612 12.5629 8.20312 13 8.20312C13.4371 8.20312 13.8203 8.612 13.8203 9.07812V9.89844Z" fill="#0C9E6A"/>
<path d="M8.89844 13.1797H17.1016V14.8203H8.89844V13.1797Z" fill="#0C9E6A"/>
<path d="M8.89844 16.4609H17.1016V18.1016H8.89844V16.4609Z" fill="#0C9E6A"/>
<path d="M8.89844 19.7422H17.1016V21.3828H8.89844V19.7422Z" fill="#0C9E6A"/>
</svg>
