<svg width="46" height="40" viewBox="0 0 46 40" fill="none" xmlns="http://www.w3.org/2000/svg">
<path fill-rule="evenodd" clip-rule="evenodd" d="M11.6937 35.1075C11.6937 37.8096 9.54225 40.0001 6.88833 40.0001C4.23442 40.0001 2.08299 37.8096 2.08299 35.1075C2.08299 32.4054 4.23442 30.2149 6.88833 30.2149C9.54225 30.2149 11.6937 32.4054 11.6937 35.1075ZM6.88833 37.4009C8.13235 37.4009 9.14083 36.3741 9.14083 35.1075C9.14083 33.8409 8.13235 32.8141 6.88833 32.8141C5.64431 32.8141 4.63583 33.8409 4.63583 35.1075C4.63583 36.3741 5.64431 37.4009 6.88833 37.4009Z" fill="#0C9E6A"/>
<path fill-rule="evenodd" clip-rule="evenodd" d="M43.4372 35.1075C43.4372 37.8096 41.2857 40.0001 38.6318 40.0001C35.9779 40.0001 33.8265 37.8096 33.8265 35.1075C33.8265 32.4054 35.9779 30.2149 38.6318 30.2149C41.2857 30.2149 43.4372 32.4054 43.4372 35.1075ZM38.6318 37.4009C39.8758 37.4009 40.8843 36.3741 40.8843 35.1075C40.8843 33.8409 39.8758 32.8141 38.6318 32.8141C37.3878 32.8141 36.3793 33.8409 36.3793 35.1075C36.3793 36.3741 37.3878 37.4009 38.6318 37.4009Z" fill="#0C9E6A"/>
<path fill-rule="evenodd" clip-rule="evenodd" d="M35.1707 36.4071H10.6762V33.8079H35.1707V36.4071Z" fill="#0C9E6A"/>
<path fill-rule="evenodd" clip-rule="evenodd" d="M0.600098 14.3056C0.600098 13.5879 1.17157 13.006 1.87652 13.006H16.5397C17.2447 13.006 17.8161 13.5879 17.8161 14.3056C17.8161 15.0234 17.2447 15.6052 16.5397 15.6052H1.87652C1.17157 15.6052 0.600098 15.0234 0.600098 14.3056Z" fill="#0C9E6A"/>
<path fill-rule="evenodd" clip-rule="evenodd" d="M13.7243 7.58194C13.7243 6.86419 14.2958 6.28234 15.0007 6.28234L30.8462 6.28234C31.5512 6.28234 32.1226 6.86419 32.1226 7.58194C32.1226 8.29968 31.5512 8.88153 30.8462 8.88153L15.0007 8.88153C14.2958 8.88153 13.7243 8.29969 13.7243 7.58194Z" fill="#0C9E6A"/>
<path fill-rule="evenodd" clip-rule="evenodd" d="M28.1698 14.2919C28.1698 13.5742 28.7413 12.9923 29.4462 12.9923H38.0682C38.7731 12.9923 39.3446 13.5742 39.3446 14.2919C39.3446 15.0097 38.7731 15.5915 38.0682 15.5915H29.4462C28.7413 15.5915 28.1698 15.0097 28.1698 14.2919Z" fill="#0C9E6A"/>
<path fill-rule="evenodd" clip-rule="evenodd" d="M37.9518 6.32805C38.3231 6.09015 38.7884 6.06309 39.1839 6.25637L44.676 8.94033C45.1186 9.15661 45.4001 9.61214 45.4001 10.112V21.519C45.4001 22.2367 44.8286 22.8186 44.1237 22.8186H39.908V31.6958H37.3552V7.428C37.3552 6.98132 37.5805 6.56594 37.9518 6.32805ZM39.908 20.2194H42.8473V10.9297L39.908 9.49332V20.2194Z" fill="#0C9E6A"/>
<path fill-rule="evenodd" clip-rule="evenodd" d="M14.5901 0.921277C14.7536 0.374086 15.2494 0.00012207 15.8112 0.00012207H30.0213C30.5686 0.00012207 31.055 0.355442 31.2304 0.883362L35.4098 13.4655L32.9915 14.2982L29.1055 2.59932H16.7569L13.2707 14.2603L10.8285 13.5034L14.5901 0.921277Z" fill="#0C9E6A"/>
<path fill-rule="evenodd" clip-rule="evenodd" d="M8.16475 13.4667L8.16475 31.8074H5.61191L5.61191 13.4667H8.16475Z" fill="#0C9E6A"/>
<path fill-rule="evenodd" clip-rule="evenodd" d="M1.93033 21.1832C1.22539 21.1832 0.653917 20.6014 0.653917 19.8836L0.653918 8.7274C0.653918 8.00965 1.22539 7.4278 1.93034 7.4278C2.63528 7.4278 3.20675 8.00965 3.20675 8.7274L3.20675 19.8836C3.20675 20.6014 2.63528 21.1832 1.93033 21.1832Z" fill="#0C9E6A"/>
<path fill-rule="evenodd" clip-rule="evenodd" d="M13.326 15.4249C13.326 20.2264 17.5907 24.3336 23.1251 24.3336C28.6595 24.3336 32.9242 20.2264 32.9242 15.4249H35.4771C35.4771 21.8992 29.8244 26.9328 23.1251 26.9328C16.4258 26.9328 10.7732 21.8992 10.7732 15.4249H13.326Z" fill="#0C9E6A"/>
</svg>
