<svg width="20" height="28" viewBox="0 0 20 28" fill="none" xmlns="http://www.w3.org/2000/svg">
<path fill-rule="evenodd" clip-rule="evenodd" d="M2.15121 0H17.8487C19.035 0 19.9999 0.981313 20 2.1875V25.8125C20 27.0187 19.035 28 17.8488 28H2.15121C0.965035 28 0 27.0187 0 25.8125V2.1875C0 0.981313 0.965035 0 2.15121 0ZM17.8487 26.3594C18.1453 26.3594 18.3865 26.114 18.3865 25.8125H18.3866V2.1875C18.3866 1.88595 18.1453 1.64062 17.8488 1.64062H2.15121C1.85467 1.64062 1.61341 1.88595 1.61341 2.1875V25.8125C1.61341 26.114 1.85467 26.3594 2.15121 26.3594H17.8487ZM5.53571 10.4966H14.4648C14.9103 10.4966 15.2715 10.8639 15.2715 11.3169C15.2715 11.77 14.9103 12.1373 14.4648 12.1373H5.53571C5.09019 12.1373 4.729 11.77 4.729 11.3169C4.729 10.8639 5.09019 10.4966 5.53571 10.4966ZM14.4648 19.146H5.53571C5.09019 19.146 4.729 19.5132 4.729 19.9663C4.729 20.4193 5.09019 20.7866 5.53571 20.7866H14.4648C14.9103 20.7866 15.2715 20.4193 15.2715 19.9663C15.2715 19.5132 14.9103 19.146 14.4648 19.146ZM5.53571 21.9915H14.4648C14.9103 21.9915 15.2715 22.3588 15.2715 22.8118C15.2715 23.2648 14.9103 23.6321 14.4648 23.6321H5.53571C5.09019 23.6321 4.729 23.2648 4.729 22.8118C4.729 22.3588 5.09019 21.9915 5.53571 21.9915ZM12.5516 14.8718C12.9971 14.8718 13.3583 14.5045 13.3583 14.0515C13.3583 13.5985 12.9971 13.2312 12.5516 13.2312H7.44928C7.00377 13.2312 6.64258 13.5985 6.64258 14.0515C6.64258 14.5045 7.00377 14.8718 7.44928 14.8718H12.5516ZM9.19302 6.73932H8.81452C8.369 6.73932 8.00781 6.37204 8.00781 5.91901C8.00781 5.46598 8.369 5.0987 8.81452 5.0987H9.19302V4.56008C9.19302 4.10705 9.55421 3.73977 9.99973 3.73977C10.4452 3.73977 10.8064 4.10705 10.8064 4.56008V5.0987H11.1849C11.6305 5.0987 11.9916 5.46598 11.9916 5.91901C11.9916 6.37204 11.6305 6.73932 11.1849 6.73932H10.8064V8.58246C10.8064 9.03549 10.4452 9.40277 9.99973 9.40277C9.55421 9.40277 9.19302 9.03549 9.19302 8.58246V6.73932Z" fill="#0C9E6A"/>
</svg>
