<svg width="16" height="16" viewBox="0 0 16 16" fill="none" xmlns="http://www.w3.org/2000/svg">
<path fill-rule="evenodd" clip-rule="evenodd" d="M13.9003 2.59824C12.4378 1.00139 10.3354 0 7.99902 0C3.58052 0 -0.000976562 3.5815 -0.000976562 8H1.49902C1.49902 4.41 4.40902 1.5 7.99902 1.5C9.92102 1.5 11.648 2.3345 12.838 3.661L10.499 6H15.999V0.5L13.9003 2.59824ZM8 14.5C11.59 14.5 14.5 11.59 14.5 8H16C16 12.4185 12.4185 16 8 16C5.6635 16 3.561 14.9985 2.0985 13.4015L0 15.5V10H5.5L3.161 12.339C4.351 13.6655 6.078 14.5 8 14.5Z" fill="#0C9E6A"/>
</svg>
