<svg width="28" height="30" viewBox="0 0 28 30" fill="none" xmlns="http://www.w3.org/2000/svg">
<path d="M27.8571 0H0V30H27.8571V0ZM26.2249 7.02736C23.6966 6.63986 21.6916 4.48059 21.3317 1.75781H26.2249V7.02736ZM14.7447 19.9093V17.8498L16.5748 15.8789H18.4872L14.7447 19.9093ZM9.36995 15.8789H11.2823L13.1124 17.8498V19.9093L9.36995 15.8789ZM13.1124 10.0907V12.1502L11.2823 14.1211H9.36995L13.1124 10.0907ZM13.9286 16.2426L12.7747 15L13.9286 13.7574L15.0824 15L13.9286 16.2426ZM16.5748 14.1211L14.7447 12.1502V10.0907L18.4872 14.1211H16.5748ZM17.1933 10.2415L21.2741 5.84656C21.444 6.07338 21.6257 6.29219 21.8199 6.50162C22.0142 6.71082 22.2176 6.90651 22.4282 7.08939L18.3471 11.4841L17.1933 10.2415ZM20.377 4.32701L16.039 8.99849L14.7447 7.6046V1.75781H19.6872C19.7796 2.65549 20.0134 3.5218 20.377 4.32701ZM13.1124 7.6046L11.8181 8.99849L7.4801 4.32701C7.84375 3.5218 8.07753 2.65549 8.16999 1.75781H13.1124V7.6046ZM6.03722 6.50162C6.23147 6.29219 6.41319 6.07338 6.583 5.84656L10.6639 10.2415L9.51001 11.4841L5.42895 7.08939C5.63957 6.90651 5.84275 6.71082 6.03722 6.50162ZM4.01794 8.0555L8.35574 12.7272L7.06141 14.1211H1.63225V8.79845C2.46581 8.69888 3.27025 8.44711 4.01794 8.0555ZM7.06141 15.8789L8.35574 17.2728L4.01794 21.9445C3.27025 21.5529 2.46581 21.3011 1.63225 21.2013V15.8789H7.06141ZM9.51001 18.5159L10.6639 19.7585L6.583 24.1534C6.41319 23.9266 6.23147 23.7078 6.03722 23.4984C5.84275 23.2892 5.63957 23.0935 5.42895 22.9106L9.51001 18.5159ZM7.4801 25.673L11.8181 21.0015L13.1124 22.3954V28.2422H8.16999C8.07753 27.3445 7.84375 26.4782 7.4801 25.673V25.673ZM14.7447 22.3954L16.039 21.0015L20.377 25.673C20.0134 26.4782 19.7796 27.3445 19.6872 28.2422H14.7447V22.3954ZM21.8199 23.4984C21.6257 23.7078 21.444 23.9266 21.2741 24.1534L17.1933 19.7585L18.3471 18.5159L22.4282 22.9106C22.2176 23.0935 22.0144 23.2892 21.8199 23.4984V23.4984ZM23.8392 21.9445L19.5014 17.2728L20.7957 15.8789H26.2249V21.2016C25.3913 21.3011 24.5869 21.5529 23.8392 21.9445V21.9445ZM20.7957 14.1211L19.5014 12.7272L23.8392 8.0555C24.5869 8.44711 25.3913 8.69888 26.2249 8.79868V14.1211H20.7957ZM6.5254 1.75781C6.16559 4.48059 4.16055 6.63986 1.63225 7.02736V1.75781H6.5254ZM1.63225 22.9726C4.16055 23.3601 6.16559 25.5194 6.5254 28.2422H1.63225V22.9726ZM21.3317 28.2422C21.6916 25.5194 23.6966 23.3601 26.2249 22.9726V28.2422H21.3317Z" fill="#0C9E6A"/>
</svg>
