<svg width="40" height="50" viewBox="0 0 40 50" fill="none" xmlns="http://www.w3.org/2000/svg">
<path d="M39.5 25C39.5 38.6409 30.6712 49.5 20 49.5C9.3288 49.5 0.5 38.6409 0.5 25C0.5 11.3591 9.3288 0.5 20 0.5C30.6712 0.5 39.5 11.3591 39.5 25Z" stroke="#808080"/>
<circle cx="20" cy="18" r="5.25" stroke="#808080" stroke-width="1.5"/>
<path d="M29 37.75C29.4142 37.75 29.75 37.4142 29.75 37V36C29.75 31.1675 25.8325 27.25 21 27.25H19C14.1675 27.25 10.25 31.1675 10.25 36V37C10.25 37.4142 10.5858 37.75 11 37.75H29Z" stroke="#808080" stroke-width="1.5" stroke-linejoin="round"/>
</svg>
