<svg width="16" height="16" viewBox="0 0 16 16" fill="none" xmlns="http://www.w3.org/2000/svg">
<path d="M3.825 7.00033L15 7.00033C15.2833 7.00033 15.5207 7.09633 15.712 7.28833C15.9033 7.48033 15.9993 7.71766 16 8.00033C16.0007 8.283 15.9047 8.52033 15.712 8.71233C15.5193 8.90433 15.282 9.00033 15 9.00033L3.825 9.00033L8.725 13.9003C8.925 14.1003 9.021 14.3337 9.013 14.6003C9.005 14.867 8.90066 15.1003 8.7 15.3003C8.5 15.4837 8.26666 15.5797 8 15.5883C7.73333 15.597 7.5 15.501 7.3 15.3003L0.699998 8.70033C0.599997 8.60033 0.528996 8.49199 0.486996 8.37533C0.444997 8.25866 0.424329 8.13366 0.424996 8.00033C0.425663 7.86699 0.44633 7.74199 0.486996 7.62533C0.527663 7.50866 0.598664 7.40033 0.699998 7.30033L7.3 0.700329C7.48333 0.516996 7.71233 0.425328 7.987 0.425328C8.26166 0.425328 8.49933 0.516996 8.7 0.700329C8.9 0.900329 9 1.13766 9 1.41233C9 1.687 8.9 1.92466 8.7 2.12533L3.825 7.00033Z" fill="#D4D6E3"/>
</svg>
