<svg width="16" height="16" viewBox="0 0 16 16" fill="none" xmlns="http://www.w3.org/2000/svg">
<path d="M7.00002 12.175L7.00002 1C7.00002 0.71667 7.09602 0.479337 7.28802 0.288003C7.48002 0.0966699 7.71736 0.000669771 8.00002 3.11657e-06C8.28269 -0.000663538 8.52002 0.0953366 8.71202 0.288003C8.90402 0.48067 9.00002 0.718003 9.00002 1L9.00002 12.175L13.9 7.275C14.1 7.075 14.3334 6.979 14.6 6.987C14.8667 6.995 15.1 7.09934 15.3 7.3C15.4834 7.5 15.5794 7.73334 15.588 8C15.5967 8.26667 15.5007 8.5 15.3 8.7L8.70002 15.3C8.60002 15.4 8.49169 15.471 8.37502 15.513C8.25836 15.555 8.13336 15.5757 8.00002 15.575C7.86669 15.5743 7.74169 15.5537 7.62502 15.513C7.50836 15.4723 7.40002 15.4013 7.30002 15.3L0.700024 8.7C0.516691 8.51667 0.425023 8.28767 0.425023 8.013C0.425023 7.73834 0.516691 7.50067 0.700024 7.3C0.900024 7.1 1.13736 7 1.41202 7C1.68669 7 1.92436 7.1 2.12502 7.3L7.00002 12.175Z" fill="#D4D6E3"/>
</svg>
