<svg width="12" height="7" viewBox="0 0 12 7" fill="none" xmlns="http://www.w3.org/2000/svg">
<path d="M5.29994 0.700081L0.466602 5.53341C0.399935 5.60008 0.350157 5.67208 0.317268 5.74942C0.284379 5.82675 0.26749 5.9103 0.266602 6.00008C0.266602 6.17786 0.327935 6.33342 0.450602 6.46675C0.573268 6.60008 0.734157 6.66675 0.933268 6.66675H11.0666C11.2666 6.66675 11.4279 6.60008 11.5506 6.46675C11.6733 6.33342 11.7342 6.17786 11.7333 6.00008C11.7333 5.95564 11.6666 5.80008 11.5333 5.53341L6.69993 0.700081C6.58882 0.58897 6.47771 0.511193 6.3666 0.466748C6.25549 0.422304 6.13327 0.400082 5.99994 0.400082C5.8666 0.400082 5.74438 0.422304 5.63327 0.466748C5.52216 0.511193 5.41105 0.58897 5.29994 0.700081Z" fill="black"/>
</svg>
