<svg width="16" height="16" viewBox="0 0 16 16" fill="none" xmlns="http://www.w3.org/2000/svg">
<path d="M12.175 8.99967H1C0.71667 8.99967 0.479337 8.90367 0.288004 8.71167C0.0966702 8.51967 0.000670115 8.28234 3.44827e-06 7.99967C-0.000663218 7.717 0.0953369 7.47967 0.288004 7.28767C0.48067 7.09567 0.718003 6.99967 1 6.99967H12.175L7.275 2.09967C7.075 1.89967 6.979 1.66634 6.987 1.39967C6.995 1.133 7.09934 0.899671 7.3 0.699671C7.5 0.516337 7.73334 0.420338 8 0.411671C8.26667 0.403004 8.5 0.499004 8.7 0.699671L15.3 7.29967C15.4 7.39967 15.471 7.508 15.513 7.62467C15.555 7.74134 15.5757 7.86634 15.575 7.99967C15.5743 8.133 15.5537 8.258 15.513 8.37467C15.4723 8.49134 15.4013 8.59967 15.3 8.69967L8.7 15.2997C8.51667 15.483 8.28767 15.5747 8.013 15.5747C7.73834 15.5747 7.50067 15.483 7.3 15.2997C7.1 15.0997 7 14.8623 7 14.5877C7 14.313 7.1 14.0753 7.3 13.8747L12.175 8.99967Z" fill="#D4D6E3"/>
</svg>
