<svg width="26" height="27" viewBox="0 0 26 27" fill="none" xmlns="http://www.w3.org/2000/svg">
<path d="M10.9584 20.6554V2.03044C10.9584 1.55822 11.1184 1.16266 11.4384 0.843775C11.7584 0.524887 12.1539 0.364886 12.625 0.363775C13.0961 0.362664 13.4917 0.522664 13.8117 0.843775C14.1317 1.16489 14.2917 1.56044 14.2917 2.03044V20.6554L22.4584 12.4888C22.7917 12.1554 23.1806 11.9954 23.625 12.0088C24.0695 12.0221 24.4584 12.196 24.7917 12.5304C25.0972 12.8638 25.2572 13.2527 25.2717 13.6971C25.2861 14.1416 25.1261 14.5304 24.7917 14.8638L13.7917 25.8638C13.625 26.0304 13.4445 26.1488 13.25 26.2188C13.0556 26.2888 12.8472 26.3232 12.625 26.3221C12.4028 26.321 12.1945 26.2866 12 26.2188C11.8056 26.151 11.625 26.0327 11.4584 25.8638L0.458355 14.8638C0.1528 14.5582 1.90735e-05 14.1766 1.90735e-05 13.7188C1.90735e-05 13.261 0.1528 12.8649 0.458355 12.5304C0.791687 12.1971 1.18724 12.0304 1.64502 12.0304C2.1028 12.0304 2.49891 12.1971 2.83335 12.5304L10.9584 20.6554Z" fill="#8C98A2" fill-opacity="0.4"/>
</svg>
