<svg width="16" height="16" viewBox="0 0 16 16" fill="none" xmlns="http://www.w3.org/2000/svg">
<path d="M12.175 9.00016H1C0.71667 9.00016 0.479337 8.90416 0.288004 8.71216C0.0966702 8.52016 0.000670115 8.28283 3.44827e-06 8.00016C-0.000663218 7.71749 0.0953369 7.48016 0.288004 7.28816C0.48067 7.09616 0.718003 7.00016 1 7.00016H12.175L7.275 2.10016C7.075 1.90016 6.979 1.66683 6.987 1.40016C6.995 1.13349 7.09934 0.900159 7.3 0.700159C7.5 0.516826 7.73334 0.420826 8 0.412159C8.26667 0.403493 8.5 0.499492 8.7 0.700159L15.3 7.30016C15.4 7.40016 15.471 7.50849 15.513 7.62516C15.555 7.74183 15.5757 7.86683 15.575 8.00016C15.5743 8.13349 15.5537 8.25849 15.513 8.37516C15.4723 8.49183 15.4013 8.60016 15.3 8.70016L8.7 15.3002C8.51667 15.4835 8.28767 15.5752 8.013 15.5752C7.73834 15.5752 7.50067 15.4835 7.3 15.3002C7.1 15.1002 7 14.8628 7 14.5882C7 14.3135 7.1 14.0758 7.3 13.8752L12.175 9.00016Z" fill="#FFFBF9"/>
</svg>
