<svg width="32" height="32" viewBox="0 0 32 32" fill="none" xmlns="http://www.w3.org/2000/svg">
<g clip-path="url(#clip0_345_2068)">
<path d="M16.0009 12.4888C15.2976 12.4888 14.6102 12.6973 14.0255 13.088C13.4408 13.4787 12.9851 14.034 12.716 14.6837C12.4469 15.3334 12.3764 16.0483 12.5136 16.738C12.6508 17.4277 12.9895 18.0612 13.4867 18.5585C13.984 19.0557 14.6175 19.3944 15.3072 19.5316C15.9969 19.6688 16.7118 19.5983 17.3615 19.3292C18.0112 19.0601 18.5665 18.6044 18.9572 18.0197C19.3479 17.435 19.5564 16.7475 19.5564 16.0443C19.5564 15.1013 19.1818 14.197 18.515 13.5302C17.8482 12.8634 16.9439 12.4888 16.0009 12.4888ZM16.0009 18.2132C15.5754 18.2132 15.1595 18.0871 14.8058 17.8507C14.452 17.6143 14.1763 17.2784 14.0135 16.8853C13.8507 16.4922 13.8081 16.0597 13.8911 15.6424C13.9741 15.2252 14.179 14.8419 14.4798 14.541C14.7806 14.2402 15.1639 14.0353 15.5812 13.9523C15.9985 13.8693 16.431 13.9119 16.8241 14.0747C17.2171 14.2375 17.5531 14.5133 17.7895 14.867C18.0258 15.2208 18.152 15.6367 18.152 16.0621C18.152 16.3446 18.0963 16.6243 17.9882 16.8853C17.8801 17.1463 17.7217 17.3834 17.5219 17.5832C17.3222 17.7829 17.085 17.9414 16.8241 18.0495C16.5631 18.1576 16.2834 18.2132 16.0009 18.2132Z" fill="#FF774D"/>
<path d="M20.7167 11.2166C19.6645 10.1561 18.5324 9.17901 17.3305 8.29407C18.1526 7.79427 19.0152 7.36529 19.9091 7.01172C20.1462 6.92225 20.3685 6.85515 20.5908 6.78805C20.7711 7.00762 21.0035 7.17806 21.2664 7.28371C21.5293 7.38936 21.8144 7.42683 22.0954 7.39269C22.3765 7.35854 22.6445 7.25387 22.8749 7.0883C23.1053 6.92272 23.2906 6.70155 23.4139 6.4451C23.9431 6.49277 24.4425 6.71262 24.8365 7.07136C25.7183 7.95857 25.7405 9.7479 24.9106 11.9771C25.2737 12.4617 25.6071 12.9538 25.9109 13.4682C26.0369 13.17 26.1703 12.8792 26.274 12.5885C27.3632 9.71808 27.2224 7.36958 25.8813 6.0425C25.2099 5.40371 24.3362 5.02355 23.4139 4.9689C23.2599 4.64604 23.009 4.38005 22.6966 4.20855C22.3842 4.03705 22.0261 3.96873 21.673 4.01325C21.3199 4.05776 20.9896 4.21286 20.7289 4.45661C20.4682 4.70036 20.2903 5.02041 20.2203 5.3715C19.9461 5.45351 19.672 5.53552 19.383 5.64735C18.1995 6.11743 17.0653 6.70431 15.9968 7.39941C14.9272 6.69356 13.7903 6.09666 12.6032 5.61753C9.75043 4.52902 7.41638 4.66322 6.10487 6.01267C4.87487 7.25775 4.6748 9.32294 5.48987 11.8727C5.30384 12.1134 5.18558 12.4 5.14747 12.7025C5.10937 13.005 5.15283 13.3122 5.27329 13.592C5.39376 13.8718 5.5868 14.1138 5.83218 14.2927C6.07757 14.4717 6.36626 14.5809 6.66801 14.6089C6.90512 15.0637 7.16445 15.5185 7.45343 15.9658C6.76515 17.0426 6.18673 18.1867 5.72698 19.3805C4.63776 22.2434 4.77854 24.5993 6.11969 25.919C6.52773 26.3027 7.0082 26.6001 7.53259 26.7934C8.05699 26.9868 8.61464 27.0723 9.17247 27.0448C10.3562 27.0066 11.5233 26.754 12.618 26.2992C13.804 25.8296 14.9408 25.2427 16.0116 24.5472C17.0735 25.2569 18.2029 25.8587 19.383 26.3439C20.251 26.6872 21.1604 26.9129 22.0875 27.0149C22.2503 27.3632 22.5247 27.6462 22.8666 27.8185C23.2086 27.9908 23.5982 28.0424 23.9728 27.9649C24.3474 27.8875 24.6852 27.6855 24.9319 27.3915C25.1786 27.0975 25.3199 26.7285 25.333 26.3439C25.5296 26.2214 25.7133 26.079 25.8813 25.919C27.2224 24.5695 27.3632 22.2434 26.274 19.3805C24.9957 16.3056 23.1043 13.5271 20.7167 11.2166ZM12.0771 24.9199C9.85416 25.7773 8.03879 25.7624 7.14963 24.8603C6.26047 23.9582 6.23824 22.1614 7.09777 19.9098C7.44678 19.0106 7.87064 18.1427 8.36482 17.3153C9.24687 18.5202 10.2178 19.6567 11.2694 20.715C11.588 21.0356 11.9141 21.3487 12.2401 21.647C12.6847 21.4183 13.1366 21.1574 13.596 20.8641C13.1663 20.4764 12.7365 20.1186 12.3216 19.6638C10.6539 18.0149 9.22244 16.1405 8.06843 14.0945C8.30018 13.8528 8.45594 13.5477 8.51623 13.2174C8.57651 12.8871 8.53864 12.5462 8.40735 12.2375C8.27607 11.9287 8.0572 11.6657 7.77813 11.4815C7.49906 11.2973 7.17219 11.2 6.83843 11.2017C6.2827 9.33785 6.37903 7.85419 7.15704 7.07136C7.43106 6.82838 7.75035 6.64261 8.09634 6.52486C8.44233 6.40711 8.80812 6.35972 9.17247 6.38545C10.1723 6.41905 11.1583 6.6311 12.0845 7.01172C12.9784 7.36529 13.841 7.79427 14.663 8.29407C13.4611 9.17901 12.329 10.1561 11.2768 11.2166C10.9508 11.5447 10.6322 11.8876 10.321 12.2306C10.5438 12.7031 10.7911 13.1635 11.0619 13.6099C11.4621 13.1551 11.8696 12.7078 12.3068 12.2679C13.4467 11.122 14.6866 10.0815 16.0116 9.15891C17.3221 10.0854 18.5494 11.1257 19.6794 12.2679C20.8182 13.4148 21.8523 14.6624 22.7692 15.9957C21.8501 17.3272 20.8162 18.5746 19.6794 19.7234C17.5231 21.958 14.9362 23.7263 12.0771 24.9199ZM24.8365 24.8528L24.718 24.9498C24.5234 24.7838 24.2938 24.6645 24.0467 24.601C23.7995 24.5375 23.5413 24.5313 23.2914 24.583C23.0416 24.6348 22.8067 24.743 22.6045 24.8995C22.4024 25.056 22.2382 25.2568 22.1246 25.4866C21.363 25.3879 20.6164 25.1951 19.9017 24.9125C19.0063 24.5623 18.1434 24.1332 17.3231 23.6301C18.525 22.7452 19.6571 21.7681 20.7093 20.7076C21.7653 19.6533 22.7365 18.5165 23.6139 17.3078C24.1106 18.135 24.537 19.0029 24.8884 19.9024C25.7331 22.1614 25.7331 23.9656 24.8365 24.8528Z" fill="#FF774D"/>
</g>
<defs>
<clipPath id="clip0_345_2068">
<rect width="32" height="32" fill="white"/>
</clipPath>
</defs>
</svg>
