<svg width="597" height="545" viewBox="0 0 597 545" fill="none" xmlns="http://www.w3.org/2000/svg">
<path d="M337.619 406.888C339.996 428.429 337.858 446.612 331.256 460.961C328.378 467.549 324.203 473.49 318.978 478.429C313.754 483.368 307.589 487.204 300.849 489.707C287.017 494.951 270.342 495.492 251.228 491.317C231.435 486.928 209.906 477.761 187.233 463.916C163.091 448.957 140.68 431.37 120.409 411.478C99.3436 391.021 80.2112 368.664 63.2554 344.691C46.9639 321.932 33.0302 297.574 21.6695 271.995C10.7418 246.97 4.06442 223.367 1.62485 201.826C-0.814716 180.284 1.3985 162.101 7.98785 147.753C14.3634 133.92 24.587 124.237 38.407 119.006C52.227 113.775 68.9142 113.221 88.0283 117.396C107.809 121.71 129.35 130.927 152.023 144.76C176.139 159.734 198.528 177.324 218.784 197.211C239.85 217.667 258.982 240.024 275.938 263.997C292.232 286.754 306.166 311.112 317.524 336.694C328.439 361.705 335.129 385.321 337.556 406.863L337.619 406.888ZM338.361 407.34C328.603 318.799 245.142 200.895 151.935 144.005C58.7284 87.1155 -8.86279 112.794 0.945785 201.335C10.7544 289.876 94.1021 407.781 187.309 464.683C280.515 521.585 348.169 495.919 338.424 407.366L338.361 407.34Z" fill="#FF774D"/>
<path d="M341.391 412.886C342.309 434.54 338.725 452.535 330.752 466.355C327.127 472.821 322.25 478.5 316.405 483.06C310.56 487.62 303.866 490.97 296.712 492.914C281.823 497.176 264.243 496.548 244.475 491.052C224.015 485.368 202.084 474.705 179.285 459.288C155.183 442.779 132.968 423.671 113.04 402.31C92.5038 380.546 74.051 356.906 57.9231 331.701C42.5426 307.961 29.696 282.672 19.5942 256.25C9.96168 230.534 4.61729 206.503 3.71189 184.849C2.80648 163.194 6.3778 145.212 14.3504 131.379C17.9765 124.911 22.8557 119.231 28.7028 114.671C34.5498 110.111 41.2473 106.762 48.4038 104.821C63.2801 100.558 80.8601 101.187 100.628 106.682C121.088 112.366 143.019 123.03 165.817 138.447C189.92 154.956 212.135 174.063 232.063 195.424C252.599 217.189 271.052 240.828 287.18 266.034C302.56 289.774 315.407 315.062 325.509 341.484C335.141 367.2 340.486 391.231 341.391 412.886V412.886ZM342.196 413.426C338.423 324.42 259.477 200.983 165.78 137.717C72.0827 74.452 -0.840308 95.3392 2.90706 184.346C6.65444 273.352 85.6261 396.802 179.323 460.055C273.02 523.308 345.943 502.433 342.196 413.426V413.426Z" fill="#FF774D"/>
<path d="M344.924 419.135C344.283 440.79 339.202 458.495 329.834 471.737C320.767 484.526 308.091 492.637 292.108 495.856C276.125 499.075 257.753 497.214 237.394 490.348C216.331 483.256 194.086 471.058 171.274 454.119C147.294 436.085 125.365 415.472 105.884 392.652C86.0085 369.639 68.3738 344.783 53.2193 318.421C38.8649 293.769 27.2397 267.627 18.5497 240.456C10.313 214.123 6.46504 189.791 7.10638 168.124C7.74771 146.457 12.8155 128.764 22.1965 115.522C31.2631 102.733 43.9514 94.6223 59.9218 91.4031C75.8922 88.1839 94.277 90.045 114.623 96.8984C135.699 104.003 157.945 116.201 180.743 133.14C204.718 151.177 226.645 171.784 246.134 194.594C266.014 217.632 283.656 242.508 298.824 268.888C313.182 293.521 324.819 319.642 333.531 346.791C341.755 373.123 345.603 397.456 344.974 419.123L344.924 419.135ZM345.779 419.714C348.382 330.657 274.516 202.014 180.769 132.373C87.0212 62.7318 8.86692 78.4885 6.26387 167.52C3.66081 256.552 77.5269 385.245 171.262 454.886C264.997 524.527 343.113 508.783 345.729 419.676L345.779 419.714Z" fill="#FF774D"/>
<path d="M348.171 425.612C345.908 447.178 339.268 464.481 328.441 477.031C317.978 489.154 304.07 496.372 287.081 498.409C270.093 500.446 250.915 497.378 230.041 489.103C208.437 480.552 186.028 466.833 163.267 448.347C139.545 428.802 118.039 406.714 99.134 382.479C80.0251 358.233 63.3221 332.185 49.2612 304.702C35.3406 277.502 25.0038 250.516 18.5528 224.611C11.8503 197.776 9.58678 173.229 11.8503 151.676C14.1138 130.122 20.7409 112.806 31.5806 100.256C42.0305 88.1211 55.9512 80.9156 72.9276 78.8784C89.9039 76.8413 109.106 79.9096 129.968 88.1714C151.572 96.7351 174.044 110.442 196.742 128.94C220.47 148.478 241.977 170.567 260.875 194.808C279.988 219.051 296.692 245.1 310.748 272.585C324.656 299.836 334.993 326.797 341.469 352.726C348.184 379.562 350.435 404.108 348.184 425.662L348.171 425.612ZM348.976 426.316C358.257 337.661 290.137 204.177 196.817 128.16C103.498 52.1438 20.3008 62.3547 11.0078 151.009C1.71475 239.664 69.8718 373.148 163.166 449.203C256.461 525.257 339.683 514.92 348.964 426.266L348.976 426.316Z" fill="#FF774D"/>
<path d="M351.101 432.302C347.14 453.68 338.903 470.455 326.605 482.225C314.734 493.543 299.594 499.83 281.611 500.711C263.629 501.591 243.647 497.152 222.395 487.457C200.338 477.396 177.754 462.168 155.269 442.186C131.902 421.153 110.933 397.599 92.7459 371.954C74.5313 346.553 58.9023 319.394 46.0922 290.883C33.5171 262.727 24.614 235.112 19.6845 208.792C14.6545 181.555 14.0509 156.92 17.9995 135.555C21.9481 114.19 30.1974 97.4021 42.4958 85.6318C54.3667 74.3142 69.5071 68.0267 87.4895 67.1464C105.472 66.2662 125.441 70.6926 146.731 80.4006C168.788 90.4607 191.372 105.689 213.857 125.671C237.207 146.71 258.163 170.264 276.342 195.903C294.567 221.287 310.209 248.429 323.034 276.924C335.609 305.08 344.512 332.695 349.441 359.002C354.471 386.252 355.075 410.887 351.126 432.252L351.101 432.302ZM351.919 432.956C368.166 345.169 306.435 207.246 214.02 124.866C121.606 42.4866 33.5172 46.9005 17.2575 134.75C0.99793 222.6 62.7165 360.549 155.131 442.916C247.545 525.282 335.634 520.793 351.893 433.006L351.919 432.956Z" fill="#FF774D"/>
<path d="M353.678 439.142C347.957 460.167 338.073 476.351 324.303 487.229C310.998 497.742 294.638 502.885 275.688 502.533C256.737 502.181 236.139 496.346 214.485 485.179C192.088 473.66 169.453 456.873 147.321 435.369C124.446 412.91 104.158 387.961 86.8347 360.987C69.6225 334.505 55.1975 306.312 43.7902 276.86C32.6235 247.937 25.3299 219.731 22.1107 193.135C18.7909 165.608 20.0107 140.986 25.7198 119.96C31.4289 98.9349 41.3381 82.7508 55.1078 71.8733C68.4123 61.3605 84.7725 56.2048 103.723 56.5569C122.674 56.909 143.259 62.7564 164.926 73.9105C187.348 85.467 209.945 102.255 232.077 123.808C254.953 146.265 275.245 171.21 292.576 198.178C309.779 224.666 324.203 252.857 335.621 282.305C346.787 311.228 354.081 339.446 357.287 366.03C360.595 393.519 359.337 418.141 353.678 439.142ZM354.458 439.896C377.973 353.455 323.272 211.57 232.278 123.004C141.285 34.4373 48.4556 32.6893 24.9401 119.143C1.42468 205.597 56.1264 347.469 147.12 436.036C238.113 524.602 330.943 526.375 354.458 439.934L354.458 439.896Z" fill="#FF774D"/>
<path d="M355.891 446.21C348.346 466.795 336.765 482.25 321.511 492.146C306.761 501.691 289.206 505.69 269.337 504.017C249.468 502.345 228.267 495.089 206.336 482.438C183.638 469.348 161.154 451.001 139.487 427.988C117.229 404.13 97.7513 377.822 81.4274 349.57C65.3737 322.068 52.3052 292.93 42.4446 262.651C32.8372 232.974 27.2539 204.365 25.8329 177.618C24.3616 149.953 27.4425 125.444 35.0001 104.859C42.5578 84.2731 54.1143 68.8308 69.3805 58.9342C84.1185 49.3772 101.673 45.3909 121.542 47.0634C141.411 48.7358 162.612 55.9917 184.543 68.6422C207.178 81.7329 229.738 100.08 251.392 123.092C273.643 146.937 293.112 173.233 309.427 201.473C325.475 228.977 338.543 258.115 348.409 288.392C358.004 318.069 363.587 346.678 365.008 373.425C366.48 401.09 363.399 425.599 355.854 446.172L355.891 446.21ZM356.608 446.989C387.694 362.434 340.676 217.079 251.631 122.376C162.587 27.6726 65.2307 19.461 34.1953 104.054C3.15999 188.646 50.1783 334.002 139.273 428.705C228.367 523.408 325.611 531.62 356.646 447.027L356.608 446.989Z" fill="#FF774D"/>
<path d="M357.686 453.39C348.242 473.397 334.963 487.996 318.213 496.812C302.029 505.312 283.304 508.129 262.555 505.023C241.806 501.917 220.089 493.215 197.995 479.093C175.121 464.456 152.85 444.6 131.724 420.103C110.199 394.909 91.6698 367.302 76.5068 337.837C61.707 309.397 50.1089 279.402 41.9253 248.403C34.0156 218.135 30.2556 189.199 30.7209 162.414C31.2113 134.686 36.254 110.492 45.6853 90.4849C55.1166 70.4779 68.4714 55.8782 85.1962 47.0757C101.368 38.5623 120.105 35.7581 140.841 38.8641C161.577 41.9702 183.357 50.5715 205.452 64.7814C228.326 79.4314 250.596 99.2749 271.647 123.771C293.176 148.963 311.706 176.57 326.864 206.038C341.668 234.478 353.271 264.472 361.459 295.472C369.356 325.752 373.128 354.675 372.65 381.46C372.16 409.188 367.13 433.395 357.686 453.39V453.39ZM358.428 454.257C397.235 372.041 358.529 223.756 271.987 123.067C185.445 22.3782 83.813 7.40122 44.9559 89.5543C6.09888 171.707 44.8553 320.056 131.41 420.757C217.964 521.459 319.621 536.473 358.428 454.232L358.428 454.257Z" fill="#FF774D"/>
<path d="M359.058 460.683C347.678 479.974 332.651 493.618 314.417 501.238C296.812 508.595 276.93 510.041 255.314 505.539C233.697 501.037 211.59 490.826 189.433 475.183C166.483 458.973 144.552 437.621 124.244 411.716C103.58 385.239 86.1449 356.394 72.3084 325.79C58.8924 296.502 48.9208 265.756 42.5934 234.168C36.5197 203.422 34.6963 174.298 37.1484 147.614C39.6635 119.949 46.7684 96.1941 58.1488 76.8914C69.5293 57.5886 84.5565 43.9572 102.79 36.3367C120.396 28.9928 140.277 27.5341 161.831 32.036C183.384 36.5379 205.567 46.7489 227.724 62.3923C250.674 78.6016 272.605 99.9541 292.913 125.859C313.573 152.339 331.007 181.184 344.848 211.785C358.272 241.073 368.256 271.819 374.601 303.407C380.675 334.153 382.511 363.277 380.046 389.961C377.531 417.626 370.439 441.381 359.058 460.683V460.683ZM359.775 461.589C406.554 382.278 376.802 231.653 293.316 125.18C209.83 18.7064 104.224 -3.32519 57.4321 75.986C10.6401 155.297 40.4053 305.846 123.891 412.395C207.377 518.944 312.983 540.9 359.775 461.589V461.589Z" fill="#FF774D"/>
<path d="M359.95 468.065C346.583 486.526 329.77 499.088 310.102 505.413C291.063 511.512 270.088 511.575 247.78 505.59C225.472 499.604 202.95 487.834 180.767 470.681C157.868 452.912 136.402 430.089 116.974 402.776C97.3201 375.091 81.1248 345.108 68.7483 313.492C56.8285 283.437 48.5987 252.047 44.2394 220.009C40.1148 188.911 40.3285 159.737 44.8682 133.241C49.5838 105.865 58.7008 82.6261 72.1059 64.1658C85.5109 45.7056 102.286 33.143 121.966 26.8303C141.005 20.7188 161.968 20.656 184.276 26.6417C206.584 32.6275 229.119 44.3726 251.238 61.5376C274.2 79.3314 295.666 102.13 315.082 129.418C334.746 157.121 350.946 187.126 363.32 218.764C375.235 248.817 383.465 280.202 387.829 312.235C391.953 343.333 391.74 372.52 387.188 399.003C382.484 426.379 373.355 449.63 359.95 468.078L359.95 468.065ZM360.641 469.046C415.595 393.181 395.412 240.859 315.56 128.814C235.708 16.7703 126.43 -12.58 71.4771 63.2855C16.5239 139.151 36.7069 291.461 116.559 403.517C196.411 515.574 305.688 544.862 360.591 469.009L360.641 469.046Z" fill="#FF774D"/>
<path d="M360.35 475.447C344.958 492.926 326.397 504.294 305.258 509.223C284.824 513.989 262.805 512.581 239.868 505.061C216.931 497.541 194.031 484.249 172.063 465.55C149.327 446.26 128.452 421.99 110.055 393.444C91.5207 364.6 76.7071 333.528 65.9666 300.967C55.6881 270.237 49.35 238.326 47.1039 206C45.0668 174.688 47.4309 145.64 54.146 119.534C61.1 92.5475 72.4302 70.0003 87.8221 52.521C103.214 35.0416 121.775 23.6863 142.914 18.7443C163.348 13.9783 185.367 15.3867 208.304 22.9192C231.241 30.4517 254.09 43.731 276.059 62.3924C298.807 81.7078 319.669 105.978 338.067 134.523C356.603 163.371 371.417 194.448 382.155 227.013C392.433 257.739 398.771 289.646 401.018 321.968C403.055 353.28 400.691 382.328 393.976 408.447C387.072 435.37 375.679 458.005 360.35 475.447ZM361.004 476.453C424.281 404.624 414.272 251.258 338.645 133.907C263.018 16.5562 150.434 -20.3266 87.1431 51.515C23.8526 123.356 33.8749 276.722 109.502 394.061C185.128 511.399 297.713 548.294 361.004 476.453V476.453Z" fill="#FF774D"/>
<path d="M360.244 482.866C342.789 499.214 322.518 509.274 299.883 512.719C278.065 516.039 255.053 513.109 231.462 503.992C207.871 494.875 184.934 480.1 163.217 459.891C140.758 439.029 120.625 413.364 103.41 383.598C86.1237 353.683 72.8519 321.622 63.9365 288.241C55.3856 256.942 51.0633 224.639 51.0847 192.193C51.2356 160.818 55.8633 131.971 64.8168 106.431C74.0972 80.0229 87.6531 58.2931 105.057 41.9329C122.461 25.5727 142.782 15.5252 165.418 12.0797C187.235 8.75983 210.26 11.6898 233.839 20.8067C257.417 29.9237 280.367 44.6994 302.084 64.9076C324.555 85.7697 344.676 111.436 361.903 141.201C379.183 171.113 392.463 203.164 401.402 236.533C409.939 267.835 414.261 300.136 414.254 332.581C414.09 363.956 409.475 392.816 400.509 418.343C391.229 444.751 377.673 466.481 360.269 482.841L360.244 482.866ZM360.872 483.897C432.55 416.646 433.343 262.953 362.557 140.597C291.772 18.2414 176.232 -26.3876 104.516 40.864C32.8005 108.116 32.0209 261.834 102.806 384.177C173.591 506.52 289.131 551.174 360.847 483.923L360.872 483.897Z" fill="#FF774D"/>
<path d="M359.562 490.261C340.737 505.103 317.923 514.011 294.021 515.851C270.87 517.649 246.915 513.122 222.821 502.383C198.727 491.644 175.74 475.208 154.362 453.592C132.293 431.221 113.053 404.209 97.1577 373.325C81.254 342.431 69.6527 309.505 62.6768 275.465C56.0108 243.692 53.8434 211.14 56.2384 178.763C58.7534 147.463 65.6697 119.006 76.9622 94.1576C88.6444 68.429 104.476 47.7304 123.993 32.6277C142.831 17.787 165.66 8.88767 189.572 7.06249C212.723 5.26425 236.678 9.79128 260.772 20.5304C284.866 31.2696 307.891 47.6801 329.156 69.2967C351.212 91.6678 370.452 118.679 386.36 149.564C402.26 180.458 413.857 213.384 420.828 247.423C427.498 279.196 429.67 311.748 427.279 344.125C424.764 375.425 417.835 403.882 406.555 428.731C394.861 454.459 379.041 475.158 359.512 490.261L359.562 490.261ZM360.078 491.355C440.37 429.271 452.392 276.006 387.102 149.035C321.812 22.0646 203.719 -30.5496 123.465 31.5336C43.2106 93.6169 31.1259 246.882 96.5164 373.853C161.907 500.824 279.886 553.438 360.128 491.355L360.078 491.355Z" fill="#FF774D"/>
<path d="M358.318 497.591C337.232 511.141 312.722 518.4 287.658 518.516C263.212 518.705 238.389 512.505 213.88 500.106C189.371 487.707 166.359 469.75 145.56 446.687C124.031 422.795 105.81 394.538 91.3862 362.623C76.994 330.836 67.2207 297.154 62.3628 262.6C57.6916 230.451 57.8061 197.787 62.7023 165.672C67.5815 134.636 77.0003 106.719 90.6694 82.6759C104.842 57.8275 122.975 38.2857 144.579 24.5789C165.682 11.0258 190.209 3.76333 215.289 3.64136C239.722 3.46531 264.545 9.65229 289.067 22.0513C313.588 34.4504 336.55 52.4202 357.337 75.4578C378.853 99.3505 397.087 127.607 411.51 159.535C425.896 191.323 435.665 225.005 440.521 259.557C445.19 291.702 445.08 324.361 440.194 356.474C435.302 387.521 425.896 415.426 412.215 439.469C398.055 464.305 379.922 483.859 358.305 497.566L358.318 497.591ZM358.821 498.685C447.639 442.349 471.569 290.303 412.265 159.082C352.961 27.861 232.906 -32.8264 144.088 23.51C55.2704 79.8465 31.3275 231.892 90.6316 363.113C149.936 494.334 270.053 555.047 358.833 498.711L358.821 498.685Z" fill="#FF774D"/>
<path d="M356.466 504.81C333.121 516.899 306.927 522.411 280.689 520.755C255.01 519.233 229.395 511.324 204.572 497.252C179.748 483.181 156.874 463.651 136.754 439.143C115.305 412.808 98.1852 383.225 86.0388 351.507C73.2911 318.898 65.4962 284.565 62.9132 249.648C60.3754 217.234 62.8954 184.623 70.3828 152.984C77.7896 122.363 89.7233 95.1381 105.845 72.1885C122.544 48.3839 143.029 30.15 166.721 17.9899C190.066 5.9007 216.26 0.388914 242.498 2.04465C268.177 3.56624 293.792 11.476 318.615 25.5475C343.439 39.6191 366.25 59.1482 386.383 83.5942C407.857 109.944 424.994 139.548 437.148 171.293C449.904 203.899 457.699 238.234 460.274 273.151C462.818 305.565 460.298 338.178 452.804 369.816C445.397 400.449 433.464 427.661 417.342 450.611C400.643 474.416 380.17 492.65 356.466 504.81V504.81ZM356.919 505.967C454.326 455.968 490.617 305.96 437.991 170.916C385.364 35.8717 263.763 -33.0524 166.318 16.9461C68.8738 66.9447 32.6198 216.953 85.1963 351.997C137.773 487.041 259.512 555.965 356.919 505.967V505.967Z" fill="#FF774D"/>
<path d="M354.004 511.889C328.457 522.338 300.64 525.999 273.259 522.515C246.399 519.195 220.092 509.512 195.055 493.743C170.018 477.974 147.496 456.898 128.155 431.119C107.677 403.562 91.8612 372.831 81.3383 340.151C70.3675 306.872 64.694 272.075 64.5254 237.035C64.2492 204.461 69.2953 172.06 79.4646 141.112C89.5247 111.083 104.024 84.7884 122.647 62.9831C141.925 40.4108 164.761 23.6482 190.553 13.1732C216.099 2.70284 243.922 -0.971074 271.31 2.5095C298.158 5.81675 324.478 15.4996 349.515 31.2687C374.552 47.0379 397.074 68.1138 416.414 93.8928C436.893 121.45 452.708 152.181 463.231 184.861C474.2 218.141 479.873 252.937 480.044 287.977C480.318 320.543 475.272 352.935 465.105 383.875C455.045 413.916 440.546 440.198 421.922 462.004C402.645 484.576 379.808 501.339 354.017 511.826L354.004 511.889ZM354.407 513.008C460.339 469.989 509.47 322.873 464.124 184.496C418.778 46.12 296.108 -31.1666 190.151 11.9408C84.1928 55.0482 35.0745 202.139 80.4203 340.516C125.766 478.892 248.436 556.091 354.394 513.071L354.407 513.008Z" fill="#FF774D"/>
<path d="M350.888 518.768C323.223 527.416 293.856 529.121 265.377 523.735C237.36 518.554 210.449 507.048 185.311 489.594C159.499 471.423 137.249 448.661 119.669 422.443C100.288 393.754 85.9197 361.982 77.178 328.482C68.1171 294.577 64.718 259.409 67.1179 224.397C69.2431 191.789 76.9326 159.784 89.8537 129.77C102.592 100.508 119.77 75.2945 140.921 54.8474C162.013 34.1574 187.699 18.7486 215.881 9.87883C243.543 1.22305 272.907 -0.504256 301.392 4.8488C329.346 10.0297 356.27 21.5234 381.407 39.0027C407.223 57.1684 429.478 79.9263 447.062 106.141C466.462 134.864 480.839 166.675 489.578 200.216C498.645 234.123 502.044 269.296 499.638 304.312C497.51 336.907 489.825 368.898 476.915 398.902C464.189 428.164 446.999 453.365 425.848 473.825C404.759 494.516 379.072 509.921 350.888 518.78L350.888 518.768ZM351.214 520.038C465.635 484.413 528.02 341.057 490.559 199.863C453.098 58.6702 329.975 -26.9662 215.542 8.62132C101.108 44.2088 38.6731 187.527 76.1971 328.746C113.721 469.964 236.794 555.575 351.214 519.988L351.214 520.038Z" fill="#FF774D"/>
<path d="M347.114 525.42C317.375 532.124 286.481 531.779 256.9 524.414C227.278 516.982 199.522 503.481 175.388 484.765C149.821 465.063 128.119 440.799 111.381 413.2C93.2084 383.426 80.4372 350.676 73.6556 316.46C66.6195 282.049 65.6238 246.676 70.713 211.923C75.3935 179.398 85.8349 147.967 101.547 119.106C116.325 91.691 136.417 67.4949 160.65 47.9313C184.597 28.6221 212.655 15.0662 242.665 8.30719C272.404 1.61017 303.296 1.95465 332.879 9.31319C362.501 16.7457 390.257 30.247 414.39 48.9625C439.958 68.6649 461.659 92.9284 478.398 120.527C496.57 150.302 509.341 183.051 516.123 217.268C523.151 251.68 524.138 287.053 519.04 321.804C514.376 354.327 503.951 385.757 488.257 414.621C473.479 442.037 453.387 466.233 429.154 485.796C405.207 505.105 377.149 518.661 347.139 525.42L347.114 525.42ZM347.39 526.678C470.123 499.138 546.165 360.511 517.192 217.029C488.219 73.5468 365.222 -20.4521 242.388 7.07482C119.555 34.6017 43.7017 173.217 72.6244 316.699C101.547 460.181 224.594 554.18 347.365 526.653L347.39 526.678Z" fill="#FF774D"/>
<path d="M342.66 531.796C310.954 536.407 278.618 533.911 247.995 524.49C217.668 515.128 189.548 499.729 165.326 479.219C140.119 458.025 119.104 432.297 103.369 403.366C69.6298 341.137 59.7103 268.75 75.4645 199.738C82.841 167.434 96.1256 136.772 114.648 109.298C132.415 82.7505 155.3 60.0152 181.963 42.4234C208.743 24.7696 239.088 13.2438 270.835 8.66814C302.582 4.09251 334.947 6.57988 365.622 15.9528C395.951 25.318 424.075 40.7164 448.304 61.2232C473.495 82.4112 494.501 108.125 510.236 137.038C543.981 199.27 553.913 271.659 538.178 340.68C530.8 372.977 517.52 403.634 499.006 431.107C481.232 457.656 458.344 480.395 431.679 497.994C404.858 515.68 374.461 527.223 342.66 531.796V531.796ZM342.824 533.053C473.768 514.153 563.781 381.171 543.899 236.017C524.018 90.8627 401.801 -11.486 270.819 7.41431C139.836 26.3147 49.8615 159.284 69.7553 304.426C89.6491 449.567 211.892 551.929 342.824 533.041L342.824 533.053Z" fill="#FF774D"/>
<path d="M337.522 537.845C303.96 540.258 270.268 535.544 238.657 524.012C207.742 512.706 179.365 495.402 155.158 473.095C130.438 450.45 110.252 423.308 95.678 393.118C64.8554 329.103 59.721 255.714 81.3299 188.03C91.5634 156.101 107.78 126.411 129.115 100.545C149.964 75.0832 175.64 53.993 204.666 38.4873C234.385 22.68 267.096 13.2988 300.675 10.9526C334.255 8.60635 367.952 13.3476 399.581 24.8685C430.477 36.1603 458.84 53.4421 483.041 75.7222C507.761 98.3728 527.946 125.519 542.522 155.712C573.351 219.735 578.485 293.134 556.87 360.825C546.631 392.752 530.415 422.441 509.084 448.31C488.232 473.758 462.557 494.836 433.533 510.33C403.83 526.174 371.109 535.55 337.522 537.845V537.845ZM337.61 539.102C476.477 529.381 580.775 403.014 570.602 256.804C560.429 110.593 439.469 0.00751619 300.589 9.71548C161.71 19.4234 57.4246 145.803 67.5979 292.014C77.7711 438.225 198.731 548.81 337.61 539.102Z" fill="#FF774D"/>
<path d="M331.671 543.516C279.424 543.557 228.339 528.093 184.886 499.083C141.432 470.073 107.564 428.821 87.5703 380.55C67.5762 332.28 62.3553 279.162 72.5686 227.923C82.7819 176.683 107.97 129.627 144.944 92.7112C172.509 65.1892 205.822 44.1062 242.495 30.9734C279.167 17.8407 318.29 12.9835 357.061 16.7499C395.831 20.5163 433.288 32.8131 466.747 52.7589C500.206 72.7047 528.838 99.8054 550.59 132.119C572.343 164.432 586.678 201.157 592.568 239.662C598.457 278.167 595.755 317.498 584.656 354.836C573.557 392.175 554.335 426.595 528.368 455.63C502.401 484.665 470.332 507.596 434.46 522.78C401.941 536.537 366.98 543.589 331.671 543.516V543.516ZM331.671 544.773C478.209 544.773 597.006 425.976 597.006 279.439C597.006 132.901 478.209 14.1043 331.671 14.1043C185.134 14.1043 66.3367 132.901 66.3367 279.439C66.3367 425.976 185.134 544.773 331.671 544.773Z" fill="#FF774D"/>
</svg>
