<svg width="1440" height="1066" viewBox="0 0 1440 1066" fill="none" xmlns="http://www.w3.org/2000/svg">
<path d="M689.471 269.765C684.821 227.621 689.003 192.046 701.919 163.975C707.549 151.085 715.719 139.462 725.939 129.799C736.16 120.137 748.223 112.632 761.408 107.734C788.47 97.4745 821.093 96.4166 858.489 104.585C897.213 113.171 939.332 131.106 983.69 158.193C1030.92 187.46 1074.77 221.867 1114.43 260.785C1155.64 300.806 1193.07 344.546 1226.24 391.448C1258.12 435.975 1285.38 483.629 1307.6 533.674C1328.98 582.633 1342.05 628.811 1346.82 670.955C1351.59 713.099 1347.26 748.674 1334.37 776.745C1321.9 803.808 1301.9 822.752 1274.86 832.986C1247.82 843.221 1215.17 844.303 1177.78 836.135C1139.08 827.697 1096.93 809.663 1052.58 782.601C1005.4 753.305 961.592 718.891 921.963 679.984C880.749 639.963 843.318 596.223 810.145 549.321C778.267 504.798 751.006 457.143 728.785 407.095C707.43 358.161 694.342 311.958 689.594 269.814L689.471 269.765ZM688.019 268.879C707.11 442.104 870.396 672.776 1052.75 784.077C1235.1 895.378 1367.34 845.14 1348.15 671.915C1328.96 498.69 1165.9 268.018 983.542 156.692C801.19 45.3668 668.829 95.5802 687.896 268.83L688.019 268.879Z" fill="#FF774D"/>
<path d="M682.092 258.03C680.296 215.665 687.307 180.459 702.905 153.421C709.998 140.77 719.54 129.659 730.975 120.738C742.41 111.816 755.508 105.263 769.504 101.461C798.633 93.1204 833.027 94.3505 871.702 105.102C911.73 116.222 954.636 137.085 999.24 167.247C1046.39 199.546 1089.86 236.928 1128.85 278.72C1169.02 321.301 1205.12 367.55 1236.68 416.863C1266.77 463.309 1291.9 512.784 1311.67 564.477C1330.51 614.788 1340.97 661.804 1342.74 704.169C1344.51 746.534 1337.52 781.715 1321.92 808.778C1314.83 821.432 1305.28 832.545 1293.85 841.467C1282.41 850.388 1269.3 856.94 1255.3 860.738C1226.2 869.078 1191.8 867.848 1153.13 857.097C1113.1 845.977 1070.19 825.114 1025.59 794.951C978.435 762.653 934.973 725.271 895.984 683.478C855.807 640.898 819.705 594.648 788.152 545.336C758.061 498.89 732.928 449.414 713.164 397.722C694.319 347.41 683.863 300.395 682.092 258.03V258.03ZM680.517 256.972C687.898 431.107 842.351 672.604 1025.66 796.378C1208.98 920.153 1351.64 879.288 1344.31 705.153C1336.98 531.017 1182.48 289.496 999.167 165.746C815.854 41.9967 673.185 82.8366 680.517 256.972V256.972Z" fill="#FF774D"/>
<path d="M675.179 245.803C676.434 203.437 686.373 168.797 704.702 142.891C722.44 117.87 747.239 102.002 778.509 95.7037C809.778 89.4055 845.722 93.0466 885.554 106.48C926.763 120.355 970.284 144.22 1014.91 177.359C1061.83 212.642 1104.73 252.969 1142.84 297.615C1181.73 342.638 1216.23 391.267 1245.88 442.843C1273.96 491.073 1296.71 542.219 1313.71 595.377C1329.82 646.895 1337.35 694.5 1336.1 736.89C1334.84 779.28 1324.93 813.895 1306.57 839.802C1288.84 864.822 1264.01 880.691 1232.77 886.989C1201.52 893.287 1165.55 889.646 1125.75 876.238C1084.51 862.337 1040.99 838.473 996.387 805.334C949.483 770.046 906.583 729.728 868.455 685.102C829.561 640.031 795.045 591.361 765.371 539.751C737.28 491.558 714.513 440.454 697.469 387.34C681.379 335.823 673.85 288.217 675.081 245.827L675.179 245.803ZM673.506 244.671C668.413 418.905 812.928 670.587 996.338 806.834C1179.75 943.082 1332.65 912.255 1337.74 738.071C1342.84 563.886 1198.32 312.106 1014.94 175.858C831.552 39.6104 678.722 70.4125 673.604 244.745L673.506 244.671Z" fill="#FF774D"/>
<path d="M668.829 233.131C673.258 190.938 686.248 157.085 707.43 132.532C727.899 108.816 755.11 94.694 788.347 90.7084C821.585 86.7228 859.104 92.7258 899.944 108.914C942.21 125.644 986.052 152.485 1030.58 188.65C1076.99 226.889 1119.07 270.103 1156.05 317.517C1193.44 364.953 1226.12 415.915 1253.63 469.683C1280.86 522.898 1301.08 575.694 1313.71 626.375C1326.82 678.877 1331.25 726.9 1326.82 769.069C1322.39 811.237 1309.43 845.115 1288.22 869.668C1267.77 893.409 1240.54 907.506 1207.33 911.492C1174.11 915.477 1136.54 909.474 1095.73 893.311C1053.46 876.557 1009.5 849.74 965.091 813.55C918.668 775.324 876.591 732.109 839.619 684.683C802.225 637.254 769.546 586.291 742.046 532.517C714.836 479.204 694.612 426.457 681.942 375.727C668.805 323.225 664.401 275.201 668.805 233.033L668.829 233.131ZM667.255 231.754C649.098 405.2 782.369 666.354 964.943 815.075C1147.52 963.796 1310.29 943.819 1328.47 770.373C1346.65 596.926 1213.3 335.772 1030.78 186.977C848.254 38.1824 685.436 58.4055 667.279 231.852L667.255 231.754Z" fill="#FF774D"/>
<path d="M663.097 220.043C670.847 178.219 686.961 145.4 711.022 122.372C734.247 100.23 763.868 87.9288 799.05 86.2067C834.231 84.4845 873.324 93.1691 914.902 112.138C958.055 131.819 1002.24 161.613 1046.23 200.706C1091.95 241.857 1132.97 287.938 1168.55 338.11C1204.19 387.806 1234.76 440.941 1259.83 496.721C1284.43 551.806 1301.85 605.833 1311.49 657.326C1321.33 710.614 1322.51 758.81 1314.79 800.61C1307.06 842.409 1290.92 875.253 1266.86 898.281C1243.64 920.423 1214.02 932.724 1178.84 934.446C1143.65 936.169 1104.59 927.508 1062.93 908.515C1019.78 888.834 975.596 859.04 931.607 819.947C885.924 778.785 844.926 732.705 809.358 682.543C773.702 632.881 743.101 579.78 718.009 524.03C693.407 468.945 675.989 414.919 666.345 363.45C656.504 310.137 655.323 261.941 663.048 220.142L663.097 220.043ZM661.498 218.764C629.712 390.513 750.485 660.352 931.287 821.522C1112.09 982.692 1284.43 974.056 1316.24 802.184C1348.05 630.312 1227.3 360.424 1046.5 199.279C865.697 38.1337 693.358 46.9167 661.547 218.666L661.498 218.764Z" fill="#FF774D"/>
<path d="M658.057 206.661C669.251 165.525 688.588 133.862 715.528 112.581C741.557 92.0136 773.565 81.9512 810.641 82.6401C847.716 83.3289 888.015 94.7444 930.38 116.591C974.197 139.127 1018.48 171.971 1061.78 214.041C1106.53 257.981 1146.23 306.792 1180.12 359.564C1213.79 411.375 1242.01 466.532 1264.33 524.154C1286.18 580.739 1300.45 635.922 1306.75 687.956C1313.24 741.811 1310.86 789.982 1299.69 831.117C1288.52 872.252 1269.13 903.916 1242.19 925.197C1216.16 945.764 1184.15 955.851 1147.08 955.162C1110 954.473 1069.73 943.033 1027.34 921.211C983.472 898.601 939.262 865.757 895.961 823.589C851.207 779.653 811.506 730.851 777.6 678.091C743.944 626.269 715.723 571.114 693.386 513.501C671.539 456.916 657.269 401.708 650.996 349.699C644.525 295.918 646.986 247.746 658.057 206.661ZM656.531 205.184C610.525 374.301 717.545 651.889 895.568 825.163C1073.59 998.438 1255.2 1001.86 1301.21 832.716C1347.22 663.575 1240.2 386.012 1062.17 212.737C884.152 39.463 702.538 35.994 656.531 205.111V205.184Z" fill="#FF774D"/>
<path d="M653.723 192.833C668.485 152.559 691.143 122.323 720.986 102.961C749.845 84.2875 784.19 76.4639 823.061 79.736C861.933 83.0082 903.413 97.2037 946.319 121.954C990.726 147.565 1034.72 183.46 1077.11 228.482C1120.65 275.16 1158.76 326.629 1190.69 381.902C1222.1 435.707 1247.67 492.715 1266.96 551.954C1285.76 610.015 1296.68 665.985 1299.46 718.315C1302.34 772.44 1296.31 820.39 1281.53 860.664C1266.74 900.938 1244.13 931.149 1214.26 950.511C1185.43 969.209 1151.08 977.008 1112.21 973.736C1073.34 970.464 1031.86 956.268 988.955 931.518C944.671 905.907 900.534 870.013 858.169 824.99C814.637 778.339 776.546 726.894 744.629 671.644C713.232 617.834 687.665 560.827 668.362 501.592C649.59 443.531 638.667 387.561 635.887 335.231C633.008 281.106 639.036 233.156 653.797 192.907L653.723 192.833ZM652.321 191.308C591.504 356.734 683.492 641.112 857.701 826.393C1031.91 1011.67 1222.38 1027.74 1283.1 862.238C1343.82 696.738 1251.83 412.36 1077.52 227.08C903.216 41.7992 712.966 25.7339 652.247 191.234L652.321 191.308Z" fill="#FF774D"/>
<path d="M650.211 178.785C668.687 139.643 694.667 111.079 727.438 93.8331C759.101 77.2019 795.734 71.691 836.328 77.7678C876.921 83.8445 919.41 100.869 962.636 128.498C1007.39 157.135 1050.96 195.982 1092.29 243.907C1134.4 293.2 1170.65 347.21 1200.32 404.856C1229.27 460.498 1251.97 519.181 1267.98 579.828C1283.45 639.046 1290.81 695.656 1289.9 748.059C1288.94 802.307 1279.07 849.642 1260.62 888.784C1242.17 927.926 1216.04 956.49 1183.32 973.711C1151.68 990.367 1115.02 995.853 1074.45 989.777C1033.88 983.7 991.273 966.872 948.047 939.071C903.295 910.41 859.725 871.587 818.54 823.662C776.42 774.376 740.168 720.364 710.511 662.713C681.549 607.072 658.849 548.389 642.83 487.741C627.38 428.499 619.999 371.913 620.934 319.51C621.894 265.262 631.735 217.903 650.211 178.785V178.785ZM648.759 177.087C572.837 337.938 648.563 628.048 817.876 825.039C987.189 1022.03 1186.03 1051.33 1262.05 890.605C1338.07 729.878 1262.24 439.644 1092.91 242.628C923.568 45.6125 724.682 16.2373 648.759 177.137V177.087Z" fill="#FF774D"/>
<path d="M647.523 164.516C669.788 126.776 699.188 100.083 734.861 85.1736C769.305 70.7813 808.201 67.952 850.492 76.7596C892.784 85.5673 936.035 105.544 979.384 136.15C1024.28 167.862 1067.19 209.637 1106.92 260.318C1147.35 312.118 1181.46 368.552 1208.53 428.426C1234.78 485.726 1254.29 545.88 1266.67 607.678C1278.55 667.831 1282.12 724.81 1277.32 777.016C1272.4 831.141 1258.5 877.615 1236.23 915.38C1213.97 953.144 1184.57 979.813 1148.89 994.722C1114.45 1009.09 1075.55 1011.94 1033.39 1003.14C991.218 994.329 947.819 974.352 904.47 943.746C859.571 912.034 816.664 870.259 776.931 819.578C736.512 767.772 702.403 711.339 675.324 651.47C649.061 594.169 629.528 534.017 617.115 472.218C605.232 412.065 601.64 355.086 606.462 302.88C611.382 248.755 625.258 202.281 647.523 164.516V164.516ZM646.121 162.745C554.6 317.912 612.809 612.599 776.144 820.907C939.479 1029.21 1146.09 1072.32 1237.63 917.151C1329.18 761.984 1270.95 467.445 1107.61 258.989C944.277 50.5335 737.666 7.57784 646.121 162.745V162.745Z" fill="#FF774D"/>
<path d="M645.781 150.074C671.933 113.958 704.826 89.3798 743.304 77.0049C780.552 65.0727 821.589 64.9497 865.233 76.6604C908.878 88.3711 952.941 111.399 996.339 144.957C1041.14 179.72 1083.14 224.373 1121.15 277.809C1159.6 331.972 1191.28 390.633 1215.5 452.486C1238.82 511.287 1254.92 572.7 1263.45 635.38C1271.52 696.221 1271.1 753.299 1262.22 805.136C1252.99 858.695 1235.15 904.16 1208.93 940.277C1182.7 976.393 1149.88 1000.97 1111.38 1013.32C1074.13 1025.28 1033.12 1025.4 989.475 1013.69C945.831 1001.98 901.743 979.001 858.468 945.418C813.544 910.606 771.548 866.002 733.562 812.615C695.091 758.417 663.397 699.714 639.187 637.815C615.875 579.02 599.775 517.616 591.237 454.946C583.168 394.104 583.586 337.002 592.492 285.19C601.693 231.631 619.554 186.141 645.781 150.049V150.074ZM644.427 148.155C536.915 296.581 576.402 594.589 732.627 813.796C888.852 1033 1102.65 1090.42 1210.16 941.999C1317.67 793.573 1278.18 495.589 1121.96 276.358C965.734 57.1262 751.94 -0.172706 644.526 148.229L644.427 148.155Z" fill="#FF774D"/>
<path d="M644.997 135.633C675.11 101.436 711.423 79.1955 752.78 69.5514C792.758 60.2271 835.837 62.9825 880.712 77.6947C925.586 92.407 970.387 118.412 1013.37 154.995C1057.85 192.735 1098.69 240.218 1134.68 296.065C1170.94 352.498 1199.92 413.288 1220.94 476.991C1241.05 537.113 1253.45 599.544 1257.84 662.788C1261.83 724.047 1257.2 780.879 1244.06 831.953C1230.46 884.75 1208.29 928.862 1178.18 963.059C1148.07 997.257 1111.75 1019.47 1070.4 1029.14C1030.42 1038.47 987.338 1035.71 942.464 1020.97C897.589 1006.24 852.887 980.256 809.906 943.746C765.401 905.957 724.585 858.475 688.592 802.627C652.326 746.188 623.344 685.389 602.336 621.677C582.227 561.563 569.827 499.14 565.433 435.905C561.447 374.645 566.072 317.814 579.21 266.715C592.717 214.041 615.006 169.757 644.997 135.633ZM643.717 133.665C519.918 274.194 539.502 574.244 687.46 803.833C835.419 1033.42 1055.68 1105.58 1179.51 965.027C1303.33 824.474 1283.72 524.424 1135.76 294.86C987.806 65.2952 767.541 -6.8881 643.717 133.665V133.665Z" fill="#FF774D"/>
<path d="M645.208 121.116C679.356 89.1332 719.015 69.4513 763.299 62.7102C805.984 56.2152 851.006 61.9476 897.16 79.7843C943.314 97.621 988.189 126.529 1030.68 166.065C1074.62 206.88 1114.01 257.093 1147.69 315.327C1181.5 373.855 1207.47 436.58 1224.91 501.887C1241.64 563.122 1250.1 626.321 1250.06 689.799C1249.76 751.182 1240.71 807.62 1223.19 857.587C1205.03 909.252 1178.51 951.765 1144.46 983.773C1110.41 1015.78 1070.66 1035.44 1026.37 1042.18C983.687 1048.67 938.64 1042.94 892.51 1025.1C846.381 1007.27 801.482 978.36 758.993 938.824C715.029 898.009 675.665 847.796 641.96 789.562C608.154 731.04 582.173 668.334 564.684 603.052C547.981 541.811 539.525 478.616 539.541 415.139C539.86 353.756 548.889 297.294 566.431 247.351C584.587 195.686 611.109 153.173 645.158 121.165L645.208 121.116ZM643.978 119.099C503.744 250.672 502.194 551.362 640.681 790.743C779.167 1030.12 1005.21 1117.44 1145.52 985.864C1285.83 854.291 1287.35 553.552 1148.87 314.195C1010.38 74.8392 784.334 -12.5237 644.027 119.05L643.978 119.099Z" fill="#FF774D"/>
<path d="M646.541 106.651C683.371 77.6119 728.006 60.1844 774.769 56.585C820.062 53.0668 866.929 61.9237 914.067 82.9341C961.205 103.944 1006.18 136.1 1048 178.391C1091.18 222.159 1128.82 275.005 1159.92 335.428C1191.03 395.87 1213.73 460.287 1227.38 526.883C1240.42 589.046 1244.66 652.733 1239.97 716.075C1235.05 777.311 1221.52 832.986 1199.43 881.6C1176.57 931.936 1145.6 972.432 1107.42 1001.98C1070.56 1031.01 1025.9 1048.43 979.116 1052C933.823 1055.51 886.956 1046.66 839.817 1025.65C792.679 1004.64 747.632 972.53 706.03 930.239C662.877 886.471 625.236 833.625 594.114 773.202C563.007 712.759 540.318 648.343 526.679 581.747C513.629 519.585 509.381 455.898 514.058 392.555C518.978 331.319 532.534 275.644 554.602 227.03C577.483 176.694 608.432 136.198 646.64 106.651H646.541ZM645.533 104.51C488.447 225.972 464.927 525.826 592.662 774.235C720.398 1022.65 951.438 1125.58 1108.45 1004.12C1265.46 882.658 1289.11 582.805 1161.17 334.395C1033.24 85.9848 802.422 -16.9514 645.434 104.51H645.533Z" fill="#FF774D"/>
<path d="M648.978 92.3086C690.23 65.7994 738.184 51.5985 787.219 51.3703C835.046 51.0012 883.611 63.1302 931.561 87.3881C979.511 111.646 1024.53 146.778 1065.23 191.899C1107.34 238.643 1142.99 293.925 1171.21 356.366C1199.37 418.555 1218.49 484.451 1227.99 552.053C1237.13 614.951 1236.91 678.855 1227.33 741.688C1217.78 802.406 1199.36 857.023 1172.61 904.063C1144.89 952.677 1109.41 990.909 1067.14 1017.73C1025.86 1044.24 977.873 1058.45 928.806 1058.69C881.003 1059.03 832.438 1046.93 784.464 1022.67C736.489 998.413 691.565 963.256 650.897 918.185C608.803 871.44 573.129 816.159 544.911 753.694C516.766 691.502 497.653 625.606 488.153 558.006C479.018 495.117 479.234 431.223 488.793 368.396C498.363 307.653 516.765 253.06 543.533 206.021C571.235 157.431 606.712 119.174 649.003 92.3578L648.978 92.3086ZM647.994 90.1682C474.228 200.387 427.41 497.854 543.434 754.579C659.459 1011.3 894.338 1130.04 1068.1 1019.82C1241.87 909.599 1288.71 612.132 1172.69 355.406C1056.66 98.6806 821.662 -20.0995 647.97 90.119L647.994 90.1682Z" fill="#FF774D"/>
<path d="M652.597 78.1857C698.271 54.534 749.518 43.7506 800.851 46.9899C851.089 49.9668 901.204 65.4417 949.769 92.9717C998.334 120.502 1043.09 158.709 1082.45 206.659C1124.41 258.182 1157.91 316.057 1181.67 378.113C1206.61 441.91 1221.86 509.08 1226.91 577.392C1231.88 640.808 1226.95 704.61 1212.3 766.51C1197.81 826.417 1174.46 879.681 1142.92 924.58C1110.25 971.152 1070.17 1006.83 1023.82 1030.62C978.148 1054.27 926.901 1065.05 875.568 1061.81C825.33 1058.84 775.215 1043.36 726.65 1015.83C678.085 988.3 633.457 950.093 594.068 902.266C552.054 850.715 518.527 792.796 494.749 730.689C469.792 666.897 454.542 599.724 449.505 531.41C444.528 467.994 449.458 404.19 464.119 342.292C478.609 282.361 501.957 229.121 533.497 184.222C566.169 137.65 606.222 101.976 652.597 78.1857V78.1857ZM651.711 75.9223C461.142 173.741 390.139 467.223 493.1 731.427C596.061 995.632 833.966 1130.48 1024.61 1032.66C1215.25 934.839 1286.18 641.358 1183.32 377.153C1080.46 112.949 842.281 -21.8967 651.711 75.9223V75.9223Z" fill="#FF774D"/>
<path d="M657.415 64.3347C707.397 43.8914 761.818 36.7296 815.387 43.5457C867.937 50.0407 919.405 68.9845 968.389 99.8359C1017.37 130.687 1061.43 171.921 1099.27 222.356C1139.34 276.268 1170.28 336.392 1190.87 400.329C1212.33 465.437 1223.43 533.514 1223.76 602.068C1224.3 665.798 1214.43 729.188 1194.53 789.735C1174.85 848.485 1146.48 899.929 1110.05 942.589C1072.33 986.75 1027.66 1019.55 977.196 1040.04C927.217 1060.52 872.783 1067.71 819.2 1060.9C766.674 1054.43 715.181 1035.49 666.198 1004.64C617.215 973.785 573.152 932.551 535.313 882.117C495.249 828.204 464.306 768.08 443.719 704.143C422.26 639.034 411.16 570.958 410.826 502.404C410.29 438.691 420.162 375.318 440.053 314.787C459.735 256.012 488.102 204.593 524.538 161.932C562.253 117.771 606.931 84.976 657.39 64.4577L657.415 64.3347ZM656.628 62.1451C449.377 146.31 353.256 434.132 441.972 704.857C530.688 975.581 770.684 1126.79 977.983 1042.45C1185.28 958.113 1281.38 670.34 1192.66 399.615C1103.95 128.891 863.952 -22.1426 656.652 62.022L656.628 62.1451Z" fill="#FF774D"/>
<path d="M663.513 50.8768C717.636 33.9584 775.091 30.6209 830.809 41.1589C885.623 51.2951 938.272 73.8062 987.452 107.954C1037.95 143.504 1081.48 188.037 1115.88 239.331C1153.79 295.458 1181.9 357.618 1199.01 423.159C1216.73 489.491 1223.38 558.295 1218.69 626.793C1214.53 690.59 1199.49 753.204 1174.21 811.926C1149.29 869.175 1115.68 918.503 1074.3 958.507C1033.03 998.985 982.781 1029.13 927.644 1046.48C873.526 1063.42 816.077 1066.8 760.348 1056.33C705.657 1046.19 652.983 1023.7 603.803 989.506C553.297 953.966 509.757 909.441 475.354 858.154C437.399 801.96 409.272 739.723 392.174 674.103C374.436 607.766 367.786 538.952 372.492 470.445C376.656 406.676 391.691 344.088 416.948 285.386C441.846 228.137 475.477 178.834 516.858 138.806C558.117 98.3248 608.372 68.1854 663.513 50.8522V50.8768ZM662.873 48.392C439.016 118.09 316.964 398.557 390.255 674.792C463.545 951.027 704.427 1118.57 928.308 1048.94C1152.19 979.32 1274.34 698.927 1200.93 422.643C1127.51 146.358 886.73 -21.1342 662.873 48.4904V48.392Z" fill="#FF774D"/>
<path d="M670.9 37.8632C729.081 24.7482 789.523 25.4222 847.397 39.8314C905.35 54.3725 959.654 80.787 1006.87 117.403C1056.89 155.949 1099.35 203.419 1132.1 257.415C1167.65 315.666 1192.63 379.739 1205.9 446.68C1219.67 514.004 1221.62 583.209 1211.66 651.2C1202.5 714.834 1182.07 776.326 1151.33 832.79C1122.42 886.426 1083.11 933.764 1035.7 972.039C988.854 1009.82 933.959 1036.34 875.247 1049.56C817.064 1062.66 756.625 1061.99 698.75 1047.59C640.796 1033.05 586.493 1006.64 539.277 970.022C489.256 931.475 446.799 884.005 414.051 830.01C378.498 771.758 353.512 707.686 340.244 640.744C326.495 573.418 324.563 504.213 334.536 436.224C343.663 372.597 364.057 311.105 394.763 254.634C423.675 200.998 462.983 153.66 510.394 115.385C557.244 77.6081 612.138 51.0867 670.85 37.8632H670.9ZM670.358 35.403C430.24 89.2821 281.469 360.498 338.153 641.211C394.837 921.924 635.472 1105.83 875.788 1051.97C1116.1 998.117 1264.51 726.926 1207.92 446.213C1151.33 165.5 910.6 -18.4023 670.408 35.4522L670.358 35.403Z" fill="#FF774D"/>
<path d="M679.608 25.3894C741.64 16.3687 804.901 21.2511 864.814 39.6833C924.146 58 979.161 88.1267 1026.55 128.252C1075.87 169.717 1116.98 220.052 1147.77 276.653C1213.77 398.401 1233.18 540.022 1202.36 675.039C1187.93 738.239 1161.94 798.227 1125.7 851.979C1090.94 903.917 1046.17 948.397 994.001 982.814C941.609 1017.35 882.24 1039.9 820.129 1048.85C758.018 1057.81 694.697 1052.94 634.684 1034.6C575.347 1016.28 520.326 986.154 472.924 946.034C423.638 904.581 382.542 854.273 351.757 797.706C285.738 675.954 266.306 534.33 297.091 399.296C311.525 336.108 337.506 276.13 373.727 222.38C408.501 170.44 453.28 125.953 505.448 91.5205C557.922 56.9185 617.392 34.3367 679.608 25.3894V25.3894ZM679.288 22.9291C423.104 59.9065 247 320.076 285.897 604.061C324.793 888.046 563.903 1088.28 820.161 1051.31C1076.42 1014.33 1252.45 754.185 1213.53 470.224C1174.61 186.264 935.448 -13.999 679.288 22.9537V22.9291Z" fill="#FF774D"/>
<path d="M689.665 13.5555C755.326 8.83301 821.244 18.0558 883.088 40.6181C943.572 62.7377 999.088 96.5911 1046.45 140.233C1094.81 184.537 1134.3 237.638 1162.82 296.704C1223.12 421.945 1233.16 565.526 1190.89 697.944C1170.87 760.411 1139.14 818.498 1097.4 869.102C1056.61 918.917 1006.38 960.179 949.589 990.515C891.446 1021.44 827.449 1039.79 761.753 1044.38C696.058 1048.97 630.131 1039.7 568.252 1017.16C507.805 995.067 452.315 961.257 404.966 917.667C356.604 873.353 317.113 820.244 288.597 761.172C228.282 635.916 218.237 492.315 260.526 359.883C280.557 297.419 312.284 239.335 354.015 188.724C394.811 138.936 445.043 97.6996 501.826 67.3854C559.939 36.389 623.955 18.0436 689.665 13.5555V13.5555ZM689.493 11.0953C417.809 30.1129 213.757 277.342 233.66 563.393C253.564 849.445 490.214 1065.8 761.922 1046.8C1033.63 1027.81 1237.66 780.558 1217.75 494.507C1197.85 208.455 961.201 -7.89773 689.493 11.0953Z" fill="#FF774D"/>
<path d="M701.109 2.46023C803.328 2.38023 903.272 32.6339 988.286 89.3904C1073.3 146.147 1139.56 226.854 1178.68 321.291C1217.79 415.729 1228.01 519.651 1208.03 619.898C1188.05 720.144 1138.77 812.207 1066.43 884.43C1012.5 938.275 947.325 979.522 875.578 1005.22C803.831 1030.91 727.289 1040.41 651.437 1033.04C575.585 1025.67 502.303 1001.62 436.843 962.594C371.383 923.571 315.367 870.55 272.809 807.332C230.251 744.113 202.205 672.262 190.683 596.93C179.161 521.597 184.446 444.648 206.161 371.599C227.877 298.55 265.483 231.209 316.286 174.403C367.088 117.598 429.829 72.7346 500.01 43.0295C563.631 16.1148 632.03 2.31627 701.109 2.46023V2.46023ZM701.109 0C414.418 0 182 232.418 182 519.109C182 805.801 414.418 1038.22 701.109 1038.22C987.801 1038.22 1220.22 805.801 1220.22 519.109C1220.22 232.418 987.801 0 701.109 0Z" fill="#FF774D"/>
</svg>
