<svg width="1069" height="1073" viewBox="0 0 1069 1073" fill="none" xmlns="http://www.w3.org/2000/svg">
<g clip-path="url(#clip0_771_7)">
<path d="M296.982 646.421C312.288 619.262 333.616 589.705 360.349 558.56C388.062 526.548 417.616 496.462 448.805 468.511C481.395 439.112 515.492 411.808 550.897 386.759C584.23 362.909 619.032 341.776 654.989 323.552C687.86 307.068 716.966 296.481 741.224 291.962C764.612 287.579 782.58 289.086 794.641 296.372C806.702 303.659 812.195 316.351 810.987 334.236C809.778 352.592 801.362 375.801 786.056 402.96C770.75 430.119 749.367 459.81 722.689 490.822C694.975 522.839 665.413 552.922 634.209 580.86C601.646 610.287 567.569 637.61 532.177 662.67C498.84 686.51 464.038 707.643 428.085 725.877C395.071 742.3 366.037 752.917 341.802 757.446C318.391 761.819 300.423 760.312 288.386 753.036C276.349 745.76 270.831 733.057 272.04 715.173C273.224 696.806 281.664 673.607 296.971 646.448L296.982 646.421ZM294.253 647.786C230.834 760.088 290.277 796.092 426.833 728.084C563.389 660.076 725.427 513.954 788.75 401.612C852.073 289.27 792.75 253.316 656.313 321.374C519.877 389.433 357.72 535.504 294.373 647.837L294.253 647.786Z" stroke="#FF774D" stroke-opacity="0.8"/>
<path d="M282.378 636.44C301.801 607.749 327.523 576.872 358.724 544.972C390.813 512.325 424.633 481.775 459.981 453.504C496.363 424.192 534.167 397.137 573.193 372.486C609.258 349.387 646.72 329.241 685.238 312.23C720.224 297.143 750.362 288.124 774.81 285.447C798.373 282.805 815.776 286.213 826.352 295.451C836.929 304.69 840.254 319.36 836.174 339.02C831.992 359.265 819.949 384.246 800.536 412.91C781.124 441.574 755.391 472.479 724.19 504.379C692.1 537.031 658.271 567.579 622.91 595.836C586.536 625.152 548.739 652.209 509.722 676.865C473.604 699.94 436.095 720.066 397.533 737.06C362.547 752.147 332.409 761.166 307.985 763.853C284.422 766.495 267.019 763.087 256.443 753.849C245.866 744.61 242.541 729.94 246.621 710.28C250.803 690.035 262.822 665.044 282.258 636.39L282.378 636.44ZM279.385 637.631C199.065 756.224 251.234 801.833 395.942 739.408C540.649 676.982 723.079 530.29 803.41 411.669C883.741 293.049 831.561 247.467 686.829 309.882C542.098 372.297 359.716 519.01 279.385 637.631Z" stroke="#FF774D" stroke-opacity="0.8"/>
<path d="M269.727 623.925C297.205 589.931 327.195 558.393 359.356 529.67C395.86 496.754 433.992 466.102 473.546 437.879C513.602 409.017 555.004 382.594 597.541 358.743C636.221 336.805 676.204 318.069 717.123 302.709C753.829 289.293 784.773 282.187 809.119 281.511C832.663 280.875 849.067 286.282 857.925 297.563C866.783 308.843 867.607 325.413 860.408 346.838C852.947 369.032 837.151 395.478 813.463 425.45C785.992 459.451 756.001 490.99 723.833 519.705C687.43 552.64 649.394 583.312 609.929 611.553C569.868 640.405 528.467 666.829 485.934 690.689C447.254 712.627 407.27 731.362 366.351 746.723C329.646 760.139 298.702 767.245 274.332 767.911C250.812 768.557 234.408 763.15 225.55 751.869C216.692 740.589 215.868 724.019 223.067 702.594C230.528 680.4 246.324 653.954 270.012 623.982L269.727 623.925ZM267.005 625.072C169.017 749.034 212.647 804.592 364.374 749.19C516.101 693.788 718.341 548.326 816.317 424.39C914.294 300.454 870.675 244.87 718.948 300.272C567.221 355.673 364.672 501.069 266.767 625.035L267.005 625.072Z" stroke="#FF774D" stroke-opacity="0.8"/>
<path d="M259.448 608.853C291.571 574.07 326.056 541.971 362.564 512.874C444.2 447.285 531.678 391.291 623.368 345.938C664.337 325.458 706.516 308.476 749.498 295.156C787.591 283.804 819.051 278.835 842.984 280.438C866.124 281.99 881.321 289.561 888.108 302.923C894.894 316.284 893.016 334.764 882.46 357.853C871.56 381.771 851.787 409.618 823.72 440.602C791.598 475.386 757.112 507.484 720.605 536.582C679.89 569.404 637.637 599.788 594.056 627.585C550.493 655.564 505.667 680.917 459.8 703.518C418.823 723.995 376.636 740.973 333.647 754.29C295.577 765.652 264.117 770.621 240.16 769.007C217.044 767.466 201.824 759.885 195.061 746.533C188.298 733.181 190.152 714.692 200.684 691.593C211.608 667.685 231.382 639.838 259.448 608.853V608.853ZM256.27 609.745C140.162 737.941 173.738 803.782 331.281 756.813C488.823 709.845 710.658 567.818 826.755 439.65C942.852 311.481 909.287 245.613 751.744 292.582C594.202 339.55 372.378 481.55 256.27 609.745V609.745Z" stroke="#FF774D" stroke-opacity="0.8"/>
<path d="M251.741 591.074C288.485 555.872 327.447 523.57 368.287 494.448C413.143 462.134 459.45 432.448 506.992 405.531C553.8 378.827 601.796 354.981 650.739 334.112C699.051 313.616 743.333 298.777 782.456 289.811C821.58 280.844 853.163 278.349 876.322 282.425C898.697 286.358 912.311 296.185 916.791 311.655C921.271 327.124 916.396 347.482 902.314 372.1C887.701 397.594 863.825 426.602 831.223 458.437C794.493 493.657 755.529 525.961 714.677 555.063C669.835 587.39 623.535 617.08 575.996 643.99C529.188 670.694 481.191 694.54 432.249 715.409C383.937 735.905 339.655 750.744 300.531 759.71C261.408 768.677 229.825 771.172 206.666 767.097C184.291 763.163 170.677 753.336 166.197 737.867C161.717 722.397 166.592 702.039 180.674 677.421C195.263 651.917 219.163 622.92 251.741 591.074V591.074ZM248.607 591.859C114.063 723.02 136.175 799.303 297.965 762.243C459.755 725.184 699.952 588.746 834.496 457.585C969.041 326.424 946.929 250.142 785.139 287.201C623.349 324.26 383.08 460.668 248.536 591.829L248.607 591.859Z" stroke="#FF774D" stroke-opacity="0.8"/>
<path d="M247.232 570.704C288.527 535.436 331.923 503.306 377.073 474.569C425.844 443.214 475.988 414.709 527.274 389.189C577.012 364.172 627.853 342.26 679.53 323.567C730.113 305.509 775.924 293.204 815.65 286.976C855.376 280.749 886.691 281.128 908.678 287.822C929.904 294.32 941.621 306.553 943.477 324.153C945.332 341.753 937.232 363.862 919.443 389.838C901.027 416.65 872.867 446.646 835.869 478.73C794.567 513.989 751.172 546.118 706.028 574.865C657.248 606.202 607.105 634.705 555.827 660.245C506.059 685.26 455.186 707.159 403.475 725.826C352.916 743.894 307.105 756.2 267.355 762.417C227.605 768.635 196.339 768.339 174.328 761.635C153.102 755.137 141.386 742.904 139.53 725.304C137.675 707.705 145.751 685.586 163.564 659.62C181.98 632.808 210.14 602.811 247.138 570.727L247.232 570.704ZM243.868 571.234C90.8783 704.035 99.9045 790.607 264.353 764.986C428.801 739.366 686.041 610.948 839.115 478.213C992.189 345.479 983.005 258.746 818.676 284.417C654.348 310.088 396.988 438.456 243.89 571.18L243.868 571.234Z" stroke="#FF774D" stroke-opacity="0.8"/>
<path d="M246.04 547.558C291.738 512.674 339.424 481.177 388.739 453.304C441.178 423.367 494.905 396.523 549.67 372.899C602.003 350.073 655.34 330.649 709.38 314.735C761.843 299.516 808.642 290.238 848.544 287.167C888.446 284.095 919.01 287.365 939.443 296.924C959.159 306.18 968.601 320.849 967.549 340.584C966.497 360.32 954.98 384.035 933.29 411.162C910.802 439.398 878.449 469.761 836.989 501.846C791.298 536.732 743.62 568.233 694.314 596.111C641.887 626.06 588.167 652.907 533.407 676.526C481.067 699.358 427.723 718.779 373.673 734.68C321.234 749.909 274.411 759.177 234.532 762.258C194.654 765.339 164.066 762.06 143.634 752.501C123.918 743.245 114.451 728.566 115.527 708.841C116.603 689.115 128.097 665.39 149.787 638.263C172.219 610.161 204.627 579.664 246.088 547.579L246.04 547.558ZM242.811 547.831C71.3659 680.475 66.112 777.648 231.142 764.883C396.172 752.119 668.821 634.238 840.194 501.563C1011.57 368.889 1016.89 271.747 851.863 284.511C686.833 297.276 414.208 415.167 242.715 547.791L242.811 547.831Z" stroke="#FF774D" stroke-opacity="0.8"/>
<path d="M248.678 521.818C298.606 487.76 350.416 457.368 403.727 430.865C459.484 402.842 516.437 378.188 574.307 357.022C628.793 336.823 684.16 320.361 740.068 307.735C793.869 295.849 841.184 290.059 880.716 290.447C920.247 290.836 949.601 297.493 968.056 309.989C985.851 322.113 992.726 339.25 988.435 361.107C984.145 382.965 968.946 408.112 943.29 436.14C916.738 465.175 880.064 495.944 834.282 527.556C784.397 561.619 732.636 592.031 679.377 618.569C623.616 646.583 566.664 671.237 508.796 692.413C454.311 712.611 398.943 729.074 343.035 741.699C289.235 753.586 241.92 759.376 202.388 758.987C162.856 758.599 133.502 751.941 115.048 739.445C97.2523 727.321 90.3539 710.175 94.6442 688.317C98.9346 666.459 114.133 641.313 139.79 613.284C166.341 584.249 203.015 553.48 248.797 521.869L248.678 521.818ZM245.559 521.823C56.1927 652.554 35.1751 759.982 198.667 761.598C362.158 763.214 648.287 658.482 837.711 527.681C1027.14 396.881 1048.1 289.523 884.58 287.897C721.065 286.27 434.864 390.973 245.44 521.773L245.559 521.823Z" stroke="#FF774D" stroke-opacity="0.8"/>
<path d="M255.435 493.641C309.314 460.89 364.964 432.11 421.977 407.513C480.651 381.924 540.408 360.004 600.939 341.865C657.105 324.733 714.001 311.71 771.229 302.888C825.78 294.871 873.03 292.953 911.647 297.168C950.263 301.383 977.912 311.47 993.809 327.287C1009.21 342.485 1013.03 362.169 1005.38 385.97C997.728 409.772 978.694 436.317 949.03 465.01C918.316 494.675 877.412 525.292 827.429 556.008C773.549 588.76 717.899 617.539 660.887 642.136C602.21 667.717 542.453 689.637 481.924 707.784C425.846 724.837 369.044 737.794 311.912 746.564C257.338 754.571 210.111 756.499 171.495 752.285C132.878 748.07 104.991 737.882 89.038 722.198C73.6415 707 69.817 687.317 77.4442 663.505C85.0714 639.693 104.153 613.169 133.817 584.476C164.602 554.841 205.506 524.224 255.435 493.641ZM252.272 493.282C45.5754 620.336 7.50597 737.474 167.207 754.908C326.908 772.341 623.921 683.496 830.568 556.358C1037.21 429.219 1075.33 312.165 915.632 294.732C755.931 277.298 458.894 366.133 252.272 493.282V493.282Z" stroke="#FF774D" stroke-opacity="0.8"/>
<path d="M266.812 462.734C324.322 431.802 383.484 405.186 443.851 383.085C504.973 360.443 567.052 341.846 629.73 327.403C686.952 313.853 744.706 304.866 802.519 300.517C857.207 296.834 903.742 299.204 940.827 307.581C977.911 315.959 1003.33 329.789 1016.34 348.85C1028.95 367.177 1029.54 389.454 1018.09 415.109C1006.63 440.763 983.771 468.424 950.03 497.407C915.135 527.412 870.109 557.481 816.193 586.788C758.692 617.723 699.538 644.342 639.178 666.446C578.054 689.081 515.976 707.677 453.299 722.129C396.037 735.668 338.242 744.638 280.391 748.964C225.703 752.647 179.167 750.278 142.083 741.9C104.999 733.522 79.5542 719.682 66.5706 700.631C53.9846 682.314 53.3973 660.037 64.8481 634.382C76.2988 608.728 99.2109 581.087 132.972 551.987C167.867 521.983 212.917 491.923 266.809 462.607L266.812 462.734ZM263.779 461.926C40.8076 583.172 -15.6843 709.471 137.821 744.125C291.325 778.778 596.365 708.51 819.336 587.264C1042.31 466.018 1098.8 339.719 945.294 305.066C791.789 270.412 486.705 340.787 263.734 462.033L263.779 461.926Z" stroke="#FF774D" stroke-opacity="0.8"/>
<path d="M282.802 429.758C343.516 401.152 405.753 377.266 469.013 358.292C531.99 339.108 595.76 324.375 659.904 314.19C717.697 304.656 775.761 300.197 833.52 300.857C887.636 301.994 932.773 309.086 967.696 321.926C1002.62 334.766 1025.2 352.458 1034.89 374.861C1044.23 396.397 1041.16 421.186 1025.78 448.543C1010.39 475.899 983.468 504.422 945.712 533.343C906.65 563.315 857.668 592.373 800.182 619.668C739.463 648.257 677.227 672.142 613.971 691.134C550.992 710.311 487.224 725.044 423.08 735.236C365.299 744.737 307.25 749.16 249.509 748.462C195.416 747.335 150.279 740.244 115.357 727.403C80.4338 714.563 57.8511 696.871 48.1673 674.468C38.8257 652.932 41.8908 628.143 57.2747 600.787C72.6587 573.43 99.5843 544.908 137.34 515.987C176.402 486.014 225.361 456.946 282.87 429.661L282.802 429.758ZM280.051 428.473C41.9804 541.892 -33.8243 676.66 110.625 729.745C255.074 782.829 565.01 734.152 803.036 620.84C1041.06 507.528 1116.78 372.909 972.383 319.691C827.989 266.473 517.986 315.247 279.983 428.569L280.051 428.473Z" stroke="#FF774D" stroke-opacity="0.8"/>
<path d="M303.968 394.467C367.423 368.744 432.24 348.186 497.853 332.97C562.101 317.794 626.926 307.547 691.834 302.307C754.995 297.329 812.85 297.97 863.807 304.217C916.507 310.728 959.567 322.82 991.617 340.419C1023.67 358.017 1042.9 379.922 1048.78 405.619C1054.41 430.4 1047.36 457.623 1027.84 486.5C1008.32 515.377 977.302 544.497 935.676 573.009C892.576 602.502 839.93 630.043 779.137 654.966C715.683 680.698 650.866 701.257 585.252 716.463C521.013 731.649 456.195 741.9 391.294 747.137C328.134 752.115 270.278 751.474 219.322 745.227C166.598 738.706 123.562 726.624 91.4882 709.015C59.4149 691.406 40.2278 669.522 34.3289 643.814C28.715 619.044 35.7647 591.82 55.2871 562.944C74.8095 534.067 105.827 504.947 147.453 476.435C190.552 446.942 243.198 419.4 303.968 394.467V394.467ZM301.367 393.025C50.0132 495.929 -46.2117 638.321 86.4412 711.035C219.094 783.748 530.337 759.293 781.666 656.379C1033 553.464 1129.24 411.082 996.536 338.503C863.828 265.923 552.672 290.101 301.367 393.025Z" stroke="#FF774D" stroke-opacity="0.8"/>
<path d="M330.389 357.446C459.481 313.855 592.552 291.846 724.841 292.206C787.426 292.737 843.942 298.972 892.767 310.761C943.326 322.968 983.416 340.595 1011.91 363.168C1040.41 385.741 1055.63 411.92 1057.14 440.961C1058.56 469.019 1047.28 498.576 1023.42 528.729C999.548 558.882 964.489 588.275 919.098 615.92C872.117 644.559 816.09 670.106 752.547 691.919C686.959 714.231 620.202 730.846 552.934 741.599C488.075 752.284 422.921 757.483 358.071 757.149C295.462 756.608 238.97 750.383 190.121 738.583C139.586 726.387 99.4955 708.76 70.9739 686.177C42.4524 663.593 27.2841 637.435 25.771 608.394C24.3313 580.326 35.6281 550.779 59.496 520.626C83.3639 490.473 118.504 461.02 163.933 433.486C210.914 404.847 266.941 379.299 330.46 357.476L330.389 357.446ZM328.132 355.646C65.3513 445.929 -52.0015 594.609 65.8649 688.075C183.731 781.542 492.308 784.059 755.02 693.873C1017.73 603.687 1135.13 454.9 1017.29 361.444C899.445 267.988 590.773 265.43 328.108 355.636L328.132 355.646Z" stroke="#FF774D" stroke-opacity="0.8"/>
<path d="M362.289 318.905C429.474 300.506 497.581 288.433 565.827 282.824C630.511 277.162 695.105 277.633 758.873 284.23C820.024 290.787 874.293 303.113 920.157 320.818C967.622 339.197 1003.93 362.424 1028.18 390.368C1052.43 418.312 1062.95 448.637 1059.68 481.031C1056.5 512.305 1040.59 543.988 1012.34 575.217C984.102 606.445 944.977 635.63 896.047 662.001C845.442 689.298 786.408 712.288 720.69 730.417C653.503 748.802 585.398 760.875 517.152 766.498C452.469 772.154 387.874 771.684 324.106 765.091C262.955 758.535 208.687 746.209 162.822 728.504C115.333 710.114 79.1049 686.764 54.8007 658.954C30.4965 631.143 20.0306 600.685 23.28 568.28C26.4535 537.006 42.3922 505.334 70.7302 474.145C99.0681 442.957 138.074 413.721 187.028 387.361C237.633 360.064 296.667 337.074 362.385 318.945L362.289 318.905ZM360.506 316.707C88.7384 391.663 -50.4552 545.578 49.5877 660.494C149.631 775.41 451.113 807.804 722.881 732.849C994.649 657.894 1133.84 503.978 1033.8 389.062C933.756 274.146 632.274 241.752 360.483 316.697L360.506 316.707Z" stroke="#FF774D" stroke-opacity="0.8"/>
<path d="M399.795 279.144C467.842 265.234 536.477 258.341 604.762 258.56C668.606 258.394 731.841 265.063 793.555 278.471C852.308 291.619 903.387 310.486 945.348 334.556C988.718 359.629 1020.53 389.097 1039.68 422.15C1058.84 455.204 1064.21 490.173 1055.66 525.746C1047.51 560.012 1026.68 593.8 993.951 625.774C961.219 657.747 918.291 686.428 866.018 710.979C812.01 736.401 750.521 756.313 683.272 770.151C615.225 784.061 546.59 790.954 478.305 790.735C414.476 790.85 351.26 784.136 289.567 770.691C230.814 757.542 179.736 738.675 137.75 714.595C94.1849 689.722 62.4383 660.439 43.3148 627.242C24.1914 594.045 18.8155 559.229 27.3399 523.646C35.5104 489.39 56.3153 455.592 89.0715 423.628C121.828 391.665 164.851 363.025 217.004 338.423C271.037 313.011 332.526 293.1 399.775 279.261L399.795 279.144ZM398.107 276.516C120.043 333.638 -41.2524 491.049 37.8401 628.264C116.932 765.479 406.644 830.172 684.8 772.963C962.956 715.754 1124.25 558.343 1045.16 421.128C966.066 283.913 676.498 219.28 398.223 276.439L398.107 276.516Z" stroke="#FF774D" stroke-opacity="0.8"/>
<path d="M442.975 238.629C511.21 229.702 579.587 228.613 646.957 235.38C709.121 241.294 769.957 254.816 828.329 275.693C883.683 295.891 930.556 321.719 967.668 352.479C1006.07 384.381 1032.29 419.971 1045.67 458.632C1059.04 497.293 1058.59 536.344 1044.4 575.19C1030.75 612.572 1004.92 647.928 967.652 680.283C930.384 712.638 883.603 740.322 828.542 762.598C771.518 785.681 708.099 801.857 640.175 810.824C571.941 819.751 503.564 820.84 436.194 814.073C374.03 808.159 313.193 794.637 254.821 773.76C199.468 753.562 152.57 727.724 115.482 696.974C77.0766 665.072 50.8633 629.482 37.5086 590.831C24.154 552.18 24.396 512.885 38.6349 474.212C52.2826 436.831 78.1112 401.474 115.355 369.109C152.599 336.744 199.428 309.08 254.489 286.804C311.513 263.722 374.909 247.536 442.975 238.629V238.629ZM441.886 235.436C160.361 272.344 -23.3283 431.717 31.7881 591.498C86.9046 751.278 359.631 850.847 641.131 813.866C922.63 776.885 1106.24 617.635 1051.24 457.905C996.246 298.175 723.4 198.556 441.9 235.537L441.886 235.436Z" stroke="#FF774D" stroke-opacity="0.8"/>
<path d="M491.813 197.723C559.457 194.306 626.635 199.649 691.923 213.638C751.653 226.093 809.085 246.962 862.811 275.733C913.646 303.451 955.373 336.755 986.622 374.281C1019.01 413.26 1038.85 455.432 1045.51 499.653C1052.35 542.888 1045.21 588.467 1025.24 628.878C1005.77 669.082 974.722 705.854 933 738.186C891.279 770.519 840.94 796.767 783.392 816.237C723.844 836.404 659.127 848.326 591.099 851.721C523.455 855.133 456.278 849.791 390.989 835.806C331.259 823.35 273.827 802.481 220.1 773.711C169.242 745.982 127.539 712.689 96.2898 675.163C63.8796 636.173 44.0658 594.012 37.3977 549.791C30.5638 506.557 37.7309 460.981 57.7158 420.586C77.1921 380.382 108.249 343.584 150.055 311.318C191.861 279.052 242.116 252.737 299.639 233.257C362.615 212.45 427.222 200.504 491.813 197.723V197.723ZM491.336 194.066C209.838 208.148 4.1214 367.511 31.8339 550.147C59.5465 732.782 310.204 869.356 591.704 855.338C873.204 841.319 1078.92 681.956 1051.21 499.257C1023.49 316.559 772.79 180.091 491.336 194.066Z" stroke="#FF774D" stroke-opacity="0.8"/>
<path d="M546.38 157.048C612.675 159.622 677.668 172.006 739.578 193.861C796.076 213.436 848.986 242.161 896.61 279.116C941.838 314.746 977.191 355.513 1001.66 400.33C1027 446.708 1039.5 495.405 1038.85 545.028C1038.23 594.531 1023.97 643.806 997.89 686.528C972.27 729.298 935.868 767.208 889.75 799.041C843.631 830.875 790.098 855.277 730.662 871.377C666.583 888.322 601.278 895.396 536.728 892.382C470.434 889.808 405.441 877.423 343.53 855.568C287.025 835.989 234.107 807.261 186.475 770.303C141.246 734.673 105.893 693.907 81.4491 649.099C56.0408 602.691 43.5128 553.985 44.1622 504.362C44.7829 454.858 59.056 405.584 85.147 362.872C110.767 320.101 147.169 282.191 193.263 250.348C239.357 218.505 292.938 194.123 352.351 178.013C416.429 161.062 481.735 153.989 546.285 157.007L546.38 157.048ZM546.317 152.936C268.712 141.615 41.3633 298.849 38.6655 504.149C35.9678 709.449 258.889 885.078 536.623 896.359C814.356 907.641 1041.7 750.497 1044.39 545.197C1047.09 339.897 824.17 164.268 546.412 152.977L546.317 152.936Z" stroke="#FF774D" stroke-opacity="0.8"/>
<path d="M606.36 117.066C670.564 126.199 732.326 146.221 789.446 176.417C841.899 203.855 889.13 240.92 929.209 286.101C967.636 329.957 995.563 378.626 1012.17 430.692C1029.19 482.372 1033.53 538.868 1024.8 594.929C1015.99 650.103 994.201 702.895 961.579 748.082C929.522 793.108 887.654 831.609 837.376 862.636C787.099 893.663 730.682 915.534 669.871 927.696C605.331 940.335 540.112 941.936 476.629 932.441C412.425 923.308 350.662 903.286 293.543 873.09C241.089 845.652 193.859 808.587 153.78 763.406C115.353 719.55 87.4254 670.881 70.8145 618.815C53.7036 564.84 49.4186 509.58 58.2107 454.461C67.0291 399.29 88.8193 346.502 121.43 301.308C153.511 256.292 195.356 217.781 245.633 186.754C295.911 155.726 352.307 133.973 413.118 121.811C477.658 109.167 542.878 107.565 606.36 117.066V117.066ZM607.077 112.56C337.179 73.3869 89.0468 226.156 52.8193 453.79C16.5917 681.425 206.058 897.666 475.956 936.84C745.854 976.013 993.986 823.244 1030.26 595.502C1066.53 367.761 876.976 151.734 607.077 112.56V112.56Z" stroke="#FF774D" stroke-opacity="0.8"/>
<path d="M671.601 78.4327C732.934 94.7051 790.29 122.934 840.99 161.801C888.437 197.912 928.727 243.66 959.871 296.785C989.663 347.271 1009.24 404.566 1017.42 465.212C1025.52 525.737 1020.59 588.505 1003.03 648.729C985.462 708.953 955.716 765.042 916.061 812.716C876.289 860.481 828.577 899.69 775.812 927.972C720.49 957.898 661.323 976.943 601.246 984.161C471.574 999.744 344.377 965.548 241.972 887.572C194.533 851.466 154.25 805.721 123.116 752.599C93.3237 702.113 73.7468 644.817 65.5674 584.172C57.4563 523.648 62.3647 460.878 79.9182 400.648C97.4717 340.419 127.206 284.322 166.854 236.638C206.674 188.878 254.436 149.688 307.246 121.442C362.568 91.5161 421.735 72.4714 481.812 65.2526C546.161 57.3179 610.449 61.791 671.673 78.4629L671.601 78.4327ZM673.099 73.5331C415.507 4.26317 147.613 150.08 74.8976 399.254C2.18207 648.429 152.308 906.618 410.007 975.901C667.705 1045.18 935.493 899.354 1008.21 650.18C1080.92 401.006 930.726 142.786 673.027 73.5029L673.099 73.5331Z" stroke="#FF774D" stroke-opacity="0.8"/>
<path d="M741.677 41.758C841.154 83.7873 921.585 163.027 969.343 266.054C1017.1 369.081 1029.25 489.561 1003.73 607.085C978.218 724.61 916.604 831.953 829.33 910.931C742.055 989.909 634.486 1035.67 524.844 1040.45C399.379 1044.87 281.09 995.253 195.778 902.419C110.467 809.585 65.0548 681.069 69.4483 544.903C73.8418 408.738 127.684 275.972 219.231 175.566C310.778 75.1591 432.601 15.2594 558.127 8.93216C621.648 6.16652 684.076 17.3311 741.677 41.758V41.758ZM743.895 36.4071C657.643 0.0376683 561.455 -6.87845 467.494 16.5333C373.534 39.945 286.02 92.6331 216.021 167.935C146.022 243.237 96.6805 337.77 74.2368 439.58C51.7931 541.391 57.255 645.906 89.9318 739.909C122.609 833.911 181.033 913.18 257.816 967.691C334.599 1022.2 426.293 1049.51 521.302 1046.15C616.311 1042.8 710.368 1008.93 791.579 948.842C872.79 888.752 937.507 805.135 977.547 708.564C1004.13 644.444 1019.18 576.195 1021.82 507.714C1024.47 439.233 1014.66 371.861 992.968 309.446C971.271 247.03 938.108 190.793 895.372 143.945C852.636 97.0969 801.164 60.5555 743.895 36.4071V36.4071Z" stroke="#FF774D" stroke-opacity="0.8"/>
</g>
<defs>
<clipPath id="clip0_771_7">
<rect width="1069" height="1073" fill="white"/>
</clipPath>
</defs>
</svg>
