<svg width="11" height="12" viewBox="0 0 11 12" fill="none" xmlns="http://www.w3.org/2000/svg">
<path d="M4.20371 5.80416L0.668173 2.26862C0.277648 1.8781 0.277648 1.24493 0.668173 0.85441C1.0587 0.463886 1.69186 0.463886 2.08239 0.85441L5.61792 4.38994L9.15345 0.854411C9.54398 0.463886 10.1771 0.463886 10.5677 0.85441C10.9582 1.24493 10.9582 1.8781 10.5677 2.26862L7.03213 5.80416L10.5677 9.33969C10.9582 9.73022 10.9582 10.3634 10.5677 10.7539C10.1771 11.1444 9.54398 11.1444 9.15345 10.7539L5.61792 7.21837L2.08239 10.7539C1.69186 11.1444 1.0587 11.1444 0.668172 10.7539C0.277648 10.3634 0.277648 9.73022 0.668172 9.33969L4.20371 5.80416Z" fill="#FEFEFE"/>
</svg>
