<svg width="32" height="32" viewBox="0 0 32 32" fill="none" xmlns="http://www.w3.org/2000/svg">
<path d="M11.9992 9.6001C11.787 9.6001 11.5836 9.68438 11.4335 9.83441C11.2835 9.98444 11.1992 10.1879 11.1992 10.4001V15.2001C11.1992 15.4123 11.2835 15.6158 11.4335 15.7658C11.5836 15.9158 11.787 16.0001 11.9992 16.0001H19.9992C20.2114 16.0001 20.4149 15.9158 20.5649 15.7658C20.7149 15.6158 20.7992 15.4123 20.7992 15.2001V10.4001C20.7992 10.1879 20.7149 9.98444 20.5649 9.83441C20.4149 9.68438 20.2114 9.6001 19.9992 9.6001H11.9992ZM12.7992 14.4001V11.2001H19.1992V14.4001H12.7992ZM12.7992 20.0001C12.7992 19.7879 12.8835 19.5844 13.0335 19.4344C13.1836 19.2844 13.387 19.2001 13.5992 19.2001H18.3992C18.6114 19.2001 18.8149 19.2844 18.9649 19.4344C19.1149 19.5844 19.1992 19.7879 19.1992 20.0001C19.1992 20.2123 19.1149 20.4158 18.9649 20.5658C18.8149 20.7158 18.6114 20.8001 18.3992 20.8001H13.5992C13.387 20.8001 13.1836 20.7158 13.0335 20.5658C12.8835 20.4158 12.7992 20.2123 12.7992 20.0001Z" fill="#FF774D"/>
<path d="M12.7984 2.4001C12.7984 2.18792 12.7142 1.98444 12.5641 1.83441C12.4141 1.68438 12.2106 1.6001 11.9984 1.6001C11.7863 1.6001 11.5828 1.68438 11.4328 1.83441C11.2827 1.98444 11.1984 2.18792 11.1984 2.4001V4.8001H8.79844C8.16192 4.8001 7.55147 5.05295 7.10138 5.50304C6.65129 5.95313 6.39844 6.56358 6.39844 7.2001V18.4001C6.39856 18.5579 6.44532 18.712 6.53284 18.8433L9.59844 23.4417V26.4001C9.59844 27.0366 9.85129 27.6471 10.3014 28.0972C10.7515 28.5472 11.3619 28.8001 11.9984 28.8001H19.9984C20.635 28.8001 21.2454 28.5472 21.6955 28.0972C22.1456 27.6471 22.3984 27.0366 22.3984 26.4001V23.4417L25.464 18.8433C25.5516 18.712 25.5983 18.5579 25.5984 18.4001V7.2001C25.5984 6.56358 25.3456 5.95313 24.8955 5.50304C24.4454 5.05295 23.835 4.8001 23.1984 4.8001H12.7984V2.4001ZM8.79844 6.4001H23.1984C23.4106 6.4001 23.6141 6.48438 23.7641 6.63441C23.9142 6.78444 23.9984 6.98792 23.9984 7.2001V18.1585L20.9328 22.7569C20.8453 22.8881 20.7986 23.0423 20.7984 23.2001V26.4001C20.7984 26.6123 20.7142 26.8158 20.5641 26.9658C20.4141 27.1158 20.2106 27.2001 19.9984 27.2001H11.9984C11.7863 27.2001 11.5828 27.1158 11.4328 26.9658C11.2827 26.8158 11.1984 26.6123 11.1984 26.4001V23.2001C11.1983 23.0423 11.1516 22.8881 11.064 22.7569L7.99844 18.1585V7.2001C7.99844 6.98792 8.08272 6.78444 8.23275 6.63441C8.38278 6.48438 8.58626 6.4001 8.79844 6.4001Z" fill="#FF774D"/>
</svg>
