<svg width="32" height="32" viewBox="0 0 32 32" fill="none" xmlns="http://www.w3.org/2000/svg">
<path d="M17.7477 3.21393C17.6357 3.11903 17.5028 3.05297 17.3604 3.02131C17.2181 2.98965 17.0703 2.99332 16.9296 3.03201C16.7889 3.0707 16.6594 3.14328 16.552 3.24363C16.4446 3.34398 16.3624 3.46916 16.3125 3.60861L13.8125 10.6006L11.067 7.89105C10.9748 7.79997 10.8647 7.72982 10.744 7.68523C10.6232 7.64064 10.4946 7.62261 10.3665 7.63234C10.2384 7.64208 10.1138 7.67935 10.0009 7.74169C9.88794 7.80404 9.78928 7.89005 9.71136 7.99406C7.25 11.2788 6 14.5832 6 17.8147C6 20.516 7.05357 23.1067 8.92893 25.0168C10.8043 26.9269 13.3478 28 16 28C18.6522 28 21.1957 26.9269 23.0711 25.0168C24.9464 23.1067 26 20.516 26 17.8147C26 10.9339 20.2284 5.31464 17.7477 3.21393ZM16 26.1481C13.8308 26.1457 11.7511 25.2669 10.2172 23.7046C8.68337 22.1423 7.82059 20.0241 7.81818 17.8147C7.81818 15.2684 8.7375 12.6307 10.5523 9.96283L13.5489 12.9235C13.6577 13.0311 13.7912 13.1093 13.9373 13.151C14.0834 13.1926 14.2374 13.1963 14.3853 13.1618C14.5332 13.1273 14.6702 13.0556 14.7839 12.9533C14.8976 12.8511 14.9844 12.7214 15.0364 12.5763L17.567 5.50793C20.1148 7.87022 24.1818 12.4802 24.1818 17.8147C24.1794 20.0241 23.3166 22.1423 21.7828 23.7046C20.2489 25.2669 18.1692 26.1457 16 26.1481Z" fill="#FF774D"/>
</svg>
