<svg width="57" height="56" viewBox="0 0 57 56" fill="none" xmlns="http://www.w3.org/2000/svg">
<path d="M28.334 40.0199C28.3341 39.327 28.5211 38.6463 28.8762 38.0461C29.2313 37.4459 29.742 36.9474 30.3571 36.6005L52.659 24.0292C52.8642 23.9135 53.0346 23.7472 53.1531 23.5469C53.2716 23.3467 53.334 23.1195 53.334 22.8883C53.334 22.6572 53.2716 22.43 53.1531 22.2298C53.0346 22.0295 52.8642 21.8632 52.659 21.7475L30.3571 9.17621C30.1522 9.06083 29.9197 9.00006 29.6831 9C29.4464 8.99994 29.2139 9.0606 29.0089 9.17588C28.804 9.29116 28.6337 9.45701 28.5152 9.65677C28.3967 9.85653 28.3342 10.0832 28.334 10.3139M28.334 40.0199V45.6861M28.334 40.0199C28.3339 39.327 28.1469 38.6463 27.7918 38.0461C27.4367 37.4459 26.926 36.9474 26.3109 36.6005L4.009 24.0292C3.80375 23.9135 3.63332 23.7472 3.51484 23.5469C3.39636 23.3467 3.33398 23.1195 3.33398 22.8883C3.33398 22.6572 3.39636 22.43 3.51484 22.2298C3.63332 22.0295 3.80375 21.8632 4.009 21.7475L26.3109 9.17621C26.5158 9.06083 26.7483 9.00006 26.9849 9C27.2215 8.99994 27.454 9.0606 27.659 9.17588C27.864 9.29116 28.0343 9.45701 28.1528 9.65677C28.2713 9.85653 28.3337 10.0832 28.334 10.3139M28.334 45.6861C28.3342 45.9168 28.3967 46.1435 28.5152 46.3432C28.6337 46.543 28.804 46.7088 29.0089 46.8241C29.2139 46.9394 29.4464 47.0001 29.6831 47C29.9197 46.9999 30.1522 46.9392 30.3571 46.8238L39.6779 41.5702C40.2932 41.2235 40.8042 40.725 41.1595 40.1248C41.5149 39.5246 41.702 38.8438 41.7023 38.1508V32.3584C41.7023 31.6651 41.5152 30.9841 41.1598 30.3836C40.8045 29.7832 40.2934 29.2845 39.6779 28.9377L30.3571 23.6841C29.7418 23.3371 29.231 22.8384 28.8759 22.238C28.5207 21.6375 28.3339 20.9566 28.334 20.2634M28.334 45.6861C28.3337 45.9168 28.2713 46.1435 28.1528 46.3432C28.0343 46.543 27.864 46.7088 27.659 46.8241C27.454 46.9394 27.2215 47.0001 26.9849 47C26.7483 46.9999 26.5158 46.9392 26.3109 46.8238L16.9901 41.5702C16.3748 41.2235 15.8638 40.725 15.5084 40.1248C15.1531 39.5246 14.9659 38.8438 14.9657 38.1508V32.3584C14.9657 31.6651 15.1528 30.9841 15.5081 30.3836C15.8635 29.7832 16.3746 29.2845 16.9901 28.9377L26.3109 23.6841C26.9261 23.3371 27.437 22.8384 27.7921 22.238C28.1472 21.6375 28.3341 20.9566 28.334 20.2634M28.334 20.2634V10.3139" stroke="#FF774D" stroke-width="1.5" stroke-linecap="round" stroke-linejoin="round"/>
</svg>
