<svg width="56" height="56" viewBox="0 0 56 56" fill="none" xmlns="http://www.w3.org/2000/svg">
<g clip-path="url(#clip0_461_9512)">
<path d="M47.0839 14.6779L30.7564 7.0467C29.8694 6.6323 28.9023 6.41744 27.9233 6.41724C26.9443 6.41703 25.9771 6.6315 25.0899 7.04553L8.91643 14.5939C8.45476 14.8093 8.06413 15.1519 7.79041 15.5816C7.51668 16.0113 7.37122 16.5101 7.37109 17.0196C7.37097 17.529 7.51619 18.0279 7.78971 18.4577C8.06323 18.8875 8.4537 19.2304 8.91526 19.446L25.2428 27.0772C26.1297 27.4918 27.0967 27.7068 28.0758 27.7072C29.0548 27.7077 30.022 27.4934 30.9093 27.0795L47.0828 19.53C47.5444 19.3146 47.9351 18.972 48.2088 18.5423C48.4825 18.1126 48.628 17.6138 48.6281 17.1043C48.6282 16.5949 48.483 16.096 48.2095 15.6662C47.936 15.2364 47.5455 14.8935 47.0839 14.6779Z" stroke="#FF774D" stroke-width="1.5" stroke-linecap="round" stroke-linejoin="round"/>
<path d="M15.4323 22.491L8.91768 25.5313C8.45569 25.7466 8.06474 26.0893 7.79078 26.519C7.51681 26.9488 7.37122 27.4479 7.37109 27.9576C7.37097 28.4673 7.51633 28.9664 7.79008 29.3963C8.06384 29.8263 8.45462 30.1691 8.91651 30.3846L25.244 38.0146C26.1309 38.4292 27.098 38.6443 28.077 38.6447C29.056 38.6451 30.0232 38.4308 30.9105 38.017L47.084 30.4686C47.5457 30.2532 47.9363 29.9106 48.21 29.4809C48.4838 29.0512 48.6292 28.5524 48.6293 28.0429C48.6295 27.5335 48.4842 27.0346 48.2107 26.6048C47.9372 26.175 47.5467 25.8321 47.0852 25.6165L40.5693 22.5715" stroke="#FF774D" stroke-width="1.5" stroke-linecap="round" stroke-linejoin="round"/>
<path d="M15.4323 33.4297L8.91768 36.47C8.45569 36.6853 8.06474 37.028 7.79078 37.4578C7.51681 37.8876 7.37122 38.3866 7.37109 38.8963C7.37097 39.406 7.51633 39.9051 7.79008 40.3351C8.06384 40.765 8.45462 41.1079 8.91651 41.3234L25.244 48.9534C26.131 49.3678 27.0981 49.5826 28.0771 49.5828C29.0562 49.583 30.0233 49.3686 30.9105 48.9545L47.084 41.4062C47.5457 41.1908 47.9363 40.8481 48.21 40.4184C48.4838 39.9888 48.6292 39.4899 48.6293 38.9805C48.6295 38.471 48.4842 37.9721 48.2107 37.5423C47.9372 37.1125 47.5467 36.7697 47.0852 36.554L40.5693 33.509" stroke="#FF774D" stroke-width="1.5" stroke-linecap="round" stroke-linejoin="round"/>
</g>
<defs>
<clipPath id="clip0_461_9512">
<rect width="56" height="56" fill="white"/>
</clipPath>
</defs>
</svg>
