<svg width="56" height="56" viewBox="0 0 56 56" fill="none" xmlns="http://www.w3.org/2000/svg">
<g clip-path="url(#clip0_405_2738)">
<path d="M31.5007 16.3335L39.6673 24.5002M16.334 31.5002L24.5007 39.6668M24.5007 16.3335L16.334 24.5002M39.6673 31.5002L31.5007 39.6668" stroke="#FF774D" stroke-width="1.7" stroke-linecap="round"/>
<path d="M28.0007 17.5001C30.578 17.5001 32.6673 15.4107 32.6673 12.8334C32.6673 10.2561 30.578 8.16675 28.0007 8.16675C25.4233 8.16675 23.334 10.2561 23.334 12.8334C23.334 15.4107 25.4233 17.5001 28.0007 17.5001Z" stroke="#FF774D" stroke-width="1.7"/>
<path d="M28.0007 47.8333C30.578 47.8333 32.6673 45.744 32.6673 43.1667C32.6673 40.5893 30.578 38.5 28.0007 38.5C25.4233 38.5 23.334 40.5893 23.334 43.1667C23.334 45.744 25.4233 47.8333 28.0007 47.8333Z" stroke="#FF774D" stroke-width="1.7"/>
<path d="M12.8337 32.6668C15.411 32.6668 17.5003 30.5775 17.5003 28.0002C17.5003 25.4228 15.411 23.3335 12.8337 23.3335C10.2563 23.3335 8.16699 25.4228 8.16699 28.0002C8.16699 30.5775 10.2563 32.6668 12.8337 32.6668Z" stroke="#FF774D" stroke-width="1.7"/>
<path d="M43.1667 32.6668C45.744 32.6668 47.8333 30.5775 47.8333 28.0002C47.8333 25.4228 45.744 23.3335 43.1667 23.3335C40.5893 23.3335 38.5 25.4228 38.5 28.0002C38.5 30.5775 40.5893 32.6668 43.1667 32.6668Z" stroke="#FF774D" stroke-width="1.7"/>
</g>
<defs>
<clipPath id="clip0_405_2738">
<rect width="56" height="56" fill="white"/>
</clipPath>
</defs>
</svg>
