<svg width="56" height="56" viewBox="0 0 56 56" fill="none" xmlns="http://www.w3.org/2000/svg">
<path d="M22.5107 10.125C21.3256 10.125 20.1889 10.5958 19.3509 11.4339C18.5128 12.2719 18.042 13.4086 18.042 14.5938V17H12.1982C11.1954 17 10.2336 17.3984 9.52449 18.1075C8.81537 18.8166 8.41699 19.7784 8.41699 20.7812V40.7188C8.41699 41.7216 8.81537 42.6834 9.52449 43.3925C10.2336 44.1016 11.1954 44.5 12.1982 44.5H43.1357C44.1386 44.5 45.1004 44.1016 45.8095 43.3925C46.5186 42.6834 46.917 41.7216 46.917 40.7188V20.7812C46.917 19.7784 46.5186 18.8166 45.8095 18.1075C45.1004 17.3984 44.1386 17 43.1357 17H37.292V14.5938C37.292 13.4086 36.8212 12.2719 35.9831 11.4339C35.1451 10.5958 34.0084 10.125 32.8232 10.125H22.5107ZM12.1982 18.375H43.1357C44.464 18.375 45.542 19.453 45.542 20.7812V28H37.292V25.9375C37.292 25.7552 37.2196 25.5803 37.0906 25.4514C36.9617 25.3224 36.7868 25.25 36.6045 25.25C36.4222 25.25 36.2473 25.3224 36.1184 25.4514C35.9894 25.5803 35.917 25.7552 35.917 25.9375V28H19.417V25.9375C19.417 25.7552 19.3446 25.5803 19.2156 25.4514C19.0867 25.3224 18.9118 25.25 18.7295 25.25C18.5472 25.25 18.3723 25.3224 18.2434 25.4514C18.1144 25.5803 18.042 25.7552 18.042 25.9375V28H9.79199V20.7812C9.79199 19.453 10.87 18.375 12.1982 18.375ZM9.79199 29.375H18.042V31.4375C18.042 31.6198 18.1144 31.7947 18.2434 31.9236C18.3723 32.0526 18.5472 32.125 18.7295 32.125C18.9118 32.125 19.0867 32.0526 19.2156 31.9236C19.3446 31.7947 19.417 31.6198 19.417 31.4375V29.375H35.917V31.4375C35.917 31.6198 35.9894 31.7947 36.1184 31.9236C36.2473 32.0526 36.4222 32.125 36.6045 32.125C36.7868 32.125 36.9617 32.0526 37.0906 31.9236C37.2196 31.7947 37.292 31.6198 37.292 31.4375V29.375H45.542V40.7188C45.542 41.3569 45.2885 41.969 44.8372 42.4202C44.386 42.8715 43.7739 43.125 43.1357 43.125H12.1982C11.5601 43.125 10.948 42.8715 10.4968 42.4202C10.0455 41.969 9.79199 41.3569 9.79199 40.7188V29.375ZM19.417 17V14.5938C19.417 13.7732 19.7429 12.9863 20.3231 12.4061C20.9033 11.8259 21.6902 11.5 22.5107 11.5H32.8232C33.6438 11.5 34.4307 11.8259 35.0109 12.4061C35.591 12.9863 35.917 13.7732 35.917 14.5938V17H19.417Z" fill="#FF774D"/>
</svg>
