<svg width="57" height="56" viewBox="0 0 57 56" fill="none" xmlns="http://www.w3.org/2000/svg">
<g clip-path="url(#clip0_298_6605)">
<path d="M23.8535 23.5999C23.718 23.5999 23.5838 23.5732 23.4586 23.5213C23.3333 23.4694 23.2196 23.3933 23.1238 23.2974C23.028 23.2015 22.9521 23.0876 22.9004 22.9624C22.8486 22.8371 22.8221 22.7028 22.8223 22.5673L22.8236 22.482L22.8346 22.306C22.9052 21.4871 23.1539 20.6936 23.5634 19.9809C24.3513 18.6293 25.9009 17.4097 28.6646 17.4097C30.5896 17.4097 32.1159 17.9954 33.1196 19.1284C34.1193 20.2394 34.4946 21.7272 34.4946 23.2534C34.4946 25.8522 32.9134 27.1447 31.6621 28.0522C31.5173 28.1567 31.3798 28.2538 31.2496 28.3437C30.7876 28.6668 30.4288 28.9212 30.1386 29.2099C29.8141 29.5344 29.689 29.8025 29.689 30.1353V32.1978C29.6755 32.4621 29.5611 32.7111 29.3693 32.8935C29.1775 33.0759 28.9231 33.1777 28.6584 33.1778C28.3938 33.178 28.1392 33.0766 27.9471 32.8945C27.7551 32.7123 27.6403 32.4635 27.6265 32.1992V30.1367C27.6265 29.0944 28.1023 28.3354 28.6798 27.7579C29.1115 27.3262 29.6656 26.9398 30.151 26.6043H30.1538C30.2647 26.5273 30.3701 26.4526 30.47 26.3802C31.6195 25.5593 32.45 24.7989 32.45 23.2727C32.45 22.0544 32.1448 21.1277 31.5975 20.5227C31.0681 19.9342 30.1813 19.4887 28.6688 19.4887C26.62 19.4887 25.7675 20.3274 25.355 21.0424C25.0854 21.5121 24.9277 22.0377 24.8944 22.5783V22.592C24.8926 22.8644 24.7831 23.1249 24.5899 23.3168C24.3967 23.5087 24.1355 23.6164 23.8631 23.6164L23.8535 23.5999ZM30.041 37.6249C30.041 37.9896 29.8962 38.3393 29.6383 38.5972C29.3804 38.8551 29.0307 38.9999 28.666 38.9999C28.3013 38.9999 27.9516 38.8551 27.6937 38.5972C27.4359 38.3393 27.291 37.9896 27.291 37.6249C27.291 37.2602 27.4359 36.9105 27.6937 36.6526C27.9516 36.3948 28.3013 36.2499 28.666 36.2499C29.0307 36.2499 29.3804 36.3948 29.6383 36.6526C29.8962 36.9105 30.041 37.2602 30.041 37.6249Z" fill="#FF774D"/>
<path fill-rule="evenodd" clip-rule="evenodd" d="M50.666 28C50.666 40.155 40.821 50 28.666 50C16.511 50 6.66602 40.155 6.66602 28C6.66602 15.845 16.511 6 28.666 6C40.821 6 50.666 15.845 50.666 28ZM49.291 28C49.291 39.385 40.051 48.625 28.666 48.625C17.281 48.625 8.04102 39.385 8.04102 28C8.04102 16.615 17.281 7.375 28.666 7.375C40.051 7.375 49.291 16.615 49.291 28Z" fill="#FF774D"/>
</g>
<defs>
<clipPath id="clip0_298_6605">
<rect width="44" height="44" fill="white" transform="translate(6.66602 6)"/>
</clipPath>
</defs>
</svg>
