<svg width="48" height="48" viewBox="0 0 48 48" fill="none" xmlns="http://www.w3.org/2000/svg">
<path d="M14.0232 33.1158L17.9612 26.2678C17.7306 26.3971 17.4612 26.4871 17.1532 26.5378C16.8452 26.5885 16.5379 26.6145 16.2312 26.6158C14.3646 26.6158 12.7952 25.9671 11.5232 24.6698C10.2512 23.3711 9.61523 21.8145 9.61523 19.9998C9.61523 18.1331 10.2512 16.5638 11.5232 15.2918C12.7952 14.0198 14.3646 13.3838 16.2312 13.3838C18.0459 13.3838 19.6019 14.0198 20.8992 15.2918C22.1966 16.5638 22.8452 18.1331 22.8452 19.9998C22.8452 20.6385 22.7666 21.2378 22.6092 21.7978C22.4519 22.3578 22.2279 22.8865 21.9372 23.3838L15.7412 34.1158C15.6519 34.2625 15.5339 34.3825 15.3872 34.4758C15.2406 34.5691 15.0739 34.6158 14.8872 34.6158C14.5059 34.6158 14.2192 34.4491 14.0272 34.1158C13.8352 33.7825 13.8339 33.4491 14.0232 33.1158ZM31.5612 33.1158L35.4992 26.2698C35.2686 26.3978 34.9992 26.4871 34.6912 26.5378C34.3832 26.5885 34.0759 26.6145 33.7692 26.6158C31.9026 26.6158 30.3332 25.9671 29.0612 24.6698C27.7892 23.3725 27.1532 21.8158 27.1532 19.9998C27.1532 18.1065 27.7892 16.5311 29.0612 15.2738C30.3332 14.0165 31.9026 13.3865 33.7692 13.3838C35.5839 13.3838 37.1399 14.0198 38.4372 15.2918C39.7346 16.5638 40.3832 18.1331 40.3832 19.9998C40.3832 20.6385 40.3046 21.2378 40.1472 21.7978C39.9899 22.3578 39.7666 22.8865 39.4772 23.3838L33.2792 34.1158C33.1899 34.2625 33.0719 34.3825 32.9252 34.4758C32.7786 34.5691 32.6119 34.6158 32.4252 34.6158C32.0439 34.6158 31.7572 34.4491 31.5652 34.1158C31.3732 33.7825 31.3719 33.4491 31.5612 33.1158Z" fill="#FF774D"/>
</svg>
