<svg width="57" height="56" viewBox="0 0 57 56" fill="none" xmlns="http://www.w3.org/2000/svg">
<path d="M28.3372 48.6314C28.1257 48.6314 27.9025 48.6119 27.6676 48.5731C27.4327 48.5342 27.2149 48.4758 27.0142 48.3981C22.4207 46.6481 18.7706 43.6801 16.0639 39.4941C13.3572 35.3081 12.0039 30.7767 12.0039 25.9001V15.9064C12.0039 15.1068 12.2318 14.3866 12.6876 13.7457C13.1418 13.1048 13.7306 12.6405 14.4539 12.3527L27.0189 7.68605C27.4731 7.52117 27.9126 7.43872 28.3372 7.43872C28.7619 7.43872 29.2021 7.52117 29.6579 7.68605L42.2206 12.3527C42.9424 12.6421 43.5311 13.1064 43.9869 13.7457C44.4427 14.3866 44.6706 15.1068 44.6706 15.9064V25.9001C44.6706 30.7767 43.3172 35.3081 40.6106 39.4941C37.9039 43.6801 34.2546 46.6481 29.6626 48.3981C29.4588 48.4758 29.2402 48.5342 29.0069 48.5731C28.7736 48.6119 28.5504 48.6314 28.3372 48.6314ZM28.3372 46.4334C32.3817 45.1501 35.7261 42.5834 38.3706 38.7334C41.015 34.8834 42.3372 30.6056 42.3372 25.9001V15.8621C42.3372 15.5634 42.2548 15.2943 42.0899 15.0547C41.9266 14.8152 41.6948 14.6363 41.3946 14.5181L28.8319 9.85139C28.6826 9.78917 28.5177 9.75805 28.3372 9.75805C28.1568 9.75805 27.9919 9.78917 27.8426 9.85139L15.2799 14.5181C14.9797 14.6363 14.7479 14.8152 14.5846 15.0547C14.4197 15.2943 14.3372 15.5634 14.3372 15.8621V25.9001C14.3372 30.6056 15.6595 34.8834 18.3039 38.7334C20.9484 42.5834 24.2928 45.1501 28.3372 46.4334Z" fill="#FF774D"/>
</svg>
