<svg width="57" height="56" viewBox="0 0 57 56" fill="none" xmlns="http://www.w3.org/2000/svg">
<path d="M28.333 6.12354C16.2518 6.12354 6.45801 15.9173 6.45801 27.9985C6.45801 31.7017 7.37988 35.1938 9.00645 38.2532L6.5502 46.8892C6.43605 47.2907 6.43121 47.7154 6.53619 48.1195C6.64117 48.5235 6.85216 48.8922 7.14734 49.1873C7.44252 49.4825 7.81118 49.6935 8.21521 49.7985C8.61924 49.9035 9.04397 49.8986 9.44551 49.7845L18.083 47.3282C21.2391 49.0047 24.7593 49.8788 28.333 49.8735C40.4143 49.8735 50.208 40.0798 50.208 27.9985C50.208 15.9173 40.4143 6.12354 28.333 6.12354ZM28.333 48.311C25.0158 48.3123 21.7488 47.5012 18.8174 45.9485L18.2627 45.6532L9.01895 48.2829C8.94595 48.3048 8.87014 48.3158 8.79395 48.3157C8.67396 48.3133 8.55612 48.2834 8.44948 48.2284C8.34283 48.1733 8.25021 48.0946 8.17871 47.9982C8.10721 47.9018 8.05873 47.7903 8.037 47.6723C8.01526 47.5543 8.02085 47.4328 8.05332 47.3173L10.6814 38.0751L10.3861 37.5204C8.83163 34.5879 8.0194 31.3191 8.02051 28.0001C8.02051 16.8001 17.133 7.6876 28.333 7.6876C39.533 7.6876 48.6455 16.8001 48.6455 28.0001C48.6455 39.2001 39.533 48.311 28.333 48.311ZM36.9268 23.3126H19.7393C19.5321 23.3126 19.3333 23.2303 19.1868 23.0838C19.0403 22.9373 18.958 22.7386 18.958 22.5313C18.958 22.3242 19.0403 22.1254 19.1868 21.9789C19.3333 21.8324 19.5321 21.7501 19.7393 21.7501H36.9268C37.134 21.7501 37.3327 21.8324 37.4792 21.9789C37.6257 22.1254 37.708 22.3242 37.708 22.5313C37.708 22.7386 37.6257 22.9373 37.4792 23.0838C37.3327 23.2303 37.134 23.3126 36.9268 23.3126ZM30.6768 32.6876H19.7393C19.5321 32.6876 19.3333 32.6053 19.1868 32.4588C19.0403 32.3123 18.958 32.1135 18.958 31.9063C18.958 31.6991 19.0403 31.5004 19.1868 31.3539C19.3333 31.2074 19.5321 31.1251 19.7393 31.1251H30.6768C30.884 31.1251 31.0827 31.2074 31.2292 31.3539C31.3757 31.5004 31.458 31.6991 31.458 31.9063C31.458 32.1135 31.3757 32.3123 31.2292 32.4588C31.0827 32.6053 30.884 32.6876 30.6768 32.6876Z" fill="#FF774D"/>
</svg>
