<svg width="56" height="56" viewBox="0 0 56 56" fill="none" xmlns="http://www.w3.org/2000/svg">
<path fill-rule="evenodd" clip-rule="evenodd" d="M46.667 38.6666V12C46.667 10.5855 46.1051 9.22892 45.1049 8.22872C44.1047 7.22853 42.7481 6.66663 41.3337 6.66663H20.0003C18.5858 6.66663 17.2293 7.22853 16.2291 8.22872C15.2289 9.22892 14.667 10.5855 14.667 12V38.6666C14.667 40.0811 15.2289 41.4377 16.2291 42.4379C17.2293 43.4381 18.5858 44 20.0003 44H41.3337C42.7481 44 44.1047 43.4381 45.1049 42.4379C46.1051 41.4377 46.667 40.0811 46.667 38.6666Z" stroke="#FF774D" stroke-width="1.52381" stroke-linecap="round" stroke-linejoin="round"/>
<path d="M14.147 13.1599L8.80297 15.1066C7.47423 15.5906 6.39209 16.5824 5.79451 17.8641C5.19693 19.1458 5.13283 20.6123 5.61631 21.9412L14.7363 46.9999C14.9759 47.6582 15.3429 48.2627 15.8162 48.7791C16.2895 49.2955 16.8599 49.7137 17.4949 50.0096C18.1298 50.3055 18.8168 50.4734 19.5166 50.5038C20.2165 50.5342 20.9155 50.4264 21.5736 50.1866L36.4216 44.3252M22.667 19.9999H36.0003M22.667 25.3332H38.667M22.667 30.6666H30.667" stroke="#FF774D" stroke-width="1.52381" stroke-linecap="round" stroke-linejoin="round"/>
</svg>
