<svg width="57" height="56" viewBox="0 0 57 56" fill="none" xmlns="http://www.w3.org/2000/svg">
<path d="M26.0397 28.9799L10.2897 42.9799C10.0286 43.212 9.68607 43.3308 9.33737 43.3103C8.98867 43.2898 8.6624 43.1316 8.43033 42.8705C8.19827 42.6095 8.07942 42.2669 8.09993 41.9182C8.12044 41.5695 8.27864 41.2432 8.53971 41.0112L23.196 27.9999L8.53971 14.9821C8.27864 14.75 8.12044 14.4238 8.09993 14.0751C8.07942 13.7264 8.19827 13.3838 8.43033 13.1227C8.6624 12.8616 8.98867 12.7035 9.33737 12.6829C9.68607 12.6624 10.0286 12.7813 10.2897 13.0133L26.0397 27.0133C26.1794 27.1365 26.2912 27.288 26.3678 27.4577C26.4444 27.6274 26.4841 27.8115 26.4841 27.9977C26.4841 28.1839 26.4444 28.368 26.3678 28.5377C26.2912 28.7074 26.1794 28.8589 26.0397 28.9821V28.9799ZM47.9147 40.6874H26.9147C26.5666 40.6874 26.2328 40.8257 25.9866 41.0718C25.7405 41.318 25.6022 41.6518 25.6022 41.9999C25.6022 42.348 25.7405 42.6818 25.9866 42.928C26.2328 43.1741 26.5666 43.3124 26.9147 43.3124H47.9147C48.2628 43.3124 48.5966 43.1741 48.8428 42.928C49.0889 42.6818 49.2272 42.348 49.2272 41.9999C49.2272 41.6518 49.0889 41.318 48.8428 41.0718C48.5966 40.8257 48.2628 40.6874 47.9147 40.6874Z" fill="#FF774D"/>
</svg>
