<svg width="56" height="56" viewBox="0 0 56 56" fill="none" xmlns="http://www.w3.org/2000/svg">
<path d="M28.0015 9C24.2436 9 20.5702 10.1143 17.4456 12.2021C14.3211 14.2898 11.8858 17.2572 10.4478 20.729C9.0097 24.2008 8.63343 28.0211 9.36655 31.7067C10.0997 35.3923 11.9092 38.7778 14.5664 41.435C17.2236 44.0922 20.6091 45.9018 24.2948 46.6349C27.9804 47.368 31.8007 46.9918 35.2725 45.5537C38.7442 44.1156 41.7116 41.6804 43.7994 38.5558C45.8871 35.4313 47.0015 31.7578 47.0015 28C46.9959 22.9626 44.9924 18.1331 41.4304 14.5711C37.8684 11.0091 33.0389 9.00553 28.0015 9ZM28.0015 45.2159C26.7988 44.0588 23.6315 40.578 22.0602 34.84H33.9428C32.3715 40.578 29.2042 44.0588 28.0015 45.2159ZM21.6973 33.32C20.9828 29.8093 20.9828 26.1907 21.6973 22.68H34.3057C35.0202 26.1907 35.0202 29.8093 34.3057 33.32H21.6973ZM28.0015 10.7841C29.2042 11.9412 32.3715 15.422 33.9428 21.16H22.0602C23.6315 15.422 26.7988 11.9412 28.0015 10.7841ZM35.8694 22.68H44.6531C45.7575 26.1407 45.7575 29.8593 44.6531 33.32H35.8694C36.5253 29.8037 36.5253 26.1963 35.8694 22.68ZM44.0869 21.16H35.5369C34.5778 17.2502 32.6734 13.6357 29.9908 10.634C33.0596 10.9905 35.9796 12.1519 38.4551 14.0004C40.9305 15.8489 42.8734 18.3188 44.0869 21.16ZM26.0141 10.634C23.3315 13.6357 21.427 17.2502 20.468 21.16H11.918C13.1314 18.3188 15.0743 15.8489 17.5498 14.0004C20.0252 12.1519 22.9453 10.9905 26.0141 10.634ZM11.3499 22.68H20.1336C19.4777 26.1963 19.4777 29.8037 20.1336 33.32H11.3499C10.2455 29.8593 10.2455 26.1407 11.3499 22.68ZM11.9199 34.84H20.4699C21.4289 38.7498 23.3334 42.3643 26.016 45.366C22.9465 45.0101 20.0256 43.849 17.5495 42.0005C15.0733 40.152 13.1299 37.6817 11.9161 34.84H11.9199ZM29.9927 45.366C32.6739 42.3639 34.577 38.7494 35.535 34.84H44.085C42.8715 37.6812 40.9286 40.1511 38.4532 41.9996C35.9777 43.8481 33.0577 45.0094 29.9889 45.366H29.9927Z" fill="#FF774D"/>
</svg>
