<svg width="88" height="88" viewBox="0 0 88 88" fill="none" xmlns="http://www.w3.org/2000/svg">
<rect width="88" height="88" rx="8" fill="#E7EDF7"/>
<path d="M55.5 47C55.5 47.1326 55.4473 47.2598 55.3536 47.3536C55.2598 47.4473 55.1326 47.5 55 47.5H51.5V50.5H54C54.1326 50.5 54.2598 50.5527 54.3536 50.6464C54.4473 50.7402 54.5 50.8674 54.5 51C54.5 51.1326 54.4473 51.2598 54.3536 51.3536C54.2598 51.4473 54.1326 51.5 54 51.5H51.5V54C51.5 54.1326 51.4473 54.2598 51.3536 54.3536C51.2598 54.4473 51.1326 54.5 51 54.5C50.8674 54.5 50.7402 54.4473 50.6464 54.3536C50.5527 54.2598 50.5 54.1326 50.5 54V47C50.5 46.8674 50.5527 46.7402 50.6464 46.6464C50.7402 46.5527 50.8674 46.5 51 46.5H55C55.1326 46.5 55.2598 46.5527 55.3536 46.6464C55.4473 46.7402 55.5 46.8674 55.5 47ZM39 49.5C39 50.2956 38.6839 51.0587 38.1213 51.6213C37.5587 52.1839 36.7956 52.5 36 52.5H34.5V54C34.5 54.1326 34.4473 54.2598 34.3536 54.3536C34.2598 54.4473 34.1326 54.5 34 54.5C33.8674 54.5 33.7402 54.4473 33.6464 54.3536C33.5527 54.2598 33.5 54.1326 33.5 54V47C33.5 46.8674 33.5527 46.7402 33.6464 46.6464C33.7402 46.5527 33.8674 46.5 34 46.5H36C36.7956 46.5 37.5587 46.8161 38.1213 47.3787C38.6839 47.9413 39 48.7044 39 49.5ZM38 49.5C38 48.9696 37.7893 48.4609 37.4142 48.0858C37.0391 47.7107 36.5304 47.5 36 47.5H34.5V51.5H36C36.5304 51.5 37.0391 51.2893 37.4142 50.9142C37.7893 50.5391 38 50.0304 38 49.5ZM48 50.5C48 51.5609 47.5786 52.5783 46.8284 53.3284C46.0783 54.0786 45.0609 54.5 44 54.5H42C41.8674 54.5 41.7402 54.4473 41.6464 54.3536C41.5527 54.2598 41.5 54.1326 41.5 54V47C41.5 46.8674 41.5527 46.7402 41.6464 46.6464C41.7402 46.5527 41.8674 46.5 42 46.5H44C45.0609 46.5 46.0783 46.9214 46.8284 47.6716C47.5786 48.4217 48 49.4391 48 50.5ZM47 50.5C47 49.7044 46.6839 48.9413 46.1213 48.3787C45.5587 47.8161 44.7956 47.5 44 47.5H42.5V53.5H44C44.7956 53.5 45.5587 53.1839 46.1213 52.6213C46.6839 52.0587 47 51.2956 47 50.5ZM33.5 42V33C33.5 32.6022 33.658 32.2206 33.9393 31.9393C34.2206 31.658 34.6022 31.5 35 31.5H47C47.0657 31.4999 47.1307 31.5128 47.1914 31.5379C47.2521 31.563 47.3073 31.5998 47.3538 31.6463L54.3538 38.6462C54.4002 38.6927 54.437 38.7479 54.4621 38.8086C54.4872 38.8693 54.5001 38.9343 54.5 39V42C54.5 42.1326 54.4473 42.2598 54.3536 42.3536C54.2598 42.4473 54.1326 42.5 54 42.5C53.8674 42.5 53.7402 42.4473 53.6464 42.3536C53.5527 42.2598 53.5 42.1326 53.5 42V39.5H47C46.8674 39.5 46.7402 39.4473 46.6464 39.3536C46.5527 39.2598 46.5 39.1326 46.5 39V32.5H35C34.8674 32.5 34.7402 32.5527 34.6464 32.6464C34.5527 32.7402 34.5 32.8674 34.5 33V42C34.5 42.1326 34.4473 42.2598 34.3536 42.3536C34.2598 42.4473 34.1326 42.5 34 42.5C33.8674 42.5 33.7402 42.4473 33.6464 42.3536C33.5527 42.2598 33.5 42.1326 33.5 42ZM47.5 38.5H52.7925L47.5 33.2063V38.5Z" fill="#5B6A78"/>
</svg>
