<svg width="56" height="56" viewBox="0 0 56 56" fill="none" xmlns="http://www.w3.org/2000/svg">
<g clip-path="url(#clip0_499_37776)">
<path d="M11.1004 28.2622C11.1004 31.6097 12.0624 34.6497 13.9865 37.3822C15.9106 40.1146 18.4578 42.083 21.6279 43.2874C21.9511 43.4093 22.1877 43.603 22.3376 43.8686C22.4875 44.1341 22.4903 44.3861 22.3459 44.6245C22.1767 44.8981 21.9346 45.0783 21.6197 45.165C21.3047 45.2517 20.9946 45.2382 20.6893 45.1244C17.1478 43.7642 14.3139 41.5459 12.1876 38.4693C10.0613 35.3928 8.99748 31.9775 8.99611 28.2236C8.99611 27.1602 9.08963 26.1076 9.27668 25.0658C9.46372 24.0227 9.75254 22.9998 10.1431 21.9974L6.537 24.0457C6.29356 24.1947 6.03568 24.232 5.76337 24.1575C5.49105 24.0829 5.28337 23.9258 5.14034 23.686C4.9973 23.4462 4.96361 23.1902 5.03925 22.9179C5.11489 22.6456 5.27443 22.439 5.51787 22.2981L11.2427 19.0549C11.6443 18.8368 12.0693 18.784 12.5177 18.8964C12.966 19.0102 13.3016 19.2649 13.5244 19.6605L16.8149 25.2487C16.958 25.4885 16.9923 25.7445 16.9181 26.0168C16.8424 26.2891 16.6829 26.4957 16.4395 26.6366C16.196 26.7775 15.9361 26.8107 15.6596 26.7362C15.3832 26.6616 15.1735 26.5045 15.0304 26.2647L12.4455 21.8998C11.9875 22.901 11.6485 23.9373 11.4284 25.0089C11.2083 26.0832 11.0983 27.167 11.0983 28.2602M27.524 12.0341C25.6646 12.0341 23.869 12.3423 22.1375 12.9587C20.4059 13.5751 18.8147 14.4557 17.3637 15.6004C17.112 15.7928 16.8349 15.8795 16.5323 15.8605C16.2297 15.8415 16.0069 15.7122 15.8639 15.4724C15.6865 15.1906 15.6445 14.8939 15.738 14.5823C15.8316 14.2707 16.0069 14.0147 16.2641 13.8142C17.8911 12.5692 19.655 11.6223 21.5557 10.9734C23.4564 10.3245 25.4328 10 27.4848 10C30.175 10 32.7194 10.5324 35.118 11.5972C37.5193 12.662 39.6071 14.1942 41.3813 16.1938V11.9549C41.3813 11.6649 41.4803 11.4231 41.6783 11.2294C41.8764 11.0357 42.1212 10.9388 42.4128 10.9388C42.7043 10.9388 42.9498 11.0357 43.1493 11.2294C43.3487 11.4231 43.447 11.6649 43.4443 11.9549V18.4412C43.4443 18.9127 43.2861 19.3042 42.9698 19.6158C42.6535 19.9274 42.2567 20.0831 41.7794 20.0831H35.1922C34.8993 20.0831 34.6545 19.9863 34.4578 19.7926C34.2611 19.5988 34.1621 19.357 34.1607 19.0671C34.1593 18.7772 34.2584 18.5354 34.4578 18.3417C34.6572 18.1479 34.902 18.0511 35.1922 18.0511H40.2982C38.744 16.1206 36.8495 14.6352 34.6146 13.5947C32.3797 12.5543 30.0161 12.0328 27.524 12.03M39.8464 38.9672C41.5243 37.0869 42.6865 34.9627 43.3329 32.5946C43.9807 30.2266 44.0666 27.8253 43.5908 25.3909C43.5385 25.0766 43.5976 24.7901 43.7682 24.5314C43.9387 24.2726 44.1711 24.1439 44.4655 24.1453C44.8107 24.1453 45.0954 24.274 45.3196 24.5314C45.5437 24.7887 45.682 25.0888 45.7342 25.4316C46.184 27.9974 46.0629 30.5327 45.3711 33.0376C44.6793 35.5425 43.478 37.8055 41.7671 39.8268C40.3986 41.4578 38.7949 42.8085 36.9561 43.8787C35.1159 44.9489 33.1395 45.6852 31.027 46.0876L34.596 48.1115C34.8408 48.2524 34.999 48.459 35.0705 48.7313C35.142 49.0023 35.1063 49.2583 34.9632 49.4994C34.8202 49.7392 34.6125 49.8943 34.3402 49.9648C34.0679 50.0352 33.81 50 33.5666 49.8591L27.8685 46.5753C27.4669 46.3572 27.2084 46.0273 27.0928 45.5857C26.9787 45.144 27.0323 44.7254 27.2538 44.3298L30.5484 38.7681C30.6901 38.5283 30.897 38.3732 31.1694 38.3027C31.4431 38.2323 31.7009 38.2675 31.943 38.4084C32.1864 38.5493 32.346 38.7559 32.4216 39.0282C32.4972 39.3005 32.4636 39.5565 32.3205 39.7963L29.618 44.3237C31.6053 44.0528 33.4799 43.4649 35.2417 42.5599C37.0036 41.6549 38.5384 40.4574 39.8464 38.9672Z" fill="#FF774D"/>
</g>
<defs>
<clipPath id="clip0_499_37776">
<rect width="56" height="56" fill="white"/>
</clipPath>
</defs>
</svg>
