<svg width="580" height="338" viewBox="0 0 580 338" fill="none" xmlns="http://www.w3.org/2000/svg">
<g clip-path="url(#clip0_374_19430)">
<path fill-rule="evenodd" clip-rule="evenodd" d="M196.611 128V134.788H189.44V141.576H182.268V148.558H175V171.734C175 171.734 187.695 183.37 189.537 185.115V209.746H220.742V185.213C222.583 183.565 235.278 171.735 235.278 171.735V148.559H228.01V141.674H220.742V134.789H213.473V128H196.611Z" fill="white"/>
<path fill-rule="evenodd" clip-rule="evenodd" d="M200.875 204.315H194.77V173.77H200.875V204.315Z" fill="#9B9B9B"/>
<path fill-rule="evenodd" clip-rule="evenodd" d="M208.143 204.315H202.038V167.467H208.143V204.315Z" fill="#9B9B9B"/>
<path fill-rule="evenodd" clip-rule="evenodd" d="M209.306 204.315H215.411V173.77H209.306V204.315Z" fill="#9B9B9B"/>
<path fill-rule="evenodd" clip-rule="evenodd" d="M186.338 175.03L180.233 169.6V153.891H186.338V175.03Z" fill="#211F20"/>
<path fill-rule="evenodd" clip-rule="evenodd" d="M193.607 181.819L187.502 175.806V147.006H193.607V181.819Z" fill="#211F20"/>
<path fill-rule="evenodd" clip-rule="evenodd" d="M200.875 172.897H194.77V140.219H200.875V172.897Z" fill="#211F20"/>
<path fill-rule="evenodd" clip-rule="evenodd" d="M208.143 166.205H202.038V133.333H208.143V166.205Z" fill="#211F20"/>
<path fill-rule="evenodd" clip-rule="evenodd" d="M223.746 175.03L229.851 169.6V153.891H223.746V175.03Z" fill="#211F20"/>
<path fill-rule="evenodd" clip-rule="evenodd" d="M216.478 181.819L222.68 175.806V147.006H216.478V181.819Z" fill="#211F20"/>
<path fill-rule="evenodd" clip-rule="evenodd" d="M209.306 172.897H215.411V140.219H209.306V172.897Z" fill="#211F20"/>
<path fill-rule="evenodd" clip-rule="evenodd" d="M273.461 203.247C272.686 204.023 271.232 204.411 269.1 204.411H262.22C260.185 204.411 258.731 204.121 257.956 203.344C257.084 202.569 256.696 201.405 256.696 199.95V193.259C256.696 191.708 257.083 190.641 257.956 189.865C258.731 189.09 260.185 188.701 262.22 188.701H269.1C271.232 188.701 272.686 189.089 273.461 189.865C274.236 190.641 274.624 191.804 274.624 193.259V199.95C274.624 201.405 274.237 202.471 273.461 203.247ZM269.875 194.812C269.875 193.94 269.682 193.357 269.391 192.873C269.004 192.485 268.228 192.291 266.969 192.291H264.352C263.189 192.291 262.414 192.582 262.027 192.969C261.639 193.357 261.446 194.037 261.446 194.812V198.4C261.446 199.175 261.639 199.758 262.027 200.242C262.414 200.63 263.19 200.921 264.352 200.921H266.969C268.229 200.921 269.004 200.63 269.294 200.242C269.682 199.854 269.875 199.272 269.875 198.4V194.812Z" fill="#FEFEFE"/>
<path fill-rule="evenodd" clip-rule="evenodd" d="M294.104 203.247C293.329 204.023 291.875 204.411 289.743 204.411H282.862C280.827 204.411 279.373 204.121 278.599 203.344C277.727 202.569 277.338 201.405 277.338 199.95V193.259C277.338 191.708 277.726 190.641 278.599 189.865C279.373 189.09 280.827 188.701 282.862 188.701H289.743C291.875 188.701 293.329 189.089 294.104 189.865C294.879 190.641 295.17 191.804 295.17 193.259V194.811H290.518C290.518 193.939 290.324 193.356 289.937 192.872C289.646 192.484 288.87 192.29 287.611 192.29H284.995C283.832 192.29 283.057 192.581 282.67 192.968C282.282 193.356 282.088 194.036 282.088 194.811V198.399C282.088 199.174 282.282 199.757 282.67 200.241C283.057 200.629 283.833 200.92 284.995 200.92H287.611C288.871 200.92 289.646 200.629 289.937 200.241C290.324 199.853 290.518 199.271 290.518 198.399H295.17V199.95C295.17 201.405 294.88 202.471 294.104 203.247Z" fill="#FEFEFE"/>
<path fill-rule="evenodd" clip-rule="evenodd" d="M302.631 204.411H297.98V199.951V193.26V188.702H302.631V194.715H311.063V188.702H315.811V193.26V199.951V204.411H311.063V198.303H302.631V204.411Z" fill="#FEFEFE"/>
<path fill-rule="evenodd" clip-rule="evenodd" d="M324.63 198.303H323.273C323.273 199.175 323.467 199.758 323.854 200.242C324.242 200.63 325.017 200.921 326.18 200.921H336.453V204.411H324.145C322.013 204.411 320.559 204.121 319.784 203.344C319.009 202.568 318.621 201.405 318.621 199.95V193.259C318.621 191.708 319.008 190.641 319.784 189.865C320.56 189.089 322.013 188.701 324.145 188.701H336.453V192.289H326.18C325.016 192.289 324.242 192.58 323.854 192.967C323.467 193.355 323.273 194.035 323.273 194.713H336.453V198.301H324.629L324.63 198.303Z" fill="#FEFEFE"/>
<path fill-rule="evenodd" clip-rule="evenodd" d="M372.601 192.29H366.205V188.702H371.632H378.513H384.037V192.29H377.349V204.411H372.601V192.29Z" fill="#FEFEFE"/>
<path fill-rule="evenodd" clip-rule="evenodd" d="M362.038 191.515H354.769V188.702H350.117V191.515H342.655C342.655 191.515 338.488 191.709 338.488 196.46C338.488 201.212 342.752 201.309 342.752 201.309H350.117V204.412H354.769V201.309H361.941C361.941 201.309 366.301 201.309 366.301 196.46C366.301 191.612 362.038 191.515 362.038 191.515ZM359.518 198.206H354.769V194.909H359.518C359.518 194.909 361.166 194.618 361.166 196.654C361.166 198.303 359.518 198.206 359.518 198.206ZM343.722 196.654C343.722 194.618 345.369 194.909 345.369 194.909H350.118V198.206H345.369C345.369 198.206 343.722 198.303 343.722 196.654Z" fill="#FEFEFE"/>
<path fill-rule="evenodd" clip-rule="evenodd" d="M252.819 189.866C252.045 189.091 250.591 188.702 248.556 188.702H236.151V204.411H240.803V199.078H248.556C250.591 199.078 252.045 198.69 252.819 197.914C253.594 197.138 253.983 195.975 253.983 194.52V193.259C253.983 191.804 253.595 190.641 252.819 189.865V189.866ZM247.78 195.49H240.802V192.29H247.78C248.555 192.29 249.331 193.065 249.331 193.939C249.331 194.714 248.556 195.49 247.78 195.49Z" fill="#FEFEFE"/>
<path fill-rule="evenodd" clip-rule="evenodd" d="M404 199.951V198.69C404 197.236 403.613 196.073 402.837 195.296C402.061 194.52 400.608 194.132 398.476 194.132H390.82V188.702H386.071V204.411H398.476C400.608 204.411 402.062 204.024 402.837 203.247C403.612 202.471 404 201.405 404 199.95V199.951ZM399.348 199.272C399.348 200.144 398.573 200.92 397.7 200.92H390.819V197.72H397.7C398.572 197.72 399.348 198.399 399.348 199.272Z" fill="#FEFEFE"/>
</g>
<defs>
<clipPath id="clip0_374_19430">
<rect width="229" height="81.7448" fill="white" transform="translate(175 128)"/>
</clipPath>
</defs>
</svg>
