<svg width="56" height="56" viewBox="0 0 56 56" fill="none" xmlns="http://www.w3.org/2000/svg">
<path d="M28.0005 34.9739C27.7022 34.9739 27.4161 35.0924 27.2052 35.3034C26.9942 35.5144 26.8757 35.8006 26.8757 36.099C26.8757 36.3974 26.9942 36.6836 27.2052 36.8946C27.4161 37.1056 27.7022 37.2241 28.0005 37.2241C28.2988 37.2241 28.5849 37.1056 28.7959 36.8946C29.0068 36.6836 29.1253 36.3974 29.1253 36.099C29.1253 35.8006 29.0068 35.5144 28.7959 35.3034C28.5849 35.0924 28.2988 34.9739 28.0005 34.9739ZM28.0005 31.5986C28.2392 31.5986 28.4681 31.5037 28.6368 31.3349C28.8056 31.1661 28.9004 30.9372 28.9004 30.6985V23.4977C28.9004 23.259 28.8056 23.0301 28.6368 22.8613C28.4681 22.6925 28.2392 22.5976 28.0005 22.5976C27.7619 22.5976 27.533 22.6925 27.3642 22.8613C27.1955 23.0301 27.1007 23.259 27.1007 23.4977V30.6985C27.1007 30.9372 27.1955 31.1661 27.3642 31.3349C27.533 31.5037 27.7619 31.5986 28.0005 31.5986ZM47.2807 37.9838L32.6149 12.6588C32.1461 11.8502 31.473 11.1789 30.6632 10.7123C29.8533 10.2456 28.9351 10 28.0005 10C27.0659 10 26.1477 10.2456 25.3379 10.7123C24.528 11.1789 23.855 11.8502 23.3861 12.6588L8.71855 37.9874C8.24877 38.7987 8.00094 39.7195 8 40.6571C7.99906 41.5947 8.24505 42.516 8.7132 43.3283C9.18135 44.1406 9.85515 44.8152 10.6668 45.2842C11.4784 45.7532 12.3992 46.0001 13.3366 46H42.6609C43.5987 46.0002 44.52 45.7533 45.3321 45.2841C46.1441 44.8149 46.8183 44.14 47.2866 43.3273C47.755 42.5146 48.001 41.5928 48 40.6547C47.999 39.7167 47.7509 38.7954 47.2807 37.9838ZM42.6609 44.1998H13.3366C12.7154 44.1997 12.1052 44.036 11.5674 43.7251C11.0296 43.4141 10.5832 42.967 10.2731 42.4287C9.9629 41.8903 9.79999 41.2798 9.8007 40.6584C9.8014 40.0371 9.96571 39.4269 10.2771 38.8893L24.941 13.5607C25.2483 13.0218 25.6935 12.5744 26.2309 12.2647C26.7683 11.9549 27.3785 11.794 27.9987 11.7984C28.6194 11.7938 29.2301 11.9549 29.7679 12.265C30.3057 12.5751 30.7511 13.023 31.0582 13.5625L45.7222 38.8875C46.0335 39.4254 46.1977 40.0358 46.1983 40.6573C46.1988 41.2789 46.0358 41.8896 45.7255 42.4281C45.4152 42.9666 44.9686 43.4138 44.4306 43.7248C43.8926 44.0359 43.2822 44.1997 42.6609 44.1998Z" fill="#FF774D"/>
</svg>
