<svg width="56" height="56" viewBox="0 0 56 56" fill="none" xmlns="http://www.w3.org/2000/svg">
<path d="M35.5002 33.3125C34.6653 33.3121 33.8397 33.4883 33.0776 33.8295C32.3155 34.1706 31.6342 34.6691 31.0784 35.2922L23.4377 30.3813C23.7674 29.6307 23.9376 28.8198 23.9376 28C23.9376 27.1802 23.7674 26.3694 23.4377 25.6188L31.0784 20.7078C32.0752 21.8197 33.4544 22.5152 34.9411 22.6556C36.4278 22.796 37.9128 22.3711 39.1001 21.4654C40.2875 20.5598 41.09 19.2401 41.3477 17.7692C41.6055 16.2983 41.2995 14.7843 40.4908 13.5289C39.6821 12.2735 38.43 11.369 36.9842 10.9955C35.5383 10.6221 34.0048 10.8072 32.6893 11.5139C31.3739 12.2207 30.373 13.3971 29.8862 14.8089C29.3994 16.2206 29.4624 17.7639 30.0627 19.1313L22.4221 24.0422C21.6205 23.1458 20.5656 22.5139 19.397 22.2301C18.2284 21.9464 17.0012 22.0242 15.8778 22.4532C14.7544 22.8823 13.7877 23.6423 13.1057 24.6328C12.4237 25.6233 12.0586 26.7975 12.0586 28C12.0586 29.2026 12.4237 30.3768 13.1057 31.3672C13.7877 32.3577 14.7544 33.1178 15.8778 33.5468C17.0012 33.9758 18.2284 34.0536 19.397 33.7699C20.5656 33.4861 21.6205 32.8542 22.4221 31.9578L30.0627 36.8688C29.5498 38.0403 29.4289 39.3462 29.718 40.5921C30.007 41.8379 30.6907 42.9571 31.6671 43.7831C32.6435 44.6091 33.8606 45.0977 35.1371 45.1763C36.4136 45.2549 37.6814 44.9191 38.7517 44.2191C39.8221 43.5191 40.6378 42.4922 41.0774 41.2912C41.5171 40.0902 41.5572 38.7793 41.1918 37.5537C40.8265 36.3281 40.0751 35.2532 39.0496 34.489C38.024 33.7248 36.7792 33.3122 35.5002 33.3125ZM35.5002 12.6875C36.3037 12.6875 37.0892 12.9258 37.7572 13.3722C38.4253 13.8186 38.946 14.453 39.2535 15.1954C39.561 15.9377 39.6414 16.7545 39.4847 17.5426C39.3279 18.3306 38.941 19.0545 38.3729 19.6226C37.8047 20.1908 37.0808 20.5777 36.2928 20.7345C35.5047 20.8912 34.6879 20.8108 33.9456 20.5033C33.2033 20.1958 32.5688 19.6751 32.1224 19.007C31.676 18.3389 31.4377 17.5535 31.4377 16.75C31.4377 15.6726 31.8657 14.6393 32.6276 13.8774C33.3895 13.1155 34.4228 12.6875 35.5002 12.6875ZM18.0002 32.0625C17.1967 32.0625 16.4113 31.8242 15.7432 31.3779C15.0752 30.9315 14.5545 30.297 14.247 29.5547C13.9395 28.8123 13.859 27.9955 14.0158 27.2075C14.1725 26.4194 14.5595 25.6955 15.1276 25.1274C15.6958 24.5592 16.4196 24.1723 17.2077 24.0156C17.9957 23.8588 18.8126 23.9393 19.5549 24.2467C20.2972 24.5542 20.9317 25.0749 21.3781 25.743C21.8245 26.4111 22.0627 27.1965 22.0627 28C22.0627 29.0775 21.6347 30.1108 20.8729 30.8726C20.111 31.6345 19.0777 32.0625 18.0002 32.0625ZM35.5002 43.3125C34.6967 43.3125 33.9113 43.0742 33.2432 42.6279C32.5752 42.1815 32.0545 41.547 31.747 40.8047C31.4395 40.0623 31.359 39.2455 31.5158 38.4575C31.6725 37.6694 32.0595 36.9455 32.6276 36.3774C33.1958 35.8092 33.9196 35.4223 34.7077 35.2656C35.4957 35.1088 36.3126 35.1893 37.0549 35.4967C37.7972 35.8042 38.4317 36.3249 38.8781 36.993C39.3245 37.6611 39.5627 38.4465 39.5627 39.25C39.5627 39.7835 39.4577 40.3118 39.2535 40.8047C39.0493 41.2975 38.7501 41.7454 38.3729 42.1226C37.9956 42.4999 37.5478 42.7991 37.0549 43.0033C36.562 43.2074 36.0337 43.3125 35.5002 43.3125Z" fill="#FF774D"/>
</svg>
