<svg width="56" height="56" viewBox="0 0 56 56" fill="none" xmlns="http://www.w3.org/2000/svg">
<g clip-path="url(#clip0_405_2750)">
<path d="M8.16668 33.8334C7.83535 33.8334 7.55846 33.7214 7.33602 33.4974C7.11357 33.2734 7.00157 32.9957 7.00002 32.6644C6.99846 32.3331 7.11046 32.0562 7.33602 31.8337C7.56157 31.6113 7.83846 31.5001 8.16668 31.5001H15.302C15.6318 31.5001 15.9087 31.6121 16.1327 31.8361C16.3567 32.0601 16.4687 32.3377 16.4687 32.6691C16.4687 33.0004 16.3567 33.2773 16.1327 33.4997C15.9087 33.7222 15.6318 33.8334 15.302 33.8334H8.16668ZM23.198 33.8334C22.8682 33.8334 22.5913 33.7214 22.3673 33.4974C22.1433 33.2734 22.0313 32.9957 22.0313 32.6644C22.0313 32.3331 22.1433 32.0562 22.3673 31.8337C22.5913 31.6113 22.8682 31.5001 23.198 31.5001H30.4687C30.7985 31.5001 31.0753 31.6121 31.2993 31.8361C31.5233 32.0601 31.6353 32.3377 31.6353 32.6691C31.6353 33.0004 31.5233 33.2773 31.2993 33.4997C31.0753 33.7222 30.7985 33.8334 30.4687 33.8334H23.198ZM38.3647 33.8334C38.0349 33.8334 37.758 33.7214 37.534 33.4974C37.31 33.2734 37.198 32.9957 37.198 32.6644C37.198 32.3331 37.31 32.0562 37.534 31.8337C37.758 31.6113 38.0349 31.5001 38.3647 31.5001H45.5C45.8313 31.5001 46.1082 31.6121 46.3307 31.8361C46.5531 32.0601 46.6651 32.3377 46.6667 32.6691C46.6682 33.0004 46.5562 33.2773 46.3307 33.4997C46.1051 33.7222 45.8282 33.8334 45.5 33.8334H38.3647ZM8.16668 24.5001C7.83535 24.5001 7.55846 24.3881 7.33602 24.1641C7.11357 23.9401 7.00157 23.6624 7.00002 23.3311C6.99846 22.9997 7.11046 22.7229 7.33602 22.5004C7.56157 22.278 7.83846 22.1667 8.16668 22.1667H45.5C45.8313 22.1667 46.1082 22.2787 46.3307 22.5027C46.5531 22.7267 46.6651 23.0044 46.6667 23.3357C46.6682 23.6671 46.5562 23.944 46.3307 24.1664C46.1051 24.3889 45.8282 24.5001 45.5 24.5001H8.16668Z" fill="#FF774D"/>
</g>
<defs>
<clipPath id="clip0_405_2750">
<rect width="56" height="56" fill="white"/>
</clipPath>
</defs>
</svg>
