<svg width="56" height="56" viewBox="0 0 56 56" fill="none" xmlns="http://www.w3.org/2000/svg">
<path d="M10.7344 23.8V27.0666M45.2677 25.2V28.5833M35.351 27.5333V36.05M30.451 30.45V41.0666M25.551 26.3666V36.2833M20.651 23.8V31.9666M15.6344 19.95V27.8833M40.3677 25.2V32.2" stroke="#FF774D" stroke-width="1.5" stroke-linecap="round" stroke-linejoin="round"/>
<path d="M30.449 42C30.9644 42 31.3823 41.5821 31.3823 41.0666C31.3823 40.5512 30.9644 40.1333 30.449 40.1333C29.9335 40.1333 29.5156 40.5512 29.5156 41.0666C29.5156 41.5821 29.9335 42 30.449 42Z" fill="#FF774D"/>
<path d="M11.0846 6.41675C8.51797 6.41675 6.41797 8.51675 6.41797 11.0834V44.9168C6.41797 47.4834 8.51797 49.5834 11.0846 49.5834H44.918C47.4846 49.5834 49.5846 47.4834 49.5846 44.9168V11.0834C49.5846 8.51675 47.4846 6.41675 44.918 6.41675H11.0846Z" stroke="#FF774D" stroke-width="1.8" stroke-linecap="round" stroke-linejoin="round"/>
</svg>
