<svg width="57" height="56" viewBox="0 0 57 56" fill="none" xmlns="http://www.w3.org/2000/svg">
<g clip-path="url(#clip0_298_6573)">
<path d="M43 13.875V41.875C43 42.1071 42.9078 42.3296 42.7437 42.4937C42.5796 42.6578 42.3571 42.75 42.125 42.75C41.8929 42.75 41.6704 42.6578 41.5063 42.4937C41.3422 42.3296 41.25 42.1071 41.25 41.875V13.875C41.25 13.6429 41.3422 13.4204 41.5063 13.2563C41.6704 13.0922 41.8929 13 42.125 13C42.3571 13 42.5796 13.0922 42.7437 13.2563C42.9078 13.4204 43 13.6429 43 13.875ZM33.375 21.75C33.1429 21.75 32.9204 21.8422 32.7563 22.0063C32.5922 22.1704 32.5 22.3929 32.5 22.625V41.875C32.5 42.1071 32.5922 42.3296 32.7563 42.4937C32.9204 42.6578 33.1429 42.75 33.375 42.75C33.6071 42.75 33.8296 42.6578 33.9937 42.4937C34.1578 42.3296 34.25 42.1071 34.25 41.875V22.625C34.25 22.3929 34.1578 22.1704 33.9937 22.0063C33.8296 21.8422 33.6071 21.75 33.375 21.75ZM24.625 30.5C24.3929 30.5 24.1704 30.5922 24.0063 30.7563C23.8422 30.9204 23.75 31.1429 23.75 31.375V41.875C23.75 42.1071 23.8422 42.3296 24.0063 42.4937C24.1704 42.6578 24.3929 42.75 24.625 42.75C24.8571 42.75 25.0796 42.6578 25.2437 42.4937C25.4078 42.3296 25.5 42.1071 25.5 41.875V31.375C25.5 31.1429 25.4078 30.9204 25.2437 30.7563C25.0796 30.5922 24.8571 30.5 24.625 30.5ZM15.875 39.25C15.6429 39.25 15.4204 39.3422 15.2563 39.5063C15.0922 39.6704 15 39.8929 15 40.125V41.875C15 42.1071 15.0922 42.3296 15.2563 42.4937C15.4204 42.6578 15.6429 42.75 15.875 42.75C16.1071 42.75 16.3296 42.6578 16.4937 42.4937C16.6578 42.3296 16.75 42.1071 16.75 41.875V40.125C16.75 39.8929 16.6578 39.6704 16.4937 39.5063C16.3296 39.3422 16.1071 39.25 15.875 39.25Z" fill="#FF774D"/>
</g>
<defs>
<clipPath id="clip0_298_6573">
<rect width="56" height="56" fill="white" transform="translate(0.666992)"/>
</clipPath>
</defs>
</svg>
