<svg width="56" height="56" viewBox="0 0 56 56" fill="none" xmlns="http://www.w3.org/2000/svg">
<g clip-path="url(#clip0_499_37750)">
<path d="M28 9C24.2422 9 20.5687 10.1143 17.4442 12.2021C14.3196 14.2898 11.8844 17.2572 10.4463 20.729C9.00823 24.2008 8.63197 28.0211 9.36509 31.7067C10.0982 35.3923 11.9078 38.7778 14.565 41.435C17.2222 44.0922 20.6077 45.9018 24.2933 46.6349C27.9789 47.368 31.7992 46.9918 35.271 45.5537C38.7428 44.1156 41.7102 41.6804 43.7979 38.5558C45.8857 35.4313 47 31.7578 47 28C46.9945 22.9626 44.9909 18.1331 41.4289 14.5711C37.8669 11.0091 33.0374 9.00553 28 9ZM28 45.2159C26.7973 44.0588 23.63 40.578 22.0587 34.84H33.9413C32.37 40.578 29.2027 44.0588 28 45.2159ZM21.6958 33.32C20.9813 29.8093 20.9813 26.1907 21.6958 22.68H34.3042C35.0187 26.1907 35.0187 29.8093 34.3042 33.32H21.6958ZM28 10.7841C29.2027 11.9412 32.37 15.422 33.9413 21.16H22.0587C23.63 15.422 26.7973 11.9412 28 10.7841ZM35.8679 22.68H44.6516C45.756 26.1407 45.756 29.8593 44.6516 33.32H35.8679C36.5238 29.8037 36.5238 26.1963 35.8679 22.68ZM44.0854 21.16H35.5354C34.5763 17.2502 32.6719 13.6357 29.9893 10.634C33.0581 10.9905 35.9782 12.1519 38.4536 14.0004C40.9291 15.8489 42.8719 18.3188 44.0854 21.16ZM26.0126 10.634C23.33 13.6357 21.4256 17.2502 20.4665 21.16H11.9165C13.13 18.3188 15.0729 15.8489 17.5483 14.0004C20.0237 12.1519 22.9438 10.9905 26.0126 10.634ZM11.3484 22.68H20.1321C19.4762 26.1963 19.4762 29.8037 20.1321 33.32H11.3484C10.244 29.8593 10.244 26.1407 11.3484 22.68ZM11.9184 34.84H20.4684C21.4275 38.7498 23.3319 42.3643 26.0145 45.366C22.945 45.0101 20.0242 43.849 17.548 42.0005C15.0718 40.152 13.1284 37.6817 11.9146 34.84H11.9184ZM29.9912 45.366C32.6724 42.3639 34.5756 38.7494 35.5335 34.84H44.0835C42.87 37.6812 40.9272 40.1511 38.4517 41.9996C35.9763 43.8481 33.0562 45.0094 29.9874 45.366H29.9912Z" fill="#FF774D"/>
</g>
<defs>
<clipPath id="clip0_499_37750">
<rect width="56" height="56" fill="white"/>
</clipPath>
</defs>
</svg>
