<svg width="56" height="56" viewBox="0 0 56 56" fill="none" xmlns="http://www.w3.org/2000/svg">
<g clip-path="url(#clip0_298_6084)">
<path d="M24.6447 33.8147L18.8207 27.9907C18.6013 27.7729 18.333 27.6562 18.0157 27.6407C17.6983 27.6251 17.416 27.7418 17.1687 27.9907C16.9213 28.2396 16.7969 28.5149 16.7953 28.8167C16.7938 29.1184 16.9182 29.3938 17.1687 29.6427L23.324 35.798C23.7004 36.176 24.1399 36.365 24.6423 36.365C25.1448 36.365 25.585 36.176 25.963 35.798L38.7427 23.0207C38.9604 22.8013 39.0771 22.533 39.0927 22.2157C39.1082 21.8983 38.9916 21.616 38.7427 21.3687C38.4938 21.1213 38.2184 20.9969 37.9167 20.9953C37.6149 20.9938 37.3396 21.1182 37.0907 21.3687L24.6447 33.8147ZM28.007 49C25.1043 49 22.3743 48.4493 19.817 47.348C17.2612 46.2451 15.0376 44.7487 13.146 42.8587C11.2544 40.9687 9.75722 38.7473 8.65433 36.1947C7.55144 33.642 7 30.9128 7 28.007C7 25.1012 7.55144 22.3712 8.65433 19.817C9.75567 17.2612 11.2498 15.0376 13.1367 13.146C15.0236 11.2544 17.2457 9.75722 19.803 8.65433C22.3603 7.55144 25.0903 7 27.993 7C30.8957 7 33.6257 7.55144 36.183 8.65433C38.7388 9.75567 40.9624 11.2506 42.854 13.139C44.7456 15.0274 46.2428 17.2496 47.3457 19.8053C48.4486 22.3611 49 25.0903 49 27.993C49 30.8957 48.4493 33.6257 47.348 36.183C46.2467 38.7403 44.7502 40.964 42.8587 42.854C40.9671 44.744 38.7458 46.2412 36.1947 47.3457C33.6436 48.4501 30.9143 49.0016 28.007 49ZM28 46.6667C33.2111 46.6667 37.625 44.8583 41.2417 41.2417C44.8583 37.625 46.6667 33.2111 46.6667 28C46.6667 22.7889 44.8583 18.375 41.2417 14.7583C37.625 11.1417 33.2111 9.33333 28 9.33333C22.7889 9.33333 18.375 11.1417 14.7583 14.7583C11.1417 18.375 9.33333 22.7889 9.33333 28C9.33333 33.2111 11.1417 37.625 14.7583 41.2417C18.375 44.8583 22.7889 46.6667 28 46.6667Z" fill="#FF774D"/>
</g>
<defs>
<clipPath id="clip0_298_6084">
<rect width="56" height="56" fill="white"/>
</clipPath>
</defs>
</svg>
