<svg width="57" height="56" viewBox="0 0 57 56" fill="none" xmlns="http://www.w3.org/2000/svg">
<g clip-path="url(#clip0_499_37767)">
<path d="M14 45.9457V41.6869C14 41.107 14.1963 40.6193 14.5889 40.2238C14.9816 39.831 15.4667 39.6346 16.0445 39.6346H18.1658V32.1807H16.0445C15.4667 32.1807 14.9809 31.9837 14.587 31.5895C14.1957 31.1954 14 30.7084 14 30.1284V25.8696C14 25.2896 14.1963 24.8019 14.5889 24.4065C14.9816 24.0137 15.4667 23.8173 16.0445 23.8173H18.1658V16.3634H16.0445C15.4667 16.3634 14.9809 16.1663 14.587 15.7722C14.1957 15.3781 14 14.8911 14 14.3111V10.0523C14 9.47233 14.1963 8.98463 14.5889 8.5892C14.9816 8.1964 15.4667 8 16.0445 8H22.2568C22.8346 8 23.3205 8.19706 23.7144 8.59117C24.107 8.98529 24.3033 9.47233 24.3033 10.0523V14.3111C24.3033 14.8911 24.1064 15.3788 23.7124 15.7742C23.3198 16.1683 22.8346 16.3654 22.2568 16.3654H20.1355V23.8173H22.2568C22.8346 23.8173 23.3205 24.0144 23.7144 24.4085C24.107 24.8026 24.3033 25.2896 24.3033 25.8696V27.0104H33.6967V25.8696C33.6967 25.2896 33.893 24.8019 34.2856 24.4065C34.6782 24.0137 35.1634 23.8173 35.7412 23.8173H41.9535C42.5313 23.8173 43.0171 24.0144 43.4111 24.4085C43.8037 24.8026 44 25.2896 44 25.8696V30.1284C44 30.7084 43.803 31.1961 43.4091 31.5915C43.0165 31.9856 42.5313 32.1827 41.9535 32.1827H35.7412C35.1634 32.1827 34.6776 31.985 34.2836 31.5895C33.8923 31.1954 33.6967 30.7084 33.6967 30.1284V28.9876H24.3014V30.1284C24.3014 30.7084 24.105 31.1961 23.7124 31.5915C23.3198 31.9856 22.8346 32.1827 22.2568 32.1827H20.1355V39.6346H22.2568C22.8346 39.6346 23.3205 39.8317 23.7144 40.2258C24.107 40.6199 24.3033 41.107 24.3033 41.6869V45.9457C24.3033 46.5257 24.1064 47.0134 23.7124 47.4088C23.3198 47.8029 22.8346 48 22.2568 48H16.0445C15.4667 48 14.9809 47.8023 14.587 47.4069C14.1957 47.0127 14 46.5257 14 45.9457ZM15.9697 46.0228H22.3317V41.6118H15.9697V46.0228ZM15.9697 30.2055H22.3317V25.7945H15.9697V30.2055ZM35.6663 30.2055H42.0284V25.7945H35.6663V30.2055ZM15.9697 14.3882H22.3317V9.97716H15.9697V14.3882Z" fill="#FF774D"/>
</g>
<defs>
<clipPath id="clip0_499_37767">
<rect width="56" height="56" fill="white" transform="translate(0.332031)"/>
</clipPath>
</defs>
</svg>
