<svg width="56" height="56" viewBox="0 0 56 56" fill="none" xmlns="http://www.w3.org/2000/svg">
<path d="M28.002 8.99988C24.2441 8.99988 20.5707 10.1142 17.4461 12.202C14.3216 14.2897 11.8863 17.2571 10.4482 20.7289C9.01019 24.2007 8.63392 28.021 9.36704 31.7066C10.1002 35.3922 11.9097 38.7777 14.5669 41.4349C17.2241 44.0921 20.6096 45.9017 24.2952 46.6348C27.9809 47.3679 31.8011 46.9916 35.2729 45.5536C38.7447 44.1155 41.7121 41.6802 43.7999 38.5557C45.8876 35.4312 47.002 31.7577 47.002 27.9999C46.9964 22.9625 44.9929 18.1329 41.4309 14.571C37.8689 11.009 33.0394 9.00541 28.002 8.99988ZM28.002 45.2158C26.7993 44.0587 23.632 40.5779 22.0607 34.8399H33.9433C32.372 40.5779 29.2047 44.0587 28.002 45.2158ZM21.6978 33.3199C20.9833 29.8092 20.9833 26.1906 21.6978 22.6799H34.3062C35.0206 26.1906 35.0206 29.8092 34.3062 33.3199H21.6978ZM28.002 10.784C29.2047 11.9411 32.372 15.4219 33.9433 21.1599H22.0607C23.632 15.4219 26.7993 11.9411 28.002 10.784ZM35.8699 22.6799H44.6536C45.7579 26.1406 45.7579 29.8592 44.6536 33.3199H35.8699C36.5258 29.8035 36.5258 26.1962 35.8699 22.6799ZM44.0874 21.1599H35.5374C34.5783 17.2501 32.6738 13.6356 29.9913 10.6339C33.0601 10.9904 35.9801 12.1518 38.4556 14.0003C40.931 15.8488 42.8739 18.3187 44.0874 21.1599ZM26.0146 10.6339C23.332 13.6356 21.4275 17.2501 20.4685 21.1599H11.9185C13.1319 18.3187 15.0748 15.8488 17.5502 14.0003C20.0257 12.1518 22.9457 10.9904 26.0146 10.6339ZM11.3504 22.6799H20.1341C19.4782 26.1962 19.4782 29.8035 20.1341 33.3199H11.3504C10.246 29.8592 10.246 26.1406 11.3504 22.6799ZM11.9204 34.8399H20.4704C21.4294 38.7497 23.3339 42.3642 26.0165 45.3659C22.947 45.01 20.0261 43.8489 17.55 42.0004C15.0738 40.1518 13.1303 37.6816 11.9166 34.8399H11.9204ZM29.9932 45.3659C32.6744 42.3638 34.5775 38.7493 35.5355 34.8399H44.0855C42.872 37.681 40.9291 40.151 38.4537 41.9995C35.9782 43.848 33.0582 45.0093 29.9894 45.3659H29.9932Z" fill="#FF774D"/>
</svg>
