<svg width="17" height="18" viewBox="0 0 17 18" fill="none" xmlns="http://www.w3.org/2000/svg">
<path d="M5.17873 12.4225V15.4284C5.17873 15.7472 5.3054 16.0531 5.53089 16.2786C5.75638 16.504 6.0622 16.6307 6.38109 16.6307H14.7976C15.1165 16.6307 15.4223 16.504 15.6478 16.2786C15.8733 16.0531 16 15.7472 16 15.4284V2.20236C16 1.88348 15.8733 1.57765 15.6478 1.35216C15.4223 1.12668 15.1165 1 14.7976 1H6.38109C6.0622 1 5.75638 1.12668 5.53089 1.35216C5.3054 1.57765 5.17873 1.88348 5.17873 2.20236V5.20827M1.57164 8.81536H11.1905" stroke="#FFFBF9" stroke-width="1.60315" stroke-linecap="round" stroke-linejoin="round"/>
<path d="M8.78595 6.41064L11.1907 8.81537L8.78595 11.2201" stroke="#FFFBF9" stroke-width="1.60315" stroke-linecap="round" stroke-linejoin="round"/>
</svg>
