<svg width="422" height="56" viewBox="0 0 422 56" fill="none" xmlns="http://www.w3.org/2000/svg">
<path fill-rule="evenodd" clip-rule="evenodd" d="M10.9911 49.7974C10.9911 45.8986 10.9911 42.1771 10.9911 38.2784C11.1946 37.0379 11.8051 35.4429 12.2122 34.2024C13.8403 31.7214 15.0614 31.7214 17.9105 30.6581C26.0511 30.4809 33.7846 30.3037 41.9251 30.3037C41.9251 33.848 41.9251 37.5695 41.9251 41.1138C32.5635 41.1138 23.6089 41.1138 14.6543 41.1138C12.2122 43.2404 13.2297 47.1392 13.2297 49.7974C12.2122 49.7974 11.3981 49.7974 10.9911 49.7974Z" fill="#D4D6E3"/>
<path fill-rule="evenodd" clip-rule="evenodd" d="M44.7753 49.6205C44.7753 49.6205 44.7753 49.6205 44.7753 49.7977C43.9612 49.7977 43.3507 49.7977 42.5366 49.7977C42.5366 41.6458 42.5366 34.0255 42.5366 26.2281C42.7401 25.1648 42.9436 24.2787 43.3507 23.3926C44.9788 20.38 46.8104 18.9622 50.6772 18.2534C58.0036 18.0762 65.3301 18.0762 72.6566 18.0762C72.6566 21.6205 72.6566 25.342 72.6566 28.8863C63.9055 28.8863 55.358 28.8863 46.6069 28.8863C45.5893 29.0635 45.3858 29.7724 44.9788 30.6584C44.7753 37.0382 44.7753 43.2407 44.7753 49.6205Z" fill="#D4D6E3"/>
<path d="M126.986 38V34.5872H129.83C130.456 34.5872 130.882 34.3028 131.11 33.7339L131.451 32.9661L124.142 18.0918H128.266L133.101 28.0459H133.67L138.22 18.0918H142.344L134.523 35.156C133.689 37.052 132.124 38 129.83 38H126.986ZM144.196 38V18.0918H153.155C155.032 18.0918 156.539 18.6985 157.677 19.9119C158.833 21.1254 159.411 22.7465 159.411 24.7752C159.411 26.804 158.833 28.4251 157.677 29.6385C156.539 30.852 155.032 31.4587 153.155 31.4587H147.893V38H144.196ZM147.893 27.9037H153.012C153.828 27.9037 154.482 27.6288 154.975 27.0789C155.468 26.5291 155.714 25.7612 155.714 24.7752C155.714 23.7893 155.468 23.0214 154.975 22.4716C154.482 21.9217 153.828 21.6468 153.012 21.6468H147.893V27.9037ZM158.866 38L165.976 18.0918H171.38L178.49 38H174.366L172.859 33.7339H164.497L162.99 38H158.866ZM165.692 30.3211H171.664L168.962 22.3578H168.394L165.692 30.3211ZM178.644 38.1422V34.5872H179.497C180.768 34.5872 181.479 33.7339 181.631 32.0275L182.768 18.0918H196.135V38H192.438V21.6468H186.181L185.328 32.8807C185.043 36.3884 183.242 38.1422 179.924 38.1422H178.644ZM204.107 34.445H209.084C209.9 34.445 210.573 34.1511 211.104 33.5633C211.653 32.9755 211.928 32.2266 211.928 31.3165C211.928 30.4064 211.653 29.6575 211.104 29.0697C210.573 28.482 209.9 28.1881 209.084 28.1881H204.107V34.445ZM200.41 38V18.0918H204.107V24.633H209.227C211.085 24.633 212.611 25.2587 213.805 26.5101C215.019 27.7425 215.626 29.3447 215.626 31.3165C215.626 33.2884 215.019 34.9 213.805 36.1514C212.611 37.3838 211.085 38 209.227 38H200.41ZM232.676 30.8899H236.516C236.402 31.4208 236.232 31.9706 236.004 32.5395C235.795 33.1083 235.445 33.7529 234.952 34.4734C234.478 35.1749 233.928 35.8006 233.302 36.3505C232.676 36.9003 231.861 37.3648 230.856 37.744C229.851 38.1043 228.752 38.2844 227.557 38.2844C224.827 38.2844 222.533 37.3174 220.675 35.3835C218.817 33.4495 217.888 31.0037 217.888 28.0459C217.888 25.0881 218.817 22.6422 220.675 20.7083C222.533 18.7743 224.827 17.8073 227.557 17.8073C228.676 17.8073 229.709 17.978 230.657 18.3193C231.624 18.6416 232.43 19.0587 233.075 19.5707C233.719 20.0826 234.288 20.6798 234.781 21.3624C235.274 22.026 235.653 22.6612 235.919 23.2679C236.184 23.8746 236.383 24.4719 236.516 25.0596H232.676C232.297 24.0737 231.681 23.211 230.828 22.4716C229.994 21.7321 228.903 21.3624 227.557 21.3624C225.813 21.3624 224.381 21.9786 223.263 23.211C222.144 24.4245 221.585 26.0361 221.585 28.0459C221.585 30.0557 222.144 31.6768 223.263 32.9092C224.381 34.1226 225.813 34.7294 227.557 34.7294C228.922 34.7294 230.022 34.3502 230.856 33.5917C231.71 32.8333 232.316 31.9327 232.676 30.8899ZM239.654 38V18.0918H243.352V27.0505L250.177 18.0918H254.728L247.191 27.9037L255.297 38H250.746L243.352 28.7569V38H239.654ZM256.874 38V18.0918H260.571V31.8853H261.14L268.25 18.0918H273.227V38H269.53V24.2064H268.961L261.851 38H256.874ZM277.482 38V18.0918H290.849V21.5046H281.18V26.3395H290.28V29.7523H281.18V34.5872H290.849V38H277.482ZM300.508 32.0275H304.205C304.205 32.8239 304.527 33.4969 305.172 34.0468C305.817 34.5966 306.774 34.8716 308.045 34.8716C309.334 34.8716 310.32 34.6156 311.002 34.1037C311.685 33.5917 312.026 32.9471 312.026 32.1697C312.026 31.4113 311.704 30.7762 311.059 30.2642C310.434 29.7333 309.571 29.4679 308.471 29.4679H306.48V26.3395H308.471C309.495 26.3395 310.291 26.1119 310.86 25.6569C311.448 25.2018 311.742 24.671 311.742 24.0642C311.742 23.2679 311.429 22.5948 310.803 22.045C310.178 21.4951 309.258 21.2202 308.045 21.2202C306.945 21.2202 306.073 21.4951 305.428 22.045C304.802 22.5758 304.489 23.2489 304.489 24.0642H300.792C300.792 22.244 301.446 20.7462 302.755 19.5707C304.063 18.3951 305.826 17.8073 308.045 17.8073C310.301 17.8073 312.093 18.3762 313.42 19.5138C314.766 20.6324 315.439 22.007 315.439 23.6376C315.439 24.9648 314.984 26.0645 314.074 26.9367C313.714 27.259 313.268 27.534 312.737 27.7615V27.9037C313.306 28.1502 313.799 28.463 314.216 28.8422C315.221 29.7333 315.723 30.9373 315.723 32.4541C315.723 34.1037 315.041 35.4878 313.676 36.6064C312.311 37.7251 310.434 38.2844 308.045 38.2844C305.693 38.2844 303.845 37.6966 302.499 36.5211C301.171 35.3456 300.508 33.8477 300.508 32.0275ZM316.454 38L323.565 18.0918H328.968L336.078 38H331.954L330.447 33.7339H322.086L320.578 38H316.454ZM323.28 30.3211H329.253L326.551 22.3578H325.982L323.28 30.3211ZM338.224 38V18.0918H347.467C349.173 18.0918 350.548 18.6037 351.59 19.6275C352.633 20.6514 353.155 21.9881 353.155 23.6376C353.155 24.87 352.823 25.9508 352.159 26.8798C351.818 27.3159 351.486 27.6572 351.164 27.9037V28.0459C351.581 28.2924 351.96 28.6336 352.302 29.0697C353.06 30.0177 353.439 31.1459 353.439 32.4541C353.439 34.1037 352.918 35.4404 351.875 36.4642C350.832 37.4881 349.457 38 347.751 38H338.224ZM341.921 26.3395H347.04C347.761 26.3395 348.339 26.1214 348.775 25.6853C349.23 25.2303 349.457 24.6425 349.457 23.922C349.457 23.1257 349.239 22.5 348.803 22.045C348.367 21.5899 347.779 21.3624 347.04 21.3624H341.921V26.3395ZM341.921 34.7294H347.324C347.969 34.7294 348.528 34.4829 349.002 33.9899C349.495 33.4969 349.742 32.8902 349.742 32.1697C349.742 31.4492 349.495 30.8425 349.002 30.3495C348.528 29.8566 347.969 29.6101 347.324 29.6101H341.921V34.7294ZM361.521 32.9092C362.639 34.1226 364.071 34.7294 365.815 34.7294C367.559 34.7294 368.991 34.1226 370.11 32.9092C371.228 31.6768 371.788 30.0557 371.788 28.0459C371.788 26.0361 371.228 24.4245 370.11 23.211C368.991 21.9786 367.559 21.3624 365.815 21.3624C364.071 21.3624 362.639 21.9786 361.521 23.211C360.402 24.4245 359.843 26.0361 359.843 28.0459C359.843 30.0557 360.402 31.6768 361.521 32.9092ZM358.933 20.7083C360.791 18.7743 363.085 17.8073 365.815 17.8073C368.545 17.8073 370.84 18.7743 372.698 20.7083C374.556 22.6422 375.485 25.0881 375.485 28.0459C375.485 31.0037 374.556 33.4495 372.698 35.3835C370.84 37.3174 368.545 38.2844 365.815 38.2844C363.085 38.2844 360.791 37.3174 358.933 35.3835C357.074 33.4495 356.145 31.0037 356.145 28.0459C356.145 25.0881 357.074 22.6422 358.933 20.7083ZM376.751 41.9816V34.445H376.894C377.766 34.445 378.382 34.2269 378.742 33.7908C379.102 33.3547 379.339 32.4826 379.453 31.1743L380.591 18.0918H393.958V34.445H396.091V41.9816H392.394V38H380.449V41.9816H376.751ZM382.155 34.445H390.26V21.6468H384.032L383.15 32.0275C383.075 32.6722 382.894 33.2694 382.61 33.8193C382.458 34.0468 382.307 34.2554 382.155 34.445ZM415.436 38V18.0918H419.133V38H415.436ZM402.495 34.445H406.904C407.719 34.445 408.392 34.1511 408.923 33.5633C409.473 32.9755 409.748 32.2266 409.748 31.3165C409.748 30.4064 409.473 29.6575 408.923 29.0697C408.392 28.482 407.719 28.1881 406.904 28.1881H402.495V34.445ZM398.798 38V18.0918H402.495V24.633H407.046C408.904 24.633 410.43 25.2587 411.625 26.5101C412.838 27.7425 413.445 29.3447 413.445 31.3165C413.445 33.2884 412.838 34.9 411.625 36.1514C410.43 37.3838 408.904 38 407.046 38H398.798Z" fill="#D4D6E3"/>
<path fill-rule="evenodd" clip-rule="evenodd" d="M73.4694 49.7985C73.4694 37.2162 73.0624 23.9251 74.2835 11.3428C74.6905 9.57067 76.3186 8.50738 77.5397 7.08966C78.7608 6.73523 79.9819 6.20358 81.4064 6.02637C87.7154 6.02637 94.4313 6.02637 100.944 6.02637C100.74 8.50738 100.537 11.1656 100.537 13.6466C99.5191 14.8871 98.2981 15.0643 96.8735 15.9504C90.5645 15.9504 83.8486 16.1276 77.5397 16.1276C76.7256 16.4821 76.5221 17.0137 76.1151 17.5454C75.9116 28.1783 75.9116 38.8112 75.9116 49.6213C74.6905 49.7985 74.2835 49.7985 73.4694 49.7985Z" fill="#D4D6E3"/>
<path fill-rule="evenodd" clip-rule="evenodd" d="M10.9885 49.6207C10.9885 44.1271 9.76738 36.5068 14.6517 32.2537C16.0763 31.5448 17.5009 31.1904 19.3325 30.8359C26.659 30.8359 33.9855 30.8359 41.5155 30.8359C41.5155 34.0258 41.5155 37.3929 41.5155 41.1144C32.1539 41.1144 23.1993 41.1144 13.8376 41.2916C11.8025 43.0638 12.8201 47.4942 12.8201 49.798C12.2095 49.6208 11.8025 49.6207 10.9885 49.6207Z" fill="#D4D6E3"/>
<path fill-rule="evenodd" clip-rule="evenodd" d="M44.3659 49.6201C43.5518 49.6201 43.1448 49.6201 42.7378 49.6201C42.7378 41.4682 42.7378 33.6707 42.9413 25.8732C44.3659 20.9112 45.3835 20.2024 50.6748 18.6074C58.0013 18.6074 65.1243 18.6074 72.4507 18.6074C72.4507 21.7973 72.4507 25.1644 72.4507 28.8859C63.6997 28.8859 54.9486 28.8859 45.994 28.8859C45.18 29.0631 44.7729 29.5948 44.5694 30.3036C44.3659 36.5062 44.3659 42.8859 44.3659 49.6201Z" fill="#D4D6E3"/>
<path fill-rule="evenodd" clip-rule="evenodd" d="M73.6733 49.6213C73.6733 37.9251 73.6733 26.0517 73.6733 14.5327C74.6909 10.1023 75.3014 8.15295 80.1858 6.3808C86.6982 6.20358 93.6177 6.02637 100.537 6.02637C100.537 8.50738 100.944 12.5833 99.1125 14.7099C98.0949 14.8871 97.0774 15.4188 96.6704 15.9504C90.1579 15.9504 83.442 15.9504 77.1331 15.9504C76.1155 16.3048 75.912 16.8365 75.505 17.8998C75.505 28.5327 75.505 38.9884 75.505 49.6213C74.6909 49.6213 74.2839 49.6213 73.6733 49.6213Z" fill="#D4D6E3"/>
<path fill-rule="evenodd" clip-rule="evenodd" d="M76.9274 40.5826C76.9274 40.4054 76.7239 40.4054 76.5204 40.4054C76.5204 37.0383 76.5204 33.6713 76.5204 30.127C84.6609 30.127 92.8015 30.127 101.146 30.127C100.942 32.2535 100.942 34.7345 100.942 36.8611C100.535 38.6333 98.7034 39.6966 97.0752 40.2282C90.3593 40.4054 83.4398 40.4054 76.9274 40.5826Z" fill="#D4D6E3"/>
<path fill-rule="evenodd" clip-rule="evenodd" d="M45.9923 40.4054C45.9923 37.3928 45.9923 34.7345 47.6204 31.8991C48.8415 31.1902 50.2661 30.6586 51.6907 30.127C58.8137 30.127 65.5296 30.127 72.449 30.127C72.449 33.3168 72.449 36.8611 72.449 40.4054C63.4945 40.4054 54.9469 40.4054 45.9923 40.4054Z" fill="#D4D6E3"/>
<path fill-rule="evenodd" clip-rule="evenodd" d="M46.1996 40.2278C46.1996 35.6202 45.7926 32.4303 51.0839 30.6581C58.2069 30.4809 65.3299 30.3037 72.6564 30.3037C72.6564 33.6708 72.6564 37.0379 72.6564 40.2278C63.7018 40.2278 54.9507 40.2278 46.1996 40.2278Z" fill="#D4D6E3"/>
<path fill-rule="evenodd" clip-rule="evenodd" d="M76.9263 40.2278C76.9263 37.0379 76.9263 33.6708 76.9263 30.3037C84.6598 30.3037 92.5968 30.3037 100.941 30.3037C100.941 32.4303 101.144 36.6835 100.127 38.4556C98.9057 39.1645 97.8881 39.6961 96.6671 40.405C90.1546 40.2278 83.4387 40.2278 76.9263 40.2278Z" fill="#D4D6E3"/>
<path fill-rule="evenodd" clip-rule="evenodd" d="M76.5204 23.5699C76.9274 19.494 76.7239 20.2028 80.3871 18.6079C86.8996 18.6079 93.819 18.4307 100.942 18.4307C100.738 20.9117 100.535 23.5699 100.535 26.0509C99.5174 27.1142 98.2963 28.3547 96.8717 28.5319C90.3593 28.5319 83.4398 28.5319 76.5204 28.7091C76.5204 27.2914 76.5204 25.3421 76.5204 23.5699Z" fill="#D4D6E3"/>
<path fill-rule="evenodd" clip-rule="evenodd" d="M76.9263 23.5694C76.9263 20.0251 77.3333 19.6707 81.4036 18.6074C87.7125 18.6074 94.0214 18.6074 100.737 18.6074C100.737 20.9112 100.941 24.1011 100.33 26.4049C99.1092 27.1137 97.8882 27.6454 96.8706 28.5315C90.3582 28.5315 83.6422 28.5315 77.1298 28.5315C76.9263 26.9365 76.9263 25.3416 76.9263 23.5694Z" fill="#D4D6E3"/>
</svg>
