<svg width="1319" height="1363" viewBox="0 0 1319 1363" fill="none" xmlns="http://www.w3.org/2000/svg">
<path d="M413.586 804.973C429.065 777.609 450.583 747.801 477.519 716.364C505.442 684.052 535.194 653.663 566.57 625.407C599.357 595.689 633.638 568.066 669.215 542.699C702.711 518.548 737.662 497.117 773.751 478.6C806.741 461.85 835.928 451.042 860.229 446.358C883.657 441.816 901.627 443.221 913.652 450.464C925.676 457.708 931.098 470.42 929.781 488.386C928.462 506.826 919.901 530.182 904.423 557.546C888.944 584.911 867.37 614.854 840.49 646.155C812.567 678.473 782.806 708.86 751.415 737.102C718.656 766.847 684.395 794.49 648.83 819.868C615.329 844.009 580.38 865.439 544.295 883.966C511.162 900.657 482.046 911.494 457.769 916.188C434.317 920.721 416.347 919.316 404.346 912.082C392.345 904.849 386.9 892.127 388.217 874.161C389.512 855.711 398.097 832.364 413.575 805L413.586 804.973ZM410.848 806.36C346.717 919.512 405.98 955.306 543.028 886.191C680.077 817.075 843.091 669.367 907.126 556.176C971.162 442.985 912.018 407.24 775.089 476.406C638.16 545.571 475.027 693.229 410.967 806.41L410.848 806.36Z" stroke="#FF774D" stroke-opacity="0.8"/>
<path d="M399.014 795.047C418.622 766.118 444.547 734.956 475.961 702.733C508.268 669.756 542.294 638.872 577.836 610.269C614.419 580.614 652.412 553.217 691.612 528.226C727.841 504.813 765.449 484.356 804.097 467.04C839.197 451.679 869.41 442.44 893.891 439.604C917.486 436.808 934.881 440.125 945.409 449.338C955.938 458.552 959.177 473.263 954.977 493.031C950.67 513.387 938.469 538.544 918.872 567.447C899.274 596.349 873.338 627.538 841.924 659.761C809.616 692.744 775.581 723.625 740.025 752.215C703.451 781.873 665.465 809.273 626.273 834.268C589.992 857.658 552.336 878.095 513.645 895.394C478.545 910.756 448.332 919.994 423.875 922.841C400.28 925.636 382.885 922.319 372.357 913.106C361.828 903.892 358.589 889.181 362.789 869.414C367.096 849.058 379.273 823.89 398.894 794.998L399.014 795.047ZM396.011 796.261C314.925 915.838 366.857 961.323 512.039 897.761C657.221 834.199 840.657 685.788 921.755 566.183C1002.85 446.579 950.909 401.121 805.703 464.673C660.497 528.225 477.109 676.657 396.011 796.261Z" stroke="#FF774D" stroke-opacity="0.8"/>
<path d="M386.412 782.561C414.115 748.257 444.318 716.403 476.676 687.363C513.405 654.087 551.75 623.074 591.504 594.492C631.764 565.265 673.356 538.479 716.068 514.269C754.91 492.004 795.036 472.948 836.079 457.275C872.893 443.579 903.904 436.256 928.273 435.431C951.838 434.649 968.223 439.98 977.02 451.255C985.817 462.53 986.543 479.166 979.21 500.726C971.61 523.059 955.643 549.713 931.757 579.956C904.061 614.267 873.858 646.122 841.494 675.154C804.865 708.449 766.615 739.481 726.951 768.081C686.686 797.298 645.094 824.084 602.386 848.303C563.544 870.569 523.418 889.625 482.375 905.298C445.561 918.994 414.551 926.317 390.158 927.132C366.616 927.924 350.232 922.592 341.434 911.317C332.637 900.043 331.912 883.407 339.245 861.847C346.845 839.514 362.811 812.86 386.697 782.617L386.412 782.561ZM383.681 783.73C284.875 908.812 328.205 964.343 480.381 907.788C632.557 851.233 835.825 703.929 934.62 578.874C1033.42 453.819 990.096 398.261 837.92 454.816C685.744 511.371 482.167 658.609 383.444 783.694L383.681 783.73Z" stroke="#FF774D" stroke-opacity="0.8"/>
<path d="M376.187 767.495C408.546 732.368 443.252 699.922 479.966 670.479C562.064 604.113 649.952 547.349 741.992 501.246C783.118 480.431 825.435 463.12 868.533 449.482C906.727 437.851 938.243 432.671 962.187 434.136C985.337 435.555 1000.5 443.066 1007.21 456.445C1013.93 469.823 1011.94 488.394 1001.23 511.646C990.18 535.733 970.223 563.82 941.947 595.108C909.588 630.235 874.881 662.681 838.168 692.124C797.222 725.334 754.751 756.105 710.967 784.285C667.199 812.649 622.183 838.382 576.142 861.357C535.007 882.17 492.682 899.477 449.577 913.111C411.407 924.752 379.891 929.932 355.923 928.457C332.797 927.048 317.608 919.527 310.92 906.158C304.231 892.79 306.198 874.209 316.877 850.947C327.954 826.87 347.911 798.783 376.187 767.495V767.495ZM373.001 768.411C256.026 897.86 289.236 963.783 447.194 915.659C605.151 867.536 828.026 723.556 944.99 594.133C1061.95 464.71 1028.75 398.76 870.797 446.884C712.84 495.007 489.976 638.961 373.001 768.411V768.411Z" stroke="#FF774D" stroke-opacity="0.8"/>
<path d="M368.566 749.685C405.555 714.107 444.747 681.428 485.8 651.932C530.89 619.205 577.419 589.109 625.166 561.787C672.177 534.684 720.361 510.443 769.474 489.187C817.953 468.309 862.365 453.138 901.578 443.896C940.792 434.654 972.419 431.957 995.575 435.91C1017.95 439.725 1031.51 449.513 1035.91 465.023C1040.3 480.533 1035.3 501.01 1021.05 525.82C1006.27 551.514 982.202 580.793 949.379 612.965C912.404 648.561 873.211 681.241 832.146 710.718C787.069 743.457 740.548 773.557 692.804 800.872C645.792 827.976 597.609 852.216 548.496 873.473C500.016 894.35 455.605 909.522 416.391 918.764C377.178 928.006 345.551 930.703 322.395 926.75C300.023 922.934 286.455 913.147 282.063 897.637C277.672 882.127 282.673 861.65 296.916 836.839C311.672 811.135 335.768 781.867 368.566 749.685V749.685ZM365.425 750.492C229.971 883.041 251.646 959.523 413.807 921.323C575.969 883.124 817.206 744.638 952.661 612.089C1088.12 479.541 1066.44 403.059 904.279 441.258C742.117 479.458 500.809 617.914 365.354 750.462L365.425 750.492Z" stroke="#FF774D" stroke-opacity="0.8"/>
<path d="M364.151 729.259C405.699 693.585 449.33 661.05 494.697 631.913C543.705 600.123 594.07 571.19 645.56 545.246C695.498 519.818 746.521 497.501 798.362 478.413C849.103 459.969 895.034 447.332 934.837 440.837C974.64 434.341 1005.98 434.533 1027.95 441.123C1049.16 447.522 1060.82 459.739 1062.57 477.405C1064.32 495.072 1056.08 517.328 1038.12 543.527C1019.52 570.569 991.154 600.869 953.926 633.319C912.372 668.983 868.741 701.518 823.379 730.665C774.364 762.436 723.999 791.369 672.517 817.332C622.549 842.759 571.494 865.063 519.62 884.125C468.902 902.579 422.971 915.216 383.144 921.701C343.318 928.187 312.023 928.079 290.03 921.478C268.822 915.08 257.166 902.863 255.414 885.196C253.663 867.53 261.879 845.264 279.866 819.075C298.461 792.033 326.829 761.733 364.056 729.283L364.151 729.259ZM360.78 729.812C206.842 864.127 215.358 951.028 380.124 924.3C544.889 897.572 803.157 767.029 957.179 632.78C1111.2 498.532 1102.53 411.47 937.882 438.248C773.235 465.026 514.848 595.519 360.802 729.758L360.78 729.812Z" stroke="#FF774D" stroke-opacity="0.8"/>
<path d="M363.07 706.02C409.027 670.702 456.952 638.774 506.487 610.478C559.161 580.09 613.108 552.8 668.072 528.738C720.599 505.493 774.109 485.659 828.302 469.347C880.912 453.742 927.817 444.139 967.781 440.813C1007.74 437.487 1038.32 440.586 1058.72 450.064C1078.4 459.243 1087.76 473.921 1086.59 493.752C1085.42 513.583 1073.75 537.474 1051.87 564.854C1029.19 593.353 996.623 624.048 954.926 656.529C908.977 691.848 861.059 723.778 811.533 752.08C758.87 782.481 704.932 809.774 649.972 833.83C597.439 857.081 543.921 876.912 489.718 893.212C437.131 908.827 390.203 918.419 350.263 921.756C310.324 925.092 279.723 921.982 259.326 912.504C239.644 903.325 230.255 888.638 231.451 868.817C232.646 848.996 244.294 825.094 266.17 797.715C288.795 769.35 321.42 738.52 363.118 706.04L363.07 706.02ZM359.836 706.313C187.412 840.591 181.57 938.232 346.853 924.413C512.137 910.593 785.784 790.533 958.136 656.225C1130.49 521.918 1136.4 424.306 971.119 438.126C805.836 451.945 532.212 572.016 359.741 706.273L359.836 706.313Z" stroke="#FF774D" stroke-opacity="0.8"/>
<path d="M365.852 680.147C416.042 645.631 468.093 614.787 521.623 587.841C577.612 559.353 634.778 534.242 692.841 512.629C747.51 492.009 803.04 475.136 859.087 462.116C913.02 449.849 960.424 443.747 999.998 443.898C1039.57 444.049 1068.92 450.559 1087.32 463.001C1105.06 475.073 1111.84 492.246 1107.42 514.229C1102.99 536.213 1087.62 561.567 1061.77 589.878C1035.01 619.206 998.114 650.337 952.091 682.37C901.944 716.891 849.942 747.755 796.462 774.736C740.471 803.215 683.305 828.327 625.244 849.948C570.576 870.569 515.046 887.441 458.999 900.462C405.065 912.729 357.662 918.831 318.087 918.68C278.513 918.528 249.165 912.018 230.764 899.576C213.021 887.505 206.218 870.322 210.644 848.338C215.071 826.355 230.437 801.001 256.291 772.689C283.047 743.362 319.947 712.23 365.971 680.197L365.852 680.147ZM362.73 680.172C172.363 812.644 150.678 920.69 314.346 921.325C478.014 921.96 765.098 815.019 955.523 682.476C1145.95 549.932 1167.57 441.957 1003.88 441.312C840.19 440.667 553.035 547.578 362.611 680.122L362.73 680.172Z" stroke="#FF774D" stroke-opacity="0.8"/>
<path d="M372.764 651.799C426.905 618.57 482.795 589.32 540.024 564.265C598.922 538.202 658.884 515.819 719.596 497.23C775.933 479.679 832.976 466.251 890.326 457.043C944.991 448.659 992.31 446.446 1030.95 450.447C1069.59 454.448 1097.21 464.415 1113.03 480.209C1128.35 495.384 1132.06 515.136 1124.26 539.095C1116.46 563.053 1097.24 589.836 1067.37 618.841C1036.44 648.83 995.304 679.835 945.076 710.997C890.935 744.226 835.045 773.475 777.816 798.531C718.915 824.585 658.955 846.968 598.244 865.565C541.996 883.037 485.047 896.397 427.794 905.553C373.105 913.927 325.81 916.15 287.172 912.149C248.534 908.148 220.674 898.081 204.796 882.421C189.472 867.246 185.761 847.495 193.54 823.526C201.319 799.558 220.583 772.795 250.455 743.79C281.455 713.831 322.592 682.825 372.764 651.799ZM369.599 651.457C161.891 780.35 123.074 898.262 282.863 914.81C442.653 931.359 740.558 840.306 948.217 711.329C1155.88 582.351 1194.74 464.524 1034.95 447.975C875.163 431.427 577.234 522.47 369.599 651.457V651.457Z" stroke="#FF774D" stroke-opacity="0.8"/>
<path d="M384.32 620.674C442.09 589.249 501.486 562.15 562.062 539.58C623.398 516.461 685.668 497.402 748.513 482.511C805.888 468.552 863.771 459.173 921.683 454.454C976.462 450.423 1023.04 452.523 1060.12 460.716C1097.21 468.909 1122.58 482.65 1135.49 501.722C1148 520.059 1148.46 542.437 1136.84 568.282C1125.22 594.126 1102.16 622.056 1068.2 651.379C1033.08 681.736 987.818 712.219 933.658 741.989C875.898 773.418 816.509 800.52 755.94 823.093C694.602 846.204 632.333 865.263 569.49 880.162C512.073 894.111 454.151 903.473 396.2 908.169C341.421 912.2 294.84 910.101 257.759 901.908C220.677 893.715 195.283 879.963 182.397 860.901C169.905 842.574 169.451 820.196 181.07 794.351C192.689 768.507 215.796 740.597 249.775 711.156C284.894 680.8 330.181 650.326 384.318 620.546L384.32 620.674ZM381.288 619.881C157.306 743.045 99.9845 870.281 253.477 904.169C406.97 938.057 712.82 865.614 936.802 742.449C1160.78 619.284 1218.11 492.049 1064.61 458.161C911.12 424.273 605.225 496.824 381.243 619.988L381.288 619.881Z" stroke="#FF774D" stroke-opacity="0.8"/>
<path d="M400.517 587.439C461.484 558.33 523.947 533.953 587.405 514.506C650.582 494.849 714.525 479.66 778.816 469.039C836.744 459.11 894.911 454.278 952.743 454.592C1006.93 455.407 1052.08 462.26 1086.97 474.95C1121.87 487.641 1144.37 505.281 1153.93 527.732C1163.16 549.315 1159.94 574.241 1144.37 601.82C1128.8 629.4 1101.67 658.222 1063.69 687.51C1024.4 717.862 975.176 747.354 917.45 775.127C856.478 804.22 794.016 828.596 730.561 848.06C667.383 867.71 603.441 882.899 539.15 893.528C481.235 903.423 423.083 908.219 365.268 907.867C311.11 907.061 265.955 900.209 231.063 887.519C196.17 874.828 173.664 857.188 164.101 834.737C154.876 813.154 158.094 788.228 173.663 760.648C189.231 733.069 216.364 704.247 254.344 674.959C293.637 644.607 342.836 615.105 400.586 587.342L400.517 587.439ZM397.77 586.164C158.701 701.565 81.9869 837.436 226.311 889.9C370.635 942.364 681.276 891.58 920.3 776.288C1159.32 660.995 1235.95 525.276 1091.68 472.677C947.412 420.078 636.702 470.959 397.701 586.262L397.77 586.164Z" stroke="#FF774D" stroke-opacity="0.8"/>
<path d="M421.903 551.846C485.601 525.614 550.631 504.564 616.426 488.878C680.855 473.24 745.832 462.552 810.862 456.894C874.14 451.51 932.072 451.804 983.062 457.773C1035.8 463.996 1078.84 475.887 1110.83 493.377C1142.82 510.867 1161.95 532.761 1167.68 558.547C1173.18 583.414 1165.95 610.812 1146.23 639.946C1126.51 669.081 1095.27 698.53 1053.42 727.431C1010.08 757.328 957.198 785.321 896.171 810.732C832.475 836.972 767.444 858.022 701.648 873.699C637.228 889.347 572.259 900.039 507.236 905.694C443.958 911.078 386.026 910.784 335.036 904.815C282.278 898.582 239.254 886.701 207.242 869.201C175.229 851.701 156.147 829.827 150.394 804.03C144.921 779.174 152.143 751.776 171.866 722.641C191.589 693.507 222.824 664.058 264.679 635.156C308.015 605.26 360.9 577.267 421.903 551.846V551.846ZM419.307 550.412C166.987 655.334 69.774 798.998 202.175 871.261C334.577 943.524 646.399 917.068 898.696 812.136C1150.99 707.203 1248.23 563.55 1115.77 491.422C983.313 419.293 671.58 445.47 419.307 550.412Z" stroke="#FF774D" stroke-opacity="0.8"/>
<path d="M448.581 514.474C578.12 469.889 711.514 446.967 843.992 446.529C906.664 446.684 963.223 452.608 1012.05 464.16C1062.61 476.121 1102.65 493.592 1131.05 516.103C1159.45 538.614 1174.54 564.829 1175.88 594.004C1177.13 622.19 1165.66 651.96 1141.58 682.405C1117.49 712.85 1082.21 742.6 1036.59 770.654C989.366 799.718 933.105 825.729 869.34 848.033C803.524 870.851 736.571 887.951 669.142 899.164C604.126 910.293 538.847 915.912 473.905 915.968C411.21 915.804 354.674 909.89 305.826 898.328C255.291 886.377 215.249 868.906 186.822 846.385C158.395 823.864 143.361 797.668 142.02 768.494C140.747 740.298 152.237 710.538 176.32 680.093C200.403 649.648 235.77 619.837 281.43 591.894C328.65 562.83 384.911 536.819 448.652 514.504L448.581 514.474ZM446.332 512.68C182.632 604.994 64.2187 755.113 181.694 848.324C299.169 941.535 608.174 942.198 871.805 849.982C1135.44 757.765 1253.89 607.539 1136.44 514.338C1018.99 421.136 709.891 420.433 446.308 512.67L446.332 512.68Z" stroke="#FF774D" stroke-opacity="0.8"/>
<path d="M480.749 475.543C548.143 456.648 616.422 444.103 684.803 438.053C749.615 431.973 814.302 432.055 878.124 438.299C939.325 444.518 993.6 456.577 1039.43 474.092C1086.85 492.275 1123.07 515.397 1147.19 543.333C1171.31 571.268 1181.66 601.68 1178.19 634.254C1174.82 665.701 1158.69 697.637 1130.22 729.191C1101.75 760.745 1062.39 790.311 1013.23 817.107C962.39 844.846 903.132 868.306 837.208 886.922C769.813 905.804 701.534 918.349 633.154 924.413C568.342 930.488 503.656 930.406 439.833 924.167C378.632 917.948 324.357 905.889 278.531 888.374C231.082 870.18 194.941 846.934 170.768 819.133C146.595 791.332 136.296 760.786 139.745 728.202C143.11 696.754 159.262 664.829 187.829 633.315C216.396 601.801 255.634 572.185 304.818 545.398C355.662 517.66 414.921 494.199 480.844 475.583L480.749 475.543ZM478.976 473.346C206.359 550.315 66.0369 705.834 165.538 820.713C265.039 935.592 566.77 966.322 839.388 889.353C1112.01 812.384 1252.33 656.865 1152.83 541.986C1053.32 427.107 751.594 396.377 478.952 473.336L478.976 473.346Z" stroke="#FF774D" stroke-opacity="0.8"/>
<path d="M518.541 435.354C586.773 420.963 655.551 413.621 723.937 413.428C787.877 412.875 851.167 419.194 912.892 432.295C971.653 445.154 1022.7 463.805 1064.57 487.742C1107.86 512.677 1139.54 542.098 1158.53 575.2C1177.51 608.302 1182.68 643.412 1173.9 679.213C1165.54 713.699 1144.48 747.781 1111.5 780.111C1078.53 812.442 1035.37 841.524 982.869 866.514C928.628 892.388 866.928 912.771 799.496 927.084C731.264 941.475 662.486 948.817 594.1 949.011C530.175 949.512 466.905 943.148 405.202 930.008C346.44 917.15 295.398 898.498 253.495 874.552C210.014 849.819 178.395 820.583 159.443 787.336C140.49 754.09 135.315 719.134 144.065 683.323C152.453 648.847 173.492 614.755 206.489 582.435C239.485 550.114 282.745 521.072 335.123 496.032C389.388 470.168 451.088 449.785 518.52 435.472L518.541 435.354ZM516.866 432.723C238.046 491.81 75.5663 650.978 153.954 788.396C232.341 925.814 522.096 989.077 801.009 929.901C1079.92 870.726 1242.4 711.558 1164.01 574.14C1085.63 436.722 796.016 373.519 516.983 432.645L516.866 432.723Z" stroke="#FF774D" stroke-opacity="0.8"/>
<path d="M562.032 394.377C630.421 384.992 698.906 383.484 766.336 389.877C828.557 395.445 889.403 408.666 947.736 429.294C1003.05 449.257 1049.84 474.929 1086.82 505.617C1125.09 537.446 1151.13 573.054 1164.3 611.826C1177.46 650.597 1176.78 689.845 1162.33 728.97C1148.44 766.619 1122.36 802.307 1084.84 835.048C1047.32 867.789 1000.31 895.893 945.028 918.613C887.782 942.155 824.171 958.795 756.093 968.217C687.704 977.601 619.218 979.11 551.789 972.716C489.568 967.149 428.722 953.927 370.389 933.3C315.074 913.337 268.262 887.654 231.304 856.976C193.032 825.148 166.993 789.54 153.851 750.778C140.708 712.016 141.186 672.524 155.678 633.574C169.57 595.924 195.649 560.237 233.143 527.486C270.636 494.735 317.7 466.65 372.977 443.931C430.224 420.389 493.811 403.739 562.032 394.377V394.377ZM560.96 391.175C278.795 429.968 93.8777 591.243 148.118 751.483C202.358 911.723 474.892 1010.14 757.031 971.269C1039.17 932.402 1224.01 771.251 1169.89 611.061C1115.77 450.871 843.113 352.408 560.974 391.275L560.96 391.175Z" stroke="#FF774D" stroke-opacity="0.8"/>
<path d="M611.188 352.986C678.951 349.143 746.194 354.106 811.494 367.769C871.236 379.924 928.627 400.548 982.258 429.136C1033 456.683 1074.59 489.898 1105.66 527.42C1137.86 566.395 1157.47 608.654 1163.88 653.053C1170.48 696.459 1163.04 742.305 1142.81 783.036C1123.06 823.556 1091.75 860.696 1049.78 893.44C1007.8 926.184 957.23 952.866 899.482 972.78C839.727 993.405 774.844 1005.78 706.697 1009.6C638.934 1013.44 571.691 1008.48 506.39 994.818C446.649 982.662 389.258 962.037 335.626 933.45C284.86 905.893 243.296 872.688 212.227 835.167C180.003 796.181 160.413 753.933 154.001 709.534C147.416 666.129 154.867 620.286 175.123 579.571C194.869 539.051 226.192 501.884 268.252 469.206C310.312 436.529 360.798 409.781 418.522 389.857C481.714 368.567 546.486 356.171 611.188 352.986V352.986ZM610.733 349.314C328.741 365.168 121.769 526.559 148.427 709.925C175.084 893.291 425.287 1029.02 707.281 1013.23C989.274 997.442 1196.25 836.05 1169.59 652.62C1142.93 469.19 892.68 333.567 610.733 349.314Z" stroke="#FF774D" stroke-opacity="0.8"/>
<path d="M666.079 311.811C732.451 313.996 797.46 326.048 859.326 347.634C915.785 366.962 968.597 395.507 1016.07 432.353C1061.14 467.882 1096.3 508.632 1120.53 553.519C1145.63 599.968 1157.86 648.825 1156.91 698.692C1155.99 748.439 1141.41 798.039 1115.04 841.125C1089.13 884.258 1052.45 922.572 1006.08 954.838C959.704 987.105 905.95 1011.95 846.334 1028.49C782.065 1045.9 716.626 1053.4 652.004 1050.77C585.633 1048.58 520.623 1036.53 458.758 1014.94C402.291 995.61 349.472 967.062 301.994 930.214C256.916 894.685 221.759 853.935 197.549 809.058C172.384 762.579 160.13 713.712 161.078 663.844C161.997 614.097 176.585 564.498 202.969 521.421C228.881 478.289 265.561 439.975 311.91 407.699C358.26 375.422 412.062 350.598 471.654 334.051C535.923 316.63 601.362 309.128 665.984 311.771L666.079 311.811ZM666.041 307.68C388.117 297.982 159.508 457.353 155.575 663.664C151.642 869.975 373.822 1045.11 651.875 1054.76C929.928 1064.42 1158.53 905.139 1162.46 698.829C1166.39 492.518 944.213 317.386 666.136 307.72L666.041 307.68Z" stroke="#FF774D" stroke-opacity="0.8"/>
<path d="M726.376 271.314C790.609 280.102 852.332 299.846 909.345 329.84C961.703 357.091 1008.77 394.046 1048.63 439.198C1086.85 483.031 1114.52 531.761 1130.84 583.974C1147.57 635.796 1151.58 692.534 1142.5 748.913C1133.35 804.403 1111.21 857.577 1078.28 903.175C1045.91 948.609 1003.75 987.546 953.223 1019.02C902.694 1050.5 846.073 1072.82 785.109 1085.41C720.409 1098.49 655.094 1100.5 591.585 1091.34C527.353 1082.55 465.629 1062.81 408.616 1032.82C356.258 1005.57 309.189 968.609 269.328 923.457C231.114 879.625 203.441 830.895 187.121 778.681C170.311 724.554 166.352 669.058 175.486 613.625C184.647 558.138 206.782 504.968 239.707 459.363C272.099 413.939 314.23 374.992 364.759 343.514C415.288 312.035 471.889 289.837 532.852 277.25C597.552 264.156 662.868 262.152 726.376 271.314V271.314ZM727.121 266.783C457.105 229.056 207.732 384.05 170.092 612.983C132.452 841.917 320.869 1058.04 590.885 1095.77C860.902 1133.49 1110.27 978.498 1147.96 749.457C1185.64 520.415 997.138 304.51 727.121 266.783V266.783Z" stroke="#FF774D" stroke-opacity="0.8"/>
<path d="M791.918 232.155C853.227 248.132 910.483 276.145 961.011 314.885C1008.3 350.875 1048.36 396.592 1079.22 449.774C1108.75 500.313 1128.01 557.755 1135.83 618.632C1143.58 679.388 1138.27 742.476 1120.32 803.085C1102.37 863.694 1072.26 920.221 1032.27 968.355C992.163 1016.58 944.158 1056.26 891.16 1084.99C835.593 1115.39 776.242 1134.88 716.049 1142.5C586.128 1158.94 458.984 1125.35 356.924 1047.63C309.644 1011.65 269.587 965.934 238.734 912.755C209.209 862.216 189.952 804.774 182.127 743.897C174.369 683.143 179.659 620.052 197.595 559.438C215.531 498.824 245.637 442.288 285.618 394.144C325.773 345.922 373.827 306.262 426.87 277.566C482.437 247.167 541.789 227.677 601.981 220.061C666.455 211.701 730.793 215.806 791.99 232.185L791.918 232.155ZM793.448 227.224C535.963 159.191 266.873 307.302 192.577 558.068C118.28 808.834 267.038 1067.31 524.63 1135.36C782.222 1203.4 1051.2 1055.28 1125.5 804.511C1199.8 553.745 1050.97 295.239 793.376 227.194L793.448 227.224Z" stroke="#FF774D" stroke-opacity="0.8"/>
<path d="M862.274 194.946C961.606 236.563 1041.65 315.673 1088.84 418.875C1136.03 522.077 1147.47 643.025 1121.22 761.233C1094.98 879.44 1032.65 987.639 944.81 1067.5C856.969 1147.36 749.011 1193.97 639.223 1199.45C513.598 1204.64 395.479 1155.52 310.633 1062.78C225.786 970.044 181.096 841.224 186.311 704.419C191.525 567.615 246.221 433.926 338.468 332.514C430.715 231.102 553.027 170.197 678.725 163.082C742.331 159.92 804.759 170.757 862.274 194.946V194.946ZM864.527 189.557C778.401 153.546 682.152 147.18 587.95 171.265C493.749 195.35 405.826 248.805 335.3 324.868C264.775 400.932 214.814 496.189 191.736 598.593C168.658 700.998 173.499 805.95 205.647 900.178C237.795 994.406 295.807 1073.68 372.345 1127.97C448.884 1182.26 540.512 1209.13 635.642 1205.19C730.773 1201.25 825.134 1166.66 906.792 1105.81C988.45 1044.96 1053.74 960.574 1094.4 863.327C1121.4 798.757 1136.87 730.11 1139.93 661.305C1142.99 592.5 1133.57 524.884 1112.23 462.319C1090.88 399.754 1058.02 343.464 1015.52 296.663C973.021 249.863 921.713 213.468 864.527 189.557V189.557Z" stroke="#FF774D" stroke-opacity="0.8"/>
</svg>
