<svg width="32" height="32" viewBox="0 0 32 32" fill="none" xmlns="http://www.w3.org/2000/svg">
<path d="M5.97394 26.6666C5.78549 26.6666 5.62727 26.6026 5.49927 26.4746C5.37127 26.3466 5.30771 26.1879 5.3086 25.9986C5.30949 25.8093 5.37305 25.651 5.49927 25.5239C5.62549 25.3968 5.78416 25.3333 5.97527 25.3333H7.58994V16.6666H5.97527C5.78594 16.6666 5.62771 16.6026 5.5006 16.4746C5.37349 16.3466 5.30949 16.1879 5.3086 15.9986C5.30771 15.8093 5.37171 15.651 5.5006 15.5239C5.62949 15.3968 5.78771 15.3333 5.97527 15.3333H7.58994V6.66659H5.97527C5.78594 6.66659 5.62771 6.60259 5.5006 6.47459C5.37349 6.34659 5.30949 6.18792 5.3086 5.99859C5.30771 5.80925 5.37171 5.65103 5.5006 5.52392C5.62949 5.39681 5.78727 5.33325 5.97394 5.33325H26.0006C26.1899 5.33325 26.3482 5.39725 26.4753 5.52525C26.6024 5.65325 26.6664 5.81192 26.6673 6.00125C26.6682 6.19059 26.6042 6.34881 26.4753 6.47592C26.3464 6.60303 26.1882 6.66659 26.0006 6.66659H24.4113V15.3333H26.0006C26.1899 15.3333 26.3482 15.3973 26.4753 15.5253C26.6024 15.6533 26.6664 15.8119 26.6673 16.0013C26.6682 16.1906 26.6042 16.3488 26.4753 16.4759C26.3464 16.603 26.1882 16.6666 26.0006 16.6666H24.4113V25.3333H26.0006C26.1899 25.3333 26.3482 25.3973 26.4753 25.5253C26.6024 25.6533 26.6664 25.8119 26.6673 26.0013C26.6682 26.1906 26.6042 26.3488 26.4753 26.4759C26.3464 26.603 26.1882 26.6666 26.0006 26.6666H5.97394ZM8.92327 25.3333H23.0779V16.6666H22.4113C22.2219 16.6666 22.0633 16.6026 21.9353 16.4746C21.8073 16.3466 21.7437 16.1879 21.7446 15.9986C21.7455 15.8093 21.809 15.651 21.9353 15.5239C22.0615 15.3968 22.2202 15.3333 22.4113 15.3333H23.0779V6.66659H8.92327V15.3333H9.58994C9.77927 15.3333 9.93794 15.3973 10.0659 15.5253C10.1939 15.6533 10.2575 15.8119 10.2566 16.0013C10.2557 16.1906 10.1922 16.3488 10.0659 16.4759C9.93971 16.603 9.78105 16.6666 9.58994 16.6666H8.92327V25.3333ZM15.9979 20.4879C16.9224 20.4879 17.7095 20.1679 18.3593 19.5279C19.009 18.8897 19.3339 18.1164 19.3339 17.2079C19.3339 16.4861 19.1255 15.8661 18.7086 15.3479C18.2917 14.8297 17.389 13.7653 16.0006 12.1546C14.6246 13.7573 13.725 14.8217 13.3019 15.3479C12.8788 15.8741 12.6673 16.4964 12.6673 17.2146C12.6673 18.1195 12.9913 18.891 13.6393 19.5293C14.2864 20.1684 15.0726 20.4879 15.9979 20.4879Z" fill="#FF774D"/>
</svg>
