<svg width="160" height="314" viewBox="0 0 160 314" fill="none" xmlns="http://www.w3.org/2000/svg">
<path d="M159.707 121.707C160.098 121.317 160.098 120.683 159.707 120.293L153.343 113.929C152.953 113.538 152.319 113.538 151.929 113.929C151.538 114.319 151.538 114.953 151.929 115.343L157.586 121L151.929 126.657C151.538 127.047 151.538 127.681 151.929 128.071C152.319 128.462 152.953 128.462 153.343 128.071L159.707 121.707ZM8.70711 0.292893C8.31658 -0.0976311 7.68342 -0.0976311 7.29289 0.292893L0.928932 6.65685C0.538408 7.04738 0.538408 7.68054 0.928932 8.07107C1.31946 8.46159 1.95262 8.46159 2.34315 8.07107L8 2.41421L13.6569 8.07107C14.0474 8.46159 14.6805 8.46159 15.0711 8.07107C15.4616 7.68054 15.4616 7.04738 15.0711 6.65685L8.70711 0.292893ZM159 120H24V122H159V120ZM9 105V61H7V105H9ZM9 61V1H7V61H9ZM24 120C15.7157 120 9 113.284 9 105H7C7 114.389 14.6112 122 24 122V120Z" fill="#FF774D"/>
<path d="M159.707 192.293C160.098 192.683 160.098 193.317 159.707 193.707L153.343 200.071C152.953 200.462 152.319 200.462 151.929 200.071C151.538 199.681 151.538 199.047 151.929 198.657L157.586 193L151.929 187.343C151.538 186.953 151.538 186.319 151.929 185.929C152.319 185.538 152.953 185.538 153.343 185.929L159.707 192.293ZM8.70711 313.707C8.31658 314.098 7.68342 314.098 7.29289 313.707L0.928932 307.343C0.538408 306.953 0.538408 306.319 0.928932 305.929C1.31946 305.538 1.95262 305.538 2.34315 305.929L8 311.586L13.6569 305.929C14.0474 305.538 14.6805 305.538 15.0711 305.929C15.4616 306.319 15.4616 306.953 15.0711 307.343L8.70711 313.707ZM159 194H24V192H159V194ZM9 209V253H7V209H9ZM9 253V313H7V253H9ZM24 194C15.7157 194 9 200.716 9 209H7C7 199.611 14.6112 192 24 192V194Z" fill="#FF774D"/>
</svg>
