<svg width="160" height="314" viewBox="0 0 160 314" fill="none" xmlns="http://www.w3.org/2000/svg">
<path d="M0.292892 122.707C-0.0976257 122.317 -0.0976257 121.683 0.292892 121.293L6.65686 114.929C7.04738 114.538 7.68054 114.538 8.07108 114.929C8.46159 115.319 8.46159 115.953 8.07108 116.343L2.41422 122L8.07108 127.657C8.46159 128.047 8.46159 128.681 8.07108 129.071C7.68054 129.462 7.04738 129.462 6.65686 129.071L0.292892 122.707ZM151.293 1.29289C151.683 0.902369 152.317 0.902369 152.707 1.29289L159.071 7.65685C159.462 8.04738 159.462 8.68054 159.071 9.07107C158.681 9.46159 158.047 9.46159 157.657 9.07107L152 3.41421L146.343 9.07107C145.953 9.46159 145.319 9.46159 144.929 9.07107C144.538 8.68054 144.538 8.04738 144.929 7.65685L151.293 1.29289ZM1 121H136V123H1V121ZM151 106V62H153V106H151ZM151 62V2H153V62H151ZM136 121C144.284 121 151 114.284 151 106H153C153 115.389 145.389 123 136 123V121Z" fill="#FF774D"/>
<path d="M0.292892 191.293C-0.0976257 191.683 -0.0976257 192.317 0.292892 192.707L6.65686 199.071C7.04738 199.462 7.68054 199.462 8.07108 199.071C8.46159 198.681 8.46159 198.047 8.07108 197.657L2.41422 192L8.07108 186.343C8.46159 185.953 8.46159 185.319 8.07108 184.929C7.68054 184.538 7.04738 184.538 6.65686 184.929L0.292892 191.293ZM151.293 312.707C151.683 313.098 152.317 313.098 152.707 312.707L159.071 306.343C159.462 305.953 159.462 305.319 159.071 304.929C158.681 304.538 158.047 304.538 157.657 304.929L152 310.586L146.343 304.929C145.953 304.538 145.319 304.538 144.929 304.929C144.538 305.319 144.538 305.953 144.929 306.343L151.293 312.707ZM1 193H136V191H1V193ZM151 208V252H153V208H151ZM151 252V312H153V252H151ZM136 193C144.284 193 151 199.716 151 208H153C153 198.611 145.389 191 136 191V193Z" fill="#FF774D"/>
</svg>
