<svg width="32" height="32" viewBox="0 0 32 32" fill="none" xmlns="http://www.w3.org/2000/svg">
<path d="M15.9992 3.19995C12.6044 3.19995 9.34872 4.54852 6.94825 6.94898C4.54779 9.34945 3.19922 12.6052 3.19922 16C3.19922 19.3947 4.54779 22.6505 6.94825 25.0509C9.34872 27.4514 12.6044 28.8 15.9992 28.8C19.394 28.8 22.6497 27.4514 25.0502 25.0509C27.4507 22.6505 28.7992 19.3947 28.7992 16C28.7992 12.6052 27.4507 9.34945 25.0502 6.94898C22.6497 4.54852 19.394 3.19995 15.9992 3.19995ZM13.3368 5.11835C15.087 4.68977 16.9147 4.68977 18.6648 5.11835L15.9992 6.67195L13.3368 5.11835ZM11.3464 5.80955L15.2024 8.05755V10.7776L10.772 13.9008L8.27602 12.9936L7.27442 8.97435C8.3669 7.61644 9.76121 6.53382 11.3464 5.80955ZM6.08082 10.7936L6.70962 13.3216L4.84722 14.976C4.98322 13.4768 5.41202 12.064 6.08082 10.7936ZM4.85522 17.1072L7.77842 14.5152L10.252 15.4128L11.924 20.6768L10.7768 22.3936H6.80242C5.71042 20.8276 5.03934 19.0072 4.85362 17.1072M8.15442 23.9936H10.6408L11.4568 26.24C10.2303 25.6951 9.11174 24.9342 8.15442 23.9936ZM13.396 26.896L12.092 23.3024L13.228 21.6016H18.7752L19.9128 23.3024L18.6088 26.8944C16.8954 27.3043 15.1094 27.3059 13.396 26.896ZM20.5496 26.2352L21.3656 23.992H23.844C22.8888 24.9306 21.773 25.6904 20.5496 26.2352ZM25.196 22.392H21.2312L20.0792 20.672L21.7192 15.4128L24.2264 14.5104L27.1448 17.1056C26.9591 19.0056 26.288 20.826 25.196 22.392ZM27.1528 14.9712L25.2968 13.3216L25.9256 10.8064C26.588 12.0704 27.0168 13.4784 27.1528 14.9712ZM24.7304 8.98395L23.7304 12.9888L21.196 13.9008L16.8008 10.7776V8.05755L20.6552 5.80795C22.2432 6.53434 23.6393 7.62195 24.732 8.98395M11.836 15.112L15.9992 12.1712L20.1368 15.1104L18.6136 20H13.3864L11.836 15.112Z" fill="#FF774D"/>
</svg>
