<svg width="24" height="24" viewBox="0 0 24 24" fill="none" xmlns="http://www.w3.org/2000/svg">
<path fill-rule="evenodd" clip-rule="evenodd" d="M12 1.25C11.8011 1.25 11.6103 1.32902 11.4697 1.46967C11.329 1.61032 11.25 1.80109 11.25 2V3C11.25 3.19891 11.329 3.38968 11.4697 3.53033C11.6103 3.67098 11.8011 3.75 12 3.75C12.1989 3.75 12.3897 3.67098 12.5303 3.53033C12.671 3.38968 12.75 3.19891 12.75 3V2C12.75 1.80109 12.671 1.61032 12.5303 1.46967C12.3897 1.32902 12.1989 1.25 12 1.25ZM19.601 4.399C19.4604 4.25855 19.2698 4.17966 19.071 4.17966C18.8722 4.17966 18.6816 4.25855 18.541 4.399L18.148 4.791C18.0113 4.93239 17.9356 5.1218 17.9372 5.31845C17.9389 5.5151 18.0176 5.70325 18.1566 5.84237C18.2956 5.98149 18.4837 6.06046 18.6803 6.06226C18.877 6.06406 19.0665 5.98855 19.208 5.852L19.601 5.459C19.7415 5.31837 19.8203 5.12775 19.8203 4.929C19.8203 4.73025 19.7415 4.53963 19.601 4.399ZM4.399 4.399C4.25855 4.53963 4.17966 4.73025 4.17966 4.929C4.17966 5.12775 4.25855 5.31837 4.399 5.459L4.792 5.852C4.93418 5.98448 5.12222 6.0566 5.31652 6.05317C5.51082 6.04975 5.69621 5.97104 5.83362 5.83362C5.97104 5.69621 6.04975 5.51082 6.05317 5.31652C6.0566 5.12222 5.98448 4.93417 5.852 4.792L5.459 4.399C5.31837 4.25855 5.12775 4.17966 4.929 4.17966C4.73025 4.17966 4.53963 4.25855 4.399 4.399ZM12 6.75C13.3924 6.75 14.7277 7.30312 15.7123 8.28769C16.6969 9.27225 17.25 10.6076 17.25 12C17.25 13.3924 16.6969 14.7277 15.7123 15.7123C14.7277 16.6969 13.3924 17.25 12 17.25C10.6076 17.25 9.27225 16.6969 8.28769 15.7123C7.30312 14.7277 6.75 13.3924 6.75 12C6.75 10.6076 7.30312 9.27225 8.28769 8.28769C9.27225 7.30312 10.6076 6.75 12 6.75ZM18.75 12C18.75 10.2098 18.0388 8.4929 16.773 7.22703C15.5071 5.96116 13.7902 5.25 12 5.25C10.2098 5.25 8.4929 5.96116 7.22703 7.22703C5.96116 8.4929 5.25 10.2098 5.25 12C5.25 13.7902 5.96116 15.5071 7.22703 16.773C8.4929 18.0388 10.2098 18.75 12 18.75C13.7902 18.75 15.5071 18.0388 16.773 16.773C18.0388 15.5071 18.75 13.7902 18.75 12ZM22.75 12C22.75 11.8011 22.671 11.6103 22.5303 11.4697C22.3897 11.329 22.1989 11.25 22 11.25H21C20.8011 11.25 20.6103 11.329 20.4697 11.4697C20.329 11.6103 20.25 11.8011 20.25 12C20.25 12.1989 20.329 12.3897 20.4697 12.5303C20.6103 12.671 20.8011 12.75 21 12.75H22C22.1989 12.75 22.3897 12.671 22.5303 12.5303C22.671 12.3897 22.75 12.1989 22.75 12ZM3.75 12C3.75 11.8011 3.67098 11.6103 3.53033 11.4697C3.38968 11.329 3.19891 11.25 3 11.25H2C1.80109 11.25 1.61032 11.329 1.46967 11.4697C1.32902 11.6103 1.25 11.8011 1.25 12C1.25 12.1989 1.32902 12.3897 1.46967 12.5303C1.61032 12.671 1.80109 12.75 2 12.75H3C3.19891 12.75 3.38968 12.671 3.53033 12.5303C3.67098 12.3897 3.75 12.1989 3.75 12ZM5.852 18.148C5.71137 18.0076 5.52075 17.9287 5.322 17.9287C5.12325 17.9287 4.93262 18.0076 4.792 18.148L4.399 18.541C4.32531 18.6097 4.26621 18.6925 4.22522 18.7845C4.18423 18.8765 4.16219 18.9758 4.16041 19.0765C4.15863 19.1772 4.17716 19.2772 4.21488 19.3706C4.2526 19.464 4.30874 19.5488 4.37996 19.62C4.45118 19.6913 4.53601 19.7474 4.6294 19.7851C4.72279 19.8228 4.82282 19.8414 4.92352 19.8396C5.02423 19.8378 5.12354 19.8158 5.21554 19.7748C5.30754 19.7338 5.39034 19.6747 5.459 19.601L5.852 19.208C5.99245 19.0674 6.07134 18.8768 6.07134 18.678C6.07134 18.4792 5.99245 18.2886 5.852 18.148ZM18.148 18.148C18.0075 18.2886 17.9287 18.4792 17.9287 18.678C17.9287 18.8768 18.0075 19.0674 18.148 19.208L18.541 19.601C18.6097 19.6747 18.6925 19.7338 18.7845 19.7748C18.8765 19.8158 18.9758 19.8378 19.0765 19.8396C19.1772 19.8414 19.2772 19.8228 19.3706 19.7851C19.464 19.7474 19.5488 19.6913 19.62 19.62C19.6913 19.5488 19.7474 19.464 19.7851 19.3706C19.8228 19.2772 19.8414 19.1772 19.8396 19.0765C19.8378 18.9758 19.8158 18.8765 19.7748 18.7845C19.7338 18.6925 19.6747 18.6097 19.601 18.541L19.209 18.148C19.1393 18.0783 19.0566 18.023 18.9656 17.9853C18.8746 17.9476 18.777 17.9282 18.6785 17.9282C18.58 17.9282 18.4824 17.9476 18.3914 17.9853C18.3004 18.023 18.2176 18.0783 18.148 18.148ZM12 20.25C11.8011 20.25 11.6103 20.329 11.4697 20.4697C11.329 20.6103 11.25 20.8011 11.25 21V22C11.25 22.1989 11.329 22.3897 11.4697 22.5303C11.6103 22.671 11.8011 22.75 12 22.75C12.1989 22.75 12.3897 22.671 12.5303 22.5303C12.671 22.3897 12.75 22.1989 12.75 22V21C12.75 20.8011 12.671 20.6103 12.5303 20.4697C12.3897 20.329 12.1989 20.25 12 20.25Z" fill="#5B6A78"/>
</svg>
