<svg width="32" height="32" viewBox="0 0 32 32" fill="none" xmlns="http://www.w3.org/2000/svg">
<path d="M14.2678 30.9919C14.2678 31.5306 13.8003 31.9529 13.269 31.8639C11.6184 31.5875 10.0724 31.0661 8.63088 30.2999C6.90221 29.381 5.3963 28.2053 4.11317 26.7727C2.82884 25.339 1.82253 23.6973 1.09423 21.8476C0.364744 19.9991 0 18.0499 0 16C0 11.8489 1.36927 8.25087 4.10782 5.20581C6.61851 2.41411 9.68342 0.723308 13.3026 0.133408C13.8342 0.0467449 14.3016 0.469059 14.3016 1.00777C14.3016 1.46096 13.9664 1.84182 13.5211 1.92574C10.307 2.53136 7.59099 4.07403 5.37313 6.55374C2.97795 9.23173 1.78095 12.3805 1.78213 16C1.78332 19.6195 2.97498 22.7683 5.3571 25.4463C7.56296 27.9261 10.2731 29.4688 13.4876 30.0744C13.9327 30.1582 14.2678 30.5389 14.2678 30.9919ZM16.0499 23.7015C15.5578 23.7015 15.1588 23.3025 15.1588 22.8104V11.7345L10.2724 16.6362C9.92072 16.989 9.34893 16.9878 8.99871 16.6335C8.6521 16.2829 8.65329 15.7183 9.00138 15.3691L14.6335 9.7194C15.415 8.93541 16.6848 8.9354 17.4663 9.7194L23.0931 15.3638C23.4433 15.715 23.4421 16.2838 23.0904 16.6335C22.7393 16.9828 22.1717 16.9816 21.822 16.6309L16.941 11.7345V22.8104C16.941 23.3025 16.542 23.7015 16.0499 23.7015ZM18.8415 31.8232C18.3123 31.9302 17.832 31.515 17.832 30.9751C17.832 30.5322 18.1604 30.1605 18.596 30.0805C19.6048 29.8951 20.5786 29.6137 21.5175 29.2362C22.449 28.8617 23.3266 28.3847 24.1504 27.8053C24.5202 27.5452 25.0258 27.5658 25.3521 27.8788C25.7553 28.2654 25.7152 28.9232 25.248 29.2295C24.2799 29.8643 23.2609 30.3957 22.1911 30.8237C21.1074 31.2578 19.9909 31.591 18.8415 31.8232ZM25.4091 4.13683C25.0857 4.47878 24.5586 4.52048 24.1691 4.25631C23.3393 3.69347 22.4655 3.21325 21.5478 2.81564C20.6138 2.411 19.6427 2.11284 18.6345 1.92117C18.1964 1.83789 17.8659 1.46384 17.8659 1.01794C17.8659 0.479111 18.3413 0.062014 18.8705 0.163743C20.0201 0.384773 21.133 0.716337 22.209 1.15844C23.2792 1.59911 24.3007 2.14133 25.2732 2.78511C25.7342 3.09024 25.7889 3.73516 25.4091 4.13683ZM29.2147 25.2104C28.9116 25.6574 28.2792 25.6968 27.8979 25.3144C27.5815 24.9969 27.5517 24.4959 27.8048 24.1259C28.3701 23.2995 28.8442 22.4191 29.227 21.4847C29.6117 20.5456 29.8974 19.5717 30.0841 18.5629C30.1659 18.1211 30.5428 17.7877 30.9921 17.7877C31.5286 17.7877 31.9469 18.2565 31.8519 18.7845C31.6433 19.9438 31.3119 21.0691 30.8577 22.1604C30.4066 23.2429 29.8589 24.2602 29.2147 25.2104ZM30.9787 14.2123C30.5371 14.2123 30.1665 13.8846 30.0865 13.4503C29.8999 12.4368 29.6134 11.4585 29.227 10.5153C28.847 9.58757 28.3769 8.71309 27.8169 7.89189C27.5574 7.51135 27.588 6.99656 27.9132 6.67036C28.3161 6.26613 28.9876 6.32278 29.2893 6.80732C29.8871 7.76759 30.3986 8.77833 30.8238 9.83955C31.2583 10.9288 31.5918 12.051 31.8243 13.2063C31.9305 13.7337 31.5167 14.2123 30.9787 14.2123Z" fill="#FF774D"/>
</svg>
