<svg width="30" height="30" viewBox="0 0 30 30" fill="none" xmlns="http://www.w3.org/2000/svg">
<path d="M26.4258 24.668C26.4258 24.4866 26.4258 17.8511 26.4258 17.5781H26.2746C26.3722 17.303 26.4258 17.0073 26.4258 16.6992C26.4258 16.3372 26.3224 15.6777 25.4282 14.1363C25.133 13.6275 24.8405 13.1752 24.668 12.9152V3.51562H22.7647C22.4483 2.58152 21.6233 1.75172 20.3649 1.12248C18.9172 0.398613 17.0119 0 15 0C12.9881 0 11.0828 0.398613 9.6351 1.12248C8.37662 1.75172 7.55174 2.58152 7.23533 3.51562H5.33203V21.1523H3.57422V24.668H0V30H30V24.668H26.4258ZM22.9102 19.3359H24.668C24.668 19.9044 24.668 24.1096 24.668 24.668H22.9102V19.3359ZM22.9102 16.7002C22.9173 16.4315 23.2829 15.6656 23.7892 14.8125C24.2951 15.6646 24.6605 16.4302 24.668 16.6999C24.6676 17.1841 24.2735 17.5781 23.7891 17.5781C23.3044 17.5781 22.9102 17.1838 22.9102 16.7002ZM7.08984 5.27344H8.84766V4.39453C8.84766 3.14988 11.4788 1.75781 15 1.75781C18.5212 1.75781 21.1523 3.14988 21.1523 4.39453V5.27344H22.9102V12.9152C22.7376 13.1752 22.4451 13.6275 22.1499 14.1363C21.2558 15.6777 21.1523 16.3372 21.1523 16.6992C21.1523 17.0073 21.206 17.303 21.3035 17.5781H21.1523V21.1523H7.08984V5.27344ZM5.33203 22.9102H21.1523V24.668H5.33203V22.9102ZM28.2422 28.2422H1.75781V26.4258C2.12543 26.4258 28.0533 26.4258 28.2422 26.4258V28.2422Z" fill="#0C9E6A"/>
<path d="M17.6367 6.15234C17.6367 4.69846 16.4539 3.51562 15 3.51562C13.5461 3.51562 12.3633 4.69846 12.3633 6.15234C12.3633 7.60623 13.5461 8.78906 15 8.78906C16.4539 8.78906 17.6367 7.60623 17.6367 6.15234ZM15 7.03125C14.5154 7.03125 14.1211 6.63697 14.1211 6.15234C14.1211 5.66771 14.5154 5.27344 15 5.27344C15.4846 5.27344 15.8789 5.66771 15.8789 6.15234C15.8789 6.63697 15.4846 7.03125 15 7.03125Z" fill="#0C9E6A"/>
<path d="M15 8.78906C12.5769 8.78906 10.6055 10.7604 10.6055 13.1836V14.0625H19.3945V13.1836C19.3945 10.7604 17.4231 8.78906 15 8.78906ZM12.5139 12.3047C12.8766 11.2816 13.8541 10.5469 15 10.5469C16.1459 10.5469 17.1234 11.2816 17.4861 12.3047H12.5139Z" fill="#0C9E6A"/>
<path d="M19.3945 15.8203H10.6172V17.5781H19.3945V15.8203Z" fill="#0C9E6A"/>
</svg>
