<svg width="26" height="30" viewBox="0 0 26 30" fill="none" xmlns="http://www.w3.org/2000/svg">
<path d="M24.916 24.0729H23.4858V21.2238C23.4858 20.7383 23.0923 20.3448 22.6069 20.3448H21.5931V4.39453C21.5931 1.97136 19.6218 0 17.1986 0H8.82268C6.39951 0 4.42815 1.97136 4.42815 4.39453V20.3448H3.41443C2.9292 20.3448 2.53552 20.7383 2.53552 21.2238V24.0729H1.10547C0.62001 24.0729 0.226562 24.4666 0.226562 24.9518V29.1211C0.226562 29.6066 0.62001 30 1.10547 30H24.9158C25.4013 30 25.7947 29.6066 25.7947 29.1211V24.9518C25.795 24.4666 25.4013 24.0729 24.916 24.0729ZM24.0371 28.2422H1.98438V25.8307H24.0369V28.2422H24.0371ZM8.82268 1.75781H17.1986C18.6525 1.75781 19.8353 2.94067 19.8353 4.39453V20.3448H6.18596V4.39453C6.18596 2.94067 7.36882 1.75781 8.82268 1.75781V1.75781ZM21.728 22.1027V24.0729H4.29333V22.1027H21.728Z" fill="#0C9E6A"/>
</svg>
