<svg width="28" height="28" viewBox="0 0 28 28" fill="none" xmlns="http://www.w3.org/2000/svg">
<path d="M26.8085 5.23817C27.1364 4.7914 27.3335 4.22812 27.3335 3.61563C27.3335 2.1691 26.2406 0.992188 24.8974 0.992188C23.554 0.992188 22.4611 2.1691 22.4611 3.61563C22.4611 4.19516 22.6375 4.73029 22.9342 5.16493C22.3258 5.69136 21.9103 6.4659 21.8214 7.34526C20.1838 6.17293 17.216 4.4483 13.9286 4.4483C10.6415 4.4483 7.67415 6.17247 6.03615 7.3448C5.95157 6.50595 5.56879 5.76254 5.00516 5.23886C5.33331 4.79185 5.53032 4.22835 5.53032 3.61563C5.53032 2.1691 4.43748 0.992188 3.09406 0.992188C1.75085 0.992188 0.658003 2.1691 0.658003 3.61563C0.658003 4.19516 0.833767 4.73097 1.13046 5.16539C0.441856 5.7614 0 6.67509 0 7.6982V26.1495C0 26.635 0.365344 27.0284 0.816127 27.0284L27.041 27.0275C27.4918 27.0275 27.8571 26.634 27.8571 26.1486V7.6982C27.8571 6.71606 27.4501 5.83464 26.8085 5.23817V5.23817ZM6.05401 13.3099H8.76699V21.2693H6.05401V13.3099ZM10.3992 13.3099H13.1124V21.2693H10.3992V13.3099ZM14.7447 13.3099H17.4579V21.2693H14.7447V13.3099ZM19.0902 13.3099H21.8031V21.2693H19.0902V13.3099ZM21.8031 11.5521H19.0902V7.67645C20.37 8.36539 21.3462 9.11612 21.8031 9.4924V11.5521ZM17.4579 11.5521H14.7447V6.24777C15.6941 6.34299 16.6116 6.5943 17.4579 6.92114V11.5521ZM13.1124 11.5521H10.3992V6.9184C11.2447 6.5927 12.1618 6.3423 13.1124 6.24754V11.5521ZM8.76699 11.5521H6.05401V9.49171C6.51074 9.11429 7.48605 8.36218 8.76699 7.67279V11.5521ZM6.05401 23.0271H8.76699V25.2706H6.05401V23.0271ZM10.3992 23.0271H13.1124V25.2706H10.3992V23.0271ZM14.7447 23.0271H17.4579V25.2706H14.7447V23.0271ZM19.0902 23.0271H21.8031V25.2706H19.0902V23.0271ZM24.8974 2.75C25.3405 2.75 25.7012 3.13841 25.7012 3.61563C25.7012 4.09285 25.3405 4.48126 24.8974 4.48126C24.4541 4.48126 24.0934 4.09285 24.0934 3.61563C24.0934 3.13841 24.4541 2.75 24.8974 2.75ZM3.09406 2.75C3.5374 2.75 3.89807 3.13841 3.89807 3.61563C3.89807 4.09285 3.5374 4.48126 3.09406 4.48126C2.65093 4.48126 2.29026 4.09285 2.29026 3.61563C2.29026 3.13841 2.65093 2.75 3.09406 2.75ZM1.63225 7.6982C1.63225 6.8756 2.25391 6.20612 3.01776 6.20612H3.03604C3.80009 6.20612 4.42154 6.8756 4.42154 7.6982V25.2706H1.63225V7.6982ZM26.2249 25.2697H23.4354V7.6982C23.4354 6.8756 24.0571 6.20612 24.8209 6.20612H24.8394C25.6032 6.20612 26.2249 6.8756 26.2249 7.6982V25.2697Z" fill="#0C9E6A"/>
</svg>
