<svg width="128" height="128" viewBox="0 0 128 128" fill="none" xmlns="http://www.w3.org/2000/svg">
<path d="M59.5558 2.96921C62.246 1.17185 65.754 1.17186 68.4442 2.96922L74.136 6.77191C75.771 7.86428 77.7511 8.31622 79.6981 8.04144L86.4761 7.08489C89.6798 6.63277 92.8404 8.15483 94.4844 10.9414L97.9625 16.8371C98.9617 18.5307 100.55 19.797 102.423 20.3942L108.945 22.4733C112.027 23.456 114.215 26.1986 114.487 29.4226L115.062 36.2435C115.228 38.2029 116.109 40.0327 117.538 41.3837L122.512 46.0866C124.863 48.3094 125.643 51.7294 124.49 54.7522L122.049 61.1474C121.348 62.9845 121.348 65.0155 122.049 66.8526L124.49 73.2478C125.643 76.2706 124.863 79.6906 122.512 81.9134L117.538 86.6163C116.109 87.9673 115.228 89.7971 115.062 91.7565L114.487 98.5774C114.215 101.801 112.027 104.544 108.945 105.527L102.423 107.606C100.55 108.203 98.9617 109.469 97.9625 111.163L94.4844 117.059C92.8404 119.845 89.6798 121.367 86.4762 120.915L79.6981 119.959C77.7511 119.684 75.771 120.136 74.136 121.228L68.4442 125.031C65.754 126.828 62.246 126.828 59.5558 125.031L53.864 121.228C52.229 120.136 50.2489 119.684 48.3019 119.959L41.5239 120.915C38.3202 121.367 35.1596 119.845 33.5156 117.059L30.0375 111.163C29.0383 109.469 27.4504 108.203 25.577 107.606L19.0551 105.527C15.9726 104.544 13.7854 101.801 13.5133 98.5774L12.9376 91.7565C12.7722 89.7971 11.891 87.9673 10.4622 86.6163L5.48832 81.9134C3.13739 79.6906 2.35679 76.2706 3.51045 73.2478L5.95127 66.8526C6.65243 65.0155 6.65242 62.9845 5.95127 61.1474L3.51045 54.7522C2.35679 51.7294 3.13739 48.3094 5.48832 46.0866L10.4622 41.3837C11.891 40.0327 12.7722 38.2029 12.9376 36.2435L13.5133 29.4226C13.7854 26.1986 15.9726 23.456 19.0551 22.4733L25.577 20.3942C27.4504 19.797 29.0383 18.5307 30.0375 16.8371L33.5156 10.9414C35.1596 8.15482 38.3202 6.63277 41.5238 7.08489L48.3019 8.04144C50.2489 8.31622 52.229 7.86428 53.864 6.77191L59.5558 2.96921Z" fill="black"/>
<path d="M105.219 64.4124L111.392 64.8897L110.999 69.9829L104.825 69.5056L104.915 68.3395L110 68.7326L110.213 65.9716L105.129 65.5786L105.219 64.4124Z" fill="white"/>
<path d="M103.918 73.4155C104.062 72.8132 104.317 72.3245 104.684 71.9492C105.05 71.5768 105.497 71.3283 106.024 71.2037C106.552 71.0819 107.127 71.0956 107.752 71.2446C108.377 71.3937 108.897 71.6415 109.312 71.9882C109.727 72.3376 110.013 72.7611 110.171 73.2587C110.329 73.759 110.336 74.3103 110.192 74.9126C110.049 75.5149 109.794 76.0022 109.428 76.3747C109.061 76.7499 108.614 76.9984 108.087 77.1202C107.56 77.2448 106.983 77.2325 106.359 77.0835C105.734 76.9344 105.215 76.6852 104.8 76.3357C104.384 75.9891 104.098 75.5656 103.94 75.0652C103.782 74.5677 103.775 74.0178 103.918 73.4155ZM104.989 73.671C104.892 74.0517 104.899 74.3892 105.008 74.6835C105.118 74.9778 105.314 75.225 105.596 75.425C105.878 75.6278 106.228 75.7791 106.646 75.8789C107.064 75.9787 107.442 76.0011 107.78 75.946C108.116 75.8937 108.4 75.761 108.631 75.5478C108.861 75.3347 109.025 75.0378 109.122 74.6571C109.218 74.2764 109.212 73.9389 109.102 73.6446C108.993 73.3502 108.797 73.1017 108.516 72.8989C108.233 72.6989 107.883 72.549 107.465 72.4492C107.046 72.3494 106.669 72.3256 106.332 72.3779C105.995 72.433 105.711 72.5671 105.48 72.7803C105.25 72.9934 105.086 73.2903 104.989 73.671Z" fill="white"/>
<path d="M102.244 76.545L104.203 77.3651C104.132 77.537 104.113 77.7002 104.148 77.8546C104.184 78.0128 104.264 78.1628 104.388 78.3048C104.515 78.4479 104.674 78.5862 104.867 78.7197C105.06 78.8532 105.276 78.9826 105.516 79.1078C105.822 79.267 106.124 79.4214 106.422 79.571C106.723 79.7217 107.034 79.8767 107.355 80.0362C107.68 80.1969 108.029 80.3712 108.404 80.5592L106.809 84.3479L102.105 82.3789L101.922 82.8152L99.9628 81.995L100.414 80.9161L101.366 81.3146L102.744 78.0223L101.792 77.6239L102.244 76.545ZM103.529 78.9756L102.556 81.3L106.253 82.8473L106.985 81.1212C106.731 80.9931 106.497 80.8766 106.283 80.7715C106.068 80.669 105.851 80.5628 105.633 80.4529C105.415 80.3429 105.173 80.2166 104.906 80.074C104.64 79.9313 104.422 79.8091 104.253 79.7074C104.087 79.6068 103.95 79.5011 103.841 79.3902C103.731 79.282 103.627 79.1437 103.529 78.9756Z" fill="white"/>
<path d="M100.709 82.8973L104.971 87.7709L104.05 89.2541L97.7916 87.5952L98.4267 86.5724L103.955 88.021L103.837 88.211L100.073 83.9202L100.709 82.8973ZM101.206 84.5422L102.134 85.1184L100.41 87.8947L99.4818 87.3186L101.206 84.5422Z" fill="white"/>
<path d="M96.9806 88.7693L101.665 92.8181L99.9559 94.7961C99.9166 94.8417 99.8619 94.9005 99.792 94.9727C99.7223 95.0489 99.6558 95.1127 99.5925 95.164C99.3073 95.4063 99.0174 95.5555 98.7227 95.6115C98.4261 95.6697 98.1339 95.6483 97.8461 95.5473C97.5605 95.4482 97.2864 95.2852 97.024 95.0584C96.7615 94.8316 96.5604 94.582 96.4207 94.3097C96.2812 94.0414 96.2188 93.7564 96.2334 93.4545C96.2462 93.1548 96.3508 92.8474 96.5473 92.5323C96.5912 92.4641 96.6446 92.389 96.7078 92.3072C96.7709 92.2254 96.8212 92.1628 96.8587 92.1194L97.8035 91.0263L96.2158 89.6542L96.9806 88.7693ZM98.6298 91.7404L97.7188 92.7945C97.6795 92.8401 97.6385 92.8918 97.596 92.9498C97.5535 93.0078 97.519 93.0652 97.4927 93.122C97.4221 93.2694 97.3967 93.4084 97.4163 93.5391C97.4382 93.6716 97.4854 93.7901 97.5581 93.8946C97.631 94.0031 97.7098 94.0939 97.7944 94.167C97.879 94.2401 97.9791 94.3039 98.0949 94.3585C98.2109 94.4171 98.335 94.4467 98.4672 94.4473C98.6015 94.4497 98.7365 94.4053 98.8721 94.3141C98.9245 94.2798 98.9763 94.2374 99.0275 94.187C99.0787 94.1365 99.1239 94.0885 99.1633 94.0429L100.074 92.9888L98.6298 91.7404Z" fill="white"/>
<path d="M90.51 95.2966C90.9844 94.8986 91.4805 94.6582 91.9985 94.5753C92.5143 94.4942 93.0212 94.561 93.5193 94.7754C94.0152 94.9918 94.4695 95.3459 94.8823 95.8378C95.295 96.3297 95.5649 96.8386 95.6918 97.3645C95.8166 97.8922 95.7943 98.403 95.6249 98.8969C95.4534 99.3926 95.1305 99.8395 94.6561 100.238C94.1818 100.636 93.6867 100.875 93.171 100.956C92.653 101.039 92.1461 100.972 91.6502 100.756C91.1521 100.541 90.6967 100.188 90.2839 99.6964C89.8712 99.2045 89.6024 98.6947 89.4776 98.1669C89.3507 97.641 89.373 97.1302 89.5445 96.6345C89.7139 96.1406 90.0357 95.6947 90.51 95.2966ZM91.2176 96.1399C90.9131 96.3879 90.7171 96.6628 90.6297 96.9644C90.5423 97.2661 90.5523 97.5813 90.6599 97.9102C90.7653 98.2409 90.9562 98.571 91.2326 98.9003C91.509 99.2297 91.799 99.4728 92.1027 99.6296C92.4043 99.7883 92.7111 99.8507 93.0234 99.817C93.3356 99.7832 93.644 99.6423 93.9485 99.3943C94.2531 99.1462 94.449 98.8714 94.5365 98.5697C94.6239 98.2681 94.6149 97.9519 94.5096 97.6212C94.402 97.2923 94.21 96.9632 93.9336 96.6338C93.6572 96.3044 93.3682 96.0604 93.0667 95.9018C92.763 95.745 92.455 95.6835 92.1428 95.7172C91.8306 95.7509 91.5222 95.8918 91.2176 96.1399Z" fill="white"/>
<path d="M87.5337 97.8263L90.7806 103.099L89.7847 103.712L88.2875 101.281L87.7782 104.948L86.5627 105.696L87.1659 101.739L83.1766 100.51L84.4362 99.7339L88.0169 100.842L86.5378 98.4396L87.5337 97.8263Z" fill="white"/>
<path d="M80.2342 101.912L82.2562 107.764L77.4279 109.432L75.4058 103.58L76.5113 103.198L78.1767 108.018L80.7941 107.114L79.1287 102.294L80.2342 101.912Z" fill="white"/>
<path d="M74.0437 103.984L75.1107 110.083L72.5354 110.533C72.4761 110.544 72.3965 110.555 72.2967 110.566C72.1945 110.581 72.1027 110.589 72.0212 110.588C71.647 110.596 71.3281 110.528 71.0644 110.385C70.798 110.242 70.5852 110.041 70.4262 109.781C70.2676 109.523 70.1585 109.223 70.0987 108.882C70.039 108.54 70.0411 108.22 70.1051 107.92C70.1669 107.624 70.2989 107.364 70.5011 107.14C70.7006 106.915 70.9761 106.744 71.3276 106.624C71.4047 106.599 71.4936 106.574 71.5943 106.551C71.695 106.528 71.7735 106.511 71.83 106.501L73.2532 106.252L72.8916 104.185L74.0437 103.984ZM73.4414 107.328L72.069 107.568C72.0097 107.578 71.9453 107.593 71.8757 107.611C71.8061 107.629 71.7431 107.651 71.6868 107.679C71.5389 107.748 71.4312 107.84 71.3638 107.953C71.2968 108.07 71.2585 108.191 71.2486 108.318C71.2365 108.449 71.24 108.569 71.2593 108.679C71.2786 108.789 71.3158 108.902 71.3709 109.017C71.4237 109.136 71.5011 109.237 71.6031 109.321C71.7056 109.408 71.8382 109.459 72.0009 109.475C72.0632 109.481 72.1301 109.481 72.2017 109.474C72.2733 109.468 72.3387 109.459 72.398 109.449L73.7704 109.209L73.4414 107.328Z" fill="white"/>
<path d="M62.5303 105.119L63.7169 105.101L63.7806 109.229L66.4084 105.059L67.5951 105.041L67.6907 111.232L66.504 111.251L66.4403 107.123L63.8125 111.292L62.6259 111.311L62.5303 105.119Z" fill="white"/>
<path d="M58.115 104.755L56.7928 110.805L51.8022 109.714L53.1244 103.665L54.267 103.914L53.178 108.897L55.8834 109.488L56.9724 104.506L58.115 104.755Z" fill="white"/>
<path d="M49.3281 102.204C49.9045 102.43 50.353 102.751 50.6735 103.166C50.9914 103.58 51.1752 104.058 51.2251 104.598C51.2722 105.137 51.1785 105.705 50.944 106.303C50.7094 106.9 50.3915 107.381 49.9904 107.744C49.5866 108.106 49.1273 108.33 48.6126 108.418C48.0952 108.504 47.5483 108.434 46.9719 108.208C46.3955 107.982 45.9483 107.662 45.6305 107.248C45.31 106.832 45.1261 106.355 45.0789 105.816C45.0291 105.276 45.1214 104.708 45.356 104.11C45.5906 103.512 45.9098 103.032 46.3136 102.67C46.7147 102.307 47.174 102.082 47.6914 101.996C48.2061 101.909 48.7517 101.978 49.3281 102.204ZM48.926 103.229C48.5625 103.08 48.2274 103.039 47.9207 103.107C47.6139 103.174 47.3419 103.334 47.1045 103.586C46.8645 103.836 46.6659 104.162 46.5088 104.562C46.3518 104.962 46.277 105.333 46.2846 105.675C46.2894 106.016 46.3814 106.315 46.5603 106.573C46.7393 106.831 47.0105 107.035 47.374 107.184C47.7375 107.332 48.0726 107.373 48.3793 107.306C48.686 107.238 48.9594 107.079 49.1995 106.828C49.4368 106.577 49.6341 106.251 49.7911 105.85C49.9482 105.45 50.0243 105.079 50.0194 104.739C50.0119 104.397 49.9186 104.097 49.7397 103.839C49.5607 103.581 49.2895 103.378 48.926 103.229Z" fill="white"/>
<path d="M45.6966 100.802L42.6063 106.167L41.5928 105.584L43.0178 103.109L39.5508 104.408L38.3137 103.695L42.0806 102.341L41.2624 98.2479L42.5442 98.9861L43.2753 102.662L44.6831 100.218L45.6966 100.802Z" fill="white"/>
<path d="M40.3024 97.5048L38.5595 98.3532L37.5087 103.172L36.4609 102.362L37.3243 98.9528L34.202 100.615L33.2154 99.8527L39.3158 96.7421L40.3024 97.5048Z" fill="white"/>
<path d="M36.4911 94.521L32.0183 98.8029L28.4857 95.1128L32.9585 90.8309L33.7673 91.6758L30.0835 95.2024L31.9985 97.2028L35.6823 93.6761L36.4911 94.521Z" fill="white"/>
<path d="M32.0377 89.7315L26.9908 93.3188L26.3131 92.3655L28.6404 90.7113L24.948 90.4448L24.1209 89.2812L28.109 89.6224L29.0732 85.5607L29.9302 86.7664L29.0609 90.4124L31.3601 88.7781L32.0377 89.7315Z" fill="white"/>
<path d="M28.8522 85.1497L23.3654 88.0196L21.492 84.438L22.4598 83.9317L23.7911 86.477L24.9647 85.8632L23.8726 83.7751L24.8404 83.2689L25.9325 85.3569L27.3423 84.6195L26.011 82.0743L26.9788 81.5681L28.8522 85.1497Z" fill="white"/>
<path d="M22.3167 75.4463L21.4353 75.6425L20.8747 73.1241L21.7562 72.9279L22.3167 75.4463Z" fill="white"/>
<path d="M23.0198 64.572L16.8381 64.2138L17.1336 59.1139L23.3152 59.4721L23.2476 60.6397L18.1563 60.3448L17.9961 63.1093L23.0874 63.4043L23.0198 64.572Z" fill="white"/>
<path d="M24.134 55.5721C24.0018 56.177 23.756 56.6705 23.3966 57.0527C23.0379 57.432 22.5958 57.689 22.0705 57.8236C21.5458 57.9554 20.9698 57.9527 20.3424 57.8156C19.7151 57.6785 19.1905 57.4405 18.7687 57.1018C18.3474 56.7603 18.0529 56.3424 17.8851 55.848C17.718 55.3507 17.7005 54.7997 17.8327 54.1947C17.965 53.5898 18.2105 53.0977 18.5692 52.7183C18.9286 52.3362 19.3706 52.0792 19.8953 51.9474C20.4206 51.8128 20.997 51.8141 21.6243 51.9512C22.2516 52.0883 22.7759 52.3277 23.1972 52.6692C23.619 53.0079 23.9135 53.4258 24.0807 53.923C24.2484 54.4175 24.2662 54.9671 24.134 55.5721ZM23.0586 55.337C23.148 54.9546 23.1352 54.6172 23.0201 54.325C22.9049 54.0328 22.7043 53.7895 22.4182 53.5949C22.1327 53.3975 21.7799 53.2529 21.3598 53.1611C20.9398 53.0692 20.5616 53.0541 20.2254 53.1156C19.8898 53.1743 19.6087 53.3124 19.3822 53.5299C19.1556 53.7474 18.9976 54.0473 18.9082 54.4298C18.8187 54.8123 18.8315 55.1496 18.9467 55.4418C19.0618 55.734 19.2621 55.9787 19.5476 56.1761C19.8337 56.3707 20.1868 56.5139 20.6069 56.6057C21.027 56.6976 21.4048 56.7141 21.7404 56.6554C22.0766 56.5939 22.358 56.4544 22.5846 56.2369C22.8111 56.0194 22.9691 55.7195 23.0586 55.337Z" fill="white"/>
<path d="M25.6907 52.5655L23.7133 51.7895C23.7814 51.616 23.7963 51.4525 23.758 51.2989C23.7181 51.1416 23.6347 50.9934 23.5076 50.8542C23.3778 50.714 23.2151 50.5793 23.0194 50.4501C22.8238 50.321 22.6047 50.1965 22.3622 50.0767C22.0525 49.9244 21.747 49.7768 21.4458 49.634C21.142 49.4901 20.8275 49.342 20.5023 49.1898C20.1744 49.0365 19.8209 48.8701 19.4418 48.6905L20.9515 44.8669L25.6989 46.7299L25.8716 46.2896L27.849 47.0656L27.4218 48.1544L26.4611 47.7774L25.1573 51.0997L26.118 51.4767L25.6907 52.5655ZM24.3511 50.1643L25.2716 47.8187L21.541 46.3547L20.8481 48.0968C21.1049 48.2191 21.3415 48.3304 21.5577 48.4307C21.775 48.5283 21.994 48.6296 22.2145 48.7346C22.435 48.8396 22.6802 48.9605 22.9499 49.0971C23.2196 49.2338 23.44 49.351 23.611 49.4489C23.7793 49.5458 23.9192 49.6484 24.0306 49.7568C24.1431 49.8625 24.2499 49.9984 24.3511 50.1643Z" fill="white"/>
<path d="M27.0551 46.203L22.6862 41.4246L23.5742 39.9215L29.8677 41.4418L29.2553 42.4785L23.6961 41.1522L23.8099 40.9597L27.6675 45.1663L27.0551 46.203ZM26.5219 44.5694L25.5815 44.0139L27.2437 41.2002L28.184 41.7557L26.5219 44.5694Z" fill="white"/>
<path d="M30.7225 40.1223L25.9647 36.1593L27.638 34.1505C27.6765 34.1042 27.7301 34.0444 27.7987 33.971C27.867 33.8935 27.9323 33.8285 27.9947 33.776C28.2754 33.5286 28.5626 33.3742 28.8562 33.3128C29.1516 33.2492 29.4442 33.2653 29.7338 33.3611C30.0212 33.455 30.2982 33.6129 30.5647 33.8349C30.8312 34.0569 31.0368 34.3028 31.1815 34.5725C31.3258 34.8382 31.3934 35.1221 31.3843 35.4242C31.377 35.7241 31.278 36.0333 31.0872 36.3519C31.0446 36.421 30.9925 36.4969 30.9309 36.5799C30.8692 36.6629 30.8201 36.7264 30.7834 36.7704L29.8587 37.8806L31.471 39.2236L30.7225 40.1223ZM29.0195 37.1816L29.9111 36.1111C29.9497 36.0648 29.9896 36.0123 30.0311 35.9536C30.0726 35.8948 30.106 35.8368 30.1313 35.7796C30.1991 35.6309 30.2221 35.4914 30.2 35.3611C30.1757 35.229 30.1264 35.1114 30.0518 35.0083C29.9769 34.9011 29.8965 34.8117 29.8106 34.7402C29.7247 34.6686 29.6234 34.6066 29.5067 34.5542C29.3896 34.4977 29.265 34.4704 29.1328 34.4722C28.9985 34.4723 28.8643 34.5191 28.7304 34.6127C28.6786 34.648 28.6276 34.6913 28.5774 34.7427C28.5271 34.7941 28.4827 34.8429 28.4442 34.8892L27.5525 35.9596L29.0195 37.1816Z" fill="white"/>
<path d="M36.923 33.578C36.4575 33.9863 35.9667 34.2375 35.4506 34.3317C34.9367 34.4239 34.4285 34.3683 33.9258 34.1647C33.4254 33.9593 32.9634 33.6152 32.54 33.1324C32.1166 32.6496 31.8357 32.1467 31.6973 31.6237C31.5611 31.0988 31.5722 30.5877 31.7307 30.0902C31.8914 29.5908 32.2045 29.137 32.6701 28.7287C33.1356 28.3205 33.6253 28.0702 34.1392 27.9779C34.6552 27.8837 35.1635 27.9394 35.664 28.1448C36.1666 28.3484 36.6296 28.6916 37.053 29.1743C37.4764 29.6571 37.7563 30.1609 37.8925 30.6858C38.0309 31.2088 38.0198 31.72 37.8591 32.2194C37.7005 32.7168 37.3885 33.1697 36.923 33.578ZM36.1972 32.7504C36.4962 32.4957 36.6861 32.2167 36.767 31.9132C36.8478 31.6097 36.8308 31.2948 36.7161 30.9683C36.6036 30.64 36.4055 30.3142 36.122 29.9909C35.8384 29.6676 35.5432 29.4309 35.2361 29.2808C34.9312 29.1288 34.623 29.073 34.3116 29.1136C34.0002 29.1541 33.6949 29.3017 33.3959 29.5563C33.0968 29.811 32.9069 30.0901 32.8261 30.3935C32.7453 30.697 32.7611 31.0129 32.8737 31.3412C32.9884 31.6677 33.1875 31.9925 33.4711 32.3158C33.7546 32.6391 34.0488 32.8768 34.3537 33.0288C34.6608 33.1789 34.97 33.2337 35.2814 33.1932C35.5929 33.1526 35.8981 33.005 36.1972 32.7504Z" fill="white"/>
<path d="M39.9753 30.861L36.6322 25.649L37.6166 25.0175L39.1582 27.4208L39.6001 23.7453L40.8017 22.9745L40.2712 26.9419L44.2824 28.0982L43.0373 28.8969L39.4368 27.8551L40.9598 30.2295L39.9753 30.861Z" fill="white"/>
<path d="M47.0539 26.6765L44.9004 20.8711L49.6899 19.0944L51.8434 24.8999L50.7468 25.3067L48.9732 20.5252L46.3768 21.4883L48.1505 26.2698L47.0539 26.6765Z" fill="white"/>
<path d="M53.0942 24.4699L51.8876 18.3966L54.4519 17.8872C54.511 17.8755 54.5902 17.8626 54.6898 17.8487C54.7916 17.8314 54.8832 17.822 54.9647 17.8204C55.3386 17.8046 55.659 17.8651 55.9259 18.0021C56.1955 18.1385 56.4129 18.335 56.5778 18.5915C56.7422 18.8453 56.8582 19.1423 56.9258 19.4825C56.9934 19.8227 56.9986 20.1432 56.9414 20.4439C56.8865 20.7412 56.7605 21.0045 56.5635 21.2336C56.3692 21.4621 56.0977 21.6403 55.749 21.768C55.6725 21.7949 55.5842 21.8212 55.4841 21.847C55.384 21.8727 55.3058 21.8911 55.2496 21.9023L53.8325 22.1839L54.2414 24.242L53.0942 24.4699ZM53.6197 21.1126L54.9862 20.8411C55.0452 20.8294 55.1093 20.8137 55.1785 20.7941C55.2477 20.7745 55.3101 20.7504 55.3658 20.7218C55.5121 20.6489 55.6176 20.5549 55.6824 20.4397C55.7466 20.3218 55.7822 20.1993 55.7891 20.0722C55.7983 19.9418 55.792 19.8217 55.7702 19.7121C55.7484 19.6024 55.7086 19.4905 55.6509 19.3763C55.5954 19.2587 55.5157 19.1591 55.4118 19.0775C55.3073 18.993 55.1735 18.9451 55.0105 18.9336C54.9481 18.9285 54.8812 18.9301 54.8098 18.9384C54.7384 18.9467 54.6732 18.9568 54.6141 18.9685L53.2476 19.24L53.6197 21.1126Z" fill="white"/>
<path d="M64.8047 23.0409L63.6186 23.0821L63.4752 18.9566L60.9284 23.1756L59.7423 23.2168L59.5273 17.0286L60.7134 16.9873L60.8567 21.1129L63.4035 16.8939L64.5896 16.8527L64.8047 23.0409Z" fill="white"/>
<path d="M69.0271 23.267L70.2105 17.1892L75.2248 18.1654L74.0414 24.2433L72.8933 24.0198L73.868 19.014L71.1498 18.4848L70.1752 23.4906L69.0271 23.267Z" fill="white"/>
<path d="M78.088 25.6671C77.5074 25.4517 77.053 25.1394 76.7248 24.7303C76.3992 24.3221 76.2065 23.8485 76.1465 23.3095C76.0892 22.7716 76.1722 22.2016 76.3956 21.5995C76.6189 20.9975 76.9277 20.5112 77.322 20.1407C77.7189 19.7713 78.1739 19.538 78.6869 19.4409C79.2026 19.3447 79.7507 19.4044 80.3312 19.6197C80.9118 19.8351 81.3648 20.1468 81.6904 20.555C82.0186 20.9642 82.2114 21.4377 82.2687 21.9757C82.3286 22.5147 82.247 23.0852 82.0236 23.6872C81.8003 24.2893 81.4902 24.775 81.0932 25.1445C80.699 25.515 80.244 25.7483 79.7283 25.8444C79.2153 25.9415 78.6685 25.8824 78.088 25.6671ZM78.4708 24.635C78.837 24.7769 79.1729 24.8113 79.4783 24.7381C79.7837 24.6649 80.0527 24.5002 80.2853 24.244C80.5206 23.9888 80.713 23.6597 80.8625 23.2565C81.0121 22.8534 81.0799 22.481 81.0659 22.1395C81.0546 21.799 80.9571 21.5014 80.7734 21.2468C80.5896 20.9921 80.3146 20.7938 79.9484 20.6518C79.5822 20.5098 79.2463 20.4755 78.9409 20.5487C78.6355 20.6219 78.3652 20.7861 78.1299 21.0413C77.8973 21.2974 77.7062 21.6271 77.5567 22.0302C77.4071 22.4334 77.338 22.8052 77.3493 23.1457C77.3632 23.4872 77.4621 23.7853 77.6458 24.04C77.8296 24.2947 78.1046 24.493 78.4708 24.635Z" fill="white"/>
<path d="M81.7894 27.0045L84.7802 21.5827L85.8043 22.1477L84.4252 24.6477L87.8676 23.2859L89.1176 23.9754L85.3764 25.3983L86.2699 29.4761L84.9747 28.7616L84.176 25.0995L82.8135 27.5695L81.7894 27.0045Z" fill="white"/>
<path d="M87.226 30.1765L88.9531 29.2964L89.9158 24.4597L90.9783 25.2504L90.1772 28.6744L93.2687 26.9552L94.269 27.6997L88.2263 30.921L87.226 30.1765Z" fill="white"/>
<path d="M91.0187 33.0074L95.3972 28.629L99.0093 32.2412L94.6309 36.6196L93.8039 35.7926L97.41 32.1865L95.4519 30.2283L91.8458 33.8344L91.0187 33.0074Z" fill="white"/>
<path d="M95.546 37.6428L100.513 33.9457L101.211 34.884L98.9211 36.5887L102.618 36.7743L103.471 37.9195L99.4761 37.6658L98.6012 41.7476L97.718 40.561L98.5071 36.8968L96.2443 38.5811L95.546 37.6428Z" fill="white"/>
<path d="M98.9665 42.3438L104.399 39.373L106.339 42.9194L105.38 43.4434L104.002 40.9232L102.84 41.5586L103.971 43.6261L103.012 44.1501L101.882 42.0826L100.486 42.8459L101.864 45.3662L100.906 45.8902L98.9665 42.3438Z" fill="white"/>
<path d="M105.691 51.9163L106.568 51.7033L107.177 54.2106L106.299 54.4235L105.691 51.9163Z" fill="white"/>
<g clip-path="url(#clip0_702_775)">
<path d="M80 56H48C46.8954 56 46 56.8954 46 58V62C46 63.1046 46.8954 64 48 64H80C81.1046 64 82 63.1046 82 62V58C82 56.8954 81.1046 56 80 56Z" stroke="#F2F2F2" stroke-width="3" stroke-linecap="round" stroke-linejoin="round"/>
<path d="M64 56V82" stroke="#F2F2F2" stroke-width="3" stroke-linecap="round" stroke-linejoin="round"/>
<path d="M78 64V78C78 79.0609 77.5786 80.0783 76.8284 80.8284C76.0783 81.5786 75.0609 82 74 82H54C52.9391 82 51.9217 81.5786 51.1716 80.8284C50.4214 80.0783 50 79.0609 50 78V64" stroke="#F2F2F2" stroke-width="3" stroke-linecap="round" stroke-linejoin="round"/>
<path d="M55 56C53.6739 56 52.4021 55.4732 51.4645 54.5356C50.5268 53.5979 50 52.3261 50 51C50 49.6739 50.5268 48.4022 51.4645 47.4645C52.4021 46.5268 53.6739 46 55 46C56.9294 45.9664 58.8201 46.9025 60.4255 48.6863C62.0309 50.4701 63.2766 53.0188 64 56C64.7234 53.0188 65.9691 50.4701 67.5745 48.6863C69.1799 46.9025 71.0706 45.9664 73 46C74.3261 46 75.5979 46.5268 76.5355 47.4645C77.4732 48.4022 78 49.6739 78 51C78 52.3261 77.4732 53.5979 76.5355 54.5356C75.5979 55.4732 74.3261 56 73 56" stroke="#F2F2F2" stroke-width="3" stroke-linecap="round" stroke-linejoin="round"/>
</g>
<defs>
<clipPath id="clip0_702_775">
<rect width="48" height="48" fill="white" transform="translate(40 40)"/>
</clipPath>
</defs>
</svg>
