<svg width="356" height="250" viewBox="0 0 356 250" fill="none" xmlns="http://www.w3.org/2000/svg">
<path opacity="0.7" d="M157.279 36.2327C154.442 30.2357 157 23.0475 163.123 20.4932C221.651 -3.92277 287.156 -6.66169 347.723 13.0282C412.109 33.9595 466.049 78.6549 498.508 137.971C530.968 197.287 539.494 266.741 522.342 332.124C505.19 397.507 463.656 453.878 406.238 489.705C348.819 525.532 279.855 538.108 213.454 524.858C147.053 511.609 88.2333 473.537 49.0275 418.431C9.82167 363.324 -6.80696 295.348 2.54332 228.408C11.3406 165.427 42.5094 107.842 90.1507 66.019C95.1247 61.6524 102.686 62.4986 106.833 67.6569L167.403 142.991C171.561 148.163 170.692 155.694 165.875 160.258C142.201 182.69 126.729 212.555 122.189 245.057C117.093 281.54 126.155 318.587 147.522 348.62C168.89 378.653 200.946 399.402 237.135 406.623C273.324 413.844 310.909 406.99 342.202 387.464C373.495 367.939 396.131 337.216 405.479 301.583C414.827 265.949 410.18 228.096 392.49 195.769C374.799 163.442 345.402 139.083 310.312 127.675C279.035 117.508 245.342 118.314 214.757 129.746C208.556 132.064 201.426 129.554 198.595 123.57L157.279 36.2327Z" fill="#F2F2F2"/>
</svg>
