<svg width="168" height="27" viewBox="0 0 168 27" fill="none" xmlns="http://www.w3.org/2000/svg">
<path d="M0.816406 22H8.78516V16.0674H12.623C15.709 16.1064 18.0527 15.4668 19.6543 14.1484C21.2656 12.8301 22.0713 10.9062 22.0713 8.37695C22.0713 5.80859 21.2607 3.88477 19.6396 2.60547C18.0186 1.31641 15.6992 0.671875 12.6816 0.671875H0.816406V22ZM8.78516 11.2041V5.69629H11.4219C12.4082 5.69629 13.1016 5.90625 13.502 6.32617C13.9121 6.73633 14.1172 7.43945 14.1172 8.43555C14.1172 9.43164 13.9121 10.1445 13.502 10.5742C13.1016 10.9941 12.4082 11.2041 11.4219 11.2041H8.78516ZM24.459 22H32.4277V15.4668H35.6797C38.668 15.4277 41.0508 14.7686 42.8281 13.4893C44.6152 12.2002 45.5088 10.3594 45.5088 7.9668C45.5088 5.55469 44.6348 3.73828 42.8867 2.51758C41.1387 1.28711 38.751 0.671875 35.7236 0.671875H24.459V22ZM32.3838 10.75V5.62305H34.918C35.8066 5.62305 36.4609 5.82324 36.8809 6.22363C37.3105 6.61426 37.5205 7.26367 37.5107 8.17188C37.5107 9.02148 37.2959 9.66602 36.8662 10.1055C36.4463 10.5352 35.7969 10.75 34.918 10.75H32.3838ZM37.6279 22H46.5488L41.0703 12.0684L32.8232 12.4053L37.6279 22ZM47.4277 11.834C47.4277 15.4668 48.5605 18.1377 50.8262 19.8467C53.1016 21.5557 56.0117 22.4102 59.5566 22.4102C63.0918 22.4102 66.0117 21.5557 68.3164 19.8467C70.6211 18.1377 71.7734 15.4668 71.7734 11.834V10.8086C71.7734 7.19531 70.6211 4.53418 68.3164 2.8252C66.0117 1.11621 63.0918 0.261719 59.5566 0.261719C56.0117 0.261719 53.1016 1.11621 50.8262 2.8252C48.5605 4.53418 47.4277 7.19531 47.4277 10.8086V11.834ZM55.7188 12.8887V9.76855C55.7188 8.04004 56.0557 6.8584 56.7295 6.22363C57.4131 5.58887 58.3555 5.27148 59.5566 5.27148C60.7676 5.28125 61.7246 5.60352 62.4277 6.23828C63.1406 6.86328 63.4971 8.04492 63.4971 9.7832V12.9033C63.4971 14.6416 63.1406 15.8379 62.4277 16.4922C61.7246 17.1367 60.7676 17.4541 59.5566 17.4443C58.3555 17.4443 57.4131 17.1221 56.7295 16.4775C56.0557 15.833 55.7188 14.6367 55.7188 12.8887ZM90.2158 26.248H96.8516V16.7266H72.916V26.248H79.5518V22H90.2158V26.248ZM76.2852 0.671875L75.9336 10.3105C75.8555 12.6348 75.6553 14.3828 75.333 15.5547C75.0205 16.7168 74.4199 17.9814 73.5312 19.3486H79.8008C80.582 18.1768 81.1094 16.9756 81.3828 15.7451C81.666 14.5049 81.832 12.835 81.8809 10.7354L82.0273 5.94531H87.3447V21.1357H94.3027V0.671875H76.2852ZM96.3096 22H102.96L107.398 9.2998C107.535 8.92871 107.643 8.5625 107.721 8.20117C107.799 7.83008 107.862 7.5127 107.911 7.24902H108.014C108.072 7.5127 108.136 7.8252 108.204 8.18652C108.282 8.54785 108.39 8.91895 108.526 9.2998L113.111 22H121.856L113.155 0.613281H104.791L96.3096 22ZM101.876 18.6162H115.206L113.814 13.8262H103.238L101.876 18.6162ZM128.639 6.28223V0.671875H121.622V7.05859C121.622 9.8418 122.335 11.8438 123.761 13.0645C125.196 14.2852 127.462 14.8955 130.558 14.8955C131.7 14.8955 132.828 14.8418 133.941 14.7344C135.055 14.627 136.31 14.3877 137.706 14.0166V8.93359C136.593 9.17773 135.626 9.35352 134.806 9.46094C133.995 9.55859 133.014 9.60742 131.861 9.60742C130.699 9.60742 129.869 9.38281 129.371 8.93359C128.883 8.47461 128.639 7.59082 128.639 6.28223ZM141.28 0.671875H134.264V22H141.28V0.671875ZM142.394 22H149.044L153.482 9.2998C153.619 8.92871 153.727 8.5625 153.805 8.20117C153.883 7.83008 153.946 7.5127 153.995 7.24902H154.098C154.156 7.5127 154.22 7.8252 154.288 8.18652C154.366 8.54785 154.474 8.91895 154.61 9.2998L159.195 22H167.94L159.239 0.613281H150.875L142.394 22ZM147.96 18.6162H161.29L159.898 13.8262H149.322L147.96 18.6162Z" fill="#333333"/>
</svg>
