<svg width="168" height="27" viewBox="0 0 168 27" fill="none" xmlns="http://www.w3.org/2000/svg">
<path d="M0.816406 22V0.671875H12.6816C15.6992 0.671875 18.0186 1.31641 19.6396 2.60547C21.2607 3.88477 22.0713 5.80859 22.0713 8.37695C22.0713 10.9062 21.2656 12.8301 19.6543 14.1484C18.0527 15.4668 15.709 16.1064 12.623 16.0674H8.78516V22H0.816406ZM8.78516 11.2041H11.4219C12.4082 11.2041 13.1016 10.9941 13.502 10.5742C13.9121 10.1445 14.1172 9.43164 14.1172 8.43555C14.1172 7.43945 13.9121 6.73633 13.502 6.32617C13.1016 5.90625 12.4082 5.69629 11.4219 5.69629H8.78516V11.2041ZM24.459 22V0.671875H35.7236C38.751 0.671875 41.1387 1.28711 42.8867 2.51758C44.6348 3.73828 45.5088 5.55469 45.5088 7.9668C45.5088 10.3594 44.6152 12.2002 42.8281 13.4893C41.0508 14.7686 38.668 15.4277 35.6797 15.4668H32.4277V22H24.459ZM32.3838 10.75H34.918C35.7969 10.75 36.4463 10.5352 36.8662 10.1055C37.2959 9.66602 37.5107 9.02148 37.5107 8.17188C37.5205 7.26367 37.3105 6.61426 36.8809 6.22363C36.4609 5.82324 35.8066 5.62305 34.918 5.62305H32.3838V10.75ZM37.6279 22L32.8232 12.4053L41.0703 12.0684L46.5488 22H37.6279ZM47.4277 11.834V10.8086C47.4277 7.19531 48.5605 4.53418 50.8262 2.8252C53.1016 1.11621 56.0117 0.261719 59.5566 0.261719C63.0918 0.261719 66.0117 1.11621 68.3164 2.8252C70.6211 4.53418 71.7734 7.19531 71.7734 10.8086V11.834C71.7734 15.4668 70.6211 18.1377 68.3164 19.8467C66.0117 21.5557 63.0918 22.4102 59.5566 22.4102C56.0117 22.4102 53.1016 21.5557 50.8262 19.8467C48.5605 18.1377 47.4277 15.4668 47.4277 11.834ZM55.7188 12.8887C55.7188 14.6367 56.0557 15.833 56.7295 16.4775C57.4131 17.1221 58.3555 17.4443 59.5566 17.4443C60.7676 17.4541 61.7246 17.1367 62.4277 16.4922C63.1406 15.8379 63.4971 14.6416 63.4971 12.9033V9.7832C63.4971 8.04492 63.1406 6.86328 62.4277 6.23828C61.7246 5.60352 60.7676 5.28125 59.5566 5.27148C58.3555 5.27148 57.4131 5.58887 56.7295 6.22363C56.0557 6.8584 55.7188 8.04004 55.7188 9.76855V12.8887ZM90.2158 26.248V22H79.5518V26.248H72.916V16.7266H96.8516V26.248H90.2158ZM76.2852 0.671875H94.3027V21.1357H87.3447V5.94531H82.0273L81.8809 10.7354C81.832 12.835 81.666 14.5049 81.3828 15.7451C81.1094 16.9756 80.582 18.1768 79.8008 19.3486H73.5312C74.4199 17.9814 75.0205 16.7168 75.333 15.5547C75.6553 14.3828 75.8555 12.6348 75.9336 10.3105L76.2852 0.671875ZM96.3096 22L104.791 0.613281H113.155L121.856 22H113.111L108.526 9.2998C108.39 8.91895 108.282 8.54785 108.204 8.18652C108.136 7.8252 108.072 7.5127 108.014 7.24902H107.911C107.862 7.5127 107.799 7.83008 107.721 8.20117C107.643 8.5625 107.535 8.92871 107.398 9.2998L102.96 22H96.3096ZM101.876 18.6162L103.238 13.8262H113.814L115.206 18.6162H101.876ZM128.639 6.28223C128.639 7.59082 128.883 8.47461 129.371 8.93359C129.869 9.38281 130.699 9.60742 131.861 9.60742C133.014 9.60742 133.995 9.55859 134.806 9.46094C135.626 9.35352 136.593 9.17773 137.706 8.93359V14.0166C136.31 14.3877 135.055 14.627 133.941 14.7344C132.828 14.8418 131.7 14.8955 130.558 14.8955C127.462 14.8955 125.196 14.2852 123.761 13.0645C122.335 11.8438 121.622 9.8418 121.622 7.05859V0.671875H128.639V6.28223ZM141.28 0.671875V22H134.264V0.671875H141.28ZM142.394 22L150.875 0.613281H159.239L167.94 22H159.195L154.61 9.2998C154.474 8.91895 154.366 8.54785 154.288 8.18652C154.22 7.8252 154.156 7.5127 154.098 7.24902H153.995C153.946 7.5127 153.883 7.83008 153.805 8.20117C153.727 8.5625 153.619 8.92871 153.482 9.2998L149.044 22H142.394ZM147.96 18.6162L149.322 13.8262H159.898L161.29 18.6162H147.96Z" fill="#E41D13"/>
</svg>
