<svg width="51" height="38" viewBox="0 0 51 38" fill="none" xmlns="http://www.w3.org/2000/svg">
<g style="mix-blend-mode:luminosity" clip-path="url(#clip0_706_753)">
<path fill-rule="evenodd" clip-rule="evenodd" d="M4.68531 12.6688C5.13796 12.6662 6.48321 12.5494 7.05303 14.4031C7.43687 15.6518 8.0483 17.6973 8.88733 20.5395H9.22903C10.1288 17.543 10.7469 15.4976 11.0833 14.4031C11.6591 12.5301 13.0985 12.6688 13.6742 12.6688L18.1164 12.6688V25.9884H13.5888V18.1389H13.2852L10.7614 25.9884H7.35499L4.83112 18.1331H4.52752V25.9884H0V12.6688L4.68531 12.6688ZM24.6178 12.6688V20.5241H24.979L28.049 14.0648C28.645 12.7793 29.9151 12.6688 29.9151 12.6688H34.2964V25.9884H29.6743V18.1331H29.3131L26.3033 24.5925C25.7073 25.8721 24.377 25.9884 24.377 25.9884H19.9957V12.6688H24.6178ZM50.2723 18.9984C49.6276 20.7595 47.6029 22.0207 45.3613 22.0207H40.5141V25.9884H36.1188V18.9984H50.2723Z" fill="white"/>
<path fill-rule="evenodd" clip-rule="evenodd" d="M45.5731 12.6689H35.8882C36.1187 15.6343 38.768 18.1729 41.5106 18.1729H50.5776C51.1009 15.7083 49.2996 12.6689 45.5731 12.6689Z" fill="#A9A9A9"/>
</g>
<defs>
<clipPath id="clip0_706_753">
<rect width="50.6667" height="38" fill="white"/>
</clipPath>
</defs>
</svg>
