<svg width="51" height="38" viewBox="0 0 51 38" fill="none" xmlns="http://www.w3.org/2000/svg">
<g style="mix-blend-mode:luminosity">
<path d="M10.6797 36.3404V34.0286C10.6797 33.1443 10.1377 32.5653 9.2074 32.5653C8.74224 32.5653 8.23644 32.7179 7.8887 33.2206C7.61773 32.7987 7.22935 32.5653 6.64677 32.5653C6.25838 32.5653 5.87 32.682 5.5629 33.1039V32.6416H4.75V36.3404H5.5629V34.298C5.5629 33.6426 5.91064 33.3329 6.45257 33.3329C6.99451 33.3329 7.26548 33.6785 7.26548 34.298V36.3404H8.07838V34.298C8.07838 33.6426 8.46676 33.3329 8.96805 33.3329C9.50998 33.3329 9.78095 33.6785 9.78095 34.298V36.3404H10.6797ZM22.7377 32.6416H21.419V31.5239H20.6061V32.6416H19.8699V33.3733H20.6061V35.07C20.6061 35.9184 20.9538 36.4167 21.8841 36.4167C22.2319 36.4167 22.6203 36.3 22.8912 36.1474L22.6564 35.4516C22.4216 35.6042 22.1506 35.6446 21.9564 35.6446C21.568 35.6446 21.4145 35.4112 21.4145 35.0296V33.3733H22.7332V32.6416H22.7377ZM29.6383 32.5608C29.1731 32.5608 28.8615 32.7942 28.6673 33.0994V32.6371H27.8544V36.3359H28.6673V34.2531C28.6673 33.6381 28.9383 33.288 29.4441 33.288C29.5977 33.288 29.7918 33.3284 29.9499 33.3643L30.1847 32.5922C30.0222 32.5608 29.7918 32.5608 29.6383 32.5608ZM19.2106 32.9468C18.8222 32.6775 18.2803 32.5608 17.6977 32.5608C16.7674 32.5608 16.1487 33.0231 16.1487 33.7548C16.1487 34.3698 16.6138 34.7199 17.4267 34.8321L17.8151 34.8725C18.2396 34.9488 18.4745 35.0656 18.4745 35.2586C18.4745 35.5279 18.1629 35.7209 17.6209 35.7209C17.079 35.7209 16.65 35.5279 16.379 35.3349L15.9906 35.9498C16.4151 36.2596 16.9977 36.4122 17.5803 36.4122C18.6641 36.4122 19.2874 35.9095 19.2874 35.2182C19.2874 34.5628 18.7816 34.2172 18.0093 34.1005L17.6209 34.0601C17.2732 34.0197 17.0022 33.9433 17.0022 33.7144C17.0022 33.4451 17.2732 33.2925 17.7022 33.2925C18.1674 33.2925 18.6325 33.4855 18.8674 33.6022L19.2106 32.9468ZM40.8383 32.5608C40.3731 32.5608 40.0615 32.7942 39.8673 33.0994V32.6371H39.0544V36.3359H39.8673V34.2531C39.8673 33.6381 40.1383 33.288 40.6441 33.288C40.7976 33.288 40.9918 33.3284 41.1499 33.3643L41.3847 32.6012C41.2266 32.5608 40.9963 32.5608 40.8383 32.5608ZM30.4512 34.491C30.4512 35.6087 31.228 36.4167 32.4293 36.4167C32.9712 36.4167 33.3596 36.3 33.748 35.9947L33.3596 35.3394C33.048 35.5728 32.7409 35.685 32.3886 35.685C31.7293 35.685 31.2641 35.2227 31.2641 34.491C31.2641 33.7952 31.7293 33.3329 32.3886 33.297C32.7364 33.297 33.048 33.4137 33.3596 33.6426L33.748 32.9872C33.3596 32.6775 32.9712 32.5653 32.4293 32.5653C31.228 32.5608 30.4512 33.3733 30.4512 34.491ZM37.9705 34.491V32.6416H37.1576V33.1039C36.8867 32.7583 36.4983 32.5653 35.9925 32.5653C34.9447 32.5653 34.1318 33.3733 34.1318 34.491C34.1318 35.6087 34.9447 36.4167 35.9925 36.4167C36.5344 36.4167 36.9228 36.2237 37.1576 35.878V36.3404H37.9705V34.491ZM34.9854 34.491C34.9854 33.8356 35.4099 33.297 36.1099 33.297C36.7692 33.297 37.2344 33.7997 37.2344 34.491C37.2344 35.1463 36.7692 35.685 36.1099 35.685C35.4144 35.6446 34.9854 35.1419 34.9854 34.491ZM25.2577 32.5608C24.1738 32.5608 23.397 33.3329 23.397 34.4865C23.397 35.6446 24.1738 36.4122 25.2983 36.4122C25.8402 36.4122 26.3822 36.2596 26.8112 35.9095L26.4228 35.3304C26.1112 35.5638 25.7228 35.7164 25.339 35.7164C24.8332 35.7164 24.3319 35.483 24.2144 34.8321H26.9648C26.9648 34.7154 26.9648 34.6391 26.9648 34.5224C27.0009 33.3329 26.3009 32.5608 25.2577 32.5608ZM25.2577 33.2566C25.7635 33.2566 26.1112 33.5663 26.188 34.1409H24.2506C24.3274 33.6426 24.6751 33.2566 25.2577 33.2566ZM45.4537 34.491V31.1782H44.6408V33.1039C44.3699 32.7583 43.9815 32.5653 43.4757 32.5653C42.4279 32.5653 41.615 33.3733 41.615 34.491C41.615 35.6087 42.4279 36.4167 43.4757 36.4167C44.0176 36.4167 44.406 36.2237 44.6408 35.878V36.3404H45.4537V34.491ZM42.4686 34.491C42.4686 33.8356 42.8931 33.297 43.5931 33.297C44.2524 33.297 44.7176 33.7997 44.7176 34.491C44.7176 35.1463 44.2524 35.685 43.5931 35.685C42.8931 35.6446 42.4686 35.1419 42.4686 34.491ZM15.2545 34.491V32.6416H14.4416V33.1039C14.1706 32.7583 13.7822 32.5653 13.2764 32.5653C12.2287 32.5653 11.4158 33.3733 11.4158 34.491C11.4158 35.6087 12.2287 36.4167 13.2764 36.4167C13.8184 36.4167 14.2067 36.2237 14.4416 35.878V36.3404H15.2545V34.491ZM12.2332 34.491C12.2332 33.8356 12.6577 33.297 13.3577 33.297C14.0171 33.297 14.4822 33.7997 14.4822 34.491C14.4822 35.1463 14.0171 35.685 13.3577 35.685C12.6577 35.6446 12.2332 35.1419 12.2332 34.491Z" fill="white"/>
<path d="M31.5279 4.63184H19.1021V27.0352H31.5279V4.63184Z" fill="#E1DAD6"/>
<path d="M19.9292 15.8335C19.9292 11.2818 22.0615 7.24199 25.3333 4.6318C22.9254 2.7318 19.8879 1.5835 16.5746 1.5835C8.72576 1.5835 2.375 7.9568 2.375 15.8335C2.375 23.7102 8.72576 30.0835 16.5746 30.0835C19.8879 30.0835 22.9254 28.9352 25.3333 27.0352C22.0569 24.4619 19.9292 20.3852 19.9292 15.8335Z" fill="white"/>
<path d="M48.2916 15.8335C48.2916 23.7102 41.9408 30.0835 34.092 30.0835C30.7787 30.0835 27.7412 28.9352 25.3333 27.0352C28.6465 24.4204 30.7374 20.3852 30.7374 15.8335C30.7374 11.2818 28.6051 7.24199 25.3333 4.6318C27.7366 2.7318 30.7741 1.5835 34.0874 1.5835C41.9408 1.5835 48.2916 7.9983 48.2916 15.8335Z" fill="white"/>
</g>
</svg>
