<svg width="51" height="38" viewBox="0 0 51 38" fill="none" xmlns="http://www.w3.org/2000/svg">
<g style="mix-blend-mode:luminosity" clip-path="url(#clip0_706_755)">
<path d="M50.5844 15.5591V22.7204H48.0202V17.6969H45.5512V22.7204H42.9871V15.5586H50.5844V15.5591Z" fill="white"/>
<path fill-rule="evenodd" clip-rule="evenodd" d="M37.7209 22.9765C40.0164 22.9765 41.7209 21.5729 41.7209 19.4451C41.7209 17.3856 40.4633 16.0485 38.3615 16.0485C37.3915 16.0485 36.5911 16.389 35.9882 16.9765C36.1322 15.7622 37.1619 14.8756 38.2957 14.8756C38.5573 14.8756 40.5272 14.8714 40.5272 14.8714L41.6411 12.7456C41.6411 12.7456 39.168 12.8017 38.0183 12.8017C35.3915 12.8474 33.6172 15.2286 33.6172 18.1206C33.6172 21.4899 35.3477 22.9765 37.7209 22.9765ZM37.7349 17.9315C38.5872 17.9315 39.178 18.4899 39.178 19.4449C39.178 20.3043 38.653 21.0124 37.7349 21.0144C36.8567 21.0144 36.2658 20.3583 36.2658 19.4595C36.2658 18.5043 36.8567 17.9315 37.7349 17.9315V17.9315Z" fill="white"/>
<path d="M31.5299 20.323C31.5299 20.323 30.9243 20.6711 30.0199 20.737C28.9801 20.7678 28.0537 20.1129 28.0537 18.9493C28.0537 17.8142 28.8712 17.1637 29.9937 17.1637C30.682 17.1637 31.5925 17.6394 31.5925 17.6394C31.5925 17.6394 32.2588 16.4202 32.6039 15.8104C31.9719 15.3327 31.1302 15.0708 30.1511 15.0708C27.6802 15.0708 25.7664 16.6774 25.7664 18.9349C25.7664 21.2211 27.5651 22.7904 30.1511 22.743C30.8739 22.7162 31.8711 22.463 32.4788 22.0737L31.5299 20.323Z" fill="white"/>
<path d="M0 10.334L3.55695 16.6744V20.5419L0.00416103 26.8699L0 10.334Z" fill="white"/>
<path d="M13.6572 14.3673L16.9902 12.3301L23.8114 12.3237L13.6572 18.5272V14.3673Z" fill="white"/>
<path d="M13.6385 10.297L13.6573 18.6915L10.092 16.5068V3.9585L13.6387 10.297H13.6385Z" fill="white"/>
<path d="M23.8114 12.324L16.9901 12.3303L13.6385 10.297L10.092 3.9585L23.8112 12.324H23.8114Z" fill="white"/>
<path d="M13.6573 26.9054V22.8326L10.092 20.6895L10.094 33.2502L13.6573 26.9054Z" fill="white"/>
<path d="M16.9819 24.8863L3.5567 16.6744L0 10.334L23.7969 24.878L16.9817 24.8863H16.9819Z" fill="white"/>
<path d="M10.0942 33.2502L13.6571 26.9054L16.9817 24.8867L23.7968 24.8784L10.0942 33.2502Z" fill="white"/>
<path d="M0.00415039 26.8701L10.1211 20.6896L6.71981 18.6084L3.55694 20.5421L0.00415039 26.8701Z" fill="white"/>
</g>
<defs>
<clipPath id="clip0_706_755">
<rect width="50.6667" height="38" fill="white"/>
</clipPath>
</defs>
</svg>
