<svg width="51" height="38" viewBox="0 0 51 38" fill="none" xmlns="http://www.w3.org/2000/svg">
<g style="mix-blend-mode:luminosity" clip-path="url(#clip0_706_757)">
<path d="M21.9554 26.6879H17.8511L20.4182 11.3608H24.5224L21.9554 26.6879Z" fill="white"/>
<path d="M36.8342 11.7355C36.0246 11.4254 34.7406 11.083 33.1529 11.083C29.0997 11.083 26.2455 13.17 26.228 16.1538C26.1943 18.3552 28.2715 19.5779 29.8251 20.3119C31.413 21.062 31.9528 21.5515 31.9528 22.2201C31.9366 23.2469 30.6697 23.7202 29.488 23.7202C27.8493 23.7202 26.9713 23.4762 25.637 22.9049L25.0966 22.66L24.5222 26.1006C25.4848 26.5241 27.2584 26.8999 29.0997 26.9163C33.4063 26.9163 36.21 24.8617 36.2432 21.682C36.2596 19.9372 35.1627 18.6003 32.798 17.5078C31.3625 16.8065 30.4834 16.3336 30.4834 15.6161C30.5002 14.9638 31.2269 14.2956 32.8474 14.2956C34.1817 14.2629 35.1621 14.5726 35.9048 14.8825L36.276 15.0452L36.8342 11.7355V11.7355Z" fill="white"/>
<path d="M42.2893 21.2581C42.6273 20.3776 43.928 16.9697 43.928 16.9697C43.9109 17.0024 44.2653 16.0729 44.468 15.5023L44.7548 16.823C44.7548 16.823 45.532 20.4918 45.7008 21.2581C45.0594 21.2581 43.1 21.2581 42.2893 21.2581ZM47.3556 11.3608H44.1809C43.2019 11.3608 42.4581 11.6378 42.0357 12.6325L35.9392 26.6877H40.2458C40.2458 26.6877 40.9548 24.796 41.1072 24.3886C41.5796 24.3886 45.7691 24.3886 46.3768 24.3886C46.4947 24.9267 46.8666 26.6877 46.8666 26.6877H50.6668L47.3556 11.3608V11.3608Z" fill="white"/>
<path d="M14.4231 11.3608L10.4036 21.8124L9.96434 19.6927C9.22122 17.2469 6.89062 14.5895 4.28979 13.2682L7.97153 26.6717H12.3118L18.7631 11.3608H14.4231V11.3608Z" fill="white"/>
<path d="M6.67106 11.3608H0.0675565L0 11.6705C5.15115 12.9424 8.56265 16.0083 9.96429 19.6934L8.52876 12.6492C8.29243 11.6703 7.56614 11.3931 6.67106 11.3608Z" fill="#FAA61A"/>
</g>
<defs>
<clipPath id="clip0_706_757">
<rect width="50.6667" height="38" fill="white"/>
</clipPath>
</defs>
</svg>
