<svg width="344" height="220" viewBox="0 0 344 220" fill="none" xmlns="http://www.w3.org/2000/svg">
<path d="M524.179 -72.1726C527.389 -77.9824 534.719 -80.0991 540.41 -76.6836C614.879 -31.9938 670.741 38.3689 697.304 121.36C725.09 208.176 718.712 302.25 679.475 384.337C640.237 466.424 571.105 530.32 486.221 562.954C401.338 595.587 307.118 594.491 222.836 559.891C138.554 525.291 70.5806 459.801 32.8207 376.819C-4.93926 293.837 -9.63173 199.634 19.7032 113.482C49.0382 27.3296 110.184 -44.2609 190.631 -86.6443C267.548 -127.168 356.552 -138.063 440.894 -117.546C447.321 -115.983 451.05 -109.363 449.29 -102.987L412.463 30.4085C410.696 36.8093 404.071 40.5195 397.577 39.1332C353.221 29.6643 306.846 35.9746 266.556 57.2013C222.713 80.3003 189.388 119.317 173.401 166.27C157.413 213.223 159.971 264.564 180.55 309.789C201.129 355.014 238.175 390.706 284.108 409.563C330.042 428.42 381.392 429.017 427.653 411.232C473.915 393.447 511.592 358.624 532.976 313.886C554.361 269.149 557.837 217.879 542.693 170.564C528.77 127.062 500.075 89.9268 461.794 65.483C456.217 61.9217 454.1 54.6629 457.3 48.8709L524.179 -72.1726Z" fill="#EAEAEA"/>
</svg>
