<svg width="40" height="40" viewBox="0 0 40 40" fill="none" xmlns="http://www.w3.org/2000/svg">
<path d="M6.66675 31.6666C6.66675 32.5507 7.01794 33.3985 7.64306 34.0237C8.26818 34.6488 9.11603 35 10.0001 35C10.8841 35 11.732 34.6488 12.3571 34.0237C12.9822 33.3985 13.3334 32.5507 13.3334 31.6666C13.3334 30.7826 12.9822 29.9347 12.3571 29.3096C11.732 28.6845 10.8841 28.3333 10.0001 28.3333C9.11603 28.3333 8.26818 28.6845 7.64306 29.3096C7.01794 29.9347 6.66675 30.7826 6.66675 31.6666Z" stroke="white" stroke-width="2" stroke-linecap="round" stroke-linejoin="round"/>
<path d="M25 31.6666C25 32.5507 25.3512 33.3985 25.9763 34.0237C26.6014 34.6488 27.4493 35 28.3333 35C29.2174 35 30.0652 34.6488 30.6904 34.0237C31.3155 33.3985 31.6667 32.5507 31.6667 31.6666C31.6667 30.7826 31.3155 29.9347 30.6904 29.3096C30.0652 28.6845 29.2174 28.3333 28.3333 28.3333C27.4493 28.3333 26.6014 28.6845 25.9763 29.3096C25.3512 29.9347 25 30.7826 25 31.6666Z" stroke="white" stroke-width="2" stroke-linecap="round" stroke-linejoin="round"/>
<path d="M28.3334 28.3333H10.0001V5H6.66675" stroke="white" stroke-width="2" stroke-linecap="round" stroke-linejoin="round"/>
<path d="M33.3333 10L31.6667 21.6667H10" stroke="white" stroke-width="2" stroke-linecap="round" stroke-linejoin="round"/>
<path d="M16.6667 16.6667L26.6667 6.66669" stroke="white" stroke-width="2" stroke-linecap="round" stroke-linejoin="round"/>
<path d="M16.6667 7.50002C16.6667 7.72103 16.7545 7.933 16.9108 8.08928C17.0671 8.24556 17.2791 8.33335 17.5001 8.33335C17.7211 8.33335 17.9331 8.24556 18.0893 8.08928C18.2456 7.933 18.3334 7.72103 18.3334 7.50002C18.3334 7.27901 18.2456 7.06705 18.0893 6.91076C17.9331 6.75448 17.7211 6.66669 17.5001 6.66669C17.2791 6.66669 17.0671 6.75448 16.9108 6.91076C16.7545 7.06705 16.6667 7.27901 16.6667 7.50002Z" stroke="white" stroke-width="2" stroke-linecap="round" stroke-linejoin="round"/>
<path d="M25 15.8333C25 16.0543 25.0878 16.2663 25.2441 16.4226C25.4004 16.5789 25.6123 16.6667 25.8333 16.6667C26.0543 16.6667 26.2663 16.5789 26.4226 16.4226C26.5789 16.2663 26.6667 16.0543 26.6667 15.8333C26.6667 15.6123 26.5789 15.4004 26.4226 15.2441C26.2663 15.0878 26.0543 15 25.8333 15C25.6123 15 25.4004 15.0878 25.2441 15.2441C25.0878 15.4004 25 15.6123 25 15.8333Z" stroke="white" stroke-width="2" stroke-linecap="round" stroke-linejoin="round"/>
</svg>
