<svg width="385" height="29" viewBox="0 0 385 29" fill="none" xmlns="http://www.w3.org/2000/svg">
<path d="M19.4663 11.8589C21.0319 12.9888 21.0319 15.32 19.4663 16.4499L10.1493 23.1739C8.27703 24.5251 5.66174 23.1873 5.66174 20.8784L5.66174 7.43044C5.66174 5.12155 8.27703 3.78375 10.1493 5.13493L19.4663 11.8589Z" fill="#F2F2F2"/>
<path d="M42.1134 11.8589C43.679 12.9888 43.679 15.32 42.1134 16.4499L32.7964 23.1739C30.9241 24.5251 28.3088 23.1873 28.3088 20.8784L28.3088 7.43044C28.3088 5.12155 30.9241 3.78375 32.7964 5.13493L42.1134 11.8589Z" fill="#F2F2F2"/>
<path d="M64.7604 11.8589C66.326 12.9888 66.326 15.32 64.7604 16.4499L55.4434 23.1739C53.5712 24.5251 50.9559 23.1873 50.9559 20.8784L50.9559 7.43044C50.9559 5.12155 53.5712 3.78375 55.4434 5.13493L64.7604 11.8589Z" fill="#F2F2F2"/>
<path d="M87.4075 11.8589C88.9731 12.9888 88.9731 15.32 87.4075 16.4499L78.0905 23.1739C76.2183 24.5251 73.603 23.1873 73.603 20.8784L73.603 7.43044C73.603 5.12155 76.2183 3.78375 78.0905 5.13493L87.4075 11.8589Z" fill="#F2F2F2"/>
<path d="M110.054 11.8589C111.62 12.9888 111.62 15.32 110.054 16.4499L100.737 23.1739C98.8652 24.5251 96.2499 23.1873 96.2499 20.8784L96.2499 7.43044C96.2499 5.12155 98.8652 3.78375 100.737 5.13493L110.054 11.8589Z" fill="#F2F2F2"/>
<path d="M132.702 11.8589C134.267 12.9888 134.267 15.32 132.702 16.4499L123.385 23.1739C121.512 24.5251 118.897 23.1873 118.897 20.8784L118.897 7.43044C118.897 5.12155 121.512 3.78375 123.385 5.13493L132.702 11.8589Z" fill="#F2F2F2"/>
<path d="M155.349 11.8589C156.914 12.9888 156.914 15.32 155.349 16.4499L146.032 23.1739C144.159 24.5251 141.544 23.1873 141.544 20.8784L141.544 7.43044C141.544 5.12155 144.159 3.78375 146.032 5.13493L155.349 11.8589Z" fill="#F2F2F2"/>
<path d="M177.996 11.8589C179.561 12.9888 179.561 15.32 177.996 16.4499L168.679 23.1739C166.807 24.5251 164.191 23.1873 164.191 20.8784L164.191 7.43044C164.191 5.12155 166.807 3.78375 168.679 5.13493L177.996 11.8589Z" fill="#F2F2F2"/>
<path d="M200.643 11.8589C202.208 12.9888 202.208 15.32 200.643 16.4499L191.326 23.1739C189.454 24.5251 186.838 23.1873 186.838 20.8784L186.838 7.43044C186.838 5.12155 189.454 3.78375 191.326 5.13493L200.643 11.8589Z" fill="#F2F2F2"/>
<path d="M223.29 11.8589C224.855 12.9888 224.855 15.32 223.29 16.4499L213.973 23.1739C212.101 24.5251 209.485 23.1873 209.485 20.8784L209.485 7.43044C209.485 5.12155 212.101 3.78375 213.973 5.13493L223.29 11.8589Z" fill="#F2F2F2"/>
<path d="M245.937 11.8589C247.503 12.9888 247.503 15.32 245.937 16.4499L236.62 23.1739C234.748 24.5251 232.132 23.1873 232.132 20.8784L232.132 7.43044C232.132 5.12155 234.748 3.78375 236.62 5.13493L245.937 11.8589Z" fill="#F2F2F2"/>
<path d="M268.584 11.8589C270.15 12.9888 270.15 15.32 268.584 16.4499L259.267 23.1739C257.395 24.5251 254.779 23.1873 254.779 20.8784L254.779 7.43044C254.779 5.12155 257.395 3.78375 259.267 5.13493L268.584 11.8589Z" fill="#F2F2F2"/>
<path d="M291.231 11.8589C292.797 12.9888 292.797 15.32 291.231 16.4499L281.914 23.1739C280.042 24.5251 277.427 23.1873 277.427 20.8784L277.427 7.43044C277.427 5.12155 280.042 3.78375 281.914 5.13493L291.231 11.8589Z" fill="#F2F2F2"/>
<path d="M313.878 11.8589C315.444 12.9888 315.444 15.32 313.878 16.4499L304.561 23.1739C302.689 24.5251 300.074 23.1873 300.074 20.8784L300.074 7.43044C300.074 5.12155 302.689 3.78375 304.561 5.13493L313.878 11.8589Z" fill="#F2F2F2"/>
<path d="M336.525 11.8589C338.091 12.9888 338.091 15.32 336.525 16.4499L327.208 23.1739C325.336 24.5251 322.72 23.1873 322.72 20.8784L322.72 7.43044C322.72 5.12155 325.336 3.78375 327.208 5.13493L336.525 11.8589Z" fill="#F2F2F2"/>
<path d="M359.172 11.8589C360.738 12.9888 360.738 15.32 359.172 16.4499L349.855 23.1739C347.983 24.5251 345.368 23.1873 345.368 20.8784L345.368 7.43044C345.368 5.12155 347.983 3.78375 349.855 5.13493L359.172 11.8589Z" fill="#F2F2F2"/>
<path d="M381.819 11.8589C383.385 12.9888 383.385 15.32 381.819 16.4499L372.502 23.1739C370.63 24.5251 368.015 23.1873 368.015 20.8784L368.015 7.43044C368.015 5.12155 370.63 3.78375 372.502 5.13493L381.819 11.8589Z" fill="#F2F2F2"/>
</svg>
