<?xml version="1.0" encoding="utf-8"?>
<!-- Generator: Adobe Illustrator 22.0.0, SVG Export Plug-In . SVG Version: 6.00 Build 0)  -->
<svg version="1.1" id="Слой_1" xmlns="http://www.w3.org/2000/svg" xmlns:xlink="http://www.w3.org/1999/xlink" x="0px" y="0px"
	 viewBox="0 0 30 30" style="enable-background:new 0 0 30 30;" xml:space="preserve">
<style type="text/css">
	.st0{fill:#0C9E6A;}
	.st1{fill:#FFFFFF;}
</style>
<circle class="st0" cx="15" cy="15" r="15"/>
<path class="st1" d="M10.2,13.9c1.3,2.5,3.3,4.6,5.9,5.9l2-2c0.2-0.2,0.6-0.3,0.9-0.2c1,0.3,2.1,0.5,3.2,0.5c0.5,0,0.9,0.4,0.9,0.9
	v3.1c0,0.5-0.4,0.9-0.9,0.9C13.8,23,7,16.2,7,7.9C7,7.4,7.4,7,7.9,7H11c0.5,0,0.9,0.4,0.9,0.9c0,1.1,0.2,2.2,0.5,3.2
	c0.1,0.3,0,0.7-0.2,0.9L10.2,13.9z"/>
</svg>
