<svg width="73" height="72" viewBox="0 0 73 72" fill="none" xmlns="http://www.w3.org/2000/svg">
<g clip-path="url(#clip0)">
<path fill-rule="evenodd" clip-rule="evenodd" d="M13.3562 23.1864C13.3562 10.4016 23.7577 0 36.5426 0C49.3275 0 59.729 10.4016 59.7291 23.1864V51.2543H64.6107C65.2843 51.2543 65.8311 51.8009 65.8311 52.4746V58.5762H69.492C70.1656 58.5762 70.7124 59.123 70.7124 59.7966V70.7797C70.7124 71.4533 70.1656 72 69.492 72H3.59376C2.92016 72 2.37341 71.4533 2.37341 70.7797V59.7966C2.37341 59.123 2.92016 58.5762 3.59376 58.5762H7.25486V52.4746C7.25486 51.8011 7.80161 51.2543 8.4752 51.2543H13.3562V23.1864ZM57.2883 51.2543V23.1864C57.2883 11.747 47.982 2.44069 36.5426 2.44069C25.1032 2.44069 15.7969 11.747 15.7969 23.1864V51.2543H57.2883ZM58.5088 53.6948H14.5766H9.69555V58.5762H63.3904H63.3905V53.6948H58.5088ZM4.8141 61.0169H8.45862L8.4752 61.017H64.6107L64.6273 61.0169H68.2717V69.5593H4.8141V61.0169ZM43.8647 42.7119H24.3392C23.6656 42.7119 23.1189 43.2586 23.1189 43.9322C23.1189 44.6058 23.6656 45.1526 24.3392 45.1526H43.8646C44.5382 45.1526 45.0849 44.6058 45.0849 43.9322C45.0849 43.2586 44.5383 42.7119 43.8647 42.7119ZM24.3392 37.8305H40.2037C40.8773 37.8305 41.4241 38.3773 41.4241 39.0509C41.4241 39.7245 40.8773 40.2712 40.2037 40.2712H24.3392C23.6656 40.2712 23.1189 39.7245 23.1189 39.0509C23.1189 38.3773 23.6656 37.8305 24.3392 37.8305ZM47.5258 32.9492H24.3392C23.6656 32.9492 23.1189 33.496 23.1189 34.1696C23.1189 34.8431 23.6656 35.3899 24.3392 35.3899H47.5256C48.1992 35.3899 48.746 34.8431 48.746 34.1696C48.7461 33.496 48.1994 32.9492 47.5258 32.9492ZM28.0001 12.2034H45.0849C45.7585 12.2034 46.3053 12.75 46.3053 13.4237V29.2882C46.3053 29.9618 45.7585 30.5085 45.0849 30.5085H28.0001C27.3265 30.5085 26.7798 29.9618 26.7798 29.2882V13.4237C26.7798 12.7501 27.3265 12.2034 28.0001 12.2034ZM43.7422 28.0677H43.8646V14.6439H29.2204V28.0677H29.3433C29.7309 26.1661 31.0058 24.5832 32.7151 23.772C32.0555 22.9396 31.6612 21.8879 31.6612 20.7459C31.6612 18.0544 33.8512 15.8645 36.5426 15.8645C39.234 15.8645 41.424 18.0543 41.424 20.7459C41.424 21.8878 41.0297 22.9395 40.3702 23.7719C42.0796 24.5831 43.3546 26.166 43.7422 28.0677ZM31.8707 28.0677H41.2149C40.7114 26.6473 39.3538 25.6271 37.7631 25.6271H36.576C36.5649 25.6272 36.5537 25.6272 36.5426 25.6272C36.5314 25.6272 36.5203 25.6272 36.5092 25.6271H35.3224C33.7317 25.6271 32.3741 26.6473 31.8707 28.0677ZM36.5426 23.1864C35.1965 23.1864 34.1019 22.0918 34.1019 20.7457C34.1019 19.3996 35.1965 18.305 36.5426 18.305C37.8886 18.305 38.9833 19.3996 38.9833 20.7457C38.9833 22.0918 37.8886 23.1864 36.5426 23.1864Z" fill="white"/>
</g>
<defs>
<clipPath id="clip0">
<rect width="72" height="72" fill="white" transform="translate(0.542603)"/>
</clipPath>
</defs>
</svg>
