<svg width="33" height="33" viewBox="0 0 33 33" fill="none" xmlns="http://www.w3.org/2000/svg">
<path fill-rule="evenodd" clip-rule="evenodd" d="M16.4324 1.61711C16.6919 1.44354 17.0319 1.44891 17.2858 1.6306L27.9142 9.23575C28.111 9.37657 28.2278 9.60369 28.2278 9.84568V28.7405H29.7278C30.142 28.7405 30.4778 29.0763 30.4778 29.4905C30.4778 29.9048 30.142 30.2405 29.7278 30.2405H3.22778C2.81357 30.2405 2.47778 29.9048 2.47778 29.4905C2.47778 29.0763 2.81357 28.7405 3.22778 28.7405H4.72778V9.84568C4.72778 9.59531 4.85272 9.36144 5.06084 9.22226L16.4324 1.61711ZM26.7278 10.2313V28.7405H23.2278V14.2405C23.2278 13.8263 22.892 13.4905 22.4778 13.4905H10.4778C10.0636 13.4905 9.72778 13.8263 9.72778 14.2405V28.7405H6.22778V10.2464L16.8349 3.15245L26.7278 10.2313ZM11.2278 23.7405V20.2405H21.7278V23.7405H11.2278ZM11.2278 25.2405V28.7405H21.7278V25.2405H11.2278ZM11.2278 18.7405V14.9905H21.7278V18.7405H11.2278Z" fill="#0C9E6A"/>
</svg>
