<svg width="64" height="64" viewBox="0 0 64 64" fill="none" xmlns="http://www.w3.org/2000/svg">
<path d="M48.4693 31.1201L25.1892 15.1201C24.8624 14.8961 24.4444 14.8748 24.0978 15.0575C23.7525 15.2401 23.5355 15.6041 23.5355 16.0001V48.0001C23.5355 48.3961 23.7525 48.7601 24.0978 48.9428C24.2539 49.0268 24.4232 49.0681 24.5886 49.0681C24.8016 49.0681 25.008 49.0055 25.1892 48.8801L48.4693 32.8801C48.759 32.6828 48.935 32.3548 48.935 32.0001C48.935 31.6455 48.759 31.3175 48.4693 31.1201ZM25.6483 45.9788V18.0215L45.994 32.0001L25.6483 45.9788Z" fill="black"/>
<path d="M32 0C14.492 0 0.249023 14.3547 0.249023 32C0.249023 49.6453 14.492 64 32 64C49.508 64 63.751 49.6453 63.751 32C63.751 14.3547 49.508 0 32 0ZM32 61.864C15.6588 61.864 2.3684 48.4693 2.3684 32C2.3684 15.5307 15.6588 2.136 32 2.136C48.3412 2.136 61.6316 15.5307 61.6316 32C61.6316 48.4693 48.3412 61.864 32 61.864Z" fill="black"/>
</svg>
