<svg width="73" height="72" viewBox="0 0 73 72" fill="none" xmlns="http://www.w3.org/2000/svg">
<g clip-path="url(#clip0)">
<path fill-rule="evenodd" clip-rule="evenodd" d="M68.3245 30.7255H69.3786C71.1229 30.7255 72.5421 32.1446 72.5425 33.889V50.7651C72.5425 52.5094 71.1234 53.9285 69.3791 53.9285H68.3249V61.313V61.3136C68.3244 64.9964 65.3281 67.9924 61.6453 67.9924H7.22348C3.55121 67.9924 0.562229 65.0133 0.544651 61.345C0.544482 61.3406 0.54418 61.3363 0.543877 61.332C0.54342 61.3255 0.542963 61.3191 0.542963 61.3125V57.0923C0.542963 56.5115 1.01687 56.0376 1.59765 56.0376C2.17984 56.0376 2.65233 56.5115 2.65233 57.0923V61.2962C2.6524 61.2986 2.65257 61.301 2.65275 61.3034C2.65296 61.3064 2.65318 61.3094 2.65318 61.3125C2.65318 63.8327 4.70349 65.8831 7.22348 65.8831H61.6453C64.1652 65.8831 66.2156 63.8327 66.2156 61.3125V53.9285H54.6153L54.6133 53.9287C54.6114 53.9287 54.6095 53.9285 54.6077 53.9283C54.6065 53.9282 54.6054 53.9281 54.6043 53.9281C54.5669 53.9278 54.5301 53.9256 54.4938 53.9215C54.4877 53.9208 54.4817 53.9198 54.4757 53.9188C54.4711 53.918 54.4665 53.9173 54.4619 53.9166C54.4325 53.9124 54.4035 53.9073 54.375 53.9007C54.3673 53.8988 54.3598 53.8968 54.3522 53.8948C54.3484 53.8938 54.3446 53.8928 54.3408 53.8918C54.3129 53.8844 54.2857 53.8759 54.2588 53.8664C54.2477 53.8624 54.2367 53.8585 54.2257 53.8542C54.1975 53.843 54.1699 53.8305 54.1429 53.817C54.14 53.8156 54.137 53.8142 54.1339 53.8128C54.1283 53.8101 54.1225 53.8075 54.1169 53.8045C54.083 53.7865 54.0503 53.7667 54.0186 53.7452C54.0126 53.7411 54.0068 53.7366 54.0009 53.7321C53.9971 53.7292 53.9933 53.7262 53.9894 53.7234C53.9793 53.716 53.9694 53.7085 53.9597 53.7009C53.9482 53.692 53.9369 53.6828 53.9258 53.6733C53.9143 53.6633 53.903 53.6529 53.8916 53.6422C53.8724 53.6241 53.8538 53.6052 53.8359 53.5857C53.8271 53.5761 53.8179 53.5667 53.8094 53.5566C53.7832 53.5258 53.7585 53.4937 53.7358 53.4601L53.735 53.459L48.1104 45.0226C48.071 44.9637 48.0378 44.9013 48.0114 44.8366C48.0014 44.8124 47.9934 44.7878 47.9854 44.7633C47.9843 44.7597 47.983 44.7562 47.9817 44.7527C47.9803 44.7489 47.9788 44.745 47.9777 44.7411C47.9698 44.7148 47.9636 44.6884 47.9578 44.6619C47.9572 44.6594 47.9566 44.6569 47.9559 44.6544C47.9549 44.6503 47.9538 44.6463 47.953 44.6422C47.9483 44.6182 47.9452 44.594 47.9421 44.5698C47.9416 44.5659 47.941 44.562 47.9404 44.5582C47.9395 44.5523 47.9386 44.5465 47.938 44.5407C47.936 44.5208 47.9355 44.5006 47.9348 44.4807C47.9346 44.4755 47.9343 44.4703 47.934 44.4651C47.9335 44.4558 47.9329 44.4465 47.9329 44.4372C47.9329 44.4222 47.9342 44.4073 47.9349 44.3924L47.9352 44.3835C47.9358 44.367 47.9363 44.3505 47.938 44.3339C47.9385 44.3291 47.9391 44.3244 47.9398 44.3198C47.9406 44.3143 47.9415 44.3088 47.9422 44.3033C47.9452 44.2796 47.9483 44.2558 47.9529 44.2322C47.9543 44.2253 47.9563 44.2185 47.9578 44.2117C47.9636 44.1855 47.9696 44.1592 47.9775 44.1332C47.9787 44.1292 47.9802 44.1252 47.9817 44.1212C47.9829 44.1179 47.9841 44.1145 47.9852 44.1111C47.9933 44.0866 48.0013 44.062 48.0113 44.0378C48.0376 43.973 48.0707 43.9107 48.11 43.8519L53.7347 35.4143C53.735 35.4138 53.7354 35.4132 53.7358 35.4128C53.7549 35.3842 53.7753 35.3567 53.7971 35.3301C53.8101 35.3143 53.8241 35.2998 53.8378 35.2851C53.8475 35.2744 53.8568 35.2631 53.867 35.2529C53.8845 35.2354 53.9029 35.2195 53.9213 35.2035C53.9253 35.2 53.9291 35.1964 53.9331 35.1927C53.9363 35.1898 53.9395 35.1869 53.9428 35.1841C53.96 35.1699 53.9781 35.1571 53.9961 35.1442C54.0008 35.1407 54.0054 35.1372 54.0101 35.1337C54.0152 35.1298 54.0203 35.126 54.0256 35.1225C54.0408 35.1124 54.0567 35.1034 54.0723 35.0941C54.0864 35.0857 54.1002 35.0768 54.1148 35.0691C54.1269 35.0628 54.1394 35.0573 54.1518 35.0514C54.1596 35.0475 54.1674 35.0437 54.1752 35.0399C54.1862 35.0346 54.1973 35.0295 54.2086 35.0248C54.2175 35.0211 54.2265 35.0183 54.2353 35.0149C54.2585 35.0061 54.2817 34.9974 54.3056 34.99C54.3089 34.989 54.3122 34.9882 54.3156 34.9874C54.3182 34.9868 54.3208 34.9861 54.3233 34.9854C54.3502 34.9778 54.3772 34.9705 54.4048 34.965C54.4076 34.9645 54.4104 34.9641 54.4132 34.9637C54.4152 34.9634 54.4173 34.9631 54.4194 34.9628C54.452 34.9567 54.4852 34.9519 54.5188 34.949C54.549 34.9463 54.5794 34.9445 54.6099 34.9445L54.6119 34.9443H66.2151V27.561C66.2151 25.042 64.1668 22.9925 61.6485 22.9905L61.6448 22.9907H7.22292C5.45569 22.9907 3.84779 22.2997 2.65191 21.1752V52.873C2.65191 53.4552 2.17941 53.9277 1.59723 53.9277C1.01645 53.9277 0.542542 53.4552 0.542542 52.873V16.3106C0.542542 16.3066 0.542823 16.3027 0.543106 16.2988C0.543353 16.2953 0.543601 16.2919 0.543667 16.2884C0.55576 12.6152 3.54713 9.63077 7.22292 9.63077H10.6186L11.8246 4.80565C11.8253 4.80254 11.8263 4.7995 11.8274 4.79646C11.8282 4.79388 11.8291 4.79129 11.8298 4.78864C11.8305 4.786 11.831 4.78336 11.8316 4.78071C11.8322 4.77771 11.8328 4.77469 11.8337 4.77162C11.8356 4.7651 11.8379 4.75885 11.8402 4.75259C11.8419 4.74778 11.8437 4.74296 11.8453 4.73801L11.8468 4.7333C11.852 4.71718 11.8572 4.70119 11.8631 4.68556C11.8693 4.66925 11.8762 4.65336 11.8832 4.63747L11.8858 4.63168C11.8921 4.61744 11.8984 4.60324 11.9053 4.58937C11.9133 4.5732 11.9222 4.55745 11.931 4.54184L11.9328 4.5388C11.9402 4.52559 11.9477 4.51231 11.9558 4.49951C11.9659 4.48334 11.9769 4.46759 11.988 4.45198C11.9893 4.45012 11.9907 4.44825 11.992 4.44639C11.9992 4.43631 12.0064 4.42626 12.014 4.4164C12.0265 4.40023 12.0397 4.38476 12.0531 4.36944C12.0552 4.36708 12.0572 4.36473 12.0592 4.36238C12.066 4.35463 12.0727 4.34693 12.0797 4.33948C12.0943 4.32401 12.1096 4.30939 12.1251 4.29476C12.1273 4.29266 12.1296 4.29054 12.1318 4.28842C12.1386 4.28207 12.1453 4.27571 12.1522 4.26959C12.1687 4.25511 12.1858 4.24147 12.2031 4.22811C12.2054 4.22637 12.2076 4.22462 12.2099 4.22288C12.2169 4.21742 12.2239 4.21199 12.231 4.20687C12.249 4.1938 12.2676 4.1817 12.2864 4.16989C12.2884 4.16862 12.2904 4.16735 12.2924 4.16608C12.3002 4.16118 12.3079 4.15633 12.3158 4.15175C12.3349 4.14036 12.3545 4.13023 12.3743 4.12025C12.3771 4.11883 12.38 4.1174 12.3828 4.11596C12.3903 4.11216 12.3978 4.10836 12.4055 4.10478C12.4253 4.09564 12.4456 4.08734 12.466 4.07947C12.4774 4.07497 12.4886 4.07061 12.5 4.06653C12.5203 4.0595 12.5405 4.05345 12.561 4.04755L12.5638 4.04676C12.5752 4.04351 12.5866 4.04028 12.5982 4.03742C12.6183 4.0325 12.6385 4.02856 12.659 4.02491C12.6616 4.02444 12.6642 4.02398 12.6668 4.02351C12.6776 4.02156 12.6884 4.0196 12.6993 4.01801C12.7191 4.01506 12.7392 4.01323 12.7593 4.01155C12.7628 4.01127 12.7663 4.01098 12.7698 4.0107C12.7807 4.00979 12.7916 4.00888 12.8026 4.00845C12.8222 4.00761 12.8417 4.00775 12.8614 4.00803C12.864 4.00808 12.8665 4.00812 12.869 4.00816C12.8819 4.00838 12.8948 4.00859 12.9077 4.0093C12.9267 4.01042 12.9456 4.01239 12.9648 4.01464C12.9682 4.01505 12.9716 4.01544 12.975 4.01584C12.9879 4.01735 13.0008 4.01885 13.0138 4.02097C13.0297 4.02355 13.0456 4.02689 13.0615 4.03023L13.0683 4.03166C13.0732 4.03273 13.0782 4.0336 13.0832 4.03448C13.0899 4.03566 13.0966 4.03685 13.1034 4.03855C13.1065 4.03931 13.1096 4.04031 13.1126 4.04132C13.1152 4.04218 13.1178 4.04304 13.1204 4.04375C13.1233 4.04452 13.1261 4.04512 13.1289 4.04572C13.1318 4.04632 13.1346 4.04691 13.1375 4.04769L32.6791 9.63105H61.6448C65.3279 9.63105 68.3245 12.6276 68.3245 16.3109V27.5608V30.7255ZM32.2167 11.6929L13.6066 6.37545L11.3867 15.2573H44.6922L32.2194 11.6936L32.2167 11.6929ZM61.6448 20.881C63.4116 20.881 65.0193 21.5719 66.215 22.6961V16.3109C66.215 13.7907 64.1647 11.7404 61.6447 11.7404H40.0616L52.3703 15.2573H60.2373C60.8198 15.2573 61.292 15.7295 61.292 16.312C61.292 16.8945 60.8198 17.3667 60.2373 17.3667H52.2265L52.2231 17.367C52.2223 17.367 52.2215 17.3668 52.2206 17.3668C52.2202 17.3667 52.2197 17.3667 52.2192 17.3667H10.0401L10.0368 17.367L10.0323 17.3667H7.2232C6.64073 17.3667 6.16852 16.8945 6.16852 16.312C6.16852 15.7295 6.64073 15.2573 7.2232 15.2573H9.21248L10.0914 11.7404H7.22292C4.70278 11.7404 2.65247 13.7907 2.65247 16.3109C2.65247 18.831 4.70278 20.8813 7.22292 20.8813H61.6393C61.6413 20.8813 61.643 20.881 61.6448 20.881ZM69.3786 51.8186C69.9598 51.8186 70.4327 51.3457 70.4327 50.7645V36.8712C70.1159 36.9834 69.7762 37.0464 69.4224 37.0513C69.4077 37.0519 69.3934 37.0536 69.3786 37.0536H55.1764L50.2547 44.4367L55.1764 51.8186H69.3786ZM69.3568 34.9442C69.3641 34.9441 69.3713 34.9431 69.3786 34.9431C69.9598 34.9431 70.4327 34.4702 70.4327 33.889C70.4327 33.3078 69.9598 32.8348 69.3786 32.8348H68.3245V34.9442H69.3568ZM54.9642 44.4366C54.9642 42.3042 56.6989 40.5693 58.8314 40.5693C60.9638 40.5693 62.6986 42.3042 62.6986 44.4366C62.6986 46.5691 60.9638 48.3038 58.8314 48.3038C56.6989 48.3038 54.9642 46.5691 54.9642 44.4366ZM57.0736 44.4366C57.0736 45.406 57.862 46.1945 58.8314 46.1945C59.8007 46.1945 60.5892 45.406 60.5892 44.4366C60.5892 43.4673 59.8007 42.6787 58.8314 42.6787C57.862 42.6787 57.0736 43.4673 57.0736 44.4366Z" fill="white"/>
</g>
<defs>
<clipPath id="clip0">
<rect width="72" height="72" fill="white" transform="translate(0.542542)"/>
</clipPath>
</defs>
</svg>
