<svg width="33" height="33" viewBox="0 0 33 33" fill="none" xmlns="http://www.w3.org/2000/svg">
<path fill-rule="evenodd" clip-rule="evenodd" d="M15.6957 9.41655C15.8853 9.33135 16.1017 9.32865 16.2934 9.40909L23.4778 12.4245C23.7564 12.5414 23.9376 12.814 23.9376 13.1161V21.2507C23.9376 21.5527 23.7564 21.8253 23.4778 21.9422L16.2934 24.9576C16.1017 25.0381 15.8853 25.0354 15.6957 24.9502L8.98572 21.9348C8.7164 21.8137 8.54315 21.5459 8.54315 21.2507V13.1161C8.54315 12.8208 8.7164 12.553 8.98572 12.432L15.6957 9.41655ZM16.0133 10.9183L10.9327 13.2015L16.1446 15.5484L21.4032 13.1805L16.0133 10.9183ZM22.4376 14.3598V20.7521L16.8945 23.0786V16.8558L22.4376 14.3598ZM10.0432 20.7655V14.446L15.3945 16.8557V23.1703L10.0432 20.7655Z" fill="#0C9E6A"/>
<path fill-rule="evenodd" clip-rule="evenodd" d="M4.14447 2.24054C4.14447 1.68825 4.59219 1.24054 5.14447 1.24054H21.1445C21.3031 1.24054 21.4531 1.27748 21.5863 1.34322C21.6903 1.37918 21.7879 1.43865 21.8708 1.52163L27.8263 7.47705C27.8846 7.53536 27.9313 7.60089 27.9664 7.67075C28.0787 7.83242 28.1445 8.02879 28.1445 8.24054V30.2405C28.1445 30.7928 27.6968 31.2405 27.1445 31.2405H5.14447C4.59219 31.2405 4.14447 30.7928 4.14447 30.2405V2.24054ZM26.6445 8.74054V29.7405H5.64447V2.74054H20.6445V7.0147C20.6445 7.96785 21.4172 8.74054 22.3703 8.74054H26.6445ZM25.4684 7.24054L22.1445 3.91658V7.0147C22.1445 7.13943 22.2456 7.24054 22.3703 7.24054H25.4684Z" fill="#0C9E6A"/>
</svg>
