<svg width="73" height="72" viewBox="0 0 73 72" fill="none" xmlns="http://www.w3.org/2000/svg">
<g clip-path="url(#clip0)">
<path d="M53.7926 34.8352C53.7938 33.6571 53.2562 32.5437 52.3334 31.8116C53.3066 30.6649 53.525 29.0574 52.8932 27.6929C52.2608 26.3278 50.8932 25.4548 49.3897 25.456H40.8108L41.1652 24.5185C41.7231 23.0494 42.008 21.4911 42.0068 19.9199V19.7803C42.0061 18.5856 41.522 17.4419 40.6638 16.6102C39.8062 15.7784 38.6484 15.3294 37.4543 15.365C35.0372 15.4936 33.1498 17.5016 33.1708 19.9218C33.1708 21.0679 31.5602 23.7015 30.2554 25.4579H20.5802C19.9712 25.4579 19.4778 25.9513 19.4778 26.5603V48.6266C19.4778 49.2357 19.9712 49.729 20.5802 49.729H47.6634C49.0562 49.7297 50.3414 48.9797 51.0261 47.7672C51.7102 46.554 51.6886 45.0665 50.9683 43.8743C52.0756 43.3784 52.8852 42.3898 53.1534 41.2062C53.4223 40.0225 53.1177 38.7817 52.3327 37.8564C53.2549 37.125 53.7926 36.0121 53.7926 34.8352V34.8352ZM21.6827 27.6633H29.6974V47.5242H21.6827V27.6633ZM49.9317 36.4913H49.3891C48.78 36.4913 48.2866 36.9847 48.2866 37.5938C48.2866 38.2028 48.78 38.6962 49.3891 38.6962C50.3032 38.6962 51.0445 39.4375 51.0445 40.3523C51.0445 41.2665 50.3032 42.0078 49.3891 42.0078H47.6634C47.0544 42.0078 46.561 42.5018 46.561 43.1102C46.561 43.7192 47.0544 44.2126 47.6634 44.2126C48.5776 44.2126 49.3189 44.9539 49.3189 45.8687C49.3189 46.7829 48.5776 47.5242 47.6634 47.5242H31.9022V26.9337C32.8367 25.6978 35.3756 22.1334 35.3756 19.9224C35.3467 18.692 36.2898 17.656 37.5171 17.5686C38.1163 17.5502 38.6976 17.7754 39.1283 18.1925C39.5583 18.6096 39.8013 19.1835 39.8013 19.7827V19.9224C39.8025 21.2266 39.5657 22.5203 39.103 23.7396L38.1839 26.1727C38.056 26.5117 38.1021 26.8913 38.3082 27.1896C38.5137 27.4874 38.8527 27.6652 39.215 27.6658H49.3891C50.3032 27.6658 51.0445 28.4071 51.0445 29.3213C51.0445 30.2361 50.3032 30.9774 49.3891 30.9774C48.78 30.9774 48.2866 31.4708 48.2866 32.0798C48.2866 32.6888 48.78 33.1822 49.3891 33.1822H49.9317C50.8464 33.1822 51.5877 33.9235 51.5877 34.8383C51.5877 35.7531 50.8464 36.4944 49.9317 36.4944V36.4913ZM24.9309 41.1317C23.3461 41.1317 22.0622 42.4162 22.0622 44.0004C22.0622 45.5851 23.3461 46.869 24.9309 46.869C26.515 46.869 27.7995 45.5851 27.7995 44.0004C27.7977 42.4169 26.5144 41.1336 24.9309 41.1317ZM24.9309 44.6635C24.5642 44.6635 24.2665 44.3664 24.2671 43.9998C24.2671 43.6331 24.5642 43.3353 24.9309 43.336C25.2981 43.336 25.5953 43.6337 25.5947 44.0004C25.594 44.367 25.2969 44.6635 24.9309 44.6635ZM70.8039 33.3754C71.822 31.7765 72.1573 29.8368 71.7353 27.9888C71.3139 26.1413 70.1702 24.5388 68.5597 23.5397C66.9503 22.5357 66.0632 20.6944 66.2816 18.8101C66.5049 16.9282 65.9654 15.0347 64.7836 13.5533C63.6018 12.0713 61.8762 11.1239 59.9919 10.9221C58.1063 10.7166 56.5087 9.44381 55.8873 7.65176C55.2715 5.85909 53.9642 4.38755 52.2565 3.56504C50.5487 2.74314 48.5825 2.63794 46.7973 3.27467C45.0089 3.90647 43.0163 3.45184 41.6795 2.10642C40.347 0.758532 38.5303 0 36.6349 0C34.7395 0 32.9228 0.758532 31.5903 2.10642C30.2535 3.45246 28.2603 3.90708 26.4725 3.27467C24.6866 2.63856 22.7217 2.74376 21.0139 3.56565C19.3068 4.38816 17.9989 5.8597 17.3831 7.65176C16.763 9.44443 15.1647 10.7185 13.2791 10.924C11.3942 11.1257 9.66857 12.0731 8.48741 13.5551C7.30562 15.0371 6.7661 16.9301 6.9888 18.8126C7.20781 20.6963 6.3207 22.5376 4.71197 23.5415C3.1014 24.5406 1.95776 26.1426 1.53635 27.99C1.11433 29.8374 1.44961 31.7765 2.46652 33.3754C3.48097 34.978 3.48097 37.0216 2.46652 38.6242C1.449 40.2237 1.11372 42.1634 1.53512 44.0108C1.95714 45.8589 3.10079 47.4614 4.71074 48.4605C6.3207 49.4645 7.20719 51.3058 6.9888 53.1895C6.7661 55.072 7.30562 56.9649 8.48741 58.4469C9.66857 59.9289 11.3942 60.8763 13.2791 61.0781C15.1641 61.283 16.7624 62.5564 17.3831 64.3478C17.9989 66.1405 19.3068 67.612 21.0146 68.4346C22.7223 69.2571 24.6879 69.3617 26.4738 68.7255C28.2615 68.0925 30.2547 68.5471 31.5916 69.8938C32.9241 71.2417 34.7407 72.0002 36.6361 72.0002C38.5315 72.0002 40.3482 71.2417 41.6807 69.8938C43.0175 68.5478 45.0101 68.0931 46.7985 68.7255C48.5838 69.3617 50.5493 69.2565 52.2565 68.4339C53.9642 67.612 55.2715 66.1405 55.8873 64.3478C56.5081 62.5558 58.1063 61.2817 59.9919 61.0762C61.8762 60.8745 63.6018 59.9271 64.7836 58.4451C65.9654 56.9631 66.5049 55.0701 66.2816 53.1876C66.0632 51.3039 66.9497 49.4627 68.559 48.4587C70.1696 47.4596 71.3133 45.857 71.7353 44.0096C72.1573 42.1616 71.822 40.2219 70.8039 38.6224C69.7907 37.0204 69.7907 34.978 70.8039 33.3754V33.3754ZM68.9442 39.8078C69.6455 40.9103 69.8768 42.2471 69.5858 43.5205C69.2954 44.794 68.5068 45.8982 67.397 46.5873C65.0617 48.044 63.7747 50.7158 64.0921 53.4497C64.2459 54.7472 63.8737 56.052 63.0592 57.0732C62.2447 58.0944 61.0556 58.7471 59.7569 58.8862C57.0205 59.1851 54.7019 61.0338 53.8018 63.6348C53.3773 64.8701 52.4761 65.8846 51.2992 66.4512C50.1224 67.0178 48.7677 67.0904 47.5373 66.6517C44.9424 65.7333 42.051 66.3934 40.1113 68.3466C39.1935 69.2755 37.9416 69.7984 36.6349 69.7984C35.3288 69.7984 34.0769 69.2755 33.1584 68.3466C31.22 66.3921 28.3273 65.732 25.7325 66.6517C24.5021 67.0904 23.1474 67.0178 21.9706 66.4512C20.7937 65.8846 19.8924 64.8701 19.4686 63.6348C18.5686 61.0338 16.2493 59.1851 13.5135 58.8862C12.2142 58.7471 11.0251 58.0944 10.2106 57.0732C9.39604 56.052 9.02447 54.7472 9.17827 53.4497C9.49571 50.7158 8.20934 48.0434 5.87346 46.5873C4.76303 45.8982 3.97497 44.794 3.68399 43.5205C3.39362 42.2471 3.62493 40.9103 4.32625 39.8078C5.7984 37.483 5.7984 34.5172 4.32625 32.1918C3.62493 31.09 3.39362 29.7531 3.68399 28.4791C3.97497 27.2056 4.76303 26.1014 5.87346 25.413C8.20872 23.9562 9.49571 21.2844 9.17888 18.5505C9.02508 17.2531 9.39666 15.9482 10.2112 14.927C11.0257 13.9052 12.2149 13.2525 13.5141 13.1134C16.2499 12.8151 18.5692 10.9658 19.4692 8.36476C19.8931 7.12946 20.7943 6.11562 21.9712 5.54842C23.148 4.98182 24.5027 4.90985 25.7331 5.34848C28.328 6.26634 31.22 5.60686 33.1591 3.65362C34.0775 2.72468 35.3295 2.20177 36.6355 2.20177C37.9422 2.20177 39.1941 2.72468 40.112 3.65362C42.0517 5.60686 44.9431 6.26634 47.5379 5.34848C48.7683 4.90985 50.123 4.98182 51.2998 5.54842C52.4767 6.11562 53.378 7.12946 53.8024 8.36476C54.7025 10.9658 57.0211 12.8151 59.7575 13.1134C61.0562 13.2525 62.2453 13.9052 63.0598 14.927C63.8744 15.9482 64.2466 17.2531 64.0928 18.5505C63.7747 21.2844 65.0617 23.9568 67.3976 25.413C68.5074 26.1014 69.296 27.2056 69.5864 28.4791C69.8774 29.7531 69.6461 31.09 68.9448 32.1918C67.472 34.5172 67.472 37.4824 68.9442 39.8078V39.8078ZM36.6355 9.18235C21.8242 9.18235 9.81807 21.1897 9.81807 36.0004C9.81807 50.8112 21.8254 62.8179 36.6361 62.8179C51.4475 62.8179 63.4536 50.8112 63.4536 35.9998C63.437 21.1958 51.4395 9.19896 36.6355 9.18235V9.18235ZM36.6355 60.6136C23.0422 60.613 12.0229 49.5937 12.0229 36.0004C12.0229 22.4071 23.0422 11.3878 36.6355 11.3878C50.2288 11.3872 61.2487 22.4065 61.2487 35.9998C61.2333 49.5869 50.2226 60.5976 36.6355 60.613V60.6136Z" fill="white"/>
</g>
<defs>
<clipPath id="clip0">
<rect width="72" height="72" fill="white" transform="translate(0.542557)"/>
</clipPath>
</defs>
</svg>
