<?xml version="1.0" encoding="utf-8"?>
<!-- Generator: Adobe Illustrator 22.0.0, SVG Export Plug-In . SVG Version: 6.00 Build 0)  -->
<svg version="1.1" id="Слой_1" xmlns="http://www.w3.org/2000/svg" xmlns:xlink="http://www.w3.org/1999/xlink" x="0px" y="0px"
	 viewBox="0 0 30 30" style="enable-background:new 0 0 30 30;" xml:space="preserve">
<style type="text/css">
	.st0{fill:#844E9F;}
	.st1{fill:#FFFFFF;}
</style>
<circle class="st0" cx="15" cy="15" r="15"/>
<path class="st1" d="M24.6,10L24.6,10c-0.5-2-2.7-4.1-4.7-4.5l0,0c-3.2-0.6-6.5-0.6-9.7,0l0,0C8.1,5.9,5.9,8,5.5,9.9l0,0
	c-0.6,2.7-0.6,5.5,0,8.2l0,0c0.5,1.9,2.5,3.9,4.4,4.4v2.2c0,0.8,1,1.2,1.5,0.6l2.2-2.3c0.5,0,1,0,1.4,0c1.6,0,3.3-0.2,4.9-0.5l0,0
	c2-0.4,4.2-2.5,4.7-4.5l0,0C25.1,15.5,25.1,12.7,24.6,10L24.6,10z M22.8,17.8c-0.3,1.3-2,2.9-3.3,3.1c-1.7,0.3-3.4,0.5-5.2,0.4
	c0,0-0.1,0-0.1,0L12.6,23l-1.7,1.8c-0.1,0.1-0.3,0-0.3-0.1v-3.6c0-0.1,0-0.1-0.1-0.1h0c-1.3-0.3-3-1.9-3.3-3.1c-0.5-2.5-0.5-5,0-7.4
	c0.3-1.3,2-2.9,3.3-3.1c3-0.6,6-0.6,9,0c1.3,0.3,3,1.9,3.3,3.1C23.3,12.8,23.3,15.3,22.8,17.8L22.8,17.8z M17.9,19.4L17.9,19.4
	c0.1,0,0.1,0,0.2,0h0l0,0l0,0c0.1,0,0.2-0.1,0.3-0.1c0.6-0.3,0.9-0.8,1.2-1.3c0.1-0.3,0.1-0.6-0.2-0.8c-0.2-0.2-0.5-0.4-0.8-0.6
	l-0.1,0c-0.3-0.2-0.6-0.4-0.9-0.6c-0.3-0.2-0.7-0.2-0.9,0c-0.1,0.1-0.2,0.2-0.3,0.3c-0.2,0.2-0.3,0.4-0.6,0.4
	c-0.2,0-0.4-0.1-0.6-0.1l-0.1,0c-1.3-0.6-2.1-1.6-2.6-2.9c-0.1-0.2-0.1-0.4,0-0.5c0.1-0.1,0.1-0.2,0.2-0.2l0,0l0,0
	c0.1-0.1,0.1-0.1,0.2-0.2c0.4-0.3,0.4-0.7,0.2-1.1c-0.4-0.6-0.8-1.2-1.3-1.8c-0.2-0.3-0.5-0.3-0.8-0.2c-0.4,0.2-0.7,0.4-1,0.8
	c-0.3,0.3-0.6,0.8-0.4,1.3l0.1,0.1l0,0c0.2,0.5,0.4,0.9,0.6,1.4c0.5,1,1.1,2,1.9,2.9c1.3,1.5,3.1,2.5,4.9,3.3c0.1,0,0.3,0.1,0.4,0.1
	l0,0C17.7,19.4,17.8,19.4,17.9,19.4L17.9,19.4L17.9,19.4z M19.8,13c-0.4-2.4-2.4-4-4.8-4.1l0,0c0,0-0.1,0-0.1,0
	c-0.2,0-0.3,0.2-0.3,0.3c0,0.2,0.2,0.2,0.4,0.2l0,0c0.1,0,0.2,0,0.3,0c0.2,0,0.4,0,0.6,0.1c1.8,0.3,3.2,1.8,3.5,3.6
	c0,0.3,0.1,0.5,0.1,0.8l0,0c0,0.1,0,0.1,0,0.2c0,0.2,0.1,0.3,0.3,0.3c0.2,0,0.3-0.2,0.3-0.3l0-0.2C19.9,13.7,19.9,13.4,19.8,13z
	 M18.7,13.7L18.7,13.7l0-0.1l0,0c0-0.1,0-0.2,0-0.3c0,0,0-0.1,0-0.1l0,0c0,0,0,0,0-0.1c-0.2-1.1-0.7-2-1.7-2.5
	c-0.5-0.3-1-0.4-1.6-0.4c-0.2,0-0.3,0.1-0.3,0.3c0,0.2,0.1,0.3,0.2,0.3c0.1,0,0.1,0,0.2,0l0,0c0.1,0,0.2,0,0.3,0
	c0.3,0.1,0.6,0.1,0.9,0.3c0.5,0.2,0.9,0.6,1.1,1.1c0.3,0.4,0.4,1,0.4,1.5c0,0.1,0,0.2,0,0.2c0.1,0.2,0.5,0.2,0.5,0
	C18.7,13.8,18.7,13.8,18.7,13.7L18.7,13.7C18.7,13.7,18.7,13.7,18.7,13.7L18.7,13.7L18.7,13.7z M16.8,13.4c0,0.2,0.1,0.3,0.3,0.3v0
	c0.1,0,0.2-0.1,0.2-0.2c0-0.1,0-0.1,0-0.2c0,0,0,0,0,0c-0.1-1.1-0.8-1.6-1.7-1.7c-0.2,0-0.3,0.1-0.3,0.2c0,0.2,0.1,0.3,0.2,0.3
	c0.1,0,0.1,0,0.2,0c0.1,0,0.2,0,0.2,0c0.1,0,0.2,0.1,0.3,0.2c0.2,0.2,0.3,0.4,0.4,0.6C16.8,13.1,16.8,13.2,16.8,13.4
	C16.8,13.3,16.8,13.3,16.8,13.4z"/>
</svg>
