<svg width="73" height="72" viewBox="0 0 73 72" fill="none" xmlns="http://www.w3.org/2000/svg">
<g clip-path="url(#clip0)">
<path fill-rule="evenodd" clip-rule="evenodd" d="M38.373 0H70.1018C71.4498 0 72.5425 1.09273 72.5425 2.44068V13.4237C72.5425 14.7717 71.4498 15.8644 70.1018 15.8644H69.7113L65.7696 25.7003C66.873 25.9551 67.6562 26.9354 67.6611 28.0678V31.7288C67.6611 33.0768 66.5684 34.1695 65.2205 34.1695H64.0001V37.8305C64.0001 39.1785 62.9074 40.2712 61.5594 40.2712H60.3391V47.5932C60.3391 47.9773 60.1583 48.339 59.851 48.5695L55.4577 51.8644V56.1356C55.4577 56.8096 54.9114 57.3559 54.2374 57.3559C53.5634 57.3559 53.0171 56.8096 53.0171 56.1356V51.8644L48.6238 48.5695C48.3166 48.339 48.1357 47.9773 48.1357 47.5932V40.2712H46.9154C45.5674 40.2712 44.4747 39.1785 44.4747 37.8305V34.1695H43.2544C41.9064 34.1695 40.8137 33.0768 40.8137 31.7288V28.0678C40.8212 26.9281 41.6165 25.9454 42.7296 25.7003C42.3605 24.7812 42.1717 24.3138 41.9973 23.8822L41.9972 23.882L41.9972 23.8819C41.5837 22.8584 41.2515 22.0361 38.7879 15.8644C38.2189 15.9272 37.6448 15.8029 37.1527 15.5105C36.3907 15.0947 35.9212 14.2917 35.9323 13.4237V2.44068C35.9323 1.09273 37.025 0 38.373 0ZM54.2374 49.7288L57.8984 46.9831V40.2712H50.5764V46.9831L54.2374 49.7288ZM54.2374 31.7288H65.2205V28.0678H43.2544V31.7288H49.356C50.03 31.7288 50.5764 32.2752 50.5764 32.9492C50.5764 33.6231 50.03 34.1695 49.356 34.1695H46.9154V37.8305H61.5594V34.1695H54.2374C53.5634 34.1695 53.0171 33.6231 53.0171 32.9492C53.0171 32.2752 53.5634 31.7288 54.2374 31.7288ZM45.3045 25.6271H63.1703L67.0266 15.8644H41.3994L45.3045 25.6271ZM38.373 13.4237H70.1018V2.44068H38.373V13.4237ZM3.54461 33.8278C1.78332 34.1498 0.513376 35.6985 0.542577 37.4888V44.3959C0.513376 46.1862 1.78332 47.7349 3.54461 48.0569L10.6836 49.3505C10.7568 49.5457 10.8422 49.741 10.9277 49.924L6.79071 55.7695C5.78438 57.2258 5.9642 59.1936 7.21783 60.4434L12.0992 65.3247C13.3521 66.5745 15.3196 66.7491 16.7731 65.7396L22.7405 61.6027L23.3141 61.8468L24.6077 68.9857C24.9297 70.747 26.4784 72.017 28.2687 71.9878H35.1758C36.966 72.017 38.5148 70.747 38.8368 68.9857L40.1304 61.8468L40.7039 61.6027L46.6714 65.7396C48.1277 66.746 50.0955 66.5661 51.3453 65.3125L55.2748 61.3952C55.7668 60.9302 55.7886 60.1543 55.3236 59.6623C54.8586 59.1703 54.0827 59.1485 53.5907 59.6135L49.6124 63.5918C49.198 64.0066 48.5473 64.0681 48.0626 63.7383L43.1812 60.3457C46.0092 58.6784 48.4344 56.4074 50.2836 53.6949C50.661 53.1355 50.5135 52.376 49.9541 51.9986C49.3947 51.6212 48.6353 51.7687 48.2578 52.3281C42.4643 60.7684 31.2597 63.5181 22.217 58.7187C13.1744 53.9193 9.17227 43.0986 12.9157 33.5702C16.6591 24.0417 26.9563 18.8388 36.8477 21.4779C37.2706 21.5869 37.7195 21.462 38.0253 21.1503C38.3312 20.8385 38.4475 20.3873 38.3304 19.9666C38.2134 19.5458 37.8807 19.2195 37.4578 19.1105C33.684 18.1344 29.7239 18.1344 25.95 19.1105L26.9995 13.2651C27.1069 12.678 27.6231 12.2546 28.2199 12.2644H32.2714C32.9454 12.2644 33.4917 11.718 33.4917 11.044C33.4917 10.3701 32.9454 9.8237 32.2714 9.8237H28.2077C26.4174 9.7945 24.8687 11.0644 24.5466 12.8257L23.2531 19.9647L22.6795 20.2088L16.7731 16.0108C15.3168 15.0045 13.349 15.1843 12.0992 16.4379L7.21783 21.3193C5.96807 22.5722 5.79341 24.5397 6.80292 25.9932L10.9399 31.9606C10.8544 32.1437 10.769 32.339 10.6958 32.5342L3.54461 33.8278ZM2.98326 44.3349V37.4278C2.97352 36.831 3.39684 36.3148 3.98393 36.2074L9.81715 35.1579C8.84077 38.9028 8.84077 42.8354 9.81715 46.5803L3.98393 45.5308C3.40596 45.4251 2.98541 44.9225 2.98326 44.3349ZM37.3724 62.7254L36.3229 68.5586C36.2156 69.1457 35.6993 69.569 35.1026 69.5593H28.2077C27.6109 69.569 27.0947 69.1457 26.9873 68.5586L25.9378 62.7254C29.6858 63.7099 33.6245 63.7099 37.3724 62.7254ZM20.2877 60.3701L15.4063 63.7505C14.9244 64.0835 14.2739 64.0271 13.8565 63.6162L8.97512 58.7349C8.56035 58.3205 8.49887 57.6698 8.82868 57.1851L12.209 52.3037C14.1643 55.6377 16.9415 58.4149 20.2755 60.3701H20.2877ZM8.92631 23.0522L13.8077 18.1708C14.222 17.7561 14.8728 17.6946 15.3575 18.0244L20.2388 21.4047C16.8869 23.3652 14.0963 26.1558 12.1358 29.5078L8.75546 24.6264C8.41802 24.1309 8.49043 23.4637 8.92631 23.0522ZM31.6612 48.8136C36.042 48.8136 39.5934 45.2622 39.5934 40.8814C39.5934 36.5006 36.042 32.9492 31.6612 32.9492C27.2803 32.9492 23.7289 36.5006 23.7289 40.8814C23.7357 45.2595 27.2831 48.8069 31.6612 48.8136ZM31.6612 35.3899C34.694 35.3899 37.1527 37.8485 37.1527 40.8814C37.1527 43.9143 34.694 46.3729 31.6612 46.3729C28.6283 46.3729 26.1696 43.9143 26.1696 40.8814C26.1763 37.8513 28.6311 35.3966 31.6612 35.3899ZM42.0339 7.32201H44.4746C45.1486 7.32201 45.6949 6.77565 45.6949 6.10167C45.6949 5.4277 45.1486 4.88134 44.4746 4.88134H42.0339C41.3599 4.88134 40.8136 5.4277 40.8136 6.10167C40.8136 6.77565 41.3599 7.32201 42.0339 7.32201ZM66.4408 7.32201H49.3561C48.6821 7.32201 48.1357 6.77565 48.1357 6.10167C48.1357 5.4277 48.6821 4.88134 49.3561 4.88134H66.4408C67.1148 4.88134 67.6611 5.4277 67.6611 6.10167C67.6611 6.77565 67.1148 7.32201 66.4408 7.32201ZM24.8151 27.5186C24.5106 26.9202 23.7798 26.6803 23.1799 26.9816C18.03 29.5566 15.1866 34.7064 15.1866 41.4915C15.1866 42.1655 15.733 42.7118 16.407 42.7118C17.081 42.7118 17.6273 42.1655 17.6273 41.4915C17.6273 35.6827 19.9826 31.3016 24.2782 29.1538C24.8765 28.8493 25.1165 28.1186 24.8151 27.5186ZM28.6104 25.6271C28.6104 26.3011 28.064 26.8475 27.39 26.8475C26.716 26.8475 26.1697 26.3011 26.1697 25.6271C26.1697 24.9531 26.716 24.4068 27.39 24.4068C28.064 24.4068 28.6104 24.9531 28.6104 25.6271Z" fill="white"/>
</g>
<defs>
<clipPath id="clip0">
<rect width="72" height="72" fill="white" transform="translate(0.542572)"/>
</clipPath>
</defs>
</svg>
