<svg width="33" height="33" viewBox="0 0 33 33" fill="none" xmlns="http://www.w3.org/2000/svg">
<path fill-rule="evenodd" clip-rule="evenodd" d="M25.2563 11.1187C25.2563 15.7798 21.455 19.5584 16.7658 19.5584C12.0766 19.5584 8.27533 15.7798 8.27533 11.1187C8.27533 6.45762 12.0766 2.67906 16.7658 2.67906C21.455 2.67906 25.2563 6.45762 25.2563 11.1187ZM17.0673 20.9924C16.9672 20.9954 16.8667 20.9969 16.7658 20.9969C16.6949 20.9969 16.6241 20.9961 16.5535 20.9947L10.8113 30.8809C10.6609 31.1398 10.3651 31.2792 10.0682 31.2311C9.77138 31.183 9.53542 30.9574 9.47557 30.6644L8.31153 24.9657L2.76456 26.813C2.47936 26.9079 2.16479 26.8176 1.97444 26.5861C1.78409 26.3547 1.75765 26.0302 1.90804 25.7713L7.86462 15.516C7.20124 14.1917 6.82815 12.6985 6.82815 11.1187C6.82815 5.66315 11.2774 1.24054 16.7658 1.24054C22.2542 1.24054 26.7034 5.66315 26.7034 11.1187C26.7034 12.6651 26.346 14.1286 25.7086 15.4318L31.7141 25.7713C31.8645 26.0302 31.8381 26.3547 31.6477 26.5861C31.4574 26.8176 31.1428 26.9079 30.8576 26.813L25.3106 24.9657L24.1466 30.6644C24.0867 30.9574 23.8508 31.183 23.5539 31.2311C23.257 31.2793 22.9612 31.1398 22.8108 30.8809L17.0673 20.9924ZM18.6392 20.8216L23.1086 28.5165L24.0553 23.8821C24.0965 23.6801 24.223 23.5054 24.4026 23.4023C24.5822 23.2992 24.7976 23.2777 24.9942 23.3432L29.5053 24.8455L24.861 16.8496C23.4047 18.8785 21.1957 20.3368 18.6392 20.8216ZM8.7208 16.9189C10.1931 18.9332 12.4124 20.3731 14.9742 20.8368L10.5136 28.5165L9.5669 23.8821C9.52563 23.6801 9.39916 23.5054 9.21957 23.4023C9.03998 23.2992 8.82454 23.2777 8.62791 23.3432L4.11685 24.8455L8.7208 16.9189ZM18.0162 5.4556C17.757 5.0132 17.2808 4.74109 16.7657 4.74109C16.2507 4.74109 15.7744 5.0132 15.5152 5.4556L14.2298 7.64923L11.7338 8.1865C11.2304 8.29485 10.8229 8.66099 10.6637 9.1479C10.5046 9.63482 10.6178 10.1691 10.9609 10.5509L12.6626 12.4439L12.4053 14.9696C12.3534 15.479 12.5778 15.9773 12.9945 16.2783C13.4112 16.5792 13.9574 16.6373 14.4287 16.4309L16.7657 15.4072L19.1027 16.4309C19.5741 16.6373 20.1202 16.5792 20.5369 16.2783C20.9536 15.9773 21.178 15.479 21.1261 14.9696L20.8689 12.4439L22.5705 10.5509C22.9137 10.1691 23.0268 9.63482 22.8677 9.1479C22.7085 8.66099 22.301 8.29485 21.7976 8.1865L19.3016 7.64923L18.0162 5.4556ZM12.0401 9.59243L15.1594 8.921L16.7657 6.17961L18.372 8.921L21.4913 9.59243L19.3648 11.9581L19.6863 15.1145L16.7657 13.8352L13.8451 15.1145L14.1666 11.9581L12.0401 9.59243Z" fill="#0C9E6A"/>
</svg>
