<svg width="73" height="72" viewBox="0 0 73 72" fill="none" xmlns="http://www.w3.org/2000/svg">
<g clip-path="url(#clip0)">
<path fill-rule="evenodd" clip-rule="evenodd" d="M16.143 1.19995H66.543C69.8553 1.20405 72.5389 3.88765 72.543 7.19995V9.59995C72.543 10.2626 72.0057 10.8 71.343 10.8H62.943V57.6C62.9389 60.9123 60.2553 63.5959 56.943 63.6H55.7717V69.6C55.7747 70.0564 55.518 70.4753 55.1096 70.6798C54.9421 70.7607 54.7581 70.8017 54.5717 70.8C54.3122 70.8005 54.059 70.7162 53.8516 70.5597L49.7717 67.5L45.6919 70.5597C45.328 70.8328 44.8417 70.8767 44.435 70.6734C44.0284 70.4701 43.7717 70.0546 43.7717 69.6V63.6H6.54303C3.23073 63.5959 0.547131 60.9123 0.54303 57.6V55.2C0.54303 54.5373 1.08033 54 1.74303 54H10.143V7.19995C10.1471 3.88765 12.8307 1.20405 16.143 1.19995ZM6.54303 61.2H43.7717V56.4H2.94303V57.6C2.94303 59.588 4.55494 61.2 6.54303 61.2ZM50.4919 65.0402L53.3717 67.2L53.3671 53.7972C53.1274 53.8171 52.886 53.8125 52.6469 53.7837C51.9544 54.6773 50.888 55.2 49.7577 55.2C48.6274 55.2 47.5604 54.6773 46.8678 53.7837C46.637 53.8113 46.4038 53.8154 46.1717 53.7972V67.2L49.0516 65.0402C49.4788 64.7197 50.0653 64.7197 50.4919 65.0402ZM54.2085 48.6474C54.338 48.3339 54.5952 48.0896 54.9151 47.9759C55.4114 47.7978 55.743 47.3273 55.743 46.8C55.743 46.2726 55.4114 45.8021 54.9151 45.624C54.5952 45.5103 54.338 45.266 54.2085 44.9525C54.0784 44.6384 54.0872 44.2845 54.2337 43.9775C54.4604 43.5017 54.3643 42.9345 53.9928 42.5607C53.6208 42.1869 53.0542 42.0873 52.5772 42.3117C52.2708 42.4582 51.9163 42.4675 51.6022 42.338C51.2876 42.208 51.0438 41.9507 50.9296 41.6302C50.7544 41.1334 50.2844 40.8005 49.7577 40.8005C49.2303 40.8005 48.7604 41.1334 48.5852 41.6302C48.4715 41.9507 48.2272 42.208 47.9131 42.338C47.5985 42.4675 47.244 42.4582 46.9376 42.3117C46.46 42.0867 45.8928 42.1869 45.5214 42.5607C45.1493 42.9351 45.0532 43.5029 45.2817 43.9787C45.427 44.2851 45.4364 44.639 45.3063 44.9525C45.1768 45.266 44.9208 45.5097 44.6008 45.624C44.1034 45.8009 43.7706 46.272 43.7706 46.8C43.7706 47.3279 44.1034 47.799 44.6008 47.9759C44.9208 48.0902 45.1774 48.3339 45.3069 48.648C45.437 48.9615 45.4276 49.316 45.2817 49.6224C45.0544 50.0982 45.1505 50.6654 45.5225 51.0392C45.894 51.413 46.4606 51.5126 46.9376 51.2882C47.244 51.1417 47.5985 51.1324 47.9131 51.2619C48.2272 51.3919 48.4715 51.6492 48.5852 51.9697C48.7604 52.4666 49.2303 52.7994 49.7577 52.7994C50.2844 52.7994 50.7544 52.4666 50.9296 51.9697C51.0438 51.6492 51.2876 51.3919 51.6022 51.2619C51.9163 51.1324 52.2708 51.1417 52.5772 51.2882C53.0542 51.5126 53.6208 51.413 53.9928 51.0392C54.3643 50.6654 54.4604 50.0982 54.2337 49.6224C54.0872 49.3154 54.0784 48.9615 54.2085 48.6474ZM61.4936 3.99406L61.4936 3.99402C61.5442 3.91131 61.5948 3.82867 61.6505 3.74995C61.6669 3.72614 61.6813 3.70123 61.6955 3.67655L61.6956 3.67652C61.7108 3.6502 61.7258 3.62414 61.743 3.59995H16.143C14.1549 3.59995 12.543 5.21187 12.543 7.19995V54H43.7788V52.6669C43.0141 51.8771 42.6508 50.782 42.7926 49.6921C41.9008 48.9978 41.3788 47.9302 41.3788 46.8C41.3788 45.6697 41.9008 44.6021 42.7926 43.9078C42.6514 42.7875 43.0352 41.6642 43.8321 40.8644C44.6296 40.0646 45.7516 39.6779 46.8725 39.8162C47.5651 38.9226 48.6321 38.4 49.7624 38.4C50.8926 38.4 51.959 38.9226 52.6516 39.8162C53.7731 39.6773 54.8952 40.064 55.6926 40.8638C56.4901 41.6642 56.8739 42.7875 56.7321 43.9078C57.6239 44.6021 58.1454 45.6697 58.1454 46.8C58.1454 47.9302 57.6239 48.9978 56.7321 49.6921C56.8704 50.7667 56.5182 51.8466 55.7717 52.6318V60.9791C56.1473 61.1179 56.5428 61.1923 56.943 61.2C58.9311 61.2 60.543 59.588 60.543 57.6V7.19995C60.546 6.82612 60.5835 6.45347 60.6561 6.08608C60.6697 6.01312 60.689 5.94258 60.7084 5.87181C60.7192 5.83232 60.73 5.79277 60.7399 5.75269C60.7991 5.50835 60.8741 5.26812 60.9632 5.03257C61.0055 4.9268 61.0506 4.82628 61.0987 4.71937L61.1143 4.68452C61.2169 4.46597 61.3317 4.25386 61.46 4.04878L61.4936 3.99406ZM62.943 7.19995V8.39995H70.143V7.19995C70.143 5.21187 68.5311 3.59995 66.543 3.59995C64.5549 3.59995 62.943 5.21187 62.943 7.19995ZM44.943 10.7999H40.143V13.1999H44.943V10.7999ZM28.1431 10.7999H37.7431V13.1999H28.1431V10.7999ZM48.5431 16.7999H24.5431V19.1999H48.5431V16.7999ZM18.543 23.9999H24.543V26.3999H18.543V23.9999ZM31.743 30H18.543V32.4H31.743V30ZM26.943 23.9999H54.543V26.3999H26.943V23.9999ZM54.543 30H34.143V32.4H54.543V30ZM18.543 35.9999H42.543V38.3999H18.543V35.9999ZM38.943 41.9999H18.543V44.3999H38.943V41.9999Z" fill="white"/>
</g>
<defs>
<clipPath id="clip0">
<rect width="72" height="72" fill="white" transform="translate(0.54303)"/>
</clipPath>
</defs>
</svg>
