<?xml version="1.0" encoding="utf-8"?>
<!-- Generator: Adobe Illustrator 22.0.0, SVG Export Plug-In . SVG Version: 6.00 Build 0)  -->
<svg version="1.1" id="Слой_1" xmlns="http://www.w3.org/2000/svg" xmlns:xlink="http://www.w3.org/1999/xlink" x="0px" y="0px"
	 viewBox="0 0 30 30" style="enable-background:new 0 0 30 30;" xml:space="preserve">
<style type="text/css">
	.st0{fill:#34B44A;}
	.st1{fill:#FFFFFF;}
</style>
<path class="st0" d="M15,30c8.3,0,15-6.7,15-15c0-8.3-6.7-15-15-15C6.7,0,0,6.7,0,15C0,23.3,6.7,30,15,30z"/>
<path class="st1" d="M23.9,14.8c0,4.8-3.9,8.7-8.7,8.7c-1.5,0-3-0.4-4.2-1.1l-4.8,1.5l1.6-4.6c-0.8-1.3-1.3-2.8-1.3-4.5
	c0-4.8,3.9-8.7,8.7-8.7C20,6.1,23.9,10,23.9,14.8z M15.2,7.5c-4,0-7.3,3.3-7.3,7.3c0,1.6,0.5,3.1,1.4,4.3l-0.9,2.7l2.8-0.9
	c1.2,0.8,2.5,1.2,4,1.2c4,0,7.3-3.3,7.3-7.3C22.5,10.8,19.2,7.5,15.2,7.5z M19.6,16.8c-0.1-0.1-0.2-0.1-0.4-0.2
	c-0.2-0.1-1.3-0.6-1.5-0.7c-0.2-0.1-0.3-0.1-0.5,0.1c-0.1,0.2-0.6,0.7-0.7,0.8c-0.1,0.1-0.2,0.2-0.5,0.1c-0.2-0.1-0.9-0.3-1.7-1.1
	c-0.6-0.6-1.1-1.3-1.2-1.5c-0.1-0.2,0-0.3,0.1-0.4c0.1-0.1,0.2-0.2,0.3-0.4c0.1-0.1,0.1-0.2,0.2-0.4c0.1-0.1,0-0.3,0-0.4
	c-0.1-0.1-0.5-1.2-0.7-1.6c-0.2-0.4-0.4-0.4-0.5-0.4c-0.1,0-0.3,0-0.4,0c-0.1,0-0.4,0.1-0.6,0.3c-0.2,0.2-0.7,0.7-0.7,1.8
	c0,1,0.8,2.1,0.9,2.2c0.1,0.1,1.5,2.4,3.7,3.2c2.2,0.8,2.2,0.6,2.6,0.5c0.4,0,1.3-0.5,1.4-1C19.6,17.3,19.6,16.9,19.6,16.8z"/>
</svg>
