<svg width="160" height="55" viewBox="0 0 160 55" fill="none" xmlns="http://www.w3.org/2000/svg">
<path d="M56.1163 25.6843L56.9924 25.4796C57.1016 25.4523 57.1903 25.3976 57.2585 25.3158C57.3267 25.2339 57.3609 25.133 57.3609 25.0129V18.6993H55.9115C55.7204 18.6993 55.5729 18.739 55.4693 18.8181C55.3655 18.8973 55.2974 18.986 55.2646 19.0842L54.7732 20.4927H54.3556V18.1179H61.7418V20.4927H61.3242L60.833 19.0842C60.8002 18.986 60.7318 18.8973 60.6282 18.8181C60.5245 18.739 60.3771 18.6993 60.186 18.6993H58.7367V25.0128C58.7367 25.1385 58.7707 25.2408 58.8391 25.3198C58.9072 25.399 58.9959 25.4523 59.1052 25.4796L59.9814 25.6843V26.0527H56.1163V25.6843Z" fill="#454444"/>
<path d="M66.2701 26.2739C65.6968 26.2739 65.1796 26.1756 64.7183 25.9791C64.257 25.7825 63.8638 25.5014 63.5392 25.1356C63.2143 24.77 62.9645 24.3305 62.7899 23.8173C62.6151 23.3042 62.5279 22.731 62.5279 22.0977C62.5279 21.5136 62.6151 20.9664 62.7899 20.4558C62.9646 19.9454 63.2158 19.4991 63.5433 19.1169C63.8708 18.7349 64.2707 18.4346 64.743 18.2162C65.2151 17.998 65.7514 17.8886 66.352 17.8886C66.9961 17.8886 67.5529 18.0047 68.0225 18.2367C68.492 18.4688 68.8795 18.7771 69.1853 19.162C69.491 19.5469 69.7188 19.9919 69.869 20.4968C70.0191 21.0018 70.0942 21.5245 70.0942 22.0649C70.0942 22.6437 70.0082 23.1882 69.8363 23.6986C69.6644 24.2091 69.4146 24.6554 69.087 25.0374C68.7595 25.4196 68.3596 25.7212 67.8874 25.9423C67.4151 26.1633 66.876 26.2739 66.2701 26.2739ZM66.3847 25.7334C66.8214 25.7334 67.1817 25.6202 67.4656 25.3935C67.7494 25.1671 67.9745 24.8804 68.1411 24.5337C68.3075 24.187 68.4236 23.809 68.4891 23.3995C68.5546 22.9901 68.5874 22.5998 68.5874 22.2285C68.5874 21.7755 68.545 21.3224 68.4605 20.8692C68.3758 20.4162 68.2406 20.0081 68.0552 19.645C67.8695 19.2821 67.6265 18.9873 67.3264 18.7607C67.0261 18.5342 66.6631 18.4209 66.2373 18.4209C65.9478 18.4209 65.694 18.4728 65.4758 18.5765C65.2573 18.6802 65.0664 18.8209 64.9025 18.9982C64.7388 19.1757 64.6022 19.3804 64.4931 19.6123C64.3839 19.8444 64.2952 20.0901 64.227 20.3493C64.1586 20.6087 64.1109 20.8721 64.0837 21.1395C64.0563 21.4071 64.0427 21.6636 64.0427 21.9093C64.0427 22.1823 64.0576 22.4661 64.0878 22.7609C64.1178 23.0557 64.1696 23.3437 64.2434 23.6248C64.3171 23.9061 64.4125 24.1748 64.5299 24.4313C64.6473 24.688 64.7932 24.9118 64.968 25.1028C65.1427 25.2939 65.346 25.4467 65.5781 25.5613C65.8101 25.6761 66.0789 25.7334 66.3847 25.7334Z" fill="#454444"/>
<path d="M70.7654 29.5411L71.6662 29.3364C71.7753 29.309 71.864 29.2545 71.9323 29.1726C72.0005 29.0907 72.0347 28.9897 72.0347 28.8697V19.6164C72.0347 19.4746 71.9978 19.3544 71.9241 19.2561C71.8504 19.1579 71.7206 19.076 71.5352 19.0105L70.7818 18.7402V18.5192L73.3613 17.9542V19.2644L73.5333 19.0433C73.7406 18.7759 73.9576 18.5656 74.1842 18.4127C74.4107 18.2599 74.6318 18.1453 74.8475 18.0688C75.0631 17.9925 75.2665 17.9433 75.4576 17.9214C75.6486 17.8997 75.8124 17.8886 75.9489 17.8886C76.4401 17.8886 76.8795 17.9857 77.2672 18.1794C77.6548 18.3732 77.9809 18.6421 78.2458 18.986C78.5105 19.3299 78.7126 19.7366 78.8518 20.2061C78.991 20.6756 79.0606 21.1887 79.0606 21.7456C79.0606 22.3626 78.976 22.9411 78.8068 23.4816C78.6375 24.0221 78.3932 24.4943 78.0739 24.8982C77.7545 25.3022 77.3642 25.6203 76.9029 25.8522C76.4415 26.0842 75.9161 26.2003 75.3266 26.2003C75.0973 26.2003 74.8871 26.1784 74.696 26.1347C74.5049 26.0909 74.3316 26.0324 74.176 25.9587C74.0204 25.8849 73.8784 25.8004 73.7502 25.7049C73.6218 25.6094 73.5086 25.5124 73.4103 25.4141V25.7335V28.8697C73.4103 28.9952 73.4443 29.099 73.5127 29.1809C73.5808 29.2628 73.6695 29.3146 73.7788 29.3365L74.9088 29.5412V29.9098H70.7654V29.5411ZM75.1545 25.5368C75.5803 25.5368 75.9473 25.4481 76.2559 25.2707C76.5642 25.0934 76.8195 24.8572 77.0215 24.5624C77.2234 24.2676 77.3735 23.9265 77.4719 23.5388C77.5701 23.1513 77.6193 22.7473 77.6193 22.3269C77.6193 21.8248 77.5728 21.3593 77.4801 20.9308C77.3872 20.5023 77.2426 20.1297 77.0461 19.813C76.8496 19.4965 76.597 19.2494 76.2887 19.0719C75.9802 18.8946 75.6131 18.8058 75.1873 18.8058C75.0617 18.8058 74.9197 18.8195 74.7615 18.8468C74.603 18.8742 74.4433 18.9205 74.2824 18.986C74.1213 19.0515 73.9643 19.1416 73.8116 19.2562C73.6586 19.3708 73.5249 19.5129 73.4103 19.682V25.0128C73.503 25.0948 73.6273 25.1684 73.7829 25.234C73.9385 25.2995 74.1009 25.3541 74.2701 25.3977C74.4393 25.4415 74.6045 25.4755 74.7655 25.5001C74.9265 25.5246 75.0563 25.5368 75.1545 25.5368Z" fill="#454444"/>
<path d="M79.8956 25.6843L80.7718 25.4796C80.8809 25.4523 80.9695 25.3976 81.0379 25.3158C81.1062 25.2339 81.1402 25.133 81.1402 25.0129V19.158C81.1402 19.038 81.1061 18.9369 81.0379 18.855C80.9695 18.7731 80.8809 18.7186 80.7718 18.6913L79.8956 18.4866V18.1181H86.5448V20.5829H86.1271L85.554 19.0844C85.5157 18.9861 85.4461 18.8974 85.3451 18.8183C85.2441 18.7392 85.098 18.6995 84.9071 18.6995H82.516V25.0129C82.516 25.1386 82.5499 25.2409 82.6184 25.32C82.6866 25.3992 82.7752 25.4524 82.8844 25.4797L83.8343 25.6844V26.0529H79.8956V25.6843Z" fill="#454444"/>
<path d="M91.0729 26.2739C90.4996 26.2739 89.9824 26.1756 89.5211 25.9791C89.0598 25.7825 88.6667 25.5014 88.342 25.1356C88.0171 24.77 87.7673 24.3305 87.5927 23.8173C87.4179 23.3042 87.3307 22.731 87.3307 22.0977C87.3307 21.5136 87.4179 20.9664 87.5927 20.4558C87.7673 19.9454 88.0185 19.4991 88.346 19.1169C88.6736 18.7349 89.0734 18.4346 89.5457 18.2162C90.0179 17.998 90.5542 17.8886 91.1548 17.8886C91.7989 17.8886 92.3557 18.0047 92.8253 18.2367C93.2948 18.4688 93.6822 18.7771 93.9881 19.162C94.2938 19.5469 94.5216 19.9919 94.6719 20.4968C94.8219 21.0018 94.897 21.5245 94.897 22.0649C94.897 22.6437 94.8112 23.1882 94.6392 23.6986C94.4672 24.2091 94.2175 24.6554 93.8899 25.0374C93.5624 25.4196 93.1624 25.7212 92.6903 25.9423C92.2179 26.1633 91.6789 26.2739 91.0729 26.2739ZM91.1875 25.7334C91.6242 25.7334 91.9845 25.6202 92.2685 25.3935C92.5523 25.1671 92.7774 24.8804 92.944 24.5337C93.1105 24.187 93.2265 23.809 93.292 23.3995C93.3576 22.9901 93.3903 22.5998 93.3903 22.2285C93.3903 21.7755 93.348 21.3224 93.2634 20.8692C93.1787 20.4162 93.0435 20.0081 92.8581 19.645C92.6724 19.2821 92.4294 18.9873 92.1293 18.7607C91.829 18.5342 91.466 18.4209 91.0403 18.4209C90.7508 18.4209 90.497 18.4728 90.2787 18.5765C90.0602 18.6802 89.8693 18.8209 89.7054 18.9982C89.5417 19.1757 89.4051 19.3804 89.2961 19.6123C89.1868 19.8444 89.0982 20.0901 89.0299 20.3493C88.9615 20.6087 88.9138 20.8721 88.8866 21.1395C88.8593 21.4071 88.8457 21.6636 88.8457 21.9093C88.8457 22.1823 88.8607 22.4661 88.8908 22.7609C88.9207 23.0557 88.9727 23.3437 89.0464 23.6248C89.12 23.9061 89.2155 24.1748 89.333 24.4313C89.4503 24.688 89.5963 24.9118 89.7711 25.1028C89.9457 25.2939 90.149 25.4467 90.3811 25.5613C90.6129 25.6761 90.8818 25.7334 91.1875 25.7334Z" fill="#454444"/>
<path d="M95.7238 25.6843L96.6 25.4796C96.7092 25.4523 96.7978 25.3976 96.8661 25.3158C96.9344 25.2339 96.9686 25.133 96.9686 25.0129V19.158C96.9686 19.038 96.9344 18.9369 96.8661 18.855C96.7978 18.7731 96.7092 18.7186 96.6 18.6913L95.7238 18.4866V18.1181H99.7445C100.312 18.1181 100.779 18.1619 101.145 18.2491C101.51 18.3365 101.8 18.4553 102.013 18.6053C102.226 18.7555 102.373 18.9302 102.455 19.1294C102.537 19.3287 102.578 19.5402 102.578 19.764C102.578 20.0096 102.531 20.2404 102.439 20.4559C102.346 20.6716 102.205 20.8682 102.017 21.0455C101.828 21.223 101.592 21.3812 101.308 21.5204C101.025 21.6596 100.694 21.7784 100.318 21.8766L100.531 21.893C100.913 21.9204 101.258 21.9872 101.566 22.0936C101.875 22.2001 102.137 22.3366 102.352 22.503C102.568 22.6696 102.735 22.8674 102.852 23.0967C102.969 23.326 103.028 23.5772 103.028 23.8501C103.028 24.3033 102.938 24.6731 102.758 24.9596C102.578 25.2462 102.339 25.4701 102.041 25.631C101.744 25.7921 101.404 25.9026 101.022 25.9627C100.64 26.0229 100.244 26.0528 99.8346 26.0528H95.7238V25.6843ZM98.8928 21.7537C99.3678 21.7209 99.7513 21.661 100.043 21.5736C100.335 21.4863 100.559 21.3757 100.715 21.2419C100.87 21.1082 100.974 20.9526 101.026 20.7752C101.078 20.5978 101.104 20.4026 101.104 20.1896C101.104 19.9167 101.068 19.6848 100.997 19.4936C100.926 19.3026 100.814 19.1455 100.662 19.0227C100.509 18.8999 100.314 18.8112 100.076 18.7566C99.8388 18.7021 99.5563 18.6747 99.2288 18.6747H98.328V21.7946L98.8928 21.7537ZM99.548 25.496C99.87 25.496 100.154 25.4687 100.4 25.414C100.645 25.3595 100.851 25.2722 101.018 25.152C101.184 25.032 101.31 24.8776 101.394 24.6893C101.479 24.5009 101.521 24.2703 101.521 23.9974C101.521 23.6862 101.48 23.4188 101.398 23.1948C101.317 22.971 101.188 22.7894 101.014 22.6502C100.839 22.511 100.611 22.4087 100.33 22.3432C100.049 22.2776 99.7116 22.2449 99.3185 22.2449H98.3276V25.4958H99.548V25.496Z" fill="#454444"/>
<path d="M103.97 25.6843L104.846 25.4796C104.955 25.4523 105.044 25.3976 105.112 25.3158C105.18 25.2339 105.215 25.133 105.215 25.0129V19.158C105.215 19.038 105.18 18.9369 105.112 18.855C105.044 18.7731 104.955 18.7186 104.846 18.6913L103.97 18.4866V18.1181H107.81V18.4866L106.942 18.6913C106.833 18.7187 106.744 18.7719 106.676 18.851C106.608 18.9302 106.574 19.0325 106.574 19.1581V21.2954H107.999C108.413 21.2954 108.812 21.3322 109.194 21.4059C109.576 21.4796 109.912 21.6053 110.201 21.7826C110.491 21.9601 110.723 22.1975 110.897 22.495C111.072 22.7926 111.159 23.1652 111.159 23.6127C111.159 24.0605 111.069 24.4385 110.889 24.7469C110.709 25.0553 110.469 25.3065 110.169 25.5002C109.868 25.694 109.524 25.8347 109.137 25.9219C108.749 26.0093 108.351 26.0529 107.941 26.0529H103.97V25.6843ZM107.72 25.496C108.037 25.496 108.315 25.4509 108.555 25.3609C108.796 25.2708 108.998 25.1439 109.161 24.9801C109.325 24.8164 109.448 24.6172 109.53 24.3824C109.612 24.1477 109.653 23.8857 109.653 23.5963C109.653 23.0231 109.486 22.5905 109.153 22.2983C108.82 22.0064 108.334 21.8602 107.696 21.8602H106.574V25.496H107.72ZM111.258 25.6843L112.044 25.4796C112.153 25.4523 112.242 25.3991 112.31 25.3198C112.378 25.2408 112.412 25.1384 112.412 25.0128V19.1579C112.412 19.0379 112.378 18.9369 112.31 18.8549C112.242 18.773 112.153 18.7185 112.044 18.6912L111.168 18.4865V18.118H115.033V18.4865L114.156 18.6912C114.047 18.7186 113.959 18.7731 113.89 18.8549C113.822 18.9369 113.788 19.0379 113.788 19.1579V25.0128C113.788 25.1329 113.822 25.2339 113.89 25.3157C113.959 25.3976 114.047 25.4523 114.156 25.4795L115.033 25.6842V26.0527H111.258V25.6843H111.258Z" fill="#454444"/>
<path d="M115.819 25.6843L116.695 25.4796C116.804 25.4523 116.893 25.3976 116.961 25.3158C117.029 25.2339 117.063 25.133 117.063 25.0129V19.158C117.063 19.038 117.029 18.9369 116.961 18.855C116.893 18.7731 116.804 18.7186 116.695 18.6913L115.819 18.4866V18.1181H119.577V18.4866L118.791 18.6913C118.682 18.7187 118.593 18.7719 118.525 18.851C118.457 18.9302 118.422 19.0325 118.422 19.1581V23.4326L118.406 24.1942L118.398 24.3989L122.32 18.7487V18.1182H124.892V18.4866L124.015 18.6914C123.906 18.7187 123.817 18.7733 123.749 18.8551C123.681 18.937 123.647 19.0381 123.647 19.1581V25.0129C123.647 25.1331 123.681 25.234 123.749 25.3159C123.817 25.3978 123.906 25.4524 124.015 25.4796L124.892 25.6844V26.0528H121.133V25.6844L121.919 25.4796C122.028 25.4524 122.117 25.3992 122.185 25.3199C122.253 25.2408 122.288 25.1385 122.288 25.0129V20.763L122.304 20.0588L122.312 19.8049L118.398 25.4551V26.0528H115.819V25.6843ZM120.445 16.3165C119.992 16.3165 119.607 16.2646 119.291 16.1609C118.974 16.0572 118.717 15.9275 118.521 15.772C118.324 15.6164 118.181 15.4485 118.091 15.2683C118.001 15.0882 117.956 14.9217 117.956 14.7688V14.2529H119.233V14.4495V15.383C119.282 15.454 119.352 15.5167 119.442 15.5713C119.532 15.6259 119.633 15.6723 119.745 15.7105C119.857 15.7488 119.973 15.7774 120.093 15.7965C120.213 15.8157 120.328 15.8251 120.437 15.8251C120.552 15.8251 120.669 15.8157 120.789 15.7965C120.909 15.7774 121.025 15.7488 121.137 15.7105C121.249 15.6723 121.35 15.6259 121.44 15.5713C121.53 15.5167 121.6 15.454 121.649 15.383V14.4495V14.2529H122.926V14.7688C122.926 14.9217 122.883 15.0882 122.795 15.2683C122.708 15.4485 122.567 15.6164 122.374 15.772C122.18 15.9275 121.925 16.0573 121.608 16.1609C121.291 16.2646 120.904 16.3165 120.445 16.3165Z" fill="#454444"/>
<path d="M129.649 25.455H130.476C130.618 25.335 130.767 25.159 130.922 24.9268C131.078 24.6949 131.23 24.422 131.377 24.108C131.524 23.7941 131.666 23.4487 131.803 23.0721C131.939 22.6954 132.058 22.3012 132.159 21.8889C132.26 21.4767 132.34 21.0578 132.4 20.6319C132.461 20.2062 132.491 19.7859 132.491 19.3709C132.491 19.2291 132.481 19.1158 132.462 19.0311C132.443 18.9466 132.416 18.881 132.38 18.8346C132.345 18.7883 132.304 18.7555 132.257 18.7364C132.211 18.7173 132.16 18.7023 132.106 18.6913L131.229 18.4866V18.1181H138.452V18.4866L137.576 18.6913C137.466 18.7187 137.378 18.7732 137.31 18.855C137.241 18.9369 137.207 19.038 137.207 19.158V25.4551H138.534V28.616H138.01L137.273 26.3477C137.234 26.2331 137.183 26.1511 137.117 26.102C137.051 26.0529 136.972 26.0283 136.88 26.0283H131.303C131.21 26.0283 131.131 26.0528 131.066 26.102C131 26.1511 130.948 26.2331 130.91 26.3477L130.173 28.616H129.649V25.455H129.649ZM135.832 25.455V18.6912H133.236C133.23 19.5374 133.174 20.3153 133.068 21.025C132.961 21.7347 132.822 22.3734 132.65 22.9412C132.478 23.509 132.279 24.0029 132.053 24.4233C131.826 24.8437 131.59 25.1876 131.344 25.455H135.832Z" fill="#454444"/>
<path d="M142.939 26.2739C142.366 26.2739 141.849 26.1756 141.388 25.9791C140.926 25.7825 140.533 25.5014 140.208 25.1356C139.884 24.77 139.634 24.3305 139.459 23.8173C139.284 23.3042 139.197 22.731 139.197 22.0977C139.197 21.5136 139.284 20.9664 139.459 20.4558C139.634 19.9454 139.885 19.4991 140.212 19.1169C140.54 18.7349 140.94 18.4346 141.412 18.2162C141.884 17.998 142.421 17.8886 143.021 17.8886C143.665 17.8886 144.222 18.0047 144.692 18.2367C145.161 18.4688 145.549 18.7771 145.855 19.162C146.16 19.5469 146.388 19.9919 146.538 20.4968C146.688 21.0018 146.763 21.5245 146.763 22.0649C146.763 22.6437 146.678 23.1882 146.506 23.6986C146.334 24.2091 146.084 24.6554 145.756 25.0374C145.429 25.4196 145.029 25.7212 144.557 25.9423C144.084 26.1633 143.545 26.2739 142.939 26.2739ZM143.054 25.7334C143.491 25.7334 143.851 25.6202 144.135 25.3935C144.419 25.1671 144.644 24.8804 144.81 24.5337C144.977 24.187 145.093 23.809 145.158 23.3995C145.224 22.9901 145.257 22.5998 145.257 22.2285C145.257 21.7755 145.214 21.3224 145.13 20.8692C145.045 20.4162 144.91 20.0081 144.724 19.645C144.539 19.2821 144.296 18.9873 143.996 18.7607C143.695 18.5342 143.332 18.4209 142.907 18.4209C142.617 18.4209 142.363 18.4728 142.145 18.5765C141.927 18.6802 141.736 18.8209 141.572 18.9982C141.408 19.1757 141.272 19.3804 141.162 19.6123C141.053 19.8444 140.965 20.0901 140.896 20.3493C140.828 20.6087 140.78 20.8721 140.753 21.1395C140.726 21.4071 140.712 21.6636 140.712 21.9093C140.712 22.1823 140.727 22.4661 140.757 22.7609C140.787 23.0557 140.839 23.3437 140.913 23.6248C140.986 23.9061 141.082 24.1748 141.199 24.4313C141.317 24.688 141.463 24.9118 141.638 25.1028C141.812 25.2939 142.015 25.4467 142.248 25.5613C142.479 25.6761 142.748 25.7334 143.054 25.7334Z" fill="#454444"/>
<path d="M147.59 25.6843L148.466 25.4796C148.576 25.4523 148.664 25.3976 148.732 25.3158C148.801 25.2339 148.835 25.133 148.835 25.0129V19.158C148.835 19.038 148.801 18.9369 148.732 18.855C148.664 18.7731 148.576 18.7186 148.466 18.6913L147.59 18.4866V18.1181H150.817L152.831 23.8502L152.913 24.0877H152.962L155.157 18.1182H158.326V18.4866L157.449 18.6914C157.34 18.7187 157.251 18.772 157.183 18.8511C157.115 18.9302 157.081 19.0326 157.081 19.1581V25.013C157.081 25.1387 157.115 25.241 157.183 25.3201C157.251 25.3993 157.34 25.4525 157.449 25.4798L158.326 25.6845V26.053H154.575V25.6845L155.369 25.4798C155.479 25.4526 155.567 25.3979 155.636 25.316C155.704 25.2341 155.738 25.1332 155.738 25.0131V18.5192H155.681L155.599 18.7649L153.347 24.849L152.798 26.0527H152.34L149.678 18.7566L149.588 18.511H149.531V25.0128C149.531 25.1385 149.565 25.2394 149.633 25.3157C149.702 25.3922 149.79 25.4468 149.9 25.4795L150.604 25.6842V26.0527H147.59V25.6843H147.59Z" fill="#454444"/>
<path d="M54.6697 53.732L56.4697 53.3493C56.6585 53.3022 56.8169 53.2029 56.9444 53.0517C57.072 52.9007 57.1357 52.721 57.1357 52.5131V36.7531C57.1357 36.5359 57.072 36.3516 56.9444 36.2003C56.8169 36.0493 56.6585 35.9501 56.4697 35.9027L54.6697 35.5341V34.8681H68.8424V39.871H68.0771L66.7874 36.4554C66.7401 36.3137 66.6741 36.1956 66.589 36.1011C66.504 36.0068 66.3765 35.9593 66.2064 35.9593H59.6869V52.513C59.6869 52.7305 59.7529 52.9098 59.8853 53.0516C60.0175 53.1933 60.1781 53.2925 60.3671 53.3492L62.3938 53.7319V54.398H54.6697V53.732Z" fill="#454444"/>
<path d="M70.0043 53.732L71.8042 53.3493C71.9931 53.3022 72.1515 53.2029 72.279 53.0517C72.4066 52.9007 72.4703 52.721 72.4703 52.5131V36.7531C72.4703 36.5359 72.4065 36.3516 72.279 36.2003C72.1515 36.0493 71.9931 35.9501 71.8042 35.9027L70.0043 35.5342V34.8681H77.1757C78.1395 34.8681 79.0487 34.965 79.9039 35.1587C80.7589 35.3524 81.5077 35.6571 82.1503 36.0728C82.7927 36.4886 83.3005 37.0223 83.6739 37.6742C84.047 38.3262 84.2337 39.1105 84.2337 40.0269C84.2337 41.0001 84.0683 41.8764 83.7376 42.6559C83.4068 43.4354 82.9533 44.0969 82.3771 44.6402C81.8006 45.1836 81.1203 45.6016 80.3362 45.8944C79.5518 46.1874 78.7014 46.3337 77.7851 46.3337C77.5677 46.3337 77.3408 46.3078 77.1048 46.2557C76.8685 46.2039 76.6301 46.133 76.3891 46.0431C76.1482 45.9535 75.9094 45.8495 75.6735 45.7313C75.4372 45.6133 75.2199 45.4929 75.0215 45.3699V52.5129C75.0215 52.7304 75.0875 52.9147 75.2199 53.0657C75.3521 53.217 75.5127 53.3115 75.7017 53.3492L77.7284 53.7318V54.3979H70.0043V53.732ZM75.0215 44.9024C75.1725 44.9403 75.3475 44.9732 75.5459 45.0017C75.7443 45.03 75.952 45.0561 76.1695 45.0796C76.3867 45.1033 76.6088 45.1199 76.8356 45.1292C77.0623 45.1387 77.2796 45.1434 77.4875 45.1434C78.0545 45.1434 78.5456 45.0608 78.9615 44.8954C79.3771 44.7301 79.7339 44.5152 80.0315 44.2506C80.3291 43.9862 80.5701 43.6907 80.7543 43.3648C80.9386 43.0388 81.085 42.7106 81.1936 42.3798C81.3022 42.0491 81.3755 41.735 81.4134 41.4373C81.451 41.1396 81.47 40.8916 81.47 40.6932C81.47 40.0603 81.3967 39.4556 81.2503 38.8791C81.1038 38.3029 80.8486 37.7949 80.485 37.3556C80.1212 36.9163 79.6322 36.5644 79.0181 36.2998C78.4038 36.0354 77.6338 35.903 76.708 35.903H75.0214V44.9024H75.0215Z" fill="#454444"/>
<path d="M82.9016 53.732L84.1205 53.3777C84.3093 53.321 84.477 53.2146 84.6236 53.0588C84.77 52.9029 84.881 52.7306 84.9567 52.5415L90.5832 37.8302L92.2981 34.5704H92.8509L99.7955 52.5414C99.871 52.7306 99.9819 52.9029 100.128 53.0587C100.275 53.2146 100.443 53.3209 100.632 53.3776L101.851 53.7319V54.398H94.9484V53.7319L97.4145 53.2642L95.0618 47.1416H88.2022L86.0055 53.2075L88.4148 53.7319V54.398H82.9016V53.732H82.9016ZM94.6224 46.0646L92.2981 40.0838L91.5894 38.1704H91.5752L88.6416 46.0646H94.6224Z" fill="#454444"/>
<path d="M101.737 53.732L103.537 53.3493C103.725 53.3022 103.884 53.2029 104.011 53.0517C104.139 52.9007 104.203 52.721 104.203 52.5131V36.7531C104.203 36.5359 104.139 36.3516 104.011 36.2003C103.884 36.0493 103.725 35.9501 103.537 35.9027L101.737 35.5341V34.8681H109.22V35.5341L107.434 35.9027C107.245 35.9501 107.085 36.0515 106.952 36.2073C106.82 36.3633 106.754 36.5454 106.754 36.753V43.6835H116.25V36.753C116.25 36.5358 116.186 36.3562 116.058 36.2145C115.931 36.0728 115.772 35.9689 115.583 35.9027L113.784 35.5341V34.8681H121.267V35.5341L119.467 35.9027C119.278 35.9406 119.12 36.0397 118.992 36.2003C118.864 36.3611 118.801 36.5454 118.801 36.7531V52.5131C118.801 52.7306 118.864 52.9123 118.992 53.0588C119.12 53.2053 119.278 53.3022 119.467 53.3493L121.267 53.732V54.3981H113.784V53.732L115.583 53.3493C115.772 53.3022 115.931 53.2029 116.058 53.0517C116.186 52.9007 116.25 52.721 116.25 52.5131V44.789H106.754V52.5131C106.754 52.7306 106.818 52.9123 106.945 53.0588C107.073 53.2053 107.236 53.3022 107.434 53.3493L109.22 53.732V54.3981H101.737V53.732Z" fill="#454444"/>
<path d="M122.613 53.732L124.413 53.3493C124.602 53.3022 124.76 53.2029 124.888 53.0517C125.015 52.9007 125.079 52.721 125.079 52.5131V36.7531C125.079 36.5359 125.015 36.3516 124.888 36.2003C124.76 36.0493 124.602 35.9501 124.413 35.9027L122.613 35.5341V34.8681H130.096V35.5341L128.31 35.9027C128.121 35.9501 127.961 36.0515 127.828 36.2073C127.696 36.3633 127.63 36.5454 127.63 36.753V49.1116L127.602 50.5005L127.587 51.0533L137.466 36.1578V34.8681H142.426V35.5341L140.626 35.9027C140.437 35.9501 140.279 36.0515 140.151 36.2073C140.024 36.3633 139.96 36.5454 139.96 36.753V52.513C139.96 52.7305 140.024 52.9123 140.151 53.0587C140.279 53.2053 140.437 53.3021 140.626 53.3492L142.426 53.7319V54.398H134.943V53.7319L136.743 53.3492C136.932 53.3021 137.09 53.2028 137.218 53.0516C137.345 52.9006 137.409 52.7209 137.409 52.513V40.1119L137.437 38.7513L137.452 38.2269L127.573 53.1367V54.398H122.613V53.732Z" fill="#454444"/>
<path d="M147.755 53.732L149.838 53.3493C150.027 53.3117 150.186 53.2147 150.313 53.0588C150.441 52.9029 150.504 52.721 150.504 52.5131V35.9311H145.983C145.794 35.9311 145.657 35.9785 145.572 36.0728C145.487 36.1674 145.421 36.2854 145.374 36.4272L144.353 39.5594H143.602V34.8682H160V39.5594H159.249L158.228 36.4272C158.181 36.2854 158.117 36.1674 158.037 36.0728C157.957 35.9785 157.827 35.9311 157.647 35.9311H153.055V52.5131C153.055 52.7306 153.121 52.9148 153.254 53.0659C153.386 53.2171 153.547 53.3117 153.736 53.3493L155.819 53.732V54.3981H147.755V53.732Z" fill="#454444"/>
<path d="M25.2099 28.3513L12.5956 44.7327L0 28.3382L12.5412 28.3438L25.2099 28.3513Z" fill="url(#paint0_linear)"/>
<path d="M26.081 7.79449L11.9886 26.0959L0.00185394 26.0903L20.0922 0L26.081 7.79449Z" fill="url(#paint1_linear)"/>
<path d="M40.1507 26.111L27.4934 26.1053L14.8248 26.0978L27.499 9.63961L34.0777 18.2059L40.1507 26.111Z" fill="url(#paint2_linear)"/>
<path d="M40.1545 28.3587L20.0641 54.4491L14.0155 46.5722L28.0459 28.3532L40.1545 28.3587Z" fill="url(#paint3_linear)"/>
<defs>
<linearGradient id="paint0_linear" x1="-2.42361e-05" y1="36.5355" x2="25.2099" y2="36.5355" gradientUnits="userSpaceOnUse">
<stop offset="0.1927" stop-color="#454444"/>
<stop offset="0.4146" stop-color="#777776"/>
<stop offset="0.5447" stop-color="#979796"/>
<stop offset="0.6132" stop-color="#80807F"/>
<stop offset="0.7253" stop-color="#605F5F"/>
<stop offset="0.8192" stop-color="#4C4B4B"/>
<stop offset="0.8827" stop-color="#454444"/>
</linearGradient>
<linearGradient id="paint1_linear" x1="0.00184586" y1="13.048" x2="26.0809" y2="13.048" gradientUnits="userSpaceOnUse">
<stop offset="0.1927" stop-color="#454444"/>
<stop offset="0.4146" stop-color="#777776"/>
<stop offset="0.5447" stop-color="#979796"/>
<stop offset="0.6132" stop-color="#80807F"/>
<stop offset="0.7253" stop-color="#605F5F"/>
<stop offset="0.8192" stop-color="#4C4B4B"/>
<stop offset="0.8827" stop-color="#454444"/>
</linearGradient>
<linearGradient id="paint2_linear" x1="14.8247" y1="17.8753" x2="40.1508" y2="17.8753" gradientUnits="userSpaceOnUse">
<stop offset="0.0782" stop-color="#20645F"/>
<stop offset="0.2256" stop-color="#187262"/>
<stop offset="0.5045" stop-color="#029869"/>
<stop offset="0.5279" stop-color="#009B6A"/>
<stop offset="0.8883" stop-color="#0D4F49"/>
</linearGradient>
<linearGradient id="paint3_linear" x1="14.0155" y1="41.4011" x2="40.1545" y2="41.4011" gradientUnits="userSpaceOnUse">
<stop offset="0.0782" stop-color="#20645F"/>
<stop offset="0.2256" stop-color="#187262"/>
<stop offset="0.5045" stop-color="#029869"/>
<stop offset="0.5279" stop-color="#009B6A"/>
<stop offset="0.8883" stop-color="#0D4F49"/>
</linearGradient>
</defs>
</svg>
