<svg width="177" height="60" viewBox="0 0 177 60" fill="none" xmlns="http://www.w3.org/2000/svg">
<path d="M61.8371 28.3026L62.8025 28.077C62.9228 28.047 63.0206 27.9867 63.0958 27.8965C63.1709 27.8063 63.2086 27.6951 63.2086 27.5627V20.6055H61.6114C61.4008 20.6055 61.2383 20.6493 61.1241 20.7364C61.0098 20.8237 60.9347 20.9214 60.8985 21.0296L60.3571 22.5817H59.8969V19.9648H68.0361V22.5817H67.576L67.0346 21.0296C66.9986 20.9214 66.9232 20.8237 66.809 20.7364C66.6947 20.6493 66.5323 20.6055 66.3217 20.6055H64.7246V27.5626C64.7246 27.7011 64.7621 27.8138 64.8374 27.901C64.9126 27.9882 65.0103 28.0469 65.1307 28.077L66.0962 28.3026V28.7086H61.8371V28.3026Z" fill="#454444"/>
<path d="M73.026 28.9524C72.3943 28.9524 71.8244 28.8442 71.3161 28.6276C70.8077 28.411 70.3745 28.1013 70.0167 27.6982C69.6587 27.2953 69.3835 26.811 69.1911 26.2454C68.9984 25.6801 68.9023 25.0484 68.9023 24.3505C68.9023 23.7069 68.9984 23.1039 69.1911 22.5413C69.3836 21.9788 69.6603 21.4871 70.0212 21.0659C70.3821 20.6449 70.8228 20.314 71.3432 20.0734C71.8635 19.8328 72.4545 19.7124 73.1163 19.7124C73.8261 19.7124 74.4396 19.8402 74.9571 20.0959C75.4744 20.3517 75.9015 20.6915 76.2384 21.1156C76.5753 21.5397 76.8263 22.0301 76.9918 22.5864C77.1572 23.1429 77.24 23.7189 77.24 24.3144C77.24 24.9522 77.1452 25.5522 76.9558 26.1147C76.7663 26.6772 76.4911 27.169 76.1302 27.5899C75.7692 28.0111 75.3285 28.3434 74.8082 28.5871C74.2877 28.8306 73.6937 28.9524 73.026 28.9524ZM73.1523 28.3569C73.6335 28.3569 74.0306 28.2322 74.3434 27.9824C74.6561 27.7328 74.9042 27.417 75.0878 27.0349C75.2712 26.6529 75.3991 26.2363 75.4713 25.7851C75.5434 25.3339 75.5796 24.9039 75.5796 24.4947C75.5796 23.9955 75.5329 23.4962 75.4397 22.9968C75.3464 22.4976 75.1975 22.0479 74.9931 21.6478C74.7885 21.2479 74.5207 20.923 74.19 20.6733C73.8591 20.4238 73.4591 20.2989 72.9899 20.2989C72.6709 20.2989 72.3912 20.3561 72.1507 20.4703C71.91 20.5846 71.6996 20.7396 71.519 20.935C71.3386 21.1306 71.1881 21.3562 71.0679 21.6118C70.9475 21.8676 70.8498 22.1383 70.7746 22.4239C70.6993 22.7097 70.6467 23 70.6167 23.2947C70.5865 23.5895 70.5716 23.8722 70.5716 24.1429C70.5716 24.4438 70.588 24.7565 70.6212 25.0814C70.6543 25.4062 70.7114 25.7236 70.7927 26.0333C70.8739 26.3433 70.9791 26.6395 71.1085 26.9221C71.2378 27.2049 71.3986 27.4515 71.5912 27.662C71.7837 27.8726 72.0078 28.0409 72.2634 28.1673C72.5191 28.2938 72.8154 28.3569 73.1523 28.3569Z" fill="#454444"/>
<path d="M77.9796 32.5528L78.9722 32.3272C79.0925 32.297 79.1901 32.2369 79.2655 32.1468C79.3406 32.0565 79.3783 31.9451 79.3783 31.8129V21.6163C79.3783 21.46 79.3377 21.3276 79.2565 21.2193C79.1752 21.111 79.0322 21.0208 78.8278 20.9486L77.9977 20.6508V20.4072L80.8401 19.7846V21.2284L81.0296 20.9847C81.2582 20.6901 81.4973 20.4584 81.747 20.2899C81.9965 20.1216 82.2402 19.9952 82.4779 19.9109C82.7155 19.8268 82.9395 19.7726 83.1502 19.7485C83.3606 19.7246 83.5411 19.7124 83.6915 19.7124C84.2329 19.7124 84.7171 19.8193 85.1443 20.0328C85.5713 20.2464 85.9307 20.5426 86.2226 20.9216C86.5143 21.3006 86.737 21.7488 86.8904 22.2661C87.0438 22.7835 87.1205 23.3489 87.1205 23.9625C87.1205 24.6424 87.0272 25.28 86.8408 25.8755C86.6543 26.4711 86.3851 26.9914 86.0332 27.4366C85.6813 27.8818 85.2511 28.2322 84.7428 28.4878C84.2344 28.7434 83.6554 28.8713 83.0058 28.8713C82.7531 28.8713 82.5215 28.8472 82.3109 28.7991C82.1003 28.7509 81.9094 28.6864 81.7379 28.6052C81.5664 28.5239 81.4099 28.4307 81.2687 28.3255C81.1272 28.2202 81.0025 28.1134 80.8941 28.0051V28.357V31.8129C80.8941 31.9513 80.9316 32.0656 81.0069 32.1558C81.0821 32.2461 81.1797 32.3032 81.3002 32.3273L82.5454 32.5529V32.959H77.9796V32.5528ZM82.8161 28.1403C83.2854 28.1403 83.6898 28.0425 84.0298 27.847C84.3696 27.6516 84.6509 27.3913 84.8735 27.0665C85.0959 26.7416 85.2614 26.3658 85.3698 25.9386C85.478 25.5115 85.5322 25.0664 85.5322 24.6031C85.5322 24.0498 85.481 23.5369 85.3788 23.0646C85.2765 22.5925 85.1171 22.1819 84.9006 21.8329C84.684 21.4841 84.4057 21.2119 84.0659 21.0163C83.726 20.8209 83.3215 20.7231 82.8523 20.7231C82.7139 20.7231 82.5574 20.7381 82.383 20.7682C82.2085 20.7984 82.0325 20.8494 81.8551 20.9216C81.6776 20.9938 81.5046 21.0931 81.3363 21.2194C81.1678 21.3457 81.0205 21.5022 80.8941 21.6886V27.5629C80.9963 27.6532 81.1333 27.7343 81.3047 27.8065C81.4762 27.8787 81.6551 27.9389 81.8416 27.987C82.028 28.0352 82.2101 28.0727 82.3875 28.0998C82.5649 28.1268 82.7079 28.1403 82.8161 28.1403Z" fill="#454444"/>
<path d="M88.0406 28.3029L89.0062 28.0773C89.1263 28.0473 89.224 27.987 89.2993 27.8968C89.3746 27.8066 89.4121 27.6954 89.4121 27.563V21.1112C89.4121 20.979 89.3745 20.8677 89.2993 20.7774C89.224 20.6871 89.1263 20.627 89.0062 20.597L88.0406 20.3714V19.9653H95.3677V22.6814H94.9074L94.2759 21.0301C94.2336 20.9219 94.1569 20.8241 94.0457 20.7369C93.9344 20.6497 93.7733 20.606 93.563 20.606H90.9281V27.5631C90.9281 27.7016 90.9655 27.8143 91.041 27.9015C91.1161 27.9887 91.2137 28.0474 91.3341 28.0774L92.3808 28.303V28.7091H88.0406V28.3029V28.3029Z" fill="#454444"/>
<path d="M100.357 28.9524C99.7257 28.9524 99.1557 28.8442 98.6474 28.6276C98.139 28.411 97.7059 28.1013 97.3481 27.6982C96.9901 27.2953 96.7148 26.811 96.5224 26.2454C96.3298 25.6801 96.2337 25.0484 96.2337 24.3505C96.2337 23.7069 96.3298 23.1039 96.5224 22.5413C96.7148 21.9788 96.9916 21.4871 97.3525 21.0659C97.7135 20.6449 98.1541 20.314 98.6745 20.0734C99.1948 19.8328 99.7858 19.7124 100.448 19.7124C101.157 19.7124 101.771 19.8402 102.288 20.0959C102.806 20.3517 103.233 20.6915 103.57 21.1156C103.907 21.5397 104.158 22.0301 104.323 22.5864C104.489 23.1429 104.571 23.7189 104.571 24.3144C104.571 24.9522 104.477 25.5522 104.287 26.1147C104.098 26.6772 103.823 27.169 103.462 27.5899C103.101 28.0111 102.66 28.3434 102.14 28.5871C101.619 28.8306 101.025 28.9524 100.357 28.9524ZM100.484 28.3569C100.965 28.3569 101.362 28.2322 101.675 27.9824C101.988 27.7328 102.236 27.417 102.419 27.0349C102.603 26.6529 102.731 26.2363 102.803 25.7851C102.875 25.3339 102.911 24.9039 102.911 24.4947C102.911 23.9955 102.864 23.4962 102.771 22.9968C102.678 22.4976 102.529 22.0479 102.325 21.6478C102.12 21.2479 101.852 20.923 101.521 20.6733C101.191 20.4238 100.791 20.2989 100.321 20.2989C100.002 20.2989 99.7227 20.3561 99.4822 20.4703C99.2415 20.5846 99.031 20.7396 98.8505 20.935C98.67 21.1306 98.5196 21.3562 98.3994 21.6118C98.279 21.8676 98.1813 22.1383 98.1061 22.4239C98.0308 22.7097 97.9782 23 97.9482 23.2947C97.9181 23.5895 97.9031 23.8722 97.9031 24.1429C97.9031 24.4438 97.9197 24.7565 97.9528 25.0814C97.9857 25.4062 98.0431 25.7236 98.1242 26.0333C98.2054 26.3433 98.3107 26.6395 98.4401 26.9221C98.5694 27.2049 98.7302 27.4515 98.9229 27.662C99.1152 27.8726 99.3393 28.0409 99.5951 28.1673C99.8505 28.2938 100.147 28.3569 100.484 28.3569Z" fill="#454444"/>
<path d="M105.482 28.3029L106.448 28.0773C106.568 28.0473 106.666 27.987 106.741 27.8968C106.816 27.8066 106.854 27.6954 106.854 27.563V21.1112C106.854 20.979 106.816 20.8677 106.741 20.7774C106.666 20.6871 106.568 20.627 106.448 20.597L105.482 20.3714V19.9653H109.913C110.539 19.9653 111.053 20.0136 111.456 20.1097C111.859 20.2061 112.178 20.3369 112.413 20.5022C112.647 20.6677 112.81 20.8602 112.9 21.0797C112.99 21.2993 113.035 21.5324 113.035 21.779C113.035 22.0497 112.984 22.304 112.882 22.5415C112.779 22.7792 112.625 22.9958 112.417 23.1912C112.209 23.3867 111.949 23.5611 111.636 23.7145C111.324 23.8679 110.96 23.9988 110.545 24.107L110.779 24.1251C111.2 24.1553 111.581 24.2289 111.921 24.3461C112.26 24.4635 112.549 24.6139 112.787 24.7973C113.024 24.9809 113.208 25.1988 113.337 25.4515C113.467 25.7042 113.531 25.981 113.531 26.2817C113.531 26.7811 113.432 27.1886 113.234 27.5043C113.035 27.8202 112.772 28.0669 112.444 28.2442C112.116 28.4217 111.742 28.5435 111.321 28.6097C110.899 28.6759 110.463 28.709 110.012 28.709H105.482V28.3029ZM108.975 23.9716C109.498 23.9355 109.92 23.8694 110.242 23.7731C110.564 23.677 110.811 23.5551 110.982 23.4076C111.154 23.2602 111.268 23.0888 111.325 22.8933C111.382 22.6979 111.411 22.4827 111.411 22.2481C111.411 21.9473 111.372 21.6918 111.294 21.481C111.215 21.2706 111.092 21.0975 110.924 20.9622C110.755 20.8268 110.54 20.7291 110.279 20.669C110.017 20.6089 109.706 20.5787 109.345 20.5787H108.352V24.0167L108.975 23.9716ZM109.696 28.0953C110.051 28.0953 110.364 28.0653 110.635 28.0051C110.906 27.945 111.133 27.8487 111.316 27.7163C111.5 27.5841 111.638 27.414 111.731 27.2064C111.824 26.9988 111.871 26.7448 111.871 26.444C111.871 26.1011 111.826 25.8064 111.736 25.5596C111.645 25.313 111.504 25.1129 111.311 24.9595C111.119 24.8061 110.868 24.6933 110.558 24.6211C110.248 24.5489 109.877 24.5129 109.444 24.5129H108.352V28.0952H109.696V28.0953Z" fill="#454444"/>
<path d="M114.569 28.3029L115.535 28.0774C115.655 28.0474 115.753 27.9871 115.828 27.8969C115.903 27.8066 115.941 27.6955 115.941 27.5631V21.1113C115.941 20.9791 115.903 20.8678 115.828 20.7775C115.753 20.6872 115.655 20.6271 115.535 20.597L114.569 20.3715V19.9654H118.801V20.3715L117.845 20.597C117.724 20.6272 117.626 20.6859 117.551 20.773C117.476 20.8603 117.438 20.9731 117.438 21.1114V23.4666H119.009C119.466 23.4666 119.905 23.5072 120.326 23.5884C120.747 23.6696 121.117 23.8081 121.436 24.0035C121.755 24.1991 122.01 24.4607 122.203 24.7885C122.395 25.1165 122.492 25.527 122.492 26.0202C122.492 26.5136 122.392 26.9302 122.194 27.27C121.995 27.6099 121.731 27.8867 121.4 28.1002C121.069 28.3137 120.69 28.4687 120.263 28.5649C119.836 28.6611 119.397 28.7092 118.945 28.7092H114.569V28.3029V28.3029ZM118.702 28.0954C119.051 28.0954 119.357 28.0458 119.622 27.9466C119.887 27.8473 120.109 27.7075 120.29 27.527C120.47 27.3466 120.606 27.127 120.696 26.8683C120.786 26.6097 120.831 26.321 120.831 26.0021C120.831 25.3704 120.648 24.8937 120.281 24.5718C119.914 24.2501 119.379 24.0891 118.675 24.0891H117.438V28.0954H118.702ZM122.6 28.3029L123.466 28.0774C123.586 28.0474 123.684 27.9887 123.759 27.9014C123.835 27.8142 123.872 27.7014 123.872 27.563V21.1112C123.872 20.979 123.835 20.8677 123.759 20.7774C123.684 20.6871 123.586 20.627 123.466 20.5969L122.501 20.3714V19.9653H126.76V20.3714L125.794 20.5969C125.674 20.6271 125.576 20.6872 125.501 20.7774C125.426 20.8677 125.388 20.979 125.388 21.1112V27.563C125.388 27.6954 125.426 27.8066 125.501 27.8968C125.576 27.9871 125.674 28.0473 125.794 28.0773L126.76 28.3029V28.7089H122.6V28.3029H122.6Z" fill="#454444"/>
<path d="M127.626 28.3028L128.591 28.0772C128.712 28.0472 128.809 27.9869 128.885 27.8968C128.96 27.8065 128.997 27.6953 128.997 27.5629V21.1112C128.997 20.979 128.96 20.8676 128.885 20.7773C128.809 20.6871 128.712 20.627 128.591 20.5969L127.626 20.3713V19.9653H131.767V20.3713L130.901 20.5969C130.781 20.6271 130.683 20.6857 130.608 20.7729C130.533 20.8601 130.495 20.9729 130.495 21.1113V25.8215L130.477 26.6608L130.468 26.8863L134.79 20.6602V19.9654H137.624V20.3714L136.658 20.597C136.538 20.6271 136.44 20.6872 136.365 20.7774C136.29 20.8677 136.252 20.9791 136.252 21.1113V27.563C136.252 27.6954 136.29 27.8067 136.365 27.8968C136.44 27.9871 136.538 28.0473 136.658 28.0773L137.624 28.3029V28.7089H133.482V28.3029L134.348 28.0773C134.468 28.0473 134.566 27.9886 134.641 27.9013C134.717 27.8141 134.754 27.7014 134.754 27.5629V22.8798L134.772 22.1038L134.781 21.8241L130.468 28.0502V28.7089H127.626V28.3028V28.3028ZM132.724 17.98C132.225 17.98 131.8 17.9228 131.452 17.8085C131.103 17.6943 130.82 17.5513 130.603 17.3799C130.387 17.2085 130.229 17.0235 130.13 16.825C130.03 16.6265 129.981 16.4431 129.981 16.2746V15.7061H131.389V15.9226V16.9513C131.443 17.0296 131.519 17.0987 131.619 17.1588C131.718 17.219 131.829 17.2702 131.953 17.3122C132.076 17.3544 132.204 17.3859 132.336 17.407C132.468 17.4281 132.595 17.4385 132.715 17.4385C132.841 17.4385 132.971 17.4281 133.103 17.407C133.235 17.386 133.363 17.3544 133.487 17.3122C133.61 17.2702 133.721 17.219 133.82 17.1588C133.92 17.0987 133.996 17.0296 134.051 16.9513V15.9226V15.7061H135.458V16.2746C135.458 16.443 135.41 16.6265 135.314 16.825C135.218 17.0235 135.063 17.2085 134.849 17.3799C134.636 17.5514 134.354 17.6944 134.005 17.8085C133.656 17.9228 133.229 17.98 132.724 17.98Z" fill="#454444"/>
<path d="M142.866 28.0502H143.778C143.934 27.918 144.098 27.724 144.269 27.4682C144.441 27.2126 144.608 26.9119 144.77 26.5658C144.933 26.22 145.089 25.8394 145.239 25.4244C145.39 25.0093 145.521 24.5749 145.632 24.1206C145.743 23.6664 145.832 23.2047 145.898 22.7355C145.964 22.2663 145.997 21.8031 145.997 21.3459C145.997 21.1896 145.987 21.0648 145.966 20.9715C145.945 20.8783 145.915 20.8061 145.876 20.7549C145.836 20.7039 145.791 20.6677 145.74 20.6466C145.689 20.6256 145.633 20.6091 145.573 20.597L144.608 20.3714V19.9653H152.566V20.3714L151.601 20.597C151.48 20.6271 151.383 20.6872 151.308 20.7774C151.232 20.8677 151.195 20.979 151.195 21.1112V28.0503H152.657V31.5334H152.079L151.267 29.0339C151.225 28.9076 151.168 28.8173 151.096 28.7632C151.023 28.7091 150.936 28.6819 150.834 28.6819H144.689C144.587 28.6819 144.499 28.709 144.427 28.7632C144.355 28.8173 144.298 28.9076 144.256 29.0339L143.444 31.5334H142.866V28.0502H142.866ZM149.679 28.0502V20.5969H146.819C146.813 21.5294 146.751 22.3866 146.634 23.1686C146.516 23.9506 146.363 24.6544 146.173 25.2801C145.984 25.9058 145.764 26.4501 145.515 26.9133C145.265 27.3766 145.005 27.7555 144.734 28.0502H149.679Z" fill="#454444"/>
<path d="M157.511 28.9524C156.88 28.9524 156.31 28.8442 155.801 28.6276C155.293 28.411 154.86 28.1013 154.502 27.6982C154.144 27.2953 153.869 26.811 153.676 26.2454C153.484 25.6801 153.388 25.0484 153.388 24.3505C153.388 23.7069 153.484 23.1039 153.676 22.5413C153.869 21.9788 154.146 21.4871 154.506 21.0659C154.867 20.6449 155.308 20.314 155.828 20.0734C156.349 19.8328 156.94 19.7124 157.602 19.7124C158.311 19.7124 158.925 19.8402 159.442 20.0959C159.96 20.3517 160.387 20.6915 160.724 21.1156C161.061 21.5397 161.312 22.0301 161.477 22.5864C161.643 23.1429 161.725 23.7189 161.725 24.3144C161.725 24.9522 161.631 25.5522 161.441 26.1147C161.252 26.6772 160.976 27.169 160.616 27.5899C160.255 28.0111 159.814 28.3434 159.294 28.5871C158.773 28.8306 158.179 28.9524 157.511 28.9524ZM157.638 28.3569C158.119 28.3569 158.516 28.2322 158.829 27.9824C159.142 27.7328 159.39 27.417 159.573 27.0349C159.757 26.6529 159.885 26.2363 159.957 25.7851C160.029 25.3339 160.065 24.9039 160.065 24.4947C160.065 23.9955 160.018 23.4962 159.925 22.9968C159.832 22.4976 159.683 22.0479 159.478 21.6478C159.274 21.2479 159.006 20.923 158.675 20.6733C158.345 20.4238 157.945 20.2989 157.475 20.2989C157.156 20.2989 156.877 20.3561 156.636 20.4703C156.395 20.5846 156.185 20.7396 156.004 20.935C155.824 21.1306 155.674 21.3562 155.553 21.6118C155.433 21.8676 155.335 22.1383 155.26 22.4239C155.185 22.7097 155.132 23 155.102 23.2947C155.072 23.5895 155.057 23.8722 155.057 24.1429C155.057 24.4438 155.074 24.7565 155.107 25.0814C155.14 25.4062 155.197 25.7236 155.278 26.0333C155.359 26.3433 155.465 26.6395 155.594 26.9221C155.723 27.2049 155.884 27.4515 156.077 27.662C156.269 27.8726 156.493 28.0409 156.749 28.1673C157.004 28.2938 157.301 28.3569 157.638 28.3569Z" fill="#454444"/>
<path d="M162.636 28.3029L163.602 28.0773C163.722 28.0473 163.82 27.987 163.895 27.8968C163.97 27.8066 164.008 27.6954 164.008 27.563V21.1112C164.008 20.979 163.97 20.8677 163.895 20.7774C163.82 20.6871 163.722 20.627 163.602 20.597L162.636 20.3714V19.9653H166.192L168.411 26.2818L168.502 26.5435H168.556L170.974 19.9654H174.466V20.3715L173.501 20.597C173.38 20.6272 173.283 20.6859 173.207 20.773C173.132 20.8603 173.095 20.9731 173.095 21.1114V27.5632C173.095 27.7017 173.132 27.8144 173.207 27.9015C173.283 27.9888 173.38 28.0475 173.501 28.0775L174.466 28.3031V28.7092H170.333V28.3031L171.209 28.0775C171.329 28.0475 171.427 27.9873 171.502 27.8971C171.577 27.8068 171.615 27.6956 171.615 27.5633V20.4073H171.552L171.461 20.6781L168.98 27.3825L168.375 28.7089H167.87L164.937 20.669L164.838 20.3983H164.775V27.5629C164.775 27.7014 164.813 27.8126 164.888 27.8967C164.963 27.981 165.061 28.0411 165.181 28.0772L165.957 28.3028V28.7088H162.636V28.3029H162.636Z" fill="#454444"/>
<path d="M60.243 59.2099L62.2265 58.7882C62.4346 58.7363 62.6091 58.6269 62.7497 58.4602C62.8902 58.2938 62.9605 58.0959 62.9605 57.8667V40.5C62.9605 40.2607 62.8902 40.0577 62.7497 39.8909C62.6091 39.7246 62.4346 39.6152 62.2265 39.563L60.243 39.1568V38.4229H75.8606V43.9359H75.0173L73.5961 40.1721C73.5439 40.0159 73.4712 39.8858 73.3775 39.7816C73.2837 39.6776 73.1433 39.6254 72.9558 39.6254H65.7717V57.8666C65.7717 58.1063 65.8444 58.3039 65.9904 58.4601C66.136 58.6163 66.313 58.7256 66.5213 58.7881L68.7546 59.2098V59.9438H60.243V59.2099V59.2099Z" fill="#454444"/>
<path d="M77.1409 59.2099L79.1244 58.7882C79.3325 58.7363 79.507 58.6269 79.6476 58.4602C79.7881 58.2938 79.8584 58.0959 79.8584 57.8667V40.5C79.8584 40.2607 79.788 40.0577 79.6476 39.8909C79.507 39.7246 79.3325 39.6152 79.1244 39.563L77.1409 39.1568V38.4229H85.0434C86.1054 38.4229 87.1074 38.5297 88.0498 38.7431C88.9919 38.9565 89.8171 39.2923 90.5252 39.7504C91.2331 40.2086 91.7926 40.7967 92.204 41.5151C92.6152 42.2335 92.821 43.0978 92.821 44.1076C92.821 45.1801 92.6387 46.1457 92.2743 47.0047C91.9097 47.8636 91.41 48.5925 90.7751 49.1912C90.1398 49.79 89.3901 50.2506 88.5261 50.5732C87.6617 50.8961 86.7247 51.0573 85.7149 51.0573C85.4753 51.0573 85.2254 51.0289 84.9653 50.9714C84.7049 50.9143 84.4421 50.8362 84.1767 50.7371C83.9112 50.6384 83.6481 50.5238 83.388 50.3936C83.1276 50.2635 82.8882 50.1308 82.6696 49.9953V57.8665C82.6696 58.1062 82.7423 58.3092 82.8882 58.4757C83.0339 58.6424 83.2109 58.7465 83.4192 58.788L85.6525 59.2097V59.9437H77.1409V59.2099V59.2099ZM82.6696 49.4801C82.836 49.5219 83.0288 49.5582 83.2475 49.5895C83.4661 49.6208 83.695 49.6495 83.9346 49.6754C84.174 49.7015 84.4187 49.7199 84.6686 49.73C84.9185 49.7405 85.1579 49.7457 85.387 49.7457C86.0118 49.7457 86.553 49.6547 87.0113 49.4724C87.4693 49.2903 87.8624 49.0534 88.1904 48.7619C88.5183 48.4705 88.7839 48.145 88.9869 47.7858C89.1899 47.4265 89.3512 47.0648 89.471 46.7004C89.5906 46.336 89.6713 45.9898 89.7131 45.6618C89.7546 45.3338 89.7755 45.0605 89.7755 44.8419C89.7755 44.1445 89.6948 43.478 89.5334 42.8428C89.372 42.2078 89.0907 41.6481 88.69 41.164C88.2892 40.6799 87.7503 40.2921 87.0737 40.0005C86.3967 39.7091 85.5483 39.5632 84.5281 39.5632H82.6695V49.4801H82.6696Z" fill="#454444"/>
<path d="M91.353 59.2097L92.6962 58.8193C92.9043 58.7568 93.089 58.6396 93.2506 58.4679C93.4119 58.2961 93.5342 58.1062 93.6176 57.8979L99.8177 41.6868L101.708 38.0947H102.317L109.969 57.8978C110.052 58.1062 110.175 58.2961 110.336 58.4678C110.498 58.6396 110.682 58.7567 110.891 58.8192L112.234 59.2096V59.9436H104.628V59.2096L107.345 58.6943L104.753 51.9475H97.194L94.7733 58.6318L97.4283 59.2096V59.9436H91.3531V59.2097H91.353ZM104.269 50.7606L101.707 44.1701L100.927 42.0617H100.911L97.6782 50.7606H104.269Z" fill="#454444"/>
<path d="M112.108 59.2099L114.092 58.7882C114.3 58.7363 114.474 58.6269 114.615 58.4602C114.755 58.2938 114.826 58.0958 114.826 57.8667V40.5C114.826 40.2607 114.755 40.0577 114.615 39.8909C114.474 39.7246 114.3 39.6152 114.092 39.563L112.108 39.1568V38.4229H120.354V39.1568L118.387 39.563C118.178 39.6152 118.001 39.7269 117.856 39.8987C117.71 40.0705 117.637 40.2711 117.637 40.4999V48.1369H128.101V40.4999C128.101 40.2606 128.03 40.0627 127.89 39.9065C127.749 39.7504 127.575 39.6359 127.367 39.563L125.383 39.1568V38.4229H133.629V39.1568L131.646 39.563C131.437 39.6047 131.263 39.714 131.123 39.8909C130.982 40.0681 130.912 40.2711 130.912 40.5V57.8667C130.912 58.1064 130.982 58.3067 131.123 58.4681C131.263 58.6295 131.437 58.7363 131.646 58.7882L133.629 59.2099V59.9439H125.383V59.2099L127.367 58.7882C127.575 58.7363 127.749 58.6269 127.89 58.4602C128.03 58.2938 128.101 58.0958 128.101 57.8667V49.3552H117.637V57.8667C117.637 58.1064 117.707 58.3067 117.848 58.4681C117.988 58.6295 118.168 58.7363 118.387 58.7882L120.354 59.2099V59.9439H112.108V59.2099V59.2099Z" fill="#454444"/>
<path d="M135.113 59.2099L137.096 58.7882C137.304 58.7363 137.479 58.6269 137.619 58.4602C137.76 58.2938 137.83 58.0959 137.83 57.8667V40.5C137.83 40.2607 137.76 40.0577 137.619 39.8909C137.479 39.7246 137.304 39.6152 137.096 39.563L135.113 39.1568V38.4229H143.359V39.1568L141.391 39.563C141.183 39.6152 141.006 39.7269 140.86 39.8987C140.714 40.0705 140.641 40.2711 140.641 40.4999V54.1185L140.61 55.649L140.594 56.2581L151.48 39.844V38.4229H156.946V39.1568L154.962 39.563C154.754 39.6152 154.58 39.7269 154.439 39.8987C154.299 40.0705 154.228 40.2711 154.228 40.4999V57.8666C154.228 58.1063 154.299 58.3066 154.439 58.468C154.58 58.6295 154.754 58.7362 154.962 58.7881L156.946 59.2098V59.9438H148.7V59.2098L150.683 58.7881C150.891 58.7362 151.066 58.6268 151.206 58.4601C151.347 58.2938 151.417 58.0958 151.417 57.8666V44.2013L151.449 42.702L151.464 42.1242L140.579 58.5539V59.9438H135.113V59.2099Z" fill="#454444"/>
<path d="M162.818 59.2097L165.114 58.788C165.322 58.7465 165.496 58.6397 165.637 58.4679C165.777 58.2961 165.848 58.0957 165.848 57.8665V39.594H160.866C160.657 39.594 160.506 39.6463 160.413 39.7503C160.319 39.8544 160.246 39.9845 160.194 40.1407L159.07 43.5922H158.242V38.4229H176.311V43.5922H175.484L174.359 40.1407C174.307 39.9845 174.237 39.8544 174.148 39.7503C174.06 39.6463 173.916 39.594 173.719 39.594H168.659V57.8665C168.659 58.1062 168.731 58.3092 168.877 58.4757C169.023 58.6424 169.2 58.7465 169.408 58.788L171.704 59.2097V59.9437H162.818V59.2097V59.2097Z" fill="#454444"/>
<path d="M27.78 31.2416L13.8797 49.2929L0 31.2271L13.8197 31.2333L27.78 31.2416Z" fill="url(#paint0_linear)"/>
<path d="M28.7398 8.58911L13.2108 28.7563L0.00204468 28.7501L22.1405 0L28.7398 8.58911Z" fill="url(#paint1_linear)"/>
<path d="M44.2439 28.7731L30.2962 28.7668L16.3361 28.7586L30.3024 10.6226L37.5518 20.0621L44.2439 28.7731Z" fill="url(#paint2_linear)"/>
<path d="M44.2481 31.2498L22.1095 60L15.4443 51.32L30.9051 31.2437L44.2481 31.2498Z" fill="url(#paint3_linear)"/>
<defs>
<linearGradient id="paint0_linear" x1="-2.67069e-05" y1="40.26" x2="27.7799" y2="40.26" gradientUnits="userSpaceOnUse">
<stop offset="0.1927" stop-color="#454444"/>
<stop offset="0.4146" stop-color="#777776"/>
<stop offset="0.5447" stop-color="#979796"/>
<stop offset="0.6132" stop-color="#80807F"/>
<stop offset="0.7253" stop-color="#605F5F"/>
<stop offset="0.8192" stop-color="#4C4B4B"/>
<stop offset="0.8827" stop-color="#454444"/>
</linearGradient>
<linearGradient id="paint1_linear" x1="0.00203578" y1="14.3781" x2="28.7398" y2="14.3781" gradientUnits="userSpaceOnUse">
<stop offset="0.1927" stop-color="#454444"/>
<stop offset="0.4146" stop-color="#777776"/>
<stop offset="0.5447" stop-color="#979796"/>
<stop offset="0.6132" stop-color="#80807F"/>
<stop offset="0.7253" stop-color="#605F5F"/>
<stop offset="0.8192" stop-color="#4C4B4B"/>
<stop offset="0.8827" stop-color="#454444"/>
</linearGradient>
<linearGradient id="paint2_linear" x1="16.336" y1="19.6978" x2="44.2439" y2="19.6978" gradientUnits="userSpaceOnUse">
<stop offset="0.0782" stop-color="#20645F"/>
<stop offset="0.2256" stop-color="#187262"/>
<stop offset="0.5045" stop-color="#029869"/>
<stop offset="0.5279" stop-color="#009B6A"/>
<stop offset="0.8883" stop-color="#0D4F49"/>
</linearGradient>
<linearGradient id="paint3_linear" x1="15.4443" y1="45.6218" x2="44.2481" y2="45.6218" gradientUnits="userSpaceOnUse">
<stop offset="0.0782" stop-color="#20645F"/>
<stop offset="0.2256" stop-color="#187262"/>
<stop offset="0.5045" stop-color="#029869"/>
<stop offset="0.5279" stop-color="#009B6A"/>
<stop offset="0.8883" stop-color="#0D4F49"/>
</linearGradient>
</defs>
</svg>
