<svg width="1305" height="550" viewBox="0 0 1305 550" fill="none" xmlns="http://www.w3.org/2000/svg">
<path d="M1088.16 383.943L1087.83 379.634V356.849L1082.57 345.632H1079.42V341.776L1079.4 341.657C1082.12 339.549 1083.88 336.246 1083.88 332.534C1083.88 327.943 1081.2 323.98 1077.31 322.126V318.641L1073.67 311.115C1076 311.205 1077.81 311.285 1079.06 311.355C1143.44 314.938 1200.59 321.141 1219.18 360.773C1223.83 370.68 1243.79 407.134 1263.09 442.384C1280.72 474.593 1297.81 505.797 1302.15 514.818C1310.38 531.889 1292.36 544.799 1286.01 547.977L471.196 548.844C375.657 547.399 154.525 537.28 61.6995 526.88C-48.5542 514.525 22.7123 466.268 36.5668 459.334C40.8475 457.191 58.4323 445.473 82.4278 429.482C136.093 393.72 221.824 336.588 262.512 317.422C300.379 300.905 331.768 299.322 357.736 298.011C362.456 297.773 366.996 297.544 371.364 297.236C373.938 297.324 380.431 297.282 384.686 297.254C386.169 297.244 387.38 297.236 388.058 297.236C388.428 297.236 388.776 297.227 389.21 297.217C390.511 297.184 390.684 297.114 396.5 297.217L391.5 301.5V319L380.5 329L373 328.105L371.364 324.5C374.469 322.455 375.875 320.012 375.875 316.016C375.875 309.701 370.755 304.581 364.44 304.581C358.124 304.581 355.005 309.701 355.005 316.016C355.005 320.265 356.06 323.028 359.5 325L357 329H353.5L346.441 338.271L348.347 393.23L348.245 393.227L347.936 384.788L334.817 396.118V447.478L542.616 453.734C538.658 471.958 563.587 507.375 676.796 511.38C852.016 517.578 873.315 466.214 873.315 466.214C873.315 466.214 1022.88 470.654 1096.32 472.629L1098.77 418.723L1088.16 383.943Z" fill="#C4C4C4" fill-opacity="0.8" stroke="#0C9E6A"/>
<path d="M785.6 293.962V305.441L780.165 315.173H747.898C746.691 321.051 744.296 326.526 743.154 328.241C742.43 329.329 743.344 330.578 744.367 331.976C745.28 333.223 746.28 334.589 746.28 336.065C746.28 339.36 739.611 339.743 737.51 339.864C737.281 339.877 737.105 339.887 736.999 339.898L736.999 339.909C736.999 339.909 736.979 339.907 736.941 339.903C736.904 339.907 736.884 339.909 736.884 339.909L736.883 339.898C736.778 339.887 736.603 339.877 736.375 339.864C734.281 339.744 727.638 339.361 727.638 336.065C727.638 334.589 728.637 333.224 729.55 331.977C730.574 330.579 731.488 329.329 730.764 328.241C729.622 326.526 727.227 321.051 726.02 315.173H722.327V291.142L675.663 289.933V299.324L671.709 306.848H636.153C634.782 308.834 633.392 310.907 631.982 313.01L631.98 313.012L631.979 313.014L631.978 313.016C625.976 321.969 619.623 331.447 612.89 336.901C612.039 337.961 599.189 343.924 596.47 343.924C596.346 343.924 595.652 343.937 595.652 343.937L596.47 392.67L590.617 399.917H558.282V381.659L388.246 377.339V386.816L379.047 394.203L348.245 393.227L347.936 384.788L334.817 396.118V447.479L542.616 453.734C538.658 471.959 563.587 507.375 676.796 511.38C852.016 517.578 873.315 466.214 873.315 466.214C873.315 466.214 1022.88 470.654 1096.32 472.629L1098.93 418.076L1088.37 379.343L1086.81 414.072H1052.98V395.251L862.945 391.877V408.985H830.274V344.478L835.898 339.658L840.584 338.587C842.873 338.587 841.388 336.444 841.388 336.444C839.099 333.392 837.505 332.294 837.505 326C837.505 321.716 842.943 316.36 848.752 316.36C851.396 316.311 854.364 317.476 856.919 318.636L857.857 312.337H831.198V293.962H785.6Z" fill="#C4C4C4" fill-opacity="0.8"/>
<path d="M496.489 302.627V285.734L491.378 285.609V291H472.5L465.5 297.5V312.5L457.5 320.745H443.5L431.5 331L430.5 338.5V343.5L526.259 345.533C504.785 343.743 491.574 335.182 491.378 333.533C491.038 330.664 490.68 312.796 491.378 311.007C492.505 309.596 493.497 308.656 495.096 307.143C496.24 306.059 497.695 304.682 499.733 302.627H496.489Z" fill="#C4C4C4" fill-opacity="0.8"/>
<path d="M990.021 341.026C986.5 339.5 985.844 335.625 985.5 333.5C985.924 336.138 985.5 345.201 983.297 349.308C980.5 353.5 971.863 357.948 966.945 358.372H1002.97C1002.97 356.738 1003.13 355.145 1003.54 354.262C1004.01 353.272 1002.97 351.215 1001.83 349.308C1001 347.92 1000.9 346.437 1000.78 344.588L1000.78 344.586C1000.73 343.896 1000.68 343.155 1000.59 342.349C1000.23 342.309 999.699 342.282 999.037 342.249C996.862 342.14 993.291 341.961 990.021 341.026Z" fill="#C4C4C4" fill-opacity="0.8"/>
<path d="M1043.93 336.772H1041.23C1041.23 341.559 1037.18 343.224 1034.68 343.224H1016.49C1016.58 343.722 1016.69 344.418 1016.82 345.201L1016.82 345.206C1017.09 346.928 1017.44 349.07 1017.73 350.453C1018.3 353.133 1020 356.379 1020 359.5H1052L1043.93 336.772Z" fill="#C4C4C4" fill-opacity="0.8"/>
<path d="M785.6 293.962V305.441L780.165 315.173H747.898C746.691 321.051 744.296 326.526 743.154 328.241C742.43 329.329 743.344 330.578 744.367 331.976C745.28 333.223 746.28 334.589 746.28 336.065C746.28 339.36 739.611 339.743 737.51 339.864C737.281 339.877 737.105 339.887 736.999 339.898L736.999 339.909C736.999 339.909 736.979 339.907 736.941 339.903C736.904 339.907 736.884 339.909 736.884 339.909L736.883 339.898C736.778 339.887 736.603 339.877 736.375 339.864C734.281 339.744 727.638 339.361 727.638 336.065C727.638 334.589 728.637 333.224 729.55 331.977C730.574 330.579 731.488 329.329 730.764 328.241C729.622 326.526 727.227 321.051 726.02 315.173H722.327V291.142L675.663 289.933V299.324L671.709 306.848H636.153C634.782 308.834 633.392 310.907 631.982 313.01L631.98 313.012L631.979 313.014L631.978 313.016C625.976 321.969 619.623 331.447 612.89 336.901C612.039 337.961 599.189 343.924 596.47 343.924C596.346 343.924 595.652 343.937 595.652 343.937L596.47 392.67L590.617 399.917H558.282V381.659L388.246 377.339V386.816L379.047 394.203L348.245 393.227L347.936 384.788L334.817 396.118V447.479L542.616 453.734C538.658 471.959 563.587 507.375 676.796 511.38C852.016 517.578 873.315 466.214 873.315 466.214C873.315 466.214 1022.88 470.654 1096.32 472.629L1098.93 418.076L1088.37 379.343L1086.81 414.072H1052.98V395.251L862.945 391.877V408.985H830.274V344.478L835.898 339.658L840.584 338.587C842.873 338.587 841.388 336.444 841.388 336.444C839.099 333.392 837.505 332.294 837.505 326C837.505 321.716 842.943 316.36 848.752 316.36C851.396 316.311 854.364 317.476 856.919 318.636L857.857 312.337H831.198V293.962H785.6Z" stroke="#0C9E6A"/>
<path d="M496.489 302.627V285.734L491.378 285.609V291H472.5L465.5 297.5V312.5L457.5 320.745H443.5L431.5 331L430.5 338.5V343.5L526.259 345.533C504.785 343.743 491.574 335.182 491.378 333.533C491.038 330.664 490.68 312.796 491.378 311.007C492.505 309.596 493.497 308.656 495.096 307.143C496.24 306.059 497.695 304.682 499.733 302.627H496.489Z" stroke="#0C9E6A"/>
<path d="M990.021 341.026C986.5 339.5 985.844 335.625 985.5 333.5C985.924 336.138 985.5 345.201 983.297 349.308C980.5 353.5 971.863 357.948 966.945 358.372H1002.97C1002.97 356.738 1003.13 355.145 1003.54 354.262C1004.01 353.272 1002.97 351.215 1001.83 349.308C1001 347.92 1000.9 346.437 1000.78 344.588L1000.78 344.586C1000.73 343.896 1000.68 343.155 1000.59 342.349C1000.23 342.309 999.699 342.282 999.037 342.249C996.862 342.14 993.291 341.961 990.021 341.026Z" stroke="#0C9E6A"/>
<path d="M1043.93 336.772H1041.23C1041.23 341.559 1037.18 343.224 1034.68 343.224H1016.49C1016.58 343.722 1016.69 344.418 1016.82 345.201L1016.82 345.206C1017.09 346.928 1017.44 349.07 1017.73 350.453C1018.3 353.133 1020 356.379 1020 359.5H1052L1043.93 336.772Z" stroke="#0C9E6A"/>
<path fill-rule="evenodd" clip-rule="evenodd" d="M667.167 258.976V273.712H675.361V299.71L671.5 306.5C658.549 306.5 647.614 306.724 636.5 306.5C637.882 304.284 638.5 303 640 299.71V285L521 281.5C515.665 286.617 506.832 295.658 500 302.768H497.028V280.524L500.639 273.573H503.833V256.334C506.056 253.693 512.306 248.41 512.306 248.41H515.083L518.556 243.961L516.472 240.346L514.389 105.215H514.528C514.528 104.519 514.667 102.712 515.778 100.766C516.319 99.8181 515.674 99.2659 514.742 98.4674C514.717 98.4459 514.692 98.4242 514.667 98.4024C513.556 97.5682 512.167 96.456 512.167 94.2317H507.306C504.389 82.4146 507.306 55.8609 534.389 50.439C534.389 50.439 542.306 30.8365 556.75 24.7195C571.194 18.6024 580.361 5.5341 580.361 1.50239C580.361 -0.304929 581.75 1.64141 584.111 5.11702L584.134 5.15031C588.024 10.8527 594.263 19.9972 601.056 22.356C612.028 25.5536 627.028 34.3122 627.028 48.9097C627.028 49.0487 628 49.6048 629.528 50.0219L629.558 50.0323C637.367 52.6841 660.773 60.633 656.889 95.2048C656.889 97.4968 655.258 98.7392 654.023 99.6797C653.91 99.766 653.8 99.8498 653.694 99.9317C652.722 100.488 652.167 100.905 652.583 101.6C653.369 102.61 653.701 103.984 653.873 104.694C653.914 104.864 653.946 104.995 653.972 105.076H654.111L655.361 240.485H655.5L652.167 245.907L656.194 250.634L663.972 250.773L667.167 258.976ZM628 249.244H638.694L640.917 246.046L638.833 240.624L637.861 105.215C637.861 104.937 638 103.407 639.111 101.739C639.667 100.766 638.972 100.21 638 99.5146C636.889 98.6805 635.639 97.7073 635.5 96.039C632.583 96.178 630.639 96.178 629.667 96.178C622.028 68.0951 597.444 59.6146 580.083 59.6146C565.639 59.6146 540.639 68.5121 531.333 94.5097H530.917C530.917 96.317 529.667 97.7073 528.556 98.6804C527.583 99.6536 527.028 100.21 527.444 101.044C528.417 102.295 528.694 104.241 528.694 105.076H528.833L531.472 240.485L529.944 244.1L533.833 248.827H546.611V109.246C546.611 101.739 552.861 71.9878 584.944 72.8219C617.028 73.6561 628 102.573 628 110.358V249.244Z" fill="#C4C4C4" fill-opacity="0.8" stroke="#0C9E6A"/>
<path fill-rule="evenodd" clip-rule="evenodd" d="M1003.89 267.188V282.5H1007.85L1011.81 291V300C1011.81 300 997 300.5 992 300.5C987 300.5 985 303.5 985 306C985 310 985 314.498 985 314.498C984 314.498 984 314.498 983.424 314.498C983.116 307.355 982.78 299.975 982.5 294.8L860.363 292.757C859.674 297.454 858.794 304.821 857.985 312.084C849.137 311.856 840.519 311.708 831.25 311.708V284.702L837.083 274.73H840.278V256H848.5C848.5 256 849 255.5 851.528 249.662L854 247L852.5 243V108.535H854.167C854.167 107.842 854.306 106.042 855.417 104.103C855.958 103.159 855.313 102.609 854.381 101.813C854.356 101.792 854.331 101.77 854.306 101.749C853.194 100.918 851.806 99.8096 851.806 97.5937H847C845.333 85.5446 852.5 58 877.778 51.6131C877.778 51.6131 883.333 34.7166 901.528 27.0994C920.016 21.9942 924.673 6.78536 925.772 3.196C925.878 2.84857 925.951 2.61 926 2.5C926.372 2.50001 926.397 2.80282 926.445 3.38852C926.517 4.26454 926.641 5.7734 928.056 7.84845C928.801 8.91024 929.577 10.1043 930.391 11.3575C933.826 16.6429 937.944 22.9803 943.333 24.8834C954.167 28.2073 971.389 39.564 971.389 54.106C971.389 54.2445 972.361 54.7985 973.889 55.214C974.412 55.3879 974.993 55.5663 975.622 55.7593C984.51 58.4871 1002.93 64.1416 1002 101.472C1002 101.472 997.778 100.918 996.528 101.887C995.556 102.441 995 102.857 995.417 103.549C996.389 104.795 996.528 108.169 996.528 109L993.444 248.768V249.46L991.389 254.169L993.889 259.016H1000.69L1003.89 267.188ZM980 107.288C980 106.873 980 105.626 981.111 103.965C981.806 102.995 981.667 101.887 980.556 101.472C980.213 101.215 979.936 101.087 979.713 100.985C979.214 100.754 978.985 100.649 978.889 99.5C976.884 99.6 975.675 99.5556 974.791 99.5232C974.451 99.5107 974.159 99.5 973.889 99.5C966.25 71.3854 939.167 63.5 921.806 63.5C907.222 63.5 882.167 72.1105 873 98.0092H870.278C870.278 99.8096 869.028 101.195 867.917 102.164C866.944 103.134 866.389 103.688 866.806 104.518C867.778 105.765 868.056 107.704 868.056 108.535H868.194V244L866 247L870.139 250.078L879.028 250.216V122.246C877.917 107.288 888.472 78.6198 921.806 79.4508C955.139 80.1432 963.472 106.319 963.472 117.26V260.049L973.889 260.188L977.222 253.5V249.662L980 107.288Z" fill="#C4C4C4" fill-opacity="0.8" stroke="#0C9E6A"/>
<path d="M584.583 334.974L582.383 330.474C585.383 328.274 586.183 324.874 586.183 320.974C586.183 316.074 581.283 311.274 576.483 311.274C570.083 311.274 565.783 315.5 565.783 320.974C565.783 326.447 567.683 328.374 570.583 330.374L567.083 335.074H563.183L553.583 346.774L532.168 346.237C509.362 344.428 497.69 338.811 491.706 334.603C491.706 334.603 491.23 311.558 491.706 311.049C495.748 306.728 512.952 289.218 521 281.5L640.177 284.5V300.178C638.314 302.792 636.48 305.763 634.502 308.967C629.542 317.001 623.682 326.493 614.216 335.452C610.169 339.282 603.4 341.934 595.283 343.728V337.274L588.783 334.974H584.583Z" fill="#C4C4C4" fill-opacity="0.8" stroke="#0C9E6A"/>
<path d="M964.634 358.049C972 358.049 983.5 354 985 343.5C986 324.5 983.444 312.261 982.5 294.8L921.264 293.776C923.299 300.914 925.815 310.274 925.693 315.847C925.557 322.037 922.529 326.304 920.519 329.136C919.51 330.558 918.757 331.618 918.757 332.378C918.757 333.49 919.49 334.207 920.238 334.938C921.019 335.703 921.817 336.484 921.817 337.751C921.817 339.08 921.348 340.053 920.913 340.956C920.536 341.738 920.185 342.467 920.185 343.33C920.185 344.179 920.865 345.028 921.624 345.975C922.527 347.103 923.542 348.37 923.653 349.942C923.816 352.257 921.461 356.036 920.237 357H914.271L964.634 358.049Z" fill="#C4C4C4" fill-opacity="0.8"/>
<path d="M909.039 356.891C907.783 355.778 905.544 352.177 905.701 349.942C905.812 348.37 906.828 347.102 907.731 345.974C908.49 345.027 909.169 344.179 909.169 343.33C909.169 342.467 908.818 341.737 908.441 340.955C908.006 340.052 907.537 339.079 907.537 337.751C907.537 336.484 908.336 335.703 909.117 334.938C909.865 334.206 910.597 333.49 910.597 332.378C910.597 331.618 909.845 330.558 908.835 329.136C906.826 326.304 903.797 322.037 903.662 315.847C903.538 310.217 906.107 300.722 908.153 293.556L860.363 292.757C859.44 299.044 858.177 310.113 857.198 319.315C859.524 321.46 860.983 324.516 860.983 327.874C860.983 332.164 858.793 335.758 855.704 337.761L855.704 339.783L858.683 341.174L864.983 344.274V356.16C867.5 356.16 869.5 356.16 873.923 356.16L909.039 356.891Z" fill="#C4C4C4" fill-opacity="0.8"/>
<path d="M964.634 358.049C972 358.049 983.5 354 985 343.5C986 324.5 983.444 312.261 982.5 294.8L921.264 293.776C923.299 300.914 925.815 310.274 925.693 315.847C925.557 322.037 922.529 326.304 920.519 329.136C919.51 330.558 918.757 331.618 918.757 332.378C918.757 333.49 919.49 334.207 920.238 334.938C921.019 335.703 921.817 336.484 921.817 337.751C921.817 339.08 921.348 340.053 920.913 340.956C920.536 341.738 920.185 342.467 920.185 343.33C920.185 344.179 920.865 345.028 921.624 345.975C922.527 347.103 923.542 348.37 923.653 349.942C923.816 352.257 921.461 356.036 920.237 357H914.271L964.634 358.049Z" stroke="#0C9E6A"/>
<path d="M909.039 356.891C907.783 355.778 905.544 352.177 905.701 349.942C905.812 348.37 906.828 347.102 907.731 345.974C908.49 345.027 909.169 344.179 909.169 343.33C909.169 342.467 908.818 341.737 908.441 340.955C908.006 340.052 907.537 339.079 907.537 337.751C907.537 336.484 908.336 335.703 909.117 334.938C909.865 334.206 910.597 333.49 910.597 332.378C910.597 331.618 909.845 330.558 908.835 329.136C906.826 326.304 903.797 322.037 903.662 315.847C903.538 310.217 906.107 300.722 908.153 293.556L860.363 292.757C859.44 299.044 858.177 310.113 857.198 319.315C859.524 321.46 860.983 324.516 860.983 327.874C860.983 332.164 858.793 335.758 855.704 337.761L855.704 339.783L858.683 341.174L864.983 344.274V356.16C867.5 356.16 869.5 356.16 873.923 356.16L909.039 356.891Z" stroke="#0C9E6A"/>
<path d="M923.653 272.573C944.629 271.228 960.545 264.676 960.545 256.797C960.545 247.945 940.453 240.768 915.667 240.768C890.881 240.768 870.788 247.945 870.788 256.797C870.788 264.427 885.712 270.811 905.701 272.43V275.346C905.701 275.995 906.649 276.247 907.554 276.489C908.38 276.709 909.169 276.92 909.169 277.413C909.169 277.818 909.389 278.573 909.656 279.491C910.07 280.913 910.597 282.725 910.597 284.232C910.597 285.056 909.809 287.797 908.763 291.431C906.663 298.733 903.525 309.639 903.662 315.847C903.797 322.037 906.826 326.304 908.836 329.136C909.845 330.558 910.597 331.618 910.597 332.378C910.597 333.49 909.865 334.206 909.117 334.938C908.336 335.703 907.537 336.484 907.537 337.751C907.537 339.08 908.006 340.052 908.441 340.955C908.818 341.737 909.169 342.467 909.169 343.33C909.169 344.179 908.49 345.028 907.731 345.975C906.827 347.103 905.812 348.37 905.701 349.942C905.538 352.257 907.946 356.036 909.169 357H920.237C921.461 356.036 923.816 352.257 923.653 349.942C923.542 348.37 922.527 347.103 921.624 345.975C920.865 345.028 920.185 344.179 920.185 343.33C920.185 342.467 920.537 341.737 920.913 340.955C921.348 340.052 921.817 339.08 921.817 337.751C921.817 336.484 921.018 335.703 920.237 334.938C919.489 334.206 918.757 333.49 918.757 332.378C918.757 331.618 919.51 330.558 920.519 329.136C922.529 326.304 925.557 322.037 925.693 315.847C925.829 309.639 922.692 298.733 920.591 291.432C919.546 287.797 918.757 285.056 918.757 284.232C918.757 282.725 919.285 280.913 919.698 279.491C919.965 278.573 920.185 277.818 920.185 277.413C920.185 276.92 920.975 276.709 921.801 276.489C922.705 276.247 923.653 275.995 923.653 275.346V272.573Z" fill="#C4C4C4" fill-opacity="0.8" stroke="#0C9E6A"/>
<path d="M1034.8 307.509C1033.46 301.899 1030.5 300 1010 300C987 300 985 300.5 985 308.5C985 316.5 985.32 325.417 986 334.398C986.5 341 989.108 341.971 1000.5 342.5C1001.22 342.533 1000.72 344 1001 347C1001.12 348.289 1003.14 350.668 1003.5 352.983C1003.97 356.055 1002 359 1002 359H1020L1016 343.483C1039.5 343.483 1042 343.483 1040.5 334C1039.06 324.918 1036.92 316.431 1034.8 307.509Z" fill="#C4C4C4" fill-opacity="0.8"/>
<path d="M1002 359H1020L1016 343.483C1039.5 343.483 1042 343.483 1040.5 334C1039.06 324.918 1036.92 316.431 1034.8 307.509C1033.46 301.899 1030.5 300 1010 300C987 300 985 300.5 985 308.5C985 316.5 985.32 325.417 986 334.398C986.5 341 989.108 341.971 1000.5 342.5C1001.22 342.533 1000.72 344 1001 347C1001.12 348.289 1003.14 350.668 1003.5 352.983M1002 359C1002 359 1003.97 356.055 1003.5 352.983M1002 359L1003.5 352.983" stroke="#0C9E6A"/>
<path d="M582.383 330.474L584.583 334.974H588.783L595.283 337.274L596.5 392L590.5 399.874H558.383V381.074L388 377.5V386.5L378.5 394.5L348 393L346.5 338.5L354.183 328.774H356.983L359.183 324.874C356.983 323.074 354.383 320.074 354.383 315.674C354.383 309.274 358.683 304.474 365.083 304.474C371.483 304.474 376.083 309.274 376.083 315.674C376.083 320.074 374.683 321.674 370.983 324.874L373.5 328.774H380.683L391.783 319.274V301.274L400.383 294.274H403.283L404.683 290.974C401.783 289.774 399.283 286.374 399.283 281.974C399.283 275.874 404.683 271.974 409.183 271.974C413.183 271.974 419.083 274.174 419.083 281.974C419.083 285.874 419.083 287.174 414.883 291.174L416.583 294.274H422.883L431.483 287.274V272.374L437.883 266.574L441.483 262.174C439.383 260.674 437.483 256.474 437.483 254.374C437.483 248.674 441.083 245.174 446.683 245.174C452.383 245.174 455.883 248.774 455.883 254.374C455.883 258.174 454.883 260.474 451.883 262.174L450.983 264.574H455.783L463.583 259.874V244.274L472.183 240.374H472.783L473.683 237.574C470.883 236.074 468.983 232.874 468.983 229.474C468.983 224.274 473.183 220.074 478.383 220.074C483.583 220.074 487.783 224.274 487.783 229.474C487.783 232.874 485.883 235.974 483.083 237.574L483.983 240.374H489.283L494.783 244.274V251.274H508.5L503.5 256.5V273.5H501L498.5 277.674H490.983V291.074H473.683L475.983 287.274L465.083 297.474V312.974L457.283 320.374H443.183L431.483 330.374L429.883 339.774V343.674L553.583 346.774L563.183 335.074H567.083L570.583 330.374C567.683 328.374 565.783 326 565.783 320.974C565.783 315.5 570.083 311.274 576.483 311.274C581.283 311.274 586.183 316.074 586.183 320.974C586.183 324.874 585.383 328.274 582.383 330.474Z" fill="#C4C4C4" fill-opacity="0.8"/>
<path d="M836.5 275L831 284.874H786V258.274H840.5L840 274.5L836.5 275Z" fill="#C4C4C4" fill-opacity="0.8"/>
<path d="M667.083 277.274H675.483V281.574L722.383 281.774V264.274L726.583 255.974L667.083 255.574V277.274Z" fill="#C4C4C4" fill-opacity="0.8"/>
<path d="M1079.78 345.874H1085.28L1087.78 356.874L1086.5 414H1053.5V395L862.883 392.074V408.474H830.383V344.274L835.983 339.674L840.683 338.774L841.683 336.774C838.983 334.574 837.383 331.474 837.383 327.874C837.383 321.474 842.683 316.174 849.183 316.174C855.683 316.174 860.983 321.474 860.983 327.874C860.983 332.174 858.783 335.774 855.683 337.774V339.774L858.683 341.174L864.983 344.274V355.974L1052.28 359.874L1049.5 351.5L1044 336.5C1044 336.5 1042.5 336.25 1041 336C1039.48 332.168 1038.16 321.272 1034.78 306.074C1034.1 302.992 1031.78 302.569 1031.78 302.569V290.374H1011.5L1008 282.5H1003.38V266L1002.5 262.974H1031.78V255.274L1035 251H1041.5L1042.5 248C1038 246 1037.5 242.5 1037.5 239.5C1037.5 235.5 1041.5 231.5 1046 231.5C1051 231.5 1054.58 235.174 1054.58 240.774C1054.58 242.574 1054 247 1050 248L1051.38 251.974H1052.48L1057.78 258.174C1060.98 259.774 1063.18 262.974 1063.18 266.774C1063.18 270.274 1061.28 273.274 1058.48 274.974V277.774H1063.98L1068.68 287.174V288.474C1071.48 290.374 1072.58 294.274 1072.58 297.374C1072.58 300.574 1069.78 303.974 1066.78 306.074L1068.78 309.974L1076.68 312.874L1076.78 320.874V323.074C1081.28 324.774 1082.58 329.374 1082.58 332.774C1082.58 336.174 1081.38 341.374 1076.78 342.974L1079.78 345.874Z" fill="#C4C4C4" fill-opacity="0.8"/>
<path d="M1044 336.5L1049.5 351.5L1052.28 359.874L864.983 355.974V344.274L858.683 341.174L855.683 339.774V337.774C858.783 335.774 860.983 332.174 860.983 327.874C860.983 321.474 855.683 316.174 849.183 316.174C842.683 316.174 837.383 321.474 837.383 327.874C837.383 331.474 838.983 334.574 841.683 336.774L840.683 338.774L835.983 339.674L830.383 344.274V408.474H862.883V392.074L1053.5 395V414H1086.5L1087.78 356.874L1085.28 345.874H1079.78L1076.78 342.974C1081.38 341.374 1082.58 336.174 1082.58 332.774C1082.58 329.374 1081.28 324.774 1076.78 323.074V320.874L1076.68 312.874L1068.78 309.974L1066.78 306.074C1069.78 303.974 1072.58 300.574 1072.58 297.374C1072.58 294.274 1071.48 290.374 1068.68 288.474V287.174L1063.98 277.774H1058.48V274.974C1061.28 273.274 1063.18 270.274 1063.18 266.774C1063.18 262.974 1060.98 259.774 1057.78 258.174L1052.48 251.974H1051.38L1050 248C1054 247 1054.58 242.574 1054.58 240.774C1054.58 235.174 1051 231.5 1046 231.5C1041.5 231.5 1037.5 235.5 1037.5 239.5C1037.5 242.5 1038 246 1042.5 248L1041.5 251H1035L1031.78 255.274V262.974H1002.5L1003.38 266V282.5H1008L1011.5 290.374H1031.78V302.569C1031.78 302.569 1034.1 302.992 1034.78 306.074C1038.16 321.272 1039.48 332.168 1041 336M1044 336.5C1044 336.5 1042.5 336.25 1041 336M1044 336.5L1041 336M584.583 334.974L582.383 330.474C585.383 328.274 586.183 324.874 586.183 320.974C586.183 316.074 581.283 311.274 576.483 311.274C570.083 311.274 565.783 315.5 565.783 320.974C565.783 326 567.683 328.374 570.583 330.374L567.083 335.074H563.183L553.583 346.774L429.883 343.674V339.774L431.483 330.374L443.183 320.374H457.283L465.083 312.974V297.474L475.983 287.274L473.683 291.074H490.983V277.674H498.5L501 273.5H503.5V256.5L508.5 251.274H494.783V244.274L489.283 240.374H483.983L483.083 237.574C485.883 235.974 487.783 232.874 487.783 229.474C487.783 224.274 483.583 220.074 478.383 220.074C473.183 220.074 468.983 224.274 468.983 229.474C468.983 232.874 470.883 236.074 473.683 237.574L472.783 240.374H472.183L463.583 244.274V259.874L455.783 264.574H450.983L451.883 262.174C454.883 260.474 455.883 258.174 455.883 254.374C455.883 248.774 452.383 245.174 446.683 245.174C441.083 245.174 437.483 248.674 437.483 254.374C437.483 256.474 439.383 260.674 441.483 262.174L437.883 266.574L431.483 272.374V287.274L422.883 294.274H416.583L414.883 291.174C419.083 287.174 419.083 285.874 419.083 281.974C419.083 274.174 413.183 271.974 409.183 271.974C404.683 271.974 399.283 275.874 399.283 281.974C399.283 286.374 401.783 289.774 404.683 290.974L403.283 294.274H400.383L391.783 301.274V319.274L380.683 328.774H373.5L370.983 324.874C374.683 321.674 376.083 320.074 376.083 315.674C376.083 309.274 371.483 304.474 365.083 304.474C358.683 304.474 354.383 309.274 354.383 315.674C354.383 320.074 356.983 323.074 359.183 324.874L356.983 328.774H354.183L346.5 338.5L348 393L378.5 394.5L388 386.5V377.5L558.383 381.074V399.874H590.5L596.5 392L595.283 337.274L588.783 334.974H584.583ZM836.5 275L831 284.874H786V258.274H840.5L840 274.5L836.5 275ZM675.483 277.274H667.083V255.574L726.583 255.974L722.383 264.274V281.774L675.483 281.574V277.274Z" stroke="#0C9E6A"/>
<path d="M786.121 254.109V304.056L780 314.982H748.84C749.298 312.823 749.59 310.609 749.59 308.508C749.59 302.063 748.491 299.344 747.655 297.273C747.478 296.837 747.314 296.429 747.173 296.021C746.711 294.678 748.104 293.849 749.375 293.091C750.321 292.528 751.201 292.004 751.201 291.338C751.201 290.635 750.219 289.773 748.33 289.038C748.674 288.937 748.916 288.842 749.032 288.757C750.253 287.871 751.168 283.442 751.168 282.408C751.168 281.582 758.286 280.292 761.846 279.751C761.846 278.963 761.48 277.064 760.015 275.764C758.551 274.465 755.236 274.534 753.761 274.731V267.053C753.761 266.627 754.114 266.372 754.48 266.107C754.875 265.82 755.286 265.523 755.286 264.986C755.286 264.531 754.725 263.847 754.213 263.224C753.563 262.432 752.993 261.738 753.761 261.738C755.134 261.738 758.642 260.114 758.642 258.637C758.642 257.735 759.497 257.053 760.37 256.356C760.926 255.913 761.49 255.463 761.846 254.946C762.328 254.246 761.709 253.956 760.86 253.557C760.097 253.199 759.148 252.754 758.642 251.845C758.125 250.915 757.392 250.713 756.739 250.533C756.046 250.342 755.444 250.177 755.286 249.188C755.139 248.257 753.878 247.465 752.759 246.761C751.57 246.014 750.539 245.367 751.168 244.758C752.388 243.577 752.388 239.886 751.168 239.886C750.623 239.886 749.834 239.326 748.924 238.68C747.798 237.881 746.485 236.949 745.219 236.785C743.364 236.546 742.712 237.083 741.882 237.767C741.688 237.926 741.484 238.094 741.253 238.262C740.617 238.723 739.898 238.504 739.205 238.292C738.567 238.097 737.951 237.908 737.439 238.262C736.585 238.852 737.795 239.591 738.507 239.886C738.71 241.559 738.781 244.876 737.439 244.758C736.749 244.698 735.627 244.894 734.52 245.16L735.375 243.964L729.736 231.477C727.051 228.616 721.52 222.58 720.876 221.332C720.704 220.998 720.348 220.487 719.895 219.835C718.226 217.437 715.237 213.141 715.237 208.845C715.237 203.61 720.876 197.139 728.125 198.7C733.925 199.948 735.375 202.342 735.375 203.382H740.208C738.597 201.041 734.569 194.173 734.569 191.676C734.569 190.883 734.517 190.14 734.466 189.41C734.316 187.264 734.173 185.222 735.375 182.311C736.986 178.409 738.597 175.287 742.624 173.726C743.013 173.576 743.395 173.425 743.771 173.276C747.289 171.886 750.341 170.68 754.707 171.385C759.54 172.166 764.373 172.946 766.789 177.629C769.206 182.311 770.817 186.213 770.817 190.896C770.817 192.801 771.1 194.174 771.32 195.244C771.642 196.803 771.83 197.718 770.817 198.7C770.011 199.48 769.609 200.261 769.206 201.041C768.803 201.821 769.4 202.602 768.595 203.382C767.979 203.978 767.129 205.233 766.403 205.45C765.228 205.802 764.377 206.057 765.373 207.504C766.301 208.852 766.496 208.683 767.805 209.593C768.768 210.262 769.792 210.974 770.817 211.967C773.233 214.308 775.972 218.43 774.039 221.551C773.407 222.571 772.463 222.974 771.735 223.284C770.935 223.626 770.395 223.856 770.817 224.673C770.817 226.59 770.916 227.411 771.01 229.136C771.184 232.326 771.34 235.188 770.817 237.72C770.247 240.48 772.428 243.964 774.039 243.964C775.328 243.964 782.631 250.727 786.121 254.109Z" fill="#C4C4C4" fill-opacity="0.8"/>
<path d="M727.32 255.446L722.487 263.474V314.982H726.294C725.836 312.823 725.544 310.609 725.544 308.508C725.544 302.063 726.642 299.344 727.479 297.273L727.479 297.272C727.655 296.836 727.82 296.428 727.96 296.021C728.422 294.678 727.03 293.849 725.758 293.091C724.812 292.528 723.933 292.004 723.933 291.338C723.933 290.191 726.542 288.623 731.442 287.872C731.492 287.489 731.57 287.121 731.639 286.791C731.723 286.395 731.795 286.053 731.795 285.804C731.795 285.096 728.642 286.1 727.066 286.69C725.846 286.936 723.466 287.104 723.71 285.804C723.736 285.667 723.765 285.503 723.798 285.317C724.155 283.293 724.971 278.667 727.066 278.127C728.551 277.743 727.466 275.619 726.605 273.932C726.139 273.02 725.739 272.236 725.846 271.925C726.126 271.111 730.92 273.292 731.691 274.452C731.758 274.73 731.795 274.837 731.795 274.731C731.795 274.647 731.758 274.553 731.691 274.452C731.542 273.838 731.244 272.388 730.865 270.54C729.842 265.559 728.224 257.682 727.32 255.446Z" fill="#C4C4C4" fill-opacity="0.8"/>
<path d="M733.778 267.053C734.998 266.315 736.219 264.986 736.371 264.1C736.524 263.214 737.897 267.644 737.134 268.677C736.524 269.504 734.642 271.384 733.778 272.221V267.053Z" fill="#C4C4C4" fill-opacity="0.8"/>
<path d="M731.691 274.452C730.92 273.292 726.126 271.111 725.846 271.925C725.739 272.236 726.139 273.02 726.605 273.932C727.466 275.619 728.551 277.743 727.066 278.127C724.971 278.667 724.155 283.293 723.798 285.317C723.765 285.503 723.736 285.667 723.71 285.804C723.466 287.104 725.846 286.936 727.066 286.69C728.642 286.1 731.795 285.096 731.795 285.804C731.795 286.053 731.723 286.395 731.639 286.791C731.57 287.121 731.492 287.489 731.442 287.872C726.542 288.623 723.933 290.191 723.933 291.338C723.933 292.004 724.812 292.528 725.758 293.091C727.03 293.849 728.422 294.678 727.96 296.021C727.82 296.428 727.655 296.836 727.479 297.272L727.479 297.273C726.642 299.344 725.544 302.063 725.544 308.508C725.544 310.609 725.836 312.823 726.294 314.982H722.487V263.474L727.32 255.446C728.224 257.682 729.842 265.559 730.865 270.54C731.244 272.388 731.542 273.838 731.691 274.452ZM731.691 274.452C731.758 274.73 731.795 274.837 731.795 274.731C731.795 274.647 731.758 274.553 731.691 274.452ZM786.121 304.056V254.109C782.631 250.727 775.328 243.964 774.039 243.964C772.428 243.964 770.247 240.48 770.817 237.72C771.34 235.188 771.184 232.326 771.01 229.136C770.916 227.411 770.817 226.59 770.817 224.673C770.395 223.856 770.935 223.626 771.735 223.284C772.463 222.974 773.407 222.571 774.039 221.551C775.972 218.43 773.233 214.308 770.817 211.967C769.792 210.974 768.768 210.262 767.805 209.593C766.496 208.683 766.301 208.852 765.373 207.504C764.377 206.057 765.228 205.802 766.403 205.45C767.129 205.233 767.98 203.978 768.595 203.382C769.4 202.602 768.803 201.821 769.206 201.041C769.609 200.261 770.011 199.48 770.817 198.7C771.83 197.718 771.642 196.803 771.32 195.244C771.1 194.174 770.817 192.801 770.817 190.896C770.817 186.213 769.206 182.311 766.789 177.629C764.373 172.946 759.54 172.166 754.707 171.385C750.341 170.68 747.289 171.886 743.771 173.276C743.395 173.425 743.013 173.576 742.624 173.726C738.597 175.287 736.986 178.409 735.375 182.311C734.173 185.222 734.316 187.264 734.466 189.41C734.517 190.14 734.569 190.883 734.569 191.676C734.569 194.173 738.597 201.041 740.208 203.382H735.375C735.375 202.342 733.925 199.948 728.125 198.7C720.876 197.139 715.237 203.61 715.237 208.845C715.237 213.141 718.226 217.437 719.895 219.835C720.348 220.487 720.704 220.998 720.876 221.332C721.52 222.58 727.051 228.616 729.736 231.477L735.375 243.964L734.52 245.16C735.627 244.894 736.749 244.698 737.439 244.758C738.781 244.876 738.71 241.559 738.507 239.886C737.795 239.591 736.585 238.852 737.439 238.262C737.951 237.908 738.567 238.097 739.205 238.292C739.898 238.504 740.617 238.723 741.253 238.262C741.484 238.094 741.688 237.926 741.882 237.767C742.712 237.083 743.364 236.546 745.219 236.785C746.485 236.949 747.798 237.881 748.924 238.68C749.834 239.326 750.623 239.886 751.168 239.886C752.388 239.886 752.388 243.577 751.168 244.758C750.539 245.367 751.57 246.014 752.759 246.761C753.878 247.465 755.139 248.257 755.286 249.188C755.444 250.177 756.046 250.343 756.739 250.533C757.392 250.713 758.125 250.915 758.642 251.845C759.148 252.754 760.097 253.199 760.86 253.557C761.709 253.956 762.328 254.246 761.846 254.946C761.49 255.463 760.926 255.913 760.37 256.356C759.497 257.053 758.642 257.735 758.642 258.637C758.642 260.114 755.134 261.738 753.761 261.738C752.993 261.738 753.563 262.432 754.213 263.224C754.725 263.847 755.286 264.531 755.286 264.986C755.286 265.523 754.875 265.82 754.48 266.107C754.114 266.372 753.761 266.627 753.761 267.053V274.731C755.236 274.534 758.551 274.465 760.015 275.764C761.48 277.064 761.846 278.963 761.846 279.751C758.286 280.292 751.168 281.582 751.168 282.408C751.168 283.442 750.253 287.871 749.032 288.757C748.916 288.842 748.674 288.937 748.33 289.038C750.219 289.773 751.201 290.635 751.201 291.338C751.201 292.004 750.321 292.528 749.375 293.091C748.104 293.849 746.711 294.678 747.173 296.021C747.314 296.429 747.478 296.837 747.655 297.273C748.491 299.344 749.59 302.063 749.59 308.508C749.59 310.609 749.298 312.823 748.84 314.982H780L786.121 304.056ZM736.371 264.1C736.219 264.986 734.998 266.315 733.778 267.053V272.221C734.642 271.384 736.524 269.504 737.134 268.677C737.897 267.644 736.524 263.214 736.371 264.1Z" stroke="#0C9E6A"/>
<path d="M736.959 287.559C736.978 287.559 736.998 287.559 737.017 287.559C745.541 287.58 750.188 289.913 750.188 291.471C750.188 292.138 749.335 292.663 748.417 293.228C747.183 293.987 745.832 294.819 746.28 296.165C746.417 296.574 746.577 296.982 746.748 297.42C747.559 299.496 748.625 302.222 748.625 308.682C748.625 316.506 744.717 325.894 743.154 328.241C742.429 329.329 743.344 330.578 744.367 331.976C745.281 333.224 746.28 334.589 746.28 336.065C746.28 339.72 738.074 339.792 736.999 339.898C736.999 339.905 736.999 339.909 736.999 339.909C736.999 339.909 736.979 339.907 736.941 339.903C736.903 339.907 736.884 339.909 736.884 339.909C736.884 339.909 736.883 339.905 736.883 339.898C735.809 339.792 727.638 339.72 727.638 336.065C727.638 334.589 728.637 333.224 729.551 331.976C730.574 330.578 731.489 329.329 730.764 328.241C729.201 325.894 725.293 316.506 725.293 308.682C725.293 302.222 726.359 299.496 727.17 297.42C727.342 296.982 727.501 296.574 727.638 296.165C728.086 294.819 726.735 293.987 725.501 293.228C724.583 292.663 723.73 292.138 723.73 291.471C723.73 289.913 728.377 287.58 736.901 287.559C736.921 287.559 736.94 287.559 736.959 287.559Z" fill="#C4C4C4" fill-opacity="0.8" stroke="#0C9E6A"/>
</svg>
