<svg width="236" height="88" viewBox="0 0 236 88" fill="none" xmlns="http://www.w3.org/2000/svg">
<path d="M15.5144 3.54959H12.8372C12.0108 3.54959 11.2126 3.72007 10.4394 4.0627C9.66452 4.40532 8.9761 4.95152 8.37748 5.70463C7.77553 6.45773 7.29663 7.42269 6.9308 8.60449C6.57163 9.78297 6.39204 11.1932 6.39204 12.8351C6.39204 14.4406 6.59158 15.8028 6.98568 16.9135C7.38143 18.0257 7.90523 18.941 8.55873 19.661C9.21223 20.3777 9.95053 20.8991 10.7753 21.2235C11.5984 21.5496 12.4581 21.7118 13.3527 21.7118H15.5144V3.54794V3.54959ZM5.20477 39.7234H0.515533L8.86636 24.3799C6.42696 23.218 4.68263 21.6704 3.63504 19.7372C2.58744 17.8056 2.06198 15.5049 2.06198 12.8351C2.06198 10.7827 2.35464 8.97194 2.9383 7.39787C3.5203 5.82545 4.31348 4.50132 5.30953 3.42214C6.30723 2.34297 7.46624 1.53194 8.7882 0.984075C10.1135 0.437868 11.5119 0.164764 12.9919 0.164764H19.5901V39.7234H15.5144V25.0486H12.8372L5.20477 39.7234Z" fill="#FF0000"/>
<path fill-rule="evenodd" clip-rule="evenodd" d="M60.3609 44.8556H56.7026V39.6749H45.3121V44.8556H41.6506V36.3381H43.2469C44.0733 34.7988 44.7168 33.1403 45.1824 31.361C45.648 29.5817 45.9972 27.7858 46.2383 25.9734C46.4795 24.161 46.6241 22.3651 46.6773 20.5858C46.7305 18.8065 46.7555 17.1133 46.7555 15.5045V13.2501H58.3023V36.3398H60.3642V44.8556H60.3609ZM78.1983 38.4931C77.3386 38.9731 76.3858 39.3903 75.3382 39.7511C74.2906 40.1102 73.11 40.289 71.8063 40.289C69.1258 40.289 66.9774 39.18 65.3628 36.9555C63.7498 34.7326 62.94 31.6027 62.94 27.5657C62.94 25.6159 63.1063 23.7423 63.4305 21.948C63.7581 20.1489 64.2553 18.5599 64.9271 17.1745C65.5972 15.7875 66.4469 14.6752 67.4779 13.8394C68.5089 13.0018 69.7444 12.5814 71.1861 12.5814C73.3178 12.5814 75.0372 13.644 76.3409 15.7643C77.6479 17.8829 78.303 21.0145 78.303 25.1541V27.4118H67.2185C67.2185 30.2851 67.7074 32.5263 68.6868 34.1318C69.6679 35.7406 71.2043 36.545 73.3012 36.545C74.091 36.545 74.9075 36.4341 75.7489 36.214C76.592 35.9889 77.2538 35.7754 77.7343 35.5685L78.1999 38.4948L78.1983 38.4931ZM71.0314 15.8669C70.4494 15.8669 69.9339 16.0705 69.485 16.4794C69.0393 16.8931 68.6618 17.4642 68.3542 18.2007C68.0433 18.9356 67.8022 19.7996 67.6309 20.7911C67.4596 21.7842 67.3382 22.86 67.27 24.0253H74.0744V23.4625C74.0744 23.2904 74.0661 23.1017 74.0495 22.8965C74.0328 22.6912 74.0229 22.4694 74.0229 22.2294C73.8848 20.2101 73.5573 18.6443 73.0418 17.532C72.5263 16.4231 71.8578 15.8653 71.0331 15.8653L71.0314 15.8669ZM54.2283 16.5323V36.3381H46.8586C47.5437 35.2093 48.1107 33.8752 48.558 32.3359C49.007 30.7966 49.3662 29.1629 49.6389 27.4366C49.9149 25.7086 50.1045 23.9475 50.2076 22.15C50.3107 20.3541 50.3622 18.6526 50.3622 17.0454V16.5323H54.2283ZM39.2793 13.2485V39.6749H35.2054V27.0509H29.1243V39.6733H25.0005V13.2468H29.1243V23.6628H35.207V13.2485H39.281H39.2793ZM97.8914 39.6749H93.3019L86.9615 26.6405L86.4959 26.0777V39.6733H82.372V13.2468H86.4959V25.2534L86.9615 24.7403L92.5819 13.2468H96.9619L90.4684 25.1508L97.8914 39.6716V39.6749ZM103.199 26.5378C103.199 29.6496 103.681 32.0959 104.643 33.8752C105.607 35.6545 107.082 36.5434 109.076 36.5434C109.832 36.5434 110.606 36.4325 111.395 36.2123C112.187 35.9872 112.825 35.7737 113.304 35.5668L113.717 38.4931C112.927 38.9731 112.042 39.3903 111.063 39.7511C110.082 40.1102 108.974 40.289 107.737 40.289C105.093 40.289 102.951 39.1966 101.319 37.0068C99.6889 34.817 98.8708 31.6705 98.8708 27.5657C98.8708 25.308 99.1036 23.2556 99.5692 21.4085C100.031 19.5613 100.658 17.9872 101.448 16.6879C102.238 15.3903 103.184 14.3806 104.283 13.6623C105.381 12.9439 106.568 12.5864 107.842 12.5864C108.973 12.5864 109.997 12.7387 110.908 13.0465C111.818 13.3544 112.634 13.7649 113.356 14.278L111.241 17.82C110.759 17.2705 110.218 16.8104 109.616 16.433C109.017 16.0573 108.407 15.8703 107.787 15.8703C107.067 15.8703 106.413 16.1765 105.83 16.7922C105.248 17.4079 104.766 18.2123 104.386 19.2038C104.009 20.1969 103.716 21.3323 103.51 22.6167C103.304 23.8995 103.201 25.2071 103.201 26.5395L103.199 26.5378ZM131.518 33.5359H133.523L139.027 13.164C139.436 11.628 139.797 10.1434 140.257 8.09591H140.465C140.362 9.93977 140.259 11.782 140.259 13.5249V39.1685H142.727V2.56598H139.847L133.576 25.9602C133.317 26.8821 132.904 28.8269 132.7 30.209H132.545C132.39 28.8286 132.03 26.9351 131.774 25.9618L125.551 2.56598H122.568V39.1668H124.83V13.5232C124.83 11.6777 124.78 9.83549 124.677 8.09425H124.831C125.14 9.78253 125.553 11.4211 126.067 13.3163L131.514 33.5343L131.518 33.5359ZM153.63 37.7351C156.048 37.7351 157.746 35.4344 158.668 32.6669V25.553H155.892C151.625 25.553 149.568 27.4978 149.568 32.0016C149.568 35.6363 151.164 37.7351 153.63 37.7351ZM159.39 39.1685C159.184 38.5031 158.928 37.5298 158.775 35.6876C157.539 38.1456 155.687 39.6816 153.116 39.6816C149.621 39.6816 147.203 36.9174 147.203 32.2068C147.203 26.6785 150.238 23.8118 155.843 23.8118H158.67V20.5875C158.67 16.6449 157.18 14.9549 154.352 14.9549C152.14 14.9549 150.135 15.9811 148.901 17.772L148.232 15.468C149.26 14.1373 151.42 12.8562 154.352 12.8562C158.62 12.8562 161.036 15.2115 161.036 20.3309V34.4082C161.036 36.1991 161.296 38.1985 161.602 39.1685H159.39ZM173.79 37.7351C177.083 37.7351 179.241 33.8454 179.241 25.7053C179.241 18.9472 177.39 14.9533 174.407 14.9533C172.093 14.9533 170.139 17.4112 169.008 20.1754V34.6085C170.036 36.7105 171.476 37.7318 173.79 37.7318V37.7351ZM173.636 39.6302C171.684 39.6302 169.986 38.657 169.01 37.3792V47.1547H166.592V13.3676H168.7L168.907 17.6165C170.037 15.1585 171.941 12.8545 174.82 12.8545C179.14 12.8545 181.661 18.0253 181.661 25.5C181.661 34.9676 178.471 39.6286 173.637 39.6286L173.636 39.6302ZM188.706 25.8096L197.705 39.1668H200.383L191.225 25.3461L199.762 13.3693H197.398L188.706 25.5017V13.3693H186.288V39.1685H188.704V25.8046L188.706 25.8096ZM215.551 34.817L216.323 36.7635C216.323 36.7635 214.371 39.6816 210.257 39.6816C204.753 39.6816 202.233 34.716 202.233 26.268C202.233 17.82 205.421 12.8545 209.793 12.8545C214.266 12.8545 217.147 17.5138 216.324 26.6752H204.601C204.701 33.7428 206.555 37.5828 210.31 37.5828C213.752 37.5828 215.553 34.8187 215.554 34.8154L215.551 34.817ZM209.791 14.8556C207.064 14.8556 204.852 18.3348 204.65 24.7867H214.061C214.474 17.9243 212.415 14.8556 209.793 14.8556H209.791ZM233.448 15.3654V13.3676H219.048V15.3638H225.068V39.1651H227.482V15.3654H233.448Z" fill="#333333"/>
<path d="M28.5692 62.7078C28.8622 61.7641 30.1378 61.7641 30.4308 62.7078L32.3566 68.9111C32.4876 69.3332 32.8634 69.6189 33.2874 69.6189H39.5194C40.4675 69.6189 40.8617 70.8888 40.0947 71.472L35.0529 75.3059C34.7099 75.5667 34.5663 76.0291 34.6974 76.4512L36.6232 82.6544C36.9161 83.5982 35.8841 84.383 35.117 83.7997L30.0753 79.9659C29.7323 79.705 29.2677 79.705 28.9247 79.9659L23.883 83.7997C23.1159 84.383 22.0839 83.5982 22.3768 82.6544L24.3026 76.4512C24.4337 76.0291 24.2901 75.5667 23.9471 75.3059L18.9053 71.472C18.1383 70.8888 18.5325 69.6189 19.4806 69.6189H25.7126C26.1366 69.6189 26.5124 69.3332 26.6434 68.9111L28.5692 62.7078Z" fill="#FFB317"/>
<path d="M60.5692 62.7078C60.8622 61.7641 62.1378 61.7641 62.4308 62.7078L64.3566 68.9111C64.4876 69.3332 64.8634 69.6189 65.2874 69.6189H71.5194C72.4675 69.6189 72.8617 70.8888 72.0947 71.472L67.0529 75.3059C66.7099 75.5667 66.5663 76.0291 66.6974 76.4512L68.6232 82.6544C68.9161 83.5982 67.8841 84.383 67.117 83.7997L62.0753 79.9659C61.7323 79.705 61.2677 79.705 60.9247 79.9659L55.883 83.7997C55.1159 84.383 54.0839 83.5982 54.3768 82.6544L56.3026 76.4512C56.4337 76.0291 56.2901 75.5667 55.9471 75.3059L50.9053 71.472C50.1383 70.8888 50.5325 69.6189 51.4806 69.6189H57.7126C58.1366 69.6189 58.5124 69.3332 58.6434 68.9111L60.5692 62.7078Z" fill="#FFB317"/>
<path d="M92.5692 62.7078C92.8622 61.7641 94.1378 61.7641 94.4308 62.7078L96.3566 68.9111C96.4876 69.3332 96.8634 69.6189 97.2874 69.6189H103.519C104.468 69.6189 104.862 70.8888 104.095 71.472L99.0529 75.3059C98.7099 75.5667 98.5663 76.0291 98.6974 76.4512L100.623 82.6544C100.916 83.5982 99.8841 84.383 99.117 83.7997L94.0753 79.9659C93.7323 79.705 93.2677 79.705 92.9247 79.9659L87.883 83.7997C87.1159 84.383 86.0839 83.5982 86.3768 82.6544L88.3026 76.4512C88.4337 76.0291 88.2901 75.5667 87.9471 75.3059L82.9053 71.472C82.1383 70.8888 82.5325 69.6189 83.4806 69.6189H89.7126C90.1366 69.6189 90.5124 69.3332 90.6434 68.9111L92.5692 62.7078Z" fill="#FFB317"/>
<path d="M124.569 62.7078C124.862 61.7641 126.138 61.7641 126.431 62.7078L128.357 68.9111C128.488 69.3332 128.863 69.6189 129.287 69.6189H135.519C136.468 69.6189 136.862 70.8888 136.095 71.472L131.053 75.3059C130.71 75.5667 130.566 76.0291 130.697 76.4512L132.623 82.6544C132.916 83.5982 131.884 84.383 131.117 83.7997L126.075 79.9659C125.732 79.705 125.268 79.705 124.925 79.9659L119.883 83.7997C119.116 84.383 118.084 83.5982 118.377 82.6544L120.303 76.4512C120.434 76.0291 120.29 75.5667 119.947 75.3059L114.905 71.472C114.138 70.8888 114.532 69.6189 115.481 69.6189H121.713C122.137 69.6189 122.512 69.3332 122.643 68.9111L124.569 62.7078Z" fill="#FFB317"/>
<path d="M156.569 62.7078C156.862 61.7641 158.138 61.7641 158.431 62.7078L160.357 68.9111C160.488 69.3332 160.863 69.6189 161.287 69.6189H167.519C168.468 69.6189 168.862 70.8888 168.095 71.472L163.053 75.3059C162.71 75.5667 162.566 76.0291 162.697 76.4512L164.623 82.6544C164.916 83.5982 163.884 84.383 163.117 83.7997L158.075 79.9659C157.732 79.705 157.268 79.705 156.925 79.9659L151.883 83.7997C151.116 84.383 150.084 83.5982 150.377 82.6544L152.303 76.4512C152.434 76.0291 152.29 75.5667 151.947 75.3059L146.905 71.472C146.138 70.8888 146.532 69.6189 147.481 69.6189H153.713C154.137 69.6189 154.512 69.3332 154.643 68.9111L156.569 62.7078Z" fill="url(#paint0_linear)"/>
<path d="M195.223 72.084C196.661 72.084 197.801 72.4648 198.641 73.2266C199.48 73.9883 199.9 75.0267 199.9 76.3418C199.9 77.8652 199.422 79.0566 198.465 79.916C197.514 80.7689 196.16 81.1953 194.402 81.1953C192.807 81.1953 191.554 80.9382 190.643 80.4238V78.3438C191.17 78.6432 191.775 78.8743 192.459 79.0371C193.143 79.1999 193.777 79.2812 194.363 79.2812C195.398 79.2812 196.186 79.0501 196.727 78.5879C197.267 78.1257 197.537 77.4486 197.537 76.5566C197.537 74.8509 196.45 73.998 194.275 73.998C193.969 73.998 193.592 74.0306 193.143 74.0957C192.693 74.1543 192.299 74.2227 191.961 74.3008L190.936 73.6953L191.482 66.7227H198.904V68.7637H193.504L193.182 72.2988C193.41 72.2598 193.686 72.2142 194.012 72.1621C194.344 72.11 194.747 72.084 195.223 72.084ZM202.225 79.7793C202.225 79.304 202.348 78.9395 202.596 78.6855C202.843 78.4316 203.201 78.3047 203.67 78.3047C204.145 78.3047 204.507 78.4382 204.754 78.7051C205.001 78.9655 205.125 79.3236 205.125 79.7793C205.125 80.2415 204.998 80.6094 204.744 80.8828C204.497 81.1497 204.139 81.2832 203.67 81.2832C203.201 81.2832 202.843 81.1497 202.596 80.8828C202.348 80.6159 202.225 80.248 202.225 79.7793ZM216.99 73.8613C216.99 76.3418 216.59 78.1842 215.789 79.3887C214.995 80.5931 213.777 81.1953 212.137 81.1953C210.548 81.1953 209.344 80.5736 208.523 79.3301C207.703 78.0866 207.293 76.2637 207.293 73.8613C207.293 71.3418 207.69 69.4863 208.484 68.2949C209.285 67.097 210.503 66.498 212.137 66.498C213.732 66.498 214.939 67.123 215.76 68.373C216.58 69.623 216.99 71.4525 216.99 73.8613ZM209.617 73.8613C209.617 75.8079 209.816 77.1979 210.213 78.0312C210.617 78.8646 211.258 79.2812 212.137 79.2812C213.016 79.2812 213.657 78.8581 214.061 78.0117C214.471 77.1654 214.676 75.7819 214.676 73.8613C214.676 71.9473 214.471 70.5638 214.061 69.7109C213.657 68.8516 213.016 68.4219 212.137 68.4219C211.258 68.4219 210.617 68.8418 210.213 69.6816C209.816 70.5215 209.617 71.9147 209.617 73.8613Z" fill="#444444"/>
<defs>
<linearGradient id="paint0_linear" x1="168.5" y1="70.5" x2="146.5" y2="70.5" gradientUnits="userSpaceOnUse">
<stop offset="0.494792" stop-color="#E1E2E5"/>
<stop offset="0.494892" stop-color="#FFB317"/>
</linearGradient>
</defs>
</svg>
