<svg width="201" height="88" viewBox="0 0 201 88" fill="none" xmlns="http://www.w3.org/2000/svg">
<g clip-path="url(#clip0)">
<path d="M89.9349 24.6156C89.9349 31.2782 84.7227 36.1877 78.3262 36.1877C71.9297 36.1877 66.7175 31.2782 66.7175 24.6156C66.7175 17.906 71.9297 13.0434 78.3262 13.0434C84.7227 13.0434 89.9349 17.906 89.9349 24.6156ZM84.8531 24.6156C84.8531 20.4521 81.8323 17.6034 78.3262 17.6034C74.8201 17.6034 71.7992 20.4521 71.7992 24.6156C71.7992 28.7373 74.8201 31.6277 78.3262 31.6277C81.8323 31.6277 84.8531 28.7321 84.8531 24.6156Z" fill="#EA4335"/>
<path d="M114.978 24.6156C114.978 31.2782 109.766 36.1877 103.37 36.1877C96.9731 36.1877 91.7609 31.2782 91.7609 24.6156C91.7609 17.9112 96.9731 13.0434 103.37 13.0434C109.766 13.0434 114.978 17.906 114.978 24.6156ZM109.897 24.6156C109.897 20.4521 106.876 17.6034 103.37 17.6034C99.8635 17.6034 96.8426 20.4521 96.8426 24.6156C96.8426 28.7373 99.8635 31.6277 103.37 31.6277C106.876 31.6277 109.897 28.7321 109.897 24.6156Z" fill="#FBBC05"/>
<path d="M138.978 13.7425V34.5182C138.978 43.0643 133.938 46.5547 127.98 46.5547C122.371 46.5547 118.996 42.8034 117.723 39.7356L122.147 37.8938C122.935 39.7773 124.865 41.9999 127.975 41.9999C131.789 41.9999 134.152 39.6469 134.152 35.2173V33.553H133.975C132.837 34.9564 130.646 36.1825 127.881 36.1825C122.095 36.1825 116.794 31.1425 116.794 24.6573C116.794 18.1251 122.095 13.0434 127.881 13.0434C130.641 13.0434 132.832 14.2695 133.975 15.6312H134.152V13.7477H138.978V13.7425ZM134.512 24.6573C134.512 20.5825 131.794 17.6034 128.335 17.6034C124.829 17.6034 121.891 20.5825 121.891 24.6573C121.891 28.6904 124.829 31.6277 128.335 31.6277C131.794 31.6277 134.512 28.6904 134.512 24.6573Z" fill="#4285F4"/>
<path d="M146.935 1.56555V35.4786H141.978V1.56555H146.935Z" fill="#34A853"/>
<path d="M166.25 28.4242L170.194 31.0538C168.921 32.9372 165.853 36.1825 160.552 36.1825C153.978 36.1825 149.069 31.1007 149.069 24.6103C149.069 17.7285 154.02 13.0381 159.983 13.0381C165.989 13.0381 168.926 17.8172 169.886 20.3999L170.413 21.7146L154.944 28.1216C156.128 30.4433 157.97 31.6277 160.552 31.6277C163.14 31.6277 164.935 30.3546 166.25 28.4242ZM154.109 24.2607L164.45 19.9668C163.881 18.5216 162.17 17.5146 160.156 17.5146C157.573 17.5146 153.978 19.7946 154.109 24.2607Z" fill="#EA4335"/>
<path d="M47.9557 21.6052V16.6956H64.5C64.6618 17.5513 64.7452 18.5635 64.7452 19.6591C64.7452 23.3426 63.7383 27.8974 60.4931 31.1426C57.3365 34.4296 53.3035 36.1826 47.9609 36.1826C38.0583 36.1826 29.7313 28.1165 29.7313 18.2139C29.7313 8.3113 38.0583 0.245209 47.9609 0.245209C53.4391 0.245209 57.3418 2.39477 60.2739 5.19651L56.8096 8.66086C54.707 6.68869 51.8583 5.15477 47.9557 5.15477C40.7244 5.15477 35.0687 10.9826 35.0687 18.2139C35.0687 25.4452 40.7244 31.273 47.9557 31.273C52.6461 31.273 55.3174 29.3896 57.0287 27.6783C58.4165 26.2904 59.3296 24.3078 59.6896 21.6L47.9557 21.6052Z" fill="#4285F4"/>
</g>
<path d="M11.0692 62.7078C11.3622 61.7641 12.6378 61.7641 12.9308 62.7078L14.8566 68.9111C14.9876 69.3332 15.3634 69.6189 15.7874 69.6189H22.0194C22.9675 69.6189 23.3617 70.8888 22.5947 71.472L17.5529 75.3059C17.2099 75.5667 17.0663 76.0291 17.1974 76.4512L19.1232 82.6544C19.4161 83.5982 18.3841 84.383 17.617 83.7997L12.5753 79.9659C12.2323 79.705 11.7677 79.705 11.4247 79.9659L6.38296 83.7997C5.61591 84.383 4.58386 83.5982 4.87685 82.6544L6.80262 76.4512C6.93365 76.0291 6.79011 75.5667 6.44708 75.3059L1.40532 71.472C0.638278 70.8888 1.03249 69.6189 1.98061 69.6189H8.21256C8.63657 69.6189 9.01236 69.3332 9.14339 68.9111L11.0692 62.7078Z" fill="#FFB317"/>
<path d="M43.0692 62.7078C43.3622 61.7641 44.6378 61.7641 44.9308 62.7078L46.8566 68.9111C46.9876 69.3332 47.3634 69.6189 47.7874 69.6189H54.0194C54.9675 69.6189 55.3617 70.8888 54.5947 71.472L49.5529 75.3059C49.2099 75.5667 49.0663 76.0291 49.1974 76.4512L51.1232 82.6544C51.4161 83.5982 50.3841 84.383 49.617 83.7997L44.5753 79.9659C44.2323 79.705 43.7677 79.705 43.4247 79.9659L38.383 83.7997C37.6159 84.383 36.5839 83.5982 36.8768 82.6544L38.8026 76.4512C38.9337 76.0291 38.7901 75.5667 38.4471 75.3059L33.4053 71.472C32.6383 70.8888 33.0325 69.6189 33.9806 69.6189H40.2126C40.6366 69.6189 41.0124 69.3332 41.1434 68.9111L43.0692 62.7078Z" fill="#FFB317"/>
<path d="M75.0692 62.7078C75.3622 61.7641 76.6378 61.7641 76.9308 62.7078L78.8566 68.9111C78.9876 69.3332 79.3634 69.6189 79.7874 69.6189H86.0194C86.9675 69.6189 87.3617 70.8888 86.5947 71.472L81.5529 75.3059C81.2099 75.5667 81.0663 76.0291 81.1974 76.4512L83.1232 82.6544C83.4161 83.5982 82.3841 84.383 81.617 83.7997L76.5753 79.9659C76.2323 79.705 75.7677 79.705 75.4247 79.9659L70.383 83.7997C69.6159 84.383 68.5839 83.5982 68.8768 82.6544L70.8026 76.4512C70.9337 76.0291 70.7901 75.5667 70.4471 75.3059L65.4053 71.472C64.6383 70.8888 65.0325 69.6189 65.9806 69.6189H72.2126C72.6366 69.6189 73.0124 69.3332 73.1434 68.9111L75.0692 62.7078Z" fill="#FFB317"/>
<path d="M107.069 62.7078C107.362 61.7641 108.638 61.7641 108.931 62.7078L110.857 68.9111C110.988 69.3332 111.363 69.6189 111.787 69.6189H118.019C118.968 69.6189 119.362 70.8888 118.595 71.472L113.553 75.3059C113.21 75.5667 113.066 76.0291 113.197 76.4512L115.123 82.6544C115.416 83.5982 114.384 84.383 113.617 83.7997L108.575 79.9659C108.232 79.705 107.768 79.705 107.425 79.9659L102.383 83.7997C101.616 84.383 100.584 83.5982 100.877 82.6544L102.803 76.4512C102.934 76.0291 102.79 75.5667 102.447 75.3059L97.4053 71.472C96.6383 70.8888 97.0325 69.6189 97.9806 69.6189H104.213C104.637 69.6189 105.012 69.3332 105.143 68.9111L107.069 62.7078Z" fill="#FFB317"/>
<path d="M139.069 62.7078C139.362 61.7641 140.638 61.7641 140.931 62.7078L142.857 68.9111C142.988 69.3332 143.363 69.6189 143.787 69.6189H150.019C150.968 69.6189 151.362 70.8888 150.595 71.472L145.553 75.3059C145.21 75.5667 145.066 76.0291 145.197 76.4512L147.123 82.6544C147.416 83.5982 146.384 84.383 145.617 83.7997L140.575 79.9659C140.232 79.705 139.768 79.705 139.425 79.9659L134.383 83.7997C133.616 84.383 132.584 83.5982 132.877 82.6544L134.803 76.4512C134.934 76.0291 134.79 75.5667 134.447 75.3059L129.405 71.472C128.638 70.8888 129.032 69.6189 129.981 69.6189H136.213C136.637 69.6189 137.012 69.3332 137.143 68.9111L139.069 62.7078Z" fill="#FFB317"/>
<path d="M177.723 72.084C179.161 72.084 180.301 72.4648 181.141 73.2266C181.98 73.9883 182.4 75.0267 182.4 76.3418C182.4 77.8652 181.922 79.0566 180.965 79.916C180.014 80.7689 178.66 81.1953 176.902 81.1953C175.307 81.1953 174.054 80.9382 173.143 80.4238V78.3438C173.67 78.6432 174.275 78.8743 174.959 79.0371C175.643 79.1999 176.277 79.2812 176.863 79.2812C177.898 79.2812 178.686 79.0501 179.227 78.5879C179.767 78.1257 180.037 77.4486 180.037 76.5566C180.037 74.8509 178.95 73.998 176.775 73.998C176.469 73.998 176.092 74.0306 175.643 74.0957C175.193 74.1543 174.799 74.2227 174.461 74.3008L173.436 73.6953L173.982 66.7227H181.404V68.7637H176.004L175.682 72.2988C175.91 72.2598 176.186 72.2142 176.512 72.1621C176.844 72.11 177.247 72.084 177.723 72.084ZM184.725 79.7793C184.725 79.304 184.848 78.9395 185.096 78.6855C185.343 78.4316 185.701 78.3047 186.17 78.3047C186.645 78.3047 187.007 78.4382 187.254 78.7051C187.501 78.9655 187.625 79.3236 187.625 79.7793C187.625 80.2415 187.498 80.6094 187.244 80.8828C186.997 81.1497 186.639 81.2832 186.17 81.2832C185.701 81.2832 185.343 81.1497 185.096 80.8828C184.848 80.6159 184.725 80.248 184.725 79.7793ZM199.49 73.8613C199.49 76.3418 199.09 78.1842 198.289 79.3887C197.495 80.5931 196.277 81.1953 194.637 81.1953C193.048 81.1953 191.844 80.5736 191.023 79.3301C190.203 78.0866 189.793 76.2637 189.793 73.8613C189.793 71.3418 190.19 69.4863 190.984 68.2949C191.785 67.097 193.003 66.498 194.637 66.498C196.232 66.498 197.439 67.123 198.26 68.373C199.08 69.623 199.49 71.4525 199.49 73.8613ZM192.117 73.8613C192.117 75.8079 192.316 77.1979 192.713 78.0312C193.117 78.8646 193.758 79.2812 194.637 79.2812C195.516 79.2812 196.157 78.8581 196.561 78.0117C196.971 77.1654 197.176 75.7819 197.176 73.8613C197.176 71.9473 196.971 70.5638 196.561 69.7109C196.157 68.8516 195.516 68.4219 194.637 68.4219C193.758 68.4219 193.117 68.8418 192.713 69.6816C192.316 70.5215 192.117 71.9147 192.117 73.8613Z" fill="#444444"/>
<defs>
<clipPath id="clip0">
<rect width="141.913" height="48" fill="white" transform="translate(29.5435)"/>
</clipPath>
</defs>
</svg>
