<svg width="20" height="20" viewBox="0 0 20 20" fill="none" xmlns="http://www.w3.org/2000/svg">
<g clip-path="url(#clip0_12_13)">
<path fill-rule="evenodd" clip-rule="evenodd" d="M0 0H20V20H0V0ZM10.5661 5H5V14.9808C5.42006 14.9849 5.83838 14.9838 6.25645 14.9826C6.81374 14.981 7.37059 14.9795 7.93054 14.9904C7.94006 14.0996 7.94006 13.1992 7.93054 12.3084C8.84396 12.2989 9.74786 12.2989 10.6613 12.3084C10.8736 12.7271 11.0962 13.1395 11.3186 13.5514C11.5746 14.0255 11.8302 14.4991 12.0695 14.9808C12.5595 14.9952 13.0471 14.9928 13.5347 14.9904C14.0224 14.988 14.51 14.9856 15 15C14.6943 14.3948 14.3641 13.8034 14.0342 13.2125C13.7479 12.6997 13.4618 12.1873 13.1922 11.6667C14.058 11.092 14.6289 10.1054 14.6765 9.0613C14.7526 8.00766 14.5338 6.83908 13.7441 6.0728C12.9163 5.23946 11.6889 5.02874 10.5661 5ZM7.93054 10.0287C7.94006 9.1954 7.94006 8.37165 7.93054 7.53831C8.74881 7.53831 9.56708 7.53831 10.3758 7.52874C10.7945 7.54789 11.2607 7.66284 11.5081 8.02682C11.7745 8.45785 11.765 9.02299 11.5461 9.4636C11.3083 9.8659 10.823 10.0192 10.3853 10.0287C10.1126 10.0287 9.83984 10.0298 9.56708 10.0309C9.02157 10.033 8.47605 10.0351 7.93054 10.0287Z" fill="white"/>
</g>
<defs>
<clipPath id="clip0_12_13">
<rect width="20" height="20" fill="white"/>
</clipPath>
</defs>
</svg>
