<svg width="70" height="70" viewBox="0 0 70 70" fill="none" xmlns="http://www.w3.org/2000/svg">
<mask id="mask0_11549_623" style="mask-type:alpha" maskUnits="userSpaceOnUse" x="0" y="0" width="70" height="70">
<rect width="70" height="70" fill="#D9D9D9"/>
</mask>
<g mask="url(#mask0_11549_623)">
<path d="M6.27958 60.375C4.53542 60.375 3.05278 59.7581 1.83167 58.5244C0.610555 57.2911 0 55.7934 0 54.0313C0 52.4757 0.510417 51.1024 1.53125 49.9115C2.55208 48.7205 3.81597 48.0035 5.32292 47.7604V40.3958C5.32292 38.6458 5.95486 37.1389 7.21875 35.875C8.48264 34.6111 9.98958 33.9792 11.7396 33.9792H24.3542V22.2396C22.8472 21.9965 21.5833 21.2795 20.5625 20.0885C19.5417 18.8976 19.0312 17.5243 19.0312 15.9688C19.0312 14.2066 19.6418 12.7086 20.8629 11.4749C22.084 10.2416 23.5667 9.625 25.3108 9.625C27.055 9.625 28.559 10.2416 29.8229 11.4749C31.0868 12.7086 31.7188 14.2066 31.7188 15.9688C31.7188 17.5243 31.2083 18.8976 30.1875 20.0885C29.1667 21.2795 27.9028 21.9965 26.3958 22.2396V33.9792H39.0104C40.7604 33.9792 42.2674 34.6111 43.5312 35.875C44.7951 37.1389 45.4271 38.6458 45.4271 40.3958V47.7604C46.934 48.0035 48.1979 48.7205 49.2188 49.9115C50.2396 51.1024 50.75 52.4757 50.75 54.0313C50.75 55.7934 50.1181 57.2911 48.8542 58.5244C47.5903 59.7581 46.0863 60.375 44.3421 60.375C42.5979 60.375 41.1153 59.7581 39.8942 58.5244C38.6731 57.2911 38.0625 55.7934 38.0625 54.0313C38.0625 52.4757 38.5729 51.1024 39.5938 49.9115C40.6146 48.7205 41.8785 48.0035 43.3854 47.7604V40.3958C43.3854 39.1563 42.9661 38.1172 42.1276 37.2786C41.2891 36.4401 40.25 36.0208 39.0104 36.0208H26.3958V47.7604C27.9028 48.0035 29.1667 48.7205 30.1875 49.9115C31.2083 51.1024 31.7188 52.4757 31.7188 54.0313C31.7188 55.7934 31.0868 57.2911 29.8229 58.5244C28.559 59.7581 27.055 60.375 25.3108 60.375C23.5667 60.375 22.084 59.7581 20.8629 58.5244C19.6418 57.2911 19.0312 55.7934 19.0312 54.0313C19.0312 52.4757 19.5417 51.1024 20.5625 49.9115C21.5833 48.7205 22.8472 48.0035 24.3542 47.7604V36.0208H11.7396C10.5 36.0208 9.46094 36.4401 8.6224 37.2786C7.78385 38.1172 7.36458 39.1563 7.36458 40.3958V47.7604C8.87153 48.0035 10.1354 48.7205 11.1562 49.9115C12.1771 51.1024 12.6875 52.4757 12.6875 54.0313C12.6875 55.7934 12.0556 57.2911 10.7917 58.5244C9.52778 59.7581 8.02375 60.375 6.27958 60.375ZM6.30729 58.3333C7.49826 58.3333 8.5191 57.9214 9.36979 57.0974C10.2205 56.2739 10.6458 55.2531 10.6458 54.0349C10.6458 52.8172 10.2266 51.7951 9.38802 50.9688C8.54948 50.1424 7.51042 49.7292 6.27083 49.7292C5.10417 49.7292 4.10764 50.1545 3.28125 51.0052C2.45486 51.8559 2.04167 52.8646 2.04167 54.0313C2.04167 55.1979 2.45486 56.2066 3.28125 57.0573C4.10764 57.908 5.11632 58.3333 6.30729 58.3333ZM25.3385 58.3333C26.5295 58.3333 27.5503 57.9214 28.401 57.0974C29.2517 56.2739 29.6771 55.2531 29.6771 54.0349C29.6771 52.8172 29.2578 51.7951 28.4193 50.9688C27.5807 50.1424 26.5417 49.7292 25.3021 49.7292C24.1354 49.7292 23.1389 50.1545 22.3125 51.0052C21.4861 51.8559 21.0729 52.8646 21.0729 54.0313C21.0729 55.1979 21.4861 56.2066 22.3125 57.0573C23.1389 57.908 24.1476 58.3333 25.3385 58.3333ZM44.3698 58.3333C45.5608 58.3333 46.5816 57.9214 47.4323 57.0974C48.283 56.2739 48.7083 55.2531 48.7083 54.0349C48.7083 52.8172 48.2891 51.7951 47.4505 50.9688C46.612 50.1424 45.5729 49.7292 44.3333 49.7292C43.1667 49.7292 42.1701 50.1545 41.3438 51.0052C40.5174 51.8559 40.1042 52.8646 40.1042 54.0313C40.1042 55.1979 40.5174 56.2066 41.3438 57.0573C42.1701 57.908 43.1788 58.3333 44.3698 58.3333ZM25.3385 20.2708C26.5295 20.2708 27.5503 19.8589 28.401 19.0349C29.2517 18.2114 29.6771 17.1906 29.6771 15.9724C29.6771 14.7547 29.2578 13.7326 28.4193 12.9062C27.5807 12.0799 26.5417 11.6667 25.3021 11.6667C24.1354 11.6667 23.1389 12.092 22.3125 12.9427C21.4861 13.7934 21.0729 14.8021 21.0729 15.9688C21.0729 17.1354 21.4861 18.1441 22.3125 18.9948C23.1389 19.8455 24.1476 20.2708 25.3385 20.2708Z" fill="#FF474A"/>
</g>
</svg>
