<svg width="20" height="20" viewBox="0 0 20 20" fill="none" xmlns="http://www.w3.org/2000/svg">
<path d="M8.59246 0.039924C11.093 -0.102325 13.6129 0.136183 16.0492 0.745284C16.503 0.863468 16.9665 0.96347 17.3897 1.18059C18.5589 1.74637 19.4217 2.94211 19.6292 4.27476C20.0978 6.84325 20.1223 9.50052 19.7026 12.0786C19.6348 12.4958 19.5685 12.9177 19.4171 13.3124C19.0387 14.3519 18.2479 15.2172 17.2724 15.6568C16.9854 15.7899 16.6794 15.8685 16.3771 15.9525C16.1547 16.0049 15.9941 16.2306 15.9992 16.4675C15.9957 17.5745 16.0002 18.682 15.9972 19.7889C16.0196 19.9729 15.7688 20.0729 15.6576 19.9371C14.5781 18.9873 13.5043 18.0301 12.4269 17.0782C12.1515 16.8279 11.7788 16.714 11.4173 16.7397C8.66844 16.898 5.89612 16.5932 3.23701 15.8466C2.03467 15.499 1.01335 14.5263 0.578914 13.299C0.409628 12.8514 0.345891 12.3712 0.269407 11.8995C-0.126274 9.34597 -0.0854818 6.71972 0.387703 4.18117C0.64877 2.66404 1.78176 1.36508 3.1952 0.947427C4.95689 0.445814 6.77009 0.143669 8.59246 0.039924ZM5.72888 3.93197C5.50962 4.00577 5.34594 4.2416 5.35461 4.48492C5.35359 5.14857 5.35308 5.81276 5.35512 6.4764C5.34696 6.76785 5.58254 7.03256 5.86043 7.04486C6.50749 7.04914 7.15455 7.04272 7.80212 7.047C8.00404 7.04165 8.19474 7.16946 8.28805 7.35449C8.37218 7.50904 8.34516 7.69354 8.35026 7.86359C8.35026 9.5925 8.34771 11.3214 8.35179 13.0503C8.34108 13.3642 8.62203 13.638 8.91828 13.6177C9.6352 13.6156 10.3516 13.6177 11.0685 13.6166C11.3617 13.6321 11.6263 13.3567 11.6187 13.0498C11.6202 11.3385 11.6192 9.62726 11.6192 7.916C11.6238 7.73311 11.5963 7.53899 11.6733 7.3684C11.7661 7.16946 11.9726 7.03684 12.1847 7.047C12.8149 7.04326 13.4452 7.04861 14.0754 7.04486C14.365 7.05716 14.6225 6.77748 14.6149 6.47694C14.6149 5.79939 14.6164 5.1213 14.6143 4.44375C14.6072 4.1523 14.3594 3.89828 14.0795 3.90577C11.3745 3.90203 8.66894 3.9063 5.96343 3.90363C5.8844 3.9047 5.80485 3.90737 5.72888 3.93197Z" fill="white"/>
</svg>
