<svg width="20" height="20" viewBox="0 0 20 20" fill="none" xmlns="http://www.w3.org/2000/svg">
<path fill-rule="evenodd" clip-rule="evenodd" d="M0 9.70013C4.05291 9.64967 6.33133 9.37238 7.85178 7.85182C9.37234 6.33124 9.64948 4.05292 9.70002 0C4.41309 0.155685 0.155609 4.41321 0 9.70013ZM10.3 3.84607e-08C10.3502 4.05292 10.6273 6.33124 12.1482 7.85182C13.6687 9.37238 15.947 9.64952 20 9.70013C19.8444 4.41321 15.5869 0.155686 10.3 3.84607e-08ZM20 10.2998C15.947 10.3504 13.6687 10.6275 12.1482 12.1481C10.6276 13.6687 10.3502 15.9471 10.3 20C15.5868 19.8443 19.8443 15.5868 20 10.2998ZM9.70002 20C9.64948 15.9471 9.37234 13.6687 7.85178 12.1481C6.33133 10.6276 4.05292 10.3504 2.07699e-06 10.2998C0.155647 15.5868 4.41311 19.8443 9.70002 20Z" fill="white"/>
</svg>
