<svg xmlns="http://www.w3.org/2000/svg" viewBox="0 0 548.2 402"><defs><style>.cls-1{fill:#5bbbe6;}</style></defs><title>picture</title><g id="Слой_2" data-name="Слой 2"><g id="Capa_1" data-name="Capa 1"><path class="cls-1" d="M274.1,118.8c-22.7,0-42,8-58.1,24.1s-24.1,35.4-24.1,58.1,8,42,24.1,58.1,35.4,24.1,58.1,24.1,42-8,58.1-24.1,24.1-35.5,24.1-58.1-8-42-24.1-58.1S296.7,118.8,274.1,118.8Z"/><path class="cls-1" d="M429.8,0H118.4C53.3,0,0,53.3,0,118.4V283.6C0,348.7,53.3,402,118.4,402H429.8c65.1,0,118.4-53.3,118.4-118.4V118.4C548.2,53.3,494.9,0,429.8,0ZM365.2,292.1c-25.2,25.2-55.7,37.8-91.1,37.8-35.6,0-65.9-12.5-91.1-37.8s-37.8-55.7-37.8-91.1c0-35.6,12.5-65.9,37.8-91.1s55.5-37.8,91.1-37.8c35.4,0,65.9,12.5,91.1,37.8S403,165.4,403,201C403,236.4,390.5,266.9,365.2,292.1Z"/></g></g></svg>