<?xml version="1.0" encoding="utf-8"?>
<!-- Generator: Adobe Illustrator 22.0.0, SVG Export Plug-In . SVG Version: 6.00 Build 0)  -->
<svg version="1.1" id="Слой_1" xmlns="http://www.w3.org/2000/svg" xmlns:xlink="http://www.w3.org/1999/xlink" x="0px" y="0px"
	 viewBox="0 0 17.6 16" style="enable-background:new 0 0 17.6 16;" xml:space="preserve">
<style type="text/css">
	.st0{fill:#FFFFFF;}
</style>
<title>thumbsdown</title>
<g id="Слой_2_1_">
	<g id="Слой_1-2">
		<path class="st0" d="M17.6,8.8c0,0.9-0.7,1.6-1.6,1.6h-5l0.8,3.7v0.2c0,0.3-0.1,0.6-0.3,0.9L10.6,16l-5.3-5.3
			C4.9,10.4,4.8,10,4.8,9.6v-8C4.8,0.7,5.5,0,6.4,0c0,0,0,0,0,0h7.2c0.6,0,1.2,0.4,1.4,1l2.4,5.7c0.1,0.2,0.1,0.4,0.1,0.6v1.6H17.6z
			 M0,0h3.2v9.6H0V0z"/>
	</g>
</g>
</svg>
