<?xml version="1.0" encoding="utf-8"?>
<!-- Generator: Adobe Illustrator 22.0.0, SVG Export Plug-In . SVG Version: 6.00 Build 0)  -->
<svg version="1.1" id="Слой_1" xmlns="http://www.w3.org/2000/svg" xmlns:xlink="http://www.w3.org/1999/xlink" x="0px" y="0px"
	 viewBox="0 0 488.9 291.4" style="enable-background:new 0 0 488.9 291.4;" xml:space="preserve">
<style type="text/css">
	.st0{fill:#FFFFFF;}
</style>
<title>eye</title>
<g id="Слой_2_1_">
	<g id="Capa_1">
		<path class="st0" d="M244.4,0C151,0,66.3,51.1,3.8,134.1c-5.1,6.9-5.1,16.2,0,23.1C66.3,240.3,151,291.4,244.4,291.4
			S422.5,240.3,485,157.3c5.1-6.9,5.1-16.2,0-23.1C422.5,51.1,337.8,0,244.4,0z M251.1,248.3c-56.7,3.7-105.6-39.3-109.3-96
			c-0.3-4.4-0.3-8.8,0-13.3c3.2-51.2,44.7-92.7,95.9-95.9c56.7-3.6,105.6,39.4,109.3,96.1c0.3,4.4,0.3,8.8,0,13.2
			C343.7,203.5,302.2,245,251.1,248.3L251.1,248.3z M248,200.9c-30.5,2-56.8-21.2-58.8-51.7s21.2-56.8,51.7-58.8
			c30.5-2,56.8,21.2,58.8,51.7c0.2,2.4,0.2,4.7,0,7.1C298,177,275.8,199.2,248,200.9z"/>
	</g>
</g>
</svg>
