<svg xmlns="http://www.w3.org/2000/svg" viewBox="0 0 315 219.55"><title>youtube</title><g id="Слой_2" data-name="Слой 2"><g id="Layer_1" data-name="Layer 1"><path d="M309.55,35.33C305.7,18.56,292,6.21,275.5,4.37,236.44,0,196.91,0,157.55,0s-78.91,0-118,4.37c-16.48,1.84-30.18,14.19-34,31C.07,59.17,0,85.21,0,109.78s0,50.61,5.5,74.46c3.84,16.75,17.54,29.12,34,31,39.05,4.35,78.58,4.38,117.94,4.35s78.91,0,118-4.35c16.49-1.84,30.19-14.21,34.05-31,5.49-23.85,5.51-49.9,5.51-74.46S315.05,59.17,309.55,35.33ZM116.85,158.68V54.51C150.23,71.92,183.4,89.21,217,106.74Z"/></g></g></svg>