<svg xmlns="http://www.w3.org/2000/svg" viewBox="0 0 475.08 475.08"><defs><style>.cls-1{fill:#252d40;}</style></defs><title>search_1</title><g id="Слой_2" data-name="Слой 2"><g id="Capa_1" data-name="Capa 1"><path class="cls-1" d="M464.52,412.84l-97.93-97.92Q402,263.82,402,201a197.41,197.41,0,0,0-15.85-78.09q-15.84-37.26-42.83-64.24T279.09,15.85a200.29,200.29,0,0,0-156.18,0Q85.65,31.69,58.67,58.67T15.85,122.91a200.27,200.27,0,0,0,0,156.17q15.84,37.26,42.82,64.24t64.24,42.83A197.61,197.61,0,0,0,201,402q62.82,0,113.92-35.4l97.93,97.64q10.27,10.84,25.69,10.85a36.54,36.54,0,0,0,26-62.24ZM291.36,291.36Q253.81,328.91,201,328.9t-90.36-37.54Q73.1,253.81,73.09,201t37.55-90.36Q148.18,73.08,201,73.09t90.36,37.55q37.56,37.53,37.55,90.36T291.36,291.36Z"/></g></g></svg>