<svg xmlns="http://www.w3.org/2000/svg" viewBox="0 0 488.85 291.4"><defs><style>.cls-1{fill:#5bbbe6;}</style></defs><title>eye</title><g id="Слой_2" data-name="Слой 2"><g id="Capa_1" data-name="Capa 1"><path class="cls-1" d="M244.43,0C151,0,66.32,51.1,3.82,134.1a19.38,19.38,0,0,0,0,23.1C66.32,240.3,151,291.4,244.43,291.4S422.53,240.3,485,157.3a19.35,19.35,0,0,0,0-23.1C422.52,51.1,337.83,0,244.43,0Zm6.7,248.3A102.89,102.89,0,0,1,141.82,139c3.2-51.2,44.7-92.7,95.91-95.9A102.89,102.89,0,0,1,347,152.4C343.73,203.5,302.23,245,251.13,248.3ZM248,200.9a55.36,55.36,0,1,1,51.7-51.7A55.28,55.28,0,0,1,248,200.9Z"/></g></g></svg>