<?xml version="1.0" encoding="utf-8"?>
<!-- Generator: Adobe Illustrator 22.0.0, SVG Export Plug-In . SVG Version: 6.00 Build 0)  -->
<svg version="1.1" id="Слой_1" xmlns="http://www.w3.org/2000/svg" xmlns:xlink="http://www.w3.org/1999/xlink" x="0px" y="0px"
	 viewBox="0 0 328.9 402" style="enable-background:new 0 0 328.9 402;" xml:space="preserve">
<style type="text/css">
	.st0{fill:#FFFFFF;}
</style>
<title>lock_1</title>
<g id="Слой_2_1_">
	<g id="Capa_1">
		<path class="st0" d="M320.9,190.7c-5.1-5.2-12.1-8.1-19.4-8h-9.1v-54.8c0-35-12.6-65.1-37.7-90.2S199.5,0,164.4,0
			c-35,0-65.1,12.6-90.2,37.7s-37.7,55.2-37.7,90.2v54.8h-9.1c-7.3-0.1-14.3,2.8-19.4,8c-5.2,5.1-8.1,12.1-8,19.4v164.4
			c-0.1,7.3,2.8,14.3,8,19.4c5.1,5.2,12.1,8.1,19.4,8h274.1c15.1,0.1,27.3-12.1,27.4-27.1c0-0.1,0-0.2,0-0.3V210.1
			C329,202.8,326.1,195.8,320.9,190.7z M237.5,182.7H91.4v-54.8c0-20.2,7.1-37.4,21.4-51.7s31.5-21.4,51.7-21.4
			c20.2,0,37.4,7.1,51.7,21.4s21.4,31.5,21.4,51.7L237.5,182.7z"/>
	</g>
</g>
</svg>
