<svg xmlns="http://www.w3.org/2000/svg" viewBox="0 0 475.08 453.1"><defs><style>.cls-1{fill:#5bbbe6;}</style></defs><title>star</title><g id="Слой_2" data-name="Слой 2"><g id="Capa_1" data-name="Capa 1"><path class="cls-1" d="M475.08,175.58q0-10.56-16-13.13L315.77,141.61,251.53,11.7Q246.11,0,237.54,0t-14,11.7L159.31,141.61,16,162.45Q0,165,0,175.58q0,6,7.14,13.71L111.06,290.36,86.51,433.11a46.39,46.39,0,0,0-.57,5.71,16.79,16.79,0,0,0,3,10.13q3,4.16,9,4.15,5.14,0,11.42-3.43l128.19-67.38,128.19,67.38a23.1,23.1,0,0,0,11.42,3.43,10.06,10.06,0,0,0,8.71-4.15,16.85,16.85,0,0,0,3-10.13,43.43,43.43,0,0,0-.28-5.71L364,290.36,467.65,189.29Q475.08,181.87,475.08,175.58Z"/></g></g></svg>