<?xml version="1.0" encoding="utf-8"?>
<!-- Generator: Adobe Illustrator 22.0.0, SVG Export Plug-In . SVG Version: 6.00 Build 0)  -->
<svg version="1.1" id="Слой_1" xmlns="http://www.w3.org/2000/svg" xmlns:xlink="http://www.w3.org/1999/xlink" x="0px" y="0px"
	 viewBox="0 0 17.6 16" style="enable-background:new 0 0 17.6 16;" xml:space="preserve">
<style type="text/css">
	.st0{fill:#FFFFFF;}
</style>
<title>thumbsup</title>
<g id="Слой_2_1_">
	<g id="Слой_1-2">
		<path class="st0" d="M17.6,7.2c0-0.9-0.7-1.6-1.6-1.6l0,0h-5l0.8-3.7V1.7c0-0.3-0.2-0.6-0.4-0.9L10.6,0L5.3,5.3
			C4.9,5.6,4.8,6,4.8,6.4v8c0,0.9,0.7,1.6,1.6,1.6l0,0h7.2c0.6,0,1.2-0.4,1.4-1l2.4-5.7c0.1-0.2,0.1-0.4,0.1-0.6V7.2H17.6z M0,16
			h3.2V6.4H0V16z"/>
	</g>
</g>
</svg>
