<?xml version="1.0" encoding="utf-8"?>
<!-- Generator: Adobe Illustrator 22.0.0, SVG Export Plug-In . SVG Version: 6.00 Build 0)  -->
<svg version="1.1" id="Слой_1" xmlns="http://www.w3.org/2000/svg" xmlns:xlink="http://www.w3.org/1999/xlink" x="0px" y="0px"
	 viewBox="0 0 315 219.6" style="enable-background:new 0 0 315 219.6;" xml:space="preserve">
<style type="text/css">
	.st0{fill:#FFFFFF;}
</style>
<title>youtube</title>
<g id="Слой_2_1_">
	<g id="Layer_1">
		<path class="st0" d="M309.5,35.3c-3.8-16.8-17.5-29.1-34-31C236.4,0,196.9,0,157.6,0s-78.9,0-118,4.4c-16.5,1.8-30.2,14.2-34,31
			C0.1,59.2,0,85.2,0,109.8s0,50.6,5.5,74.5c3.8,16.8,17.5,29.1,34,31c39.1,4.4,78.6,4.4,117.9,4.4s78.9,0,118-4.4
			c16.5-1.8,30.2-14.2,34-31c5.5-23.9,5.5-49.9,5.5-74.5S315,59.2,309.5,35.3z M116.8,158.7V54.5c33.4,17.4,66.5,34.7,100.2,52.2
			L116.8,158.7z"/>
	</g>
</g>
</svg>
