<?xml version="1.0" encoding="utf-8"?>
<!-- Generator: Adobe Illustrator 22.0.0, SVG Export Plug-In . SVG Version: 6.00 Build 0)  -->
<svg version="1.1" id="Слой_1" xmlns="http://www.w3.org/2000/svg" xmlns:xlink="http://www.w3.org/1999/xlink" x="0px" y="0px"
	 viewBox="0 0 475.1 475.1" style="enable-background:new 0 0 475.1 475.1;" xml:space="preserve">
<style type="text/css">
	.st0{fill:#FFFFFF;}
</style>
<title>search_1</title>
<g id="Слой_2_1_">
	<g id="Capa_1">
		<path class="st0" d="M464.5,412.8l-97.9-97.9c23.6-34.1,35.4-72,35.4-113.9c0.1-26.8-5.3-53.4-15.9-78.1
			c-10.6-24.8-24.8-46.3-42.8-64.2s-39.4-32.3-64.2-42.8c-49.9-21.1-106.3-21.1-156.2,0C98.1,26.4,76.7,40.7,58.7,58.7
			s-32.3,39.4-42.8,64.2c-21.1,49.9-21.1,106.3,0,156.2c10.6,24.8,24.8,46.3,42.8,64.2c18,18,39.4,32.3,64.2,42.8
			c24.7,10.5,51.3,15.9,78.1,15.8c41.9,0,79.9-11.8,113.9-35.4l97.9,97.6c6.8,7.2,15.4,10.8,25.7,10.9c20.2,0,36.6-16.3,36.6-36.5
			C475.1,428.9,471.3,419.7,464.5,412.8L464.5,412.8z M291.4,291.4c-25,25-55.2,37.5-90.4,37.5c-35.2,0-65.3-12.5-90.4-37.5
			c-25-25-37.5-55.2-37.6-90.4s12.5-65.3,37.6-90.4c25-25,55.1-37.6,90.4-37.6s65.3,12.5,90.4,37.6c25,25,37.6,55.1,37.5,90.4
			S316.4,266.3,291.4,291.4z"/>
	</g>
</g>
</svg>
