<?xml version="1.0" encoding="utf-8"?>
<!-- Generator: Adobe Illustrator 22.0.0, SVG Export Plug-In . SVG Version: 6.00 Build 0)  -->
<svg version="1.1" id="Слой_1" xmlns="http://www.w3.org/2000/svg" xmlns:xlink="http://www.w3.org/1999/xlink" x="0px" y="0px"
	 viewBox="0 0 548.2 402" style="enable-background:new 0 0 548.2 402;" xml:space="preserve">
<style type="text/css">
	.st0{fill:#FFFFFF;}
</style>
<title>picture</title>
<g id="Слой_2_1_">
	<g id="Capa_1">
		<path class="st0" d="M274.1,118.8c-22.7,0-42,8-58.1,24.1s-24.1,35.4-24.1,58.1s8,42,24.1,58.1s35.4,24.1,58.1,24.1
			s42-8,58.1-24.1s24.1-35.5,24.1-58.1s-8-42-24.1-58.1S296.7,118.8,274.1,118.8z"/>
		<path class="st0" d="M429.8,0H118.4C53.3,0,0,53.3,0,118.4v165.2C0,348.7,53.3,402,118.4,402h311.4c65.1,0,118.4-53.3,118.4-118.4
			V118.4C548.2,53.3,494.9,0,429.8,0z M365.2,292.1c-25.2,25.2-55.7,37.8-91.1,37.8c-35.6,0-65.9-12.5-91.1-37.8
			s-37.8-55.7-37.8-91.1c0-35.6,12.5-65.9,37.8-91.1s55.5-37.8,91.1-37.8c35.4,0,65.9,12.5,91.1,37.8S403,165.4,403,201
			C403,236.4,390.5,266.9,365.2,292.1z"/>
	</g>
</g>
</svg>
