<?xml version="1.0" encoding="utf-8"?>
<!-- Generator: Adobe Illustrator 22.0.0, SVG Export Plug-In . SVG Version: 6.00 Build 0)  -->
<svg version="1.1" id="Слой_1" xmlns="http://www.w3.org/2000/svg" xmlns:xlink="http://www.w3.org/1999/xlink" x="0px" y="0px"
	 viewBox="0 0 475.1 453.1" style="enable-background:new 0 0 475.1 453.1;" xml:space="preserve">
<style type="text/css">
	.st0{fill:#FFFFFF;}
</style>
<title>star</title>
<g id="Слой_2_1_">
	<g id="Capa_1">
		<path class="st0" d="M475.1,175.6c0-7-5.3-11.4-16-13.1l-143.3-20.8L251.5,11.7c-3.6-7.8-8.3-11.7-14-11.7
			c-5.7,0-10.4,3.9-14,11.7l-64.2,129.9L16,162.4c-10.7,1.7-16,6.1-16,13.1c0,4,2.4,8.6,7.1,13.7l103.9,101.1L86.5,433.1
			c-0.3,1.9-0.5,3.8-0.6,5.7c-0.1,3.6,0.9,7.2,3,10.1c2,2.8,5,4.2,9,4.1c3.4,0,7.2-1.1,11.4-3.4l128.2-67.4l128.2,67.4
			c3.4,2.1,7.4,3.3,11.4,3.4c3.4,0.2,6.7-1.4,8.7-4.1c2.1-3,3.1-6.5,3-10.1c0-1.9-0.1-3.8-0.3-5.7L364,290.4l103.6-101.1
			C472.6,184.3,475.1,179.8,475.1,175.6z"/>
	</g>
</g>
</svg>
