<?xml version="1.0" encoding="utf-8"?>
<!-- Generator: Adobe Illustrator 22.0.0, SVG Export Plug-In . SVG Version: 6.00 Build 0)  -->
<svg version="1.1" id="Слой_1" xmlns="http://www.w3.org/2000/svg" xmlns:xlink="http://www.w3.org/1999/xlink" x="0px" y="0px"
	 viewBox="0 0 47.3 13.6" style="enable-background:new 0 0 47.3 13.6;" xml:space="preserve">
<style type="text/css">
	.st0{fill:#010101;}
</style>
<title>logo</title>
<g id="Слой_2_1_">
	<g id="Слой_1-2">
		<path class="st0" d="M0,8.3V0h1.1c0.4,1.2,0.7,2.5,1.1,3.7c0,0.1,0,0.2,0.1,0.2c0-1.3,0-2.6,0-3.9h1.1v8.3H2.3V6.8
			c0-0.1,0-0.2,0-0.3C1.9,5.3,1.5,4.1,1.1,2.9v5.4H0z"/>
		<path class="st0" d="M5.9,8.3V0H7v8.3H5.9z"/>
		<path class="st0" d="M9.8,0.4C10,0.1,10.4,0,10.7,0h0.8c0.4,0,0.7,0.1,1,0.3c0.3,0.2,0.4,0.6,0.4,0.9c0,0.4,0,0.7,0,1.1h-1.1V1.6
			c0-0.2-0.1-0.4-0.2-0.5C11.5,1,11.3,1,11.1,1c-0.1,0-0.3,0-0.4,0.2c-0.1,0.1-0.1,0.3-0.1,0.5c0,1.7,0,3.3,0,5c0,0.2,0,0.3,0.1,0.5
			c0.1,0.1,0.2,0.1,0.4,0.1h0.7v-2h-0.6v-1H13v4h-2.1c-0.3,0-0.7-0.1-1-0.3C9.6,7.7,9.5,7.4,9.5,7V1.3C9.5,1,9.6,0.6,9.8,0.4z"/>
		<path class="st0" d="M15.3,8.3V0h1.1v3.5h1.4V0h1.1v8.3h-1.1V4.5h-1.4v3.8H15.3z"/>
		<path class="st0" d="M21,0h3.2v1h-1v7.3h-1.1V1H21V0z"/>
		<path class="st0" d="M26.9,0.2C27.2,0,27.7-0.1,28.1,0c0.4,0,0.7,0.1,1,0.3c0.3,0.3,0.4,0.6,0.4,1c0,0.7,0,1.5,0,2.2
			c0,0.3-0.2,0.6-0.4,0.7c-0.5,0.4-0.9,0.9-1.3,1.3c-0.1,0.1-0.2,0.2-0.1,0.4v1.3h1.9v1h-3V5.9c0-0.2,0-0.3,0-0.5
			c0.1-0.2,0.2-0.4,0.4-0.6l0.9-0.9c0.2-0.2,0.4-0.3,0.5-0.5c0.1-0.1,0.1-0.3,0.1-0.4c0-0.5,0-1,0-1.5c0-0.2-0.1-0.3-0.3-0.4
			c-0.2,0-0.3,0-0.5,0c-0.2,0-0.3,0.2-0.3,0.4v0.9h-1.1c0-0.4,0-0.8,0-1.3C26.3,0.7,26.5,0.4,26.9,0.2z"/>
		<path class="st0" d="M32.1,8.3V0h2c0.4,0,0.7,0.1,1,0.4c0.3,0.3,0.4,0.7,0.4,1.1v5.7c0,0.3-0.1,0.6-0.3,0.8
			c-0.3,0.2-0.6,0.3-0.9,0.3L32.1,8.3z M33.2,1v6.3H34c0.1,0,0.3,0,0.4-0.1c0.1-0.1,0.1-0.2,0.1-0.3V1.7c0-0.2,0-0.3-0.1-0.5
			C34.3,1.1,34.1,1,34,1C33.7,1,33.5,1,33.2,1z"/>
		<path class="st0" d="M38.7,0.1C39.1,0,39.5,0,39.9,0c0.4,0,0.8,0,1.1,0.2c0.3,0.3,0.5,0.6,0.5,1v7h-1.1v-3h-1.3v3H38V1.6
			c0-0.3,0-0.6,0.1-0.9C38.2,0.4,38.5,0.2,38.7,0.1z M39.3,1.1c-0.1,0.1-0.2,0.3-0.2,0.4v2.7h1.3V1.5c0-0.1,0-0.3-0.1-0.4
			C40.1,1,40,1,39.8,1C39.6,1,39.5,1,39.3,1.1z"/>
		<path class="st0" d="M43.5,0h1.1c0.3,1.2,0.5,2.4,0.8,3.6C45.8,2.4,46,1.2,46.2,0h1.1c-0.4,1.7-0.9,3.4-1.3,5.1c0,0.1,0,0.3,0,0.4
			v2.7h-1.1c0-1,0-2,0-3C44.5,3.5,44,1.8,43.5,0z"/>
		<path class="st0" d="M19,10.7c0.3-0.1,0.7,0,1,0.2c0.3,0.2,0.5,0.5,0.6,0.8c0.1,0.4,0.1,0.8-0.1,1.2c-0.3,0.5-0.8,0.7-1.4,0.6
			c-0.4-0.1-0.7-0.3-0.9-0.6c-0.2-0.4-0.2-0.9-0.1-1.3C18.2,11.1,18.5,10.8,19,10.7z M19.1,11c-0.3,0.1-0.6,0.3-0.7,0.6
			c-0.1,0.3-0.1,0.7,0,1c0.2,0.5,0.7,0.7,1.2,0.5c0.1,0,0.2-0.1,0.3-0.2c0.2-0.2,0.3-0.6,0.3-0.9c0-0.3-0.1-0.6-0.4-0.8
			C19.7,11.1,19.4,11,19.1,11L19.1,11z"/>
		<path class="st0" d="M21.6,10.7c0.4-0.1,0.8-0.1,1.1,0.1c0.2,0.1,0.4,0.4,0.4,0.7h-0.4c0-0.2-0.2-0.4-0.5-0.5
			c-0.3-0.1-0.5,0-0.7,0.1c-0.1,0.1-0.1,0.3,0,0.5c0,0,0,0,0,0c0.4,0.3,1,0.2,1.4,0.5c0.2,0.2,0.3,0.6,0.1,0.9
			c-0.2,0.3-0.4,0.4-0.8,0.4c-0.3,0-0.6,0-0.9-0.1c-0.3-0.2-0.5-0.5-0.5-0.8c0.1,0,0.2,0,0.4,0c0,0.2,0.1,0.3,0.2,0.5
			c0.2,0.2,0.5,0.2,0.8,0.2c0.2,0,0.4-0.2,0.4-0.4c0-0.2-0.1-0.4-0.2-0.4c-0.4-0.2-0.8-0.2-1.1-0.4c-0.2-0.1-0.4-0.3-0.4-0.6
			C21.1,11.1,21.3,10.8,21.6,10.7z"/>
		<path class="st0" d="M24.1,10.9c0.4-0.2,0.8-0.3,1.2-0.2c0.3,0.1,0.6,0.4,0.7,0.8l-0.4,0.1c-0.1-0.2-0.2-0.4-0.5-0.5
			c-0.3-0.1-0.7,0-0.9,0.2C24.1,11.5,24,11.7,24,12c0,0.3,0.1,0.6,0.3,0.9c0.3,0.3,0.7,0.3,1,0.2c0.2-0.1,0.4-0.3,0.5-0.6l0.4,0.1
			c-0.1,0.3-0.3,0.6-0.5,0.8c-0.3,0.2-0.7,0.2-1,0.1c-0.3-0.1-0.6-0.2-0.7-0.5c-0.2-0.4-0.3-0.8-0.2-1.3
			C23.7,11.4,23.9,11.1,24.1,10.9z"/>
		<path class="st0" d="M27.4,10.7c0.4-0.1,0.7,0,1,0.2c0.3,0.2,0.5,0.5,0.6,0.8c0.1,0.4,0.1,0.9-0.1,1.3c-0.3,0.5-0.8,0.7-1.3,0.6
			c-0.4-0.1-0.7-0.3-0.9-0.6c-0.2-0.4-0.2-0.9-0.1-1.3C26.6,11.1,26.9,10.8,27.4,10.7z M27.5,11c-0.3,0.1-0.6,0.3-0.7,0.6
			c-0.1,0.3-0.1,0.6,0,0.9c0.1,0.3,0.3,0.6,0.6,0.7c0.3,0.1,0.7,0,0.9-0.2c0.2-0.2,0.3-0.6,0.3-0.9c0-0.3-0.1-0.6-0.4-0.8
			C28.1,11,27.8,11,27.5,11L27.5,11z"/>
		<path class="st0" d="M14.9,10.7h0.6c0.3,0.8,0.5,1.6,0.8,2.3c0.3-0.8,0.5-1.6,0.8-2.3h0.5v2.8h-0.4c0-0.8,0-1.6,0-2.4
			c-0.3,0.8-0.5,1.6-0.8,2.4h-0.4c-0.3-0.8-0.5-1.6-0.8-2.3c0,0.8,0,1.6,0,2.3h-0.4L14.9,10.7z"/>
		<path class="st0" d="M29.2,10.7h0.4c0.2,0.8,0.4,1.6,0.5,2.4c0.2-0.8,0.4-1.6,0.6-2.4h0.5c0.2,0.8,0.4,1.6,0.6,2.4
			c0.2-0.8,0.4-1.6,0.6-2.4h0.4c-0.3,0.9-0.5,1.9-0.8,2.8h-0.4c-0.2-0.8-0.5-1.6-0.7-2.4c-0.2,0.8-0.5,1.6-0.7,2.4H30
			C29.7,12.6,29.5,11.6,29.2,10.7z"/>
		<path class="st0" d="M12.4,12h1.2v0.4h-1.2V12z"/>
		<path class="st0" d="M33.7,12H35v0.4h-1.3V12z"/>
	</g>
</g>
</svg>
