<svg width="23" height="23" viewBox="0 0 23 23" fill="none" xmlns="http://www.w3.org/2000/svg">
<path d="M2.38095 6.19048C2.38095 4.39465 2.38095 3.49674 2.93884 2.93884C3.49673 2.38095 4.39465 2.38095 6.19047 2.38095C7.9863 2.38095 8.88421 2.38095 9.44211 2.93884C10 3.49674 10 4.39465 10 6.19048C10 7.9863 10 8.88422 9.44211 9.44211C8.88421 10 7.9863 10 6.19047 10C4.39465 10 3.49673 10 2.93884 9.44211C2.38095 8.88422 2.38095 7.9863 2.38095 6.19048Z" stroke="#2F3A6F" stroke-width="1.07143"/>
<path d="M12.8571 16.6667C12.8571 14.8708 12.8571 13.9729 13.415 13.415C13.9729 12.8571 14.8708 12.8571 16.6667 12.8571C18.4625 12.8571 19.3604 12.8571 19.9183 13.415C20.4762 13.9729 20.4762 14.8708 20.4762 16.6667C20.4762 18.4625 20.4762 19.3604 19.9183 19.9183C19.3604 20.4762 18.4625 20.4762 16.6667 20.4762C14.8708 20.4762 13.9729 20.4762 13.415 19.9183C12.8571 19.3604 12.8571 18.4625 12.8571 16.6667Z" stroke="#2F3A6F" stroke-width="1.07143"/>
<path d="M2.38095 16.6667C2.38095 14.8708 2.38095 13.9729 2.93884 13.415C3.49673 12.8571 4.39465 12.8571 6.19047 12.8571C7.9863 12.8571 8.88421 12.8571 9.44211 13.415C10 13.9729 10 14.8708 10 16.6667C10 18.4625 10 19.3604 9.44211 19.9183C8.88421 20.4762 7.9863 20.4762 6.19047 20.4762C4.39465 20.4762 3.49673 20.4762 2.93884 19.9183C2.38095 19.3604 2.38095 18.4625 2.38095 16.6667Z" stroke="#2F3A6F" stroke-width="1.07143"/>
<path d="M12.8571 6.19048C12.8571 4.39465 12.8571 3.49674 13.415 2.93884C13.9729 2.38095 14.8708 2.38095 16.6667 2.38095C18.4625 2.38095 19.3604 2.38095 19.9183 2.93884C20.4762 3.49674 20.4762 4.39465 20.4762 6.19048C20.4762 7.9863 20.4762 8.88422 19.9183 9.44211C19.3604 10 18.4625 10 16.6667 10C14.8708 10 13.9729 10 13.415 9.44211C12.8571 8.88422 12.8571 7.9863 12.8571 6.19048Z" stroke="#2F3A6F" stroke-width="1.07143"/>
</svg>
