<svg width="287" height="32" viewBox="0 0 287 32" fill="none" xmlns="http://www.w3.org/2000/svg">
<path d="M0 0.701143H5.40412V11.2183H14.7662V0.701143H20.1513V28.5763H14.7662V16.3537H5.40412V28.5763H0V0.701143Z" fill="#2F3A6F"/>
<path d="M22.8381 0.701143H42.9894V28.5763H37.6043V5.66599H28.2423V28.5763H22.8381V0.701143Z" fill="#2F3A6F"/>
<path d="M60.1304 0C64.0883 0 67.4881 1.42755 70.3297 4.28266C73.184 7.13776 74.6112 10.6182 74.6112 14.724C74.6112 18.7919 73.203 22.2344 70.3868 25.0516C67.5833 27.8689 64.1771 29.2775 60.1684 29.2775C55.9695 29.2775 52.4809 27.831 49.7027 24.9379C46.9245 22.0449 45.5354 18.6087 45.5354 14.6293C45.5354 11.9636 46.1824 9.5128 47.4764 7.27673C48.7703 5.04065 50.5463 3.272 52.8044 1.97078C55.0751 0.656927 57.5171 0 60.1304 0ZM60.0733 5.19225C57.4854 5.19225 55.3098 6.08921 53.5465 7.88312C51.7832 9.67704 50.9015 11.9573 50.9015 14.724C50.9015 17.8065 52.0115 20.2447 54.2315 22.0386C55.9568 23.4409 57.9357 24.1421 60.1684 24.1421C62.6929 24.1421 64.8431 23.2325 66.6191 21.4133C68.3951 19.5941 69.2831 17.3517 69.2831 14.6861C69.2831 12.0331 68.3888 9.79073 66.6001 7.95892C64.8114 6.11447 62.6358 5.19225 60.0733 5.19225Z" fill="#2F3A6F"/>
<path d="M85.8266 0.701143H91.8206L97.6814 9.6265L103.599 0.701143H109.593L100.688 14.1934L110.145 28.5763H104.151L97.6814 18.7793L91.2688 28.5763H85.2367L94.6939 14.1934L85.8266 0.701143Z" fill="#2F3A6F"/>
<path d="M120.634 7.42833C122.587 7.42833 124.42 7.9147 126.133 8.88746C127.858 9.86022 129.203 11.1804 130.167 12.848C131.131 14.5156 131.613 16.3158 131.613 18.2487C131.613 20.1942 131.125 22.0134 130.148 23.7062C129.184 25.3991 127.865 26.7255 126.19 27.6857C124.516 28.6332 122.67 29.1069 120.653 29.1069C117.684 29.1069 115.147 28.0583 113.041 25.9612C110.948 23.8515 109.902 21.2933 109.902 18.2866C109.902 15.0651 111.088 12.3805 113.46 10.2329C115.54 8.36318 117.932 7.42833 120.634 7.42833ZM120.71 12.2984C119.099 12.2984 117.754 12.8606 116.676 13.985C115.61 15.0967 115.077 16.5242 115.077 18.2676C115.077 20.0615 115.604 21.5144 116.657 22.6261C117.722 23.7378 119.067 24.2937 120.691 24.2937C122.315 24.2937 123.666 23.7315 124.744 22.6071C125.822 21.4828 126.361 20.0363 126.361 18.2676C126.361 16.499 125.829 15.0651 124.763 13.966C123.71 12.8543 122.359 12.2984 120.71 12.2984Z" fill="#2F3A6F"/>
<path d="M153.803 28.5763H148.514L143.338 15.5578L138.067 28.5763H132.796L141.625 7.95892H144.974L153.803 28.5763Z" fill="#2F3A6F"/>
<path d="M164.946 7.2705C166.9 7.2705 168.733 7.75688 170.445 8.72963C172.171 9.70239 173.515 11.0226 174.479 12.6901C175.443 14.3577 175.925 16.158 175.925 18.0908C175.925 20.0364 175.437 21.8555 174.46 23.5484C173.496 25.2412 172.177 26.5677 170.502 27.5278C168.828 28.4753 166.982 28.9491 164.965 28.9491C161.997 28.9491 159.459 27.9005 157.354 25.8034C155.26 23.6937 154.214 21.1354 154.214 18.1287C154.214 14.9073 155.4 12.2227 157.772 10.0751C159.853 8.20536 162.244 7.2705 164.946 7.2705ZM165.022 12.1406C163.411 12.1406 162.066 12.7028 160.988 13.8271C159.922 14.9389 159.39 16.3664 159.39 18.1098C159.39 19.9037 159.916 21.3565 160.969 22.4682C162.035 23.58 163.379 24.1358 165.003 24.1358C166.627 24.1358 167.978 23.5737 169.056 22.4493C170.134 21.3249 170.674 19.8784 170.674 18.1098C170.674 16.3411 170.141 14.9073 169.075 13.8082C168.022 12.6965 166.671 12.1406 165.022 12.1406Z" fill="#2F3A6F"/>
<path d="M180.84 28.4185V32H176.216V24.0411H179.337L186.473 7.80109H189.822L197.053 24.0411H200.23V32H195.283V28.4185H180.84ZM191.534 24.0411L188.147 15.3621L184.646 24.0411H191.534Z" fill="#2F3A6F"/>
<path d="M217.28 20.8007L223.636 7.80109H227.061L232.236 28.4185H227.156L224.397 16.3285L218.231 28.4185H216.1L210.068 16.3285L207.29 28.4185H202.228L207.404 7.80109H210.829L217.28 20.8007Z" fill="#2F3A6F"/>
<path d="M249.218 7.80109H254.393V28.4185H249.218V26.2393C248.203 27.1994 247.182 27.8942 246.154 28.3237C245.139 28.7406 244.035 28.9491 242.843 28.9491C240.166 28.9491 237.851 27.9195 235.898 25.8603C233.944 23.7884 232.967 21.2176 232.967 18.1477C232.967 14.9641 233.912 12.3554 235.802 10.3214C237.693 8.28747 239.989 7.2705 242.691 7.2705C243.934 7.2705 245.101 7.50421 246.192 7.97164C247.283 8.43907 248.292 9.14021 249.218 10.0751V7.80109ZM243.756 12.0459C242.145 12.0459 240.807 12.6143 239.741 13.7513C238.676 14.8757 238.143 16.3222 238.143 18.0908C238.143 19.8721 238.682 21.3376 239.76 22.4872C240.851 23.6368 242.19 24.2116 243.775 24.2116C245.412 24.2116 246.769 23.6495 247.848 22.5251C248.926 21.3881 249.465 19.9037 249.465 18.0719C249.465 16.278 248.926 14.8252 247.848 13.7134C246.769 12.6017 245.406 12.0459 243.756 12.0459Z" fill="#2F3A6F"/>
<path d="M287 28.4185H257.125V7.80109H262.339V23.4536H269.456V7.80109H274.669V23.4536H281.805V7.80109H287V28.4185Z" fill="#2F3A6F"/>
</svg>
