<svg width="203" height="23" viewBox="0 0 203 23" fill="none" xmlns="http://www.w3.org/2000/svg">
<path d="M0 0.493452H3.80623V7.89524H10.4001V0.493452H14.193V20.1115H10.4001V11.5094H3.80623V20.1115H0V0.493452Z" fill="#2F3A6F"/>
<path d="M16.0854 0.493452H30.2783V20.1115H26.4855V3.98763H19.8916V20.1115H16.0854V0.493452Z" fill="#2F3A6F"/>
<path d="M42.351 0C45.1387 0 47.5332 1.00469 49.5346 3.01406C51.545 5.02343 52.5501 7.47291 52.5501 10.3625C52.5501 13.2254 51.5584 15.6482 49.5748 17.6309C47.6002 19.6136 45.2012 20.605 42.3778 20.605C39.4204 20.605 36.9633 19.5869 35.0066 17.5509C33.0499 15.5149 32.0715 13.0965 32.0715 10.2958C32.0715 8.41981 32.5272 6.69495 33.4385 5.12123C34.3499 3.54752 35.6008 2.30278 37.1912 1.387C38.7905 0.462334 40.5105 0 42.351 0ZM42.3108 3.65421C40.4881 3.65421 38.9558 4.28548 37.7139 5.548C36.4719 6.81053 35.851 8.41536 35.851 10.3625C35.851 12.5319 36.6327 14.2479 38.1963 15.5104C39.4115 16.4973 40.8053 16.9908 42.3778 16.9908C44.1559 16.9908 45.6703 16.3506 46.9212 15.0703C48.1721 13.79 48.7975 12.2118 48.7975 10.3358C48.7975 8.46871 48.1676 6.89055 46.9078 5.60135C45.648 4.30326 44.1157 3.65421 42.3108 3.65421Z" fill="#2F3A6F"/>
<path d="M60.4494 0.493452H64.6711L68.799 6.77497L72.9671 0.493452H77.1888L70.9165 9.98907L77.5774 20.1115H73.3557L68.799 13.2165L64.2824 20.1115H60.0339L66.6948 9.98907L60.4494 0.493452Z" fill="#2F3A6F"/>
<path d="M84.9647 5.22793C86.3407 5.22793 87.6318 5.57023 88.838 6.25484C90.0531 6.93945 91.0002 7.86856 91.6793 9.04218C92.3583 10.2158 92.6978 11.4828 92.6978 12.8431C92.6978 14.2123 92.3538 15.4926 91.6659 16.684C90.9868 17.8754 90.0576 18.809 88.8782 19.4847C87.6988 20.1515 86.3988 20.4849 84.9781 20.4849C82.8874 20.4849 81.1004 19.747 79.6172 18.2711C78.143 16.7863 77.4059 14.9858 77.4059 12.8698C77.4059 10.6026 78.2413 8.71321 79.9121 7.20174C81.3774 5.88586 83.0616 5.22793 84.9647 5.22793ZM85.0183 8.65542C83.8836 8.65542 82.9365 9.05107 82.1771 9.84237C81.4266 10.6248 81.0513 11.6295 81.0513 12.8564C81.0513 14.119 81.4221 15.1414 82.1637 15.9238C82.9142 16.7062 83.8613 17.0975 85.0049 17.0975C86.1486 17.0975 87.1002 16.7018 87.8596 15.9105C88.6191 15.1192 88.9988 14.1012 88.9988 12.8564C88.9988 11.6117 88.6236 10.6026 87.873 9.82904C87.1314 9.04663 86.1799 8.65542 85.0183 8.65542Z" fill="#2F3A6F"/>
<path d="M108.327 20.1115H104.601L100.956 10.9493L97.2432 20.1115H93.5308L99.7494 5.60135H102.108L108.327 20.1115Z" fill="#2F3A6F"/>
<path d="M116.175 5.11685C117.551 5.11685 118.842 5.45916 120.048 6.14377C121.263 6.82838 122.21 7.75749 122.889 8.9311C123.568 10.1047 123.908 11.3717 123.908 12.732C123.908 14.1012 123.564 15.3815 122.876 16.5729C122.197 17.7643 121.268 18.6979 120.088 19.3736C118.909 20.0404 117.609 20.3739 116.188 20.3739C114.097 20.3739 112.31 19.6359 110.827 18.16C109.353 16.6752 108.616 14.8748 108.616 12.7587C108.616 10.4915 109.451 8.60214 111.122 7.09066C112.587 5.77479 114.272 5.11685 116.175 5.11685ZM116.228 8.54434C115.094 8.54434 114.147 8.93999 113.387 9.7313C112.637 10.5137 112.261 11.5184 112.261 12.7454C112.261 14.0079 112.632 15.0304 113.374 15.8128C114.124 16.5952 115.071 16.9864 116.215 16.9864C117.359 16.9864 118.31 16.5907 119.07 15.7994C119.829 15.0081 120.209 13.9901 120.209 12.7454C120.209 11.5006 119.834 10.4915 119.083 9.71796C118.341 8.93555 117.39 8.54434 116.228 8.54434Z" fill="#2F3A6F"/>
<path d="M127.369 20.0004V22.521H124.113V16.9197H126.311L131.336 5.49027H133.695L138.788 16.9197H141.026V22.521H137.542V20.0004H127.369ZM134.901 16.9197L132.516 10.8116L130.05 16.9197H134.901Z" fill="#2F3A6F"/>
<path d="M153.035 14.6391L157.511 5.49027H159.923L163.569 20.0004H159.99L158.047 11.4917L153.705 20.0004H152.204L147.955 11.4917L145.998 20.0004H142.433L146.079 5.49027H148.491L153.035 14.6391Z" fill="#2F3A6F"/>
<path d="M175.529 5.49027H179.174V20.0004H175.529V18.4667C174.814 19.1425 174.095 19.6315 173.371 19.9338C172.656 20.2272 171.879 20.3739 171.039 20.3739C169.154 20.3739 167.523 19.6492 166.147 18.2C164.771 16.7419 164.083 14.9326 164.083 12.772C164.083 10.5315 164.749 8.69549 166.08 7.26404C167.412 5.83258 169.029 5.11685 170.932 5.11685C171.808 5.11685 172.63 5.28134 173.398 5.6103C174.166 5.93927 174.877 6.43272 175.529 7.09066V5.49027ZM171.682 8.47766C170.548 8.47766 169.605 8.87776 168.855 9.67795C168.104 10.4693 167.729 11.4873 167.729 12.732C167.729 13.9857 168.109 15.017 168.868 15.8261C169.636 16.6352 170.579 17.0397 171.696 17.0397C172.848 17.0397 173.804 16.6441 174.564 15.8528C175.323 15.0526 175.703 14.0079 175.703 12.7187C175.703 11.4562 175.323 10.4337 174.564 9.65128C173.804 8.86887 172.844 8.47766 171.682 8.47766Z" fill="#2F3A6F"/>
<path d="M202.14 20.0004H181.098V5.49027H184.771V16.5063H189.783V5.49027H193.455V16.5063H198.481V5.49027H202.14V20.0004Z" fill="#2F3A6F"/>
</svg>
